<?xml version="1.0" encoding="UTF-8" standalone="no"?>
<!-- Created with Inkscape (http://www.inkscape.org/) -->

<svg
   width="210mm"
   height="297mm"
   viewBox="0 0 210 297"
   version="1.1"
   id="svg1"
   xml:space="preserve"
   inkscape:version="1.4.2 (f4327f4, 2025-05-13)"
   sodipodi:docname="adana-demirspor.svg"
   xmlns:inkscape="http://www.inkscape.org/namespaces/inkscape"
   xmlns:sodipodi="http://sodipodi.sourceforge.net/DTD/sodipodi-0.dtd"
   xmlns="http://www.w3.org/2000/svg"
   xmlns:svg="http://www.w3.org/2000/svg"><sodipodi:namedview
     id="namedview1"
     pagecolor="#ffffff"
     bordercolor="#000000"
     borderopacity="0.25"
     inkscape:showpageshadow="2"
     inkscape:pageopacity="0.0"
     inkscape:pagecheckerboard="0"
     inkscape:deskcolor="#d1d1d1"
     inkscape:document-units="mm"
     inkscape:zoom="0.75811588"
     inkscape:cx="397.03693"
     inkscape:cy="561.25984"
     inkscape:window-width="1920"
     inkscape:window-height="1111"
     inkscape:window-x="-9"
     inkscape:window-y="-9"
     inkscape:window-maximized="1"
     inkscape:current-layer="g1" /><defs
     id="defs1"><clipPath
       id="a"><path
         d="M52 0h407v405.82H52Zm0 0"
         id="path1" /></clipPath><clipPath
       id="b"><path
         d="M0 146h515.11v124H0Zm0 0"
         id="path2" /></clipPath></defs><g
     inkscape:label="Layer 1"
     inkscape:groupmode="layer"
     id="layer1"><g
       id="g1"
       transform="matrix(0.35277759,0,0,0.35277759,14.179951,76.849149)"><g
         clip-path="url(#a)"
         id="g3"><path
           d="m 255.586,0 c 112.066,0 202.906,90.844 202.906,202.91 0,112.066 -90.84,202.91 -202.906,202.91 -112.07,0 -202.91,-90.843 -202.91,-202.91 C 52.676,90.843 143.516,0 255.586,0"
           style="fill:#00003f;fill-rule:evenodd;stroke:none"
           id="path3" /></g><path
         d="m 256.629,92.336 c 60.926,0 110.316,49.39 110.316,110.309 0,60.925 -49.39,110.312 -110.316,110.312 -60.918,0 -110.305,-49.387 -110.305,-110.312 0,-60.918 49.387,-110.31 110.305,-110.31"
         style="fill:#82cafb;fill-rule:evenodd;stroke:none"
         id="path4" /><g
         clip-path="url(#b)"
         id="g6"><path
           d="m 252.727,171.512 18.355,11.734 3.332,2.121 v 14.875 l 25.16,-49.777 2.016,-3.992 4.465,0.015 194.011,0.621 15.047,0.047 -9.398,11.739 -7.73,9.656 -2.184,2.719 h -3.465 l -22.215,-0.016 -18.652,26.16 h -3.84 l -72.711,-0.113 -0.563,1.183 -1.543,3.22 -1.574,3.226 -1.965,4.11 h -2.875 l -0.238,0.495 -5.281,10.727 -1.992,4.054 h -4.508 l -79.965,-0.086 v 27.922 l -3.816,2.047 -17.82,9.516 -10.587,5.668 -0.086,-12 -0.222,-33.153 h -0.836 l -80.317,0.086 h -4.503 l -8.672,-15.265 -1.715,-0.012 -2.004,-4.11 -1.535,-3.226 -1.547,-3.219 -0.559,-1.183 -72.715,0.113 -6.039,-0.023 -18.629,-26.157 -20.035,0.036 H 19.31 L 17.126,168.55 9.396,158.895 0,147.156 l 15.047,-0.047 194.012,-0.62 4.46,-0.016 2.02,3.992 26.188,51.797 -0.172,-24.598 -0.086,-13.355"
           style="fill:#00003f;fill-rule:evenodd;stroke:none"
           id="path6" /></g><path
         d="m 309.148,195.344 -3.293,6.418 h 58.872 l 1.539,-3.211 1.55,-3.207 z m 11.832,-25.371 -3.289,6.414 h 141.63 l 3.288,-6.414 z m 179.06,-15.618 -7.704,9.641 -176.402,-0.144 -8.286,17.003 145.875,0.614 -5.875,8.68 -143.46,-0.208 -8.93,16.36 64.36,0.035 -5.24,10.734 -80.312,-0.09 31.961,-63.238 z m -294.075,40.989 h -58.668 l 1.555,3.207 1.535,3.21 h 58.87 z m -11.832,-25.371 -143.492,-0.11 4.125,6.524 h 142.652 z m -179.059,-15.618 194.012,-0.613 31.96,63.238 -80.316,0.09 -5.238,-10.734 64.36,-0.035 -8.926,-16.36 -146.395,0.055 -6.965,-9.14 h 149.899 l -8.285,-17.004 -176.403,0.144 z m 233.754,23.266 18.348,11.734 v 58.45 l -17.805,9.515 z m 0,0"
         style="fill:#ffffff;fill-opacity:1;fill-rule:evenodd;stroke:none"
         id="path7" /><path
         d="m 230.656,274.941 v 22.684 h -5.953 v -14.867 c -0.965,0.765 -1.89,1.39 -2.789,1.847 -0.894,0.5 -2.023,0.957 -3.379,1.38 v -5.075 c 1.992,-0.691 3.563,-1.488 4.656,-2.469 1.114,-0.937 1.97,-2.101 2.618,-3.5 m 22.336,7.731 c 0,-1.215 -0.29,-2.156 -0.86,-2.863 -0.597,-0.684 -1.293,-1.008 -2.133,-1.008 -0.77,0 -1.406,0.308 -1.93,0.922 -0.503,0.62 -0.761,1.558 -0.761,2.793 0,1.238 0.258,2.191 0.785,2.859 0.555,0.652 1.2,0.992 2.02,0.992 0.836,0 1.511,-0.34 2.043,-0.976 0.546,-0.633 0.836,-1.536 0.836,-2.72 m -10.836,9.95 5.851,-0.793 c 0.156,0.887 0.414,1.477 0.785,1.828 0.38,0.38 0.809,0.551 1.32,0.551 0.965,0 1.692,-0.508 2.22,-1.523 0.386,-0.72 0.68,-2.297 0.878,-4.696 -0.703,0.758 -1.43,1.32 -2.175,1.664 -0.731,0.356 -1.602,0.528 -2.563,0.528 -1.898,0 -3.504,-0.7 -4.797,-2.106 -1.312,-1.433 -1.976,-3.226 -1.976,-5.402 0,-1.477 0.355,-2.836 1.007,-4.047 q 1.004,-1.812 2.758,-2.762 c 1.16,-0.62 2.63,-0.922 4.383,-0.922 2.11,0 3.828,0.372 5.078,1.141 1.293,0.766 2.332,2 3.07,3.64 0.762,1.665 1.145,3.876 1.145,6.618 0,4.012 -0.785,6.988 -2.383,8.855 -1.605,1.864 -3.847,2.813 -6.715,2.813 -1.664,0 -3.004,-0.207 -3.968,-0.64 a 6.1,6.1 0 0 1 -2.426,-1.778 c -0.653,-0.785 -1.137,-1.777 -1.492,-2.969 m 30.168,-3.976 v -7.008 l -5.672,7.008 z m 0,4.812 h -10.7 v -5.105 l 10.7,-13.41 h 5.14 v 13.703 h 2.653 v 4.812 h -2.653 v 4.168 h -5.14 m 16.313,-11.242 c 0,2.855 0.245,4.789 0.733,5.824 0.457,1.055 1.168,1.555 2.067,1.555 0.61,0 1.117,-0.219 1.55,-0.657 0.45,-0.44 0.778,-1.14 0.973,-2.09 0.227,-0.964 0.313,-2.44 0.313,-4.46 0,-2.957 -0.242,-4.961 -0.707,-5.973 -0.485,-1.016 -1.184,-1.523 -2.156,-1.523 -0.961,0 -1.676,0.507 -2.11,1.543 -0.418,1.062 -0.664,2.976 -0.664,5.78 m -5.812,0 c 0,-4.245 0.734,-7.237 2.171,-8.894 1.45,-1.71 3.641,-2.547 6.622,-2.547 1.421,0 2.59,0.172 3.511,0.543 a 6.4,6.4 0 0 1 2.215,1.434 c 0.59,0.61 1.055,1.23 1.375,1.879 0.336,0.656 0.602,1.406 0.8,2.297 0.4,1.664 0.614,3.406 0.614,5.203 0,4.055 -0.664,7.008 -1.976,8.898 -1.301,1.86 -3.512,2.813 -6.696,2.813 -1.789,0 -3.218,-0.313 -4.332,-0.91 -1.078,-0.61 -1.976,-1.465 -2.68,-2.606 -0.527,-0.836 -0.925,-1.96 -1.187,-3.39 -0.3,-1.45 -0.437,-3.012 -0.437,-4.72"
         style="fill:#00003f;fill-rule:evenodd;stroke:none"
         id="path8" /></g></g></svg>
