<?xml version="1.0" encoding="UTF-8" standalone="no"?>
<svg
   viewBox="29.19 148.53 728.5 802.01"
   version="1.1"
   id="svg7"
   sodipodi:docname="eyupspor.svg"
   inkscape:version="1.4.2 (f4327f4, 2025-05-13)"
   xmlns:inkscape="http://www.inkscape.org/namespaces/inkscape"
   xmlns:sodipodi="http://sodipodi.sourceforge.net/DTD/sodipodi-0.dtd"
   xmlns="http://www.w3.org/2000/svg"
   xmlns:svg="http://www.w3.org/2000/svg">
  <defs
     id="defs7" />
  <sodipodi:namedview
     id="namedview7"
     pagecolor="#ffffff"
     bordercolor="#000000"
     borderopacity="0.25"
     inkscape:showpageshadow="2"
     inkscape:pageopacity="0.0"
     inkscape:pagecheckerboard="0"
     inkscape:deskcolor="#d1d1d1"
     inkscape:zoom="1.061084"
     inkscape:cx="314.77244"
     inkscape:cy="374.6169"
     inkscape:window-width="1920"
     inkscape:window-height="1111"
     inkscape:window-x="-9"
     inkscape:window-y="-9"
     inkscape:window-maximized="1"
     inkscape:current-layer="svg7" />
  <path
     d="M425.49 648.243c72.582-31.186 140.84-42.84 140.84-42.84s6.646-48.44-4.694-125.72-50.05-201.7-162.747-290.08c-53.2-41.721-103.81-62.51-103.81-62.51s-50.61 20.789-103.81 62.51c-112.7 88.38-151.407 212.8-162.748 290.08s-4.692 125.72-4.692 125.72 68.255 11.654 140.84 42.84c93.03 39.97 130.41 80.36 130.41 80.36s37.38-40.39 130.41-80.36"
     style="fill:#231f20;fill-opacity:1;fill-rule:nonzero;stroke:none"
     transform="matrix(1.33333 0 0 -1.33333 0 1120)"
     id="path1" />
  <path
     d="m 48.577,433.178 c -4.667,18.287 -7.699,34.618 -9.666,48.03 -2.389,16.281 -3.962,31.279 -4.96,44.784 l -0.112,0.73 h 522.41 l -0.03,-0.56 c -1.1165,-15.0396 -2.77524,-30.03402 -4.973,-44.954 -1.994,-13.589 -5.08,-30.173 -9.85,-48.753 l -0.198,-0.654 H 48.958 Z m 350.472,-100.763 -34.44,-71.352 -1.594,0.01 h -187.95 l 0.54,1.09 34.521,71.52 1.163,0.05 h 188.476 z"
     style="fill:#ffffff;fill-opacity:1;fill-rule:nonzero;stroke:none"
     id="path2"
     transform="matrix(1.33333,0,0,-1.33333,0,1120)"
     sodipodi:nodetypes="cccccccccccccccccccc" />
  <path
     d="M382.479 656.792c-47.363 24.163-75.06 46.242-87.4 57.294-12.363-11.072-40.138-33.21-87.654-57.423l-.756-.37v-122.01h176.189l.631-.105v122.01Z"
     style="fill:#e41a29;fill-opacity:1;fill-rule:nonzero;stroke:none"
     transform="matrix(1.33333 0 0 -1.33333 0 1120)"
     id="path3" />
  <path
     d="m100.951 534.953 45.688 94.655-1.282-.525c-50.113-19.17-94.331-29.04-111.849-32.538-.505-6.376-1.087-16.692-1.087-30.413 0-8.9.245-19.222.916-30.812l.081-1.038h67.201zM442.752 422.96l-38.97-80.736-.448-.932H313.35l-.595-.018 39.5 81.837.574 1.13h90.615zM244.154 424.241H155.85l-1.009-.073L100.315 311.2l-.733-1.574c15.724-26.264 33.938-50.326 54.519-72.031l.82-.893 90.534 187.573zM528.876 601.396l-32.376-67.08-1.082-.034h-88.935l-.602-.066 44.746 92.707 1.107-.448c29.994-11.092 57.471-18.823 77.809-23.841zM270.397 253.517l-38.602-79.977.95-.61c28.895-18.728 53.122-30.242 62.334-34.38a368 368 0 0 1 12.473 5.914l1.043.547 52.338 108.435-1.28.067H271.56z"
     style="fill:#ffd800;fill-opacity:1;fill-rule:nonzero;stroke:none"
     transform="matrix(1.33333 0 0 -1.33333 0 1120)"
     id="path4" />
  <path
     d="m 222.523,312.192 -7.96,-3.619 v 4.315 c 0,0.82733 -0.14633,1.55833 -0.439,2.193 l 20.63,7.102 c -0.24333,-0.73133 -0.365,-1.53533 -0.365,-2.412 v -44.737 c 0,-0.82867 0.105,-1.63267 0.315,-2.412 h -12.542 c 0.24,0.684 0.362,1.486 0.362,2.414 z m 35.993,-40.041 -1.386,5.791 c 2.04533,-0.53667 3.775,-0.80467 5.189,-0.804 3.702,-6.7e-4 6.13767,1.194 7.307,3.584 1.16933,2.388 1.92467,4.32533 2.266,5.812 0.34133,1.48667 0.512,3.08333 0.512,4.79 -2.388,-2.528 -5.31133,-3.792 -8.77,-3.792 -3.89933,0 -6.97267,1.43833 -9.22,4.315 -2.25,2.87333 -3.37467,6.84467 -3.374,11.914 0,5.79867 1.44867,10.31867 4.346,13.56 2.89667,3.24067 6.95067,4.86133 12.162,4.862 11.394,0 17.09133,-7.461 17.092,-22.383 0,-9.75533 -2.226,-16.86333 -6.678,-21.324 -4.45067,-4.46267 -9.303,-6.694 -14.557,-6.694 z m 14.25,26.331 0.219,3.807 c 0,5.26667 -0.41333,9.059 -1.24,11.377 -0.82667,2.31667 -2.212,3.47567 -4.156,3.477 -3.40267,-6.7e-4 -5.104,-3.879 -5.104,-11.635 -6.7e-4,-7.854 1.628,-11.781 4.886,-11.781 3.792,0 5.396,4.755 5.396,4.755 m 30.728,13.71 -7.96,-3.619 -0.002,4.315 c 0,0.82733 -0.14567,1.55833 -0.437,2.193 l 20.629,7.102 c -0.25075,-0.7791 -0.374,-1.59359 -0.365,-2.412 v -44.737 c 0,-0.82867 0.105,-1.63267 0.315,-2.412 h -12.542 c 0.241,0.684 0.362,1.486 0.362,2.414 z m 35.993,-40.041 -1.385,5.791 c 2.04467,-0.53667 3.774,-0.80467 5.188,-0.804 3.70133,-6.7e-4 6.13733,1.194 7.308,3.584 1.16867,2.388 1.92367,4.32533 2.265,5.812 0.34133,1.48667 0.51233,3.08333 0.513,4.79 -2.38933,-2.528 -5.31333,-3.792 -8.772,-3.792 -3.89733,0 -6.97067,1.43833 -9.22,4.315 -2.24933,2.87333 -3.37367,6.84467 -3.373,11.914 0,5.79867 1.44867,10.31867 4.346,13.56 2.89733,3.24067 6.95167,4.86133 12.163,4.862 11.39333,0 17.09,-7.461 17.09,-22.383 0,-9.75533 -2.22533,-16.86333 -6.676,-21.324 -4.45067,-4.46267 -9.303,-6.694 -14.557,-6.694 z m 14.25,26.331 0.219,3.807 c 0,5.26667 -0.41367,9.059 -1.241,11.377 -0.82533,2.31667 -2.21,3.47567 -4.154,3.477 -3.404,-6.7e-4 -5.10567,-3.879 -5.105,-11.635 0,-7.854 1.628,-11.87 4.886,-11.781 3.914,0.105 5.395,4.755 5.395,4.755 m -258.347,19.908 51.055,105.777 -1.097,0.074 H 51.794 l -0.839,-0.025 c 6.778,-24.59 16.482,-52.237 30.374,-80.82 4.269272,-8.78699 8.826742,-17.431 13.665,-25.918 z m 13.978,216.61 47.604,98.627 c 0,0 8.131,3.374 11.84,4.968 9.88373,4.24151 19.66327,8.72183 29.33,13.437 l 0.966,0.586 V 535.542 l 0.105,-1.26 H 109.019 Z M 451.72,424.147 319.746,150.722 l 0.95,0.523 c 19.045,10.201 45.132,25.774 71.713,46.621 48.988,38.416 88.157,87.38 116.42,145.53 13.784,28.363 23.445,55.804 30.216,80.251 l 0.123,0.594 h -86.169 z m -197.93,0.002 -40.03,-82.935 0.993,0.078 h 88.726 l 0.902,0.023 39.988,82.852 -1.725,0.074 H 254.969 Z M 442.419,630 c -7.07675,2.73643 -14.10292,5.60191 -21.075,8.595 -10.199,4.37606 -20.28651,9.00752 -30.253,13.89 l -0.041,-1.022 V 535.332 l 0.103,-1.05 h 5.356 l 0.955,-0.11 46.013,95.328 z m 93.913,-30.547 -31.436,-65.132 0.918,-0.039 h 50.925 l 0.055,0.563 c 0.69,11.783 0.942,22.266 0.942,31.287 0,13.721 -0.583,24.037 -1.086,30.413 -6.56692,1.31878 -13.11118,2.74798 -19.63,4.287 z m -365.582,-347.35 -10.168,-21.065 0.405,-0.531 c 11.57631,-11.61976 23.85293,-22.52014 36.761,-32.64 8.69261,-6.80811 17.62144,-13.30911 26.77,-19.491 l 0.943,-0.566 35.929,74.435 0.508,1.268 h -90.405 z"
     style="fill:#603195;fill-opacity:1;fill-rule:nonzero;stroke:none"
     transform="matrix(1.33333,0,0,-1.33333,0,1120)"
     id="path5"
     sodipodi:nodetypes="ccsccssccccccccscsccsccccccccccscccccccsccscccccscsccccsccccccccccccccccccccccccccccccccccccccccccccccccccccccccccccsccccccccccccc" />
  <path
     d="M295.08 550.567c30.476 0 55.184 25.69 55.184 57.377 0 23.728-13.854 44.093-33.609 52.827 0 0 7.326-5.674 11.25-10.011 6.764-7.477 10.541-17.62 10.541-28.523 0-24.104-19.417-43.644-43.367-43.644s-43.367 19.54-43.367 43.644c0 10.904 3.776 21.046 10.54 28.523 3.924 4.337 11.25 10.011 11.25 10.011-19.755-8.734-33.608-29.099-33.608-52.827 0-31.688 24.708-57.377 55.185-57.377"
     style="fill:#fff;fill-opacity:1;fill-rule:nonzero;stroke:none"
     transform="matrix(1.33333 0 0 -1.33333 0 1120)"
     id="path6" />
  <path
     d="m305.86 694.558-3.721-13.396 11.589-7.678-13.89-.6-3.72-13.396-4.863 13.025-13.89-.6 10.885 8.649-4.863 13.024 11.589-7.678z"
     style="fill:#fff;fill-opacity:1;fill-rule:nonzero;stroke:none"
     transform="matrix(1.33333 0 0 -1.33333 0 1120)"
     id="path7" />
</svg>
