<?xml version="1.0" encoding="UTF-8" standalone="no"?>
<svg
   width="316.228"
   height="316.228"
   fill-rule="evenodd"
   clip-rule="evenodd"
   image-rendering="optimizeQuality"
   shape-rendering="geometricPrecision"
   text-rendering="geometricPrecision"
   viewBox="0 0 1607 1607"
   version="1.1"
   id="svg116"
   sodipodi:docname="fenerbahce.svg"
   inkscape:version="1.4.2 (f4327f4, 2025-05-13)"
   xmlns:inkscape="http://www.inkscape.org/namespaces/inkscape"
   xmlns:sodipodi="http://sodipodi.sourceforge.net/DTD/sodipodi-0.dtd"
   xmlns="http://www.w3.org/2000/svg"
   xmlns:svg="http://www.w3.org/2000/svg">
  <defs
     id="defs116" />
  <sodipodi:namedview
     id="namedview116"
     pagecolor="#ffffff"
     bordercolor="#000000"
     borderopacity="0.25"
     inkscape:showpageshadow="2"
     inkscape:pageopacity="0.0"
     inkscape:pagecheckerboard="0"
     inkscape:deskcolor="#d1d1d1"
     inkscape:zoom="2.6910963"
     inkscape:cx="157.9282"
     inkscape:cy="158.114"
     inkscape:window-width="1920"
     inkscape:window-height="1111"
     inkscape:window-x="-9"
     inkscape:window-y="-9"
     inkscape:window-maximized="1"
     inkscape:current-layer="svg116" />
  <path
     fill="#1e1e1c"
     d="M777.5 19.5q341.85-5.597 583.5 233c157.42 164.008 232.09 360.341 224 589-10.37 184.29-76.03 345.29-197 483-167.86 181.46-376.03 268.29-624.5 260.5-215.152-13.34-395.652-98.51-541.5-255.5-144.17-163.47-211.17-354.806-201-574Q47.94 402.562 322.5 183q201.204-153.165 455-163.5"
     opacity=".953"
     id="path1" />
  <path
     fill="#fdfdfd"
     d="M1046.5 1525.5c-4.66.56-9 1.89-13 4-202.359 60.36-397.692 43.19-586-51.5-152.827-83.15-265.994-203.32-339.5-360.5q-59.43-134.221-66.5-281a1414 1414 0 0 1-1-57q21.984-391.34 342-613.5Q653.558-6.2 969.5 59q309.825 73.891 481.5 341.5c74.58 122.621 112.42 255.954 113.5 400-3.95 246.04-100.61 446.54-290 601.5-68.89 53.84-144.89 95-228 123.5"
     id="path2" />
  <path
     fill="#fbfbfb"
     d="M977.5 130.5a2749 2749 0 0 1 40 12.5c17.05 8.169 20.88 20.669 11.5 37.5-4.64 5.946-10.81 8.946-18.5 9a318 318 0 0 1-47-14q7.015-22.542 14-45"
     id="path8" />
  <path
     fill="#939393"
     d="M589.5 177.5q2.135 3.022 2 7-2.494-2.907-2-7"
     id="path11" />
  <path
     fill="#fdfdfc"
     d="M1068.5 262.5a113.5 113.5 0 0 1 2-24c5.78-20.723 18.11-36.223 37-46.5 25.54-6.474 45.38 1.359 59.5 23.5q8.82 20.449 0 41-12.105 29.11-40.5 42.5c-25.34 3.414-44.17-6.086-56.5-28.5a19 19 0 0 1-1.5-8"
     id="path13" />
  <path
     fill="#939392"
     d="M596.5 203.5q2.135 3.022 2 7-2.494-2.907-2-7"
     id="path14" />
  <path
     fill="#a7a7a6"
     d="M1070.5 238.5a113.5 113.5 0 0 0-2 24c-1.66-8.173-.99-16.173 2-24"
     id="path18" />
  <path
     fill="#1f1e1c"
     d="M1316.5 779.5c-.04 19.673-.37 39.34-1 59-10.27 121.826-56.44 227.49-138.5 317-84.57 86.87-187.07 139.2-307.5 157-6.537.09-12.87.75-19 2-4.202-.32-8.202.02-12 1-18.661.6-37.327.93-56 1a97 97 0 0 0-16-1c-7.146-1.12-14.48-1.78-22-2-161.327-22.05-286.827-100.72-376.5-236q-126.144-210.922-50-445Q389.29 437.722 573.5 342q197.856-93.012 405-22 204.375 77.879 295.5 276.5c24.7 58.681 38.87 119.681 42.5 183"
     id="path20" />
  <path
     fill="#b90c2e"
     d="M382.5 588.5q-14.59.958-28-2Q445 405.244 634.5 334q72.995-24.75 150-28.5l4 1q-93.901 117.6-216 204.5-63.663 44.33-138 68a250.7 250.7 0 0 1-52 9.5M1250.5 585.5v3h-28c-32.4-3.436-63.74-11.602-94-24.5-36.88-16.096-71.54-35.762-104-59q-117.029-85.521-208-199c144.24 5.378 264.41 61.545 360.5 168.5q44.235 50.438 73.5 111"
     id="path21" />
  <path
     fill="#002c70"
     d="M1166.5 588.5q-363 2-726 0 67.939-22.216 128-61.5Q677.253 451.787 765 351.5q18.765-22.56 37.5-45 84.79 104.54 190 188.5c39.7 30.779 82.54 56.612 128.5 77.5a3513 3513 0 0 1 45.5 16"
     id="path22" />
  <path
     fill="#838382"
     d="M547.5 327.5q-2.128 1.426-5 1v8q-1.465-4.18-1-9z"
     id="path23" />
  <path
     fill="#7e7e7d"
     d="M550.5 335.5a65 65 0 0 1-7 2q-.91-.186-1-1 3.831-1.332 8-1"
     id="path24" />
  <path
     fill="#8c8c8b"
     d="M1269.5 365.5c1.15 4.146 1.31 8.48.5 13q-.57.834-1.5 1a68.3 68.3 0 0 0 1-14"
     id="path26" />
  <path
     fill="#f8f8f7"
     d="M262.5 373.5a2176 2176 0 0 0 59 21 421 421 0 0 1-26.5 34 2545 2545 0 0 1-32.5-55"
     id="path27" />
  <path
     fill="#7d7d7c"
     d="M142.5 577.5q8.728-1.729 18-.5 3.528.36 6 2.5a91.7 91.7 0 0 0-24-2"
     id="path32" />
  <path
     fill="#611723"
     d="M354.5 586.5q13.41 2.958 28 2-13.218 1.783-27 2v18q-1.24-7.726-1.5-16-1.155-1.647-2.5 0 .738-3.478 3-6"
     id="path34" />
  <path
     fill="#102340"
     d="M440.5 588.5q363 2 726 0c1.48-.262 2.81.071 4 1a67362 67362 0 0 1-734 0q1.783-1.393 4-1"
     id="path35" />
  <path
     fill="#b90c2e"
     d="M355.5 608.5q5.163 84.461 29.5 166 54.672 176.836 161 327a1518 1518 0 0 0 104 130 1296 1296 0 0 0 61.5 59.5c-75.529-12.83-143.862-42.17-205-88q-195.697-151.982-201-401 .717-109.85 46-209.5 1.345-1.647 2.5 0 .26 8.274 1.5 16"
     id="path36" />
  <path
     fill="#7f7f7e"
     d="M202.5 595.5q11.744-2.339 23 2a109 109 0 0 0-23-2"
     id="path37" />
  <path
     fill="#631623"
     d="M1250.5 585.5q2.055 2.625 3 6a543 543 0 0 1-3 29c.56-9.991.89-19.991 1-30-9.86.032-19.53-.635-29-2h28z"
     id="path38" />
  <path
     fill="#b90c2e"
     d="M1253.5 591.5q23.64 48.647 34.5 102a716 716 0 0 1 10.5 64c.82 24.658 1.15 49.324 1 74-.99 4.805-1.32 9.805-1 15-1.31 5.788-1.98 11.788-2 18q-25.365 183.996-162 309.5c-68.6 60.85-148.099 100.01-238.5 117.5-.5-.33-1-.67-1.5-1 57.055-51.02 107.56-107.36 151.5-169 58.56-79.75 106.9-165.749 145-258 26.78-66.451 45.45-135.118 56-206a348 348 0 0 0 3.5-37 543 543 0 0 0 3-29"
     id="path39" />
  <path
     fill="#9b900b"
     d="M1240.5 606.5v-5h-874v6q-1.452-3.161-1-7h876c.29 2.235-.04 4.235-1 6"
     id="path41" />
  <path
     fill="#fdec01"
     d="M1240.5 606.5c-8.15 85.613-27.49 168.613-58 249h-116c.29-2.235-.04-4.235-1-6-4.18-8.007-10.51-13.84-19-17.5-7.77-1.537-13.93.963-18.5 7.5a215 215 0 0 0-10.5 16 5930 5930 0 0 1-154-1 159 159 0 0 0 11-26q2.283-7.872 2-16.5.328-8.148-2-15.5-5.05-16.101-15-30 18.981-25.49 1.5-52-6.602-8.854-15.5-15a163 163 0 0 0-.5-18q-.419-4.435-2.5-8-3.759-15.26-15-26.5a10.1 10.1 0 0 0-4-1.5q-6.472-3.841-13 0-8.172 2.9-13.5 10a1110 1110 0 0 0-19.5 40q-28.27 19.782-22 54 .748 10.485 1 21-1.953 7.882-8.5 13-7.658 10.472-7.5 23.5 2.304 24.836 16 45.5-.128 1.494 1 2.5l-69.5.5q-35.572-.015-70.5-2-6.742-11.24-19-16-2.235-2.67-6-2-6.632-2.118-14-2-4.283.004-8 1-4.27.078-7 3-3.324 1.054-5.5 4-1.57 5.039-4.5 9-1.426 2.128-1 5h-128a892.7 892.7 0 0 1-42-144q.12-4.921-2-9-1.426-2.128-1-5 .105-5.887-2-11-4.929-21.077-7-43 .084-7.846-2-15 .063-10.817-2-21v-6h874z"
     id="path42" />
  <path
     fill="#978d0d"
     d="M366.5 607.5q2.063 10.183 2 21-2.225-10.168-2-21"
     id="path43" />
  <path
     fill="#a3a3a2"
     d="M205.5 614.5q2.45-.991 5.5-1 5.177-.119 9.5 2a114 114 0 0 0-15-1"
     id="path44" />
  <path
     fill="#7b7b79"
     d="M116.5 608.5q.494 4.092-2 7-.136-3.978 2-7"
     id="path45" />
  <path
     fill="#988e0d"
     d="M368.5 628.5q2.084 7.154 2 15-2.297-7.125-2-15"
     id="path46" />
  <path
     fill="#4a4618"
     d="M823.5 645.5h-13q6.528-3.841 13 0"
     id="path47" />
  <path
     fill="#007852"
     d="M812.5 649.5q9.888-1.29 16.5 6 12.26 21.276 9.5 45.5 15.534 10.026 23.5 26.5 6.23 22.079-9.5 39 27.585 32.19 12.5 72-9.006 19.03-22.5 35 27.11 47.048-13.5 83-13.338 22.17-8.5 48c10.849 3.38 21.182 2.22 31-3.5a309 309 0 0 1 26-21 2100 2100 0 0 1 74-46 485 485 0 0 0 7.5-23.5q4.75-15.792 18.5-24.5a1017 1017 0 0 1 24-3c6.3-1.963 11.13-5.797 14.5-11.5q5.55-12.194 12-24c3.17-3.167 6.33-6.333 9.5-9.5 2.25-1.15 4.59-1.484 7-1a71 71 0 0 1 14.5 10.5c.89 6.172.23 12.172-2 18-9.34 15.358-14.67 32.025-16 50q-8.655 18.243-28.5 23.5-43.492 3.498-82 24a576 576 0 0 0-81 53 255 255 0 0 0-19.5 18.5 71.8 71.8 0 0 0-9.5 15 1105 1105 0 0 0 0 94c17.872 2.31 31.372-4.35 40.5-20q11.011-24.045 22-48a34.6 34.6 0 0 1 7.5-6.5c5.919-1.2 11.919-1.86 18-2 7.783-4.12 13.95-9.95 18.5-17.5q5.385-10.275 10-21a14.6 14.6 0 0 1 4.5-4.5 775 775 0 0 1 24-3c8.188-4.85 15.188-11.18 21-19l20-14a26.67 26.67 0 0 1 12.5-2.5 98.3 98.3 0 0 0 30.5-.5 745 745 0 0 0 31-19c5.03-3.015 10.36-5.182 16-6.5.31 4.871-.53 9.537-2.5 14a777 777 0 0 0-17 41 753 753 0 0 0-2.5 33c-2.08 4.91-5.41 8.75-10 11.5a234.4 234.4 0 0 1-33 13q-11.61 5.19-12 18c5.99 21.7-1.68 36.03-23 43-8.624 1.13-17.29 1.8-26 2-6.878 1.88-12.378 5.72-16.5 11.5a222 222 0 0 0-8.5 18q-9.177 1.935-18-1.5-18.016-6-36-12c-14.957-5.24-29.957-5.57-45-1-13.244 7.09-21.91 17.92-26 32.5q-1.5 61.485-1 123h-15q.25-61.5-.5-123-10.57-18.57-27.5-31.5c-6.794-4.17-14.127-5.5-22-4-19.121 9.6-39.288 15.76-60.5 18.5a57 57 0 0 1-14.5-3.5c-7-5.67-14-11.33-21-17-2.667-1.33-5.333-2.67-8-4a3707 3707 0 0 0-32-5q-35.515-12.03-24-48a20.9 20.9 0 0 0-2.5-8.5 71.6 71.6 0 0 0-11.5-8.5c-10.667-5.33-21.333-10.67-32-16-6.875-5.21-12.708-11.37-17.5-18.5a62 62 0 0 1-2.5-8.5q3.836-12.6 6.5-25.5 2.306-12.372-4-23-16.784-14.632-8.5-35 4.713-3.632 10-.5a59 59 0 0 1 9 5q12.162 13.671 27 24a2777 2777 0 0 0 40 3q11.793 1.521 19.5 10.5a88.2 88.2 0 0 0 11.5 25.5 453 453 0 0 0 28 2.5 81 81 0 0 1 15 5.5c4.349 5.02 7.182 10.85 8.5 17.5 5.828 15.5 16.995 23.66 33.5 24.5 1.833 1.83 3.667 3.67 5.5 5.5a1270 1270 0 0 0 21 43c7.166 13.49 16.999 24.65 29.5 33.5 7.334 4.63 15.334 6.8 24 6.5q.25-51-.5-102-13.498-21.51-33.5-37.5-48.41-37.842-104-65-24.771-8.587-51-7-18.862-3.306-32.5-16.5a59.5 59.5 0 0 0-5-9q-1-4.5 0-9a82 82 0 0 0 5-11q2.199-7.852-4.5-12.5-13.51-4.831-19.5-17.5-2.632-27.864 25.5-24.5 16.56 1.776 27 14.5a595 595 0 0 0 6.5 23q8.697 9.413 21.5 11.5 6.262 2.376 11 7a211 211 0 0 1 13.5 20.5l7.5 7.5a5113 5113 0 0 0 98 71 45.3 45.3 0 0 0 8.5 7.5 37 37 0 0 0 7.5 10.5c6.081 1.86 10.581.02 13.5-5.5q6.38-30.503-12-56a798 798 0 0 1-29-38q-7.159-9.969-5-22a136 136 0 0 1 13-18q2.916-7.96 0-16-13.512-18.027-19-40-1.599-12.741 2-25 6.241-8.243 12.5-16.5 2.778-7.035 1.5-14.5-11.997-37.24 18.5-61a1941 1941 0 0 0 16.5-37q5.677-8.437 14.5-13"
     id="path48" />
  <path
     fill="#aba00a"
     d="M842.5 673.5q2.081 3.565 2.5 8 .749 8.986.5 18a383 383 0 0 0-3-26"
     id="path49" />
  <path
     fill="#a69c0c"
     d="M377.5 686.5q2.105 5.113 2 11-2.105-5.113-2-11"
     id="path50" />
  <path
     fill="#a59a0b"
     d="M380.5 702.5q2.12 4.079 2 9-2.12-4.079-2-9"
     id="path51" />
  <path
     fill="#1c1f1c"
     d="M813.5 872.5q1.486-9.719 1-20h-11q-10.978-5.874-15-18 1.636-2.082 4-1.5a74.5 74.5 0 0 0 10 13 24.4 24.4 0 0 0 10 1.5 113 113 0 0 0-.5-15 880 880 0 0 1-11-79l-12.5-17q1.791-2.896 5-2.5a221 221 0 0 1 8 11.5 196 196 0 0 1 6.5-23q2.512-6.514 8.5-8.5a7.25 7.25 0 0 1 2 2.5q-14.028 18.846-12 42.5l.5 15.5a693 693 0 0 1 10.5 70 4.93 4.93 0 0 0 3-.5l12-12q2.837-.463 4 2.5-6.611 10.362-17.5 16a256 256 0 0 1-3 40q-1.822 8.151-7.5 14a6.55 6.55 0 0 1-3-3q8.887-13.037 8-29"
     id="path52" />
  <path
     fill="#9b9b9a"
     d="M1509.5 719.5c1.42-.951 3.09-1.284 5-1v12c-.98-3.462-1.31-7.129-1-11z"
     id="path55" />
  <path
     fill="#bdb009"
     d="M755.5 749.5q2.995 10.414 1 21-.252-10.515-1-21"
     id="path59" />
  <path
     fill="#b6b6b6"
     d="M1316.5 779.5c.67 6.992 1 14.159 1 21.5.09 12.696-.58 25.196-2 37.5.63-19.66.96-39.327 1-59"
     id="path62" />
  <path
     fill="#3d3d3b"
     d="M40.5 779.5q-.075 28.514 1 57-2.205-17.198-2-35 0-11.262 1-22"
     id="path63" />
  <path
     fill="#c8bb07"
     d="M874.5 796.5q2.328 7.352 2 15.5.283 8.628-2 16.5a131.6 131.6 0 0 0 0-32"
     id="path64" />
  <path
     fill="#5c1622"
     d="M1298.5 757.5a350 350 0 0 1 2 43c0 10.505-.33 20.839-1 31 .15-24.676-.18-49.342-1-74"
     id="path67" />
  <path
     fill="#9f9511"
     d="M592.5 835.5q3.765-.67 6 2-3.429-.143-6-2"
     id="path69" />
  <path
     fill="#534e17"
     d="M570.5 834.5q-3.014 2.348-7 3 2.73-2.922 7-3"
     id="path70" />
  <path
     fill="#70706f"
     d="M1478.5 836.5c5.58-.245 10.92.422 16 2-5.55-.027-10.88-.694-16-2"
     id="path71" />
  <path
     fill="#8a8a89"
     d="M1511.5 840.5h7c.3 2.559-.03 4.893-1 7v-6q-3.36.442-6-1"
     id="path72" />
  <path
     fill="#5a1622"
     d="M1298.5 846.5c.22 6.239-.44 12.239-2 18 .02-6.212.69-12.212 2-18"
     id="path74" />
  <path
     fill="#c2b407"
     d="M553.5 850.5v6q-64.755.498-129-1h128q-.426-2.872 1-5M756.5 852.5q2.11.71 2 3-70.245 1.498-141 1v-3a1252 1252 0 0 0 70.5 2l69.5-.5q-1.128-1.006-1-2.5"
     id="path75" />
  <path
     fill="#c3b507"
     d="M863.5 854.5a5930 5930 0 0 0 154 1 3009 3009 0 0 1-155 0q.186-.91 1-1"
     id="path76" />
  <path
     fill="#c2b407"
     d="M1065.5 849.5c.96 1.765 1.29 3.765 1 6h116a3421 3421 0 0 1-117 1z"
     id="path77" />
  <path
     fill="#484415"
     d="M758.5 855.5q.814.09 1 1a2525 2525 0 0 1-142 0q70.755.498 141-1"
     id="path78" />
  <path
     fill="#b3b3b2"
     d="M1478.5 855.5q7.845-.084 15 2-7.845.084-15-2"
     id="path79" />
  <path
     fill="#114432"
     d="M803.5 852.5h11q.486 10.281-1 20v-19q-5.313.469-10-1"
     id="path80" />
  <path
     fill="#142132"
     d="M555.5 867.5q-63.255-.498-126 1-.814-.09-1-1a2020 2020 0 0 1 127 0"
     id="path81" />
  <path
     fill="#142133"
     d="M761.5 867.5q-70.518-.993-140 2-1.356-1.063-1-3 70.755-.498 141 1"
     id="path82" />
  <path
     fill="#132233"
     d="M854.5 867.5a6164 6164 0 0 1 157-1c.24 1.291-.1 2.291-1 3a3043 3043 0 0 0-156-2"
     id="path83" />
  <g
     fill="#002c70"
     id="g84">
    <path
       d="M555.5 867.5q3.565 6.326 9 11.5a235 235 0 0 1 12.5 7.5 43 43 0 0 1 1.5 5 82 82 0 0 1-5 11 28.7 28.7 0 0 0-.5 13q11.544 21.52 35.5 27.5a69 69 0 0 0 14.5 2.5q20.904-2.393 40.5 5.5 51.153 24.23 96 58a266.6 266.6 0 0 1 28.5 26.5 167 167 0 0 1 9.5 14c.985 31.62 1.319 63.29 1 95-5.805-.4-11.138-2.23-16-5.5-11.629-8.76-20.796-19.6-27.5-32.5a677 677 0 0 0-22-44q-8.703-7.74-20.5-7.5c-5.119-2.79-9.286-6.62-12.5-11.5a92 92 0 0 1-8-20c-6.389-9.11-15.222-13.95-26.5-14.5-7.333-.33-14.667-.67-22-1a11.5 11.5 0 0 1-3.5-4.5q-3.298-16.355-15.5-27.5a47.2 47.2 0 0 0-12-5 506 506 0 0 0-37-2 55 55 0 0 1-7-2 296 296 0 0 1-21-20q-8.673-8.177-20.5-9.5-8.94.425-12 9-5.136 22.091 12 37 4.37 7.473 3 16a148.7 148.7 0 0 1-6 23q-2.271 13.68 7 24c5.334 6.24 11.501 11.4 18.5 15.5q15.447 7.485 31 15c6.042 2.75 8.708 7.42 8 14q-8.874 28.905 16 45a68.6 68.6 0 0 0 15 6c9.727.98 19.394 2.31 29 4a132 132 0 0 1 27 20c10.059 5.72 20.725 7.05 32 4a516 516 0 0 1 40-16q28.341-4.455 44.5 19.5a102 102 0 0 1 6.5 11v118c-12.674-.1-25.341-.44-38-1a610 610 0 0 1-24-3.5c-118.738-99.43-211.238-219.26-277.5-359.5a1069 1069 0 0 1-29.5-70q62.745-1.498 126-1M761.5 867.5a4.93 4.93 0 0 1-.5 3 70.2 70.2 0 0 0-12 16q-2.808 8.963 0 18 9.602 27.094 32 45 18.002 23.505 14 53-1.305 5.34-6.5 4.5a90.1 90.1 0 0 0-19-20 3982 3982 0 0 1-87-62 159 159 0 0 1-15.5-14.5 86.8 86.8 0 0 0-17.5-23.5 149 149 0 0 0-22-9q-4.534-3.266-6-8.5 69.482-2.993 140-2M854.5 867.5q78.516-.993 156 2c-3.61 5.974-8.94 9.14-16 9.5q-20.971-4.128-32.5 13.5a128.4 128.4 0 0 0-14.5 37.5 1173 1173 0 0 0-78 49l-22 18c-7.551 3.54-15.385 4.38-23.5 2.5q-2.31-19.139 7-36a156 156 0 0 0 19-23q19.11-33.339-.5-66.5 1.615-4.004 5-6.5M842.5 1301.5h-17v-116c7.194-25.94 24.194-36.78 51-32.5a586 586 0 0 1 52 16c5.193 1.97 10.526 2.63 16 2 1.921-.36 3.588-1.19 5-2.5q5.145-14.25 15-25.5c1.333-.67 2.667-1.33 4-2q15.12-.375 30-3c12.51-3.18 21.34-10.68 26.5-22.5.43-10.71 1.09-21.37 2-32 2.99-3.99 6.82-6.82 11.5-8.5 11.4-3.13 22.06-7.79 32-14 9.35-8.22 12.35-18.39 9-30.5 1.28-10.44 4.11-20.44 8.5-30a170.9 170.9 0 0 0 14.5-38.5c-.42-7.058-4.09-9.391-11-7a153 153 0 0 0-15 7 395 395 0 0 1-29 18 40.8 40.8 0 0 1-10.5 1.5c-9.16-.96-18.32-1.127-27.5-.5l-4.5 1.5a264 264 0 0 1-21.5 15.5 110.3 110.3 0 0 1-15 15.5 23.7 23.7 0 0 1-6 2.5q-12.146.36-24 3c-6.423 6.67-10.923 14.51-13.5 23.5a228 228 0 0 1-12.5 16q-6.096 5.865-14 3c-4.321.05-8.321 1.22-12 3.5-7.445 6.45-12.945 14.28-16.5 23.5-4.411 13.49-10.411 26.15-18 38-7.05 8.77-16.217 13.11-27.5 13-.167-29.34 0-58.67.5-88a94 94 0 0 1 7-11c18.21-18.68 38.376-34.84 60.5-48.5a789 789 0 0 1 46-27q36.497-17.75 77-21c22.56-8.235 33.72-24.402 33.5-48.5a146 146 0 0 1 12.5-27.5c38.67-.833 77.34-.667 116 .5-61.27 154.37-152.6 287.87-274 400.5a8990 8990 0 0 0-34 29c-9.028 1.13-18.028 2.3-27 3.5"
       id="path84" />
  </g>
  <path
     fill="#8d8d8c"
     d="M104.5 961.5q2.093 6.136 2 13-2.093-6.136-2-13"
     id="path89" />
  <path
     fill="#1c211d"
     d="M584.5 1011.5c1.175-.22 2.175.11 3 1a234 234 0 0 0 17 18.5c4.978 3.32 9.645 6.98 14 11 31.623 11.09 59.123 28.92 82.5 53.5q1.124 1.71-.5 3-2.086 1.71-4 0c-18.607-18.43-39.607-33.6-63-45.5q-11.466-2.475-21-9a179.5 179.5 0 0 1-30-29.5 206 206 0 0 0 2-3"
     id="path93" />
  <path
     fill="#1c221d"
     d="M1031.5 1018.5c3.22.52 4.22 2.19 3 5a305.3 305.3 0 0 1-44 33.5 1750 1750 0 0 1-42 19c-12.222 8.72-22.222 19.56-30 32.5a18.2 18.2 0 0 1-3.5-2q17.928-36.915 58.5-46.5c21.465-10.98 40.8-24.81 58-41.5"
     id="path94" />
  <path
     fill="#0d254a"
     d="M797.5 1049.5c.617.11 1.117.44 1.5 1 .831 31.5.664 62.84-.5 94 .319-31.71-.015-63.38-1-95"
     id="path95" />
  <path
     fill="#0e2547"
     d="M798.5 1184.5c.999 39.5 1.332 79.16 1 119-13.203.29-26.203-.38-39-2 12.659.56 25.326.9 38 1z"
     id="path101" />
  <path
     fill="#0d254a"
     d="M825.5 1185.5v116h17c-5.81.99-11.81 1.32-18 1q-.498-58.755 1-117"
     id="path102" />
  <path
     fill="#1f1f1d"
     d="M513.5 1340.5c-17 .67-34 1.33-51 2a1402 1402 0 0 0-17.5 49 4353 4353 0 0 0-15.5-50c-17.343-.7-34.676-1.53-52-2.5 13.833-9.83 27.667-19.67 41.5-29.5a543 543 0 0 0-14.5-49c.333-.33.667-.67 1-1a581 581 0 0 0 41.5 31 862 862 0 0 1 39.5-28.5c1.259-.98 2.592-1.32 4-1a2048 2048 0 0 0-17 48q.389 1.89 2 3a1621 1621 0 0 1 38 28.5M1230.5 1340.5c-3.46.98-7.13 1.31-11 1h-40c-5.19 16.41-10.69 32.74-16.5 49a619 619 0 0 1-15.5-50c-17.7.36-35.37-.14-53-1.5a751 751 0 0 0 43-30.5c-4.92-15.85-9.92-31.68-15-47.5.33-.5.67-1 1-1.5q19.8 16.11 40.5 30a803 803 0 0 0 40.5-27.5c1.14-.75 2.14-.58 3 .5a446 446 0 0 0-15.5 48c12.73 10.25 25.57 20.25 38.5 30"
     id="path104" />
  <path
     fill="#acacac"
     d="M869.5 1312.5c-6.094 1.59-12.428 2.26-19 2 6.13-1.25 12.463-1.91 19-2"
     id="path105" />
  <path
     fill="#ababaa"
     d="M744.5 1313.5c7.52.22 14.854.88 22 2-7.571.34-14.904-.32-22-2"
     id="path106" />
  <path
     fill="#b5b5b5"
     d="M838.5 1315.5a306.4 306.4 0 0 1-56 1c18.673-.07 37.339-.4 56-1"
     id="path107" />
  <path
     fill="#c1c1c0"
     d="M513.5 1340.5q1.184.42 2 1.5c-17.664.5-35.33.67-53 .5 17-.67 34-1.33 51-2"
     id="path108" />
  <path
     fill="#888887"
     d="M1230.5 1340.5q1.89-.06 3 1.5c-4.85.82-9.52.65-14-.5 3.87.31 7.54-.02 11-1"
     id="path109" />
  <path
     fill="#21211f"
     d="M985.5 1341.5c1.25.08 2.083.74 2.5 2 1.273 3.65 2.44 7.32 3.5 11a278.3 278.3 0 0 0-14.5 64 387.7 387.7 0 0 0 2.5 67 417 417 0 0 1-15.5 4c-.5-.33-1-.67-1.5-1q-10.15-62.985 12-123c-.865-1.08-1.865-1.25-3-.5a8049 8049 0 0 1-66 24.5l-6-15c.59-1.3 1.59-2.13 3-2.5 27.804-10.1 55.47-20.26 83-30.5M641.5 1347.5c3.549-.06 6.882.77 10 2.5q2.52.525 3 3a9173 9173 0 0 1-50 122.5 293 293 0 0 0-12.5-5c-1.587-.84-2.42-2.17-2.5-4a4552 4552 0 0 1 34-85 331 331 0 0 0-27-12c-.333-.67-.667-1.33-1-2 2.213-2.97 3.213-6.3 3-10 6.349 1 12.682 2.17 19 3.5q16.608 1.44 24-13.5"
     id="path110" />
  <path
     fill="#20201e"
     d="M725.5 1372.5c34.13-.37 51.797 16.46 53 50.5-.556 17.78-4.056 34.95-10.5 51.5-5.089 12.01-12.923 21.84-23.5 29.5-16.698 7.71-33.032 7.04-49-2-10.161-8.49-14.661-19.32-13.5-32.5 1.231-.61 2.564-.94 4-1 4.502.72 9.002 1.39 13.5 2 .121 19.94 10.121 28.1 30 24.5a56.2 56.2 0 0 0 14.5-10.5c6.691-9.94 10.857-20.61 12.5-32a83.3 83.3 0 0 1-15 8.5q-47.154 6.45-53-40.5 1.948-37.38 37-48"
     id="path111" />
  <path
     fill="#1f1f1d"
     d="M842.5 1377.5c22.068-1.05 37.234 8.61 45.5 29q10.626 30.66 7 63c-3.091 32.77-20.924 47.6-53.5 44.5-10.625-2.28-18.791-8.11-24.5-17.5-12.243-24.25-16.41-49.92-12.5-77q3.964-34.95 38-42"
     id="path112" />
  <path
     fill="#fcfcfb"
     d="M727.5 1388.5c26.293-.41 36.793 12.26 31.5 38-4.606 15.73-15.106 22.56-31.5 20.5q-17.598-2.145-20.5-19.5-3.225-20.325 11.5-34.5 4.638-2.325 9-4.5"
     id="path113" />
  <path
     fill="#fcfcfc"
     d="M856.5 1499.5c-4.357-.09-8.69-.42-13-1-3.832-1.32-6.999-3.65-9.5-7q-10.768-16.305-12-36-1-18 0-36 6.308-35.265 39.5-22.5c3.946 3.39 6.78 7.55 8.5 12.5 7.101 20.77 9.435 42.1 7 64-.925 13.59-7.758 22.26-20.5 26"
     id="path114" />
  <path
     fill="#8c8c8b"
     d="M843.5 1498.5c4.31.58 8.643.91 13 1-1.464.66-3.131.99-5 1-2.986.12-5.652-.55-8-2"
     id="path115" />
  <path
     fill="#60605f"
     d="M1046.5 1525.5c-4.01 2.16-8.34 3.49-13 4 4-2.11 8.34-3.44 13-4"
     id="path116" />
</svg>
