<?xml version="1.0" encoding="UTF-8" standalone="no"?>
<svg
   fill-rule="evenodd"
   viewBox="15.85 108.68 561.49 626.8"
   version="1.1"
   id="svg5"
   sodipodi:docname="hatayspor.svg"
   inkscape:version="1.4.2 (f4327f4, 2025-05-13)"
   xmlns:inkscape="http://www.inkscape.org/namespaces/inkscape"
   xmlns:sodipodi="http://sodipodi.sourceforge.net/DTD/sodipodi-0.dtd"
   xmlns="http://www.w3.org/2000/svg"
   xmlns:svg="http://www.w3.org/2000/svg">
  <sodipodi:namedview
     id="namedview5"
     pagecolor="#ffffff"
     bordercolor="#000000"
     borderopacity="0.25"
     inkscape:showpageshadow="2"
     inkscape:pageopacity="0.0"
     inkscape:pagecheckerboard="0"
     inkscape:deskcolor="#d1d1d1"
     inkscape:zoom="1.3576899"
     inkscape:cx="280.62373"
     inkscape:cy="313.39999"
     inkscape:window-width="1920"
     inkscape:window-height="1111"
     inkscape:window-x="-9"
     inkscape:window-y="-9"
     inkscape:window-maximized="1"
     inkscape:current-layer="svg5" />
  <path
     d="M296.595 735.48c-10.714-4.838-20.736-10.597-30.529-17.163-46.656-31.106-117.504-97.116-171.878-197.453-31.91-58.869-58.176-129.486-70.618-212.084-4.723-30.759-6.911-61.632-7.718-92.852 53.338-.806 105.178-9.676 155.175-28.8 47.461-18.202 88.243-44.006 125.568-78.451 37.325 34.445 78.106 60.249 125.568 78.451 49.997 19.124 101.836 27.994 155.174 28.8-.807 31.22-2.995 62.093-7.719 92.852-12.442 82.598-38.708 153.215-70.617 212.084-54.375 100.337-125.222 166.347-171.878 197.453-9.792 6.566-19.815 12.325-30.528 17.163"
     style="stroke:none;fill:#2c2c2b"
     id="path1" />
  <defs
     id="defs2">
    <linearGradient
       id="a"
       x1="6.75"
       x2="586.437"
       y1="133.1"
       y2="712.787"
       gradientUnits="userSpaceOnUse">
      <stop
         offset="0"
         style="stop-color:#cd212f"
         id="stop1" />
      <stop
         offset="1"
         style="stop-color:#812f30"
         id="stop2" />
    </linearGradient>
  </defs>
  <path
     d="M296.595 728.454c66.009-29.493 266.342-199.987 274.174-506.19-57.713-.921-177.984-16.127-274.174-104.832-96.193 88.705-216.461 103.911-274.177 104.832 7.834 306.203 208.167 476.697 274.177 506.19"
     style="stroke:none;fill:url(#a)"
     id="path2" />
  <path
     d="M124.485 368.453c21.428-36.058 6.913-63.36-5.183-86.285-6.106-11.519-11.06-20.39-11.06-32.947-5.875 5.991-9.907 11.405-13.594 19.239-4.837 10.022-7.487 20.505-8.294 31.103-1.151 16.359 2.189 33.063 9.562 48.615 2.995 6.567 7.027 12.903 11.175 19.584a42 42 0 0 1 1.843 2.995c8.87 21.312 18.546 42.394 29.145 62.67-7.142-4.726-13.824-7.719-20.16-10.484-6.566-2.995-12.672-5.76-18.202-10.138-4.838-3.917-8.064-7.949-11.404-12.903-1.498 6.336-1.382 12.558-.231 20.046 2.535 16.819 10.253 30.297 21.428 40.897 15.552 15.091 37.785 24.306 61.862 29.606 6.336 10.023 13.018 19.929 19.814 29.607-12.326-7.144-23.385-10.026-34.329-12.904-6.451-1.612-12.903-3.34-19.469-5.875-6.567-2.649-12.211-6.221-18.202-9.909.807 9.794 1.959 18.203 6.566 27.303 4.724 9.103 11.751 17.513 20.276 24.653 15.206 12.557 35.367 21.313 56.218 23.5 4.492.463 7.718.463 10.367.463 5.991 0 8.64 0 16.59 6.45 13.363 10.944 27.878 20.275 43.199 28.34a420 420 0 0 1-27.648 8.294c-11.981 3.11-24.076 5.528-36.287 7.487l-8.871 18.895c16.474-1.729 32.486-4.031 48.614-7.95 16.359-3.916 32.718-8.985 48.385-15.55 15.667 6.565 32.025 11.634 48.384 15.55 16.128 3.919 32.141 6.221 48.614 7.95l-8.87-18.895c-12.212-1.959-24.308-4.377-36.288-7.487a420 420 0 0 1-27.65-8.294c15.322-8.065 29.838-17.396 43.2-28.34 7.95-6.45 10.6-6.45 16.591-6.45 2.65 0 5.875 0 10.367-.463 20.852-2.187 41.011-10.943 56.217-23.5 8.525-7.14 15.554-15.55 20.275-24.653 4.61-9.1 5.761-17.509 6.568-27.303-5.991 3.688-11.637 7.26-18.202 9.909-6.566 2.535-13.019 4.263-19.469 5.875-10.943 2.878-22.003 5.76-34.329 12.904 6.797-9.678 13.477-19.584 19.813-29.607 24.079-5.3 46.312-14.515 61.863-29.606 11.175-10.6 18.894-24.078 21.428-40.897 1.152-7.488 1.266-13.71-.231-20.046-3.341 4.954-6.566 8.986-11.404 12.903-5.531 4.378-11.637 7.143-18.202 10.138-6.336 2.765-13.019 5.758-20.16 10.484 10.597-20.276 20.276-41.358 29.146-62.67a42 42 0 0 1 1.842-2.995c4.147-6.681 8.179-13.017 11.174-19.584 7.373-15.552 10.713-32.256 9.563-48.615-.806-10.598-3.456-21.081-8.295-31.103-3.686-7.834-7.719-13.248-13.594-19.239 0 12.557-4.953 21.428-11.059 32.947-12.095 22.925-26.611 50.227-5.183 86.285-10.6 25.344-23.271 49.421-37.096 72.923.346-10.141-1.612-19.24-3.339-28.225-1.843-9.217-3.687-18.202-2.765-27.648.69-7.143 2.765-12.903 5.76-19.124-7.144 1.613-10.714 3.572-16.589 8.065-19.699 14.745-25.115 35.827-24.424 56.101.692 21.888 8.641 43.085 13.594 54.491-8.755 13.363-16.703 27.188-26.151 39.975 0-3.803-.229-7.375-.69-10.828-1.153-7.834-3.802-15.323-6.451-22.813-3.226-9.099-6.452-17.969-6.568-28.338 0-7.027 1.729-13.362 3.573-20.043-13.132 4.837-24.307 10.597-31.911 23.269-7.143 11.75-8.179 24.768-7.602 34.331.806 12.094 6.797 23.037 13.247 34.56 4.147 7.602 8.524 15.549 11.406 23.961-16.705 13.708-35.944 24.766-56.103 33.523-20.16-8.757-39.399-19.815-56.103-33.523 2.88-8.412 7.257-16.359 11.405-23.961 6.451-11.523 12.441-22.466 13.248-34.56.576-9.563-.461-22.581-7.603-34.331-7.603-12.672-18.778-18.432-31.911-23.269 1.844 6.681 3.572 13.016 3.572 20.043-.116 10.369-3.341 19.239-6.567 28.338-2.65 7.49-5.299 14.979-6.451 22.813-.46 3.453-.691 7.025-.691 10.828-9.447-12.787-17.395-26.612-26.151-39.975 4.954-11.406 12.903-32.603 13.594-54.491.691-20.274-4.724-41.356-24.423-56.101-5.875-4.493-9.446-6.452-16.588-8.065 2.994 6.221 5.069 11.981 5.76 19.124.921 9.446-.922 18.431-2.766 27.648-1.727 8.985-3.686 18.084-3.34 28.225-13.824-23.502-26.496-47.579-37.095-72.923"
     style="stroke:none;fill:#2c2c2b"
     id="path3" />
  <path
     d="M472.274 368.223c-13.823 33.062-27.994 58.407-46.426 88.934 9.562-33.638-11.98-55.757-.115-85.939-52.3 27.763-27.763 92.506-18.316 114.165-12.672 19.122-20.044 33.521-34.33 50.456 3.342-15.669 0-27.763-4.031-39.284-5.185-14.744-11.521-28.685-6.221-48.385-28.915 11.175-32.603 36.75-31.565 52.188 1.267 19.928 18.315 37.556 25.112 59.788-16.934 14.399-37.668 26.265-59.787 35.828-22.119-9.563-42.855-21.429-59.789-35.828 6.796-22.232 23.846-39.86 25.113-59.788 1.037-15.438-2.649-41.013-31.565-52.188 5.299 19.7-1.037 33.641-6.22 48.385-4.032 11.521-7.373 23.615-4.032 39.284-14.286-16.935-21.658-31.334-34.33-50.456 9.446-21.659 33.984-86.402-18.317-114.165 11.865 30.182-9.677 52.301-.115 85.939-18.432-30.527-32.602-55.872-46.426-88.934 30.989-50.458-11.635-83.866-15.551-111.629-19.585 27.302-20.506 60.71-6.567 90.202 3.456 7.372 8.179 14.63 13.017 22.463 10.369 25.115 23.386 52.762 36.519 76.377-23.386-21.888-42.739-19.006-58.06-37.784.575 47.462 38.707 70.271 83.059 79.718 10.829 17.165 20.274 30.644 31.449 46.081-32.026-26.959-54.489-19.125-81.907-36.174 2.65 33.062 40.09 62.093 79.603 66.125 15.437 1.612 16.473-2.304 28.685 7.718 14.86 12.097 31.565 22.466 49.306 31.219-23.271 8.641-47.463 14.631-69.927 18.203l-5.645 12.326c30.644-3.226 62.323-11.06 91.7-23.27 29.375 12.21 61.056 20.044 91.7 23.27l-5.648-12.326c-22.462-3.572-46.654-9.562-69.924-18.203 17.741-8.753 34.444-19.122 49.306-31.219 12.209-10.022 13.247-6.106 28.685-7.718 39.512-4.032 76.953-33.063 79.602-66.125-27.419 17.049-49.881 9.215-81.907 36.174 11.173-15.437 20.62-28.916 31.449-46.081 44.352-9.447 82.484-32.256 83.059-79.718-15.32 18.778-34.676 15.896-58.06 37.784 13.133-23.615 26.15-51.262 36.519-76.377 4.838-7.833 9.56-15.091 13.018-22.463 13.938-29.492 13.016-62.9-6.568-90.202-3.916 27.763-46.541 61.171-15.552 111.629"
     style="stroke:none;fill:#559a43"
     id="path4" />
  <path
     d="m 452.46,282.859 c -436.61,-174.179 -436.61,-174.179 0,0 z M 156.857,246.917 h -8.871 23.041 z m 107.481,390.987 h -5.184 c -1.152,1.617 -4.722,3.919 -6.566,4.378 v 4.263 l 4.954,0.116 v 14.4 h -4.954 v 4.725 h 16.819 v -4.725 h -5.069 z m 45.504,8.526 c 1.959,-2.994 3.803,-5.76 6.337,-8.526 h -8.525 c -2.995,3.573 -5.3,6.914 -7.143,9.794 -1.729,2.881 -2.535,6.107 -2.535,8.756 0,2.879 0.921,5.182 2.765,7.026 1.96,1.843 4.263,2.765 7.258,2.765 h 0.23 c 2.88067,0 5.3,-1.03633 7.258,-3.109 1.957,-1.959 2.995,-4.494 2.995,-7.487 0,-2.535 -0.806,-4.61 -2.418,-6.338 -1.612,-1.728 -3.688,-2.65 -6.222,-2.881 m 0.576,11.865 c -0.576,0.578 -1.267,0.922 -2.189,0.922 -0.921,0 -1.613,-0.344 -2.303,-0.922 -0.691,-0.69 -0.922,-1.497 -0.922,-2.419 0,-0.922 0.231,-1.727 0.922,-2.303 0.69,-0.69 1.382,-1.037 2.303,-1.037 0.806,0 1.613,0.347 2.189,1.037 0.692,0.576 1.038,1.381 1.038,2.303 0,0.92267 -0.346,1.729 -1.038,2.419 m 12.901,-20.391 v 7.144 h 9.91 l -9.678,20.738 h 7.835 l 11.058,-24.194 v -3.688 z m -39.167,-0.575 h -0.114 c -2.995,0.116 -5.415,1.154 -7.373,3.114 -1.958,2.071 -2.995,4.49 -2.995,7.602 0,2.534 0.806,4.606 2.418,6.335 1.61333,1.612 3.68733,2.534 6.222,2.766 -1.959,2.993 -4.147,5.99 -6.682,8.64 h 8.871 c 3.34,-3.803 4.953,-6.453 7.142,-9.91 1.843,-3.109 2.534,-6.105 2.534,-8.641 0,-2.877 -0.922,-5.296 -2.765,-7.14 -1.958,-1.844 -4.262,-2.766 -7.258,-2.766 m 2.075,12.788 c -0.577,0.691 -1.383,0.922 -2.189,1.037 h -0.115 c -0.84788,-0.002 -1.65072,-0.3819 -2.189,-1.037 -0.691,-0.69 -0.922,-1.497 -0.922,-2.419 0,-0.922 0.231,-1.728 0.922,-2.302 0.5372,-0.65661 1.34063,-1.0376 2.189,-1.038 h 0.115 c 0.806,0 1.612,0.343 2.189,1.038 0.691,0.574 0.921,1.38 0.921,2.302 0,0.922 -0.23,1.729 -0.921,2.419"
     style="fill:#ffffff;stroke:none"
     id="path5"
     sodipodi:nodetypes="ccccccccccccccccccccccscsscssccscscscsccccccccccccscccccsccccccscsscsc" />
</svg>
