<?xml version="1.0" encoding="UTF-8" standalone="no"?>
<svg
   xml:space="preserve"
   viewBox="1 1 289.38 250"
   version="1.1"
   id="svg6"
   sodipodi:docname="kasimpasa.svg"
   inkscape:version="1.4.2 (f4327f4, 2025-05-13)"
   xmlns:inkscape="http://www.inkscape.org/namespaces/inkscape"
   xmlns:sodipodi="http://sodipodi.sourceforge.net/DTD/sodipodi-0.dtd"
   xmlns="http://www.w3.org/2000/svg"
   xmlns:svg="http://www.w3.org/2000/svg"><defs
     id="defs6" /><sodipodi:namedview
     id="namedview6"
     pagecolor="#ffffff"
     bordercolor="#000000"
     borderopacity="0.25"
     inkscape:showpageshadow="2"
     inkscape:pageopacity="0.0"
     inkscape:pagecheckerboard="0"
     inkscape:deskcolor="#d1d1d1"
     inkscape:zoom="2.4069915"
     inkscape:cx="191.10994"
     inkscape:cy="126.29874"
     inkscape:window-width="1920"
     inkscape:window-height="1111"
     inkscape:window-x="-9"
     inkscape:window-y="-9"
     inkscape:window-maximized="1"
     inkscape:current-layer="svg6" /><path
     d="M11376.5 5080.38c0-567.37-104.8-1129.01-296.3-1656.11-98.8-209.87-201.6-398.35-303.3-561.8-129.1-215.35-296.4-432.87-507.1-643.88-319.43-319.49-613.88-507.29-914.07-655.29-254.46-125.4-521.06-222.2-839.39-376.7-259.99-126.1-527.42-319.202-740.21-493.202-104.44-85.097-282.8-253.597-435.16-400.8-152.8-147.5-288.6-264.098-288.6-264.098l9.6-9.602L7042.91 0l-16.22 15.898-199.15 198c-26.64 24.801-54.63 51.102-82.91 78.7-152.34 147.203-330.68 315.703-435.14 400.8-212.55 174-480.02 367.102-740.22 493.202-318.41 154.5-584.97 251.3-839.67 376.7-263.25 129.9-522.23 290.6-797.62 544-89.42 73.97-176.69 153.85-263.77 241.07-210.5 210.39-487.7 640.02-652.27 1117.01-162.61 471.53-307.13 1060.7-307.13 1615 0 2393.43 1940.63 4333.56 4334.1 4333.56 2393.53 0 4333.59-1940.13 4333.59-4333.56"
     style="fill:#2f4ba6;fill-opacity:1;fill-rule:nonzero;stroke:none"
     transform="matrix(.02055 0 0 -.02055 1 251)"
     id="path1" /><path
     d="M7042.91 9653.4c-2507.91 0-4541.74-2028.62-4550.8-4534.01L0 5625.88c267.793 3655.83 3318.74 6538.52 7042.91 6538.52 3702.29 0 6738.69-2848.92 7037.49-6473.95l-2487.7-505.61c-43.8 2475.4-2064.09 4468.56-4549.79 4468.56"
     style="fill:#2f4ba6;fill-opacity:1;fill-rule:nonzero;stroke:none"
     transform="matrix(.02055 0 0 -.02055 1 251)"
     id="path2" /><path
     d="M7453.07 4324.7c19.82-687.55 582.22-1331.14 1273.31-1331.14 151.46 0 296.96 26.3 431.87 74.76 371.01 166.31 708.06 450.14 954.25 750.7 368.3 450.14 576.6 923.06 576.6 923.06s177.2-1143.36-803.28-2123.82c-538.32-538.36-965.73-615.36-1600.23-923.16-634.62-307.3-1226.81-897.401-1226.81-897.401S6466.43 1387.8 5831.94 1695.1c-634.59 307.8-1062.03 384.8-1600.26 923.16-980.47 980.46-803.33 2123.82-803.33 2123.82s208.42-472.92 576.66-923.06c246.19-300.56 583.16-584.39 954.12-750.7 134.97-48.46 280.46-74.76 431.99-74.76 689.99 0 1251.63 641.46 1273.11 1328-868.98 178.82-1522.28 948.34-1522.28 1870.2 0 1054.79 854.66 1909.17 1909.3 1909.17 1054.46 0 1909.36-854.38 1909.36-1909.17 0-916.76-645.83-1682.61-1507.54-1867.06"
     style="fill:#fff;fill-opacity:1;fill-rule:nonzero;stroke:none"
     transform="matrix(.02055 0 0 -.02055 1 251)"
     id="path3" /><path
     d="M7051.25 4551.37c-905.83 0-1640.24 734.5-1640.24 1640.39 0 905.84 734.41 1640.21 1640.24 1640.21 905.99 0 1640.27-734.37 1640.27-1640.21 0-905.89-734.28-1640.39-1640.27-1640.39"
     style="fill:#ee253d;fill-opacity:1;fill-rule:nonzero;stroke:none"
     transform="matrix(.02055 0 0 -.02055 1 251)"
     id="path4" /><path
     d="M6391.84 2520.96h-97.21v66.21l78.22 43.77c24.65 15.1 47.15 31.23 67.53 48.51h62.25V1954.2h-110.79zm512.07-6.84c0 45.27-19.4 68.25-57.59 68.25-38.33 0-57.45-22.98-57.45-68.25v-118.98c0-23.39 4.51-40.52 13.88-51.58 10.05-11.31 22.43-16.97 37.56-16.97 11.3 0 22.7 4.08 34.73 11.75l28.87 21.01zm-110.15-367.82v-36.5c0-45.8 17.57-68.5 52.56-68.5 38.19 0 57.59 22.7 57.59 68.5v167.45l-22.84-20.9-21.85-14.89-24.69-8.99-31.78-2.89c-17.8 0-34.78 2.54-50.61 7.85-15.75 5.29-29.69 13.88-41.48 25.71-11.96 11.89-21.63 27.08-28.91 45.63-6.73 18.58-9.79 40.92-9.79 67.53v85.15c0 76.08 13.42 131.01 40.52 165.58 27.01 34.88 71.69 52.42 133.84 52.42 62.11 0 106.84-15.88 133.72-47.44 27.15-31.1 40.65-80.69 40.65-148.74V2140.4c0-68-13.5-117.9-40.65-149.7-26.88-30.9-71.61-46.7-133.72-46.7-24.45-.4-46.67 3.1-66.32 11-19.37 8-35.72 18.8-49.58 32.7-14.03 14.6-24.8 31.5-32.8 50.5-7.26 19.8-10.92 41.3-10.92 64.5v43.6zm346.32-192.1v96l100.96 149.54c29.84 44.37 54.62 84.39 74.21 120.02 20 35.53 34.86 67.87 44.71 97.12 10.58 29.59 15.89 57.74 15.89 84.26 0 28.34-4.98 48.86-14.82 61.48-9.84 12.98-23.53 19.75-40.58 19.75-19.98 0-34.79-7.02-44.63-20.83-9.99-13.87-14.97-31.7-14.97-53.54v-48.38h-116.99v33.67c0 26.46 3.91 50.65 11.94 73.23 8.65 22.51 20.48 41.84 35.53 58.36 16.1 17.22 35.32 30.49 57.62 39.85 22.47 9.76 48.34 14.72 77.22 14.72 25.27 0 47.96-4.15 68.42-12.8 20.59-8.7 38.05-20.61 52.67-35.71 14.4-14.5 25.63-31.35 33.65-50.61 7.87-19.1 11.82-38.79 11.82-59.37 0-28.34-2.86-56.19-8.83-83.25-5.31-26.36-16.19-56.86-32.82-91.26-16.55-34.31-39.51-74.47-69.29-120.95-29.68-46.12-68.6-103-116.89-170.4h216.98v-100.9zm571.82 566.76h-97.13v66.21l78.11 43.77c24.37 15.1 47.04 31.23 67.64 48.51h62.25V1954.2H7711.9z"
     style="fill:#2f4ba6;fill-opacity:1;fill-rule:nonzero;stroke:none"
     transform="matrix(.02055 0 0 -.02055 1 251)"
     id="path6" /></svg>
