<?xml version="1.0" encoding="UTF-8" standalone="no"?>
<svg
   viewBox="33.45 223.05 716.56 716.56"
   version="1.1"
   id="svg28"
   sodipodi:docname="rizespor.svg"
   inkscape:version="1.4.2 (f4327f4, 2025-05-13)"
   xmlns:inkscape="http://www.inkscape.org/namespaces/inkscape"
   xmlns:sodipodi="http://sodipodi.sourceforge.net/DTD/sodipodi-0.dtd"
   xmlns="http://www.w3.org/2000/svg"
   xmlns:svg="http://www.w3.org/2000/svg">
  <sodipodi:namedview
     id="namedview28"
     pagecolor="#ffffff"
     bordercolor="#000000"
     borderopacity="0.25"
     inkscape:showpageshadow="2"
     inkscape:pageopacity="0.0"
     inkscape:pagecheckerboard="0"
     inkscape:deskcolor="#d1d1d1"
     inkscape:zoom="1.1876186"
     inkscape:cx="357.85899"
     inkscape:cy="358.28"
     inkscape:window-width="1920"
     inkscape:window-height="1111"
     inkscape:window-x="-9"
     inkscape:window-y="-9"
     inkscape:window-maximized="1"
     inkscape:current-layer="svg28" />
  <defs
     id="defs9">
    <linearGradient
       id="a"
       x1="174.626"
       x2="430.34"
       y1="489.333"
       y2="310.278"
       gradientUnits="userSpaceOnUse"
       spreadMethod="pad">
      <stop
         offset="0"
         style="stop-opacity:1;stop-color:#73c944"
         id="stop1" />
      <stop
         offset=".148"
         style="stop-opacity:1;stop-color:#73c944"
         id="stop2" />
      <stop
         offset=".236"
         style="stop-opacity:1;stop-color:#30af46"
         id="stop3" />
      <stop
         offset=".295"
         style="stop-opacity:1;stop-color:#30af46"
         id="stop4" />
      <stop
         offset=".36"
         style="stop-opacity:1;stop-color:#a6daa2"
         id="stop5" />
      <stop
         offset=".527"
         style="stop-opacity:1;stop-color:#a6daa2"
         id="stop6" />
      <stop
         offset=".6"
         style="stop-opacity:1;stop-color:#31b44b"
         id="stop7" />
      <stop
         offset=".77"
         style="stop-opacity:1;stop-color:#40b952"
         id="stop8" />
      <stop
         offset="1"
         style="stop-opacity:1;stop-color:#73c944"
         id="stop9" />
    </linearGradient>
  </defs>
  <path
     d="M562.505 405.89c0-148.404-120.307-268.71-268.71-268.71S25.087 257.487 25.087 405.89c0 148.403 120.307 268.709 268.71 268.709s268.709-120.306 268.709-268.71"
     style="fill:#2e3192;fill-opacity:1;fill-rule:nonzero;stroke:none"
     transform="matrix(1.33333 0 0 -1.33333 0 1122.52)"
     id="path9" />
  <path
     d="M542.42 405.89c0-137.312-111.314-248.624-248.624-248.624-137.312 0-248.626 111.312-248.626 248.624 0 137.311 111.314 248.625 248.626 248.625 137.31 0 248.625-111.314 248.625-248.625"
     style="fill:#fff;fill-opacity:1;fill-rule:nonzero;stroke:none"
     transform="matrix(1.33333 0 0 -1.33333 0 1122.52)"
     id="path10" />
  <path
     d="M148.249 405.89c0-80.255 65.292-145.546 145.547-145.546 80.256 0 145.547 65.29 145.547 145.546 0 80.254-65.291 145.547-145.547 145.547-80.255 0-145.547-65.293-145.547-145.547m12.36 0c0 73.44 59.747 133.187 133.187 133.187s133.186-59.748 133.186-133.187-59.747-133.186-133.186-133.186-133.187 59.747-133.187 133.186"
     style="fill:url(#a);fill-opacity:1;fill-rule:evenodd;stroke:none"
     transform="matrix(1.33333 0 0 -1.33333 0 1122.52)"
     id="path11" />
  <path
     d="m 229.824,191.987 7.817,27.87 -7.438,2.084 2.058,7.34 0.864,-0.243 c 2.46,-0.69 4.52933,-0.71667 6.208,-0.08 1.678,0.63667 3.14933,2.02367 4.414,4.161 l 7.408,-2.078 -11.71,-41.751 z m 47.849,8.895 c -1.23042,-0.81492 -2.6039,-1.38969 -4.048,-1.694 -1.442,-0.30533 -3.04833,-0.36233 -4.819,-0.171 -4.18,0.44933 -7.41767,2.117 -9.713,5.003 -2.29733,2.88533 -3.219,6.434 -2.765,10.646 0.48,4.45667 2.32633,7.90433 5.539,10.343 3.21333,2.438 7.17933,3.40267 11.898,2.894 5.27533,-0.568 9.172,-2.81767 11.69,-6.749 2.518,-3.93 3.42133,-9.195 2.71,-15.795 -0.854,-7.936 -2.97733,-13.74267 -6.37,-17.42 -3.39333,-3.68 -8.00233,-5.20667 -13.827,-4.58 -4.134,0.446 -7.288,1.924 -9.462,4.434 -2.17333,2.51 -3.074,5.67767 -2.702,9.503 l 8.92,0.088 c -0.0687,-1.74133 0.32767,-3.13633 1.189,-4.185 0.858,-1.04867 2.09,-1.65933 3.696,-1.832 2.10067,-0.22667 3.823,0.45 5.167,2.03 1.344,1.582 2.30967,4.077 2.897,7.485 m 0.793,11.567 c 0.192,1.78533 -0.26667,3.414 -1.376,4.886 -1.11,1.47067 -2.51067,2.29667 -4.202,2.478 -1.73133,0.18667 -3.284,-0.30067 -4.658,-1.462 -1.37333,-1.162 -2.16,-2.67733 -2.36,-4.546 -0.202,-1.87067 0.24033,-3.508 1.327,-4.912 1.08533,-1.40667 2.50433,-2.204 4.257,-2.392 1.73133,-0.18667 3.28333,0.30067 4.656,1.462 1.37333,1.162 2.15867,2.65733 2.356,4.486 m 24.572,-1.266 c 0.91854,0.59258 1.91375,1.05687 2.958,1.38 1.07133,0.33667 2.25733,0.553 3.558,0.649 4.41867,0.322 8.11467,-0.80767 11.088,-3.389 2.972,-2.58 4.619,-6.076 4.941,-10.488 0.36067,-4.948 -0.84833,-8.90133 -3.627,-11.86 -2.78,-2.95867 -6.868,-4.635 -12.264,-5.029 -5.036,-0.36667 -9.09233,0.56 -12.169,2.78 -3.076,2.21867 -4.768,5.441 -5.076,9.667 -0.01,0.19084 -0.0141,0.38192 -0.013,0.573 0.001,0.25867 -0.004,0.47067 -0.016,0.636 l 9.468,1.06 0.056,-0.766 c 0.14467,-1.98533 0.813,-3.49467 2.005,-4.528 1.192,-1.03467 2.76933,-1.48033 4.732,-1.337 2.26067,0.16467 4.00733,0.97933 5.24,2.444 1.23133,1.46333 1.762,3.36733 1.592,5.712 -0.16333,2.24067 -0.93233,4.019 -2.307,5.335 -1.37467,1.316 -3.04233,1.90267 -5.003,1.76 -1.38267,-0.10133 -2.54767,-0.48 -3.495,-1.136 -0.95,-0.65733 -1.72967,-1.62567 -2.339,-2.905 l -8.958,0.182 2.809,23.846 26.575,1.937 -0.364,-8.599 -18.693,-1.362 z m 50.416,3.616 c 2.55,-0.29867 4.68967,-1.18967 6.419,-2.673 1.73,-1.48467 2.91767,-3.46 3.563,-5.926 1.038,-3.968 0.44467,-7.46333 -1.78,-10.486 -2.22267,-3.024 -5.79633,-5.18 -10.721,-6.468 -5.35333,-1.40067 -9.828,-1.288 -13.424,0.338 -3.596,1.628 -5.95733,4.59467 -7.084,8.9 l -0.064,0.242 9.64,3.842 0.16,-0.601 c 0.598,-2.29067 1.636,-3.908 3.114,-4.852 1.476,-0.944 3.279,-1.137 5.409,-0.579 1.8,0.47 3.113,1.37667 3.939,2.72 0.82667,1.344 1.01933,2.86 0.578,4.548 -0.542,2.068 -1.44533,3.39233 -2.71,3.973 -1.264,0.582 -3.20233,0.53133 -5.815,-0.152 -0.84745,-0.23528 -1.68996,-0.488 -2.527,-0.758 -0.11953,-0.0485 -0.24134,-0.0912 -0.365,-0.128 l -1.86,7.114 c 0.21,0.0553 0.52067,0.12633 0.932,0.213 1.21133,0.25333 2.00967,0.43067 2.395,0.532 1.90867,0.49867 3.24867,1.32 4.02,2.464 0.77267,1.14267 0.93933,2.55567 0.5,4.239 -0.43667,1.662 -1.22667,2.825 -2.37,3.489 -1.14533,0.662 -2.56633,0.77133 -4.263,0.328 -1.79667,-0.47067 -3.09267,-1.36067 -3.888,-2.67 -0.79533,-1.31067 -0.96667,-2.828 -0.514,-4.552 0.104,-0.398 0.222,-0.786 0.354,-1.164 0.13333,-0.378 0.27733,-0.73733 0.432,-1.078 l -10.279,-0.942 -0.032,0.119 c -1.15133,4.39667 -0.66167,8.15433 1.469,11.273 2.12933,3.12 5.72867,5.34367 10.798,6.671 4.79533,1.25533 8.74767,1.198 11.857,-0.172 3.10667,-1.372 5.16133,-3.97133 6.164,-7.798 0.55867,-2.134 0.50533,-4.02333 -0.16,-5.668 -0.66533,-1.64467 -1.961,-3.09067 -3.887,-4.338 m -191.391,54.207 c -13.317,-11.274 11.361,9.616 0,0 z m 129.491,349.525 c 12.675,0.203 -10.277,-0.166 0,0 z m 30.381,-2.329 19.033,-3.999 c 8.673,-1.823 -19.033,3.999 -19.033,3.999 z"
     style="fill:#ee2722;fill-opacity:1;fill-rule:nonzero;stroke:none"
     transform="matrix(1.33333,0,0,-1.33333,0,1122.52)"
     id="path12"
     sodipodi:nodetypes="cccccccccccccccccccccccccccccccccccsccccccccccccccccccsccccccccccccccccccccccccccccccccccccccccccccscccccccccccc" />
  <path
     d="M232.243 417.014c6.3-4.01 19.502-9.202 32.273-19.228 8.126-6.378 15.108-11.26 18.678-16.754 3.57-5.493 3.982-9.064 3.846-17.03-.138-7.965-.138-15.38.96-24.994 1.1-9.612 3.57-13.32 3.434-19.5-.101-4.553-.203-8.881-.248-10.847-.018-.702.609-.981.918-.898 1.984.535 3.691 1.654 4.622 2.35.478.358.758 1.25.76 1.566.105 10.815-.277 17.292-.01 26.23.275 9.202 5.907 12.635 15.657 23.347s19.225 18.952 34.334 29.527c15.105 10.575 18.263 16.48 21.835 25.269 3.57 8.79 8.514 17.442 12.085 27.055 3.57 9.613 2.883 21.15 2.198 21.561-.688.412-2.747-4.395-7.967-10.3-5.218-5.906-11.81-12.222-20.873-16.342-9.065-4.12-20.188-5.494-36.394-15.93-16.206-10.439-20.05-18.541-22.66-29.252-2.61-10.713-1.373-28.017-1.098-36.12s-.275-10.712-.55-13.458-.549-9.064-.549-9.064c-2.198 7.827-2.472 19.913-2.198 29.802.275 9.888.138 16.342-.823 24.17-.962 7.828-.48 12.978-.48 12.978 2.06 2.06 5.973 8.446 16.068 20.188 10.093 11.742 13.183 27.81 14.83 42.23 1.649 14.42-.823 19.982-.823 19.982-1.236 0-2.883-9.476-10.507-19.158-7.62-9.683-19.363-24.72-23.69-37.286-4.326-12.566-2.266-23.278.619-26.369 0 0 .55-7.21.961-13.253.412-6.042.275-8.377.275-8.377s-1.648 2.746-2.884 5.081c-1.237 2.335-2.472 5.082-3.433 11.812-.962 6.728-1.908 27.212-17.991 39.414-11.948 9.064-24.632 8.696-34.059 11.124-9.064 2.335-14.557 6.729-19.089 10.712s-7.141 6.455-7.279 5.768 3.296-12.909 7.416-18.402 8.79-12.36 11.536-16.618 5.768-8.103 10.3-10.986"
     style="fill:#d4e840;fill-opacity:1;fill-rule:nonzero;stroke:none"
     transform="matrix(1.33333 0 0 -1.33333 0 1122.52)"
     id="path13" />
  <path
     d="M272.323 393.572c.35-.525-.041-.39-.452-.068-1.638 1.285-4.324 3.394-7.372 5.536-3.811 2.679-10.403 6.694-17.15 10.455-6.746 3.76-7.312 3.707-11.123 5.768s-5.4 3.118-3.193 2.42c.978-.308 2.336-.824 3.64-1.365 4.564-1.892 12.679-4.887 18.23-7.819 7.279-3.846 11.782-7.546 14.283-10.575 1.052-1.275 2.39-3.23 3.137-4.352"
     style="fill:#8fd12c;fill-opacity:1;fill-rule:nonzero;stroke:none"
     transform="matrix(1.33333 0 0 -1.33333 0 1122.52)"
     id="path14" />
  <path
     d="M214.802 440.446c2.297-3.271 4.995-6.798 6.489-9.115s2.626-5.665 4.068-7.416 3.657-4.378 5.253-4.944c1.596-.567 3.708-1.03 8.6-2.626 4.893-1.598 10.661-3.76 15.09-5.769 3.634-1.647 8.137-4.378 11.948-7.674 3.811-3.295 5.871-7.004 6.85-8.806.978-1.803 1.905-3.399 2.875-4.184 1.203-.974 2.283-2.364 3.649-3.799 2.746-2.884 7.416-9.339 7.416-13.732 0-4.395.823-3.023.823.274 0 3.296.687 3.845.961-.137.275-3.983-1.511-7.69-1.373-15.519s.686-16.206 2.06-21.561c1.373-5.356 2.715-10.433 2.61-18.128-.069-4.996-1.51-9.836 1.065-8.755 2.574 1.08 4.12 1.596 4.12 4.428 0 2.833-.104 11.537-.104 15.45 0 3.915-.206 9.528.412 12.618s1.803 5.304 4.171 8.549c2.37 3.245 5.418 8.095 7.726 13.596 2.73 6.506 3.072 9.253 9.116 14.609 6.042 5.356 10.71 8.72 17.99 12.36 7.278 3.64 13.251 7.28 18.128 10.231 4.875 2.953 8.79 4.807 10.711 8.171 1.923 3.366 2.335 7.142 3.503 11.4 1.168 4.257 5.836 11.673 9.27 19.775 3.433 8.103 5.149 14.901 5.424 18.335.275 3.433.137 6.111-.274 6.111s-2.198-3.365-5.288-7.21c-3.09-3.846-8.79-9.682-12.567-13.39-3.775-3.708-9.612-9.477-17.51-12.154-7.895-2.678-13.045-4.052-21.698-8.24-8.651-4.19-12.086-7.417-17.99-14.558-5.907-7.14-7.967-11.878-9.957-19.02s-2.54-11.055-2.54-20.05c0-8.997.549-15.381 0-19.365-.55-3.983-1.443-6.328-1.923-11.536-.412-4.463-.309-4.927-.309-4.927s-1.133 1.906-1.75 6.696c-.619 4.789-1.134 15.913-.877 21.578.258 5.665.464 10.918.155 16.685-.31 5.769-1.082 9.528-1.544 13.596-.464 4.07-.619 8.344-.258 9.58.36 1.235 1.802 3.038 4.995 9.218s4.017 9.116 5.922 13.75c1.906 4.636 1.587 7.426 5.665 11.588 5.048 5.15 7.83 8.704 9.734 17.664 1.905 8.962 3.536 15.193 2.85 15.245-1.095.082-1.923-2.336-7.004-7.828-5.083-5.493-8.378-9.201-10.163-15.793-1.786-6.593-1.786-7.005-4.944-12.635-3.159-5.631-7.279-9.339-8.79-16.48-1.51-7.142-2.06-10.712-1.373-12.772s.824-5.493 1.236-11.398c.412-5.907.824-11.95.687-13.46-.138-1.51-.275-1.099-2.06 1.785s-4.12 8.378-4.807 13.597-5.905 14.145-8.377 21.56c-2.472 7.417-7.554 14.147-14.695 18.404-7.14 4.257-8.79 5.905-17.853 7.69s-14.145 3.159-18.403 6.043-8.24 5.493-12.36 9.201-6.18 5.769-6.042 5.082c.04-.204.126-1.266.675-2.76.235-.64.576-1.511 1.152-3.145 1.04-2.953 2.635-6.3 9.434-15.983"
     style="fill:#8ad036;fill-opacity:1;fill-rule:nonzero;stroke:none"
     transform="matrix(1.33333 0 0 -1.33333 0 1122.52)"
     id="path15" />
  <path
     d="M288.619 390.646c.137 1.373.549.618 1.068-2.302.402-2.835.817-5.767 1.026-9.668.11-2.056.156-4.03.156-6.002 0-3.428-.138-6.842-.31-10.644a81 81 0 0 1-.07-3.583c0-6.023.45-14.208.948-18.067.622-4.818 1.758-6.772 1.806-6.853 1.534-3.215 2.036-3.583 1.624-2.278s-.618 5.63-.55 7.379c.118 3.089.714 5.155 1.13 7.164.519 1.388 1.55.976 1.858 1.696.964 2.251.515 5.46.72 12.258a675 675 0 0 0 1.238 25.647c.72 10.814 5.972 16.48 9.784 19.569 3.811 3.09 9.889 4.842 21.94 10.197 9.45 4.201 10.505 6.078 17.613 12.567s11.742 10.197 17.133 15.488l.08.08c4.148 4.071 9.634 9.736 12.6 13.426 1.646 2.049 2.902 3.928 3.82 5.301.378.568.758 1.134 1.019 1.478.072-.411.132-1.125.132-2.176 0-.863-.02-1.937-.14-3.214-.14-1.44-1.478-6.693-5.496-12.255-4.016-5.563-10.506-12.978-15.553-16.996s-9.167-7.21-16.584-15.552c-7.415-8.344-15.582-18.828-18.642-23.279-3.399-4.944-6.18-9.785-8.616-11.913-5.178-4.525-6.244-7.322-8.062-11.895l-1.16-2.864c-2.571-6.13-5.915-11.097-7.679-13.512-2.233-3.059-3.57-5.353-4.241-8.711-.379-1.889-.455-4.649-.455-7.435 0-.96.01-1.925.019-2.854l.073-11.27.045-6.59c0-2.433-1.181-2.925-3.533-3.909l-.334-.14c-.674-.41-.082 1.99-.082 5.354s-.411 6.456-.564 8.164c-.376 4.926-1.363 8.776-2.394 12.793l-.076.295c-.906 4.085-.88 7.107-1.566 14.73-.687 7.622-.069 13.87.377 16.619.334 2.057.535 3.827.515 5.656-.07 6.14-.686 9.105-.82 11.44-.339 4.05.065 5.286.203 6.66"
     style="fill:#6bad2e;fill-opacity:1;fill-rule:nonzero;stroke:none"
     transform="matrix(1.33333 0 0 -1.33333 0 1122.52)"
     id="path16" />
  <path
     d="M253.118 412.55c2.332-.61 2.403-.068 1.236 1.786-1.167 1.853-3.914 4.668-10.438 11.261-6.523 6.592-13.321 8.377-15.793 10.643s-7.553 4.532-12.291 8.996c-4.738 4.463-9.133 9.888-10.232 12.497s.344 1.854 2.266-.206 3.846-4.257 8.79-8.378c4.944-4.12 8.789-7.071 13.252-8.583 4.463-1.51 9.476-2.403 14.764-2.815s7.21-2.883 13.252-7.003 11.605-10.507 13.116-15.657 4.463-11.88 5.905-16.274 2.335-5.837 3.64-7.484 1.304-3.435.618-2.884c-.683.546-2.884 2.197-4.807 3.776-1.923 1.58.274-.686 2.953-3.433 2.677-2.748 4.67-5.356 6.379-8.251 1.243-2.117 1.517-3.01 1.585-4.521.07-1.511.138-3.365.138-3.365 0-.08-.005-.14-.007-.218-.036 4.45-4.623 10.917-7.522 13.961l-1.272 1.39c-.816.912-1.587 1.774-2.416 2.444-.935.757-1.883 2.421-2.772 4.06-.893 1.646-2.986 5.5-6.942 8.922-3.46 2.992-7.965 5.886-12.048 7.737-2.77 1.256-6.198 2.633-9.743 3.924-1.843.56-1.568 1.52 1.11.215 2.678-1.303 4.395-1.784 7.279-2.54z"
     style="fill:#60a63a;fill-opacity:1;fill-rule:nonzero;stroke:none"
     transform="matrix(1.33333 0 0 -1.33333 0 1122.52)"
     id="path17" />
  <path
     d="M310.935 359.54c2.667 2.892 9.34 10.025 15.107 14.969 5.769 4.945 10.917 9.064 13.321 10.781 2.404 1.716 5.219 3.776 9.476 6.797s6.386 5.082 7.554 6.387.753 1.098-3.434-1.373c-4.188-2.473-14.008-7.348-19.981-10.851-5.975-3.501-13.117-8.995-16.618-13.39-3.502-4.394-3.845-6.248-5.7-10.368-1.853-4.12-4.6-8.24.275-2.952"
     style="fill:#63c548;fill-opacity:1;fill-rule:nonzero;stroke:none"
     transform="matrix(1.33333 0 0 -1.33333 0 1122.52)"
     id="path18" />
  <path
     d="m342.02 387.708-2.897-2.082c-2.226-1.59-7.218-5.549-13.35-10.804-5.431-4.655-11.818-11.398-15.141-15.003a41 41 0 0 0-1.642-1.705c.202.429.455.934.696 1.412l1.35 2.797 1.017 2.35c1.971 4.067 3.277 5.922 6.367 8.669 3.09 2.746 3.639 3.364 8.17 6.317 4.533 2.953 6.594 3.501 10.438 5.7 3.846 2.197 7.58 4.286 4.992 2.349"
     style="fill:#5eae34;fill-opacity:1;fill-rule:nonzero;stroke:none"
     transform="matrix(1.33333 0 0 -1.33333 0 1122.52)"
     id="path19" />
  <path
     d="M328.552 377.719c-.947-.855-1.995-1.682-3.045-2.583-4.07-3.488-8.658-8.13-12.11-11.761-1.105-1.209-.746.645.44 2.705 1.184 2.06 1.545 3.657 4.12 5.922 2.574 2.267 4.893 4.275 7.57 5.665 2.678 1.392 7.646 4.222 3.025.052"
     style="fill:#3f8939;fill-opacity:1;fill-rule:nonzero;stroke:none"
     transform="matrix(1.33333 0 0 -1.33333 0 1122.52)"
     id="path20" />
  <path
     d="M287.863 396.688c.473-.568.618 1.098.618 3.296s.549 5.15 2.266 8.172c1.717 3.02 3.09 3.227 5.219 10.094 2.128 6.866 2.815 11.741 5.013 14.419s5.423 5.562 8.446 11.674c3.021 6.111 5.15 12.428 5.699 15.038.55 2.609-.275 2.816-4.12-2.06s-7.965-9.682-9.27-14.489-2.61-8.377-5.974-13.322-5.219-9.476-6.66-16.754c-1.443-7.278-1.031-10.23-1.168-12.429-.138-2.196-.412-3.226-.07-3.639"
     style="fill:#7cab42;fill-opacity:1;fill-rule:nonzero;stroke:none"
     transform="matrix(1.33333 0 0 -1.33333 0 1122.52)"
     id="path21" />
  <path
     d="M312.24 457.081c-2.323-2.323-5.356-6.283-6.18-8.55a19.1 19.1 0 0 0-2.884-5.253c-1.03-1.339-1.236-4.016-2.368-6.282-1.134-2.267-3.09-4.944-5.15-8.755s-2.988-7.519-4.224-12.36-2.781-7.725-1.236-6.077 4.12 5.047 4.326 8.96.927 6.902 3.09 10.61 4.944 7.416 7.314 11.124c2.368 3.708 4.634 7.106 5.664 10.093s3.811 8.653 1.648 6.49"
     style="fill:#58862d;fill-opacity:1;fill-rule:nonzero;stroke:none"
     transform="matrix(1.33333 0 0 -1.33333 0 1122.52)"
     id="path22" />
  <path
     d="M300.625 355.435c.714 3.003 0 9.254.507 22.946.507 13.69 1.45 16.225 4.619 19.268s4.636 5.253 17.82 8.343c6.442 1.51 19.331 13.09 21.217 14.833 3.125 2.886 6.22 5.086 10.094 8.643 6.212 5.705 8.367 8.24 13.818 13.438s9.722 14.338 12.297 14.705c.887.127.76-3.93-8.24-14.705s-10.269-12.17-21.93-21.424c-11.664-9.253-13.19-10.067-18.383-18.635-2.536-4.184-3.634-8.928-7.353-14.705-3.89-6.045-4.302-7.075-8.113-10.784-3.811-3.708-4.944-5.767-7.107-10.918-2.163-5.149-2.884-2.265-5.047-7.622-2.164-5.356-2.767-7.32-5.15-11.226-2.472-4.052-3.433-6.523-3.228-13.458.206-6.937-.069-11.331.069-16.138.137-4.807.468-6.456-1.51-7.759-1.98-1.302-2.198-1.511-1.854 1.099s0 6.799-.618 11.879-1.031 8.445-1.786 11.88c-.755 3.432-1.716 8.72-1.716 11.536s-.756 9.27-.207 14.556c.55 5.287 1.03 10.232 1.03 16 0 5.767-1.167 9.75-.618 9.132.55-.617 1.374-6.454 1.374-12.153s-.687-10.575-.412-18.197.068-9.27.893-15.725c.824-6.454 1.647-8.584 2.952-10.712s1.786-1.578 1.305 1.717c-.48 3.296-.617 8.79-.206 11.193s1.304 3.227 2.266 4.189c.961.96 1.834 2.983 3.217 8.804"
     style="fill:#367530;fill-opacity:1;fill-rule:nonzero;stroke:none"
     transform="matrix(1.33333 0 0 -1.33333 0 1122.52)"
     id="path23" />
  <path
     d="M312.24 397.958c-3.945-1.77-7.005-6.18-7.93-16.89-.927-10.714-2.472-20.601-2.472-22.456 0-1.853 1.235-.102 3.604 3.194s3.81 8.136 6.592 12.154c2.781 4.017 8.138 8.137 10.609 12.772s4.428 7.519 6.489 11.742 1.134 5.356-3.09.823c-4.223-4.531-8.755.928-13.802-1.339"
     style="fill:#216030;fill-opacity:1;fill-rule:nonzero;stroke:none"
     transform="matrix(1.33333 0 0 -1.33333 0 1122.52)"
     id="path24" />
  <path
     d="M293.7 327.815c-1.465 1.955-1.03 1.34-.618-2.574s.515-8.86.618-11.743 1.03-3.192 1.648-2.266.515 1.134.618 7.931c.103 6.799.618 10.919-.309 8.652-.927-2.265-.721-1.648-1.957 0"
     style="fill:#284e26;fill-opacity:1;fill-rule:nonzero;stroke:none"
     transform="matrix(1.33333 0 0 -1.33333 0 1122.52)"
     id="path25" />
  <path
     d="M213.463 450.591c-2.866 2.694-3.09 1.855-.515-.823s7.519-7.107 11.845-9.27c4.326-2.164 9.579-5.253 13.184-7.932 3.605-2.677 8.858-8.857 12.566-12.874 3.707-4.017 6.077-7.004 7.519-8.754 1.441-1.752 5.047-3.297 8.446-7.005s6.077-7.107 7.004-8.24 1.339-.825.515 1.75-3.605 8.961-5.665 12.155-1.854 8.858-6.386 13.905-8.755 7.313-13.288 8.755c-4.531 1.442-6.591 2.06-10.711 3.295-4.12 1.237-7.313 2.781-10.815 4.327s-8.55 5.871-13.7 10.711"
     style="fill:#4e8d28;fill-opacity:1;fill-rule:nonzero;stroke:none"
     transform="matrix(1.33333 0 0 -1.33333 0 1122.52)"
     id="path26" />
  <path
     d="M248.483 427.108c-6.11 5.032-4.738.412-1.545-2.781 3.192-3.194 4.326-4.635 7.312-8.035 2.988-3.398 3.503-4.943 6.799-7.313 3.296-2.368 6.076-4.943 8.137-7.416 2.06-2.471 2.266-1.853.72 1.34-1.544 3.193-2.883 4.84-5.15 6.489-2.265 1.648-2.677 2.471-2.574 4.532s-.412 2.781-2.472 4.326-3.193 3.192-5.665 4.635-3.811 2.781-5.562 4.223"
     style="fill:#266227;fill-opacity:1;fill-rule:nonzero;stroke:none"
     transform="matrix(1.33333 0 0 -1.33333 0 1122.52)"
     id="path27" />
  <path
     d="M365.8 412.894c-.813-3.123-1.236-5.357-6.077-8.447s-8.755-5.047-12.462-7.518c-3.71-2.472-4.533-1.648 1.545 2.06 6.076 3.708 9.68 5.664 11.536 7.622 1.853 1.956 4.016 4.222 4.737 7.725.722 3.5 2.06 3.707.722-1.442"
     style="fill:#6bad2e;fill-opacity:1;fill-rule:nonzero;stroke:none"
     transform="matrix(1.33333 0 0 -1.33333 0 1122.52)"
     id="path28" />
</svg>
