<?xml version="1.0" encoding="UTF-8" standalone="no"?>
<svg
   xml:space="preserve"
   version="1.0"
   viewBox="2 2 184.38 250"
   id="svg6"
   sodipodi:docname="sivasspor.svg"
   inkscape:version="1.4.2 (f4327f4, 2025-05-13)"
   xmlns:inkscape="http://www.inkscape.org/namespaces/inkscape"
   xmlns:sodipodi="http://sodipodi.sourceforge.net/DTD/sodipodi-0.dtd"
   xmlns="http://www.w3.org/2000/svg"
   xmlns:svg="http://www.w3.org/2000/svg"><defs
     id="defs6" /><sodipodi:namedview
     id="namedview6"
     pagecolor="#ffffff"
     bordercolor="#000000"
     borderopacity="0.25"
     inkscape:showpageshadow="2"
     inkscape:pageopacity="0.0"
     inkscape:pagecheckerboard="0"
     inkscape:deskcolor="#d1d1d1"
     inkscape:zoom="3.404"
     inkscape:cx="92.244418"
     inkscape:cy="125"
     inkscape:window-width="1920"
     inkscape:window-height="1111"
     inkscape:window-x="-9"
     inkscape:window-y="-9"
     inkscape:window-maximized="1"
     inkscape:current-layer="svg6" /><path
     d="M194.382 25.813c-24.844.05-49.641-8.553-64.76-25.813-15.12 17.26-39.915 25.863-64.761 25.813C40.067 25.813 15.223 17.157 0 0v274.67c0 24.438 20.568 46.076 45.363 45.973l26.219-.152c25.201-.152 44.294 9.826 58.04 31.006 13.746-21.18 32.838-31.158 58.039-31.006l26.221.152c24.793.104 45.361-21.535 45.361-45.973V0c-15.222 17.157-40.066 25.813-64.861 25.813"
     style="clip-rule:evenodd;fill:#da0020;fill-rule:evenodd"
     transform="matrix(.71124 0 0 .71124 2 2)"
     id="path1" /><path
     d="M 5.651,116.538 V 274.67 c 0,21.332 17.972,40.424 39.66,40.271 l 26.271,-0.102 c 22.453,-0.152 44.345,8.248 58.04,26.576 13.695,-18.328 35.588,-26.729 58.039,-26.576 l 26.271,0.102 c 21.688,0.152 39.66,-18.939 39.66,-40.271 V 116.538 Z M 153.397,45.057 h -18.328 l -5.499,-16.75 -5.447,16.75 h -18.276 l 14.611,10.997 -5.956,18.175 15.068,-11.353 15.171,11.353 -6.006,-18.175 z m -67.509,0 H 67.611 l -5.549,-16.75 -5.499,16.75 H 38.336 L 52.948,56.054 46.991,74.229 62.062,62.876 77.233,74.229 71.227,56.054 Z m 135.019,0 h -18.328 l -5.498,-16.75 -5.5,16.75 h -18.227 l 14.563,10.997 -5.906,18.175 15.07,-11.353 15.17,11.353 -6.008,-18.175 z"
     style="clip-rule:evenodd;fill:#ffffff;fill-rule:evenodd"
     transform="matrix(0.71124,0,0,0.71124,2,2)"
     id="path2"
     sodipodi:nodetypes="cscccccsccccccccccccccccccccccccccccccccccc" /><path
     d="M89.248 197.334c-9.47-2.342-18.582-5.6-26.729-11.098-8.858-5.957-12.932-14.46-12.932-23.929 0-13.899 8.859-24.233 21.639-29.987 8.857-4.022 20.059-5.651 31.463-5.702 12.932-.051 26.117 1.985 36.249 5.04 19.297 5.854 22.656 6.67 24.592-2.291h13.082v36.504a110 110 0 0 0-13.49-2.037c-1.578-.152-3.156-.305-4.734-.406-4.379-7.281-10.029-13.746-15.273-17.208-9.42-6.212-22.198-8.655-39.967-8.655-12.932 0-31.005 8.96-31.005 21.994 0 9.571 13.644 15.629 26.575 19.295-4.887 5.091-8.298 11.302-9.47 18.48"
     style="clip-rule:evenodd;fill:#da0020;fill-rule:evenodd"
     transform="matrix(.71124 0 0 .71124 2 2)"
     id="path3" /><path
     d="M173.712 255.986c12.27-7.535 17.463-19.348 17.463-30.906 0-10.486-4.582-20.363-14.713-26.777-10.643-6.822-26.068-10.082-40.578-12.475-2.697 1.018-5.346 2.342-7.535 3.973-4.123 2.9-7.025 6.617-7.025 10.742 0 .965.305 1.934.864 2.85.204.051.46.102.714.154 7.28 1.322 23.42 4.072 32.635 8.857 6.465 3.359 9.57 10.336 9.469 17.514-.1 7.637-3.869 15.529-9.623 19.5-5.191 3.564-13.439 5.906-26.371 6.059-39.253 0-60.279-25.049-70.207-50.658l-12.779-.102v56.615h12.015c1.936-5.551 4.379-8.656 8.096-9.625 8.146-2.086 12.677 3.82 26.423 8.352 10.285 3.412 24.438 7.279 36.453 7.178 15.373-.204 32.939-3.971 44.699-11.251"
     style="clip-rule:evenodd;fill:#da0020;fill-rule:evenodd"
     transform="matrix(.71124 0 0 .71124 2 2)"
     id="path4" /><path
     d="M160.017 229.816c-.051 3.156-.867 6.314-2.24 9.113-.662 1.324-1.426 2.545-2.342 3.615-17.156-2.801-34.366-5.703-48.724-15.324-8.858-5.957-12.932-14.512-12.932-23.98 0-12.627 7.383-22.299 18.38-28.307 9.571-5.245 22.502-7.281 35.639-7.229 12.676 0 25.455 2.036 35.332 4.988 19.297 5.806 22.656 6.669 24.592-2.341h13.082v45.057l-12.982-.051c-4.021-11.15-12.676-23.012-20.516-28.154-9.471-6.211-22.25-8.604-40.018-8.604-12.932 0-30.954 8.908-30.954 21.943 0 13.643 28.003 20.211 41.8 22.756.254.053.508.053.764.104.763 1.985 1.119 4.174 1.119 6.414M217.903 297.02c12.27-7.535 17.463-19.346 17.463-30.902 0-10.539-4.582-20.416-14.766-26.881-6.771-4.328-15.477-7.23-24.691-9.42-.611 5.346-2.189 10.59-4.939 15.477-.764 1.324-1.578 2.648-2.545 3.922 4.176 1.17 8.146 2.596 11.303 4.225 6.465 3.359 9.572 10.283 9.469 17.463-.152 7.637-3.869 15.527-9.672 19.551-5.193 3.563-13.391 5.855-26.373 6.059-25.559 0-43.377-10.59-55.393-25.1a123 123 0 0 1-8.654-1.527c-6.568-1.426-12.83-3.311-18.074-5.041-.305-.102-.56-.203-.814-.254v37.775h12.016c1.935-5.6 4.379-8.654 8.096-9.621 8.145-2.088 12.676 3.768 26.371 8.35 10.285 3.41 24.438 7.279 36.453 7.127 15.424-.155 32.991-3.973 44.75-11.203M68.935 273.6h15.987v1.986l-10.438 21.18h-5.957l9.063-18.43h-8.655zM41.851 288.518c-.408.051-.815.051-1.172.051-1.985 0-3.768-.66-5.143-2.088-1.425-1.424-1.985-3.309-1.985-5.295 0-2.24.713-4.326 2.394-5.904 1.73-1.629 3.971-2.24 6.313-2.24 2.241 0 4.328.611 5.906 2.24 1.629 1.629 2.24 3.717 2.24 5.957 0 1.525-.357 3.105-.968 4.529a22 22 0 0 1-1.171 2.545 35 35 0 0 1-1.731 2.803l-3.716 5.65h-6.466zm3.104-7.383c0-.865-.203-1.68-.764-2.291-.611-.559-1.374-.762-2.188-.762s-1.579.203-2.139.814c-.61.609-.814 1.373-.814 2.238 0 .969.254 1.732.814 2.291.56.613 1.426.764 2.24.764s1.527-.254 2.087-.814c.561-.611.764-1.426.764-2.24M21.128 273.6h8.655v23.166h-5.549v-18.43h-3.156zM59.274 281.854c.407-.053.813-.053 1.17-.053 1.986 0 3.768.662 5.143 2.088 1.426 1.426 1.985 3.311 1.985 5.295 0 2.24-.713 4.328-2.393 5.906-1.731 1.629-3.972 2.24-6.313 2.24-2.239 0-4.327-.611-5.905-2.24-1.629-1.629-2.24-3.717-2.24-5.957 0-1.527.356-3.105.968-4.531a23 23 0 0 1 1.17-2.545 35 35 0 0 1 1.731-2.801l3.717-5.65h6.466zm-3.106 7.38c0 .867.204 1.682.765 2.291.61.561 1.374.764 2.189.764.813 0 1.577-.203 2.138-.814.611-.609.814-1.373.814-2.24 0-.967-.255-1.73-.814-2.291-.561-.609-1.426-.764-2.24-.764s-1.527.256-2.087.814c-.561.611-.765 1.426-.765 2.24"
     style="clip-rule:evenodd;fill:#da0020;fill-rule:evenodd"
     transform="matrix(.71124 0 0 .71124 2 2)"
     id="path5" /></svg>
