<?xml version="1.0" encoding="UTF-8" standalone="no"?>
<svg
   xml:space="preserve"
   id="レイヤー_1"
   x="0"
   y="0"
   version="1.1"
   viewBox="4.2 0 91.6 140"
   sodipodi:docname="fagiano-okayama.svg"
   inkscape:version="1.4.2 (f4327f4, 2025-05-13)"
   xmlns:inkscape="http://www.inkscape.org/namespaces/inkscape"
   xmlns:sodipodi="http://sodipodi.sourceforge.net/DTD/sodipodi-0.dtd"
   xmlns="http://www.w3.org/2000/svg"
   xmlns:svg="http://www.w3.org/2000/svg"><defs
     id="defs13" /><sodipodi:namedview
     id="namedview13"
     pagecolor="#ffffff"
     bordercolor="#000000"
     borderopacity="0.25"
     inkscape:showpageshadow="2"
     inkscape:pageopacity="0.0"
     inkscape:pagecheckerboard="0"
     inkscape:deskcolor="#d1d1d1"
     inkscape:zoom="5.7642857"
     inkscape:cx="16.741016"
     inkscape:cy="70"
     inkscape:window-width="1920"
     inkscape:window-height="1009"
     inkscape:window-x="-8"
     inkscape:window-y="-8"
     inkscape:window-maximized="1"
     inkscape:current-layer="レイヤー_1" /><style
     id="style1">.st0{fill:#fff}.st1{fill:#1c2469}.st2{fill:#bf9c46}.st3{fill:#b6003d}</style><path
     d="M94.8 81.6v-.2l.1-.1c1-1.3 1-2.6.8-3.4-.2-.6-.6-1.5-1.6-2.3l-.1-.1v-.2c-1.7-10-5-24.8-6.8-32.8v-.2l.2-3.1c.1-1.3 0-2.6-.1-4.1l-.1-1c0-.7-1.7-8.6-2-9.8-.3-1.3-2.6-6.1-3.6-7.8-.3-.6-2.3-3.9-4.8-7.5-2.5-3.4-5.7-7.5-6.8-9-.4 2.2-1.2 7.4-1.2 7.4-.1.4-.5 2.3-1.2 4.7-.9 3.1-1.8 5.8-2.7 8-1.4 3.3-3.1 6.7-4.9 9.9l-.1.2h-7.4l-.1-.3-1-2.8c-.3-.5-3.7-6.7-4.8-8.2 0 0-4.2-6.1-5.4-7.3L32.7 3c1.2 3.3 3.5 10.3 4.6 18 .4 2.5.5 5.5.5 8.9v.4H18.2c-.1.6-1 4.3-1 4.3-.3 1.4-8.4 34.9-9.7 47.1-.3 3-.2 6 .2 9v.3l-1.2.5-2.3 7.1 4.6-1.4.4-.1.1.4c.7 2.2 1.6 4.3 2.7 6.5l.1.2-.1.2c-1.6 3.7-1.7 7.3-.5 9.6 1.1 2 2.9 3.3 5.1 3.5 1.3.1 2.6-.1 4-.6l.3-.1.2.2c11.6 13.1 26.6 21.2 27.3 21.5h-.1c.2.1.7.4 2.7 1.5.4-.2 2.7-1.4 2.7-1.4.7-.4 17.7-9.6 29.5-24.2l.1-.1h.1c1.3-.3 2.4-1 3.1-1.6l.1-.1h.1c2.9-.5 3.8-2.8 4-3.5.3-1.1 0-2.2-.9-2.9-.1-.1-.2-.1-.3-.3v-.1c0-.1-.1-.3-.1-.3l-.1-.2.1-.2c4.4-7.8 6.2-15.7 5.4-23.5"
     class="st0"
     id="path1" /><path
     d="M93.3 81.8c-1.3-12.1-9.3-45.6-9.6-47l-.8-3.2H19.4l-.8 3.2c-.3 1.4-8.4 34.8-9.6 47-3.3 31.6 38.4 54.4 40.2 55.4l2 1.1 2-1.1c1.7-1 43.4-23.8 40.1-55.4"
     class="st1"
     id="path2" /><path
     d="M91.2 82C90 70 82 36.8 81.6 35.4l-.4-1.6H21l-.4 1.6C20.3 36.8 12.3 70 11 82c-1.3 12.6 5.1 25.9 18.5 38.4 10 9.2 20.2 14.8 20.6 15l1 .5 1-.5c.4-.2 10.6-5.7 20.6-15C86.1 107.9 92.6 94.6 91.2 82"
     class="st2"
     id="path3" /><path
     d="M13.1 82.2c-3 29.2 38 51.3 38 51.3V35.8H22.6s-8.3 34.4-9.5 46.4"
     class="st1"
     id="path4" /><path
     d="M51.1 35.8h28.5s8.3 34.4 9.5 46.4c3 29.2-38 51.3-38 51.3z"
     class="st3"
     id="path5" /><path
     d="M65.1 97.2H64v-.7c0-.3 0-.7.4-1s.9-.3 1.2-.3c.7 0 1.4.2 1.6.9 0 0 .1.4.1.6v.6c0 .6-.2.9-.9 1.6-1 .9-1.1 1-1.2 1.5h2.2v.9H64c0-1.6.6-2.1 1.2-2.7 1-.9 1-.9 1-1.4v-.7c0-.2 0-.5-.5-.5s-.5.3-.5.6zM68.5 96.7c0-.4 0-.7.3-1 .3-.4.9-.6 1.4-.6 1.7 0 1.7 1.1 1.7 1.5v3.2c0 .3-.1.8-.5 1.1s-.9.3-1.1.3c-1.7 0-1.7-1-1.7-1.5zm1.1 3.2c0 .1 0 .6.5.6s.5-.4.5-.6v-3.3c0-.3 0-.7-.5-.7s-.5.4-.5.6zM73 96.7c0-.4 0-.7.3-1 .3-.4.9-.6 1.4-.6 1.7 0 1.7 1.1 1.7 1.5v3.2c0 .3-.1.8-.5 1.1s-.9.3-1.1.3c-1.7 0-1.7-1-1.7-1.5zm1.1 3.2c0 .1 0 .6.5.6s.5-.4.5-.6v-3.3c0-.3 0-.7-.5-.7s-.5.4-.5.6zM78.8 95.1h1.4v4h.4v.8h-.4v1.1h-1v-1.1h-2v-.8zm.4 4.1.1-3-1.1 3z"
     class="st2"
     id="path6" /><path
     d="m 54.8,71 c 0.9,0.2 2.1,0.5 3.3,0.8 1.2,0.3 3.2,0.9 4.3,1.1 0.4,0.1 0.9,0 0.9,0 C 64,72.7 74.9,65 75,65 c 0.6,-0.4 4.2,-4.7 4.3,-5.2 0.3,-1 1.9,-5.3 1.9,-5.3 1.5,-1.7 3.6,-5.4 3.8,-7 0.4,-3.6 0.7,-8.3 0.7,-8.3 L 85,40.1 c 0,0 1,-3.9 0.8,-4.9 C 85.6,34 84.6,28.1 84.6,28.1 L 84.1,29 c 0,0 0,-3.4 -0.2,-4 -0.4,-1.1 -3,-6.5 -3,-6.5 l -0.4,1.2 c 0,0 -0.3,-2.9 -0.7,-3.6 -0.5,-0.8 -3.7,-5.4 -3.7,-5.4 L 75.8,12 74.8,9.2 70.9,3.7 c 0,0 -0.4,3 -0.5,4.2 -0.5,2.4 -1.7,7.4 -4.1,13 C 63.9,26 60.9,31.6 58,36 c -0.8,1.1 -1.7,2.1 -2.7,3.3 -3.1,3.6 -3.3,4.4 -2.3,7.1 0.1,0.4 0.3,0.8 0.4,1.3 -0.1,0.5 -0.8,2.5 -4.8,8.5 C 48.4,56.1 48.1,56.1 47.9,56 44.1,54.9 38.4,53.2 36.6,49.6 l 0.2,-0.2 c 0.5,-0.7 1,-0.8 1,-0.8 h 0.3 L 39.7,48.5 39.2,47 C 38.4,44.6 36.5,44.6 35.5,44.5 H 35.1 C 34.9,44.4 34.8,44.3 34.5,44.2 33.1,43.5 29,41.4 27,44.8 c -0.2,0.1 -0.8,0.1 -1.2,0.2 -4.6,0.5 -3.5,5.5 -3.5,5.5 0,0 2.5,-2 4.1,-1.4 0.3,0.1 1.2,0.6 1.2,0.6 l -0.5,0.5 c -1,0.9 -3.2,-0.1 -3.2,-0.1 l 0.9,1.8 c 0.6,1.2 1.5,1.6 2.2,1.7 0.1,0.8 0.4,1.4 0.9,1.9 0.8,0.8 2,0.8 3.1,0.7 0.7,2.1 1.7,5.8 1.3,8"
     class="st1"
     id="path8"
     sodipodi:nodetypes="csccccccccccccccccccccccccccccccccsccccccccccscscc" /><path
     d="M54.6 47.9c0-.3-.1-.5-.1-.8-.8-2.4-1.4-2.9-.2-4.7 0-1.1-.1-2.4-.2-3l-1.4-2.6-.6.6s.3-1.4.3-2.3c0-.4-2.6-7.6-2.6-7.6l-.3.6-.4-1.6-3-6-.1 1-.6-1.8-3.5-5-.1.7-.8-1.8-3-3.3-2.4-2.6 1.1 3.4s1.5 5.7 2 9.6c.4 3.7.6 7.7.4 11-.1.8-.2 1.5-.3 2.3-.4 2.7-.3 3 .6 4.7.2.3.3.6.6 1 0 .4 0 13.6-.1 14.5 3.1 1.7 6.9 2.7 9.3 3.4 2.5-3.7 5-7.9 5.4-9.7"
     class="st1"
     id="path10" /><path
     d="M40.5 34.5q-.15-.15 0 0c.2-3 .2-6.9-.1-10.9s-1-7.9-1.7-10.6c.2.2.8 1 1 1.2.2.3 1 2.5 1.2 3.1.8 3.4 1.3 7.8 1.6 12.3-.1 1.5-1.2 3.7-2 4.9M42.7 37.7c.4-2.6.6-6.1.6-9.9-.1-3.8-.5-7.7-1-10.3l1 1.5c.2.3 1 2.6 1.1 3.3.5 3.4.7 7.6.6 11.7 0 1.3-1.3 2.9-2.3 3.7M47.2 39.8c-.6.9-1.8 1.5-2.4 1.8 0 0 0-.1-.1-.1 1.3-4.1 2.2-12.7 1.6-17.8.2.3.6 1 .8 1.3.2.4.9 2.9.9 3.6.1 3-.1 6.7-.5 10.1-.1.3-.2.7-.3 1.1M49.7 30.6c.2.4.3.7.5 1 .2.4 1 3.4.9 4.1-.3 2.8-1.3 5.9-2 8.9-.1.2-.2.3-.2.5-.6.7-1.9.8-2.6.8 0 0 0-.1-.1-.1 1.6-3.2 3.4-10.5 3.5-15.2M48.4 53.5c.4.5.9.9 1.3 1.1 2.3-3.6 3.2-5.4 3.5-6.3-1.3 2-3.3 4.5-4.8 5.2M53 42.3c0-.9 0-2-.1-2.3s-.3-.6-.4-1c-1 3.7-3.3 8.7-5.1 10.5 0 .1 0 .1.1.2 1 .5 2.3.9 2.7.3.8-1.7 1.7-3.6 2.4-5.3-.3-.8-.1-1.5.4-2.4"
     class="st0"
     id="path11" /><path
     d="m 54.1,69.8 c 0.1,0 0.1,-0.1 0.2,-0.1 2,0.1 6.3,1.8 8.8,2 1,-0.2 10.8,-7.4 11.3,-7.7 0.9,-0.6 3.4,-3.5 3.8,-4.7 0.4,-0.9 1.2,-3.4 1.3,-3.7 l -8.1,5.2 c 0,0 5.9,-4.8 8.4,-6.9 1.2,-1.1 3.7,-5.1 4,-6.6 0.2,-1.2 0.3,-4.5 0.3,-4.8 -0.2,0.2 -0.4,0.5 -0.6,0.7 -1.7,1.9 -4.7,4.9 -8.3,7.8 l 7,-7.5 C 83.3,42 84.8,36.8 84.6,35.3 84.4,34.1 84,31.8 84,31.5 c -0.2,0.3 -0.3,0.6 -0.5,0.9 -1.1,2 -5.4,7.1 -7.1,8.9 l 5.3,-7.8 c 1,-1.8 1.5,-6.8 1.1,-8.1 -0.4,-1 -1.5,-3.5 -1.7,-3.7 -0.1,0.3 -0.2,0.6 -0.3,1 -1,2.6 -3.5,7.2 -6.8,12 2.1,-3.7 5,-10.1 5,-10.1 0.7,-1.9 0.4,-6.7 -0.2,-7.8 -0.6,-0.9 -2,-2.9 -2.1,-3.1 -0.1,0.4 -0.1,0.7 -0.2,1 -0.6,2.8 -2.2,6.9 -5.3,12.5 l 3.7,-10 C 75.4,15.2 74.7,10.8 74,10 73.6,9.1 71.9,6.8 71.8,6.6 c 0,0.4 -0.2,1.6 -0.3,2 -0.4,2.6 -1.6,7.2 -3.9,12.6 -2.3,5.4 -5.4,11.1 -8.4,15.6 -0.8,1 -1.7,2.1 -2.7,3.3 -3.6,4.2 -2.7,3.8 -1.5,7.5 0,1.5 -2.8,6 -5.5,10 -3.9,-1.2 -11.3,-2.9 -13.6,-7.6 -0.1,-0.3 -0.2,-0.5 -0.3,-0.8 0.2,-0.1 0.4,-0.3 0.6,-0.7 0.9,-1.2 1.9,-1.3 1.9,-1.3 h 0.3 c -0.7,-2 -2.2,-1.5 -3.4,-1.7 -0.1,-0.1 -0.3,-0.3 -0.7,-0.4 -2.5,-1.3 -4.8,-1.9 -5.9,0.2 -0.7,1.2 -4.2,-0.2 -4.5,2.8 0,0 1.7,-1.3 3.4,-0.3 1.8,1 2.4,1.3 2.3,1.5 -0.2,0.2 -0.6,0.8 -0.9,1.2 -1.3,1.3 -2.4,0.7 -2.4,0.7 0.5,1.1 1.4,1.2 2.4,1.1 -0.4,2.4 0.8,3 3.5,2.3 0,0 2.4,6.1 1.7,9.6"
     class="st0"
     id="path12"
     sodipodi:nodetypes="cccccccccccccccccccccccccccccccscccccccccccccccccccc" /><path
     d="M58 40.5c.9-1.5 1.9-2.6 3-4.3 3.5-5.7 7-13.1 9.3-19 1.1-2.8 1.6-5.4 2.1-7.4.3.4.5.9.8 1.3s.7 4.6.4 5.6c-1.4 4.3-3.9 11-7 17.1-1.1 2-5.6 5-8.6 6.7M60.8 45c5.4-6.4 14-20.8 16.3-28.1.3.4.4 1.2.7 1.6.2.5.4 4.2.1 5.2-1.8 4.7-5 10.5-8.5 16.1-1.3 1.8-5.8 4-8.6 5.2M69.5 47.7c-2 1.3-5.1 1.8-6.9 2.2 0 0 0-.1-.1-.2C68.9 43.9 77.7 32.1 81 25c.2.5.3 1.2.4 1.7.2.5-.3 4.5-.8 5.4-2.4 4.2-5.9 9.1-9.7 13.9-.4.7-.9 1.2-1.4 1.7M83.2 34.6c.1.5 0 1.3.1 1.8 0 .5-1.1 4.7-1.8 5.7-3.1 3.8-7.2 7.9-11.4 12.1l-.9.6c-1.9.9-4.3.9-5.9.9v-.2c5.6-3 15.5-14.5 19.9-20.9M82.9 45.7s-.3 1.7-.4 2.2c-.1.6-2.1 4.1-2.8 4.8-3.3 2.9-7.9 6.6-11.6 8.7-1 .7-5 1.2-7.1 1v-.2c5.7-2.9 13.5-8.8 21.9-16.5M58.6 67.9v-.2c4.2-1.2 14.4-6.2 18.9-9.1-.1.3-.2.5-.3.8-.2.5-2.2 3-2.8 3.4-2.6 1.7-6.3 3.8-9.3 5.7-.8.4-4.4.1-6.5-.6"
     class="st3"
     id="path13" /></svg>
