<?xml version="1.0" encoding="UTF-8" standalone="no"?>
<svg
   viewBox="0 0 145.3 208.53"
   version="1.1"
   id="svg5"
   sodipodi:docname="fc-tokyo.svg"
   inkscape:version="1.4.2 (f4327f4, 2025-05-13)"
   xmlns:inkscape="http://www.inkscape.org/namespaces/inkscape"
   xmlns:sodipodi="http://sodipodi.sourceforge.net/DTD/sodipodi-0.dtd"
   xmlns="http://www.w3.org/2000/svg"
   xmlns:svg="http://www.w3.org/2000/svg">
  <defs
     id="defs5" />
  <sodipodi:namedview
     id="namedview5"
     pagecolor="#ffffff"
     bordercolor="#000000"
     borderopacity="0.25"
     inkscape:showpageshadow="2"
     inkscape:pageopacity="0.0"
     inkscape:pagecheckerboard="0"
     inkscape:deskcolor="#d1d1d1"
     inkscape:zoom="3.8699468"
     inkscape:cx="72.740018"
     inkscape:cy="102.71459"
     inkscape:window-width="1920"
     inkscape:window-height="1009"
     inkscape:window-x="-8"
     inkscape:window-y="-8"
     inkscape:window-maximized="1"
     inkscape:current-layer="svg5" />
  <path
     d="M0 0v127.5c0 29.76 10.37 46.91 72.65 81.03 62.27-34.12 72.65-51.28 72.65-81.03V0z"
     style="fill:#11216c"
     id="path1" />
  <path
     d="m107.45 125.42 21.71-15.76v-6.94l-26.48 19.24 4.78 3.48v-.02Z"
     style="fill:#e60012"
     id="path2" />
  <path
     d="M81.05 184.3c5.9-3.38 11.08-6.55 15.65-9.55v-57.13l32.44-23.59v-6.94l-37.22 27.05-6.1-4.43 43.32-31.48v-6.94l-48.11 34.96v78.08zM124.26 59.07 70.2 98.35l4.78 3.48 54.17-39.35v-3.4h-4.89ZM64.16 93.97l48.02-34.9h-9.57L59.38 90.49zM90.54 59.07h-9.57L48.56 82.61l-6.04-4.4 26.37-19.16h-9.57l-21.6 15.68-6.04-4.4 15.54-11.31h-9.57l-10.77 7.83-6.04-4.4 4.73-3.43h-9.46v47.15L48.54 82.6l4.76 3.46 37.19-27.02.03.02ZM31.8 161.97v-32.18l-14.14 10.28c1.94 7.56 6.07 14.45 14.14 21.9M48.59 174.75c4.57 3 9.76 6.17 15.65 9.55v-78.08L48.59 117.6v57.14Z"
     style="fill:#e60012"
     id="path3" />
  <path
     d="M113.49 161.97c8.06-7.45 12.21-14.34 14.14-21.9.46-1.82.81-3.67 1.04-5.58l-4.36 3.16-6.04-4.38 10.88-7.91v-6.94L113.5 129.8v32.18-.02Z"
     style="fill:#e60012"
     id="path4" />
</svg>
