<?xml version="1.0" encoding="UTF-8" standalone="no"?>
<svg
   viewBox="0 0 90.22 77.7"
   version="1.1"
   id="svg12"
   sodipodi:docname="kashiwa-reysol.svg"
   inkscape:version="1.4.2 (f4327f4, 2025-05-13)"
   xmlns:inkscape="http://www.inkscape.org/namespaces/inkscape"
   xmlns:sodipodi="http://sodipodi.sourceforge.net/DTD/sodipodi-0.dtd"
   xmlns="http://www.w3.org/2000/svg"
   xmlns:svg="http://www.w3.org/2000/svg">
  <defs
     id="defs12" />
  <sodipodi:namedview
     id="namedview12"
     pagecolor="#ffffff"
     bordercolor="#000000"
     borderopacity="0.25"
     inkscape:showpageshadow="2"
     inkscape:pageopacity="0.0"
     inkscape:pagecheckerboard="0"
     inkscape:deskcolor="#d1d1d1"
     inkscape:zoom="10.386101"
     inkscape:cx="45.108363"
     inkscape:cy="38.849998"
     inkscape:window-width="1920"
     inkscape:window-height="1009"
     inkscape:window-x="-8"
     inkscape:window-y="-8"
     inkscape:window-maximized="1"
     inkscape:current-layer="g12" />
  <g
     transform="translate(-51.65 -65.47)"
     id="g12">
    <path
       d="M139.345 104.321c0 .883-.965.945-1.316.98-.35.037-9.449 1.487-9.449 1.487.553.052 7.375.516 7.829.516 1.713 0 3.292 1.244 4.092 2.477 1.842 2.843 2.12 7.54-.986 10.646-.686.686-1.667 1.073-3.148 1.073h-4.85a38.702 38.702 0 0 1-69.51 0h-4.85c-1.482 0-2.462-.387-3.148-1.073-3.097-3.096-2.828-7.803-.986-10.646.8-1.233 2.379-2.477 4.092-2.477.454 0 7.276-.516 7.828-.516 0 0-9.097-1.445-9.448-1.486s-1.316-.098-1.316-.98c0-.883.965-.945 1.316-.981.35-.036 9.448-1.486 9.448-1.486-.552-.052-7.374-.516-7.828-.516-1.713 0-3.292-1.244-4.092-2.477-1.842-2.844-2.12-7.54.986-10.646.686-.686 1.666-1.073 3.147-1.073h4.851a38.702 38.702 0 0 1 69.51 0h4.85c1.481 0 2.462.387 3.148 1.073 3.096 3.096 2.828 7.802.986 10.646-.8 1.233-2.38 2.477-4.092 2.477-.454 0-7.276.516-7.829.516 0 0 9.098 1.445 9.449 1.486s1.316.098 1.316.98"
       class="cls-1"
       style="fill:#fff;stroke-width:.516033"
       id="path1" />
    <path
       d="m132.827 104.321-20.64 2.58a9 9 0 0 1-.15.733c1.032.088 2.224.382 2.905 1.11a11.2 11.2 0 0 1 1.3 1.883 2.87 2.87 0 0 0 1.626 1.084 4 4 0 0 0 2.275-.237 5.9 5.9 0 0 1-1.063 1.403 3.41 3.41 0 0 1-2.621.867 4.73 4.73 0 0 1-2.296-.975 3.84 3.84 0 0 0-2.127-.707 5.35 5.35 0 0 0-2.038.366 13 13 0 0 1-.65.95c1.945 1.068 2.456 2.518 2.523 3.664a3.246 3.246 0 0 0 3.35 3.163 4.2 4.2 0 0 1-2.828 1.032 4.13 4.13 0 0 1-2.849-1.822 4 4 0 0 0-1.146-1.419 5.6 5.6 0 0 0-2.827-1.032 9 9 0 0 1-.842.516c1.383 1.755 1.29 3.293.893 4.376a3.256 3.256 0 0 0 1.842 4.227 4.18 4.18 0 0 1-3.008-.155 4.13 4.13 0 0 1-1.91-2.792 3.9 3.9 0 0 0-.515-1.755 5.56 5.56 0 0 0-2.22-2.064l-.355.057-2.689 12.431-2.688-12.43-.357-.058a5.5 5.5 0 0 0-2.218 2.064 3.87 3.87 0 0 0-.517 1.755 4.13 4.13 0 0 1-1.904 2.792 4.18 4.18 0 0 1-3.008.155 3.25 3.25 0 0 0 1.837-4.227c-.392-1.083-.516-2.621.898-4.376-.29-.17-.568-.345-.841-.516a5.56 5.56 0 0 0-2.828 1.032 3.94 3.94 0 0 0-1.146 1.42 4.13 4.13 0 0 1-2.853 1.821 4.2 4.2 0 0 1-2.828-1.032 3.25 3.25 0 0 0 3.354-3.163c.067-1.146.578-2.58 2.523-3.664a16 16 0 0 1-.655-.95 5.3 5.3 0 0 0-1.997-.366 3.83 3.83 0 0 0-2.1.691 4.73 4.73 0 0 1-2.286.98 3.41 3.41 0 0 1-2.622-.866 5.8 5.8 0 0 1-1.063-1.404 4 4 0 0 0 2.276.238 2.87 2.87 0 0 0 1.625-1.084 11.2 11.2 0 0 1 1.3-1.883c.677-.728 1.864-1.033 2.906-1.11a12 12 0 0 1-.15-.733l-20.682-2.57 20.672-2.58c.041-.247.093-.516.15-.732-1.032-.088-2.23-.382-2.906-1.11a11.2 11.2 0 0 1-1.3-1.883 2.87 2.87 0 0 0-1.625-1.084 4 4 0 0 0-2.276.237 5.9 5.9 0 0 1 1.063-1.403 3.41 3.41 0 0 1 2.632-.857 4.73 4.73 0 0 1 2.296.975 3.87 3.87 0 0 0 2.09.697 5.3 5.3 0 0 0 2.033-.366c.207-.326.428-.64.655-.95-1.945-1.068-2.456-2.518-2.523-3.664a3.25 3.25 0 0 0-3.354-3.163 4.2 4.2 0 0 1 2.828-1.032 4.13 4.13 0 0 1 2.853 1.821 3.94 3.94 0 0 0 1.146 1.42 5.56 5.56 0 0 0 2.828 1.032c.273-.186.552-.362.841-.516-1.388-1.755-1.29-3.293-.898-4.376a3.25 3.25 0 0 0-1.837-4.227 4.18 4.18 0 0 1 3.008.155 4.13 4.13 0 0 1 1.905 2.792 3.87 3.87 0 0 0 .516 1.754 5.5 5.5 0 0 0 2.219 2.065l.356-.057 2.688-12.431 2.689 12.43.356.058a5.56 5.56 0 0 0 2.219-2.065 3.9 3.9 0 0 0 .516-1.754 4.13 4.13 0 0 1 1.91-2.792 4.18 4.18 0 0 1 3.008-.155 3.256 3.256 0 0 0-1.843 4.227c.398 1.083.516 2.621-.892 4.376.289.17.567.345.84.516a5.6 5.6 0 0 0 2.829-1.032 4 4 0 0 0 1.145-1.42 4.13 4.13 0 0 1 2.849-1.821 4.2 4.2 0 0 1 2.828 1.032 3.246 3.246 0 0 0-3.35 3.163c-.067 1.146-.577 2.58-2.523 3.664.227.31.449.624.65.95a5.35 5.35 0 0 0 2.039.366 3.9 3.9 0 0 0 2.1-.692 4.73 4.73 0 0 1 2.296-.975 3.41 3.41 0 0 1 2.622.867 6 6 0 0 1 1.063 1.404 4 4 0 0 0-2.276-.238 2.87 2.87 0 0 0-1.626 1.084 11.2 11.2 0 0 1-1.3 1.884c-.681.727-1.863 1.032-2.905 1.109q.086.363.15.733z"
       style="stroke-width:.516033"
       id="path2" />
    <ellipse
       cx="96.664"
       cy="104.321"
       class="cls-2"
       rx="14.372"
       ry="14.098"
       style="fill:#ffed00;stroke-width:.516033"
       id="ellipse2" />
    <path
       d="M88.815 87.143a4.22 4.22 0 0 0-.325-3.68c1.455.604 1.692 2.121 1.821 3.164.104.836 1.074 2.275 2.256 2.91a15.5 15.5 0 0 0-2.854 1.1 3.45 3.45 0 0 1-.898-3.494M82.664 91.632a4.23 4.23 0 0 0-1.744-3.256c1.548 0 2.384 1.285 2.915 2.193.423.723 1.868 1.667 3.2 1.79a15.5 15.5 0 0 0-2.193 2.127 3.44 3.44 0 0 1-2.178-2.854M81.797 100.126a4.2 4.2 0 0 1-1.796-.433 4.1 4.1 0 0 1-1.496-1.62 3.9 3.9 0 0 0-1.146-1.348 3.8 3.8 0 0 0-1.584-.67 2.6 2.6 0 0 1 1.104-.238c1.548.16 1.95 1.074 3.447 1.548a4.58 4.58 0 0 0 2.663-.067 12.7 12.7 0 0 0-1.192 2.828M104.76 87.143a4.22 4.22 0 0 1 .326-3.68c-1.456.604-1.693 2.121-1.822 3.164-.103.836-1.073 2.275-2.255 2.91a15.5 15.5 0 0 1 2.854 1.1 3.45 3.45 0 0 0 .897-3.494M110.912 91.632a4.23 4.23 0 0 1 1.744-3.256c-1.574 0-2.384 1.285-2.916 2.193-.423.723-1.868 1.667-3.2 1.79a15.5 15.5 0 0 1 2.194 2.127 3.45 3.45 0 0 0 2.178-2.854M96.788 88.975a16 16 0 0 1 1.821.103l-1.821-8.02-1.822 8.02a16 16 0 0 1 1.822-.103M111.778 100.126a4.2 4.2 0 0 0 1.796-.433 4.1 4.1 0 0 0 1.497-1.62 3.85 3.85 0 0 1 1.145-1.348 3.8 3.8 0 0 1 1.585-.67 2.6 2.6 0 0 0-1.11-.238c-1.548.16-1.945 1.074-3.442 1.548a4.58 4.58 0 0 1-2.663-.067 12.7 12.7 0 0 1 1.192 2.828M88.815 121.5a4.22 4.22 0 0 1-.325 3.68c1.455-.604 1.692-2.121 1.821-3.164.104-.836 1.074-2.276 2.256-2.91a15.5 15.5 0 0 1-2.854-1.1 3.45 3.45 0 0 0-.898 3.494M82.664 117.01a4.23 4.23 0 0 1-1.744 3.257c1.548 0 2.384-1.285 2.915-2.193.423-.723 1.868-1.662 3.2-1.79a15.5 15.5 0 0 1-2.193-2.127 3.44 3.44 0 0 0-2.178 2.854M81.167 104.321a12 12 0 0 0 .109 1.647l-12.973-1.647 12.978-1.646a12 12 0 0 0-.114 1.646M81.797 108.517a4.2 4.2 0 0 0-1.796.433 4.1 4.1 0 0 0-1.496 1.62 3.9 3.9 0 0 1-1.146 1.347 3.8 3.8 0 0 1-1.584.671 2.6 2.6 0 0 0 1.104.238c1.548-.16 1.95-1.074 3.447-1.548a4.58 4.58 0 0 1 2.663.067 12.7 12.7 0 0 1-1.192-2.828M104.76 121.5a4.22 4.22 0 0 0 .326 3.68c-1.456-.604-1.693-2.121-1.822-3.164-.103-.836-1.073-2.276-2.255-2.91a15.5 15.5 0 0 0 2.854-1.1 3.45 3.45 0 0 1 .897 3.494M110.912 117.01a4.23 4.23 0 0 0 1.744 3.257c-1.574 0-2.384-1.285-2.916-2.193-.423-.723-1.868-1.662-3.2-1.79a15.5 15.5 0 0 0 2.194-2.127 3.45 3.45 0 0 1 2.178 2.854M96.788 119.668a16 16 0 0 0 1.821-.103l-1.821 8.02-1.822-8.02a16 16 0 0 0 1.822.103M125.273 104.321l-12.973 1.647a12.6 12.6 0 0 0 0-3.293zM111.778 108.517a4.2 4.2 0 0 1 1.796.433 4.1 4.1 0 0 1 1.497 1.62 3.85 3.85 0 0 0 1.145 1.347 3.8 3.8 0 0 0 1.585.671 2.6 2.6 0 0 1-1.11.238c-1.548-.16-1.945-1.074-3.442-1.548a4.58 4.58 0 0 0-2.663.067 12.7 12.7 0 0 0 1.192-2.828"
       class="cls-3"
       style="fill:#d51130;stroke-width:.516033"
       id="path3" />
    <path
       d="M96.844 95.637c.93-.671 3.54-1.868 4.433-1.796 2.353.19 4.557 2.693 5.032 4.706a4.84 4.84 0 0 1-.217 3.272 6.6 6.6 0 0 1-5.372 3.576 3.38 3.38 0 0 1 2.472 1.945 11 11 0 0 1 .63 1.672c.345 1.233 1.073 1.399 1.645 1.213a2.74 2.74 0 0 0 1.275-1.321l.516.387c-.413 1.992-1.156 3.917-1.884 4.722a2.28 2.28 0 0 1-1.646.866 3.39 3.39 0 0 1-2.363-.949 4.8 4.8 0 0 1-1.254-2.472 30 30 0 0 0-1.084-4.33c-.222-.515-.48-1.346-1.45-1.28v4.795a3.2 3.2 0 0 0 .8-.645l.717.542a57 57 0 0 1-4.912 4.05 1.34 1.34 0 0 1-.934.15c-1.172-.258-1.646-1.342-2.642-1.43a2.49 2.49 0 0 0-2.493 1.213l-.562-.392a6 6 0 0 1 .392-.996 5.02 5.02 0 0 1 2.73-2.838 5.6 5.6 0 0 1 2.791-.253v-4.484h-1.212v-1.889h1.207v-1.986c0-.486-.655-.697-1.14-.738v-.47l.516-.026c1.455-.093 3.597-1.806 4.01-4.814"
       style="stroke-width:.516033"
       id="path4" />
    <path
       d="M95.24 110.622c-.15-.067-.356-.16-.604-.248a1.55 1.55 0 0 0 1.032-1.264v-8.298l.851-.707v10.837a2.86 2.86 0 0 1-1.28-.32M99.425 103.393a4.9 4.9 0 0 1-1.843.165v-4.211a20 20 0 0 1 2.642-1.414c.269-.119.775.377.909.562.413.563 1.367 2.065.454 3.401a3.7 3.7 0 0 1-2.162 1.497"
       class="cls-2"
       style="fill:#ffed00;stroke-width:.516033"
       id="path5" />
    <path
       d="M90.89 102.892a4.5 4.5 0 0 0 1.31-.15v-.738a3.9 3.9 0 0 1-1.192.15c-.78 0-2.291-.702-1.95-2.023a1.26 1.26 0 0 1 1.31-.758 7.6 7.6 0 0 0 1.822.294 2.93 2.93 0 0 0 2.219-.914 4.7 4.7 0 0 0 1.496-2.73 2.8 2.8 0 0 1-2.859.243c-1.109-.413-1.713-1.192-2.972-1.192a3.22 3.22 0 0 0-2.12 1.032 4.38 4.38 0 0 0 .175 5.61 3.93 3.93 0 0 0 2.76 1.176"
       style="stroke-width:.516033"
       id="path6" />
    <path
       d="M96.762 78.236c12.643 0 21.756 7.86 25.095 18.974a3.9 3.9 0 0 0 1.295 2.065c.609.433.696.562 1.821.516s7.147-.65 8.923-.826a3.96 3.96 0 0 1-1.647-2.379 36.246 36.246 0 0 0-70.975 0 3.96 3.96 0 0 1-1.666 2.4c1.775.175 7.797.779 8.922.825 1.125.047 1.212-.087 1.821-.516a3.9 3.9 0 0 0 1.296-2.064c3.359-11.136 12.472-18.995 25.115-18.995M60.712 94.795l.062-.237h-4.221c.278-1.3-.078-3.576-.444-4.593-.083-.232-.227-.185-.372-.046-2.183 2.183-1.935 5.61-.66 7.58.48.744 1.367 1.368 2.064 1.368a3.07 3.07 0 0 0 1.925-.692c1.228-1.078 1.476-2.75 1.646-3.38"
       style="stroke-width:.516033"
       id="path7" />
    <path
       d="M57.156 89.563c.346.826.697 2.885.516 3.793h3.463a38 38 0 0 1 1.373-3.793zM132.838 94.795c0-.082-.047-.16-.067-.237h4.241c-.283-1.3.078-3.576.444-4.593.083-.232.227-.185.367-.046 2.182 2.183 1.94 5.61.66 7.58-.48.744-1.362 1.368-2.033 1.368a3.1 3.1 0 0 1-1.93-.692c-1.264-1.078-1.517-2.75-1.682-3.38"
       style="stroke-width:.516033"
       id="path8" />
    <path
       d="M136.388 89.563a9 9 0 0 0-.516 3.793h-3.463a39 39 0 0 0-1.377-3.793zM96.762 130.35c12.643 0 21.756-7.86 25.095-18.974a3.9 3.9 0 0 1 1.295-2.065c.609-.433.696-.562 1.821-.516s7.147.65 8.923.826a3.96 3.96 0 0 0-1.647 2.379 36.246 36.246 0 0 1-70.975 0 3.96 3.96 0 0 0-1.666-2.4c1.775-.175 7.797-.779 8.922-.825 1.125-.047 1.212.087 1.821.516a3.9 3.9 0 0 1 1.296 2.064c3.359 11.136 12.472 18.995 25.115 18.995M60.712 113.79l.062.238h-4.221c.278 1.3-.078 3.576-.444 4.593-.083.232-.227.185-.372.046-2.183-2.183-1.935-5.614-.66-7.586.48-.738 1.367-1.362 2.064-1.362a3.04 3.04 0 0 1 1.925.692c1.228 1.057 1.476 2.75 1.646 3.38"
       style="stroke-width:.516033"
       id="path9" />
    <path
       d="M57.156 119.023c.346-.825.697-2.884.516-3.793h3.463a38 38 0 0 0 1.373 3.793zM132.838 113.79c0 .083-.047.16-.067.238h4.241c-.283 1.3.078 3.576.444 4.593.083.232.227.185.367.046 2.182-2.183 1.94-5.614.66-7.586-.48-.738-1.362-1.362-2.033-1.362a3.04 3.04 0 0 0-1.93.692c-1.264 1.057-1.517 2.75-1.682 3.38"
       style="stroke-width:.516033"
       id="path10" />
    <path
       d="M136.388 119.023a9 9 0 0 1-.516-3.793h-3.463a39 39 0 0 1-1.377 3.793z"
       style="stroke-width:.516033"
       id="path11" />
  </g>
</svg>
