<?xml version="1.0" encoding="UTF-8" standalone="no"?>
<svg
   style="fill-rule:evenodd"
   viewBox="1 1 179.81 187.5"
   version="1.1"
   id="svg8"
   sodipodi:docname="kashima-antlers.svg"
   inkscape:version="1.4.2 (f4327f4, 2025-05-13)"
   xmlns:inkscape="http://www.inkscape.org/namespaces/inkscape"
   xmlns:sodipodi="http://sodipodi.sourceforge.net/DTD/sodipodi-0.dtd"
   xmlns="http://www.w3.org/2000/svg"
   xmlns:svg="http://www.w3.org/2000/svg">
  <defs
     id="defs8" />
  <sodipodi:namedview
     id="namedview8"
     pagecolor="#ffffff"
     bordercolor="#000000"
     borderopacity="0.25"
     inkscape:showpageshadow="2"
     inkscape:pageopacity="0.0"
     inkscape:pagecheckerboard="0"
     inkscape:deskcolor="#d1d1d1"
     inkscape:zoom="4.304"
     inkscape:cx="89.800186"
     inkscape:cy="93.75"
     inkscape:window-width="1920"
     inkscape:window-height="1009"
     inkscape:window-x="-8"
     inkscape:window-y="-8"
     inkscape:window-maximized="1"
     inkscape:current-layer="svg8" />
  <path
     d="M489.832 537.159c59.268-72.519 81.558-157.9 81.558-245.267v-83.359C420.186 151.607 367.251 113.378 300 113.378c-67.224 0-120.142 38.229-271.39 95.155v83.359c0 130.404 49.645 256.337 197.771 341.664 22.849 13.163 58.833 29.36 73.619 41.334 14.786-11.974 50.789-28.171 73.646-41.334 45.032-25.935 80.963-55.631 109.152-88.059z"
     style="fill:#fff;stroke:none"
     transform="translate(-8.478 -35.072)scale(.33127)"
     id="path1" />
  <path
     d="M300 113.378c-67.224 0-120.142 38.229-271.39 95.155v83.359c0 130.404 49.645 256.337 197.771 341.664 22.849 13.163 58.833 29.36 73.619 41.334 14.786-11.974 50.789-28.171 73.646-41.334 45.032-25.935 80.963-55.631 109.152-88.059h-3.797c-28.081 32.02-63.755 61.415-108.335 87.119-21.438 12.347-54.461 27.372-70.666 39.045-16.205-11.673-49.192-26.698-70.665-39.045-148.082-85.345-197.744-211.278-197.744-341.7v-80.981C181.632 153.469 233.494 115.4 300 115.95c66.488.586 118.368 37.519 268.409 93.985v80.981c0 86.605-21.882 171.24-79.979 243.317l1.402 2.926c59.268-72.519 81.558-157.9 81.558-245.267v-83.359C420.186 151.607 367.251 113.378 300 113.378"
     style="fill:#1f211d;stroke:none"
     transform="translate(-8.478 -35.072)scale(.33127)"
     id="path2" />
  <path
     d="M300 663.323c-12.675-11.016-30.193-18.75-53.565-30.955C92.695 551.954 39.148 420.45 39.148 297.16v-83.039C126.906 187.724 225.254 123.56 300 123.56z"
     style="fill:#beb1aa;fill-opacity:1;stroke:none;stroke-opacity:1"
     transform="translate(-8.478 -35.072)scale(.33127)"
     id="path3" />
  <path
     d="M300 663.323c12.684-11.016 30.21-18.75 53.591-30.955C507.305 551.954 560.896 420.45 560.896 297.16v-83.039C473.103 187.724 374.772 123.56 300 123.56z"
     style="fill:#b7183f;fill-opacity:1;stroke:none;stroke-opacity:1"
     transform="translate(-8.478 -35.072)scale(.33127)"
     id="path4" />
  <path
     d="m 341.608,381.618 -18.857,-40.872 c 5.925,-10.164 19.789,-28.17 30.867,-38.317 11.078,-10.183 26.299,-30.725 26.299,-65.14 0,-17.083 -8.276,-45.272 -26.752,-61.432 37.875,14.777 54.949,59.8 48.5,96.078 40.633,-20.791 99.768,-33.723 99.768,-97.923 0,-25.421 -15.717,-48.962 -37.9,-65.122 83.145,29.075 69.308,117.312 20.329,151.957 28.65,4.613 53.592,17.562 65.593,45.733 -21.705,-17.562 -38.327,-27.266 -69.265,-27.266 -66.062,0 -118.27,46.194 -138.582,102.304 m -53.445,133.721 c 0,0 -0.435,-6.208 -0.674,-11.299 -0.231,-5.109 -1.392,-9.012 -2.759,-12.241 l -16.825,-41.582 v -18.449 l -9.039,-8.799 v -20.79 l 25.864,-56.341 h 30.54 l 25.864,56.341 v 20.79 l -9.03,8.799 v 18.449 l -16.834,41.582 c -1.367,3.229 -2.529,7.132 -2.768,12.241 -0.213,5.091 -0.692,11.299 -0.692,11.299 z m -29.771,-133.721 18.875,-40.872 c -5.935,-10.164 -19.798,-28.17 -30.876,-38.317 -11.087,-10.183 -26.308,-30.725 -26.308,-65.14 0,-17.083 8.302,-45.272 26.778,-61.432 -37.892,14.777 -54.966,59.8 -48.5,96.078 -40.677,-20.791 -99.785,-33.723 -99.785,-97.923 0,-25.421 15.735,-48.962 37.874,-65.122 -83.128,29.075 -69.265,117.312 -20.312,151.957 -28.64,4.613 -53.583,17.562 -65.593,45.733 21.687,-17.562 38.345,-27.266 69.265,-27.266 66.089,0 118.261,46.194 138.582,102.304"
     style="fill:#1f211d;stroke:none"
     transform="matrix(0.33127,0,0,0.33127,-8.478,-35.072)"
     id="path5"
     sodipodi:nodetypes="cccsccscccscccccccccccccccccccccsccscccsc" />
</svg>
