<?xml version="1.0" encoding="UTF-8" standalone="no"?>
<svg
   viewBox="0 0 81.15 86.25"
   version="1.1"
   id="svg27"
   sodipodi:docname="kawasaki-frontale.svg"
   inkscape:version="1.4.2 (f4327f4, 2025-05-13)"
   xmlns:inkscape="http://www.inkscape.org/namespaces/inkscape"
   xmlns:sodipodi="http://sodipodi.sourceforge.net/DTD/sodipodi-0.dtd"
   xmlns="http://www.w3.org/2000/svg"
   xmlns:svg="http://www.w3.org/2000/svg">
  <defs
     id="defs27" />
  <sodipodi:namedview
     id="namedview27"
     pagecolor="#ffffff"
     bordercolor="#000000"
     borderopacity="0.25"
     inkscape:showpageshadow="2"
     inkscape:pageopacity="0.0"
     inkscape:pagecheckerboard="0"
     inkscape:deskcolor="#d1d1d1"
     inkscape:zoom="9.3565217"
     inkscape:cx="40.559944"
     inkscape:cy="43.125"
     inkscape:window-width="1920"
     inkscape:window-height="1009"
     inkscape:window-x="-8"
     inkscape:window-y="-8"
     inkscape:window-maximized="1"
     inkscape:current-layer="svg27" />
  <path
     d="m108.727 84.495 1.398-2.774-3.007.773a7.2 7.2 0 0 1-1.815.258 19.7 19.7 0 0 0 1.712-6.91l.067-2.95-2.336 1.805a27 27 0 0 1-5.889 3.326v-.433l-.3-.382-.515-.624-.289-.35v-6.58l-.603-.423-6.22-4.322-.969-.675-.83.82-1.155 1.15c-3.017 3.022-10.525 1.877-16.544-.202l-1.444-.515-.464-.16-.464.16-1.444.515c-6.018 2.063-13.526 3.224-16.543.202l-1.135-1.15-.83-.836-.97.676-6.229 4.337-.603.423v6.595l-.29.35c-.087.11-.231.29-.515.625l-.304.382v.433a27 27 0 0 1-5.848-3.342l-2.336-1.805.067 2.95a19.7 19.7 0 0 0 1.712 6.91 7.2 7.2 0 0 1-1.815-.258l-3.007-.773 1.398 2.774c.088.17 2.063 3.93 7.89 6.627a14.2 14.2 0 0 0-2.181 3.718l-.196-.14-1.93-1.371-.272 2.362-.372 3.27c0 .242-.046.479-.062.716l-.603-.14-.082 1.687-.12 2.331v.243a9 9 0 0 0 .083 1.14v3.686l-1.97-.443.676 2.295.933 3.182a16 16 0 0 0 .774 1.98h-1.083l.65 1.851.897 2.579a10.5 10.5 0 0 0 1.305 2.49l-.408.037.686 1.763.98 2.44a11.5 11.5 0 0 0 4.383 5.218l-.665.413-1.408.876 1.099 1.248 1.547 1.733a10.7 10.7 0 0 0 6.095 3.265l-.03.046-1.434 2.217-1.032 1.6 1.81.54 2.538.722a14.64 14.64 0 0 0 7.312.067 15.4 15.4 0 0 0-.175 2.31l-.031 1.775v1.217l1.202.196c4.037.66 6.188-.253 7.023-.733a10.14 10.14 0 0 0 5.338-5.636 10.14 10.14 0 0 0 5.368 5.61c.82.48 2.996 1.393 7.024.733l1.201-.196v-1.217l-.036-1.795a16 16 0 0 0-.165-2.29 14.6 14.6 0 0 0 7.308-.066l2.506-.696 1.836-.516-1.032-1.599-1.433-2.217-.031-.047a10.7 10.7 0 0 0 6.095-3.264l1.522-1.733 1.098-1.248-1.408-.876-.665-.413a11.5 11.5 0 0 0 4.383-5.219l.98-2.465.701-1.763-.407-.037a10.4 10.4 0 0 0 1.305-2.485l.897-2.579.65-1.851h-1.083a15 15 0 0 0 .773-1.985l.934-3.177.675-2.295-1.97.444v-3.688a9 9 0 0 0 .083-1.14 3 3 0 0 0 0-.267l-.114-2.306-.082-1.686-.603.14c0-.238-.037-.475-.062-.717l-.372-3.27-.294-2.367-1.939 1.372-.196.139a14.2 14.2 0 0 0-2.18-3.718c5.863-2.697 7.812-6.472 7.925-6.627"
     class="cls-1"
     style="fill:#fff;stroke-width:.515691"
     transform="translate(-28.97 -64.218)"
     id="path1" />
  <path
     d="M69.076 139.68c-.274 2.918-1.274 5.25-3.038 6.879a9.6 9.6 0 0 1-6.817 2.346l-1.79-.16v-1.79a13.5 13.5 0 0 1 .758-4.548h-.046c-3.156 1.62-6.807 1.393-8.9.815l-2.543-.717 1.418-2.212a18.4 18.4 0 0 1 1.599-2.11 9.43 9.43 0 0 1-7.767-2.913l-1.521-1.727 1.95-1.192a5.6 5.6 0 0 1 .969-.562 9.68 9.68 0 0 1-6.065-5.574l-.995-2.47s.686-.037 1.34-.104a9.9 9.9 0 0 1-2.903-4.125l-.897-2.532s.722-.047 1.46-.047a17.8 17.8 0 0 1-1.81-3.738l-.898-3.182 1.687.387a9 9 0 0 1-.372-2.26v-2.505a2 2 0 0 0 .191.067 7 7 0 0 1-.253-1.96v-.16l.098-2.336.753.144a7 7 0 0 1-.062-1.083 9 9 0 0 1 .062-1.227l.377-3.27s1.031.712 1.83 1.259c.243-1.62 1.032-3.558 2.95-5.714h-.057l.872-.8c-6.91-2.516-9.025-6.734-9.025-6.734 2.966.768 4.244-.155 4.244-.155a18.3 18.3 0 0 1-2.392-7.875 29.4 29.4 0 0 0 8.204 4.214v-1.96l.454-.598.578-.702v-6.363l6.224-4.363 1.13 1.212c4.398 4.347 14.882 1.186 17.997.119l.805-.3.665-.216 1.444.516c3.135 1.067 13.588 4.228 17.977-.12l1.165-1.211 6.225 4.363v6.363c.185.248.402.47.593.712l.433.567v1.98a29.5 29.5 0 0 0 8.153-4.223 18.4 18.4 0 0 1-2.377 7.875s1.289.923 4.234.154c0 0-2.11 4.219-9.03 6.735l.861.825c1.877 2.156 2.687 4.095 2.903 5.714.815-.546 1.852-1.258 1.852-1.258l.392 3.27c.025.407.077.83.077 1.227s-.052.727-.077 1.083l.753-.145.098 2.337v.16a7 7 0 0 1-.253 1.96 2 2 0 0 0 .19-.068v2.506a9 9 0 0 1-.37 2.26l1.696-.388-.944 3.182a15.5 15.5 0 0 1-1.748 3.739c.722 0 1.45.046 1.45.046l-.898 2.532a10.16 10.16 0 0 1-2.919 4.126c.691.067 1.346.103 1.346.103l-.975 2.47a9.89 9.89 0 0 1-6.085 5.575 7.9 7.9 0 0 1 2.677 2.109 13.5 13.5 0 0 1-3.662 3.197 9.64 9.64 0 0 1-5.373 1.088 20 20 0 0 1 1.547 2.11l1.47 2.217-2.579.712a13.13 13.13 0 0 1-8.906-.83 13.5 13.5 0 0 1 .789 4.548v1.79l-1.79.16a9.6 9.6 0 0 1-6.843-2.347c-1.763-1.63-2.764-3.96-3.032-6.88a2 2 0 0 1-.459-.056 2.5 2.5 0 0 1-.47.056"
     style="stroke-width:.515691"
     transform="translate(-28.97 -64.218)"
     id="path2" />
  <path
     d="M69.535 70.804c.299 0 3.094 0 6.766.381a46 46 0 0 1-6.106-1.645l-.66-.232-.707.237A45.6 45.6 0 0 1 62.8 71.18c3.666-.371 6.43-.376 6.735-.376M86.49 73.083a12.6 12.6 0 0 0 3.74-1.547l.221-.134 1.032.722.68.448v2.945a14 14 0 0 1 1.826 1.305v-5.224l-3.64-2.537c-2.543 2.336-6.298 2.882-10 2.65a48 48 0 0 1 6.142 1.372M46.844 75.48v-2.933l.64-.423 1.083-.753.211.134a12.5 12.5 0 0 0 3.75 1.578 48 48 0 0 1 6.033-1.356c-3.662.216-7.37-.34-9.88-2.666l-3.657 2.537v5.182a14 14 0 0 1 1.82-1.3M92.179 91.06v1.269c0 2.903-.557 28.512-19.921 32.787a28 28 0 0 1-2.677.439h-.088a26 26 0 0 1-2.712-.439c-8.37-1.851-14.264-7.812-17.477-17.724a52.8 52.8 0 0 1-2.46-14.883V91.06c-.582-.144-1.191-.294-1.82-.47v1.883a53.8 53.8 0 0 0 2.49 15.383c3.456 10.623 9.799 17.018 18.885 19.04a21.6 21.6 0 0 0 3.136.515 21 21 0 0 0 3.135-.516c9.06-2.021 15.43-8.416 18.859-19.039a53.8 53.8 0 0 0 2.475-15.373v-1.897c-.629.175-1.263.33-1.825.474"
     class="cls-1"
     style="fill:#fff;stroke-width:.515691"
     transform="translate(-28.97 -64.218)"
     id="path3" />
  <path
     d="M89.41 105.943h-2.156v5.672a38 38 0 0 0 2.156-5.672M77.353 122.46a20.4 20.4 0 0 0 4.156-2.913v-13.604h-4.156zM71.597 105.943h-4.161v18.524c.675.134 1.377.237 2.094.32a30 30 0 0 0 2.062-.315zM51.81 105.943h-2.15q.178.602.371 1.212a38 38 0 0 0 1.78 4.497zM57.535 119.573a20 20 0 0 0 4.166 2.908v-16.538h-4.166zM51.264 73.495a13.2 13.2 0 0 1-2.646-1.222c-.252.165-.696.475-.696.475l-.289.2v2.09a24 24 0 0 1 3.63-1.543M91.41 75.053v-2.094c-.144-.103-.33-.222-.33-.222s-.423-.294-.665-.453a13 13 0 0 1-2.64 1.211 25 25 0 0 1 3.635 1.558M88.904 91.756a2.4 2.4 0 0 1-.67.108V84.28l.067-.13a11.5 11.5 0 0 1 1.17-1.882c-7.828-3.372-19.462-3.383-19.936-3.383s-12.109 0-19.942 3.383a11 11 0 0 1 1.16 1.867l.062.13V91.9c-.299-.052-.454-.114-.686-.145-.686-.129-1.547-.299-2.485-.516v1.274c0 .093 0 .903.087 2.197h43.612a42 42 0 0 0 .078-2.377v-1.099c-.965.217-1.826.392-2.517.521"
     class="cls-2"
     style="fill:#3ea3dc;stroke-width:.515691"
     transform="translate(-28.97 -64.218)"
     id="path4" />
  <path
     d="M94.917 78.658v6.461c-6.075-6.941-24.578-6.962-25.382-6.962s-19.313 0-25.393 6.962v-6.461c5.673-7.127 25.197-7.117 25.393-7.117s19.7-.01 25.382 7.117"
     class="cls-2"
     style="fill:#3ea3dc;stroke-width:.515691"
     transform="translate(-28.97 -64.218)"
     id="path5" />
  <path
     d="m100.652 84.5-.062-.098.072-.098a37 37 0 0 0 3.094-5.636c-1.83 1.748-5.214 3.094-8.39 4.1v3.243s-.516.124-.547.124a10.65 10.65 0 0 0-5.673 4.863c3.729-.743 11.346-2.578 14.44-5.673-1.047.207-2.243.16-2.934-.825M35.417 85.33c3.094 3.064 10.71 4.91 14.439 5.673a10.52 10.52 0 0 0-5.673-4.858l-.567-.123-.03-3.25c-3.152-.974-6.514-2.346-8.35-4.125a37.7 37.7 0 0 0 3.094 5.642l.072.098-.072.098c-.531.82-1.552 1.098-2.913.846"
     class="cls-2"
     style="fill:#3ea3dc;stroke-width:.515691"
     transform="translate(-28.97 -64.218)"
     id="path6" />
  <path
     d="M85.16 88.26c-.242-.098-.546-.32 0-.516a1.43 1.43 0 0 0 1.202-.753 2.6 2.6 0 0 0 .103-.83c-.077-.108.201-.614.16-.913s-.557-.516-.84-.67c-.284-.155-.253-.516-.398-.655a1.77 1.77 0 0 0-1.078-.35c-.464-.058-.438.582-.567.84s-.098.062-.423.546a2 2 0 0 0-.139.444c-.268.268-.407-.325-.449-.64a4 4 0 0 1 .042-.376c.03-.19.216-1.511-.965-1.913-1.18-.403-1.186.634-1.207.866-.02.232-.278.175-.654.31-.377.134-.377.623-.243.83s-.428.856-.237 1.361c.057.186.119.284.227.32.268.387.046.371-.124.31a.237.237 0 0 0-.392.035c-.345.485-.371-.381-.371-.381s-.077-.753-.67-.124a4 4 0 0 0 .072-.67c-.036-.104.273-.624.196-.918s-.516-.516-.79-.702c-.273-.185-.242-.515-.396-.675a1.9 1.9 0 0 0-1.032-.382c-.428-.077-.428.552-.598.83-.17.279-.108 0-.438.516a.75.75 0 0 0-.155.397c-.273.289-.407-.314-.444-.665 0-.15.042-.263.042-.346.067-.206.304-1.505-.887-1.964s-1.176.588-1.202.799-.31.186-.69.289a.62.62 0 0 0-.28.846c.12.21-.464.825-.298 1.335a1.8 1.8 0 0 0 .216.35c.258.377.036.346-.124.28a.227.227 0 0 0-.386.035c-.372.465-.372-.417-.372-.417s-.036-.609-.484-.3a2.5 2.5 0 0 0-.764-.799c-.34-.258-.655.34-.887.475s-.093 0-.629.294a1 1 0 0 0-.35.31c-.361.102-.186-.46-.078-.805.077-.114.16-.207.212-.29.134-.144.912-1.221.082-2.155s-1.294 0-1.46.201c-.164.201-.335 0-.716-.077-.382-.077-.624.397-.624.614s-.79.515-.861 1.072a.66.66 0 0 0 0 .428c.087.464-.114.315-.238.176-.036-.14-.144-.243-.35-.14-.516.238-.165-.557-.165-.557s.485-1.088-1.424 0a2.03 2.03 0 0 0-.675 1.032 1.6 1.6 0 0 0-1-.619c-.423-.072-.444.15-.728.15-.2 0-.577-.207-.68-.124 0 0-.207.124-.418.268-.212.144-.34.098-.361 0a.52.52 0 0 0 .134-.418c-.041-.32-.35-.515-.397-.608s0-.769-.279-.738c-.278.031-.577.63-.758.63-.18 0-.892-.238-1.031-.109-.14.129-.609.588-.407.913.2.325.04.464-.037.557s-.335.32-.211.629a2.3 2.3 0 0 0 .289.402c.366.98-.35.82-.727.717-.33-.278-.516-.278-.712-.124s-.237.232-.866.516c-.63.284-.32.645-.222 1.145s-.557.335-.196.85c.361.516 1.836.836 2.027.836a.65.65 0 0 0 .33-.165c.263-.108.619-.19.371.361a1.23 1.23 0 0 0-.34 1.34 2.2 2.2 0 0 0 .515.671c.083.067.248.604.48.779s.748 0 1.078-.072.515.19.742.2a1.77 1.77 0 0 0 1.032-.479c.35-.263-.103-.727-.191-1.031s.088-.088-.047-.68a.94.94 0 0 0-.185-.408c0-.371.516-.062.773.129a1.5 1.5 0 0 0 .212.32c.113.17.892 1.242 2.063.752.959-.453.562-1.072.33-1.356.237.119.69.273.892.036a.37.37 0 0 1 .515-.134c.067 0 .408.237.635 0a1.7 1.7 0 0 0 .356-.387c.783-.655.892.103.892.48-.201.376-.134.608.077.717s.32.165.774.665c.453.5.732.129 1.16-.165s.428.49.84-.026c.413-.516.238-2.026.17-2.212-.035-.067-.16-.145-.247-.243-.18-.2-.356-.515.227-.484a1.37 1.37 0 0 0 1.429-.052 1.1 1.1 0 0 0 .216-.253.8.8 0 0 1 .3.14c.118.139.242.552.37.582a3 3 0 0 0 .516.098c.325.093.325.196.263.279a.63.63 0 0 0-.387.186 1.24 1.24 0 0 0-.185.732c0 .108-.552.516-.32.686s.835 0 .954.16.464.752.665.778.84.031.96-.34c.118-.371.293-.335.376-.382.082-.046.485.047.614-.268a1.4 1.4 0 0 0 .113-.516c.423-.928.82-.324 1.031.037 0 .433.186.598.403.598a2.3 2.3 0 0 1 .995.252c.645.212.701-.226.97-.685.268-.46.639.2.742-.428a1.5 1.5 0 0 0-.108-.769c.144.093.258.078.402.191s.32.516.428.562a3 3 0 0 0 .516.067c.299.067.299.175.211.273-.175.067-.304.098-.36.212-.181.268-.104.608-.145.722s-.547.562-.294.706c.253.145.815-.03.964.098.15.13.516.758.696.784s.862-.026.944-.392c.083-.366.273-.376.382-.376s.448 0 .557-.325a1.2 1.2 0 0 0 .087-.516c.372-.949.862-.371 1.006-.03.072.469.232.592.449.592a2.4 2.4 0 0 1 1.031.196c.655.232.68-.247.897-.701s.66.18.769-.454-.784-1.923-.908-2.063a.9.9 0 0 0-.387-.072m-23.098-1.274a.9.9 0 0 0-.438 0c-.268.13-.36.428-.449.516a1.03 1.03 0 0 0-.433-.552.63.63 0 0 0-.381-.113c-.475-.078-.29-.201-.155-.284.175 0 .278-.062.268-.278-.088-.598.562 0 .562 0s.366.335.516 0a.2.2 0 0 0 .03.051s.16.15.382.32.202.289.114.325m15.125.459c-.082-.031-.2-.047-.345-.083-.227-.123-.547-.33 0-.551a1.44 1.44 0 0 0 .86-.274c-.046.078-.097.155-.149.248a2.3 2.3 0 0 0-.165.933 1.7 1.7 0 0 0-.252-.216z"
     class="cls-1"
     style="fill:#fff;stroke-width:.515691"
     transform="translate(-28.97 -64.218)"
     id="path7" />
  <path
     d="M54.064 87.646c-.114-.113.108-.19.232-.222.124-.03.088-.211.17-.129.083.083.062.042-.046.098-.109.057.046.088-.041.222a.217.217 0 0 1-.315.031M82.623 88.801a.3.3 0 0 1 .046-.118s-.758-1.455-.758-2.006c0-.552.186-.104.186-.104l.268.836a3.1 3.1 0 0 0 .475 1.207c.16-.067.211.036.211.036.31.515.227.711.16.742s-.34 0-.35 0c-.011 0-.223-.557-.238-.593"
     class="cls-2"
     style="fill:#3ea3dc;stroke-width:.515691"
     transform="translate(-28.97 -64.218)"
     id="path8" />
  <path
     d="m82.896 88.1.036-.072a5.8 5.8 0 0 1-.959-1.351c-.082-.351.124-.104.124-.104s0 .047.34.599a2.7 2.7 0 0 0 .562.789.14.14 0 0 1 .186-.031c.32.345.294.474.242.515s-.242 0-.263 0c-.02 0-.221-.294-.268-.345M81.767 88.714a.13.13 0 0 0-.062-.098 7 7 0 0 0 .098-1.604c-.098-.361-.165-.047-.165-.047a5 5 0 0 0 0 .681 1.8 1.8 0 0 1-.077.954c-.134 0-.134.083-.134.083-.104.453 0 .546.072.608s.216-.124.222-.155a2 2 0 0 0 .046-.422M82.716 87.172a1.51 1.51 0 0 0 2.063-.846c.69-1.5-.408 1.51-2.063.846M81.458 86.65s-.82-.391-.47-1.835a2.35 2.35 0 0 0 .47 1.836M81.19 87.744s-2.002 1.965-2.997.31c0-.026 1.063 1.34 2.996-.31M84.82 90.323a3.5 3.5 0 0 1-1.48-1.47 7.6 7.6 0 0 0 1.48 1.47M81.566 89.544s-.124 1.485-1.48 1.758a2.58 2.58 0 0 0 1.48-1.758"
     class="cls-2"
     style="fill:#3ea3dc;stroke-width:.515691"
     transform="translate(-28.97 -64.218)"
     id="path9" />
  <path
     d="M85.006 86.914c0 .175-.181.098-.294 0-.114-.098-.233.072-.233 0s0-.088.14-.088c.139 0 0-.077.129-.098.129-.02.258.072.258.186M84.789 89.853c-.046.186-.232.078-.325.041-.093-.036-.206.037-.206-.04 0-.078 0-.042.108-.042s0-.083.15-.103.273.046.273.144M81.576 85.681c0 .186-.186.072-.289.031s-.2.041-.2-.03c0-.073 0-.052.102-.052.104 0 0-.098.15-.119a.186.186 0 0 1 .237.17M83.505 87.481c0 .072-.078.165-.13.14-.05-.026-.154.097-.185 0-.03-.099 0-.094.067-.099s-.036-.087.047-.113.2.026.2.072M84.15 89.049a.144.144 0 0 1-.14.139c-.03 0-.154.057-.18 0s-.031-.067.026-.113c.056-.047 0-.057.087-.073.088-.015.206.016.206.047M83.19 87.1c0 .103-.211.128-.16.077.052-.052-.092-.078-.051-.134s.051-.031.077-.103c.026-.073.036-.14.13-.088.092.051.071.124.035.19zM84.49 86.661c-.103.14-.103 0-.217 0-.113 0-.247 0-.144-.03.103-.032.237-.274.34-.14s.057.16.02.17M80.88 90.76c-.119.125-.119-.05-.227-.03s-.237 0-.14-.047c.099-.046.223-.237.305-.118.083.118.119.144.062.196M80.638 88.652c-.16.15-.104-.036-.202-.036s-.304 0-.185-.047c.118-.046.216-.263.335-.129s.088.176.052.212M81.2 88.229c-.109.134-.109-.047-.212-.047s-.278.047-.16 0c.119-.046.207-.283.32-.144.114.14.088.144.052.19M84.619 86.135c0 .083 0 0-.062.072s-.13.14-.103.052c.026-.088.072-.13.113-.13s.057-.03.052.006M79.689 88.306c0 .098 0 0-.057.067s-.15.13-.124.067c.026-.062.103-.154.134-.154s.072-.026.047.02M83.912 87.491c-.03.098 0 0-.082.062-.083.062-.114.165-.103.067a.18.18 0 0 1 .129-.139s.072-.046.056.01M81.803 89.956c-.036.088 0-.025-.067.083s-.16.093-.098.041a.36.36 0 0 1 .098-.15c.057 0 .067-.01.067.026M83.727 89.73c-.037.097 0 0-.073.082-.072.082-.118.108-.098 0a.18.18 0 0 1 .098-.124c.062.02.073-.02.073.041M83.881 86.775c.15.077 0 .19-.144.237s-.114.19-.108.077c.005-.113 0-.046.061-.124.062-.077.047-.252.191-.19M81.458 90.55c.118.04-.037.16-.12.21-.082.052-.149.186-.138.068.01-.119.036 0 .072-.119.036-.118.067-.242.186-.16M81.086 87.491c.124.062-.072.17-.15.232-.077.062-.154.202-.113.088.041-.113 0-.046.062-.15.062-.103.052-.226.201-.17M80.534 87.744c.14.088-.056.201-.154.237s-.145.212-.13.083c.016-.13.058-.047.078-.119s.036-.283.206-.201M80.761 85.975c.14.062 0 .16-.123.227-.124.067-.17.206-.16.088.01-.119.056-.072.087-.16s.073-.227.196-.155M81.705 86.001c.129.072-.052.201-.14.206-.087.005-.144.207-.123.088s0-.036.072-.108.031-.263.191-.186M84.15 87.409c.04-.124.108-.124.108-.206 0-.083-.067-.18.108-.104.175.078.201.29.16.305h-.232c-.041.03-.18.077-.145.005M80.761 90.235a.4.4 0 0 0 .078-.222c0-.082 0-.18.15-.088.149.093.21.274.138.31a.5.5 0 0 0-.226 0c-.073.02-.191.088-.14 0M81.004 86.965c.082-.139.087-.165.087-.232s-.056-.165.109-.082c.165.082.242.289.165.314a.7.7 0 0 0-.238 0c-.04.01-.16.078-.123 0M56.364 86.965a.6.6 0 0 1 .057.124s1.578.516 1.934.897c.355.382-.068.196-.068.196a3.8 3.8 0 0 1-.763-.438 2.8 2.8 0 0 0-1.16-.516c-.088.201-.206.15-.206.15-.568-.175-.583-.377-.624-.438-.042-.062.294-.18.31-.238a3 3 0 0 1 .52.263"
     class="cls-2"
     style="fill:#3ea3dc;stroke-width:.515691"
     transform="translate(-28.97 -64.218)"
     id="path10" />
  <path
     d="M56.642 87.651a1 1 0 0 1 .057.072 6.7 6.7 0 0 1 1.588.305c.34.221 0 .154 0 .154s-.036.047-.629-.154a2.2 2.2 0 0 0-.98-.191c0 .15-.097.124-.097.124-.46 0-.516-.124-.563-.196s.15-.212.191-.212.392.093.433.098M57.08 86.445h.104a6.2 6.2 0 0 0 1.005 1.299c.346.165.15-.103.15-.103a2.5 2.5 0 0 0-.454-.449c-.562-.515-.629-.763-.629-.763a.24.24 0 0 0 .067-.201c-.242-.392-.423-.366-.443-.366s-.098.258-.098.263a4 4 0 0 0 .299.32M57.452 88.229a1.496 1.496 0 0 0-.97 2.006c.537 1.588-.727-1.367.97-2.006M58.705 87.744s.851-.289 1.583 1.031a2.37 2.37 0 0 0-1.583-1.031M58.19 86.754s.072-2.8 1.949-2.29c.015 0-1.702-.278-1.95 2.29M53.74 87.352a3.64 3.64 0 0 1 2.062.057 8.5 8.5 0 0 0-2.063-.057M56.642 85.723s-.943-1.218-.108-2.326a2.58 2.58 0 0 0 .108 2.326"
     class="cls-2"
     style="fill:#3ea3dc;stroke-width:.515691"
     transform="translate(-28.97 -64.218)"
     id="path11" />
  <path
     d="M55.92 89.956c-.108-.129.088-.19.207-.227.118-.036.103-.175.15-.108.046.067.082.047 0 .108-.083.062 0 .083-.068.196a.19.19 0 0 1-.289.031M59.267 88.533c-.098-.16.103-.227.217-.247.113-.021.093-.186.155-.114.061.072.056.057 0 .114-.057.056 0 .077-.078.185-.077.108-.227.145-.294.062M56.642 88.533a.144.144 0 0 1 0-.211s.057-.14.098-.14c.042 0 .088.047.057.104s.052.077 0 .134c-.051.056-.129.129-.155.113M55.095 87.811c-.046-.046-.046-.16 0-.165.047-.005.062-.16.109-.155.046.006.067.052.04.098-.025.047.078.057 0 .134-.076.078-.082.13-.149.088M57.101 88.6c0-.098.098-.278.083-.18-.016.098.098 0 .155.077s-.047.052 0 .119c.046.067.087.108-.047.139-.134.03-.108-.041-.18-.103zM56.462 89.807c0-.191.108-.057.186-.145.077-.087.18-.2.15-.067-.032.134 0 .325-.156.32-.154-.005-.175-.062-.18-.108M56.297 84.361c0-.175.082-.062.17-.15.088-.087.175-.185.175-.077s0 .356-.18.33-.165-.077-.165-.103M57.947 85.681c0-.17.083-.046.17-.123.088-.078.17-.196.124-.068-.046.13.036.315-.124.315s-.17-.041-.17-.124M57.803 86.408c0-.2.098-.061.185-.15.088-.087.186-.185.14-.056-.047.129 0 .32-.14.32-.139 0-.185-.077-.185-.114M56.74 90.255c-.04-.072 0 0 0-.082 0-.083 0-.175.057-.129a1 1 0 0 1 0 .19c-.041.042-.041.089-.057.021M58.85 85.305c-.037-.083 0 0 0-.098v-.088c0 .088.061.165 0 .186-.062.02 0 .067 0 0M56.328 88.775c-.031-.04.03.047 0-.04-.031-.088.03-.212.036-.145s.057.185 0 .185 0 .062-.036 0M56.158 85.542c0-.077.04 0 .04-.088v-.108c0 .062.058.155 0 .175-.056.021 0 .083-.04.021M54.935 87.022c-.03-.057 0 0 0-.057 0-.056 0-.211.057-.139a1 1 0 0 1 0 .196c-.026.02-.026.067-.057 0M56.849 89.291c-.18.072-.109-.155-.052-.242.057-.088-.041-.248.031-.134s0 0 .067.134.098.196-.046.242M56.04 84.897c-.156.037-.12-.16-.037-.242a.4.4 0 0 0 0-.165c.088.088 0 .067.046.165.047.098.109.175-.01.242M58.406 86.826c-.165.062-.119-.165-.051-.253.067-.087 0-.226.051-.128.052.097 0 .061 0 .128s.144.202 0 .253M58.633 86.29c-.144.057-.093-.16 0-.253s-.067-.227 0-.144c.067.082 0 .067 0 .144s.119.16 0 .253M59.644 87.744c-.13.057-.067-.134 0-.232s0-.263 0-.14c0 .125 0 .052.051.14.052.088.134.232-.051.232M58.963 88.363c-.15.057-.113-.18 0-.263s-.046-.237 0-.14c.046.099 0 .037.031.14.03.103.108.206-.031.263M56.21 89.018c.056.15 0 .17.066.211.067.042.17.134 0 .15s-.35 0-.325-.088c.026-.088.155-.103.17-.165s.078-.19.088-.108M56.756 84.65c.046.113.041.17.072.201s.165.077 0 .144-.34-.067-.32-.092c.021-.026.119-.093.165-.17s.067-.176.083-.083M58.85 87.177c0 .15 0 .175.04.227.042.051.176.087 0 .144-.174.057-.334-.057-.324-.088a2 2 0 0 0 .18-.175c.006-.057.047-.186.104-.108M65.3 87.62c0-.03.094-.072.094-.072s.03-1.67.273-2.099c.242-.428.253 0 .253 0a8 8 0 0 1-.222.84 3.6 3.6 0 0 0-.16 1.26.18.18 0 0 1 .201.17c0 .587-.16.685-.216.721-.057.036-.3-.211-.3-.258 0-.046.078-.53.078-.562"
     class="cls-2"
     style="fill:#3ea3dc;stroke-width:.515691"
     transform="translate(-28.97 -64.218)"
     id="path12" />
  <path
     d="M65.878 87.177a.1.1 0 0 1 .052-.088 5.3 5.3 0 0 1-.18-1.624c.087-.346.17 0 .17 0a7 7 0 0 1 0 .65 2.9 2.9 0 0 0 .103.99c.16-.047.165 0 .165 0 .103.474.046.546 0 .608-.047.062-.253-.103-.263-.103s-.047-.433-.047-.433M64.615 87.1l-.057-.088a6.5 6.5 0 0 0 .918-1.367c.062-.36-.15-.103-.15-.103l-.33.588a2.9 2.9 0 0 1-.515.835c-.103-.113-.186 0-.186 0-.289.346-.232.47-.2.547.03.077.247 0 .252 0a2.2 2.2 0 0 0 .268-.413M66.172 86.197a1.465 1.465 0 0 0 2.187.3c1.361-.955-1.078 1.15-2.187-.3M65.311 85.166s-.515-.712.516-1.847a2.39 2.39 0 0 0-.516 1.847M64.558 85.96s-2.666.753-2.759-1.145c0 0 .232 1.691 2.76 1.145M66.44 90.013a3.73 3.73 0 0 1-.515-2.016 7.7 7.7 0 0 0 .516 2.016M64.027 87.744s-.866 1.263-2.135.846a2.46 2.46 0 0 0 2.135-.846"
     class="cls-2"
     style="fill:#3ea3dc;stroke-width:.515691"
     transform="translate(-28.97 -64.218)"
     id="path13" />
  <path
     d="M68.323 87.115c-.124.17-.227 0-.304-.103-.078-.103-.212-.047-.186-.124s.052-.062.144-.036c.093.026.057 0 .176 0 .118 0 .206.19.17.263M66.642 89.6c-.073.155-.186 0-.279-.134s-.19-.072-.165-.092c.026-.021.047-.083.103 0 .057.082.078-.073.217 0 .14.072.211.113.124.227M65.925 84.387c-.098.17-.232 0-.294-.108-.062-.109-.201-.067-.15-.109s0-.067.104-.036c.103.031.046-.062.175 0s.216.165.165.253M66.73 86.914a.155.155 0 0 1-.207.051c0-.051-.16 0-.16-.077s0-.088.093-.062.041-.072.113-.072.166.098.16.16M66.497 88.57a.175.175 0 0 1-.196.056c-.03 0-.154 0-.129-.057.026-.057 0-.072.073-.072.072 0 0-.077.113-.057.114.02.16.093.14.13M66.621 86.445c-.041.061-.258 0-.165-.031s-.077-.119 0-.155.062 0 .119-.052c.056-.051.092-.108.15 0 .056.109 0 .124-.058.201zM67.988 86.661c-.17.072-.093-.088-.191-.103-.098-.016-.227-.113-.114-.113.114 0 .336-.15.361.036.026.185-.025.17-.056.18M62.83 88.497c-.154.052-.061-.093-.175-.134s-.227-.114-.108-.114.35-.15.356.037c.005.185-.005.185-.072.211M63.625 86.522c-.16.046-.077-.077-.196-.114-.119-.036-.222-.15-.098-.118.124.03.325-.155.325.041.077.15 0 .175-.031.19M64.342 86.445c-.165.036-.088-.098-.227-.15-.052-.036-.201-.108-.088-.108s.32-.114.382.03-.031.197-.067.228M68.328 86.29c-.067.057 0-.031-.077 0-.078.03-.196.051-.13 0a.33.33 0 0 1 .202-.078c.005.047.036-.015.005.078M62.98 85.78c-.077.035 0 0-.082.03-.083.031-.18.031-.134-.03a.5.5 0 0 1 .17-.057c.046.025.088.025.046.056M67.039 87.1c-.072.077 0 0-.072 0-.073 0-.165.061-.135 0 .031-.062.135-.073.186 0 .052.072.057-.01.02 0M64.007 88.26c-.068.036 0 0-.093 0s-.176.03-.119 0a.2.2 0 0 1 .196-.093s.072.015.016.093M65.801 88.946c-.051.087 0 0-.062.04-.062.042-.2.047-.129 0 .073-.046.14-.071.145-.061s.082 0 .046.02M67.369 86.48c.098.14-.108.17-.217.093-.108-.077-.227.104-.154.047.072-.057.067-.047.128-.098.062-.052.155-.175.243-.041M63.429 88.57c.108.144-.124.144-.222.113s-.227.118-.175.03c.051-.087.072-.03.14-.097.066-.067.174-.176.257-.047M64.558 85.748c.088.13-.123.13-.211.093-.088-.036-.237.119-.17.036s.077-.036.118-.098c.042-.062.186-.175.263-.03M63.991 85.681c.103.15-.14.155-.253.15s-.2.082-.165 0c.036-.083.083 0 .16-.062.078-.062.16-.201.258-.088M65.059 84.248c.097.139-.12.139-.217.113-.098-.026-.227.103-.196 0 .03-.103.082 0 .14-.088.056-.087.2-.139.273-.025M65.837 84.738c.103.118-.098.118-.211.092-.114-.025-.232.104-.15.026.083-.077.062-.026.134-.088.073-.061.14-.17.227-.03M67.281 87.172c.155-.083.17-.083.206-.16.037-.078.073-.16.14 0s.092.314 0 .314a1 1 0 0 1-.217-.123c-.046.025-.16.025-.129-.031M62.97 87.96a1 1 0 0 1 .19-.123c0-.072.047-.186.145-.026s.062.34 0 .34-.144-.108-.201-.123c-.057-.016-.206-.031-.134-.067M64.754 85.207a2 2 0 0 0 .232-.119c0-.077 0-.18.103-.036.104.145.078.356 0 .325-.077-.03-.118-.072-.2-.093-.083-.02-.166 0-.135-.077M74.264 87.78a1 1 0 0 1 .067-.118 8.3 8.3 0 0 1-.707-1.98c0-.516.206-.094.206-.094s.057.037.202.846a3.2 3.2 0 0 0 .428 1.207c.18-.067.242.041.242.041.284.516.175.702.113.758s-.345-.056-.355-.056-.196-.547-.196-.604"
     class="cls-2"
     style="fill:#3ea3dc;stroke-width:.515691"
     transform="translate(-28.97 -64.218)"
     id="path14" />
  <path
     d="m74.573 87.115.036-.093a6.6 6.6 0 0 1-.923-1.34c-.057-.357.144-.094.144-.094s.057 0 .325.568a1.95 1.95 0 0 0 .537.81.134.134 0 0 1 .175 0c.289.34.253.469.227.515s-.253 0-.289 0a1.3 1.3 0 0 1-.232-.366M73.392 87.651l-.051-.098a7 7 0 0 0 .216-1.593c-.129-.387-.186-.057-.186-.057a2.8 2.8 0 0 0-.03.67 2.1 2.1 0 0 1-.088.975.165.165 0 0 0-.17.098c-.119.444 0 .516.04.583.042.067.218-.13.248-.134a1.4 1.4 0 0 0 .021-.444M74.418 86.135a1.496 1.496 0 0 0 2.115-.727c.737-1.475-.444 1.506-2.115.727M73.196 85.573s-.825-.413-.402-1.851a2.45 2.45 0 0 0 .402 1.851M72.86 86.65s-2.062 1.883-2.985.202c0 0 .97 1.408 2.986-.201M76.393 89.394a3.4 3.4 0 0 1-1.407-1.547 7.6 7.6 0 0 0 1.407 1.547M73.196 88.497s-.232 1.46-1.547 1.686a2.54 2.54 0 0 0 1.547-1.686M76.754 86.027c0 .175-.206.072-.32 0-.113-.072-.206.072-.206 0s0-.078.134-.078c.135 0 0-.046.14-.082a.2.2 0 0 1 .252.16"
     class="cls-2"
     style="fill:#3ea3dc;stroke-width:.515691"
     transform="translate(-28.97 -64.218)"
     id="path15" />
  <path
     d="M76.378 88.935c0 .191-.211.083-.315 0-.103-.082-.216.072-.216 0s0-.082.134-.082 0-.052.14-.098c.138-.047.272.082.257.18M73.371 84.65c-.03.17-.206.057-.32 0-.113-.057-.19 0-.19-.036s0-.062.088-.062c.087 0 .067-.067.175-.093s.258.047.247.19M75.207 86.522a.19.19 0 0 1-.123.129c-.083 0-.191.082-.196 0-.006-.083 0-.078.03-.083.031-.005 0-.062.083-.087.083-.026.206 0 .206.04M75.775 88.1c0 .082-.088.15-.109.129-.02-.02-.196.077-.206 0-.01-.078-.036-.067.057-.078s0-.082.051-.128c.052-.047.201.02.207.077M74.929 86.13c-.026.077-.227.129-.155.072s-.129-.072-.072-.165.072 0 .088-.077c.015-.078 0-.145.108-.067s.077.108.03.18zM76.239 85.764c-.103.113-.093-.041-.217-.041s-.253 0-.15-.062.248-.253.367-.119c.118.134.036.18 0 .222M72.454 89.683c-.098.129-.098-.052-.202-.052-.103 0-.273 0-.185-.056.087-.057.242-.212.36-.109.12.104.063.165.027.217M72.263 87.553c-.088.109-.088 0-.201 0s-.269 0-.15-.056c.119-.057.242-.284.35-.135.109.15.047.18 0 .191M72.86 87.177c-.113.108-.113-.062-.22-.062h-.15c.118 0 .232-.263.345-.124.114.14.062.124.026.186M76.378 85.222c0 .088 0 0-.072.083-.072.082-.124.103-.093.041a.17.17 0 0 1 .134-.14s.046-.04.031.016M71.365 87.228c0 .083 0 0-.072 0s-.129.16-.098.078a.16.16 0 0 1 .114-.134c.056 0 .062-.057.056.056M75.615 86.568c-.047.083 0 0-.078.052-.077.051-.134.113-.113.041a2 2 0 0 1 .113-.14c.047 0 .078-.015.078.047M73.382 88.925c0 .093 0 0-.041.062-.042.062-.145.103-.135.046s.078-.118.135-.118c.056 0 .051-.047.04.01M75.331 88.775c-.03.098 0 0-.077.083-.078.082-.15.098-.109.03a.23.23 0 0 1 .15-.113s.057-.061.036 0M75.615 85.841c.154.062-.047.186-.145.196s-.17.18-.139.093c.031-.088.036-.031.093-.129s.046-.237.19-.16M73.02 89.487c.145.067 0 .18-.133.196-.134.016-.165.211-.14.083.026-.13.047-.037.073-.135.025-.097.067-.237.2-.144M72.789 86.445c.108.061-.067.175-.155.206-.088.03-.15.175-.144.082.005-.093.036-.056.082-.16.047-.103.057-.216.217-.128M72.19 86.65c.166.083 0 .176-.123.202-.124.026-.155.19-.119.088.036-.104.047 0 .062-.14.016-.139.057-.227.18-.15M72.526 84.897c.144.098-.036.191-.155.222s-.119.165-.108.041c.01-.123.03 0 .093-.128.061-.13.046-.207.17-.135M73.46 84.934c.164.098-.032.2-.13.226s-.175.212-.134.098.057-.051.057-.129c0-.077.077-.232.206-.195M75.847 86.48c.062-.133.134-.149.134-.221s-.072-.16.108-.072c.18.087.206.257.124.294-.083.036-.124-.037-.217 0-.092.036-.196.077-.15 0M72.356 89.136c.046-.118.098-.118.098-.2s-.052-.181.118-.083.217.283.145.314-.145-.03-.227-.03-.196.092-.134 0M72.722 85.893c.072-.13.098-.145.098-.232s-.026-.16.129-.057c.154.103.216.273.165.289-.052.015-.176 0-.253 0s-.16.067-.14 0"
     class="cls-2"
     style="fill:#3ea3dc;stroke-width:.515691"
     transform="translate(-28.97 -64.218)"
     id="path16" />
  <path
     d="m63.48 113.529-.402.453.598-.061a1.37 1.37 0 0 1 1.285.577.86.86 0 0 1 .123.444.9.9 0 0 1-.144.484 8.5 8.5 0 0 0-2.579 5.673v.046a4.86 4.86 0 0 0 1.372 3.46v.094c0 1.737 1.408 3.32 2.32 3.496l.135.03.072-.123.062-.206v-.088l-.144-.057c-.031 0-.119-.082-.119-.515l.046-.815.057-.83a1.6 1.6 0 0 0-.077-.485 2.2 2.2 0 0 0 1.14-.84c.252-.29.484-.563.706-.599l.17-.036.134-.026-.14-.278c-.252-.516-.948-.387-1.685-.284a3.1 3.1 0 0 1-1.547 0 1.03 1.03 0 0 1-.248-.696 1.7 1.7 0 0 1 .098-.562c.454-1.315 2.408-2.955 5.157-3.528-.268.351-.634.826-.861 1.083l-.15.155-.118.129.37.103c1.228.325 3.095-1.031 3.967-2.063 3.192.145 5.78-.376 5.976-.81l.042-.154-.052-.222a3.3 3.3 0 0 0-1.748-1.402c-.315-.882-1.155-1.656-2.388-2.187-1.867-.789-4.187-.85-5.672-.155-1.125-.814-4.167-1.057-5.756.795z"
     style="stroke-width:.515691"
     transform="translate(-28.97 -64.218)"
     id="path17" />
  <path
     d="M65.141 115.53c.588-.939-.32-1.97-1.49-1.872 1.516-1.733 4.574-1.506 5.636-.743 2.486-1.263 7.189-.077 7.895 2.259 1.12.433 1.847 1.227 1.723 1.516s-2.434.84-5.874.67c-.789 1.032-2.676 2.372-3.79 2.063.392-.449 1.248-1.604 1.248-1.604-4.306.604-7.096 3.92-5.704 5.358.867.46 2.79-.454 3.094.191-.773.134-1.284 1.934-2.398 1.377 1-.083-.134 2.878.604 3.177-.79-.134-2.249-1.707-2.14-3.445-2.61-2.615-1.027-6.792 1.196-8.947"
     class="cls-1"
     style="fill:#fff;stroke-width:.515691"
     transform="translate(-28.97 -64.218)"
     id="path18" />
  <path
     d="M75.125 115.978c-5.492-2.109-10.082.954-11.17 4.1 1.186-3.125 5.89-6.034 11.294-3.713.324.15.814 0-.124-.387"
     class="cls-2"
     style="fill:#3ea3dc;stroke-width:.515691"
     transform="translate(-28.97 -64.218)"
     id="path19" />
  <path
     d="M102.39 99.29s-2.172 1.547-2.579 3.559v2.79s3.094-1.77 2.578-6.349"
     class="cls-3"
     style="fill:#c09c71;stroke-width:.515691"
     transform="translate(-28.97 -64.218)"
     id="path20" />
  <path
     d="M99.63 109.444a6.26 6.26 0 0 0 3.61-5.755c-2.062.47-3.403 2.986-3.403 2.986zM98.62 114.503c4.584-1.696 4.574-6.332 4.574-6.332-2.202.567-4.043 3.367-4.043 3.367zM98.083 116.143s2.357-2.743 5.585-3.496c0 0-1.866 6.343-6.42 6.637l-.304-.036zM94.876 123.76c5.672.578 7.601-4.842 7.601-4.842a10.75 10.75 0 0 0-6.296 2.12zM90.6 129.778c6.829 2.063 9.35-4.26 9.35-4.26-5.306-.484-7.029 1.398-7.029 1.398zM84.67 134.275c6.606 4.682 10.97-.268 10.97-.268-5.276-3.29-7.937-1.748-7.937-1.748zM81.195 135.703s4.26-.237 8.055 5.673c0 0-7.865 2.228-11.175-4.553zM74.114 137.514s5.59 2.377 5.59 9.483c0 0-8.019.691-7.854-9.282zM36.66 99.29s2.14 1.547 2.578 3.559v2.79s-3.13-1.77-2.579-6.349"
     class="cls-3"
     style="fill:#c09c71;stroke-width:.515691"
     transform="translate(-28.97 -64.218)"
     id="path21" />
  <path
     d="M39.423 109.444a6.32 6.32 0 0 1-3.61-5.755c2.063.47 3.42 2.986 3.42 2.986zM40.419 114.503c-4.595-1.691-4.57-6.332-4.57-6.332 2.177.567 4.039 3.367 4.039 3.367zM40.934 116.143s-2.336-2.743-5.554-3.496c0 0 1.847 6.343 6.426 6.637l.315-.036zM44.157 123.76c-5.708.598-7.627-4.842-7.627-4.842a10.8 10.8 0 0 1 6.323 2.12zM48.391 129.778c-6.807 2.063-9.318-4.26-9.318-4.26 5.29-.484 7.054 1.398 7.054 1.398zM54.342 134.275c-6.564 4.682-10.922-.268-10.922-.268 5.276-3.295 7.931-1.748 7.931-1.748zM57.87 135.703s-4.27-.237-8.102 5.673c0 0 7.9 2.228 11.206-4.553zM64.95 137.514s-5.585 2.382-5.585 9.483c0 0 7.988.691 7.839-9.282z"
     class="cls-3"
     style="fill:#c09c71;stroke-width:.515691"
     transform="translate(-28.97 -64.218)"
     id="path22" />
  <path
     d="M96.284 91.194s-1.8 5.951 2.955 9.561a44 44 0 0 1 .04 5.642c-.205-.604-.84-1.764-2.768-3.265 0 0-.588 4.126 2.496 6.359a47 47 0 0 1-.325 2.186 9.15 9.15 0 0 0-3.368-4.605s-.758 4.879 2.821 7.22q-.212.874-.474 1.764a10.23 10.23 0 0 0-3.853-5.482s-.685 5.884 2.92 8.22a31 31 0 0 1-1.46 3.207c.19-4.398-3.806-6.461-3.806-6.461s-.835 6.353 2.857 8.112a26 26 0 0 1-1.655 2.372v-.036c.36-3.491-2.754-6.08-2.754-6.08-1.738 4.79-.062 7.859.464 8.653q-1.032 1.031-2.032 1.877a7.84 7.84 0 0 0-1.031-7.941s-3.729 4.502-1.774 10.01a20.5 20.5 0 0 1-3.007 1.65c3.249-5.158 1.45-8.814 1.45-8.814s-5.508 2.744-5.776 10.113c-1.228.227-2.357.335-3.389.438 4.693-4.213 3.198-8.344 3.198-8.344-6.555 2.548-6.787 7.627-6.704 8.989l-.186.077a4.6 4.6 0 0 0-1.547.47 4.7 4.7 0 0 0-1.588-.47l-.155-.062c.057-1.34-.19-6.446-6.75-9.004 0 0-1.548 4.126 3.181 8.344-1.031-.103-2.15-.211-3.372-.438-.315-7.395-5.797-10.139-5.797-10.139s-1.83 3.646 1.424 8.819a21 21 0 0 1-3.017-1.614c1.954-5.513-1.764-10.015-1.764-10.015a7.78 7.78 0 0 0-1.031 7.957 34 34 0 0 1-2.063-1.903c.547-.82 2.223-3.878.474-8.643 0 0-3.125 2.578-2.733 6.08v.052a26 26 0 0 1-1.67-2.388c3.666-1.759 2.867-8.112 2.867-8.112s-4.018 2.063-3.79 6.498a31 31 0 0 1-1.486-3.244c3.61-2.336 2.924-8.22 2.924-8.22a10.07 10.07 0 0 0-3.862 5.456 40 40 0 0 1-.47-1.753c3.543-2.352 2.806-7.22 2.806-7.22a8.96 8.96 0 0 0-3.342 4.641 46 46 0 0 1-.325-2.191c3.094-2.244 2.486-6.37 2.486-6.37-1.924 1.486-2.553 2.63-2.76 3.244a42 42 0 0 1 .047-5.626c4.719-3.61 2.94-9.556 2.94-9.556-4.966 4.642-4.126 8.014-3.548 9.283-.604 3.414-.17 8.736.789 12.949.923 4.497 4.584 15.95 14.068 20.901 7.632 4.033 13.49 3.667 15.47 3.378 1.95.289 7.798.655 15.471-3.378 9.463-4.95 13.078-16.404 14.068-20.901.882-4.193 1.357-9.484.753-12.892.588-1.248 1.516-4.667-3.537-9.355"
     class="cls-4"
     style="fill:#c1ad76;stroke-width:.515691"
     transform="translate(-28.97 -64.218)"
     id="path23" />
  <path
     d="m 77.084,129.35 c 0,0 -1.939,0.701 -2.62,2.006 -0.469,0.934 0,1.78 -0.417,2.579 -0.38637,0.65364 -0.863826,1.24895 -1.418,1.768 0,0 1.929,-0.433 2.465,-1.634 0.536,-1.202 0.036,-1.604 0.459,-2.579 0.414833,-0.77704 0.929533,-1.49648 1.531,-2.14 m 0.841,15.538 c 0,0 -1.996,-0.567 -2.749,-1.846 -0.572,-0.908 -0.113,-1.748 -0.572,-2.527 -0.411112,-0.64633 -0.915189,-1.22858 -1.496,-1.728 0,0 1.934,0.335 2.579,1.485 0.645,1.15 0.15,1.646 0.588,2.517 0.458443,0.76703 1.012924,1.47239 1.65,2.099 m 5.265,-16.502 c 0,0 -1.68,0.82 -2.14,2.063 -0.32,0.897 0.175,1.547 -0.088,2.34 -0.265526,0.63563 -0.628925,1.22578 -1.077,1.749 0,0 1.686,-0.603 2.062,-1.712 0.377,-1.109 -0.16,-1.46 0.114,-2.331 0.278812,-0.75152 0.658994,-1.46141 1.13,-2.11 m 4.295,-3.46 c 0,0 -1.176,1.233 -1.191,2.42 -0.042,0.88 0.603,1.309 0.603,2.005 -0.04396,0.62805 -0.172455,1.2473 -0.382,1.841 0,0 1.243,-1.031 1.197,-2.063 -0.047,-1.031 -0.516,-1.222 -0.583,-2.062 0.03478,-0.72478 0.154255,-1.443 0.356,-2.14 M 90.6,121.62 c 0,0 -0.82,1.315 -0.613,2.367 0.155,0.773 0.794,1.031 0.944,1.686 0.07608,0.56143 0.07608,1.13057 0,1.692 0,0 0.902,-1.16 0.675,-2.063 -0.227,-0.903 -0.706,-0.995 -0.897,-1.728 -0.120058,-0.64396 -0.156359,-1.30073 -0.108,-1.954 m 2.083,-4.115 c 0,0 -0.47,1.346 -0.072,2.253 0.31,0.65 0.954,0.753 1.196,1.305 0.184952,0.49786 0.302984,1.01807 0.351,1.547 0,0 0.567,-1.217 0.18,-2.021 -0.386,-0.805 -0.845,-0.717 -1.175,-1.326 -0.235921,-0.56258 -0.397288,-1.15359 -0.48,-1.758 m 2.362,-4.889 c 0,0 -0.48,1.33 -0.077,2.28 0.294,0.634 0.907,0.71 1.175,1.288 0.188286,0.48324 0.30974,0.98991 0.361,1.506 0,0 0.557,-1.232 0.155,-2 -0.402,-0.769 -0.815,-0.738 -1.14,-1.357 -0.237262,-0.54744 -0.396807,-1.12537 -0.474,-1.717 m 1.304,-3.981 c 0,0 -0.36,1.206 0.052,1.99 0.274,0.599 0.84,0.614 1.104,1.083 0.187341,0.41592 0.319139,0.85469 0.392,1.305 0,0 0.454,-1.104 0.072,-1.764 -0.382,-0.66 -0.779,-0.593 -1.098,-1.119 -0.238939,-0.47313 -0.41413,-0.97584 -0.521,-1.495 m 0.871,-4.471 c 0,0 -0.35,1.232 0.083,2.01 0.283,0.568 0.85,0.604 1.083,1.1 0.194694,0.40385 0.320109,0.83756 0.371,1.283 0,0 0.454,-1.103 0.083,-1.753 -0.372,-0.65 -0.764,-0.593 -1.078,-1.14 -0.251308,-0.47158 -0.433825,-0.9767 -0.542,-1.5 m -9.896,36.253 c 0,0 -2.011,0.33 -3.336,-0.433 -0.985,-0.557 -1.032,-1.46 -1.847,-1.95 -0.696058,-0.36112 -1.436326,-0.62973 -2.202,-0.799 0,0 1.831,-0.516 2.955,0.206 1.124,0.722 1.032,1.31 1.872,1.888 0.814462,0.44663 1.671351,0.81109 2.558,1.088 m 5.838,-6.029 c 0,0 -1.547,0.79 -2.77,0.516 -0.897,-0.196 -1.175,-0.902 -1.944,-1.073 -0.653313,-0.0995 -1.314881,-0.13401 -1.975,-0.103 0,0 1.387,-0.835 2.424,-0.572 1.037,0.263 1.135,0.81 1.985,1.031 0.748348,0.16376 1.514543,0.23131 2.28,0.201 m 4.584,-7.627 c 0,0 -0.907,1.259 -2.016,1.547 -0.805,0.18 -1.315,-0.221 -1.975,-0.077 -0.570263,0.17478 -1.11623,0.42071 -1.625,0.732 0,0 0.764,-1.253 1.723,-1.444 0.959,-0.19 1.201,0.15 1.99,0 0.658607,-0.18686 1.296285,-0.44086 1.903,-0.758 m 2.945,-6.528 c -0.37393,0.66734 -0.923019,1.21989 -1.588,1.598 -0.67,0.274 -1.145,-0.046 -1.744,0.145 -0.46907,0.2235 -0.911797,0.49852 -1.32,0.82 0,0 0.48,-1.15 1.32,-1.45 0.841,-0.299 1.073,0 1.744,-0.216 0.557737,-0.24566 1.08968,-0.54614 1.588,-0.897 m 1.33,-5.91 c -0.20788,0.71991 -0.60908,1.36909 -1.16,1.877 -0.63,0.438 -1.16,0.253 -1.66,0.578 -0.410947,0.33002 -0.783307,0.7054 -1.11,1.119 0,0 0.212,-1.259 0.97,-1.754 0.758,-0.495 1.032,-0.237 1.625,-0.593 0.4831,-0.3655 0.93014,-0.77637 1.335,-1.227 m 0.155,-4.868 c -0.0464,0.67978 -0.29198,1.33085 -0.706,1.872 -0.475,0.469 -0.975,0.417 -1.367,0.825 -0.300758,0.36556 -0.568475,0.7571 -0.8,1.17 0,0 0,-1.165 0.552,-1.712 0.552,-0.547 0.898,-0.386 1.346,-0.825 0.38187,-0.3987 0.70968,-0.84586 0.975,-1.33 m 0.114,-4.518 c -0.003,0.56439 -0.15993,1.11727 -0.454,1.599 -0.33,0.418 -0.758,0.412 -1.083,0.763 -0.21467,0.30773 -0.38815,0.64224 -0.516,0.995 -0.0624,-0.50005 0.0545,-1.00602 0.33,-1.428 0.413,-0.475 0.707,-0.382 1.031,-0.774 0.27003,-0.36001 0.50194,-0.74708 0.692,-1.155 m -0.325,-4.342 c 0.07,0.55378 -0.0272,1.11584 -0.279,1.614 -0.289,0.475 -0.732,0.516 -0.97,0.856 -0.18375,0.34781 -0.32894,0.71465 -0.433,1.094 -0.12053,-0.48678 -0.0711,-1.00013 0.14,-1.455 0.376,-0.515 0.66,-0.48 0.974,-0.887 0.22336,-0.39063 0.41337,-0.79942 0.568,-1.222 m -4.544,-6.869 c -0.201898,0.825536 -0.173187,1.690666 0.083,2.501 0.268,0.748 0.882,0.913 1.155,1.547 0.201363,0.544424 0.337969,1.11065 0.407,1.687 0,0 0.439,-1.295 0.037,-2.202 -0.403,-0.908 -0.815,-0.846 -1.14,-1.594 -0.251057,-0.624559 -0.432812,-1.274785 -0.542,-1.939 m -35.49,35.624 c 0,0 1.986,0.701 2.667,2.006 0.459,0.934 0,1.78 0.391,2.579 0.396184,0.65572 0.884504,1.25114 1.45,1.768 0,0 -1.93,-0.433 -2.465,-1.634 -0.537,-1.202 -0.073,-1.604 -0.46,-2.579 -0.435649,-0.77702 -0.967508,-1.49602 -1.583,-2.14 m -0.789,15.533 c 0,0 1.986,-0.562 2.718,-1.841 0.547,-0.908 0.108,-1.748 0.547,-2.527 0.446899,-0.63405 0.966057,-1.21395 1.547,-1.728 0,0 -1.975,0.335 -2.579,1.485 -0.603,1.15 -0.15,1.646 -0.629,2.517 -0.443624,0.76325 -0.982625,1.46691 -1.604,2.094 m -5.285,-16.497 c 0,0 1.676,0.82 2.14,2.063 0.35,0.897 -0.176,1.547 0.098,2.34 0.273229,0.63055 0.634125,1.21936 1.072,1.749 0,0 -1.722,-0.603 -2.062,-1.712 -0.34,-1.109 0.123,-1.46 -0.14,-2.331 -0.278317,-0.74749 -0.650642,-1.45652 -1.108,-2.11 m -4.317,-3.46 c 0,0 1.207,1.233 1.217,2.42 0,0.88 -0.634,1.309 -0.634,2.005 0.04879,0.63028 0.187876,1.25028 0.413,1.841 0,0 -1.248,-1.031 -1.197,-2.063 0.052,-1.031 0.516,-1.222 0.557,-2.062 -0.02453,-0.72584 -0.144219,-1.44531 -0.356,-2.14 m -3.109,-3.306 c 0,0 0.814,1.315 0.618,2.367 -0.118,0.773 -0.799,1.031 -0.948,1.686 -0.07044,0.5618 -0.07044,1.1302 0,1.692 0,0 -0.903,-1.16 -0.666,-2.063 0.238,-0.903 0.727,-0.995 0.877,-1.728 0.144603,-0.64068 0.184787,-1.30051 0.119,-1.954 m -2.063,-4.115 c 0,0 0.433,1.346 0.046,2.253 -0.268,0.65 -0.918,0.753 -1.17,1.305 -0.191838,0.49503 -0.305203,1.01699 -0.336,1.547 0,0 -0.624,-1.217 -0.196,-2.021 0.428,-0.805 0.81,-0.717 1.14,-1.326 0.236349,-0.56516 0.409403,-1.15475 0.516,-1.758 m -2.357,-4.889 c 0,0 0.464,1.33 0.062,2.28 -0.273,0.634 -0.939,0.71 -1.165,1.288 -0.204244,0.47662 -0.316223,0.98765 -0.33,1.506 0,0 -0.614,-1.232 -0.233,-2 0.382,-0.769 0.877,-0.738 1.181,-1.357 0.225182,-0.55246 0.38786,-1.12837 0.485,-1.717 m -1.294,-3.981 c 0.18677,0.65207 0.174232,1.34511 -0.036,1.99 -0.31,0.599 -0.851,0.614 -1.099,1.083 -0.201601,0.41823 -0.343969,0.86249 -0.423,1.32 0,0 -0.433,-1.103 -0.04,-1.763 0.391,-0.66 0.783,-0.593 1.067,-1.12 0.243299,-0.47741 0.421551,-0.98526 0.53,-1.51 m -0.912,-4.471 c 0,0 0.34,1.232 -0.057,2.01 -0.273,0.568 -0.835,0.604 -1.098,1.1 -0.193752,0.4054 -0.324265,0.83808 -0.387,1.283 0,0 -0.454,-1.103 -0.052,-1.753 0.403,-0.65 0.759,-0.593 1.068,-1.14 0.236985,-0.4762 0.413681,-0.98008 0.526,-1.5 m 9.932,36.253 c 0,0 2.022,0.33 3.337,-0.433 0.949,-0.557 1.031,-1.46 1.82,-1.95 0.706797,-0.35362 1.45537,-0.6167 2.228,-0.783 0,0 -1.867,-0.516 -2.991,0.2 -1.124,0.717 -1.032,1.316 -1.877,1.893 -0.801952,0.43899 -1.644977,0.79838 -2.517,1.073 M 45.9,134.388 c 0,0 1.506,0.79 2.744,0.516 0.877,-0.196 1.191,-0.902 1.954,-1.073 0.64824,-0.0998 1.304866,-0.13434 1.96,-0.103 0,0 -1.361,-0.835 -2.408,-0.572 -1.047,0.263 -1.135,0.81 -1.98,1.031 -0.744927,0.164 -1.507846,0.23155 -2.27,0.201 m -4.59,-7.627 c 0,0 0.914,1.259 2.033,1.547 0.768,0.18 1.268,-0.221 1.939,-0.077 0.572372,0.17337 1.120167,0.41937 1.63,0.732 0,0 -0.754,-1.253 -1.718,-1.444 -0.964,-0.19 -1.186,0.15 -1.97,0 -0.665115,-0.17699 -1.30717,-0.43139 -1.913,-0.758 m -2.981,-6.528 c 0.386116,0.66347 0.939091,1.21437 1.604,1.598 0.67,0.274 1.17,-0.046 1.748,0.145 0.466835,0.22189 0.906425,0.49705 1.31,0.82 0,0 -0.485,-1.15 -1.31,-1.45 -0.825,-0.299 -1.093,0 -1.748,-0.216 -0.558751,-0.25373 -1.09529,-0.55378 -1.604,-0.897 m -1.284,-5.91 c 0.222473,0.72457 0.640052,1.37394 1.207,1.877 0.552,0.438 1.13,0.253 1.655,0.578 0.392135,0.34317 0.755979,0.71738 1.088,1.119 0,0 -0.221,-1.259 -0.954,-1.754 -0.732,-0.495 -1.031,-0.237 -1.63,-0.593 -0.500917,-0.35522 -0.959268,-0.76693 -1.366,-1.227 m -0.206,-4.868 c 0.07772,0.67521 0.3262,1.31947 0.722,1.872 0.448,0.469 0.974,0.417 1.372,0.825 0.30679,0.35316 0.56353,0.74685 0.763,1.17 0,0 0.051,-1.165 -0.516,-1.712 -0.567,-0.547 -0.856,-0.386 -1.33,-0.825 -0.385479,-0.4043 -0.724582,-0.8504 -1.011,-1.33 m -0.078,-4.518 c 0.0027,0.56526 0.161921,1.11872 0.46,1.599 0.32,0.418 0.752,0.412 1.077,0.763 0.215682,0.30712 0.389227,0.64177 0.516,0.995 0.07328,-0.49391 -0.02521,-0.998 -0.279,-1.428 -0.443,-0.48 -0.696,-0.382 -1.03,-0.774 -0.297992,-0.3504 -0.548176,-0.73879 -0.744,-1.155 m 0.325,-4.342 c -0.05797,0.55293 0.0368,1.11118 0.274,1.614 0.304,0.475 0.716,0.516 0.964,0.856 0.184313,0.35009 0.336277,0.71628 0.454,1.094 0.116156,-0.49317 0.0501,-1.01171 -0.186,-1.46 -0.36,-0.516 -0.644,-0.48 -0.933,-0.887 -0.229625,-0.38633 -0.42151,-0.79388 -0.573,-1.217 m 4.564,-6.869 c 0.174648,0.82809 0.146516,1.686128 -0.082,2.501 -0.33,0.748 -0.908,0.913 -1.186,1.547 -0.201889,0.54529 -0.343727,1.110965 -0.423,1.687 0,0 -0.433,-1.295 0,-2.202 0.433,-0.908 0.815,-0.846 1.16,-1.594 0.23861,-0.627862 0.416425,-1.277171 0.531,-1.939"
     class="cls-1"
     style="fill:#ffffff;stroke-width:0.515691"
     transform="translate(-28.97,-64.218)"
     id="path24"
     sodipodi:nodetypes="cccccccccccsccccccccccccccccccccsccccccccccccccccccccscccccccccccccsccccccsccccccccccccccccccccsccccccscccccccccccccccccccccccccccccccccccccccccscccccccccccccccccccccccccccccccccccccccccccccccccccccccscccccccccccccccccccccccccccsccccccccccccccccccccccc" />
  <path
     d="m 61.361,108.795 c 0,0.108 0,0.108 0.14,0.108 h 0.298 c 0.263,0 0.279,0 0.366,-0.227 v -0.119 c 0.05477,-0.0207 0.115231,-0.0207 0.17,0 v 0.898 c -0.04502,0.0514 -0.124984,0.0514 -0.17,0 v -0.088 c -0.087,-0.186 -0.103,-0.248 -0.366,-0.248 h -0.304 c -0.14,0 -0.14,0 -0.14,0.145 v 0.516 c -0.02132,0.14054 6.54e-4,0.28425 0.063,0.412 0.151538,0.10085 0.33458,0.14314 0.515,0.119 0.397,0 0.552,-0.062 0.815,-0.516 0.067,0 0.186,0 0.206,0.046 -0.0304,0.2326 -0.101485,0.45803 -0.21,0.666 h -2.512 c -0.067,0 -0.067,-0.14 0,-0.165 h 0.232 c 0.17,0 0.237,-0.067 0.237,-0.449 v -1.583 c 0,-0.387 -0.067,-0.397 -0.237,-0.46 l -0.119,-0.03 c -0.041,0 -0.041,-0.108 0,-0.124 h 2.29 c 0.01722,0.2273 0.04996,0.45316 0.098,0.676 -0.06307,0.0123 -0.127925,0.0123 -0.191,0 -0.03963,-0.12908 -0.102676,-0.24975 -0.186,-0.356 -0.087,-0.093 -0.232,-0.108 -0.469,-0.108 h -0.371 c -0.14,0 -0.14,0 -0.14,0.139 z m 2.609,1.763 c -0.273125,0.0123 -0.544283,-0.0517 -0.783,-0.185 -0.116926,-0.2068 -0.16754,-0.44451 -0.145,-0.681 0,-0.041 0.13,-0.041 0.165,0 0.114862,0.37448 0.445722,0.64162 0.836,0.675 0.253116,0.0213 0.472296,-0.1741 0.48,-0.428 0,-0.35 -0.362,-0.551 -0.64,-0.69 -0.374998,-0.10495 -0.653641,-0.41999 -0.712,-0.805 0,-0.474 0.423,-0.815 1.104,-0.815 0.172989,0.004 0.345298,0.0232 0.515,0.057 0.0516,0.009 0.10087,0.0287 0.145,0.057 0.07745,0.19645 0.11255,0.40705 0.103,0.618 -0.05903,0.0152 -0.120968,0.0152 -0.18,0 -0.088,-0.232 -0.274,-0.551 -0.625,-0.551 -0.2477,-0.023 -0.46524,0.16367 -0.48,0.412 0,0.175 0.186,0.356 0.44,0.475 l 0.283,0.154 c 0.377402,0.11296 0.645929,0.44713 0.675,0.84 0.016,0.527 -0.453,0.867 -1.18,0.867 m 2.537,-2.578 c 0,-0.088 0,-0.098 -0.13,-0.098 h -0.267 c -0.367,0 -0.46,0.175 -0.588,0.464 -0.06114,0.0146 -0.124861,0.0146 -0.186,0 0.098,-0.32 0.103,-0.578 0.17,-0.763 h 0.134 c 0.041,0 0,0.087 0.361,0.087 h 1.759 c 0.304,0 0.366,0 0.412,-0.087 h 0.062 c 0.03737,-0.003 0.07188,0.0202 0.083,0.056 -0.05497,0.24046 -0.08281,0.48633 -0.083,0.733 -0.05601,0.0122 -0.113988,0.0122 -0.17,0 -0.088,-0.263 -0.129,-0.464 -0.516,-0.464 h -0.278 c -0.103,0 -0.103,0 -0.103,0.098 v 1.882 c 0,0.381 0,0.443 0.206,0.459 h 0.201 v 0.165 h -1.542 c -0.057,0 -0.057,-0.114 0,-0.165 h 0.217 c 0.17,0 0.232,-0.078 0.232,-0.46 z m 1.48,2.238 c 0.0052,-0.21992 0.192477,-0.39127 0.412,-0.377 0.206732,-0.004 0.371993,0.17085 0.356,0.377 -0.0051,0.18893 -0.167592,0.33496 -0.356,0.32 -0.227,0 -0.412,-0.103 -0.412,-0.32 m 2.578,-0.299 c 0,0.325 0,0.392 0.227,0.402 h 0.206 c 0.047,0.052 0.047,0.15 0,0.165 h -1.521 c -0.036,0 -0.036,-0.113 0,-0.165 h 0.19 c 0.233,0 0.264,-0.077 0.264,-0.402 v -1.382 c 0,-0.279 -0.031,-0.35 -0.227,-0.366 l -0.227,-0.031 c 0,-0.031 -0.036,-0.119 0,-0.15 0.19,-0.026 0.402,-0.093 0.619,-0.108 0.216,-0.016 0.371,-0.155 0.412,-0.155 0.02809,0.01 0.04944,0.0332 0.057,0.062 z m 3.161,-1.068 c -0.01096,0.51444 -0.262729,0.99391 -0.68,1.295 -0.399353,0.31819 -0.873312,0.52918 -1.377,0.613 -0.073,-0.061 -0.073,-0.134 -0.042,-0.165 0.816054,-0.14726 1.406791,-0.86181 1.398,-1.691 0,-0.346 -0.108,-0.939 -0.516,-0.939 -0.206,0 -0.35,0.238 -0.35,0.475 0,0.366 0.15,0.742 0.474,0.768 h 0.14 c 0.0065,0.029 0.0065,0.059 0,0.088 -0.133394,0.11238 -0.306355,0.16643 -0.48,0.15 -0.420147,0.009 -0.763742,-0.33281 -0.758,-0.753 0.0039,-0.55248 0.481101,-0.9825 1.031,-0.929 0.632259,-0.0515 1.170964,0.45374 1.16,1.088 m 2.429,0 c -0.0066,0.50966 -0.248365,0.98767 -0.655,1.295 -0.406541,0.31251 -0.88223,0.52275 -1.387,0.613 -0.067,-0.061 -0.088,-0.134 -0.057,-0.165 0.814063,-0.14941 1.402217,-0.86339 1.393,-1.691 0,-0.346 -0.088,-0.939 -0.516,-0.939 -0.206,0 -0.345,0.238 -0.345,0.475 0,0.366 0.17,0.742 0.515,0.768 h 0.124 c 0.0043,0.0292 0.0043,0.0588 0,0.088 -0.132408,0.10987 -0.302488,0.1637 -0.474,0.15 -0.424428,0.0149 -0.774977,-0.32835 -0.769,-0.753 0.0101,-0.55007 0.483894,-0.97658 1.032,-0.929 0.628409,-0.0498 1.160461,0.45795 1.14,1.088 m 1.799,-1.031 c 0.246066,0.0127 0.492782,0.003 0.737,-0.03 0.0035,0.0306 0.0035,0.0614 0,0.092 -0.123,0.14 -0.252,0.376 -0.464,0.675 l -1.33,2.202 c -0.108444,-0.008 -0.20561,-0.0697 -0.258,-0.165 l 1.263,-1.918 c 0.07186,-0.0987 0.122899,-0.21097 0.15,-0.33 0,-0.067 -0.062,-0.067 -0.15,-0.067 h -1 c -0.263,0 -0.31,0 -0.407,0.186 -0.04442,0.0633 -0.142204,0.0479 -0.165,-0.026 0.056,-0.222 0.123,-0.475 0.175,-0.65 0.184098,0.0295 0.370761,0.0399 0.557,0.031 z"
     class="cls-1"
     style="fill:#ffffff;stroke-width:0.515691"
     transform="translate(-28.97,-64.218)"
     id="path27"
     sodipodi:nodetypes="cssccccccsssccccccscssscccccccssccccccccccccccccccccccsscccssscccccsssscccscscccccccscccscsssccccccscccccssccccccccccccsscccccccccccccccssccccc" />
</svg>
