<?xml version="1.0" encoding="UTF-8" standalone="no"?>
<svg
   xml:space="preserve"
   viewBox="0 0 107.2 150.2"
   version="1.1"
   id="svg20"
   sodipodi:docname="kyoto-sanga.svg"
   inkscape:version="1.4.2 (f4327f4, 2025-05-13)"
   xmlns:inkscape="http://www.inkscape.org/namespaces/inkscape"
   xmlns:sodipodi="http://sodipodi.sourceforge.net/DTD/sodipodi-0.dtd"
   xmlns="http://www.w3.org/2000/svg"
   xmlns:svg="http://www.w3.org/2000/svg"><defs
     id="defs20" /><sodipodi:namedview
     id="namedview20"
     pagecolor="#ffffff"
     bordercolor="#000000"
     borderopacity="0.25"
     inkscape:showpageshadow="2"
     inkscape:pageopacity="0.0"
     inkscape:pagecheckerboard="0"
     inkscape:deskcolor="#d1d1d1"
     inkscape:zoom="5.3728363"
     inkscape:cx="53.509912"
     inkscape:cy="75.099998"
     inkscape:window-width="1920"
     inkscape:window-height="1009"
     inkscape:window-x="-8"
     inkscape:window-y="-8"
     inkscape:window-maximized="1"
     inkscape:current-layer="マーク等" /><style
     id="style1">.st0{fill:#fff}.st1{fill:#c0ae72}.st3{fill:#e6002d}</style><g
     id="マーク等"><path
       d="M53.6 0 0 9.8l.1 8.5c.8 42.3 5 86.8 46.7 125.5l6.9 6.4 6.8-6.4c41.7-39.4 45.8-81.8 46.6-125.4l.1-8.5z"
       class="st0"
       id="path1" /><path
       d="M53.6 3.3 3.3 12.6l.1 5.7c.8 41.5 4.9 85.3 45.6 123.1l4.6 4.3 4.6-4.3C99 102.8 103 61.1 103.8 18.2l.1-5.7z"
       id="path2" /><path
       d="M53.6 6.7 6.7 15.3l.1 2.8C7.5 59 11.5 102 51.3 138.9l2.3 2.1 2.3-2.2c39.8-37.6 43.8-78.6 44.5-120.7v-2.8z"
       class="st0"
       id="path3" /><path
       d="M53.6 8.3 8.3 16.6v1.5c.4 20.4 1.6 42.2 8 63.1 6.7 21.8 18.5 40.3 36 56.6l1.2 1.2 1.2-1.2c17.8-16.8 29.6-35.4 36.2-57 6.2-20.4 7.4-42.1 7.8-62.6v-1.5zm0 128.2C16 101.6 10.9 62.1 10.1 18.1l43.5-8 43.5 8c-.8 44-5.4 82.3-43.5 118.4"
       class="st1"
       id="path4" /><path
       d="M53.6 136.5V10.2l43.5 8c-.8 43.9-5.4 82.2-43.5 118.3"
       class="st0"
       id="path5" /><path
       d="M53.6 109.1V10.2l-43.5 8c.8 44 5.9 83.5 43.5 118.4v-7.1c2.7 0 5.2-1 7.1-2.9 2-1.9 3.1-4.5 3.1-7.3 0-5.7-4.6-10.2-10.2-10.2"
       style="fill:#750069"
       id="path6" /><path
       d="M49.6 123.3c.9.9 2.1 1.5 3.4 1.6v-11.3c-1.3.1-2.4.7-3.4 1.6zM48.4 115.2l-1.7-1.7c-1.2 1.4-1.9 3.2-2.1 5.1h3.8zM58.8 116.4v2.2h3.8c-.1-2-.9-3.8-2.2-5.2l-1.6 1.6z"
       class="st1"
       id="path7" /><path
       d="M52.3 112.5h.1c.2 0 .3-.1.5-.1h1.3c.1 0 .3 0 .4.1h.1c1.2.2 2.3.7 3.2 1.5l1.5-1.5c-1.6-1.4-3.7-2.3-5.9-2.3-2.3 0-4.4.9-6 2.4l1.5 1.5c1-.8 2.1-1.4 3.3-1.6"
       class="st1"
       id="path8" /><path
       d="M54.2 124.9c1.3-.1 2.4-.7 3.4-1.6v-8.1c-.9-.9-2.1-1.4-3.4-1.6zM48.4 123.4v-3.5999999999999996h-3.8c.1 1.9.9 3.7 2.1 5.2.5-.5 1.1-1 1.4-1.4.2-.1.3-.1.3-.2M58.8 119.8v3.6999999999999997c.3.4 1.1 1.2 1.5 1.7 1.3-1.5 2.1-3.4 2.3-5.4z"
       class="st1"
       id="path9" /><path
       d="M54.8 126h-.1c-.1 0-.3 0-.4.1H53c-.2 0-.3 0-.5-.1h-.1c-1.2-.2-2.3-.8-3.3-1.6-.4.4-1 1-1.5 1.4 1.7 1.5 3.8 2.4 6 2.4s4.2-.8 5.8-2.2l-1.4-1.5c-.9.8-2 1.3-3.2 1.5"
       class="st1"
       id="path10" /><path
       d="M89.1 49.7c-2-3.2-1.9-9.6-1.2-13.5-1.9.9-3.6 3.3-4.2 4.6-.8-1.5-2.3-4.1-5.9-6.6s-8.4-4.2-13.4-2.4c3.1.7 6.6 2.2 10 4.8v.1c-.2.8-.4 1.5-.4 2.3 0 1.6 1.2 4.7 1.8 6.6-.8-2.3-3.6-6.3-12.8-6.6-3.7-.1-5.6-1.9-6.7-5-.4.9-.9 3.1-.9 4.2s.1 3 1.2 4.6l-.6-.6q-3.15-3.45-6.9-5.1c-3.2-1.4-8.1-1.3-11.6.5 0 0-1.5.8-2.3 1.6.3-1.1 1-2.7 2.3-3.8-7-1.4-11.3 3.4-12.3 6.3-.3 1-.5 2-.5 3.1 0 1.5.4 3 1 4.2-1-.1-2 .1-3.2.4-3.4 1.1-5.2 4.1-5.5 6.5 0 0-.4 1.8 0 3.8-1.5 2.2-1.7 4.5-1.7 4.6 0 0-.2 2.3.4 3.9 1-1.1 2.4-1.9 2.9-2l-.2 1s-.2 1.7.1 2.7c1.7-1.5 3.8-2.2 4.2-2.3.7 4.8 4.3 6.6 5.4 7-2.2 1.4-4.4 3.8-4.8 7.6l-.1 1.6c0 4.8 2.6 8.1 5 10.2 1.6 1.8 8.4 6 9.9 7.8 1.4 1.8 2.8 4.6 3.2 8.2.9-1 2.1-3.9 2-5.9 1.9 1.8 4.3 3.6 10 3.7 5.6.1 9.2-4.4 10.7-8.5-1 .4-4 1.4-4 1.4-.1 0-3.4 1.1-7.1.6-2.3-5.3-7.3-7.2-12.8-8.1-2.5-.4-6.7-1.5-9.6-3.8-.1-.1-.2-.3-.3-.4-.9-1.2-1.3-2.7-1.3-4.2 0-.6.1-1.2.2-1.8.1-.5.3-.9.5-1.3v.6c0 .8-.1 4 1.9 6 1.5-.4 3.4-1.8 4.1-3 .5 3.6 3.4 6.4 9.1 8.3-.5-1.2-.8-2.6-.9-3 .7.8 1.6 1.5 3 2 3.2 1.1 7.3.4 9.2-1-.5-.2-1.8-.8-2.2-1.1 1.7.4 3.8.8 7.2-.6 1-.4 1.8-1 2.3-1.7-1.1 3.4-4.7 5.3-7.8 5.5 0 0-1.5.1-1.8.2 2.1 3.7 7.7 5.9 12.6 4.8 4.5-1 6.4-5.1 7.1-7-.2 2.5-1.2 5.7-2.5 7.9 4.5-.7 10.7-4.7 11.5-10.8l.1-1.7c0-2.8-.9-5.4-2.8-7.8 1.9.8 3.5 2 5.6 3.9.4-5.2-1.9-7.9-2.7-8.9 4.5-2.2 8.6-7.2 9.2-12.4.7-5.6-.9-9.5-2.7-12.2m-25.9 5c.4 1.1.6 2 .6 2.9-.4-.1-.9-.2-.9-.2-2.3-.4-3.7-1.1-4.6-1.8-.8-1.1-1.8-2.9-2.4-4.4 2.6.5 5.2 1.5 6.9 2.8.2.2.3.5.4.7m.3 10c0 1-.3 1.8-.5 2.3-.4-.2-.7-.5-1-.7-1.2-1.5-2-3.1-2-3.8.7 0 2 .2 3.4.9 0 .4.1.9.1 1.3m-20.3 2.8c-.1-.3-.1-.5-.1-.8 0-1.9 1.6-2.6 1.6-2.6l1.5-.6c.6-.2 1.2-.4 1.7-.6-.9 1.7-2.7 3.8-4.7 4.6m6.2-12.3c-.9.9-3.7 2-5-.7-.7-1.4-.2-3.3.4-4.2 1.4-2 3.5-3.3 6.2-3.7-1.4.7-2.8 1.8-4.2 3.4.4.1 2.4.1 5.5.7-1.1 2.3-2.1 3.8-2.9 4.5m1.2 14.3c1.7-2.4 3.2-6.6 3.9-11.6.8 4.6 2.4 8.4 3.7 10.2l2.4 3.2c-.2.6-.4 1-2.1 1.6-1.5.5-2.5 1.3-3.2 2.4.2-1.2.6-2 .6-2l.3-.5s-2.2-3.4-5.6-3.3m5.5 11.6q-.45-.3-.6-.6c.6-.1 1.4-.2 1.4-.2.9-.1 4.5.2 5.7 1.7.1.1.2.3.3.4h-.3c0 .1-3.8.5-6.5-1.3m29.6-20.9c-.3 1.8-1.2 3.5-2.4 5 0-1.1.1-2.7-.9-5 .1-.8.2-2.4.2-2.4 0-3.3-1.4-6.2-2.3-7.8 1.1.8 3.2 2.3 3.7 3.1 1.3 1.6 1.9 3.3 1.9 5.3-.1.5-.1 1.2-.2 1.8"
       id="path16" /><path
       d="M62.7 83.1c-.1 0-7.9.9-9.4-5.2-.9-3.6.5-6.4.5-6.4l.1-.2-.1-.1s-1.9-2.2-4.8-.5c-1.8 1.1-2.9.9-3.3.8.4-.4 1.2-1.5 2.8-3.7 2.4-3.3 3.7-7.7 4.2-14.8v-2.1c-.2.5-.7 1.5-1 2.1s-.9 1.7-2 2.6l-.1.1c-1.1 1-2.6 1.6-3.7 1.9-.5.1-1 .3-1.6.4.9.3 2.5.6 3.2.6-1.1.6-2.3 1.5-3 2.8 2-.7 3.6-1.2 4.4-1.1.1 0 .3.1.3.5 0 1.9-3.3 6.7-6.9 7.5-.8-.8-1.3-1.9-1.3-3.2 0-1 .3-2.2 1.2-3.3 1.5-2 2.2-3.9 2.2-6.1v-.5l-.2-.1c-1-.1-1.8-1.1-2.2-2.2-.1-.5-.2-.9-.2-1.4 0-1 .3-2.1 1-3.1 2.7-3.9 7.5-5 14.3-3.3l.7.2-.5-.6c-2.5-3.4-5.3-5.7-8.4-7-3.9-1.8-10.6-1.2-13.4 2.3-2 2.5-2.4 5.2-2.4 6.9v.4c-.8-1.4-1.2-2.8-1.2-4.4 0-.6.1-1.2.2-1.8.6-3.5 2.9-5 3.8-5.6-5.2-.3-9 3.7-10 6.4-.3.9-.5 1.9-.5 2.9 0 1.8.5 3.6 1.7 5-1-.3-2.4-.4-4.3.2-3.1 1-4.9 3.8-5.1 6l-.1.5.5-.3c2.5-1.4 6.1-1.8 8.4-.8 1.1.4 1.9 1.1 2.7 1.8-1.9-.9-5.6-2-9.5.6-3.3 2.4-3.6 6.3-3.6 6.5v.6l.5-.3s2.7-1.9 4.7-2.1c-.8 1-1.4 2.1-1.6 3.3l-.1.5.5-.2c3.3-1.4 6.7-.3 7.8 1.6-1.3.5-2.8.1-3.9-.5l-.5-.3.1.5c.3 1.8 1.7 5.9 7.8 6.3-2.4.9-6.6 3.3-7.2 8.6-.1.5-.1 1.1-.1 1.6 0 6.7 5.3 10.4 7.7 12l1.5 1c2.9 1.9 6.7 4.3 7.9 8.5.5-1.9.2-3.6-.1-4.4 2.3 2.4 5.1 4.8 10.9 4.9 5 0 8.4-3.8 8.6-4l.7-.8-1 .3c-.1 0-8.8 3-14.1-2.7 1.9.5 3.6 1.4 5 2.3-.6-2.8-4.1-5.9-11.1-7.1-3.3-.6-9.1-2.1-11.8-6-.9-1.4-1.4-2.9-1.4-4.6 0-.6.1-1.3.2-1.9 1.4-4.7 4.7-5.7 6.2-6-1.1 1-3.1 3.2-3.1 6.9 0 .7.1 1.5.2 2.3l.2.8.3-.7c.5-1 1.5-3.2 2.5-4.2v.7c0 1.6-.2 4-.6 5 1.8-1.4 2.6-2.9 3.3-4.3 0 .5-.1 1-.1 1.4 0 3.6 1.3 6 5.7 7.6l.5.2-.2-.5c-.4-1.2-.5-2.5-.5-3.6 0-.4 0-.8.1-1.1.5 2.2 1.4 3.8 3.9 4.6 2.9 1 6 .5 7.2-.2l.4-.2-.8-.4c-1.1-.6-3.5-1.7-4.4-4.4-.4-1.2-.6-2.4-.6-3.3v-.5c.3 1.4.9 3.2 2.4 4.8 2.7 2.8 6.1 3.4 9.4 1.7 3.2-1.7 3.8-4.6 3.8-4.7l.1-.4z"
       class="st1"
       id="path17" /><path
       d="M87.6 50.6c-.6-1.1-1.1-2-1.3-3.2-.4-2.4-.5-4.3-.5-5.7 0-1.5.1-2.5.2-3-.9.7-2.1 2.8-2.6 5.4-.7-3-2.2-6.8-5.8-9.4-3.3-2.4-7-3.6-10.7-2.9.5.1 10.4 2.2 11.8 11-1.5-1.2-3.3-4.3-3.6-5.9-1.6 5 3.3 10.8 6.9 13.4 3.1 2.2 4.6 4.8 4.6 8 0 .6-.1 1.3-.2 1.9-.7 4.1-3.8 7.4-8.4 9.3 2.4-2 3.4-4.4 3.5-8-.5 1-2.8 3.2-3.7 3.8.9-1.5 2.8-5 2.9-8.8v-.3c0-4.8-3-8.7-3.1-8.9l-.5-.7v1.1c0 1.2-.2 5.9-3 8.8.6-1.8 1.1-4.1 1.1-6.4 0-2.1-.4-4.1-1.4-5.6-2.2-3.3-5.4-4.8-10.7-5-4.8-.2-6.2-3.2-6.2-3.3l-.3-.6-.2.7s-.2.7-.2 1.8c0 1.9.6 4.9 4.2 7.1 1.6 1 2.9 2 3.8 2.9-2.7-1.9-8.5-4.1-15 .8 5.4-.8 13.3 1.9 14.7 5.5.4 1.2.7 2.2.7 3.2 0 1.4-.5 2.4-1.4 3.3l-.2.2.2.2c.9 1.2 1.2 2.4 1.2 3.5 0 1.5-.6 2.7-.9 3.2-3.1-1.6-5.4-5.4-5.4-6.9v-.2c0-.3.2-.4.3-.4.7-.1 2.5.2 4.2 1.1-.5-1.2-1.7-2.2-2.9-2.8.7-.1 2.4-.3 3.3-.6-3.1-.6-4.5-1.6-5.4-2.4l-.1-.1c-1.1-.9-2.4-3-2.9-4.7-.1 1.1 0 3.1.1 3.4.6 6 2 10.6 4.1 13.5 1.1 1.5 1.9 2.6 2.6 3.4v.2c-.2.8-.4 1.4-2.6 2.1-2.3.8-3.4 2.2-3.5 4.6v.3h.3c1.4-.1 5.1.4 7.3 2.9 1.5 1.7 2 4 1.3 6.9-.9 4-5 6.3-8.5 6.5h-.6l.5.4c1.8 1.6 5.3 2.8 9.2 1.8 4.4-1.1 6.2-5.2 6.8-6.9.4-1.2.6-2.8.6-4.5 0-1.1-.1-2.2-.3-3.1 1.3 1.4 2 3.6 2.3 6.8v1.3c0 2.9-.6 5.8-1.4 7.3 2.4-.8 7-4.6 7.7-10.3.1-.6.1-1.1.1-1.7 0-3.3-1.3-6.2-4.1-8.9 3.4.9 5.3 2.1 6.6 3.2l.6.5-.2-.8c-.7-3.2-3.8-5.4-5.8-6.3 5.1-.8 11.7-5.4 12.3-13 .1-.7.1-1.4.1-2-.3-4.2-1.5-6.3-2.5-8"
       class="st1"
       id="path18" /><path
       d="M52.8 78c-.2-.9-.3-1.8-.3-2.6 0-2.1.6-3.6.8-4-.4-.4-1.8-1.5-4-.2-2.9 1.7-4.1.6-4.2.6l-.1-.2.2-.2s.9-1 3-3.9c2.2-3 3.6-7.8 4.1-14.2-.6 1.1-1.2 2.1-2.1 2.7l-.1.1c-.8.7-1.7 1.4-3.7 1.9 1 .1 2.8.4 2.8.4s-2.4 1.1-3.1 2c1.1-.4 2.3-.6 2.9-.5.5.1.7.5.7 1.1 0 2.1-3.5 7.3-7.5 8.1h-.1V69c-.9-.9-1.6-2.2-1.6-3.7q0-1.8 1.2-3.6c1.4-1.9 2.1-3.8 2.1-5.8v-.1c-1-.5-1.9-1.5-2.3-2.7-.2-.5-.2-1-.2-1.6 0-1.2.4-2.3 1.1-3.4 2.7-3.9 7.5-5.1 14.1-3.6-2.4-3-4.9-5.1-7.8-6.3-3.7-1.8-10.1-1.2-12.8 2.1-2.8 3.4-2.4 7.6-2.2 8.5-1.5-1.6-2.3-3.9-2.3-5.9 0-.6.1-1.2.2-1.9.5-2.7 1.8-4.2 2.9-5-4.1.6-7.2 3.7-8 6.1-.3.8-.4 1.8-.4 2.7 0 2.1.6 4 2.6 6.1-1.9-.8-3.1-1.2-5.6-.4-2.7.8-4.2 3.1-4.7 5.1 2.6-1.3 6.1-1.6 8.4-.6 1.6.7 3.2 1.9 3.9 3.6-1-.5-5.7-3.6-10.7-.2-2.4 1.7-3.1 4.4-3.3 5.5 1-.7 3.3-2.1 5.1-1.9h.5l-.4.4c-.9.9-1.4 2-1.8 3.1 3.5-1.3 7.2.1 8.2 2.3l.1.2-.2.1c-1.3.7-2.9.4-4.2-.2.6 2.3 2.4 5.4 9 5.6-.6.4-7.7 2-8.5 8.9-.1.5-.1 1-.1 1.5 0 6.4 5 9.8 7.5 11.6l1.4 1c2.7 1.8 6 4 7.5 7.3v-.4c0-1.5-.7-3-1.4-4-.6-.9-1.1-1.4-1.6-1.9.7.4 2 1.5 2.6 2.2 2.5 2.6 5 5.5 11.3 5.6 3.4 0 6.2-2 7.4-3.1-2.7.6-9.8 1.8-14.2-3.8l-.4-.5.7.1c1.8.3 3.4 1 4.6 1.7-1.4-2-4.2-4.3-10-5.3-3.3-.6-9.4-2.1-12.2-6.2-1-1.4-1.5-3.1-1.5-4.9 0-.7.1-1.4.2-2.1 1.9-6.6 7.5-6.4 7.6-6.4h.9l-.7.5c-.2.1-3.5 2.2-3.5 6.9 0 .4 0 .9.1 1.4.8-1.7 1.8-3.4 2.7-4l.4-.3v1.8c0 1.2 0 2.4-.2 3.4 1.2-1.4 2-2.5 3-4.7-.1 1.3-.1 2.1-.1 3.4 0 3.3 1.2 5.4 4.9 6.9-.3-1.1-.4-2.2-.4-3.2 0-1.1.2-2.3.5-3.1.6 3.3 1.4 5.2 4.1 6.1 2.6.9 5.1.5 6.3.1-1.2-.6-3.6-1.9-4.6-4.6-.5-1.3-.5-2.6-.5-3.3 0-.6.3-2.5.5-3.2 0 .4.2 4.1 2.7 6.8 2.6 2.7 5.7 3.3 8.8 1.6 2.4-1.3 3.2-3.2 3.5-4-1.6.4-8.1.4-9.5-5.3"
       class="st3"
       id="path19" /><path
       d="M85.2 41.7v-1.2c-.6 1.1-1.5 2.7-1.8 6-.4-2.2-1.8-8.2-6.3-11.4-2.6-1.8-5.2-2.8-7.9-3 3.2 1.1 9.2 4.1 9.9 11.2l.1.5-.4-.2c-1.3-.7-2.8-2.8-3.6-4.4.3 3.7 3.5 8.3 7 10.7 3.3 2.3 4.8 5 4.8 8.4 0 .7-.1 1.3-.2 2.1-.8 4.8-4.5 8.7-10.9 10.2 3.4-2.1 4.6-4.9 4.9-7.4-1.4 1.6-2.7 2.7-3.8 3.1l-.8.3.5-.7s3.2-4.6 3.3-9.3v-.3c0-3.5-1.7-6.6-2.6-7.9-.1 1.9-.5 6.8-4 9.4l-.8.6.4-.9c.8-1.9 1.4-4.6 1.4-7.3 0-2-.4-3.9-1.3-5.3-2.1-3.1-5.2-4.5-10.3-4.8-3.8-.2-5.6-2-6.3-3 0 .3-.1.7-.1 1.1 0 1.8.6 4.5 3.9 6.6 2.3 1.4 5.5 4.1 5.6 5.7-.2-.3-6.4-7.3-15.5-2.1 5.3-.2 12.3 2.2 13.7 5.9.5 1.2.7 2.4.7 3.4 0 1.4-.5 2.6-1.5 3.5.9 1.2 1.2 2.5 1.2 3.6 0 2.1-1.1 3.7-1.1 3.7l-.1.2-.2-.1c-3.3-1.6-6.1-6-5.9-7.8.1-.5.3-.8.7-.8.7-.1 1.9.1 2.9.5-.7-.7-2.2-1.6-3.1-2 1-.1 1.8-.3 2.8-.4-2-.6-2.9-1.2-3.7-1.9l.2-.2q-1.2-1.05-2.1-2.7c.5 6.4 1.9 11.2 4.1 14.2 1.1 1.5 2 2.6 2.6 3.5l.1.1-.1.4c-.3 1-.6 1.7-2.9 2.5-2 .7-3 1.9-3.1 3.8 1.7-.1 5.3.6 7.5 3.1 1.2 1.3 1.7 2.9 1.7 4.8 0 .8-.1 1.6-.3 2.5-.9 4-4.8 6.4-8.4 6.9 1.8 1.3 4.8 2.2 8.2 1.3 4.2-1.1 5.9-4.9 6.4-6.5.7-2.2.9-6.5-.2-8.6 2.4 1.2 3.4 4.1 3.7 8.1 0 .4.1.9.1 1.3 0 2.5-.5 5-.9 6.3 1.8-1.1 5.6-4.7 6.2-9.4.1-.5.1-1.1.1-1.6 0-3.5-1.5-6.4-4.6-9.2l-.7-.7 1 .2c3.6.8 5.6 1.9 7 3-1.2-3.2-5.4-5.4-6.6-5.8 3.6-.5 12.6-4.5 13.4-13 .1-.7.1-1.4.1-2 0-4-1.1-5.9-2.1-7.6-.6-1.1-1.2-2.1-1.4-3.3-.5-2.6-.6-4.5-.6-5.9"
       class="st3"
       id="path20" /></g></svg>
