<?xml version="1.0" encoding="UTF-8" standalone="no"?>
<svg
   viewBox="2.68 2.68 310.64 310.64"
   version="1.1"
   id="svg10"
   sodipodi:docname="machida-zelvia.svg"
   inkscape:version="1.4.2 (f4327f4, 2025-05-13)"
   xmlns:inkscape="http://www.inkscape.org/namespaces/inkscape"
   xmlns:sodipodi="http://sodipodi.sourceforge.net/DTD/sodipodi-0.dtd"
   xmlns="http://www.w3.org/2000/svg"
   xmlns:svg="http://www.w3.org/2000/svg">
  <defs
     id="defs10" />
  <sodipodi:namedview
     id="namedview10"
     pagecolor="#ffffff"
     bordercolor="#000000"
     borderopacity="0.25"
     inkscape:showpageshadow="2"
     inkscape:pageopacity="0.0"
     inkscape:pagecheckerboard="0"
     inkscape:deskcolor="#d1d1d1"
     inkscape:zoom="2.5978624"
     inkscape:cx="155.32001"
     inkscape:cy="155.32001"
     inkscape:window-width="1920"
     inkscape:window-height="1009"
     inkscape:window-x="-8"
     inkscape:window-y="-8"
     inkscape:window-maximized="1"
     inkscape:current-layer="svg10" />
  <path
     d="M502.857 672.286a158 158 0 1 1 158-158 158.203 158.203 0 0 1-158 158"
     class="cls-1"
     style="fill:none;stroke-width:2.03007"
     transform="translate(-344.857 -356.286)"
     id="path1" />
  <path
     d="M502.857 669.606a155.32 155.32 0 1 1 155.32-155.32 155.483 155.483 0 0 1-155.32 155.32"
     class="cls-2"
     style="fill:#182865;stroke-width:2.03007"
     transform="translate(-344.857 -356.286)"
     id="path2" />
  <path
     d="M502.857 657.852a143.587 143.587 0 1 1 143.587-143.566 143.73 143.73 0 0 1-143.587 143.566"
     class="cls-3"
     style="fill:#c1ad76;stroke-width:2.03007"
     transform="translate(-344.857 -356.286)"
     id="path3" />
  <path
     d="M502.857 651.985a137.7 137.7 0 1 0-137.7-137.7 137.86 137.86 0 0 0 137.7 137.7"
     class="cls-4"
     style="fill:#fff;stroke-width:2.03007"
     transform="translate(-344.857 -356.286)"
     id="path4" />
  <path
     d="M634.69 514.286a131.832 131.832 0 1 1-131.833-131.833A131.83 131.83 0 0 1 634.69 514.286"
     class="cls-2"
     style="fill:#182865;stroke-width:2.03007"
     transform="translate(-344.857 -356.286)"
     id="path5" />
  <path
     d="M443.58 632.03a131.95 131.95 0 0 0 118.555 0V396.542a132.1 132.1 0 0 0-118.556 0z"
     class="cls-5"
     style="fill:#0056a4;stroke-width:2.03007"
     transform="translate(-344.857 -356.286)"
     id="path6" />
  <path
     d="M531.786 429.023h-137.03a140 140 0 0 0-10.15 14.556h89.445c3.593 0 5.359 2.943 0 6.536l-108.589 73.347q.305 4.628.914 9.196h22.188s140.4-94.703 144.744-97.545c3.776-2.517 2.132-6.09-1.462-6.09m-3.41 87.699c-3.593 0-5.36-2.924 0-6.517l94.378-63.642a136.4 136.4 0 0 0-11.775-17.54h-5.501c1.36 2.03 0 4.405-3.147 6.537l-144.073 97.098h181.02a142 142 0 0 0 1.198-15.896zm57.35-87.699h-33.578c1.34 2.03 0 4.405-3.167 6.537L405.07 532.658h36.764L585.806 435.6c5.318-3.593 3.552-6.536 0-6.536"
     class="cls-4"
     style="fill:#fff;stroke-width:2.03007"
     transform="translate(-344.857 -356.286)"
     id="path7" />
  <path
     d="M468.813 608.785h-1.32v-.122a.3.3 0 0 1 0-.121.3.3 0 0 0 0-.183 1 1 0 0 1 0-.162 4 4 0 0 0-.406-.366 3 3 0 0 0-.507-.284 3 3 0 0 0-.589-.203 3 3 0 0 0-.609-.102h-.162a4.5 4.5 0 0 0-.772 0 2.5 2.5 0 0 0-.629.224 1.06 1.06 0 0 0-.386.325.73.73 0 0 0-.142.446.55.55 0 0 0 .183.426.95.95 0 0 0 .487.305l.73.203.854.162h.933a10 10 0 0 1 1.137.285 8 8 0 0 1 1.036.426 1.7 1.7 0 0 1 .75.65 2.13 2.13 0 0 1 .244 1.055 2.4 2.4 0 0 1-.264 1.157 2.25 2.25 0 0 1-.75.833 4 4 0 0 1-1.24.507 6.6 6.6 0 0 1-1.643.163h-1.035l-.732-.163a4 4 0 0 1-.69-.243 2.8 2.8 0 0 1-.609-.386l-.284.63h-1.137v-3.33h.995v.548a1.5 1.5 0 0 0 .426.345 2.8 2.8 0 0 0 .61.305l.71.182a5 5 0 0 0 .771 0 3.7 3.7 0 0 0 .71 0 2.5 2.5 0 0 0 .59-.223 1.6 1.6 0 0 0 .385-.325.73.73 0 0 0 .122-.406 1.2 1.2 0 0 0 0-.304.55.55 0 0 0-.122-.203l-.244-.163a2.6 2.6 0 0 0-.426-.142h-1.116l-1.442-.304a5.6 5.6 0 0 1-1.116-.264 4 4 0 0 1-.893-.386 1.52 1.52 0 0 1-.61-.63 2.5 2.5 0 0 1-.203-.994 2.44 2.44 0 0 1 .264-1.096 2.25 2.25 0 0 1 .792-.853 3.7 3.7 0 0 1 1.218-.528 6.6 6.6 0 0 1 1.604-.182 5 5 0 0 1 .812 0 4 4 0 0 1 .73.121 4 4 0 0 1 .63.244 3.7 3.7 0 0 1 .61.365l.202-.568h1.117zM470.112 605.923h5.238v.995h-.61a1.7 1.7 0 0 0-.365 0h-.223a.3.3 0 0 0-.122.182.43.43 0 0 0 0 .244v4.831a.53.53 0 0 0 0 .285.3.3 0 0 0 .122.182.6.6 0 0 0 .223 0h.975v.975h-5.238v-.975h1.34a.33.33 0 0 0 .122-.162.55.55 0 0 0 0-.264v-4.75a.4.4 0 0 0 0-.224.3.3 0 0 0-.122-.182h-1.339zM485.358 611.384v-3.918a.4.4 0 0 0 0-.224.3.3 0 0 0-.122-.182h-1.259v-.995h4.264v.995h-.569a1.7 1.7 0 0 0-.365 0h-.223a.45.45 0 0 0-.143.182.8.8 0 0 0 0 .244v6.374h-2.354l-4.771-5.562v4.06a.6.6 0 0 0 0 .284.3.3 0 0 0 .122.183.7.7 0 0 0 .243 0h1.097v.975h-4.507v-.975h1.34a.33.33 0 0 0 .121-.162 1 1 0 0 0 0-.264v-4.933a.7.7 0 0 0 0-.224.3.3 0 0 0-.121-.182h-1.3399999999999999v-.995h3.918z"
     class="cls-4"
     style="fill:#fff;stroke-width:2.03007"
     transform="translate(-344.857 -356.286)"
     id="path9" />
  <path
     d="M497.071 609.11h-1.38a3 3 0 0 0-.244-.913 2 2 0 0 0-.527-.711 2.4 2.4 0 0 0-.792-.447 3.2 3.2 0 0 0-1.015-.142 2.9 2.9 0 0 0-1.157.203 2.03 2.03 0 0 0-.894.61 2.6 2.6 0 0 0-.568.933 4 4 0 0 0-.183 1.238 4.3 4.3 0 0 0 .183 1.32 2.4 2.4 0 0 0 .528.954 2.2 2.2 0 0 0 .893.589 3.05 3.05 0 0 0 1.178.203 3.1 3.1 0 0 0 .994-.142 2.2 2.2 0 0 0 .812-.427 2.4 2.4 0 0 0 .569-.69 3.1 3.1 0 0 0 .345-.954h1.461a3.9 3.9 0 0 1-.487 1.462 3.2 3.2 0 0 1-.954 1.055 4.1 4.1 0 0 1-1.4.67 6.8 6.8 0 0 1-1.767.203 6 6 0 0 1-2.03-.284 4.6 4.6 0 0 1-1.583-.853 4.2 4.2 0 0 1-1.036-1.32 3.76 3.76 0 0 1-.365-1.643 4.06 4.06 0 0 1 1.4-3.106 5.2 5.2 0 0 1 1.604-.894 6.4 6.4 0 0 1 2.03-.304h1.016l.466.101a2.4 2.4 0 0 1 .447.163l.223.101.224.122.223.122.264.142.304-.69h1.137zM507.83 609.029h-1.278a3.6 3.6 0 0 0-.142-.853 2.4 2.4 0 0 0-.244-.65 1.03 1.03 0 0 0-.589-.426 4 4 0 0 0-1.116-.121h-2.517v2.293h1.076a1.5 1.5 0 0 0 .466 0 .43.43 0 0 0 .285-.142.5.5 0 0 0 .182-.284 1.4 1.4 0 0 0 0-.446v-.447h1.28v3.776h-1.28v-.487a1.5 1.5 0 0 0 0-.447.45.45 0 0 0-.162-.264.7.7 0 0 0-.325-.142h-1.522v2.558h2.78a2 2 0 0 0 .813-.142 1.18 1.18 0 0 0 .568-.406 2 2 0 0 0 .345-.731 5.5 5.5 0 0 0 0-1.076h1.34v3.39h-9.744v-.974h1.137a.7.7 0 0 0 .203 0 .33.33 0 0 0 .122-.163.6.6 0 0 0 0-.264v-5.115a.4.4 0 0 0 0-.224.3.3 0 0 0-.122-.182h-1.3399999999999999v-.995h9.744zM517.474 612.257a.65.65 0 0 0 0 .284.45.45 0 0 0 .142.183h1.847v1.035h-6.415v-1.035h1.766a.37.37 0 0 0 .142-.163.65.65 0 0 0 0-.284v-4.06h-2.03v-1.056h.203l.975-.142a3 3 0 0 0 .69-.243 2 2 0 0 0 .507-.427 2.5 2.5 0 0 0 .386-.69h1.604zM525.025 610.633h-1.867a4.8 4.8 0 0 1-1.38-.203 2.8 2.8 0 0 1-.995-.569 3.2 3.2 0 0 1-.61-.893 2.4 2.4 0 0 1-.202-1.035 2.2 2.2 0 0 1 .264-1.097 2.66 2.66 0 0 1 .791-.873 3.9 3.9 0 0 1 1.198-.588 6 6 0 0 1 1.523-.183 5.1 5.1 0 0 1 1.664.244 3.2 3.2 0 0 1 1.239.75 3.5 3.5 0 0 1 .791 1.219 5 5 0 0 1 .264 1.644 6.2 6.2 0 0 1-.284 2.03 4.1 4.1 0 0 1-.873 1.442 3.6 3.6 0 0 1-1.4.873 5.8 5.8 0 0 1-1.868.284 5.7 5.7 0 0 1-1.218-.102 2.6 2.6 0 0 1-.955-.325 1.7 1.7 0 0 1-.609-.507 1.14 1.14 0 0 1-.223-.65.85.85 0 0 1 .102-.406.95.95 0 0 1 .304-.345 1.4 1.4 0 0 1 .426-.223 2 2 0 0 1 .528 0 1.7 1.7 0 0 1 .467 0 .9.9 0 0 1 .366.183 1 1 0 0 1 .284.304 1 1 0 0 1 0 .345v.142a.3.3 0 0 1 0 .122v.122l-.122.122h.6699999999999999a2.7 2.7 0 0 0 .934-.163 1.75 1.75 0 0 0 .67-.467 1.8 1.8 0 0 0 .406-.791 3 3 0 0 0 .182-1.097l-.203.122m-2.476-1.664a1.8 1.8 0 0 0 .284.548 1.16 1.16 0 0 0 .447.345 1.4 1.4 0 0 0 .588.122 1.5 1.5 0 0 0 .548 0 1.6 1.6 0 0 0 .427-.305 1.5 1.5 0 0 0 .264-.507 1.8 1.8 0 0 0 0-.67 2.2 2.2 0 0 0 0-.751 1.2 1.2 0 0 0-.285-.549 1.5 1.5 0 0 0-.446-.365 1.7 1.7 0 0 0-.589 0 1.5 1.5 0 0 0-.548 0 1.14 1.14 0 0 0-.426.345 1.4 1.4 0 0 0-.264.528 2.2 2.2 0 0 0 0 .67 2.5 2.5 0 0 0 0 .71M530.222 609.699h-.162l-.162-.102h-.142l-.366-.325-.264-.324a1.4 1.4 0 0 1-.122-.386 3 3 0 0 1 0-.426 1.8 1.8 0 0 1 .264-.995 2.7 2.7 0 0 1 .792-.792 4.3 4.3 0 0 1 1.238-.487 6.6 6.6 0 0 1 1.604-.162 7 7 0 0 1 1.36.121 4.2 4.2 0 0 1 1.076.427 2 2 0 0 1 .69.629 1.32 1.32 0 0 1 .244.792 1.7 1.7 0 0 1 0 .467 2 2 0 0 1-.142.385l-.284.325a2 2 0 0 1-.447.305 3.8 3.8 0 0 1 .812.365 3 3 0 0 1 .61.447 2 2 0 0 1 .365.568 1.7 1.7 0 0 1 .121.65 2.3 2.3 0 0 1-.264 1.076 2.7 2.7 0 0 1-.832.832 4 4 0 0 1-1.259.528 8 8 0 0 1-1.644.162 7.8 7.8 0 0 1-1.624-.142 3.1 3.1 0 0 1-1.177-.426 2.03 2.03 0 0 1-.751-.731 2 2 0 0 1-.244-.974 1.7 1.7 0 0 1 0-.467.85.85 0 0 1 .162-.366.95.95 0 0 1 .305-.345 3 3 0 0 1 .446-.325h.346-.203m1.157.731-.203.142-.183.163-.142.142a1.1 1.1 0 0 0-.183.345.7.7 0 0 0 0 .365 1.4 1.4 0 0 0 .122.569 1.4 1.4 0 0 0 .426.426 2 2 0 0 0 .67.264 4.2 4.2 0 0 0 .914 0 4 4 0 0 0 .73 0 1.9 1.9 0 0 0 .59-.223 1.1 1.1 0 0 0 .405-.325.65.65 0 0 0 .122-.406.7.7 0 0 0-.122-.386 1.4 1.4 0 0 0-.406-.345 3 3 0 0 0-.568-.305l-.61-.243-.324-.102h-.893l-.284.163m2.578-1.909a1.5 1.5 0 0 0 .325-.284 1.6 1.6 0 0 0 .182-.284.65.65 0 0 0 0-.325.9.9 0 0 0-.142-.446 1.1 1.1 0 0 0-.386-.345 2 2 0 0 0-.568-.224 4 4 0 0 0-.73 0 4.6 4.6 0 0 0-.772 0 1.6 1.6 0 0 0-.569.203.77.77 0 0 0-.365.284.7.7 0 0 0-.142.386.5.5 0 0 0 0 .163.4.4 0 0 0 0 .162l.142.142.223.122h1.726a2.6 2.6 0 0 0 .467-.264M542.91 610.633h-1.5230000000000001a4.6 4.6 0 0 1-1.38-.203 2.7 2.7 0 0 1-1.015-.569 3.2 3.2 0 0 1-.609-.893 2.4 2.4 0 0 1-.203-1.035 2.2 2.2 0 0 1 .264-1.097 2.66 2.66 0 0 1 .792-.873 3.9 3.9 0 0 1 1.198-.588 6 6 0 0 1 1.522-.183 5.1 5.1 0 0 1 1.665.244 3.3 3.3 0 0 1 1.238.75 3.25 3.25 0 0 1 .792 1.219 5 5 0 0 1 .264 1.644 6.2 6.2 0 0 1-.284 2.03 4.1 4.1 0 0 1-.873 1.442 3.6 3.6 0 0 1-1.401.873 6.66 6.66 0 0 1-3.086.182 2.6 2.6 0 0 1-.954-.325 2 2 0 0 1-.609-.507 1.1 1.1 0 0 1-.203-.65.85.85 0 0 1 0-.406 1.2 1.2 0 0 1 .305-.345 1.4 1.4 0 0 1 .426-.223 2 2 0 0 1 .528 0 1.7 1.7 0 0 1 .467 0 1.1 1.1 0 0 1 .385.183.9.9 0 0 1 .264.304.7.7 0 0 1 0 .345.35.35 0 0 1 0 .142.3.3 0 0 1 0 .122v.122l-.122.122h.65a2.7 2.7 0 0 0 .934-.163 1.75 1.75 0 0 0 .67-.467 2 2 0 0 0 .426-.791 4.3 4.3 0 0 0 .163-1.097l-.224.122m-2.456-1.664a1.8 1.8 0 0 0 .284.548 1.1 1.1 0 0 0 .467.345 1.24 1.24 0 0 0 .568.122 1.7 1.7 0 0 0 .569 0 2 2 0 0 0 .406-.305 1.5 1.5 0 0 0 .264-.507 1.8 1.8 0 0 0 .101-.67 2.2 2.2 0 0 0-.101-.751 1.2 1.2 0 0 0-.284-.549 1.3 1.3 0 0 0-.447-.365 1.7 1.7 0 0 0-.589 0 1.5 1.5 0 0 0-.548 0 1.14 1.14 0 0 0-.426.345 1.4 1.4 0 0 0-.264.528 2.3 2.3 0 0 0 0 .67 2.5 2.5 0 0 0 0 .71"
     class="cls-4"
     style="fill:#fff;stroke-width:2.03007"
     transform="translate(-344.857 -356.286)"
     id="path10" />
</svg>
