<?xml version="1.0" encoding="UTF-8" standalone="no"?>
<svg
   xml:space="preserve"
   id="レイヤー_1"
   x="0"
   y="0"
   version="1.1"
   viewBox="12.46 3.38 114.74 140.82"
   sodipodi:docname="nagoya-grampus.svg"
   inkscape:version="1.4.2 (f4327f4, 2025-05-13)"
   xmlns:inkscape="http://www.inkscape.org/namespaces/inkscape"
   xmlns:sodipodi="http://sodipodi.sourceforge.net/DTD/sodipodi-0.dtd"
   xmlns="http://www.w3.org/2000/svg"
   xmlns:svg="http://www.w3.org/2000/svg"><defs
     id="defs6" /><sodipodi:namedview
     id="namedview6"
     pagecolor="#ffffff"
     bordercolor="#000000"
     borderopacity="0.25"
     inkscape:showpageshadow="2"
     inkscape:pageopacity="0.0"
     inkscape:pagecheckerboard="0"
     inkscape:deskcolor="#d1d1d1"
     inkscape:zoom="5.7307198"
     inkscape:cx="57.322642"
     inkscape:cy="77.564428"
     inkscape:window-width="1920"
     inkscape:window-height="1009"
     inkscape:window-x="-8"
     inkscape:window-y="-8"
     inkscape:window-maximized="1"
     inkscape:current-layer="レイヤー_1" /><style
     id="style1">.st0{fill:#baa85b}.st2{fill:#d80c18}</style><path
     d="M82.4 114.7q10.65-4.35 16.8-11.4c4.9-5.6 7.4-12.2 7.4-19.7V43.2l-37-20.4-37 20.4v40.5c0 7.4 2.5 14.1 7.4 19.7 4.1 4.6 9.8 8.5 16.8 11.4 3.4 1.4 7.3 3.1 10.6 5.7.3.3 1.2.9 1.2.9l.9.7.9-.7 1.2-.9c3.5-2.6 7.4-4.4 10.8-5.8"
     style="fill:#f8b500"
     id="path2" /><path
     d="m69.7 22.8 37 20.4v40.5c0 7.4-2.5 14.1-7.4 19.7-4.1 4.6-9.8 8.5-16.8 11.4-3.4 1.4-7.3 3.1-10.6 5.7-.3.3-1.2.9-1.2.9l-.9.7-.9-.7-1.2-.9c-3.3-2.5-7.2-4.3-10.6-5.7q-10.65-4.35-16.8-11.4c-4.9-5.6-7.4-12.2-7.4-19.7V43.2zM30 41.6v42.1c0 8.1 2.7 15.3 8.1 21.4 4.4 4.9 10.4 9 17.8 12.1 3.2 1.3 6.9 3 10 5.3.2.2 2.1 1.6 2.1 1.6l1.6 1.3 1.6-1.3s1.8-1.4 2.1-1.6c3.1-2.4 6.8-4 10-5.3 7.4-3.1 13.4-7.1 17.8-12.1 5.4-6.1 8.1-13.3 8.1-21.4V41.6L69.7 19.8z"
     class="st0"
     id="path3" /><path
     d="M99.2 103.4c4.9-5.6 7.4-12.2 7.4-19.7V43.2L91.9 35v74.7c2.8-1.9 5.3-4 7.3-6.3M32.7 43.2v40.5c0 7.4 2.5 14.1 7.4 19.7 2.1 2.3 4.5 4.4 7.3 6.3V35.1zM71.6 110.8c-1-2.4-2.8-4-5.5-4.4 0 0 2.2 2.4 2.4 5.4.3 2.4.9 3.6 2.8 3.7 1.7 0 3.3-2.2 3.3-2.2s-1.9.4-3-2.5M76.6 64.3c-1.1 2.7-4.1 5.8-3.5 8s2.8 2.4 6.1 3.6c0 0-2.7-2.1-3.4-4.7s.5-4 .8-6.9M71.3 100.9s1.8-2.1 1.5-7c-.2-2.4-.1-4.4 2.7-6.1 0 0 4.6-2.8 9.6-.9 1.1.4 3.9 1.4 5.2 4.2 0 0-.6-5.4-6.4-7.1-2.4-.6-5.1-.8-8.7 1.4-1.5.9-2.8 2.1-4 3.4-.8.9-1.1 1.4-1.7 2 0 0-3.1 3.2-5.8 4.8 0 0 5.6-.2 7.6 5.3"
     class="st2"
     id="path4" /><path
     d="M84.4 88.7c-6.4-1.2-10 3.1-10 3.1 6.1.3 7.5 5.4 6.8 10.3-.7 5.2-6.5 11.1-6.5 11.1 9-4.3 12-9.4 12.1-14.9 0-5.5-4.8-6.9-4.8-6.9 8.9 1.1 6 11 6 11 5.2-8.9-.1-12.9-3.6-13.7M64.9 53.7c6.7-4.4 8-8.2 8.2-10.6.3-3.2-.6-5.8-1.2-7.8-1.1-4.3-2.1-8.8-2.1-8.8-1.1 4.6 0 10 .2 11.9.1 2.4-.2 3.8-.4 5.1-.9 5-4.7 10.2-4.7 10.2"
     class="st2"
     id="path5" /><path
     d="M71.8 85.7c2.1-1.8 5.7-3.6 7.8-3.7 0 0-8.3-3.8-18.5 4.8 0 0 7.1-2.9 7.9-2s-4.3 4.8-5.7 5.7-7.1 4.9-8 3.3 1.1-5.4 2.5-7.3c1-1.3 3-3.3 5.6-4.8 1-.6 2-1.1 3.2-1.5 1-.3 3.3-.8 5.8-.9 3.8-.2 8.6.5 13.9 4 0 0-6.3-5.7-10.5-6.8-2.9-.8-5.6-3.3-4.3-7.1 1.2-3.6 6.9-8.1 5.2-18.5 0 .3-.5 3.3-3 7.5-1.1 1.8-3.1 4-4.8 6.4 3.4-7.2 8.5-15.4 6-22.6 0 0 .1 2.9-1 5-1 1.9-2.1 3.3-5.6 6-3.4 2.7-4.9 3.2-6.7 7.5 0 0-1 1.8-.9 4.8s3.1 7.6 3.1 7.6-1.6-4.4.9-10.1c1.2-2.9 2.6-4.4 4.1-6-5.9 14.3-2 18.2-2 18.2s-1 .1-3.8 1.2c0 0-7.1 2.7-11.5 9.2-2.3 3.6-2.7 6.7-2.7 6.7s-.6 3.5.2 4.7c1.1 1.7 3.5 1.4 6.9.3 2.2-.9 6.4-3.4 8.8-5.4 2.5-2.1 5.3-4.6 7.1-6.2"
     class="st2"
     id="path6" /></svg>
