<?xml version="1.0" encoding="UTF-8" standalone="no"?>
<svg
   xml:space="preserve"
   id="authense"
   x="0"
   y="0"
   version="1.1"
   viewBox="1.25 1.25 197.1 254"
   sodipodi:docname="tokyo-verdy.svg"
   inkscape:version="1.4.2 (f4327f4, 2025-05-13)"
   xmlns:inkscape="http://www.inkscape.org/namespaces/inkscape"
   xmlns:sodipodi="http://sodipodi.sourceforge.net/DTD/sodipodi-0.dtd"
   xmlns="http://www.w3.org/2000/svg"
   xmlns:svg="http://www.w3.org/2000/svg"><defs
     id="defs1" /><sodipodi:namedview
     id="namedview1"
     pagecolor="#ffffff"
     bordercolor="#000000"
     borderopacity="0.25"
     inkscape:showpageshadow="2"
     inkscape:pageopacity="0.0"
     inkscape:pagecheckerboard="0"
     inkscape:deskcolor="#d1d1d1"
     inkscape:zoom="3.1771654"
     inkscape:cx="98.672862"
     inkscape:cy="122.59356"
     inkscape:window-width="1920"
     inkscape:window-height="1009"
     inkscape:window-x="-8"
     inkscape:window-y="-8"
     inkscape:window-maximized="1"
     inkscape:current-layer="g26" /><style
     id="style2"
     type="text/css">.st0{fill:#aa9767}.st1{fill:#006937}</style><g
     id="g53"
     transform="translate(-50.15 -21.75)"><g
       id="g26" /><path
       id="path28"
       d="M150.3 277c-41.6-16.5-98.9-51.1-98.9-112.7V61.6h196.7v102.7c.1 61.6-57 96.2-97.8 112.7"
       class="st0"
       style="fill:#aa9767" /><path
       id="path30"
       d="M230.2 127.6c4 0 7.5-3.4 7.5-7.5h-25.5c-.1-1.2-.2-2.3-.4-3.4l17.8-3.1c4-.8 6.7-4.6 6.1-8.7l-25.5 4.5c-.3-1.2-.6-2.2-1-3.1l17.5-6.4c3.8-1.4 5.9-5.7 4.5-9.6l-24.5 8.9c-.4-1.1-1-2.1-1.4-2.9l16.3-9.3c3.6-2.1 4.8-6.6 2.7-10.2l-1.5 1-39.3 22.7c4.6 6.5 7.4 14.5 7.4 23.2 0 11.4-4.7 21.6-12.3 29L158.2 104c-1-2.4-2.5-3.5-4.9-3.7h-9.4c-1.3 0-2.4.4-3.7 1.3l-14.1 9.2c-1.3 1-2.1 2.1-2.1 3v2.2h18.1l-20.4 36.6c-7.6-7.4-12.3-17.7-12.3-29 0-8.7 2.7-16.6 7.4-23.2L77.5 77.7l-1.5-1c-2.1 3.6-.9 8.1 2.7 10.2L95 96.3c-.5 1.1-1 2-1.4 2.9l-24.5-8.9c-1.7 3.9.4 8.1 4.3 9.7l17.5 6.4c-.3 1.1-.8 2.2-1 3.1l-25.6-4.3c-.8 4 2.1 7.9 6.1 8.7l17.8 3.1c-.2 1.2-.3 2.3-.4 3.4H62.4c0 4 3.4 7.5 7.5 7.5h17.8c0 1.2.1 2.4.2 3.5l-24.8 4.3c.8 4 4.6 6.7 8.7 6.1l17.3-3c.2 1.2.5 2.4.9 3.5l-23.3 8.2c1.4 3.8 5.7 5.9 9.6 4.5l16.2-5.9c.4 1.2 1 2.3 1.4 3.3l-21.3 12.3c2.1 3.6 6.6 4.8 10.2 2.7l14.5-8.4q.9 1.65 2.1 3l-18.5 15.5c2.6 3.1 7.4 3.6 10.5 1l12.5-10.7c.9 1 1.6 1.8 2.5 2.6l-15.5 18.1c3.1 2.6 7.8 2.3 10.5-1l10.5-12.5c1.1.8 2 1.5 3 2.3L103 198.2c3.6 2.1 8.1.9 10.2-2.7l8-13.9c1.2.6 2.3 1.2 3.4 1.6l-14.5 40.2c3.8 1.4 8.1-.6 9.6-4.5l12-33c1.3.4 2.4.8 3.6 1.1l-10.2 57.6c4 .8 7.9-2 8.7-6.1l8.9-50.3c1.3.1 2.5.3 3.8.3V259c0 2.7 1.5 5.2 3.8 6.4 2.3-1.3 3.8-3.7 3.8-6.4v-70.7c1.3-.1 2.5-.2 3.8-.3l8.5 50.3c.8 4 4.6 6.7 8.7 6.1l-10.2-57.6c1.3-.3 2.4-.6 3.6-1.1l12 33c1.4 3.8 5.7 5.9 9.6 4.5L175.6 183c1.2-.5 2.3-1.1 3.4-1.6l8 13.9c2.1 3.6 6.6 4.8 10.2 2.7L185 177.5c1.1-.8 2.1-1.4 3-2.3l10.5 12.5c2.6 3.1 7.4 3.6 10.5 1l-15.3-18.2c1-.9 1.7-1.7 2.5-2.6l12.7 10.6c3.1 2.6 7.8 2.3 10.5-1l-18.6-15.7c.8-1.1 1.3-2.1 2.1-3l14.5 8.4c3.6 2.1 8.1.9 10.2-2.7l-21.3-12.3c.5-1.2 1.1-2.2 1.4-3.3l16.2 5.9c3.8 1.4 8.1-.6 9.6-4.5l-23.2-8.5c.3-1.2.6-2.3.9-3.5l17.3 3c4 .8 7.9-2.1 8.7-6.1l-24.8-4.3c.1-1.2.2-2.4.2-3.5h17.6zm-91.9-21.8h15.1l-9.7 6.1z"
       class="st1"
       style="fill:#006937" /></g></svg>
