<?xml version="1.0" encoding="UTF-8" standalone="no"?>
<svg
   viewBox="0 0 73.55 95.25"
   version="1.1"
   id="svg91"
   sodipodi:docname="urawa-reds.svg"
   inkscape:version="1.4.2 (f4327f4, 2025-05-13)"
   xmlns:inkscape="http://www.inkscape.org/namespaces/inkscape"
   xmlns:sodipodi="http://sodipodi.sourceforge.net/DTD/sodipodi-0.dtd"
   xmlns="http://www.w3.org/2000/svg"
   xmlns:svg="http://www.w3.org/2000/svg">
  <defs
     id="defs91" />
  <sodipodi:namedview
     id="namedview91"
     pagecolor="#ffffff"
     bordercolor="#000000"
     borderopacity="0.25"
     inkscape:showpageshadow="2"
     inkscape:pageopacity="0.0"
     inkscape:pagecheckerboard="0"
     inkscape:deskcolor="#d1d1d1"
     inkscape:zoom="8.4724409"
     inkscape:cx="36.766264"
     inkscape:cy="47.625"
     inkscape:window-width="1920"
     inkscape:window-height="1009"
     inkscape:window-x="-8"
     inkscape:window-y="-8"
     inkscape:window-maximized="1"
     inkscape:current-layer="svg91" />
  <path
     d="m206.352 233.59-1.565-.874a62 62 0 0 1-6.684-4.292 55.2 55.2 0 0 1-17.944-5.318 2.086 2.086 0 0 1-.913-2.835 49 49 0 0 1-8.868-5.607 2.103 2.103 0 0 1 1.095-3.725l3.401-.363-.215-3.067a2.09 2.09 0 0 1 1.134-2.001 2 2 0 0 1 .3-.125 3.78 3.78 0 0 1 1.469-1.843 2.97 2.97 0 0 1 .794-1.32c-6.146-15.96-5.715-32.8-5.455-43 .046-1.853.091-8.073.091-8.073v-3.266l-.38-.64v-1.701l6.084-2.705 1.752-1.86 1.746 1.855.84.345h11.77l1.377-.17 8.397-2.76 1.774-1.906 1.775 1.905 8.397 2.761 1.377.17H229.7l.839-.345 1.746-1.854 1.752 1.86 6.084 2.704v1.7s-.375.641-.38.641v3.266s.045 6.237.09 8.074c.261 10.205.692 27.038-5.454 42.981a2.97 2.97 0 0 1 .794 1.321 3.78 3.78 0 0 1 1.469 1.865 2 2 0 0 1 .3.125 2.09 2.09 0 0 1 1.134 2.002l-.198 3.112 3.401.363a2.103 2.103 0 0 1 1.095 3.725 49 49 0 0 1-8.868 5.607 2.086 2.086 0 0 1-.913 2.835 55.2 55.2 0 0 1-17.944 5.318 62 62 0 0 1-6.685 4.292z"
     class="cls-1"
     style="fill:#fff;stroke-width:.566965"
     transform="translate(-169.6 -138.34)"
     id="path1" />
  <path
     d="M241.328 212.986a.32.32 0 0 0-.283-.238l-5.069-.567.306-4.802a.335.335 0 0 0-.538-.284l-.33.295a.1.1 0 0 1 0-.034 1.9 1.9 0 0 0-.34-.612 1.8 1.8 0 0 0-.084-.692 2.07 2.07 0 0 0-1.542-1.384l.028-.124a1.18 1.18 0 0 0-1.412-1.39c6.685-16.073 6.237-33.405 5.982-43.922-.051-1.865-.091-3.481-.091-4.887v-1.44h-63.21v1.462c0 1.406-.04 3.022-.092 4.888-.266 10.517-.703 27.855 5.982 43.922a1.17 1.17 0 0 0-1.038.255 1.19 1.19 0 0 0-.385 1.134v.125a2.06 2.06 0 0 0-1.537 1.384 1.8 1.8 0 0 0-.09.691 1.8 1.8 0 0 0-.335.613v.034l-.323-.295a.335.335 0 0 0-.567.283l.306 4.802-5.069.567a.34.34 0 0 0-.283.238.33.33 0 0 0 .113.352 48.7 48.7 0 0 0 10.206 6.237l-.828 1.52a.35.35 0 0 0-.034.26.34.34 0 0 0 .17.204 53.6 53.6 0 0 0 17.837 5.205 60 60 0 0 0 6.86 4.44l.709.39.708-.39a60 60 0 0 0 6.86-4.44 53.7 53.7 0 0 0 17.826-5.205.32.32 0 0 0 .164-.204.32.32 0 0 0 0-.26l-.89-1.543a48.6 48.6 0 0 0 10.234-6.237.34.34 0 0 0 .08-.351"
     style="stroke-width:.566965"
     transform="translate(-169.6 -138.34)"
     id="path2" />
  <path
     d="M194.99 150.178h.204v.272h-.204zM193 147.637h.198v.272H193zM193 148.08h.198v.272H193zM193 148.964h.198v.272H193zM192.626 148.964h.204v.272h-.204zM193 148.522h.198v.272H193zM195.365 151.504h.198v.272h-.198zM195.365 151.062h.198v.272h-.198zM194.99 151.062h.204v.272h-.204zM194.99 150.62h.204v.272h-.204zM194.99 151.504h.204v.272h-.204zM192.626 151.062h.204v.272h-.204zM192.626 148.522h.204v.272h-.204zM192.626 151.504h.204v.272h-.204zM190.636 147.637h.198v.272h-.198zM192.626 150.178h.204v.272h-.204zM192.626 150.62h.204v.272h-.204zM195.365 150.62h.198v.272h-.198zM192.626 148.08h.204v.272h-.204zM192.626 147.637h.204v.272h-.204zM193 150.62h.198v.272H193zM193 150.178h.198v.272H193zM193 151.062h.198v.272H193zM193 151.504h.198v.272H193zM198.936 149.542h.437v.397h-.437zM198.936 151.249h.437v.397h-.437zM199.543 150.682h.425v.397h-.425zM195.365 150.178h.198v.272h-.198zM198.936 150.682h.437v.397h-.437zM199.543 151.249h.425v.397h-.425zM201.255 150.109h.437v.397h-.437zM199.543 150.109h.425v.397h-.425zM201.255 150.682h.437v.397h-.437zM201.255 149.542h.437v.397h-.437zM201.862 149.542h.425v.397h-.425zM201.255 151.249h.437v.397h-.437zM194.99 148.964h.204v.272h-.204zM194.99 148.522h.204v.272h-.204zM194.99 147.637h.204v.272h-.204zM194.99 148.08h.204v.272h-.204zM195.365 148.964h.198v.272h-.198z"
     class="cls-1"
     style="fill:#fff;stroke-width:.566965"
     transform="translate(-169.6 -138.34)"
     id="path3" />
  <path
     d="M186.452 146.753h-.08v.136h-.119v.136h-.119v.136h-.153.085v5.352h11.215v-5.76zm8.244.907.141-.283h.885l.141.283h-.124v1.548h.124l-.141.283h-.885l-.141-.283h.124v-1.548zm0 2.54.141-.283h.885l.141.283h-.124v1.542h.124l-.141.284h-.885l-.141-.284h.124V150.2zm-2.365-2.54.142-.283h.885l.141.283h-.124v1.548h.124l-.141.283h-.885l-.142-.283h.125v-1.548zm0 2.54.142-.283h.885l.141.283h-.124v1.542h.124l-.141.284h-.885l-.142-.284h.125V150.2zm-2.364-2.54.142-.283h.884l.142.283h-.125v1.548h.125l-.142.283h-.884l-.142-.283h.125v-1.548zm0 2.54.142-.283h.884l.142.283h-.125v1.542h.125l-.142.284h-.884l-.142-.284h.125V150.2zm-2.364-2.54.142-.283h.884l.142.283h-.125v1.548h.13l-.141.283h-.89l-.142-.283h.125v-1.548zm0 2.54.142-.283h.884l.142.283h-.125v1.542h.13l-.141.284h-.89l-.142-.284h.125V150.2z"
     class="cls-1"
     style="fill:#fff;stroke-width:.566965"
     transform="translate(-169.6 -138.34)"
     id="path4" />
  <path
     d="M195.365 148.522h.198v.272h-.198zM199.543 149.542h.425v.397h-.425zM195.365 147.637h.198v.272h-.198zM195.365 148.08h.198v.272h-.198zM198.936 150.109h.437v.397h-.437zM187.898 150.178h.204v.272h-.204zM182.54 152.513h3.356v-2.608h-3.356zm1.7-.493v-1.87h.92v1.938h-.92zm-1.44 0v-1.87h.92v1.938h-.936z"
     class="cls-1"
     style="fill:#fff;stroke-width:.566965"
     transform="translate(-169.6 -138.34)"
     id="path5" />
  <path
     d="M184.762 151.204h.204v.272h-.204zM187.898 150.62h.204v.272h-.204zM184.762 150.761h.204v.272h-.204zM188.272 151.504h.198v.272h-.198zM188.272 151.062h.198v.272h-.198zM188.272 150.178h.198v.272h-.198zM187.898 151.504h.204v.272h-.204zM187.898 151.062h.204v.272h-.204zM184.762 151.646h.204v.272h-.204zM188.272 150.62h.198v.272h-.198zM183.328 151.646h.204v.272h-.204zM182.959 151.646h.198v.272h-.198zM183.328 151.204h.204v.272h-.204zM182.959 151.204h.198v.272h-.198zM182.959 150.761h.198v.272h-.198zM184.394 151.646h.198v.272h-.198zM184.394 150.761h.198v.272h-.198zM183.328 150.761h.204v.272h-.204zM184.394 151.204h.198v.272h-.198zM184.394 150.319h.198v.272h-.198zM184.762 150.319h.204v.272h-.204zM190.636 148.08h.198v.272h-.198zM190.262 151.504h.204v.272h-.204zM190.636 150.62h.198v.272h-.198zM187.898 147.637h.204v.272h-.204zM190.636 151.504h.198v.272h-.198zM190.636 151.062h.198v.272h-.198zM190.262 147.637h.204v.272h-.204zM190.636 148.522h.198v.272h-.198zM190.636 148.964h.198v.272h-.198zM190.262 148.964h.204v.272h-.204zM190.262 148.08h.204v.272h-.204zM190.262 148.522h.204v.272h-.204zM190.636 150.178h.198v.272h-.198zM190.262 151.062h.204v.272h-.204zM188.272 148.522h.198v.272h-.198zM188.272 148.964h.198v.272h-.198zM187.898 148.522h.204v.272h-.204zM182.959 150.319h.198v.272h-.198zM187.898 148.964h.204v.272h-.204zM190.262 150.62h.204v.272h-.204zM190.262 150.178h.204v.272h-.204zM188.272 147.637h.198v.272h-.198zM188.272 148.08h.198v.272h-.198zM187.898 148.08h.204v.272h-.204zM236.634 148.114h.204v.272h-.204zM236.265 148.114h.198v.272h-.198zM234.837 148.998h.198v.272h-.198zM236.265 147.672h.198v.272h-.198zM236.634 147.672h.204v.272h-.204zM236.265 148.556h.198v.272h-.198zM234.837 148.114h.198v.272h-.198zM234.837 147.672h.198v.272h-.198zM235.205 148.556h.204v.272h-.204zM213.32 149.542h.437v.397h-.437zM235.205 148.998h.204v.272h-.204zM235.205 147.672h.204v.272h-.204zM213.32 151.249h.437v.397h-.437zM212.725 151.249h.425v.397h-.425zM212.725 150.682h.425v.397h-.425zM212.725 150.109h.425v.397h-.425zM212.725 149.542h.425v.397h-.425zM213.32 150.682h.437v.397h-.437zM236.265 148.998h.198v.272h-.198zM236.634 148.998h.204v.272h-.204zM236.634 148.556h.204v.272h-.204z"
     class="cls-1"
     style="fill:#fff;stroke-width:.566965"
     transform="translate(-169.6 -138.34)"
     id="path6" />
  <path
     d="M215.248 152.513v-3.498h-5.528v3.498zm-2.693-.765v-2.376h1.372v2.444h-1.372zm-.947-2.268v2.359h-1.378v-2.467h1.378z"
     class="cls-1"
     style="fill:#fff;stroke-width:.566965"
     transform="translate(-169.6 -138.34)"
     id="path7" />
  <path
     d="M213.32 150.109h.437v.397h-.437zM235.205 148.114h.204v.272h-.204z"
     class="cls-1"
     style="fill:#fff;stroke-width:.566965"
     transform="translate(-169.6 -138.34)"
     id="path8" />
  <path
     d="M168.74 51.88h-.13l-.14.32v2.89h.41V52.2z"
     class="cls-1"
     style="fill:#fff"
     transform="matrix(.56696 0 0 .56696 -31.283 -20.41)"
     id="path9" />
  <path
     d="M233.397 149.157h.17v-1.633l-.085-.181h-2.41l-.08.181v1.633h.188v-1.026a.8.8 0 0 1 .062-.216.57.57 0 0 1 .187-.226.43.43 0 0 1 .255-.085.42.42 0 0 1 .261.09.57.57 0 0 1 .182.221.7.7 0 0 1 .05.216v1.026h.176v-1.026a.6.6 0 0 1 .057-.216.53.53 0 0 1 .176-.22.42.42 0 0 1 .26-.091.46.46 0 0 1 .261.085.6.6 0 0 1 .182.226.8.8 0 0 1 .062.216v.17z"
     class="cls-1"
     style="fill:#fff;stroke-width:.566965"
     transform="translate(-169.6 -138.34)"
     id="path10" />
  <path
     d="M162.84 51.88h-.12l-.15.32v2.89h.42V52.2z"
     class="cls-1"
     style="fill:#fff"
     transform="matrix(.56696 0 0 .56696 -31.283 -20.41)"
     id="path11" />
  <path
     d="M230.494 149.293h.232v.244h-.232zM232.019 148.13a.4.4 0 0 0-.04-.141.4.4 0 0 0-.125-.159.3.3 0 0 0-.158-.056.25.25 0 0 0-.16.056.36.36 0 0 0-.124.159.5.5 0 0 0-.045.142zM231.775 148.834h.255v.329h-.255zM227.727 148.998h.204v.272h-.204zM227.727 148.556h.204v.272h-.204zM227.727 147.672h.204v.272h-.204zM227.727 148.114h.204v.272h-.204zM228.101 147.672h.198v.272h-.198zM231.775 148.301h.255v.357h-.255zM233.833 149.293h.232v.244h-.232zM232.971 148.301h.249v.357h-.249zM232.546 148.301h.255v.357h-.255zM234.32 147.524v2.092h3.453v-2.268H234.4zm1.775 1.831v-1.854h.913v1.94h-.913zm-1.428 0v-1.854h.918v1.94h-.918zM230.993 149.293h2.597v.244h-2.597zM232.971 148.834h.249v.329h-.249zM231.355 148.301h.249v.357h-.249zM232.546 148.834h.255v.329h-.255z"
     class="cls-1"
     style="fill:#fff;stroke-width:.566965"
     transform="translate(-169.6 -138.34)"
     id="path12" />
  <path
     d="M234.837 148.556h.198v.272h-.198zM231.355 148.834h.249v.329h-.249zM233.215 148.13a.5.5 0 0 0-.05-.141.36.36 0 0 0-.126-.159.24.24 0 0 0-.153-.056.3.3 0 0 0-.158.056.4.4 0 0 0-.125.159.4.4 0 0 0-.04.142h.658zM206.352 149.514a2.18 2.18 0 0 0-1.525.505.73.73 0 0 0-.238.504v.233h.13v-.233a.57.57 0 0 1 .193-.414 2.43 2.43 0 0 1 2.875 0 .57.57 0 0 1 .198.414v.233h.125v-.233a.72.72 0 0 0-.233-.504 2.23 2.23 0 0 0-1.525-.505"
     class="cls-1"
     style="fill:#fff;stroke-width:.566965"
     transform="translate(-169.6 -138.34)"
     id="path13" />
  <path
     d="M206.443 150.654h.198v.13h-.198zM206.443 151.544h.198v.125h-.198zM206.443 150.954h.198v.125h-.198zM206.075 151.249h.198v.125h-.198zM206.443 151.249h.198v.125h-.198zM206.075 151.544h.198v.125h-.198zM205.706 150.954h.198v.125h-.198zM205.706 151.249h.198v.125h-.198zM206.075 150.654h.198v.13h-.198zM206.075 150.954h.198v.125h-.198zM205.706 150.654h.198v.13h-.198zM205.706 151.544h.198v.125h-.198zM197.445 152.513h5.545v-3.498h-5.545zm3.64-.765v-2.376h1.372v2.444h-1.372zm-2.319 0v-2.376h1.35v2.444h-1.372zM211.001 150.109h.437v.397h-.437z"
     class="cls-1"
     style="fill:#fff;stroke-width:.566965"
     transform="translate(-169.6 -138.34)"
     id="path14" />
  <path
     d="M201.862 150.109h.425v.397h-.425zM207.991 150.926h.125v1.57h-.125zM201.862 150.682h.425v.397h-.425zM206.812 151.544h.198v.125h-.198zM206.812 151.249h.198v.125h-.198zM206.812 150.954h.198v.125h-.198z"
     class="cls-1"
     style="fill:#fff;stroke-width:.566965"
     transform="translate(-169.6 -138.34)"
     id="path15" />
  <path
     d="M206.352 149.809a1.94 1.94 0 0 0-1.315.42.43.43 0 0 0-.147.294v1.99h.277v-2.03h2.359v2.03h.29v-1.99a.43.43 0 0 0-.148-.294 1.94 1.94 0 0 0-1.316-.42"
     class="cls-1"
     style="fill:#fff;stroke-width:.566965"
     transform="translate(-169.6 -138.34)"
     id="path16" />
  <path
     d="M206.812 150.654h.198v.13h-.198zM207.18 150.654h.181v.13h-.181zM204.595 150.926h.125v1.57h-.125zM211.001 149.542h.437v.397h-.437z"
     class="cls-1"
     style="fill:#fff;stroke-width:.566965"
     transform="translate(-169.6 -138.34)"
     id="path17" />
  <path
     d="M203.16 152.513h1.265v-1.99c0-.663.85-1.179 1.933-1.179a2.4 2.4 0 0 1 1.65.567.9.9 0 0 1 .283.624v1.978h1.259v-3.373h-6.39zM201.862 151.249h.425v.397h-.425z"
     class="cls-1"
     style="fill:#fff;stroke-width:.566965"
     transform="translate(-169.6 -138.34)"
     id="path18" />
  <path
     d="M207.18 150.954h.181v.125h-.181zM210.406 149.542h.425v.397h-.425zM210.406 151.249h.425v.397h-.425zM211.001 151.249h.437v.397h-.437zM211.001 150.682h.437v.397h-.437zM210.406 150.109h.425v.397h-.425zM210.406 150.682h.425v.397h-.425zM207.18 151.249h.181v.125h-.181zM205.349 151.844h.187v.658h-.187zM228.101 148.998h.198v.272h-.198zM205.349 151.544h.187v.125h-.187zM205.349 150.654h.187v.13h-.187zM205.349 151.249h.187v.125h-.187zM205.349 150.954h.187v.125h-.187zM206.443 151.844h.198v.658h-.198zM206.812 151.844h.198v.658h-.198zM207.18 151.844h.181v.658h-.181zM207.18 151.544h.181v.125h-.181zM206.075 151.844h.198v.658h-.198zM205.706 151.844h.198v.658h-.198zM201.862 146.163h.425v.397h-.425zM201.255 146.163h.437v.397h-.437zM199.543 146.73h.425v.397h-.425zM199.543 147.303h.425v.397h-.425zM201.255 146.73h.437v.397h-.437zM201.255 147.87h.437v.397h-.437zM201.862 146.73h.425v.397h-.425zM201.862 147.303h.425v.397h-.425zM201.255 147.303h.437v.397h-.437zM199.543 147.87h.425v.397h-.425zM201.862 147.87h.425v.397h-.425zM197.219 145.347h18.256v.085h-18.256zM198.936 147.87h.437v.397h-.437zM179.268 146.492h2.268l-1.134-.47zm1.293-.215a.153.153 0 1 1-.153-.153.153.153 0 0 1 .153.153M197.031 145.171h18.63v.085h-18.63z"
     class="cls-1"
     style="fill:#fff;stroke-width:.566965"
     transform="translate(-169.6 -138.34)"
     id="path19" />
  <path
     d="M180.312 145.642a.3.3 0 0 1 .034-.063l.062-.623.062.623.034.063 2.036.85h3.464l-5.619-2.319-5.613 2.32h3.459zM180.816 151.453h.21v.181h-.21zM196.839 144.995h19.01v.085h-19.01zM198.936 147.303h.437v.397h-.437zM198.936 146.73h.437v.397h-.437zM198.936 146.163h.437v.397h-.437z"
     class="cls-1"
     style="fill:#fff;stroke-width:.566965"
     transform="translate(-169.6 -138.34)"
     id="path20" />
  <path
     d="M197.445 148.715h5.545v-2.693l-.159-.278h-5.386zm3.64-.363v-2.359h1.372v2.444h-1.372zm-2.319 0v-2.359h1.35v2.444h-1.372z"
     class="cls-1"
     style="fill:#fff;stroke-width:.566965"
     transform="translate(-169.6 -138.34)"
     id="path21" />
  <path
     d="M199.543 146.163h.425v.397h-.425zM178.463 152.513h.766v-1.134h.187v1.134h.142v-1.593h1.638v1.593h.136v-1.134h.182v1.134h.85v-2.545h-3.9zm.766-1.406a.67.67 0 0 1 .164-.425 1.29 1.29 0 0 1 .981-.397c.64 0 1.134.363 1.134.822v.16h-.181v-.16a.43.43 0 0 0-.108-.266 1.264 1.264 0 0 0-1.701 0 .4.4 0 0 0-.108.266v.16h-.187zM207.43 146.073a.6.6 0 0 0-.21.05l.181.324h.034l.187-.323a.6.6 0 0 0-.21-.046zM207.792 146.203l-.215.374h.476a.6.6 0 0 0-.08-.21.6.6 0 0 0-.18-.164M205.695 147.711h.17v.295h-.17zM205.354 147.711h.17v.295h-.17zM206.92 146.373a.5.5 0 0 0-.069.204h.425l-.215-.368a.5.5 0 0 0-.142.164M205.695 147.246h.17v.289h-.17zM207.186 146.753h.17v.323h-.17zM207.186 147.246h.17v.289h-.17zM207.872 146.753h.17v.323h-.17zM207.526 147.246h.17v.289h-.17zM207.526 146.753h.17v.323h-.17zM205.695 146.753h.17v.323h-.17zM205.354 147.246h.17v.289h-.17zM205.354 146.753h.17v.323h-.17zM205.275 146.073a.6.6 0 0 0-.21.045l.187.323h.034l.188-.323a.6.6 0 0 0-.216-.05zM205.644 146.209l-.216.368h.425a.5.5 0 0 0-.068-.204.5.5 0 0 0-.141-.164M205.014 147.711h.17v.295h-.17zM204.765 146.368a.7.7 0 0 0-.08.21h.448l-.215-.375a.6.6 0 0 0-.153.164M204.674 147.246h.17v.289h-.17zM204.674 147.711h.17v.295h-.17zM205.014 146.753h.17v.323h-.17zM204.674 146.753h.17v.323h-.17zM205.014 147.246h.17v.289h-.17z"
     class="cls-1"
     style="fill:#fff;stroke-width:.566965"
     transform="translate(-169.6 -138.34)"
     id="path22" />
  <path
     d="M155.78 61.27H136v.22h19.78z"
     class="cls-1"
     style="fill:#fff"
     transform="matrix(.56696 0 0 .56696 -31.283 -20.41)"
     id="path23" />
  <path
     d="M181.905 152.666h.448v.125h-.448zM176.224 150.319h.198v.272h-.198zM175.844 150.319h.204v.272h-.204zM174.925 152.666h2.137v.125h-2.137zM177.239 152.666h1.055v.125h-1.055zM175.844 150.761h.204v.272h-.204zM175.844 151.204h.204v.272h-.204zM176.224 151.204h.198v.272h-.198zM176.224 150.761h.198v.272h-.198zM176.224 151.646h.198v.272h-.198zM175.844 151.646h.204v.272h-.204zM234.394 152.666h1.066v.125h-1.066zM180.816 151.805h.21v.181h-.21zM226.808 152.666h2.137v.125h-2.137zM229.116 152.666h1.043v.125h-1.043zM177.658 150.319h.198v.272h-.198zM233.788 152.666h.437v.125h-.437zM182.528 152.666h1.055v.125h-1.055zM197.44 152.666h3.566v.125h-3.566zM211.687 152.666h3.561v.125h-3.561zM186.061 152.666h11.203v.125h-11.203zM209.714 152.666h1.809v.125h-1.809zM201.176 152.666h1.803v.125h-1.803zM206.846 146.753h.17v.323h-.17zM180.459 151.09h.187v.193h-.187zM183.328 150.319h.204v.272h-.204zM180.102 151.09h.187v.193h-.187zM180.102 151.805h.187v.181h-.187zM180.102 151.453h.187v.181h-.187zM179.728 151.09h.204v.193h-.204zM179.728 151.805h.204v.181h-.204zM180.459 152.156h.187v.34h-.187zM180.816 152.156h.21v.34h-.21zM180.102 152.156h.187v.34h-.187zM179.728 152.156h.204v.34h-.204zM177.284 150.319h.204v.272h-.204zM177.658 151.646h.198v.272h-.198zM177.658 151.204h.198v.272h-.198zM177.284 151.646h.204v.272h-.204zM177.284 150.761h.204v.272h-.204zM177.284 151.204h.204v.272h-.204zM180.459 151.453h.187v.181h-.187zM180.816 151.09h.21v.193h-.21zM177.658 150.761h.198v.272h-.198zM180.459 151.805h.187v.181h-.187z"
     class="cls-1"
     style="fill:#fff;stroke-width:.566965"
     transform="translate(-169.6 -138.34)"
     id="path24" />
  <path
     d="M174.92 152.513h3.402v-2.608h-3.402zm2.194-.493v-1.87h.918v1.938h-.918zm-1.44 0v-1.87h.918v1.938h-.918zM179.728 151.453h.204v.181h-.204zM175.844 148.556h.204v.272h-.204zM175.844 148.998h.204v.272h-.204zM175.844 147.672h.204v.272h-.204zM177.284 148.556h.204v.272h-.204zM176.224 148.998h.198v.272h-.198zM176.224 148.114h.198v.272h-.198zM177.284 147.672h.204v.272h-.204zM176.224 148.556h.198v.272h-.198zM177.284 148.114h.204v.272h-.204zM176.224 147.672h.198v.272h-.198zM177.658 147.672h.198v.272h-.198zM175.844 148.114h.204v.272h-.204zM180.669 148.834h.255v.329h-.255zM181.094 148.834h.249v.329h-.249z"
     class="cls-1"
     style="fill:#fff;stroke-width:.566965"
     transform="translate(-169.6 -138.34)"
     id="path25" />
  <path
     d="M77.25 51.88h-.13l-.14.32v2.89h.41V52.2z"
     class="cls-1"
     style="fill:#fff"
     transform="matrix(.56696 0 0 .56696 -31.283 -20.41)"
     id="path26" />
  <path
     d="M206.846 147.246h.17v.289h-.17zM181.156 147.83a.23.23 0 0 0-.153-.056.3.3 0 0 0-.158.056.44.44 0 0 0-.125.159 1 1 0 0 0-.04.142h.658a.7.7 0 0 0-.046-.142.37.37 0 0 0-.136-.159M180.669 148.301h.255v.357h-.255zM179.903 148.834h.255v.329h-.255z"
     class="cls-1"
     style="fill:#fff;stroke-width:.566965"
     transform="translate(-169.6 -138.34)"
     id="path27" />
  <path
     d="m181.706 147.524-.079-.181H179.2l-.062.181v1.633h.193v-1.026a.6.6 0 0 1 .062-.216.57.57 0 0 1 .182-.226.43.43 0 0 1 .255-.085.4.4 0 0 1 .255.09.5.5 0 0 1 .181.221 1 1 0 0 1 .057.216v1.026h.17v-1.026a.7.7 0 0 1 .057-.216.5.5 0 0 1 .181-.22.4.4 0 0 1 .255-.091.43.43 0 0 1 .255.085.57.57 0 0 1 .182.226.6.6 0 0 1 .062.216v1.026h.193zM179.121 149.293h2.585v.244h-2.585z"
     class="cls-1"
     style="fill:#fff;stroke-width:.566965"
     transform="translate(-169.6 -138.34)"
     id="path28" />
  <path
     d="M71.38 51.88h-.13l-.14.32v2.89h.41V52.2z"
     class="cls-1"
     style="fill:#fff"
     transform="matrix(.56696 0 0 .56696 -31.283 -20.41)"
     id="path29" />
  <path
     d="M178.633 149.293h.232v.244h-.232zM181.962 149.293h.232v.244h-.232zM184.394 147.672h.198v.272h-.198zM184.394 148.114h.198v.272h-.198zM184.394 148.556h.198v.272h-.198zM183.328 148.114h.204v.272h-.204zM184.762 147.672h.204v.272h-.204z"
     class="cls-1"
     style="fill:#fff;stroke-width:.566965"
     transform="translate(-169.6 -138.34)"
     id="path30" />
  <path
     d="M182.45 147.524v2.092h3.44v-2.268h-3.35zm1.79 1.831v-1.854h.92v1.94h-.92zm-1.44 0v-1.854h.92v1.94h-.936z"
     class="cls-1"
     style="fill:#fff;stroke-width:.566965"
     transform="translate(-169.6 -138.34)"
     id="path31" />
  <path
     d="M183.328 148.556h.204v.272h-.204zM184.762 148.114h.204v.272h-.204zM184.394 148.998h.198v.272h-.198zM184.762 148.998h.204v.272h-.204zM184.762 148.556h.204v.272h-.204zM182.959 147.672h.198v.272h-.198zM183.328 147.672h.204v.272h-.204zM174.92 147.343v2.268h3.458v-2.087l-.08-.181zm1.7.243v1.854h-.946v-1.939h.918zm1.44 0v1.854h-.946v-1.939h.918z"
     class="cls-1"
     style="fill:#fff;stroke-width:.566965"
     transform="translate(-169.6 -138.34)"
     id="path32" />
  <path
     d="M177.658 148.114h.198v.272h-.198zM177.658 148.998h.198v.272h-.198zM177.658 148.556h.198v.272h-.198zM182.959 148.998h.198v.272h-.198zM183.328 148.998h.204v.272h-.204zM182.959 148.556h.198v.272h-.198zM182.959 148.114h.198v.272h-.198zM177.284 148.998h.204v.272h-.204zM181.094 148.301h.249v.357h-.249zM203.16 146.084h.238v2.018h-.238z"
     class="cls-1"
     style="fill:#fff;stroke-width:.566965"
     transform="translate(-169.6 -138.34)"
     id="path33" />
  <path
     d="M115.09 49.55v3.67h.36v-3.67l-.18-.33z"
     class="cls-1"
     style="fill:#fff"
     transform="matrix(.56696 0 0 .56696 -31.283 -20.41)"
     id="path34" />
  <path
     d="M209.312 146.084h.238v2.018h-.238zM208.354 146.022l-.153-.278h-3.686l-.158.278v2.08h.141v-1.52a.7.7 0 0 1 .102-.3.74.74 0 0 1 .284-.277.74.74 0 0 1 .374-.102.7.7 0 0 1 .38.107.75.75 0 0 1 .278.272.8.8 0 0 1 .09.301v1.52h.63v-1.52a.7.7 0 0 1 .096-.3.7.7 0 0 1 .272-.273.7.7 0 0 1 .38-.107.74.74 0 0 1 .374.102.74.74 0 0 1 .284.277.7.7 0 0 1 .102.3v1.52h.142zM203.948 146.084h.238v2.018h-.238zM212.725 147.87h.425v.397h-.425z"
     class="cls-1"
     style="fill:#fff;stroke-width:.566965"
     transform="translate(-169.6 -138.34)"
     id="path35" />
  <path
     d="m114.85 49.35.17-.3h-.88l.17.3z"
     class="cls-1"
     style="fill:#fff"
     transform="matrix(.56696 0 0 .56696 -31.283 -20.41)"
     id="path36" />
  <path
     d="M208.524 146.084h.238v2.018h-.238z"
     class="cls-1"
     style="fill:#fff;stroke-width:.566965"
     transform="translate(-169.6 -138.34)"
     id="path37" />
  <path
     d="m124.32 49.35.17-.3h-.89l.17.3zM124.56 49.55v3.67h.36v-3.67l-.18-.33z"
     class="cls-1"
     style="fill:#fff"
     transform="matrix(.56696 0 0 .56696 -31.283 -20.41)"
     id="path38" />
  <path
     d="M179.484 148.834h.249v.329h-.249z"
     class="cls-1"
     style="fill:#fff;stroke-width:.566965"
     transform="translate(-169.6 -138.34)"
     id="path39" />
  <path
     d="m116.24 49.35.17-.3h-.89l.17.3z"
     class="cls-1"
     style="fill:#fff"
     transform="matrix(.56696 0 0 .56696 -31.283 -20.41)"
     id="path40" />
  <path
     d="M207.872 147.711h.17v.295h-.17zM207.872 147.246h.17v.289h-.17zM209.312 148.267h.238v.312h-.238zM206.846 147.711h.17v.295h-.17zM207.526 147.711h.17v.295h-.17zM203.16 148.267h.238v.312h-.238zM208.524 148.267h.238v.312h-.238zM208.938 148.267h.204v.312h-.204zM204.357 148.267h3.997v.312h-3.997zM203.569 148.267h.204v.312h-.204zM203.948 148.267h.238v.312h-.238zM213.32 147.87h.437v.397h-.437zM210.406 146.163h.425v.397h-.425z"
     class="cls-1"
     style="fill:#fff;stroke-width:.566965"
     transform="translate(-169.6 -138.34)"
     id="path41" />
  <path
     d="m124.99 49.05.17.3h.55l.17-.3z"
     class="cls-1"
     style="fill:#fff"
     transform="matrix(.56696 0 0 .56696 -31.283 -20.41)"
     id="path42" />
  <path
     d="M209.754 146.022v2.693h5.522v-2.971h-5.369zm2.835 2.33v-2.359h1.372v2.444h-1.372zm-2.325 0v-2.359h1.378v2.444h-1.378z"
     class="cls-1"
     style="fill:#fff;stroke-width:.566965"
     transform="translate(-169.6 -138.34)"
     id="path43" />
  <path
     d="M210.406 147.303h.425v.397h-.425zM210.406 146.73h.425v.397h-.425z"
     class="cls-1"
     style="fill:#fff;stroke-width:.566965"
     transform="translate(-169.6 -138.34)"
     id="path44" />
  <path
     d="M136.24 48.52h23.31l1.14-.47h-24.12v.3h-.33z"
     class="cls-1"
     style="fill:#fff"
     transform="matrix(.56696 0 0 .56696 -31.283 -20.41)"
     id="path45" />
  <path
     d="M179.903 148.301h.255v.357h-.255zM179.484 148.301h.249v.357h-.249zM179.988 147.83a.3.3 0 0 0-.158-.056.23.23 0 0 0-.153.056.37.37 0 0 0-.13.159.7.7 0 0 0-.046.142h.658a1 1 0 0 0-.04-.142.44.44 0 0 0-.13-.159"
     class="cls-1"
     style="fill:#fff;stroke-width:.566965"
     transform="translate(-169.6 -138.34)"
     id="path46" />
  <path
     d="M103.15 48.05H79.28l1.14.47h23.32v-.17h-.33v-.30000000000000004h-.19zM84.95 50.45h19.04v-1.48H81.52l3.44 1.42z"
     class="cls-1"
     style="fill:#fff"
     transform="matrix(.56696 0 0 .56696 -31.283 -20.41)"
     id="path47" />
  <path
     d="M213.32 147.303h.437v.397h-.437zM212.725 147.303h.425v.397h-.425zM212.725 146.73h.425v.397h-.425zM212.725 146.163h.425v.397h-.425zM213.32 146.73h.437v.397h-.437zM211.001 146.163h.437v.397h-.437zM213.32 146.163h.437v.397h-.437zM210.406 147.87h.425v.397h-.425zM211.001 147.303h.437v.397h-.437zM211.001 146.73h.437v.397h-.437zM211.001 147.87h.437v.397h-.437zM207.186 147.711h.17v.295h-.17zM232.404 151.09h.187v.193h-.187zM232.404 151.453h.187v.181h-.187zM221.853 150.178h.198v.272h-.198zM232.047 151.805h.187v.181h-.187zM232.047 151.453h.187v.181h-.187zM221.853 151.062h.198v.272h-.198zM196.646 144.82h19.402v.085h-19.402z"
     class="cls-1"
     style="fill:#fff;stroke-width:.566965"
     transform="translate(-169.6 -138.34)"
     id="path48" />
  <path
     d="M155.17 50.6v.09h21.16v-.09h-19.21z"
     class="cls-1"
     style="fill:#fff"
     transform="matrix(.56696 0 0 .56696 -31.283 -20.41)"
     id="path49" />
  <path
     d="M232.404 151.805h.187v.181h-.187zM221.853 150.62h.198v.272h-.198zM232.762 151.09h.21v.193h-.21zM222.227 150.62h.204v.272h-.204z"
     class="cls-1"
     style="fill:#fff;stroke-width:.566965"
     transform="translate(-169.6 -138.34)"
     id="path50" />
  <path
     d="M84.82 50.6H63.66v.09h21.16z"
     class="cls-1"
     style="fill:#fff"
     transform="matrix(.56696 0 0 .56696 -31.283 -20.41)"
     id="path51" />
  <path
     d="M236.634 151.646h.204v.272h-.204zM231.673 151.805h.204v.181h-.204zM226.412 146.753h11.753v.051h-11.753zM222.227 151.062h.204v.272h-.204zM231.673 152.156h.204v.34h-.204zM232.047 151.09h.187v.193h-.187zM231.673 151.09h.204v.193h-.204zM221.853 151.504h.198v.272h-.198zM231.673 151.453h.204v.181h-.204zM222.227 150.178h.204v.272h-.204zM219.489 148.08h.198v.272h-.198zM226.808 152.513h3.357v-2.608h-3.362zm2.183-.493v-1.87h.919v1.938h-.919zm-1.434 0v-1.87h.907v1.938h-.907z"
     class="cls-1"
     style="fill:#fff;stroke-width:.566965"
     transform="translate(-169.6 -138.34)"
     id="path52" />
  <path
     d="M229.167 151.646h.204v.272h-.204zM219.489 147.637h.198v.272h-.198z"
     class="cls-1"
     style="fill:#fff;stroke-width:.566965"
     transform="translate(-169.6 -138.34)"
     id="path53" />
  <path
     d="M226.559 147.161v-.136h-.113v-.136h-.12v-.136h-10.902v5.76h11.214v-5.34h.085-.158zm-8.561 4.581-.142.284h-.884l-.142-.284h.125V150.2h-.125l.142-.283h.884l.142.283h-.125v1.542zm0-2.534-.142.283h-.884l-.142-.283h.125v-1.548h-.125l.142-.283h.884l.142.283h-.125v1.548zm2.364 2.534-.142.284h-.884l-.142-.284h.125V150.2h-.125l.142-.283h.884l.142.283h-.125v1.542zm0-2.534-.142.283h-.884l-.142-.283h.125v-1.548h-.125l.142-.283h.884l.142.283h-.125v1.548zm2.364 2.534-.141.284h-.885l-.142-.284h.102V150.2h-.124l.141-.283h.885l.142.283h-.125v1.542zm0-2.534-.141.283h-.885l-.142-.283h.102v-1.548h-.124l.141-.283h.885l.142.283h-.125v1.548zm2.364 2.534-.141.284h-.885l-.141-.284h.124V150.2h-.119l.142-.283h.884l.142.283h-.125v1.542zm0-2.534-.141.283h-.885l-.141-.283h.124v-1.548h-.119l.142-.283h.884l.142.283h-.125v1.548z"
     class="cls-1"
     style="fill:#fff;stroke-width:.566965"
     transform="translate(-169.6 -138.34)"
     id="path54" />
  <path
     d="m155.01 50.39 3.44-1.42h-22.46v1.48h19.03z"
     class="cls-1"
     style="fill:#fff"
     transform="matrix(.56696 0 0 .56696 -31.283 -20.41)"
     id="path55" />
  <path
     d="M219.489 148.964h.198v.272h-.198zM229.167 150.761h.204v.272h-.204zM217.125 151.504h.198v.272h-.198zM230.13 146.492l2.065-.85a.2.2 0 0 1 0-.063l.068-.623.062.623a.2.2 0 0 1 0 .063l2.058.85h3.464l-5.618-2.319-5.62 2.32zM229.167 151.204h.204v.272h-.204zM219.489 148.522h.198v.272h-.198zM222.227 151.504h.204v.272h-.204zM206.177 143.612a.3.3 0 0 1 .068-.108l.102-.805.102.805a.3.3 0 0 1 .068.114l3.282 1.077h5.76l-9.207-3.028-9.219 3.028h5.76zM219.863 148.964h.204v.272h-.204zM217.125 151.062h.198v.272h-.198zM229.541 150.761h.198v.272h-.198z"
     class="cls-1"
     style="fill:#fff;stroke-width:.566965"
     transform="translate(-169.6 -138.34)"
     id="path56" />
  <path
     d="M204.345 144.695h3.969l-1.962-.652zm2.206-.306a.204.204 0 1 1-.204-.204.204.204 0 0 1 .204.204M231.151 146.492h2.268l-1.134-.47zm1.282-.215a.153.153 0 1 1-.148-.153.153.153 0 0 1 .148.153M219.863 148.08h.204v.272h-.204zM219.863 147.637h.204v.272h-.204zM229.541 151.204h.198v.272h-.198zM219.863 148.522h.204v.272h-.204zM229.541 151.646h.198v.272h-.198zM236.634 151.204h.204v.272h-.204zM203.155 152.666h.828v.125h-.828zM224.217 151.062h.198v.272h-.198zM224.217 150.62h.198v.272h-.198zM224.217 150.178h.198v.272h-.198zM235.205 151.204h.204v.272h-.204zM178.458 152.666h.448v.125h-.448zM234.837 151.646h.198v.272h-.198zM224.217 151.504h.198v.272h-.198zM222.227 148.964h.204v.272h-.204zM183.753 152.666h2.137v.125h-2.137zM224.592 150.178h.204v.272h-.204zM235.205 151.646h.204v.272h-.204zM224.592 151.504h.204v.272h-.204zM235.205 150.761h.204v.272h-.204zM230.329 152.666h.459v.125h-.459zM235.636 152.666h2.137v.125h-2.137zM236.265 150.761h.198v.272h-.198zM224.592 151.062h.204v.272h-.204zM208.711 152.666h.828v.125h-.828zM236.634 150.319h.204v.272h-.204zM236.265 150.319h.198v.272h-.198zM236.265 151.204h.198v.272h-.198zM224.592 150.62h.204v.272h-.204zM174.648 146.889h11.521v.051h-11.521zM174.767 147.025h11.288v.051h-11.288zM232.762 151.805h.21v.181h-.21zM232.762 152.156h.21v.34h-.21zM232.762 151.453h.21v.181h-.21zM221.853 148.964h.198v.272h-.198zM224.592 148.08h.204v.272h-.204zM236.265 151.646h.198v.272h-.198zM232.047 152.156h.187v.34h-.187zM174.529 146.753h11.753v.051h-11.753zM226.531 146.889h11.521v.051h-11.521zM232.404 152.156h.187v.34h-.187zM221.853 148.522h.198v.272h-.198zM234.837 151.204h.198v.272h-.198zM234.837 150.761h.198v.272h-.198zM222.227 147.637h.204v.272h-.204zM222.227 148.08h.204v.272h-.204zM222.227 148.522h.204v.272h-.204zM234.837 150.319h.198v.272h-.198z"
     class="cls-1"
     style="fill:#fff;stroke-width:.566965"
     transform="translate(-169.6 -138.34)"
     id="path57" />
  <path
     d="M230.335 152.513h.845v-1.134h.181v1.134h.142v-1.593h1.638v1.593h.136v-1.134h.182v1.134h.76v-2.545h-3.884zm.845-1.406a.7.7 0 0 1 .158-.425 1.3 1.3 0 0 1 .981-.397c.641 0 1.134.363 1.134.822v.16h-.181v-.16a.4.4 0 0 0-.108-.266 1.264 1.264 0 0 0-1.7 0 .43.43 0 0 0-.109.266v.16h-.181zM221.853 148.08h.198v.272h-.198zM221.853 147.637h.198v.272h-.198zM235.205 150.319h.204v.272h-.204zM224.592 147.637h.204v.272h-.204zM217.499 151.062h.204v.272h-.204zM229.541 148.114h.198v.272h-.198zM217.499 150.62h.204v.272h-.204zM229.541 148.556h.198v.272h-.198zM219.489 151.504h.198v.272h-.198zM219.489 151.062h.198v.272h-.198zM217.499 151.504h.204v.272h-.204zM229.541 148.998h.198v.272h-.198zM217.125 148.964h.198v.272h-.198zM217.499 148.964h.204v.272h-.204zM217.499 150.178h.204v.272h-.204zM227.727 150.761h.204v.272h-.204zM227.727 150.319h.204v.272h-.204zM219.489 150.178h.198v.272h-.198zM217.499 148.522h.204v.272h-.204zM227.727 151.204h.204v.272h-.204zM219.489 150.62h.198v.272h-.198z"
     class="cls-1"
     style="fill:#fff;stroke-width:.566965"
     transform="translate(-169.6 -138.34)"
     id="path58" />
  <path
     d="M226.803 147.343v2.268h3.458v-2.087l-.085-.181zm1.7.243v1.854h-.946v-1.939h.907zm1.435 0v1.854h-.918v-1.939h.918zM227.727 151.646h.204v.272h-.204zM217.125 150.178h.198v.272h-.198zM228.101 150.319h.198v.272h-.198zM224.217 148.522h.198v.272h-.198zM224.217 148.08h.198v.272h-.198z"
     class="cls-1"
     style="fill:#fff;stroke-width:.566965"
     transform="translate(-169.6 -138.34)"
     id="path59" />
  <path
     d="M229.541 147.672h.198v.272h-.198zM224.217 148.964h.198v.272h-.198zM217.125 148.522h.198v.272h-.198zM224.217 147.637h.198v.272h-.198zM226.644 147.025h11.288v.051h-11.288zM224.592 148.522h.204v.272h-.204zM228.101 148.556h.198v.272h-.198zM228.101 148.114h.198v.272h-.198zM229.167 148.556h.204v.272h-.204zM229.167 148.998h.204v.272h-.204zM224.592 148.964h.204v.272h-.204zM217.499 148.08h.204v.272h-.204zM229.167 147.672h.204v.272h-.204zM217.499 147.637h.204v.272h-.204zM229.167 148.114h.204v.272h-.204zM217.125 147.637h.198v.272h-.198zM217.125 148.08h.198v.272h-.198zM219.863 150.62h.204v.272h-.204zM219.863 151.062h.204v.272h-.204zM217.125 150.62h.198v.272h-.198zM234.394 152.513h3.402v-2.608h-3.402zm1.701-.493v-1.87h.913v1.938h-.913zm-1.428 0v-1.87h.918v1.938h-.918zM219.863 150.178h.204v.272h-.204zM228.101 151.204h.198v.272h-.198zM228.101 151.646h.198v.272h-.198zM228.101 150.761h.198v.272h-.198zM229.167 150.319h.204v.272h-.204z"
     class="cls-1"
     style="fill:#fff;stroke-width:.566965"
     transform="translate(-169.6 -138.34)"
     id="path60" />
  <path
     d="M236.634 150.761h.204v.272h-.204zM229.541 150.319h.198v.272h-.198zM219.863 151.504h.204v.272h-.204z"
     class="cls-1"
     style="fill:#fff;stroke-width:.566965"
     transform="translate(-169.6 -138.34)"
     id="path61" />
  <path
     d="M206.143 144.389a.204.204 0 1 0 .204-.204.204.204 0 0 0-.204.204M210.321 145.993h-.09v2.444h1.377v-2.444zm1.134.567h-.437v-.397h.437zm0 .567h-.437v-.397h.437zm0 .567h-.437v-.397h.437zm-1.032-.397h.425v.397h-.425zm0-.567h.425v.397h-.425zm0-.567h.425v.397h-.425zm0 1.701h.425v.397h-.425zm1.032.397h-.437v-.397h.437zM212.64 145.993h-.085v2.444h1.372v-2.444zm1.134.567h-.437v-.397h.437zm0 .567h-.437v-.397h.437zm0 .567h-.437v-.397h.437zm-1.032-.397h.414v.397h-.425zm0-.567h.414v.397h-.425zm0-.567h.414v.397h-.425zm0 1.701h.414v.397h-.425zm1.032.397h-.437v-.397h.437zM210.321 149.372h-.09v2.444h1.377v-2.444zm1.134.567h-.437v-.396h.437zm0 .567h-.437v-.397h.437zm0 .567h-.437v-.397h.437zm-1.032-.397h.425v.397h-.425zm0-.567h.425v.397h-.425zm0-.567h.425v.397h-.425zm0 1.701h.425v.397h-.425zm1.032.397h-.437v-.397h.437zM213.842 151.816h.085v-2.444h-1.372v2.444zm-1.134-.567h.448v.397h-.425zm0-.567h.448v.397h-.425zm0-.567h.448v.397h-.425zm1.032.397h-.437v-.397h.437zm0 .567h-.437v-.397h.437zm0 .567h-.437v-.397h.437zm0-1.701h-.437v-.397h.437zm-1.032-.397h.448v.397h-.425zM201.17 145.993h-.085v2.444h1.372v-2.444zm1.134.567h-.425v-.397h.425zm0 .567h-.425v-.397h.425zm0 .567h-.425v-.397h.425zm-1.032-.397h.437v.397h-.46zm0-.567h.437v.397h-.46zm0-.567h.437v.397h-.46zm0 1.701h.437v.397h-.46zm1.032.397h-.425v-.397h.425zM198.851 145.993h-.085v2.444h1.35v-2.444h-1.287zm1.134.567h-.436v-.397h.425zm0 .567h-.436v-.397h.425zm0 .567h-.436v-.397h.425zm-1.032-.397h.437v.397h-.437zm0-.567h.437v.397h-.437zm0-.567h.437v.397h-.437zm0 1.701h.437v.397h-.437zm1.032.397h-.436v-.397h.425zM201.17 149.372h-.085v2.444h1.372v-2.444zm1.134.567h-.425v-.396h.425zm0 .567h-.425v-.397h.425zm0 .567h-.425v-.397h.425zm-1.032-.397h.437v.397h-.46zm0-.567h.437v.397h-.46zm0-.567h.437v.397h-.46zm0 1.701h.437v.397h-.46zm1.032.397h-.425v-.397h.425zM198.851 149.372h-.085v2.444h1.35v-2.444h-1.287zm1.134.567h-.436v-.396h.425zm0 .567h-.436v-.397h.425zm0 .567h-.436v-.397h.425zm-1.032-.397h.437v.397h-.437zm0-.567h.437v.397h-.437zm0-.567h.437v.397h-.437zm0 1.701h.437v.397h-.437zm1.032.397h-.436v-.397h.425zM216.83 149.208l.142.283h.884l.142-.283h-.125v-1.548h.125l-.142-.283h-.884l-.142.283h.125v1.548zm.295-1.57h.198v.272h-.198zm0 .442h.198v.272h-.198zm0 .442h.198v.272h-.198zm0 .442h.198v.272h-.198zm.567.272h-.205v-.272h.205zm0-.884h-.205v-.272h.205zm0 .17v.272h-.205v-.25zm0-.612h-.205v-.273h.205zM219.194 149.208l.142.283h.884l.142-.283h-.125v-1.548h.125l-.142-.283h-.884l-.142.283h.125v1.548zm.295-1.57h.198v.272h-.198zm0 .442h.198v.272h-.198zm0 .442h.198v.272h-.198zm0 .442h.198v.272h-.198zm.567.272h-.204v-.272h.204zm0-.884h-.204v-.272h.204zm0 .17v.272h-.204v-.25zm0-.612h-.204v-.273h.204zM221.558 149.208l.142.283h.885l.141-.283h-.124v-1.548h.124l-.141-.283h-.885l-.142.283h.102v1.548zm.295-1.57h.199v.272h-.199zm0 .442h.199v.272h-.199zm0 .442h.199v.272h-.199zm0 .442h.199v.272h-.199zm.567.272h-.193v-.272h.204zm0-.884h-.193v-.272h.204zm0 .17v.272h-.193v-.25zm0-.612h-.193v-.273h.204zM223.928 149.208l.142.283h.884l.142-.283h-.125v-1.548h.125l-.142-.283h-.884l-.142.283h.125v1.548zm.295-1.57h.198v.272h-.198zm0 .442h.198v.272h-.198zm0 .442h.198v.272h-.198zm0 .442h.198v.272h-.198zm.567.272h-.204v-.272h.204Zm0-.884h-.204v-.272h.204Zm0 .17v.272h-.204v-.25zm0-.612h-.204v-.273h.204ZM216.83 151.742l.142.284h.884l.142-.284h-.125V150.2h.125l-.142-.283h-.884l-.142.283h.125v1.542zm.295-1.564h.198v.266h-.198zm0 .442h.198v.266h-.198zm0 .442h.198v.272h-.198zm0 .442h.198v.272h-.198zm.567.272h-.205v-.272h.205zm0-.89h-.205v-.266h.205zm0 .176v.272h-.205v-.272zm0-.618h-.205v-.266h.205zM219.194 151.742l.142.284h.884l.142-.284h-.125V150.2h.125l-.142-.283h-.884l-.142.283h.125v1.542zm.295-1.564h.198v.266h-.198zm0 .442h.198v.266h-.198zm0 .442h.198v.272h-.198zm0 .442h.198v.272h-.198zm.567.272h-.204v-.272h.204zm0-.89h-.204v-.266h.204zm0 .176v.272h-.204v-.272zm0-.618h-.204v-.266h.204zM221.558 151.742l.142.284h.885l.141-.284h-.124V150.2h.124l-.141-.283h-.885l-.142.283h.102v1.542zm.295-1.564h.199v.266h-.199zm0 .442h.199v.266h-.199zm0 .442h.199v.272h-.199zm0 .442h.199v.272h-.199zm.567.272h-.193v-.272h.204zm0-.89h-.193v-.266h.204zm0 .176v.272h-.193v-.272zm0-.618h-.193v-.266h.204zM223.928 151.742l.142.284h.884l.142-.284h-.125V150.2h.125l-.142-.283h-.884l-.142.283h.125v1.542zm.295-1.564h.198v.266h-.198zm0 .442h.198v.266h-.198zm0 .442h.198v.272h-.198zm0 .442h.198v.272h-.198zm.567.272h-.204v-.272h.204Zm0-.89h-.204v-.266h.204Zm0 .176v.272h-.204v-.272zm0-.618h-.204v-.266h.204ZM195.863 147.66l-.141-.283h-.885l-.141.283h.124v1.548h-.124l.141.283h.885l.141-.283h-.124v-1.548zm-.283 1.576h-.198v-.272h.198Zm0-.442h-.198v-.25h.198Zm0-.442h-.198v-.272h.198Zm0-.442h-.198v-.273h.198Zm-.567-.273h.204v.273h-.204zm0 .908h.204v.272h-.204zm0-.17v-.273h.204v.273zm0 .612h.204v.272h-.204zM193.5 147.66l-.143-.283h-.884l-.142.283h.125v1.548h-.125l.142.283h.884l.142-.283h-.124v-1.548zm-.301 1.576H193v-.272h.199zm0-.442H193v-.25h.199zm0-.442H193v-.272h.199zm0-.442H193v-.273h.199zm-.567-.273h.204v.273h-.204zm0 .885h.204v.272h-.204zm0-.17v-.272h.204v.272zm0 .612h.204v.272h-.204zM191.135 147.66l-.142-.283h-.884l-.142.283h.125v1.548h-.125l.142.283h.884l.142-.283h-.125v-1.548zm-.3 1.576h-.199v-.272h.199zm0-.442h-.199v-.25h.199zm0-.442h-.199v-.272h.199zm0-.442h-.199v-.273h.199zm-.567-.273h.21v.273h-.205zm0 .885h.21v.272h-.205zm0-.17v-.272h.21v.272zm0 .612h.21v.272h-.205zM188.776 147.66l-.141-.283h-.89l-.142.283h.125v1.548h-.125l.142.283h.884l.142-.283h-.125v-1.548zm-.3 1.576h-.198v-.272h.198zm0-.442h-.198v-.25h.198zm0-.442h-.198v-.272h.198zm0-.442h-.198v-.273h.198zm-.567-.273h.204v.273h-.204zm0 .885h.204v.272h-.204zm0-.17v-.272h.204v.272zm0 .612h.204v.272h-.204zM195.863 150.2l-.141-.283h-.885l-.141.283h.124v1.542h-.124l.141.284h.885l.141-.284h-.124V150.2zm-.283 1.576h-.198v-.272h.198Zm0-.442h-.198v-.272h.198Zm0-.448h-.198v-.266h.198Zm0-.442h-.198v-.266h.198Zm-.567-.267h.204v.267h-.204zm0 .885h.204v.272h-.204zm0-.176v-.266h.204v.266zm0 .618h.204v.272h-.204zM193.5 150.2l-.143-.283h-.884l-.142.283h.125v1.542h-.125l.142.284h.884l.142-.284h-.124V150.2zm-.301 1.576H193v-.272h.199zm0-.442H193v-.272h.199zm0-.448H193v-.266h.199zm0-.442H193v-.267h.199zm-.567-.267h.204v.267h-.204zm0 .885h.204v.272h-.204zm0-.176v-.266h.204v.266zm0 .618h.204v.272h-.204zM191.135 150.2l-.142-.283h-.884l-.142.283h.125v1.542h-.125l.142.284h.884l.142-.284h-.125V150.2zm-.3 1.576h-.199v-.272h.199zm0-.442h-.199v-.272h.199zm0-.448h-.199v-.266h.199zm0-.442h-.199v-.267h.199zm-.567-.267h.21v.267h-.205zm0 .885h.21v.272h-.205zm0-.176v-.266h.21v.266zm0 .618h.21v.272h-.205zM188.776 150.2l-.141-.283h-.89l-.142.283h.125v1.542h-.125l.142.284h.884l.142-.284h-.125V150.2zm-.3 1.576h-.198v-.272h.198zm0-.442h-.198v-.272h.198zm0-.448h-.198v-.266h.198zm0-.442h-.198v-.267h.198zm-.567-.267h.204v.267h-.204zm0 .885h.204v.272h-.204zm0-.176v-.266h.204v.266zm0 .618h.204v.272h-.204zM182.869 147.501h-.085v1.94h.918v-1.94zm.663.443h-.204v-.272h.204zm0 .442h-.204v-.272h.204zm0 .442h-.204v-.283h.204zm-.567-.272h.198v.272h-.198zm0-.442h.198v.272h-.198zm0-.442h.198v.272h-.198zm0 1.326h.198v.272h-.198zm.567.272h-.204v-.272h.204zM184.309 147.501h-.068v1.94h.918v-1.94zm.657.443h-.204v-.272h.204zm0 .442h-.204v-.272h.204zm0 .442h-.204v-.283h.204zm-.567-.272h.199v.272h-.199zm0-.442h.199v.272h-.199zm0-.442h.199v.272h-.199zm0 1.326h.199v.272h-.199zm.567.272h-.204v-.272h.204zM182.869 150.15h-.085v1.938h.918v-1.939zm.663.441h-.204v-.272h.204zm0 .443h-.204v-.273h.204zm0 .442h-.204v-.272h.204zm-.567-.272h.198v.272h-.198zm0-.443h.198v.273h-.198zm0-.442h.198v.272h-.198zm0 1.327h.198v.3h-.198zm.567.272h-.204v-.272h.204zM184.309 150.15h-.068v1.938h.918v-1.939zm.657.441h-.204v-.272h.204zm0 .443h-.204v-.273h.204zm0 .442h-.204v-.272h.204zm-.567-.272h.199v.272h-.199zm0-.443h.199v.273h-.199zm0-.442h.199v.272h-.199zm0 1.327h.199v.3h-.199zm.567.272h-.204v-.272h.204zM177.199 147.501h-.085v1.94h.918v-1.94zm.658.443h-.199v-.272h.199zm0 .442h-.199v-.272h.199zm0 .442h-.199v-.283h.199zm-.567-.272h.204v.272h-.204zm0-.442h.204v.272h-.204zm0-.442h.204v.272h-.204zm0 1.326h.204v.272h-.204zm.567.272h-.199v-.272h.199zM175.736 147.501h-.085v1.94h.919v-1.94zm.664.443h-.199v-.272h.199zm0 .442h-.199v-.272h.199zm0 .442h-.199v-.283h.199zm-.567-.272h.204v.272h-.204zm0-.442h.204v.272h-.204zm0-.442h.204v.272h-.204zm0 1.326h.204v.272h-.204zm.567.272h-.199v-.272h.199zM177.199 150.15h-.085v1.938h.918v-1.939zm.658.441h-.199v-.272h.199zm0 .443h-.199v-.273h.199zm0 .442h-.199v-.272h.199zm-.567-.272h.204v.272h-.204zm0-.443h.204v.273h-.204zm0-.442h.204v.272h-.204zm0 1.327h.204v.3h-.204zm.567.272h-.199v-.272h.199zM175.736 150.15h-.085v1.938h.919v-1.939zm.664.441h-.199v-.272h.199zm0 .443h-.199v-.273h.199zm0 .442h-.199v-.272h.199zm-.567-.272h.204v.272h-.204zm0-.443h.204v.273h-.204zm0-.442h.204v.272h-.204zm0 1.327h.204v.3h-.204zm.567.272h-.199v-.272h.199zM180.374 150.246a1.29 1.29 0 0 0-.98.396.67.67 0 0 0-.165.426v.158h.187v-.158a.4.4 0 0 1 .108-.267 1.264 1.264 0 0 1 1.7 0 .43.43 0 0 1 .108.267v.158h.182v-.158c0-.437-.5-.822-1.14-.822M180.408 146.118a.153.153 0 1 0 .153.153.153.153 0 0 0-.153-.153"
     style="stroke-width:.566965"
     transform="translate(-169.6 -138.34)"
     id="path62" />
  <path
     d="M238.357 146.532v-.034l-5.907-2.438a.4.4 0 0 0-.057-.181.3.3 0 0 0-.051-.182l-.062-.624-.068.624a.3.3 0 0 0-.051.182.4.4 0 0 0-.051.175l-2.076.856h-13.901v-.209l-9.497-3.124a.4.4 0 0 0-.097-.261.34.34 0 0 0-.085-.233l-.102-.822-.102.8a.34.34 0 0 0-.085.232.4.4 0 0 0-.09.261l-9.514 3.124v.21h-13.919l-2.064-.85a.35.35 0 0 0-.056-.182.28.28 0 0 0-.051-.182l-.063-.623-.062.623a.28.28 0 0 0-.057.182.34.34 0 0 0-.057.176l-5.907 2.466v.255h.119v.136h.119v.136h.119v.136h.153-.085v5.794h63.194v-5.782h-.091.159v-.136h.119v-.137h.113v-.136h.125v-.22zm-6.072-2.359 5.619 2.32h-3.464l-2.058-.851a.2.2 0 0 0 0-.063l-.063-.623-.068.623a.2.2 0 0 0 0 .063l-2.064.85h-3.464zm-51.883 1.849 1.134.47h-2.268zm4.134-.312h12.745v.839h-10.772v-.034zm12.218-.522h.192v.176h.187v.09h-13.221l-.646-.266zm11.577-.476h-3.969l1.99-.669zm-11.685.125h19.401v.09h-19.401zm.193.175h19.01v.091h-19.01zm.192.176h18.63v.085h-18.63Zm12.519 3.402h-.238v-.312h.238Zm-.369-2.835h.5l-.091.165h-.312zm-.04 2.359h-.203v-2.092l.102-.187.102.187zm0 .476h-.203v-.312h.204zm-5.98-.312h.237v.312h-.238zm.408 0h.204v.312h-.204zm-.137-2.358h-.306l-.096-.165h.487zm.137.113.102-.187.102.187v2.08h-.204zm4.632-.278.153.278v2.08h-.142v-1.53a.7.7 0 0 0-.102-.3.74.74 0 0 0-.284-.278.74.74 0 0 0-.374-.102.7.7 0 0 0-.38.107.7.7 0 0 0-.272.272.7.7 0 0 0-.096.301v1.52h-.63v-1.52a.8.8 0 0 0-.09-.3.75.75 0 0 0-.278-.273.7.7 0 0 0-.38-.107.74.74 0 0 0-.374.102.74.74 0 0 0-.284.277.7.7 0 0 0-.102.301v1.52h-.141v-2.081l.158-.278zm.6.165h-.311l-.097-.165h.505zm-.277.175h.244v2.019h-.244zm-.47.981h-.17v-.323h.17zm-.517 0v-.323h.176v.323zm.176.17v.295h-.176v-.295zm-.516-.17v-.323h.17v.323zm.17.17v.295h-.17v-.295zm-.51 0h.17v.295h-.17zm0-.17v-.323h.17v.323zm0 .635h.17v.295h-.17zm.34 0h.17v.295h-.17zm.34 0h.176v.295h-.176zm.346 0h.17v.295h-.17zm.17-.17h-.17v-.295h.17zm-.465-.964.216-.374a.6.6 0 0 1 .153.165.6.6 0 0 1 .08.21zm-.119-.136h-.034l-.181-.323a.6.6 0 0 1 .21-.051.6.6 0 0 1 .21.045zm-.176.136h-.425a.5.5 0 0 1 .068-.204.5.5 0 0 1 .142-.164zm-1.417.5h-.17v-.324h.17zm-.51 0v-.324h.17v.323zm.17.17v.294h-.17v-.295zm-.51-.17v-.324h.17v.323zm.17.17v.294h-.17v-.295zm-.51 0h.164v.294h-.199zm0-.17v-.324h.164v.323zm0 .634h.164v.295h-.199zm.34 0h.17v.295h-.17zm.34 0h.17v.295h-.17zm.34 0h.17v.295h-.17zm.17-.17h-.17v-.295h.17zm-.436-.964.215-.368a.5.5 0 0 1 .142.164.5.5 0 0 1 .068.204zm-.12-.13h-.034l-.187-.323a.6.6 0 0 1 .21-.046.6.6 0 0 1 .216.051zm-.175.13h-.448a.7.7 0 0 1 .08-.21.6.6 0 0 1 .152-.164zm-.913-.669h-.312l-.096-.164h.504zm-.272.176h.238v2.018h-.238zm0 2.183h.238v.312h-.238zm.408 0h3.969v.312h-3.97zm4.167 0h.244v.312h-.244zm-5.103-2.183v2.018h-.238v-2.018zm6.152 2.018h-.238v-2.018h.238zm-12.331-2.755h18.256v.085h-18.256zm18.34.09v-.09h.188v-.176h13.675l-.646.267zm-18.114.307h5.386l.16.278v2.693h-5.546zm12.275 2.97v-2.692l.153-.278h5.37v2.97zm5.67-2.182v-.822h12.734l-1.962.788v.034zm16.867-.51 1.134.47h-2.268Zm-25.939-4.355 9.22 3.028h-5.773l-3.282-1.077a.3.3 0 0 0-.068-.114l-.097-.805-.102.805a.3.3 0 0 0-.068.108l-3.294 1.083h-5.766zm-25.95 2.506 5.619 2.32h-3.481l-2.053-.851-.034-.063-.062-.623-.062.623a.3.3 0 0 0-.034.063l-2.064.85h-3.459zm-5.992 2.495v-.051h11.996v.051zm.119.136v-.051h11.758v.051zm.119.136v-.05h11.52v.05zm.119.136v-.05h11.282v.05zm4.02.267.079.181v1.633h-.233v-1.633l.08-.181zm3.401 2.188h-.215v-.238h.232zm-3.56-.238h.232v.238h-.232zm.862-1.134a.7.7 0 0 1 .045-.142.37.37 0 0 1 .13-.158.23.23 0 0 1 .153-.057.3.3 0 0 1 .16.057.44.44 0 0 1 .124.158 1 1 0 0 1 .04.142h-.647zm.663.527h-.255v-.357h.255zm-.425 0h-.25v-.357h.25zm.17.176h.255v.323h-.255zm-.42 0h.25v.323h-.25zm2.223.46v.237h-2.563v-.238zm-1.032-1.135a1 1 0 0 1 .04-.141.44.44 0 0 1 .124-.16.3.3 0 0 1 .159-.056.23.23 0 0 1 .153.057.37.37 0 0 1 .13.159.7.7 0 0 1 .046.141h-.646zm.669.528h-.25v-.357h.25zm-.425 0h-.244v-.357h.25zm.175.175h.25v.324h-.25zm-.425 0h.25v.324h-.244zm1.038.324h-.193v-1.083a.6.6 0 0 0-.062-.216.57.57 0 0 0-.182-.226.43.43 0 0 0-.255-.085.4.4 0 0 0-.255.09.5.5 0 0 0-.182.221.7.7 0 0 0-.056.216v1.026h-.17v-1.026a1 1 0 0 0-.057-.216.5.5 0 0 0-.182-.22.4.4 0 0 0-.255-.091.43.43 0 0 0-.255.085.57.57 0 0 0-.181.226.6.6 0 0 0-.063.216v1.026h-.215v-1.633l.08-.181h2.426l.08.181zm.487 0h-.215v-1.69l.08-.181h.073l.08.181zm-7.274-1.815h3.402l.08.182v2.092h-3.46zm7.53 2.268v-2.143l.079-.181h3.362v2.268zm-5.387 3.175h-2.132v-.125h2.138zm1.225 0h-1.043v-.125h1.049zm-1.043-.329h-2.32v-2.608h3.403v2.608zm1.672.295h-.453v-.125h.453zm.794-.652h.204v.357h-.204zm.567-.351v.181h-.17v-.181zm-.187-.17v-.182h.187v.182zm.187.521v.357h-.17v-.34zm.357-.351v.181h-.187v-.181zm-.187-.17v-.182h.187v.182zm.187.521v.357h-.187v-.34zm.38-.521h-.17v-.182h.21zm0 .17v.181h-.17v-.181zm0 .351v.357h-.17v-.34zm0-.873h-.17v-.193h.21zm-.38 0h-.187v-.193h.187zm-.357 0h-.17v-.193h.17zm-.357 0h-.21v-.193h.204zm-.204.17h.204v.182h-.21Zm0 .352h.204v.181h-.21Zm2.63.986h-.453v-.125h.453zm-.567-.295h-.306v-1.117h-.181v1.134h-.136v-1.593h-1.593v1.593h-.142v-1.134h-.187v1.134h-.766v-2.545h3.901v2.545h-.567zm1.764.295h-.998v-.125h1.054zm2.307 0h-2.092v-.125h2.138zm0-.295h-3.305v-2.608h3.356v2.625zm11.374.295H186.06v-.125h11.22zm0-.295H186.06v-5.323h-.085.153v-.136h.119v-.137h.119v-.136h10.914v5.749zm3.736.295h-3.566v-.125h3.566zm1.973 0h-1.803v-.125h1.803zm0-.295h-5.534v-3.48h5.545v3.497zm1.003.295h-.827v-.125h.827zm1.367-.947h.187v.67h-.187zm.567-.567v.102h-.199v-.124zm-.199-.17v-.124h.199v.124zm.199.465v.125h-.199v-.125zm0 .3v.641h-.199v-.669zm.368-.566v.073h-.198v-.124zm-.198-.17v-.125h.198v.125zm.198.465v.124h-.198v-.124zm0 .3v.612h-.198v-.669zm.369-.567v.045h-.199v-.124zm-.199-.17v-.125h.199v.125zm.199.465v.125h-.199v-.125zm0 .3v.584h-.199v-.669zm.368-.567v.017h-.198v-.124zm-.198-.17v-.124h.198v.124zm.198.465v.125h-.198v-.125zm0 .3v.556h-.198v-.669zm.346-.175h-.176v-.125h.176zm0 .176v.555h-.176v-.669zm0-.47h-.176v-.126h.176zm0-.296h-.176v-.124h.176zm0-.294h-.176v-.13h.176zm-.346 0h-.198v-.13h.198zm-.368 0h-.199v-.13h.199zm-.369 0h-.198v-.13h.198zm-.368 0h-.199v-.13h.199zm-.369 0h-.187v-.13h.187zm-.187.17h.187v.124h-.187zm0 .294h.187v.017h-.187zm0 .295h.187v.125h-.187zm2.472-.788v1.644h-.29v-2.03h-2.358v2.03h-.277v-1.99a.43.43 0 0 1 .147-.294 2.27 2.27 0 0 1 2.63 0 .43.43 0 0 1 .148.294zm.295 1.74h-.125v-1.683h.125zm0-1.74h-.125v-.232a.57.57 0 0 0-.198-.414 2.43 2.43 0 0 0-2.875 0 .57.57 0 0 0-.193.414v.232h-.13v-.232a.73.73 0 0 1 .238-.505 2.18 2.18 0 0 1 1.525-.504 2.23 2.23 0 0 1 1.525.504.72.72 0 0 1 .233.505zm-3.402.17v1.474h-.13v-1.587zm4.814 1.866h-.828v-.125h.828zm0-.295h-1.248v-2.087a.9.9 0 0 0-.283-.623 2.4 2.4 0 0 0-1.65-.567c-1.083 0-1.933.516-1.933 1.179v2.001h-1.265v-3.373h6.39v3.373zm1.978.295h-1.803v-.125h1.803zm.085-.295h-1.882v-3.595h5.528v3.498h-3.646zm3.646.295h-3.56v-.125h3.56zm.227-.392v-5.76h10.908v.136h.12v.136h.113v.136h.158-.085v5.352zm15.217-5.153.085.181v1.633h-.232v-1.65l.079-.181zm3.402 2.188h-.233v-.238h.233zm-3.572-.238h.26v.238h-.232zm.873-1.134a.5.5 0 0 1 .045-.142.36.36 0 0 1 .125-.158.25.25 0 0 1 .159-.057.3.3 0 0 1 .159.057.4.4 0 0 1 .124.158.4.4 0 0 1 .04.142zm.663.527h-.255v-.357h.255zm-.425 0h-.25v-.357h.25zm.17.176h.255v.323h-.255zm-.42 0h.25v.323h-.25zm2.235.46v.238h-2.597v-.239zm-1.032-1.135a.4.4 0 0 1 .04-.141.4.4 0 0 1 .124-.159.3.3 0 0 1 .159-.057.24.24 0 0 1 .153.057.36.36 0 0 1 .125.159.5.5 0 0 1 .05.141h-.657zm.669.528H233v-.357h.255zm-.426 0h-.255v-.357h.255zm.17.175h.256v.324H233zm-.425 0h.255v.324h-.255zm1.044.324h-.193v-1.1a.8.8 0 0 0-.063-.216.6.6 0 0 0-.181-.226.46.46 0 0 0-.26-.085.42.42 0 0 0-.262.09.53.53 0 0 0-.175.221.6.6 0 0 0-.057.216v1.025h-.176v-1.025a.7.7 0 0 0-.05-.216.57.57 0 0 0-.182-.22.42.42 0 0 0-.261-.091.43.43 0 0 0-.255.085.57.57 0 0 0-.187.226.8.8 0 0 0-.063.216v1.026h-.187v-1.633l.08-.181h2.432l.085.181zm.476 0h-.233v-1.707l.08-.181h.068l.085.181zm-7.263-1.815h3.402l.085.182v2.092h-3.459zm7.518 2.268v-2.16l.08-.181h3.373v2.268zm-7.682 3.175h-11.192v-.125h11.214zm2.307 0h-2.137v-.125h2.137zm1.213 0h-1.043v-.125h1.072zm-1.02-.346h-2.308v-2.608h3.357v2.608zm1.672.295h-.459v-.125h.46zm.885-.635h.193v.34h-.204zm.567-.351v.181h-.187v-.181zm-.187-.17v-.182h.187v.182zm.187.521v.34h-.187v-.34zm.357-.351v.181h-.164v-.181zm-.187-.17v-.182h.187v.182zm.187.521v.34h-.164v-.34zm.38-.521h-.21v-.182H233zm0 .17v.181h-.21v-.181zm0 .351v.34h-.21v-.34zm0-.873h-.21v-.193H233zm-.38 0h-.164v-.193h.187zm-.357 0h-.187v-.193h.187zm-.357 0h-.204v-.193h.187zm-.204.17h.187v.182h-.204zm0 .352h.187v.181h-.204zm2.55.986h-.436v-.125h.437zm-.453-.295h-.311v-1.134h-.182v1.134h-.136v-1.593h-1.638v1.593h-.142v-1.134h-.182v1.134h-.85v-2.545h3.884v2.545h-.448zm1.701.295h-1.071v-.125h1.071zm2.308 0h-2.138v-.125h2.138zm-2.149-.295h-1.242v-2.608h3.402v2.608zm2.268-5.42h-11.26v-.05h11.288zm.113-.136h-11.486v-.05h11.515zm.12-.136h-11.725v-.05h11.753zm.124-.136h-11.969v-.068h11.997z"
     style="stroke-width:.566965"
     transform="translate(-169.6 -138.34)"
     id="path63" />
  <path
     d="M234.752 147.501h-.085v1.94h.918v-1.94zm.657.443h-.204v-.272h.204zm0 .442h-.204v-.272h.204zm0 .442h-.204v-.283h.204zm-.567-.272h.199v.272h-.199zm0-.442h.199v.272h-.199zm0-.442h.199v.272h-.199zm0 1.326h.199v.272h-.199zm.567.272h-.204v-.272h.204zM236.18 147.501h-.085v1.94h.913v-1.94zm.658.443h-.204v-.272h.204zm0 .442h-.204v-.272h.204zm0 .442h-.204v-.283h.204zm-.567-.272h.198v.272h-.198zm0-.442h.198v.272h-.198zm0-.442h.198v.272h-.198zm0 1.326h.198v.272h-.198zm.567.272h-.204v-.272h.204zM234.752 150.15h-.085v1.938h.918v-1.939zm.657.441h-.204v-.272h.204zm0 .443h-.204v-.273h.204zm0 .442h-.204v-.272h.204zm-.567-.272h.199v.272h-.199zm0-.443h.199v.273h-.199zm0-.442h.199v.272h-.199zm0 1.327h.199v.3h-.199zm.567.272h-.204v-.272h.204zM236.18 150.15h-.085v1.938h.913v-1.939zm.658.441h-.204v-.272h.204zm0 .443h-.204v-.273h.204zm0 .442h-.204v-.272h.204zm-.567-.272h.198v.272h-.198zm0-.443h.198v.273h-.198zm0-.442h.198v.272h-.198zm0 1.327h.198v.3h-.198zm.567.272h-.204v-.272h.204zM229.082 147.501h-.09v1.94h.918v-1.94zm.658.443h-.199v-.272h.199zm0 .442h-.199v-.272h.199zm0 .442h-.199v-.283h.199zm-.567-.272h.204v.272h-.204zm0-.442h.204v.272h-.204zm0-.442h.204v.272h-.204zm0 1.326h.204v.272h-.204zm.567.272h-.199v-.272h.199zM227.642 147.501h-.085v1.94h.907v-1.94h-.833zm.658.443h-.199v-.272h.199zm0 .442h-.199v-.272h.199zm0 .442h-.199v-.283h.199zm-.567-.272h.204v.272h-.204zm0-.442h.204v.272h-.204zm0-.442h.204v.272h-.204zm0 1.326h.204v.272h-.204zm.567.272h-.199v-.272h.199zM229.082 150.15h-.09v1.938h.918v-1.939zm.658.441h-.199v-.272h.199zm0 .443h-.199v-.273h.199zm0 .442h-.199v-.272h.199zm-.567-.272h.204v.272h-.204zm0-.443h.204v.273h-.204zm0-.442h.204v.272h-.204zm0 1.327h.204v.3h-.204zm.567.272h-.199v-.272h.199zM227.642 150.15h-.085v1.938h.907v-1.939h-.833zm.658.441h-.199v-.272h.199zm0 .443h-.199v-.273h.199zm0 .442h-.199v-.272h.199zm-.567-.272h.204v.272h-.204zm0-.443h.204v.273h-.204zm0-.442h.204v.272h-.204zm0 1.327h.204v.3h-.204zm.567.272h-.199v-.272h.199zM232.32 150.246a1.3 1.3 0 0 0-.982.396.7.7 0 0 0-.158.426v.158h.181v-.158a.43.43 0 0 1 .108-.267 1.264 1.264 0 0 1 1.7 0 .4.4 0 0 1 .108.267v.158h.182v-.158c0-.437-.5-.822-1.14-.822M232.29 146.118a.153.153 0 1 0 .143.159.153.153 0 0 0-.142-.159"
     style="stroke-width:.566965"
     transform="translate(-169.6 -138.34)"
     id="path64" />
  <path
     d="M190.16 196.833a6.4 6.4 0 0 0 .25 1.775 7.7 7.7 0 0 0 .634 1.615 8.85 8.85 0 0 0 2.603 2.875l.056.04-3.538-6.401s-.006.056-.006.096z"
     class="cls-2"
     style="fill:#e4032e;stroke-width:.566965"
     transform="translate(-169.6 -138.34)"
     id="path66" />
  <path
     d="m 194.446,204.436 c -0.23898,-0.10983 -0.47537,-0.2252 -0.709,-0.346 -0.59554,-0.33281 -1.16397,-0.71198 -1.7,-1.134 -0.76556,-0.59512 -1.44325,-1.29537 -2.013,-2.08 -0.55664,-0.733 -0.97916,-1.55874 -1.248,-2.439 -0.25673,-0.8949 -0.37146,-1.82454 -0.34,-2.755 0.0254,-0.55873 0.0977,-1.11435 0.216,-1.661 l -1.61,-2.954 -0.386,-0.697 0.386,-0.692 1.967,-3.544 c -0.369,0.358 -0.732,0.715 -1.072,1.078 -0.47974,0.51414 -0.93204,1.05322 -1.355,1.615 -0.42,0.567 -0.8,1.1 -1.134,1.662 -0.33075,0.55295 -0.63704,1.12016 -0.918,1.7 -0.25897,0.55355 -0.486,1.12148 -0.68,1.701 -0.17551,0.54741 -0.32139,1.10389 -0.437,1.667 -0.10515,0.54495 -0.17529,1.09608 -0.21,1.65 -0.0436,0.53778 -0.0436,1.07822 0,1.616 0.0499,0.52245 0.13137,1.0414 0.244,1.554 -0.1663,-0.63626 -0.28002,-1.28511 -0.34,-1.94 -0.0648,-0.68046 -0.0648,-1.36554 0,-2.046 0.0661,-0.71007 0.18912,-1.41367 0.368,-2.104 0.18454,-0.71052 0.41775,-1.4075 0.698,-2.086 0.29888,-0.71619 0.64947,-1.40969 1.049,-2.075 0.42768,-0.70371 0.89129,-1.38495 1.389,-2.041 0.51333,-0.658 1.06867,-1.30467 1.666,-1.94 0.5036,-0.52334 1.02977,-1.02448 1.577,-1.502 l 5.726,-10.296 V 155.83 h -17.927 c 0,1.066 -0.046,2.223 -0.074,3.498 -0.227,8.726 -0.567,21.913 3.044,34.954 0.81834,2.96667 1.84763,5.87106 3.08,8.691 0.12012,-0.0319 0.24374,-0.0486 0.368,-0.05 0.65218,0.004 1.23334,0.41236 1.457,1.025 l 0.499,-0.283 c 0.20162,-0.11688 0.45038,-0.11688 0.652,0 0.19359,0.12299 0.30945,0.33767 0.306,0.567 l -0.04,0.845 c 0.0833,-0.005 0.16675,-0.005 0.25,0 0.65138,0.0282 1.21857,0.45356 1.428,1.071 0.0657,0.23177 0.0657,0.47723 0,0.709 0.18606,0.15571 0.32236,0.36259 0.392,0.595 0.19985,0.62161 -0.0113,1.30181 -0.528,1.701 -0.0713,0.064 -0.14721,0.12285 -0.227,0.176 l 0.165,0.17 c 0.35866,0.35648 0.17703,0.96876 -0.318,1.072 l -0.34,0.073 c 1.48325,2.33056 3.14986,4.53922 4.984,6.605 0.90667,0.242 1.83267,0.45933 2.778,0.652 v -11.458 z"
     class="cls-2"
     style="fill:#e4032e;stroke-width:0.566965"
     transform="translate(-169.6,-138.34)"
     id="path67"
     sodipodi:nodetypes="ccccccccccccccccccccccccccccccccccccccccccccccccccccc" />
  <path
     d="M181.196 160.632h.068v-2.489a.7.7 0 0 1-.108-.113c0 .47-.045 1.298-.045 2.092a3.5 3.5 0 0 0 0 .527zM208.382 162.396a.62.62 0 0 1-.493.158h-.992a.64.64 0 0 1-.675-.521 48 48 0 0 0-.255-1.066c-.051.238-.08.391-.097.493a.66.66 0 0 1 .13.386v.068a.63.63 0 0 1-.209.47.65.65 0 0 1-.488.17h-.7929999999999999a.6.6 0 0 1-.29-.034l-10.715 19.362a31 31 0 0 1 2.506-1.451 30 30 0 0 1 3.918-1.701 33 33 0 0 1 4.087-1.134 29 29 0 0 1 3.788-.505 19.4 19.4 0 0 1 3.555.097 16.5 16.5 0 0 1 3.209.725 11.6 11.6 0 0 1 2.534 1.236 8 8 0 0 1 1.015.777l-3.26-5.868-.391-.096a25 25 0 0 0-2.03-.346c-.692-.09-1.418-.13-2.149-.159s-1.463 0-2.217 0-1.497.108-2.268.198-1.536.222-2.313.369a34 34 0 0 0-2.324.527c-.777.204-1.554.437-2.325.686a46 46 0 0 1 2.948-.901 35 35 0 0 1 2.954-.652c.987-.176 1.945-.3 2.909-.391s1.854-.125 2.755-.125a25 25 0 0 1 2.653.136c.51.057 1.015.136 1.509.221l-6.175-11.146z"
     class="cls-2"
     style="fill:#e4032e;stroke-width:.566965"
     transform="translate(-169.6 -138.34)"
     id="path68" />
  <path
     d="M189.457 191.634a12 12 0 0 1 .765-1.417 18 18 0 0 1 2.07-2.688 22 22 0 0 1 2.596-2.336 22.3 22.3 0 0 1 3.028-1.956 25.5 25.5 0 0 1 3.35-1.514 24 24 0 0 1 2.733-.805c.46-.102.902-.192 1.35-.272s.839-.125 1.258-.17.828-.074 1.236-.085.8 0 1.197 0 .72.04 1.071.074a14 14 0 0 1 1.979.334v-.368a1 1 0 0 0-.102-.187.7.7 0 0 0-.187-.187c-.074-.057-.153-.12-.238-.176a5 5 0 0 0-.408-.238 3.5 3.5 0 0 0-.443-.21 8 8 0 0 0-.476-.182 11 11 0 0 0-1.814-.408 13 13 0 0 0-1.928-.13c-.658 0-1.332.045-2.013.108a25 25 0 0 0-2.698.453 23 23 0 0 0-2.642.76c-.862.3-1.701.646-2.54 1.02-.84.375-1.752.868-2.591 1.355a23 23 0 0 0-1.236.766l-3.998 7.217zM220.26 183.793a5.6 5.6 0 0 1 .08.93 8 8 0 0 1-.046.946 8 8 0 0 1-.159.908 7 7 0 0 1-.272.918 11.6 11.6 0 0 1-.833 1.763 7 7 0 0 1-.528.822c-.192.256-.385.533-.567.794l.522-.09.3-.142a3 3 0 0 0 .33-.199l.328-.243c.165-.125.323-.256.482-.386l.442-.408c.142-.142.284-.284.414-.425a12 12 0 0 0 1.168-1.514c.08-.12.148-.233.216-.346l-1.854-3.35z"
     class="cls-2"
     style="fill:#e4032e;stroke-width:.566965"
     transform="translate(-169.6 -138.34)"
     id="path69" />
  <path
     d="M219.96 197.53c-.783.494-1.582.959-2.416 1.395a31 31 0 0 1-3.923 1.701 32 32 0 0 1-4.088 1.134 28 28 0 0 1-3.782.505 19 19 0 0 1-3.555-.097 17 17 0 0 1-3.209-.72 12 12 0 0 1-2.54-1.236 7.6 7.6 0 0 1-1.848-1.7 7.1 7.1 0 0 1-1.134-2.076 8 8 0 0 1-.204-.907 6 6 0 0 1-.074-.93 8 8 0 0 1 .046-.947 9 9 0 0 1 .159-.907 7 7 0 0 1 .272-.918 10.769 10.769 0 0 1 .833-1.758c.159-.278.335-.567.527-.828q.288-.392.567-.793l-.527.096-.295.136a3 3 0 0 0-.329.204l-.328.238c-.165.13-.324.255-.482.391-.16.137-.3.267-.443.409-.141.141-.283.278-.42.42a14 14 0 0 0-1.167 1.519 9 9 0 0 0-.8 1.514c-.062.153-.113.3-.164.453l6.078 10.846c.164.063.329.13.499.187a17 17 0 0 0 1.888.522c.658.142 1.338.255 2.03.34s1.417.136 2.143.164c.725.029 1.468 0 2.217-.028a28 28 0 0 0 2.267-.193 33 33 0 0 0 2.308-.368 38.744 38.744 0 0 0 4.655-1.219q-1.469.51-2.948.901a35 35 0 0 1-2.954.652c-.987.17-1.945.3-2.909.392-.964.09-1.854.124-2.755.124a23 23 0 0 1-2.654-.136 25 25 0 0 1-2.5-.408 19 19 0 0 1-.89-.227l7.512 13.55h1.701c.567 0 1.174 0 1.758-.033z"
     class="cls-2"
     style="fill:#e4032e;stroke-width:.566965"
     transform="translate(-169.6 -138.34)"
     id="path70" />
  <path
     d="M223.293 189.241a18 18 0 0 1-2.013 2.603 23 23 0 0 1-2.596 2.341 22.3 22.3 0 0 1-3.028 1.956 27 27 0 0 1-3.35 1.514q-.68.238-1.367.442c-.46.136-.907.261-1.366.363s-.902.187-1.35.267-.844.124-1.258.17q-.623.067-1.236.085c-.409.011-.8 0-1.197 0s-.72-.04-1.071-.074q-.528-.052-1.02-.136a22 22 0 0 1-.959-.193v.369a1 1 0 0 0 .102.181.8.8 0 0 0 .182.187l.243.176q.195.126.409.244a5 5 0 0 0 .442.21c.159.062.312.124.476.181a12.5 12.5 0 0 0 1.814.408 13 13 0 0 0 1.928.125c.658 0 1.332-.04 2.013-.108a24 24 0 0 0 2.699-.453 23 23 0 0 0 2.636-.76c.867-.3 1.7-.64 2.546-1.02.844-.38 1.751-.862 2.59-1.35q.59-.342 1.135-.709l3.231-5.868z"
     class="cls-2"
     style="fill:#e4032e;stroke-width:.566965"
     transform="translate(-169.6 -138.34)"
     id="path71" />
  <path
     d="m 223.197,184.44 c 0.14251,-0.62905 0.21462,-1.27201 0.215,-1.917 -0.002,-0.60196 -0.0859,-1.20084 -0.25,-1.78 -0.15944,-0.561 -0.37975,-1.10289 -0.657,-1.616 -0.32175,-0.55494 -0.70191,-1.07389 -1.134,-1.548 -0.44439,-0.49591 -0.94243,-0.94096 -1.485,-1.327 -0.57829,-0.40815 -1.1867,-0.77186 -1.82,-1.088 l -0.624,-0.267 5.59,10.07 c 0.068,-0.176 0.12,-0.352 0.165,-0.528"
     style="stroke-width:0.566965"
     transform="translate(-169.6,-138.34)"
     id="path72"
     sodipodi:nodetypes="cccccccccc" />
  <path
     d="m 224.886,210.678 -0.345,-0.073 c -0.22682,-0.0517 -0.40873,-0.22062 -0.477,-0.443 -0.0666,-0.2219 -0.008,-0.46248 0.153,-0.629 l 0.17,-0.17 c -0.0794,-0.0558 -0.15683,-0.11454 -0.232,-0.176 -0.51216,-0.4019 -0.72202,-1.07888 -0.527,-1.7 0.072,-0.2311 0.20705,-0.43751 0.39,-0.596 -0.0543,-0.235 -0.0422,-0.48049 0.035,-0.709 0.20714,-0.61952 0.77624,-1.04605 1.429,-1.071 0.0832,-0.005 0.16675,-0.005 0.25,0 l -0.04,-0.845 c -0.005,-0.22981 0.11091,-0.44541 0.306,-0.567 0.19954,-0.11665 0.44646,-0.11665 0.646,0 l 0.499,0.283 c 0.22453,-0.61211 0.80503,-1.02089 1.457,-1.026 0.12879,7e-5 0.25686,0.0193 0.38,0.057 1.23694,-2.81826 2.26569,-5.72337 3.078,-8.692 3.612,-13.04 3.272,-26.227 3.05,-34.953 -0.0335,-1.16579 -0.0578,-2.33183 -0.073,-3.498 h -17.91 l 0.005,18.285 c 0.233,0.073 0.47,0.141 0.698,0.22 0.68922,0.24396 1.35826,0.54154 2.001,0.89 0.60591,0.33177 1.1844,0.7113 1.73,1.135 0.76301,0.59994 1.44,1.30183 2.012,2.086 0.54153,0.73969 0.94842,1.56904 1.202,2.45 0.25564,0.89683 0.37034,1.82794 0.34,2.76 -0.0444,0.9282 -0.20843,1.84679 -0.488,2.733 -0.09,0.284 -0.198,0.567 -0.311,0.856 l 1.355,2.438 0.385,0.692 -0.385,0.697 -1.23,2.223 c 0.413,-0.397 0.816,-0.794 1.196,-1.202 0.48025,-0.51997 0.93255,-1.06507 1.355,-1.633 0.414,-0.567 0.8,-1.106 1.134,-1.667 0.33826,-0.54969 0.6467,-1.11718 0.924,-1.7 0.2619,-0.552 0.48738,-1.12055 0.675,-1.702 0.17918,-0.54673 0.32676,-1.10332 0.442,-1.667 0.10515,-0.54495 0.17529,-1.09608 0.21,-1.65 0.0433,-0.53579 0.0433,-1.07421 0,-1.61 -0.0497,-0.52413 -0.13117,-1.04475 -0.244,-1.559 0.17153,0.6451 0.28894,1.30338 0.351,1.968 0.0639,0.68251 0.0639,1.36949 0,2.052 -0.0692,0.70766 -0.19223,1.40903 -0.368,2.098 -0.18687,0.70522 -0.42175,1.39683 -0.703,2.07 -0.29925,0.71588 -0.65017,1.40904 -1.05,2.074 -0.42586,0.70797 -0.89127,1.39138 -1.394,2.047 -0.52293,0.67012 -1.07721,1.31517 -1.661,1.933 -0.595,0.635 -1.1,1.1 -1.701,1.622 l -6.48,11.674 v 11.43 c 0.94467,-0.19333 1.87233,-0.409 2.783,-0.647 1.82972,-2.0619 3.4942,-4.26471 4.978,-6.588"
     style="stroke-width:0.566965"
     transform="translate(-169.6,-138.34)"
     id="path73"
     sodipodi:nodetypes="ccccccccccccccccccccccccccccccccccccccccccccccccccccccc" />
  <path
     d="M184.468 213.626a2.6 2.6 0 0 1-.443-.345l-.045.085a.64.64 0 0 1-.567.351.64.64 0 0 1-.567-.306v-.034a2.3 2.3 0 0 1-.386.295 1.57 1.57 0 0 1-1.786 0 1.26 1.26 0 0 1-.447-.567 1.24 1.24 0 0 1-.664-.25 1.565 1.565 0 0 1-.567-1.7 2.4 2.4 0 0 1 .12-.375h-.21a.66.66 0 0 1-.567-.363.65.65 0 0 1 .056-.646l.204-.29a2.4 2.4 0 0 1-.294-.22 1.8 1.8 0 0 1-.386-.465c-.278-.221-.567-.448-.816-.686l.232 3.617a20 20 0 0 0 1.848 1.423 21 21 0 0 0 4.343 2.376l.403.136.669-1.162.034-.057.04-.034h.04l2.63-.663c-.284-.063-.567-.148-.941-.256a2 2 0 0 1-.148.12 1.565 1.565 0 0 1-1.786.016M234.366 209.25a3 3 0 0 1-.295.22l.204.29a.646.646 0 0 1-.487 1.009h-.21a2.4 2.4 0 0 1 .119.374 1.58 1.58 0 0 1-.567 1.701 1.23 1.23 0 0 1-.663.25 1.24 1.24 0 0 1-.443.566 1.57 1.57 0 0 1-1.785 0 2.4 2.4 0 0 1-.392-.294v.034a.64.64 0 0 1-.567.306.64.64 0 0 1-.567-.352l-.045-.085a3 3 0 0 1-.448.346 1.57 1.57 0 0 1-1.786 0l-.142-.119c-.34.108-.657.193-.935.255l2.54.562h.04l.034.034a1 1 0 0 1 .04.056l.668 1.163a22 22 0 0 0 6.594-3.935l.233-3.617q-.409.368-.834.697a1.9 1.9 0 0 1-.306.539M228.957 217.346l-1.292-2.268c-.465.232-1.23.567-1.894.873-5.466 2.347-12.394 3.668-19.424 3.668-7.87 0-15.615-1.655-21.318-4.535l-1.299 2.267a52.04 52.04 0 0 0 45.227 0z"
     class="cls-2"
     style="fill:#e4032e;stroke-width:.566965"
     transform="translate(-169.6 -138.34)"
     id="path74" />
  <path
     d="M229.785 218.792a53.7 53.7 0 0 1-46.882 0l-1.338 2.324c6.996 3.504 15.784 5.432 24.782 5.432s17.78-1.928 24.776-5.432zM172.522 213.32l3.685-.397a24.4 24.4 0 0 0 6.9 4.224l-1.066 1.854a48.8 48.8 0 0 1-9.52-5.68M240.166 213.32l-3.685-.397a24.3 24.3 0 0 1-6.883 4.224l1.066 1.854a48.8 48.8 0 0 0 9.502-5.68"
     class="cls-2"
     style="fill:#e4032e;stroke-width:.566965"
     transform="translate(-169.6 -138.34)"
     id="path75" />
  <path
     d="m177.437 212.804-1.207.12a24.4 24.4 0 0 0 6.877 4.223l.845-1.468a22 22 0 0 1-6.594-3.935zM229.785 218.792l-.828-1.446a52.04 52.04 0 0 1-45.227 0l-.827 1.446a53.7 53.7 0 0 0 46.882 0M235.268 212.804l1.207.12a24.3 24.3 0 0 1-6.877 4.223l-.845-1.468a22 22 0 0 0 6.594-3.935z"
     style="stroke-width:.566965"
     transform="translate(-169.6 -138.34)"
     id="path76" />
  <path
     d="m 213.729,225.017 c 0.34453,0.25532 0.77804,0.35964 1.201,0.289"
     style="stroke-width:0.566965"
     transform="translate(-169.6,-138.34)"
     id="path80"
     sodipodi:nodetypes="cc" />
  <path
     d="m 206.352,229.133 c -1.11611,-0.62827 -2.21074,-1.29398 -3.282,-1.996 -0.91221,-0.0506 -1.82338,-0.11867 -2.733,-0.204 1.82157,1.30117 3.71453,2.49938 5.67,3.589 l 0.334,0.181 0.334,-0.181 c 1.9567,-1.08974 3.84977,-2.29002 5.67,-3.595 -0.907,0.091 -1.814,0.16 -2.733,0.205 -1.03933,0.69867 -2.126,1.36533 -3.26,2"
     class="cls-1"
     style="fill:#ffffff;stroke-width:0.566965"
     transform="translate(-169.6,-138.34)"
     id="path82"
     sodipodi:nodetypes="ccccccccc" />
  <path
     d="m 208.087,227.2 h -3.481 c 0.567,0.351 1.134,0.703 1.74,1.037 0.573,-0.317 1.169,-0.686 1.741,-1.037 m 17.208,-33.984 c 0.57803,-0.62305 1.13178,-1.2682 1.66,-1.934 0.50339,-0.65524 0.96946,-1.33833 1.396,-2.046 0.39918,-0.66534 0.74944,-1.35884 1.048,-2.075 0.28125,-0.67317 0.51613,-1.36478 0.703,-2.07 0.1761,-0.68895 0.29946,-1.39031 0.369,-2.098 0.0639,-0.68251 0.0639,-1.36949 0,-2.052 -0.0624,-0.66431 -0.18018,-1.32226 -0.352,-1.967 0.11283,0.51425 0.19431,1.03487 0.244,1.559 0.0433,0.53579 0.0433,1.07421 0,1.61 -0.0347,0.55392 -0.10485,1.10505 -0.21,1.65 -0.11524,0.56368 -0.26282,1.12027 -0.442,1.667 -0.18738,0.58075 -0.41252,1.14863 -0.674,1.7 -0.27759,0.58318 -0.58637,1.15101 -0.925,1.701 -0.35109,0.5735 -0.72953,1.12981 -1.134,1.667 -0.4231,0.56007 -0.87539,1.09748 -1.355,1.61 -0.38,0.409 -0.782,0.806 -1.196,1.202 l 1.236,-2.228 0.386,-0.697 -0.386,-0.692 -1.355,-2.438 c 0.113,-0.289 0.221,-0.567 0.312,-0.856 0.27957,-0.88621 0.44359,-1.8048 0.488,-2.733 0.0303,-0.93206 -0.0844,-1.86317 -0.34,-2.76 -0.25389,-0.88102 -0.66112,-1.71039 -1.203,-2.45 -0.572,-0.78417 -1.24899,-1.48606 -2.012,-2.086 -0.54563,-0.42335 -1.12413,-0.80255 -1.73,-1.134 -0.64274,-0.34846 -1.31178,-0.64604 -2.001,-0.89 -0.227,-0.08 -0.465,-0.148 -0.697,-0.222 l 0.034,-18.352 H 195.58 v 18.545 l -5.726,10.285 c -0.567,0.487 -1.083,0.986 -1.576,1.502 -0.59733,0.63533 -1.153,1.282 -1.667,1.94 -0.49802,0.65571 -0.96197,1.33661 -1.39,2.04 -0.3997,0.66921 -0.74997,1.36673 -1.048,2.087 -0.28125,0.67317 -0.51613,1.36478 -0.703,2.07 -0.17916,0.68998 -0.30256,1.39324 -0.369,2.103 -0.0638,0.68628 -0.0618,1.3771 0.006,2.063 0.0624,0.66465 0.18013,1.32293 0.352,1.968 -0.11263,-0.5126 -0.19411,-1.03155 -0.244,-1.554 -0.0436,-0.53778 -0.0436,-1.07822 0,-1.616 0.0347,-0.55392 0.10485,-1.10505 0.21,-1.65 0.11532,-0.56276 0.26086,-1.1189 0.436,-1.666 0.194,-0.57952 0.42103,-1.14745 0.68,-1.701 0.273,-0.567 0.568,-1.134 0.919,-1.701 0.351,-0.567 0.731,-1.134 1.134,-1.661 0.42293,-0.56212 0.87523,-1.10154 1.355,-1.616 0.34,-0.363 0.703,-0.72 1.072,-1.077 l -1.968,3.543 -0.385,0.692 0.385,0.697 1.627,2.931 c -0.11804,0.54701 -0.18996,1.10296 -0.215,1.662 -0.04,0.92733 0.0652,1.85521 0.312,2.75 0.25314,0.88236 0.66005,1.7131 1.202,2.454 0.57488,0.78615 1.25835,1.4868 2.03,2.081 0.53603,0.42202 1.10446,0.80119 1.7,1.134 0.228,0.11867 0.46433,0.234 0.709,0.346 l 1.134,2.007 v 11.475 c 2.27281,0.44899 4.57173,0.75394 6.883,0.913 l 1.18,0.074 -7.695,-13.89 c 0.386,0.135 0.783,0.254 1.185,0.368 0.29,0.08 0.567,0.158 0.89,0.227 0.8259,0.17816 1.66031,0.31433 2.5,0.408 0.88131,0.0965 1.76745,0.14186 2.654,0.136 0.902,0 1.826,-0.04 2.756,-0.125 1.97981,-0.18256 3.94073,-0.53146 5.862,-1.043 0.9929,-0.26614 1.97617,-0.56699 2.948,-0.902 -1.52475,0.50206 -3.07904,0.9095 -4.654,1.22 -0.76577,0.14405 -1.5354,0.26677 -2.308,0.368 -0.765,0.102 -1.514,0.153 -2.268,0.193 -0.73827,0.0409 -1.47794,0.0502 -2.217,0.028 -0.72533,-0.024 -1.43967,-0.0787 -2.143,-0.164 -0.6816,-0.0816 -1.35901,-0.19506 -2.03,-0.34 -0.63884,-0.13757 -1.26922,-0.31186 -1.888,-0.522 -0.17,-0.057 -0.334,-0.125 -0.498,-0.187 -0.42,-0.16 -0.828,-0.324 -1.225,-0.51 h -0.057 l -5.074,-9.157 v -0.09 c 0.0879,-0.35807 0.19783,-0.7104 0.329,-1.055 0.05,-0.153 0.102,-0.3 0.164,-0.454 0.21794,-0.52895 0.48582,-1.03591 0.8,-1.514 0.35383,-0.53273 0.74374,-1.04058 1.167,-1.52 0.137,-0.14 0.278,-0.283 0.42,-0.419 0.142,-0.136 0.29,-0.278 0.442,-0.408 0.152,-0.13 0.318,-0.26 0.482,-0.391 l 0.329,-0.238 c 0.10516,-0.075 0.21506,-0.14315 0.329,-0.204 l 0.295,-0.136 0.527,-0.097 c -0.21,0.267 -0.403,0.527 -0.567,0.794 -0.164,0.266 -0.369,0.567 -0.527,0.828 -0.32933,0.55989 -0.60842,1.14786 -0.834,1.757 -0.11156,0.29976 -0.20244,0.60681 -0.272,0.919 -0.0684,0.29942 -0.12151,0.60215 -0.159,0.907 -0.0337,0.3145 -0.0487,0.63072 -0.045,0.947 4.9e-4,0.31145 0.0252,0.62239 0.074,0.93 0.0504,0.30603 0.11848,0.60888 0.204,0.907 0.25935,0.75019 0.64267,1.45158 1.134,2.075 0.51748,0.66521 1.142,1.23972 1.848,1.7 0.79501,0.51091 1.64758,0.92612 2.54,1.237 1.04421,0.34321 2.11924,0.58434 3.21,0.72 1.17906,0.14301 2.36894,0.17515 3.554,0.096 1.27068,-0.0821 2.53428,-0.25087 3.782,-0.505 1.38589,-0.28687 2.75122,-0.66537 4.087,-1.133 1.3456,-0.47599 2.65672,-1.04434 3.924,-1.701 0.82321,-0.43273 1.62885,-0.8981 2.415,-1.395 0.42,-0.267 0.833,-0.533 1.236,-0.816 l 0.335,-0.25 -12.474,22.44 c 0.392,0 0.788,-0.04 1.18,-0.068 2.2999,-0.1774 4.58576,-0.50477 6.843,-0.98 v -11.43 l 6.458,-11.646 c 0.598,-0.51071 1.16942,-1.05175 1.712,-1.621 z m -7.212,-18.024 c 0.63333,0.31646 1.24174,0.6805 1.82,1.089 0.54251,0.38572 1.04056,0.83044 1.485,1.326 0.43209,0.47411 0.81225,0.99306 1.134,1.548 0.2776,0.51307 0.49824,1.05495 0.658,1.616 0.16412,0.57916 0.24823,1.17804 0.25,1.78 -7.1e-4,0.64503 -0.0732,1.28798 -0.216,1.917 -0.0467,0.17533 -0.096,0.351 -0.148,0.527 l -5.59,-10.07 z m -2.415,-1.424 h -0.108 c -0.323,-0.073 -0.658,-0.13 -0.992,-0.186 -0.5003,-0.089 -1.0032,-0.16268 -1.508,-0.221 -0.88163,-0.0923 -1.76755,-0.13775 -2.654,-0.136 -0.901,0 -1.825,0.045 -2.755,0.124 -0.93,0.08 -1.934,0.221 -2.909,0.392 -0.975,0.17 -1.967,0.39 -2.954,0.652 -0.99312,0.265 -1.97642,0.56553 -2.948,0.901 0.771,-0.25 1.548,-0.476 2.325,-0.686 0.776,-0.21 1.553,-0.38 2.324,-0.527 0.76691,-0.14738 1.5383,-0.27044 2.313,-0.369 0.75332,-0.0937 1.50983,-0.15979 2.268,-0.198 0.754,-0.04 1.497,-0.051 2.217,0 0.72,0.051 1.446,0.08 2.149,0.158 0.703,0.08 1.372,0.205 2.03,0.346 l 0.39,0.04 c 0.398,0.09 0.789,0.198 1.163,0.318 l 6.566,11.843 c -0.14144,0.31319 -0.3007,0.61802 -0.477,0.913 -0.0687,0.11714 -0.14041,0.23251 -0.215,0.346 -0.34844,0.53493 -0.73901,1.04121 -1.168,1.514 -0.13,0.142 -0.272,0.283 -0.414,0.425 l -0.442,0.408 c -0.158,0.13133 -0.31867,0.26 -0.482,0.386 l -0.329,0.244 c -0.10533,0.073 -0.21522,0.13909 -0.329,0.198 l -0.3,0.142 -0.522,0.09 c 0.204,-0.26 0.403,-0.527 0.567,-0.793 0.164,-0.267 0.369,-0.567 0.527,-0.822 0.16436,-0.27515 0.31391,-0.55889 0.448,-0.85 0.136,-0.284 0.272,-0.607 0.386,-0.914 0.11151,-0.29943 0.20239,-0.60615 0.272,-0.918 0.0704,-0.29903 0.12346,-0.60186 0.159,-0.907 0.0337,-0.3145 0.0487,-0.63072 0.045,-0.947 -7.4e-4,-0.31169 -0.0275,-0.62277 -0.08,-0.93 -0.0487,-0.29706 -0.1165,-0.59067 -0.203,-0.879 -0.24671,-0.75161 -0.62083,-1.45519 -1.106,-2.08 -0.25044,-0.32656 -0.52918,-0.63041 -0.833,-0.908 -0.3171,-0.28531 -0.65652,-0.54481 -1.015,-0.776 -0.79158,-0.51357 -1.64287,-0.92864 -2.535,-1.236 -1.04281,-0.34831 -2.11782,-0.59152 -3.209,-0.726 -1.17956,-0.14078 -2.36956,-0.17291 -3.555,-0.096 -1.27204,0.0846 -2.53712,0.25294 -3.787,0.504 -1.38558,0.28993 -2.75107,0.66871 -4.088,1.134 -1.34442,0.47323 -2.6534,1.04167 -3.917,1.701 -0.868,0.448 -1.701,0.936 -2.506,1.451 -0.38537,0.24041 -0.76354,0.49219 -1.134,0.755 l -0.437,0.328 c 15.47311,-26.84984 9.55665,-34.81285 23.762,-9.208 z m -27.753,16.834 -0.114,-0.21 0.114,-0.204 3.26,-5.868 0.47,-0.368 c 0.378,-0.28 0.756,-0.54667 1.134,-0.8 0.403,-0.266 0.811,-0.521 1.236,-0.765 0.83933,-0.488 1.703,-0.93967 2.591,-1.355 0.834,-0.374 1.701,-0.72 2.54,-1.02 0.86473,-0.30579 1.74697,-0.55957 2.642,-0.76 0.8907,-0.2005 1.79172,-0.35206 2.699,-0.454 0.68,-0.063 1.355,-0.102 2.013,-0.108 0.64467,-0.005 1.28878,0.0389 1.927,0.13 0.61546,0.0848 1.22264,0.22166 1.815,0.409 0.158,0.056 0.317,0.113 0.476,0.181 0.15205,0.0596 0.29975,0.12977 0.442,0.21 0.144,0.072 0.28,0.15133 0.408,0.238 0.085,0.057 0.165,0.12 0.239,0.176 0.0737,0.0499 0.13711,0.11335 0.187,0.187 0.0406,0.0585 0.0747,0.12121 0.102,0.187 v 0.369 c -0.65071,-0.15931 -1.31211,-0.27127 -1.979,-0.335 -0.35664,-0.0338 -0.71409,-0.0585 -1.072,-0.074 -0.362,-0.017 -0.793,0 -1.196,0 -0.403,0 -0.822,0.04 -1.236,0.085 -0.414,0.045 -0.839,0.102 -1.259,0.17 -0.42,0.068 -0.901,0.17 -1.349,0.273 -0.45921,0.10366 -0.9148,0.22272 -1.366,0.357 -0.454,0.136 -0.913,0.283 -1.367,0.448 -1.15161,0.42309 -2.27118,0.92873 -3.35,1.513 -1.06046,0.56922 -2.07311,1.22335 -3.028,1.956 -0.92621,0.7086 -1.79462,1.48973 -2.597,2.336 -0.77309,0.82883 -1.46617,1.72883 -2.07,2.688 -0.28907,0.46196 -0.54633,0.94307 -0.77,1.44 -0.15309,0.33495 -0.28926,0.67739 -0.408,1.026 z m 5.811,12.536 -0.057,-0.04 c -1.07755,-0.75161 -1.97424,-1.7337 -2.625,-2.875 -0.27944,-0.51172 -0.49985,-1.05353 -0.657,-1.615 -0.16619,-0.57701 -0.25035,-1.17454 -0.25,-1.775 v -0.12 z m 28.195,-7.734 c -0.402,0.295 -0.816,0.567 -1.241,0.856 -0.425,0.289 -0.755,0.482 -1.134,0.71 -0.84,0.48667 -1.70367,0.936 -2.591,1.348 -0.834,0.38 -1.701,0.72 -2.546,1.021 -0.86276,0.30556 -1.74299,0.55934 -2.636,0.76 -0.89065,0.20225 -1.79211,0.3535 -2.7,0.453 -0.68,0.068 -1.354,0.108 -2.012,0.108 -0.64488,0.006 -1.28932,-0.0356 -1.928,-0.125 -0.61396,-0.0908 -1.2203,-0.22716 -1.814,-0.408 -0.164,-0.057 -0.317,-0.119 -0.476,-0.181 -0.15067,-0.0627 -0.29818,-0.13283 -0.442,-0.21 -0.13906,-0.0767 -0.27547,-0.15805 -0.409,-0.244 l -0.243,-0.176 c -0.0705,-0.052 -0.13198,-0.11513 -0.182,-0.187 -0.0402,-0.0566 -0.0744,-0.11729 -0.102,-0.181 v -0.369 c 0.312,0.068 0.635,0.136 0.958,0.193 0.323,0.057 0.67,0.102 1.02,0.136 0.35267,0.0333 0.71,0.058 1.072,0.074 0.363,0.017 0.794,0 1.197,0 0.402,0 0.816,-0.04 1.236,-0.085 0.42,-0.046 0.83933,-0.10267 1.258,-0.17 0.91817,-0.15019 1.82547,-0.36064 2.716,-0.63 0.454,-0.136 0.913,-0.283 1.366,-0.442 1.15011,-0.42793 2.2697,-0.93377 3.351,-1.514 1.06046,-0.56922 2.07311,-1.22335 3.028,-1.956 0.92347,-0.71335 1.7913,-1.49594 2.596,-2.341 0.74907,-0.80439 1.42288,-1.67569 2.013,-2.603 l 0.057,-0.085 c 0.158,-0.25867 0.30733,-0.51733 0.448,-0.776 l 0.998,1.808 0.119,0.204 -0.12,0.21 -2.5,4.536 z"
     class="cls-1"
     style="fill:#ffffff;stroke-width:0.566965"
     transform="translate(-169.6,-138.34)"
     id="path83"
     sodipodi:nodetypes="ccccccccccccccccccccccccccccccccccccccccccccccccccscccccccccccccccccccccccccccccccccccccccccsscccccccccccccccccccccccccccccccccccccccccccccccccccccsccccccccccccccccccccccccccccccccccccccccccccccccccccccccccccsssccccccccccccccccccscccccccccccccccsccsccccccccccccccc" />
  <path
     d="M234.893 207.543a1.3 1.3 0 0 0-.39-.567 1.3 1.3 0 0 0-.035-.709 1.55 1.55 0 0 0-1.429-1.071 2 2 0 0 0-.25 0l.148-.709a.64.64 0 0 0-.85-.731l-.312.119-.334.119a1.9 1.9 0 0 0-.307-.494 67 67 0 0 0 3.005-8.6c3.697-13.352 3.357-26.727 3.13-35.577-.051-1.877-.09-3.493-.09-4.91v-.732H175.52v.686c0 1.418-.04 3.034-.09 4.91-.228 8.85-.568 22.225 3.129 35.577a67 67 0 0 0 2.999 8.59 1.8 1.8 0 0 0-.312.504l-.317-.113-.33-.125a.66.66 0 0 0-.64.114.64.64 0 0 0-.204.618l.142.708a2 2 0 0 0-.25 0 1.57 1.57 0 0 0-1.428 1.072 1.3 1.3 0 0 0 0 .709 1.25 1.25 0 0 0-.392.567 1.6 1.6 0 0 0-.062.272 1.46 1.46 0 0 0 .204.97 1.8 1.8 0 0 0 .386.464 2.4 2.4 0 0 0 .294.221l-.204.29a.65.65 0 0 0-.056.646.66.66 0 0 0 .567.363h.21a2.4 2.4 0 0 0-.12.374 1.565 1.565 0 0 0 .567 1.7 1.24 1.24 0 0 0 .664.25 1.26 1.26 0 0 0 .448.567 1.57 1.57 0 0 0 1.785 0 2.3 2.3 0 0 0 .386-.295v.034a.64.64 0 0 0 .567.306.64.64 0 0 0 .567-.351l.045-.085a2.6 2.6 0 0 0 .443.346 1.565 1.565 0 0 0 1.785 0 2 2 0 0 0 .148-.12 1.3 1.3 0 0 0 .3-.43 1.2 1.2 0 0 0 .227-.04c.595.187 1.134.346 1.65.488l.062.034v.062a.3.3 0 0 1 .085.181.3.3 0 0 1 0 .097.1.1 0 0 1 0 .04l-.368 1.445c.187.25.38.5.567.743.782.29 1.593.567 2.42.805a54 54 0 0 1-3.548-4.706 1.7 1.7 0 0 0 .079-1.071 2.6 2.6 0 0 0-.147-.448l.34-.074a.635.635 0 0 0 .317-1.071l-.164-.17a2 2 0 0 0 .227-.176 1.55 1.55 0 0 0 .527-1.701 1.24 1.24 0 0 0-.391-.595 1.3 1.3 0 0 0 0-.71 1.58 1.58 0 0 0-1.429-1.07 2 2 0 0 0-.25 0l.04-.845a.66.66 0 0 0-.306-.567.65.65 0 0 0-.652 0l-.499.283a1.56 1.56 0 0 0-1.457-1.026 1.5 1.5 0 0 0-.369.05 1.3 1.3 0 0 0-.311.143 1.24 1.24 0 0 0-.567-.182 67 67 0 0 1-2.96-8.47c-3.634-13.148-3.3-26.404-3.073-35.152.04-1.593.074-3 .085-4.258h58.947c0 1.259.046 2.665.085 4.258.227 8.77.567 22.026-3.078 35.152a65 65 0 0 1-2.954 8.442 1.2 1.2 0 0 0-.567.181 1.1 1.1 0 0 0-.306-.136 1.3 1.3 0 0 0-.38-.057 1.565 1.565 0 0 0-1.457 1.027l-.5-.284a.64.64 0 0 0-.645 0 .65.65 0 0 0-.307.567l.04.845a2 2 0 0 0-.25 0 1.57 1.57 0 0 0-1.428 1.071 1.3 1.3 0 0 0-.034.71 1.3 1.3 0 0 0-.391.594 1.565 1.565 0 0 0 .527 1.701q.112.093.232.176l-.17.17a.64.64 0 0 0-.153.63.65.65 0 0 0 .477.442l.345.073a2.4 2.4 0 0 0-.147.431 1.7 1.7 0 0 0 .09 1.083 53 53 0 0 1-3.543 4.69 41 41 0 0 0 2.427-.806c.187-.244.374-.482.567-.726l-.374-1.457a.1.1 0 0 1 0-.04.3.3 0 0 1 0-.096 1 1 0 0 1 .04-.085v-.028l.028-.034.056-.034c.5-.142 1.05-.3 1.65-.488a1 1 0 0 0 .227.04 1.2 1.2 0 0 0 .3.43l.142.12a1.57 1.57 0 0 0 1.786 0 3 3 0 0 0 .448-.346l.045.085a.64.64 0 0 0 .567.351.64.64 0 0 0 .567-.306v-.034a2.4 2.4 0 0 0 .391.295 1.57 1.57 0 0 0 1.786 0 1.24 1.24 0 0 0 .443-.567 1.23 1.23 0 0 0 .663-.25 1.58 1.58 0 0 0 .567-1.7 2.4 2.4 0 0 0-.12-.374h.21a.646.646 0 0 0 .488-1.01l-.204-.289a3 3 0 0 0 .295-.22 1.9 1.9 0 0 0 .374-.454 1.42 1.42 0 0 0 .21-.976 1.5 1.5 0 0 0-.006-.283z"
     class="cls-1"
     style="fill:#fff;stroke-width:.566965"
     transform="translate(-169.6 -138.34)"
     id="path84" />
  <path
     d="M180.913 209.777a4.35 4.35 0 0 0 1.888-.879 4.26 4.26 0 0 0-2.104.374 1.7 1.7 0 0 1-1.134-.034l-.646.913 1.298.074a1.4 1.4 0 0 1 .698-.448M181.57 206.573a4 4 0 0 0 .352.567l.845.84.22.147a4.24 4.24 0 0 0-1.014-1.91 2 2 0 0 1-.295-1.401l-1.315-.488.323 1.565.113.113a1.55 1.55 0 0 1 .771.567M184.808 206.216a4.3 4.3 0 0 0-.737 1.083l-.244.624-.034.113c.125-.073.244-.164.368-.255l.567-.539a4 4 0 0 0 .533-.748 1.74 1.74 0 0 1 .97-.64l.04-.04.073-1.593-1.241.697a1.92 1.92 0 0 1-.295 1.298M186.134 209.176a4.37 4.37 0 0 0-2.046-.403 4.2 4.2 0 0 0 1.922.93 1.56 1.56 0 0 1 .76.527l1.224-.266-.788-.81a1.7 1.7 0 0 1-1.072.022M183.73 211.359a4.3 4.3 0 0 0-.249-2.07 4.3 4.3 0 0 0-.295 2.12 1.5 1.5 0 0 1-.26.874l.481.794.505-.998a1.36 1.36 0 0 1-.182-.72"
     style="stroke-width:.566965"
     transform="translate(-169.6 -138.34)"
     id="path85" />
  <path
     d="M187.206 209.153c.731-.21 1.468-.754 1.23-1.491-.193-.567-.776-.46-1.326-.283.567-.182 1.094-.426.901-1.015-.227-.709-1.077-.737-1.78-.51a1.74 1.74 0 0 0-.97.64 4 4 0 0 1-.533.748 4.3 4.3 0 0 1-.567.54c-.124.09-.243.18-.368.254l.034-.113a4 4 0 0 1 .244-.624 4.3 4.3 0 0 1 .737-1.083 1.92 1.92 0 0 0 .306-1.298c-.046-.686-.346-1.36-1.032-1.36s-.68.606-.68 1.19c0-.567-.057-1.19-.686-1.19-.63 0-.953.612-1.021 1.258a2 2 0 0 0 .295 1.4 4.24 4.24 0 0 1 .998 1.86l-.221-.148a4.5 4.5 0 0 1-.845-.839 4 4 0 0 1-.352-.567 1.55 1.55 0 0 0-.765-.567c-.732-.306-1.735-.34-1.984.431-.193.567.357.834.901 1.015-.567-.176-1.134-.306-1.327.29-.232.72.465 1.252 1.18 1.473a1.7 1.7 0 0 0 1.134.034 4.26 4.26 0 0 1 2.103-.374 4.35 4.35 0 0 1-1.9.953 1.4 1.4 0 0 0-.685.448c-.567.595-.987 1.616-.29 2.126.505.363.902-.085 1.242-.567-.334.47-.64.986-.136 1.35.669.487 1.474-.154 1.882-.846a1.5 1.5 0 0 0 .261-.873 4.3 4.3 0 0 1 .295-2.12 4.3 4.3 0 0 1 .25 2.07 1.36 1.36 0 0 0 .18.72c.37.742 1.248 1.524 1.968 1.003.505-.369.199-.879-.136-1.35.34.465.737.913 1.242.567.669-.482.312-1.44-.216-2.046a1.56 1.56 0 0 0-.76-.528 4.2 4.2 0 0 1-1.921-.93 4.37 4.37 0 0 1 2.046.403 1.7 1.7 0 0 0 1.072-.05m-3.776-.397a.164.164 0 0 1-.17-.17.17.17 0 0 1 .17-.17.176.176 0 0 1 .17.17.17.17 0 0 1-.17.17m-.04-3.515a16.4 16.4 0 0 1 .13 2.835h-.09a.6.6 0 0 0-.176.034 16 16 0 0 1 .136-2.869m-3.084 2.347a15 15 0 0 1 2.659.703l-.08.25a14.7 14.7 0 0 1-2.58-.947zm1.134 3.578a15 15 0 0 1 1.604-2.234l.205.164a15 15 0 0 1-1.81 2.076zm3.906 0a15 15 0 0 1-1.78-2.075h.034a.6.6 0 0 0 .181-.114 16 16 0 0 1 1.594 2.212zm-1.394-2.66-.074-.254a15.5 15.5 0 0 1 2.676-.641 16 16 0 0 1-2.602.918z"
     class="cls-2"
     style="fill:#e4032e;stroke-width:.566965"
     transform="translate(-169.6 -138.34)"
     id="path86" />
  <path
     d="M231.77 209.777a4.4 4.4 0 0 1-1.894-.879 4.25 4.25 0 0 1 2.103.374 1.7 1.7 0 0 0 1.134-.034l.646.913-1.292.074a1.4 1.4 0 0 0-.698-.448M231.112 206.573a4.4 4.4 0 0 1-.358.567l-.844.84-.216.147a4.23 4.23 0 0 1 1.004-1.882 1.97 1.97 0 0 0 .3-1.4l1.31-.488-.323 1.564-.114.114a1.54 1.54 0 0 0-.76.538M227.897 206.216a4.3 4.3 0 0 1 .737 1.083l.244.624.034.113a4 4 0 0 1-.369-.255l-.567-.539a4.2 4.2 0 0 1-.533-.748 1.75 1.75 0 0 0-.963-.64l-.046-.04-.068-1.593 1.236.697a1.88 1.88 0 0 0 .295 1.298M226.548 209.176a4.35 4.35 0 0 1 2.046-.403 4.25 4.25 0 0 1-1.927.93 1.58 1.58 0 0 0-.754.527l-1.23-.266.793-.81a1.7 1.7 0 0 0 1.072.022M228.946 211.359a4.4 4.4 0 0 1 .25-2.07 4.26 4.26 0 0 1 .294 2.12 1.5 1.5 0 0 0 .267.874l-.488.794-.499-.998a1.35 1.35 0 0 0 .176-.72"
     style="stroke-width:.566965"
     transform="translate(-169.6 -138.34)"
     id="path87" />
  <path
     d="M226.548 209.176a4.35 4.35 0 0 1 2.046-.403 4.25 4.25 0 0 1-1.927.93 1.58 1.58 0 0 0-.754.527c-.528.607-.885 1.565-.222 2.047.505.369.902-.08 1.242-.567-.334.47-.635.981-.13 1.35.72.521 1.593-.261 1.967-1.004a1.35 1.35 0 0 0 .176-.72 4.4 4.4 0 0 1 .25-2.07 4.26 4.26 0 0 1 .294 2.121 1.5 1.5 0 0 0 .267.873c.408.692 1.207 1.332 1.882.845.499-.363.198-.879-.136-1.35.34.465.737.913 1.242.567.697-.51.272-1.53-.29-2.126a1.4 1.4 0 0 0-.686-.448 4.4 4.4 0 0 1-1.893-.878 4.25 4.25 0 0 1 2.103.374 1.7 1.7 0 0 0 1.134-.034c.72-.221 1.412-.754 1.18-1.474-.193-.567-.777-.465-1.327-.29.567-.18 1.1-.419.907-1.014-.255-.771-1.253-.737-1.99-.431a1.54 1.54 0 0 0-.76.567 4.4 4.4 0 0 1-.357.567 4.5 4.5 0 0 1-.845.839l-.215.147a4.23 4.23 0 0 1 1.003-1.882 1.97 1.97 0 0 0 .3-1.4c-.067-.647-.374-1.26-1.026-1.26s-.68.608-.68 1.192c0-.567-.057-1.191-.686-1.191-.63 0-.987.675-1.032 1.36a1.88 1.88 0 0 0 .312 1.299 4.3 4.3 0 0 1 .737 1.083 4 4 0 0 1 .244.624l.034.113a4 4 0 0 1-.369-.255 5 5 0 0 1-.567-.539 4.2 4.2 0 0 1-.533-.748 1.75 1.75 0 0 0-.963-.64c-.704-.228-1.554-.2-1.786.51-.193.566.357.833.907 1.014-.567-.176-1.134-.306-1.327.284-.238.737.493 1.281 1.23 1.49a1.7 1.7 0 0 0 1.044 0m2.534-.567a.17.17 0 0 1 .17-.17.176.176 0 0 1 .17.17.17.17 0 0 1-.17.17.164.164 0 0 1-.17-.193zm.34-.476a.5.5 0 0 0-.17-.034 1 1 0 0 0-.096 0 16 16 0 0 1 .136-2.835 16 16 0 0 1 .13 2.846zm.374.436-.085-.25a15 15 0 0 1 2.665-.702 15 15 0 0 1-2.58.93zm-.368.567.21-.164a15.3 15.3 0 0 1 1.598 2.234 15.4 15.4 0 0 1-1.808-2.104zm-.528-.147a.6.6 0 0 0 .182.113h.034a15.6 15.6 0 0 1-1.78 2.075 15 15 0 0 1 1.564-2.222zm-2.772-1.321a15.5 15.5 0 0 1 2.676.64l-.08.255a16 16 0 0 1-2.596-.93zM221.66 177.318a9.8 9.8 0 0 1 1.168 1.627 8.3 8.3 0 0 1 .686 1.701 6.8 6.8 0 0 1 .261 1.882 9 9 0 0 1-.221 2.013 11 11 0 0 1-.516 1.56 9 9 0 0 1-.81 1.564 13 13 0 0 1-1.214 1.57c-.136.148-.278.29-.425.437a7 7 0 0 1-.465.425c-.159.13-.329.273-.5.403l-.34.25a3 3 0 0 1-.373.232l-.318.147h-.085l-.527.097a.391.391 0 0 1-.374-.624 14 14 0 0 0 1.071-1.576c.153-.267.306-.567.437-.817.13-.249.26-.566.368-.884a6.6 6.6 0 0 0 .261-.867 8 8 0 0 0 .153-.862c.029-.306.046-.613.046-.907a6.5 6.5 0 0 0-.074-.868 8 8 0 0 0-.193-.845 6.8 6.8 0 0 0-1.043-1.961 7.2 7.2 0 0 0-1.752-1.6 11.3 11.3 0 0 0-2.45-1.19 15.8 15.8 0 0 0-3.135-.703 18.5 18.5 0 0 0-3.48-.096 27.5 27.5 0 0 0-3.726.493 32 32 0 0 0-4.042 1.134 30 30 0 0 0-3.867 1.7c-.26.137-.51.279-.765.42q.509-.263 1.043-.51a27 27 0 0 1 2.574-1.037 24 24 0 0 1 2.682-.771 25 25 0 0 1 2.744-.46c.708-.068 1.4-.107 2.052-.107a13 13 0 0 1 1.985.13 12 12 0 0 1 1.888.425q.249.085.493.187a4 4 0 0 1 .482.233c.153.08.295.164.448.26l.255.188a1.2 1.2 0 0 1 .272.283 2 2 0 0 1 .125.227.4.4 0 0 1 .04.198l-.035.369a.36.36 0 0 1-.158.283.4.4 0 0 1-.318.068 16 16 0 0 0-.935-.192 11 11 0 0 0-.987-.13 30 30 0 0 0-1.055-.074c-.351-.017-.776 0-1.167 0-.392 0-.8.04-1.208.085s-.817.096-1.23.164-.896.164-1.333.266-.884.216-1.338.352c-.453.136-.901.278-1.344.436a26 26 0 0 0-3.3 1.492 21.4 21.4 0 0 0-2.976 1.922 22.6 22.6 0 0 0-2.551 2.267 17.7 17.7 0 0 0-2.024 2.631 11.3 11.3 0 0 0-1.196 2.705 10.5 10.5 0 0 0-.477 2.625 8.8 8.8 0 0 0 .33 2.642 7.5 7.5 0 0 0 1.133 2.33 10.3 10.3 0 0 0 1.933 2.007 13 13 0 0 0 1.701 1.077h.046l-.522-.351a9.3 9.3 0 0 1-2.721-3.005 8.7 8.7 0 0 1-.692-1.701 7.3 7.3 0 0 1-.26-1.882 9.5 9.5 0 0 1 .226-2.013 12 12 0 0 1 .51-1.565 10 10 0 0 1 .84-1.582 13.4 13.4 0 0 1 1.213-1.57l.42-.431a8 8 0 0 1 .47-.431c.158-.136.329-.272.499-.403.17-.13.226-.17.34-.243a2.4 2.4 0 0 1 .374-.233l.318-.147h.085l.521-.091a.39.39 0 0 1 .408.181.4.4 0 0 1 0 .437q-.306.391-.567.782c-.181.261-.357.533-.504.794s-.306.567-.437.817c-.13.25-.26.595-.374.884a6.5 6.5 0 0 0-.255.868 8 8 0 0 0-.153.861 10 10 0 0 0-.046.907 6 6 0 0 0 .074.868 5.87 5.87 0 0 0 1.236 2.806 7 7 0 0 0 1.752 1.6 11.4 11.4 0 0 0 2.45 1.196 16 16 0 0 0 3.135.703 18.5 18.5 0 0 0 3.48.09 27 27 0 0 0 3.726-.493 32 32 0 0 0 4.042-1.134 30 30 0 0 0 3.867-1.7q.384-.204.76-.415-.51.267-1.038.51c-.856.386-1.7.738-2.574 1.032a23 23 0 0 1-2.682.771 24 24 0 0 1-2.744.46c-.708.073-1.4.107-2.052.113a14.5 14.5 0 0 1-1.985-.13 13 13 0 0 1-1.888-.426l-.493-.192a4 4 0 0 1-.487-.227l-.443-.267-.255-.187a1.1 1.1 0 0 1-.272-.277 3 3 0 0 1-.125-.227.37.37 0 0 1-.04-.204l.035-.369a.38.38 0 0 1 .153-.283.39.39 0 0 1 .323-.063 16 16 0 0 0 1.922.323c.334.034.703.057 1.049.068s.782 0 1.173 0c.392 0 .805-.034 1.202-.079s.822-.102 1.236-.17.896-.164 1.333-.26a22 22 0 0 0 2.681-.795 25.4 25.4 0 0 0 3.3-1.49 22 22 0 0 0 2.977-1.923 22 22 0 0 0 2.545-2.268 18 18 0 0 0 2.03-2.63 11.5 11.5 0 0 0 1.236-2.665 10.3 10.3 0 0 0 .476-2.625 9 9 0 0 0-.328-2.642 7.5 7.5 0 0 0-1.134-2.33 10.2 10.2 0 0 0-1.934-2.002 13 13 0 0 0-1.7-1.083h-.046l.522.352a9.6 9.6 0 0 1 1.462 1.355z"
     class="cls-2"
     style="fill:#e4032e;stroke-width:.566965"
     transform="translate(-169.6 -138.34)"
     id="path88" />
  <path
     d="M211.761 196.136c-.153.124-.312.25-.47.362a8.1 8.1 0 0 1-2.648 1.305 5 5 0 0 1-.5.13 8 8 0 0 1-1.757.198 8.5 8.5 0 0 1-1.837-.204l-.504-.124a8.3 8.3 0 0 1-2.642-1.322c-.159-.119-.318-.238-.465-.368a8.295 8.295 0 0 1 0-12.598q.231-.195.47-.374a8.2 8.2 0 0 1 2.648-1.316 5 5 0 0 1 .505-.13 8.1 8.1 0 0 1 3.594 0c.17.034.335.08.5.125a8.3 8.3 0 0 1 2.647 1.31q.244.18.476.374a8.312 8.312 0 0 1 0 12.637z"
     style="stroke-width:.566965"
     transform="translate(-169.6 -138.34)"
     id="path89" />
  <path
     d="M201.67 194.321a1.2 1.2 0 0 1-.364-.243 1.22 1.22 0 0 1-.368-.88 1.4 1.4 0 0 1 .397-.957l.068-.051a2.546 2.546 0 0 1-.845-4.15 2.4 2.4 0 0 1 .805-.568 1.22 1.22 0 0 1-.448-.94 1.28 1.28 0 0 1 .374-.908 1.2 1.2 0 0 1 .409-.278l-.057-.045a2.6 2.6 0 0 1-.635-1.338 7.94 7.94 0 0 0-.233 11.447l.244.215a2.53 2.53 0 0 1 .624-1.304zM204.55 197.519a7.7 7.7 0 0 0 3.594 0c0-1.553 0-2.523.46-3.084h-4.537c.482.567.488 1.53.482 3.084M208.144 182.098a7.7 7.7 0 0 0-3.595 0c0 1.621 0 2.613-.499 3.169h4.57c-.487-.55-.487-1.542-.476-3.17M210.02 185.25a.94.94 0 0 0 .68-.284 2.44 2.44 0 0 0 .568-1.383 7.8 7.8 0 0 0-2.602-1.36c0 1.411 0 2.352.385 2.738a1.37 1.37 0 0 0 .97.289M210.23 194.469h-.567a1.07 1.07 0 0 0-.64.266c-.38.386-.391 1.304-.386 2.693a7.8 7.8 0 0 0 2.597-1.36 2.4 2.4 0 0 0-.567-1.338.95.95 0 0 0-.437-.261M202.673 185.25a1.38 1.38 0 0 0 .992-.29c.385-.385.391-1.32.385-2.726a7.9 7.9 0 0 0-2.602 1.372 2.38 2.38 0 0 0 .567 1.36.93.93 0 0 0 .658.284M203.024 194.469h-.567a.95.95 0 0 0-.47.26 2.33 2.33 0 0 0-.567 1.327 7.9 7.9 0 0 0 2.596 1.367c0-1.384 0-2.302-.385-2.688a1.1 1.1 0 0 0-.607-.266M211.687 183.963a2.6 2.6 0 0 1-.635 1.36l-.056.046a1.25 1.25 0 0 1 .782 1.134 1.3 1.3 0 0 1-.374.913l-.068.056a2.45 2.45 0 0 1 .822.567 2.5 2.5 0 0 1 .737 1.758 2.64 2.64 0 0 1-.76 1.837 2.6 2.6 0 0 1-.799.567l.074.062a1.36 1.36 0 0 1 .39.924 1.27 1.27 0 0 1-.759 1.174 2.6 2.6 0 0 1 .63 1.321c.096-.09.204-.176.294-.272a7.94 7.94 0 0 0-.04-11.203c-.067-.097-.152-.165-.238-.244"
     class="cls-3"
     style="fill:#fc0;stroke-width:.566965"
     transform="translate(-169.6 -138.34)"
     id="path90" />
  <path
     d="M212.39 189.791a2 2 0 0 0-.566-1.411 2.04 2.04 0 0 0-1.435-.567h-8.062a2 2 0 0 0-1.412.567 2.041 2.041 0 0 0 1.429 3.48h8.045a2 2 0 0 0 1.39-.566 2.1 2.1 0 0 0 .611-1.503M210.508 185.772h-8.334a.77.77 0 0 0-.527.226.79.79 0 0 0-.233.567.75.75 0 0 0 .765.743h8.335a.74.74 0 0 0 .533-.227.78.78 0 0 0 .227-.567.76.76 0 0 0-.216-.527.8.8 0 0 0-.55-.215M210.39 192.371h-8.194a.7.7 0 0 0-.504.227.83.83 0 0 0-.25.6.71.71 0 0 0 .216.522.77.77 0 0 0 .567.221h.232a1.5 1.5 0 0 1 .238 0 3 3 0 0 1 .352 0h6.645a3 3 0 0 1 .351 0 2 2 0 0 1 .238 0h.278a.765.765 0 0 0 .76-.776.8.8 0 0 0-.238-.567.75.75 0 0 0-.527-.221z"
     class="cls-3"
     style="fill:#fc0;stroke-width:.566965"
     transform="translate(-169.6 -138.34)"
     id="path91" />
</svg>
