<?xml version="1.0" encoding="UTF-8" standalone="no"?>
<svg
   viewBox="0 0 74.05 94.99"
   version="1.1"
   id="svg5"
   sodipodi:docname="vissel-kobe.svg"
   inkscape:version="1.4.2 (f4327f4, 2025-05-13)"
   xmlns:inkscape="http://www.inkscape.org/namespaces/inkscape"
   xmlns:sodipodi="http://sodipodi.sourceforge.net/DTD/sodipodi-0.dtd"
   xmlns="http://www.w3.org/2000/svg"
   xmlns:svg="http://www.w3.org/2000/svg">
  <defs
     id="defs5" />
  <sodipodi:namedview
     id="namedview5"
     pagecolor="#ffffff"
     bordercolor="#000000"
     borderopacity="0.25"
     inkscape:showpageshadow="2"
     inkscape:pageopacity="0.0"
     inkscape:pagecheckerboard="0"
     inkscape:deskcolor="#d1d1d1"
     inkscape:zoom="8.4956313"
     inkscape:cx="37.019026"
     inkscape:cy="47.494999"
     inkscape:window-width="1920"
     inkscape:window-height="1009"
     inkscape:window-x="-8"
     inkscape:window-y="-8"
     inkscape:window-maximized="1"
     inkscape:current-layer="svg5" />
  <path
     d="m183.189 98.955-2.442 1.212c-5.03 2.424-10.763 5.177-14.926 6.65l-1.762.618.074 1.87c.056 1.387 1.36 34.067 4.1 44.342 2.901 10.854 8.77 19.736 17.448 26.403a50.3 50.3 0 0 0 14.536 7.767l.86.283.856-.283a50.3 50.3 0 0 0 14.541-7.767c8.679-6.667 14.547-15.55 17.459-26.414 2.741-10.276 4.044-42.955 4.101-44.343l.074-1.87-1.762-.617c-4.192-1.473-9.902-4.226-14.932-6.656l-2.436-1.207c-5.2-2.588-11.67-5.829-17.9-5.829-6.232 0-12.7 3.24-17.89 5.84"
     class="cls-1"
     style="fill:#fff;stroke-width:.566468"
     transform="translate(-164.059 -93.114)"
     id="path1" />
  <path
     d="m183.681 99.946-2.43 1.212c-5.098 2.442-10.814 5.212-15.062 6.707l-.991.346.04 1.048c.056 1.382 1.353 33.937 4.066 44.1 2.833 10.615 8.571 19.299 17.051 25.813a49.1 49.1 0 0 0 14.213 7.591l.498.164.51-.17a49.1 49.1 0 0 0 14.23-7.585c8.497-6.514 14.218-15.198 17.05-25.814 2.714-10.162 4.011-42.717 4.068-44.1l.04-1.047-.992-.346c-4.254-1.495-9.97-4.265-15.068-6.707l-2.442-1.212c-5.098-2.55-11.414-5.721-17.396-5.721s-12.298 3.172-17.385 5.721m-1.206 3.773 2.481-1.23c4.82-2.413 10.814-5.42 16.122-5.42s11.3 3.007 16.121 5.42l2.481 1.23c4.985 2.407 10.118 4.883 14.35 6.463-.25 5.665-1.559 33.563-3.926 42.446a44.3 44.3 0 0 1-16.037 24.284 46.2 46.2 0 0 1-12.99 7.007 46.2 46.2 0 0 1-12.988-7.007 44.3 44.3 0 0 1-16.037-24.284c-2.368-8.883-3.677-36.753-3.926-42.446 4.232-1.58 9.364-4.056 14.349-6.463"
     style="stroke-width:.566468"
     transform="translate(-164.059 -93.114)"
     id="path2" />
  <path
     d="M176.181 109.332c-1.926.884-3.829 1.7-5.608 2.442.125 2.696.352 7.217.674 12.332h4.934zM174.346 152.016a46 46 0 0 0 1.835 5.489v-10.99h-2.86a50 50 0 0 0 1.025 5.5M187.392 103.928l-1.382.691-2.493 1.235-2.39 1.133v17.119h6.265zM181.115 166.427a41.4 41.4 0 0 0 6.277 6.837v-26.749h-6.277zM192.32 176.997a44 44 0 0 0 6.277 3.399V146.52h-6.277zM198.597 99.674a30 30 0 0 0-6.277 1.96v22.472h6.277zM209.801 101.623a29.8 29.8 0 0 0-6.276-1.955v24.438h6.276zM203.525 180.402a44 44 0 0 0 6.276-3.4v-30.487h-6.276zM221.006 106.993l-2.38-1.133-2.486-1.23-1.41-.702v20.178h6.276zM214.73 173.292a41.5 41.5 0 0 0 6.276-6.797v-19.98h-6.276zM225.94 157.601a47 47 0 0 0 1.87-5.568 50 50 0 0 0 1.036-5.5h-2.906zM231.582 111.774c-1.79-.72-3.705-1.57-5.665-2.459v14.79h4.968c.346-5.114.572-9.635.697-12.331"
     style="stroke-width:.566468"
     transform="translate(-164.059 -93.114)"
     id="path5" />
</svg>
