<?xml version="1.0" encoding="UTF-8" standalone="no"?>
<svg
   viewBox="20.93 166.67 752.57 892.56"
   version="1.1"
   id="svg18"
   sodipodi:docname="casa-pia-ac.svg"
   inkscape:version="1.4.2 (f4327f4, 2025-05-13)"
   xmlns:inkscape="http://www.inkscape.org/namespaces/inkscape"
   xmlns:sodipodi="http://sodipodi.sourceforge.net/DTD/sodipodi-0.dtd"
   xmlns="http://www.w3.org/2000/svg"
   xmlns:svg="http://www.w3.org/2000/svg">
  <sodipodi:namedview
     id="namedview18"
     pagecolor="#ffffff"
     bordercolor="#000000"
     borderopacity="0.25"
     inkscape:showpageshadow="2"
     inkscape:pageopacity="0.0"
     inkscape:pagecheckerboard="0"
     inkscape:deskcolor="#d1d1d1"
     inkscape:zoom="0.95343731"
     inkscape:cx="376.53236"
     inkscape:cy="446.28"
     inkscape:window-width="1920"
     inkscape:window-height="1111"
     inkscape:window-x="-9"
     inkscape:window-y="-9"
     inkscape:window-maximized="1"
     inkscape:current-layer="svg18" />
  <defs
     id="defs9">
    <clipPath
       id="a"
       clipPathUnits="userSpaceOnUse">
      <path
         d="M-580.13 125H15.15v-841.89h-595.28Z"
         id="path1" />
    </clipPath>
    <clipPath
       id="b"
       clipPathUnits="userSpaceOnUse">
      <path
         d="M-553.866 256.055h595.28v-841.89h-595.28Z"
         id="path2" />
    </clipPath>
    <clipPath
       id="c"
       clipPathUnits="userSpaceOnUse">
      <path
         d="M-218.002 248.152h595.28v-841.89h-595.28Z"
         id="path3" />
    </clipPath>
    <clipPath
       id="d"
       clipPathUnits="userSpaceOnUse">
      <path
         d="M-446.562 468.898h595.28v-841.89h-595.28Z"
         id="path4" />
    </clipPath>
    <clipPath
       id="e"
       clipPathUnits="userSpaceOnUse">
      <path
         d="M-431.543 266.723h595.28v-841.89h-595.28Z"
         id="path5" />
    </clipPath>
    <clipPath
       id="f"
       clipPathUnits="userSpaceOnUse">
      <path
         d="M-205.343 503.286h595.28v-841.89h-595.28Z"
         id="path6" />
    </clipPath>
    <clipPath
       id="g"
       clipPathUnits="userSpaceOnUse">
      <path
         d="M-486.788 318.306h595.28v-841.89h-595.28Z"
         id="path7" />
    </clipPath>
    <clipPath
       id="h"
       clipPathUnits="userSpaceOnUse">
      <path
         d="M-232.707 677.2h595.28v-841.89h-595.28Z"
         id="path8" />
    </clipPath>
    <clipPath
       id="i"
       clipPathUnits="userSpaceOnUse">
      <path
         d="M-439.28 386.57H156v-841.89h-595.28Z"
         id="path9" />
    </clipPath>
  </defs>
  <path
     d="M0 0v-146.103s-30.167-7.808-32.773-48.034c-2.472-38.27-9.88-176.382-10.592-189.671a33 33 0 0 0-.195-2.229c-.801-6.496-5.224-38.356-18.315-70.025-14.665-35.491-45.308-106.707-122.679-163.848 0 0-48.091-34.072-97.661-49.51-48.147 15.35-96.653 49.066-96.653 49.066-78.734 56.431-109.192 128.745-123.864 164.236-14.665 35.491-18.101 71.337-18.101 71.337s-8.042 150.014-10.647 190.233c-2.598 40.225-32.95 48.445-32.95 48.445V0z"
     clip-path="url(#a)"
     style="fill:#000;fill-opacity:1;fill-rule:nonzero;stroke:none"
     transform="matrix(1.33333 0 0 -1.33333 773.506 166.667)"
     id="path10" />
  <path
     d="M0 0c-19.769-13.742-30.664-34.391-32.418-61.485-2.122-32.872-7.538-138.089-9.575-177.704-.327-6.346-.547-10.726-.639-12.436-.596-4.926-4.571-34.54-16.596-63.622l-.972-2.364c-12.834-31.147-39.537-95.939-113.352-150.127-.49-.334-1.001-.724-1.725-1.264-24.389-18.235-56.182-31.707-80.181-40.495-28.72 9.405-56.843 23.126-81.069 40.531-.597.426-1.058.759-1.384.979-73.133 53.024-99.873 117.76-112.727 148.886l-.519 1.242c-12.329 29.848-16.815 59.739-17.341 66.113-.284 3.421-2.015 34.803-3.854 68.037-2.463 44.676-5.537 100.276-6.956 122.196-2.13 33.028-17.654 51.533-32.595 61.768v104.536H0Zm-525.184 118.072V-7.176c10.874-5.878 30.373-20.315 32.623-55.196 2.52-38.87 10.151-182.247 10.825-190.467.533-6.445 5.146-38.245 18.307-70.095 12.641-30.579 40.552-99.908 117.852-155.899 3.243-2.179 37.869-28.833 90.104-45.066 60.861 21.678 86.379 43.164 89.609 45.336C-86.953-420.712-59.59-350.894-46.955-320.315c13.118 31.729 17.171 64.232 17.561 67.547.44 8.276 7.716 151.554 10.229 190.431 2.2 33.937 20.499 48.268 32.446 55.012v125.397z"
     clip-path="url(#b)"
     style="fill:#fff;fill-opacity:1;fill-rule:nonzero;stroke:none"
     transform="matrix(1.33333 0 0 -1.33333 738.488 341.406)"
     id="path11" />
  <path
     d="M0 0v-155.984l-44.605 43.832h-108.241V-320.13l43.299-44.599h-158.291l42.824 44.301v208.276h-108.127l-44.485-43.299V0l44.485-43.299h108.127V67.788l-42.824 44.009h158.291l-43.299-44.484V-43.299h108.475z"
     clip-path="url(#g)"
     style="fill:#fff;fill-opacity:1;fill-rule:nonzero;stroke:none"
     transform="matrix(1.33333 0 0 -1.33333 649.05 424.408)"
     id="path16" />
  <path
     d="m0 0 34.902 36.105v216.471H-81.431l-36.279-35.312v127.807l36.279-35.312H34.902v119.293L.063 464.855h130.649L95.4 428.577V309.759h116.686l36.16 35.287V216.824l-36.382 35.752H95.4V36.396L130.736 0Z"
     clip-path="url(#h)"
     style="fill:#e40b1d;fill-opacity:1;fill-rule:nonzero;stroke:none"
     transform="matrix(1.33333 0 0 -1.33333 310.275 902.933)"
     id="path17" />
  <path
     d="M0 0v-21.295h-130.423v-226.313h-21.763v226.313h-131.083V0h131.083v130.139h21.763V0Z"
     clip-path="url(#i)"
     style="fill:#fff;fill-opacity:1;fill-rule:nonzero;stroke:none"
     transform="matrix(1.33333 0 0 -1.33333 585.706 515.426)"
     id="path18" />
</svg>
