<?xml version="1.0" encoding="UTF-8" standalone="no"?>
<svg
   viewBox="0 0 800 800"
   version="1.1"
   id="svg145"
   sodipodi:docname="fc-porto.svg"
   inkscape:version="1.4.2 (f4327f4, 2025-05-13)"
   xmlns:inkscape="http://www.inkscape.org/namespaces/inkscape"
   xmlns:sodipodi="http://sodipodi.sourceforge.net/DTD/sodipodi-0.dtd"
   xmlns:xlink="http://www.w3.org/1999/xlink"
   xmlns="http://www.w3.org/2000/svg"
   xmlns:svg="http://www.w3.org/2000/svg">
  <sodipodi:namedview
     id="namedview145"
     pagecolor="#ffffff"
     bordercolor="#000000"
     borderopacity="0.25"
     inkscape:showpageshadow="2"
     inkscape:pageopacity="0.0"
     inkscape:pagecheckerboard="0"
     inkscape:deskcolor="#d1d1d1"
     inkscape:zoom="1.06375"
     inkscape:cx="400.47004"
     inkscape:cy="400"
     inkscape:window-width="1920"
     inkscape:window-height="1111"
     inkscape:window-x="-9"
     inkscape:window-y="-9"
     inkscape:window-maximized="1"
     inkscape:current-layer="svg145" />
  <path
     fill="#FFF"
     d="M578.5 259.4c-.2-3.1-1.1-6.1-2.6-8.7-.8-1.5-1.9-2.7-3.1-4-.3-.6-.5-1.3-.6-1.6-.5-1-1.1-1.9-1.8-2.9v-.2c0-4.5-1.5-9.2-4.2-12.7 5.6-12.6.5-21.1-4-25.6l-10.3-10.3c-1.8-1.8-3.9-3.2-6.1-4.4-1-2.1-2.3-4-4-5.8l-.6-.6c2.3-3.2 3.9-6.6 5-10.3 6.5-1.1 12.3-5 16-10.6 4.5-6.9 5.2-15.3 1.8-22.9-2.7-5.6-7.4-10-13.2-12.1.3-2.1.3-4.2 0-6.5 0-.5-.2-1-.3-1.5-2.4-11.1-12.1-18.9-23.5-18.9-7.3 0-13.9 3.4-18.2 8.7 0-2.3-.2-4.5-.3-6.5 1.8-4.5 3.2-10.8 1.1-17.4-1.6-5-4.7-9.4-9-12.1-2.3-2.6-4.7-4.5-7.1-6-5.3-4.2-10.2-5.8-14.7-6.6-.3-.2-.5-.5-.6-.6-2.6-2.1-6.6-5.6-12.6-7.6-1.8-3.2-3.9-6.8-6.6-10.2-.5-3.4-1.9-7.3-5-11.1-.8-1-1.8-1.9-2.9-3.1.5-4.2-.5-8.5-2.7-12.3-3.5-5.8-9.7-9.5-16.5-9.7-7.9-.2-13.7.3-19.7 1.5-2.4-1.9-5.3-3.4-8.5-4-5.8-1.3-11.8.2-16.3 3.7-5 3.9-9.2 8.7-12.9 14.7-4.2 2.7-8.1 5.8-11.5 9.2-.8.3-1.6.8-2.4 1.3-1.8.6-3.4 1.3-4.8 2.3-4.8-6-12.9-14.8-27.9-16.8-1.5-1.1-3.2-2.3-5-2.9-.2-.2-.3-.5-.6-.6C318.1 9.3 309.1.3 294.2.3c-4.5 0-9.2.8-13.9 2.4-7.9 2.7-13.1 10-13.2 18.2-12.1-.3-18.5 3.9-22.1 6.1-.3.2-.6.5-.8.5 0 0-.8.2-2.7.2h-1.3c-9.4-.5-17.4 5.6-19.8 14.7-2.4 8.9 1.6 18.2 9.8 22.6 4.4 2.3 8.7 3.9 13.1 4.5 3.1 4.7 8.2 7.7 14 8.5 3.7.5 4.5 1 6.9 2.4.8.5 1.8 1.1 2.6 1.6-.5 1-.8 1.9-1.1 2.9-2.3 6.6-1.6 13.5.5 20-4 1-7.7 3.1-10.6 6-6.9 6.8-9.2 17.4-5.5 26.5.8 1.9 1.9 3.9 3.2 5.5-2.9 4.8-4 10.6-3.2 16.3 1 6.1 4.2 11.3 9 15 1.5 1.5 3.2 2.7 5 3.9l-5.3 5.3c-1.8 1.8-3.1 3.7-4 6-1.9 1-3.9 2.3-5.5 3.7l-.5.5-10.3 10.3c-4.2 4.2-6.5 9.7-6.5 15.6 0 2.4.3 5.6 2.1 9.7l-.3.3c-2.7 3.5-4.2 8.1-4.2 12.6v.2c-.6 1-1.3 1.9-1.8 2.9-.2.3-.5 1-.6 1.6-1.1 1.1-2.3 2.6-3.1 4-1.6 2.6-2.4 5.6-2.6 8.7C145.2 316 100 405 100 499.8c0 165.5 134.5 300 300 300 165.3 0 300-134.7 300-300-.5-94.6-45.5-183.5-121.5-240.4M458.2 123.7c1.6-1 5.3-2.7 11-4.7v5.3c0 4.5 1.5 8.7 4 12.1l-.8.8-.2-.2c-1.9-4.2-5-7.7-8.9-10.3-1.9-1.3-4-2.1-6.3-2.6.4-.1.7-.2 1.2-.4m-58.7 636.8C256 760.5 139.2 643.7 139.2 500c0-86.1 42.7-166.6 114.4-215.3 1.5-1 2.6-2.1 3.7-3.2 5.2-1.6 9.5-5.3 11.9-10.5l.8-1.6c4.8 1 10.2-.3 14.2-2.9 1.1-.3 2.4-.8 3.5-1.3 12.7-6.1 26.1-11.3 39.7-15.2 6-1.8 10.8-6.1 12.9-11.9 2.3-5.8 1.6-12.3-1.6-17.6l-15.8-25.8c1.3-1.5 2.4-3.1 3.4-5 .3-.2.8-.5 1.1-.8 7.4-5.3 10.2-15 6.8-23.4-2.1-5.2-3.2-9-3.7-11.9 2.4-.3 4.7-1.1 6.8-2.3 4.8-2.6 8.4-7.3 9.7-12.6 1.6-6.5 4.4-12.4 8.9-18.5 1.1.6 2.4 1.3 3.9 1.8 5.3 1.8 11.9 4.5 19.4 8.2 6.5 3.1 14 2.4 19.8-1.6 1.3-1 4.5-2.7 10.5-4.7 2.7-.8 5.3-2.3 7.4-4.2l2.1-1.9c4.8-4.5 7.1-11 6.3-17.3 1.3-.8 2.6-1.8 3.7-2.9-.2 1.1-.3 2.1-.3 3.2 0 1-.2 1.8-.2 2.7-1.1 7.6 2.1 15.3 8.5 19.5 2.1 1.5 4.4 2.4 6.8 2.9l-.2.2c-6.3 3.4-10.3 10-10.3 17.1v4.8c0 3.4.8 6.9 2.4 9.8.6 1.1 1.1 2.6 1 5.5-.2 3.9 1 7.7 3.1 11.1l.2.2c1 2.7 2.7 5.3 4.8 7.4 5 10.2 15 16.9 26.9 16.9h2.1l-13.2 21.5c-3.2 5.3-3.9 11.8-1.6 17.6s7.1 10.2 12.9 11.9c13.7 3.9 27.1 9 40 15.3 1.1.5 2.3 1 3.4 1.3 4 2.6 9.2 3.7 14 2.9 2.3 5.8 6.9 10.2 12.9 11.9 1.1 1.3 2.3 2.4 3.7 3.2C617.5 333.4 660.3 414 660.3 500c-.5 143.5-117.2 260.5-260.8 260.5"
     id="path1" />
  <path
     fill="#D60019"
     d="M321.5 100.8c2.4 7.9-2.9 11.1-10.8 9.2-.3 0-.5-.2-.6-.2 1.8 2.3 2.3 2.9 2.9 3.4 10.5 12.9-1.3 25.8-8.2 36.1-5.2 6.9-9.8 8.2-16.1 3.9-.5-.3-.8-.6-1.3-.8-4 2.1-6.5 1.9-8.4-2.3-.2-.3-.5-1.1-.8-1.3-.8.6-2.1 1.3-2.7 1.9 1.6 2.9-.8 6.5-4.2 6-4.8-1.5-3.4-5.8-1.9-7.1.8-.6 1.6-1.3 2.3-1.9v-.6c0-.5-.2-1-.2-1.6 0-4 2.4-6 6.5-6.6-2.7-2.1-2.1-5-2.6-5.3-2.4-.3-3.2-2.1-4.4-4-5 .3-5.6-5-3.4-7.3 2.3-2.3 6.9-.6 6.8 3.4 1 .6 2.4 1 5.8-.5l.5-.2c7.9-.6 5.2 12.7 15 5.5 2.3-1.6 19.4-8.7 6.6-15.3-4.2-2.3-7.3-4.2-10.8-7.9-8.4-6.5-15.6-25.5 1.5-22.4-4-6.8-4.7-12.7 4.2-12.7 1.8 0 3.7.2 5.5.5 4 .3 7.1 1.1 10.8 2.4 3.9 1.3 10.3 3.2 26.1 6 8.2.8 10.6-1.6 17.6-3.1 2.3-.5 4.8-.8 8.4-.8 4.8 0 9 .5 13.5 1.8 2.9.8 5.6 1.8 13.2 1.8 2.9 0 6.6-4 9.7-1.9 5.5 3.9 23.7 1 34.4-4.4l-.2-.8c-.5-1.9 2.6-3.5 3.9-.6.5 1 1.3 4.7 2.3 5.2 0 0 .2 0 .5-.2.6-1.6-3.7-6.5-1-9.8 3.5-4.4 5.8 1.6 11.6-.8 8.5-2.7 11.5 4.2 17.7 7.4 4 1.9 6.1.2 11.6 4.5 1.6 1 3.4 2.4 6 5.5.3.3 1 .5 1.3.6 3.5 1.8.2 7.7-1 9.5-2.1 3.7-5.3 7.7-8.1 10l-.3.2c-5.8 2.7-.5 7.9 2.1 10.5 1.3 1.3 2.7 2.6 3.7 3.5 7.4 6.1 15.3 1.6 24.2 11.5 4.2 6.5 2.3 14.5 1.1 21.3-.3 1.9-.5 3.5-.3 4.7.3 2.1 2.4.2 2.9-.6 1.1-3.2-.2-8.4-1-10.5-2.1-5.6-1.5-8.5 3.5-11 1-.5 1.9-.8 1.9-2.1 0-7.7 3.9-6.8 5.8-9.5-.6-.8-.8-1.9-.6-2.9 1.1-4.8 7.1-3.9 8.1.2.3 1.8-.8 3.5-2.4 4.4l-.3.2c-.5 1.3-.8 1.9-.5 3.4v.3c.2 3.2 1.8 6.3 0 9.5-.2.3-.3.6-.3.8.3.3 1.1.3 1.5.3 3.5.8 5 3.1 7.4 5 .5.2 1.3.3 2.1.3 1.3-3.1 6-3.2 7.6 0 1.5 3.1-2.6 7.7-6 5-3.1.5-5.8 2.1-8.7 2.6-2.7 1-3.7 3.5-3.7 6.5 1.9 23.1-36.5 23.5-35-.5l.3-6.1c.2-1.1-.5-2.1-3.1-3.4s-6.3-2.3-10.2-3.9c-7.9-3.4-17.1-9.2-20.2-23.4-2.3-10.6-.2-16.1 2.3-19.8.5-.8 3.9-4.2 3.5-5.2-3.9-3.1-5 1.3-11.5-8.7-.2-.2-.2-.3-.2-.3.3-.2.3-.2.5-.3 0-.2.2-.3.2-.3s0 .2.2.3c3.2 5 1.3 15.2-8.4 11.3-1-.3-3.1-1.6-4-1.6-1.3.3-16 4.8-19.2 1-.2-.3-.5-.6-.6-.8h-.6c-1.5 0-2.3.8-3.1 1.8l-.5.6c-3.4 3.7-7.6 2.9-11.9 1.3-1.8-.2-4 .2-5.8.5-4.4 1.1-7.9 1.3-13.1 1-5.2-.2-12.1-.8-23.1-1.5-5.8-.2-10.8 1.6-16.5 2.7-5.8 1.3-12.7 1.8-24-1.3-.6-.2-2.1-.7-3.3-1.2"
     id="path2" />
  <path
     fill="#B57017"
     d="M382.9 56.5c-48.2 9.7-41.3-23.5-63.7-23.2 12.3 8.7 6.5 14.2 14.4 20.8-15.3-1.3-15.5-24.7-48.9-17.1 24.2.6 21.1 12.3 32.1 18.4-19.5-4.4-22.4-21-47.4-9.7 24.8-4 20.8 12.9 46.1 16.1-9.5 2.9-13.1 0-23.4-2.6 15.6 12.6 32.4 6.3 37.7 7.9 2.7.8 2.4 5.5-8.9 4.8 15.8 10.2 21.8-8.5 63.4-11.1 4-.3-4.7 7.7 1.5 3.2 4.8-3.7 13.4-6.6 13.4-6.6l-16.1-4.5z"
     id="path3" />
  <path
     fill="none"
     stroke="#00290C"
     stroke-linecap="round"
     stroke-linejoin="round"
     stroke-miterlimit="3.864"
     stroke-width=".548"
     d="M448.4 103.9c8.7-5.3 27.7-11 35-12.1 3.5-.5 4.4.5 5.5 5.5 1 5 1.5 35-.6 51.8s-7.1 38.2-12.9 44.8c4.7-13.1-4.5-24.2-14.5-28.9 3.7-10.2-2.4-17.9-5.5-19-.2-2.6-1-4.2-2.1-4.8v5c2.7 5 3.5 10.2 3.4 15.8 1.9 2.9 2.1 3.7 2.7 8.2 3.2 5.6 3.9 10.6 4.7 17.4 1.9 4.8 1.8 10.8 1.8 10.8h-99.2l-1.9 2.1-35.5-2.9-1.1-2.6h-1.1c-27.7-49.2-15.8-61.3-9.7-63.4 4.2-1.5 7.9-.6 10 .2 2.9-11.5 8.5-21.8 17.3-32.3 3.9-4.7 18.9-1.1 43.1 10.5 4.4-3.1 10-5.5 16-7.4 1.8-1.8 3.1-2.7 3.1-2.7.3-.5 9.7-17.3 9.5-24.4-.2-7.3-8.4-16.3-8.4-16.3s-1.3 1.8-2.4 2.6c-2.9 3.5-6.3 3.9-10.6 4-4.5 0-6.3-.2-10.5 1.8-3.2 1.6-3.7 2.1-7.4 2.9.8.5 1.3 1.1 2.1 2.3-2.7-.5-5.3-.6-6.9-2.9-2.3-.5-2.7-1.1-4.2-2.9 2.1-.3 5-1.6 6.3-2.7 1.3-1.3 2.1-1.9 4.5-4 2.3-1.8 3.5-2.6 7.3-2.7-2.4-.5-7.4-1-11-1.6-2.1.5-5.6.5-5.6.5l-.5 1.6s-1.8.2-2.9-1.5c-.8 0-2.6-.5-3.7-.6 1-6 5.8-9.7 8.7-9.8 1.6-1.1 5.6-3.9 8.1-4.7 2.9-4.2 3.1-5.2 9.7-8.9 2.7-5.5 8.7-12.1 16-16.3 1.3 2.6.5 6.1-1.5 9.2 12.7-5.6 18.1-6.9 30.6-7.4-1.9 3.9-7.7 9.7-12.6 13.1 7.9.8 15.2 6.3 17.1 8.7 2.1 2.6.6 1.9-5.5 2.4 9.8 5.6 14.4 13.4 17.6 21.3.8 2.1-.2 2.6-5.8 1 7.3 9.8 8.4 18.9 8.2 25.3-.2 4.2-1.3 3.1-4.7-.2.5 3.2 1 9 0 14.2"
     id="path4" />
  <path
     fill="#00290C"
     d="M448.4 103.9c8.7-5.3 27.7-11 35-12.1 3.5-.5 4.4.5 5.5 5.5 1 5 1.5 35-.6 51.8s-7.1 38.2-12.9 44.8c4.7-13.1-4.5-24.2-14.5-28.9 3.7-10.2-2.4-17.9-5.5-19-.2-2.6-1-4.2-2.1-4.8v5c2.7 5 3.5 10.2 3.4 15.8 1.9 2.9 2.1 3.7 2.7 8.2 3.2 5.6 3.9 10.6 4.7 17.4 1.9 4.8 1.8 10.8 1.8 10.8h-99.2l-1.9 2.1-35.5-2.9-1.1-2.6h-1.1c-27.7-49.2-15.8-61.3-9.7-63.4 4.2-1.5 7.9-.6 10 .2 2.9-11.5 8.5-21.8 17.3-32.3 3.9-4.7 18.9-1.1 43.1 10.5 4.4-3.1 10-5.5 16-7.4 1.8-1.8 3.1-2.7 3.1-2.7.3-.5 9.7-17.3 9.5-24.4-.2-7.3-8.4-16.3-8.4-16.3s-1.3 1.8-2.4 2.6c-2.9 3.5-6.3 3.9-10.6 4-4.5 0-6.3-.2-10.5 1.8-3.2 1.6-3.7 2.1-7.4 2.9.8.5 1.3 1.1 2.1 2.3-2.7-.5-5.3-.6-6.9-2.9-2.3-.5-2.7-1.1-4.2-2.9 2.1-.3 5-1.6 6.3-2.7 1.3-1.3 2.1-1.9 4.5-4 2.3-1.8 3.5-2.6 7.3-2.7-2.4-.5-7.4-1-11-1.6-2.1.5-5.6.5-5.6.5l-.5 1.6s-1.8.2-2.9-1.5c-.8 0-2.6-.5-3.7-.6 1-6 5.8-9.7 8.7-9.8 1.6-1.1 5.6-3.9 8.1-4.7 2.9-4.2 3.1-5.2 9.7-8.9 2.7-5.5 8.7-12.1 16-16.3 1.3 2.6.5 6.1-1.5 9.2 12.7-5.6 18.1-6.9 30.6-7.4-1.9 3.9-7.7 9.7-12.6 13.1 7.9.8 15.2 6.3 17.1 8.7 2.1 2.6.6 1.9-5.5 2.4 9.8 5.6 14.4 13.4 17.6 21.3.8 2.1-.2 2.6-5.8 1 7.3 9.8 8.4 18.9 8.2 25.3-.2 4.2-1.3 3.1-4.7-.2.5 3.2 1 9 0 14.2"
     id="path5" />
  <path
     fill="#00290C"
     d="M448.4 103.9c8.7-5.3 27.7-11 35-12.1 3.5-.5 4.4.5 5.5 5.5 1 5 1.5 35-.6 51.8s-7.1 38.2-12.9 44.8c4.7-13.1-4.5-24.2-14.5-28.9 3.7-10.2-2.4-17.9-5.5-19-.2-2.6-1-4.2-2.1-4.8v5c2.7 5 3.5 10.2 3.4 15.8 1.9 2.9 2.1 3.7 2.7 8.2 3.2 5.6 3.9 10.6 4.7 17.4 1.9 4.8 1.8 10.8 1.8 10.8h-99.2l-1.9 2.1-35.5-2.9-1.1-2.6h-1.1c-27.7-49.2-15.8-61.3-9.7-63.4 4.2-1.5 7.9-.6 10 .2 2.9-11.5 8.5-21.8 17.3-32.3 3.9-4.7 18.9-1.1 43.1 10.5 4.4-3.1 10-5.5 16-7.4 1.8-1.8 3.1-2.7 3.1-2.7.3-.5 9.7-17.3 9.5-24.4-.2-7.3-8.4-16.3-8.4-16.3s-1.3 1.8-2.4 2.6c-2.9 3.5-6.3 3.9-10.6 4-4.5 0-6.3-.2-10.5 1.8-3.2 1.6-3.7 2.1-7.4 2.9.8.5 1.3 1.1 2.1 2.3-2.7-.5-5.3-.6-6.9-2.9-2.3-.5-2.7-1.1-4.2-2.9 2.1-.3 5-1.6 6.3-2.7 1.3-1.3 2.1-1.9 4.5-4 2.3-1.8 3.5-2.6 7.3-2.7-2.4-.5-7.4-1-11-1.6-2.1.5-5.6.5-5.6.5l-.5 1.6s-1.8.2-2.9-1.5c-.8 0-2.6-.5-3.7-.6 1-6 5.8-9.7 8.7-9.8 1.6-1.1 5.6-3.9 8.1-4.7 2.9-4.2 3.1-5.2 9.7-8.9 2.7-5.5 8.7-12.1 16-16.3 1.3 2.6.5 6.1-1.5 9.2 12.7-5.6 18.1-6.9 30.6-7.4-1.9 3.9-7.7 9.7-12.6 13.1 7.9.8 15.2 6.3 17.1 8.7 2.1 2.6.6 1.9-5.5 2.4 9.8 5.6 14.4 13.4 17.6 21.3.8 2.1-.2 2.6-5.8 1 7.3 9.8 8.4 18.9 8.2 25.3-.2 4.2-1.3 3.1-4.7-.2.5 3.2 1 9 0 14.2"
     id="path6" />
  <radialGradient
     id="a"
     cx="433.81"
     cy="852.404"
     r="50.737"
     gradientTransform="translate(-2016.432 -4246.832)scale(5.5695)"
     gradientUnits="userSpaceOnUse">
    <stop
       offset=".407"
       stop-color="#0080c6"
       id="stop6" />
    <stop
       offset=".554"
       stop-color="#007ec4"
       id="stop7" />
    <stop
       offset=".652"
       stop-color="#0078bd"
       id="stop8" />
    <stop
       offset=".736"
       stop-color="#006fb1"
       id="stop9" />
    <stop
       offset=".812"
       stop-color="#0062a1"
       id="stop10" />
    <stop
       offset=".883"
       stop-color="#00518c"
       id="stop11" />
    <stop
       offset=".948"
       stop-color="#003e74"
       id="stop12" />
    <stop
       offset=".954"
       stop-color="#003c71"
       id="stop13" />
  </radialGradient>
  <path
     fill="url(#a)"
     d="M399.7 218.1C244 218.1 117.1 345 117.1 500.6S244 783.2 399.7 783.2c155.5 0 282.6-126.9 282.6-282.6s-127-282.5-282.6-282.5"
     id="path13" />
  <defs
     id="defs13">
    <path
       id="b"
       d="M399.7 218.1C244 218.1 117.1 345 117.1 500.6S244 783.2 399.7 783.2c155.5 0 282.6-126.9 282.6-282.6s-127-282.5-282.6-282.5" />
  </defs>
  <clipPath
     id="c">
    <use
       xlink:href="#b"
       overflow="visible"
       id="use13" />
  </clipPath>
  <g
     clip-path="url(#c)"
     id="g15">
    <path
       fill="#FFF"
       d="M423.1 750.3c0-4.2-9.4-9.2-23.5-9.2-14 0-23.4 5-23.4 9.2s9.4 9 23.4 9c14.1.2 23.5-4.8 23.5-9m105.1 3.2c-39.8 8.5-65.6 16.8-106.3 3.4-4.7 3.4-12.7 5.3-21 5.5V783H398v-20.6c-8.2-.2-16.3-2.3-21-5.5-41.5 13.9-65.6 5.2-106.1-3.2l-6.8-4.5c39.4 8.4 70.6 18.4 110.5 5.5-1-1.3-1.5-2.6-1.5-4.2v-.8c-188.7-23.7-222.7-194.8-222.7-290 0-71.9 28.9-135.3 70-179.8l3.1 1.1c-40.6 44-70.2 107.6-70.2 178.7 0 95 33.9 264 220.8 287.1 1-1.5 2.3-2.6 4-3.7-45.6-24.4-83.7-106.1-83.5-253.2 0-140.3 48.7-273.4 104.8-273.2 58.1 0 104.7 132.9 104.7 273.2 0 145.6-36.8 228.2-83.7 252.9 1.9 1.1 3.4 2.4 4.4 3.9 186.7-23.5 220.7-191.7 220.7-287v-4.5l-13.4-9c-.5.2-1 .5-1.6.5-1.8 0-3.2-1.3-3.4-3.1-.2-1.5 1.1-2.9 3.2-2.9 1.8 0 3.2 1.5 3.2 3.1l11.8 7.9c-.2-5.8-.5-11.6-1-17.4l-14.2-9.5c-.5.2-1 .5-1.6.5-1.8.2-3.2-1.3-3.4-3.1 0-1.3 1.3-2.9 3.2-2.9 1.8 0 3.2 1.5 3.2 3.1l12.3 8.2c-.6-6.3-1.5-12.6-2.4-18.7l-15.2-10.2c-.5.2-1 .5-1.6.5-1.8 0-3.2-1.3-3.4-3.1 0-1.5 1.3-2.9 3.2-2.9 1.8 0 3.2 1.5 3.2 3.1l12.9 8.5c-1.1-6.1-2.4-12.1-3.9-17.9l-16.1-11c-.5.2-1 .5-1.6.5-1.8.2-3.2-1.3-3.4-3.1 0-1.3 1.3-2.9 3.2-2.9 1.8 0 3.2 1.3 3.2 3.1l13.4 9C624.7 346 602.6 308.7 575 281l1.9-2.7c28.7 29 51.5 68.5 62.1 109.8l11.3 7.6c.2-.3 1-.3 1.6-.3 1.9 0 3.2 1.5 3.2 3.1 0 2.1-1.6 3.1-3.2 3.1-1.8 0-3.1-1.5-3.2-3.1l-8.7-5.8c1.5 5.8 2.6 11.6 3.5 17.7l12.3 8.1c.2-.3 1-.3 1.6-.3 1.9 0 3.2 1.5 3.2 3.1 0 2.1-1.6 3.1-3.2 3.1-1.8 0-3.1-1.5-3.2-3.1l-10-6.8c1 6.1 1.6 12.3 2.3 18.5l13.1 8.7c.2-.3 1-.3 1.6-.3 1.9 0 3.2 1.5 3.2 3.1 0 2.1-1.6 3.1-3.2 3.1-1.8 0-3.1-1.5-3.2-3.1l-11.1-7.6c.5 5.6.6 11.5.8 17.3l13.7 9.2c.2-.3 1-.3 1.6-.3 1.9 0 3.2 1.5 3.2 3.1 0 2.1-1.6 3.1-3.2 3.1-1.8 0-3.1-1.3-3.2-3.1l-12.1-8.2v2.6c0 95.5-34 265.8-222.4 289.8v.8c0 1.5-.5 2.9-1.6 4.2 39.2 12.6 70.3 3.1 109-5.2zm-128.7-534c-52.6 0-101.8 128.9-101.8 270.3-.2 149.2 39.2 229.4 84 251.5 4.8-1.9 11.5-3.1 17.9-3.1 6.3 0 12.6 1 17.4 2.9 46.3-22.6 84.2-103.5 84.2-251.3.1-141.6-47-270.3-101.7-270.3"
       id="path14" />
    <path
       fill="#003C71"
       d="M404.8 562.4v4l2.9-2.6c-.9-.4-1.9-.9-2.9-1.4m9.6 6.5-3.9 8.9c3.1 4 5 9 5 14.5v1.1l8.4 4.8c.3-1.9.6-4 .6-6.1-.1-9.2-4-17.4-10.1-23.2m6.6 37.6-9.5-1.1c-3.1 4.7-7.7 8.1-13.1 9.7l-1.9 9c10.8-1.5 19.8-8.3 24.5-17.6M387.9 624l-1.9-8.9c-5.8-1.5-10.6-5-13.9-9.8l-8.9.8c4.9 9.5 13.9 16.5 24.7 17.9m-27.3-25.8 7.6-4.4v-1.6c0-5.8 2.1-11.1 5.5-15.2l-3.7-8.2c-6.1 5.8-10 14.2-10 23.2 0 2.2.3 4.3.6 6.2m16-34.3 2.9 2.6v-4c-1 .4-1.9.9-2.9 1.4m127.8-50.4c1-.5 5.8-2.1 8.9-.3.2.2-3.5-3.7.2-8.9.3-.5 3.9-4.8 4.5-6.6.2-.2.3.6.5 1.5 0 .2 0-4.2 2.4-7.9.2-.2 2.1 2.3 3.1 4 0 .2.2-6.9 2.4-10.3.2-.3-1-1.5-1-6 0-.3 0-1-.3-4.8 0-.5 1.6 0 2.4 1 .2.2-2.1-5.2-1.1-7.9.2-.3-1 1.3-3.2 1.8-.2 0 1.9.5 2.4 1.5.2.3-1.3.2-3.9 3.4 0 0 1.1.2 1.9-.2 0 0-6.3 6.1-9 6.1-.2 0 2.7.2 4 .6 0 0-.6.2-3.5 3.9 0 .2-2.4 6.6-11.9 5.8-.3 1-.5 1.9-.6 3.1 1.5-.6 4.7-1.9 9.8-1.9.2 0-1.9 1.1-3.5 4.2 0 .2-2.3 3.9-5 3.9 0 0 4.8 0 7.6-2.7.2-.2.8 12.9-8.5 15.5.1.4.7.9 1.4 1.2m-224.4 0c.6-.5 1.1-.8 1.8-1.3-9.4-2.6-8.7-15.6-8.5-15.5 2.7 2.7 7.6 2.7 7.6 2.7-2.7 0-4.8-3.7-5-3.9-1.5-3.1-3.7-4.2-3.5-4.2 5.2 0 8.4 1.3 9.8 1.9-.2-1-.5-1.9-.6-3.1-9.5.8-11.9-5.6-11.9-5.8-2.9-3.7-3.5-3.9-3.5-3.9 1.3-.5 4.2-.6 4-.6-2.7 0-9-6.1-9-6.1.8.3 1.9.2 1.9.2-2.6-3.2-4-3.1-3.9-3.4.5-.8 2.6-1.3 2.4-1.5-2.3-.6-3.4-2.3-3.2-1.8 1 2.7-1.3 8.1-1.1 7.9.8-.8 2.6-1.5 2.4-1-.5 3.9-.3 4.5-.3 4.8 0 4.5-1.3 5.5-1 6 2.3 3.2 2.3 10.3 2.4 10.3.8-1.8 2.9-4.2 3.1-4 2.4 3.5 2.4 7.9 2.4 7.9.2-.6.5-1.6.5-1.5.8 1.8 4.2 6.1 4.5 6.6 3.9 5.2 0 8.9.2 8.9 2.7-1.5 7.7.1 8.5.4m49.4-9.1c3.4.8 1.8 10.6.8 15.3h3.2c2.4-.2 4 .2 5 .6 1.6 0 2.9-.3 3.9-1.6l-4-2.3c-3.1-2.3-5.2-1.8-5.2-1.9 5.3-8.1 13.1-.5 14.4.6 1.3-.5 2.6-.8 4-1-1.8-1.5-3.9-4.4-4.2-4.8.6.6 5.3 0 5.5 0 6.3-1.3 9.4 1.1 9.4 1.1l-.8-1.6c-1.1-2.7-3.2-2.9-3.1-3.1 5-2.4 8.7-.8 8.5-1.1-.6-1.6-1.1-6.3-.6-6.3 4.8 1.1 6.3 3.1 6.5 3.2 2.6 2.6 3.5 11.8 3.9 13.9 3.1.6 5 1.3 5 1.3-.3-1.1-.5-2.3-.5-3.4 0-6.3 5-11.3 11.3-11.3.2-4.8-11.1-16.8-26.3-16.8h-53.4c-12.4 0-24.5-12.3-24.5-24.5V248.5h72.1c-25.8-2.1-43.2-6.8-45.8-11.8L281 182.3s8.5 8.4 14.4 6.6c5.8-1.8 6.9-6.3 6.6-13.7-.3-7.1 9.5 10.8 21.5 8.1 10.6-2.4 5.2-17.3 11.8-10.6 6.5 6.8 14 5.5 16.5 2.4 2.6-3.1 6.3-7.9 7.7-12.6 1.5-4.7 1.1-6.5 6.8 1.3 5.8 7.7 12.4 14 19.2 7.9s6.5-11.8 8.7-6c2.4 5.6 9 10.2 13.4 7.7 4.4-2.4 9.4-5.6 14-12.7 4.7-7.3 2.4 5.3 11.8 14s17.3-1.8 18.7-3.1c1.6-1.5 1.6-3.1 2.1 1.5.5 4.5 3.4 11.3 11.9 10.5s15-8.2 16.5-10 .5 6 .5 6-.5 12.6 11 8.5l2.6-1c1.8-1 6.6-4.8 6.6-4.8l-33.5 54.5c-2.7 4.8-20.2 9.7-46.3 11.8h72.9v212.1c0 12.4-12.3 24.7-24.5 24.7h-53.2c-15.3 0-26 11.9-25.8 16.8 6.1.2 11.1 5.2 11.1 11.3 0 1.1-.2 2.3-.5 3.2.6-.2 2.4-.6 4.7-1.3.2-2.3 1.3-11.5 3.9-13.9.2-.2 1.6-2.3 6.5-3.2.3-.2 0 4.7-.6 6.3-.2.3 3.5-1.5 8.5 1.1.3.2-1.8.3-3.1 3.1l-.8 1.6s3.2-2.4 9.4-1.1c.2 0 4.8.8 5.5 0-.3.5-2.6 3.5-4.2 4.8 1.5.2 2.9.5 4 1 1.5-1.1 9-8.7 14.4-.6.2.2-2.1-.3-5.2 1.9l-4 2.3c1 1.3 2.4 1.6 3.9 1.6 1-.5 2.6-1 5-.6h2.7c-1-4.7-2.6-14.4.8-15.3l14.4-3.5c1.5-.3 2.7.8 3.9 2.7l8.7-2.1 1.3-4 7.9-1.9c3.1-.8 5.5 6.1 6.1 7.9l-4.7 1.1.5 1.5 4.7-1.1 1.5 4.8c.3-.2 1-.2 1.5.5-.6-4.7-.8-9.5-.3-14.2-1-.5-4.4-1.6-5.8-5.5-.2-.3-.3-5.2-1.5-6.8-.2-.3 5.8 1.8 6.8 4.4 0 .2-1.6-6.9 3.4-12.9.2-.3 1.6 3.5 2.6 5.5-.6-1.3-1.3-3.9.6-9.4.2-.5 2.4-5.2 2.9-6.1.2-.2.2 1.9 1.6 4.8.2.2 1.1 2.6 1.6 3.9.2-1.6 1.3-8.1 9.2-9.4.2 0 .2-1.6 1.5-3.4-5-.3-12.3-1.3-12.3-4.4V442c0-1.3 1.3-2.3 3.2-2.9V430l-3.2-2.6v-8.2c0-3.1 7.4-3.7 9.4-4v4.7l1.3-.2V415q6.3-.45 12.6 0v4.7l1.5.2V415c1.9.3 9.2 1 9.2 4v8.2l-3.5 2.3v8.9c2.1.6 3.5 1.6 3.5 3.1v14.8c0 3.9-11.8 4.4-15.8 4.5.2 1.8 0 3.5-1.1 4.7-.2.2.5 1.3 1.8 1.9.2 0 5.2 2.3 5.2 7.9 0 .3 3.2-2.3 5-1.9.2 0-.8 1.8-.6 4.7 0 .5 3.2 8.4-7.9 11.1-.3 0-.2 4.2-1.5 6.6.3-.5 3.7-6.6 12.7-5.2.2 0-1 .3-2.7 3.1-.2.2-2.3 9.2-11.3 5.2-.3-.2-1.9 4.4-2.1 4.4 0 0 8.2-3.9 13.5 1.9.3.3-1.3-.6-3.7 1.6-.2.2-3.7 3.4-8.9 1.8-.2 0 4.5 1.6 5.8 2.7.2.2-2.4-.2-5.8 2.7-.2.2-4.4 5-11 .8-.2-.2 1.3 1.5 2.3 2.7.2.2 1.9 1.3 2.7 1.3.2 0-9 4-15.3-2.9-1-.3-1.8-.8-2.6-1.5l.3 1.1c.3 1.1-1.5 1.8-1.8.5 0 0-.5-1.3-.8-3.5l-1.5-1.5c.3 1.6.8 3.4 1.1 5l-4.5 1.1.2 1.3 4.5-1.1c.2 1.9 1.3 9.2-1.8 10l-7.9 1.9-3.2-2.6-8.5 2.1c-.2 1.9-.8 3.4-2.1 3.7l-14.4 3.5c-3.4.8-6.5-8.1-7.7-12.7-1 .6-2.1 1-3.2 1.1-.3 0-1.9 1.1-2.6 4.4 0 .3-.6 4.2-4 5.5-.3.2 4.4 1.9 6.3 3.9.2.2-4.8.6-8.7 2.7-.5.2-5.8.5-8.5-2.1-.2-.2 1.3 3.1 4 4 .2 0-9.7 4.2-16.1-4l-2.3.2c.6 1.3 3.1 5.8 3.4 6.5 0 .2-13.9-.2-13.9-8.2 0-.2-.3-.6-.8-1.1l-1.5-1c.3 1.3.8 3.1.6 4.2 0 .2.3 4 1.1 4.8 0 0-12.4-5.8-6.8-14-2.6-3.5-3.5-6.8-3.5-6.8-.3-1.3 1.5-1.8 1.8-.5 0 0 .3 1.5 1.5 3.4l.6 1.3c2.1-1.6 7.7-4.7 14 .3.2.2-1.1-.3-5.6 2.3-.3.2-3.2 1.9-5.8.8 1.1 1.1 2.3 2.1 3.4 2.9.6-.3 1.8-1 2.9-1.5.2-.2 2.9-5.3 12.6-5.3.3 0-1.5 2.4-1.8 3.5 0 .2-.6 2.4-1.9 3.1-.3.2 1.6 1.3 1.6 1.6s0-7.3 11.3-9.8c.3-.2-.8.3-1.5 4.4 0 .3 1.8-4 7.3-4 .3 0 2.7-1.1 3.1-1.6.2-.2-.8 3.1-1.1 3.7 0 .2 5-3.4 8.1-3.4.3 0-3.1-1-4-1.9-.2-.2-10.5 4.2-13.7-7.6l-1.1-.2c-.6.3-1.6.6-2.4.3-.3-.2 2.3 1.9 3.4 4.8.2.3 2.4 3.9 3.2 4.2.2.2-7.6-.6-10.2-3.4-.3-.3.5 1.5.8 3.1 0 .3-4.2-2.9-7.4-3.1-.3 0-5.8-.2-7.7-5-3.9.8-6.5 1.6-6.5 1.6-2.3 2.6-4.8 4.8-7.9 5.6-.3.5-.6.8-1.1 1.1l3.5 20v-3.5c1.5.2 6.9.6 6.9 3.1v6.1l-2.7 1.8c4.2 1.5 8.2 3.2 11.9 5.6l5.5-5c-.5-.6-.8-1.5-.8-2.3 0-1.9 1.6-3.4 3.5-3.4 1.8 0 3.4 1.6 3.4 3.4s-1.6 3.5-3.4 3.5c-.5 0-1-.2-1.5-.3l-3.1 6.8c8.9 7.4 14.7 18.5 14.7 31 0 3.5-.5 7.1-1.3 10.3l6.9 4c.6-1 1.8-1.6 2.9-1.6 1.8 0 3.4 1.6 3.4 3.4s-1.6 3.4-3.4 3.4c-1.9 0-3.4-1.6-3.4-3.4l-8.1-1c-5.6 13.9-19 23.9-34.7 24.8l-1.8 8.2c1.5.3 2.7 1.8 2.7 3.4 0 1.8-1.6 3.4-3.4 3.4-1.9 0-3.5-1.6-3.5-3.4 0-1.6 1.1-3.1 2.7-3.4l-1.8-8.2c-15.8-1-29.2-11.1-34.8-25.2l-7.9.8c0 2.3-1.6 3.9-3.4 3.9-1.9 0-3.5-1.6-3.5-3.4 0-1.9 1.6-3.4 3.5-3.4 1.3 0 2.3.6 2.9 1.6l6.9-4c-.8-3.4-1.3-6.8-1.3-10.3 0-12.4 5.6-23.5 14.5-31l-3.4-7.7c-.5.3-1.1.5-1.8.5-1.9 0-3.5-1.6-3.5-3.4 0-1.9 1.6-3.5 3.5-3.5 1.8 0 3.4 1.6 3.4 3.5 0 .8-.3 1.6-.8 2.3l6.3 5.6c3.5-2.3 7.4-4 11.6-5.2l-2.4-2.3v-6.1c0-2.3 5.5-2.9 6.9-3.1v3.5l3.7-20.2c-4.2-1.9-6.8-4.2-8.1-7.3-.2.3-.6.6-1.1.5 0 0-2.6-.8-6.5-1.6-1.9 4.8-7.4 5-7.7 5-3.2.2-7.4 3.2-7.4 3.1.3-1.6 1.1-3.2.8-3.1-2.7 2.7-10.3 3.4-10.2 3.4.8-.3 3.1-3.9 3.2-4.2 1.3-2.9 3.7-5 3.4-4.8-.8.3-1.8 0-2.4-.3l-1.1.2c-3.2 11.8-13.5 7.4-13.7 7.6-1 1-4.5 1.9-4 1.9 3.1 0 8.1 3.4 8.1 3.4-.3-.6-1.1-3.9-1.1-3.7.3.6 2.7 1.6 3.1 1.6 5.5 0 7.3 4.4 7.3 4-.6-4-1.8-4.4-1.5-4.4 11.3 2.6 11.3 10.2 11.3 9.8 0-.3 1.8-1.5 1.6-1.6-1.1-.6-1.9-2.7-1.9-3.1-.2-1.1-1.9-3.5-1.8-3.5 9.8 0 12.4 5.2 12.6 5.3 1.1.5 2.3 1.1 2.9 1.5 1.1-.8 2.4-1.8 3.4-2.9-2.6 1.1-5.5-.6-5.8-.8-4.5-2.6-5.8-2.1-5.6-2.3 6.3-5 11.9-1.9 14-.3l.6-1.3c1-1.9 1.5-3.4 1.5-3.4.3-1.3 2.1-.6 1.8.5 0 0-1 3.2-3.5 6.8 5.6 8.2-6.9 14-6.8 14 .8-1 1.1-4.7 1.1-4.8-.2-1.1.3-2.9.6-4.2l-1.5 1c-.5.6-.8 1.1-.8 1.1 0 8.1-14 8.4-13.9 8.2.2-.6 2.6-5.2 3.4-6.5l-2.3-.2c-6.6 8.2-16.3 4-16.1 4 2.7-1.1 4.2-4.4 4-4-2.6 2.6-8.1 2.3-8.5 2.1-3.7-2.1-8.7-2.6-8.7-2.7 1.9-1.9 6.6-3.7 6.3-3.9-3.4-1.1-4-5.2-4-5.5-.6-3.2-2.3-4.4-2.6-4.4-1.3-.2-2.4-.6-3.5-1.5-1.3 4.7-4.4 13.7-7.7 12.9l-14.4-3.5c-1.3-.3-1.9-1.8-2.1-3.7l-8.5-2.1-3.2 2.6-7.9-1.9c-3.1-.8-1.9-8.1-1.8-10l4.5 1.1.2-1.3-4.5-1.1 1-4.4c-1.3 3.1-1.6 4.4-1.6 4.4-.3 1.1-2.1.6-1.8-.5l.3-1.1c-.8.5-1.6 1-2.6 1.5-6.3 6.8-15.5 2.9-15.3 2.9.8 0 2.6-1 2.7-1.3 1-1.3 2.6-2.9 2.3-2.7-6.6 4.2-10.8-.6-11-.8-3.4-2.7-6-2.4-5.8-2.7 1.3-1.1 6-2.7 5.8-2.7-5.3 1.5-8.7-1.8-8.9-1.8-2.4-2.3-4-1.5-3.7-1.6 5.2-5.8 13.5-1.9 13.5-1.9-.2 0-1.8-4.5-2.1-4.4-9.2 4.2-11.1-4.8-11.3-5.2-1.6-2.9-2.9-3.1-2.7-3.1 9-1.5 12.4 4.5 12.7 5.2-1.3-2.6-1.1-6.6-1.3-6.6-11.3-2.7-8.1-10.6-7.9-11.1.2-3.1-.8-4.7-.6-4.7 1.8-.3 5 2.3 5 1.9 0-5.6 5.2-7.7 5.2-7.9 1.3-.6 1.9-1.6 1.8-1.9-1.1-1.1-1.3-2.9-1.1-4.7-3.5 0-16.1-.5-16.1-4.5v-14.8c0-1.3 1.3-2.3 3.2-2.9V429l-3.2-2.6v-8.2c0-3.1 7.3-3.7 9.4-4v4.7l1.3-.2V414q6.3-.45 12.6 0v4.7l1.5.2v-4.8c1.9.3 9.2 1 9.2 4v8.2l-3.5 2.3v8.9c2.1.6 3.5 1.6 3.5 3.1v14.8c0 2.9-6.9 4-11.9 4.4 1.3 1.8 1.5 3.4 1.6 3.4 7.9 1.1 9 7.6 9.2 9.4.5-1.3 1.6-3.7 1.6-3.9 1.5-2.9 1.5-5 1.6-4.8.5 1 2.7 5.6 2.9 6.1 2.1 5.5 1.3 8.1.6 9.4 1-1.8 2.4-5.8 2.6-5.5 5.2 6 3.4 13.1 3.4 12.9 1-2.6 6.9-4.7 6.8-4.4-1 1.5-1.3 6.5-1.5 6.8-1.5 3.9-4.8 5.2-5.8 5.5.6 4.7.3 9.5-.3 14.2 1.5-2.1 1.9-3.7 2.4-5.3l4.7 1.1.5-1.5-4.7-1.1c.8-1.8 3.2-8.7 6.1-7.9l7.9 1.9 1.3 4 8.7 2.1c1.1-1.9 2.4-3.1 3.9-2.7zm200.6-96c1.9-1.1 3.7-2.4 5.2-3.9-1-1.5-4.2-5.3-4.2-5.6 0-.5-2.4-2.4 1.5-9.2.2-.3-.5 2.3 3.5 5 .2 0 3.9 2.4 1.8 7.1q1.5-1.95 2.4-4.2c-1.5-1.3-5.3-4.2-6.3-10.2-.2-.5-.5-3.5 1.3-5.5.2-.3 5.3 2.4 6.9 8.5.2-2.1.2-4.4 0-6.5-1.6.2-5.3.2-7.9-8.1-.2-.6-.6-5.5-.6-5.5s-.6-1.1-.8-1.8c0-.3-.6-1.9-1-1.9-.2 0-3.4-.8-5.8-3.7-2.4 6.3-6.9 6.8-7.6 6.8-.3 1.9-.5 3.9-.6 5.6 1.6-4.4 6.9-7.4 6.8-7.1-1.9 3.1-.6 7.7-.6 8.1.6 6.9-5.8 8.9-6 9l.2 1.3c.2.8.6 1.6.6 1.6 1.8-6.1 6.8-7.4 6.6-7.3-1.5 1.5-.6 6.3-.6 6.8 1.3 5.3-2.4 7.3-4.2 7.7.8 1.8 1.6 3.5 2.7 5.3-1.1-5.3 3.4-10.8 3.4-10.8l2.4 6.5c2.3 6.3-1.3 8.4-2.4 8.9.9 1 2 2.1 3.3 3.1m14.5-60c0 2.7-6.3 3.9-11.1 4.2.8 1.1 1.5 2.7 1 4.7 0 .2 5.2 1.5 5.2 3.5 0 .2 2.4-6.3 5.2-7.1.2 0-.6 1.6-.2 4 0 .2 4.8 7.3-3.4 13.4-.3.2.2.2-.3 1.3l.8 2.9c.3-1.3 1.3-4.5 2.4-5.3.2-.2 2.1-2.7 4.4-3.9.2-.2 1.8 7.1 0 9.4-.2.2 2.3-1.5 4.4-2.4.3-.2-2.3 3.1-2.3 7.4 0 .3.2 6.9-7.4 5.5v3.5c1.5-1.1 5.6-3.9 10.3-3.9.2 0-3.2 1.9-3.9 6.5 0 .3-.6 4.2-2.4 4.8-.5.2 2.6-1 6.3 3.5.2.3-2.6.2-6.5 3.2-.3.3-5 4.2-8.4-1.3-2.4 3.4-5.3 5.6-7.6 7.1 1.1.8 1.9 1.3 1.9 1.3l-.6 1.3s-1-.5-2.6-1.8c-1.9 1-3.2 1.5-3.4 1.5l-.5-1.5s1-.3 2.4-1c-1.5-1.3-2.9-2.6-4-4-6.1 3.4-8.2-.6-8.4-.8-.8-1.5-5.2-7.4-5-7.6 3.4-1.1 7.1 1 9.7 3.1q-1.2-1.95-2.1-4.2c-9.2-1.8-9.5-13.2-9.2-13.2.6-.2 4.5 1.5 4.4 1.3-3.4-2.4-3.7-5.6-3.7-5.8 0-4-1.6-5.3-1.5-5.3 3.7-1 6 1.6 6.9 3.1.2-2.9.6-5.6 1.1-8.5-4.4-2.3-2.6-14.2-2.4-14 5.3 3.5 5 9.5 5.2 8.5s3.4-3.2 3.7-3.4c1.9-1 2.7-3.7 2.9-3.4.5 1 .5 2.6.8 4l2.1-.2s-2.9-2.4-3.1-5.8c-4.5-.2-15-.8-15-4.5v-14.8c0-1.3 1.3-2.3 3.2-2.9v-8.9l-3.2-2.6v-8.2c0-3.1 7.4-3.7 9.4-4v4.7l1.3-.2v-4.7q6.3-.45 12.6 0v4.7l1.5.2V307c1.9.3 9.2 1 9.2 4v8.2l-3.5 2.3v8.9c2.1.6 3.5 1.6 3.5 3.1v14.9zm-14.7-46.9c1.9-1.1 3.7-2.4 5.2-3.9-1-1.5-4.2-5.3-4.2-5.6 0-.5-2.4-2.4 1.5-9.2.2-.3-.5 2.3 3.5 5 .2 0 3.9 2.4 1.8 7.1 1-1.3 1.8-2.7 2.3-4.2-1.5-1.3-5.3-4.2-6.3-10.2 0-.5-.5-3.5 1.3-5.5.2-.3 5.3 2.4 6.9 8.5.2-2.1.3-4.4 0-6.5-1.6.2-5.3.2-7.9-8.1-.2-.6-.6-5.5-.6-5.5s-.6-1.1-.8-1.8c0-.3-.6-1.9-1-1.9-.2 0-3.4-.8-5.8-3.7-2.4 6.3-6.9 6.8-7.6 6.8-.3 1.9-.5 3.9-.6 5.6 1.6-4.4 6.9-7.4 6.8-7.1-1.9 3.1-.6 7.7-.6 8.1.6 6.9-5.8 8.9-6 9l.2 1.3c.2.8.6 1.6.6 1.6 1.8-6.1 6.8-7.4 6.6-7.3-1.5 1.5-.6 6.3-.6 6.8 1.3 5.3-2.4 7.3-4.2 7.7.8 1.8 1.8 3.5 2.7 5.3-1.1-5.3 3.4-10.8 3.4-10.8l2.4 6.5c2.3 6.3-1.3 8.4-2.4 8.9.9.8 2 1.9 3.4 3.1m12.1-78.9c3.1 3.1-7.6 14-8.9 15.2-.3.3-1.8 1.8-3.4 3.2.2 1 .6 1.9 1.8 2.9.2.2 3.4 2.7 2.6 6.3 0 .2 5.2 1.5 5.2 3.5 0 .2 2.4-6.3 5.2-7.1.2 0-.6 1.6-.2 4 0 .2 4.8 7.3-3.4 13.4-.3.2.2.2-.3 1.3l.8 2.9c.3-1.3 1.3-4.5 2.4-5.3.2-.2 2.1-2.7 4.4-3.9.2-.2 1.8 7.1 0 9.4-.2.2 2.3-1.5 4.5-2.4.3-.2-2.3 3.1-2.3 7.4 0 .3.2 6.9-7.4 5.5v3.5c1.5-1.1 5.6-3.9 10.3-3.9.2 0-3.2 1.9-3.9 6.5 0 .3-.6 4.2-2.4 4.8-.3.2 2.6-1 6.3 3.5.2.3-2.6.2-6.5 3.2-.3.3-5 4.2-8.4-1.3-2.4 3.4-5.3 5.6-7.6 7.1 1.1.8 1.9 1.3 1.9 1.3.8.5.2 1.8-.6 1.3 0 0-1.1-.5-2.6-1.8-1.9 1-3.2 1.5-3.4 1.5-1 .3-1.3-1.1-.5-1.5 0 0 1-.3 2.4-1-1.5-1.3-2.9-2.6-4-4-6.1 3.4-8.2-.6-8.4-.8-.8-1.5-5.2-7.4-5-7.6 3.4-1.1 7.1 1 9.7 3.1q-1.2-1.95-2.1-4.2c-9.2-1.8-9.5-13.2-9.2-13.2.6-.2 4.5 1.5 4.4 1.3-3.4-2.4-3.7-5.6-3.7-5.8 0-4-1.6-5.3-1.5-5.3 3.7-1 6 1.6 6.9 3.1.2-2.9.6-5.6 1.1-8.5-4.4-2.3-2.6-14.2-2.4-14 5.3 3.5 5 9.5 5.2 8.5s3.4-3.2 3.7-3.4c1.9-1 2.7-3.7 2.9-3.4.5 1 .5 2.6.8 4l2.1-.2s-3.9-3.2-2.9-7.4c-3.1 2.3-6.1 3.7-7.6 2.3l-10.5-10.5c-1-1-.6-2.6.2-4.4l-6.3-6.3-4 .5-5.8-5.8c-2.3-2.3 2.6-7.9 3.7-9.5l3.4 3.4-2.4-4.4c2.9-3.2 5.8-6.1 8.9-8.9l3.4 3.4 1.1-1-3.4-3.4c1.6-1.1 7.3-5.8 9.4-3.5l5.8 5.8-1 4.2 6.3 6.3c1.9-1 3.7-1.3 4.7-.3zM254.4 408.4c1.3-1.1 2.4-2.3 3.5-3.4-1.1-.6-4.8-2.6-2.4-8.9l2.4-6.5s4.5 5.5 3.4 10.8c1.1-1.6 1.9-3.4 2.7-5.3-1.6-.5-5.3-2.4-4.2-7.7.2-.3.8-5.3-.6-6.8-.2-.2 4.8 1.1 6.6 7.3 0 .2.3-.6.6-1.6l.2-1.3c0-.2-6.6-2.3-6-9 0-.3 1.3-5-.6-8.1-.2-.3 5.3 2.7 6.8 7.1-.2-1.9-.3-3.9-.6-5.6-.8 0-5.2-.5-7.6-6.8-2.4 2.9-5.5 3.7-5.8 3.7s-1 1.6-1 1.9c-.2.6-.8 1.8-.8 1.8s-.5 4.7-.6 5.5c-2.6 8.4-6.3 8.4-7.9 8.1-.2 2.3-.2 4.4 0 6.5 1.5-6.1 6.6-8.9 6.9-8.5 1.8 1.9 1.3 5.2 1.3 5.5-1.1 6-5 8.9-6.3 10.2.6 1.5 1.5 2.9 2.3 4.2-2.1-4.7 1.6-6.9 1.8-7.1 4-2.7 3.4-5.2 3.5-5 3.9 6.8 1.5 8.9 1.5 9.2s-3.2 4.2-4.2 5.6c1.3 1.8 3.1 3.1 5.1 4.2m19-60c0 3.5-10 4.4-14.7 4.5-.2 3.5-3.1 5.8-3.1 5.8l2.1.2c.3-1.5.3-3.2.8-4 .2-.3 1 2.4 2.9 3.4.3.2 3.5 2.4 3.7 3.4s-.2-5 5.2-8.5c.2-.2 1.9 11.8-2.4 14 .6 2.9 1 5.6 1.1 8.5 1-1.5 3.2-4 6.9-3.1.3 0-1.3 1.3-1.3 5.3 0 .3-.3 3.4-3.7 5.8-.2.2 3.7-1.5 4.4-1.3.3.2 0 11.5-9.2 13.2q-.9 2.25-2.1 4.2c2.6-2.1 6.3-4.2 9.7-3.1.3.2-4 6.1-5 7.6-.2.2-2.3 4.2-8.4.8-1.3 1.5-2.6 2.7-4 4 1.5.6 2.4 1 2.4 1l-.5 1.5s-1.5-.5-3.2-1.5c-1.6 1.1-2.6 1.8-2.6 1.8l-.6-1.3s.8-.3 1.9-1.3c-2.4-1.5-5.3-3.7-7.6-7.1-3.4 5.5-8.1 1.6-8.4 1.3-4-3.1-6.6-3.1-6.5-3.2 3.9-4.5 6.8-3.2 6.3-3.5-1.6-.8-2.3-4.5-2.4-4.8-.6-4.7-4.2-6.5-3.9-6.5 4.8 0 8.9 2.7 10.3 3.9 0-1.1-.2-2.3 0-3.5-7.6 1.5-7.4-5-7.4-5.5 0-4.4-2.4-7.6-2.3-7.4 2.1 1.1 4.5 2.6 4.5 2.4-1.6-2.3-.2-9.5 0-9.4 2.3 1.1 4.2 3.7 4.4 3.9 1.1.8 2.1 4.2 2.4 5.3l.8-2.9c-.5-1.1 0-1.1-.3-1.3-8.2-6.1-3.4-13.2-3.4-13.4.5-2.3-.3-4-.2-4 2.7 1 5.2 7.4 5.2 7.1 0-2.1 5.2-3.4 5.2-3.5-.5-1.9.2-3.5 1-4.7-5-.3-11.5-1.5-11.5-4.4v-14.8c0-1.3 1.3-2.3 3.2-2.9v-8.9l-3.2-2.6v-8.2c0-3.1 7.3-3.7 9.4-4v4.7l1.3-.2v-4.7q6.3-.45 12.6 0v4.7l1 .6V307c1.9.3 9.2 1 9.2 4v8.2l-3.5 2.3v8.9c2.1.6 3.5 1.6 3.5 3.1zm-18.7-46.9c1.3-1.1 2.4-2.3 3.5-3.4-1.1-.6-4.8-2.6-2.4-8.9l2.4-6.5s4.5 5.5 3.4 10.8c1.1-1.6 1.9-3.4 2.7-5.3-1.6-.5-5.3-2.4-4.2-7.7.2-.3.8-5.3-.6-6.8-.2-.2 4.8 1.1 6.6 7.3 0 .2.3-.6.6-1.6l.2-1.3c0-.2-6.6-2.3-6-9 0-.3 1.3-5-.6-8.1-.2-.3 5.3 2.7 6.8 7.1-.2-1.9-.3-3.9-.6-5.6-.8 0-5.2-.5-7.6-6.8-2.4 2.9-5.5 3.7-5.8 3.7s-1 1.6-1 1.9c-.2.6-.8 1.8-.8 1.8s-.5 4.7-.6 5.5c-2.6 8.4-6.3 8.4-7.9 8.1-.2 2.3-.2 4.4 0 6.5 1.5-6.1 6.6-8.9 6.9-8.5 1.8 1.9 1.3 5.2 1.3 5.5-1.1 6-5 8.9-6.3 10.2.6 1.5 1.5 2.9 2.3 4.2-2.1-4.7 1.6-6.9 1.8-7.1 4-2.7 3.4-5.2 3.5-5 3.9 6.8 1.5 8.9 1.5 9.2s-3.2 4.2-4.2 5.6c1.4 1.7 3 3 5.1 4.2m12.2-54.9c-1.6 1.6-5-.3-8.2-2.7 1.1 4.5-2.9 7.7-2.9 7.7l2.1.2c.3-1.5.3-3.2.8-4 .2-.3 1 2.4 2.9 3.4.3.2 3.5 2.4 3.7 3.4s-.2-5 5.2-8.5c.2-.2 1.9 11.8-2.4 14 .6 2.9 1 5.6 1.1 8.5 1-1.5 3.2-4 6.9-3.1.3 0-1.5 1.3-1.5 5.3 0 .3-.3 3.4-3.7 5.8-.2.2 3.7-1.5 4.4-1.3.3.2 0 11.5-9.2 13.2q-.9 2.25-2.1 4.2c2.6-2.1 6.1-4.2 9.7-3.1.3.2-4 6.1-5 7.6-.2.2-2.3 4.2-8.4.8-1.3 1.5-2.6 2.7-4 4 1.5.6 2.4 1 2.4 1 1 .3.5 1.8-.5 1.5 0 0-1.5-.5-3.2-1.5-1.6 1.1-2.6 1.8-2.6 1.8-.8.5-1.6-.8-.6-1.3 0 0 .8-.3 1.9-1.3-2.4-1.5-5.3-3.7-7.6-7.1-3.4 5.5-8.1 1.6-8.4 1.3-4-3.1-6.6-3.1-6.5-3.2 3.9-4.5 6.8-3.2 6.3-3.5-1.6-.8-2.3-4.5-2.4-4.8-.6-4.7-4.2-6.5-3.9-6.5 4.8 0 8.9 2.7 10.3 3.9-.2-1.1-.2-2.3 0-3.5-7.6 1.5-7.4-5-7.4-5.5 0-4.4-2.4-7.6-2.3-7.4 2.1 1.1 4.5 2.6 4.4 2.4-1.6-2.3-.2-9.5 0-9.4 2.3 1.1 4.2 3.7 4.4 3.9 1.1.8 2.1 4.2 2.4 5.3l.8-2.9c-.5-1.1 0-1.1-.3-1.3-8.2-6.1-3.4-13.2-3.4-13.4.5-2.3-.3-4-.2-4 2.7 1 5.2 7.4 5.2 7.1 0-2.1 5.2-3.4 5.2-3.5-1-3.7 2.3-6.1 2.6-6.3 1.3-1.1 1.8-2.3 1.9-3.2-1.5-1.3-2.6-2.4-2.9-2.7-1.3-1.3-11.9-11.9-8.7-15.2l10.5-10.5c1-1 2.6-.6 4.4.2l6.3-6.3-.5-4 5.8-5.8c2.3-2.3 7.9 2.6 9.5 3.7l-3.4 3.4 4.4-2.4c3.2 2.9 6.1 5.8 8.9 8.9l-3.4 3.4 1 1.1 3.4-3.4c1.1 1.6 5.8 7.3 3.5 9.4l-5.8 5.8-4.2-1-6.3 6.3c1 1.9 1.3 3.7.3 4.7z"
       id="path15" />
  </g>
  <path
     fill="none"
     d="M448.4 103.9c8.7-5.3 27.7-11 35-12.1 3.5-.5 4.4.5 5.5 5.5 1 5 1.5 35-.6 51.8s-7.1 38.2-12.9 44.8c4.7-13.1-4.5-24.2-14.5-28.9 3.7-10.2-2.4-17.9-5.5-19-.2-2.6-1-4.2-2.1-4.8v5c2.7 5 3.5 10.2 3.4 15.8 1.9 2.9 2.1 3.7 2.7 8.2 3.2 5.6 3.9 10.6 4.7 17.4 1.9 4.8 1.8 10.8 1.8 10.8h-99.2l-1.9 2.1-35.5-2.9-1.1-2.6h-1.1c-27.7-49.2-15.8-61.3-9.7-63.4 4.2-1.5 7.9-.6 10 .2 2.9-11.5 8.5-21.8 17.3-32.3 3.9-4.7 18.9-1.1 43.1 10.5 4.4-3.1 10-5.5 16-7.4 1.8-1.8 3.1-2.7 3.1-2.7.3-.5 9.7-17.3 9.5-24.4-.2-7.3-8.4-16.3-8.4-16.3s-1.3 1.8-2.4 2.6c-2.9 3.5-6.3 3.9-10.6 4-4.5 0-6.3-.2-10.5 1.8-3.2 1.6-3.7 2.1-7.4 2.9.8.5 1.3 1.1 2.1 2.3-2.7-.5-5.3-.6-6.9-2.9-2.3-.5-2.7-1.1-4.2-2.9 2.1-.3 5-1.6 6.3-2.7 1.3-1.3 2.1-1.9 4.5-4 2.3-1.8 3.5-2.6 7.3-2.7-2.4-.5-7.4-1-11-1.6-2.1.5-5.6.5-5.6.5l-.5 1.6s-1.8.2-2.9-1.5c-.8 0-2.6-.5-3.7-.6 1-6 5.8-9.7 8.7-9.8 1.6-1.1 5.6-3.9 8.1-4.7 2.9-4.2 3.1-5.2 9.7-8.9 2.7-5.5 8.7-12.1 16-16.3 1.3 2.6.5 6.1-1.5 9.2 12.7-5.6 18.1-6.9 30.6-7.4-1.9 3.9-7.7 9.7-12.6 13.1 7.9.8 15.2 6.3 17.1 8.7 2.1 2.6.6 1.9-5.5 2.4 9.8 5.6 14.4 13.4 17.6 21.3.8 2.1-.2 2.6-5.8 1 7.3 9.8 8.4 18.9 8.2 25.3-.2 4.2-1.3 3.1-4.7-.2.5 3.2 1 9 0 14.2"
     id="path16" />
  <path
     fill="#00290C"
     d="M448.4 103.9c8.7-5.3 27.7-11 35-12.1 3.5-.5 4.4.5 5.5 5.5 1 5 1.5 35-.6 51.8s-7.1 38.2-12.9 44.8c4.7-13.1-4.5-24.2-14.5-28.9 3.7-10.2-2.4-17.9-5.5-19-.2-2.6-1-4.2-2.1-4.8v5c2.7 5 3.5 10.2 3.4 15.8 1.9 2.9 2.1 3.7 2.7 8.2 3.2 5.6 3.9 10.6 4.7 17.4 1.9 4.8 1.8 10.8 1.8 10.8h-99.2l-1.9 2.1-35.5-2.9-1.1-2.6h-1.1c-27.7-49.2-15.8-61.3-9.7-63.4 4.2-1.5 7.9-.6 10 .2 2.9-11.5 8.5-21.8 17.3-32.3 3.9-4.7 18.9-1.1 43.1 10.5 4.4-3.1 10-5.5 16-7.4 1.8-1.8 3.1-2.7 3.1-2.7.3-.5 9.7-17.3 9.5-24.4-.2-7.3-8.4-16.3-8.4-16.3s-1.3 1.8-2.4 2.6c-2.9 3.5-6.3 3.9-10.6 4-4.5 0-6.3-.2-10.5 1.8-3.2 1.6-3.7 2.1-7.4 2.9.8.5 1.3 1.1 2.1 2.3-2.7-.5-5.3-.6-6.9-2.9-2.3-.5-2.7-1.1-4.2-2.9 2.1-.3 5-1.6 6.3-2.7 1.3-1.3 2.1-1.9 4.5-4 2.3-1.8 3.5-2.6 7.3-2.7-2.4-.5-7.4-1-11-1.6-2.1.5-5.6.5-5.6.5l-.5 1.6s-1.8.2-2.9-1.5c-.8 0-2.6-.5-3.7-.6 1-6 5.8-9.7 8.7-9.8 1.6-1.1 5.6-3.9 8.1-4.7 2.9-4.2 3.1-5.2 9.7-8.9 2.7-5.5 8.7-12.1 16-16.3 1.3 2.6.5 6.1-1.5 9.2 12.7-5.6 18.1-6.9 30.6-7.4-1.9 3.9-7.7 9.7-12.6 13.1 7.9.8 15.2 6.3 17.1 8.7 2.1 2.6.6 1.9-5.5 2.4 9.8 5.6 14.4 13.4 17.6 21.3.8 2.1-.2 2.6-5.8 1 7.3 9.8 8.4 18.9 8.2 25.3-.2 4.2-1.3 3.1-4.7-.2.5 3.2 1 9 0 14.2"
     id="path17" />
  <linearGradient
     id="d"
     x1="247.387"
     x2="247.387"
     y1="706.566"
     y2="819.966"
     gradientTransform="translate(.771 -1122.203)scale(1.6129)"
     gradientUnits="userSpaceOnUse">
    <stop
       offset="0"
       stop-color="#009634"
       id="stop17" />
    <stop
       offset=".169"
       stop-color="#009533"
       id="stop18" />
    <stop
       offset=".281"
       stop-color="#009133"
       id="stop19" />
    <stop
       offset=".378"
       stop-color="#008b31"
       id="stop20" />
    <stop
       offset=".465"
       stop-color="#00822f"
       id="stop21" />
    <stop
       offset=".546"
       stop-color="#00762c"
       id="stop22" />
    <stop
       offset=".622"
       stop-color="#006627"
       id="stop23" />
    <stop
       offset=".695"
       stop-color="#00521f"
       id="stop24" />
    <stop
       offset=".763"
       stop-color="#003b15"
       id="stop25" />
    <stop
       offset=".804"
       stop-color="#00290c"
       id="stop26" />
  </linearGradient>
  <path
     fill="url(#d)"
     d="M396.3 29.5c13.5-6 21.9-8.5 33.7-9.7-4.5 4-10.5 9-14.4 11.6 8.7.6 12.7 3.1 19.8 7.7-4 .3-6 .5-9 1.5 6 3.1 17.9 12.4 21 20.8-2.4 0-4.7-.8-7.7-.6 5 6.9 10.6 13.7 10.5 25.6-1.1-.3-3.7-1.5-4.8-1.8 1.6 7.7 1.8 13.7-1.3 25.2 5.5 15.2 6.6 20.8 6.3 36.8 1.6 4.7 4.4 8.9 3.7 16.5 1.9 1.9 2.9 4 3.1 7.7 1.5 3.2 5.2 14.2 4.8 17.6 1.8 4.5 1.5 9 1.3 9.7-1.6.2-66.6 0-66.6 0 8.5-2.9 15.6-6 21.9-14.7 12.4-10.2 19.4-23.5 21.9-41.8-6.5 20.6-13.1 30-23.9 39.8-7.3 9.7-17.9 14.4-26 16.1l-5.5.2s5.5-12.7 6-20.8c3.2-4.7 4-7.7 3.7-12.6 10-8.5 12.7-14.2 13.5-21.9-4.5 11-6.5 12.3-15.3 20.5-.3 6-1.3 8.7-4.7 13.5-.8 4.8-3.1 13.7-6.8 21.6H366c.8-11.3 1.6-16.5 5-23.7 0-7.1 2.1-14.4 6-20.5.2-7.6 4.8-28.7 17.6-40.3 7.1-9.8 12.7-12.9 16.6-15.2 3.5-7.3 8.2-18.9 8.4-21.5.3-5.6-4.5-16-9.8-20.5 2.6-4.5 2.1-5.6 1.5-9.8-.5 3.7-.8 4.4-1.5 5.8-.6 1.5-6.9 6.8-8.7 8.1s-4 1.8-6.8 1.8c-2.7 0-5.2 0-9.8 2.1-3.2 1.5-8.1 4.7-12.6 2.7 2.3-.3 3.9-1.9 6-3.7 2.1-1.9 1.5-2.9 12.7-6.6-3.7-2.3-11.6-2.9-14.2-3.4-2.4-.5-6.3.6-11.3.3.3-1.8 2.9-5.8 6.5-6 2.4-2.3 5.6-3.7 8.2-4.2 5.6-7.1 3.9-7.3 13.2-12.7-2.1.6-2.4.6-2.4.6 1.9-4 7.6-10.2 13.1-14-.2 4.4-1.8 7.1-3.7 9.7-1.6 1.1-3.7 2.5-3.7 2.5m-66.9 167.8-1.1-2.6c1.1 0 1.6-.2 1.6-.2-9.7-18.1-27.4-57.4-11.8-61.6 3.9-1.1 7.1-.5 9 .2-3.9 17.4-1.5 37.1 5.8 63.5-.2-3.2 6.6-24.4 20-30.2-2.6-5.3-4.5-10.2-6.1-14.7 2.4-6.9 6-10 14.5-9 3.2-9.5 7.1-15.3 13.1-18.9-6.3 2.6-10.8 7.1-14 14-1.9-3.7-6.5-12.6-9-21.3 1.5 9.7 5.3 18.9 6.8 22.4-5.6.6-9.7 2.6-12.7 8.2-4.2-15.2-3.2-28.1.5-45.3-7.9 24.2-5.3 42.9 3.7 63.7-7.7 4.5-12.7 10.2-16.6 22.6-8.4-40.8-7.1-60.8 13.1-87.1 5-6.5 33.1 6.3 41.8 12.1 4.5-2.6 7.9-4.2 11.1-5.3-1.3 1.6-2.6 3.5-3.5 5.5-10.8 7.1-20.8 26.6-21 40.5-4.2 6.1-5.5 11.9-5.5 20.6-3.1 6.3-4.7 14.7-4.4 23.7h2.6l-1.9 2.1zm118.3-90.2c11-6.1 24.5-10.6 34.4-12.7 3.7-.8 4.4.3 4.8 3.2.5 2.9 1.5 24.4 0 41.6s-3.1 28.1-7.9 45.2c1.9-13.9.6-22.1-7.9-27.9 9-25.5 11.6-32.4 14.2-57.9-4 24.7-9.2 40.6-16.6 58.4 9 6.8 10.8 13.4 9 23.7-1.9-6.8-6-12.7-13.5-16.9.2-6.3.5-13.4-6.1-19.4-1.1-3.7-2.6-5.6-4.7-6.5 0-2.6-.2-5-.5-7.4 4.8-7.1 7.9-11.5 14.4-20.2-6.6 7.6-9.8 11.5-14.7 17.3-.8-5.6-2.4-11.5-5.5-18.5.3-.7.5-1.4.6-2"
     id="path26" />
  <path
     fill="#B57017"
     d="M237.6 44.4c16.5 8.9 22.1-6.5 30.3-6.6-16.4-1.8-11.3 7.2-30.3 6.6m47.9-26.3c17.6-6.1 20.8 9.8 28.9 11.3-16.5-1-10-9.1-28.9-11.3m-27.6 37.2c15.2-5.3 21.9 8.5 28.7 9.8-14.2-.7-12.4-7.8-28.7-9.8"
     id="path27" />
  <path
     fill="#00290C"
     d="M386.5 42.7c11.5-6 14-5.3 26.9-4.7-13.7 1.7-18.4 1.7-26.9 4.7"
     id="path28" />
  <path
     fill="#00290C"
     d="M396.3 39.4c.8.3 1.5 2.7 3.1 2.7 1.5 0 6.3-3.2 6.5-3.5-.1-.4-9.6.8-9.6.8m27.1 136.9c-2.7 2.4-12.9 5.6-25 3.1 7.7 4.8 19 3.5 22.3.8.6-2.8 2.7-3.9 2.7-3.9m11.4-16.6c1 3.9 1.5 4.4 3.7 6.6-.3 4.7.2 8.2 3.1 11.9.6 7.9 4.2 16.1 8.4 21.3-3.1.3-4.5 0-4.5 0s-6.1-10.6-6.5-18.5c-2.4-3.4-4-6.6-3.5-13.1-2.3-3.1-2.4-4.2-2.4-4.7 0-.6 1.7-3.5 1.7-3.5"
     id="path29" />
  <path
     fill="#009634"
     d="M399.8 625.6c-22.3 0-40.2-18.1-40.2-40.2 0-22.3 18.1-40.2 40.2-40.2 22.3 0 40.2 18.1 40.2 40.2 0 22.3-18.1 40.2-40.2 40.2m0-7.9c17.7 0 32.1-14.4 32.1-32.1s-14.4-32.1-32.1-32.1-32.1 14.4-32.1 32.1c-.1 17.6 14.2 32.1 32.1 32.1"
     id="path30" />
  <path
     fill="#B57017"
     d="M392.7 506.3c0 2.9 1.8 5.5 4.4 6.6.6-.8 1.8-1.3 2.7-1.3 1.1 0 2.1.5 2.7 1.3 2.6-1.1 4.4-3.7 4.4-6.6 0-4-3.2-7.1-7.1-7.1-3.8 0-7.1 3.2-7.1 7.1m9.4 12.4 3.5 20v-3.5c1.5.2 6.9.6 6.9 3.1v6.1l-2.7 1.8v6.6c1.6.5 2.7 1.3 2.7 2.3v11c0 3.2-11.3 3.4-12.6 3.4s-12.6 0-12.6-3.4V555c0-1 1-1.6 2.4-2.3V546l-2.4-1.9V538c0-2.3 5.5-2.9 6.9-3.1v3.5l3.7-20.2c-.3-.3-.8-.6-1-1.1-4.7-1.5-8.1-5.8-8.1-10.8 0-6.3 5-11.3 11.3-11.3s11.3 5 11.3 11.3c0 5.2-3.4 9.5-8.1 10.8-.4 1-.9 1.4-1.2 1.6m145.6-300c3.1 3.1-7.6 14-8.9 15.2-1.3 1.3-11.9 11.9-15.2 8.7l-10.5-10.5c-1-1-.6-2.6.2-4.4l-6.3-6.3-4 .5-5.8-5.8c-2.3-2.3 2.4-7.9 3.7-9.5l3.4 3.4.8-1.1-3.4-3.4c2.7-3.2 5.6-6.1 8.9-8.9l3.4 3.4 1.1-1-3.4-3.4c1.6-1.1 7.3-5.8 9.4-3.5l5.8 5.8-1 4.2 6.3 6.3c1.9-1 3.7-1.3 4.7-.3z"
     id="path32" />
  <path
     fill="#E9B245"
     d="M518.4 225.2c2.1-2.7 4.7-5.3 5.6-6.3 1.6-1.6 8.7-8.2 11.5-8.5l8.4 8.4c-1.1.5-2.1 1.1-2.6 1.5-1.3.8-2.7 1.9-4.4 3.4l-3.9-3.9c-2.6-2.6-5.8-1.3-7.7.5-1.8 1.8-3.1 5.2-.5 7.7l3.9 3.9c-.6.6-1.1 1.3-1.8 2.1zm-12.8-12.1 3.4-4.2-3.2-3.2c1.6-1.8 3.2-3.4 5-5l3.2 3.2 5.3-4.4-3.2-3.2c1-.6 2.3-1.6 3.4-1.8l3.5 3.5c-3.5 1.6-8.5 6.1-11.3 8.9-1.6 1.6-4 4.2-6 6.8zm3.9.4c1.8-2.1 3.5-4 4.4-4.8 1.8-1.8 4.7-4.4 7.3-6.3.2-.2.5-.3 1-.6l8.2 8.1c-3.7 2.6-7.3 6.1-8.1 6.9-.6.5-2.4 2.4-4.4 4.8z"
     id="path33" />
  <path
     fill="#B57017"
     d="M515.3 209.8c1.1-1.1 2.9-1.1 4 0s1.1 2.9 0 4-2.9 1.1-4 0c-1.1-1.2-1.1-3 0-4m-243.5 32.1c-3.1 3.1-13.9-7.6-15.2-8.9s-11.9-11.9-8.7-15.2l10.5-10.5c1-1 2.6-.6 4.4.2l6.3-6.3-.5-4 5.8-5.8c2.3-2.3 7.9 2.6 9.5 3.7l-3.4 3.4 1.1.8 3.4-3.4c3.2 2.7 6.1 5.8 8.9 8.9l-3.4 3.4 1 1.1 3.4-3.4c1.1 1.6 5.8 7.3 3.5 9.4l-5.8 5.8-4.2-1-6.3 6.3c1 1.9 1.3 3.7.3 4.7z"
     id="path34" />
  <path
     fill="#E9B245"
     d="M265.2 212.6c2.6 2.1 5.3 4.7 6.3 5.6 1.6 1.6 8.2 8.7 8.5 11.5l-8.4 8.4c-.5-1.1-1.1-2.1-1.5-2.6-.8-1.3-1.9-2.7-3.4-4.4l3.9-3.9c2.6-2.6 1.3-5.8-.5-7.7-1.8-1.8-5.2-3.1-7.7-.5l-3.9 3.9c-.6-.6-1.3-1.1-2.1-1.8zm12.1-12.9 4.2 3.4 3.2-3.2c1.8 1.6 3.4 3.2 5 5l-3.2 3.2 4.4 5.3 3.2-3.2c.6 1 1.6 2.3 1.8 3.4l-3.5 3.5c-1.6-3.5-6.1-8.5-8.9-11.3-1.6-1.6-4.2-4-6.8-6zm-.5 4c2.1 1.8 4 3.5 4.8 4.4 1.8 1.8 4.4 4.7 6.3 7.3.2.2.3.5.6 1l-8.1 8.1c-2.6-3.7-6.1-7.3-6.9-8.1-.5-.5-2.4-2.4-4.8-4.4z"
     id="path35" />
  <circle
     cx="278.5"
     cy="211.5"
     r="2.7"
     fill="#B57017"
     id="circle35" />
  <path
     fill="#FFF"
     d="M295.8 241.9h207.9V454c0 12.3-12.3 24.7-24.5 24.7H426c-15.3 0-26 11.9-25.8 16.8 0-4.8-11.3-16.8-26.5-16.8h-53.4c-12.4 0-24.5-12.3-24.5-24.5z"
     id="path36" />
  <path
     fill="#B57017"
     d="M369 540.5c1.8 0 3.4 1.6 3.4 3.4 0 .8-.3 1.6-.8 2.3l19.5 17.4c2.6-1 5.3-1.5 8.2-1.5 3.1 0 6.1.6 8.9 1.8l18.9-17.1c-.5-.6-.8-1.5-.8-2.3 0-1.9 1.6-3.5 3.4-3.5s3.4 1.6 3.4 3.5c0 1.8-1.6 3.4-3.4 3.4-.5 0-1-.2-1.5-.3L417.9 571c3.1 4 5 9 5 14.5v1.1l22.6 13.1c.6-1 1.6-1.6 2.9-1.6 1.8 0 3.5 1.6 3.5 3.4 0 1.9-1.6 3.5-3.5 3.5s-3.4-1.6-3.4-3.5v-.5l-26-2.6c-3.1 4.7-7.7 8.1-13.1 9.7l-5.5 25.5c1.5.3 2.7 1.8 2.7 3.4 0 1.8-1.6 3.4-3.4 3.4-1.9 0-3.5-1.6-3.5-3.4 0-1.6 1.1-3.1 2.7-3.4l-5.5-25.3c-5.8-1.5-10.6-5-13.9-9.8l-25.2 2.6v.5c0 1.9-1.6 3.5-3.5 3.5s-3.5-1.6-3.5-3.5 1.6-3.4 3.5-3.4c1.3 0 2.3.6 2.9 1.6l21.8-12.7v-1.6c0-5.8 2.1-11.1 5.5-15.2l-10.5-23.7c-.5.3-1.1.5-1.8.5-1.9 0-3.5-1.6-3.5-3.5.3-1.7 1.9-3.1 3.8-3.1"
     id="path37" />
  <path
     fill="#009634"
     d="M287.6 507.1c.6-.5 1.1-.8 1.8-1.3l.2-.6c-9.5-1.9-8.9-15-8.7-14.8 2.7 2.7 7.6 2.7 7.6 2.7-2.7 0-4.8-3.7-5-3.9-1.6-3.1-3.7-4.2-3.5-4.2 5.2 0 8.4 1.1 9.8 1.9-.2-1-.5-1.9-.6-3.1-9.5.8-11.9-5.6-11.9-5.8-2.9-3.7-3.5-3.9-3.5-3.9 1.3-.5 4.2-.6 4-.6-2.7 0-9-6.1-9-6.1.8.3 1.9.3 1.9.2-2.6-3.2-4-3.1-3.9-3.4.5-.8 2.6-1.3 2.4-1.5-2.3-.6-3.4-2.3-3.2-1.8 1 2.7-1.3 8.1-1.1 7.9.8-.8 2.6-1.5 2.4-1-.5 3.9-.3 4.5-.3 4.8 0 4.5-1.3 5.5-1 6 2.3 3.2 2.3 10.3 2.4 10.3.8-1.8 2.9-4.2 3.1-4 2.4 3.5 2.4 7.9 2.4 7.9.2-.6.5-1.6.5-1.5.8 1.8 4.2 6.1 4.5 6.6 3.7 5.2 0 8.9.2 8.9 2.7-1.8 7.7-.2 8.5.3m5.8-2.9s-.8 1.1-2.3 2.4c-.5 2.3-.8 3.5-.8 3.5-.3 1.1-2.1.6-1.8-.5 0 0 .2-.5.3-1.1-.8.5-1.6 1-2.6 1.5-6.3 6.8-15.5 2.9-15.3 2.9.8 0 2.6-1 2.7-1.3 1-1.3 2.6-2.9 2.3-2.7-6.6 4-10.8-.6-11-.8-3.4-2.7-6-2.4-5.8-2.7 1.3-1.1 6-2.7 5.8-2.7-5.3 1.5-8.7-1.8-8.9-1.8-2.4-2.3-4-1.5-3.7-1.6 5.2-5.8 13.5-1.9 13.5-1.9-.2 0-1.8-4.5-2.1-4.4-9.2 4.2-11.1-4.8-11.3-5-1.6-2.9-2.9-3.1-2.7-3.1 9-1.5 12.4 4.5 12.7 5.2-1.3-2.6-1.1-6.6-1.5-6.6-11.3-2.7-8.1-10.6-7.9-11.1.2-3.1-.8-4.7-.6-4.7 1.8-.3 5 2.3 5 1.9 0-5.6 5.2-7.7 5.2-7.9 1.3-.6 1.9-1.8 1.8-1.9-2.9-2.9.2-10 .2-9.8 1.1 1.9 2.7 3.4 2.9 3.5 2.7 2.3 2.7 4.8 2.9 4.8 7.9 1.1 9 7.6 9.2 9.4l.5.3c-.2-1.8 1-4.2 1.1-4.4 1.5-2.9 1.5-5 1.6-4.8.5 1 2.7 5.6 2.9 6.1 2.1 5.5 1.3 8.1.6 9.4l.5.8c.5-2.7 1.8-6.6 2.1-6.3 5.2 6 3.4 13.1 3.4 12.9 1-2.6 6.9-4.7 6.8-4.4-1 1.5-1.3 6.5-1.5 6.8-1.5 3.9-4.8 5.2-5.8 5.5.5 4.7.3 9.5-.3 14.2l.2-.3c.9-1.4 2.3-.3 1.7.7"
     id="path38" />
  <path
     fill="#00428C"
     d="M402.6 253.4h89.8v105h-89.8z"
     id="path39" />
  <defs
     id="defs39">
    <path
       id="e"
       d="M402.6 253.4h89.8v105h-89.8z" />
  </defs>
  <clipPath
     id="f">
    <use
       xlink:href="#e"
       overflow="visible"
       id="use39" />
  </clipPath>
  <g
     clip-path="url(#f)"
     id="g48">
    <linearGradient
       id="g"
       x1="276.322"
       x2="276.322"
       y1="903.966"
       y2="851.966"
       gradientTransform="translate(.771 -1122.203)scale(1.6129)"
       gradientUnits="userSpaceOnUse">
      <stop
         offset="0"
         stop-color="#fff"
         id="stop39" />
      <stop
         offset=".212"
         stop-color="#fdfeff"
         id="stop40" />
      <stop
         offset=".354"
         stop-color="#f6fafd"
         id="stop41" />
      <stop
         offset=".475"
         stop-color="#e9f3fa"
         id="stop42" />
      <stop
         offset=".585"
         stop-color="#d7e9f6"
         id="stop43" />
      <stop
         offset=".687"
         stop-color="#bddcf1"
         id="stop44" />
      <stop
         offset=".783"
         stop-color="#9bcbea"
         id="stop45" />
      <stop
         offset=".875"
         stop-color="#69b8e2"
         id="stop46" />
      <stop
         offset=".961"
         stop-color="#00a3da"
         id="stop47" />
      <stop
         offset="1"
         stop-color="#0099d6"
         id="stop48" />
    </linearGradient>
    <path
       fill="url(#g)"
       d="M399.5 251.9h93.9v83.9h-93.9z"
       id="path48" />
  </g>
  <path
     fill="#009634"
     d="M262.3 294.8c1.3-1.1 2.6-2.3 3.5-3.4-1.1-.6-4.8-2.6-2.4-8.9.2-.3 2.4-6.5 2.4-6.5s4.5 5.5 3.4 10.8c1.1-1.6 1.9-3.4 2.7-5.3-1.6-.6-5.3-2.4-4.2-7.7.2-.3.8-5.3-.6-6.8-.2-.2 4.8 1.1 6.6 7.3 0 .2.3-.6.6-1.6l.2-1.3c0-.2-6.6-2.3-6-9 0-.3 1.3-5-.6-8.1-.2-.3 5.3 2.7 6.8 7.1-.2-1.9-.3-3.9-.6-5.6-.8 0-5.2-.5-7.6-6.8l-.2-.3c-2.3 3.2-5.5 4-5.6 4-.3 0-1 1.6-1 1.9-.2.6-.8 1.8-.8 1.8s-.5 4.7-.6 5.5c-2.6 8.4-6.5 8.4-7.9 8.1-.2 2.3-.2 4.4 0 6.5 1.5-6.1 6.6-8.9 6.9-8.5 1.8 1.9 1.3 5.2 1.3 5.5-1.1 6-5 8.9-6.3 10.2.6 1.5 1.5 2.9 2.3 4.2-2.1-4.7 1.6-6.9 1.8-7.1 4-2.7 3.4-5.2 3.5-5 3.9 6.8 1.5 8.9 1.5 9.2s-3.2 4.2-4.2 5.6c1.3 1.8 3 3.1 5.1 4.2m-3.3 2.3s.8-.3 1.9-1.3c-2.4-1.5-5.3-3.7-7.6-7.1-3.4 5.5-8.1 1.6-8.4 1.3-3.9-3.1-6.6-3.1-6.5-3.2 3.9-4.5 6.8-3.2 6.3-3.5-1.6-.8-2.3-4.5-2.4-4.8-.6-4.7-4.2-6.5-3.9-6.5 4.8 0 8.9 2.7 10.3 3.9-.2-1.1-.2-2.3 0-3.5-7.6 1.5-7.4-5-7.4-5.5 0-4.4-2.4-7.6-2.3-7.4 2.1 1.1 4.5 2.6 4.4 2.4-1.6-2.3-.2-9.5 0-9.4 2.3 1.1 4.2 3.7 4.4 3.9 1.1.8 2.1 4.2 2.4 5.3.3-1 .5-1.9.8-2.9-.5-1.1 0-1.1-.3-1.3-8.2-6.1-3.4-13.2-3.4-13.4.5-2.3-.3-4-.2-4 2.7 1 5.2 7.4 5.2 7.1 0-2.1 5.2-3.4 5.2-3.5-1-3.7 2.3-6.3 2.6-6.3 3.4-2.7 1.3-5.8 1.5-5.8 9.4 7.1 1.5 13.5 1.5 13.5s1.8.2 2.1.2h.5c-.2-1.6-.2-3.2.2-4.2.2-.3 1 2.4 2.9 3.4.3.2 3.5 2.4 3.7 3.4s-.2-5 5.2-8.5c.2-.2 1.9 11.8-2.4 14 .6 2.7 1 5.6 1.1 8.5 1-1.5 3.2-4 6.9-3.1.3 0-1.3 1.3-1.3 5.3 0 .3-.3 3.4-3.7 5.8-.2.2 3.7-1.5 4.4-1.3.3.2 0 11.5-9.2 13.2q-.9 2.25-2.1 4.2c2.6-2.1 6.1-4.2 9.7-3.1.3.2-4 6.1-5 7.6-.2.2-2.3 4.2-8.4.8-1.3 1.5-2.6 2.7-4 4 1.5.6 2.4 1 2.4 1 1 .3.5 1.8-.5 1.5 0 0-1.5-.5-3.2-1.5-1.6 1.1-2.6 1.8-2.6 1.8-.9.8-1.6-.5-.8-1"
     id="path49" />
  <path
     fill="#B57017"
     d="m477.1 230.2 33.4-54.5s-5.8 4.7-6.9 5c-.2 0 8.4-2.9-2.3.8-11.5 3.9-11-8.7-11-8.7s1-7.7-.5-6c-1.5 1.9-7.9 9.2-16.5 10-8.5.8-11.5-5.8-11.9-10.5-.5-4.5-.3-2.7-2.1-1.5-1.5 1.1-9.4 11.8-18.7 3.1-9.4-8.7-6.9-21.3-11.8-14-4.7 7.3-9.7 10.3-14 12.7-4.4 2.4-11-2.1-13.4-7.7s-2.1-.2-8.7 6c-6.8 6.1-13.4 0-19.2-7.9-5.6-7.7-5.3-6-6.8-1.3s-5.2 9.5-7.7 12.6c-2.6 3.1-10 4.4-16.5-2.4s-1 8.2-11.8 10.6c-11.9 2.6-21.8-15.2-21.5-8.1.3 7.6-.6 11.9-6.6 13.7s-14.4-6.6-14.4-6.6l33.4 54.5c3.7 6.9 34.7 13.1 77.6 13.1 43.2.1 74.2-6.3 77.9-12.9"
     id="path50" />
  <path
     fill="#B57017"
     d="M345.6 159.4c1.5 1.1 6.8 2.7 7.4 2.7 11.9 0 7.7-15.5 6.8-17.1-7.1-11.6-13.2-1.6-13.7-.6-2.6 4.4-2.7 1.3-1.9 0 3.7-7.1.8-10.2-1-10.8-7.4-2.9-16.8 2.4-17.6 3.4-6.5 6.9 4.5 12.4 4.5 12.9.2 3.5-8.2-7.7-13.4.8-5.8 9.8 1.1 16.8 7.7 19.4s12.1-10.6 12.1-10.6 4.2 2.7 6.1-1.6c0-.6 2.7 1.1 3 1.5m-38.5 10.1c.3 10.5-12.1 9.4-11.9 2.9 0-6.5-3.2-7.3-5.5-8.7-2.1-1.6-4.4 1.8-4.4 1.8s-.2 0-1 .2-.5-2.9-.5-2.9c1-2.9 0-10.2-1.8-7.3-4.2 6.6-14.5 4.2-11-1.9 4-7.1 5.6-4 6.5-5.3 1.5-2.3 8.4-1.6 11.9 1s4.4 11.1 4.4 11.1l.8.2s1.8-3.9 3.5-4c3.7-.3 8.7 2.4 9 12.9m185.3.5c-.3 10.5 12.1 9.4 11.9 2.9 0-6.5 3.2-7.3 5.5-8.7 2.1-1.6 4.4 1.8 4.4 1.8s.2 0 .8.2c.8.2.5-2.9.5-2.9-1-2.9-.2-10.2 1.8-7.3 4 6.6 14.5 4.2 11-1.9-4-7.1-5.6-4-6.5-5.3-1.5-2.3-8.4-1.6-11.9 1s-4.4 11.1-4.4 11.1l-.8.2s-1.8-3.9-3.5-4c-3.5-.3-8.5 2.4-8.8 12.9m-86.1-16.8c1.1 1.5 5.8 4.5 6.3 4.7 11.6 3.1 11.5-12.9 11-14.8-3.9-13.1-12.4-5-13.1-4.2-3.5 3.5-3.1.6-1.9-.5 5.3-5.8 3.4-9.5 1.8-10.6-6.5-4.8-16.8-2.1-17.9-1.3-7.9 5 1.1 13.2 1 13.5-.6 3.4-6-9.5-13.1-2.6-8.1 8.1-3.2 16.5 2.4 20.6 5.6 4.2 14.4-7.1 14.4-7.1s3.4 3.7 6.5 0c.2-.4 2.3 2 2.6 2.3m60.3 8.9c.6 1.6 4.5 5.8 5 6.1 10.3 6 14.4-9.5 14.4-11.5-.3-13.7-10.6-8.1-11.6-7.6-4.4 2.6-3.1-.2-1.8-1 6.8-4.2 5.8-8.4 4.5-9.8-5-6.3-15.6-6.3-16.9-6-9 2.7-2.4 13.1-2.6 13.4-1.6 3.1-3.2-10.8-11.9-6-10 5.6-7.4 15.2-3.1 20.6 4.4 5.6 15.6-3.2 15.6-3.2s2.3 4.5 6.1 1.6c.7 0 2.2 2.9 2.3 3.4"
     id="path51" />
  <ellipse
     cx="399.7"
     cy="229"
     fill="#7A4314"
     rx="70.6"
     ry="10.3"
     id="ellipse51" />
  <path
     fill="#00428C"
     d="M396.9 474.5c-6.8-4.4-15.2-7.3-23.2-7.3h-53.4c-6.1 0-13.1-7.3-13.1-13.1v-90.5H397v110.8h-.1z"
     id="path52" />
  <defs
     id="defs52">
    <path
       id="h"
       d="M396.9 474.5c-6.8-4.4-15.2-7.3-23.2-7.3h-53.4c-6.1 0-13.1-7.3-13.1-13.1v-90.5H397v110.8h-.1z" />
  </defs>
  <clipPath
     id="i">
    <use
       xlink:href="#h"
       overflow="visible"
       id="use52" />
  </clipPath>
  <g
     clip-path="url(#i)"
     id="g61">
    <linearGradient
       id="j"
       x1="217.472"
       x2="217.472"
       y1="972.766"
       y2="920.766"
       gradientTransform="translate(.771 -1122.203)scale(1.6129)"
       gradientUnits="userSpaceOnUse">
      <stop
         offset="0"
         stop-color="#fff"
         id="stop52" />
      <stop
         offset=".212"
         stop-color="#fdfeff"
         id="stop53" />
      <stop
         offset=".354"
         stop-color="#f6fafd"
         id="stop54" />
      <stop
         offset=".475"
         stop-color="#e9f3fa"
         id="stop55" />
      <stop
         offset=".585"
         stop-color="#d7e9f6"
         id="stop56" />
      <stop
         offset=".687"
         stop-color="#bddcf1"
         id="stop57" />
      <stop
         offset=".783"
         stop-color="#9bcbea"
         id="stop58" />
      <stop
         offset=".875"
         stop-color="#69b8e2"
         id="stop59" />
      <stop
         offset=".961"
         stop-color="#00a3da"
         id="stop60" />
      <stop
         offset="1"
         stop-color="#0099d6"
         id="stop61" />
    </linearGradient>
    <path
       fill="url(#j)"
       d="M304.5 362.9h94v83.9h-94z"
       id="path61" />
  </g>
  <path
     fill="#D60019"
     d="M307.3 253.4h89.8v105h-89.8zm185 110.5v90.3c0 6.1-7.1 13.2-13.1 13.2H426c-8.4 0-16.8 2.9-23.4 7.4V364h89.7z"
     id="path62" />
  <path
     fill="#E9B245"
     d="M479.8 413.9h1.8v-1.3c0-1.3-1.8-1.3-1.8 0zm-5 8.7v-6.3h1.3l.5-7.3h-1.9v-4.4h2.3v2.4h2.3v-2.4h2.9v2.4h2.3v-2.4h2.3v4.4h-1.9l.5 7.3h1.5v6.3h-4v-2.4c0-2.6-3.5-2.6-3.5 0v2.4zm-29.6-46.5h1.8v-1.3c0-1.3-1.8-1.3-1.8 0zm-5 8.7v-6.3h1.3l.5-7.3h-2v-4.4h2.3v2.4h2.3v-2.4h2.9v2.4h2.3v-2.4h2.3v4.4H450l.5 7.3h1.5v6.3h-4.2v-2.4c0-2.6-3.5-2.6-3.5 0v2.4zm39.6-8.7h1.8v-1.3c0-1.3-1.8-1.3-1.8 0zm-5 8.7v-6.3h1.3l.5-7.3h-1.9v-4.4h2.3v2.4h2.3v-2.4h2.9v2.4h2.3v-2.4h2.3v4.4h-1.9l.5 7.3h1.5v6.3h-4v-2.4c0-2.6-3.5-2.6-3.5 0v2.4zm-61.6-8.7h1.8v-1.3c0-1.3-1.8-1.3-1.8 0zm-5 8.7v-6.3h1.5l.5-7.3h-1.9v-4.4h2.3v2.4h2.3v-2.4h2.9v2.4h2.3v-2.4h2.3v4.4h-1.9l.5 7.3h1.5v6.3H416v-2.4c0-2.6-3.5-2.6-3.5 0v2.4zm5 29.1h1.8v-1.3c0-1.3-1.8-1.3-1.8 0zm-5 8.7v-6.3h1.5l.5-7.3h-1.9v-4.4h2.3v2.4h2.3v-2.4h2.9v2.4h2.3v-2.4h2.3v4.4h-1.9l.5 7.3h1.5v6.3H416v-2.4c0-2.6-3.5-2.6-3.5 0v2.4zm5 32.9h1.8v-1.3c0-1.3-1.8-1.3-1.8 0zm-5 8.7v-6.3h1.5l.5-7.3h-1.9v-4.4h2.3v2.4h2.3v-2.4h2.9v2.4h2.3v-2.4h2.3v4.4h-1.9l.5 7.3h1.5v6.3H416v-2.4c0-2.6-3.5-2.6-3.5 0v2.4zm71.6-8.7h1.8v-1.3c0-1.3-1.8-1.3-1.8 0zm-5 8.7v-6.3h1.3l.5-7.3h-1.9v-4.4h2.3v2.4h2.3v-2.4h2.9v2.4h2.3v-2.4h2.3v4.4h-1.9l.5 7.3h1.5v6.3h-4v-2.4c0-2.6-3.5-2.6-3.5 0v2.4z"
     id="path63" />
  <path
     fill="#FFF"
     d="M425.6 386.6h43.5v57.6h-43.5z"
     id="path64" />
  <path
     fill="#00428C"
     d="M459.2 414.8c0-.8.6-1.5 1.5-1.5.8 0 1.5.6 1.5 1.5s-.6 1.5-1.5 1.5-1.5-.7-1.5-1.5m2.4-3.2c0-.8.6-1.5 1.5-1.5s1.5.6 1.5 1.5c0 .8-.6 1.5-1.5 1.5s-1.5-.7-1.5-1.5m0 6.6c0-.8.6-1.5 1.5-1.5s1.5.6 1.5 1.5-.6 1.5-1.5 1.5-1.5-.7-1.5-1.5m-5-6.6c0-.8.6-1.5 1.5-1.5.8 0 1.5.6 1.5 1.5 0 .8-.6 1.5-1.5 1.5s-1.5-.7-1.5-1.5m0 6.6c0-.8.6-1.5 1.5-1.5.8 0 1.5.6 1.5 1.5s-.6 1.5-1.5 1.5-1.5-.7-1.5-1.5m-1.1-10h10.2v11.1c0 1.1-1 2.1-2.1 2.1-.8 0-1.6.2-2.1.2-.6 0-.8.3-.8.8 0-.5-.2-.8-.8-.8-.5 0-1.3-.2-2.1-.2-1.1 0-2.1-1-2.1-2.1v-11.1zm-22.8 6.6c0-.8.6-1.5 1.5-1.5.8 0 1.5.6 1.5 1.5s-.6 1.5-1.5 1.5c-.8 0-1.5-.7-1.5-1.5m2.6-3.2c0-.8.6-1.5 1.5-1.5s1.5.6 1.5 1.5c0 .8-.6 1.5-1.5 1.5s-1.5-.7-1.5-1.5m0 6.6c0-.8.6-1.5 1.5-1.5s1.5.6 1.5 1.5-.6 1.5-1.5 1.5-1.5-.7-1.5-1.5m-5-6.6c0-.8.6-1.5 1.5-1.5s1.5.6 1.5 1.5c0 .8-.6 1.5-1.5 1.5s-1.5-.7-1.5-1.5m0 6.6c0-.8.6-1.5 1.5-1.5s1.5.6 1.5 1.5-.6 1.5-1.5 1.5-1.5-.7-1.5-1.5m-1.1-10h10.2v11.1c0 1.1-1 2.1-2.1 2.1-.8 0-1.6.2-2.1.2-.6 0-.8.3-.8.8 0-.5-.2-.8-.8-.8-.5 0-1.3-.2-2.1-.2-1.1 0-2.1-1-2.1-2.1v-11.1zm16.8 6.6c0-.8.6-1.5 1.5-1.5s1.5.6 1.5 1.5-.6 1.5-1.5 1.5-1.5-.7-1.5-1.5m2.4-3.2c0-.8.6-1.5 1.5-1.5.8 0 1.5.6 1.5 1.5 0 .8-.6 1.5-1.5 1.5s-1.5-.7-1.5-1.5m0 6.6c0-.8.6-1.5 1.5-1.5.8 0 1.5.6 1.5 1.5s-.6 1.5-1.5 1.5-1.5-.7-1.5-1.5m-4.9-6.6c0-.8.6-1.5 1.5-1.5s1.5.6 1.5 1.5c0 .8-.6 1.5-1.5 1.5s-1.5-.7-1.5-1.5m0 6.6c0-.8.6-1.5 1.5-1.5s1.5.6 1.5 1.5-.6 1.5-1.5 1.5-1.5-.7-1.5-1.5m-1.1-10h10.2v11.1c0 1.1-1 2.1-2.1 2.1-.8 0-1.6.2-2.1.2-.6 0-.8.3-.8.8 0-.5-.2-.8-.8-.8-.5 0-1.3-.2-2.1-.2-1.1 0-2.1-1-2.1-2.1v-11.1zm3.6 24.5c0-.8.6-1.5 1.5-1.5s1.5.6 1.5 1.5-.6 1.5-1.5 1.5-1.5-.7-1.5-1.5m2.4-3.2c0-.8.6-1.5 1.5-1.5.8 0 1.5.6 1.5 1.5 0 .8-.6 1.5-1.5 1.5s-1.5-.7-1.5-1.5m0 6.6c0-.8.6-1.5 1.5-1.5.8 0 1.5.6 1.5 1.5s-.6 1.5-1.5 1.5c-.9-.2-1.5-.8-1.5-1.5m-4.9-6.6c0-.8.6-1.5 1.5-1.5s1.5.6 1.5 1.5c0 .8-.6 1.5-1.5 1.5s-1.5-.7-1.5-1.5m0 6.6c0-.8.6-1.5 1.5-1.5s1.5.6 1.5 1.5-.6 1.5-1.5 1.5c-.8-.2-1.5-.8-1.5-1.5m-1.1-10h10.2v11.1c0 1.1-1 2.1-2.1 2.1-.8 0-1.6.2-2.1.2-.6 0-.8.3-.8.8 0-.5-.2-.8-.8-.8-.5 0-1.3-.2-2.1-.2-1.1 0-2.1-1-2.1-2.1v-11.1zm3.6-29c0-.8.6-1.5 1.5-1.5s1.5.6 1.5 1.5-.6 1.5-1.5 1.5-1.5-.7-1.5-1.5m2.4-3.4c0-.8.6-1.5 1.5-1.5.8 0 1.5.6 1.5 1.5 0 .8-.6 1.5-1.5 1.5s-1.5-.7-1.5-1.5m0 6.6c0-.8.6-1.5 1.5-1.5.8 0 1.5.6 1.5 1.5s-.6 1.5-1.5 1.5-1.5-.7-1.5-1.5m-4.9-6.6c0-.8.6-1.5 1.5-1.5s1.5.6 1.5 1.5c0 .8-.6 1.5-1.5 1.5s-1.5-.7-1.5-1.5m0 6.6c0-.8.6-1.5 1.5-1.5s1.5.6 1.5 1.5-.6 1.5-1.5 1.5-1.5-.7-1.5-1.5m-1.1-9.8h10.2v11.1c0 1.1-1 2.1-2.1 2.1-.8 0-1.6.2-2.1.2-.6 0-.8.3-.8.8 0-.5-.2-.8-.8-.8-.5 0-1.3-.2-2.1-.2-1.1 0-2.1-1-2.1-2.1v-11.1z"
     id="path65" />
  <path
     fill="#E9B245"
     d="M384.5 304h1.8v-1.3c0-1.3-1.8-1.3-1.8 0zm-5 8.7v-6.3h1.3l.5-7.3h-1.9v-4.4h2.3v2.4h2.3v-2.4h2.9v2.4h2.3v-2.4h2.3v4.4h-1.9l.5 7.3h1.5v6.3h-4.2v-2.4c0-2.6-3.5-2.6-3.5 0v2.4zm-29.7-46.2h1.8v-1.3c0-1.3-1.8-1.3-1.8 0zm-5 8.7v-6.3h1.3l.5-7.3h-1.9v-4.4h2.3v2.4h2.3v-2.4h2.9v2.4h2.3v-2.4h2.3v4.4h-1.9l.5 7.3h1.5v6.3h-4.2v-2.4c0-2.6-3.5-2.6-3.5 0v2.4zm39.7-8.7h1.8v-1.3c0-1.3-1.8-1.3-1.8 0zm-5 8.7v-6.3h1.3l.5-7.3h-1.9v-4.4h2.3v2.4h2.3v-2.4h2.9v2.4h2.3v-2.4h2.3v4.4h-1.9l.5 7.3h1.5v6.3h-4.2v-2.4c0-2.6-3.5-2.6-3.5 0v2.4zm-61.6-8.7h1.8v-1.3c0-1.3-1.8-1.3-1.8 0zm-5 8.7v-6.3h1.3l.5-7.3h-1.9v-4.4h2.3v2.4h2.3v-2.4h2.9v2.4h2.3v-2.4h2.3v4.4H323l.5 7.3h1.5v6.3h-4v-2.4c0-2.6-3.5-2.6-3.5 0v2.4zm5 29h1.8v-1.3c0-1.3-1.8-1.3-1.8 0zm-5 8.5v-6.3h1.3l.5-7.3h-1.9v-4.4h2.3v2.4h2.3v-2.4h2.9v2.4h2.3v-2.4h2.3v4.4H323l.5 7.3h1.5v6.3h-4v-2.4c0-2.6-3.5-2.6-3.5 0v2.4zm5 33.1h1.8v-1.3c0-1.3-1.8-1.3-1.8 0zm-5 8.7v-6.3h1.3l.5-7.3h-1.9v-4.4h2.3v2.4h2.3v-2.4h2.9v2.4h2.3v-2.4h2.3v4.4H323l.5 7.3h1.5v6.3h-4v-2.4c0-2.6-3.5-2.6-3.5 0v2.4zm71.6-8.7h1.8v-1.3c0-1.3-1.8-1.3-1.8 0zm-5 8.7v-6.3h1.3l.5-7.3h-1.9v-4.4h2.3v2.4h2.3v-2.4h2.9v2.4h2.3v-2.4h2.3v4.4h-1.9l.5 7.3h1.5v6.3h-4.2v-2.4c0-2.6-3.5-2.6-3.5 0v2.4z"
     id="path66" />
  <path
     fill="#FFF"
     d="M330.3 276.9h43.5v57.6h-43.5z"
     id="path67" />
  <path
     fill="#00428C"
     d="M363.9 305.2c0-.8.6-1.5 1.5-1.5s1.5.6 1.5 1.5-.6 1.5-1.5 1.5c-.9-.1-1.5-.7-1.5-1.5m2.4-3.3c0-.8.6-1.5 1.5-1.5s1.5.6 1.5 1.5-.6 1.5-1.5 1.5-1.5-.7-1.5-1.5m0 6.6c0-.8.6-1.5 1.5-1.5s1.5.6 1.5 1.5c0 .8-.6 1.5-1.5 1.5-.9-.2-1.5-.8-1.5-1.5m-5-6.6c0-.8.6-1.5 1.5-1.5.8 0 1.5.6 1.5 1.5s-.6 1.5-1.5 1.5-1.5-.7-1.5-1.5m0 6.6c0-.8.6-1.5 1.5-1.5.8 0 1.5.6 1.5 1.5 0 .8-.6 1.5-1.5 1.5-.9-.2-1.5-.8-1.5-1.5m-1.1-10h10.2v11.1c0 1.1-1 2.1-2.1 2.1-.8 0-1.6.2-2.1.2-.6 0-.8.3-.8.8 0-.5-.2-.8-.8-.8-.5 0-1.3-.2-2.1-.2-1.1 0-2.1-1-2.1-2.1v-11.1zm-22.6 6.7c0-.8.6-1.5 1.5-1.5s1.5.6 1.5 1.5-.6 1.5-1.5 1.5c-1-.1-1.5-.7-1.5-1.5m2.4-3.3c0-.8.6-1.5 1.5-1.5.8 0 1.5.6 1.5 1.5s-.6 1.5-1.5 1.5-1.5-.7-1.5-1.5m0 6.6c0-.8.6-1.5 1.5-1.5.8 0 1.5.6 1.5 1.5 0 .8-.6 1.5-1.5 1.5-.9-.2-1.5-.8-1.5-1.5m-5-6.6c0-.8.6-1.5 1.5-1.5s1.5.6 1.5 1.5-.6 1.5-1.5 1.5-1.5-.7-1.5-1.5m0 6.6c0-.8.6-1.5 1.5-1.5s1.5.6 1.5 1.5c0 .8-.6 1.5-1.5 1.5-.9-.2-1.5-.8-1.5-1.5m-1.1-10H344v11.1c0 1.1-1 2.1-2.1 2.1-.8 0-1.6.2-2.1.2-.6 0-.8.3-.8.8 0-.5-.2-.8-.8-.8-.5 0-1.3-.2-2.1-.2-1.1 0-2.1-1-2.1-2.1zm16.7 6.7c0-.8.6-1.5 1.5-1.5.8 0 1.5.6 1.5 1.5s-.6 1.5-1.5 1.5c-.8-.1-1.5-.7-1.5-1.5m2.5-3.3c0-.8.6-1.5 1.5-1.5s1.5.6 1.5 1.5-.6 1.5-1.5 1.5-1.5-.7-1.5-1.5m0 6.6c0-.8.6-1.5 1.5-1.5s1.5.6 1.5 1.5c0 .8-.6 1.5-1.5 1.5-.9-.2-1.5-.8-1.5-1.5m-4.9-6.6c0-.8.6-1.5 1.5-1.5s1.5.6 1.5 1.5-.6 1.5-1.5 1.5-1.5-.7-1.5-1.5m0 6.6c0-.8.6-1.5 1.5-1.5s1.5.6 1.5 1.5c0 .8-.6 1.5-1.5 1.5-.8-.2-1.5-.8-1.5-1.5m-1.1-10h10.2v11.1c0 1.1-1 2.1-2.1 2.1-.8 0-1.6.2-2.1.2-.6 0-.8.3-.8.8 0-.5-.2-.8-.8-.8-.5 0-1.3-.2-2.1-.2-1.1 0-2.1-1-2.1-2.1zm3.5 24.6c0-.8.6-1.5 1.5-1.5.8 0 1.5.6 1.5 1.5s-.6 1.5-1.5 1.5c-.8-.1-1.5-.7-1.5-1.5m2.5-3.4c0-.8.6-1.5 1.5-1.5s1.5.6 1.5 1.5c0 .8-.6 1.5-1.5 1.5s-1.5-.7-1.5-1.5m0 6.6c0-.8.6-1.5 1.5-1.5s1.5.6 1.5 1.5-.6 1.5-1.5 1.5-1.5-.7-1.5-1.5m-4.9-6.6c0-.8.6-1.5 1.5-1.5s1.5.6 1.5 1.5c0 .8-.6 1.5-1.5 1.5s-1.5-.7-1.5-1.5m0 6.6c0-.8.6-1.5 1.5-1.5s1.5.6 1.5 1.5-.6 1.5-1.5 1.5-1.5-.7-1.5-1.5m-1.1-9.8h10.2v11.1c0 1.1-1 2.1-2.1 2.1-.8 0-1.6.2-2.1.2-.6 0-.8.3-.8.8 0-.5-.2-.8-.8-.8-.5 0-1.3-.2-2.1-.2-1.1 0-2.1-1-2.1-2.1zm3.5-29.2c0-.8.6-1.5 1.5-1.5.8 0 1.5.6 1.5 1.5s-.6 1.5-1.5 1.5c-.8-.1-1.5-.7-1.5-1.5m2.5-3.3c0-.8.6-1.5 1.5-1.5s1.5.6 1.5 1.5-.6 1.5-1.5 1.5-1.5-.7-1.5-1.5m0 6.6c0-.8.6-1.5 1.5-1.5s1.5.6 1.5 1.5c0 .8-.6 1.5-1.5 1.5s-1.5-.6-1.5-1.5m-4.9-6.6c0-.8.6-1.5 1.5-1.5s1.5.6 1.5 1.5-.6 1.5-1.5 1.5c-.8 0-1.5-.7-1.5-1.5m0 6.6c0-.8.6-1.5 1.5-1.5s1.5.6 1.5 1.5c0 .8-.6 1.5-1.5 1.5s-1.5-.6-1.5-1.5m-1.1-10h10.2v11.1c0 1.1-1 2.1-2.1 2.1-.8 0-1.6.2-2.1.2-.6 0-.8.3-.8.8 0-.5-.2-.8-.8-.8-.5 0-1.3-.2-2.1-.2-1.1 0-2.1-1-2.1-2.1z"
     id="path68" />
  <path
     fill="#E2001A"
     d="M457.9 296c-.5-.5-.6-1.9-.6-1.9s-.6 1.5-.2 2.9c.6 1.1-.6-.2.8-1m-9.4-25.2h.7v.5h.5v.5h-.5v.9h-.7v-.9h-.4v-.5h.4zm7.8 26.9c.2 0 .2-.2-.3-.2-.3 0-.8.2-1.1.3-1 .6-1 .6-1.1 1-.3-.3-.5-.5-.5-.6 0-.5-.5-1.6-.6-2.1-.2-.5 0-2.3 0-2.3s-.5.5-.8 1.6c-.2 1.1.5 2.1.5 2.1s-.8-.2-.8.3.8.2 1.1.5 1 1 1.1.8c.3 0 .5-.6 1.1-1 .4.1 1.1-.2 1.4-.4"
     id="path69" />
  <linearGradient
     id="k"
     x1="276.874"
     x2="276.874"
     y1="909.331"
     y2="864.597"
     gradientTransform="translate(.771 -1122.203)scale(1.6129)"
     gradientUnits="userSpaceOnUse">
    <stop
       offset=".108"
       stop-color="#00428c"
       id="stop69" />
    <stop
       offset=".21"
       stop-color="#00428b"
       id="stop70" />
    <stop
       offset=".278"
       stop-color="#044287"
       id="stop71" />
    <stop
       offset=".336"
       stop-color="#2d4181"
       id="stop72" />
    <stop
       offset=".388"
       stop-color="#484077"
       id="stop73" />
    <stop
       offset=".437"
       stop-color="#623e6b"
       id="stop74" />
    <stop
       offset=".483"
       stop-color="#7d3a5c"
       id="stop75" />
    <stop
       offset=".527"
       stop-color="#9a334a"
       id="stop76" />
    <stop
       offset=".57"
       stop-color="#b72635"
       id="stop77" />
    <stop
       offset=".609"
       stop-color="#d3031d"
       id="stop78" />
    <stop
       offset=".613"
       stop-color="#d60019"
       id="stop79" />
  </linearGradient>
  <path
     fill="url(#k)"
     d="M438.4 312.6c-2.7-2.6-2.6-7.6-2.7-8.2-.2-1 1.8-7.6 2.3-7.7.6-.2.6-2.4.6-2.4s0-4.5 1.6-6.8 1.5-1.1 1.6-1.8c.2-.5 1.5-.8 1.6-1 .2-.2 1.1-1 .8-3.1s1.6-3.7 1.8-3.7c-.2 0 0 0 0 0-.2-.3-1.9-1.5-2.1-1.5-.3-.2-.6-1.5.2-1.9 1-.6 1.6-.2 1.6-.3.2-.2-.2-1 1-1.3 1.3-.5 1.8.5 2.1.5.2 0 .5-1.1 1.8-.6 1.1.5 1 1.3 1 1.3s.8-.5 1.6.3c1.1 1.1.5 2.3-.2 2.4-.6.2-1.3 1.1-1.3 1.1v.2c2.7 1.9.6 6.3.8 9 .2-.5.3-1 2.1-1 1.9 0 2.3 1.9 2.3 2.7 0 1.6-.6 2.9-.6 2.9 1.9 1 3.1 2.4 2.9 4.2-.2 1.5-.5 1.5-.5 1.6s.2.5.3 1.3c0 .6 0 1.8-.2 2.1 0 .2-.5 2.4-.8 2.6s-1 1.9-1.5 2.1c-.3.2-.6 1.5-.6 1.5s-.3 1.9-.3 2.3c.2.3.2 3.5 0 3.9-.2.2-.2 1.8-.2 2.1 0 .2.5 1.6.3 1.8 0 .2.2 1.9 0 2.3-.2 1.1-1 2.1-1.5 2.4l-.5.5c-.2.2-1 1.1-1.1 1.3-.3 0 0 3.4 0 3.4s.3 2.3.2 2.9c-.2.6-.2 2.4-.5 2.7s-.5 1.6-.5 1.8.5 2.1.5 2.1c.2 0 .5 1.9.5 2.1.2 0 .6 1.8.6 2.3s.6 3.2.3 3.5-1.6.3-1.6.3l-5 .2s-2.9.2-3.1 0-3.2.2-3.5 0-4.5 0-4.7-.3.2-3.1.2-3.4c.2-.5.6-3.5.8-4.2.6-1.6.6-2.3 1.1-3.7.8-1.9 1.1-3.1 1.3-3.4s.8-3.4.5-3.5-1.9-.6-2.9-3.1c-1-2.4 0-6.1 0-6.5.8-.9 2.2-3.8 1.6-4.3"
     id="path79" />
  <path
     fill="#FFF"
     d="M487.9 267.1c-3.1-1.1-5-2.6-8.5-2.6 0 0 5.5 2.6 5.6 7.3-4.2-5.3-11-6.6-17.7-6.6-7.3 0-15.2 1.8-20.8 2.1-6.6 0-13.1-1.9-19.5-2.1-7.1 0-14.8 1.1-19 6.5 0-4.5 5.6-7.1 5.6-7.3-3.5 0-5.6 1.5-8.5 2.6 6.3-6.1 13.9-7.3 21.9-7.3 6.3 0 12.7 2.1 19.5 2.1 6.5 0 14.4-1.9 20.8-2.1 6.9 0 14.2 1.3 20.6 7.4"
     id="path80" />
  <path
     fill="#00428C"
     d="M416.9 281.1c-.5-.6-1.3-2.1-1.8-4-1-4.2 1.6-4.8 4.4-4.4 1.1.3 1.6.8 1.8 1.1.2.2.2.3.2.5s.2.2.3.3c1.8.6 2.4 1.3 2.9 1.9l.3.3.3.3c.2.2.5.2.8.2.2-.3.5-.5.8-.8.3-.2.6-.5 1-.6.5-.3 1-.6 1-1.1-.2-.5-.3-1.5-.2-1.9L416.6 260l-.3-.6c0-.2 0-.3.2-.2l.6.2 12.1 12.4.2.2c.2-.2.3-.2.5-.2s.2 0 .3.2l.3.2c.2.2.3.2.5.3l.2.2s.2.2 0 .3c.2.2.3.2.3.5.2.2.2.3.2.3.2.2.2.2.2.3v.2c.8 1 .5 1.5-.5.8-.2.2-.5.3-.6.3-.8 2.1-2.4 5-4.5 5.2h-.3c-.2 0-.2 0-.3-.2-.3-.2-.5-.3-.8-.5s-.5-.3-.6-.3v.3c0 .1-.2.3-.2.5-.2.3-.2.6-.2 1.1.6.8.8 1.5.8 2.3 0 .3.2.8.2 1.3s.2 1 .3 1.6c0 .2 0 .2-.2.2h-9v-2.3c0-.3.2-.6.3-1 .2-.3.3-.6.3-1 0-.5.3-1.1.3-1.5m46-7.7c0-.3.2-.5.2-.5 0-.2 0-.3.2-.3l.2-.2c.2-.2.3-.2.5-.3.2 0 .3-.2.5-.2l-.5-.5c-.6 0-.8-.3-.8-.8 0-.3.3-.8.6-.8.5 0 .8.3.8.8l.8 1 11.8-12.3.6-.3c.2 0 .3 0 .2.2l-.2.6-11.8 12.3.6.6c.6 0 1 .3 1 .8 0 .3-.3.8-.8.8s-.6-.3-.6-.8l-.3-.5c0 .5 0 1.1-.3 1.6 0 .5.3.8 1 1.1.3.2.6.3 1 .6.3.2.6.5.8.8.5 0 .6 0 .8-.2.2 0 .2-.2.3-.3l.3-.3c.5-.5 1.1-1.3 2.9-1.9.2 0 .2-.2.3-.3 0-.2.2-.3.2-.5.2-.5.6-1 1.8-1.1 2.7-.5 5.3.2 4.4 4.4-.5 1.9-1.3 3.4-1.6 3.9-.2.6.2 1.1.3 1.8.2.3.3.6.3 1 .2.3.2.6.2 1l.3 3.2-9.2-1c-.2 0-.2-.2-.2-.2.2-.6.3-1.1.3-1.6s.2-.8.2-1.3c.2-.8.3-1.5.8-2.3 0-.5 0-.8-.2-1.1 0-.2-.2-.3-.2-.5v-.3c-.2.2-.5.3-.6.5-.3.2-.5.3-.8.5-.2 0-.3.2-.3.2h-.3c-2.1-.2-3.5-3.1-4.4-5.2-.2 0-.5-.2-.6-.3-1 .6-1.3.2-.5-.8v-.2c0-.2 0-.3.2-.3v-.3z"
     id="path81" />
  <path
     fill="#FFF"
     d="M451.8 301.5c.3.5.3 1.1.2 1.5 0 .2-.2.3-.3.3l1.1 2.4c.2.3-.5.6-.6.3 0 0-.3-.8-1.1-2.6-.2 0-.3 0-.5-.2-.8-.2-.5-.6-1.8-.3s-3.4.8-7.6-.3c.2-1.8 2.7-2.9 2.7-2.9s2.9 1.5 3.4 1.5c.5-.2 1.9.2 2.1-.2.2-.3 0-.5.2-.6l-.2.3c-.6.2-.5-.8-.3-1.6-1.1-2.4-2.4-5.2-4.2-8.5-.6 0-1.1-.5-1.1-1.1s.5-1.1 1.1-1.1 1.1.5 1.1 1.1c0 .3-.2.6-.3.8l3.9 8.2c.5-.5 1.5-.6 1.9-.6 0-.5-.5-.3-.6-1.1-.3-.8-.2-1.1 0-2.4s1.6-1.8 2.3-1.8c.6 0 1.5.6 1.9-.5-1.3-.2-1.9-1-2.1-2.3 0-1.3.6-2.3 2.1-2.3s1.8 1.3 1.8 1.9 0 1.9-.8 2.6c.5.2 1.1.5 1.1.5l1.3 1s.8 1.5.8 1.8.2 1-.2 1.3l-.8 1.5c-.2.2-1.1.3-1.1.3s-1.6.6-1.8 1.5c-.3 1-2.1 1-2.1 1s-1.8.1-1.5.6"
     id="path82" />
  <path
     fill="#FFF"
     d="M445.6 284.5c.6 1.9 1.1 2.3 2.9 2.9-1.3.8-2.1.6-2.9.6.2 1 1 1.6 2.1 1.6s2.1-.8 1.9-1.9c1-.6 2.6-3.2 2.9-4.8.6-3.2-2.9-4.4-5.2-1.6-1.2 1.4-1.2 1.8-1.7 3.2m.9-7.7c2.4-1.5 5.3 0 5.3 0s.5-.3.8-.5 1.1-.8.2-1.5c-.6-.5-1.1-.3-1.6 0 0-1 0-1.3-.6-1.5-.5-.2-.8 0-1.5.8-.8-.6-1.1-.8-1.8-.5-.5.2-.6 1.3-.6 1.3s-1.3-.5-1.8.2c-.6.8.5 1 .5 1s1-.8 2.9-1c-.9.2-1.4.7-1.8 1.7"
     id="path83" />
  <path
     fill="#00428C"
     d="m479.2 290.5 1.1 12.6c.5.2 1.1.5 1.6 1.1v3.9l-1.1 1.1 2.6 29.7c0 .3-.2.6-.6.6h-18.2c-.3 0-.6-.3-.6-.6l2.6-29.5-1.5-1.3v-3.7c.6-.8 1.3-1.1 1.9-1.3l1.1-12.4-1-.8v-2.8c.8-.8 1.5-1.1 2.3-1.1.2 0 .2 0 .2.2v.9c.3 0 .6-.2 1-.2v-1.1c0-.2.2-.2.2-.2.6-.2 1.5-.2 2.1-.2.2 0 .2.2.2.2v1.1h1v-1.1c0-.2.2-.2.2-.2.6 0 1.5 0 2.1.2.2 0 .2.2.2.2v1.1l1 .2V286c0-.2.2-.2.3-.2.6.2 1.5.3 2.1 1v3z"
     id="path84" />
  <path
     fill="#E9B245"
     d="m477.6 291 1.1 13.4c-.5 0-.8-.2-1.3-.2v-1.6c0-.2-.2-.2-.2-.2l-2.7-.2c-.2 0-.2.2-.2.2v1.6h-1.5v-1.6c0-.2-.2-.2-.2-.2l-1.5.2.2-11.8c.6-.2 1.5-.2 2.3-.2 1.3 0 2.4.2 3.2.3.5.1.6.3.8.3m-7.1 37.4.8-20.5c.8-.2 1.6-.2 2.4-.2 2.3 0 4.4.3 5.5.8l2.6 29h-4v-7.4c0-2.1-1.6-3.7-3.7-3.7h-.3c-1.5.2-2.7 1-3.3 2"
     id="path85" />
  <path
     fill="#00428C"
     d="M473.9 314.2c.8 0 1.6.6 1.6 1.6 0 .8-.6 1.6-1.6 1.6-.8 0-1.6-.6-1.6-1.6s.6-1.6 1.6-1.6m0-20.2c.8 0 1.6.6 1.6 1.6 0 .8-.6 1.6-1.6 1.6-.8 0-1.6-.6-1.6-1.6 0-.8.6-1.6 1.6-1.6M425.3 290.5l1.1 12.6c.5.2 1.1.5 1.6 1.1v3.9l-1.1 1.1 2.6 29.7c0 .3-.2.6-.6.6h-18.2c-.3 0-.6-.3-.6-.6l2.6-29.5-1.5-1.3v-3.7c.6-.8 1.3-1.1 1.9-1.3l1.1-12.4-1-.8v-2.8c.8-.8 1.5-1.1 2.3-1.1.2 0 .3 0 .3.2v.9c.3 0 .6-.2 1-.2v-1.1c0-.2.2-.2.2-.2.6-.2 1.5-.2 2.1-.2.2 0 .2.2.2.2v1.1h1v-1.1c0-.2.2-.2.2-.2.8 0 1.5 0 2.1.2.2 0 .2.2.2.2v1.1l1 .2V286c0-.2.2-.2.3-.2.6.2 1.5.3 2.1 1v3z"
     id="path86" />
  <path
     fill="#E9B245"
     d="m423.7 291 1.1 13.4c-.5 0-.8-.2-1.3-.2v-1.6c0-.2-.2-.2-.2-.2l-2.7-.2c-.2 0-.2.2-.2.2v1.6H419v-1.6c0-.2-.2-.2-.2-.2l-1.5.2v-11.8c.6-.2 1.5-.2 2.3-.2 1.3 0 2.4.2 3.2.3.6.1.7.3.9.3m-7.1 37.4.8-20.5c.8-.2 1.6-.2 2.4-.2 2.3 0 4.4.3 5.5.8l2.6 29h-4v-7.4c0-2.1-1.6-3.7-3.7-3.7h-.3c-1.5.2-2.6 1-3.3 2"
     id="path87" />
  <circle
     cx="419.8"
     cy="315.6"
     r="1.6"
     fill="#00428C"
     id="circle87" />
  <circle
     cx="419.8"
     cy="295.6"
     r="1.6"
     fill="#00428C"
     id="circle88" />
  <path
     fill="#E2001A"
     d="M362.3 407.3c-.5-.5-.6-1.9-.6-1.9s-.6 1.5-.2 2.9c.6 1.2-.7-.2.8-1m-9.4-25h.5v.3h.5v.5h-.5v.9h-.5v-.9h-.5v-.5h.5zm7.6 26.7c.3 0 .2-.2-.3-.2-.3 0-.8.2-1.1.3-1 .6-1 .6-1.1 1-.3-.3-.5-.5-.5-.6 0-.5-.5-1.6-.6-2.1-.2-.5 0-2.3 0-2.3s-.5.5-.8 1.6c-.2 1.1.5 2.1.5 2.1s-.8-.2-.8.3.8.2 1.1.5 1 1 1.1.8c.2 0 .5-.6 1.1-1 .6.1 1.1-.2 1.4-.4"
     id="path88" />
  <linearGradient
     id="l"
     x1="217.624"
     x2="217.624"
     y1="978.368"
     y2="933.648"
     gradientTransform="translate(.771 -1122.203)scale(1.6129)"
     gradientUnits="userSpaceOnUse">
    <stop
       offset=".108"
       stop-color="#00428c"
       id="stop88" />
    <stop
       offset=".21"
       stop-color="#00428b"
       id="stop89" />
    <stop
       offset=".278"
       stop-color="#044287"
       id="stop90" />
    <stop
       offset=".336"
       stop-color="#2d4181"
       id="stop91" />
    <stop
       offset=".388"
       stop-color="#484077"
       id="stop92" />
    <stop
       offset=".437"
       stop-color="#623e6b"
       id="stop93" />
    <stop
       offset=".483"
       stop-color="#7d3a5c"
       id="stop94" />
    <stop
       offset=".527"
       stop-color="#9a334a"
       id="stop95" />
    <stop
       offset=".57"
       stop-color="#b72635"
       id="stop96" />
    <stop
       offset=".609"
       stop-color="#d3031d"
       id="stop97" />
    <stop
       offset=".613"
       stop-color="#d60019"
       id="stop98" />
  </linearGradient>
  <path
     fill="url(#l)"
     d="M342.7 423.9c-2.7-2.6-2.6-7.6-2.7-8.2-.2-1 1.8-7.6 2.3-7.7.6-.2.6-2.4.6-2.4s0-4.5 1.6-6.8c1.6-2.4 1.5-1.1 1.6-1.8.2-.5 1.5-.8 1.6-1 .2-.2 1.1-1 .8-3.1s1.6-3.7 1.8-3.7c-.2 0 0 0 0 0-.2-.3-1.9-1.5-2.1-1.5-.3-.2-.6-1.5.2-1.9 1-.6 1.6-.2 1.6-.3.2-.2-.2-1 1-1.3 1.3-.5 1.8.6 2.1.5.2 0 .5-1.1 1.8-.6 1.1.5 1 1.3 1 1.3s.8-.5 1.6.3c1.1 1.1.5 2.3-.2 2.4-.3.2-1.1 1.1-1.1 1.1v.2c2.7 1.9.6 6.3.8 9 .2-.5.3-1 2.1-1 1.9 0 2.3 1.9 2.3 2.7 0 1.6-.6 2.9-.6 2.9 1.9 1 3.1 2.4 2.9 4.2-.2 1.5-.5 1.5-.5 1.6s.2.5.3 1.3c0 .6 0 1.9-.2 2.1 0 .2-.5 2.4-.8 2.6s-1.1 1.9-1.5 2.1c-.3.2-.6 1.5-.6 1.5s-.3 1.9-.3 2.3c.2.3.2 3.5 0 3.9-.2.2-.2 1.8-.2 2.1 0 .2.5 1.6.3 1.8 0 .2.2 1.9 0 2.3-.2 1.1-1 2.1-1.5 2.4l-.5.5c-.2.2-1 1.1-1.1 1.1-.3 0 0 3.4 0 3.4s.3 2.3.2 2.9c-.2.6-.2 2.4-.5 2.7s-.5 1.6-.5 1.8.5 2.1.5 2.1c.2 0 .5 1.9.5 2.1.2 0 .6 1.8.6 2.3s.6 3.2.3 3.5-1.6.3-1.6.3l-5 .2s-2.9.2-3.1 0-3.2.2-3.5 0-4.5 0-4.7-.3.2-3.1.2-3.4c.2-.5.6-3.5.8-4.2.6-1.6.6-2.3 1.1-3.7.8-1.9 1.1-3.1 1.3-3.4s.8-3.4.5-3.5c-.3-.3-1.9-.6-2.9-3.1-1-2.4 0-6.1 0-6.5.6-.7 1.9-3.6 1.4-4.1"
     id="path98" />
  <path
     fill="#FFF"
     d="M392.3 378.4c-3.1-1.1-5-2.6-8.5-2.6 0 0 5.5 2.6 5.6 7.3-4.2-5.3-11-6.6-17.7-6.6-7.3 0-15.2 1.8-20.8 2.1-6.6 0-13.1-1.9-19.5-1.9-7.1 0-14.8 1.1-19 6.5 0-4.5 5.6-7.1 5.6-7.3-3.5 0-5.6 1.5-8.5 2.6 6.3-6.1 13.9-7.3 21.9-7.3 6.3 0 12.7 2.1 19.5 2.1 6.5 0 14.4-2.1 20.8-2.1 6.8-.2 14.1 1.1 20.6 7.2"
     id="path99" />
  <path
     fill="#00428C"
     d="M321.3 392.4c-.5-.6-1.3-2.1-1.8-4-1-4.2 1.6-4.8 4.4-4.4 1.1.3 1.6.8 1.8 1.1.2.2.2.3.2.5s.2.2.3.3c1.8.6 2.4 1.3 2.9 1.9l.3.3.3.3c.2.2.5.2.8.2.2-.3.5-.6.8-.8s.6-.5 1-.6c.5-.3 1-.6 1-1.1-.2-.5-.3-1.5-.2-1.9L321 371.3l-.3-.6c0-.2 0-.3.2-.2l.6.2 12.1 12.4.2.2c.2-.2.3-.2.5-.2s.2 0 .3.2l.3.2c.2.2.3.2.5.3l.2.2s.2.2 0 .3c.2.2.3.2.3.5.2.2.2.3.2.3.2.2.2.2.2.3v.2c.8 1 .5 1.5-.5.8-.2.2-.5.3-.6.3-.8 2.1-2.4 5-4.5 5.2h-.3c-.2 0-.2 0-.3-.2-.3-.2-.5-.3-.8-.5s-.5-.3-.6-.3v.3c0 .1-.2.3-.2.5-.2.3-.2.6-.2 1.1.6.8.8 1.5.8 2.3 0 .3.2.8.2 1.3s.2 1 .3 1.6c0 .2 0 .2-.2.2h-8.9V396c0-.3.2-.6.3-1 .2-.3.3-.6.3-1-.1-.5 0-1.1.2-1.6m45.8-7.7c0-.3.2-.5.3-.5 0-.2 0-.3.2-.3l.2-.2c.2-.2.3-.2.5-.3.2-.2.3-.2.5-.2l-.6-.5c-.6 0-.8-.3-.8-.8 0-.3.3-.8.6-.8.5 0 .8.3.8.8l.8 1 11.8-12.3.6-.3c.2 0 .3 0 .2.2l-.2.6-11.8 12.3.6.6c.6 0 1 .3 1 .8 0 .3-.3.8-.8.8s-.6-.3-.6-.8l-.3-.5c0 .5 0 1.1-.2 1.6 0 .5.3.8 1 1.1.3.2.6.3 1 .6.3.2.6.5.8.8.5 0 .6 0 .8-.2.2 0 .2-.2.3-.3l.3-.3c.5-.5 1.1-1.3 2.9-1.9.2 0 .2-.2.3-.3 0-.2.2-.3.2-.5.2-.5.6-1 1.8-1.1 2.7-.5 5.3.2 4.4 4.4-.5 1.9-1.3 3.4-1.6 3.9-.2.6.2 1.1.3 1.8.2.3.3.6.3 1 .2.3.2.6.3 1l.3 3.2-9.2-1c-.2 0-.2-.2-.2-.2.2-.6.3-1.1.3-1.6s.2-.8.2-1.3c.2-.8.3-1.5.8-2.3 0-.5 0-.8-.2-1.1 0-.2-.2-.3-.2-.5v-.3c-.2.2-.5.3-.6.5-.3.2-.5.3-.8.5-.2 0-.3.2-.3.2h-.3c-2.1-.2-3.5-3.1-4.4-5.2-.2 0-.5-.2-.6-.3-1 .6-1.3.2-.5-.8v-.2c0-.2 0-.3.2-.3-.6-.2-.6-.2-.4-.5"
     id="path100" />
  <path
     fill="#FFF"
     d="M356.1 412.7c.3.5.3 1.1.2 1.5 0 .2-.2.3-.3.3l1.1 2.4c.2.3-.5.6-.6.3 0 0-.3-.8-1.1-2.6-.2 0-.3 0-.5-.2-.8-.2-.5-.6-1.8-.3s-3.4.8-7.6-.3c.2-1.8 2.7-2.9 2.7-2.9s2.9 1.5 3.4 1.5c.5-.2 1.9.2 2.1-.2.2-.3 0-.5.2-.6l-.2.3c-.6.2-.5-.8-.3-1.6-1.1-2.4-2.6-5.2-4.2-8.5-.6 0-1.1-.5-1.1-1.1s.5-1.1 1.1-1.1 1.1.5 1.1 1.1c0 .3-.2.6-.3.8l3.9 8.2c.5-.5 1.5-.6 1.9-.6 0-.5-.5-.3-.6-1.1-.3-.8-.2-1.1 0-2.6.2-1.3 1.6-1.8 2.3-1.8.6 0 1.5.6 1.9-.5-1.3-.2-1.9-1-2.1-2.3 0-1.3.6-2.3 2.1-2.3s1.8 1.3 1.8 1.9 0 1.9-.8 2.6c.5.2 1.1.5 1.1.5l1.3 1s.8 1.5.8 1.8.2 1-.2 1.3l-.8 1.5c-.2.2-1.1.3-1.1.3s-1.6.6-1.8 1.5c-.3 1-2.1 1-2.1 1s-1.8.4-1.5.8"
     id="path101" />
  <path
     fill="#FFF"
     d="M350 395.8c.6 1.9 1.1 2.3 2.9 2.9-1.3.8-2.1.6-2.9.6.2 1 1 1.6 2.1 1.6s2.1-.8 1.9-1.9c1-.6 2.6-3.2 2.9-4.8.6-3.2-2.9-4.4-5.2-1.6-1.4 1.4-1.4 1.8-1.7 3.2m.6-7.7c2.4-1.5 5.3 0 5.3 0s.5-.3.8-.5 1-.8.2-1.5c-.6-.5-1.1-.3-1.6 0 0-1 0-1.3-.6-1.5-.5-.2-.8 0-1.5.8-.8-.6-1.1-.8-1.8-.5-.5.2-.6 1.3-.6 1.3s-1.3-.5-1.8.2c-.6.8.5 1 .5 1s1-.8 2.9-1c-.6.2-1.1.7-1.8 1.7"
     id="path102" />
  <path
     fill="#00428C"
     d="m383.5 401.8 1.1 12.6c.5.2 1.1.5 1.6 1.1v4l-1.1 1.1 2.6 29.7c0 .3-.2.6-.6.6H369c-.3 0-.6-.3-.6-.6l2.6-29.5-1.5-1.3v-3.7c.6-.8 1.3-1.1 1.9-1.3l1.1-12.4-1-.8v-3.1c.8-.8 1.5-1.1 2.3-1.1.2 0 .3 0 .3.2v.9c.3 0 .6-.2 1-.2v-.9c0-.2.2-.2.2-.2.8-.2 1.5-.2 2.1-.2.2 0 .2.2.2.2v1.1h1v-1.1c0-.2.2-.2.2-.2.6 0 1.5 0 2.1.2l.2.2v1.1l1 .2v-1.1c0-.2.2-.2.3-.2.6.2 1.5.3 2.1 1v3z"
     id="path103" />
  <path
     fill="#E9B245"
     d="m381.9 402.4 1.1 13.4c-.5 0-.8-.2-1.3-.2V414c0-.2-.2-.2-.2-.2l-2.7-.2c-.2 0-.2.2-.2.2v1.6h-1.5v-1.6c0-.2-.2-.2-.2-.2l-1.5.2V402c.6-.2 1.5-.2 2.3-.2 1.3 0 2.4.2 3.2.3.7.2.9.2 1 .3m-7.2 37.4.8-20.5c.8-.2 1.6-.2 2.4-.2 2.3 0 4.4.3 5.5.8l2.6 29h-4v-7.4c0-2.1-1.6-3.7-3.7-3.7h-.3c-1.4.1-2.7.9-3.3 2"
     id="path104" />
  <circle
     cx="378.1"
     cy="427.1"
     r="1.6"
     fill="#00428C"
     id="circle104" />
  <circle
     cx="378.1"
     cy="406.9"
     r="1.6"
     fill="#00428C"
     id="circle105" />
  <path
     fill="#00428C"
     d="m329.7 401.8 1.1 12.6c.5.2 1.1.5 1.6 1.1v4l-1.1 1.1 2.6 29.7c0 .3-.2.6-.6.6H315c-.3 0-.6-.3-.6-.6l2.6-29.5-1.5-1.3v-3.7c.6-.8 1.3-1.1 1.9-1.3l1.1-12.4-1-.8v-3.1c.8-.8 1.5-1.1 2.3-1.1.2 0 .3 0 .3.2v.9c.3 0 .6-.2 1-.2v-.9c0-.2.2-.2.2-.2.6-.2 1.5-.2 2.1-.2.2 0 .2.2.2.2v1.1h1v-1.1c0-.2.2-.2.2-.2.6 0 1.5 0 2.1.2l.2.2v1.1l1 .2v-1.1c0-.2.2-.2.3-.2.6.2 1.5.3 2.1 1v3z"
     id="path105" />
  <path
     fill="#E9B245"
     d="m328.1 402.4 1.1 13.4c-.5 0-.8-.2-1.3-.2V414c0-.2-.2-.2-.2-.2l-2.7-.2c-.2 0-.2.2-.2.2v1.6h-1.5v-1.6c0-.2-.2-.2-.2-.2l-1.5.2V402c.6-.2 1.5-.2 2.3-.2 1.3 0 2.4.2 3.2.3.5.2.8.2 1 .3m-7.3 37.4.8-20.5c.8-.2 1.6-.2 2.4-.2 2.3 0 4.4.3 5.5.8l2.6 29h-4v-7.4c0-2.1-1.6-3.7-3.7-3.7h-.4c-1.3.1-2.5.9-3.2 2"
     id="path106" />
  <circle
     cx="324.2"
     cy="427.1"
     r="1.6"
     fill="#00428C"
     id="circle106" />
  <circle
     cx="324.2"
     cy="406.9"
     r="1.6"
     fill="#00428C"
     id="circle107" />
  <path
     fill="#E9B245"
     d="M384.5 343.5H415v31.1c0 1.8-1.8 3.5-3.5 3.5h-7.9c-2.3 0-3.7 1.8-3.7 2.4 0-.6-1.6-2.4-3.7-2.4h-7.9c-1.8 0-3.5-1.8-3.5-3.5z"
     id="path107" />
  <path
     fill="#D60019"
     d="M399.7 353.2c1.8-1.8 3.5-2.4 6.1-2.1 1.3.2 2.3.5 3.2 1.3 1.6 1.3 1.9 2.7 2.3 4.7.3 1.5 0 2.4-.2 3.9-.3 2.7-1.9 4.7-3.7 6.8-1 1.1-1.8 1.6-3.1 2.6-2.4 1.6-3.9 2.3-6.5 3.2-1.3-1.8-2.1-2.7-3.5-4.5-.8-1-1.3-1.5-2.1-2.4-1.1-1.5-1.8-2.3-2.4-3.9s-1.1-2.6-1.1-4.4c0-1.6 0-2.7.8-4.2s1.5-2.3 2.9-2.9c1.3-.6 2.3-.6 3.7-.3 1.5.6 2.4 1.1 3.6 2.2"
     id="path108" />
  <path
     fill="#B57017"
     d="M280.3 342.4c0 4.4-15.3 4.5-16.9 4.5-1.8 0-16.9 0-16.9-4.5v-14.8c0-1.3 1.3-2.3 3.2-2.9v-8.9l-3.2-2.6V305c0-3.1 7.3-3.7 9.4-4v4.7l1.3-.2v-4.7q6.3-.45 12.6 0v4.7l1.5.2v-4.8c1.9.3 9.2 1 9.2 4v8.2l-3.5 2.3v8.9c2.1.6 3.5 1.6 3.5 3.1z"
     id="path109" />
  <path
     fill="#E9B245"
     d="M254.8 326.3c3.4-.5 7.1-.5 8.4-.5 2.3 0 11.9.3 14.2 2.1v11.8c-1.1-.5-2.3-.6-2.9-.8-1.6-.3-3.4-.5-5.5-.6v-5.5c0-3.5-3.2-5-5.8-5s-5.8 1.5-5.8 5v5.5c-.8 0-1.8.2-2.6.3zm-.4-17.6 5.3-.6v-4.5c2.4-.2 4.7-.2 7.1 0v4.7l6.9.6v-4.5c1.1.2 2.7.5 3.7 1.1v5c-3.7-1.3-10.5-1.8-14.2-1.8-2.3 0-5.8.2-9 .6zm2.5 3.1c2.7-.3 5.5-.3 6.5-.3 2.6 0 6.3.2 9.5.6.3 0 .6.2 1.1.2v11.5c-4.4-.8-9.5-.8-10.6-.8-.8 0-3.5 0-6.5.3z"
     id="path110" />
  <path
     fill="#B57017"
     d="M263.7 313.2c1.6 0 2.7 1.3 2.7 2.7 0 1.6-1.3 2.7-2.7 2.7-1.6 0-2.7-1.3-2.7-2.7-.2-1.4 1.1-2.7 2.7-2.7M280.3 450.8c0 4.4-15.3 4.5-16.9 4.5-1.8 0-16.9 0-16.9-4.5V436c0-1.3 1.3-2.3 3.2-2.9v-8.9l-3.2-2.6v-8.2c0-3.1 7.3-3.9 9.4-4v4.7l1.3-.2v-4.7q6.3-.45 12.6 0v4.7l1.5.2v-4.8c1.9.3 9.2 1 9.2 4v8.2l-3.5 2.3v8.9c2.1.6 3.5 1.6 3.5 3.1z"
     id="path111" />
  <defs
     id="defs111">
    <path
       id="m"
       d="M280.3 450.8c0 4.4-15.3 4.5-16.9 4.5-1.8 0-16.9 0-16.9-4.5V436c0-1.3 1.3-2.3 3.2-2.9v-8.9l-3.2-2.6v-8.2c0-3.1 7.3-3.9 9.4-4v4.7l1.3-.2v-4.7q6.3-.45 12.6 0v4.7l1.5.2v-4.8c1.9.3 9.2 1 9.2 4v8.2l-3.5 2.3v8.9c2.1.6 3.5 1.6 3.5 3.1z" />
  </defs>
  <clipPath
     id="n">
    <use
       xlink:href="#m"
       overflow="visible"
       id="use111" />
  </clipPath>
  <g
     clip-path="url(#n)"
     id="g113">
    <path
       fill="#009634"
       d="M292.6 505.2s-.8 1.1-2.3 2.4c-.5 2.3-.8 3.5-.8 3.5-.3 1.1-2.1.6-1.8-.5 0 0 .2-.5.3-1.1-.8.5-1.6 1-2.6 1.5-6.3 6.8-15.5 2.9-15.3 2.9.8 0 2.6-1 2.7-1.3 1-1.3 2.6-2.9 2.3-2.7-6.6 4.2-10.8-.6-11-.8-3.4-2.7-6-2.4-5.8-2.7 1.3-1.1 6-2.7 5.8-2.7-5.3 1.5-8.7-1.8-8.9-1.8-2.4-2.3-4-1.5-3.7-1.6 5.2-5.8 13.5-1.9 13.5-1.9-.2 0-1.8-4.5-2.1-4.4-9.2 4.2-11.1-4.8-11.3-5-1.6-2.9-2.9-3.1-2.7-3.1 9-1.5 12.4 4.5 12.7 5.2-1.3-2.6-1.1-6.6-1.3-6.6-11.3-2.7-8.1-10.6-7.9-11.1.2-3.1-.8-4.7-.6-4.7 1.8-.3 5 2.3 5 1.9 0-5.6 5.2-7.7 5.2-7.9 1.3-.6 1.9-1.6 1.8-1.9-2.9-2.9.2-10 .2-9.8 1.1 1.9 2.7 3.4 2.9 3.5 2.7 2.3 2.7 4.8 2.9 4.8 7.9 1.1 9 7.6 9.2 9.2l.5.3c-.2-1.8 1-4.2 1.1-4.4 1.5-2.9 1.5-5 1.6-4.8.5 1 2.7 5.6 2.9 6.1 2.1 5.5 1.3 8.1.6 9.4l.5.8c.5-2.7 1.8-6.6 2.1-6.3 5.2 6 3.4 13.1 3.4 12.9 1-2.6 6.9-4.7 6.8-4.4-1 1.5-1.3 6.5-1.5 6.8-1.5 3.9-4.8 5.2-5.8 5.5.6 4.7.3 9.5-.3 14.2l.2-.3c.7-1.2 2.1-.3 1.5.9"
       id="path112" />
    <path
       fill="none"
       stroke="#009634"
       stroke-linecap="round"
       stroke-linejoin="round"
       stroke-miterlimit="3.864"
       stroke-width=".068"
       d="M292.6 505.2s-.8 1.1-2.3 2.4c-.5 2.3-.8 3.5-.8 3.5-.3 1.1-2.1.6-1.8-.5 0 0 .2-.5.3-1.1-.8.5-1.6 1-2.6 1.5-6.3 6.8-15.5 2.9-15.3 2.9.8 0 2.6-1 2.7-1.3 1-1.3 2.6-2.9 2.3-2.7-6.6 4.2-10.8-.6-11-.8-3.4-2.7-6-2.4-5.8-2.7 1.3-1.1 6-2.7 5.8-2.7-5.3 1.5-8.7-1.8-8.9-1.8-2.4-2.3-4-1.5-3.7-1.6 5.2-5.8 13.5-1.9 13.5-1.9-.2 0-1.8-4.5-2.1-4.4-9.2 4.2-11.1-4.8-11.3-5-1.6-2.9-2.9-3.1-2.7-3.1 9-1.5 12.4 4.5 12.7 5.2-1.3-2.6-1.1-6.6-1.3-6.6-11.3-2.7-8.1-10.6-7.9-11.1.2-3.1-.8-4.7-.6-4.7 1.8-.3 5 2.3 5 1.9 0-5.6 5.2-7.7 5.2-7.9 1.3-.6 1.9-1.6 1.8-1.9-2.9-2.9.2-10 .2-9.8 1.1 1.9 2.7 3.4 2.9 3.5 2.7 2.3 2.7 4.8 2.9 4.8 7.9 1.1 9 7.6 9.2 9.2l.5.3c-.2-1.8 1-4.2 1.1-4.4 1.5-2.9 1.5-5 1.6-4.8.5 1 2.7 5.6 2.9 6.1 2.1 5.5 1.3 8.1.6 9.4l.5.8c.5-2.7 1.8-6.6 2.1-6.3 5.2 6 3.4 13.1 3.4 12.9 1-2.6 6.9-4.7 6.8-4.4-1 1.5-1.3 6.5-1.5 6.8-1.5 3.9-4.8 5.2-5.8 5.5.6 4.7.3 9.5-.3 14.2l.2-.3c.7-1.2 2.1-.3 1.5.9"
       id="path113" />
  </g>
  <path
     fill="#E9B245"
     d="M254.8 434.8c3.4-.5 7.1-.5 8.4-.5 2.3 0 11.9.3 14.2 2.1v11.8c-1.1-.5-2.3-.6-2.9-.8-1.6-.3-3.4-.5-5.5-.6v-5.5c0-3.5-3.2-5-5.8-5s-5.8 1.5-5.8 5v5.5c-.8 0-1.8.2-2.6.3zM254.4 417.1l5.3-.6V412c2.4-.2 4.7-.2 7.1 0v4.7l6.9.6v-4.5c1.1.2 2.7.5 3.7 1.1v5c-3.7-1.3-10.5-1.8-14.2-1.8-2.3 0-5.8.2-9 .6zM256.9 420.3c2.7-.3 5.5-.3 6.5-.3 2.6 0 6.3.2 9.5.6.3 0 .6.2 1.1.2v11.5c-4.4-.8-9.5-.8-10.6-.8-.8 0-3.5 0-6.5.3z"
     id="path114" />
  <path
     fill="#B57017"
     d="M263.7 421.6c1.6 0 2.7 1.3 2.7 2.7 0 1.6-1.3 2.7-2.7 2.7-1.6 0-2.7-1.3-2.7-2.7-.2-1.4 1.1-2.7 2.7-2.7M334.8 499.5c4.2 1.1.6 15.8.3 17.6-.5 1.6-4.2 16.3-8.4 15.3l-14.4-3.5c-1.3-.3-1.9-1.8-2.1-3.7l-8.5-2.1-3.2 2.6-7.9-1.9c-3.1-.8-1.9-8.1-1.8-10l4.5 1.1.2-1.3-4.5-1.1c.8-4.2 1.8-8.2 3.1-12.3l4.7 1.1.5-1.5-4.7-1.1c.8-1.8 3.2-8.7 6.1-7.9l7.9 1.9 1.3 4 8.7 2.1c1.1-1.9 2.4-3.1 3.9-2.7z"
     id="path115" />
  <path
     fill="#E9B245"
     d="M313.1 520.3c.3-3.4 1.1-6.9 1.5-8.4.5-2.3 3.2-11.5 5.5-13.2l11.5 2.9c-.6 1-1.1 1.9-1.5 2.6-.6 1.5-1.3 3.2-1.9 5.2l-5.3-1.3c-3.4-.8-5.6 1.9-6.3 4.4-.6 2.4 0 6 3.5 6.9l5.3 1.3c-.2.8-.3 1.8-.3 2.6zm-17.3-3.7.6-5.3-4.4-1.1c.5-2.4 1-4.5 1.8-6.9l4.5 1.1 2.4-6.6-4.5-1.1c.5-1 1.1-2.6 2.1-3.4l4.8 1.3c-2.3 3.2-4.2 9.7-5.2 13.4-.6 2.3-1.3 5.6-1.6 8.9zm3.7-1.6c.5-2.7 1-5.3 1.3-6.5.6-2.4 1.8-6.1 2.9-9 .2-.2.3-.6.5-1l11.1 2.7c-1.8 4-3.1 9-3.4 10.2-.2.8-.8 3.4-1.3 6.5z"
     id="path116" />
  <circle
     cx="305.2"
     cy="509.4"
     r="2.7"
     fill="#B57017"
     id="circle116" />
  <path
     fill="#B57017"
     d="M460.6 499.5c-4.2 1.1-.6 15.8-.3 17.6.5 1.6 4.2 16.3 8.4 15.3l14.4-3.5c1.3-.3 1.9-1.8 2.1-3.7l8.5-2.1 3.2 2.6 7.9-1.9c3.1-.8 1.9-8.1 1.8-10l-4.5 1.1-.2-1.3 4.5-1.1c-.8-4.2-1.8-8.2-3.1-12.3l-4.7 1.1-.5-1.5 4.7-1.1c-.8-1.8-3.2-8.7-6.1-7.9l-7.9 1.9-1.3 4-8.7 2.1c-1.1-1.9-2.4-3.1-3.9-2.7z"
     id="path117" />
  <path
     fill="#E9B245"
     d="M482.4 520.3c-.3-3.4-1.1-6.9-1.5-8.4-.6-2.3-3.2-11.5-5.5-13.2l-11.5 2.9c.6 1 1.1 1.9 1.5 2.6.6 1.5 1.3 3.2 2.1 5.2l5.3-1.3c3.4-.8 5.6 1.9 6.3 4.4.6 2.4 0 6-3.5 6.9l-5.3 1.3c.2.8.3 1.8.3 2.6zm17.1-3.7-.6-5.3 4.4-1.1c-.5-2.4-1-4.5-1.8-6.9l-4.5 1.1-2.4-6.6 4.5-1.1c-.5-1-1.1-2.6-2.1-3.4l-4.8 1.3c2.3 3.2 4.2 9.7 5.2 13.4.6 2.3 1.3 5.6 1.6 8.9zM496 515c-.5-2.7-1-5.3-1.3-6.5-.6-2.4-1.8-6.1-2.9-9-.2-.2-.3-.6-.5-1l-11.1 2.7c1.8 4 3.1 9 3.4 10.2.2.8.8 3.4 1.3 6.5z"
     id="path118" />
  <path
     fill="#B57017"
     d="M492.9 508.7c-.3-1.5-1.9-2.4-3.4-2.1s-2.4 1.9-2.1 3.4 1.9 2.4 3.4 2.1c1.6-.3 2.6-1.9 2.1-3.4"
     id="path119" />
  <path
     fill="#009634"
     d="M261.9 401.9c1.3-1.1 2.4-2.3 3.5-3.4-1.1-.6-4.8-2.6-2.4-8.9.2-.3 2.4-6.5 2.4-6.5s4.5 5.5 3.4 10.8c1.1-1.6 1.9-3.4 2.7-5.3-1.6-.5-5.3-2.4-4.2-7.7.2-.3.8-5.3-.6-6.8-.2-.2 4.8 1.1 6.6 7.3 0 .2.3-.6.6-1.6l.2-1.3c0-.2-6.6-2.3-6-9 0-.3 1.3-5-.6-8.1-.2-.3 5.3 2.7 6.8 7.1-.2-1.9-.3-3.9-.6-5.6-.8 0-5.2-.5-7.6-6.8l-.2-.3c-2.3 3.2-5.5 4-5.6 4-.3 0-1 1.6-1 1.9-.2.6-.8 1.8-.8 1.8s-.5 4.7-.6 5.5c-2.6 8.4-6.5 8.4-7.9 8.1-.2 2.3-.2 4.4 0 6.5 1.5-6.1 6.6-8.9 6.9-8.5 1.8 1.9 1.3 5.2 1.3 5.5-1.1 6-5 8.9-6.3 10.2.6 1.5 1.5 2.9 2.3 4.2-2.1-4.7 1.6-6.9 1.8-7.1 4-2.7 3.4-5.2 3.5-5 3.9 6.8 1.5 8.9 1.5 9.2s-3.2 4.2-4.2 5.6c1.4 1.8 3.2 3.1 5.1 4.2m-3.2 2.1s.8-.3 1.9-1.3c-2.4-1.5-5.3-3.7-7.6-7.1-3.4 5.5-8.1 1.6-8.4 1.3-4-3.1-6.6-3.1-6.5-3.2 3.9-4.5 6.8-3.2 6.3-3.5-1.6-.8-2.3-4.5-2.4-4.8-.6-4.7-4.2-6.5-3.9-6.5 4.8 0 8.9 2.7 10.3 3.9-.2-1.1-.2-2.3 0-3.5-7.6 1.5-7.4-5-7.4-5.5 0-4.4-2.4-7.6-2.3-7.4 2.1 1.1 4.5 2.6 4.5 2.4-1.6-2.3-.2-9.5 0-9.4 2.3 1.1 4.2 3.7 4.4 3.9 1.1.8 2.1 4.2 2.4 5.3.3-1 .5-1.9.8-2.9-.5-1.1 0-1.1-.3-1.3-8.2-6.1-3.4-13.2-3.4-13.4.5-2.3-.3-4-.2-4 2.7 1 5.2 7.4 5.2 7.1 0-2.1 5.2-3.4 5.2-3.5-1-3.7 2.3-6.3 2.6-6.3 3.4-2.7 1.3-5.8 1.5-5.8 9.4 7.1 1.5 13.5 1.5 13.5s1.8.2 2.1.2h.5c-.2-1.6-.2-3.2.2-4.2.2-.3 1 2.4 2.9 3.4.3.2 3.5 2.4 3.7 3.4s-.2-5 5.2-8.5c.2-.2 1.9 11.8-2.4 14 .6 2.9 1 5.6 1.1 8.5 1-1.5 3.2-4 6.9-3.1.3 0-1.5 1.3-1.5 5.3 0 .3-.3 3.4-3.7 5.8-.2.2 3.7-1.5 4.4-1.3.3.2 0 11.5-9.2 13.2q-.9 2.25-2.1 4.2c2.6-2.1 6.1-4.2 9.7-3.1.3.2-4 6.1-5 7.6-.2.2-2.3 4.2-8.4.8-1.3 1.5-2.6 2.7-4 4 1.5.6 2.4 1 2.4 1l-.5 1.5s-1.5-.5-3.2-1.5c-1.6 1.1-2.6 1.8-2.6 1.8zM411 511.9s2.6-.8 6.5-1.6c1.9 4.8 7.4 5 7.7 5 3.2.2 7.4 3.2 7.4 3.1-.3-1.6-1.1-3.2-.8-3.1 2.7 2.7 10.3 3.4 10.2 3.4-.6-.3-3.1-3.9-3.2-4.2-1.3-2.9-3.7-5-3.4-4.8.8.3 1.8 0 2.4-.3l1.1.2c3.2 11.8 13.5 7.4 13.7 7.6 1 1 4.5 1.9 4 1.9-3.1 0-8.1 3.5-8.1 3.4.3-.6 1.1-3.9 1.1-3.7-.3.6-2.7 1.6-3.1 1.6-5.5 0-7.3 4.4-7.3 4 .6-4 1.8-4.4 1.5-4.4-11.3 2.6-11.3 10.2-11.3 9.8 0-.3-1.9-1.5-1.6-1.6 1.1-.6 1.9-2.7 1.9-3.1.2-1.1 1.9-3.5 1.8-3.5-9.8 0-12.4 5.2-12.6 5.3-1.1.5-2.3 1.1-2.9 1.5-1.1-.8-2.4-1.8-3.4-2.9 2.6 1.1 5.5-.6 5.8-.8 4.5-2.6 5.8-2.1 5.6-2.3-6.3-5-11.9-1.9-14-.3-.2-.3-.5-.8-.6-1.3-1-1.9-1.5-3.4-1.5-3.4-.3-1.3-2.1-.6-1.8.5 0 0 1 3.2 3.5 6.8-5.6 8.2 6.9 14 6.8 14-.8-1-1.1-4.7-1.1-4.8 0-1.1-.3-2.9-.6-4.2.5.3 1 .6 1.5 1 .5.6.8 1.1.8 1.1 0 8.1 14 8.4 13.9 8.2-.2-.6-2.6-5.2-3.4-6.5.6 0 1.5 0 2.3-.2 6.6 8.2 16.3 4 16.1 4-2.7-1.1-4.2-4.4-4-4 2.6 2.6 8.1 2.3 8.5 2.1 3.7-2.1 8.7-2.6 8.7-2.7-1.9-1.9-6.6-3.7-6.3-3.9 3.4-1.1 4-5.2 4-5.3.6-3.2 2.3-4.4 2.6-4.4 4.7-.6 8.5-6.3 8.4-6.3-.5.5-9 .2-9.2.2-2.4-.2-4 .2-5 .6-1.6 0-2.9-.3-3.9-1.6l-.3-.3c-.2-.2-.3-.5-.6-.6 2.6.2 4.7-1 4.8-1.1 3.1-2.3 5.2-1.8 5.2-1.9-5.3-8.1-13.1-.5-14.4.6-1.3-.5-2.6-.6-4-1 1.8-1.5 3.9-4.4 4.2-4.8-.6.6-5.3 0-5.5 0-6.3-1.3-9.4 1.1-9.4 1.1s.6-1.5.8-1.6c1.1-2.7 3.2-2.9 3.1-3.1-5-2.4-8.7-.8-8.5-1.1.6-1.6 1.1-6.3.6-6.3-4.8 1.1-6.3 3.1-6.5 3.2-2.6 2.6-3.5 11.8-3.9 13.9-3.1.6-5 1.3-5 1.3-1.1.2-.5 2.1.7 1.6"
     id="path120" />
  <path
     fill="none"
     stroke="#009634"
     stroke-linecap="round"
     stroke-linejoin="round"
     stroke-miterlimit="3.864"
     stroke-width=".087"
     d="M411 511.9s2.6-.8 6.5-1.6c1.9 4.8 7.4 5 7.7 5 3.2.2 7.4 3.2 7.4 3.1-.3-1.6-1.1-3.2-.8-3.1 2.7 2.7 10.3 3.4 10.2 3.4-.6-.3-3.1-3.9-3.2-4.2-1.3-2.9-3.7-5-3.4-4.8.8.3 1.8 0 2.4-.3l1.1.2c3.2 11.8 13.5 7.4 13.7 7.6 1 1 4.5 1.9 4 1.9-3.1 0-8.1 3.5-8.1 3.4.3-.6 1.1-3.9 1.1-3.7-.3.6-2.7 1.6-3.1 1.6-5.5 0-7.3 4.4-7.3 4 .6-4 1.8-4.4 1.5-4.4-11.3 2.6-11.3 10.2-11.3 9.8 0-.3-1.9-1.5-1.6-1.6 1.1-.6 1.9-2.7 1.9-3.1.2-1.1 1.9-3.5 1.8-3.5-9.8 0-12.4 5.2-12.6 5.3-1.1.5-2.3 1.1-2.9 1.5-1.1-.8-2.4-1.8-3.4-2.9 2.6 1.1 5.5-.6 5.8-.8 4.5-2.6 5.8-2.1 5.6-2.3-6.3-5-11.9-1.9-14-.3-.2-.3-.5-.8-.6-1.3-1-1.9-1.5-3.4-1.5-3.4-.3-1.3-2.1-.6-1.8.5 0 0 1 3.2 3.5 6.8-5.6 8.2 6.9 14 6.8 14-.8-1-1.1-4.7-1.1-4.8 0-1.1-.3-2.9-.6-4.2.5.3 1 .6 1.5 1 .5.6.8 1.1.8 1.1 0 8.1 14 8.4 13.9 8.2-.2-.6-2.6-5.2-3.4-6.5.6 0 1.5 0 2.3-.2 6.6 8.2 16.3 4 16.1 4-2.7-1.1-4.2-4.4-4-4 2.6 2.6 8.1 2.3 8.5 2.1 3.7-2.1 8.7-2.6 8.7-2.7-1.9-1.9-6.6-3.7-6.3-3.9 3.4-1.1 4-5.2 4-5.3.6-3.2 2.3-4.4 2.6-4.4 4.7-.6 8.5-6.3 8.4-6.3-.5.5-9 .2-9.2.2-2.4-.2-4 .2-5 .6-1.6 0-2.9-.3-3.9-1.6l-.3-.3c-.2-.2-.3-.5-.6-.6 2.6.2 4.7-1 4.8-1.1 3.1-2.3 5.2-1.8 5.2-1.9-5.3-8.1-13.1-.5-14.4.6-1.3-.5-2.6-.6-4-1 1.8-1.5 3.9-4.4 4.2-4.8-.6.6-5.3 0-5.5 0-6.3-1.3-9.4 1.1-9.4 1.1s.6-1.5.8-1.6c1.1-2.7 3.2-2.9 3.1-3.1-5-2.4-8.7-.8-8.5-1.1.6-1.6 1.1-6.3.6-6.3-4.8 1.1-6.3 3.1-6.5 3.2-2.6 2.6-3.5 11.8-3.9 13.9-3.1.6-5 1.3-5 1.3-1.1.2-.5 2.1.7 1.6"
     id="path121" />
  <path
     fill="#009634"
     d="M511.9 507.1c-.6-.5-1.1-.8-1.8-1.3l-.2-.6c9.5-1.9 8.9-15 8.7-14.8-2.7 2.7-7.6 2.7-7.6 2.7 2.7 0 4.8-3.7 5-3.9 1.6-3.1 3.7-4.2 3.5-4.2-5.2 0-8.4 1.1-9.8 1.9.2-1 .5-1.9.6-3.1 9.5.8 11.9-5.6 11.9-5.8 2.9-3.7 3.5-3.9 3.5-3.9-1.3-.5-4.2-.6-4-.6 2.7 0 9-6.1 9-6.1-.8.3-1.9.3-1.9.2 2.6-3.2 4-3.1 3.9-3.4-.5-.8-2.6-1.3-2.4-1.5 2.3-.6 3.4-2.3 3.2-1.8-1 2.7 1.5 8.1 1.1 7.9-.8-.8-2.6-1.5-2.4-1 .5 3.9.3 4.5.3 4.8 0 4.5 1.3 5.5 1 6-2.3 3.2-2.3 10.3-2.4 10.3-.8-1.8-2.9-4.2-3.1-4-2.4 3.5-2.4 7.9-2.4 7.9-.2-.6-.5-1.6-.5-1.5-.8 1.8-4.2 6.1-4.7 6.6-3.7 5.2 0 8.9-.2 8.9-2.5-1.8-7.5-.2-8.3.3m-5.8-2.9s.8 1.1 2.3 2.4c.5 2.3.8 3.5.8 3.5.3 1.1 2.1.6 1.8-.5 0 0-.2-.5-.3-1.1.8.5 1.6 1 2.6 1.5 6.3 6.8 15.5 2.9 15.3 2.9-.8 0-2.6-1-2.7-1.3-1-1.3-2.6-2.9-2.3-2.7 6.6 4 10.8-.6 11-.8 3.4-2.7 6-2.4 5.8-2.7-1.3-1.1-6-2.7-5.8-2.7 5.3 1.5 8.7-1.8 8.9-1.8 2.4-2.3 4-1.5 3.7-1.6-5.2-5.8-13.5-1.9-13.5-1.9.2 0 1.8-4.5 2.1-4.4 9.2 4.2 11.3-4.8 11.3-5 1.6-2.9 2.9-3.1 2.7-3.1-9-1.5-12.4 4.5-12.7 5.2 1.3-2.6 1.1-6.6 1.5-6.6 11.3-2.7 8.1-10.6 7.9-11.1-.2-3.1.8-4.7.6-4.7-1.8-.3-5 2.3-5 1.9 0-5.6-5.2-7.7-5.2-7.9-1.3-.6-1.9-1.8-1.8-1.9 2.9-2.9-.2-10-.2-9.8-1.1 1.9-2.7 3.4-2.9 3.5-2.7 2.3-2.7 4.8-2.9 4.8-7.9 1.1-9 7.6-9.2 9.4l-.5.3c.2-1.8-1-4.2-1.1-4.4-1.5-2.9-1.5-5-1.6-4.8-.5 1-2.7 5.6-2.9 6.1-2.1 5.5-1.3 8.1-.6 9.4l-.5.5c-.5-2.7-1.8-6.6-2.1-6.3-5 6-3.4 13.1-3.4 12.9-1-2.6-6.9-4.7-6.8-4.4 1 1.5 1.3 6.5 1.5 6.8 1.5 3.9 4.8 5.2 5.8 5.5-.5 4.7-.3 9.5.3 14.2l-.2-.3c-.9-1.1-2.3 0-1.7 1"
     id="path122" />
  <path
     fill="none"
     stroke="#009634"
     stroke-linecap="round"
     stroke-linejoin="round"
     stroke-miterlimit="3.864"
     stroke-width=".071"
     d="M511.9 507.1c-.6-.5-1.1-.8-1.8-1.3l-.2-.6c9.5-1.9 8.9-15 8.7-14.8-2.7 2.7-7.6 2.7-7.6 2.7 2.7 0 4.8-3.7 5-3.9 1.6-3.1 3.7-4.2 3.5-4.2-5.2 0-8.4 1.1-9.8 1.9.2-1 .5-1.9.6-3.1 9.5.8 11.9-5.6 11.9-5.8 2.9-3.7 3.5-3.9 3.5-3.9-1.3-.5-4.2-.6-4-.6 2.7 0 9-6.1 9-6.1-.8.3-1.9.3-1.9.2 2.6-3.2 4-3.1 3.9-3.4-.5-.8-2.6-1.3-2.4-1.5 2.3-.6 3.4-2.3 3.2-1.8-1 2.7 1.5 8.1 1.1 7.9-.8-.8-2.6-1.5-2.4-1 .5 3.9.3 4.5.3 4.8 0 4.5 1.3 5.5 1 6-2.3 3.2-2.3 10.3-2.4 10.3-.8-1.8-2.9-4.2-3.1-4-2.4 3.5-2.4 7.9-2.4 7.9-.2-.6-.5-1.6-.5-1.5-.8 1.8-4.2 6.1-4.7 6.6-3.7 5.2 0 8.9-.2 8.9-2.5-1.8-7.5-.2-8.3.3m-5.8-2.9s.8 1.1 2.3 2.4c.5 2.3.8 3.5.8 3.5.3 1.1 2.1.6 1.8-.5 0 0-.2-.5-.3-1.1.8.5 1.6 1 2.6 1.5 6.3 6.8 15.5 2.9 15.3 2.9-.8 0-2.6-1-2.7-1.3-1-1.3-2.6-2.9-2.3-2.7 6.6 4 10.8-.6 11-.8 3.4-2.7 6-2.4 5.8-2.7-1.3-1.1-6-2.7-5.8-2.7 5.3 1.5 8.7-1.8 8.9-1.8 2.4-2.3 4-1.5 3.7-1.6-5.2-5.8-13.5-1.9-13.5-1.9.2 0 1.8-4.5 2.1-4.4 9.2 4.2 11.3-4.8 11.3-5 1.6-2.9 2.9-3.1 2.7-3.1-9-1.5-12.4 4.5-12.7 5.2 1.3-2.6 1.1-6.6 1.5-6.6 11.3-2.7 8.1-10.6 7.9-11.1-.2-3.1.8-4.7.6-4.7-1.8-.3-5 2.3-5 1.9 0-5.6-5.2-7.7-5.2-7.9-1.3-.6-1.9-1.8-1.8-1.9 2.9-2.9-.2-10-.2-9.8-1.1 1.9-2.7 3.4-2.9 3.5-2.7 2.3-2.7 4.8-2.9 4.8-7.9 1.1-9 7.6-9.2 9.4l-.5.3c.2-1.8-1-4.2-1.1-4.4-1.5-2.9-1.5-5-1.6-4.8-.5 1-2.7 5.6-2.9 6.1-2.1 5.5-1.3 8.1-.6 9.4l-.5.5c-.5-2.7-1.8-6.6-2.1-6.3-5 6-3.4 13.1-3.4 12.9-1-2.6-6.9-4.7-6.8-4.4 1 1.5 1.3 6.5 1.5 6.8 1.5 3.9 4.8 5.2 5.8 5.5-.5 4.7-.3 9.5.3 14.2l-.2-.3c-.9-1.1-2.3 0-1.7 1"
     id="path123" />
  <path
     fill="#009634"
     d="M537.3 294.8c-1.3-1.1-2.4-2.3-3.5-3.4 1.1-.6 4.8-2.6 2.4-8.9-.2-.3-2.4-6.5-2.4-6.5s-4.5 5.5-3.4 10.8c-1.1-1.6-1.9-3.4-2.7-5.3 1.6-.6 5.3-2.4 4.2-7.7-.2-.3-.8-5.3.6-6.8.2-.2-4.8 1.1-6.6 7.3 0 .2-.3-.6-.6-1.6l-.2-1.3c0-.2 6.6-2.3 6-9 0-.3-1.5-5 .6-8.1.2-.3-5.3 2.7-6.8 7.1.2-1.9.3-3.9.6-5.6.8 0 5.2-.5 7.6-6.8l.2-.3c2.3 3.2 5.5 4 5.6 4 .3 0 1 1.6 1 1.9.2.6.8 1.8.8 1.8s.5 4.7.6 5.5c2.6 8.4 6.5 8.4 7.9 8.1.2 2.3.2 4.4 0 6.5-1.5-6.1-6.6-8.9-6.9-8.5-1.8 1.9-1.3 5.2-1.3 5.5 1.1 6 5 8.9 6.3 10.2-.6 1.5-1.5 2.9-2.3 4.2 2.1-4.7-1.6-6.9-1.8-7.1-4-2.7-3.4-5.2-3.5-5-3.9 6.8-1.5 8.9-1.5 9.2s3.2 4.2 4.2 5.6c-1.4 1.8-3 3.1-5.1 4.2m3.2 2.3s-.8-.3-1.9-1.3c2.4-1.5 5.3-3.7 7.6-7.1 3.4 5.5 8.1 1.6 8.4 1.3 3.9-3.1 6.6-3.1 6.5-3.2-3.9-4.5-6.8-3.2-6.3-3.5 1.6-.8 2.3-4.5 2.4-4.8.6-4.7 4.2-6.5 3.9-6.5-4.8 0-8.9 2.7-10.3 3.9.2-1.1.2-2.3 0-3.5 7.6 1.5 7.4-5 7.4-5.5 0-4.4 2.4-7.6 2.1-7.4-2.1 1.1-4.5 2.6-4.4 2.4 1.6-2.3.2-9.5 0-9.4-2.3 1.1-4.2 3.7-4.4 3.9-1.1.8-2.1 4.2-2.4 5.3-.3-1-.5-1.9-.8-2.9.5-1.1 0-1.1.3-1.3 8.2-6.1 3.4-13.2 3.4-13.4-.5-2.3.3-4 .2-4-2.7 1-5.2 7.4-5.2 7.1 0-2.1-5.2-3.4-5.2-3.5 1-3.7-2.3-6.3-2.6-6.3-3.4-2.7-1.3-5.8-1.5-5.8-9.4 7.1-1.5 13.5-1.5 13.5s-1.8.2-2.1.2h-.5c.2-1.6.2-3.2-.2-4.2-.2-.3-1 2.4-2.9 3.4-.3.2-3.5 2.4-3.7 3.4s.2-5-5.2-8.5c-.2-.2-1.9 11.8 2.4 14-.6 2.7-1 5.6-1.1 8.5-1-1.5-3.2-4-6.9-3.1-.2 0 1.5 1.3 1.5 5.3 0 .3.3 3.4 3.7 5.8.2.2-3.7-1.5-4.4-1.3-.3.2 0 11.5 9.2 13.2q.9 2.25 2.1 4.2c-2.6-2.1-6.1-4.2-9.7-3.1-.3.2 4.2 6.1 5 7.6.2.2 2.3 4.2 8.4.8 1.3 1.5 2.6 2.7 4 4-1.5.6-2.4 1-2.4 1-1 .3-.5 1.8.5 1.5 0 0 1.5-.5 3.2-1.5 1.6 1.1 2.6 1.8 2.6 1.8.9.8 1.6-.5.8-1m-152 214.8s-2.6-.8-6.5-1.6c-1.9 4.8-7.4 5-7.7 5-3.2.2-7.4 3.2-7.4 3.1.3-1.6 1.1-3.2.8-3.1-2.7 2.7-10.3 3.4-10.2 3.4.6-.3 3.1-3.9 3.2-4.2 1.3-2.9 3.7-5 3.4-4.8-.8.3-1.8 0-2.4-.3l-1.1.2c-3.2 11.8-13.5 7.4-13.7 7.6-1 1-4.5 1.9-4 1.9 3.1 0 8.1 3.5 8.1 3.4-.3-.6-1.1-3.9-1.1-3.7.3.6 2.7 1.6 3.1 1.6 5.5 0 7.3 4.4 7.3 4-.6-4-1.8-4.4-1.5-4.4 11.3 2.6 11.3 10.2 11.3 9.8 0-.3 1.9-1.5 1.6-1.6-1.1-.6-1.9-2.7-1.9-3.1-.2-1.1-1.9-3.5-1.8-3.5 9.8 0 12.4 5.2 12.6 5.3 1.1.5 2.3 1.1 2.9 1.5 1.1-.8 2.4-1.8 3.4-2.9-2.6 1.1-5.5-.6-5.8-.8-4.5-2.6-5.8-2.1-5.6-2.3 6.3-5 11.9-1.9 14-.3.2-.3.5-.8.6-1.3 1-1.9 1.5-3.4 1.5-3.4.3-1.3 2.1-.6 1.8.5 0 0-1 3.2-3.5 6.8 5.6 8.2-6.9 14-6.8 14 .8-1 1.1-4.7 1.1-4.8 0-1.1.3-2.9.6-4.2-.5.3-1 .6-1.5 1-.5.6-.8 1.1-.8 1.1 0 8.1-14 8.4-13.9 8.2.2-.6 2.6-5.2 3.4-6.5-.6 0-1.5 0-2.3-.2-6.6 8.2-16.3 4-16.1 4 2.7-1.1 4.2-4.4 4-4-2.6 2.6-8.1 2.3-8.5 2.1-3.7-2.1-8.7-2.6-8.7-2.7 1.9-1.9 6.6-3.7 6.3-3.9-3.4-1.1-4-5.2-4-5.3-.6-3.2-2.3-4.4-2.6-4.4-4.7-.6-8.5-6.3-8.4-6.3.5.5 9 .2 9.2.2 2.4-.2 4 .2 5 .6 1.6 0 2.9-.3 3.9-1.6l.3-.3c.2-.2.3-.5.6-.6-2.6.2-4.7-1-4.8-1.1-3.1-2.3-5.2-1.8-5.2-1.9 5.3-8.1 13.1-.5 14.4.6 1.3-.5 2.6-.6 4-1-1.8-1.5-3.9-4.4-4.2-4.8.6.6 5.3 0 5.5 0 6.3-1.3 9.4 1.1 9.4 1.1s-.6-1.5-.8-1.6c-1.1-2.7-3.2-2.9-3.1-3.1 5-2.4 8.7-.8 8.5-1.1-.6-1.6-1.1-6.3-.6-6.3 4.8 1.1 6.3 3.1 6.5 3.2 2.6 2.6 3.5 11.8 3.9 13.9 3.1.6 5 1.3 5 1.3 1.1.2.5 2.1-.7 1.6"
     id="path124" />
  <path
     fill="#B57017"
     d="M551.6 342.4c0 4.4-15.2 4.5-16.9 4.5-1.8 0-16.9 0-16.9-4.5v-14.8c0-1.3 1.3-2.3 3.2-2.9v-8.9l-3.2-2.6V305c0-3.1 7.3-3.7 9.2-4v4.7l1.3-.2v-4.7q6.3-.45 12.6 0v4.7l1.5.2v-4.8c1.9.3 9.2 1 9.2 4v8.2l-3.5 2.3v8.9c2.1.6 3.5 1.6 3.5 3.1z"
     id="path125" />
  <path
     fill="#E9B245"
     d="M526.1 326.3c3.4-.5 7.1-.5 8.4-.5 2.3 0 11.9.3 14.2 2.1v11.8c-1.1-.5-2.3-.6-2.9-.8-1.6-.3-3.4-.5-5.5-.6v-5.5c0-3.5-3.2-5-5.8-5s-5.8 1.5-5.8 5v5.5c-.8 0-1.8.2-2.7.3zm-.5-17.6 5.3-.6v-4.5c2.4-.2 4.7-.2 7.1 0v4.7l6.9.6v-4.5c1.1.2 2.7.5 3.7 1.1v5c-3.7-1.3-10.5-1.8-14.2-1.8-2.3 0-5.8.2-9 .6zm2.5 3.1c2.7-.3 5.5-.3 6.5-.3 2.6 0 6.3.2 9.5.6.3 0 .6.2 1.1.2v11.5c-4.4-.8-9.5-.8-10.6-.8-.8 0-3.5 0-6.5.3z"
     id="path126" />
  <path
     fill="#B57017"
     d="M534.8 313.2c1.6 0 2.7 1.3 2.7 2.7 0 1.6-1.3 2.7-2.7 2.7-1.6 0-2.7-1.3-2.7-2.7s1.3-2.7 2.7-2.7M551.6 450.8c0 4.4-15.2 4.5-16.9 4.5-1.8 0-16.9 0-16.9-4.5V436c0-1.3 1.3-2.3 3.2-2.9v-8.9l-3.2-2.6v-8.2c0-3.1 7.3-3.9 9.2-4v4.7l1.3-.2v-4.7q6.3-.45 12.6 0v4.7l1.5.2v-4.8c1.9.3 9.2 1 9.2 4v8.2l-3.5 2.3v8.9c2.1.6 3.5 1.6 3.5 3.1z"
     id="path127" />
  <defs
     id="defs127">
    <path
       id="o"
       d="M551.6 450.8c0 4.4-15.2 4.5-16.9 4.5-1.8 0-16.9 0-16.9-4.5V436c0-1.3 1.3-2.3 3.2-2.9v-8.9l-3.2-2.6v-8.2c0-3.1 7.3-3.9 9.2-4v4.7l1.3-.2v-4.7q6.3-.45 12.6 0v4.7l1.5.2v-4.8c1.9.3 9.2 1 9.2 4v8.2l-3.5 2.3v8.9c2.1.6 3.5 1.6 3.5 3.1z" />
  </defs>
  <clipPath
     id="p">
    <use
       xlink:href="#o"
       overflow="visible"
       id="use127" />
  </clipPath>
  <g
     clip-path="url(#p)"
     id="g129">
    <path
       fill="#009634"
       d="M505.5 505.2s.8 1.1 2.3 2.4c.5 2.3.8 3.5.8 3.5.3 1.1 2.1.6 1.8-.5 0 0-.2-.5-.3-1.1.8.5 1.6 1 2.6 1.5 6.3 6.8 15.5 2.9 15.3 2.9-.8 0-2.6-1-2.7-1.3-1-1.3-2.6-2.9-2.3-2.7 6.6 4.2 10.8-.6 11-.8 3.4-2.7 6-2.4 5.8-2.7-1.3-1.1-6-2.7-5.8-2.7 5.3 1.5 8.7-1.8 8.9-1.8 2.4-2.3 4-1.5 3.7-1.6-5.2-5.8-13.5-1.9-13.5-1.9.2 0 1.8-4.5 2.1-4.4 9.2 4.2 11.1-4.8 11.3-5 1.6-2.9 2.9-3.1 2.7-3.1-9-1.5-12.4 4.5-12.7 5.2 1.3-2.6 1.1-6.6 1.5-6.6 11.3-2.7 8.1-10.6 7.9-11.1-.2-3.1.8-4.7.6-4.7-1.8-.3-5 2.3-5 1.9 0-5.6-5.2-7.7-5.2-7.9-1.3-.6-1.9-1.6-1.8-1.9 2.9-2.9-.2-10-.2-9.8-1.1 1.9-2.7 3.4-2.9 3.5-2.7 2.3-2.7 4.8-2.9 4.8-7.9 1.1-9 7.6-9.2 9.2l-.5.3c.2-1.8-1-4.2-1.1-4.4-1.5-2.9-1.5-5-1.6-4.8-.5 1-2.7 5.6-2.9 6.1-2.1 5.5-1.3 8.1-.6 9.4l-.6.8c-.5-2.7-1.8-6.6-2.1-6.3-5.2 6-3.4 13.1-3.4 12.9-1-2.6-6.9-4.7-6.8-4.4 1 1.5 1.3 6.5 1.5 6.8 1.5 3.9 4.8 5.2 5.8 5.5-.5 4.7-.3 9.5.3 14.2l-.2-.3c-1-1.2-2.4-.3-1.6.9"
       id="path128" />
    <path
       fill="none"
       stroke="#009634"
       stroke-linecap="round"
       stroke-linejoin="round"
       stroke-miterlimit="3.864"
       stroke-width=".068"
       d="M505.5 505.2s.8 1.1 2.3 2.4c.5 2.3.8 3.5.8 3.5.3 1.1 2.1.6 1.8-.5 0 0-.2-.5-.3-1.1.8.5 1.6 1 2.6 1.5 6.3 6.8 15.5 2.9 15.3 2.9-.8 0-2.6-1-2.7-1.3-1-1.3-2.6-2.9-2.3-2.7 6.6 4.2 10.8-.6 11-.8 3.4-2.7 6-2.4 5.8-2.7-1.3-1.1-6-2.7-5.8-2.7 5.3 1.5 8.7-1.8 8.9-1.8 2.4-2.3 4-1.5 3.7-1.6-5.2-5.8-13.5-1.9-13.5-1.9.2 0 1.8-4.5 2.1-4.4 9.2 4.2 11.1-4.8 11.3-5 1.6-2.9 2.9-3.1 2.7-3.1-9-1.5-12.4 4.5-12.7 5.2 1.3-2.6 1.1-6.6 1.5-6.6 11.3-2.7 8.1-10.6 7.9-11.1-.2-3.1.8-4.7.6-4.7-1.8-.3-5 2.3-5 1.9 0-5.6-5.2-7.7-5.2-7.9-1.3-.6-1.9-1.6-1.8-1.9 2.9-2.9-.2-10-.2-9.8-1.1 1.9-2.7 3.4-2.9 3.5-2.7 2.3-2.7 4.8-2.9 4.8-7.9 1.1-9 7.6-9.2 9.2l-.5.3c.2-1.8-1-4.2-1.1-4.4-1.5-2.9-1.5-5-1.6-4.8-.5 1-2.7 5.6-2.9 6.1-2.1 5.5-1.3 8.1-.6 9.4l-.6.8c-.5-2.7-1.8-6.6-2.1-6.3-5.2 6-3.4 13.1-3.4 12.9-1-2.6-6.9-4.7-6.8-4.4 1 1.5 1.3 6.5 1.5 6.8 1.5 3.9 4.8 5.2 5.8 5.5-.5 4.7-.3 9.5.3 14.2l-.2-.3c-1-1.2-2.4-.3-1.6.9"
       id="path129" />
  </g>
  <path
     fill="#E9B245"
     d="M526.1 434.8c3.4-.5 7.1-.5 8.4-.5 2.3 0 11.9.3 14.2 2.1v11.8c-1.1-.5-2.3-.6-2.9-.8-1.6-.3-3.4-.5-5.5-.6v-5.5c0-3.5-3.2-5-5.8-5s-5.8 1.5-5.8 5v5.5c-.8 0-1.8.2-2.7.3zM525.6 417.1l5.3-.6V412c2.4-.2 4.7-.2 7.1 0v4.7l6.9.6v-4.5c1.1.2 2.7.5 3.7 1.1v5c-3.7-1.3-10.5-1.8-14.2-1.8-2.3 0-5.8.2-9 .6zM528.1 420.3c2.7-.3 5.5-.3 6.5-.3 2.6 0 6.3.2 9.5.6.3 0 .6.2 1.1.2v11.5c-4.4-.8-9.5-.8-10.6-.8-.8 0-3.5 0-6.5.3z"
     id="path130" />
  <path
     fill="#B57017"
     d="M534.8 421.6c1.6 0 2.7 1.3 2.7 2.7 0 1.6-1.3 2.7-2.7 2.7-1.6 0-2.7-1.3-2.7-2.7s1.3-2.7 2.7-2.7"
     id="path131" />
  <path
     fill="#009634"
     d="M537.6 401.9c-1.3-1.1-2.4-2.3-3.5-3.4 1.1-.6 4.8-2.6 2.4-8.9-.2-.3-2.4-6.5-2.4-6.5s-4.5 5.5-3.4 10.8c-1.1-1.6-1.9-3.4-2.7-5.3 1.6-.5 5.3-2.4 4.2-7.7-.2-.3-.8-5.3.6-6.8.2-.2-4.8 1.1-6.6 7.3 0 .2-.3-.6-.6-1.6l-.2-1.3c0-.2 6.5-2.3 6-9 0-.3-1.5-5 .6-8.1.2-.3-5.3 2.7-6.8 7.1.2-1.9.3-3.9.6-5.6.8 0 5.2-.5 7.6-6.8l.2-.3c2.3 3.2 5.5 4 5.6 4 .3 0 1 1.6 1 1.9.2.6.8 1.8.8 1.8s.5 4.7.6 5.5c2.6 8.4 6.3 8.4 7.9 8.1.2 2.3.2 4.4 0 6.5-1.5-6.1-6.6-8.9-6.9-8.5-1.8 1.9-1.3 5.2-1.3 5.5 1.1 6 5 8.9 6.3 10.2-.6 1.5-1.5 2.9-2.3 4.2 2.1-4.7-1.6-6.9-1.8-7.1-4-2.7-3.4-5.2-3.5-5-4 7.1-1.6 9.2-1.6 9.7 0 .3 3.2 4.2 4.2 5.6-1.3 1.3-3.1 2.6-5 3.7m3 2.1s-.8-.3-1.9-1.3c2.4-1.5 5.3-3.7 7.6-7.1 3.4 5.5 8.1 1.6 8.4 1.3 3.9-3.1 6.6-3.1 6.5-3.2-3.9-4.5-6.8-3.2-6.3-3.5 1.6-.8 2.3-4.5 2.4-4.8.6-4.7 4.2-6.5 3.9-6.5-4.8 0-8.9 2.7-10.3 3.9.2-1.1.2-2.3 0-3.5 7.6 1.5 7.4-5 7.4-5.5 0-4.4 2.4-7.6 2.3-7.4-2.1 1.1-4.5 2.6-4.5 2.4 1.6-2.3.2-9.5-.2-9.4-2.3 1.1-4.2 3.7-4.4 3.9-1.1.8-2.1 4.2-2.4 5.3-.3-1-.5-1.9-.8-2.9.5-1.1 0-1.1.2-1.3 8.2-6.1 3.4-13.2 3.4-13.4-.5-2.3.3-4 .2-4-2.7 1-5.2 7.4-5.2 7.1 0-2.1-5.2-3.4-5.2-3.5 1-3.7-2.3-6.3-2.6-6.3-3.4-2.7-1.3-5.8-1.5-5.8-9.4 7.1-1.5 13.5-1.5 13.5s-1.8.2-2.1.2h-.5c.2-1.6.2-3.2-.2-4.2-.2-.3-1 2.4-2.9 3.4-.3.2-3.5 2.4-3.7 3.4s.2-5-5.2-8.5c-.2-.2-1.9 11.8 2.4 14-.6 2.9-1 5.6-1.1 8.5-1-1.5-3.2-4-6.9-3.1-.3 0 1.3 1.3 1.3 5.3 0 .3.3 3.4 3.7 5.8.2.2-3.7-1.5-4.4-1.3-.3.2 0 11.5 9.2 13.2q.9 2.25 2.1 4.2c-2.6-2.1-6.1-4.2-9.7-3.1-.3.2 4 6.1 5 7.6.2.2 2.3 4.2 8.4.8 1.3 1.5 2.6 2.7 4 4-1.5.6-2.4 1-2.4 1l.5 1.5s1.5-.5 3.2-1.5c1.6 1.1 2.6 1.8 2.6 1.8z"
     id="path132" />
  <linearGradient
     id="q"
     x1="194.321"
     x2="305.434"
     y1="813.766"
     y2="813.766"
     gradientTransform="translate(.771 -1122.203)scale(1.6129)"
     gradientUnits="userSpaceOnUse">
    <stop
       offset="0"
       stop-color="#b57017"
       id="stop132" />
    <stop
       offset=".143"
       stop-color="#b77218"
       id="stop133" />
    <stop
       offset=".239"
       stop-color="#be7a1e"
       id="stop134" />
    <stop
       offset=".322"
       stop-color="#c98927"
       id="stop135" />
    <stop
       offset=".395"
       stop-color="#da9f36"
       id="stop136" />
    <stop
       offset=".443"
       stop-color="#e9b245"
       id="stop137" />
  </linearGradient>
  <path
     fill="url(#q)"
     d="M484.2 205.2c-.6-.3-1.5-.6-2.3-1-6.9-2.6-15-4.4-22.9-5.5-15.3-2.3-36.5-3.5-59.8-3.2-23.4.5-44.4 3.2-59.7 6.3-4 .8-8.2 1.8-12.3 3.1l5 10.8c3.4-.8 7.1-1.6 11.1-2.3 14.4-2.4 34.2-3.9 56.1-3.9s41.8 1.5 56.1 3.9c7.3 1.3 13.5 2.7 18.2 4.5 1.1.5 2.3 1 3.4 1.6zm9.2-18.6c-2.9-1-5.2-3.1-6.5-5.8-.6-1.1-1-2.4-1.3-3.4-3.2 2.1-7.3 4-11.9 4.5-8.9 1-13.5-4-15.8-8.9-.8.6-1.8 1.3-2.7 1.8-5 2.6-11.6 3.1-18.1-3.1-2.9-2.7-4.8-5.6-6.1-8.4-.3-.8-.8-1.6-1.1-2.3-4.4 5.2-8.9 8.1-12.6 10.2-6.8 3.7-13.9-.8-17.9-6-1 1.1-1.9 2.3-3.2 3.5-5.2 4.7-10.8 4.7-15.8 2.1-4-2.1-7.4-6.1-10.2-9.7-2.1 4.4-5.3 8.2-7.3 10.6-4.4 5.2-13.2 6-20.8.6-1.3 3.5-4 7.7-10.3 9.2-7.4 1.6-13.9-2.3-17.9-5.3l8.9 18.9c5.3-1.6 11.1-2.9 16.8-3.9 15.3-2.6 36.5-4.2 59.8-4.2 23.4 0 44.5 1.6 59.8 4.2 7.7 1.3 16 3.1 22.7 5.8 1.8.6 3.4 1.5 5 2.3z"
     id="path137" />
  <path
     fill="#B57017"
     d="M375.3 203.2c0-2.9 2.4-5.3 5.3-5.3 3.1 0 5.5 2.4 5.5 5.3s-2.4 5.3-5.5 5.3c-2.9.2-5.3-2.2-5.3-5.3"
     id="path138" />
  <circle
     cx="346"
     cy="206.6"
     r="5.3"
     fill="#B57017"
     id="circle138" />
  <circle
     cx="418.7"
     cy="203.2"
     r="5.3"
     fill="#B57017"
     id="circle139" />
  <path
     fill="#B57017"
     d="M448.1 206.6c0-2.9 2.4-5.3 5.3-5.3 3.1 0 5.5 2.4 5.5 5.3s-2.4 5.3-5.5 5.3c-2.9 0-5.3-2.4-5.3-5.3"
     id="path139" />
  <path
     fill="#E9B245"
     d="M392.6 555.2c2.4-.3 5.3-.5 6.3-.5 1.8 0 8.9.2 10.6 1.6v8.9c-.8-.3-1.6-.5-2.3-.6-1.1-.2-2.6-.5-4-.5v-4c0-2.6-2.4-3.7-4.4-3.7-1.9 0-4.4 1.1-4.4 3.7v4c-.6 0-1.3.2-1.9.2zm-.5-13.1 4-.5v-3.4c1.8-.2 3.5-.2 5.3 0v3.4l5.2.5v-3.4c.8.2 2.1.3 2.7.8v3.7c-2.7-1-7.7-1.3-10.6-1.3-1.8 0-4.4.2-6.6.5zm1.9 2.3c2.1-.2 4-.3 4.8-.3 1.9 0 4.7.2 7.1.5.2 0 .5 0 .8.2v8.5c-3.2-.6-7.1-.6-7.9-.6-.6 0-2.6 0-4.8.2z"
     id="path140" />
  <path
     fill="#B57017"
     d="M399 545.5c1.1 0 2.1 1 2.1 2.1s-1 2.1-2.1 2.1-2.1-1-2.1-2.1c0-1.3 1-2.1 2.1-2.1"
     id="path141" />
  <circle
     cx="399.7"
     cy="585.6"
     r="15.8"
     fill="#FFF"
     id="circle141" />
  <path
     fill="#B57017"
     d="M492.4 170c-.3 10.5 12.1 9.4 11.9 2.9 0-6.5 3.2-7.3 5.5-8.7 2.1-1.6 4.4 1.8 4.4 1.8s.2 0 .8.2c.8.2.5-2.9.5-2.9-1-2.9-.2-10.2 1.8-7.3 4 6.6 14.5 4.2 11-1.9-4-7.1-5.6-4-6.5-5.3-1.5-2.3-8.4-1.6-11.9 1s-4.4 11.1-4.4 11.1l-.8.2s-1.8-3.9-3.5-4c-3.5-.3-8.5 2.4-8.8 12.9"
     id="path142" />
  <path
     fill="#D60019"
     d="M321.5 100.8c2.4 7.9-2.9 11.1-10.8 9.2 1 2.3 1.6 2.9 2.1 3.4 10.5 12.9-1.3 25.8-8.2 36.1-5.2 6.9-9.8 8.2-16.1 3.9l-1.3-.8c-4 2.1-6.5 1.9-8.4-2.3-.2-.3-.5-1.1-.8-1.3-.8.6-2.1 1.3-2.7 1.9 1.6 2.9-.8 6.5-4.2 6-4.8-1.5-3.4-6-1.9-7.1.8-.6 1.6-1.3 2.3-1.9l-.2-2.3c0-4 2.4-6 6.5-6.6-2.7-2.1-2.1-5-2.6-5.3-2.4-.3-3.2-2.1-4.4-4-5 .3-5.6-5-3.4-7.3 2.3-2.3 6.9-.6 6.8 3.4 1 .6 2.4 1 5.8-.5 8.4-.8 5.6 12.7 15.5 5.3 2.3-1.6 19.4-8.7 6.6-15.3-4.2-2.3-7.3-4.2-10.8-7.9-8.4-6.5-15.6-25.5 1.3-22.4-4-6.8-4.7-12.7 4.2-12.7 1.8 0 3.7.2 5.5.5 4 .3 7.1 1.1 10.8 2.4 3.9 1.3 10.3 3.2 26.1 6 8.2.8 10.6-1.6 17.6-3.1 2.3-.5 4.8-.8 8.4-.8 4.8 0 9 .5 13.5 1.8 2.9.8 5.6 1.8 13.2 1.8 2.9 0 6.6-4 9.7-1.9 5.5 3.9 23.7 1 34.4-4.4-.8-2.6 2.4-4.2 3.7-1.3.5 1 1.3 4.7 2.3 5.2 1-1.8-3.4-6.6-.6-10 3.5-4.4 5.8 1.6 11.6-.8 3.5-1.1 6.1-.6 8.2.6v26.1c-1.1-.5-2.6-1.6-4.7-4.2 1 5-1.8 11.1-9.7 7.9-1-.3-3.1-1.6-4-1.6-1.3.3-16 5-19.2 1-.6-.8-.8-1-1.3-.8-1.5 0-2.3.8-3.1 1.8-3.9 4.2-8.1 3.5-12.4 1.9-1.8-.2-4 .2-5.8.5-4.4 1.1-7.9 1.3-13.1 1-5.2-.2-12.1-.8-23.1-1.5-5.8-.2-10.8 1.6-16.5 2.7-5.8 1.3-12.7 1.8-24-1.3-.1 0-1.6-.5-2.8-1"
     id="path143" />
  <path
     fill="#00290C"
     d="M369.2 52.1c-.5-1.8 1.1-2.7 2.3-2.9 1.5 0 2.1.8 2.1.8s-2.6 1.9-2.4.3c-1.2 0-2 1.8-2 1.8"
     id="path145" />
</svg>
