<?xml version="1.0" encoding="UTF-8" standalone="no"?>
<svg
   xml:space="preserve"
   version="1.0"
   viewBox="1 1 300 168.76"
   id="svg6"
   sodipodi:docname="moreirense.svg"
   inkscape:version="1.4.2 (f4327f4, 2025-05-13)"
   xmlns:inkscape="http://www.inkscape.org/namespaces/inkscape"
   xmlns:sodipodi="http://sodipodi.sourceforge.net/DTD/sodipodi-0.dtd"
   xmlns="http://www.w3.org/2000/svg"
   xmlns:svg="http://www.w3.org/2000/svg"><defs
     id="defs6" /><sodipodi:namedview
     id="namedview6"
     pagecolor="#ffffff"
     bordercolor="#000000"
     borderopacity="0.25"
     inkscape:showpageshadow="2"
     inkscape:pageopacity="0.0"
     inkscape:pagecheckerboard="0"
     inkscape:deskcolor="#d1d1d1"
     inkscape:zoom="5.0426643"
     inkscape:cx="149.92075"
     inkscape:cy="84.379997"
     inkscape:window-width="1920"
     inkscape:window-height="1111"
     inkscape:window-x="-9"
     inkscape:window-y="-9"
     inkscape:window-maximized="1"
     inkscape:current-layer="svg6" /><path
     d="m 97.199,1 c 15.25,8.757 31.355,16.86 48.92,19.578 13.338,1.46 26.625,-2.063 38.805,-7.298 7.65,-3.22 14.746,-7.549 21.641,-12.129 -1.71,5.939 -3.472,11.878 -4.077,18.018 -0.553,6.19 -0.654,12.482 -0.1,18.672 29.997,-0.05 59.943,0 89.89,0 2.918,-0.1 5.988,1.259 7.498,3.826 1.56,2.667 1.41,5.938 0.755,8.807 -0.503,2.567 -2.567,4.731 -5.133,5.335 -3.725,0.906 -7.65,0.403 -11.425,0.554 0.05,4.026 -1.36,8.455 -4.63,11.022 -5.034,3.12 -11.224,2.366 -16.81,2.315 -0.051,4.178 -2.517,8.254 -6.543,9.664 -6.644,2.315 -13.79,1.006 -20.736,1.46 -0.051,3.573 -1.813,7.146 -4.882,9.109 -3.02,1.761 -6.644,1.308 -9.965,1.46 -0.504,2.667 -1.31,5.435 -3.473,7.247 -3.574,3.12 -8.657,3.02 -13.086,3.02 -1.51,3.774 -2.365,7.851 -4.127,11.525 -4.026,8.707 -10.267,16.056 -16.81,22.9 -10.56739,11.1623 -21.06957,22.38616 -31.506,33.671 -7.6,-6.24 -14.797,-12.935 -21.743,-19.932 -13.79,-13.589 -24.762,-30.147 -31.96,-48.165 -2.717,0 -5.536,0 -8.203,-0.755 -4.077,-1.359 -7.349,-5.033 -7.802,-9.361 -4.328,-0.302 -9.16,-0.453 -12.582,-3.473 -2.164,-1.761 -2.114,-4.781 -2.214,-7.348 -5.738,0 -11.526,0.05 -17.264,0 -3.472,0.05 -6.392,-2.366 -8.203,-5.134 -1.158,-1.761 -1.208,-3.925 -1.46,-5.888 -5.083,0 -10.519,0.402 -15.099,-2.265 C 20.849,65.12 19.188,60.489 17.628,56.413 13.953,56.161 10.178,56.715 6.505,55.96 4.19,55.557 2.378,53.695 1.623,51.53 0.868,49.316 0.968,46.95 1.069,44.635 c 0.1,-2.617 1.46,-5.385 3.926,-6.391 2.567,-0.957 5.284,-0.755 7.952,-0.755 28.386,-0.05 56.772,-0.151 85.108,-0.151 1.208,-7.399 2.265,-14.848 1.71,-22.347 C 99.262,10.261 98.155,5.681 97.199,1"
     style="fill:#af9713;stroke-width:0.503299"
     id="path1"
     sodipodi:nodetypes="ccccccccccccccccccccccccccccccccccccccccc" /><path
     d="m 106.308,13.834 c 10.318,3.825 20.585,8.003 31.406,10.167 6.442,1.51 13.086,2.214 19.629,1.359 13.991,-1.61 27.379,-6.392 40.415,-11.576 l -0.252,0.302 c -4.127,4.781 -42.931,49.273 -49.121,56.269 -12.583,14.394 -25.166,28.738 -37.698,43.132 -2.114,-4.68 -3.976,-9.462 -5.184,-14.394 -1.761,-6.996 -2.567,-14.193 -3.271,-21.34 -0.504,-4.328 -0.655,-8.657 -0.806,-12.985 -0.05,-10.167 1.51,-20.233 2.819,-30.248 0.805,-6.895 1.41,-13.79 2.063,-20.686"
     style="fill:#145f25;stroke-width:0.503299"
     id="path2"
     sodipodi:nodetypes="cccccccccccc" /><path
     d="m 197.507,14.086 c 0.15,3.825 -0.504,7.6 -0.655,11.374 -0.503,6.392 -0.554,12.834 0.05,19.226 0.504,5.184 1.007,10.368 1.057,15.552 0.253,9.362 1.51,18.824 0.051,28.185 -1.66,10.57 -4.831,21.038 -10.519,30.148 -4.63,8.153 -11.676,14.445 -17.816,21.34 -6.24,6.642 -12.582,13.135 -19.226,19.276 -2.97,-2.316 -6.04,-4.58 -8.959,-7.046 -5.234,-4.278 -10.015,-9.11 -14.696,-13.992 -6.845,-7.146 -12.18,-15.653 -16.105,-24.662 12.532,-14.394 25.114,-28.738 37.697,-43.132"
     style="fill:#ffffff;stroke-width:0.503299"
     id="path3"
     sodipodi:nodetypes="cccccccccccc" /><path
     d="M171.788 35.828c2.063-2.063 5.385-1.711 8.053-1.56-2.82 3.322-5.587 6.694-8.708 9.764.152-2.718-.603-5.687.655-8.204"
     style="fill:#145f25;stroke-width:.50329852"
     id="path5" /></svg>
