<?xml version="1.0" encoding="UTF-8" standalone="no"?>
<svg
   xml:space="preserve"
   viewBox="0 0 75 99"
   version="1.1"
   id="svg7"
   sodipodi:docname="sporting-cp.svg"
   inkscape:version="1.4.2 (f4327f4, 2025-05-13)"
   xmlns:inkscape="http://www.inkscape.org/namespaces/inkscape"
   xmlns:sodipodi="http://sodipodi.sourceforge.net/DTD/sodipodi-0.dtd"
   xmlns="http://www.w3.org/2000/svg"
   xmlns:svg="http://www.w3.org/2000/svg"><defs
     id="defs7" /><sodipodi:namedview
     id="namedview7"
     pagecolor="#ffffff"
     bordercolor="#000000"
     borderopacity="0.25"
     inkscape:showpageshadow="2"
     inkscape:pageopacity="0.0"
     inkscape:pagecheckerboard="0"
     inkscape:deskcolor="#d1d1d1"
     inkscape:zoom="8.5959596"
     inkscape:cx="37.459459"
     inkscape:cy="47.871328"
     inkscape:window-width="1920"
     inkscape:window-height="1111"
     inkscape:window-x="-9"
     inkscape:window-y="-9"
     inkscape:window-maximized="1"
     inkscape:current-layer="g4" /><path
     fill="#FFF"
     d="M37.5 99c11.5-3.9 21-10.4 27.6-18.9 6.3-8.2 9.9-18.3 9.9-30 0-5.6-.3-10.5-1.2-15.1-.8-4.3-1.899-8.3-3.6-12.3-4.4-.2-7.4-.6-9.8-1.2-2.602-.7-4.9-1.9-7.301-3.1-3.801-1.9-7.5-3.8-15.601-3.8-8.1 0-11.8 1.9-15.6 3.8-2.4 1.2-4.7 2.4-7.3 3.1-2.4.7-5.4 1.1-9.8 1.2C3.2 26.8 2 30.7 1.2 35 .3 39.6 0 44.5 0 50.1c0 11.7 3.6 21.9 9.9 30C16.5 88.6 26 95 37.5 99"
     id="path1" /><g
     fill="#008863"
     id="g4"><path
       d="M17.8 30.7q.3-.3.3-.6v-.5c0-.1-.1-.3-.2-.4s-.3-.2-.5-.2-.4 0-.5.1l-.6.3c-.2.1-.4.3-.7.5l-.4.3 1.3 1.6.6-.5c.3-.2.6-.4.7-.6M22.7 79.7c-.2-.2-.3-.3-.5-.4s-.4-.2-.6-.2q-.3-.15-.6 0-.3.001-.6.301c-.2.199-.4.399-.5.599-.2.3-.2.5-.3.8v.7c.1.2.2.4.3.5.2.2.3.3.5.4s.4.199.6.199h.6q.3-.15.6-.301c.2-.199.3-.3.5-.6.2-.301.2-.602.3-.801v-.699c-.1-.198-.2-.298-.3-.498M16.8 76.1l-.5-.5-.3-.3-1.1 1.2.5.5c.2.2.4.3.6.5.2.1.3.2.5.2h.4c.1 0 .2-.101.3-.2v-.6c0-.102 0-.301-.1-.4-.1-.2-.2-.3-.3-.4M33.3 24.9c.3 0 .6-.1.8-.1s.4-.1.6-.2l.3-.3c.1-.1.1-.3.1-.5s-.1-.3-.2-.4-.2-.2-.5-.2c-.2 0-.3-.1-.5 0h-.7l-.9.1.2 1.8zM23.3 28.8c.2.2.4.4.7.5.2.1.5.1.8.1s.6-.1.8-.2c.3-.1.5-.3.7-.5s.4-.4.5-.6c.1-.3.2-.6.2-.9s-.1-.6-.2-1c-.2-.4-.3-.7-.6-.9-.2-.2-.5-.4-.7-.5s-.5-.1-.8-.1-.6.1-.8.2-.5.3-.7.4c-.2.2-.3.4-.5.6-.1.2-.2.5-.2.8s.1.7.2 1c.2.6.4.9.6 1.1M28.9 81.9c-.1-.102-.2-.102-.4-.2-.2-.1-.3-.1-.5-.2l-.7-.2-.5 1.4.6.2c.2.1.5.199.7.199h.5c.2 0 .2-.101.3-.199.1-.102.2-.2.2-.301V82.2c0-.1-.1-.2-.2-.3M56.3 79.7l-1.7-1.3.3 2.1z"
       id="path2" /><path
       d="m 73.5,53.8 c 0.1,-1.1 0.1,-2.3 0.1,-3.399 v -1.5 H 58 c -0.1,-1.1 -0.4,-2.2 -0.6,-3.3 C 57.3,45 57.2,44.5 57.1,43.9 H 73.5 C 73,36.3 71.5,29.9 68.9,23.5 60.1,23.3 57.1,21.8 53.6,20 49.5,18 46,15.8 37.4,15.8 28.7,15.8 25.2,18 21.2,20 17.6,21.8 14.7,23.3 5.9,23.5 3.2,29.9 1.8,36.3 1.3,43.9 h 16.5 c -0.1,0.6 -0.2,1.1 -0.3,1.7 -0.2,1.1 -0.3,2.2 -0.4,3.3 H 1.2 v 1.5 c 0,1.1 0,2.3 0.1,3.398 H 17 c 0,1.7 0.2,3.4 0.5,5 H 1.9 c 0.3,1.7 0.6,3.301 1.1,4.9 h 16 c 0.7,1.8 1.6,3.398 2.7,5 h -17 c 5.5,13.699 17.3,23.699 33,29 15.6,-5.301 27.5,-15.301 33,-29 h -17 c 1.1,-1.5 2,-3.2 2.7,-5 h 16 c 0.398,-1.602 0.8,-3.301 1.1,-4.9 H 57.9 c 0.3,-1.6 0.5,-3.199 0.5,-5 z M 52,69 c -3.4,4.4 -8.3,7.7 -14.3,9.7 H 37.4 C 31.4,76.7 26.5,73.4 23.1,69 19.8,64.8 18,59.5 18,53.5 c 0,-2.8 0.2,-5.3 0.6,-7.6 0.4,-2.3 1.1,-4.5 2,-6.7 l 0.1,-0.3 c 1.8,-0.1 3.6,-0.1 5.3,-0.6 1.2,-0.3 2.3,-0.9 3.4,-1.4 2,-1 3.9,-2 8.2,-2 4.3,0 6.2,1 8.2,2 1.101,0.6 2.2,1.1 3.4,1.4 1.7,0.5 3.5,0.5 5.3,0.6 l 0.1,0.3 c 0.9,2.2 1.5,4.3 2,6.7 0.4,2.3 0.602,4.8 0.602,7.6 C 57.1,59.6 55.2,64.8 52,69"
       id="path3"
       sodipodi:nodetypes="cscccccccssccccccscccccccccccccccccccccssccccsccccccc" /><path
       d="M53.6 39.9c-2.199-.1-3.699-.3-4.8-.6-1.3-.3-2.399-.9-3.6-1.5-1.9-1-3.7-1.9-7.7-1.9s-5.9.9-7.7 1.9c-1.2.6-2.3 1.2-3.6 1.5-1.2.3-2.7.5-4.8.6-.8 2-1.4 4-1.8 6.1-.4 2.3-.6 4.7-.6 7.5 0 5.8 1.8 10.8 4.9 14.9 3.2 4.199 7.9 7.398 13.6 9.3 5.7-2 10.4-5.101 13.6-9.3 3.1-4 4.9-9.1 4.9-14.9 0-2.8-.2-5.2-.6-7.5-.5-2.2-1-4.1-1.8-6.1"
       id="path4" /></g><g
     fill="#008863"
     id="g5" /><g
     fill="#F2BE4B"
     id="g7"><path
       d="M49.5 46.9c.1.1.3.2.6.2.4 0 .9-.1 1.102-.2s.398-.2.6-.2c-.1 0-.398 0-.6.1-.4.1-1.301 0-1.301-.5h.101c.3.1.601.2 1 .2.3 0 .5-.1.7-.2s.3-.2.6-.2c-.3-.2-.6 0-1 0-.3 0-.5-.1-.699-.2-.101-.1-.199-.1-.399-.2-.3-.1-.7-.2-1-.2-.2 0-.5.1-.7.2s-.3.3-.4.5c-.704-.1-1.204.1-1.704.4s-.9.8-1.2 1.4c-.4.8-.4 1.6-.3 2.5.1.8.5 1.6.898 2.4.802 1.5 1.302 2.5 1.602 3.2.3.699.398 1.199.398 1.801 0 .398-.1.8-.3 1.1s-.5.6-.899.7c-.399.2-.801.2-1.199.1q-.75-.15-1.5-.899c-.3-.302-.8-1.102-1.2-2.002-.4-.7-.7-1.5-.7-1.9-.1-.7-.1-1.7-.1-2.7v-.399c-.2.199-.301.301-.4.5s-.2.5-.2.801h-.1c-.2-.202-.4-.602-.4-.902-.1-.399 0-.8.101-1.3.199-.6.301-1.1.301-1.6s-.102-1-.5-1.3V48c.199 0 .5.2.699.4s.399.4.5.7c.101.2.101.4.199.7.2.8.4 1.601 1.301 1.7-.5-.5-.5-1.4-.5-2.2v-1.2c-.101-.5-.301-.8-.501-1.1-.301-.3-.7-.4-1-.4v-.1c.1-.1.199-.2.199-.3.101-.1.301-.2.501-.2s.301 0 .5.1c.102.1.2.1.2.2.2.2.3.4.4.7.2.5.5 1 1 1.1-.2-.3-.2-.6-.2-1 0-.5-.1-1-.5-1.7-.2-.3-.4-.5-.7-.7s-.6-.2-1-.2c0 0-.1 0 0-.1.101-.2.3-.4.5-.5s.4-.1.601-.1c.5.1.699.4 1 .7.199.2.301.5.601.6-.101-.2-.2-.4-.2-.6-.1-.2-.1-.5-.1-.8s-.2-.6-.4-.8c-.3-.2-.6-.4-1-.4-.199 0-.3 0-.5.1-.199 0-.398.1-.6.2H41.6c0-.2 0-.4.102-.6l.3-.3c.101-.1.3-.1.5-.1.399 0 .899.1 1.3.3 0-.2-.1-.4-.199-.5-.199-.2-.301-.3-.601-.3-.399-.1-.8-.1-1.2-.1-.398 0-.8 0-1.1-.1V41c.398-.1.8-.4 1.3-.8-.899.1-1.5-.1-2.101-.2-.699-.2-1.399-.4-2.399.3-.3-.1-.6-.1-.9-.2h-.7c-.2 0-.4.1-.4.2s-.1.1-.1.2 0 .1.1.2.2.2.4.3c.2 0 .5.1.8.1s.7 0 1.2-.1v.1c-.1.2-.5.3-.8.5-.3.1-.6.2-.8.3h-.1c-.2-.3-.5-.5-.9-.5q-.6 0-1.8.3l-.202.3c-.1.1-.1.2 0 .2.1.1.2.1.5.1h.2v.1c-.2 0-.3.1-.4.3-.1.1-.1.2-.1.3s0 .2.1.3.2.2.4.3c.7-.6 1.5-.8 2.2-.7.2 0 .5.1.6.2.2.1.3.2.5.3.2.2.3.5.2.7-.1.4-.2.7-.7.8-.4.1-1.1.1-2.2-.1-.1.2 0 .5.1.7.2.3.5.5.9.7.3-.2.6-.4.8-.6.3-.1.5-.2.7-.2.1 0 .2 0 .2.1.1 0 .1.1.1.2v.2c0 .1-.1.3-.2.4-.3.3-.9.5-1.4.7-.2.1-.3.1-.5.2-.4.2-.8.3-1.1.5s-.4.3-.5.6h.7c.5 0 .9 0 1.6-.2-.1.5-.9.8-1.8 1.1-.4.1-.8.3-1.2.5-.3.2-.7.399-.9.7s-.4.699-.5 1.1c.2 0 .4 0 .7-.1s.7-.3 1.1-.6c.2-.1.4-.2.6-.2.4-.1.8-.199 1.4-.7h.1c-.1.3-.2.6-.3.8-.2.2-.4.5-.6.7s-.7.3-1.1.398c-.1 0-.2 0-.3.102-.4.1-.7.199-1 .199s-.5-.101-.6-.199c-.5.199-1 .5-1.6.898-.2.102-.3.2-.5.301q-.6.45-1.2.601c-.4.2-.8.3-1.3.3-.6 0-1.1-.2-1.5-.5-.4-.2-.8-.4-1.2-.5-.2 0-.3.1-.4.2s-.2.3-.2.5h.5c.2 0 .4 0 .5.1.1.101.2.2.3.4v.1c-.3 0-1 0-1.4.2s-.7.5-.4 1.2c0-.101.1-.2.1-.2 0-.1.1-.1.2-.2.1 0 .3-.1.4-.1.5-.2.7-.3 1.1.2v.1h-.2c-.4.1-.7.3-.8.5-.2.2-.2.5-.2.8v.2c.2-.2.4-.2.5-.2s.2-.1.2-.1c.1-.101.2-.101.2-.2.3-.2.5-.4 1.4-.6.2-.102.3-.102.5-.2.4-.101.7-.3 1.1-.3.3 0 .7.1 1 .199.3.101.7.199 1.1.301-.1-.2-.2-.4-.4-.5-.2-.2-.4-.3-.7-.4v-.1c.3-.301.7-.301 1-.2.4.1.7.2 1.1.399.5.199.8.5 1.2.5s.8 0 1.3-.301c-.5-.1-.8-.398-1-.6-.3-.298-.7-.598-1.3-.498v-.101c.1-.199.3-.301.5-.399.2-.101.4-.101.7-.101s.7.199 1.2.5c.7.399 1.4.801 2.2.801v.1c-.2.2-.5.4-.8.5.1.2.3.5.6.8s.7.601 1 .8.7.301 1.1.5c.4.102.8.2 1.4.301s1.1.301 1.3.5c.3.199.3.399.2.601.199.101.1.399 0 .7-.1.198-.2.398-.4.598-.1.2-.3.4-.4.7-.3.5-.3 1.1-.3 1.8v.1c0 .199.2.398.4.699s.399.5.6.699l.1.102c.5.6.898 1 .8 2.1.399-.3.8-.4 1.1-.4.2 0 .4 0 .601.2.101.101.199.3.301.5.1.3 0 .8-.102 1.3-.2.4-.4.8-.7 1.1s-.6.7-.9.9c-.3.102-.7 0-1 0-.5-.1-1-.199-1.3.2-.1.1-.1.2-.2.3v.5c.2 0 .4 0 .7-.1.5-.1 1-.2 1.2.2q-.151.15-.301.3c-.15.15-.199.2-.301.3q-.15.3-.3.9v.1h.399c.399 0 .801 0 1.101-.3l.3-.3c.2-.2.4-.5.602-.5 0 .2 0 .3.1.399.1.301.1.5-.1.899.398 0 .8-.101 1.1-.3.2-.2.4-.4.4-.602 0-.199-.102-.398-.102-.6-.1-.3-.199-.6-.1-1 .1-.3.199-.6.3-.8s.3-.4.5-.5c.3-.101.601-.3.8-.5s.4-.4.5-.7c-.1 0-.3.1-.398.1-.2 0-.4 0-.5.102h-.102c-.1-.102-.1-.301-.1-.4s.1-.3.199-.5c.101-.1.301-.3.5-.398.203-.1.303-.2.403-.3h.2c.2-.1.7-.199 1.4-.8.199-.2.398-.5.398-.7s0-.5-.199-.699c-.301.601-.899.801-1.301 1-.298.099-.598.199-.698.399h-.1c-.1-.3 0-.7.1-1 .2-.3.5-.6.801-.8.101 0 .199-.1.301-.2.898-.5 1.699-.899 1.6-2-.3.3-.699.4-.898.5h-.602c-.199-.1-.3-.2-.398-.3-.2-.2-.301-.5-.301-.8v-.1c.697.1 1.297.1 1.897-.1.4-.2.8-.5 1-.9-.2.102-.3.2-.5.301s-.4 0-.6-.101v-.1c.6-.3 1-.7 1.199-1.101.301-.5.399-1 .5-1.601 0-.3 0-.601-.101-.899-.101-.301-.2-.699-.399-1C48.9 55.3 48.8 55 48.6 54.7s-.4-.7-.6-1c-.3-.5-.7-1.101-1-1.601s-.6-1.101-.7-1.601c-.2-.6-.3-1.3-.2-1.9.102-.6.301-1.1.7-1.5.2-.2.5-.5.8-.6s.602-.2.9-.1c-.1.3-.1.6 0 .8.1.4.5.7.9.7.699.1 1.199-.1 1.8-.3.3-.1.5-.2.8-.3-.3-.1-.5 0-.8 0-.2 0-.4.1-.601 0-.199-.098-.399-.198-.399-.398-.8.1-.8.1-.7 0-.1 0 0 0 0 0m-11 4.5c.3-.2.6-.5.7-.9.1-.3.1-.7 0-1.1 0 0 .1-.1.1 0 .4.7.5 1.3.4 1.8-.2.5-.5.899-1.101 1.2-.299.2-.599.2-.899.2-.4.102-.8.102-1.3.5h-.1c.2-.6.8-.898 1.4-1.3.2-.1.5-.2.8-.4m-4.8.6c.2-.2.6-.5 1-.6.2-.102.4-.2.7-.301.8-.301 1.4-.601 1.8-1.601h.1q.3.902 0 1.5c-.2.5-.6.8-1.1 1s-.9.2-1.2.3c-.4.102-.8.102-1.3.302h-.1c-.2-.3-.1-.4.1-.6m.6 1.8c-.3-.2-.5-.4-.8-.4v-.1c.8-.399 1.4 0 2 .4.2.2.5.3.8.399v.101c-1 .4-1.5 0-2-.4m.8 1.9s0-.1 0 0c.3 0 .6.1.8.2.3 0 .6.1.9 0 .4 0 .8-.102 1.2-.2.4-.101.8-.2 1.1-.4 0 0 .102 0 .102.101C39 55.7 38.7 56 38.4 56.1q-.6.3-1.2.3c-.4 0-.7-.102-1.1-.2-.5-.1-.8-.3-1-.5m3.5 1.7c-.398 0-.8 0-1.1-.2-.3-.101-.6-.3-.8-.5v-.1c.6.102 1.1.2 1.8.102.7 0 1.3-.102 2-.301 0 0 .1.101 0 .101s-.2.101-.2.2c-.4.298-.8.698-1.7.698m2.2 7.4s-.1 0 0 0c-.3-.5-.5-.899-.7-1.2-.2-.4-.5-.7-.5-1.2 0-.301 0-.7.2-1.102.101-.398.3-.699.601-1h.101c-.101.301-.101.5-.2.801v.801c0 .6.2.898.4 1.3-.002.5.198.9.098 1.6"
       id="path6" /><path
       d="M25.1 45.9c.2.1.5.1.8.2.4.1.7.2.9.4.2.1.3.2.3.4.1.2.1.3 0 .5q0 .3-.3.6c.3 0 .7-.1 1-.2.5-.1.9-.2 1.1-.1v.1c-.2.1-.4.2-.6.4s-.6.5-1.4.9c.3.1.6.2.8.2q.45 0 .9-.3s.1-.1.2-.1c.4-.2 1-.7 1.5-.3v.1c-.5 0-.7.3-1 .7-.2.3-.5.6-.9.8.8.1 1.5 0 2-.3s.9-.8 1.2-1.3.6-.7.8-.9l.2-.2c-.3-.1-.7-.1-1-.1s-.7 0-1-.1c-.4-.1-.7-.2-1-.3s-.6-.3-.9-.4c-.5-.3-.9-.7-1.1-1-.3-.3-.5-.7-.6-.9-.1-.1-.1-.2-.1-.3-.3-.7-.5-1.3-1.5-1.2.2.2.3.5.4.7s.2.5.2.7c0 0-.1.1-.1 0-.2-.5-.6-.9-.9-1.1-.2-.1-.3-.2-.5-.2s-.3 0-.5.1-.3.2-.5.5c.1 0 .2.1.3.1l.1.1c.2.1.3.2.5.3.1.1.2.3.3.4v.1c-.2 0-.3-.1-.5-.2-.2-.2-.5-.3-1-.2.4 1.2.8 1.3 1.9 1.4M37.7 61.6c.2-.6.5-1.3.899-1.898-.301-.102-.601-.102-1 .1q-.45.3-1.2.9h-.1q.3-.75.6-1.2c.2-.3.5-.399.8-.601-.4 0-.8 0-1.2.101-.5.101-1.1.3-1.6.7h-.1c0-.301.2-.602.5-.801.2-.199.6-.301.8-.5.2-.101.4-.199.5-.301.1-.1.2-.1.3-.199-.3 0-.6 0-1 .101-.3 0-.6.101-.9.101h-.5c-.3 0-.6 0-.9.101-.4.1-.8.3-1.1.6-.2.3-.3.601-.3 1.101 0 .399.2.801.4 1.101.2.399.5.8.5 1.399 0 .601-.4.899-.8 1.101-.4.2-1 .2-1.4.2h-.8c-.2 0-.4-.102-.6-.2s-.3-.2-.5-.2c-.2-.1-.5-.3-.8-.3s-.6 0-.9.2c-.2.199-.4.398-.5.6h.5q.6-.15.9 0c.2.102.3.2.3.4v.1h-.5c-.4 0-.7 0-.9.102-.2.1-.4.199-.5.398-.1.2-.2.4-.2.602v.3c0 .101.1.2.1.3.2-.4.5-.6.8-.699.3-.201.7-.201 1.1-.101v.101c-.2.1-.6.399-.8.699-.2.2-.3.5-.4.7.3-.101.6 0 .9 0 .3.101.6.101.8-.101.1-.101.2-.199.2-.301q.3-.298.6-.6c.1-.102.2-.2.3-.2s.2-.101.3-.101h2c.4.101.8.199.9.301 0-.2-.1-.301-.2-.4-.2-.199-.4-.3-.7-.5v-.1c.7-.301 1.3-.102 2 .1.8.301 1.6.5 2.3-.1-.3 0-.5-.2-.7-.4-.3-.199-.7-.5-1.3-.5v-.1c.1-.2.3-.4.5-.5.2-.102.5-.2.8-.2s.7.101.9.2c.4.1.7.199 1.1.199C37.6 63 37.6 62.3 37.7 61.6M30.7 44.3c.3.2.7.3 1.1.3s.8-.2 1.3-.4c.7-.3 1.5-.7 2.5-.6-1.1-.3-2 0-2.8.2-.4.1-.7.2-1 .2-.4 0-.8 0-1-.1q-.45-.15-.6-.3c0 .3.2.5.5.7"
       id="path7" /></g></svg>
