<?xml version="1.0" encoding="UTF-8" standalone="no"?>
<svg
   xml:space="preserve"
   id="Ebene_1"
   x="0"
   y="0"
   version="1.1"
   viewBox="3.4 0.1 342.7 562.8"
   sodipodi:docname="atalanta.svg"
   inkscape:version="1.4.2 (f4327f4, 2025-05-13)"
   xmlns:inkscape="http://www.inkscape.org/namespaces/inkscape"
   xmlns:sodipodi="http://sodipodi.sourceforge.net/DTD/sodipodi-0.dtd"
   xmlns="http://www.w3.org/2000/svg"
   xmlns:svg="http://www.w3.org/2000/svg"><defs
     id="defs21" /><sodipodi:namedview
     id="namedview21"
     pagecolor="#ffffff"
     bordercolor="#000000"
     borderopacity="0.25"
     inkscape:showpageshadow="2"
     inkscape:pageopacity="0.0"
     inkscape:pagecheckerboard="0"
     inkscape:deskcolor="#d1d1d1"
     inkscape:zoom="1.433902"
     inkscape:cx="171.21115"
     inkscape:cy="281.39999"
     inkscape:window-width="1920"
     inkscape:window-height="1009"
     inkscape:window-x="-8"
     inkscape:window-y="-8"
     inkscape:window-maximized="1"
     inkscape:current-layer="Ebene_1" /><style
     id="style1">.st0{fill:#fff}.st2{fill:#1e1e1e}</style><path
     d="M174.7.1c94.7 0 171.4 126 171.4 281.4s-76.7 281.4-171.4 281.4S3.4 436.9 3.4 281.5 80.1.1 174.7.1"
     class="st0"
     id="path1" /><path
     d="M52.1 441.2c28.4 62.2 72.7 102.3 122.5 102.3 85.2 0 154.8-117.7 154.8-262 0-56.8-10.8-109.5-29.1-152.5l-2.9-6.6C269.2 59.9 224.7 19.5 174.7 19.5c-85.2 0-154.8 117.7-154.8 262 0 57.1 10.9 110 29.3 153.1z"
     class="st0"
     id="path2" /><path
     d="M174.7 19.5c49.9 0 94.4 40.4 122.8 102.8L49.3 434.6C30.9 391.5 20 338.6 20 281.5c-.1-144.3 69.5-262 154.7-262"
     style="fill:#0d68b1"
     id="path3" /><path
     d="M300.4 129c18.2 43 29.1 95.7 29.1 152.5 0 144.3-69.5 262-154.8 262-49.8 0-94.2-40.2-122.5-102.3z"
     class="st2"
     id="path4" /><path
     d="M313.2 287.4c.1.4-.9 2-1.6 2.9-14.5 18.5-39.1 25.3-65.4 20.9-28.8-4.9-52.7-24.8-85.7-31.4-2.1-.9 1.7-2 2.2-2.2 3.5-1.1 11-.2 15.5.6 25.6 4.7 49.5 18.5 74.6 21.6 23.9 2.9 41-4.7 58.7-12.3 1-.7 1.6-.5 1.7-.1"
     class="st2"
     id="path5" /><path
     d="M310.2 261.3c.2.2-.1.6-.3 1.1-18.4 35.1-72.4 22.5-112.9 4.8-4.6-2-8.9-4.5-13.7-6.1-10.4-3.5-20.5-3.7-29.5-5.6-.5-.1-1.6-.2-1.6-.5s1.9-1.1 3.8-2c11-5.4 26.4-2.7 41.7 2 16.1 5 32 13.1 47.7 17.1 26.6 6.8 46.2-1.1 64.2-10.7.3-.2.6-.2.6-.1"
     class="st2"
     id="path6" /><path
     d="M305 238c.4.4 0 1 0 1-10.7 16.4-34.1 23-57.1 18.9-8.6-1.5-17.5-5.3-26.5-8.7-24-9.1-52.4-21.4-77.8-17.5-1.1-.8 1.3-2.4 1.8-2.8 8-6.6 22.5-9.6 35.9-7.4 25.2 4.2 49.6 22.3 74.5 26.4 19.7 3.3 33-4.4 47.8-9.8-.1.1 1.1-.3 1.4-.1"
     class="st2"
     id="path7" /><path
     d="M297.2 218.5c.1.4-.6 1.2-.6 1.2-12.9 12.9-31.8 18-53.4 12.8-21.1-5-38.7-19.7-60.3-25.1-15.9-4-30.3-3.2-45.4-2 1.5-4.4 6.8-8.2 11.2-10.2 21.5-9.9 47.9 1.8 70.3 13 10.3 5.1 21 11.1 31.2 13.6 18.2 4.5 31.5-.9 46.3-3.8.1.1.7.2.7.5M301.6 336c-13.9 24.1-59.8 28.1-89.4 7.7-5.4-3.8-10.7-7.9-13.6-13.1-.2-.2-.2-.5-.2-.5.1-.1.4.1.7.2 13.4 4.6 25.2 11.5 39.2 14.9 24.8 6.2 46-.5 61.9-10.1 0 0 .9-.5 1.4-.2.3.4 0 1.1 0 1.1"
     class="st2"
     id="path8" /><path
     d="M310.2 311.6c-23.3 36.7-98.4 23.9-132.2-6.5 0 0-1.4-1.1-1.1-1.4.2-.3 2 .5 2 .5 23.6 8.2 49.8 15.8 72.8 17.9 23.6 2.3 42.8-2.9 58.1-12.2 0 0 .7-.5.9-.2.1.2-.2.9-.5 1.9"
     class="st2"
     id="path9" /><path
     d="M 182.4,130 C 99.5,125.8 28.7,190.2 24.5,273.9 20.3,357.6 84.1,428.8 167.1,433 250.1,437.2 320.8,372.8 325,289.1 329.2,205.5 265.3,134.2 182.4,130 m 127.8,131.3 c 0.2,0.2 -0.1,0.6 -0.3,1.1 -18.4,35.1 -72.4,22.5 -112.9,4.8 -4.6,-2 -8.9,-4.5 -13.7,-6.1 -0.7,-0.2 -1.4,-0.5 -2,-0.6 -0.2,-0.1 -0.5,-0.2 -0.7,-0.2 -0.5,-0.2 -0.9,-0.2 -1.3,-0.4 -0.3,-0.1 -0.5,-0.2 -0.8,-0.2 l -1.2,-0.3 c -0.3,-0.1 -0.6,-0.2 -0.9,-0.2 -0.4,-0.1 -0.8,-0.2 -1.1,-0.2 -0.3,-0.1 -0.6,-0.2 -0.9,-0.2 -0.4,-0.1 -0.7,-0.2 -1.1,-0.2 -0.3,-0.1 -0.6,-0.2 -0.9,-0.2 -0.4,-0.1 -0.7,-0.2 -1.1,-0.2 -0.3,-0.1 -0.6,-0.1 -0.9,-0.2 -0.3,-0.1 -0.7,-0.1 -1,-0.2 -0.3,-0.1 -0.7,-0.1 -1,-0.2 -0.3,-0.1 -0.7,-0.1 -1,-0.2 -0.4,-0.1 -0.7,-0.1 -1.1,-0.2 -0.3,-0.1 -0.6,-0.1 -0.9,-0.2 -0.6,-0.1 -1.2,-0.2 -1.8,-0.2 -0.2,0 -0.5,-0.1 -0.6,-0.1 -0.5,-0.1 -0.9,-0.2 -1.3,-0.2 -0.2,0 -0.5,-0.1 -0.7,-0.1 -0.4,-0.1 -0.8,-0.2 -1.1,-0.2 -0.2,0 -0.5,-0.1 -0.8,-0.1 -0.4,-0.1 -0.8,-0.2 -1.1,-0.2 -0.2,-0.1 -0.5,-0.1 -0.7,-0.2 -0.4,-0.1 -0.8,-0.2 -1.1,-0.2 -0.2,-0.1 -0.5,-0.1 -0.7,-0.2 -0.4,-0.1 -0.8,-0.2 -1.1,-0.2 -0.2,-0.1 -0.5,-0.1 -0.6,-0.2 -0.1,0 -0.2,0 -0.2,-0.1 -0.3,-0.1 -1,-0.2 -1.4,-0.3 H 152 l -0.2,-0.2 c 0,-0.3 1.9,-1.1 3.9,-2 0.2,-0.1 0.4,-0.2 0.5,-0.2 0.1,-0.1 0.2,-0.1 0.3,-0.2 9,-4 20.6,-2.9 32.8,0.2 0.1,0 0.2,0 0.2,0.1 0.5,0.1 0.9,0.2 1.3,0.3 0.2,0 0.2,0.1 0.4,0.1 l 1.2,0.3 c 0.2,0.1 0.3,0.1 0.5,0.2 0.4,0.1 0.8,0.2 1.1,0.3 0.2,0.1 0.3,0.1 0.5,0.2 0.4,0.1 0.8,0.2 1.1,0.3 0.2,0.1 0.3,0.1 0.5,0.2 0.5,0.2 1.1,0.3 1.5,0.5 16.1,5 32,13.1 47.7,17.1 26.6,6.8 46.2,-1.1 64.2,-10.7 0.4,0.2 0.7,0.2 0.7,0.3 M 305,238 c 0.4,0.4 0,1 0,1 -10.7,16.4 -34,23 -57.1,18.9 -8.6,-1.5 -17.5,-5.3 -26.5,-8.7 -24,-9.1 -52.4,-21.4 -77.8,-17.5 -1.1,-0.8 1.3,-2.4 1.8,-2.8 8,-6.6 22.5,-9.6 35.9,-7.4 25.2,4.2 49.6,22.3 74.5,26.4 19.7,3.3 33,-4.4 47.8,-9.8 -0.1,0.1 1.1,-0.3 1.4,-0.1 m -7.8,-19.5 c 0.1,0.4 -0.6,1.2 -0.6,1.2 -12.9,12.9 -31.8,18 -53.4,12.8 -21.1,-5 -38.7,-19.7 -60.3,-25.1 -15.9,-4 -30.3,-3.2 -45.4,-2 1.5,-4.4 6.8,-8.2 11.2,-10.2 21.5,-9.9 47.9,1.8 70.3,13 10.3,5.1 21,11.1 31.2,13.6 18.2,4.5 31.5,-0.9 46.3,-3.8 0.1,0.1 0.7,0.2 0.7,0.5 M 173.8,418.3 H 173 c -1.3,0 -2.6,-0.1 -3.9,-0.2 -18.4,-0.9 -36.1,-5.4 -52.5,-13.4 -15.9,-7.7 -30,-18.2 -41.9,-31.5 -11.9,-13.1 -21,-28.2 -27,-44.8 -6.2,-17.2 -8.9,-35.2 -8,-53.6 2.775423,-56.74198 40.222029,-103.5164 89.7,-121.4 17.2,-6.2 35.2,-8.9 53.6,-8 18.4,0.9 36.1,5.4 52.5,13.4 15.9,7.7 30,18.2 41.9,31.5 3.8,4.3 7.4,8.7 10.7,13.4 -8.6,3.5 -16.7,7.1 -26.3,6.2 -13.3,-1.4 -28.2,-8 -42.3,-14.7 -30.9,-14.9 -64.9,-27.7 -87.5,-6.4 -2,1.9 -5,5.6 -6.5,8.7 -1.1,2.6 -1.1,5.9 -2.8,9 -3,5.7 -9.8,9.8 -14,15.5 -2.3,3 -4.4,5.8 -6.1,9.3 -2.4,5 -4.4,12.4 -7.4,17 -2.8,4.4 -8.1,9.5 -12.5,13.7 -3.5,3.3 -11.5,8.4 -12.5,13.7 -1.3,6.2 6.5,8.3 6.4,13.4 -0.1,3.8 -4.6,6.9 -5.2,10.1 -0.7,3.8 0.9,4.4 2.9,8.3 -0.5,2.2 -3.2,1.1 -3.2,4.1 0.6,3.6 3.2,5.1 3,9.9 -0.3,5.4 -3.9,10 -3.5,14.3 1,11.4 28.1,12.8 41.7,17.3 18.5,6.2 28.5,20 37.9,32.6 2.5,3.3 6.1,7.8 8.9,11.9 1.4,2.1 6.2,10.4 10.1,16.1 40.2,-0.8 74.5,-13.6 106,-45.9 h 7.1 c -32.2,34.1 -67.6,48.8 -108.5,50.5 M 301.6,336 c -13.9,24.1 -59.8,28.1 -89.4,7.7 -0.4,-0.2 -0.7,-0.5 -1.1,-0.8 -0.2,-0.1 -0.2,-0.2 -0.4,-0.2 -0.2,-0.2 -0.5,-0.3 -0.7,-0.5 -0.2,-0.1 -0.2,-0.2 -0.4,-0.3 -0.2,-0.2 -0.5,-0.3 -0.6,-0.5 -0.2,-0.1 -0.3,-0.2 -0.5,-0.3 -0.2,-0.2 -0.4,-0.3 -0.6,-0.5 -0.2,-0.2 -0.3,-0.2 -0.5,-0.4 -0.2,-0.2 -0.4,-0.3 -0.5,-0.5 -0.2,-0.2 -0.3,-0.2 -0.5,-0.4 -0.2,-0.2 -0.4,-0.3 -0.5,-0.5 -0.2,-0.2 -0.3,-0.2 -0.5,-0.4 -0.2,-0.2 -0.4,-0.3 -0.5,-0.5 -0.2,-0.2 -0.3,-0.2 -0.5,-0.4 l -0.5,-0.5 c -0.2,-0.2 -0.3,-0.2 -0.4,-0.4 l -0.5,-0.5 -0.4,-0.4 -0.5,-0.5 c -0.2,-0.2 -0.2,-0.3 -0.4,-0.4 l -0.5,-0.5 c -0.2,-0.2 -0.2,-0.3 -0.4,-0.4 -0.2,-0.2 -0.3,-0.3 -0.4,-0.5 -0.2,-0.2 -0.2,-0.3 -0.4,-0.5 -0.2,-0.2 -0.2,-0.3 -0.4,-0.5 -0.1,-0.2 -0.2,-0.3 -0.3,-0.5 -0.2,-0.2 -0.2,-0.3 -0.4,-0.5 -0.1,-0.2 -0.2,-0.3 -0.3,-0.5 -0.1,-0.2 -0.2,-0.4 -0.3,-0.5 -0.1,-0.1 -0.2,-0.3 -0.3,-0.5 0,-0.1 -0.1,-0.2 -0.1,-0.2 -0.1,-0.1 -0.1,-0.2 -0.1,-0.2 -0.1,-0.2 -0.2,-0.3 -0.2,-0.5 l 0.4,0.2 c 0.2,0 0.3,0.1 0.5,0.2 0.3,0.1 0.7,0.2 1,0.4 0.4,0.2 0.8,0.2 1.1,0.4 0.5,0.2 0.9,0.4 1.4,0.5 0.4,0.2 0.8,0.3 1.1,0.5 0.5,0.2 0.9,0.4 1.4,0.5 0.4,0.2 0.8,0.3 1.1,0.5 0.5,0.2 0.9,0.4 1.4,0.6 0.4,0.2 0.8,0.3 1.1,0.5 0.5,0.2 1,0.4 1.4,0.6 0.4,0.2 0.7,0.3 1.1,0.5 0.5,0.2 1,0.5 1.5,0.7 0.3,0.2 0.7,0.3 1,0.5 0.8,0.3 1.4,0.6 2.2,1 0.4,0.2 0.8,0.3 1.1,0.5 0.5,0.2 1,0.4 1.4,0.6 0.4,0.2 0.8,0.4 1.2,0.5 0.4,0.1 0.8,0.4 1.3,0.5 0.4,0.2 0.8,0.4 1.2,0.5 0.4,0.1 0.8,0.3 1.2,0.5 0.5,0.2 0.8,0.4 1.3,0.5 0.4,0.2 0.8,0.3 1.2,0.5 0.5,0.2 0.9,0.3 1.3,0.5 0.4,0.2 0.8,0.3 1.2,0.5 0.5,0.2 0.9,0.3 1.4,0.5 0.4,0.2 0.8,0.3 1.1,0.4 0.5,0.2 1,0.3 1.5,0.5 0.4,0.2 0.7,0.2 1.1,0.4 0.5,0.2 1.1,0.3 1.7,0.5 l 0.9,0.3 c 0.9,0.2 1.7,0.5 2.6,0.7 24.8,6.2 46,-0.5 61.9,-10.1 0,0 0.9,-0.5 1.4,-0.2 0.6,0.6 0.3,1.3 0.3,1.3 m 8.6,-24.4 c -23.3,36.7 -98.4,23.9 -132.2,-6.5 0,0 -1.4,-1.1 -1.1,-1.4 0.2,-0.3 2,0.5 2,0.5 23.6,8.2 49.8,15.8 72.8,17.9 23.6,2.3 42.8,-2.9 58.1,-12.2 0,0 0.7,-0.5 0.9,-0.2 0.1,0.2 -0.2,0.9 -0.5,1.9 m 1.4,-21.4 c -14.5,18.5 -39.1,25.3 -65.4,20.9 -28.8,-4.9 -52.7,-24.8 -85.7,-31.4 -0.9,-0.4 -0.8,-0.8 -0.2,-1.2 0.6,-0.5 2,-0.9 2.3,-1 3.5,-1.1 11,-0.2 15.5,0.6 25.6,4.7 49.5,18.5 74.6,21.6 23.9,2.9 41,-4.7 58.7,-12.3 1.1,-0.5 1.6,-0.4 1.7,0 0.1,0.3 -0.9,1.9 -1.5,2.8"
     class="st0"
     id="path10"
     sodipodi:nodetypes="csscccccccccccccccccssscccscscscccccccccccccccccccccccccccccccccccccccccccccccccsccccscsccccccccccccccccccccccccccccccccccsscscscsscccscsccscccssccccccccccccccscccscsscscccscccccsccccccccccccccccccccccccc" /><path
     d="m 114.2,479.8 -5.1,-1.7 8.6,-28 -8.9,-2.9 1.2,-3.9 c 6.4,1.6 9.1,1.8 12.6,-4.1 l 3.8,1.2 z m 33.7,-10 c -3.4,-0.5 -8,-2 -7.1,-9.9 0.7,-5.5 4.1,-8.9 8.8,-8.3 5.7,0.8 7.6,5.1 7.1,9.8 -1,8.1 -6.2,8.7 -8.8,8.4 m -1.3,4.5 c 3.7,0.5 7.9,-0.8 9.7,-3.8 l 0.1,0.2 c -2.5,10.4 -5.9,14.8 -11.4,14.1 -4.1,-0.5 -6.2,-3.4 -5.9,-7.6 l -5,-0.6 c -0.5,4 1.2,11.3 10.6,12.5 13.7,1.7 16.7,-16.9 17.2,-21.3 0.8,-6.7 1.1,-19.1 -11.7,-20.8 -8.4,-1.1 -13.6,5 -14.5,12.5 -1.1,8.1 3.5,13.9 10.9,14.8"
     class="st0"
     id="path18"
     sodipodi:nodetypes="cccccccccccccccccccccccc" /><path
     d="M147.9 469.8c-3.4-.5-8-2-7.1-9.9.7-5.5 4.1-8.9 8.8-8.3 5.7.8 7.6 5.1 7.1 9.8-1 8.1-6.2 8.7-8.8 8.4m-1.3 4.5c3.7.5 7.9-.8 9.7-3.8l.1.2c-2.5 10.4-5.9 14.8-11.4 14.1-4.1-.5-6.2-3.4-5.9-7.6l-5-.6c-.5 4 1.2 11.3 10.6 12.5 13.7 1.7 16.7-16.9 17.2-21.3.8-6.7 1.1-19.1-11.7-20.8-8.4-1.1-13.6 5-14.5 12.5-1.1 8.1 3.5 13.9 10.9 14.8M197.1 469c.6 10.4-1.7 16.7-7.4 17.1-5.8.4-8.8-5.7-9.4-16-.6-10.4 1.7-16.7 7.4-17.1 5.8-.3 8.8 5.7 9.4 16m5.4-.3c-.5-8.6-3.5-21-15-20.3-11.5.8-13 13.5-12.5 22.1s3.5 21 15 20.3c11.5-.8 13-13.6 12.5-22.1"
     class="st0"
     id="path19" /><path
     d="M197.1 469c.6 10.4-1.7 16.7-7.4 17.1-5.8.4-8.8-5.7-9.4-16-.6-10.4 1.7-16.7 7.4-17.1 5.8-.3 8.8 5.7 9.4 16m5.4-.3c-.5-8.6-3.5-21-15-20.3-11.5.8-13 13.5-12.5 22.1s3.5 21 15 20.3c11.5-.8 13-13.6 12.5-22.1M209 445.8l26.7-7.8 1.2 4.4c-2.7 5.3-8.4 20.6-6.2 39.2l-5.3 1.6c-1.7-11.3 1.4-27.6 6.3-38.7l-21.2 6.2z"
     class="st0"
     id="path20" /><path
     d="m209 445.8 26.7-7.8 1.2 4.4c-2.7 5.3-8.4 20.6-6.2 39.2l-5.3 1.6c-1.7-11.3 1.4-27.6 6.3-38.7l-21.2 6.2z"
     class="st0"
     id="path21" /></svg>
