<?xml version="1.0" encoding="UTF-8" standalone="no"?>
<svg
   viewBox="0 0.01 162.95 249.98"
   version="1.1"
   id="svg19"
   sodipodi:docname="bologna.svg"
   inkscape:version="1.4.2 (f4327f4, 2025-05-13)"
   xmlns:inkscape="http://www.inkscape.org/namespaces/inkscape"
   xmlns:sodipodi="http://sodipodi.sourceforge.net/DTD/sodipodi-0.dtd"
   xmlns="http://www.w3.org/2000/svg"
   xmlns:svg="http://www.w3.org/2000/svg">
  <defs
     id="defs19" />
  <sodipodi:namedview
     id="namedview19"
     pagecolor="#ffffff"
     bordercolor="#000000"
     borderopacity="0.25"
     inkscape:showpageshadow="2"
     inkscape:pageopacity="0.0"
     inkscape:pagecheckerboard="0"
     inkscape:deskcolor="#d1d1d1"
     inkscape:zoom="3.2282583"
     inkscape:cx="81.62296"
     inkscape:cy="124.99"
     inkscape:window-width="1920"
     inkscape:window-height="1009"
     inkscape:window-x="-8"
     inkscape:window-y="-8"
     inkscape:window-maximized="1"
     inkscape:current-layer="svg19" />
  <style
     id="style1">.shp0{fill:#dedee2}.shp1{fill:#1b2838}.shp2{fill:#fff}.shp3{fill:#9f1f33}</style>
  <path
     d="M77.65.07c-.17.02-1.03.1-1.91.19s-2.23.26-3 .39-1.88.33-2.45.45c-.58.12-1.51.32-2.06.46s-1.54.41-2.2.6c-.66.2-1.58.48-2.05.64-.47.15-1.37.47-2 .7-.64.24-1.76.69-2.51 1-.74.32-1.98.89-2.75 1.26s-2.01 1.01-2.75 1.42c-.75.41-1.85 1.04-2.46 1.4-.6.36-1.7 1.06-2.42 1.54-.73.48-1.75 1.18-2.26 1.55-.51.36-1.51 1.11-2.23 1.67-.71.55-2.09 1.68-3.05 2.5-.96.83-2.97 2.72-4.46 4.21-1.49 1.48-3.32 3.4-4.06 4.25-.75.85-2.01 2.36-2.81 3.35-.79.99-1.9 2.41-2.45 3.15s-1.36 1.87-1.8 2.5c-.45.63-1.23 1.78-1.74 2.55s-1.41 2.19-2 3.15-1.42 2.34-1.83 3.05c-.41.72-1.14 2.01-1.61 2.88-.48.86-1.36 2.55-1.96 3.75-.6 1.19-1.43 2.91-1.86 3.82s-1.17 2.57-1.65 3.7-1.13 2.7-1.45 3.5-.91 2.33-1.31 3.4-1.07 2.96-1.48 4.2c-.42 1.24-.99 2.99-1.27 3.9s-.67 2.17-.85 2.8c-.19.63-.61 2.16-.93 3.4-.33 1.24-.72 2.75-.87 3.35-.14.61-.33 1.35-.41 1.65-.07.3-.2.87-.28 1.25-.09.39-.26 1.22-.4 1.85s-.36 1.71-.5 2.4-.37 1.86-.5 2.6c-.14.74-.35 1.89-.46 2.55s-.29 1.76-.4 2.45-.29 1.9-.4 2.7-.29 2.17-.4 3.05-.29 2.45-.41 3.5C.89 105.8.71 107.71.6 109s-.29 4.13-.4 6.3c-.15 3-.2 5.34-.2 9.7s.05 6.7.2 9.7c.11 2.17.29 5.01.4 6.3s.29 3.21.4 4.25c.12 1.05.3 2.62.41 3.5s.34 2.55.5 3.7c.16 1.16.34 2.35.39 2.65s.19 1.11.3 1.8c.12.69.33 1.86.47 2.6s.36 1.89.49 2.55c.14.66.35 1.72.49 2.35a121.346 121.346 0 0 0 .95 4.2c.23.91.61 2.44.86 3.4s.52 1.95.59 2.2.23.79.34 1.2c.12.41.51 1.72.88 2.9.36 1.18.94 3.01 1.29 4.05.35 1.05.84 2.46 1.09 3.15s.57 1.57.72 1.95c.14.39.59 1.53.99 2.55.41 1.02 1.14 2.8 1.64 3.95.49 1.16 1.14 2.62 1.43 3.25s1.13 2.34 1.86 3.8 1.58 3.12 1.89 3.7a145 145 0 0 0 3.53 6.1c.52.85 1.38 2.2 1.9 3s1.42 2.13 2 2.95a123 123 0 0 0 4.62 6.1c.58.72 1.69 2.02 2.46 2.9s2.5 2.71 3.85 4.06 2.89 2.83 3.41 3.29 1.11.97 1.3 1.14c.19.18.94.79 1.65 1.37.72.58 1.91 1.51 2.66 2.06.74.55 1.78 1.29 2.3 1.65s1.67 1.1 2.55 1.65c.88.54 2.14 1.29 2.81 1.65.66.36 1.85.98 2.65 1.38a74 74 0 0 0 5.46 2.4c.33.12 1.11.39 1.75.61.63.22 1.83.59 2.65.84.83.24 1.91.53 2.4.65.5.11 1.45.32 2.11.45.66.14 1.78.34 2.5.45s1.93.27 2.7.36c.91.11 2.65.18 4.91.21 3.03.04 3.8.02 5.66-.16 1.18-.11 2.87-.32 3.75-.47.88-.14 2.03-.35 2.55-.45.53-.11 1.38-.31 1.91-.44.52-.13 1.31-.33 1.75-.45s1.59-.48 2.55-.79c.97-.32 2.41-.84 3.21-1.16.79-.32 2.08-.86 2.85-1.22.77-.35 2.14-1.03 3.05-1.5s2.33-1.26 3.16-1.76c.82-.49 2.04-1.26 2.7-1.7s1.7-1.15 2.3-1.58c.61-.43 1.83-1.36 2.71-2.06.89-.7 2.1-1.71 2.71-2.23.6-.52 1.34-1.17 1.64-1.44.3-.28 1.57-1.52 2.8-2.76 1.24-1.24 2.87-2.95 3.63-3.8a104 104 0 0 0 4.42-5.35c.51-.66 1.41-1.87 2.02-2.7.6-.82 1.82-2.6 2.71-3.95.88-1.35 2.19-3.42 2.89-4.6.71-1.18 1.75-3.01 2.33-4.05.57-1.04 1.68-3.2 2.47-4.8.79-1.59 1.88-3.89 2.42-5.1.53-1.21 1.13-2.58 1.32-3.05l.69-1.7c.19-.47.66-1.66 1.03-2.65.38-.99.94-2.5 1.24-3.35s.84-2.45 1.21-3.55c.36-1.1.85-2.67 1.1-3.5.25-.82.62-2.08.82-2.8s.4-1.43.45-1.6c.04-.16.37-1.45.72-2.85.36-1.4.82-3.29 1.02-4.2s.41-1.85.47-2.1c.05-.25.32-1.55.58-2.9.27-1.35.51-2.65.55-2.9s.15-.92.26-1.5c.1-.58.27-1.63.38-2.35.12-.71.3-1.95.41-2.75s.29-2.17.4-3.05.3-2.45.41-3.5.29-2.98.4-4.3.28-3.77.37-5.45c.14-2.4.18-4.62.18-10.4 0-5.84-.04-7.99-.18-10.45-.1-1.7-.29-4.4-.43-6a146 146 0 0 0-.75-7.2c-.1-.88-.29-2.27-.4-3.1-.12-.82-.43-2.83-.7-4.45a194 194 0 0 0-1.59-8.4c-.1-.52-.38-1.74-.6-2.7a219 219 0 0 0-2.06-7.95c-.3-1.05-.79-2.69-1.09-3.65s-.78-2.45-1.06-3.3c-.29-.85-.87-2.52-1.3-3.7s-.83-2.26-.89-2.4-.4-.99-.76-1.9-.78-1.96-.94-2.35-.73-1.69-1.26-2.9c-.54-1.21-1.62-3.5-2.41-5.1-.79-1.59-1.89-3.73-2.45-4.75-.57-1.02-1.21-2.16-1.43-2.55-.22-.38-.75-1.26-1.16-1.95a114 114 0 0 0-3.21-5.05c-.52-.77-1.51-2.19-2.2-3.15-.7-.96-1.75-2.38-2.36-3.15-.6-.77-1.62-2.03-2.26-2.8-.65-.77-1.89-2.19-2.77-3.15s-2.41-2.54-3.4-3.5c-.98-.96-2.31-2.2-2.94-2.76-.63-.55-1.62-1.4-2.2-1.89a86.52 86.52 0 0 0-6.11-4.54c-.8-.52-2.2-1.4-3.1-1.94a87 87 0 0 0-3.81-2.06c-1.18-.6-2.47-1.22-2.85-1.38-.39-.17-1.22-.52-1.85-.78-.64-.26-2.15-.81-3.36-1.21s-2.9-.91-3.75-1.13c-.86-.22-2.03-.49-2.61-.61-.57-.11-1.7-.32-2.5-.45S87.84.32 86.71.2C85.04.04 84.03 0 81.3.01c-1.85.01-3.49.04-3.65.06"
     class="shp0"
     id="path1" />
  <path
     d="M 79.6,5.86 C 79.35,5.88 78.47,5.95 77.65,6 76.82,6.06 75.38,6.22 74.44,6.36 73.51,6.5 72.31,6.7 71.79,6.81 c -0.53,0.11 -1.65,0.37 -2.5,0.58 -0.86,0.22 -2.37,0.66 -3.36,0.99 -0.99,0.33 -2.41,0.85 -3.15,1.15 -0.75,0.3 -1.96,0.83 -2.71,1.17 -0.74,0.35 -1.96,0.95 -2.7,1.35 -0.74,0.4 -1.87,1.03 -2.5,1.4 -0.64,0.38 -1.83,1.13 -2.66,1.68 -0.82,0.55 -2.2,1.52 -3.05,2.16 -0.85,0.63 -2.09,1.61 -2.75,2.16 -0.66,0.54 -1.61,1.35 -2.11,1.8 -0.49,0.44 -1.61,1.5 -2.49,2.35 -0.87,0.85 -2.13,2.14 -2.8,2.85 -0.67,0.72 -1.73,1.91 -2.37,2.65 -0.64,0.74 -1.52,1.8 -1.96,2.35 -0.44,0.55 -1.28,1.63 -1.86,2.4 -0.57,0.77 -1.54,2.1 -2.14,2.95 -0.6,0.85 -1.57,2.29 -2.15,3.2 -0.59,0.91 -1.48,2.35 -1.99,3.2 -0.51,0.85 -1.37,2.34 -1.91,3.3 -0.53,0.96 -1.38,2.54 -1.88,3.5 -0.5,0.96 -1.32,2.63 -1.82,3.7 -0.51,1.07 -0.89,2.01 -0.86,2.08 0.03,0.06 0.51,0.8 1.06,1.62 l 1,1.5 v 139.9 c 1.57,2.98 2.34,4.41 2.73,5.1 0.38,0.69 1.2,2.08 1.81,3.1 0.61,1.02 1.81,2.91 2.67,4.2 0.87,1.29 2.1,3.07 2.75,3.95 0.65,0.88 1.68,2.23 2.29,3 0.61,0.76 1.56,1.91 2.1,2.55 0.54,0.63 1.56,1.78 2.27,2.55 0.71,0.77 1.83,1.94 2.49,2.6 l 1.21,1.2 c 0,-115.28 0.04,-148.75 0.08,-148.75 0.04,0 0.7,0.37 1.47,0.83 0.77,0.47 2.15,1.24 3.06,1.72 0.91,0.48 2.31,1.18 3.13,1.56 1.812912,0.843935 3.657609,1.61784 5.53,2.32 0.66,0.24 1.9,0.67 2.75,0.95 0.86,0.28 2.21,0.68 3.01,0.91 0.79,0.22 1.64,0.45 1.87,0.5 l 0.43,0.11 v 153.7 c 2.83,0.92 4.15,1.33 4.75,1.49 0.61,0.17 1.71,0.44 2.46,0.6 0.74,0.17 1.91,0.39 2.6,0.51 0.69,0.11 1.82,0.26 2.5,0.34 0.69,0.08 2.25,0.19 3.46,0.25 1.21,0.06 2.73,0.07 3.38,0.03 l 1.17,-0.07 V 159.5 h 21.73 v 78.3 c 1.36,-0.72 2.47,-1.38 3.35,-1.93 l 1.61,-0.99 -0.05,-80.38 H 84.1 v -18.7 h 26.64 c -0.01,-47.48 0.01,-52.37 0.12,-52.46 0.07,-0.06 0.42,-0.23 0.78,-0.39 0.35,-0.15 1.55,-0.73 2.65,-1.28 1.1,-0.54 2.68,-1.38 3.5,-1.85 0.83,-0.46 2.05,-1.19 2.71,-1.61 0.66,-0.41 1.79,-1.16 2.5,-1.65 0.72,-0.49 1.91,-1.35 2.65,-1.92 0.75,-0.56 1.92,-1.49 2.61,-2.07 l 1.25,-1.04 0.05,64.27 c 27.18,-0.05 27.26,-0.05 27.29,-0.25 0.02,-0.11 0.06,-1.12 0.09,-2.25 0.04,-1.13 0.08,-2.15 0.11,-2.27 l 0.04,-0.23 H 134.57 V 66.65 c 1.26,-1.4 2.1,-2.36 2.68,-3.05 0.57,-0.69 1.62,-2.01 2.32,-2.95 0.7,-0.93 1.68,-2.31 2.17,-3.05 0.5,-0.74 0.98,-1.48 1.08,-1.65 l 0.19,-0.3 c -2.88,-5.81 -4.14,-8.24 -4.64,-9.15 -0.51,-0.91 -1.4,-2.44 -1.98,-3.4 -0.57,-0.96 -1.78,-2.85 -2.67,-4.2 -0.9,-1.35 -2.16,-3.17 -2.81,-4.05 -0.64,-0.88 -1.7,-2.25 -2.33,-3.05 -0.64,-0.8 -1.55,-1.9 -2.02,-2.45 -0.47,-0.55 -1.26,-1.45 -1.75,-2 -0.5,-0.55 -1.6,-1.71 -2.46,-2.59 -0.85,-0.87 -2.18,-2.15 -2.95,-2.85 -0.77,-0.71 -2.01,-1.79 -2.76,-2.4 -0.74,-0.62 -1.93,-1.57 -2.65,-2.11 -0.72,-0.54 -1.93,-1.41 -2.7,-1.93 -0.77,-0.52 -2.13,-1.38 -3.01,-1.91 -0.88,-0.53 -2.48,-1.41 -3.55,-1.95 -1.08,-0.54 -2.49,-1.22 -3.16,-1.51 C 100.91,9.81 99.72,9.33 98.92,9.03 98.12,8.73 96.88,8.31 96.17,8.09 95.45,7.87 94.17,7.51 93.31,7.3 92.46,7.09 91.29,6.82 90.71,6.71 90.13,6.6 88.98,6.42 88.16,6.31 87.33,6.2 86.09,6.06 85.4,6 84.72,5.94 83.23,5.88 82.1,5.86 80.97,5.84 79.85,5.84 79.6,5.86"
     class="shp1"
     id="path2"
     sodipodi:nodetypes="cccccsccscccccccsscscscsccccccscsccsccscscccccccccccscccccccccccccccccccccccccccccccccccccsccccsssccsccsccsc" />
  <path
     d="M59.62 24.51c-.22.05-.8.3-1.3.54-.49.25-1.3.75-1.8 1.12-.49.38-1.34 1.11-1.88 1.63l-.98.95c.06 8.24.06 8.3.26 8.26.11-.01.8-.32 1.55-.68.74-.35 1.8-.92 2.35-1.25.55-.34 1.41-.91 1.9-1.28.5-.37 1.31-1.1 1.81-1.61.64-.67 1.02-1.17 1.31-1.74.23-.44.47-1 .54-1.25.06-.25.12-.74.12-1.1s-.06-.85-.12-1.1c-.07-.25-.23-.66-.36-.92a5.3 5.3 0 0 0-.57-.85c-.18-.2-.55-.47-.82-.6a2.3 2.3 0 0 0-1.06-.22c-.3.01-.73.05-.95.1"
     class="shp1"
     id="path4" />
  <path
     d="M60.87 41.55c-.35.07-1.01.25-1.45.4-.44.14-1.23.47-1.75.71-.52.25-1.38.74-1.9 1.09s-1.14.79-1.38.99l-.42.36v6.8c1.97.04 3.32.02 4.25-.02.94-.03 2.18-.14 2.75-.23.58-.09 1.42-.25 1.86-.36s1.03-.29 1.32-.4c.29-.1.81-.33 1.16-.5.39-.2.88-.58 1.33-1.03.6-.61.74-.81.92-1.38.12-.38.22-.9.22-1.18 0-.27-.07-.83-.16-1.22-.08-.4-.32-1.07-.51-1.48a4.8 4.8 0 0 0-.97-1.36c-.35-.35-.84-.71-1.16-.86-.3-.14-.79-.31-1.08-.37s-.94-.11-1.45-.1c-.51 0-1.22.07-1.58.14"
     class="shp1"
     id="path6" />
  <path
     d="M19.44 56.93c-.3.67-.93 2.17-1.42 3.32-.48 1.16-1.24 3.09-1.7 4.3-.45 1.21-1.29 3.6-1.86 5.3a164 164 0 0 0-3.04 10.25c-.28 1.07-.73 2.94-1.01 4.15s-.8 3.64-1.15 5.4-.84 4.48-1.09 6.05-.59 3.89-.76 5.15c-.16 1.27-.41 3.36-.55 4.65-.13 1.29-.36 3.88-.49 5.75-.14 1.87-.27 3.9-.3 4.5-.03.61-.11 2.92-.17 5.15-.09 3.05-.09 5.06 0 8.15.06 2.26.14 4.57.17 5.15s.12 2.02.2 3.2.21 2.94.29 3.9c.09.96.22 2.4.31 3.2.08.8.24 2.19.35 3.1s.31 2.44.44 3.4c.14.96.43 2.85.66 4.2.22 1.35.66 3.78.99 5.4.32 1.62.8 3.85 1.05 4.95s.71 2.95 1 4.1c.3 1.16.84 3.11 1.19 4.35.36 1.24.97 3.26 1.37 4.5.39 1.24 1.07 3.24 1.5 4.45s1.11 3.03 1.5 4.05 1.07 2.68 1.5 3.7 1.14 2.64 1.58 3.6 1.09 2.33 1.44 3.05l.64 1.3.05-139.75c-1.58-2.36-2.06-3.08-2.09-3.12-.04-.04-.31.47-.6 1.15"
     class="shp3"
     id="path7" />
  <path
     d="M142.55 56.35c-.15.25-.28.5-.28.55a.1.1 0 0 1-.1.1c-.05 0-.1.07-.1.15s-.04.15-.1.15c-.05 0-.1.06-.09.13 0 .06-.09.22-.2.35-.12.12-.21.27-.21.32 0 .06-.03.1-.07.1s-.21.22-.38.5c-.16.27-.33.5-.37.5s-.08.05-.08.1-.05.16-.12.24c-.07.07-.2.24-.28.36s-.25.34-.38.48c-.12.15-.35.45-.5.67s-.39.54-.54.7c-.16.16-.28.32-.28.35.01.03-.1.17-.22.31-.13.15-.34.41-.48.58-.14.18-.34.43-.45.55-.11.13-.33.39-.49.57-.15.19-.47.56-.7.82-.23.27-.67.76-.99 1.1l-.58.62.01 64.15c20.08 0 22.44-.03 22.49-.12.04-.07.06-2.56.06-5.53s-.05-6.52-.12-7.9c-.06-1.37-.13-2.84-.16-3.25s-.12-1.72-.2-2.9c-.09-1.18-.24-3.07-.35-4.2s-.34-3.15-.5-4.5c-.17-1.35-.46-3.51-.65-4.8s-.53-3.36-.75-4.6c-.23-1.24-.59-3.15-.81-4.25-.23-1.1-.61-2.88-.86-3.95-.24-1.07-.63-2.67-.85-3.55s-.6-2.34-.85-3.25-.76-2.69-1.14-3.95-1.07-3.42-1.53-4.8c-.47-1.37-1.15-3.31-1.52-4.3a149 149 0 0 0-2.91-7.2c-.36-.82-.68-1.58-.7-1.67-.03-.1-.12-.18-.22-.18s-.3.2-.45.45"
     class="shp2"
     id="path8" />
  <path
     d="M44.71 58.46c-.05.04-.08.13-.07.21.01.09.15.12.44.11.35-.01.37-.02.1-.05-.2-.02-.34-.09-.35-.19-.02-.09-.07-.13-.12-.08m14.36.41c.53.02 1.4.02 1.95 0 .56-.01.13-.03-.95-.03-1.07 0-1.52.02-1 .03"
     class="shp0"
     id="path9" />
  <path
     d="M85.61 62.63c-.03.03-.24.09-.46.12-.22.04-.64.19-.95.34-.3.15-.68.35-.85.46-.16.11-.55.45-.85.76-.3.32-.65.7-.77.86-.13.15-.23.34-.23.41 0 .06-.03.12-.08.12-.04 0-.21.3-.39.67-.18.38-.39.88-.48 1.13s-.18.54-.2.65-.07.31-.1.45-.08.41-.11.6c-.04.19-.08.49-.1.65-.02.17-.04.73-.05 1.25 0 .52.02 1.18.05 1.45.04.28.08.61.1.75s.07.36.11.5l.11.5c.03.14.07.27.09.3s.07.16.1.3.23.61.45 1.05.46.89.53.99c.06.11.17.26.22.34.06.08.45.5.88.93.42.44.84.79.92.79.09 0 .15.03.15.08 0 .04.14.14.32.22.19.08.38.15.43.16.06.01.31.08.55.16.25.08.75.13 1.11.12.35-.01.8-.05 1-.09.19-.03.68-.23 1.09-.43.46-.23.97-.59 1.35-.97.34-.33.76-.81.94-1.07.18-.27.32-.52.32-.58 0-.05.04-.1.08-.1.04.01.13-.13.2-.3.07-.16.12-.32.12-.35s.08-.2.17-.37c.09-.18.19-.4.23-.48s.1-.3.14-.47c.03-.18.07-.36.07-.4.01-.05.05-.15.1-.23.04-.08.11-.42.15-.75.05-.33.08-1.21.08-1.95s-.03-1.53-.06-1.75c-.04-.22-.1-.56-.14-.75-.03-.19-.1-.43-.15-.53-.05-.09-.06-.17-.04-.17.03 0-.03-.24-.13-.52-.1-.29-.26-.65-.35-.81-.09-.15-.13-.27-.09-.27.04.01.02-.05-.05-.12-.06-.07-.22-.32-.35-.55-.12-.23-.34-.57-.48-.75s-.43-.51-.65-.73-.51-.48-.63-.57c-.12-.1-.27-.18-.32-.18-.06 0-.1-.03-.1-.07 0-.05-.17-.16-.37-.26-.21-.1-.4-.17-.43-.17-.03.01-.19-.04-.35-.1-.17-.07-.39-.14-.5-.16-.11-.03-.45-.08-.75-.11-.31-.03-.58-.03-.6 0m14.21.1c-.03.03-.27.07-.55.1-.27.03-.61.09-.75.12l-.5.11c-.14.03-.3.09-.35.12-.06.04-.12.07-.15.07s-.25.09-.48.2c-.24.11-.43.23-.42.28 0 .04-.06.07-.13.07s-.33.21-.58.48c-.25.26-.54.61-.65.77-.11.17-.31.59-.45.95-.2.55-.24.83-.24 1.8 0 .63.03 1.24.06 1.35s.11.4.19.65c.07.25.19.52.26.6s.13.18.13.23c.01.04.06.14.13.23s.27.31.44.48.39.37.48.44c.09.06.3.21.48.32.18.1.64.29 1.03.41s.77.24.85.26.33.06.55.1.64.06.93.05c.41-.02.52.01.52.13 0 .08-.05.25-.11.37-.06.13-.14.25-.18.28-.03.03-.14.17-.23.33-.1.15-.4.38-.68.52-.27.14-.69.32-.92.39-.3.11-.76.14-1.53.12-.61-.02-1.2-.07-1.33-.1-.22-.06-.22-.05-.23 1.07v1.12c.82.27 1.26.38 1.51.42.25.03.74.06 1.1.06s.81-.03 1-.06c.19-.04.46-.09.6-.12s.37-.08.5-.11c.14-.03.41-.12.6-.21.2-.08.49-.21.65-.29.17-.08.4-.2.51-.27.12-.07.34-.21.5-.32s.61-.52.99-.91c.39-.39.75-.78.81-.86.05-.08.15-.23.22-.34.06-.1.25-.47.42-.81.17-.35.31-.66.32-.7 0-.05.04-.13.09-.18s.11-.21.14-.35l.11-.5c.04-.14.11-.43.15-.65.05-.22.07-.98.06-1.7-.02-.71-.07-1.46-.1-1.65-.04-.19-.1-.42-.13-.5a1.7 1.7 0 0 1-.09-.3c-.02-.08-.2-.49-.41-.9a5 5 0 0 0-.99-1.35c-.34-.33-.69-.66-.78-.72a.8.8 0 0 0-.21-.13c-.03 0-.18-.09-.33-.2-.15-.12-.34-.22-.42-.23-.09-.02-.26-.08-.38-.15s-.23-.1-.23-.07-.12 0-.27-.06-.37-.13-.48-.15-.38-.06-.6-.1c-.22-.03-.42-.04-.45-.01m-29.75.23a.4.4 0 0 1-.18.07c-.09.02-.4.11-.71.2-.3.09-.76.3-1.02.47-.26.16-.74.56-1.07.88-.32.31-.68.73-.8.92-.11.19-.26.46-.32.6-.07.14-.17.38-.25.55-.07.16-.16.5-.2.75s-.07.81-.07 1.25.02.96.06 1.15c.03.19.08.47.11.62.03.16.11.4.18.56.06.15.13.34.14.42.02.08.16.33.31.55s.48.6.73.85.72.59 1.05.75c.52.26.72.29 1.46.29.46 0 1.12-.03 1.45-.07.33-.05.62-.1.65-.12s.17-.06.32-.09l.55-.11c.16-.03.34-.08.4-.1.08-.03.13.03.13.15 0 .11-.08.49-.18.85-.09.36-.2.65-.25.65-.04 0-.07.05-.07.1 0 .06-.1.2-.23.32-.12.13-.41.32-.62.42-.22.11-.47.21-.55.23-.09.02-.47.04-.85.04-.39 0-.81-.03-.93-.06s-.3-.07-.4-.09-.51-.16-.93-.31c-.41-.15-.92-.36-1.12-.46-.21-.11-.42-.19-.48-.19s-.1.49-.1 1.28c-.01.92.03 1.3.12 1.39.07.06.47.29.88.51.42.21.91.44 1.1.5.2.07.47.15.6.18.14.03.39.08.56.11.16.03.72.06 1.25.06.52.01 1.06-.02 1.2-.05s.37-.11.52-.17c.16-.06.28-.09.28-.06s.28-.1.63-.27c.34-.18.68-.39.75-.45.08-.07.17-.13.2-.13.04 0 .28-.21.54-.47.26-.27.58-.6.71-.75.12-.15.41-.64.63-1.1.23-.46.47-1.01.54-1.23s.15-.49.17-.6c.01-.11.06-.38.1-.6s.08-1.12.08-2-.03-1.8-.07-2.05-.1-.58-.13-.75c-.03-.16-.2-.7-.37-1.2-.16-.49-.37-1.05-.46-1.23s-.2-.32-.24-.32-.08-.07-.08-.15-.04-.15-.1-.15c-.05 0-.1-.06-.09-.13 0-.06-.28-.4-.63-.75-.35-.34-.69-.62-.75-.62-.07 0-.13-.03-.13-.07.01-.05-.25-.2-.57-.35s-.72-.3-.88-.34c-.17-.04-.8-.08-1.42-.1-.61-.01-1.13-.01-1.15.02m-10.93.57c-.14.23-.38.53-.53.67-.16.14-.54.36-.84.49s-.64.25-.75.27l-.48.09-.27.05v2.1c1.2-.07 1.64-.11 1.75-.14.11-.02.25-.05.32-.05.06-.01.19-.08.27-.16.15-.14.16.27.16 4.45v4.6c.51.22.97.4 1.35.55.39.15.79.3.9.35.12.04.33.12.48.19l.55.22c.15.06.36.15.45.2.1.05.2.09.23.09.02 0 .05-3.17.05-7.05 0-4.6-.04-7.07-.1-7.1s-.5-.07-.98-.1-1.2-.07-1.6-.1l-.72-.04z"
     class="shp2"
     id="path10" />
  <path
     d="m56.19 66.13.02 1.12c.06-2 .08-2.16.23-2.19.13-.03.11-.04-.05-.05-.22-.01-.22.01-.2 1.12"
     class="shp0"
     id="path11" />
  <path
     d="M70.49 65.93c-.2.07-.5.23-.68.35-.2.13-.43.45-.59.8-.24.52-.26.66-.23 1.48.04.79.08.97.35 1.4.21.34.44.56.75.72.25.13.63.22.87.22s.57-.06.75-.13c.18-.08.5-.29.71-.48s.48-.54.59-.79c.15-.31.21-.63.2-1.05 0-.35-.1-.85-.24-1.2-.12-.33-.36-.73-.53-.9-.17-.16-.48-.36-.7-.42-.22-.07-.52-.13-.65-.12-.14 0-.41.05-.6.12m28.88.11c-.3.15-.61.4-.77.63-.15.21-.32.58-.38.83-.07.25-.09.62-.06.83.03.2.15.54.25.75.11.2.32.49.48.64.15.15.41.32.56.37.15.06.48.11.72.11.25 0 .58-.06.73-.14.15-.07.41-.29.58-.47.17-.19.39-.56.49-.84.14-.37.17-.63.12-1a3 3 0 0 0-.32-.92c-.13-.24-.41-.54-.62-.68-.21-.13-.58-.27-.83-.3-.35-.05-.55-.01-.95.19m-14.29.46c-.3.19-.61.51-.85.88-.2.31-.48.91-.62 1.32-.23.68-.25.9-.25 2.4 0 1.55.01 1.7.28 2.45.15.44.45 1.05.65 1.34.2.31.56.67.81.83.32.2.59.28.88.28.23 0 .59-.08.8-.19.21-.1.52-.35.7-.55s.46-.62.62-.93c.16-.32.37-.87.47-1.23.13-.48.18-1.01.18-2 0-.98-.05-1.53-.18-2-.1-.36-.32-.94-.49-1.29-.18-.35-.51-.81-.75-1.02-.23-.22-.54-.43-.67-.49-.14-.05-.45-.1-.68-.1-.3 0-.57.09-.9.3"
     class="shp1"
     id="path12" />
  <path
     d="M128.25 72.55c-.68.59-1.85 1.53-2.6 2.09-.74.57-1.93 1.43-2.65 1.92-.71.49-1.84 1.24-2.5 1.65-.66.42-1.88 1.15-2.71 1.61-.82.47-2.4 1.31-3.5 1.85-1.1.55-2.3 1.13-2.65 1.28-.36.16-.71.33-.78.39-.11.09-.13 4.98-.13 26.29l.01 26.17H84.1v18.7h26.64c0 72.22.02 80.29.12 80.26.07-.02.6-.36 1.18-.76.58-.41 1.41-1.01 1.85-1.34s1.34-1.03 2-1.57c.66-.53 1.79-1.47 2.51-2.1.71-.62 2.29-2.12 3.5-3.34 1.22-1.21 2.88-2.96 3.7-3.9.82-.93 2.04-2.4 2.72-3.25l1.24-1.55V154.5l25.22.05c.16-.93.34-2.14.5-3.3.17-1.16.39-2.84.5-3.75.12-.91.32-2.8.46-4.2.13-1.4.32-3.48.4-4.62.08-1.15.15-2.26.15-2.48v-.4h-27.23l-.07-64.31z"
     class="shp3"
     id="path13" />
  <path
     d="M66.22 76.25c0 .72.02.99.04.6.01-.38.01-.97 0-1.3-.02-.33-.04-.01-.04.7"
     class="shp0"
     id="path14" />
  <path
     d="M42.45 152.68v74.37c1.97 1.78 3.13 2.79 3.85 3.39.72.61 1.98 1.6 2.81 2.21.83.62 1.93 1.41 2.45 1.77.53.36 1.5.99 2.16 1.4.66.42 1.76 1.07 2.45 1.45.69.39 1.88 1.02 2.65 1.4.77.39 2.1 1 2.96 1.36.85.36 1.65.68 1.77.71l.23.06V87.2c-.66-.16-1.51-.39-2.3-.61-.8-.23-2.15-.63-3.01-.91-.85-.28-2.09-.71-2.75-.95s-1.85-.71-2.63-1.04c-.78-.32-2.09-.9-2.9-1.28-.82-.38-2.22-1.08-3.13-1.56S44.77 79.6 44 79.13c-.77-.46-1.43-.83-1.47-.83s-.08 33.47-.08 74.38"
     class="shp3"
     id="path15" />
  <path
     d="M105.6 85.38c.1.05.13 4.95.15 22.72l.03 22.65c.05-44.31.04-45.45-.13-45.45-.12 0-.13.03-.05.08"
     class="shp0"
     id="path16" />
  <path
     d="M105.42 85.44c-.02.03-.19.07-.37.1s-.42.1-.55.15c-.12.05-.26.09-.3.1-.04 0-.31.1-.6.21s-.68.23-.87.26c-.2.03-.41.11-.48.17-.08.07-.13.09-.13.05 0-.05-.12-.03-.27.03s-.35.13-.45.15-.25.06-.35.08-.38.1-.63.17c-.24.07-.49.14-.55.15-.05.02-.21.06-.35.09l-.5.11c-.14.03-.43.1-.65.15s-.49.11-.6.14c-.11.02-.31.06-.45.1-.14.03-.34.08-.45.1s-.31.06-.45.09c-.14.04-.43.09-.65.11-.22.03-.47.08-.55.1-.09.03-.27.07-.4.1-.14.03-.41.08-.6.11l-.61.09c-.13.02-.43.07-.65.1s-.51.08-.65.1c-.13.02-.43.07-.65.1s-.62.08-.9.11c-.27.03-.61.07-.75.08-.14.02-.54.06-.9.1-.36.03-.92.08-1.25.11s-.94.08-1.35.12c-.42.03-1.07.07-1.46.08-.38.01-.75.02-.82.03-.1.02-.13 4.25-.13 20.77v20.75h21.63c0-41.55-.02-45.4-.13-45.4-.08 0-.16.02-.18.04"
     class="shp2"
     id="path17" />
  <path
     d="m129.56 185.73-.01 31.22c.99-1.32 1.59-2.13 1.96-2.65.38-.52 1.22-1.74 1.88-2.7l1.18-1.75V159.5l19.36-.05c.19-1.08.38-2.17.54-3.1.17-.93.28-1.73.26-1.77-.02-.05-5.69-.08-12.61-.08h-12.56z"
     class="shp1"
     id="path18" />
  <path
     d="M84.1 201.8v42.3c1.13-.09 1.91-.16 2.46-.21.55-.06 1.45-.17 2-.25a59 59 0 0 0 4.2-.8c.61-.14 1.78-.45 2.61-.69.82-.24 2.2-.69 3.05-1s2.18-.83 2.95-1.17c.78-.33 2.07-.94 2.88-1.34l1.48-.74v-78.4H84.1zm50.47-17.25c0 16.63.03 25.05.1 25.05.05 0 .18-.15.28-.32.11-.18.56-.94 1.02-1.68.45-.74 1.26-2.11 1.8-3.05.54-.93 1.48-2.67 2.11-3.85.62-1.18 1.34-2.6 1.6-3.15s.73-1.54 1.04-2.2c.32-.66 1.05-2.3 1.63-3.65s1.3-3.08 1.6-3.85.84-2.19 1.2-3.15.92-2.54 1.25-3.5c.32-.96.89-2.7 1.25-3.85.35-1.15.92-3.04 1.25-4.2.32-1.15.86-3.16 1.18-4.45s.75-3.07.95-3.95c.19-.88.52-2.39.71-3.35s.35-1.78.35-1.82c0-.05-4.35-.08-9.66-.08h-9.66z"
     class="shp2"
     id="path19" />
</svg>
