<?xml version="1.0" encoding="UTF-8" standalone="no"?>
<svg
   width="247.968"
   height="300"
   version="1.1"
   id="svg12"
   sodipodi:docname="cagliari.svg"
   inkscape:version="1.4.2 (f4327f4, 2025-05-13)"
   xmlns:inkscape="http://www.inkscape.org/namespaces/inkscape"
   xmlns:sodipodi="http://sodipodi.sourceforge.net/DTD/sodipodi-0.dtd"
   xmlns="http://www.w3.org/2000/svg"
   xmlns:svg="http://www.w3.org/2000/svg">
  <sodipodi:namedview
     id="namedview12"
     pagecolor="#ffffff"
     bordercolor="#000000"
     borderopacity="0.25"
     inkscape:showpageshadow="2"
     inkscape:pageopacity="0.0"
     inkscape:pagecheckerboard="0"
     inkscape:deskcolor="#d1d1d1"
     inkscape:zoom="2.69"
     inkscape:cx="123.9777"
     inkscape:cy="150"
     inkscape:window-width="1920"
     inkscape:window-height="1009"
     inkscape:window-x="-8"
     inkscape:window-y="-8"
     inkscape:window-maximized="1"
     inkscape:current-layer="g12" />
  <defs
     id="defs1">
    <clipPath
       id="a"
       clipPathUnits="userSpaceOnUse">
      <path
         d="M442.559 41.002H531v106.999h-88.441z"
         id="path1" />
    </clipPath>
  </defs>
  <path
     d="M136.425 1076.958V910.245h275.798v333.427H136.425z"
     style="fill:#fdfdfe"
     transform="translate(-54.871 -602.132)"
     id="path2" />
  <g
     clip-path="url(#a)"
     transform="matrix(2.80377 0 0 -2.80377 -1240.835 414.96)"
     id="g12">
    <path
       d="M0 0c26.509 15.973 44.221 44.904 44.221 77.945a90.7 90.7 0 0 1-2.487 21.038c-12.867 5.166-26.926 8.016-41.657 8.016a111.5 111.5 0 0 1-41.833-8.108 90.7 90.7 0 0 1-2.465-20.946C-44.221 44.904-26.509 15.973 0 0"
       style="fill:#fff;fill-opacity:1;fill-rule:nonzero;stroke:none"
       transform="translate(486.78 41.002)"
       id="path3" />
    <path
       d="M0 0a108.1 108.1 0 0 1-40.477-7.86 88 88 0 0 1-2.39-20.305c0-32.028 17.17-60.074 42.867-75.558z"
       style="fill:#b01028;fill-opacity:1;fill-rule:nonzero;stroke:none"
       transform="translate(486.78 146.369)"
       id="path4" />
    <path
       d="M0 0h-.075v-103.723C25.622-88.24 42.792-60.194 42.792-28.165c0 7.023-.85 13.845-2.41 20.394C27.909-2.763 14.28 0 0 0"
       style="fill:#082242;fill-opacity:1;fill-rule:nonzero;stroke:none"
       transform="translate(486.854 146.37)"
       id="path5" />
    <path
       d="M0 0q-.002 3.758-.339 7.43a108.5 108.5 0 0 1-32.409 4.926c-11.35 0-22.289-1.747-32.563-4.976A81 81 0 0 1-65.646 0c0-26.583 12.901-50.172 32.823-64.935C-12.901-50.172 0-26.583 0 0"
       style="fill:#fff;fill-opacity:1;fill-rule:nonzero;stroke:none"
       transform="translate(519.602 113.618)"
       id="path6" />
    <path
       d="M0 0c.078.103.212.286.463.541.25.255.617.584 1.162.977s1.267.851 2.23 1.367c.577.308 1.141.583 1.682.829a31 31 0 0 0 2.928 1.157c.424.145.811.266 1.151.372 0 0 .09.343-.058.678-.149.335-.536.664-1.492.635-.766-.023-1.26.1-1.805.173-.545.074-1.141.1-2.107-.115a3.9 3.9 0 0 1-1.247-.507c-.349-.215-.673-.47-1.09-.746-.51-.338-.845-.472-1.129-.625s-.514-.326-.809-.745c-.296-.422-.312-.749-.3-1.128.011-.379.049-.809-.135-1.436C-.792.626 0 0 0 0m11.85-.072c-.05.084-.39.526-.467.714-.076.187-.505.611-.3 1.061.066.144.044.403-.017.7 0 0-.18-.021-.498-.069a33.835 33.835 0 0 1-3.203-.631c-.69-.17-1.43-.378-2.173-.625a38 38 0 0 1-2.55-.95 31 31 0 0 1-1.621-.727C.649-.781.452-.89.452-.89c-.301-.574-.201-.885.025-1.07.227-.185.669-.226.79-.311.554-.394.537-1.389.388-1.857-.149-.469-.414-.788-.317-.969s.485-.378.927-.596c.441-.217.938-.455 1.251-.715.651-.539 1.199-.987 1.7-1.326.502-.339.957-.569 1.423-.673.464-.103.939-.079 1.481.091.539.169-.388.684.004 1.661.446 1.111.065 1.355.445 1.368 1.004.037 1.64.121 2.022.295.383.173.512.436.5.827-.017.509-.422.712.048 1.093.297.241-.084.613-.245.684-.01.004.375.04.405.467.009.121-.352.328-.191.553.134.186.623.088.858.291.218.189.161.597-.116 1.005"
       style="fill:#082242;fill-opacity:1;fill-rule:nonzero;stroke:none"
       transform="translate(494.945 79.165)"
       id="path7" />
    <path
       d="M0 0c.224.711.176 1.198.162 1.628-.015.43.004.802.365 1.282.358.475.639.672.985.845.346.174.755.326 1.376.709.509.314.903.603 1.329.847s.881.442 1.518.574c.786.164 1.371.205 1.871.19.499-.015.913-.087 1.358-.151a8.6 8.6 0 0 1 1.544-.103c1.165.032 1.642-.34 1.824-.721s.074-.769.074-.769a51 51 0 0 1-1.402-.423 43 43 0 0 1-1.678-.57 39 39 0 0 1-1.893-.743 36 36 0 0 1-2.05-.941C4.208 1.068 3.327.548 2.663.102a10.6 10.6 0 0 1-1.416-1.108c-.306-.29-.47-.497-.565-.614 0 0-.968.711-.682 1.62m15.304-2.844c-.287-.264-.882-.119-1.044-.33-.196-.254.244-.491.235-.629-.035-.484-.507-.524-.495-.529.196-.08.665-.504.305-.777-.575-.434-.075-.663-.052-1.24.017-.443-.142-.742-.609-.939s-1.244-.292-2.472-.334c-.465-.015.005-.293-.536-1.555-.474-1.107.659-1.693.001-1.884-.662-.193-1.242-.221-1.812-.104-.569.117-1.128.379-1.742.764s-1.287.894-2.086 1.506c-.383.294-.992.563-1.532.81-.541.248-1.016.473-1.135.678-.119.204.206.568.387 1.099.18.532.18 1.666-.483 2.107-.151.101-.686.144-.964.354s-.4.564-.033 1.216c0 0 .24.123.694.329s1.122.495 1.979.826c.857.332 1.902.704 3.111 1.079.907.281 1.809.516 2.652.709a45 45 0 0 0 3.908.718c.388.053.609.077.609.077.077-.337.102-.631.022-.795-.248-.51.278-.992.372-1.205s.511-.718.574-.81c.315-.457.448-.928.146-1.141"
       style="fill:#082242;fill-opacity:1;fill-rule:nonzero;stroke:none"
       transform="translate(494.398 111.54)"
       id="path8" />
    <path
       d="M0 0c.069.103.188.286.417.541s.569.584 1.08.977a17.6 17.6 0 0 0 2.116 1.367c.55.308 1.09.583 1.611.829a28 28 0 0 0 1.498.655c.474.191.922.357 1.334.502.411.145.787.266 1.118.372 0 0 .062.343-.115.678s-.593.664-1.546.635c-.763-.023-1.268.1-1.819.173-.551.074-1.15.1-2.098-.115a3.6 3.6 0 0 1-1.203-.507c-.331-.215-.633-.47-1.026-.746-.482-.338-.808-.472-1.078-.625-.271-.153-.486-.326-.745-.745-.261-.422-.25-.749-.207-1.128s.118-.809-.013-1.436C-.845.626 0 0 0 0m11.857-.072c-.057.084-.436.526-.528.714s-.558.611-.39 1.061c.054.144.012.403-.074.7-.001 0-.319-.038-.852-.124a34 34 0 0 1-2.133-.417 28 28 0 0 1-2.779-.784 35 35 0 0 1-2.47-.95 28 28 0 0 1-1.56-.727C.715-.781.527-.89.527-.89.274-1.464.4-1.775.642-1.96s.686-.224.815-.311c.606-.404.655-1.389.546-1.857-.11-.469-.347-.788-.235-.969s.517-.378.977-.596.975-.455 1.31-.715c.697-.539 1.283-.987 1.813-1.326s1.005-.569 1.478-.673c.474-.103.947-.079 1.474.091.525.169-.444.684-.135 1.661.353 1.111-.05 1.355.329 1.368 1.001.037 1.63.121 1.998.295.368.173.476.436.431.827-.059.509-.481.714-.046 1.093.276.239-.136.613-.303.684-.01.004.373.04.367.467-.002.121-.379.328-.236.553.117.185.615.09.831.291.202.188.113.597-.199 1.005"
       style="fill:#082242;fill-opacity:1;fill-rule:nonzero;stroke:none"
       transform="translate(467.52 79.165)"
       id="path9" />
    <path
       d="M0 0c.164.711.076 1.198.025 1.628s-.063.802.257 1.281c.318.476.582.672.913.846s.729.325 1.318.709c.482.314.851.603 1.256.847a4.5 4.5 0 0 0 1.47.574c.772.164 1.355.205 1.856.19s.921-.088 1.371-.152a8.7 8.7 0 0 1 1.552-.103c1.163.033 1.669-.339 1.884-.72s.139-.769.139-.769c-.405-.12-.864-.26-1.367-.424a41 41 0 0 1-1.629-.57 33.693 33.693 0 0 1-3.801-1.684C4.119 1.068 3.281.548 2.655.102a9.5 9.5 0 0 1-1.324-1.108c-.281-.29-.426-.498-.512-.615C.819-1.621-.21-.909 0 0m15.545-2.844c-.264-.264-.874-.121-1.018-.331-.173-.253.286-.49.288-.628.006-.484-.462-.524-.449-.529.202-.079.704-.505.368-.777-.536-.432-.018-.663.053-1.24.054-.444-.078-.742-.528-.939s-1.219-.292-2.444-.334c-.463-.015.027-.294-.407-1.555-.381-1.107.803-1.693.161-1.884-.645-.193-1.224-.221-1.804-.104-.579.117-1.159.378-1.806.763-.648.386-1.363.895-2.213 1.507-.409.294-1.038.563-1.599.81-.562.248-1.056.473-1.192.678-.136.204.157.568.293 1.099.136.532.062 1.654-.659 2.107-.162.103-.699.144-.994.354s-.448.563-.136 1.215c0 0 .229.124.666.33s1.08.495 1.909.826 1.843.704 3.021 1.079a34 34 0 0 0 2.591.709 43 43 0 0 0 3.848.717c.384.053.603.078.603.078.105-.337.155-.631.089-.795-.206-.51.361-.992.473-1.205.113-.213.573-.719.643-.81.356-.459.528-.928.243-1.141"
       style="fill:#082242;fill-opacity:1;fill-rule:nonzero;stroke:none"
       transform="translate(463.997 111.54)"
       id="path10" />
    <path
       d="M0 0c-7.475-.553-15.979-1.009-25.038-1.096.087 7.825.134 16.097.134 24.655l-.001 1.041c-1.08.035-2.164.057-3.254.057q-1.777-.001-3.541-.066v-1.032c0-8.557.047-16.827.134-24.652-9.008.096-17.459.553-24.888 1.105a71 71 0 0 1 1.284-5.563 214 214 0 0 1 23.683-1.722c.199-13.913.53-26.164.952-35.744a73 73 0 0 1 2.309-1.792c.729.54 1.443 1.098 2.151 1.664.425 9.598.757 21.894.958 35.867 8.573.128 16.65.788 23.83 1.706A72 72 0 0 1 0 0"
       style="fill:#b01028;fill-opacity:1;fill-rule:nonzero;stroke:none"
       transform="translate(515.005 97.405)"
       id="path12" />
  </g>
</svg>
