<?xml version="1.0" encoding="UTF-8" standalone="no"?>
<svg
   viewBox="0 0 506.05 700"
   version="1.1"
   id="svg30"
   sodipodi:docname="empoli.svg"
   inkscape:version="1.4.2 (f4327f4, 2025-05-13)"
   xmlns:inkscape="http://www.inkscape.org/namespaces/inkscape"
   xmlns:sodipodi="http://sodipodi.sourceforge.net/DTD/sodipodi-0.dtd"
   xmlns="http://www.w3.org/2000/svg"
   xmlns:svg="http://www.w3.org/2000/svg">
  <sodipodi:namedview
     id="namedview30"
     pagecolor="#ffffff"
     bordercolor="#000000"
     borderopacity="0.25"
     inkscape:showpageshadow="2"
     inkscape:pageopacity="0.0"
     inkscape:pagecheckerboard="0"
     inkscape:deskcolor="#d1d1d1"
     inkscape:zoom="1.1528571"
     inkscape:cx="252.85006"
     inkscape:cy="333.51921"
     inkscape:window-width="1920"
     inkscape:window-height="1009"
     inkscape:window-x="-8"
     inkscape:window-y="-8"
     inkscape:window-maximized="1"
     inkscape:current-layer="g29" />
  <defs
     id="defs8">
    <filter
       id="b"
       width="1.2611462"
       height="1.8173442"
       x="-0.1305731"
       y="-0.40867212"
       style="color-interpolation-filters:sRGB">
      <feGaussianBlur
         stdDeviation="6.533"
         id="feGaussianBlur1" />
    </filter>
    <filter
       id="d"
       width="1.050382"
       height="1.2355839"
       x="-0.025191009"
       y="-0.11781883"
       style="color-interpolation-filters:sRGB">
      <feGaussianBlur
         stdDeviation="3.562"
         id="feGaussianBlur2" />
    </filter>
    <filter
       id="c"
       width="1.1400162"
       height="1.0858242"
       x="-0.068165684"
       y="-0.042912102"
       style="color-interpolation-filters:sRGB">
      <feGaussianBlur
         stdDeviation="5.841"
         id="feGaussianBlur3" />
    </filter>
    <radialGradient
       id="a"
       cx="183.841"
       cy="536.683"
       r="651.458"
       fx="183.841"
       fy="536.683"
       gradientUnits="userSpaceOnUse"
       spreadMethod="pad">
      <stop
         offset="0"
         style="stop-opacity:1;stop-color:#5087ce"
         id="stop3" />
      <stop
         offset=".131"
         style="stop-opacity:1;stop-color:#5087ce"
         id="stop4" />
      <stop
         offset=".517"
         style="stop-opacity:1;stop-color:#1d4c90"
         id="stop5" />
      <stop
         offset=".566"
         style="stop-opacity:1;stop-color:#1d4c90"
         id="stop6" />
      <stop
         offset=".77"
         style="stop-opacity:1;stop-color:#07121f"
         id="stop7" />
      <stop
         offset="1"
         style="stop-opacity:1;stop-color:#07121f"
         id="stop8" />
    </radialGradient>
  </defs>
  <g
     style="stroke-width:1.39706"
     id="g10">
    <path
       d="M95.654 294.013c-63.626 135.871-67.365 282.96-61.29 344.114 6.075 61.155 18.225 110.97 18.225 110.97s11.666 6.952 26.528 12.757c25.92 10.125 122.107 41.513 218.295 41.513s192.374-31.388 218.294-41.513c14.862-5.805 26.528-12.757 26.528-12.757s12.15-49.815 18.225-110.97c6.074-61.155 2.336-208.243-61.29-344.114-83.7-178.74-201.757-224.1-201.757-224.1s-118.058 45.36-201.758 224.1"
       style="fill:url(#a);fill-opacity:1;fill-rule:nonzero;stroke:none;stroke-width:1.39706"
       transform="matrix(.95439 0 0 -.95439 -30.824 766.723)"
       id="path8" />
    <path
       d="M85.903 744.686c1.03.401 104.236 40.187 211.507 40.187h.002c107.272 0 210.479-39.786 211.508-40.187 7.187-2.804 13.592-5.929 17.98-8.217 3.444-15.56 11.608-55.298 16.17-101.176 1.24-12.464 2.026-27.958 2.026-45.788 0-72.796-13.075-184.54-61.62-288.088-41.408-88.328-91.428-141.99-126.097-171.448-27.423-23.304-49.776-35.531-59.967-40.488-10.192 4.957-32.545 17.184-59.968 40.488-34.668 29.459-84.688 83.12-126.097 171.448-48.544 103.548-61.619 215.292-61.619 288.088 0 17.83.785 33.324 2.024 45.788 4.563 45.878 12.727 85.616 16.17 101.176 4.389 2.288 10.793 5.413 17.98 8.217m2.797-7.169c-5.335-2.082-10.23-4.36-14.035-6.251-3.672-17.036-11.032-54.283-15.254-96.734-1.3-13.064-1.987-28.633-1.987-45.027 0-46.585 5.934-167.593 60.891-284.822 40.823-87.078 90.026-139.885 124.113-168.851 23.9-20.31 43.685-31.938 54.985-37.741 11.299 5.803 31.084 17.431 54.984 37.741 34.087 28.966 83.29 81.773 124.114 168.85 54.957 117.23 60.89 238.238 60.89 284.823 0 16.394-.687 31.963-1.986 45.027-4.223 42.45-11.583 79.698-15.254 96.734-3.805 1.892-8.7 4.17-14.033 6.25-1.02.397-103.217 39.662-208.717 39.662-105.474 0-207.645-39.247-208.711-39.66"
       style="fill:#989c9d;fill-opacity:1;fill-rule:nonzero;stroke:none;stroke-width:1.39706"
       transform="matrix(.95439 0 0 -.95439 -30.824 766.723)"
       id="path9" />
    <path
       d="M297.41 783.253c106.87 0 209.895-39.676 210.922-40.076 6.863-2.678 13-5.656 17.15-7.798 3.421-15.548 11.471-54.945 15.977-100.246 1.318-13.26 2.016-29.037 2.016-45.628 0-46.991-5.99-169.066-61.465-287.401-41.287-88.066-91.133-141.545-125.68-170.9-26.412-22.446-47.994-34.54-58.918-39.915-10.925 5.375-32.506 17.469-58.919 39.914-34.546 29.356-84.393 82.835-125.679 170.9-55.477 118.336-61.466 240.41-61.466 287.402 0 16.59.697 32.369 2.017 45.628 4.505 45.3 12.555 84.698 15.977 100.246 4.149 2.142 10.286 5.12 17.15 7.798 1.032.402 104.054 40.076 210.918 40.076M88.112 739.027c-4.563-1.78-9.33-3.903-14.17-6.311l-.698-.347-.164-.762c-3.914-18.164-11.104-54.907-15.283-96.915-1.304-13.117-1.994-28.742-1.994-45.187 0-46.693 5.948-167.985 61.044-285.51 40.946-87.34 90.321-140.327 124.531-169.397 23.48-19.952 43.029-31.65 55.293-37.949l.74-.38.74.38c12.265 6.3 31.815 17.997 55.293 37.949 34.21 29.07 83.585 82.056 124.533 169.397 55.095 117.525 61.043 238.817 61.043 285.51 0 16.445-.69 32.07-1.995 45.187-4.177 42.008-11.367 78.751-15.282 96.915l-.164.762-.698.347c-4.836 2.406-9.602 4.528-14.164 6.309-1.026.399-103.493 39.773-209.307 39.773-105.704 0-208.274-39.373-209.298-39.77"
       style="fill:#fff;fill-opacity:1;fill-rule:nonzero;stroke:none;stroke-width:1.39706"
       transform="matrix(.95439 0 0 -.95439 -30.824 766.723)"
       id="path10" />
  </g>
  <g
     style="stroke-width:1.39706"
     id="g30">
    <g
       style="stroke-width:1.39706"
       id="g14">
      <g
         style="fill:#000;stroke:#000;stroke-width:4.19117;stroke-dasharray:none;filter:url(#b)"
         transform="matrix(.95439 0 0 -.95439 183.914 766.723)"
         id="g11">
        <path
           d="M125.595 205.844c-4.755 0-8.326-.98-10.617-2.908l-.01-.009c-1.107-.982-1.975-2.383-2.58-4.16-.945-2.873-1.423-7.374-1.423-13.386v-2.216c0-2.926.1-5.393.293-7.338a25.5 25.5 0 0 1 1.188-5.613c.605-1.795 1.468-3.223 2.572-4.242 1.096-1.014 2.536-1.822 4.279-2.402 1.734-.577 3.854-.869 6.297-.869 2.447 0 4.564.284 6.293.84 1.749.562 3.19 1.372 4.286 2.406 1.1 1.036 1.965 2.461 2.571 4.238.59 1.737.992 3.616 1.188 5.584.195 1.962.293 4.41.293 7.277v2.394c0 7.445-1.037 12.75-3.082 15.769-2.084 3.075-5.97 4.635-11.547 4.635zm0-8.15c2.404 0 3.931-.683 4.67-2.088.776-1.481 1.19-4.139 1.23-7.896v-6.47c-.04-4.182-.416-7.017-1.12-8.426-.652-1.302-2.24-1.961-4.722-1.961s-4.09.69-4.78 2.05c-.743 1.465-1.137 4.271-1.175 8.342v6.703c.038 3.634.45 6.22 1.23 7.686.737 1.386 2.263 2.06 4.666 2.06zm-50.448 4.041c-.923-1.326-1.554-2.745-1.876-4.214-.316-1.442-.477-3.19-.477-5.2v-.46h8.558v.46c0 1.882.337 3.348 1.003 4.354.624.947 1.81 1.427 3.524 1.427 1.728 0 2.923-.403 3.548-1.196.65-.828.98-1.665.98-2.486 0-.857-.317-1.926-.943-3.176l-1.136-1.873-2.326-3.286c-1.031-1.432-2.447-3.05-4.21-4.813l-6.256-6.957-1.763-2c-1.04-1.37-1.563-2.798-1.563-4.255 0-1.803.686-3.114 2.038-3.897 1.27-.738 2.82-1.111 4.604-1.111h20.346v7.742H83.703c1.063 1.23 5.936 6.88 5.936 6.88.017.023 2.332 2.74 2.332 2.74l3.456 4.158c.99 1.27 1.943 2.962 2.83 5.03.895 2.091 1.35 4.145 1.35 6.101 0 3.247-1.181 5.783-3.508 7.54-2.289 1.726-5.561 2.6-9.724 2.6-5.617 0-9.394-1.382-11.228-4.108m-27.977 4.412c-4.738 0-8.303-1.02-10.596-3.032-2.31-2.026-3.48-5.495-3.48-10.316 0-9.632 4.628-14.516 13.756-14.516h.121l5.778 3.287v-5.335c0-1.708-.446-3.109-1.324-4.168-.857-1.032-2.26-1.554-4.168-1.554-1.125 0-2.025.286-2.673.85-.666.578-1.08 1.148-1.228 1.696a7 7 0 0 0-.246 1.834v.46h-8.326v-.46c0-3.683 1.073-6.673 3.189-8.89 2.12-2.222 5.382-3.35 9.693-3.35 4.303 0 7.678 1.163 10.031 3.455 2.356 2.294 3.55 5.74 3.55 10.244v16.62c0 4.824-1.172 8.267-3.486 10.237-2.291 1.95-5.854 2.938-10.59 2.938zm.204-8.268c2.11 0 3.53-.59 4.342-1.807.814-1.222 1.231-3.345 1.255-6.283-.427-.253-5.658-3.331-5.882-3.463-1.909.022-3.252.546-3.976 1.575-.776 1.1-1.169 2.69-1.169 4.723 0 3.537 1.776 5.255 5.43 5.255zm-35.938 7.661c2.736 0 4.483-.515 5.343-1.571.835-1.029 1.24-2.934 1.24-5.83v-35.1H9.17v34.197l-5.074 1.867v6.437h7.341"
           style="fill:#000;fill-opacity:1;fill-rule:nonzero;stroke:#000;stroke-width:4.19117;stroke-dasharray:none"
           id="path11" />
      </g>
      <g
         style="stroke-width:1.39706"
         id="g12">
        <path
           d="M125.595 205.844c-4.755 0-8.326-.98-10.617-2.908l-.01-.009c-1.107-.982-1.975-2.383-2.58-4.16-.945-2.873-1.423-7.374-1.423-13.386v-2.216c0-2.926.1-5.393.293-7.338a25.5 25.5 0 0 1 1.188-5.613c.605-1.795 1.468-3.223 2.572-4.242 1.096-1.014 2.536-1.822 4.279-2.402 1.734-.577 3.854-.869 6.297-.869 2.447 0 4.564.284 6.293.84 1.749.562 3.19 1.372 4.286 2.406 1.1 1.036 1.965 2.461 2.571 4.238.59 1.737.992 3.616 1.188 5.584.195 1.962.293 4.41.293 7.277v2.394c0 7.445-1.037 12.75-3.082 15.769-2.084 3.075-5.97 4.635-11.547 4.635zm0-8.15c2.404 0 3.931-.683 4.67-2.088.776-1.481 1.19-4.139 1.23-7.896v-6.47c-.04-4.182-.416-7.017-1.12-8.426-.652-1.302-2.24-1.961-4.722-1.961s-4.09.69-4.78 2.05c-.743 1.465-1.137 4.271-1.175 8.342v6.703c.038 3.634.45 6.22 1.23 7.686.737 1.386 2.263 2.06 4.666 2.06m-50.447 4.041c-.923-1.326-1.554-2.745-1.876-4.214-.316-1.442-.477-3.19-.477-5.2v-.46h8.558v.46c0 1.882.337 3.348 1.003 4.354.624.947 1.81 1.427 3.524 1.427 1.728 0 2.923-.403 3.548-1.196.65-.828.98-1.665.98-2.486 0-.857-.317-1.926-.943-3.176l-1.136-1.873-2.326-3.286c-1.031-1.432-2.447-3.05-4.21-4.813l-6.256-6.957-1.763-2c-1.04-1.37-1.563-2.798-1.563-4.255 0-1.803.686-3.114 2.038-3.897 1.27-.738 2.82-1.111 4.604-1.111h20.346v7.742H83.703c1.063 1.23 5.936 6.88 5.936 6.88.017.023 2.332 2.74 2.332 2.74l3.456 4.158c.99 1.27 1.943 2.962 2.83 5.03.895 2.091 1.35 4.145 1.35 6.101 0 3.247-1.181 5.783-3.508 7.54-2.289 1.726-5.561 2.6-9.724 2.6-5.617 0-9.394-1.382-11.228-4.108m-27.977 4.412c-4.738 0-8.303-1.02-10.596-3.032-2.31-2.026-3.48-5.495-3.48-10.316 0-9.632 4.628-14.516 13.756-14.516h.121l5.778 3.287v-5.335c0-1.708-.446-3.109-1.324-4.168-.857-1.032-2.26-1.554-4.168-1.554-1.125 0-2.025.286-2.673.85-.666.578-1.08 1.148-1.228 1.696a7 7 0 0 0-.246 1.834v.46h-8.326v-.46c0-3.683 1.073-6.673 3.189-8.89 2.12-2.222 5.382-3.35 9.693-3.35 4.303 0 7.678 1.163 10.031 3.455 2.356 2.294 3.55 5.74 3.55 10.244v16.62c0 4.824-1.172 8.267-3.486 10.237-2.291 1.95-5.854 2.938-10.59 2.938m.204-8.268c2.11 0 3.53-.59 4.342-1.807.814-1.222 1.231-3.345 1.255-6.283-.427-.253-5.658-3.331-5.882-3.463-1.909.022-3.252.546-3.976 1.575-.776 1.1-1.169 2.69-1.169 4.723 0 3.537 1.776 5.255 5.43 5.255m-35.939 7.661c2.736 0 4.483-.515 5.343-1.571.835-1.029 1.24-2.934 1.24-5.83v-35.1H9.17v34.197l-5.074 1.867v6.437z"
           style="fill:#989c9d;fill-opacity:1;fill-rule:nonzero;stroke:none;stroke-width:1.39706"
           transform="matrix(.95439 0 0 -.95439 183.914 766.723)"
           id="path12" />
      </g>
      <g
         style="stroke-width:1.39706"
         id="g13">
        <path
           d="M236.436 203.92c2.867 0 3.791-.61 4.087-.973.326-.402.876-1.565.876-4.807v-33.48h-5.61v33.708l-5.074 1.864v3.688zm35.734.607c4.341 0 7.55-.858 9.541-2.551 1.936-1.648 2.917-4.677 2.917-9.003v-16.62c0-4.051-1.03-7.106-3.061-9.083-2.04-1.989-5.035-2.997-8.901-2.997-3.851 0-6.718.958-8.521 2.85-1.59 1.666-2.453 3.905-2.654 6.61h5.155c.05-.368.05-.74.148-1.101.233-.86.815-1.7 1.729-2.493.951-.826 2.208-1.245 3.735-1.245 2.413 0 4.235.718 5.413 2.138 1.126 1.358 1.698 3.108 1.698 5.203v8.12l-7.794-4.433c-8.078.096-11.862 4.183-11.862 12.877 0 4.332.986 7.394 2.929 9.098 1.99 1.746 5.195 2.63 9.528 2.63m-6.846-11.904c0-2.372.493-4.275 1.465-5.654 1.037-1.475 2.814-2.235 5.282-2.263l.451-.005 7.079 4.167-.01.935c-.027 3.324-.527 5.669-1.526 7.168-1.12 1.677-3.034 2.528-5.69 2.528-4.547 0-7.051-2.441-7.051-6.876m34.53 4.551c.275 1.262.822 2.483 1.624 3.637l.015.02c1.514 2.251 4.838 3.393 9.882 3.393 3.804 0 6.748-.766 8.749-2.276 1.925-1.452 2.861-3.496 2.861-6.245 0-1.737-.409-3.575-1.217-5.463-.832-1.94-1.712-3.511-2.618-4.67l-3.426-4.12c.011.015-2.334-2.744-2.334-2.744.02.025-5.912-6.853-5.912-6.853l-2.31-2.68h17.41v-4.502h-18.725c-1.497 0-2.772.3-3.792.893-.529.305-1.23.898-1.23 2.496 0 1.09.413 2.185 1.222 3.258.12.138 1.699 1.926 1.699 1.926l6.245 6.945c1.765 1.762 3.238 3.447 4.32 4.95l2.368 3.343 1.198 1.978.03.059c.75 1.499 1.114 2.775 1.114 3.9 0 1.195-.446 2.367-1.326 3.488-.951 1.204-2.572 1.814-4.822 1.814-2.856 0-4.228-1.171-4.877-2.154-.687-1.04-1.083-2.421-1.211-4.086h-5.328c.05 1.385.163 2.657.39 3.693m50.743 7.05c5.007 0 8.44-1.32 10.206-3.924 1.834-2.707 2.803-7.846 2.803-14.86v-2.393c0-2.817-.095-5.211-.286-7.116a23.4 23.4 0 0 0-1.109-5.223c-.52-1.522-1.241-2.729-2.147-3.582-.92-.868-2.155-1.556-3.672-2.044-1.568-.505-3.519-.76-5.797-.76-2.268 0-4.216.264-5.787.785-1.522.507-2.763 1.199-3.688 2.055-.902.833-1.621 2.034-2.138 3.57a23.8 23.8 0 0 0-1.11 5.256c-.19 1.893-.286 4.307-.286 7.177v2.216c0 5.84.451 10.173 1.342 12.88.507 1.487 1.218 2.65 2.108 3.445 1.992 1.67 5.207 2.518 9.56 2.518m-6.099-7.83c-.915-1.72-1.378-4.479-1.419-8.43v-6.72c.04-4.398.482-7.362 1.35-9.073.988-1.95 3.083-2.94 6.225-2.94 3.147 0 5.223.962 6.171 2.859.827 1.653 1.25 4.641 1.29 9.136v6.484c-.042 4.09-.506 6.913-1.416 8.648-1.029 1.96-3.083 2.955-6.103 2.955-3.017 0-5.068-.982-6.098-2.918"
           style="fill:#fff;fill-opacity:1;fill-rule:nonzero;stroke:none;stroke-width:1.39706"
           transform="matrix(.95439 0 0 -.95439 -30.824 766.723)"
           id="path13" />
      </g>
    </g>
    <g
       style="stroke-width:1.39706"
       id="g25">
      <g
         style="fill:#000;stroke:#000;stroke-width:5.23896;stroke-dasharray:none;filter:url(#c)"
         transform="matrix(.95439 0 0 -.95439 -30.824 766.723)"
         id="g17">
        <path
           d="M258.25 524.71v-19.237l.194.04c34.03 5.488 74.162.96 96.623-2.561 28.695-4.497 50.23-9.652 56.908-11.323l7.06 17.843s-24.84 6.615-61.02 12.285c-21.374 3.35-62.724 8.306-99.619 2.994zm22.125-136.358c-12.12.606-24.107 2.11-35.021 4.947-23.432 6.093-51.364 20.537-51.364 54.749v-.001c0 24.034 13.785 38.312 30.11 46.792l.13.054v20.958l-.23-.088c-33.856-13.822-49.045-38.85-49.045-67.715v-.001c0-33.21 20.105-61.339 65.61-73.17 12.548-3.263 26.205-4.93 39.82-5.562l.004.296v18.53l-.014.21"
           style="fill:#000;fill-opacity:1;fill-rule:nonzero;stroke:#000;stroke-width:5.23896;stroke-dasharray:none"
           id="path14" />
        <path
           d="M251.36 555.777h29.029v20.25h-58.995v-20.25h3.19c4.252-.017 6.53-3.965 6.53-6.952V405.472l.222-.119q7.065-3.13 15.75-5.39a122 122 0 0 1 4.292-1.032l-.013.296v156.314l-.004.236m63.247-186.151c17.385 1.006 32.837 3.055 43.407 4.71 36.18 5.67 61.02 12.287 61.02 12.287l-7.06 17.842c-6.677-1.671-28.213-6.825-56.908-11.321-10.445-1.638-24.712-3.493-40.41-4.458l-.247-.022V369.63l.198-.003m-.035 186.15h92.581l4.59 20.25h-97.333v-20.25h.162"
           style="fill:#000;fill-opacity:1;fill-rule:nonzero;stroke:#000;stroke-width:5.23896;stroke-dasharray:none"
           id="path15" />
        <path
           d="M287.27 533.88c6.85.146 13.65.06 20.267-.194l-.014.203v68.059h80.191l5.4 20.25h-115.83v-20.25h4.522c4.388 0 5.468-2.227 5.468-5.805v-62.084l-.004-.18m-35.906-193.326v24.553l.002.396a161 161 0 0 0-12.534 2.712 149 149 0 0 0-7.717 2.225v-23.103c0-5.567-2.228-7.052-6.278-7.018h-3.443v-20.25h190.35l-7.29 20.25H251.368l-.003.235"
           style="fill:#000;fill-opacity:1;fill-rule:nonzero;stroke:#000;stroke-width:5.23896;stroke-dasharray:none"
           id="path16" />
        <path
           d="M307.523 347.573v89.723l.013.221h61.548l4.86 20.25h-66.421v42.912l.013.217c-6.634.285-13.448.387-20.266.224l.004-.187v-43.167l-.24.001h-10.02v-20.25h4.32c4.59 0 5.872-1.148 5.94-5.602v-84.713h20.261l-.012.371m0-34.408.001-78.687h-20.25v78.687l.29.018h19.668l.291-.018"
           style="fill:#000;fill-opacity:1;fill-rule:nonzero;stroke:#000;stroke-width:5.23896;stroke-dasharray:none"
           id="path17" />
      </g>
      <g
         style="stroke-width:1.39706"
         id="g21">
        <path
           d="M258.25 524.71v-19.237l.194.04c34.03 5.488 74.162.96 96.623-2.561 28.695-4.497 50.23-9.652 56.908-11.323l7.06 17.843s-24.84 6.615-61.02 12.285c-21.374 3.35-62.724 8.306-99.619 2.994zm22.125-136.358c-12.12.606-24.107 2.11-35.021 4.947-23.432 6.093-51.364 20.537-51.364 54.749v-.001c0 24.034 13.785 38.312 30.11 46.792l.13.054v20.958l-.23-.088c-33.856-13.822-49.045-38.85-49.045-67.715v-.001c0-33.21 20.105-61.339 65.61-73.17 12.548-3.263 26.205-4.93 39.82-5.562l.004.296v18.53z"
           style="fill:#989c9d;fill-opacity:1;fill-rule:nonzero;stroke:none;stroke-width:1.39706"
           transform="matrix(.95439 0 0 -.95439 -30.824 766.723)"
           id="path18" />
        <path
           d="M251.36 555.777h29.029v20.25h-58.995v-20.25h3.19c4.252-.017 6.53-3.965 6.53-6.952V405.472l.222-.119q7.065-3.13 15.75-5.39a122 122 0 0 1 4.292-1.032l-.013.296v156.314zm63.248-186.151c17.385 1.006 32.837 3.055 43.407 4.71 36.18 5.67 61.02 12.287 61.02 12.287l-7.06 17.842c-6.677-1.671-28.213-6.825-56.908-11.321-10.445-1.638-24.712-3.493-40.41-4.458l-.247-.022V369.63zm-.035 186.151h92.581l4.59 20.25h-97.333v-20.25z"
           style="fill:#989c9d;fill-opacity:1;fill-rule:nonzero;stroke:none;stroke-width:1.39706"
           transform="matrix(.95439 0 0 -.95439 -30.824 766.723)"
           id="path19" />
        <path
           d="M287.27 533.88c6.85.146 13.65.06 20.267-.194l-.014.203v68.059h80.191l5.4 20.25h-115.83v-20.25h4.522c4.388 0 5.468-2.227 5.468-5.805v-62.084zm-35.906-193.327v24.553l.002.396a161 161 0 0 0-12.534 2.712 149 149 0 0 0-7.717 2.225v-23.103c0-5.567-2.228-7.052-6.278-7.018h-3.443v-20.25h190.35l-7.29 20.25H251.368z"
           style="fill:#989c9d;fill-opacity:1;fill-rule:nonzero;stroke:none;stroke-width:1.39706"
           transform="matrix(.95439 0 0 -.95439 -30.824 766.723)"
           id="path20" />
        <path
           d="M307.523 347.573v89.723l.013.221h61.548l4.86 20.25h-66.421v42.912l.013.217c-6.634.285-13.448.387-20.266.224l.004-.187v-43.167l-.24.001h-10.02v-20.25h4.32c4.59 0 5.872-1.148 5.94-5.602v-84.713h20.261zm0-34.408.001-78.687h-20.25v78.687l.29.018h19.668z"
           style="fill:#989c9d;fill-opacity:1;fill-rule:nonzero;stroke:none;stroke-width:1.39706"
           transform="matrix(.95439 0 0 -.95439 -30.824 766.723)"
           id="path21" />
      </g>
      <g
         style="stroke-width:1.39706"
         id="g24">
        <path
           d="M249.774 338.698h153.541c.615-1.705 4.954-13.757 6.124-17.01H223.014v17.01h1.823c1.655-.013 4.07.164 5.788 1.866 1.439 1.43 2.11 3.58 2.11 6.772v20.905a153 153 0 0 1 5.689-1.595c3.59-.934 7.379-1.77 11.305-2.494l.015-.413v-24.73zm39.12 197.082v60.363c0 1.836 0 7.424-7.088 7.425h-2.901v17.01h112.1c-.82-3.079-4.028-15.11-4.536-17.01h-80.565V535.61l-.004-.246c-5.828.197-11.522.252-17.01.165zm16.745-224.217h-16.453l-.292-.042v-75.423h17.01v75.448z"
           style="fill:#fff;fill-opacity:1;fill-rule:nonzero;stroke:none;stroke-width:1.39706"
           transform="matrix(.95439 0 0 -.95439 -30.824 766.723)"
           id="path22" />
        <path
           d="M305.904 349.102v90.041l.198-.006h61.705l4.083 17.01h-65.752l-.234.016v43.083l-.005.095c-5.87.225-11.556.29-16.992.193l-.013-.103v-43.268l-.171-.016h-10.089v-17.01h2.7c5.501 0 7.48-1.883 7.56-7.222v-83.089l.198-.003h16.824zm10.126 208.295v17.026l.179-.015h93.508l-3.857-17.01h-89.548zm-66.285-.32V401.15l.012-.184q-1.148.273-2.262.564c-5.297 1.377-10.179 3.019-14.573 4.9l-.188.07v142.324c0 4.107-3.113 8.552-8.143 8.573h-1.577v17.01h55.51l.245-.001V557.38l-.224.018H249.74z"
           style="fill:#fff;fill-opacity:1;fill-rule:nonzero;stroke:none;stroke-width:1.39706"
           transform="matrix(.95439 0 0 -.95439 -30.824 766.723)"
           id="path23" />
        <path
           d="M316.03 371.553v15.575l.198.036c15.18.99 28.933 2.786 39.09 4.378 27.15 4.256 48.123 9.156 55.671 11.01.802-2.026 4.847-12.25 5.864-14.817-6.2-1.567-28.726-7.039-59.09-11.797-10.783-1.69-25.465-3.594-41.722-4.597zm-37.261 14.968v-15.29l.011-.209c-12.998.684-25.928 2.334-37.808 5.423-41.527 10.797-64.397 36.226-64.397 71.602 0 29.718 16.138 52.415 45.917 65.316l.117.041v-17.516l-.161-.077c-16.385-8.755-30.078-23.372-30.078-47.764 0-35.247 28.591-50.08 52.577-56.316 10.57-2.748 22.127-4.255 33.835-4.916zM259.87 523.31v-15.93l.146.017c33.858 5.077 73.142.629 95.302-2.845 27.15-4.255 48.123-9.155 55.671-11.01.802 2.026 4.847 12.251 5.864 14.817-6.2 1.567-28.726 7.04-59.09 11.798-22.582 3.54-62.257 8.016-97.698 3.189z"
           style="fill:#fff;fill-opacity:1;fill-rule:nonzero;stroke:none;stroke-width:1.39706"
           transform="matrix(.95439 0 0 -.95439 -30.824 766.723)"
           id="path24" />
      </g>
    </g>
    <g
       style="stroke-width:1.39706"
       id="g26">
      <path
         d="M81.479 616.223v6.582l.006.216c48.037 13.643 130.84 32.868 215.927 32.656 85.092.212 167.9-19.016 215.936-32.658l-.004-.349v-6.379l-.01-.409c-48.836 14.028-131.022 33.121-215.94 32.91-84.88.211-167.053-18.878-215.889-32.905z"
         style="fill:#989c9d;fill-opacity:1;fill-rule:nonzero;stroke:none;stroke-width:1.39706"
         transform="matrix(.95439 0 0 -.95439 -30.824 766.723)"
         id="path25" />
      <path
         d="M83.126 618.035c49.163 13.993 130.388 32.586 214.265 32.378 83.924.208 165.175-18.393 214.337-32.387l-.004 3.496-.003.295c-49.475 14.02-130.556 32.449-214.313 32.24-83.735.209-164.797-18.212-214.276-32.231z"
         style="fill:#fff;fill-opacity:1;fill-rule:nonzero;stroke:none;stroke-width:1.39706"
         transform="matrix(.95439 0 0 -.95439 -30.824 766.723)"
         id="path26" />
    </g>
    <g
       style="stroke-width:1.39706"
       id="g29">
      <g
         style="fill:#000;stroke:#000;stroke-width:4.19117;stroke-dasharray:none;filter:url(#d)"
         transform="matrix(.95439 0 0 -.95439 -30.824 938.513)"
         id="g27" />
      <g
         style="stroke-width:1.39706"
         id="g28" />
    </g>
  </g>
</svg>
