<?xml version="1.0" encoding="UTF-8" standalone="no"?>
<svg
   fill-rule="evenodd"
   stroke-linejoin="round"
   stroke-miterlimit="2"
   clip-rule="evenodd"
   viewBox="0 0 194.54 238.14"
   version="1.1"
   id="svg7"
   sodipodi:docname="parma.svg"
   inkscape:version="1.4.2 (f4327f4, 2025-05-13)"
   xmlns:inkscape="http://www.inkscape.org/namespaces/inkscape"
   xmlns:sodipodi="http://sodipodi.sourceforge.net/DTD/sodipodi-0.dtd"
   xmlns="http://www.w3.org/2000/svg"
   xmlns:svg="http://www.w3.org/2000/svg">
  <defs
     id="defs7" />
  <sodipodi:namedview
     id="namedview7"
     pagecolor="#ffffff"
     bordercolor="#000000"
     borderopacity="0.25"
     inkscape:showpageshadow="2"
     inkscape:pageopacity="0.0"
     inkscape:pagecheckerboard="0"
     inkscape:deskcolor="#d1d1d1"
     inkscape:zoom="3.3887629"
     inkscape:cx="97.233122"
     inkscape:cy="119.07"
     inkscape:window-width="1920"
     inkscape:window-height="1009"
     inkscape:window-x="-8"
     inkscape:window-y="-8"
     inkscape:window-maximized="1"
     inkscape:current-layer="svg7" />
  <path
     d="M.102.068c.038 40.481-.4 80.979.293 121.45.951 28.034 15.087 53.805 34.249 73.643 17.22 18.822 38.615 34.16 62.634 42.977 35.54-13.31 65.592-40.116 84.618-72.764 11.651-20.274 13.23-44.16 12.485-67.009.04-32.788.018-65.577.023-98.365C129.637.018 64.87-.036.102.068"
     style="fill:#24338a;fill-opacity:1;fill-rule:nonzero;stroke-width:.975657"
     id="path1" />
  <path
     fill="#fcd206"
     d="m 7.566,7.903 v 30.44 H 186.989 V 7.903 Z"
     style="fill:#ffcf01;fill-opacity:1;fill-rule:nonzero;stroke-width:0.975657"
     id="path2"
     sodipodi:nodetypes="ccccc" />
  <path
     d="M42.065 45.222c-.1 18.943-.044 37.888-.058 56.832H7.42c.106 6.797.016 13.6.341 20.391h34.246v70.979c6.335 6.425 12.957 12.635 20.371 17.806.23-29.593.072-59.19.118-88.785h34.44v-20.391h-34.44c-.014-18.944.027-37.889-.05-56.832a298 298 0 0 0-20.38 0"
     style="fill:#1c1e1c;fill-opacity:1;fill-rule:nonzero;stroke-width:.975657"
     id="path3" />
  <path
     fill="#fff"
     d="M7.566 45.173v56.88h34.44l.05-56.88zm54.91 28.44.02 28.44h34.44v-56.88h-34.49Z"
     style="fill-rule:nonzero;stroke-width:.975657"
     id="path4" />
  <path
     fill="#fcd206"
     d="M111.18 134.621c0 49.193.03 89.468.07 89.507.038.039.448-.127.906-.38.459-.244 1.444-.781 2.196-1.181.751-.4 2.244-1.24 3.317-1.854s2.742-1.61 3.707-2.195c.966-.595 2.254-1.405 2.86-1.795l1.092-.713V45.173H111.18zm28.588-9.444c0 44.002.029 80.004.078 80.004.039 0 .663-.508 1.385-1.132.722-.625 2.127-1.854 3.122-2.742.995-.897 3.532-3.346 5.64-5.463l3.824-3.835V45.173h-14.05zm28.196-15.142c0 37.826.03 64.812.088 64.754.039-.049.654-.927 1.356-1.951a147 147 0 0 0 2.283-3.464c.566-.888 1.395-2.244 1.854-3.024.458-.781 1.22-2.118 1.697-2.976.469-.859 1.366-2.615 2-3.903a132 132 0 0 0 1.796-3.854c.36-.829.927-2.214 1.268-3.073.332-.859.859-2.273 1.161-3.142l.547-1.59V45.172h-14.05z"
     style="fill:#ffcf01;fill-opacity:1;fill-rule:nonzero;stroke-width:.975657"
     id="path5" />
  <path
     fill="#fff"
     d="M7.859 122.864c0 .225.068 1.181.146 2.118s.215 2.322.303 3.073c.078.751.273 2.293.439 3.415.156 1.132.439 2.907.634 3.951a100 100 0 0 0 .78 3.854c.244 1.073.566 2.459.732 3.073.166.615.478 1.737.693 2.488.214.752.614 2.05.878 2.878.273.83.77 2.264 1.102 3.171.342.917.83 2.166 1.074 2.781.253.615.79 1.873 1.19 2.78.4.918 1.258 2.693 1.893 3.952.634 1.259 1.6 3.083 2.146 4.049a110 110 0 0 0 2.068 3.512c.596.966 1.562 2.479 2.147 3.366.595.888 1.493 2.205 2 2.927a222 222 0 0 0 2.244 3.074c.732.966 2.078 2.702 2.995 3.854.927 1.15 2.4 2.936 3.269 3.95a298 298 0 0 0 2.858 3.27c.703.78 2 2.195 2.888 3.15.888.957 1.63 1.728 1.65 1.728.01 0 .019-15.933.019-35.417v-35.416H7.859zm54.637 44.051-.01 44.461c2.995 2.137 4.585 3.23 5.473 3.825.888.585 2.332 1.531 3.22 2.097.887.556 2.292 1.435 3.122 1.932a179 179 0 0 0 6.341 3.61c.722.39 2.527 1.307 4 2.04 1.474.73 3.435 1.668 4.342 2.077.917.41 2.079.917 2.586 1.132s1.502.625 2.195.898c.703.283 1.688.653 2.195.839.508.185.937.331.956.331.01 0 .02-24.235.02-53.856v-53.856h-34.44z"
     style="fill-rule:nonzero;stroke-width:.975657"
     id="path6" />
  <g
     aria-label="PARMA CALCIO"
     style="font-size:28.6667px;line-height:1.25;font-family:&quot;Transport Narrow (Alfabeto Stre&quot;;-inkscape-font-specification:&quot;Transport Narrow (Alfabeto Stre&quot;;fill:#24338a;fill-opacity:1;stroke-width:1.65686"
     id="g7" />
</svg>
