<?xml version="1.0" encoding="UTF-8" standalone="no"?>
<svg
   viewBox="0 0.01 196 199.94"
   version="1.1"
   id="svg1"
   sodipodi:docname="verona.svg"
   inkscape:version="1.4.2 (f4327f4, 2025-05-13)"
   xmlns:inkscape="http://www.inkscape.org/namespaces/inkscape"
   xmlns:sodipodi="http://sodipodi.sourceforge.net/DTD/sodipodi-0.dtd"
   xmlns="http://www.w3.org/2000/svg"
   xmlns:svg="http://www.w3.org/2000/svg">
  <defs
     id="defs1" />
  <sodipodi:namedview
     id="namedview1"
     pagecolor="#ffffff"
     bordercolor="#000000"
     borderopacity="0.25"
     inkscape:showpageshadow="2"
     inkscape:pageopacity="0.0"
     inkscape:pagecheckerboard="0"
     inkscape:deskcolor="#d1d1d1"
     inkscape:zoom="4.0362108"
     inkscape:cx="28.615948"
     inkscape:cy="-18.210149"
     inkscape:window-width="1920"
     inkscape:window-height="1009"
     inkscape:window-x="-8"
     inkscape:window-y="-8"
     inkscape:window-maximized="1"
     inkscape:current-layer="svg1" />
  <path
     fill="#ffd100"
     fill-rule="evenodd"
     d="m 44.31,30.24 c 0.02,0 7.96,11.34 35.25,50.43 l -0.02,0.33 -2.4,42.08 c -1.31,22.96 -2.4,41.95 -2.48,42.69 L 54.08,135.51 C 42.76,118.88 33.45,105.22 33.39,105.18 c -0.06,-0.05 -0.23,-0.12 -0.38,-0.17 -0.18,-0.05 -1.34,-0.1 -3.19,-0.14 -1.6,-0.03 -3.46,-0.09 -4.13,-0.13 -0.67,-0.04 -1.35,-0.09 -1.5,-0.12 -0.16,-0.02 -0.51,-0.1 -0.79,-0.17 -0.28,-0.07 -0.75,-0.26 -1.05,-0.41 -0.3,-0.15 -0.78,-0.46 -1.07,-0.69 -0.30817,-0.23892 -0.595837,-0.50317 -0.86,-0.79 -0.19,-0.21 -0.51,-0.64 -0.71,-0.95 -0.21,-0.31 -0.52,-0.84 -0.69,-1.19 -0.17,-0.35 -0.42,-0.93 -0.56,-1.3 C 18.32,98.76 18.12,98.09 18,97.65 17.89,97.21 17.74,96.54 17.68,96.18 17.62,95.81 17.51,94.83 17.43,94 17.35,93.17 17.18,91.39 17.04,90.04 16.91,88.69 16.69,86.62 16.55,85.44 16.42,84.27 16.23,82.69 16.13,81.94 16.04,81.18 15.91,80.3 15.85,79.97 15.79,79.64 15.63,79.03 15.49,78.6 15.36,78.18 15.08,77.49 14.88,77.06 14.67,76.64 14.32,76 14.09,75.66 13.86,75.31 13.53,74.85 13.37,74.64 13.2,74.43 12.82,74.01 12.53,73.7 12.24,73.4 11.72,72.91 11.38,72.62 11.03,72.33 10.35,71.83 9.87,71.51 9.39,71.19 8.59,70.73 8.09,70.48 7.58,70.23 6.81,69.88 6.37,69.71 5.93,69.54 5.22,69.3 4.8,69.17 4.37,69.05 3.71,68.89 3.33,68.82 2.94,68.74 2.07,68.64 0.14,68.5 V 61.03 H 24.36 C 30,61.03 35.2,61 37.21,60.9 l 0.16,-0.2 c 0.13,-0.15 0.16,-0.24 0.12,-0.44 -0.02,-0.14 -0.09,-0.3 -0.16,-0.36 -0.07,-0.07 -2.68,-1.68 -5.81,-3.6 -1.903511,-1.165179 -3.810185,-2.325183 -5.72,-3.48 -0.02,0 -2.47,1.63 -5.45,3.62 -4.06,2.72 -5.51,3.72 -5.81,4.04 -0.25,0.26 -0.41,0.38 -0.44,0.32 -0.02,-0.05 -0.03,-2.04 0.01,-8.78 l 0.19,-0.56 c 0.11,-0.31 0.34,-0.77 0.5,-1.02 0.17,-0.25 0.49,-0.64 0.71,-0.86 0.23,-0.22 0.57,-0.52 0.77,-0.66 0.19,-0.13 0.52,-0.34 0.73,-0.44 0.21,-0.11 4.05,-1.79 8.54,-3.75 4.49,-1.95 9.64,-4.19 11.45,-4.98 2.95,-1.28 3.32,-1.46 3.6,-1.74 0.17,-0.17 0.41,-0.51 0.53,-0.76 0.12,-0.25 0.88,-1.93 1.68,-3.73 0.81,-1.81 1.48,-3.28 1.5,-3.28 m 107.45,0.04 c 0.03,0.03 0.72,1.56 1.54,3.39 0.82,1.84 1.58,3.51 1.69,3.72 0.11,0.21 0.32,0.5 0.46,0.65 0.23,0.22 1.63,0.85 9.44,4.25 5.04,2.2 10.3,4.49 11.69,5.09 1.53,0.67 2.71,1.22 3.01,1.42 0.26,0.18 0.67,0.51 0.89,0.72 0.23,0.22 0.55,0.6 0.72,0.85 0.16,0.25 0.39,0.68 0.7,1.44 l 0.07,9.26 14.03,0.03 -0.03,7.47 -1.05,0.05 c -0.58,0.02 -1.35,0.09 -1.72,0.16 -0.37,0.06 -0.96,0.19 -1.33,0.28 -0.37,0.1 -0.9,0.25 -1.19,0.34 -0.29,0.1 -0.86,0.31 -1.26,0.47 -0.4,0.16 -1.13,0.49 -1.61,0.75 -0.48,0.25 -1.19,0.66 -1.57,0.91 -0.39,0.25 -0.99,0.69 -1.33,0.97 -0.35,0.28 -0.98,0.87 -1.4,1.31 -0.43,0.44 -0.99,1.1 -1.25,1.47 -0.26,0.36 -0.69,1.1 -0.95,1.64 -0.27,0.54 -0.59,1.3 -0.71,1.68 -0.12,0.39 -0.28,0.99 -0.35,1.34 -0.07,0.34 -0.26,1.67 -0.41,2.94 -0.16,1.28 -0.4,3.34 -0.53,4.6 -0.14,1.25 -0.38,3.6 -0.53,5.22 -0.16,1.62 -0.33,3.23 -0.39,3.58 -0.06,0.35 -0.21,1 -0.32,1.44 -0.12,0.44 -0.32,1.11 -0.46,1.47 -0.14,0.37 -0.38,0.94 -0.55,1.27 -0.16,0.32 -0.48,0.88 -0.71,1.22 -0.23,0.35 -0.65,0.87 -0.94,1.16 -0.28,0.29 -0.77,0.69 -1.07,0.9 -0.31,0.2 -0.81,0.46 -1.11,0.58 -0.3,0.11 -0.82,0.25 -1.15,0.31 -0.34,0.05 -1.28,0.13 -2.08,0.17 -0.81,0.04 -2.51,0.08 -3.78,0.08 -1.28,0 -2.52,0.03 -2.77,0.07 -0.25,0.04 -0.55,0.1 -0.66,0.14 -0.18,0.05 -3.23,4.5 -41.44,60.68 l -0.06,-0.48 c -0.03,-0.26 -1.12,-19.24 -2.43,-42.18 -1.31,-22.93 -2.39,-41.87 -2.41,-42.47 l 14.87,-21.26 c 8.17,-11.69 16.11,-23.03 17.63,-25.2 1.52,-2.18 2.79,-3.93 2.81,-3.9 m 6.97,29.7 c -0.1,0.1 -0.14,0.24 -0.14,0.42 0,0.17 0.04,0.32 0.12,0.4 0.09,0.09 0.3,0.14 0.7,0.18 0.32,0.03 5.51,0.07 11.55,0.09 l 10.97,0.03 c -0.16,-0.32 -0.31,-0.53 -0.44,-0.68 -0.12,-0.14 -2.68,-1.89 -5.68,-3.9 -3.01,-2.01 -5.5,-3.66 -5.53,-3.67 -0.04,-0.01 -2.63,1.56 -5.74,3.49 -3.12,1.92 -5.74,3.56 -5.81,3.64 M 0,73.17 h 0.58 c 0.32,0 0.91,0.05 1.31,0.11 0.4,0.06 1.08,0.2 1.51,0.31 0.42,0.11 1.08,0.33 1.47,0.49 0.38,0.15 0.95,0.43 1.26,0.6 0.3,0.18 0.79,0.5 1.08,0.72 0.29,0.21 0.81,0.67 1.16,1.03 0.34,0.35 0.82,0.92 1.05,1.27 0.23,0.34 0.52,0.8 0.64,1.01 0.12,0.21 0.36,0.73 0.53,1.16 0.17,0.42 0.38,1.01 0.46,1.29 0.08,0.29 0.27,1.27 0.43,2.18 0.15,0.91 0.35,2.29 0.45,3.09 0.1,0.79 0.23,1.95 0.28,2.59 0.06,0.64 0.14,1.92 0.18,2.84 0.04,0.93 0.16,2.4 0.25,3.26 0.1,0.87 0.26,1.99 0.35,2.49 0.1,0.51 0.27,1.26 0.39,1.69 0.12,0.42 0.32,1.07 0.46,1.44 0.14,0.36 0.4,0.98 0.6,1.36 0.19,0.39 0.51,0.96 0.72,1.27 0.21,0.31 0.58,0.78 0.83,1.05 0.25,0.27 0.43,0.51 0.41,0.54 -0.02,0.03 -3.72,0.06 -16.4,0.06 z m 196,0 v 31.85 h -8.17 c -4.5,0 -8.2,-0.02 -8.23,-0.05 -0.02,-0.03 0.15,-0.26 0.38,-0.52 0.23,-0.25 0.6,-0.72 0.83,-1.05 0.22,-0.33 0.56,-0.91 0.75,-1.3 0.19,-0.38 0.46,-1 0.6,-1.36 0.14,-0.37 0.34,-1.02 0.46,-1.44 0.12,-0.43 0.29,-1.18 0.39,-1.69 0.09,-0.5 0.25,-1.62 0.35,-2.49 0.09,-0.86 0.21,-2.33 0.25,-3.26 0.04,-0.92 0.14,-2.34 0.21,-3.15 0.07,-0.81 0.22,-2.08 0.31,-2.81 0.1,-0.73 0.28,-1.9 0.39,-2.6 0.12,-0.69 0.28,-1.53 0.36,-1.85 0.08,-0.33 0.24,-0.85 0.35,-1.16 0.12,-0.31 0.33,-0.82 0.48,-1.12 0.14,-0.31 0.5,-0.91 0.78,-1.34 0.3,-0.44 0.78,-1.04 1.15,-1.41 0.34,-0.35 0.86,-0.81 1.15,-1.02 0.29,-0.21 0.81,-0.55 1.16,-0.75 0.34,-0.19 0.88,-0.45 1.19,-0.58 0.3,-0.12 0.87,-0.31 1.26,-0.42 0.38,-0.11 0.98,-0.25 1.33,-0.31 0.34,-0.05 0.7,-0.11 0.8,-0.13 0.1,-0.01 0.47,-0.03 1.47,-0.04 M 86.72,90.66 c 0.03,0.02 2.57,3.47 5.65,7.68 3.08,4.21 5.61,7.65 5.63,7.65 0.02,0 2.32,-3.14 5.11,-6.98 2.79,-3.84 5.3,-7.3 5.58,-7.68 0.28,-0.38 0.52,-0.69 0.54,-0.68 0.02,0.01 0.23,3.38 0.46,7.49 0.23,4.11 0.42,7.62 0.42,8.14 H 85.89 v -0.33 c 0,-0.19 0.16,-3.48 0.35,-7.32 0.19,-3.84 0.37,-7.21 0.4,-7.49 0.02,-0.28 0.06,-0.49 0.08,-0.48 m -1.25,22.98 h 25.06 v 0.34 c 0,0.18 0.06,1.63 0.14,3.21 0.07,1.58 0.15,3.1 0.21,3.89 H 85.05 l 0.04,-0.51 c 0.02,-0.28 0.11,-1.83 0.21,-3.45 0.09,-1.62 0.17,-3.07 0.17,-3.21 z m 25.76,14.81 v 0.22 c 0.01,0.13 0.09,1.82 0.39,7.28 H 84.39 l 0.18,-3.73 c 0.1,-2.06 0.19,-3.75 0.19,-3.76 0.01,-0.01 5.96,-0.01 26.47,-0.01 m -27.3,14.87 H 112 v 0.19 c 0,0.11 0.09,1.77 0.21,3.7 0.12,1.93 0.21,3.52 0.21,3.53 0,0.01 -6.49,0.01 -14.42,0.01 -7.93,0 -14.42,-0.02 -14.42,-0.05 0,-0.03 0.08,-1.61 0.18,-3.52 0.09,-1.91 0.17,-3.56 0.17,-3.67 z m 28.84,14.87 0.04,0.54 c 0.02,0.3 0.24,4.43 0.49,9.18 0.25,4.74 0.45,8.74 0.43,8.87 -0.01,0.19 -1.77,2.81 -7.86,11.73 -4.31,6.32 -7.85,11.47 -7.88,11.44 l -7.58,-11.14 c -4.16,-6.1 -7.67,-11.26 -8.1,-11.85 l 0.47,-9.3 c 0.25,-5.11 0.47,-9.33 0.49,-9.38 0.02,-0.07 3.04,-0.09 29.5,-0.09"
     id="path1"
     sodipodi:nodetypes="cccccccccscsscccscccscccsccccccscsccccscccccccccccccccccssccccsccccccccccccccscccccccccccscccccccccsscccccccccsscccccccccssccccccscccccccccccsssccccscccccccccscccccccscccccccssssssccssccccscccccsccccccccccssssscscccccccccccc" />
</svg>
