<?xml version="1.0" encoding="UTF-8" standalone="no"?>
<svg
   width="226pt"
   height="376"
   viewBox="0 0 226 282"
   version="1.1"
   id="svg125"
   sodipodi:docname="club-tijuana.svg"
   inkscape:version="1.4.2 (f4327f4, 2025-05-13)"
   xmlns:inkscape="http://www.inkscape.org/namespaces/inkscape"
   xmlns:sodipodi="http://sodipodi.sourceforge.net/DTD/sodipodi-0.dtd"
   xmlns="http://www.w3.org/2000/svg"
   xmlns:svg="http://www.w3.org/2000/svg">
  <sodipodi:namedview
     id="namedview125"
     pagecolor="#ffffff"
     bordercolor="#000000"
     borderopacity="0.25"
     inkscape:showpageshadow="2"
     inkscape:pageopacity="0.0"
     inkscape:pagecheckerboard="0"
     inkscape:deskcolor="#d1d1d1"
     inkscape:document-units="pt"
     inkscape:zoom="2.1462766"
     inkscape:cx="150.72615"
     inkscape:cy="188"
     inkscape:window-width="1920"
     inkscape:window-height="1009"
     inkscape:window-x="-8"
     inkscape:window-y="-8"
     inkscape:window-maximized="1"
     inkscape:current-layer="g125" />
  <defs
     id="defs1">
    <clipPath
       id="a">
      <path
         d="M0 0h225v281.406H0z"
         id="path1" />
    </clipPath>
  </defs>
  <g
     clip-path="url(#a)"
     id="g125">
    <path
       d="M112.5 225.524C50.467 225.524 0 174.939 0 112.762S50.468 0 112.5 0 225 50.585 225 112.762s-50.467 112.762-112.5 112.762"
       style="fill:#161413;fill-rule:nonzero;stroke:none"
       transform="translate(0 55.882)"
       id="path2" />
    <path
       d="M109.066 0C48.842 0 0 48.955 0 109.319s48.842 109.319 109.066 109.319 109.065-48.954 109.065-109.319C218.131 48.955 169.29 0 109.066 0"
       style="fill:#fff;fill-rule:nonzero;stroke:none"
       transform="translate(3.435 59.325)"
       id="path3" />
    <path
       d="M162.987 82.018c0-27.386-13.518-51.666-34.214-66.493-.544-1.217-.61-2.711-.61-4.034 0-1.089-.429-2.525-.472-3.395-.086-.87-.857-2.176-1.672-2.916-.344-.827-1.587-2.482-1.717-3.222-.685-.74-1.928-1.48-2.573-1.74-.942-.218-1.5.26-2.273.826-.685 1.176-1.373 2.351-2.014 3.526-.567 1.052-1.292 2.132-2.016 3.192A80.85 80.85 0 0 0 81.493.336 80.84 80.84 0 0 0 41.36 10.95c-.846-1.236-2.88-3.973-3.813-5.683-1.844-1.872-2.402-2.046-4.418-2.046-.686 0-1.758 1.654-2.23 3.09-.429 2.176-.9 4.483-1.2 6.66a49 49 0 0 1-.73 2.351 42 42 0 0 0-.687 4.88C10.972 35.192 0 57.344 0 82.018c0 45.04 36.558 81.683 81.493 81.683a80.9 80.9 0 0 0 30.279-5.85c.529-.202.929-.364 1.132-.464 29.387-12.351 50.083-41.482 50.083-75.37"
       style="fill:#161413;fill-rule:nonzero;stroke:none"
       transform="translate(31.007 86.626)"
       id="path4" />
    <path
       d="M57.388 125.147c0-6.442-.172-13.71-.172-20.239 0-4.048-1.5-9.227-1.5-12.84 0-1.176-.772-4.528-1.072-6.747-.643-2.481-2.359-6.05-2.359-8.531 0-2.787.471-5.79.471-8.575 0-1.48-.428-3.091-.728-4.484l-.13-4.22c-.642-.654-2.358-1.916-2.443-2.439 0 0-1.073-1.915-1.073-2.176 0-.566-.213-3.091-.771-3.439-.687-1.306-2.36-1.915-3.602-2.655-3.56-4.788-7.248-4.178-11.022-7.486-.944-1.306-1.587-2.613-2.359-3.961-.343-.349-1.8-7.095-1.8-7.748 0-1.044-.344-2.612-.387-3.83l.472-4.049c-.73-2.133-1.459-4.309-1.93-6.528 0 0-.6-5.659-.6-5.964-.28-3.008-.225-6.203-.217-9.236C10.097 14.584 0 35.658 0 59.09c0 36.953 25.11 68.037 59.155 77.051-.708-1.65-1.216-2.959-1.338-4.03-.172-1.741-.43-5.179-.43-6.964"
       style="fill:#ed1b26;fill-rule:nonzero;stroke:none"
       transform="translate(32.994 109.554)"
       id="path5" />
    <path
       d="M10.338 23.572c2.66 2.698 8.149 7.181 10.42 9.75 0 0 1.889 2.35 2.746 4.048.043.566.3 1.175.557 1.74.429.567 1.501 1.263 1.501 1.524 0 .175.344 1.35.344 2.09l1.887.87.557-1.176c.13-.26 1.673-1.392 2.359-1.392 1.029 0 1.072.391 1.072 1.524.515-.087 1.158-.436 1.63-.436.642 0 1.071.523 1.671.218.43-.044 1.158-.523 1.416-.523 1.03 0 1.587.827 2.445 1.35.729.043 1.457.173 2.144.435.643-.653 1.459-1.176 2.23-1.176 1.244 0 2.53 1.046 3.861 1.48.813.131 2.186.393 2.444.393 1.415 0 3.217-1.307 4.846-1.437.771.347 1.586.696 2.401 1.044l1.33.305c.3-.48.171-.827.171-1.437 0-.174.387-.435.557-.74-.17-.914-.514-1.915-.514-2.916.13-.827 0-1.35-.086-2.046.215-2.089.13-4.744.773-6.746.213-.653.643-1.262.814-1.96.3-1 .3-1.958.3-3.046.344-.74.816-1.742 1.158-2.481 1.33-1.828 2.745-3.7 4.075-5.353.3-.175.6-.393.9-.61.6-2.046 1.457-4.221 2.616-6.006.815-1.045 1.715-2.046 2.53-3.133q.203-.318.422-.644C61.911 2.535 50.803 0 39.105 0 24.89 0 11.547 3.745 0 10.298c1.085 1.758 2.948 4.627 4.335 6.31 1.5 2.177 4.116 5.44 6.003 6.964"
       style="fill:#ed1b26;fill-rule:nonzero;stroke:none"
       transform="translate(73.396 88.952)"
       id="path6" />
    <path
       d="M43.385 63.197c0-25.738-12.183-48.626-31.08-63.197.079.37.131.737.131 1.07 0 1.872.085 4.31.128 4.44.087 2.394.13 4.963.13 7.356l-1.115 11.49c0 .828.6 1.742.685 2.613.3 3.22.987 6.528.858 9.749-1.328 4.266-2.616 6.66-3.901 9.098-.687 1.349-2.275 2.697-4.075 4.483-1.544 1.653-2.703 2.915-4.202 4.527v1.87l.214.567.085.61.215 1 .085 1.175.13.61c.17 2.829.3 5.44-.43 8.357l-.514 1.567-.471.914C0 72.453.128 73.456 0 74.499l.128 1.567 1.545 9.184c.429 2.002 5.403 19.282 5.403 19.282l.815 1.349c1.03 1.219 5.961 8.444 6.518 8.923.583 1.354 2.47 4.67 3.692 6.666 15.554-14.548 25.284-35.272 25.284-58.273"
       style="fill:#ed1b26;fill-rule:nonzero;stroke:none"
       transform="translate(148.621 105.447)"
       id="path7" />
    <path
       d="M7.699.002 7.606 0h-.042A7.537 7.537 0 0 0 0 7.572c0 4.293 3.356 7.617 7.564 7.617q.064 0 .134-.002c4.184-.07 7.38-3.368 7.38-7.615C15.08 3.4 11.86.048 7.699.002m0 13.617h-.093c-3.31 0-5.726-2.678-5.726-6.047 0-3.324 2.416-6.05 5.638-6.05h.046l.134.002c3.196.074 5.5 2.768 5.5 6.047.001 3.34-2.325 6.043-5.5 6.047m1.563-5.817V7.71c.896-.277 1.521-.923 1.521-1.8 0-.692-.312-1.293-.715-1.617-.515-.35-1.107-.577-2.37-.597l-.18-.001c-1.209 0-2.149.137-2.82.277v7.525h1.703V8.495h.805q.271 0 .493.042c.607.118.92.49 1.028 1.159.223.876.356 1.522.582 1.8h1.835c-.18-.231-.316-.694-.537-1.848-.225-1.015-.629-1.615-1.345-1.846M7.7 7.22a4 4 0 0 1-.45.027h-.805v-2.17c.18-.046.492-.09.939-.09q.165 0 .316.013c.854.082 1.25.519 1.25 1.14 0 .654-.53.988-1.25 1.08"
       style="fill:#161413;fill-rule:nonzero;stroke:none"
       transform="translate(207.508 264.2)"
       id="path44" />
    <path
       d="M3.873 0a3.88 3.88 0 0 1 3.873 3.881 3.88 3.88 0 0 1-3.873 3.882A3.88 3.88 0 0 1 0 3.881 3.88 3.88 0 0 1 3.873 0"
       style="fill:#ed1b26;fill-rule:nonzero;stroke:none"
       transform="translate(201.553 151.364)"
       id="path45" />
    <path
       d="M3.873 0A3.88 3.88 0 0 0 0 3.881a3.88 3.88 0 0 0 3.873 3.882 3.88 3.88 0 0 0 3.873-3.882A3.88 3.88 0 0 0 3.873 0"
       style="fill:#ed1b26;fill-rule:nonzero;stroke:none"
       transform="translate(15.701 151.364)"
       id="path46" />
    <path
       d="M33.192 159.35c-.771-1.783-1.328-3.177-1.457-4.309-.172-1.741-.43-5.178-.43-6.963 0-6.442-.17-13.711-.17-20.24 0-4.047-1.501-9.227-1.501-12.84 0-1.176-.773-4.527-1.073-6.747-.643-2.481-2.358-6.05-2.358-8.53 0-2.788.47-5.79.47-8.576 0-1.48-.428-3.09-.728-4.483l-.128-4.221c-.644-.654-2.359-1.916-2.445-2.438 0 0-1.072-1.915-1.072-2.177 0-.566-.214-3.091-.771-3.438-.687-1.306-2.36-1.916-3.603-2.656-3.56-4.788-7.247-4.178-11.022-7.486-.943-1.306-1.586-2.612-2.358-3.96-.343-.35-1.801-7.095-1.801-7.749 0-1.044-.343-2.611-.387-3.83l.472-4.048c-.728-2.133-1.458-4.31-1.93-6.529 0 0-.6-5.658-.6-5.964-.3-3.22-.214-6.658-.214-9.88A42 42 0 0 1 .9 15.323c.258-.784.516-1.568.73-2.35.3-2.177.772-4.485 1.2-6.66.473-1.437 1.544-3.091 2.23-3.091 2.016 0 2.574.174 4.418 2.046 1.115 2.046 3.817 5.571 4.16 6.224.729 1.262 3.26 5.31 5.018 7.443 1.5 2.176 4.116 5.44 6.003 6.963 2.66 2.699 8.149 7.182 10.42 9.75 0 0 1.889 2.351 2.746 4.049.043.565.3 1.175.557 1.74.429.566 1.501 1.263 1.501 1.524 0 .174.343 1.35.343 2.089l1.888.87.556-1.175c.13-.26 1.673-1.392 2.36-1.392 1.028 0 1.072.39 1.072 1.523.514-.086 1.158-.436 1.629-.436.643 0 1.072.523 1.672.218.43-.043 1.158-.523 1.416-.523 1.03 0 1.587.828 2.444 1.35.73.043 1.457.174 2.145.435.643-.653 1.459-1.175 2.23-1.175 1.244 0 2.53 1.045 3.86 1.48.814.13 2.187.392 2.444.392 1.416 0 3.218-1.306 4.847-1.437.77.348 1.586.697 2.401 1.044l1.33.305c.3-.479.17-.827.17-1.436 0-.175.387-.436.558-.74-.17-.914-.513-1.916-.513-2.917.128-.826 0-1.349-.087-2.045.215-2.09.13-4.745.772-6.747.215-.653.644-1.262.815-1.959.3-1 .3-1.959.3-3.047.343-.74.815-1.741 1.158-2.48 1.33-1.829 2.745-3.7 4.075-5.354.3-.174.6-.392.9-.61.6-2.045 1.457-4.221 2.616-6.005.815-1.046 1.715-2.047 2.53-3.134 1.114-1.741 2.574-3.656 3.56-5.485.642-1.175 1.33-2.35 2.015-3.526C92.16.48 92.719 0 93.662.218c.644.26 1.887 1 2.573 1.74.129.74 1.371 2.395 1.715 3.222.817.74 1.587 2.045 1.673 2.916.044.87.472 2.307.472 3.395 0 1.61.086 3.482 1.03 4.787 0 .35.857 2.265.857 3.614 0 1.871.085 4.309.128 4.44.087 2.393.13 4.962.13 7.354l-1.115 11.491c0 .828.6 1.742.685 2.613.3 3.22.987 6.528.858 9.749-1.329 4.266-2.616 6.66-3.9 9.098-.688 1.349-2.276 2.697-4.076 4.482-1.544 1.654-2.703 2.916-4.203 4.528v1.87l.215.566.085.61.215 1.001.085 1.175.13.61c.17 2.829.3 5.44-.43 8.356l-.514 1.568-.471.914c-.258.957-.13 1.96-.258 3.003l.128 1.567 1.545 9.184c.429 2.002 5.403 19.282 5.403 19.282l.815 1.349c1.03 1.219 5.961 8.444 6.519 8.923.729 1.698 3.515 6.485 4.46 7.878-2.788 2.525-6.606 5.746-8.406 7.051-1.243.914-4.589 3.525-7.933 5.179-2.488 1.263-5.705 2.83-7.163 3.614-.772.435-7.376 2.742-10.035 3.351-2.274.566-8.534 1.741-10.893 2.046-2.915.392-6.603.304-10.163.218-2.745-.088-5.49-.175-7.806-.523-3.475-.52-8.836-1.869-12.825-3.089"
       style="fill:#161413;fill-rule:nonzero;stroke:none"
       transform="translate(59.076 86.624)"
       id="path47" />
    <path
       d="M0 .217.302 0z"
       style="fill:#fff;fill-rule:nonzero;stroke:none"
       transform="translate(128.621 244.487)"
       id="path48" />
    <path
       d="M3.132 64.158c.384-.74 1.2-2.438 1.2-2.438 1.414-2.09 5.79-8.357 6.69-9.75.515-.391 1.157-1.392 1.5-1.916-4.031 1.394-7.676 4.223-11.536 5.92.043-.086-.943-4.744-.943-8.618C.043 44.832 0 42.48 0 41.132c0-1.393.354-2.622.825-3.405 3.088-8.291 4.64-9.517 7.239-11.582 2.438 1.413 4.888.948 7.14-.708 1.12-1.244.792-2.67.92-3.89-.3-.913-.429-.48 0-1.525.257-.827.43-2.133.43-3.09-.258-1.306.815-2.22.815-3.57-.258-.696-.858-1.35-1.244-1.959.128-.347.557-.696.557-1.044 0-.305-.386-.827-.557-1.219-.17-.391.086-.783.3-1.175 0-.653.129-1.087.43-1.61 0-.87 1.2-2.177 1.714-2.916L20.542 0l.473.827.213 1.175c.043.392.215 1.044.3 1.437a482 482 0 0 1 2.444 10.881c1.03 4.875 2.403 10.054 2.573 14.494l.3.914c2.274 1.96 4.889 5.137 6.82 8.183 2.23 3.482 3.645 6.573 5.102 9.837-3.344 3.048-8.62 7.312-12.65 9.14-6.433 2.525-12.738 5.267-17.756 6.051-.512.087-3.472.826-5.23 1.219"
       style="fill:#fff;fill-rule:nonzero;stroke:none"
       transform="translate(126.106 180.533)"
       id="path49" />
    <path
       d="M.685 2.176v-.088c-.6 0-.685-.304-.6-.651C.214.827.987 0 1.587.914c.213.348-.172 1.088-.902 1.262"
       style="fill:#fff;fill-rule:nonzero;stroke:none"
       transform="translate(118.642 220.862)"
       id="path50" />
    <path
       d="M.557 7.05 0 6.965C0 6.57.128 5.962.128 5.57l.258-.174C.815 4.831 1.5 3.657 2.358 2.83 2.744 2.002 3.902.262 4.846 0c-.086.262-.13.523-.172.74-.6.827-1.03 1.437-1.458 2.481-.9 1.435-1.372 2.698-2.659 3.83"
       style="fill:#fff;fill-rule:nonzero;stroke:none"
       transform="translate(120.513 213.703)"
       id="path51" />
    <path
       d="M0 8.314v-.61l.602-.566L0 6.528l.602-.695.085-.13c.385-.828 1.115-1.916 1.8-2.83C3.347 1.74 4.418.696 5.706 0l.6 1.044 1.243-.74-.429.567-1.287 1 .3-.522-1.028.74c-.514.697-1.03 1.436-1.502 2.089-.6.783-1.2 1.654-1.757 2.655z"
       style="fill:#fff;fill-rule:nonzero;stroke:none"
       transform="translate(119.326 209.934)"
       id="path52" />
    <path
       d="M.13.61 0 .305C.429 0 .514.435.514.74z"
       style="fill:#fff;fill-rule:nonzero;stroke:none"
       transform="translate(99.739 210.416)"
       id="path53" />
    <path
       d="m0 8.095 1.243-3.22 1.33-1.872.3-.827.686-.174.729-1.174L5.318 0h.685C5.53.653 4.93 1.262 4.287 1.872l-.6.74h-.43v.305l.6-.915c.644-.086.644.784.73 1.22h-.9l-.515.957c-.171.61-.258 1.219-.6 1.741-.6 0-.43-.304-.43-.522-.513.74-.986 1.611-1.415 2.394z"
       style="fill:#fff;fill-rule:nonzero;stroke:none"
       transform="translate(99.433 202.267)"
       id="path54" />
    <path
       d="M.171.696 0 0l.472.305L.3.61z"
       style="fill:#fff;fill-rule:nonzero;stroke:none"
       transform="translate(100.713 208.928)"
       id="path55" />
    <path
       d="M5.463 5.954h-.558l.729-.392-.3-.74c-.6-.043-1.889-.804-2.274-.935C2.545 3.757.172.697 0 0c1.243 0 3.381 3.299 6.148 3.08l1.243-1.262c.473 0 .603-.609.902-.304.172.304.085.87.085 1.349 0 .391-.043.915-.257 1.35-.472.087-.815.304-1.242.478 0 .436-.13.566-.43.871-.086.61-.386 0-.686.392z"
       style="fill:#fff;fill-rule:nonzero;stroke:none"
       transform="translate(132.724 200.063)"
       id="path56" />
    <path
       d="M1.845 2.872C1.158 2.392 0 .782 0 0c2.145 1.87 4.118 3.699 6.432 4.526 1.76.653 3.903.61 6.22.436 3.121-.235 2.94-.677 5.724-2.017l-.104 1.176c-1.814 2.369-2.843 1.146-5.577 2.013-1.83.639-5.017.457-6.176 0C3.603 3.48 2.96 4.7 1.845 2.872"
       style="fill:#fff;fill-rule:nonzero;stroke:none"
       transform="translate(106.595 199.443)"
       id="path57" />
    <path
       d="m.602 1.872-.13-1H0L.602 0h.3l.385 2.176z"
       style="fill:#fff;fill-rule:nonzero;stroke:none"
       transform="translate(140.206 198.289)"
       id="path58" />
    <path
       d="M0 0c.215.217.557.48.643.74.687.392 1.372 1.088 2.059 1.436.686.305 1.543.784 2.316 1.176.127.61-.173.305-.473.392-.685-.348-2.53-1.307-3.388-1.61C.514 1.305 0 1.087 0 0"
       style="fill:#fff;fill-rule:nonzero;stroke:none"
       transform="translate(134.174 196.759)"
       id="path59" />
    <path
       d="m9.693 5.049-.73-.218-1.672-.305-1.545-.174-2.144-.87-.857-.392-.9-1.044-.987-.61L.13.696 0 0l.858.696c.9.61 1.415 1.48 2.616 2.09l.815.086 1.158.74c1.114.35 2.572.306 3.688.306h.73z"
       style="fill:#fff;fill-rule:nonzero;stroke:none"
       transform="translate(107.312 197.502)"
       id="path60" />
    <path
       d="m3.045 1.872-.6-.13L0 0h.728l1.63.523c.814 0 1.844.522 2.616.218l1.93.304.515.218-.814.479z"
       style="fill:#fff;fill-rule:nonzero;stroke:none"
       transform="translate(110.982 197.657)"
       id="path61" />
    <path
       d="M8.148 13.363 6.433 11.62c0-.87-4.846-8.138-5.533-9.575L0 .479C.3.479 1.03 0 .473 0l.857.174c.385 1.48 1.715 2.22 2.273 3.265.73 1.305 1.415 3.134 2.144 4.831l1.158 1.48.728 1.132.816-.741-.3 1.785 1.458-1.176-.858 1.786z"
       style="fill:#fff;fill-rule:nonzero;stroke:none"
       transform="translate(96.367 185.872)"
       id="path62" />
    <path
       d="M4.718 2.874c-.43-.218-.943-.262-1.415-.436C2.574 2.612.514 1.175.429 1.132.3.827.086.305 0 0c1.157.523 2.145 1.132 3.303 1.741h1.415c.3-.13.472-.435.729-.74.858.696.815.435.815 1.698-.43 0-1.114-.218-.729-.523l-.086.088c-.257.217-.515.435-.729.61"
       style="fill:#fff;fill-rule:nonzero;stroke:none"
       transform="translate(134.676 194.557)"
       id="path63" />
    <path
       d="M.214.436C0 0 1.115.13.687.523z"
       style="fill:#fff;fill-rule:nonzero;stroke:none"
       transform="translate(119.984 197.915)"
       id="path64" />
    <path
       d="M.3.522 0 0h.729z"
       style="fill:#fff;fill-rule:nonzero;stroke:none"
       transform="translate(106.175 196.206)"
       id="path65" />
    <path
       d="M6.176 3.395c-.558-.218-1.76-.305-2.401-.305v-.435c-.901-.131-.859-.784-1.844-.61 0-.13-.045-.26-.087-.435L0 0l1.244.304c.342.349 2.188 1.133 2.702 1.262.858.218 3.902.654 4.288 1.22l.3.826c-.814-.087-1.543-.13-2.358-.217"
       style="fill:#fff;fill-rule:nonzero;stroke:none"
       transform="translate(111.403 193.099)"
       id="path66" />
    <path
       d="M2.358 7.574v-.915L.514 5.18.213 4.048l1.33.61-.428-1.22L0 2.394v-.61L1.93 0l.213 1.262-.513.61c.256.217.728.392.728.608l-.127 1.132c.257.74 1.115 1.48.857 2.177z"
       style="fill:#fff;fill-rule:nonzero;stroke:none"
       transform="translate(139.261 188.934)"
       id="path67" />
    <path
       d="M0 4.091.214.871.73.044v.61L.9 2.828C.815 3.134.815 3.83.815 3.83c.043.523 1.33 1.35 1.758 1.35.772 0 2.102.087 3.045-.39.343 0 1.373-1.307 1.373-1.35.386-.61.772-3.222.987-3.44-.172.48.213 2.177-.13 3.004-.686 1.523-1.115 2.48-2.659 3.308-2.83.348-3.56.609-5.189-2.22"
       style="fill:#fff;fill-rule:nonzero;stroke:none"
       transform="translate(132.583 184.974)"
       id="path68" />
    <path
       d="M.3.827H0L.128 0l.9.827z"
       style="fill:#fff;fill-rule:nonzero;stroke:none"
       transform="translate(118.592 190.816)"
       id="path69" />
    <path
       d="m.643 5.528.902-2.481C2.187 2.394 3.73 1.479 3.903.609l1.2.131.129-.61 1.716.48c.429.61.642.826.857 0h.686l1.329.739 1.544-.74 2.015.566c.258 0 .774-.87 1.158-1.175l5.403 4.048.301.915c-.858-.348-1.457-.915-2.316-1.307l-1.672-.435-.17.305-1.46.13-.943-1.044-1.587-.305-.558-.217-1.715.958c-1.458-.48-1.887-.218-3.473-.958-2.315.217-2.272.74-3.86 1.48-.857 1.35-1.63 3.438-.9 4.962 3.216 3.09 7.719 2.872 7.505-2.612.343.217.686.434 1.029.61.171 1.523-.3 3.09-1.158 4.048-.728.783-2.1 1.392-4.031 1.175-1.33 0-2.66-.697-3.387-1.612C.557 9.01 0 7.051.643 5.528"
       style="fill:#fff;fill-rule:nonzero;stroke:none"
       transform="translate(119.804 179.202)"
       id="path70" />
    <path
       d="M0 .87V0l1.029.435-.6.174z"
       style="fill:#fff;fill-rule:nonzero;stroke:none"
       transform="translate(116.859 190.036)"
       id="path71" />
    <path
       d="m1.544 1.61-.385-.173L.987.914H.3L0 .61V0l.9.61 1.073.609z"
       style="fill:#fff;fill-rule:nonzero;stroke:none"
       transform="translate(114.588 188.78)"
       id="path72" />
    <path
       d="M.3.523C0 0 1.159.218.73.609z"
       style="fill:#fff;fill-rule:nonzero;stroke:none"
       transform="translate(109.443 189.426)"
       id="path73" />
    <path
       d="M0 1.741.6 0l.815.087-.085 1.219-.73.565z"
       style="fill:#fff;fill-rule:nonzero;stroke:none"
       transform="translate(109.888 187.176)"
       id="path74" />
    <path
       d="M.729 1.131v-.087H.215L0 0l.943 1.262z"
       style="fill:#fff;fill-rule:nonzero;stroke:none"
       transform="translate(112.935 186.754)"
       id="path75" />
    <path
       d="M0 1.567v-.74L.429 0l.73.305-.13.957z"
       style="fill:#fff;fill-rule:nonzero;stroke:none"
       transform="translate(111.268 185.36)"
       id="path76" />
    <path
       d="M0 .61C0 .522.3 0 .3.522z"
       style="fill:#fff;fill-rule:nonzero;stroke:none"
       transform="translate(112.575 185.139)"
       id="path77" />
    <path
       d="M0 .697V.305C.558 0 .729 1 .3.697z"
       style="fill:#fff;fill-rule:nonzero;stroke:none"
       transform="translate(114.027 184.682)"
       id="path78" />
    <path
       d="M62.974 54.842v-.74c-.986-1.436-3.001-3.395-3.901-4.005-.772-.522-2.66-1.958-4.247-2.96-2.701-.13-5.574-.173-8.277-.173-1.2.086-2.101.392-3.173 1.131l-.687.914v-1.131l-1.329-.174v-.87l-2.573.13-1.243.74-.172-.13.43 1.74c-.345-.043-.644.13-1.03.044-.816.566-1.887 1.654-2.016 1.959l-1.029-.436-.428-1.436-.902 1.044-1.243-.61-.172-1.043-1.03.304-1.242-.522 1.844-3.83h-.687l.086-1.132h.3c.3-.826.514-1.785.514-2.655 0-.827.044-1.872.086-2.742l-.6.173c0-.087.043-2.306-.386-1.392l-1.33 3.7-.427 2.045-.386.131c-.816 1.09-3.002 3.004-3.217 3.004-.085 0-2.702 1.523-3.946 1.958l-.6.827h.3l-1.03 3.657-1.115.392-.428 1.349-.172-2.177 2.016-4.962c.987 1.523.771.218.129-.827 1.715-.783 3.088-1.611 4.202-2.611 1.116-1.002 1.93-2.22 3.131-3.526 0-.696.085-1.523-.43-2.046l-1.715.61.601-1.697-2.316-.436.3-.435 2.745-1.132c-1.372 0-2.658-.304-4.76-1.088-.943-.479-1.116-.74-1.458-1.828l1.33.436.085-.436 1.33.566h.129l.686-.436c.429.436 1.029.305 1.63.305 0-.305.771-.61 1.029-1.654l1.415-.217v.74l1.115-1.35 1.972-1.349c.987.74 2.231 2.525 2.445 2.786 0 0 2.144 1.002 3.902.61-.987-.306-1.63-.654-2.573-.87l-1.458-1.612.301-.695c1.5 1 3.772 1.261 5.618.652l-.815-.436c-1.46.349-2.96-.652-3.346-.652-.344 0-2.272-1.567-2.272-2.002 0-.175-.601-1.568-.901-2.22l.6.522c.43.915 1.501 1.74 1.886 1.74.6 0 1.972.436 3.175.305l-3.945-1.74-1.202-1.436-.385-1.263 1.116-.74.17-4.527-1.286-.957.171-.74 2.36 1.437 1.33-.697-3.475-3.221-4.373-.305-2.145 1.131 1.415-1.566-.6-.61-2.145 1.045-1.244 1.435-1.029-.39.3 1-3.73 1.873-.13.739 2.874-1.437 1.244-.74 1.2-.304-2.058 1.437.128.304c4.265-1.105 11.719 1.495 5.795 3.944l-.476 1.888c-1.116-.392-2.402-.435-3.602-.609l-3.86.174v-.914l.728-.305v-.217l.172-.61.429.697c.172-.61.343-1.045.814-1.568l-.943.131c0-.653.686-.696.943-1.436l-.943-.436-.472 1.263c-1.116.61-3.344 1.392-3.43 1.392-1.159 0-6.106-3.535-6.75-1.576C0 32.27 16.583 42.772 15.372 43.22c-2.058-2.089-3.73-2.96-5.188-5.702-1.373-.697-2.36-2.785-3.388-3.569-.386-.783-.686-1.872-.686-2.612 0-2.001.514-5.353.514-6.615 0-1.785 2.187-7.4 3.775-8.967 1.543-2.524 3.001-4.614 5.102-7.094 3.046-2.48 2.316-4.788 3.946-6.441.3 0 .771.565.943.565.086 0 .686.261 1.201.261.944 0-1.458 2.263-2.144 2.872a38 38 0 0 1-1.93 2.656c0 .827-2.101 3.004-2.658 3.743.557-.305 2.958-2.96 3.344-3.699.558-.871.986-1.48 1.715-2.22.987-1.219 2.06-2.22 2.745-3.657.472-.435 1.115-1.48 1.245-1.566C23.993 1.087 25.28 0 25.45.479c.514 1.437-.387 2.306-1.501 3.438-.6.914-1.845 2.133-1.845 2.655-.043.696-.9 1.524-1.715 2.525l-2.873 3.7c-.172.304-2.058 2.263-2.016 2.306l1.2-1.044c.73-.61 1.888-1.96 2.617-2.699.857-1.175 2.83-3.177 3.216-4.004.343-.828 1.115-1.35 2.144-2.438 1.03-.914 1.973-1.435 3.046-2.263.9-.48 1.586-.87 2.53-1.349.6 0 1.2.086 1.629.304-.343.174-.943.436-1.03.436-.557 0-.77.696-1.371 1.131-.258.522-.644 1.045-.944 1.567-.772.566-1.372 1.306-2.144 1.828-.472.566-1.115 1.132-1.587 1.698.686 0 1.715-.783 2.187-1.263.816-.957 1.158-.783 2.016-1.654.6-.609 1.115-1.391 1.63-2.176.858-.218 1.329-.087 1.886-.087 1.073 0 1.116-.523 2.316-.435l-.085.828c-1.158 1.044-1.801 1.48-3.26 1.48-.042 0-1.715 2.132-1.757 2.175-.816.48-1.502.696-2.23 1.263.728-.218 2.701-.654 2.743-.697.172-.087.987-1.218 1.459-1.872 1.116-.174 2.494.06 2.976.243 1.178.447 1.784.107 3.508 2.767 3.428 3.565.202-.583-.652-2.01-.157-.258-1.801-1.652-2.102-2 .729-.044.772-.262 1.629.086.816.305 1.072-.523 1.716-.523.857 0 1.802.305 2.444.958.044.435.044 1.35.044 1.35 0 .435.986.392 1.715.392.3.652.687 1.523 1.115 2.088.815.218 1.33.391 2.145.391 3.847 12.04 2.71.304.729-.609-.39-.18-1.844-1.219-2.788-1.74-.559-.697-1.115-1.22-1.501-2.003 2.485.326 3.908.445 6.31.542 3.873-1.41.898-.874-1.804-1.069-1.329-.043-2.534-.256-3.905-.3-1.631-1.654 1.371-.522 1.371-.522l1.588-.915c1.63-.26 3.387-.26 4.417 0 1.543.393 3.259 2.7 4.846 3.919 1.03 1.174 2.444 2.48 3.816 3.351 1.93 1.654 5.275 5.353 7.162 7.616 2.273 2.655 2.103 5.006 2.66 8.01.043 1.13.256 2.262.386 3.438l.3.74-.3.697c.558 1.175.9 2.828.9 4.134 0 2.438.3 5.397 0 7.922-1.2 3.613-3.13 7.443-6.218 9.663z"
       style="fill:#fff;fill-rule:nonzero;stroke:none"
       transform="translate(78.79 130.464)"
       id="path79" />
    <path
       d="M.3.958 0 0l.472.13z"
       style="fill:#fff;fill-rule:nonzero;stroke:none"
       transform="translate(140.157 184.127)"
       id="path80" />
    <path
       d="m1.415 1.48-.128-.435-.3-.304H.686L0 1.045l.257-.74.6-.305c.858 0 .43.436.945.74z"
       style="fill:#fff;fill-rule:nonzero;stroke:none"
       transform="translate(115.589 181.025)"
       id="path81" />
    <path
       d="m.428 8.88 1.244.13V7.748L.601 6.094c1.887.783-.601-1.132.727-1.132l-.9-1.74c.343-.306.73-1.089.988-1.176L2.4 1.22 2.1.479 3.216 0v.914l-.3 1.96c.472-.48 1.245-1.22 1.5-1.829h.559v1.001l.9.13-.3.48v.26l.3.48H7.29l1.416.435.128 1.132L6.69 6.312l-2.145.522-.815 1.654-1.63-.305-.129 1.568c-.772-.87-.514.217-.943 0z"
       style="fill:#161413;fill-rule:nonzero;stroke:none"
       transform="translate(114.169 168.464)"
       id="path82" />
    <path
       d="M12.694 18.15c-1.072-.01 1.372-2.264 1.93-3.657-.73.654-1.76 1.306-2.187 1.306-.343 0-1.673.349-2.616.436 1.886-.87 3.989-1.22 4.974-3.395-2.06.913-3.688.74-4.846.74-.858 0-3.73-1.35-3.73-2.612h.427c1.545.87 2.83 1.697 4.59 1.784.6-.26 2.058-1.088 2.273-1.261.17-.131 1.158-1.742 1.286-2.482l-.985.088c-.73 1.392-2.06 2.698-2.873 2.698-2.017 0-3.132-.26-4.718-1.523-.945.696-1.287 1.045-2.016 2.046l-1.115 2.524c.129-.653.214-1.305.3-2.002l2.358-3.004.73-.739.3-1.306c-1.158.653-2.316 1.74-3.303 2.655-1.115.304-2.358.827-3.473 1.045.47-.262.9-.523 1.33-.827 1.544 0 2.83-1.392 3.687-2.568.387-.392 1.373-1.48 1.93-1.48 1.723-4.8 2.746-.423 5.232-1.567 1.545.522 1.758 1.175 2.874 2.308-.087-.915-.859-3.134-1.458-3.744C12.87 2.718 10.5.983 11.065 0c1.072 1.089 2.444 2.22 3.13 3.613.6 1.306 1.415 3.134 1.759 4.483.17 1.044.3 2.09.3 3.178-.086 2.393-2.145 4.656-2.145 6.485-4.376 7.291.604.408-1.415.39"
       style="fill:#161413;fill-rule:nonzero;stroke:none"
       transform="translate(131.594 150.529)"
       id="path83" />
    <path
       d="M.215.392C0 0 1.115.088.73.522z"
       style="fill:#161413;fill-rule:nonzero;stroke:none"
       transform="translate(110.762 163.616)"
       id="path84" />
    <path
       d="m2.444 2.176-1.33-.61-.943-.74L0 .524.728 0l.601.827 1.716.74z"
       style="fill:#161413;fill-rule:nonzero;stroke:none"
       transform="translate(107.735 161.463)"
       id="path85" />
    <path
       d="M0 1.785h.3l.557-.131.473-.304h.213l.515-.436L2.573 0l1.114.435-.685.48-1.544.957-.3.216z"
       style="fill:#fff;fill-rule:nonzero;stroke:none"
       transform="translate(143.652 161.486)"
       id="path86" />
    <path
       d="M.729.827H0V.13L.43 0h2.015l.6.958L1.03.827z"
       style="fill:#fff;fill-rule:nonzero;stroke:none"
       transform="translate(100.228 160.97)"
       id="path87" />
    <path
       d="M1.758 0c.6.566 1.158 1.088 1.973 1.306.557 0 1.2.087 1.716-.174-.13.261-.473.87-.686 1.044-.514.61-1.545.696-2.316.262C1.5 1.915 0 .218 1.758 0"
       style="fill:#fff;fill-rule:nonzero;stroke:none"
       transform="translate(137.888 158.947)"
       id="path88" />
    <path
       d="M.43.74 0 .131.815 0z"
       style="fill:#fff;fill-rule:nonzero;stroke:none"
       transform="translate(146.491 160.393)"
       id="path89" />
    <path
       d="M0 .61.386 0z"
       style="fill:#fff;fill-rule:nonzero;stroke:none"
       transform="translate(146.92 159.05)"
       id="path90" />
    <path
       d="m1.715 5.572-.9-.174-.086-.87 1.715.434-.3-.61-.3.176h-.429L.43 3.83C.258 3.178 0 2.308 0 1.566 0 .783.3.175 1.243 0c.345.349.172 1.045.515 1.392 0 .523.3 1.176.815 1.524 1.03.523 1.458.479 2.53.305.172-.087.343-.174.515-.305.215-.565.515-.261 1.115-.13l-.428 1.35h.428l-.172.695h-.428l-1.03-.173-.214-.13-.171 1.044-1.845-.48.815.174z"
       style="fill:#fff;fill-rule:nonzero;stroke:none"
       transform="translate(99.46 153.351)"
       id="path91" />
    <path
       d="m3.602 56.758-.128-.174c0-2.22.557-4.048.3-6.746-.472-1.567-1.501-3.178-2.831-4.353.256-1.871-.943-1.61 1.802-2.916.728-.913.728-.305.857-1.218l1.586-1.176c.815 3.134.514 1.044 2.145 1.044 0 .783-.343 2.525.128 3.004-.086.826-.042.826-.729 1.349-.857.74-.772 1.697-1.845 1.872 1.073.217 1.802 0 2.875 0 .258.696.428.87.428 1.653.902.523.643-1.087.988-1.653 1.285-.785.857-.304 1.243-1.872 1.458-.565.772-1.044 1.758-1.044l-.43-1.437c-.857-.217-1.286-.26-2.143-.13-.816-.827-1.03-1.61-1.33-2.568l.215-1.654-1.63-.305-.728-.74c1.242-.696 1.715-1 3.045-.523 1.072.087 2.744.523 3.044 1.48.514.74 1.329 2.394 1.373 2.437l.3.13-.258-5.309-.043-3.526c.428-2.176-1.63-2.088-1.63-4.178 0-1.262.471-2.96.902-4.091.041-1.611.214-1.393.214-3.526.258-2.482.643-5.223.47-7.79.13-2.438-.042-5.094-.257-7.531-.043-.436-.3-1.785-.513-2.176L12.865 0q.578 1.241 1.157 2.48c.172 1.611.473 2.96.473 4.658 0 2.045.085 4.353.128 6.399.3 4.047-.128 8.095-.729 12.143l-.73 2.612h.73l.729 2.045c-.686 1.828-.215 4.004.085 5.92-.043 1.437.215 2.96-.257 4.44-1.244 3.612-2.573 7.18-5.19 9.967-.813 1.002-4.544 4.963-5.659 6.094"
       style="fill:#fff;fill-rule:nonzero;stroke:none"
       transform="translate(145.495 101.796)"
       id="path92" />
    <path
       d="M0 .523.815 0h.6l1.159 1.045c-.471.043-.944.174-1.33.087C.944 1.088.386.697 0 .522"
       style="fill:#fff;fill-rule:nonzero;stroke:none"
       transform="translate(140.372 156.919)"
       id="path93" />
    <path
       d="M1.03 1 .9.828.172.61 0 0l1.33.696z"
       style="fill:#fff;fill-rule:nonzero;stroke:none"
       transform="translate(98.839 156.816)"
       id="path94" />
    <path
       d="M1.33.828 0 .74.3 0h.429l1.287.74z"
       style="fill:#fff;fill-rule:nonzero;stroke:none"
       transform="translate(103.113 153.895)"
       id="path95" />
    <path
       d="M11.921 26.944s-.985-.784-1.715-.828c-.428.13-.428.436-.128.61l1.029.827c-1.844-.61-3.13-1.35-5.446-2.786-2.145-2.655-3.43-6.007-3.43-8.706 0-1-.945-3.742-1.073-4.439 1.544.566 1.416.566 2.358 1.567.043.217 1.073 1.306 1.245 1.306.214.87.256 1.088.428 1.871-.3.436-.815 1.263-1.115 1.654-.042.61-.214 1.262-.3 1.872 0 .827-.129 1.001.43 1.567.17-1.132.428-2.35.557-3.439 1.071-.565 1.243-.653 2.573-.74.47-.13.857-.696 1.072-.957.857-1.045.558-1.306.085-1.306-.3 0-.9.522-1.286.522.471-.479.256-1.132.128-1.742 0-1.174-.6-2.741-1.244-3.525-.343-.566-1.115-.48-1.329-.523-.43-.043-2.23-2.699-2.23-2.699 0-.782-.772-2.61-1.588-3.742 0-.523-.685-1.088-.857-1.567C.042 1.175 0 .565.085 0c.515.523.558 1.262.9 1.48 0 0 .558.522.815.695.472.045.858.176 1.244.436.471.305.6 1.001 0 .914-.514-.348-.644-.61-1.244-.61.086.828.086.871.815 1.133l.429-.436c.43.305.815.61 1.2.871.129.391.816 1.698.816 2.176.643.305 1.071.478 1.457 1.001-.214.74.086.827.386 1.872.987 1.132 1.672 2.437 2.659 3.612.73 1.133 1.887 2.612 2.66 3.396 1.157 1.175 2.229 3.83 3.258 3.786.944.958 1.416 2.394 2.573 3.003.558.305 1.288-.522 1.93-.827.687-.87 1.845-.609 2.145-1.349l-.3.915-.172 1.262 1.287-.13c.128.609-.13.304-.6.87l-.816.304-.6 1.306-.944-.305-.215.87-1.114-.13.3.827-1.416.522v-1.479h-.6v.959c-.472.26-.985 1.044-1.458 1.044-1.242 0-2.7-.61-3.559-1.044"
       style="fill:#fff;fill-rule:nonzero;stroke:none"
       transform="translate(61.17 125.612)"
       id="path96" />
    <path
       d="M0 .74 1.2 0 .73.74z"
       style="fill:#fff;fill-rule:nonzero;stroke:none"
       transform="translate(98.56 149.118)"
       id="path97" />
    <path
       d="M.729 1.959h-.3V1H0V0l1.244.828.3 1.044z"
       style="fill:#fff;fill-rule:nonzero;stroke:none"
       transform="translate(109.74 146.278)"
       id="path98" />
    <path
       d="M0 .74.301.217.601 0h.857l-.3.74H0"
       style="fill:#fff;fill-rule:nonzero;stroke:none"
       transform="translate(102.409 146.023)"
       id="path99" />
    <path
       d="M2.358 1.87.9 1.48l-.172-.436L0 .74V0l.6.435L1.93.87z"
       style="fill:#fff;fill-rule:nonzero;stroke:none"
       transform="translate(110.943 144.449)"
       id="path100" />
    <path
       d="m.815 1.261-.387-.086L0 .565.729 0l.3.74z"
       style="fill:#fff;fill-rule:nonzero;stroke:none"
       transform="translate(144.362 145.059)"
       id="path101" />
    <path
       d="M1.287 1.132.302 1 0 .304 1.887 0l.258.696z"
       style="fill:#fff;fill-rule:nonzero;stroke:none"
       transform="translate(108.165 144.084)"
       id="path102" />
    <path
       d="M8.75 8.14C7.591 7.183 6.39 5.137 5.704 3.92a23 23 0 0 0-1.973-1.35v.522c-.3-.566-.257-.696-.858-.913 0 .522.043.39.472.39 0 .436.257 1.002.686 1.22.13.478.429.653 0 .87-.514-.522-1.372-1.089-1.715-1.784C1.974 2.525 1.16 1.873.73 1.437.215 1.089.172.654 0 0l2.445.61.687-.218v.74l2.743 1.35.3.696.859.74 1.844 2.48.3.741.129-.218.17-.696.988.696c0 .654-.215.697-.6 1.22-.344.086-.73.044-1.116 0"
       style="fill:#fff;fill-rule:nonzero;stroke:none"
       transform="translate(71.368 136.928)"
       id="path103" />
    <path
       d="M.685 3.09 0 1.786l.986-.741C1.2.696 1.329.044 1.715 0c.3 0 .257.61.43.914z"
       style="fill:#fff;fill-rule:nonzero;stroke:none"
       transform="translate(143.257 141.978)"
       id="path104" />
    <path
       d="M4.46 20.077C3.216 18.815.644 17.509 0 15.899c.258-.654.686-1.088 1.03-1.741C1.415 13.375.728 9.5.47 8.369c-.213-.74-.428-5.223 0-5.832l.945 2.187c1.614-3.48 4.066-4.724.858.075-.087 2.526-.173 2.874 1.071 5.137.471.653.986 2.22 1.416 2.655-.772.784-.3 1.871-1.587 1.871.6.828 2.358 1.654 2.144 2.787.128.478.085 3.177-.858 2.828"
       style="fill:#fff;fill-rule:nonzero;stroke:none"
       transform="translate(135.198 120.2)"
       id="path105" />
    <path
       d="M4.288 11.056c.944-1.611 2.23-3.221 2.872-4.876.3-.87.645-1.566.73-2.48 1.072 0-.943-.436-1.029-.436-.816-.087-1.543-.523-2.273-.914C4.373 2.22 0 .088 0 .088c1.33-.088 3.044 0 4.502 0 1.8 2.35.385 2.088 3.773 1.74 1.073 1.088.43.696.43 1.959 0 .566.258 1.175.172 1.48-.43 1.436-1.33 2.48-2.145 3.612-.942 1.044-1.071 1.654-2.444 2.177"
       style="fill:#fff;fill-rule:nonzero;stroke:none"
       transform="translate(143.357 126.569)"
       id="path106" />
    <path
       d="m0 2.569.257-1.132L1.243 0c.085.653.172 1.175.172 1.871-.558.13-.558.13-.687.697z"
       style="fill:#fff;fill-rule:nonzero;stroke:none"
       transform="translate(69.735 133.509)"
       id="path107" />
    <path
       d="M0 2.799.526.206 2.423 0c.043.479.237 2.016.322 2.494l-.9 1.48z"
       style="fill:#fff;fill-rule:nonzero;stroke:none"
       transform="translate(132.609 131.437)"
       id="path108" />
    <path
       d="M0 2.394C0 1.218.43.958 1.158.217 1.416 0 1.802.087 2.23.087c.258.522.601 1.044.816 1.567-1.115.74-1.63 1.262-3.046.74"
       style="fill:#fff;fill-rule:nonzero;stroke:none"
       transform="translate(114.34 132.404)"
       id="path109" />
    <path
       d="M0 .74V0z"
       style="fill:#161413;fill-rule:nonzero;stroke:none"
       transform="translate(135.883 134.01)"
       id="path110" />
    <path
       d="M.688 1.13 0 .61.515 0l2.316 1h.73c0 .436-.3.74-.6.74z"
       style="fill:#fff;fill-rule:nonzero;stroke:none"
       transform="translate(117.83 132.889)"
       id="path111" />
    <path
       d="m1.017 3.42-.3-.914L0 1.055 1.16 0l1.4 1.766.216.305v.435L1.875 3.55z"
       style="fill:#fff;fill-rule:nonzero;stroke:none"
       transform="translate(95.583 129.046)"
       id="path112" />
    <path
       d="M0 1.262V.74C.643.348 1.201 0 1.93 0l.343 1.131c-.644.175-1.544.131-2.273.131"
       style="fill:#fff;fill-rule:nonzero;stroke:none"
       transform="translate(132.905 130.614)"
       id="path113" />
    <path
       d="M.3 4.052v-.218L0 3.53v-.523l1.028-1.132L.365.756 1.508 0l.122.962.986.391.129.305-.3.74-.987.74H1.2z"
       style="fill:#fff;fill-rule:nonzero;stroke:none"
       transform="translate(94.267 127.309)"
       id="path114" />
    <path
       d="M.483 6.418C.526 5.852 0 2.284.085 1.718 1.115 1.196 1.431 0 2.462.61l-.049 4.307z"
       style="fill:#fff;fill-rule:nonzero;stroke:none"
       transform="translate(132.472 126.073)"
       id="path115" />
    <path
       d="M.643 2.338H.77l.173-.261L0 .424 1.803 0l.298 1.903-1.03.74z"
       style="fill:#fff;fill-rule:nonzero;stroke:none"
       transform="translate(93.78 125.633)"
       id="path116" />
    <path
       d="m0 24.375.6-7.792c.515-1.043.816-2.002.9-3.394.515-3.831 3.345-6.399 5.576-9.402L9.176 0c-.085.218-.085 2.22-.985 3.83-.858 1.437-2.316 3.44-2.53 3.57-.601 1.262-3.817 4.135-2.488 4.918-.343.522-.73 3.787-.815 4.962-.171.261-.343.522-.515.74-.643 0-.816.653-1.115 1.132-.043.391-.3.914.172 1.044.643-.086.985-.304 1.242.436l-.299 1.131H.728l-.428.914 1.158-.479c.299.087.642.131.985.174v.827c-.429.26-.9.48-1.416.61z"
       style="fill:#fff;fill-rule:nonzero;stroke:none"
       transform="translate(132.615 103.596)"
       id="path117" />
    <path
       d="M.301.435C0 0 1.116.131.687.522z"
       style="fill:#fff;fill-rule:nonzero;stroke:none"
       transform="translate(142.626 126.282)"
       id="path118" />
    <path
       d="M26.739 33.08c-.73-.435-1.116-1.175-1.716-1.567 0-.48-.043-.914-.129-1.35-.386-.478-1.072-1-1.5-1.436-2.403-2.655-6.005-4.918-8.278-7.312-1.158-1.175-6.776-8.575-7.633-10.272L0 .047.965 0l1.543 1.871c.3.436 2.616 3.7 4.803 7.139 2.188 3.35 5.19 7.4 6.518 8.966 2.96 3.438 6.734 6.833 6.734 6.833 2.53 2.133 5.146 4.135 7.333 6.486.086.479.472.87.6 1.349z"
       style="fill:#fff;fill-rule:nonzero;stroke:none"
       transform="translate(67.103 93.269)"
       id="path119" />
    <path
       d="M.17 2.48 0 2.262V0l.3.087.6.61-.3 1.565z"
       style="fill:#fff;fill-rule:nonzero;stroke:none"
       transform="translate(135.494 119.183)"
       id="path120" />
    <path
       d="M1.844 14.494c.642-1.131 1.286-2.307 1.972-3.481.472-.784 1.244-1.35 1.715-2.002.473-.305 1.887-3.135 2.146-3.527.557-.74 2.572-3.176 2.572-4.134C11.064.522 11.964 0 12.994 0c.857 0 1.243 1.088 2.015 2.133.215.826.945 1.741 1.845 2.22.6 1.088 1.072 2.742 1.244 3.96.042.566.514 5.18.557 5.834-.086.173-.858-.741-.986-1.611-.172-1.002-.557-2.96-.815-3.83.643-1.307-.9-3.918-1.715-4.962-.687-.653-3.132-.653-3.475-.436l.515 1.175c-1.158 0-1.373.958-1.758 2.046-.557.436-.258.87-1.287.87-.643-.26-.773-.391-1.457-.391 0 .392-1.717 3.046-1.93 3.133-1.244.959-1.159 1.742-1.973 2.917-.258.435-3.774 6.79-1.93 1.436"
       style="fill:#fff;fill-rule:nonzero;stroke:none"
       transform="translate(139.944 88.333)"
       id="path121" />
    <path
       d="M6.904 3.002c-.3-.61-1.329-1.262-2.1-1.262-.516 0-1.073.435-1.502.566-.43 1.958-.643 3.96-.944 6.136-.771 3.352-1.029 6.53-1.286 9.925 0 2.437-.086 4.7-.086 7.138 0 1.654.13 3.525.13 5.18s.128 3.526.084 5.18c0-.436-.6-2.134-.815-3.83-.214-1.917-.128-4.528-.214-6.356C.042 22.372 0 18.584 0 17.409c0-2.176.472-4.44.6-5.962l.815-4.615.815-4.657C3.088.826 3.173 0 4.631 0c1.545 0 2.016 1.043 3.131 2.045l.214.74z"
       style="fill:#fff;fill-rule:nonzero;stroke:none"
       transform="translate(60.328 90.613)"
       id="path122" />
    <path
       d="m30.311 0 7.185 22.028 23.126-.014-18.688 13.659 7.16 22.045L30.312 44.12 11.528 57.718l7.16-22.045L0 22.014l23.126.014z"
       style="fill:#161413;fill-rule:nonzero;stroke:none"
       transform="translate(82.189)"
       id="path123" />
    <path
       d="m21.76 0-4.538 13.914-.628 1.925-2.02-.001L0 15.829l11.778 8.608 1.632 1.193-.626 1.925-4.517 13.909 11.863-8.588 1.63-1.18 1.631 1.18 11.863 8.588-4.518-13.909-.626-1.925 1.633-1.193 11.778-8.608-14.574.009h-2.02l-.629-1.924z"
       style="fill:#fff;fill-rule:nonzero;stroke:none"
       transform="translate(90.74 8.981)"
       id="path124" />
    <path
       d="m15.412 0-2.574 7.89-1.094 3.353-3.52-.002L0 11.236l6.647 4.858 2.844 2.08-1.09 3.355-2.555 7.867 6.725-4.868 2.84-2.056 2.841 2.056 6.725 4.868-2.555-7.867-1.09-3.356 2.845-2.08 6.647-4.857-8.225.005-3.52.002-1.094-3.354z"
       style="fill:#ed1b26;fill-rule:nonzero;stroke:none"
       transform="translate(97.088 15.65)"
       id="path125" />
  </g>
</svg>
