<?xml version="1.0" encoding="UTF-8" standalone="no"?>
<svg
   id="Layer_1"
   data-name="Layer 1"
   viewBox="0 0 306 306"
   version="1.1"
   sodipodi:docname="cruz-azul.svg"
   inkscape:version="1.4.2 (f4327f4, 2025-05-13)"
   xmlns:inkscape="http://www.inkscape.org/namespaces/inkscape"
   xmlns:sodipodi="http://sodipodi.sourceforge.net/DTD/sodipodi-0.dtd"
   xmlns="http://www.w3.org/2000/svg"
   xmlns:svg="http://www.w3.org/2000/svg">
  <sodipodi:namedview
     id="namedview1"
     pagecolor="#ffffff"
     bordercolor="#000000"
     borderopacity="0.25"
     inkscape:showpageshadow="2"
     inkscape:pageopacity="0.0"
     inkscape:pagecheckerboard="0"
     inkscape:deskcolor="#d1d1d1"
     inkscape:zoom="2.6372549"
     inkscape:cx="153"
     inkscape:cy="143.14126"
     inkscape:window-width="1920"
     inkscape:window-height="1009"
     inkscape:window-x="-8"
     inkscape:window-y="-8"
     inkscape:window-maximized="1"
     inkscape:current-layer="Layer_1" />
  <defs
     id="defs1">
    <style
       id="style1">.cls-1{fill:#fff}.cls-2{fill:#001f60}</style>
  </defs>
  <circle
     id="circle3"
     cx="153"
     cy="153"
     r="149.14"
     class="cls-1" />
  <path
     id="path47"
     d="M297.25 153A144.25 144.25 0 1 1 153 8.75 144.28 144.28 0 0 1 297.25 153M153 43a110 110 0 1 0 110 110A110 110 0 0 0 153 43"
     class="cls-2" />
  <path
     id="path5"
     d="M222.46 222H83.54V83.08h138.85V222ZM153 95.16a57.38 57.38 0 1 0 57.38 57.38A57.4 57.4 0 0 0 153 95.16"
     style="fill:#de1d3e" />
  <path
     id="polygon7"
     d="M198.3 137.44h-30.2v-30.2h-30.2v30.2h-30.2v30.2h30.2v30.2h30.2v-30.2h30.2Z"
     class="cls-2" />
  <path
     id="path9"
     d="M209 230.49V223h2.61l1 4.48 1-4.48h2.6v7.53h-1.71l.14-5.94-1.3 5.94h-1.45l-1.3-5.94.14 5.94Z"
     class="cls-2" />
  <path
     id="path11"
     d="M219.13 230.49h-1.88V223H220c1.45 0 2.32.57 2.32 2 0 .87-.15 1.45-1 1.74.58.15.87.44.87 1a13.7 13.7 0 0 0 .15 2.47c0 .14.14.14.14.29v.14h-1.88c0-.14-.15-.29-.15-.43v-1.74a.78.78 0 0 0-.58-.87h-.72v2.9Zm0-4.35h.58c.58 0 .72-.43.72-.87 0-.87-.43-1-1.3-.87Z"
     class="cls-2" />
</svg>
