<?xml version="1.0" encoding="UTF-8" standalone="no"?>
<svg
   xml:space="preserve"
   id="Layer_1"
   x="0"
   y="0"
   version="1.1"
   viewBox="0 0 71.5 90.5"
   sodipodi:docname="necaxa.svg"
   inkscape:version="1.4.2 (f4327f4, 2025-05-13)"
   xmlns:inkscape="http://www.inkscape.org/namespaces/inkscape"
   xmlns:sodipodi="http://sodipodi.sourceforge.net/DTD/sodipodi-0.dtd"
   xmlns="http://www.w3.org/2000/svg"
   xmlns:svg="http://www.w3.org/2000/svg"><defs
     id="defs1" /><sodipodi:namedview
     id="namedview1"
     pagecolor="#ffffff"
     bordercolor="#000000"
     borderopacity="0.25"
     inkscape:showpageshadow="2"
     inkscape:pageopacity="0.0"
     inkscape:pagecheckerboard="0"
     inkscape:deskcolor="#d1d1d1"
     inkscape:zoom="8.9171271"
     inkscape:cx="35.717782"
     inkscape:cy="45.25"
     inkscape:window-width="1920"
     inkscape:window-height="1009"
     inkscape:window-x="-8"
     inkscape:window-y="-8"
     inkscape:window-maximized="1"
     inkscape:current-layer="Grupo_17530" /><style
     id="style1">.st0{fill:#e1001e}.st1{fill:#fff}.st2{fill:#ffcb00}</style><g
     id="LOGO-NECAXA"><g
       id="Grupo_1"
       transform="translate(-74.246 -121.433)"><g
         id="Grupo_17529"
         transform="translate(86.245 125.433)"><path
           id="Trazado_21949"
           d="m58.3 20.3-.9-4.6-4.5 1.4c-2.6.8-5.3 1.3-8.1 1.3-6.3 0-12.2-2.5-18.2-7.7L23.7 8l-2.9 2.8C16 15.7 9.4 18.4 2.5 18.3c-2.8 0-5.5-.3-8.2-1l-4.2-.9-.9 4.2C-13 31-12.4 41.9-8.9 52-5.1 62.3 1.4 71.5 10 78.3c4.2 3.3 8.8 6 13.7 8.1 0 0 16.6-7.7 25.4-20.5 9.3-13.2 12.4-28.6 9.2-45.6m-11 44.4C38.8 77 23.7 84 23.7 84c-4.4-1.9-8.6-4.4-12.3-7.4-8.3-6.7-14.5-15.5-18-25.5-3.4-9.6-4-20.1-1.9-30.1l.4-2 1.9.4c2.9.7 5.8 1 8.7 1 7.5.2 14.7-2.8 19.9-8.1l1.3-1.3 1.4 1.2c6.4 5.6 12.8 8.3 19.7 8.3 3 0 5.9-.5 8.7-1.4l2.1-.6.4 2.1c3.1 16.5.2 31.3-8.7 44.1"
           class="st0" /><path
           id="Trazado_21950"
           d="m55.6 18.6-2.1.6c-2.8.9-5.8 1.4-8.7 1.4-6.9 0-13.3-2.7-19.7-8.3l-1.4-1.2-1.3 1.3c-5.2 5.3-12.4 8.3-19.9 8.1-2.9 0-5.9-.4-8.7-1l-1.9-.5-.4 2c-2.2 10-1.5 20.5 1.8 30.1 3.5 10 9.8 18.8 18.1 25.4 3.8 3 7.9 5.5 12.3 7.4 0 0 15-7 23.6-19.3 8.9-12.8 11.8-27.6 8.7-44zm-8.3 18.3h7.9c-.6 8.6-3.3 17-7.9 24.3zM23.7 13.8c9.4 8.3 19.4 10.7 30.4 7.3.9 4.6 1.3 9.3 1.1 14h-63c-.2-4.6.2-9.2 1.2-13.7 12.2 2.7 22.5.2 30.3-7.6m3.9 23.1v42.9c-2.3 1.4-3.8 2.1-3.8 2.1-1.3-.6-2.6-1.2-3.8-1.9V36.9zm-35.2 0H.3v24.2c-2-3.3-3.7-6.9-5-10.6-1.6-4.4-2.6-9-2.9-13.6M6.2 69V36.9h7.7v39.2C11.1 74 8.6 71.6 6.2 69m27.4 6.8V36.9h7.7V69c-2.4 2.5-5 4.8-7.7 6.8"
           class="st1" /><path
           id="Trazado_21951"
           d="M.2 36.9h-7.9c.3 4.6 1.3 9.2 2.8 13.6 1.3 3.7 3 7.2 5 10.6z"
           class="st0" /><path
           id="Trazado_21952"
           d="M41.3 36.9h-7.7v38.9c2.8-2 5.3-4.3 7.7-6.8z"
           class="st0" /><path
           id="Trazado_21953"
           d="M19.9 80c1.2.7 2.5 1.3 3.8 1.9 0 0 1.5-.7 3.8-2.1V36.9h-7.7V80z"
           class="st0" /><path
           id="Trazado_21954"
           d="M13.9 36.9H6.2V69c2.3 2.6 4.9 4.9 7.7 7z"
           class="st0" /><path
           id="Trazado_21955"
           d="M-6.6 21.4c-.9 4.5-1.3 9.1-1.2 13.7h63c.1-4.7-.2-9.4-1.1-14-11 3.4-21 1-30.4-7.3-7.8 7.8-18.1 10.3-30.3 7.6"
           class="st0" /><path
           id="Trazado_21956"
           d="M47.3 36.9v24.3c4.6-7.3 7.3-15.7 7.9-24.3z"
           class="st0" /><path
           id="Trazado_21957"
           d="M20.6 5.6 23.7 4l3.2 1.7-.7-3.5 2.7-2.4-3.7-.4L23.7-4 22.3-.7l-3.7.4 2.7 2.4z"
           class="st2" /><path
           id="Trazado_21958"
           d="M41.9 10.4 45 8.8l3.2 1.7-.7-3.5 2.7-2.4-3.7-.4L45 .8l-1.4 3.3-3.7.4L42.6 7z"
           class="st2" /><path
           id="Trazado_21959"
           d="m-.7 10.4 3.1-1.6 3.2 1.7-.7-3.6 2.7-2.4L4 4.1 2.5.8 1 4.1l-3.7.4L.1 7z"
           class="st2" /></g><g
         id="Grupo_17530"
         transform="translate(93.579 146.589)" /></g></g></svg>
