<?xml version="1.0" encoding="UTF-8" standalone="no"?>
<svg
   xml:space="preserve"
   width="243.032"
   height="411.468"
   viewBox="-215.809 -369.404 500 846.529"
   version="1.1"
   id="svg7"
   sodipodi:docname="pachuca.svg"
   inkscape:version="1.4.2 (f4327f4, 2025-05-13)"
   xmlns:inkscape="http://www.inkscape.org/namespaces/inkscape"
   xmlns:sodipodi="http://sodipodi.sourceforge.net/DTD/sodipodi-0.dtd"
   xmlns="http://www.w3.org/2000/svg"
   xmlns:svg="http://www.w3.org/2000/svg"><defs
     id="defs7" /><sodipodi:namedview
     id="namedview7"
     pagecolor="#ffffff"
     bordercolor="#000000"
     borderopacity="0.25"
     inkscape:showpageshadow="2"
     inkscape:pageopacity="0.0"
     inkscape:pagecheckerboard="0"
     inkscape:deskcolor="#d1d1d1"
     inkscape:zoom="1.9612704"
     inkscape:cx="121.60485"
     inkscape:cy="205.73399"
     inkscape:window-width="1920"
     inkscape:window-height="1009"
     inkscape:window-x="-8"
     inkscape:window-y="-8"
     inkscape:window-maximized="1"
     inkscape:current-layer="svg7" /><path
     fill="#FFF"
     d="M29.411-247.882c-94.41 64.268-111.944 64.268-225.955 64.268h-8.732l-.078 56.929c-.836 188.315-1.706 383.046 235.712 498.52l3.789 1.837 3.804-1.82C277.36 257.361 275.368 63.27 273.458-124.422l-.41-59.139-8.667-.053c-105.176 0-118.696 0-225.545-64.514l-4.801-2.895z"
     id="path1" /><path
     fill="#162577"
     d="M29.222-259.809c-98.046 66.744-116.257 66.744-234.671 66.744h-9.069l-.082 59.127c-.865 195.584-1.763 397.825 244.81 517.752l3.94 1.902 3.948-1.886C286.741 264.921 284.675 63.352 282.69-131.588l-.427-61.418-9.003-.058c-109.234 0-123.271 0-234.244-67.002l-4.985-3.005zm5.371 18.252c107.672 64.703 127.99 66.577 229.657 66.625.09 12.427.278 43.536.278 43.536.172 17.17.36 34.458.36 51.772 0 78.498-3.648 157.333-27.542 228.152-32.535 96.337-97.197 165.36-203.139 216.969C-70.89 313.446-135.22 244.013-167.957 147.209c-25.837-76.429-28.6-162.073-28.6-246.598 0-11.528.041-23.02.111-34.467 0 0 .033-28.866.049-41.076 110.723-.048 135.063-1.787 230.99-66.625"
     id="path2" /><path
     fill="#162577"
     d="m 247.112,-67.357 h -426.003 l -0.127,-94.156 c 105.536,0 124.662,0.427 213.487,-60.152 100.343,60.579 115.11,60.579 211.938,60.579 m -134.341,401.688 -4.371,-2.771 -2.632,-35.733 -2.14,-3.461 -2.329,-54.888 -22.286,-10.922 2.624,-1.017 c 0,0 15.07,8.036 19.892,9.635 2.042,-3.214 2.624,-5.83 5.265,-7.445 1.164,-2.206 -3.223,-8.061 -3.223,-8.061 l -8.044,-19.301 -3.969,0.812 -2.91,-24.328 v -3.805 c 6.871,-32.618 8.052,-17.694 -1.6,-46.36 L 59.006,26.516 V 15.692 l 1.591,-1.025 c 0.574,0.59 5.854,4.83 5.854,5.854 l -1.033,0.586 c 0,2.193 4.256,4.231 5.428,5.846 h 3.657 c 1.607,-1.607 3.214,-3.21 3.805,-3.653 1.607,1.603 1.607,1.021 1.607,2.046 0.582,0 -2.206,3.218 -1.607,3.218 l 3.788,-0.439 c 1.033,-1.172 4.247,-4.825 1.033,-7.597 -1.033,-4.243 -4.821,-5.854 -5.42,-9.077 L 73.47,7.655 V -3.015 L 72.446,-4.04 v -2.198 l -4.821,-4.223 c -2.206,0 0,0 -4.83,1.603 v 0.586 c -0.574,0 -1.607,0.438 -1.607,0 0,-0.586 -0.582,-1.177 0,-2.78 -0.582,-1.603 -3.788,-4.239 -4.821,-5.272 l -2.787,2.058 c -0.435,-1.025 -1.607,-2.05 -2.042,-1.025 l -2.197,2.636 c -1.6,0 -1.6,-4.826 -1.6,-5.851 0,-0.59 -1.033,-0.59 -1.033,-0.59 v 2.78 l -2.771,5.272 h -0.451 c -4.813,-4.239 -5.83,-6.875 -11.836,-6.437 l -3.653,3.214 -1.025,-1.025 c -1.603,4.239 -5.264,4.239 -3.227,7.458 0,1.603 0,3.206 -1.021,4.383 -1.607,0.442 -1.017,0 -2.185,-1.177 -0.451,1.177 -1.033,1.611 -2.644,2.788 0,-0.586 -0.578,-1.168 -1.025,-1.168 l -3.214,1.603 h -0.574 c -1.611,1.177 -2.636,1.624 -3.8,2.636 L 8.834,6.053 c -2.78,0 -1.603,0 -1.603,0.586 0,1.603 -2.202,0.582 -2.202,0.582 0,0 -0.578,-2.193 -1.603,-0.581 0,1.603 0,3.805 1.603,3.805 3.218,1.603 4.83,2.628 5.416,4.239 0,1.025 -0.578,4.83 -0.578,7.458 l -4.83,3.214 c 0,1.168 -1.013,1.168 -1.013,1.168 0,1.033 2.038,2.636 2.038,2.636 0,1.025 0,1.025 -1.025,1.611 -1.013,0 -1.603,-0.586 -2.189,-0.586 -0.438,0 -1.603,0.586 -1.603,1.603 v 7.458 c 0,-3.218 -0.438,3.669 -1.472,3.669 l -3.792,2.181 1.025,7.458 1.173,1.611 c 1.595,1.017 0.438,4.817 0.438,4.817 l -5.494,56.413 -5.194,0.328 h -1.033 c 1.033,1.615 1.033,3.805 1.033,4.837 -0.59,0 -1.603,0 -1.603,0.566 l -1.607,1.033 c 0,1.164 0,1.164 -1.033,1.164 l -1.165,4.682 -3.218,2.198 v 4.821 l 7.105,5.739 -1.689,29.649 -1.033,1.033 -1.165,25.14 -3.218,3.215 -0.443,8.052 v 0.574 l -1.168,16.53 -1.025,10.823 -3.792,3.657 v 11.84 l 82.934,4.903 56.241,-5.511 z m -8.478,-27.338 -0.451,1.755 -21.188,-2.197 0.304,6.429 h -4.387 l 1.164,-8.479 z m -4.239,-10.528 -30.994,-2.051 1.164,-5.706 8.052,1.033 6.863,1.606 0.451,2.477 15.932,0.442 z m -8.479,-25.878 3.493,5.69 3.37,1.188 0.295,7.003 -4.682,-0.435 -4.231,-0.582 z m 1.46,16.514 -14.325,-0.582 -12.586,-0.878 3.518,-5.116 7.019,3.944 8.331,-0.14 z m -27.764,-13.02 -0.017,-34.373 5.002,-11.397 1.705,5.076 0.033,43.047 z m 17.186,8.018 -8.945,-0.312 V 178.3 l 8.945,1.591 z m -2.582,-44.868 2.632,5.854 -0.05,27.206 -8.945,-1.64 v -29.289 l 3.305,-1.246 z M 77.71,91.6 c 0.722,0.877 1.755,1.599 2.493,2.197 L 76.25,97.158 74.2,94.075 Z m 5.42,20.76 -9.068,0.147 -7.02,-0.147 8.618,-5.264 c 0.73,0.738 6.593,4.526 7.47,5.264 m -16.538,-36.692 0.746,-17.121 3.354,1.763 0.295,16.235 0.14,15.628 c -1.313,1.181 -3.066,1.477 -4.821,0.591 -0.149,-7.166 0.424,-7.166 0.286,-17.096 m -1.46,28.214 c 0.738,0.738 1.599,1.46 2.493,2.198 l -4.092,3.214 -1.911,-2.919 z m -5.264,10.512 30.125,-0.721 c 0.737,0.877 -2.337,3.083 -1.46,3.804 l -32.904,2.493 z m -65.802,21.515 -5.112,-2.345 46.053,-6.002 1.468,-0.131 -0.291,1.754 -1.898,1.591 z m 1.025,2.92 -3.362,0.737 c 0,0 -1.468,1.164 -2.046,2.32 -0.295,0 -2.083,-1.008 -1.931,-1.729 0.139,-0.156 3.677,-3.346 3.677,-3.346 z m 11.705,-23.106 5.649,-4.149 7.875,1.845 -7.675,7.568 z m 21.2,58.79 0.73,-29.387 4.375,-3.378 1.755,-3.51 3.505,1.328 -0.017,33.159 z m 10.364,1.148 v 10.905 l -11.828,0.82 0.742,-9.651 z m -9.192,-37.849 c 0.295,-0.442 3.067,-5.854 3.94,-5.575 l 0.882,1.623 -3.083,5.117 z m -3.078,44.015 -0.144,4.23 -3.366,-1.304 -3.51,4.248 -14.333,-0.156 v -6.297 z M 3.274,144.535 3.127,156.228 0.499,157.113 0.942,145.552 H 1.52 l 1.168,-1.755 z m -3.062,19.729 1.755,-3.936 0.873,1.755 -0.287,27.632 -3.952,1.755 0.874,-26.895 z m 3.653,27.501 17.994,-1.902 16.658,-1.468 -3.215,2.771 -13.152,1.313 -26.046,2.337 z m 36.849,-2.493 6.871,0.59 14.037,0.869 -5.264,2.346 -9.225,0.737 -10.963,-1.476 z m -0.731,-140.155 4.379,1.841 v 31.77 c -1.181,1.328 -2.492,1.574 -4.379,0.705 z m 0.026,36.153 4.37,1.345 v 22.089 l -4.387,2.616 z m 8.609,24.614 c 0.722,0.722 7.175,3.937 8.035,4.674 l -8.33,4.526 -5.854,-5.116 z m -4.256,77.929 -4.37,-1.246 -0.009,-47.295 2.485,0.869 1.91,-3.51 v 51.182 z m 2.617,0.246 0.016,-45.573 6.88,-1.755 4.772,-14.037 3.41,5.543 0.017,55.986 z m 2.926,-166.352 7.33,-3.501 -0.032,8.421 -8.167,2.542 z M 4.017,31.788 c 0.435,1.025 0.586,0.881 1.906,0.295 l 1.747,0.721 5.555,-4.821 1.177,0.726 4.821,-3.661 c 0.586,-0.583 -3.218,-4.526 -3.509,-4.821 l 2.045,-1.316 2.923,2.198 2.05,1.459 5.112,-3.666 c -0.279,-0.877 -4.526,-3.948 -5.407,-4.964 1.308,-1.763 2.333,-1.763 3.653,-3.071 v 0.147 l 3.214,3.948 -0.136,1.754 4.678,4.535 2.923,-0.144 0.738,0.873 c -0.443,2.333 5.985,2.05 8.33,1.168 1.033,0 2.051,0 2.788,0.291 -0.599,6.879 -9.807,3.805 -9.807,9.95 -1.312,0.144 -6.137,-3.374 -5.116,-5.567 l 1.906,-2.341 c 0,-0.435 -7.019,-4.535 -6.129,-3.948 -5.849,-1.315 -13.901,9.8 -18.579,14.035 l 1.168,1.176 c 0,0 -1.312,1.603 -1.463,1.755 l -7.892,0.443 c 0,0 -0.435,-5.994 -0.435,-6.289 0.275,-0.562 0.849,-1.009 1.739,-0.865 m 22.507,4.837 -2.046,-1.033 2.046,-2.923 2.202,-0.151 c -0.447,1.024 -1.755,3.074 -2.202,4.107 m 0.743,5.408 c -0.295,0.881 -1.775,3.214 -2.202,4.239 l -2.202,-1.025 2.202,-3.075 z m 1.754,-5.408 0.275,-0.881 1.328,-0.874 h 0.144 c 0.443,0 0.73,0.152 1.021,0.443 l -0.881,1.009 c -0.14,0 -0.275,0 -0.427,0.151 -0.151,0.152 -0.295,0.435 -0.295,0.586 -0.881,0.438 -1.017,1.033 -1.603,1.747 -0.443,-0.144 -0.578,-0.578 -0.738,-1.013 -10e-4,-0.598 0.729,-0.733 1.176,-1.168 m -7.031,2.923 -1.451,1.755 -2.341,-2.931 0.578,-2.337 c 0.729,0.734 2.484,2.772 3.214,3.513 M 7.657,44.813 c 0.734,0.722 1.32,8.63 2.042,9.352 L 3.57,54.603 1.967,49.044 Z m -7.076,13.456 9.573,3.943 -3.066,40.785 -11.115,4.1 z m -4.719,51.156 12.562,-5.092 2.87,-41.81 c 0,0 1.202,-1.033 0.759,-2.05 2.046,-2.492 3.661,-4.387 6.002,-6.584 -1.459,-1.168 -3.366,-2.489 -4.973,-3.218 0.574,-1.468 -0.443,-5.851 1.456,-6.297 l 9.798,8.773 c 1.165,-0.152 0.291,-1.603 0.152,-1.906 l -5.703,-4.239 0.586,-0.287 c 0.874,0.152 2.099,1.304 4.014,1.935 2.98,0.988 7.072,-0.943 8.13,-2.058 0.32,-0.369 8.684,-8.122 9.355,-8.659 3.067,1.32 1.165,3.51 2.919,4.83 2.05,-0.873 2.493,-1.459 4.101,-2.345 4.682,0.734 4.682,1.755 8.625,-0.435 l 1.6,0.722 c 0,0.881 0.442,64.055 0.442,64.055 l -2.492,1.468 c -0.435,0.869 -1.46,1.599 -2.633,1.755 -0.582,0 -0.869,-0.591 -1.172,-0.451 -0.582,-0.156 -0.582,0.451 -1.025,0.722 l -4.182,-2.271 V 46.887 l -3.411,-3.555 -5.42,3.075 -0.582,16.666 c -1.75,-0.729 -2.488,-2.493 -3.657,-3.805 -1.468,-1.32 0.295,-3.661 -0.881,-4.969 L 31.06,52.392 c 0.582,-1.603 1.898,-1.906 2.484,-3.501 1.017,-0.295 1.607,-1.915 0.447,-2.202 -1.185,0.287 -1.755,1.906 -2.78,2.628 -0.578,1.025 -1.177,1.463 -1.747,2.193 l 0.722,2.493 1.906,1.459 -0.295,2.484 -2.493,0.738 -0.57,-0.878 -4.526,3.805 c -0.152,-0.155 -2.05,-1.615 -2.341,-1.468 -0.59,0.738 -5.854,5.108 -6.879,7.314 0,0.435 0.582,0.435 0.873,0.869 0.873,0 4.534,-3.944 4.989,-4.821 l 1.308,1.181 c -2.936,3.066 -4.985,6.715 -7.9,9.79 l -0.898,16.238 -0.435,6.592 c 0.435,0.279 1.173,0.591 1.755,0.427 0.873,-2.328 0.586,-5.396 0.729,-8.183 0.586,-4.396 1.033,-9.069 1.033,-13.456 l 6.715,-8.035 0.586,0.877 c 0,0.295 -2.628,5.56 -2.911,5.707 V 91.6 l -0.168,6.133 0.295,1.033 c 1.181,0 4.69,0 6.146,1.017 l -0.59,2.936 c -0.152,0.279 -0.291,0.427 -0.443,0.877 h -6.871 c -0.147,0.148 -0.147,0.287 -0.147,0.443 0,0.451 0.443,0.877 1.021,1.173 0.75,-0.574 1.907,-0.574 2.628,0 l 1.177,-0.435 1.763,0.573 -0.168,1.033 -1.324,3.542 c 0,0 -8.228,-2.378 -9.925,-2.943 -1.697,-0.558 -2.436,-0.533 -3.534,0.246 -0.992,0.771 -14.98,11.151 -15.854,11.906 z m 38.858,-2.476 -0.729,-0.722 -2.628,-1.181 0.578,-1.018 c 0,-0.295 -0.291,-0.442 -0.578,-0.59 l -1.025,0.295 c -0.151,0.147 -0.151,0.591 -0.151,0.886 -0.152,-0.295 -0.152,-0.591 -0.578,-0.738 0.144,0 0.578,-0.155 0.578,-0.59 0.151,-0.295 -0.152,-0.574 -0.443,-0.869 h -0.447 l -0.275,-2.346 c 0.275,-0.295 1.013,0 1.308,-0.442 0.295,0.147 0.295,0.295 0.57,0.442 0.742,-0.442 3.546,-2.099 3.546,-2.099 l -0.021,-26.993 -3.666,-4.387 -0.582,-1.755 4.822,1.911 -6.577,-4.387 c -0.873,0.295 -2.771,2.632 -2.484,2.484 l -1.611,-0.574 3.801,-4.395 6.584,3.214 1.459,1.755 c 0.152,0 0.295,0.295 0.438,0.59 l 0.882,13.891 -0.147,28.354 z m 2.624,2.772 -0.287,3.82 -12.287,-3.361 3.805,-5.125 c 0.721,0.877 7.9,4.091 8.769,4.666 M 25.659,85.154 v 9.659 c 0,0 -2.197,1.312 -2.636,1.164 L 21.998,76.544 c 1.615,3.354 2.202,5.117 3.661,8.61 m -44.458,45.786 31.294,-23.106 30.269,8.773 -4.534,0.279 -26.03,-6.429 -31.15,22.951 z m 0.287,4.084 5.408,-1.099 3.247,2.099 -3.526,3.1 z m 6.441,10.397 2.628,-0.459 5.547,-5.149 2.64,2.525 -1.033,33.191 -11.737,1.969 z m -2.386,34.849 12.074,-1.919 -1.066,11.061 -11.545,0.656 z m -0.849,16.939 0.312,-4.419 10.815,-1.017 -2.337,4.969 -1.902,3.066 -9.659,-0.14 z m 8.934,42.949 c 0,0.738 0.151,0.296 0.151,1.329 l -9.068,0.278 -8.925,-0.877 -0.291,-1.304 z m -19.437,9.413 v -3.099 l 20.757,0.951 -0.033,3.148 z m 21.782,-11.888 -14.05,-3.362 14.05,0.574 z m -0.439,-7.462 -15.518,0.147 2.202,-9.512 1.185,-10.527 11.836,0.442 1.464,10.233 z m 4.526,-19.744 0.152,-5.265 4.526,1.181 15.071,-0.877 1.168,2.492 -2.771,1.764 z m 36.263,10.823 -1.316,9.216 -16.657,0.738 0.873,-12.726 3.8,-7.904 13.595,1.164 z m 8.007,28.961 -4.403,0.573 0.082,-44.097 4.337,1.065 V 250.26 H 44.33 Z m 16.415,0.869 H 47.74 c -0.59,-0.451 0.738,-0.451 1.902,-0.574 h 13.3 c -0.442,0.131 -0.869,0.426 -2.197,0.574 m -14.177,-20.467 1.755,-12.135 4.075,-1.181 -1.165,-9.069 11.119,2.346 0.573,10.232 0.738,10.528 z m -21.942,-30.567 -30.125,0.738 11.697,-5.117 20.187,-0.886 38.165,0.886 1.181,4.969 z m 48.402,21.646 -0.738,9.635 -5.838,0.295 1.312,-7.88 1.173,-5.264 1.173,-7.462 3.361,0.132 z m 9.79,16.53 c -0.147,0.427 -0.565,0.427 -0.722,0.869 l -1.902,0.738 h -0.59 c -0.296,0 -0.443,-0.164 -0.591,-0.442 l -1.902,-1.313 -0.729,-0.877 c 0.155,0 0.303,0 0.451,-0.156 0.278,0.156 0.573,0.156 0.721,0 l 0.878,0.156 c 0.155,-0.296 0.738,0 1.188,0 0.147,-0.296 0.583,0 1.018,0 0.286,-0.296 0.721,0 1.181,0 0,-0.156 0.139,-0.156 0.442,-0.156 l 0.574,0.591 c -0.017,0.001 -0.017,0.443 -0.017,0.59 m 26.329,11.103 -23.984,2.033 -0.877,-5.698 8.322,-0.279 9.963,0.574 7.019,0.155 z m -75.645,-618.779 10.435,27.395 30.919,0.754 -24.639,17.601 8.929,27.776 -25.644,-16.473 -25.509,16.473 8.795,-27.776 -24.628,-17.601 31.039,-0.754 z m 108.074,38.522 10.446,27.395 30.896,0.766 -24.614,17.588 8.912,27.768 -25.64,-16.465 -25.516,16.465 8.805,-27.768 -24.631,-17.588 31.052,-0.766 z m 101.273,29.662 10.413,27.398 30.928,0.755 -24.655,17.592 8.953,27.776 -25.639,-16.465 -25.517,16.465 8.79,-27.776 -24.632,-17.592 31.035,-0.755 z m -417.308,0 10.414,27.398 30.924,0.755 -24.635,17.592 8.933,27.776 -25.636,-16.465 -25.517,16.465 8.794,-27.776 -24.627,-17.592 31.039,-0.755 z m 97.157,-29.15 10.417,27.395 30.933,0.767 -24.644,17.587 8.933,27.768 -25.639,-16.456 -25.509,16.456 8.79,-27.768 -24.636,-17.587 31.06,-0.767 z"
     id="path3"
     sodipodi:nodetypes="ccccccccccccccccccccccccccccccccccccccccscccccsccccccccccccccccscccccccccssccccccccccccccccccccccccccccccccccccccccccccccccccccccccccccccccccccccccccccccccccccccccccccccccccccccccccccccccccccccccccccccccccccccccccccccccccccccccccccccccccccccccccccccccccccccccccccccccccccccccccccccccccccccccccccccccccccccccccccccccccccccccccccsccccccccccccccccccccccccccccccccccccccccccccccccccccccccccccccccccccccccccccccccccccsccccccccccccccccccccccccccccccccccccccccccccccccccccccccccccccccccccccccccccccccccccccccccccccccccccccccccccccccccccccccccccccccccccccccccccccccccccccccccscccccccccccccccccccccccccccccccccccccccccccccccccccccccccccccccccccccccccc" /><path
     fill="#162577"
     d="M-179.001-27.86c3.907 172.707 43.638 290.255 213.352 372.349C204.688 263.708 244.087 145.864 247.203-27.86zM34.334 340.324c-165.91-80.257-204.743-195.182-208.563-364.011h416.667c-3.066 169.846-41.571 285.033-208.104 364.011"
     id="path4" /><path
     fill="#12692C"
     d="M-179.715-58.883h154.106v23.18h-154.106z"
     id="path5" /><path
     fill="#D8141D"
     d="M92.354-58.883h154.11v23.18H92.354z"
     id="path6" /><path
     fill="#AB830D"
     d="m-65.036 362.528 10.418 27.404 30.932.754-24.643 17.596 8.933 27.781-25.64-16.465-25.508 16.465 8.789-27.781-24.623-17.596 31.04-.754zM-164.624 286.634l10.418 27.402 30.925.755-24.636 17.596 8.925 27.763-25.632-16.464-25.508 16.464 8.79-27.763-24.636-17.596 31.043-.755zM136.033 362.528l-10.422 27.404-30.92.754 24.631 17.596-8.921 27.781 25.632-16.465 25.501 16.465-8.773-27.781 24.614-17.596-31.035-.754zM235.625 286.634l-10.43 27.402-30.912.755 24.631 17.596-8.929 27.763 25.64-16.464 25.517 16.464-8.798-27.763 24.623-17.596-31.035-.755zM33.293 403.608l-10.421 27.403-30.921.755 24.635 17.595-8.937 27.764 25.644-16.464 25.509 16.464-8.79-27.764 24.632-17.595-31.036-.755z"
     id="path7" /></svg>
