<?xml version="1.0" encoding="UTF-8" standalone="no"?>
<svg
   width="201.663"
   height="257.559"
   viewBox="0 0 53.357 68.146"
   version="1.1"
   id="svg35"
   sodipodi:docname="santos-laguna.svg"
   inkscape:version="1.4.2 (f4327f4, 2025-05-13)"
   xmlns:inkscape="http://www.inkscape.org/namespaces/inkscape"
   xmlns:sodipodi="http://sodipodi.sourceforge.net/DTD/sodipodi-0.dtd"
   xmlns="http://www.w3.org/2000/svg"
   xmlns:svg="http://www.w3.org/2000/svg">
  <sodipodi:namedview
     id="namedview35"
     pagecolor="#ffffff"
     bordercolor="#000000"
     borderopacity="0.25"
     inkscape:showpageshadow="2"
     inkscape:pageopacity="0.0"
     inkscape:pagecheckerboard="0"
     inkscape:deskcolor="#d1d1d1"
     inkscape:zoom="3.1332628"
     inkscape:cx="100.69376"
     inkscape:cy="128.7795"
     inkscape:window-width="1920"
     inkscape:window-height="1009"
     inkscape:window-x="-8"
     inkscape:window-y="-8"
     inkscape:window-maximized="1"
     inkscape:current-layer="svg35" />
  <defs
     id="defs5">
    <clipPath
       id="a"
       clipPathUnits="userSpaceOnUse">
      <path
         d="M0 0h595.276v765.354H0Z"
         id="path1" />
    </clipPath>
    <clipPath
       id="b"
       clipPathUnits="userSpaceOnUse">
      <path
         d="M0 0h595.276v765.354H0Z"
         id="path2" />
    </clipPath>
    <clipPath
       id="c"
       clipPathUnits="userSpaceOnUse">
      <path
         d="M0 0h595.276v765.354H0Z"
         id="path3" />
    </clipPath>
    <clipPath
       id="d"
       clipPathUnits="userSpaceOnUse">
      <path
         d="M0 0h595.276v765.354H0Z"
         id="path4" />
    </clipPath>
    <clipPath
       id="e"
       clipPathUnits="userSpaceOnUse">
      <path
         d="M0 0h595.276v765.354H0Z"
         id="path5" />
    </clipPath>
  </defs>
  <path
     d="m0 0-.002.038v.017l-.132 1.661-.006.033-.001.018-.206 1.62-.004.051-.006.031-.296 1.612-.005.029-.001.011-.36 1.559-.016.057-.004.019-.449 1.568-.012.029-.005.015-.503 1.503-.017.045-.012.028-.588 1.478-.016.04-.013.02-.65 1.44-.016.036-.01.02-.731 1.424-.015.028-.008.016-.793 1.374-.019.032-.01.012-.886 1.375-.916 1.292-.018.028-.009.01-.976 1.242-.025.031-.013.016-1.07 1.217-1.08 1.14-.026.025-.012.016-1.131 1.08-.031.029-.02.018-1.194 1.037-.028.022-.012.009-1.247.978-.025.018-.013.007-1.324.938-1.344.866-.028.016-.012.009-1.377.79-.028.016-.013.006-.178.092.121.251.203.422.128.262.127.267 4.649 9.682.352.731.161.328.158.33.255.529.257.529-.451.372-.453.374-.283.236-.287.234-.596.491-1.439 1.19-.376.304-.043.032-.03.021-.019.015-.008.003-.385.265-.424.278-.388.23-.415.244-.034.015-.018.011-.447.228-.382.178-.453.212-.46.194-.032.01-.01.005-.422.154-.452.156-.407.133-.477.151-.045.015-.026.006-.325.08-.058.022-.046.012-.027.006-.421.107-.419.092-.491.112-.039.008-.017.001-.424.073-.917.151-.484.065-.432.049-.434.046-.503.055-.033.004h-.022l-.358.02-.503.04-.033.002h-.016l-.373.008-.489.027-.274.008v3.749h-1.363v1.552h-8.423v-1.552h-1.332v-3.747l-.376-.015-.368-.018-.493-.016-.034-.001-.017-.002-.375-.033-.504-.027-.036-.004-.017-.002-.848-.094-.491-.055-.488-.071-.424-.069-.426-.072-.488-.083-.051-.008-.029-.007-.39-.089-.507-.115-.429-.111-.501-.136-.439-.137-.475-.156-.396-.143-.447-.163-.039-.017-.021-.008-.461-.198-.384-.179-.462-.22-.411-.212-.037-.021-.019-.012-.393-.228-.396-.238-.033-.02-.017-.011-.387-.257-.026-.016-.008-.007-.027-.02-.009-.007-.72-.54-.03-.026-.017-.012-1.169-.988-.228-.201-.246-.22-.244-.221-.391-.349-.392-.352.2-.487.195-.485.124-.309.125-.303.48-1.185 3.945-9.759.12-.299.118-.288.176-.427-.83-.425-.035-.019-.019-.01-1.375-.792-.03-.017-.015-.013-1.373-.884-1.296-.918-.023-.02-.011-.007-1.249-.977-.026-.021-.008-.01-1.185-1.028-.029-.027-.016-.013-1.138-1.091-.028-.029-.013-.012-1.112-1.177-1.061-1.225-.986-1.242-.024-.034-.012-.016-.934-1.324-.858-1.325-.023-.037-.012-.022-.792-1.377-.014-.029-.008-.013-.732-1.427-.014-.03-.005-.012-.651-1.432-.018-.043-.011-.027-.597-1.533-.523-1.522-.011-.043-.008-.018-.445-1.602-.38-1.592-.007-.034-.003-.015-.289-1.591-.008-.048-.002-.027-.205-1.631-.005-.042-.003-.026-.123-1.708-.047-1.668v-.088l.051-1.72.12-1.659.004-.041.003-.021.205-1.625.006-.045.006-.029.289-1.606.011-.044.003-.025.388-1.632.436-1.552.014-.039.006-.022.52-1.525.013-.033.006-.017.575-1.462.017-.044.012-.027.649-1.438.011-.027.004-.009.012-.025.006-.009.725-1.412.017-.035.012-.019.784-1.364.025-.043.014-.02.886-1.354.898-1.272.015-.023.005-.007.018-.023.008-.01.989-1.258.019-.023.01-.01 1.063-1.224 1.071-1.13.034-.035.021-.02 1.177-1.113 1.224-1.059 1.242-.986.033-.025.017-.013 1.276-.904.036-.024.019-.011 1.369-.87 1.375-.803.041-.023.02-.01 1.455-.733 1.466-.672.031-.011.013-.006 1.138-.453.396-.149 1.528-.523.041-.012.021-.005 1.597-.446 1.582-.376.051-.01.027-.005 1.639-.286.808-.108.819-.108.053-.005.031-.003 1.653-.121.037-.002.02-.002 1.67-.048h.084l1.691.05.03.002h.012l1.657.121.051.006.025.002 1.615.216.04.008.027.004.117.021 1.49.258.043.008.019.005 1.618.386 1.559.439.039.011.017.007 1.531.523.03.011.016.005 1.21.476.269.102.049.022.026.011 1.478.683 1.403.708.027.013.005.003.034.018.014.008 1.405.823 1.321.842.037.025.021.014 1.295.916.028.022.012.011 1.278 1.015 1.223 1.063 1.13 1.071.036.033.022.021 1.104 1.169 1.033 1.177.019.022.004.007.023.028.01.011.978 1.259.017.02.005.012.93 1.318.858 1.312.024.041.015.025.793 1.376.016.031.004.013.727 1.415.019.037.008.021.67 1.494.595 1.475.016.048.01.027.523 1.57.444 1.535.014.059.006.022.361 1.581.007.039.007.022.288 1.597.006.047.003.029.209 1.641.004.032v.016l.132 1.655.003.047v.028l.036 1.721z"
     style="fill:#211f1f;fill-opacity:1;fill-rule:nonzero;stroke:none"
     transform="matrix(.66532 0 0 -.66532 49.222 36.637)"
     id="path6" />
  <g
     clip-path="url(#a)"
     transform="matrix(.66532 0 0 -.66532 -109.834 480.612)"
     id="g10">
    <path
       d="M0 0c16.611 0 30.166-13.56 30.166-30.168C30.166-46.79 16.611-60.346 0-60.347c-16.622 0-30.177 13.557-30.177 30.179C-30.177-13.56-16.622 0 0 0"
       style="fill:#fff;fill-opacity:1;fill-rule:nonzero;stroke:none"
       transform="translate(205.189 695.75)"
       id="path7" />
    <path
       d="m0 0-6.362-2.599a30 30 0 0 1-3.42-12.928l4.274-5.098 5.546 9.629zm-2.902-28.463-.302-6.902a30.35 30.35 0 0 1 10.476-8.388l6.25 1.659-6.41 9.073zm32.956 40.505a30 30 0 0 1-9.651 1.587c-2.93 0-5.766-.422-8.449-1.206l-1.286-4.52 10.573-3.309 10.746 2.472Zm16.92-14.298L40.927.094l-.188-11.101 5.438-9.607 4.381 5.499.001.012a30 30 0 0 1-3.585 12.847m-15.029-31.74-6.851-8.617 6.602-1.953a30.3 30.3 0 0 1 10.036 6.663c.234.233.46.473.687.713l-.102 7.221z"
       style="fill:#008066;fill-opacity:1;fill-rule:nonzero;stroke:none"
       transform="translate(184.786 682.146)"
       id="path8" />
    <path
       d="m0 0-.75-3.238h-.942l.033.752c.073.073.073.283.261.353-.294 0-.647.331-.718.508-.119-.177-.435-.508-.768-.508.19-.07.19-.28.261-.353v-.752H-4.6l.032 1.105c.072.083.393.576.546.65-.296 0-.976.293-1.085.468-.106-.175-.931-.468-1.224-.468.142-.074.541-.567.612-.65v-1.105h-2.447l.032.752c.084.073.084.283.261.353-.293 0-.647.331-.716.508-.109-.177-.437-.508-.753-.508.175-.07.175-.28.245-.353v-.752h-1.895l.035 1.681c.107.109.858 1.119 1.155 1.154-.544 0-2.485 1.084-2.732 1.66-.023-.045-.047-.08-.071-.13-.449-.586-2.235-1.53-2.742-1.53.291-.035 1.364-.999 1.518-1.08v-1.755h-1.838l.036.752c.07.073.07.283.248.353-.317 0-.649.331-.717.508-.107-.177-.437-.508-.754-.508.176-.07.176-.28.247-.353v-.752h-2.662v1.105c.07.083.402.576.543.65-.283 0-.966.293-1.084.468-.105-.175-.931-.468-1.213-.468.141-.074.532-.567.613-.65v-1.105l-1.66-.035.035.717c.071.107.106.316.248.353-.283 0-.613.331-.717.508a1.3 1.3 0 0 0-.178-.225c-.153-.14-.353-.283-.542-.283.141-.037.189-.246.26-.353v-.751h-1.26v2.904l-4.638 2.38 3.19-7.911H.685l3.847 8.016zm-22.682-4.933c-.211 0-.401.14-.401.363 0 .213.19.39.401.39s.4-.177.4-.39c0-.223-.188-.363-.4-.363m4.86 0c-.224 0-.399.14-.399.363 0 .213.175.39.399.39a.393.393 0 0 0 .391-.39c0-.223-.176-.363-.391-.363m5.217 0c-.224 0-.401.14-.401.363 0 .213.177.39.401.39.21 0 .386-.177.386-.39 0-.223-.176-.363-.386-.363m5.248 0h-.01c-.224 0-.365.14-.365.363 0 .213.141.39.365.39h.01a.4.4 0 0 0 .379-.39c0-.21-.164-.354-.379-.363m4.159 0c-.216 0-.401.14-.401.363a.4.4 0 0 0 .401.39c.21 0 .398-.177.398-.39 0-.223-.188-.363-.398-.363M-25.99 1.869c.471.436 1.731 1.392 3.308 2.192 1.225.611 2.637 1.129 4.025 1.258-.717-.623-3.544-2.377-4.025-3.801a1.1 1.1 0 0 1-.07-.375l.07-.025 2.624-1.189c.39.73 1.272 1.825 2.236 2.836 1.206 1.296 2.534 2.449 3.085 2.59-.176-.472.402-1.153.789-1.117-.753-.285-1.613-1.508-1.542-2.369h1.977c0 .496.215 1.368.908 1.331h.035c.719.071.967-.835.929-1.331h2.001c.072.861-.81 2.084-1.563 2.369.423-.036.999.645.822 1.117.531-.141 1.825-1.271 3.024-2.541C-6.379 1.789-5.46.67-5.073-.071l1.875.858.788.356c0 .468-.319.975-.788 1.481-1.039 1.129-2.768 2.225-3.31 2.695 1.132-.105 2.271-.458 3.31-.918C-1.281 3.564.308 2.377.862 1.869c.293 1.368 1.907 2.226 3.094 2.084C2.075 5.579-.48 6.472-3.198 6.909c-1.37.212-2.768.317-4.159.341-.234.013-.469.013-.693.013h-3.378a.9.9 0 0 1-.494.505v2.12h1.4v1.116h-1.366v1.545h-1.364v-1.545h-1.342V9.888h1.412v-2.12a.95.95 0 0 1-.543-.505h-3.376c-.248 0-.484 0-.721-.013-1.623-.024-3.27-.165-4.86-.47-2.437-.471-4.708-1.342-6.404-2.827 1.154.142 2.814-.716 3.096-2.084m13.385 5.605h.035a.8.8 0 0 0 .791-.788.8.8 0 0 0-.791-.79h-.035c-.424.012-.729.364-.729.79 0 .423.305.766.729.788"
       style="fill:#fdb927;fill-opacity:1;fill-rule:nonzero;stroke:none"
       transform="translate(218.207 704.796)"
       id="path9" />
  </g>
  <g
     clip-path="url(#d)"
     transform="matrix(.66532 0 0 -.66532 -109.834 480.612)"
     id="g25" />
  <path
     d="m0 0-3.158.064-1.038 2.984L-5.233.064-8.391 0l2.517-1.908-.915-3.024 2.593 1.804 2.593-1.804-.914 3.024z"
     style="fill:#fdb927;fill-opacity:1;fill-rule:nonzero;stroke:none"
     transform="matrix(.66532 0 0 -.66532 24.08 63.864)"
     id="path30" />
  <path
     d="m0 0-3.158.064-1.038 2.984L-5.233.064-8.391 0l2.517-1.909-.915-3.023 2.593 1.804 2.593-1.804-.914 3.023z"
     style="fill:#fdb927;fill-opacity:1;fill-rule:nonzero;stroke:none"
     transform="matrix(.66532 0 0 -.66532 14.158 59.77)"
     id="path31" />
  <path
     d="m0 0-3.159.064-1.037 2.984L-5.233.064-8.391 0l2.517-1.908-.915-3.024 2.593 1.804 2.593-1.804-.914 3.024z"
     style="fill:#fdb927;fill-opacity:1;fill-rule:nonzero;stroke:none"
     transform="matrix(.66532 0 0 -.66532 6.583 52.16)"
     id="path32" />
  <path
     d="m0 0 3.158.064 1.038 2.984L5.233.064 8.391 0 5.874-1.908l.915-3.024-2.593 1.804-2.593-1.804.914 3.024Z"
     style="fill:#fdb927;fill-opacity:1;fill-rule:nonzero;stroke:none"
     transform="matrix(.66532 0 0 -.66532 29.276 63.864)"
     id="path33" />
  <path
     d="m0 0 3.158.064 1.038 2.984L5.233.064 8.391 0 5.874-1.909l.915-3.023-2.593 1.804-2.593-1.804.914 3.023Z"
     style="fill:#fdb927;fill-opacity:1;fill-rule:nonzero;stroke:none"
     transform="matrix(.66532 0 0 -.66532 39.199 59.77)"
     id="path34" />
  <path
     d="m0 0 3.159.064 1.037 2.984L5.233.064 8.391 0 5.874-1.908l.915-3.024-2.593 1.804-2.593-1.804.914 3.024Z"
     style="fill:#fdb927;fill-opacity:1;fill-rule:nonzero;stroke:none"
     transform="matrix(.66532 0 0 -.66532 46.774 52.16)"
     id="path35" />
</svg>
