<?xml version="1.0" encoding="UTF-8" standalone="no"?>
<svg
   xml:space="preserve"
   id="Capa_1"
   width="100"
   height="100"
   x="0"
   y="0"
   version="1.1"
   sodipodi:docname="toluca.svg"
   inkscape:version="1.4.2 (f4327f4, 2025-05-13)"
   xmlns:inkscape="http://www.inkscape.org/namespaces/inkscape"
   xmlns:sodipodi="http://sodipodi.sourceforge.net/DTD/sodipodi-0.dtd"
   xmlns="http://www.w3.org/2000/svg"
   xmlns:svg="http://www.w3.org/2000/svg"><defs
     id="defs9" /><sodipodi:namedview
     id="namedview9"
     pagecolor="#ffffff"
     bordercolor="#000000"
     borderopacity="0.25"
     inkscape:showpageshadow="2"
     inkscape:pageopacity="0.0"
     inkscape:pagecheckerboard="0"
     inkscape:deskcolor="#d1d1d1"
     inkscape:zoom="8.07"
     inkscape:cx="50"
     inkscape:cy="50"
     inkscape:window-width="1920"
     inkscape:window-height="1009"
     inkscape:window-x="-8"
     inkscape:window-y="-8"
     inkscape:window-maximized="1"
     inkscape:current-layer="Capa_1" /><style
     id="style1">.st0{fill:#fff}.st2{fill:#d53741}.st4{fill:#000001}</style><path
     d="M99.4 50c0 27.3-22.1 49.4-49.4 49.4S.6 77.3.6 50 22.7.6 50 .6 99.4 22.7 99.4 50"
     class="st0"
     id="path1" /><path
     d="M13.4 50.2c0-.5.1-1 .1-1.5H2.1c0 .5-.1 1-.1 1.5C2 67.1 10.8 82 24.1 90.5l6.6-9.3c-10.4-6.5-17.3-17.9-17.3-31"
     style="fill:#00603e"
     id="path2" /><path
     d="M98 50.2c0-.5-.1-1-.1-1.5H86.5c0 .5.1 1 .1 1.5 0 12.9-6.7 24.3-16.8 30.8L75 91.2c13.7-8.5 23-23.6 23-41"
     class="st2"
     id="path3" /><path
     d="M50 86.8c-7.1 0-13.7-2.1-19.3-5.6l-6.6 9.3c7.5 4.8 16.3 7.6 25.9 7.6 9.1 0 17.7-2.6 24.9-7l-5.2-10.2C64 84.6 57.3 86.8 50 86.8"
     class="st0"
     id="path4" /><path
     d="M50 13.6c19.7 0 35.7 15.6 36.5 35.1h11.4C97.1 22.9 76 2.3 50 2.3S2.9 23 2.1 48.8h11.4c.8-19.6 16.8-35.2 36.5-35.2"
     style="fill:#09154c"
     id="path5" /><path
     d="M75.7 60.3c-4 10.4-14.2 17.8-26 17.8-15.4 0-27.9-12.5-27.9-27.9s12.5-27.9 27.9-27.9c11.9 0 22.1 7.5 26.1 18h5.5c-4.2-13.4-16.8-23.2-31.6-23.2-18.3 0-33.1 14.8-33.1 33.1s14.8 33.1 33.1 33.1c14.7 0 27.2-9.6 31.5-23z"
     class="st2"
     id="path8" /><path
     d="M50.5 26.6v5.5c1.1 0 2.2.2 3.3.4v40.9c2.3-.4 4.5-1.2 6.6-2.2V35.5c1.7 1.2 3.2 2.7 4.4 4.5h6.1c-3.7-7.7-11.4-13.1-20.4-13.4M36.6 37.6c1.6-1.7 3.6-3.1 5.7-4.1v32.9c-2.2-1-4.1-2.4-5.7-4.1zm12-8.3c0-1.3-1-2.3-2.3-2.3h-.7c-7.2 1.3-13.3 5.8-16.6 12-.1.2-.1.5-.1.7 0 1.3.9 2.3 2.1 2.3.2 0 .3 0 .5-.1v16.4c-.2 0-.3-.1-.5-.1-1.2 0-2.1 1-2.1 2.3 0 .2 0 .4.1.6 3.3 6.3 9.4 10.9 16.7 12.1h.6000000000000001c1.3 0 2.3-1 2.3-2.3z"
     class="st2"
     id="path9" /></svg>
