<?xml version="1.0" encoding="UTF-8" standalone="no"?>
<svg
   xml:space="preserve"
   width="292"
   height="343"
   viewBox="0 0 322.793 379.84"
   version="1.1"
   id="svg40"
   sodipodi:docname="arsenal.svg"
   inkscape:version="1.4.2 (f4327f4, 2025-05-13)"
   xmlns:inkscape="http://www.inkscape.org/namespaces/inkscape"
   xmlns:sodipodi="http://sodipodi.sourceforge.net/DTD/sodipodi-0.dtd"
   xmlns="http://www.w3.org/2000/svg"
   xmlns:svg="http://www.w3.org/2000/svg"><defs
     id="defs40" /><sodipodi:namedview
     id="namedview40"
     pagecolor="#ffffff"
     bordercolor="#000000"
     borderopacity="0.25"
     inkscape:showpageshadow="2"
     inkscape:pageopacity="0.0"
     inkscape:pagecheckerboard="0"
     inkscape:deskcolor="#d1d1d1"
     inkscape:zoom="2.3527697"
     inkscape:cx="145.99814"
     inkscape:cy="171.5"
     inkscape:window-width="1920"
     inkscape:window-height="1009"
     inkscape:window-x="-8"
     inkscape:window-y="-8"
     inkscape:window-maximized="1"
     inkscape:current-layer="svg40" /><path
     fill="#9C824A"
     stroke="#9C824A"
     stroke-miterlimit="282"
     stroke-width=".793"
     d="M161.396.396C122.96.396 52.087 10.34 15.994 31.328c-47.52 168.475 17.107 283.042 145.402 348.068 128.296-65.026 192.923-180.16 145.402-348.067C270.669 10.34 199.831.396 161.396.396z"
     id="path1" /><path
     fill="#023474"
     stroke="#023474"
     stroke-miterlimit="282"
     stroke-width=".793"
     d="M161.396 11.228c-37.761 0-80.278 4.83-135.962 27.558-41.452 147.061 6.637 264.931 135.962 329.174 129.325-64.243 177.378-182.114 135.926-329.174-55.684-22.728-98.165-27.558-135.926-27.558z"
     id="path2" /><path
     fill="#FFF"
     stroke="#FFF"
     stroke-miterlimit="282"
     stroke-width=".793"
     d="M161.219 11.086c-37.584 0-77.936 5.575-114.349 19.355-37.761 150.577-9.901 260.526 114.562 337.413zm.213 356.768c124.462-76.887 152.287-186.836 114.525-337.413-36.412-13.78-76.729-19.355-114.312-19.355z"
     id="path3" /><path
     fill="#EF0107"
     stroke="#EF0107"
     stroke-miterlimit="282"
     stroke-width=".793"
     d="M161.432 11.051c-37.797 0-76.055 5.717-107.144 16.548-39.11 157.822-7.702 264.397 107.179 337.235z"
     id="path4" /><path
     fill="#DB0007"
     stroke="#DB0007"
     stroke-miterlimit="282"
     stroke-width=".793"
     d="M161.503 11.051c37.796 0 76.055 5.717 107.179 16.548 39.11 157.822 7.701 264.397-107.214 337.235z"
     id="path5" /><path
     fill="#FFF"
     d="M112.598 249.203c-16.68 11.437-29.953 15.556-45.356 19.64l-9.298-14.454c14.161-7.173 28.818-17.153 43.582-31.606 1.242 14.026 7.771 23.969 11.072 26.42"
     id="path6" /><path
     fill="#9C824A"
     d="M110.326 248.6c-15.828 10.866-37.868 18.431-63.101 22.124l-5.146-7.812c21.613-8.099 42.481-20.172 58.665-37.147 2.449 10.866 6.175 18.076 9.582 22.835"
     id="path7" /><path
     fill="#FFF"
     d="M68.165 182.225c0 6.073-4.897 10.974-10.966 10.974s-11.002-4.901-11.002-10.974 4.933-10.973 11.002-10.973 10.966 4.9 10.966 10.973"
     id="path8" /><path
     fill="#FFF"
     d="M66.993 160.597v41.409h32.615c2.129-13.886 10.008-28.624 27.859-41.409z"
     id="path9" /><path
     fill="#FFF"
     d="M68.307 202.006c-7.276.106-13.273-9.021-13.38-20.456-.071-11.436 5.75-20.811 13.061-20.953h.249"
     id="path10" /><path
     fill="#9C824A"
     d="M63.551 182.225c0 4.688-3.407 8.453-7.595 8.453s-7.595-3.764-7.595-8.453c0-4.688 3.407-8.452 7.595-8.452 4.188-.001 7.595 3.764 7.595 8.452m4.33-19.461v37.217h32.367c2.555-12.358 8.837-25.498 24.523-37.217z"
     id="path11" /><path
     fill="#9C824A"
     d="M69.087 199.981c-6.85.143-12.457-8.096-12.563-18.36-.071-10.263 5.43-18.716 12.279-18.857h.213"
     id="path12" /><path
     fill="#FFF"
     d="M223.325 211.701c0 34.556-27.965 62.539-62.497 62.539-34.496 0-62.497-27.983-62.497-62.539 0-34.554 28.001-62.539 62.497-62.539 34.532 0 62.497 27.985 62.497 62.539"
     id="path13" /><path
     fill="#9C824A"
     d="M220.062 211.701c0 32.744-26.512 59.271-59.233 59.271-32.686 0-59.197-26.527-59.197-59.271 0-32.707 26.511-59.271 59.197-59.271 32.721-.001 59.233 26.528 59.233 59.271"
     id="path14" /><path
     fill="#FFF"
     d="M210.23 211.701c0 27.31-22.111 49.436-49.402 49.436-27.256 0-49.366-22.126-49.366-49.436s22.11-49.435 49.366-49.435c27.291 0 49.402 22.125 49.402 49.435"
     id="path15" /><path
     fill="#9C824A"
     d="M206.966 211.701c0 25.498-20.656 46.132-46.138 46.132-25.446 0-46.101-20.634-46.101-46.132s20.655-46.131 46.101-46.131c25.482-.001 46.138 20.633 46.138 46.131"
     id="path16" /><path
     fill="#FFF"
     d="M180.063 211.701c.036 10.619-8.588 19.249-19.2 19.284-10.646 0-19.271-8.629-19.271-19.248v-.036c0-10.619 8.589-19.248 19.235-19.248 10.611-.035 19.235 8.595 19.235 19.213z"
     id="path17" /><path
     fill="#9C824A"
     d="M177.793 211.701c0 9.377-7.561 16.976-16.929 16.976-9.369 0-16.964-7.563-17-16.939v-.036c0-9.375 7.595-16.976 16.964-16.976s16.965 7.565 16.965 16.94z"
     id="path18" /><path
     fill="#FFF"
     d="M169.559 211.701c0 4.794-3.904 8.7-8.73 8.735-4.791 0-8.695-3.905-8.695-8.735 0-4.829 3.904-8.7 8.695-8.735a8.727 8.727 0 0 1 8.73 8.735"
     id="path19" /><path
     fill="#9C824A"
     d="M167.146 211.701a6.31 6.31 0 0 1-6.317 6.321 6.31 6.31 0 0 1-6.317-6.321c0-3.479 2.839-6.32 6.317-6.32a6.31 6.31 0 0 1 6.317 6.32"
     id="path20" /><path
     fill="#FFF"
     d="M154.192 164.504h13.131v30.647h-13.131z"
     id="path21" /><path
     fill="#9C824A"
     d="M156.25 160.1h9.049v38.958h-9.049z"
     id="path22" /><path
     fill="#FFF"
     d="m197.418 181.798 7.169 11.009-25.694 16.693-7.133-11.01z"
     id="path23" /><path
     fill="#9C824A"
     d="m202.21 181.124 4.933 7.6-32.651 21.237-4.933-7.635z"
     id="path24" /><path
     fill="#FFF"
     d="m142.409 214.187 7.027 11.08-25.872 16.408-7.027-11.116z"
     id="path25" /><path
     fill="#9C824A"
     d="m146.81 213.548 4.862 7.671-32.863 20.846-4.863-7.671z"
     id="path26" /><path
     fill="#FFF"
     d="M154.192 229.281h13.131v30.646h-13.131z"
     id="path27" /><path
     fill="#9C824A"
     d="M156.25 224.913h9.049v38.922h-9.049z"
     id="path28" /><path
     fill="#EF0107"
     stroke="#EF0107"
     stroke-miterlimit="282"
     stroke-width=".311"
     d="M148.017 226.013c1.775 1.491 3.726 2.841 6.175 3.871l-.071 27.345c-12.386-1.598-21.755-7.706-28.853-16.406l22.785-14.81"
     id="path29" /><path
     fill="#DB0007"
     stroke="#DB0007"
     stroke-miterlimit="282"
     stroke-width=".311"
     d="M173.604 226.12c-1.81 1.456-3.727 2.841-6.175 3.835l.035 27.346c12.386-1.598 21.756-7.706 28.854-16.407l-22.749-14.773"
     id="path30" /><path
     fill="#DB0007"
     d="m179.815 214.649 27.114-3.268c.213 6.782-1.42 12.749-3.727 18.467l-23.459-15.199"
     id="path31" /><path
     fill="#FFF"
     stroke="#FFF"
     stroke-miterlimit="282"
     stroke-width=".311"
     d="M179.851 214.542c.106-.426.071-.816.249-2.059l26.76-3.48c.106 1.243.035 1.704 0 2.272z"
     id="path32" /><path
     fill="#FFF"
     d="M219.458 191.992h35.1c-1.101 4.154-2.166 8.38-7.206 10.263-8.056 3.02-24.771 5.931-24.771 5.931-.32-4.582-1.349-10.798-3.123-16.194"
     id="path33" /><path
     fill="#FFF"
     d="m195.006 159.994 91.705.106-3.229 33.524-62.64 3.268c-3.372-14.987-14.765-29.298-25.836-36.898"
     id="path34" /><path
     fill="#9C824A"
     d="m198.27 162.373 117.081.106-4.472 27.311-90.854 4.475c-3.585-13.567-11.782-23.475-21.755-31.892"
     id="path35" /><path
     fill="#9c824a"
     d="m 219.458,191.992 h 32.33 c -1.064,3.692 -1.81,7.066 -6.565,8.735 -7.559,2.699 -22.784,4.83 -22.784,4.83 -0.639,-4.438 -1.562,-8.949 -2.981,-13.565"
     id="path36"
     sodipodi:nodetypes="ccccc" /><path
     fill="#ffffff"
     d="m 117.673,190.287 7.204,-10.974 25.624,16.762 -7.205,11.009 z"
     id="path37"
     sodipodi:nodetypes="ccccc" /><path
     fill="#9C824A"
     d="m115.295 186.522 4.969-7.6 32.544 21.343-4.969 7.601z"
     id="path38" /><path
     fill="#FFF"
     d="m172.363 225.232 7.204-11.01 25.623 16.798-7.204 11.01z"
     id="path39" /><path
     fill="#9C824A"
     d="m169.984 221.467 4.969-7.599 32.545 21.343-4.969 7.565z"
     id="path40" /></svg>
