<?xml version="1.0" encoding="UTF-8" standalone="no"?>
<svg
   xml:space="preserve"
   width="85"
   height="85"
   version="1.1"
   id="svg6"
   sodipodi:docname="brentford.svg"
   inkscape:version="1.4.2 (f4327f4, 2025-05-13)"
   xmlns:inkscape="http://www.inkscape.org/namespaces/inkscape"
   xmlns:sodipodi="http://sodipodi.sourceforge.net/DTD/sodipodi-0.dtd"
   xmlns="http://www.w3.org/2000/svg"
   xmlns:svg="http://www.w3.org/2000/svg"><defs
     id="defs6" /><sodipodi:namedview
     id="namedview6"
     pagecolor="#ffffff"
     bordercolor="#000000"
     borderopacity="0.25"
     inkscape:showpageshadow="2"
     inkscape:pageopacity="0.0"
     inkscape:pagecheckerboard="0"
     inkscape:deskcolor="#d1d1d1"
     inkscape:zoom="9.4941176"
     inkscape:cx="42.5"
     inkscape:cy="42.5"
     inkscape:window-width="1920"
     inkscape:window-height="1009"
     inkscape:window-x="-8"
     inkscape:window-y="-8"
     inkscape:window-maximized="1"
     inkscape:current-layer="svg6" /><path
     fill="#fff"
     stroke="#000"
     stroke-width="1.087"
     d="M84.456 42.502C84.456 19.365 65.634.544 42.499.544S.543 19.365.543 42.502c0 23.133 18.821 41.954 41.956 41.954s41.957-18.821 41.957-41.954"
     id="path1" /><path
     fill="#e30613"
     d="m 79.686,42.479 c 0.146,-0.254 0.272,-0.532 0.272,-0.842 0,-0.823 -0.651,-1.468 -1.512,-1.468 -0.86,0 -1.513,0.645 -1.513,1.468 0,0.867 0.708,1.462 1.45,1.462 0.06267,0 0.126,-0.0067 0.19,-0.02 l -0.95,1.633 h 0.772 z m -3.81,0.835 c 0,-0.519 -0.266,-0.943 -0.684,-1.183 0.218916,-0.204637 0.340986,-0.492374 0.336,-0.792 0,-0.651 -0.513,-1.17 -1.184,-1.17 -0.664,0 -1.17,0.519 -1.17,1.17 0,0.324 0.12,0.596 0.329,0.785 -0.427684,0.242519 -0.689705,0.698374 -0.684,1.19 0,0.816 0.664,1.45 1.525,1.45 0.874,0 1.531,-0.634 1.531,-1.45 m -6.012,-0.813 c 0.0031,-1.610017 -0.137775,-3.217087 -0.421,-4.802 -0.082,-0.453 -0.244,-0.99 -0.244,-0.99 l 1.564,-5.427 c 0.335,-1.163 0.466,-1.484 0.283,-1.783 -0.073,-0.12 -0.207,-0.311 -0.749,-0.453 l -4.693,-1.17 -0.145,-0.261 c -4.89,-7.528 -13.37,-12.517 -22.997,-12.517 -9.667,0 -18.179,5.03 -23.058,12.612 l -0.095,0.175 -4.694,1.169 c -0.542,0.143 -0.676,0.335 -0.749,0.453 -0.183,0.3 -0.05,0.62 0.283,1.785 l 1.564,5.426 c 0,0 -0.14,0.48 -0.223,0.937 -0.282171,1.599996 -0.426035,3.221318 -0.43,4.846 0,15.11 12.292,27.403 27.403,27.403 15.111,0 27.403,-12.292 27.403,-27.403 m -58.676,0.824 c 0,-0.52 -0.266,-0.943 -0.683,-1.184 0.218287,-0.204578 0.33996,-0.491873 0.335,-0.791 0,-0.652 -0.513,-1.171 -1.184,-1.171 -0.665,0 -1.17,0.519 -1.17,1.17 0,0.324 0.12,0.596 0.328,0.786 -0.417,0.24 -0.683,0.67 -0.683,1.19 0,0.817 0.665,1.449 1.525,1.449 0.873,0 1.532,-0.632 1.532,-1.45 M 6.65,40.18 5.954,40.614 v 4.11 H 6.65 Z m 76.284,2.32 c 0,22.293 -18.137,40.429 -40.43,40.429 -22.293,0 -40.425,-18.138 -40.425,-40.43 0,-22.294 18.137,-40.431 40.428,-40.431 22.293,0 40.429,18.137 40.429,40.431 m -4.482,-1.687 c -0.494,0 -0.811,0.373 -0.811,0.823 0,0.443 0.317,0.823 0.81,0.823 0.488,0 0.81,-0.38 0.81,-0.823 0,-0.45 -0.322,-0.823 -0.81,-0.823 m -4.102,1.69 c -0.454018,-0.01453 -0.826732,0.355901 -0.815,0.81 0,0.443 0.328,0.804 0.815,0.804 0.5,0 0.83,-0.361 0.83,-0.803 0,-0.45 -0.33,-0.811 -0.83,-0.811 m 0,-0.64 c 0.311,0 0.52,-0.227 0.52,-0.525 0,-0.298 -0.209,-0.525 -0.52,-0.525 -0.303,0 -0.506,0.228 -0.506,0.525 0,0.297 0.203,0.525 0.506,0.525 M 9.66,42.516 c -0.454408,-0.01512 -0.8277617,0.355493 -0.816,0.81 0,0.443 0.329,0.804 0.816,0.804 0.5,0 0.83,-0.361 0.83,-0.804 0,-0.45 -0.33,-0.81 -0.83,-0.81 m 0,-0.639 c 0.31,0 0.52,-0.228 0.52,-0.525 0,-0.297 -0.21,-0.525 -0.52,-0.525 -0.304,0 -0.507,0.227 -0.507,0.525 0,0.298 0.203,0.525 0.507,0.525"
     id="path2"
     sodipodi:nodetypes="csssscccccccssccscccccccccsccccccccsccccsscsscccccccsssccssscccssccssscccssccsssc" /><path
     fill="#140e0c"
     d="M21.518 28.28c4.566-6.716 12.267-11.135 20.983-11.135 8.775 0 16.523 4.482 21.077 11.276l.961-.402C59.811 20.91 51.656 16.132 42.5 16.132c-9.139 0-17.208 4.675-21.94 11.758l.958.389zm-4.957 9.458a26.6 26.6 0 0 0-.428 4.764c0 14.538 11.828 26.366 26.367 26.366 14.538 0 26.366-11.828 26.366-26.366 0-1.627-.148-3.231-.431-4.776l-1.021.001a26 26 0 0 1 .44 4.775c0 13.979-11.373 25.355-25.353 25.355S17.146 56.482 17.146 42.502c0-1.627.153-3.218.447-4.76z"
     id="path3" /><path
     fill="#e8e4d9"
     d="M23.65 43.78v13.395l.464-.081V43.813zm.435-14.39v-3.086l-.464.425v2.487zm14.524-5.01v3.342l.464-.24V25.1zm0 35.503v6.937l.464.074v-6.62zm.464-37.594v-4.16l-.464.099v3.806zm-7.468 21.088v-.975l-.464.295v1.623zm0-10.92v-2.004l-.464-.546v2.347zm-.464 19.949v11.772l.464.265V51.652zm.464-25.56v-6.548l-.464.261v5.837zm29.522 16.967v13.28l.465.082V43.78zm.494-14.596V26.73l-.465-.426v3.087zM46.169 25.1v2.381l.463.241v-3.341zm0 35.172v6.621l.463-.074v-6.937zm.463-38.239v-3.806l-.463-.1v4.162zM54.1 44.321v-1.623l-.464-.295v.975zm0-12.067v-2.347l-.464.546v2.004zm-.464 19.4v12.79l.464-.265V52.407zm0-24.807V20.3l.464.261v5.837z"
     id="path4" /><path
     fill="#140e0c"
     d="m49.874 34.747 15.21-6.164-2.635 4.211-12.57 2.912zm.02 1.653-.004.666h18.356l-5.932-3.237zm-34.793-5.383 1.455 5.062 5.163-2.74s-2.732-4.506-2.737-4.473l-3.15.82c-.61.163-.79.253-.875.382-.096.146-.035.297.144.95m7.592 2.81-5.933 3.23h18.358l-.007-.658zm-2.51 5.187c-.009.16.152.308.391.56l3.427 3.4 2.758-2.652-5.19-2.173-1.016.51c-.266.151-.362.247-.37.355m14.988-4.268-15.21-6.164 2.633 4.211 12.572 2.912zm-12.397 3.01 4.766 1.905 7.633-1.252-.017-.653zm5.185 2.727c.076-.03-3.06 2.82-3.06 2.82l2.257.127s.69.045 1.127-.054c.28-.062 1.139-.546 1.139-.546s5.758-3.09 5.756-3.115l-.012-.675s-7.283 1.473-7.207 1.443m21.92-1.443-.014.675c0 .025 5.757 3.115 5.757 3.115s.86.484 1.14.546c.436.1 1.126.054 1.126.054l2.258-.127s-3.137-2.85-3.06-2.82-7.207-1.443-7.207-1.443m14.604-.38-1.018-.511-5.189 2.173 2.76 2.651 3.426-3.398c.24-.253.4-.401.39-.56-.007-.109-.103-.205-.37-.356m-8.52 12.52c-.096-.129-2.743-7.145-2.743-7.145-.449-1.121-.833-1.314-1.634-1.762l-1.82-1.16-.086.109 2.086 2.845.005 4.134 6.787 8.62c.929 1.153.96 1.537 2.307 1.537l.833-.384-1.57-.258s-4.069-6.408-4.165-6.536m-26.851 0c-.096.128-4.166 6.536-4.166 6.536l-1.57.258.833.384c1.346 0 1.379-.384 2.307-1.538l6.777-8.619.016-4.134 2.084-2.845-.086-.11-1.817 1.161c-.801.448-1.187.64-1.635 1.762 0 0-2.647 7.016-2.743 7.145m40.891-21.124c-.085-.129-.266-.219-.875-.383l-3.15-.82c-.005-.032-2.736 4.474-2.736 4.474l5.163 2.74 1.455-5.062c.179-.652.238-.803.143-.949m-20.128 7.69-.017.652 7.634 1.252 4.765-1.905zm-.194-4.065 4.855-5.264 3.124-3.797.169-1.033-.314-.288-.384 1.178-8.146 7.401c.023.072.696 1.803.696 1.803m-19.176-5.264 4.854 5.264s.674-1.731.697-1.803l-8.147-7.401-.385-1.178-.311.288.168 1.033zm5.045-7.041.731.856 2.276 1.25 2.286 3.312-.647.895s-1.307.434-1.579.776c-.336.43-.408 2.091-.408 2.091l-1.008.58-1.203 3.553v5.625l.857.57-2.54 3.558v8.586l2.836 4.805 3.878 2.948 1.493 1.874 1.49-1.874 3.877-2.948 2.836-4.805v-8.586l-2.49-3.588.807-.54V34.69l-1.202-3.553-1.01-.58s-.069-1.662-.407-2.09c-.27-.343-1.578-.777-1.578-.777l-.612-.844 2.325-3.363 2.273-1.25.732-.856-1.121.353-2.403 1.344-2.318 3.282-1.148-.3-1.189.289-2.309-3.27-2.403-1.345zm4.646 6.634.35 1.606-1.568.604zm4.649 0 1.217 2.21-1.547-.625zm-2.336 6.343 4.706 2.051-1.568 3.525v-2.756l-3.138-1.603-4.448.496-.038-.142zM36.875 50.33l3.021 1.076h5.246l3.024-1.076.032.087-2.742 2.097h-5.873l-2.742-2.097z"
     id="path5" /><path
     fill="#fbb800"
     d="m49.035 54.292-3.829 1.344h-5.354l-3.78-1.344 1.338 2.331 3.148 1.138-2.21-.054 3.01 2.288h2.341l3.01-2.288-2.208.054 3.147-1.138zM36.841 34.59l3.204-1.698h4.97l3.203 1.698-.352-.994-2.308-1.922 2.051.705-.225-.705s-2.21-1.09-2.242-1.185h-5.226c-.031.096-2.242 1.185-2.242 1.185l-.225.705 2.052-.705-2.309 1.922zm12.948 10.12-.008-.008-4.512.553 3.43-1.896-1.353-1.893-1.948 1.3H39.66L37.764 41.5l-1.347 1.86 3.372 1.896-4.512-.553-.006.008v2.413l2.914 1.09h8.686l2.918-1.09z"
     id="path6" /></svg>
