<?xml version="1.0" encoding="UTF-8" standalone="no"?>
<svg
   xml:space="preserve"
   width="300"
   height="300"
   viewBox="0 0 700 700"
   version="1.1"
   id="svg7"
   sodipodi:docname="brighton.svg"
   inkscape:version="1.4.2 (f4327f4, 2025-05-13)"
   xmlns:inkscape="http://www.inkscape.org/namespaces/inkscape"
   xmlns:sodipodi="http://sodipodi.sourceforge.net/DTD/sodipodi-0.dtd"
   xmlns:xlink="http://www.w3.org/1999/xlink"
   xmlns="http://www.w3.org/2000/svg"
   xmlns:svg="http://www.w3.org/2000/svg"><sodipodi:namedview
     id="namedview7"
     pagecolor="#ffffff"
     bordercolor="#000000"
     borderopacity="0.25"
     inkscape:showpageshadow="2"
     inkscape:pageopacity="0.0"
     inkscape:pagecheckerboard="0"
     inkscape:deskcolor="#d1d1d1"
     inkscape:zoom="2.69"
     inkscape:cx="150"
     inkscape:cy="150"
     inkscape:window-width="1920"
     inkscape:window-height="1009"
     inkscape:window-x="-8"
     inkscape:window-y="-8"
     inkscape:window-maximized="1"
     inkscape:current-layer="g4" /><defs
     id="defs1"><clipPath
       id="b"><use
         xlink:href="#a"
         width="100%"
         height="100%"
         overflow="visible"
         style="overflow:visible"
         id="use1" /></clipPath><path
       id="a"
       d="M.725-6.294H71.59V60.32H.725z" /></defs><path
     d="M2.388 28.659c0 14.427 11.696 26.125 26.124 26.125s26.123-11.698 26.123-26.125c0-14.428-11.697-26.123-26.123-26.123-14.428 0-26.124 11.696-26.124 26.123"
     style="fill:#005daa"
     transform="matrix(13.3979 0 0 13.39764 -31.994 -33.976)"
     id="path1" /><path
     d="M28.512 53.778c-13.874 0-25.119-11.246-25.119-25.12 0-13.872 11.245-25.119 25.119-25.119s25.119 11.247 25.119 25.119c0 13.874-11.245 25.12-25.119 25.12"
     style="fill:#fff"
     transform="matrix(13.3979 0 0 13.39764 -31.994 -33.976)"
     id="path2" /><path
     d="M51.912 25.603c-.321-.172-.814-.4-1.521-.697-.728-.304-2.232-.784-3.791-1.2-2.174-7.956-9.446-13.803-18.088-13.803-9.681 0-17.646 7.336-18.646 16.75-.954.142-1.865.253-2.656.336-1.566.163-2.653.221-2.655.222a.12.12 0 0 0-.112.105l-.001.02c-.004.086.057.445.65.747.592.308 1.713.587 3.885.589q.368-.002.779-.013c0 10.358 8.396 18.755 18.756 18.755 10.357 0 18.755-8.397 18.755-18.755a19 19 0 0 0-.321-3.446c1.928.426 4.354.977 5.136.979a.7.7 0 0 0 .206-.024c.051-.011.126-.054.129-.142-.031-.17-.188-.237-.505-.423"
     style="fill:#005daa;fill-opacity:1"
     transform="matrix(13.3979 0 0 13.39764 -31.994 -33.976)"
     id="path3" /><g
     style="fill:#005daa;fill-opacity:1"
     id="g4" /><path
     d="M52.081 26.013c-1.225.002-6.856-1.459-7.656-1.462-1.25.008-4.063 1.552-5.524 2.501a15 15 0 0 1-1.281.75 4.9 4.9 0 0 1 2.635.946c.821.612 1.67 1.362 2.18 1.462l.081.008h.002c.726.068 2.803.582 2.738 1.811 0 0-1.446-.437-3.18-.14-.683.146-1.679.238-3.187.718-1.428.45-5.153 1.862-8.065 1.863-2.216-.002-6.693-1.277-9.277-1.496a6 6 0 0 0-.46-.021c-1.967-.002-3.656 1.032-4.501 1.043-.762 0-2.098-.13-3.406-1.1-.995-.744-1.73-1.831-1.74-2.636-.002-.269.094-.519.304-.684.148-.113.356-.136.63-.139 1.014.001 3.021.441 5.402.44 1.416 0 2.957-.154 4.486-.647.355-.114 1.423-.363 2.111-.536.182.124.374.258.588.406a.1.1 0 0 0 .065.022.13.13 0 0 0 .099-.05.12.12 0 0 0-.028-.166c-1.324-.922-1.953-1.434-4.168-1.428-1.411 0-3.475.196-6.817.597-2.169.259-3.844.36-5.135.36-2.152.001-3.242-.281-3.775-.561-.329-.173-.45-.336-.493-.434.774-.048 4.641-.319 8.057-1.075 3.877-.862 9.948-3.288 12.776-3.283 1.054-.007 2.881 1.08 4.691 2.299 1.822 1.215 3.64 2.554 4.8 3.04a.117.117 0 0 0 .153-.063.12.12 0 0 0-.063-.155c-.664-.278-1.587-.87-2.611-1.561 1.405-.665 6.279-3.591 9.768-3.589 1.659-.003 6.567 1.394 8.043 2.016.703.296 1.195.521 1.507.69q.234.125.334.203a.3.3 0 0 1 .049.043 1 1 0 0 1-.132.008"
     style="fill:#fff"
     transform="matrix(13.3979 0 0 13.39764 -31.994 -33.976)"
     id="path5" /><path
     d="M42.076 31.889c1.733-.297 3.18.14 3.18.14.068-1.281-2.188-1.785-2.821-1.819 0 0 .327.68-1.436.814 0 0-.823-.019-1.16.283 0 0 1.622-.124 2.192.51z"
     clip-path="url(#b)"
     style="fill:#fdb913"
     transform="matrix(13.3979 0 0 13.39764 -31.994 -33.976)"
     id="path6" /><path
     d="M39.29 30.295c.268 0 .483-.31.483-.31s-.216-.308-.483-.308-.482.308-.482.308.215.31.482.31"
     style="fill:#005daa"
     transform="matrix(13.3979 0 0 13.39764 -31.994 -33.976)"
     id="path7" /></svg>
