<?xml version="1.0" encoding="UTF-8" standalone="no"?>
<svg
   width="316.228"
   height="316.228"
   viewBox="0 0 85 85.002"
   version="1.1"
   id="svg7"
   sodipodi:docname="bristol-city.svg"
   inkscape:version="1.4.2 (f4327f4, 2025-05-13)"
   xmlns:inkscape="http://www.inkscape.org/namespaces/inkscape"
   xmlns:sodipodi="http://sodipodi.sourceforge.net/DTD/sodipodi-0.dtd"
   xmlns="http://www.w3.org/2000/svg"
   xmlns:svg="http://www.w3.org/2000/svg">
  <defs
     id="defs7" />
  <sodipodi:namedview
     id="namedview7"
     pagecolor="#ffffff"
     bordercolor="#000000"
     borderopacity="0.25"
     inkscape:showpageshadow="2"
     inkscape:pageopacity="0.0"
     inkscape:pagecheckerboard="0"
     inkscape:deskcolor="#d1d1d1"
     inkscape:zoom="2.5519562"
     inkscape:cx="158.114"
     inkscape:cy="158.114"
     inkscape:window-width="1920"
     inkscape:window-height="1009"
     inkscape:window-x="-8"
     inkscape:window-y="-8"
     inkscape:window-maximized="1"
     inkscape:current-layer="svg7" />
  <path
     d="M42.5.5C19.341.5.5 19.341.5 42.502s18.841 42 42 42 42-18.841 42-42S65.659.5 42.5.5"
     id="path1" />
  <path
     fill="#fff"
     d="M44.052 82.025c-.514.02-1.032.034-1.552.034s-1.018-.014-1.523-.034A39.55 39.55 0 0 1 2.943 42.528v-.025a39.556 39.556 0 0 1 79.099-1.059c0 .353.014.706.014 1.061s0 .75-.019 1.132a39.554 39.554 0 0 1-37.986 38.389z"
     id="path2" />
  <path
     fill="#e21a23"
     d="M42.502 4.436a38.065 38.065 0 1 0 38.063 38.063A38.065 38.065 0 0 0 42.502 4.436"
     id="path3" />
  <path
     fill="#fff"
     d="M42.421 16.379a26.125 26.125 0 0 1 26.211 26.12 26.125 26.125 0 0 1-26.13 26.13 26.125 26.125 0 0 1-.082-52.25z"
     id="path4" />
  <path
     d="M33.454 65.383a25 25 0 0 0 2.4.81 7.14 7.14 0 0 1 2.32-6.14l-1.584-1.748a9.5 9.5 0 0 0-3.136 7.078m20.767-36.497c.308-.249 2.745-1.683 2.745-1.683L53.2 26.63a8.67 8.67 0 0 0-6.908-3.919h-.028c-5.475-.156-7.95 4.388-8.503 6.84-.194.702-4.313 15.477-10.257 25.265a31 31 0 0 1-2.106 3.057h2.918c.412-.59.815-1.201 1.2-1.835 6.229-10.259 10.35-25.26 10.522-25.894l.013-.054c.048-.21 1.195-5.16 6.134-5.028a6.34 6.34 0 0 1 3.82 1.482 8 8 0 0 0-2.44.679c-1.708.679-2.844 1.756-3.375 3.18-1 2.671.531 5.656 1.036 6.638 3.342 6.505-2.905 11.863-8.736 15.212l-1.095.679 1.104 1.443 2.826 3.8.523.678.812-.278a7.19 7.19 0 0 1 9.487 7.3 24 24 0 0 0 2.358-.906 9.6 9.6 0 0 0-.502-2.674 9.53 9.53 0 0 0-11.277-6.178l-1.448-1.945c3.249-.808 9.804-2.863 12.91-6.827 4.372-5.577 2.116-10.38.625-13.558-.43-.916-.502-1.724-.226-2.473.559-1.489 1.197-2.075 1.633-2.428zm-1.858 12.366a7.4 7.4 0 0 1-.192 1.097 8 8 0 0 1-.385 1.132 7 7 0 0 1-.375.783q-.106.196-.227.398a12 12 0 0 1-.846 1.224c-1.645 2.098-4.575 3.609-7.277 4.634q.788-.679 1.46-1.358.452-.452.848-.923a16 16 0 0 0 1.086-1.407q.325-.472.598-.95a11.4 11.4 0 0 0 1.19-2.913 10 10 0 0 0 .226-1.28c0-.104.023-.206.03-.306q.037-.455.03-.88v-.28c0-.186-.021-.367-.04-.541 0-.089-.02-.175-.029-.26a10 10 0 0 0-.545-2.18c-.043-.117-.09-.226-.134-.337-.11-.264-.226-.49-.307-.678l-.147-.29a15 15 0 0 1-.356-.738c-.106-.24-.226-.53-.316-.783a7 7 0 0 1-.421-1.755 3.4 3.4 0 0 1 .165-1.464 3 3 0 0 1 .129-.288 3 3 0 0 1 .165-.271 3 3 0 0 1 .441-.473 4.6 4.6 0 0 1 1.33-.78h.023a7 7 0 0 1 .399-.152 8.1 8.1 0 0 1 2.516-.426 6 6 0 0 0-.564.77 5 5 0 0 0-.622 1.477 5 5 0 0 0-.124.724 5.3 5.3 0 0 0 .178 1.896 7 7 0 0 0 .414 1.118c.166.355.335.713.498 1.08.034.076.07.155.104.226.184.42.358.85.514 1.29q.053.154.104.31a11 11 0 0 1 .36 1.404 8 8 0 0 1 .133 1.44c0 .24-.011.484-.034.71"
     id="path5" />
  <g
     fill="#e21a23"
     id="g7">
    <path
       d="M31.549 34.291h-.876l-1.783 2.46v.757h1.79v.872h.869v-.872h.679v-.812h-.679zm-.869 2.405h-.948l.948-1.314zm-3.774-2.46c-.86 0-1.5.578-1.5 1.447a1.26 1.26 0 0 0 1.256 1.335 1.2 1.2 0 0 0 .995-.505c-.154.853-.808 1.109-1.584 1.109l-.011.798c1.701 0 2.489-1.025 2.489-2.274-.005-1.126-.65-1.91-1.645-1.91m0 2.024a.61.61 0 1 1 0-1.222.61.61 0 1 1 0 1.222m-5.815 1.423h3.84v.683h-3.84zm3.378-1.994a.68.68 0 0 0 .416-.61c0-.474-.391-.743-.936-.743-.546 0-.978.283-.978.747a.64.64 0 0 0 .4.597.68.68 0 0 0-.502.68c0 .492.432.836 1.06.836.626 0 1.045-.348 1.045-.837a.66.66 0 0 0-.505-.67m-.532-.75c.177 0 .279.096.279.225a.32.32 0 0 1-.227.27l-.115-.037c-.158-.047-.24-.13-.24-.226.007-.15.134-.233.303-.233m.012 1.646c-.242 0-.403-.093-.403-.278a.35.35 0 0 1 .274-.32l.14.042q.34.094.34.31c0 .144-.14.246-.351.246m-1.804-2.208h-1.061v.629h.382v2.156h.68zM51.786 43.493a8 8 0 0 0 .385-1.131 7.4 7.4 0 0 0 .192-1.098q.034-.36.034-.71a8 8 0 0 0-.134-1.44 10.827 10.827 0 0 0-.36-1.405l-.103-.31q-.237-.657-.514-1.29a4 4 0 0 0-.104-.225c-.163-.367-.333-.724-.498-1.08a7 7 0 0 1-.414-1.117 5.3 5.3 0 0 1-.179-1.897 5 5 0 0 1 .125-.724 5 5 0 0 1 .622-1.477 6 6 0 0 1 .563-.77 8.1 8.1 0 0 0-2.516.412q-.204.072-.398.152h-.023a4.6 4.6 0 0 0-1.33.78 3 3 0 0 0-.439.487 3 3 0 0 0-.165.272 3 3 0 0 0-.13.287 3.4 3.4 0 0 0-.164 1.464 7 7 0 0 0 .42 1.756q.137.379.317.783c.12.269.227.484.356.737l.147.29c.09.185.196.412.307.679l.134.337c.045.11.086.24.129.37q.098.29.183.619a11 11 0 0 1 .233 1.19c0 .086.02.172.03.26q.027.262.038.54v.281c0 .283 0 .577-.03.88 0 .1-.017.202-.029.306a10 10 0 0 1-.226 1.28 11.4 11.4 0 0 1-1.19 2.913 14 14 0 0 1-.598.95 16 16 0 0 1-1.086 1.408q-.396.466-.848.923-.679.679-1.46 1.357c2.702-1.025 5.632-2.536 7.277-4.634a12 12 0 0 0 .846-1.224q.121-.2.227-.398.21-.397.373-.783z"
       id="path7" />
  </g>
</svg>
