<?xml version="1.0" encoding="UTF-8" standalone="no"?>
<svg
   width="94"
   height="200"
   version="1.1"
   id="svg1"
   sodipodi:docname="nottingham-forest.svg"
   inkscape:version="1.4.2 (f4327f4, 2025-05-13)"
   xmlns:inkscape="http://www.inkscape.org/namespaces/inkscape"
   xmlns:sodipodi="http://sodipodi.sourceforge.net/DTD/sodipodi-0.dtd"
   xmlns="http://www.w3.org/2000/svg"
   xmlns:svg="http://www.w3.org/2000/svg">
  <defs
     id="defs1" />
  <sodipodi:namedview
     id="namedview1"
     pagecolor="#ffffff"
     bordercolor="#000000"
     borderopacity="0.25"
     inkscape:showpageshadow="2"
     inkscape:pageopacity="0.0"
     inkscape:pagecheckerboard="0"
     inkscape:deskcolor="#d1d1d1"
     inkscape:zoom="4.035"
     inkscape:cx="46.964064"
     inkscape:cy="100"
     inkscape:window-width="1920"
     inkscape:window-height="1009"
     inkscape:window-x="-8"
     inkscape:window-y="-8"
     inkscape:window-maximized="1"
     inkscape:current-layer="svg1" />
  <path
     fill-rule="evenodd"
     d="m 31.69,0.06 c 0.03,0 0.16,0.29 0.28,0.64 l 2.93,8.5 4.75,0.03 c 3.11,0.02 4.74,0.05 4.73,0.09 -0.01,0.04 -1.73,1.31 -7.64,5.62 l 1.51,4.8 c 0.83,2.64 1.49,4.82 1.46,4.84 -0.02,0.03 -1.83,-1.2 -4.02,-2.73 -2.18,-1.52 -3.99,-2.77 -4.02,-2.77 -0.03,0 -1.83,1.25 -4.01,2.77 -2.18,1.53 -3.98,2.76 -4,2.73 -0.03,-0.02 0.62,-2.18 1.44,-4.8 0.82,-2.61 1.49,-4.78 1.49,-4.81 0,-0.04 -1.72,-1.31 -3.82,-2.84 C 20.67,10.6 18.96,9.33 18.98,9.29 19,9.25 20.65,9.23 28.45,9.23 l 0.09,-0.27 c 0.05,-0.14 0.74,-2.15 1.55,-4.47 0.8,-2.32 1.48,-4.26 1.5,-4.32 0.03,-0.06 0.07,-0.11 0.1,-0.11 m 30.14,0 c 0.04,0 0.67,1.75 1.41,3.88 0.73,2.14 1.44,4.2 1.84,5.29 h 4.71 c 3.07,0 4.71,0.02 4.73,0.06 0.02,0.04 -1.69,1.32 -3.79,2.86 -2.1,1.53 -3.82,2.81 -3.82,2.83 0,0.03 0.67,2.19 1.49,4.8 0.83,2.62 1.48,4.78 1.45,4.8 -0.03,0.02 -1.84,-1.2 -4.03,-2.73 -2.18,-1.52 -4,-2.77 -4.03,-2.76 -0.04,0 -1.84,1.24 -4.01,2.77 -2.17,1.52 -3.97,2.74 -4,2.72 -0.02,-0.02 0.63,-2.2 1.45,-4.84 0.83,-2.64 1.48,-4.82 1.45,-4.84 C 56.65,14.87 54.93,13.62 52.86,12.1 50.78,10.59 49.1,9.33 49.11,9.29 49.13,9.25 50.77,9.23 58.56,9.23 L 60.13,4.69 C 61,2.2 61.72,0.13 61.74,0.11 61.75,0.08 61.79,0.06 61.83,0.06 M 46.35,33.62 c 0.53,0 1.25,0.02 1.61,0.06 0.36,0.03 0.92,0.11 1.25,0.16 0.32,0.05 0.91,0.18 1.3,0.27 0.39,0.1 1.05,0.3 1.46,0.44 0.41,0.14 1.22,0.49 1.8,0.78 0.58,0.28 1.41,0.75 1.83,1.04 0.43,0.28 0.99,0.69 1.25,0.89 0.25,0.2 0.82,0.72 1.26,1.15 0.44,0.43 1.04,1.08 1.33,1.44 0.29,0.36 0.71,0.94 1.35,1.9 l 0.5,-0.1 c 0.27,-0.06 0.77,-0.14 1.1,-0.17 0.944352,-0.101248 1.897167,-0.09454 2.84,0.02 0.36,0.05 0.89,0.14 1.19,0.21 0.857794,0.220839 1.697016,0.508381 2.51,0.86 0.34,0.16 0.87,0.43 1.18,0.61 0.31,0.19 0.8,0.51 1.09,0.73 0.29,0.21 0.81,0.67 1.15,1.02 0.35,0.34 0.81,0.87 1.02,1.16 0.21,0.29 0.54,0.79 0.72,1.12 0.18,0.33 0.45,0.87 0.58,1.22 0.14,0.34 0.32,0.87 0.41,1.18 0.09,0.31 0.22,0.9 0.3,1.31 0.11,0.64 0.13,0.98 0.13,2.34 0.01,1.22 -0.02,1.75 -0.1,2.27 -0.06,0.38 -0.18,0.99 -0.26,1.35 -0.08,0.36 -0.13,0.67 -0.11,0.69 0.02,0.02 0.27,0.11 0.54,0.21 0.27,0.09 0.79,0.32 1.15,0.5 0.36,0.18 0.9,0.5 1.21,0.7 0.31,0.2 0.77,0.54 1.02,0.75 0.26,0.21 0.78,0.69 1.16,1.08 0.37,0.39 0.86,0.95 1.08,1.24 0.22,0.29 0.53,0.74 0.69,1 0.16,0.26 0.41,0.71 0.55,1 0.15,0.29 0.36,0.77 0.48,1.07 0.11,0.3 0.28,0.84 0.37,1.19 0.13,0.51 0.17,0.84 0.19,1.64 0.02,0.74 0.01,1.1 -0.06,1.43 -0.05,0.24 -0.09,0.44 -0.08,0.44 0,0.01 0.27,0.15 0.6,0.31 0.32,0.16 0.75,0.41 0.96,0.55 0.2,0.13 0.58,0.42 0.84,0.64 0.25,0.22 0.63,0.59 0.84,0.83 0.2,0.25 0.52,0.69 0.71,0.99 0.19,0.3 0.45,0.8 0.58,1.1 0.13,0.31 0.32,0.87 0.41,1.25 0.1,0.38 0.21,0.98 0.25,1.34 0.05,0.42 0.07,1.1 0.05,1.9 -0.02,0.69 -0.08,1.52 -0.13,1.84 -0.05,0.33 -0.12,0.71 -0.18,1.1 l 0.49,0.36 c 0.27,0.21 0.74,0.59 1.05,0.86 0.3,0.26 0.71,0.64 0.9,0.84 0.2,0.2 0.5,0.55 0.69,0.77 0.19,0.23 0.52,0.67 0.74,1 0.21,0.33 0.54,0.89 0.72,1.25 0.18,0.36 0.42,0.95 0.55,1.31 0.12,0.36 0.29,0.99 0.38,1.4 0.12,0.59 0.16,1 0.19,1.97 0.02,0.75 0.01,1.45 -0.04,1.83 -0.03,0.35 -0.13,0.95 -0.21,1.35 -0.08,0.39 -0.27,1.08 -0.42,1.52 -0.15,0.45 -0.44,1.16 -0.65,1.59 -0.21,0.43 -0.58,1.08 -0.82,1.44 -0.23,0.36 -0.64,0.91 -0.9,1.21 -0.25,0.31 -0.74,0.83 -1.08,1.16 -0.34,0.33 -0.92,0.83 -1.3,1.11 -0.37,0.28 -0.99,0.68 -1.36,0.9 -0.38,0.21 -1.04,0.53 -1.46,0.71 -0.43,0.18 -1.14,0.43 -1.59,0.55 -0.44,0.12 -1.18,0.28 -1.64,0.35 -0.61,0.08 -1.17,0.12 -2.04,0.12 -0.72,0 -1.48,-0.04 -1.92,-0.1 -0.41,-0.05 -1.04,-0.16 -1.42,-0.24 -0.57,-0.13 -0.69,-0.14 -0.74,-0.07 -0.04,0.05 -0.25,0.35 -0.47,0.67 -0.22,0.32 -0.74,0.92 -1.15,1.35 -0.41,0.43 -0.98,0.96 -1.27,1.2 -0.29,0.23 -0.81,0.61 -1.15,0.84 -0.34,0.23 -1.06,0.63 -1.59,0.89 -0.53,0.27 -1.24,0.59 -1.58,0.71 -0.34,0.13 -0.9,0.31 -1.24,0.41 -0.34,0.11 -0.92,0.25 -1.28,0.32 -0.36,0.07 -0.87,0.16 -1.15,0.21 -0.31,0.05 -1.09,0.07 -2.08,0.07 -1.39,0 -1.66,-0.01 -2.2,-0.13 -0.34,-0.08 -0.95,-0.24 -1.34,-0.37 -0.39,-0.12 -1.03,-0.36 -1.43,-0.53 -0.39,-0.17 -0.89,-0.41 -1.49,-0.74 v 18.09 l 0.2,-0.12 c 0.11,-0.07 0.65,-0.37 1.2,-0.67 1.637031,-0.87499 3.294144,-1.71188 4.97,-2.51 0.44,-0.2 1.18,-0.53 1.65,-0.73 0.46,-0.19 1.23,-0.51 1.7,-0.7 1.348516,-0.52167 2.719914,-0.98214 4.11,-1.38 1.364107,-0.39136 2.754265,-0.68543 4.16,-0.88 0.61,-0.09 1.49,-0.14 2.58,-0.17 1.09,-0.02 1.91,-0.01 2.45,0.04 0.44,0.04 1.19,0.15 1.65,0.23 0.46,0.08 1.2,0.25 1.64,0.38 0.45,0.12 1.15,0.35 1.56,0.5 0.41,0.16 1.04,0.43 1.39,0.62 0.36,0.18 0.88,0.48 1.15,0.66 0.28,0.18 0.73,0.55 1.53,1.33 v 4.21 c 0,2.31 -0.02,4.23 -0.05,4.25 -0.03,0.03 -0.24,-0.14 -0.48,-0.37 -0.24,-0.23 -0.65,-0.57 -0.9,-0.74 -0.26,-0.18 -0.74,-0.47 -1.06,-0.64 -0.32,-0.17 -0.88,-0.44 -1.24,-0.59 -0.36,-0.15 -1.02,-0.39 -1.46,-0.54 -0.45,-0.14 -1.15,-0.34 -1.56,-0.44 -0.41,-0.1 -1.15,-0.25 -1.64,-0.34 -0.5,-0.08 -1.27,-0.18 -1.71,-0.22 -0.5,-0.05 -1.36,-0.06 -2.24,-0.04 -0.87,0.01 -1.68,0.07 -2.08,0.13 -0.498548,0.0867 -0.995314,0.18342 -1.49,0.29 -0.46,0.1 -1.31,0.32 -1.89,0.49 -0.59,0.17 -1.48,0.46 -1.99,0.64 -0.51,0.19 -1.3,0.5 -1.74,0.69 -0.45,0.19 -1.19,0.52 -1.65,0.75 -0.46,0.22 -1.48,0.76 -2.27,1.2 -0.78,0.44 -2.03,1.09 -2.76,1.46 -0.74,0.36 -1.84,0.88 -2.45,1.14 -0.62,0.26 -1.53,0.63 -2.02,0.82 -0.5,0.18 -1.3,0.47 -1.77,0.63 -0.48,0.16 -1.32,0.41 -1.87,0.57 -0.55,0.15 -1.38,0.36 -2.73,0.63 l -0.02,-20.09 c -0.01,-11.05 0,-20.12 0.02,-20.16 0.02,-0.05 0.28,0.15 0.67,0.52 0.35,0.33 0.94,0.8 1.32,1.06 0.37,0.25 0.97,0.6 1.33,0.79 0.36,0.18 0.95,0.45 1.31,0.59 0.36,0.14 0.97,0.35 1.36,0.47 0.4,0.12 1.07,0.29 1.49,0.38 0.43,0.08 1.16,0.2 1.62,0.25 0.46,0.06 1.33,0.1 1.93,0.1 0.59,0 1.45,-0.04 1.89,-0.1 0.44,-0.05 1.07,-0.15 1.4,-0.21 0.32,-0.07 0.84,-0.2 1.15,-0.28 0.31,-0.09 0.79,-0.25 1.09,-0.36 0.29,-0.1 0.79,-0.31 1.11,-0.47 0.33,-0.15 0.83,-0.42 1.12,-0.59 0.29,-0.17 0.78,-0.51 1.09,-0.74 0.31,-0.23 0.8,-0.67 1.1,-0.97 0.3,-0.3 0.71,-0.78 0.92,-1.05 0.2,-0.28 0.51,-0.78 0.68,-1.12 0.17,-0.35 0.36,-0.81 0.43,-1.03 0.07,-0.23 0.16,-0.53 0.19,-0.67 0.04,-0.15 0.09,-0.26 0.12,-0.25 0.03,0 0.23,0.24 0.45,0.51 0.22,0.28 0.64,0.69 0.93,0.93 0.32,0.26 0.78,0.55 1.21,0.76 0.37,0.18 0.89,0.39 1.14,0.46 0.26,0.07 0.74,0.16 1.06,0.19 0.42,0.05 0.78,0.05 1.21,0 0.34,-0.03 0.83,-0.12 1.09,-0.19 0.26,-0.07 0.69,-0.24 0.96,-0.36 0.28,-0.13 0.68,-0.36 0.9,-0.51 0.23,-0.15 0.61,-0.47 0.86,-0.71 0.25,-0.25 0.6,-0.65 0.78,-0.91 0.17,-0.26 0.42,-0.69 0.55,-0.97 0.144114,-0.33551 0.267676,-0.679479 0.37,-1.03 0.13,-0.46 0.14,-0.67 0.14,-1.62 0,-1 -0.01,-1.13 -0.17,-1.65 -0.09,-0.31 -0.27,-0.77 -0.39,-1.03 -0.12,-0.26 -0.36,-0.66 -0.52,-0.91 -0.414433,-0.568481 -0.905791,-1.076667 -1.46,-1.51 -0.21,-0.15 -0.61,-0.4 -0.9,-0.54 -0.29,-0.15 -0.71,-0.32 -0.93,-0.4 -0.23,-0.07 -0.51,-0.14 -0.63,-0.17 -0.11,-0.02 -0.28,-0.07 -0.49,-0.15 l 0.21,-0.3 c 0.11,-0.16 0.32,-0.52 0.46,-0.79 0.13,-0.28 0.3,-0.68 0.37,-0.91 0.07,-0.22 0.17,-0.57 0.21,-0.78 0.04,-0.2 0.08,-0.72 0.07,-1.15 0,-0.63 -0.03,-0.9 -0.17,-1.4 -0.09,-0.35 -0.27,-0.84 -0.4,-1.09 -0.13,-0.26 -0.32,-0.6 -0.42,-0.75 -0.11,-0.16 -0.34,-0.45 -0.53,-0.65 -0.18,-0.21 -0.54,-0.53 -0.8,-0.72 -0.25,-0.19 -0.67,-0.45 -0.93,-0.58 -0.25,-0.12 -0.63,-0.28 -0.84,-0.35 -0.2,-0.07 -0.59,-0.17 -0.85,-0.22 -0.27,-0.06 -0.67,-0.1 -0.9,-0.1 -0.23,0 -0.44,-0.02 -0.47,-0.05 -0.02,-0.02 0.01,-0.12 0.07,-0.2 0.07,-0.09 0.22,-0.35 0.33,-0.59 0.12,-0.24 0.28,-0.62 0.35,-0.83 0.08,-0.21 0.17,-0.52 0.2,-0.67 0.03,-0.15 0.09,-0.53 0.12,-0.83 0.03,-0.33 0.03,-0.79 0,-1.17 -0.03,-0.34 -0.12,-0.86 -0.21,-1.15 -0.08,-0.29 -0.24,-0.73 -0.35,-0.97 -0.1,-0.24 -0.35,-0.67 -0.54,-0.96 -0.19,-0.31 -0.59,-0.79 -0.94,-1.13 -0.369076,-0.361822 -0.767063,-0.69292 -1.19,-0.99 -0.32,-0.21 -0.81,-0.5 -1.08,-0.63 -0.28,-0.13 -0.72,-0.31 -1,-0.4 -0.27,-0.1 -0.74,-0.22 -1.04,-0.29 -0.3,-0.06 -0.87,-0.15 -1.27,-0.18 -0.4,-0.04 -0.89,-0.05 -1.07,-0.02 -0.19,0.02 -0.39,0.02 -0.45,0 -0.1,-0.04 -0.06,-0.11 0.23,-0.49 0.18,-0.25 0.48,-0.72 0.65,-1.05 0.17,-0.32 0.4,-0.89 0.52,-1.25 0.12,-0.36 0.26,-0.88 0.32,-1.15 0.05,-0.27 0.12,-0.81 0.15,-1.18 0.02,-0.38 0.02,-1 0,-1.38 C 68.13,56.97 68.06,56.42 68,56.13 67.94,55.84 67.81,55.34 67.71,55.04 67.61,54.73 67.41,54.22 67.26,53.91 67.11,53.6 66.81,53.09 66.6,52.76 66.35,52.39 65.94,51.91 65.52,51.48 65.13,51.09 64.6,50.64 64.3,50.44 c -0.29,-0.19 -0.72,-0.45 -0.96,-0.57 -0.24,-0.12 -0.67,-0.3 -0.96,-0.4 -0.29,-0.1 -0.77,-0.24 -1.06,-0.3 -0.42,-0.1 -0.79,-0.12 -1.74,-0.12 -0.93,0 -1.33,0.03 -1.74,0.11 -0.29,0.06 -0.78,0.2 -1.09,0.3 -0.3,0.11 -0.71,0.27 -0.9,0.37 -0.18,0.1 -0.36,0.19 -0.39,0.19 -0.02,0 -0.07,-0.19 -0.11,-0.43 -0.03,-0.23 -0.16,-0.7 -0.27,-1.04 -0.11,-0.34 -0.3,-0.81 -0.41,-1.03 -0.164543,-0.320735 -0.348207,-0.631294 -0.55,-0.93 -0.19,-0.3 -0.63,-0.82 -0.97,-1.16 -0.34,-0.35 -0.8,-0.76 -1.02,-0.92 -0.23,-0.15 -0.63,-0.41 -0.91,-0.56 -0.27,-0.16 -0.76,-0.39 -1.08,-0.51 -0.33,-0.13 -0.9,-0.31 -1.28,-0.4 -0.61,-0.14 -0.81,-0.16 -1.95,-0.16 -1.01,0 -1.39,0.02 -1.8,0.11 -0.3,0.06 -0.78,0.19 -1.09,0.29 -0.31,0.1 -0.83,0.32 -1.15,0.48 -0.33,0.17 -0.8,0.44 -1.06,0.61 -0.25,0.17 -0.79,0.64 -1.19,1.03 -0.48,0.48 -0.84,0.91 -1.08,1.28 -0.2,0.31 -0.47,0.78 -0.59,1.06 -0.272552,0.594208 -0.473948,1.218535 -0.6,1.86 -0.03,0.13 -0.07,0.23 -0.09,0.23 -0.03,0 -0.27,-0.09 -0.53,-0.19 -0.27,-0.11 -0.76,-0.27 -1.11,-0.35 -0.47,-0.12 -0.85,-0.17 -1.61,-0.19 -0.78,-0.03 -1.14,-0.01 -1.65,0.07 -0.36,0.06 -0.93,0.2 -1.27,0.31 -0.34,0.12 -0.83,0.31 -1.09,0.44 -0.25,0.13 -0.69,0.38 -0.96,0.56 -0.27,0.19 -0.68,0.49 -0.9,0.69 -0.22,0.19 -0.57,0.54 -0.77,0.77 -0.2,0.23 -0.53,0.67 -0.74,0.98 -0.2,0.3 -0.47,0.78 -0.6,1.06 -0.13,0.27 -0.33,0.77 -0.43,1.1 -0.11,0.34 -0.24,0.87 -0.3,1.19 -0.06,0.36 -0.1,0.91 -0.1,1.48 0,0.56 0.04,1.12 0.1,1.46 0.05,0.31 0.17,0.82 0.26,1.13 0.09,0.31 0.29,0.82 0.44,1.15 0.16,0.33 0.37,0.73 0.48,0.9 0.1,0.18 0.37,0.54 0.58,0.82 0.21,0.27 0.37,0.51 0.35,0.54 -0.03,0.02 -0.3,0.03 -0.61,0.01 -0.31,-0.02 -0.89,-0.01 -1.3,0.04 -0.41,0.04 -1.06,0.15 -1.43,0.24 -0.38,0.1 -0.95,0.29 -1.27,0.42 -0.33,0.14 -0.79,0.37 -1.03,0.5 -0.24,0.14 -0.66,0.43 -0.93,0.63 -0.28,0.21 -0.69,0.57 -0.91,0.8 -0.23,0.24 -0.57,0.64 -0.75,0.9 -0.18,0.26 -0.45,0.71 -0.59,1 -0.14,0.29 -0.33,0.77 -0.41,1.06 -0.09,0.29 -0.19,0.82 -0.23,1.18 -0.06,0.49 -0.06,0.82 -0.01,1.28 0.04,0.34 0.13,0.85 0.2,1.12 0.07,0.28 0.26,0.78 0.42,1.13 0.17,0.34 0.45,0.82 0.62,1.06 0.18,0.24 0.32,0.45 0.32,0.48 0,0.03 -0.2,0.03 -0.45,0 -0.25,-0.03 -0.8,-0.04 -1.23,-0.04 -0.51,0.01 -0.99,0.06 -1.42,0.15 -0.36,0.07 -0.87,0.22 -1.12,0.31 -0.26,0.1 -0.65,0.29 -0.87,0.42 -0.23,0.13 -0.65,0.47 -0.97,0.8 -0.42,0.42 -0.61,0.67 -0.79,1.03 -0.13,0.25 -0.29,0.69 -0.36,0.96 -0.08,0.33 -0.12,0.71 -0.12,1.11 0,0.33 0.04,0.8 0.09,1.03 0.05,0.23 0.13,0.56 0.19,0.73 0.06,0.17 0.22,0.57 0.37,0.87 0.15,0.31 0.43,0.8 0.63,1.08 0.2,0.28 0.57,0.73 0.82,1.01 0.28,0.31 0.42,0.51 0.37,0.53 -0.04,0.02 -0.33,0.11 -0.64,0.19 -0.3,0.09 -0.83,0.3 -1.18,0.47 -0.34,0.16 -0.84,0.46 -1.11,0.67 -0.28,0.2 -0.73,0.61 -1,0.9 -0.27,0.3 -0.63,0.76 -0.79,1.03 -0.16,0.27 -0.38,0.68 -0.47,0.92 -0.1,0.24 -0.23,0.64 -0.3,0.88 -0.09,0.33 -0.11,0.65 -0.11,1.4 0,0.73 0.02,1.06 0.11,1.37 0.06,0.22 0.24,0.69 0.41,1.03 0.16,0.34 0.45,0.82 0.64,1.06 0.2,0.24 0.5,0.56 0.68,0.72 0.18,0.15 0.57,0.43 0.86,0.61 0.29,0.18 0.75,0.41 1.02,0.5 0.27,0.1 0.72,0.23 1,0.29 0.3,0.07 0.79,0.11 1.27,0.11 0.43,0.01 0.99,-0.03 1.24,-0.07 0.26,-0.05 0.72,-0.17 1.03,-0.27 0.3,-0.1 0.81,-0.31 1.12,-0.48 0.3,-0.16 0.72,-0.42 0.93,-0.57 0.2,-0.15 0.55,-0.45 0.77,-0.67 0.23,-0.21 0.42,-0.39 0.44,-0.39 0.02,0 0.12,0.24 0.23,0.55 0.11,0.3 0.36,0.81 0.55,1.14 0.19,0.32 0.51,0.78 0.7,1.02 0.19,0.24 0.51,0.6 0.69,0.79 0.19,0.19 0.53,0.49 0.75,0.68 0.22,0.18 0.7,0.53 1.05,0.77 0.36,0.23 1.02,0.61 1.46,0.82 0.45,0.22 1.23,0.54 1.74,0.71 0.52,0.17 1.26,0.38 1.65,0.47 0.39,0.09 1.05,0.2 1.46,0.25 0.41,0.06 1.18,0.12 1.71,0.14 0.55,0.02 1.34,0.01 1.83,-0.03 1.058819,-0.0896 2.108809,-0.26353 3.14,-0.52 0.39,-0.1 1.02,-0.3 1.4,-0.44 0.37,-0.14 0.99,-0.4 1.36,-0.58 0.38,-0.19 0.94,-0.49 1.25,-0.69 0.3,-0.19 0.78,-0.53 1.05,-0.74 0.28,-0.22 0.77,-0.68 1.11,-1.02 0.33,-0.35 0.62,-0.62 0.63,-0.59 0.02,0.03 0.04,9.1 0.03,40.3 l -0.23,-0.03 c -0.13,-0.03 -0.61,-0.13 -1.07,-0.23 -0.46,-0.1 -1.26,-0.31 -1.77,-0.46 -0.51,-0.15 -1.44,-0.44 -2.05,-0.65 -0.62,-0.21 -1.62,-0.59 -2.24,-0.84 -0.61,-0.25 -1.48,-0.62 -1.92,-0.81 -0.45,-0.2 -1.37,-0.65 -2.05,-1 -0.69,-0.35 -1.74,-0.91 -2.33,-1.25 -0.6,-0.34 -1.6,-0.86 -2.21,-1.16 -0.62,-0.29 -1.61,-0.73 -2.21,-0.97 -0.59,-0.24 -1.56,-0.59 -2.14,-0.78 -0.58,-0.19 -1.56,-0.48 -2.17,-0.63 -0.62,-0.15 -1.46,-0.34 -1.87,-0.41 -0.41,-0.07 -1.05,-0.16 -1.43,-0.2 -0.42,-0.05 -1.1,-0.06 -1.8,-0.04 -1.10443,0.0333 -2.204512,0.15363 -3.29,0.36 -0.38,0.07 -1.02,0.21 -1.43,0.32 -0.41,0.1 -1.05,0.29 -1.43,0.41 -0.37,0.12 -0.96,0.33 -1.3,0.46 -0.35,0.14 -0.95,0.41 -1.34,0.61 -0.39,0.19 -0.99,0.53 -1.33,0.76 -0.35,0.23 -0.79,0.57 -1,0.76 -0.2,0.2 -0.39,0.33 -0.42,0.31 -0.03,-0.03 -0.05,-1.95 -0.05,-8.5 L 6.66,124 c 0.22,-0.19 0.69,-0.54 1.04,-0.78 0.36,-0.24 1.02,-0.62 1.46,-0.83 0.45,-0.22 1.18,-0.53 1.62,-0.69 0.44,-0.16 1.23,-0.4 1.74,-0.53 0.51,-0.13 1.29,-0.3 1.74,-0.38 0.74,-0.13 0.99,-0.15 2.86,-0.15 1.31,0 2.28,0.03 2.7,0.08 0.36,0.05 0.97,0.14 1.37,0.2 0.39,0.07 1.09,0.21 1.55,0.32 0.46,0.1 1.28,0.31 1.83,0.47 0.55,0.16 1.44,0.44 1.99,0.63 0.55,0.19 1.53,0.55 2.17,0.81 0.65,0.26 1.66,0.68 2.24,0.93 0.58,0.26 1.9,0.89 2.92,1.4 1.03,0.5 2.4,1.22 3.06,1.58 0.66,0.36 1.21,0.66 1.23,0.66 0.01,0 0.03,-4.05 0.03,-18.02 l -0.67,0.41 c -0.37,0.22 -0.92,0.53 -1.23,0.68 -0.3,0.15 -0.82,0.37 -1.15,0.5 -0.32,0.12 -0.89,0.3 -1.27,0.4 -0.37,0.1 -0.93,0.23 -1.24,0.29 -0.31,0.05 -1.05,0.11 -1.65,0.13 -0.68,0.02 -1.33,0.01 -1.74,-0.04 -0.36,-0.04 -0.94,-0.13 -1.3,-0.2 -0.971659,-0.20693 -1.91984,-0.51182 -2.83,-0.91 -0.34,-0.15 -0.97,-0.48 -1.4,-0.74 -0.42,-0.25 -1.08,-0.71 -1.46,-1.02 -0.37,-0.3 -0.96,-0.84 -1.31,-1.19 -0.34,-0.36 -0.85,-0.96 -1.13,-1.34 -0.28,-0.37 -0.64,-0.92 -0.8,-1.21 -0.17,-0.28 -0.31,-0.53 -0.33,-0.54 -0.02,-0.01 -0.3,0.07 -0.62,0.19 -0.33,0.11 -0.88,0.28 -1.24,0.37 -0.36,0.09 -0.98,0.21 -1.37,0.27 -0.48,0.07 -1.09,0.1 -1.86,0.11 -0.64,0 -1.42,-0.04 -1.74,-0.08 -0.33,-0.05 -0.92,-0.15 -1.31,-0.24 -0.39,-0.09 -1.03,-0.27 -1.43,-0.4 C 8.104087,104.75669 7.116421,104.27792 6.18,103.71 5.91,103.53 5.46,103.21 5.19,103 4.91,102.79 4.41,102.35 4.08,102.03 3.74,101.7 3.25,101.17 2.99,100.84 2.73,100.52 2.36,100.01 2.17,99.72 1.98,99.43 1.68,98.92 1.51,98.6 1.33,98.27 1.07,97.68 0.91,97.29 0.75,96.89 0.56,96.3 0.47,95.98 0.38,95.65 0.25,95.08 0.18,94.7 0.09,94.22 0.04,93.65 0.02,92.8 0,92.06 0.01,91.33 0.05,90.96 c 0.04,-0.35 0.13,-0.92 0.21,-1.28 0.07,-0.36 0.25,-1.03 0.4,-1.5 0.15,-0.46 0.45,-1.2 0.67,-1.65 0.22,-0.45 0.59,-1.11 0.83,-1.47 0.23,-0.36 0.6,-0.86 0.81,-1.12 0.2,-0.26 0.7,-0.79 1.11,-1.19 0.4,-0.4 1.02,-0.93 1.98,-1.65 L 5.95,80.64 C 5.89,80.38 5.81,79.89 5.77,79.54 5.73,79.19 5.72,78.64 5.74,78.27 c 0.02,-0.36 0.08,-0.9 0.14,-1.19 0.05,-0.29 0.18,-0.78 0.28,-1.09 0.1,-0.31 0.32,-0.84 0.49,-1.18 0.18,-0.35 0.5,-0.89 0.73,-1.22 0.23,-0.32 0.68,-0.86 1.01,-1.19 0.32,-0.33 0.87,-0.81 1.21,-1.06 0.34,-0.26 0.87,-0.6 1.17,-0.78 0.3,-0.17 0.54,-0.31 0.54,-0.31 0,0 -0.08,-0.24 -0.18,-0.53 -0.1,-0.29 -0.24,-0.78 -0.31,-1.09 -0.07,-0.31 -0.16,-0.87 -0.2,-1.25 -0.04,-0.4 -0.06,-0.95 -0.03,-1.34 0.02,-0.36 0.08,-0.86 0.13,-1.12 0.05,-0.26 0.16,-0.69 0.25,-0.97 0.09,-0.27 0.26,-0.71 0.38,-0.96 0.12,-0.26 0.4,-0.75 0.63,-1.09 0.24,-0.37 0.65,-0.87 1,-1.22 0.33,-0.34 0.85,-0.77 1.19,-0.99 0.32,-0.22 0.8,-0.5 1.05,-0.63 0.26,-0.13 0.66,-0.31 0.9,-0.4 0.24,-0.09 0.76,-0.24 1.15,-0.34 0.39,-0.1 0.91,-0.21 1.14,-0.24 0.34,-0.04 0.41,-0.07 0.38,-0.14 -0.03,-0.06 -0.14,-0.42 -0.26,-0.81 -0.11,-0.4 -0.26,-1.06 -0.33,-1.47 -0.06,-0.41 -0.13,-1.07 -0.15,-1.47 -0.03,-0.39 -0.01,-1.06 0.03,-1.49 0.03,-0.43 0.13,-1.13 0.22,-1.55 0.08,-0.42 0.25,-1.06 0.38,-1.43 0.12,-0.37 0.36,-0.98 0.54,-1.36 0.18,-0.37 0.48,-0.92 0.66,-1.21 0.18,-0.29 0.48,-0.74 0.68,-1 0.19,-0.25 0.58,-0.71 0.87,-1.02 0.29,-0.31 0.78,-0.76 1.09,-1.01 0.31,-0.25 0.81,-0.61 1.12,-0.81 0.31,-0.2 0.92,-0.54 1.37,-0.75 0.44,-0.22 1.13,-0.49 1.52,-0.62 0.39,-0.12 0.99,-0.28 1.33,-0.35 0.47,-0.1 0.95,-0.14 1.93,-0.16 0.9,-0.02 1.49,0 2.51,0.14 l 0.41,-0.6 c 0.22,-0.32 0.59,-0.83 0.82,-1.12 0.23,-0.29 0.78,-0.9 1.23,-1.34 0.44,-0.45 1.05,-1.01 1.34,-1.24 0.29,-0.23 0.86,-0.65 1.27,-0.92 0.41,-0.28 1.18,-0.72 1.71,-0.98 0.53,-0.27 1.24,-0.59 1.58,-0.71 0.34,-0.13 0.96,-0.33 1.37,-0.44 0.41,-0.12 1.08,-0.28 1.49,-0.35 0.41,-0.07 1,-0.16 1.31,-0.19 0.3,-0.02 0.99,-0.05 1.52,-0.06 m -28.33,98.45 c 0.49,0.01 1.28,0.07 1.74,0.12 0.46,0.05 1.13,0.15 1.49,0.22 0.36,0.06 0.99,0.21 1.4,0.31 0.41,0.1 1.05,0.29 1.42,0.41 0.38,0.12 1.08,0.37 1.56,0.56 0.48,0.19 1.34,0.57 1.92,0.86 0.58,0.29 1.37,0.7 1.74,0.92 0.38,0.22 1.09,0.65 1.59,0.96 0.49,0.31 1.28,0.77 1.74,1.04 0.46,0.26 1.41,0.75 2.11,1.09 0.7,0.35 1.73,0.81 2.3,1.03 0.56,0.22 1.43,0.54 1.92,0.69 0.5,0.16 1.34,0.4 1.87,0.54 0.53,0.13 1.27,0.3 1.64,0.36 0.38,0.07 0.98,0.17 1.34,0.22 0.36,0.05 1.04,0.13 1.52,0.17 0.54,0.04 1.54,0.06 2.64,0.04 1.09,-0.02 2.1,-0.07 2.61,-0.14 0.46,-0.05 1.22,-0.17 1.68,-0.25 0.46,-0.09 1.29,-0.27 1.83,-0.4 0.55,-0.14 1.44,-0.39 1.99,-0.57 0.55,-0.18 1.48,-0.52 2.08,-0.76 0.6,-0.24 1.62,-0.69 2.27,-1.01 0.65,-0.31 1.53,-0.77 1.96,-1.01 0.42,-0.24 1.4,-0.83 2.17,-1.3 0.77,-0.47 1.85,-1.09 2.39,-1.38 0.55,-0.28 1.4,-0.69 1.9,-0.9 0.49,-0.21 1.35,-0.53 1.89,-0.71 0.55,-0.19 1.35,-0.42 1.77,-0.53 0.43,-0.1 1.12,-0.24 1.53,-0.31 0.41,-0.07 0.99,-0.16 1.3,-0.19 0.31,-0.03 0.99,-0.08 1.52,-0.1 0.56,-0.02 1.35,-0.01 1.9,0.03 0.51,0.04 1.28,0.13 1.71,0.2 0.42,0.07 1.05,0.19 1.39,0.28 0.35,0.09 0.86,0.23 1.15,0.32 0.29,0.09 0.82,0.28 1.18,0.42 0.36,0.15 0.92,0.4 1.25,0.56 0.32,0.16 0.82,0.44 1.11,0.62 0.3,0.17 0.74,0.47 1,0.66 0.25,0.2 0.65,0.53 1.31,1.16 l -0.01,8.6 -0.38,-0.38 c -0.22,-0.21 -0.63,-0.58 -0.92,-0.83 -0.29,-0.25 -0.86,-0.68 -1.27,-0.96 -0.42,-0.27 -1.17,-0.7 -1.68,-0.95 -0.51,-0.25 -1.26,-0.56 -1.65,-0.7 -0.39,-0.14 -1.08,-0.33 -1.52,-0.44 -0.45,-0.11 -1.12,-0.24 -1.49,-0.29 -0.38,-0.06 -1.19,-0.13 -1.8,-0.16 -0.62,-0.04 -1.46,-0.05 -1.87,-0.03 -0.41,0.02 -1.11,0.08 -1.55,0.14 -0.45,0.05 -1.17,0.16 -1.62,0.24 -0.44,0.09 -1.17,0.25 -1.61,0.37 -0.45,0.12 -1.17,0.34 -1.62,0.49 -0.44,0.15 -1.07,0.38 -1.39,0.51 -0.33,0.13 -0.99,0.42 -1.46,0.65 -0.48,0.23 -1.45,0.75 -2.15,1.16 -0.7,0.4 -1.8,1.01 -2.45,1.34 -0.65,0.34 -1.57,0.79 -2.05,1 -0.48,0.21 -1.32,0.56 -1.87,0.78 -0.54,0.21 -1.42,0.53 -1.95,0.7 -0.53,0.17 -1.34,0.41 -1.81,0.53 -0.46,0.13 -1.24,0.31 -1.73,0.41 -0.5,0.1 -1.3,0.24 -1.78,0.31 -0.47,0.07 -1.24,0.16 -1.7,0.2 -0.47,0.04 -1.51,0.08 -2.33,0.08 -0.82,0 -1.84,-0.04 -2.27,-0.08 -0.43,-0.04 -1.14,-0.12 -1.59,-0.19 -1.169846,-0.18022 -2.328409,-0.42729 -3.47,-0.74 -0.48,-0.14 -1.29,-0.4 -1.81,-0.57 -0.51,-0.18 -1.4,-0.53 -1.98,-0.78 -0.59,-0.25 -1.68,-0.76 -2.43,-1.14 -0.75,-0.38 -1.97,-1.02 -2.7,-1.41 -0.73,-0.4 -1.77,-0.92 -2.3,-1.17 -0.53,-0.24 -1.4,-0.62 -1.92,-0.83 -0.53,-0.22 -1.49,-0.56 -2.12,-0.77 -0.63,-0.21 -1.61,-0.49 -2.17,-0.63 -0.57,-0.14 -1.38,-0.31 -1.8,-0.38 -0.43,-0.07 -1.14,-0.15 -1.59,-0.19 -0.58,-0.05 -1.16,-0.05 -2.08,0 -0.7,0.03 -1.57,0.11 -1.92,0.16 -0.36,0.06 -0.98,0.17 -1.37,0.26 -0.39,0.09 -1.05,0.27 -1.46,0.41 -0.41,0.14 -1,0.36 -1.31,0.5 -0.3,0.13 -0.78,0.36 -1.05,0.51 -0.28,0.15 -0.79,0.47 -1.15,0.71 -0.36,0.23 -0.84,0.58 -1.06,0.75 -0.22,0.18 -0.6,0.52 -0.84,0.76 -0.24,0.24 -0.45,0.41 -0.48,0.39 -0.03,-0.03 -0.05,-1.96 -0.05,-8.53 l 0.48,-0.41 c 0.27,-0.23 0.64,-0.52 0.83,-0.66 0.19,-0.14 0.53,-0.36 0.76,-0.51 0.8117449,-0.48065 1.6572988,-0.90175 2.53,-1.26 0.36,-0.14 0.99,-0.35 1.4,-0.47 0.41,-0.12 1.08,-0.29 1.49,-0.37 0.41,-0.08 0.98,-0.18 1.28,-0.22 0.987945,-0.12681 1.984518,-0.17363 2.98,-0.14 m 58.99,11.21 c 1.09,0.02 1.7,0.06 2.3,0.15 0.44,0.07 1.06,0.18 1.36,0.24 0.31,0.07 0.87,0.22 1.25,0.33 0.37,0.11 1,0.32 1.39,0.48 0.4,0.15 1.07,0.46 1.51,0.68 0.44,0.22 1.05,0.56 1.37,0.75 0.31,0.2 0.84,0.56 1.16,0.81 0.33,0.25 0.8,0.63 1.49,1.27 l 0.01,9.51 -1.05,-1.03 c -0.57,-0.57 -1.29,-1.24 -1.6,-1.5 -0.3,-0.26 -0.78,-0.64 -1.05,-0.85 -0.28,-0.21 -0.78,-0.56 -1.12,-0.78 -0.34,-0.23 -0.92,-0.57 -1.28,-0.76 -0.35,-0.19 -0.96,-0.47 -1.33,-0.62 -0.38,-0.16 -0.95,-0.35 -1.27,-0.44 -0.33,-0.09 -0.83,-0.21 -1.12,-0.26 -0.29,-0.06 -1.04,-0.12 -1.68,-0.14 -0.69,-0.02 -1.48,0 -1.99,0.05 -0.46,0.04 -1.24,0.14 -1.74,0.22 -0.49,0.09 -1.25,0.24 -1.68,0.34 -0.42,0.11 -1.09,0.29 -1.49,0.41 -0.39,0.13 -1.12,0.38 -1.61,0.57 -0.5,0.19 -1.29,0.53 -1.77,0.76 -0.48,0.23 -1.46,0.76 -2.18,1.17 -1.361682,0.80117 -2.759856,1.53863 -4.19,2.21 -0.46,0.21 -1.2,0.53 -1.65,0.71 -0.969106,0.39174 -1.953194,0.74535 -2.95,1.06 -0.39,0.13 -1.08,0.32 -1.52,0.44 -0.44,0.11 -1.23,0.29 -1.74,0.4 -0.51,0.1 -1.35,0.24 -1.86,0.31 -0.52,0.07 -1.41,0.16 -1.99,0.2 -0.65,0.04 -1.6,0.06 -2.46,0.03 -0.76,-0.02 -1.77,-0.08 -2.23,-0.13 -0.46,-0.05 -1.23,-0.16 -1.71,-0.25 -0.48,-0.08 -1.18,-0.22 -1.55,-0.31 -0.38,-0.09 -1.11,-0.29 -1.62,-0.44 -0.51,-0.15 -1.39,-0.45 -1.96,-0.66 -0.56,-0.21 -1.39,-0.54 -1.83,-0.74 -0.44,-0.2 -1.3,-0.61 -1.89,-0.91 -0.6,-0.3 -1.59,-0.82 -2.21,-1.15 -0.61,-0.33 -1.45,-0.78 -1.86,-0.98 -0.512391,-0.25927 -1.032637,-0.50272 -1.56,-0.73 -0.44,-0.2 -1.25,-0.54 -1.8,-0.75 -0.55,-0.22 -1.36,-0.51 -1.8,-0.66 -0.44,-0.14 -1.28,-0.38 -1.86,-0.53 -0.59,-0.15 -1.49,-0.34 -2.02,-0.44 -0.7,-0.12 -1.28,-0.17 -2.12,-0.2 -0.73,-0.02 -1.4,0 -1.86,0.05 -0.39,0.04 -1.02,0.15 -1.4,0.25 -0.37,0.09 -0.96,0.28 -1.3,0.4 -0.34,0.13 -0.97,0.41 -1.4,0.63 -0.43,0.22 -1.11,0.62 -1.52,0.89 -0.41,0.27 -1.03,0.71 -1.37,0.98 -0.34,0.27 -0.93,0.76 -1.3,1.09 -0.38,0.34 -0.98,0.91 -1.34,1.27 -0.36,0.36 -0.67,0.64 -0.7,0.63 -0.02,-0.02 -0.05,-2.13 -0.05,-9.35 l 0.54,-0.47 c 0.29,-0.26 0.76,-0.63 1.04,-0.83 0.28,-0.2 0.76,-0.52 1.07,-0.71 0.3,-0.2 1,-0.57 1.55,-0.84 0.56,-0.27 1.44,-0.63 2.02,-0.83 0.56,-0.19 1.34,-0.42 1.74,-0.5 0.503898,-0.11065 1.010758,-0.20735 1.52,-0.29 0.5,-0.08 1.3,-0.14 2.08,-0.16 0.78,-0.02 1.6,-0.01 2.11,0.04 0.46,0.04 1.23,0.14 1.71,0.22 0.48,0.08 1.17,0.22 1.52,0.31 0.36,0.09 1.05,0.3 1.53,0.45 0.47,0.16 1.2,0.43 1.61,0.6 0.41,0.17 1.28,0.58 1.93,0.91 0.65,0.33 1.72,0.94 2.39,1.36 0.67,0.41 1.59,0.96 2.05,1.22 0.46,0.26 1.38,0.74 2.05,1.07 0.67,0.32 1.63,0.75 2.14,0.96 0.52,0.21 1.37,0.52 1.9,0.7 0.53,0.17 1.45,0.44 2.05,0.59 0.6,0.15 1.5,0.34 2.02,0.43 0.51,0.09 1.32,0.21 1.8,0.26 0.48,0.05 1.44,0.11 2.14,0.13 0.76,0.02 1.68,0.01 2.27,-0.03 0.55,-0.04 1.34,-0.12 1.77,-0.17 0.43,-0.05 1.32,-0.2 1.99,-0.34 0.67,-0.13 1.6,-0.35 2.08,-0.49 0.48,-0.14 1.29,-0.39 1.8,-0.57 0.51,-0.17 1.31,-0.47 1.77,-0.67 0.46,-0.19 1.32,-0.57 1.9,-0.85 0.58,-0.28 1.47,-0.75 1.99,-1.03 0.51,-0.29 1.43,-0.84 2.05,-1.22 0.61,-0.38 1.44,-0.88 1.83,-1.09 0.39,-0.22 1.01,-0.54 1.37,-0.7 0.914069,-0.4384 1.856124,-0.81589 2.82,-1.13 0.38,-0.13 0.95,-0.3 1.28,-0.38 0.32,-0.09 0.85,-0.21 1.18,-0.28 0.32,-0.07 0.94,-0.16 1.36,-0.22 0.43,-0.05 0.89,-0.11 1.03,-0.12 0.14,-0.02 0.92,-0.02 1.74,-0.01"
     style="fill:#dd0000"
     id="path1"
     sodipodi:nodetypes="ccccsccccscccsssccccccccsscscsccccccccccccccccscccsscccccccccsscscccsscssccssccccccccccscccccccccccsccccccsccscccccscccsscscccscsccccccccccccccscccccscscsscscccccccccccccccccccccscccscccccssscccccccccccsccccccscscccccccccccccccccccsscccscccccccccccccccscccscscccsscscccscscccccccscsccccccsccccccccsccccscsccccsccccccssccccccsscccccccssscsccccccsccsccccsccccccccsccscccccsccccccccccccsscccccccscsccccccccccccccsscscccsscccsscccccccccccccccscscccscccccsccccccccscccccsccsccccccssccsccccccsscccccccccscsssccccccscsccccscccscscssccccccccscccccssccsccccssccccscccccccscsscccsccccccccscsccccssccccscccscccccssccccscccsccsscccccccsccccccccccccccccccscccccccccsccscsccccccccccccssscscccscccccscsccsscscccscsccscsccscccccccccc" />
</svg>
