<?xml version="1.0" encoding="UTF-8" standalone="no"?>
<svg
   xml:space="preserve"
   width="315"
   height="315"
   viewBox="0 0 700 700"
   version="1.1"
   id="svg14"
   sodipodi:docname="portsmouth.svg"
   inkscape:version="1.4.2 (f4327f4, 2025-05-13)"
   xmlns:inkscape="http://www.inkscape.org/namespaces/inkscape"
   xmlns:sodipodi="http://sodipodi.sourceforge.net/DTD/sodipodi-0.dtd"
   xmlns="http://www.w3.org/2000/svg"
   xmlns:svg="http://www.w3.org/2000/svg"><defs
     id="defs14" /><sodipodi:namedview
     id="namedview14"
     pagecolor="#ffffff"
     bordercolor="#000000"
     borderopacity="0.25"
     inkscape:showpageshadow="2"
     inkscape:pageopacity="0.0"
     inkscape:pagecheckerboard="0"
     inkscape:deskcolor="#d1d1d1"
     inkscape:zoom="2.5619048"
     inkscape:cx="157.5"
     inkscape:cy="157.5"
     inkscape:window-width="1920"
     inkscape:window-height="1009"
     inkscape:window-x="-8"
     inkscape:window-y="-8"
     inkscape:window-maximized="1"
     inkscape:current-layer="svg14" /><path
     d="M1367.722 321.63c-154.4 0-280.004 125.616-280.004 280.004 0 154.38 125.604 279.996 280.004 279.996 154.392 0 279.996-125.615 279.996-279.996 0-154.388-125.604-280.004-279.996-280.004"
     style="fill:#e4e1f3;fill-opacity:1;fill-rule:nonzero;stroke:none"
     transform="matrix(1.25 0 0 -1.25 -1359.648 1102.038)"
     id="path1" /><path
     d="M1367.722 869.398c-147.655 0-267.78-120.121-267.78-267.764 0-147.65 120.125-267.78 267.78-267.78 147.647 0 267.772 120.13 267.772 267.78 0 147.643-120.125 267.764-267.772 267.764"
     style="fill:#fff;fill-opacity:1;fill-rule:nonzero;stroke:none"
     transform="matrix(1.25 0 0 -1.25 -1359.648 1102.038)"
     id="path2" /><path
     d="M1367.722 860.469c-142.955 0-258.845-115.887-258.845-258.838s115.89-258.846 258.845-258.846 258.837 115.895 258.837 258.846-115.882 258.838-258.837 258.838"
     style="fill:#293f9c;fill-opacity:1;fill-rule:nonzero;stroke:none"
     transform="matrix(1.25 0 0 -1.25 -1359.648 1102.038)"
     id="path3" /><path
     d="M1367.722 414.954c-103.103 0-186.682 83.584-186.682 186.677s83.578 186.67 186.682 186.67c103.096 0 186.674-83.577 186.674-186.67s-83.578-186.677-186.674-186.677"
     style="fill:#fff;fill-opacity:1;fill-rule:nonzero;stroke:none"
     transform="matrix(1.25 0 0 -1.25 -1359.648 1102.038)"
     id="path4" /><path
     d="M1495.282 746.876c-.233-.203-26.848-25.131-59.234-25.131-22.928 0-46.86 12.217-68.131 38.584-21.28-26.367-45.204-38.584-68.131-38.584-32.387 0-59.002 24.928-59.234 25.13-21.19-30.616-33.931-79.588-33.931-117.033 0-46.409 14.93-89.205 44.394-127.204 24.307-31.367 68.738-65.926 116.902-92.098 48.149 26.172 92.58 60.731 116.894 92.098 29.47 38 44.401 80.795 44.401 127.204 0 37.445-12.741 86.417-33.93 117.034"
     style="fill:#e4e1f3;fill-opacity:1;fill-rule:nonzero;stroke:none"
     transform="matrix(1.25 0 0 -1.25 -1359.648 1102.038)"
     id="path5" /><path
     d="M1493.873 737.678s-64.316-57.23-125.971 13.619c-61.64-70.85-125.949-13.619-125.949-13.619-19.307-32.055-29.373-73.967-29.373-107.837 0-45.067 14.518-86.671 43.164-123.606 24.877-32.101 66.43-64.097 112.158-88.973 45.743 24.876 87.296 56.872 112.187 88.973 28.624 36.935 43.157 78.54 43.157 123.606 0 33.87-10.073 75.782-29.373 107.837"
     style="fill:#fcfeff;fill-opacity:1;fill-rule:nonzero;stroke:none"
     transform="matrix(1.25 0 0 -1.25 -1359.648 1102.038)"
     id="path6" /><path
     d="M1489.51 719.961s-61.82-44.632-121.698 14.608c-59.879-59.24-121.707-14.608-121.707-14.608-14.075-27.221-21.69-57.471-21.69-90.149 0-89.947 60.733-154.164 143.397-199.11 82.656 44.946 143.404 109.163 143.404 199.11 0 32.678-7.622 62.928-21.705 90.15"
     style="fill:#293f9c;fill-opacity:1;fill-rule:nonzero;stroke:none"
     transform="matrix(1.25 0 0 -1.25 -1359.648 1102.038)"
     id="path7" /><path
     d="M1484.286 662.49c.472-4.211.592-8.446.592-12.786 0-62.185-51.439-114.283-116.114-114.762-64.676.48-116.108 52.577-116.108 114.762 0 4.34.12 8.575.592 12.787-.157-1.087-2.346-16.204-2.346-31.157 0-62.867 53.92-121.41 118.131-122.565 64.211 1.155 117.6 59.698 117.6 122.565 0 14.953-2.19 30.07-2.347 31.157"
     style="fill:#fcfeff;fill-opacity:1;fill-rule:nonzero;stroke:none"
     transform="matrix(1.25 0 0 -1.25 -1359.648 1102.038)"
     id="path8" /><path
     d="M1368.764 560.493c-59.782 0-109.01 44.64-115.508 102.066a115 115 0 0 1-.727-12.921c0-63.513 52.039-115.01 116.235-115.01 64.203 0 116.737 51.445 116.242 115.01 0 4.37-.248 8.686-.727 12.92-6.499-57.425-55.734-102.065-115.515-102.065"
     style="fill:#e4e1f3;fill-opacity:1;fill-rule:nonzero;stroke:none"
     transform="matrix(1.25 0 0 -1.25 -1359.648 1102.038)"
     id="path9" /><path
     d="M1367.467 660.867c0 .007.01.015.01.015"
     style="fill:#fcfeff;fill-opacity:1;fill-rule:nonzero;stroke:none"
     transform="matrix(1.25 0 0 -1.25 -1359.648 1102.038)"
     id="path10" /><path
     d="m1346.848 653.216-11.738 24.771 23.76-12.786 8.994 40.023 7.96-39.806 25.011 12.517-12.846-24.614 45.6-8.491-45.63-8.597 12.809-23.984-24.78 11.977-8.109-41.492-8.994 41.297-23.685-11.73 11.198 23.932-44.176 8.567z"
     style="fill:#fff;fill-opacity:1;fill-rule:evenodd;stroke:none"
     transform="matrix(1.25 0 0 -1.25 -1359.648 1102.038)"
     id="path11" /><path
     d="m1367.512 644.702-8.634 20.499-23.73 12.809zM1367.654 644.71l.203 60.454 8.027-39.776zM1367.79 644.726l32.888 33.12-12.644-24.598zM1367.722 644.64l65.77.142-45.533-8.545zM1400.723 612.28l-33.054 32.333 8.275-20.356zM1367.617 644.522l-8.717-20.453 8.957-41.245zM1335.215 612.334l32.35 32.295-21.145-8.371zM1302.282 644.914l44.58 8.327 20.612-8.612z"
     style="fill:#e4e1f3;fill-opacity:1;fill-rule:evenodd;stroke:none"
     transform="matrix(1.25 0 0 -1.25 -1359.648 1102.038)"
     id="path12" /><path
     d="m1367.812 479.369-.082.007c-.075 0-.075-.007-.09-.007zM1367.797 490.629l-.075.007c-.075 0-.075-.007-.09-.007h.157z"
     style="fill:#fcfeff;fill-opacity:1;fill-rule:nonzero;stroke:none"
     transform="matrix(1.25 0 0 -1.25 -1359.648 1102.038)"
     id="path13" /><path
     d="m 1340.86,469.148 h -3.651 v 13.596 l 0.225,2.136 h -0.075 l -1.23,-1.656 -1.363,-1.365 -2.339,2.421 5.314,5.262 h 3.096 v -20.394 z m 12.636,17.296 c -3.425,0 -4.28,-1.484 -4.28,-2.488 0,-0.937 1.11,-2.571 4.227,-2.571 3.148,0 4.28,1.634 4.28,2.57 0,1.005 -0.832,2.49 -4.227,2.49 m -0.075,-8.11 c -3.298,0 -4.954,-1.634 -4.954,-3.118 0,-1.132 1.356,-2.998 4.976,-2.998 3.605,0 4.992,1.866 4.992,2.998 0,1.484 -1.686,3.118 -5.014,3.118 m 0,-9.437 c -5.786,0 -8.71,3.193 -8.71,6.266 0,2.219 1.537,3.875 3.65,4.857 v 0.052 c -1.483,0.608 -2.915,2.017 -2.915,4.033 0,2.968 2.369,5.688 7.93,5.688 5.539,0 8.057,-2.698 8.057,-5.688 0,-1.941 -1.536,-3.328 -3.073,-4.033 v -0.052 c 2.016,-0.6 3.778,-2.488 3.778,-4.857 0,-3.073 -2.923,-6.266 -8.717,-6.266 m 20.012,17.572 c -3.095,0 -4.782,-2.038 -4.812,-3.8 0,-1.686 1.364,-3.83 4.632,-3.83 3.148,0 4.79,2.144 4.812,3.875 0,1.694 -1.41,3.755 -4.632,3.755 m -0.18,-17.598 c -3.17,0 -5.411,0.855 -7.6,3.17 l 2.616,2.616 c 1.461,-1.784 2.998,-2.466 4.984,-2.466 2.87,0 4.76,1.994 5.24,5.24 h -0.076 c -1.184,-1.057 -3.193,-1.89 -5.231,-1.89 -5.494,0 -8.335,3.373 -8.26,7.15 0.075,3.553 2.743,7.099 8.507,7.099 5.944,0 8.942,-4.325 8.837,-10.343 -0.12,-6.574 -3.8,-10.576 -9.04,-10.576 m 20.567,17.572 c -3.425,0 -4.28,-1.484 -4.28,-2.488 0,-0.937 1.11,-2.571 4.228,-2.571 3.148,0 4.28,1.634 4.28,2.57 0,1.005 -0.832,2.49 -4.228,2.49 m -0.075,-8.11 c -3.298,0 -4.954,-1.634 -4.954,-3.118 0,-1.132 1.357,-2.998 4.984,-2.998 3.598,0 4.985,1.866 4.985,2.998 0,1.484 -1.687,3.118 -5.015,3.118 m 0,-9.437 c -5.793,0 -8.716,3.193 -8.716,6.266 0,2.219 1.536,3.875 3.657,4.857 v 0.052 c -1.491,0.608 -2.923,2.017 -2.923,4.033 0,2.968 2.369,5.688 7.93,5.688 5.539,0 8.057,-2.698 8.057,-5.688 0,-1.941 -1.536,-3.328 -3.073,-4.033 v -0.052 c 2.016,-0.6 3.778,-2.488 3.778,-4.857 0,-3.073 -2.923,-6.266 -8.71,-6.266"
     style="fill:#ffffff;fill-opacity:1;fill-rule:nonzero;stroke:none"
     transform="matrix(1.25,0,0,-1.25,-1359.648,1102.038)"
     id="path14"
     sodipodi:nodetypes="cccccccccccccsssccsssccsccsssccscccscccccsccscscccsssccsssccsccsssccsc" /></svg>
