<?xml version="1.0" encoding="UTF-8" standalone="no"?>
<svg
   viewBox="0.1 0.1 85.04 85.04"
   version="1.1"
   id="svg4"
   sodipodi:docname="queens-park-rangers.svg"
   inkscape:version="1.4.2 (f4327f4, 2025-05-13)"
   xmlns:inkscape="http://www.inkscape.org/namespaces/inkscape"
   xmlns:sodipodi="http://sodipodi.sourceforge.net/DTD/sodipodi-0.dtd"
   xmlns="http://www.w3.org/2000/svg"
   xmlns:svg="http://www.w3.org/2000/svg">
  <defs
     id="defs4" />
  <sodipodi:namedview
     id="namedview4"
     pagecolor="#ffffff"
     bordercolor="#000000"
     borderopacity="0.25"
     inkscape:showpageshadow="2"
     inkscape:pageopacity="0.0"
     inkscape:pagecheckerboard="0"
     inkscape:deskcolor="#d1d1d1"
     inkscape:zoom="9.4896518"
     inkscape:cx="42.52"
     inkscape:cy="42.52"
     inkscape:window-width="1920"
     inkscape:window-height="1009"
     inkscape:window-x="-8"
     inkscape:window-y="-8"
     inkscape:window-maximized="1"
     inkscape:current-layer="g4" />
  <path
     fill="#fff"
     d="M85.143 42.621a42.52 42.52 0 0 1-42.522 42.522A42.52 42.52 0 0 1 .1 42.621 42.52 42.52 0 0 1 42.622.1a42.52 42.52 0 0 1 42.521 42.521"
     id="path1" />
  <g
     fill="#1d5ba4"
     id="g4">
    <path
       d="M42.621 1.65c-10.944 0-21.232 4.263-28.971 12-7.737 7.74-12 18.027-12 28.971s4.263 21.232 12 28.971c7.739 7.74 18.027 12 28.971 12s21.232-4.26 28.971-12c7.738-7.738 12-18.027 12-28.97s-4.262-21.233-12-28.972c-7.739-7.737-18.027-12-28.971-12m0 1.729c21.639 0 39.242 17.603 39.242 39.242S64.26 81.865 42.621 81.865 3.379 64.26 3.379 42.62 20.982 3.379 42.621 3.379"
       id="path2" />
    <path
       d="M48.202 30.279v-1.275h-4.016s1.002 1.135 1.002 3.286v11.206a8.6 8.6 0 0 1-1.377.111c-.11 0-.219-.005-.329-.007a14 14 0 0 0 .24-2.604c0-4.989-2.374-8.014-4.366-9.674a13.4 13.4 0 0 0-2.579-1.678l.003-2.947c1.103-1.078 3.32-2.675 6.825-2.675 3.352 0 6.382 1.885 7.88 4.955a14.9 14.9 0 0 0-3.283 1.302m24.028 27.64a1.5 1.5 0 0 0-.542-.106c-.22-.002-.41.048-.41.048l.135.099c.28.205 1.16 1.023.706 2.96-.3 1.27-1.934 3.632-6.031 3.643h-.002q-.385 0-.787-.033a10.3 10.3 0 0 1-2.394-.497q.29-.273.574-.556a30 30 0 0 0 1.62-1.756 6.1 6.1 0 0 1-1.58-.333 28 28 0 0 1-2.071 2.077c-1.454-.66-3.063-1.638-4.614-2.637-.621-.4-1.676-1.107-2.238-1.46-1.963-1.238-3.935-2.397-6.378-3.256V52.03c3.92.918 7.686 3.65 9.452 4.917.219.156.456.334.71.523 1.661 1.238 4.751 3.455 7.846 3.455 3.995 0 4.173-2.597 4.153-2.752 0 0-.073.087-.146.16-.225.217-.804.73-2.19.682a3.2 3.2 0 0 1-.806-.132c3.175-4.782 4.88-10.39 4.88-16.262 0-16.264-13.23-29.495-29.495-29.495S13.127 26.357 13.127 42.621s13.231 29.495 29.495 29.495c6.194 0 12.096-1.896 17.044-5.415a14 14 0 0 1-1.577-.63 27.94 27.94 0 0 1-15.466 4.652c-15.495 0-28.101-12.606-28.101-28.101S27.128 14.52 42.623 14.52s28.101 12.606 28.101 28.1a27.94 27.94 0 0 1-4.84 15.747c-1.106-.512-2.504-1.365-3.979-2.27a46 46 0 0 1-.762-.483c-2.18-1.415-3.785-2.274-5.067-2.714a5 5 0 0 0-.628-.165v-.098c6.817-.12 12.199-5.295 12.199-12.264 0-7.03-5.46-11.856-12.392-11.856q-.247 0-.487.007c-1.936-3.997-6.12-6.48-11.134-6.48-2.612 0-4.938.658-6.865 1.639v-1.226h-4.017s.991.906.991 3.057l-.002 3.024a13.6 13.6 0 0 0-3.148-.379c-3.19 0-6.389 1.154-8.774 3.164-1.96 1.651-4.296 4.67-4.296 9.673 0 4.962 2.41 7.976 4.433 9.63 1.652 1.353 3.719 2.328 5.85 2.802.295-.54.553-1.129.672-1.621a7 7 0 0 1-.914-.268c-1.133-.447-1.802-1.294-1.802-2.305 0-1.489 1.075-2.019 1.801-2.019 1.021 0 2.089.685 2.13 2.68.111 5.26-5.665 8.868-6.186 9.184q.775.897 1.629 1.72l.481-.258c1.964-1.073 6.531-3.65 13.112-3.608 2.064.014 3.916.31 5.583.766v-2.556a27 27 0 0 0-3.907-.294c-5.517-.035-10.049 1.627-12.83 3.064l-.037-.054c.728-.658 2.161-2.203 3.139-4.108.331 0 .722-.017 1.057-.044.128-.116.258-.265.373-.418.159-.213.505-.747.63-1.46q-.662.151-1.36.204c.18-.601.295-1.22.314-1.844.047-1.638-.367-3.015-1.2-3.87-.712-.735-1.705-1.122-2.87-1.122-1.522 0-3.432 1.022-3.557 3.284-.01.203.027.657.104.847l-.072.038c-2.038-2.01-3.287-4.99-3.287-8.431 0-6.26 4.237-10.98 9.855-10.98 5.66 0 9.77 4.617 9.77 10.98q-.002 1.086-.16 2.106a10.5 10.5 0 0 1-3.49-1.99v-7.524a8.2 8.2 0 0 0-3.037-2.051v19.269c0 1.95-.995 3.096-.995 3.097h4.875s-.446-.556-.695-1.662a13.5 13.5 0 0 0 2.379-1.553 12 12 0 0 0 3.265-4.185 17.5 17.5 0 0 1-3.132-.467c-.633 1.49-1.547 2.776-2.675 3.775v-5.684a16.4 16.4 0 0 0 6.866 1.477c2.153 0 3.512-.4 4.596-.787 4.393-1.564 7.692-5.711 7.692-11.02q-.002-1.116-.18-2.153c-1.064-.065-2.646.155-3.339.375q.136.87.137 1.809c0 3.872-1.722 6.955-4.31 8.58v-9.216c1.98-1.545 3.878-2.556 7.126-2.556 4.932 0 8.852 4.015 8.852 9.86 0 5.865-4 10.2-9.265 10.2-2.658 0-4.717-.716-6.713-1.917v-2.984a14.3 14.3 0 0 1-3.027.655v11.312c0 1.952-1.002 3.098-1.002 3.098h4.992s-.577-.589-.788-1.551c1.308.576 2.996 1.619 4.133 2.355.518.333.974.653 1.414.937 3.388 2.194 6.489 4.138 11.04 4.138 2.998 0 4.899-.942 6.095-1.828 1.384-1.025 2.193-2.434 2.386-3.686.383-2.471-.968-3.135-1.243-3.245M44.425 74.669q.132-.296.499-.321a.5.5 0 0 1 .487.245q.17.267.201.716.033.489-.132.775-.164.286-.459.305-.235.017-.447-.211-.214-.227-.245-.7-.036-.515.096-.809m1.284 4.275q-.195.328-.473.348-.317.02-.536-.287-.218-.309-.261-.953-.047-.694.124-1 .172-.306.482-.328.317-.022.543.266.223.288.268.949.047.676-.147 1.005m1.21-1.712a1.328 1.328 0 0 0-.666-.644 1.4 1.4 0 0 0-.398-.108l-.004-.057q.186-.053.35-.163a1.1 1.1 0 0 0 .457-.637q.06-.21.04-.47-.016-.254-.138-.474a.9.9 0 0 0-.349-.377 1.7 1.7 0 0 0-.565-.237 2.6 2.6 0 0 0-.777-.05q-.376.027-.684.133c-.308.106-.381.17-.529.295a1.2 1.2 0 0 0-.335.444 1.2 1.2 0 0 0-.09.576q.014.22.104.406t.228.325.315.229c.179.09.24.096.367.11l.004.056a1.5 1.5 0 0 0-.413.196 1.3 1.3 0 0 0-.335.327 1.5 1.5 0 0 0-.213.452 1.6 1.6 0 0 0-.055.586q.028.4.19.692.164.292.43.475c.266.183.383.205.62.248q.352.066.76.038.416-.029.768-.15.352-.122.594-.356t.368-.565q.124-.333.095-.757a1.4 1.4 0 0 0-.14-.543m-13.747-4.067a21 21 0 0 1-1.295.123q.054.075.131.237.076.164.129.305a5 5 0 0 0 .276-.042l.301-.058q.15-.03.275-.052c.125-.022.147-.026.188-.031l-.641 2.215q-.096.33-.202.647c-.106.317-.136.414-.2.603s-.122.36-.178.513l-.13.355q.162.03.316.074l.31.09.306.089q.15.044.301.104.145-.58.259-1.023c.114-.443.156-.581.236-.86l.173-.596.14-.479q.086-.298.185-.61c.099-.312.132-.412.199-.615l.196-.586q.093-.283.179-.514l-.132-.106q-.703.137-1.322.217m20.186 4.377a3 3 0 0 1-.054-.262l-.046-.262q-.56.185-1.109.335l-1.116.302-.013-.013q.54-.763.865-1.32.327-.555.487-.972c.16-.417.166-.517.182-.721q.022-.306-.044-.568a1.5 1.5 0 0 0-.203-.45 1.16 1.16 0 0 0-.407-.367 1.6 1.6 0 0 0-.655-.183q-.392-.034-.938.105-.698.179-1.027.574-.33.397-.362.861l.374.17q.18.086.378.195l.073-.045a2.4 2.4 0 0 1-.06-.363 1.4 1.4 0 0 1 .024-.408.9.9 0 0 1 .156-.36.58.58 0 0 1 .336-.217q.151-.037.309-.015c.158.022.207.057.307.127q.15.106.272.306.123.202.206.525.1.389.08.808a3.4 3.4 0 0 1-.181.906 7 7 0 0 1-.47 1.069q-.307.583-.774 1.291l.085.334q.423-.127.851-.235l.855-.219.888-.227q.435-.111.89-.212-.035-.109-.08-.232a2 2 0 0 1-.08-.258m-13.898-2.263q-.058.487-.273.737-.214.251-.506.216-.235-.027-.402-.29c-.167-.263-.15-.42-.112-.733q.06-.512.244-.778c.184-.266.306-.252.55-.224a.5.5 0 0 1 .434.332q.118.293.065.74m-.244 2.63q-.08.673-.331.96c-.251.288-.344.277-.528.255q-.318-.037-.475-.38-.155-.345-.08-.985.08-.69.305-.96c.225-.27.33-.258.534-.234q.317.037.485.361.166.324.09.983m1.019-3.51q-.196-.197-.513-.337c-.317-.14-.463-.157-.755-.192q-.373-.044-.696.005c-.323.049-.406.096-.574.191q-.252.144-.41.376c-.159.232-.172.338-.197.55q-.027.218.029.418a1.2 1.2 0 0 0 .43.644q.159.121.342.176l-.007.056q-.225.023-.442.118c-.217.095-.273.148-.388.258s-.213.245-.295.405a1.7 1.7 0 0 0-.162.567q-.045.397.06.715.108.315.335.545c.227.23.34.272.564.358q.334.13.74.178.413.048.783-.006a1.511 1.511 0 0 0 1.115-.729q.183-.305.233-.726.036-.308-.037-.56c-.073-.252-.119-.314-.211-.44s-.202-.232-.325-.315a1.4 1.4 0 0 0-.37-.179l.006-.058q.19-.016.374-.095.181-.077.325-.213.144-.135.24-.329.098-.194.128-.455.03-.252-.048-.491a1.1 1.1 0 0 0-.274-.435"
       id="path3" />
  </g>
</svg>
