<?xml version="1.0" encoding="UTF-8" standalone="no"?>
<svg
   width="292.119"
   height="342.327"
   viewBox="0 0 278.16 326.02"
   version="1.1"
   id="svg8"
   sodipodi:docname="stoke-city.svg"
   inkscape:version="1.4.2 (f4327f4, 2025-05-13)"
   xmlns:inkscape="http://www.inkscape.org/namespaces/inkscape"
   xmlns:sodipodi="http://sodipodi.sourceforge.net/DTD/sodipodi-0.dtd"
   xmlns="http://www.w3.org/2000/svg"
   xmlns:svg="http://www.w3.org/2000/svg">
  <defs
     id="defs8" />
  <sodipodi:namedview
     id="namedview8"
     pagecolor="#ffffff"
     bordercolor="#000000"
     borderopacity="0.25"
     inkscape:showpageshadow="2"
     inkscape:pageopacity="0.0"
     inkscape:pagecheckerboard="0"
     inkscape:deskcolor="#d1d1d1"
     inkscape:zoom="2.3573952"
     inkscape:cx="146.13587"
     inkscape:cy="171.1635"
     inkscape:window-width="1920"
     inkscape:window-height="1009"
     inkscape:window-x="-8"
     inkscape:window-y="-8"
     inkscape:window-maximized="1"
     inkscape:current-layer="g8" />
  <path
     fill="#fff"
     fill-rule="evenodd"
     d="m273.37 222.77-.1-.1-13.44-11.76-2.86-2.61c-2.71-2.72-6.89-6.04-14.07-5.8-1.19-.02-2.37.1-3.53.32 1.23-5.7 2.15-11.73 2.71-18.08.39-4.4.59-8.76.61-12.97v-1.67l-.09-3.44v.29L242.61.01H35.39v166.94l-.08 3.15v1.67c.03 4.21.23 8.57.62 12.97.56 6.34 1.48 12.36 2.7 18.05-1.12-.2-2.24-.31-3.37-.29-7.18-.23-11.36 3.09-14.07 5.8l-2.86 2.61-13.44 11.76-.1.1C.15 227.4-.3 231.91.13 234.88c1.23 8.44 11.96 14.69 13.04 15.27l6.29-4.94c4.44-1.73 7.02.71 7.02.71.44.26 1.94 1.48 2.87 6.41l.54 2.85c-3.49 3.02-5.98 5.17-5.98 5.17l2.12 3.09c6.19 9.02 8.57 11.81 12.6 16.34 26.87 30.25 61.47 46.24 100.06 46.24h.62c38.59 0 73.19-15.99 100.06-46.24 4.02-4.52 6.41-7.31 12.6-16.34l2.12-3.09s-2.41-2.09-5.83-5.05l.56-2.97c.93-4.93 2.43-6.15 2.86-6.41 0 0 2.57-2.43 7.02-.71l6.3 4.94c1.08-.58 11.81-6.82 13.04-15.27.43-2.97-.03-7.48-4.67-12.11M139 276.22h-.31c-58.59 0-81.71-59.02-81.71-59.02-9.73-22.88-8.27-50.11-8.27-50.11V13.32H229.3v153.77s1.46 27.23-8.26 50.11c0 0-23.45 59.02-82.03 59.02z"
     id="path1" />
  <path
     fill="#fff"
     fill-rule="evenodd"
     d="M221.03 217.2s-23.45 59.02-82.03 59.02h-.31c-58.59 0-81.71-59.02-81.71-59.02-9.73-22.88-8.27-50.11-8.27-50.11V13.32H229.3v153.77s1.46 27.23-8.26 50.11z"
     id="path2" />
  <path
     fill="#212c55"
     fill-rule="evenodd"
     d="M257.21 213.24s6.81 14.56-13.82 16.09l21.26 16.65s17.05-9.96 6.32-20.66l-13.76-12.09zM20.79 213.4s-6.81 14.56 13.82 16.09l-21.26 16.65s-17.04-9.96-6.32-20.66l13.75-12.09z"
     id="path3" />
  <path
     fill="#212c55"
     fill-rule="evenodd"
     d="m 220.71,237.02 c 5.4,-8.44 8.17,-14.95 8.7,-16.24 4.41,-10.37 7.26,-22.62 8.48,-36.41 0.37,-4.25 0.57,-8.5 0.59,-12.61 v -1.66 c 0,-1.19 -0.02,-2.23 -0.08,-3.15 V 4.2 H 39.59 v 162.74 c -0.07,0.92 -0.08,1.96 -0.08,3.15 v 1.66 c 0.02,4.12 0.23,8.37 0.6,12.61 1.21,13.72 4.04,25.91 8.4,36.25 0.35,0.87 3.11,7.62 8.72,16.45 l -27.73,24 c 6.15,9.01 8.46,11.65 12.27,15.93 26.04,29.32 59.56,44.83 96.91,44.83 h 0.62 c 37.36,0 70.87,-15.5 96.91,-44.83 3.81,-4.28 6.11,-6.92 12.27,-15.93 L 220.7,237.02 Z M 56.97,217.21 C 47.24,194.33 48.7,167.1 48.7,167.1 V 13.32 h 180.59 v 153.77 c 0,0 1.46,27.23 -8.26,50.11 0,0 -23.45,59.02 -82.03,59.02 h -0.31 C 80.1,276.22 56.98,217.2 56.98,217.2 Z"
     id="path4"
     sodipodi:nodetypes="ccccsccccsccccccssccccccccccsscc" />
  <path
     fill="#212c55"
     d="M134.99 253.71c-.66-1.35-1.83-3.05-3.7-3.57v-.08c2.61-.87 4.04-3.02 4.04-6.06 0-4.36-2.64-6.76-7.45-6.76s-7.96 2.59-7.96 6.76c0 3.04 1.48 5.23 4.08 6.02v.12c-3.28.91-5.02 3.58-5.02 7.71 0 4.76 2.58 7.29 8.63 8.46.8.16 1.56.23 2.28.23 1.71 0 3.13-.45 4.19-1.32 1.45-1.19 2.21-3.19 2.21-5.76 0-1.96-.48-4.06-1.31-5.77zm-7.34-14.04c1.86 0 2.61 1.37 2.61 4.72 0 3.14-.86 4.67-2.61 4.67s-2.65-1.53-2.65-4.67.89-4.72 2.65-4.72m0 24.01c-1.97 0-2.82-1.82-2.82-6.07s.92-6.11 2.82-6.11 2.83 2 2.83 6.11c0 2.77-.49 6.07-2.83 6.07M149.31 248.78c-1.93 0-3.62.73-4.61 1.97.03-4.9.83-10.62 4.47-10.62 1.42 0 2.52.76 3.57 2.46l.05.09.37-.16v-.07c.07-1.18.22-2.44.48-4.1v-.09l-.07-.04c-1.41-.65-4.34-1.01-5.84-1.01-6.16 0-9.28 6.24-9.28 18.54 0 4.8 1.06 8.14 3.14 9.93 1.13.96 2.54 1.45 4.22 1.45.5 0 1.02-.04 1.56-.13 5.7-.9 8.47-4.18 8.47-10.04 0-5.04-2.5-8.17-6.51-8.17zm-1.97 15.73c-1.71 0-2.58-2.22-2.58-6.6 0-3.91.82-5.82 2.51-5.82.92 0 1.54.45 1.94 1.42.4.96.6 2.45.6 4.57 0 4.26-.84 6.42-2.48 6.42zM171.59 258.74c-2.54 3.69-7.52 5.73-14.81 6.06h-.23l.15-.16c.01-.02 1.35-1.55 1.82-5.26v-.06l.72-.25.04.07c.9 1.69 3.24 1.86 3.27 1.86 1.07-.04 1.97-.46 2.67-1.24 1.99-2.23 1.68-6.75 1.68-6.79-.51-3.79-3.22-3.54-5.63-3.31l-.39.03c-.42.03-.99.09-1.35.15l-.12.02.1-3.19h.13c.24 0 .51.02.78 0 3.04-.28 4.46-1.32 4.89-3.6.19-.97.13-2.3-.57-3.12-.46-.55-1.16-.81-2.06-.79-2.37.06-3.13 1.43-3.81 2.63-.17.31-.34.6-.52.85l-.05.07-.48-.26-.34-3.61.03-.03c1.59-1.9 5.49-2.19 5.66-2.19 1.99-.18 3.87.26 5.29 1.24 1.4.97 2.26 2.39 2.41 4.01.22 2.33-.55 3.36-3.55 4.78v.07c3.18-.16 4.69.77 5.56 3.4.7 2.11.79 5.63-1.27 8.62zM116.45 263.38l-.17-.06c-2.79-1.05-7.04-3.32-7.08-3.35l-.06-.03v-.07c.25-2.3.75-7.08.75-15.2 0-.59-.03-1.06-.07-1.67-.02-.28-.04-.6-.06-.97-.47.19-.69.24-.85.28-.24.05-.37.08-1.15.54l-.08.05-1.61-2.47.13-.04a71 71 0 0 1 2.56-.8c2.03-.61 3.49-1.06 6.05-2.43l.05-.03.8.44v.06c-.08 5.64-.06 9.36-.05 11.81v1.84c0 3.27.46 8.61.66 10.75.06.61.16 1.18.16 1.18l.03.18z"
     id="path5" />
  <g
     fill="#d1152f"
     id="g8">
    <path
       fill-rule="evenodd"
       d="M252.95 222.7c3.77-3.96.15-10.64.15-10.64s-3.27-6.13-9.86-5.83c-1.61-.04-3.25.25-4.87.79-1.36 5.36-3.01 10.42-4.99 15.11h.01c-.28.7-2.59 6.34-7.23 14.06.55.48 1.41 1.22 2.48 2.15l15.98 13.79c1.98-13.54 9.57-10.23 9.57-10.23l-17.92-14.28c13.64-.52 16.68-4.93 16.68-4.93zM25.05 222.86c-3.77-3.96-.15-10.64-.15-10.64s3.27-6.13 9.86-5.83c1.61-.04 3.25.25 4.87.79 1.36 5.36 3.01 10.42 4.99 15.11h-.01c.27.7 2.59 6.35 7.23 14.06-.55.48-1.41 1.22-2.48 2.15l-15.97 13.8c-1.98-13.54-9.57-10.23-9.57-10.23l17.92-14.28c-13.64-.52-16.68-4.93-16.68-4.93z"
       id="path6" />
    <path
       d="M122.25 100.73h33.33v130.3h-33.33z"
       id="path7" />
    <path
       fill-rule="evenodd"
       d="m 223.6,53.69 c 0,0 -3.65,1.34 0,-0.01 z m -41.62,15.44 c -1.37873,1.21291 0.01,0.01 0.01,0.01 z M 90.62,248.6 c -2.664823,-2.35674 -5.189156,-4.86772 -7.56,-7.52 -12.03,-13.38 -17.55,-27.1 -17.6,-27.23 l -0.05,-0.12 -0.04,-0.1 c -6.86,-16.14 -7.62,-35.15 -7.62,-42.72 0,-2.08 0.06,-3.29 0.06,-3.35 V 68.65 h 32.72 l 0.08,179.95 z m 129.63,-77.68 c 0,7.57 -0.75,26.58 -7.62,42.72 l -0.04,0.1 -0.05,0.12 c -0.05,0.13 -5.58,13.85 -17.6,27.23 -2.37249,2.65072 -4.89673,5.1616 -7.56,7.52 l 0.09,-179.95 h 32.71 v 98.91 c 0.02,0.06 0.07,1.27 0.07,3.35"
       id="path8"
       sodipodi:nodetypes="cccccccccccsscccccccccccccc" />
  </g>
</svg>
