<?xml version="1.0" encoding="UTF-8" standalone="no"?>
<svg
   width="2000"
   height="1893.893"
   version="1.1"
   id="svg19"
   sodipodi:docname="swansea-city.svg"
   inkscape:version="1.4.2 (f4327f4, 2025-05-13)"
   xmlns:inkscape="http://www.inkscape.org/namespaces/inkscape"
   xmlns:sodipodi="http://sodipodi.sourceforge.net/DTD/sodipodi-0.dtd"
   xmlns="http://www.w3.org/2000/svg"
   xmlns:svg="http://www.w3.org/2000/svg">
  <sodipodi:namedview
     id="namedview19"
     pagecolor="#ffffff"
     bordercolor="#000000"
     borderopacity="0.25"
     inkscape:showpageshadow="2"
     inkscape:pageopacity="0.0"
     inkscape:pagecheckerboard="0"
     inkscape:deskcolor="#d1d1d1"
     inkscape:zoom="0.42610645"
     inkscape:cx="1000.9236"
     inkscape:cy="946.94647"
     inkscape:window-width="1920"
     inkscape:window-height="1009"
     inkscape:window-x="-8"
     inkscape:window-y="-8"
     inkscape:window-maximized="1"
     inkscape:current-layer="g19" />
  <defs
     id="defs1">
    <clipPath
       id="a"
       clipPathUnits="userSpaceOnUse">
      <path
         d="M0 1420.424h1500V0H0Z"
         id="path1" />
    </clipPath>
  </defs>
  <g
     clip-path="url(#a)"
     transform="matrix(1.33333 0 0 -1.33333 0 1893.893)"
     id="g19">
    <path
       d="M0 0s-125.463 71.791-252.934 18.112C-380.412-35.559-479.71-204.631-551.502-250.249c-69.774-44.285-133.505-36.233-133.505-36.233s171.747-78.501 285.14-12.746c132.172 76.485 152.293 164.372 246.223 232.137C-55.688 2.684 0 0 0 0"
       style="fill:#2e2a25;fill-opacity:1;fill-rule:nonzero;stroke:none"
       transform="translate(1210.763 657.237)"
       id="path2" />
    <path
       d="M0 0s-125.462 71.791-252.934 18.112C-380.413-35.559-479.71-204.63-551.493-250.25c-69.783-44.285-133.514-36.233-133.514-36.233s165.713-84.536 279.097-18.787c132.172 76.484 158.337 170.414 251.599 238.18C-55.688 2.684 0 0 0 0"
       style="fill:#2e2a25;fill-opacity:1;fill-rule:nonzero;stroke:none"
       transform="translate(1014.854 770.623)"
       id="path3" />
    <path
       d="M0 0s-125.462 71.792-252.933 18.113c-127.48-53.671-226.777-222.743-298.56-268.37-69.783-44.277-133.514-36.225-133.514-36.225s165.713-84.536 279.097-18.788c132.172 76.484 158.336 170.414 251.599 238.18C-56.354 2.684 0 0 0 0"
       style="fill:#2e2a25;fill-opacity:1;fill-rule:nonzero;stroke:none"
       transform="translate(818.945 884.008)"
       id="path4" />
    <path
       d="M0 0c-88.563 48.978-136.865 74.476-207.981 112.042-46.294 26.84-69.783 37.576-99.298 77.16-35.558 65.073-8.052 118.077-8.052 118.077C-238.18 455.554 49.652 203.963 49.652 203.963c25.49-15.437 28.849-3.359 17.438 20.797-15.429 32.199-30.858 57.697-30.858 57.697 59.706 75.817-50.994 114.726-50.994 114.726-294.534 109.358-375.711-34.217-375.711-34.217-30.191-35.558-53.679-130.154-20.13-209.322 48.978-114.06 175.783-185.852 358.274-275.08C240.863-264.344 2.684-467.632 2.684-467.632c168.405 71.116 203.288 161.695 195.911 238.846C185.843-91.246 0 0 0 0"
       style="fill:#2e2a25;fill-opacity:1;fill-rule:nonzero;stroke:none"
       transform="translate(1170.506 978.608)"
       id="path5" />
  </g>
</svg>
