<?xml version="1.0" encoding="UTF-8" standalone="no"?>
<svg
   width="114.63"
   height="235.942"
   version="1.1"
   id="svg1"
   sodipodi:docname="tottenham.svg"
   inkscape:version="1.4.2 (f4327f4, 2025-05-13)"
   xmlns:inkscape="http://www.inkscape.org/namespaces/inkscape"
   xmlns:sodipodi="http://sodipodi.sourceforge.net/DTD/sodipodi-0.dtd"
   xmlns="http://www.w3.org/2000/svg"
   xmlns:svg="http://www.w3.org/2000/svg">
  <defs
     id="defs1" />
  <sodipodi:namedview
     id="namedview1"
     pagecolor="#ffffff"
     bordercolor="#000000"
     borderopacity="0.25"
     inkscape:showpageshadow="2"
     inkscape:pageopacity="0.0"
     inkscape:pagecheckerboard="0"
     inkscape:deskcolor="#d1d1d1"
     inkscape:zoom="3.4203321"
     inkscape:cx="57.450562"
     inkscape:cy="109.19992"
     inkscape:window-width="1920"
     inkscape:window-height="1009"
     inkscape:window-x="-8"
     inkscape:window-y="-8"
     inkscape:window-maximized="1"
     inkscape:current-layer="svg1" />
  <path
     fill="#132257"
     d="m 34.17,148.305 c -0.762665,-0.11113 -1.526473,0.19447 -2.002,0.801 -1.315308,1.52345 -1.953327,3.51695 -1.767,5.521 v -0.002 c 0.01036,0.47364 0.102723,0.9419 0.273,1.384 0.234917,0.7109 0.802512,1.26206 1.52,1.476 0.786653,0.0325 1.531672,-0.35409 1.958,-1.016 1.464517,-1.91611 1.957623,-4.40306 1.335,-6.733 -0.152838,-0.6775 -0.654488,-1.22257 -1.317,-1.431 m 46.792,20.43 c 0.331015,-1.31929 0.161432,-2.71443 -0.476,-3.916 -0.542544,-0.97552 -1.466273,-1.68154 -2.55,-1.949 l -1.153,-0.243 c -1.676911,-0.3342 -3.345409,-0.70931 -5.004,-1.125 -3.175,-0.794 -5.9,0.661 -7.404,3.904 1.547,0.449 3.07,0.866 4.555,1.242 0.140574,-0.64982 0.237788,-1.30828 0.291,-1.971 0.105555,-1.17083 1.84738,-1.06916 1.816,0.106 -0.06024,0.77214 -0.173164,1.53926 -0.338,2.296 0.294667,0.0693 0.587,0.13733 0.877,0.204 0.298,0.0673 0.591333,0.13167 0.88,0.193 0.26,-1.278 0.424,-2.365 0.428,-2.386 0.182,-1.2 1.982,-0.927 1.8,0.273 -0.015,0.087 -0.182,1.175 -0.45,2.479 0.61,0.118 1.188333,0.223 1.735,0.315 0.123252,-0.65912 0.207399,-1.32495 0.252,-1.994 0.058,-1.21067 1.874,-1.12367 1.816,0.087 -0.0445,0.73176 -0.133669,1.46012 -0.267,2.181 1.058957,0.14869 2.124013,0.25012 3.192,0.304 m -16.843,2.223 c 0.559094,1.25335 1.588433,2.23671 2.866,2.738 2.289612,0.65422 4.630714,1.11254 6.998,1.37 2.884,0.319 5.14,-1.287 6.427,-4.533 -0.965,-0.055 -2,-0.167 -3.068,-0.317 -0.193285,0.65403 -0.457172,1.28507 -0.787,1.882 -0.617985,0.98492 -2.111985,0.13391 -1.58,-0.9 0.224026,-0.40357 0.407586,-0.8283 0.548,-1.268 -0.56554,-0.0973 -1.129913,-0.20135 -1.693,-0.312 -0.16458,0.68429 -0.380525,1.35519 -0.646,2.007 -0.46395,1.16458 -2.205924,0.40384 -1.667,-0.728 0.2167,-0.53515 0.394495,-1.08525 0.532,-1.646 l -0.875,-0.195 c -0.307333,-0.0707 -0.617333,-0.14267 -0.93,-0.216 -0.169866,0.55239 -0.36779,1.09577 -0.593,1.628 -0.471333,1.11533 -2.144333,0.40833 -1.673,-0.707 0.193,-0.458 0.356,-0.915 0.495,-1.354 -1.532,-0.388 -3.106,-0.82 -4.702,-1.285 -0.321142,1.28123 -0.198466,2.63348 0.348,3.836 M 84.35,147.799 c -1.375,-3.608 -5.976,-6.164 -12.039,-7.536 -11.203,-2.534 -25.924,1.651 -35.29,9.53 0.342947,1.56458 0.263567,3.19222 -0.23,4.716 8.274978,4.23532 16.918726,7.70768 25.824,10.374 2.178,-5.004 6.352,-5.958 9.605,-5.145 2.331,0.582 3.83,0.886 4.925,1.107 l 1.204,0.255 c 1.576828,0.38361 2.923454,1.40499 3.718,2.82 0.801745,1.46992 1.064563,3.17382 0.743,4.817 0.632806,0.0408 1.263979,-0.1015 1.818,-0.41 2.320967,-6.66298 2.222549,-13.93032 -0.278,-20.528 m -10.567,29.074 c -2.501743,-0.27095 -4.975105,-0.75947 -7.392,-1.46 -1.745092,-0.66045 -3.156036,-1.98758 -3.922,-3.689 -0.413928,-0.89058 -0.646445,-1.85464 -0.684,-2.836 -0.02782,-0.76982 0.05297,-1.53972 0.24,-2.287 -8.939679,-2.68667 -17.620171,-6.17032 -25.937,-10.409 -0.233715,0.43131 -0.50974,0.83831 -0.824,1.215 -0.454164,0.55961 -1.032445,1.00573 -1.689,1.303 0.656854,5.74678 2.630709,11.26454 5.768,16.124 4.173,6.445 9.857,10.862 15.998,12.251 2.177,0.492 5.023,1.104 7.567,0.54 9.309854,-2.07822 17.071509,-8.46969 20.897,-17.208 -0.485276,0.0801 -0.975375,0.12752 -1.467,0.142 -2.154,6.301 -6.683,6.521 -8.555,6.314 M 29.945,150.276 c 0.291337,-0.68336 0.680032,-1.32097 1.154,-1.893 0.336606,-0.40691 0.735551,-0.75793 1.182,-1.04 0.984725,-4.98217 3.351606,-9.58667 6.83,-13.287 -5.11108,3.63171 -8.955831,8.77355 -10.994,14.703 0.542731,0.58093 1.156968,1.09067 1.828,1.517 m -0.578,1.765 c -0.636418,-0.43888 -1.242157,-0.92067 -1.813,-1.442 -0.79956,2.95068 -1.141873,6.00654 -1.015,9.061 0.026,0.632 0.071,1.259 0.135,1.881 0.546997,-2.05318 1.431011,-4.00132 2.616,-5.765 -0.238861,-1.23643 -0.212616,-2.50947 0.077,-3.735 m 2.395,6.837 c -0.680876,-0.18115 -1.273292,-0.60238 -1.668,-1.186 -2.229,3.435 -3.167,6.507 -2.349,9.266 3.481272,11.69228 13.712696,20.10002 25.858,21.249 -11.684,-3.548 -20.329,-15.721 -21.84,-29.329 M 46.148,17.282 c 0.0095,-1.523842 -0.159652,-3.043545 -0.504,-4.528 0,0 2.688,-0.141 2.688,-3.414 0,-2.696 -1.799,-4.536 -2.282,-4.536 -0.39,0 -0.485,0.412 -1.328,0.412 -2.055,0 -2.206,-2.624 -2.206,-2.624 0.304,-0.010667 0.616667,-0.016 0.938,-0.016 5.881,0 11.323,1.782 11.323,14.706 -0.05029,4.273696 -0.334714,8.541427 -0.852,12.784 -0.457898,3.48662 -0.676409,7.000512 -0.654,10.517 0,0 -10.24,-1.206 -10.24,-8.91 0,-5.002 3.117,-6.219 3.117,-14.391 m 16.287,85.37 c 0,10.114 -4.314,18.338 -6.807,20.831 -7.722,7.723 -14.095,2.099 -14.164,9.849 -3.504,3.174 -6.025,8 -7.262,13.512 0.07655,0.006 0.152678,0.017 0.228,0.032 0.742298,0.14486 1.397827,0.57589 1.825,1.2 9.81,-7.995 24.913,-12.197 36.457,-9.587 3.354791,0.63365 6.497426,2.09753 9.141,4.258 -3.5673,-5.77028 -8.985012,-10.16113 -15.369,-12.456 -1.522,-0.545 -4.224,-1.17 -4.224,-6.103 0,-9.208 10.074,-2.049 16.71,-12.079 0.326,-0.493 -0.143,-0.927 -0.532,-0.538 -2.008,2.007 -6.938,3.387 -9.547,3.387 -1.228107,0.0961 -2.461173,-0.10774 -3.593,-0.594 1.618382,-3.15859 3.468091,-6.1932 5.534,-9.079 -6.16,-6.162 4.21,-40.038 31.65,-40.038 0.0606,-6.230365 -0.55599,-12.44887 -1.839,-18.546 -0.653,0.158 -5.823,1.378 -6.059,0.29 -0.208,-0.962 3.808,-3.05 5.19,-3.736 -0.615881,-2.399822 -1.519075,-4.716565 -2.69,-6.9 -23.52,7.411 -18.794,26.884 -24.524,26.884 -3.729,0 -6.658,-2.904 -7.704,-3.95 C 50.808,45.243 57.354,35.948 57.354,17.282 57.355,4.708 52.472,0 43.455,0 34.436,0 31.216,3.903 31.216,3.903 c 0,0 12.356,0.4 12.356,13.379 0,13.586 -15.3,17.336 -15.3,34.572 0,28.692 34.164,28.154 34.164,50.798"
     id="path1"
     sodipodi:nodetypes="cccccccccccccccccccccccccccccccccccccccccccccccccccccccccccccccccccccccccccccccccccccccccccccssscscccsccccccccccsccccccccccsccscssc" />
</svg>
