<?xml version="1.0" encoding="UTF-8" standalone="no"?>
<svg
   width="168.507"
   height="188.423"
   version="1.1"
   id="svg15"
   sodipodi:docname="west-ham.svg"
   inkscape:version="1.4.2 (f4327f4, 2025-05-13)"
   xmlns:inkscape="http://www.inkscape.org/namespaces/inkscape"
   xmlns:sodipodi="http://sodipodi.sourceforge.net/DTD/sodipodi-0.dtd"
   xmlns="http://www.w3.org/2000/svg"
   xmlns:svg="http://www.w3.org/2000/svg">
  <defs
     id="defs15" />
  <sodipodi:namedview
     id="namedview15"
     pagecolor="#ffffff"
     bordercolor="#000000"
     borderopacity="0.25"
     inkscape:showpageshadow="2"
     inkscape:pageopacity="0.0"
     inkscape:pagecheckerboard="0"
     inkscape:deskcolor="#d1d1d1"
     inkscape:zoom="4.2829165"
     inkscape:cx="84.171615"
     inkscape:cy="94.211502"
     inkscape:window-width="1920"
     inkscape:window-height="1009"
     inkscape:window-x="-8"
     inkscape:window-y="-8"
     inkscape:window-maximized="1"
     inkscape:current-layer="svg15" />
  <path
     fill="#2dafe5"
     d="M168.497 6.076v-.011A565.5 565.5 0 0 0 84.248 0 565.5 565.5 0 0 0 0 6.065v.138L.002 76.37c.017 59.423 34.472 92.843 82.876 110.61l1.376.441.005.002 1.373-.443c48.406-17.767 82.857-51.187 82.875-110.61V6.076ZM84.254 90.458l-.017-.018.109.109Z"
     id="path1" />
  <path
     fill="#7c2c3b"
     d="M162.679 11.894v-.01a526.5 526.5 0 0 0-78.43-5.647 526.5 526.5 0 0 0-78.43 5.646v.13l.003 66.495c.014 55.319 32.09 86.43 77.151 102.97l1.281.411.004.002 1.28-.413c45.062-16.54 77.133-47.651 77.15-102.97V11.894Z"
     id="path2" />
  <path
     fill="#d6a93a"
     d="M122.963 151.369c1.242 1.243 3.23-.073 5.267-2.11s3.353-4.025 2.11-5.268L52.564 68.17c-1.242-1.243-3.463-1.035-4.96.462s-1.704 3.717-.462 4.96Z"
     id="path3" />
  <path
     fill="#f8d742"
     d="m54.977 67.013 6.361-7.483s.6-.8-.334-1.937a87 87 0 0 0-7.373-7.343c-.71-.533-1.194-.403-1.982.353-3.894 3.734-13.805 13.312-14.401 13.933a2.47 2.47 0 0 0-.853 2.615c.24 1.335.95 3.553-.276 5.706l-6.697 10.54c-.839 1.285-1.083 2.423-.45 3.04.338.332 1.19.716 2.918-.484.828-.574 9.934-6.704 12.835-9.09 1.7-1.399 2.997-2.67 2.997-2.67l5.496-5.39s1.156-1.136 1.759-1.79"
     id="path4" />
  <path
     fill="#d6a93a"
     d="M31.934 85.277c-1.902 1.289-1.896 1.477-1.63 1.442a4.6 4.6 0 0 0 1.587-.767c.827-.573 9.933-6.702 12.834-9.09a52 52 0 0 0 2.679-2.366 11.5 11.5 0 0 0-4.564 2.014c-1.555 1.299-8.185 6.923-10.906 8.767m23.042-18.264 6.362-7.483a1.35 1.35 0 0 0 .072-1.263s-.524-.592-2.358 1.547c-1.542 1.799-2.271 2.5-3.57 4.054a11.56 11.56 0 0 0-2.045 4.718 56 56 0 0 0 1.54-1.573m-9.263 84.356c-1.24 1.243-3.229-.073-5.267-2.11-2.036-2.037-3.352-4.025-2.11-5.268l77.806-75.849c1.242-1.243 3.463-1.036 4.96.461s1.704 3.718.461 4.96Z"
     id="path5" />
  <path
     fill="#f8d742"
     d="m44.958 150.621 72.594-74.55c1.243-1.243 1.036-3.463-.46-4.96a4.2 4.2 0 0 0-2.699-1.264l-76.056 74.144c-1.185 1.186-.041 3.05 1.835 4.987 1.866 1.762 3.643 2.789 4.786 1.643m68.772-83.638-6.36-7.482s-.601-.8.332-1.937a87 87 0 0 1 7.374-7.344c.71-.532 1.195-.403 1.982.354 3.894 3.734 13.804 13.311 14.401 13.932a2.47 2.47 0 0 1 .853 2.616c-.24 1.334-.952 3.553.276 5.705l6.697 10.54c.838 1.286 1.083 2.423.45 3.041-.338.332-1.188.716-2.918-.485-.828-.573-9.933-6.703-12.835-9.09a51 51 0 0 1-2.997-2.67l-5.495-5.39s-1.157-1.135-1.76-1.79"
     id="path6" />
  <path
     fill="#d6a93a"
     d="M136.773 85.248c1.901 1.288 1.896 1.477 1.63 1.441a4.6 4.6 0 0 1-1.587-.766c-.826-.573-9.932-6.703-12.834-9.09a52 52 0 0 1-2.679-2.366 11.5 11.5 0 0 1 4.565 2.013c1.553 1.3 8.183 6.923 10.905 8.768M113.73 66.983l-6.36-7.482a1.35 1.35 0 0 1-.073-1.264s.524-.592 2.358 1.548c1.542 1.798 2.272 2.5 3.57 4.054a11.6 11.6 0 0 1 2.045 4.718c-.364-.36-1.1-1.095-1.54-1.574m12.254 2.169a1.536 1.536 0 0 1-2.171 0l-3.259-3.26a1.535 1.535 0 0 1 2.171-2.17l3.259 3.26a1.534 1.534 0 0 1 0 2.17"
     id="path7" />
  <path
     fill="#cda938"
     d="M120.992 65.892a1.533 1.533 0 0 1 .867-2.602 1.533 1.533 0 0 0-1.305 2.602l3.259 3.26a1.53 1.53 0 0 0 1.304.432 1.53 1.53 0 0 1-.866-.432Z"
     id="path8" />
  <path
     fill="#d6a93a"
     d="M122.426 67.088a.166.166 0 0 1-.235-.235l1.494-1.494a.166.166 0 1 1 .235.234Zm.493.497a.16.16 0 0 1-.231 0 .164.164 0 1 1 .231 0m-1.026-1.025a.163.163 0 1 1 0-.231.164.164 0 0 1 0 .23m1.205-2.023-.512-.512a.167.167 0 0 0-.235.235l.081.082a.08.08 0 0 1 .003.11l-1.323 1.323a.167.167 0 0 0 .235.236l1.328-1.328a.08.08 0 0 1 .105.007l.082.083a.167.167 0 0 0 .236-.236m2.735 2.758a.166.166 0 0 0-.232-.037l-.867.627a.09.09 0 0 1-.119-.008.09.09 0 0 1-.017-.104l.178-.356a.17.17 0 0 0-.019-.177l-.002-.001-.007-.009-.005-.005-.005-.005-.008-.007-.002-.002a.17.17 0 0 0-.177-.018l-.355.177a.09.09 0 0 1-.105-.017.09.09 0 0 1-.009-.119l.629-.867a.167.167 0 0 0-.037-.232.165.165 0 0 0-.231.037l-1.241 1.711a.166.166 0 0 0 .014.211l.007.009h.003a.16.16 0 0 0 .186.027l.608-.303a.09.09 0 0 1 .117.127l-.299.603a.17.17 0 0 0 .026.186l.002.002.007.007a.166.166 0 0 0 .213.014l1.71-1.24a.165.165 0 0 0 .037-.231"
     id="path9" />
  <path
     fill="#f8d742"
     d="M54.754 70.306a3.86 3.86 0 0 0-2.764 1.18c-1.392 1.393-1.584 3.457-.43 4.612l31.08 31.848 5.29-5.288Zm75.586 73.684-39.207-38.21a5.67 5.67 0 0 0-2.178 8.641l35.069 35.957c1.153 1.156 3-.068 4.896-1.96q.482-.482.893-.954c1.01-1.364 1.398-2.601.527-3.473m-7.986-76.975a.166.166 0 0 1-.235-.235l1.494-1.494a.166.166 0 1 1 .235.234Zm.493.497a.16.16 0 0 1-.23 0 .164.164 0 1 1 .23 0m-1.026-1.026a.163.163 0 1 1 0-.23.164.164 0 0 1 0 .23m1.205-2.023-.512-.513a.17.17 0 0 0-.235.001.165.165 0 0 0 0 .235l.081.082a.08.08 0 0 1 .003.11l-1.323 1.324a.167.167 0 0 0 .236.235l1.327-1.328a.08.08 0 0 1 .105.007l.083.082a.166.166 0 0 0 .235-.235m2.735 2.758a.166.166 0 0 0-.232-.037l-.866.627a.09.09 0 0 1-.136-.112l.177-.356a.17.17 0 0 0-.018-.176l-.003-.002-.007-.009-.005-.005-.005-.005-.008-.007-.002-.002a.17.17 0 0 0-.177-.018l-.355.177a.09.09 0 0 1-.105-.017.09.09 0 0 1-.009-.118l.629-.868a.167.167 0 0 0-.036-.232.165.165 0 0 0-.232.037l-1.241 1.712a.166.166 0 0 0 .014.21l.008.009.002.001a.16.16 0 0 0 .186.026l.609-.303a.09.09 0 0 1 .116.127l-.299.603a.165.165 0 0 0 .026.186l.002.003.008.006a.166.166 0 0 0 .212.015l1.711-1.24a.166.166 0 0 0 .036-.232"
     id="path10" />
  <path
     fill="#d6a93a"
     d="M48.153 63.752a1.536 1.536 0 0 1 0 2.17l-3.26 3.26a1.535 1.535 0 0 1-2.17-2.172l3.259-3.258a1.534 1.534 0 0 1 2.17 0"
     id="path11" />
  <path
     fill="#cda938"
     d="m42.996 67.284 3.26-3.259a1.534 1.534 0 0 1 2.024-.126 2 2 0 0 0-.127-.148 1.536 1.536 0 0 0-2.171 0l-3.26 3.26a1.535 1.535 0 0 0 .002 2.17 2 2 0 0 0 .145.126 1.533 1.533 0 0 1 .127-2.023"
     id="path12" />
  <path
     fill="#d6a93a"
     d="M46.017 67.546a.166.166 0 1 1-.235.234l-1.494-1.494a.166.166 0 0 1 .234-.235Zm.497-.494a.163.163 0 1 1-.231 0 .164.164 0 0 1 .231 0m-1.026 1.027a.163.163 0 0 1-.23.23.165.165 0 0 1-.001-.23.163.163 0 0 1 .231 0m-2.023-1.205-.512.51a.167.167 0 0 0 .235.237l.082-.082a.084.084 0 0 1 .111-.003l1.323 1.323a.166.166 0 0 0 .235-.236l-1.328-1.327a.08.08 0 0 1 .007-.105l.082-.082a.166.166 0 0 0-.235-.235m2.758-2.736a.166.166 0 0 0-.037.232l.628.866a.09.09 0 0 1-.008.12.09.09 0 0 1-.105.016l-.355-.176a.17.17 0 0 0-.177.018l-.003.003-.008.007-.004.004-.005.005-.008.009-.002.002a.17.17 0 0 0-.017.176l.176.355a.091.091 0 0 1-.136.114l-.867-.628a.166.166 0 1 0-.195.268l1.711 1.24a.17.17 0 0 0 .212-.014l.006-.007.004-.003a.165.165 0 0 0 .025-.185l-.302-.61a.09.09 0 0 1 .126-.116l.603.298a.17.17 0 0 0 .186-.024l.002-.003.007-.008a.165.165 0 0 0 .015-.21l-1.241-1.713a.166.166 0 0 0-.231-.036"
     id="path13" />
  <path
     fill="#f8d742"
     d="M46.017 67.382a.166.166 0 1 1-.235.234l-1.494-1.494a.166.166 0 0 1 .234-.235Zm.497-.494a.163.163 0 1 1-.231 0 .164.164 0 0 1 .231 0m-1.026 1.026a.163.163 0 1 1-.231 0 .164.164 0 0 1 .231 0m-2.023-1.204-.512.51a.166.166 0 0 0 .235.236l.082-.081a.084.084 0 0 1 .111-.004l1.323 1.324a.166.166 0 0 0 .235-.235l-1.328-1.328a.08.08 0 0 1 .007-.105l.082-.082a.167.167 0 0 0 0-.236.165.165 0 0 0-.235 0m2.758-2.735a.166.166 0 0 0-.037.232l.628.866a.09.09 0 0 1-.008.12.09.09 0 0 1-.105.016l-.355-.176a.17.17 0 0 0-.177.018l-.003.002-.008.007-.004.005-.005.005-.008.008-.002.004a.16.16 0 0 0-.017.175l.176.355a.09.09 0 0 1-.017.105.09.09 0 0 1-.119.01l-.867-.63a.166.166 0 1 0-.195.269l1.711 1.24a.17.17 0 0 0 .212-.013l.006-.008.004-.003a.17.17 0 0 0 .025-.185l-.302-.61a.091.091 0 0 1 .126-.116l.603.298a.17.17 0 0 0 .186-.025l.002-.002.007-.008a.165.165 0 0 0 .015-.211l-1.241-1.712a.165.165 0 0 0-.231-.036"
     id="path14" />
</svg>
