<?xml version="1.0" encoding="UTF-8" standalone="no"?>
<svg
   width="271.768"
   height="367.961"
   viewBox="0 0 291 394.247"
   version="1.1"
   id="svg31"
   sodipodi:docname="al-ahli.svg"
   inkscape:version="1.4.2 (f4327f4, 2025-05-13)"
   xmlns:inkscape="http://www.inkscape.org/namespaces/inkscape"
   xmlns:sodipodi="http://sodipodi.sourceforge.net/DTD/sodipodi-0.dtd"
   xmlns:xlink="http://www.w3.org/1999/xlink"
   xmlns="http://www.w3.org/2000/svg"
   xmlns:svg="http://www.w3.org/2000/svg">
  <defs
     id="defs31" />
  <sodipodi:namedview
     id="namedview31"
     pagecolor="#ffffff"
     bordercolor="#000000"
     borderopacity="0.25"
     inkscape:showpageshadow="2"
     inkscape:pageopacity="0.0"
     inkscape:pagecheckerboard="0"
     inkscape:deskcolor="#d1d1d1"
     inkscape:zoom="2.3127451"
     inkscape:cx="135.76939"
     inkscape:cy="183.9805"
     inkscape:window-width="1920"
     inkscape:window-height="1111"
     inkscape:window-x="-9"
     inkscape:window-y="-9"
     inkscape:window-maximized="1"
     inkscape:current-layer="g30" />
  <linearGradient
     id="a">
    <stop
       offset=".139"
       stop-color="#196c4d"
       id="stop1" />
    <stop
       offset=".287"
       stop-color="#1b7352"
       id="stop2" />
    <stop
       offset=".499"
       stop-color="#1f855f"
       id="stop3" />
    <stop
       offset=".648"
       stop-color="#23976b"
       id="stop4" />
  </linearGradient>
  <linearGradient
     xlink:href="#a"
     id="c"
     x1="295.769"
     x2="295.769"
     y1="872.811"
     y2="352.567"
     gradientUnits="userSpaceOnUse" />
  <linearGradient
     id="d"
     x1="295.775"
     x2="295.775"
     y1="21.224"
     y2="504.919"
     gradientUnits="userSpaceOnUse">
    <stop
       offset=".139"
       stop-color="#196c4d"
       id="stop5" />
    <stop
       offset=".31"
       stop-color="#1a6f4f"
       id="stop6" />
    <stop
       offset=".451"
       stop-color="#1c7956"
       id="stop7" />
    <stop
       offset=".579"
       stop-color="#208a62"
       id="stop8" />
    <stop
       offset=".648"
       stop-color="#23976b"
       id="stop9" />
  </linearGradient>
  <linearGradient
     xlink:href="#a"
     id="e"
     x1="295.772"
     x2="295.772"
     y1="850.052"
     y2="400.413"
     gradientUnits="userSpaceOnUse" />
  <linearGradient
     xlink:href="#a"
     id="f"
     x1="295.772"
     x2="295.772"
     y1="704.643"
     y2="435.974"
     gradientUnits="userSpaceOnUse" />
  <linearGradient
     id="b">
    <stop
       offset="0"
       stop-color="#196c4d"
       id="stop10" />
    <stop
       offset="1"
       stop-color="#23976b"
       id="stop11" />
  </linearGradient>
  <linearGradient
     xlink:href="#b"
     id="h"
     x1="273.449"
     x2="273.449"
     y1="685.28"
     y2="626.952"
     gradientUnits="userSpaceOnUse" />
  <linearGradient
     xlink:href="#b"
     id="i"
     x1="295.775"
     x2="295.775"
     y1="685.28"
     y2="626.952"
     gradientUnits="userSpaceOnUse" />
  <linearGradient
     xlink:href="#b"
     id="j"
     x1="295.772"
     x2="295.772"
     y1="645.652"
     y2="488.116"
     gradientUnits="userSpaceOnUse" />
  <linearGradient
     xlink:href="#b"
     id="k"
     x1="295.772"
     x2="295.772"
     y1="624.948"
     y2="596.813"
     gradientUnits="userSpaceOnUse" />
  <linearGradient
     xlink:href="#b"
     id="l"
     x1="318.098"
     x2="318.098"
     y1="685.28"
     y2="626.952"
     gradientUnits="userSpaceOnUse" />
  <g
     transform="scale(.49189)"
     id="g31">
    <path
       fill="#283a6a"
       d="M494.1 570.3c0 109.5-88.8 198.4-198.4 198.4S97.3 679.9 97.3 570.3s88.8-198.4 198.4-198.4 198.4 88.9 198.4 198.4"
       id="path11" />
    <path
       fill="#283a6a"
       d="M583.7 83.6c-8.4.8-16.7 1.2-24.7 1.2-39.6 0-73.9-9.5-100.6-23.7-26.8-14.1-45.8-33.1-55-51.5L398.6 0l-7 8.2c-1.1 1.2-30.2 33.5-95.8 33.5-33.9 0-57.9-8.7-73.6-17.1-7.8-4.2-13.5-8.5-17.1-11.6-1.8-1.6-3.2-2.8-4-3.7l-.9-.9-.2-.2-7-8.2-4.8 9.6C179 28 159.9 47 133.2 61.1 106.5 75.3 72.1 84.8 32.6 84.8c-8 0-16.3-.4-24.7-1.2L0 82.8v7.9C0 180.1 9.5 270.1 23.1 333c4.8 22.3 10.1 42.2 16.2 60.5-.7 12.1-1.1 24-1.1 35.8 0 106.6 29.9 199.2 76.9 265.6 47 66.3 111.6 106.6 180.7 106.6s133.7-40.3 180.7-106.6c47.1-66.4 76.9-159 76.9-265.6 0-11.8-.4-23.7-1.1-35.8 6.1-18.3 11.4-38.2 16.2-60.5 13.6-62.9 23.1-152.9 23.1-242.2v-7.9z"
       id="path12" />
    <path
       fill="url(#c)"
       d="M539 429.3c0 103.9-29.2 193.8-74.3 257.3-45.2 63.6-105.8 100.6-169 100.6s-123.8-37-169-100.6C81.6 623 52.4 533.2 52.4 429.3v-.9c13.7 31.9 30.6 59.8 52 89.2-4.6 16.8-7.1 34.4-7.1 52.7 0 109.5 88.8 198.4 198.4 198.4s198.4-88.8 198.4-198.4c0-18.2-2.5-35.9-7.1-52.7 21.4-29.4 38.2-57.3 52-89.2z"
       id="path13" />
    <path
       fill="url(#d)"
       d="M554.4 329.9c-16.2 74.9-37.6 120.4-72.9 170.7-28.2-75.2-100.7-128.7-185.8-128.7-85 0-157.6 53.5-185.8 128.7-35.3-50.3-56.7-95.9-72.9-170.7-12.8-59.7-22.1-145.6-22.7-231.4 6.2.4 12.2.6 18.2.6 41.9 0 78.5-10 107.3-25.4 25.2-13.4 44.5-30.8 56.3-49.5C209.5 35.4 241.7 56 295.8 56s86.2-20.7 99.5-31.7c11.8 18.7 31.2 36.1 56.3 49.5 28.9 15.3 65.5 25.4 107.3 25.4 6 0 12-.2 18.2-.6-.4 85.7-9.7 171.6-22.7 231.3"
       id="path14" />
    <circle
       cx="295.8"
       cy="570.3"
       r="191.6"
       fill="url(#e)"
       id="circle14" />
    <circle
       cx="295.8"
       cy="570.3"
       r="186"
       fill="#283a6a"
       transform="rotate(-9.213 295.79 570.227)"
       id="circle15" />
    <path
       fill="url(#f)"
       d="M295.8 436c-74.2 0-134.3 60.1-134.3 134.3s60.1 134.3 134.3 134.3 134.3-60.1 134.3-134.3S370 436 295.8 436"
       id="path15" />
    <path
       fill="#fff"
       d="M267.9 602.2c-3-5.3-12.5-23.4-12.6-43.3 0-1.1 0-2.2.1-3.4l-34.7-12.2-30.5 28c.1 16.8 4.2 32.7 11.4 46.8l39.5 11.8zm102.9-58.9-34.7 12.2c.1 1.1.1 2.3.1 3.4 0 19.9-9.6 38-12.6 43.3l26.7 27.6 39.5-11.8c7.2-14.1 11.3-30 11.4-46.8z"
       id="path16" />
    <path
       fill="#fff"
       d="m251.3 469.7 1.1 4.4c-11.7 5.3-22.2 12.6-31.2 21.5l-.2.2 1.9 42.3 35 12.3 8.7-7.6 13.4 55.9-4.4 5.9h-3.9l-27 28 14.9 27.6v9.1c11.3 4.1 23.5 6.4 36.3 6.4 12.7 0 25-2.3 36.2-6.4v-9.1l14.9-27.6-27-28h-4l-4.4-5.9.1-.4 13.3-55.5 8.7 7.6 35-12.3 1.9-42.3-.2-.2c-9-9-19.5-16.3-31.2-21.5l1.1-4.4c12.5 5.5 23.8 13.3 33.3 22.8l23.9-1.1c-23-29.6-58.7-49-98.9-49.8v11.8H293v-11.8c-40.2.9-75.8 20.2-98.9 49.8l23.9 1.1c9.5-9.5 20.8-17.3 33.3-22.8m-83.2 83.9c-.7 5.5-1.1 11.1-1.1 16.7 0 26.8 8.3 51.8 22.4 72.5l8.2-22.7c-7.5-14.7-11.7-31.2-11.9-48.8z"
       id="path17" />
    <path
       fill="#fff"
       d="M295.8 680.3c-13.4 0-26.2-2.4-38.1-6.8l-17.2 13c16.8 8 35.5 12.5 55.3 12.5s38.6-4.5 55.3-12.5l-17.2-13c-11.9 4.4-24.7 6.8-38.1 6.8m127.6-126.7-17.7 17.7c-.2 17.6-4.4 34.1-11.9 48.8l8.2 22.7c14.1-20.7 22.4-45.6 22.4-72.5.1-5.7-.2-11.2-1-16.7"
       id="path18" />
    <path
       fill="#283a6a"
       d="M263.5 688.7v-65.1h19.9v65.1z"
       id="path19" />
    <path
       fill="url(#h)"
       d="M266.9 685.3H280V627h-13.1z"
       id="path20" />
    <path
       fill="#283a6a"
       d="M285.8 688.7v-65.1h20v65.1z"
       id="path21" />
    <path
       fill="url(#i)"
       d="M289.2 685.3h13.2V627h-13.2z"
       id="path22" />
    <path
       fill="#283a6a"
       d="M342 453.4h-94.7L282 597.9h27.6l34.6-144.5z"
       id="path23" />
    <path
       fill="url(#j)"
       d="M284.7 594.5h22.2l33-137.7h-88.2z"
       id="path24" />
    <path
       fill="#283a6a"
       d="m324.1 619.6-15-20.4h-26.6l-17.1 23.1h60.7z"
       id="path25" />
    <path
       fill="url(#k)"
       d="M272.2 618.9h47.2l-12-16.3h-23.2z"
       id="path26" />
    <path
       fill="#283a6a"
       d="M309.8 688.7h-1.7v-65.1h20v65.1z"
       id="path27" />
    <path
       fill="url(#l)"
       d="M324.7 685.3V627h-13.2v58.3z"
       id="path28" />
    <g
       fill="#fff"
       id="g30">
      <path
         d="M367.3 181.3c-5.2-39.1-42.8-63.2-42.8-63.2 24.1.8 45.1 13.8 45.1 13.8s-17.4-25.8-51-33.7L331 85.6c-13.2 1.6-26.7 10.3-26.7 10.3l-8.6-17.5-8.6 17.5s-13.4-8.7-26.7-10.3l12.4 12.6c-33.5 7.9-51 33.7-51 33.7s21-13 45.1-13.8c0 0-37.6 24.2-42.8 63.2 0 0 24-37 39.8-42.6 0 0-25 33-19.9 82 13.6-52 28.7-62.9 28.7-62.9-11.6 44 0 70.2 0 70.2 2.2-48 14.9-69 14.9-69v24H285s1.9 4.4 2.7 7.7v19.5H285s1.9 4.4 2.7 7.7v19.5H285s1.9 4.4 2.7 7.7v22.4l-4.6 2.7v2.9h25.2v-2.9l-4.6-2.7v-22.4c.8-3.3 2.7-7.7 2.7-7.7h-2.7v-19.5c.8-3.3 2.7-7.7 2.7-7.7h-2.7v-19.5c.8-3.3 2.7-7.7 2.7-7.7h-2.7v-24s12.7 21 14.9 69c0 0 11.6-26.2 0-70.2 0 0 15.1 10.9 28.7 62.9 5.1-49-19.9-82-19.9-82 15.9 5.6 39.9 42.6 39.9 42.6"
         id="path29" />
      <path
         d="m 365.9,337.5 c -4.4,0 -7.1,2.4 -9.8,4.9 -2.6,2.5 -5.7,5.7 -9,5.7 -2,0 -6,-3.4 -11.8,-9 l 8.8,-8.8 c 1.4,-1.4 1.3,-3.6 0,-4.9 -1.4,-1.3 -3.5,-1.3 -4.9,0 l -8.8,8.9 c -6.9,-6.8 -15.5,-15.6 -25.4,-24.8 14,-12.6 24.5,-22.2 34.7,-29.8 19.5,-14.5 46.3,-24.4 75.8,-26.3 0,0 -10.9,-3.9 -24.4,-3.9 -16.8,0 -30.2,4.7 -41.9,10.2 -20.5,9.6 -35.5,24.9 -53.2,41.4 -17.7,-16.5 -32.8,-31.8 -53.2,-41.4 -11.7,-5.5 -25.2,-10.2 -41.9,-10.2 -13.5,0 -24.4,3.9 -24.4,3.9 29.4,1.9 56.2,11.7 75.8,26.3 10.1,7.6 20.7,17.2 34.7,29.8 -9.9,9.3 -18.6,18 -25.4,24.8 l -8.8,-8.9 c -1.3,-1.4 -3.5,-1.4 -4.9,0 -1.4,1.4 -1.4,3.5 0,4.9 l 8.8,8.8 c -5.8,5.5 -9.8,9 -11.8,9 -3.3,0 -6.4,-3.2 -9,-5.7 -2.7,-2.5 -5.5,-4.9 -9.8,-4.9 -5.5,0 -9.9,3.5 -9.9,7.9 0,3.6 4.4,7.2 9.6,10.5 4.5,2.8 8.2,5.1 13.8,5.1 9.1,0 16.4,-5.3 25.2,-13.6 l 8.1,8.2 c 0.7,0.7 1.6,1 2.5,1 0.9,0 1.8,-0.3 2.4,-1 1.4,-1.4 1.4,-3.5 0,-4.9 l -8.1,-8.1 c 7.2,-7.1 15.5,-15.7 26.4,-24.8 10.9,9.1 19.3,17.7 26.4,24.8 l -8.1,8.1 c -1.3,1.4 -1.3,3.6 0,4.9 0.7,0.7 1.6,1 2.4,1 0.9,0 1.8,-0.3 2.5,-1 l 8.1,-8.2 c 8.8,8.3 16.2,13.6 25.2,13.6 5.7,0 9.4,-2.2 13.8,-5.1 5.2,-3.3 9.6,-6.9 9.6,-10.5 -0.2,-4.3 -4.6,-7.9 -10.1,-7.9 M 265,738.2 l 5.3,-21.3 c -4.7,2.1 -7.8,2.9 -9.1,2.6 -0.7,-0.2 -1.2,-0.6 -1.5,-1.2 -0.4,-0.6 -0.5,-1.3 -0.3,-2 0.2,-0.8 0.6,-1.3 1.2,-1.6 0.6,-0.2 1.6,-0.5 3,-0.8 2.1,-0.4 3.9,-1 5.2,-1.7 1.4,-0.7 2.7,-1.5 3.8,-2.5 1.2,-1 1.9,-1.6 2.3,-1.8 0.3,-0.2 0.9,-0.2 1.6,0 0.8,0.2 1.4,0.7 1.8,1.5 0.3,0.8 0.4,1.7 0.1,2.8 l -6.7,26.8 c -0.8,3.1 -2.2,4.4 -4.4,3.9 -1,-0.2 -1.6,-0.8 -2.1,-1.5 -0.5,-0.9 -0.5,-2 -0.2,-3.2 m 33.7,-7.8 c -1.1,1.2 -2.4,2.1 -3.7,2.6 -1.3,0.6 -2.8,0.8 -4.4,0.7 -1.5,-0.1 -2.9,-0.5 -4.2,-1.1 -1.3,-0.7 -2.4,-1.6 -3.2,-2.7 -0.9,-1.1 -1.5,-2.4 -2,-3.8 -0.4,-1.4 -0.6,-2.9 -0.5,-4.5 0.1,-1.7 0.5,-3.2 1.2,-4.7 0.7,-1.4 1.6,-2.7 2.7,-3.7 1.1,-1 2.5,-1.8 4,-2.3 1.5,-0.5 3.2,-0.7 5,-0.6 2.1,0.1 3.9,0.6 5.5,1.5 1.6,0.9 2.9,2 3.9,3.5 1,1.5 1.8,3.4 2.2,5.6 0.5,2.2 0.6,4.7 0.4,7.5 -0.2,3.1 -0.7,5.8 -1.5,8.1 -1.2,3.45 -1.8,4.2 -3.1,5.8 -1.3,1.5 -2.8,2.6 -4.5,3.3 -2.55,1.05 -3.6,0.9 -5.8,0.8 -2.1,-0.1 -3.9,-0.6 -5.4,-1.5 -2.25,-1.35 -2.6,-2 -3.3,-3.2 -0.7,-1.2 -1.1,-2.4 -1,-3.5 0,-0.7 0.3,-1.3 0.9,-1.8 0.5,-0.5 1.2,-0.7 2,-0.7 0.7,0 1.3,0.3 1.9,0.7 0.5,0.4 0.9,1 1.2,1.9 0.3,1 0.8,1.8 1.6,2.4 0.8,0.6 1.7,1 2.7,1.1 0.9,0.1 1.8,-0.1 2.6,-0.5 0.8,-0.4 1.6,-1 2.2,-1.8 1.2,-1.7 2.1,-4.7 2.6,-9.1 m -0.1,-7.4 c 0.1,-1.1 0,-2.1 -0.3,-3.1 -0.2,-0.9 -0.6,-1.8 -1.1,-2.5 -0.5,-0.7 -1.1,-1.3 -1.8,-1.7 -0.7,-0.4 -1.5,-0.7 -2.4,-0.7 -1.5,-0.1 -2.9,0.5 -4,1.7 -1.1,1.2 -1.8,2.9 -1.9,5.1 -0.1,2.1 0.3,3.9 1.3,5.2 1,1.3 2.3,2.1 3.9,2.2 1,0.1 2,-0.1 2.9,-0.6 0.9,-0.5 1.7,-1.2 2.4,-2.1 0.6,-1 0.9,-2.1 1,-3.5 m 17.8,0.6 c 1.5,-0.1 2.7,-0.5 3.8,-1.5 1,-0.9 1.5,-2.2 1.5,-3.8 0,-1.2 -0.5,-2.3 -1.4,-3.1 -0.9,-0.9 -2.1,-1.3 -3.5,-1.2 -1,0 -1.8,0.2 -2.4,0.5 -0.6,0.3 -1.1,0.7 -1.5,1.1 -0.4,0.5 -0.7,1.1 -1,1.8 -0.3,0.7 -0.6,1.4 -0.8,2 -0.1,0.3 -0.4,0.6 -0.8,0.8 -0.4,0.2 -0.9,0.3 -1.4,0.3 -0.6,0 -1.2,-0.2 -1.8,-0.7 -0.6,-0.5 -0.9,-1.2 -0.9,-2.1 0,-0.8 0.2,-1.7 0.7,-2.7 0.5,-0.9 1.2,-1.9 2.1,-2.7 0.9,-0.9 2.1,-1.6 3.5,-2.2 1.4,-0.6 3,-0.9 4.8,-1 1.6,-0.1 3,0.1 4.3,0.5 1.3,0.4 2.4,0.9 3.4,1.7 1,0.8 1.7,1.7 2.3,2.7 0.5,1 0.8,2.2 0.9,3.4 0.1,1.6 -0.2,3 -0.9,4.2 -1.05,1.8 -1.6,2.3 -2.9,3.5 1.3,0.6 2.4,1.4 3.3,2.2 0.9,0.8 1.6,1.8 2.1,2.8 0.5,1 0.7,2.2 0.8,3.4 0.1,1.5 -0.2,2.9 -0.7,4.3 -0.5,1.4 -1.3,2.6 -2.4,3.8 -1.1,1.1 -2.4,2 -4,2.7 -1.6,0.7 -3.3,1 -5.2,1.1 -1.9,0.1 -3.7,-0.2 -5.2,-0.8 -1.5,-0.6 -2.8,-1.4 -3.9,-2.4 -1.1,-1 -1.8,-2 -2.4,-3.1 -0.6,-1.1 -0.8,-2 -0.9,-2.7 0,-0.9 0.2,-1.7 0.8,-2.3 0.6,-0.6 1.3,-0.9 2.2,-0.9 0.5,0 0.9,0.1 1.3,0.3 0.4,0.2 0.7,0.6 0.9,0.9 0.9,2.2 1.9,3.8 2.9,4.9 1,1.1 2.4,1.5 4.1,1.5 1,0 1.9,-0.3 2.9,-0.8 0.9,-0.5 1.6,-1.3 2.2,-2.3 0.6,-1 0.8,-2.1 0.8,-3.4 -0.1,-1.9 -0.6,-3.3 -1.7,-4.4 -1.1,-1 -2.5,-1.5 -4.4,-1.4 -0.3,0 -0.8,0.1 -1.5,0.2 -0.7,0.1 -1.1,0.1 -1.3,0.1 -0.9,0 -1.6,-0.2 -2.1,-0.6 -0.75,-0.6 -0.8,-1 -0.8,-1.8 0,-0.8 0.2,-1.4 0.8,-1.9 0.6,-0.5 1.4,-0.8 2.6,-0.8 z m 13.9,-15.4 15.4,-4.4 c 1.5,-0.4 2.6,-0.5 3.4,-0.2 0.8,0.3 1.4,0.9 1.7,2 0.2,0.6 0,1.6 -0.4,2.9 -0.5,1.3 -1,2.7 -1.6,4.3 -0.6,1.6 -1.2,3.5 -1.7,5.7 -0.5,2.2 -0.8,4.8 -0.9,7.9 0,1.3 0,2.4 0.1,3.3 0.1,0.8 0.2,1.9 0.4,3.3 0.2,1.3 0.3,2.4 0.4,3.1 0.1,1.7 0,2.9 -0.4,3.7 -0.4,0.8 -1.1,1.3 -2.1,1.6 -0.9,0.3 -1.8,0.2 -2.6,-0.3 -0.8,-0.5 -1.3,-1.4 -1.7,-2.7 -0.3,-1 -0.5,-2.4 -0.5,-4.2 0,-1.8 0,-4.1 0.3,-6.7 0.3,-2.6 0.7,-5.4 1.4,-8.3 0.7,-2.9 1.7,-5.9 2.9,-8.9 l -12.4,3.6 c -1.3,0.4 -2.3,0.4 -3.1,0.1 -0.8,-0.3 -1.3,-0.9 -1.6,-1.9 -0.3,-1.1 -0.2,-1.9 0.4,-2.4 0.5,-0.7 1.4,-1.2 2.6,-1.5"
         id="path30"
         sodipodi:nodetypes="ccscsccccccscccscccccsscscsscsccscsccccssccsccccccccccccccccccccccccccccsscssccscscssccsccscsccccsscscscsccccsccscssssssccscssccscsscscssssscssscsscscccsssssccccsccssccccscscsssccsccc" />
    </g>
  </g>
</svg>
