<?xml version="1.0" encoding="UTF-8" standalone="no"?>
<svg
   width="316"
   height="316"
   version="1.1"
   id="svg14"
   sodipodi:docname="al-ettifaq.svg"
   inkscape:version="1.4.2 (f4327f4, 2025-05-13)"
   xmlns:inkscape="http://www.inkscape.org/namespaces/inkscape"
   xmlns:sodipodi="http://sodipodi.sourceforge.net/DTD/sodipodi-0.dtd"
   xmlns="http://www.w3.org/2000/svg"
   xmlns:svg="http://www.w3.org/2000/svg">
  <defs
     id="defs14" />
  <sodipodi:namedview
     id="namedview14"
     pagecolor="#ffffff"
     bordercolor="#000000"
     borderopacity="0.25"
     inkscape:showpageshadow="2"
     inkscape:pageopacity="0.0"
     inkscape:pagecheckerboard="0"
     inkscape:deskcolor="#d1d1d1"
     inkscape:zoom="2.693038"
     inkscape:cx="157.81434"
     inkscape:cy="158"
     inkscape:window-width="1920"
     inkscape:window-height="1111"
     inkscape:window-x="-9"
     inkscape:window-y="-9"
     inkscape:window-maximized="1"
     inkscape:current-layer="svg14" />
  <path
     d="M310.09 158.008c0 83.996-68.094 152.086-152.09 152.086S5.91 242.004 5.91 158.008 74.004 5.918 158 5.918s152.09 68.094 152.09 152.09"
     style="stroke:none;fill-rule:nonzero;fill:#fff;fill-opacity:1"
     id="path1" />
  <path
     d="M315.48 146.95c-1.433-20.446-6.714-40.11-15.687-58.45-9.3-18.98-22.168-35.7-38.25-49.668-14.613-12.7-31.156-22.484-49.18-29.09C194.957 3.363 176.691.13 158.074.13h-.015c-45.778 0-89.235 19.8-119.227 54.324C24.855 70.54 14.445 88.891 7.891 108.988 1.563 128.398-.914 148.605.52 169.051c1.433 20.445 6.707 40.11 15.687 58.449 9.3 18.98 22.168 35.7 38.25 49.668 14.613 12.7 31.156 22.484 49.184 29.09 17.406 6.379 35.671 9.613 54.296 9.613 45.774 0 89.239-19.8 119.231-54.328 13.977-16.082 24.387-34.434 30.941-54.531 6.329-19.41 8.805-39.617 7.371-60.063M63.055 267.273C2.707 214.836-3.711 123.406 48.727 63.06c28.617-32.946 68.87-49.82 109.336-49.82 33.664-.005 67.468 11.671 94.878 35.488 60.352 52.437 66.77 143.867 14.332 204.218-28.617 32.942-68.87 49.817-109.336 49.817-33.664 0-67.476-11.672-94.882-35.489"
     style="stroke:none;fill-rule:nonzero;fill:#1b4d3a;fill-opacity:1"
     id="path2" />
  <path
     d="M96.848 96.805c-16.223 16.218-25.153 37.793-25.153 60.742 0 22.39 8.508 43.469 23.993 59.562l7.601-7.648c-12.68-13.434-20.453-31.54-20.453-51.465 0-41.387 33.559-74.957 74.945-74.957 19.75 0 37.703 7.645 51.094 20.125l7.863-7.918c-16.031-15.234-36.937-23.601-59.14-23.601-22.946 0-44.52 8.937-60.75 25.16"
     style="stroke:none;fill-rule:nonzero;fill:#1b4d3a;fill-opacity:1"
     id="path3" />
  <path
     d="M232.742 158c0 41.395-33.562 74.957-74.957 74.957-19.613 0-37.465-7.543-50.82-19.867l-7.582 7.629c15.914 14.68 36.449 22.722 58.215 22.722 22.937 0 44.507-8.925 60.738-25.148 16.226-16.23 25.16-37.797 25.16-60.75 0-21.969-8.191-42.672-23.125-58.625l-7.844 7.89c12.536 13.399 20.215 31.403 20.215 51.192"
     style="stroke:none;fill-rule:nonzero;fill:#8f2d1e;fill-opacity:1"
     id="path4" />
  <path
     d="M26.793 155.316s7.273-1.328 9.078 13.754c0 0 1.402 17.946 9.652 36.61 0 0-10.855-1.875-13.484-11.805 0 0-6.027-15.5-5.246-38.559m16.68-36.961s-7.188-7.386 7.32-15.218c0 0 4.227 15.918-7.32 15.218m13.832 84.836s8.133 17.352 17.765 26.961c0 0 8.848 7.336 3.262 16.098 0 0-15.793-12.984-24.078-28.957-4.902-9.445 3.05-14.102 3.05-14.102m-5.788 15.699s8.78 15.704 24.09 29.204c0 0-10.649 2.84-17.196-5.078 0 0-11.957-11.555-20.894-32.825 0 0 6.05-4.242 14 8.7m-2.735-13.743s-8.914-18.402-9.758-36.375c-.496-10.628 8.676-11.53 8.676-11.53s.125 19.16 4.852 31.917c0 0 4.965 10.367-3.77 15.988"
     style="stroke:none;fill-rule:nonzero;fill:#1b4d3a;fill-opacity:1"
     id="path5" />
  <path
     d="M35.785 110.457s8.387 2.133 3.504 16.516c0 0-2.793 8.011-4.305 28.164 0 0-8.988-6.38-7.078-16.473 0 0 .457-7.55 7.88-28.207m2.366 45.602s-1.41-11.082 2.864-28.188c2.574-10.32 12.797-6.656 12.797-6.656s-4.122 8.5-5.36 22.047c0 0 0 11.496-10.3 12.797m250.683-.743s-7.277-1.328-9.082 13.754c0 0-1.399 17.946-9.652 36.61 0 0 10.859-1.875 13.488-11.805 0 0 6.027-15.5 5.246-38.559m-16.684-36.961s7.188-7.386-7.316-15.218c0 0-4.227 15.918 7.316 15.218m-13.832 84.836s-8.132 17.352-17.761 26.961c0 0-8.852 7.336-3.27 16.098 0 0 15.797-12.984 24.078-28.957 4.906-9.445-3.047-14.102-3.047-14.102m5.793 15.699s-8.785 15.704-24.086 29.204c0 0 10.649 2.84 17.188-5.078 0 0 11.965-11.555 20.898-32.825 0 0-6.054-4.242-14 8.7m2.735-13.743s8.914-18.402 9.757-36.375c.497-10.628-8.675-11.53-8.675-11.53s-.13 19.16-4.852 31.917c0 0-4.969 10.367 3.77 15.988"
     style="stroke:none;fill-rule:nonzero;fill:#1b4d3a;fill-opacity:1"
     id="path6" />
  <path
     d="M279.844 110.457s-8.387 2.133-3.512 16.516c0 0 2.8 8.011 4.313 28.164 0 0 8.98-6.38 7.07-16.473 0 0-.45-7.55-7.871-28.207m-2.367 45.602s1.41-11.082-2.864-28.188c-2.574-10.32-12.8-6.656-12.8-6.656s4.125 8.5 5.359 22.047c0 0-.004 11.496 10.305 12.797M65.7 157.45c0-50.727 41.269-91.993 91.991-91.993 24.489 0 46.762 9.61 63.266 25.262l2.066-2.09a94.4 94.4 0 0 0-28.394-18.617c-11.7-4.95-24.125-7.457-36.938-7.457-12.808 0-25.23 2.508-36.937 7.457-11.297 4.777-21.445 11.62-30.16 20.336s-15.555 18.863-20.336 30.164C65.313 132.21 62.8 144.64 62.8 157.449c0 12.813 2.511 25.238 7.457 36.938a94.6 94.6 0 0 0 19.234 29.035l2.067-2.086c-16-16.563-25.86-39.094-25.86-63.887"
     style="stroke:none;fill-rule:nonzero;fill:#1b4d3a;fill-opacity:1"
     id="path7" />
  <path
     d="M245.133 120.512a94.7 94.7 0 0 0-18.176-27.93l-2.074 2.094c15.379 16.449 24.808 38.531 24.808 62.773 0 50.727-41.27 91.992-92 91.992-23.93 0-45.757-9.183-62.14-24.218l-2.067 2.093a94.6 94.6 0 0 0 27.27 17.57c11.707 4.95 24.129 7.458 36.937 7.458 12.813 0 25.239-2.508 36.938-7.457 11.305-4.778 21.453-11.621 30.168-20.336s15.555-18.867 20.336-30.164c4.945-11.7 7.457-24.13 7.457-36.938 0-12.812-2.512-25.238-7.457-36.937"
     style="stroke:none;fill-rule:nonzero;fill:#8f2d1e;fill-opacity:1"
     id="path8" />
  <path
     d="M198.258 172.145c4.148-12.93-1.082-19.282-17.336-16.79a15.22 15.22 0 0 0-10.012-6.69 15.2 15.2 0 0 0-8.066.67c1.05-.726 2.515-1.42 4.55-1.882-4.484-2.043-9.265-6.254-13.414-15.418 2.079-1.988 6.622 5.574 6.622 5.574 6.808-23.406-12.297-33.468-13.637-33.808l-.57-.16.007-.04s-2.297-2.636-3.437-5.097c-1.88 2.773-.922 4.332-.922 4.332l-13.277 9.457-.184 4.953 3.55 1.258 3.263-3.887c4.738 3.02 9.117 1.067 9.117 1.067-5.59 5.23-8.465 11.996-8.465 11.996-5.113 2.183-6.734 7.761-7 10.156l.039-.004s-.11.746-.094 1.871l.004.098h-.004c.04 1.953.477 4.972 2.531 7.25 0 0-3.48-2.504-4.128-7.551l-8.973-1.668-1.672 9.004c-1.527 8.191 4.96 10.5 4.96 10.5l1.145-6.352s-2.753-.847-2.464-2.41c.296-1.562.921-5.176.921-5.176s1.11.024 2.786.836c1.886.918 4.488 2.832 7.02 6.856l-4.794 2.336-1.113 5.953 7.738 4.559c8.801 5.28 11.914-.043 11.914-.043l-5.386-3.04c-.922 1.22-2.696 1.098-2.696 1.098l-6.984-4.144.371-2.004s4.238-1.215 6.695-1.82l6.055-1.766-3.836 2.652c6.188 7.602 23.047 12.07 27.246 11.613 0 0-3.078 1.004-5.887 1.27 0 0-1.402 5.371 3.801 8.793 2.403 1.578 6.676 3.937 6.676 3.937-1.871 1.34-4.145 2.973-5.79 4.16l-.269 1.454c-1.316 8.226 5.543 9.547 5.543 9.547l.926-5.825s-2.86-.242-2.594-1.812l.23-1.309c1.11-.8 3.567-2.547 5.641-4.02l2.727 1.934c2.41 3.282-1.289 12.102-1.289 12.102-5.715 0-6.273 5.773-6.273 5.773l7.5.028c.566-3.774 3.48-3.555 3.48-3.555l2.95-15.352-4.645-3.68 1.46-1.523-2.355-3.191a15.25 15.25 0 0 0 4.985-8.723c.503-2.722.25-5.414-.602-7.851 8.621.464 7.156 4.586 5.004 12.191-5.34 18.902 15.453 21.91 15.453 21.91-8.73-5.547-4.742-20.597-4.742-20.597"
     style="stroke:none;fill-rule:nonzero;fill:#1b4d3a;fill-opacity:1"
     id="path9" />
  <path
     d="m 139.441,206.781 v 15.004 h -2.902 V 209.68 h -1.7 v -2.899 z m 9.043,5.192 c -0.001,0.52667 0.18867,0.97967 0.57,1.359 0.372,0.37533 0.82133,0.563 1.348,0.563 0.50916,0.007 0.99865,-0.19634 1.352,-0.563 0.38,-0.37867 0.57,-0.832 0.57,-1.36 v -0.679 c 0,-0.52667 -0.19,-0.97733 -0.57,-1.352 -0.35421,-0.36482 -0.84359,-0.5668 -1.352,-0.558 -0.50714,-0.01 -0.99538,0.19242 -1.347,0.558 -0.37129,0.35072 -0.57812,0.84132 -0.57,1.352 z m -2.37,7.504 2.507,-1.454 c 0.457,0.782 1.047,1.172 1.781,1.172 0.50901,0.008 0.99848,-0.19571 1.352,-0.562 0.38,-0.37933 0.57,-0.82867 0.57,-1.348 v -0.89 c -0.60641,0.26364 -1.26076,0.39914 -1.922,0.398 -1.324,0 -2.46,-0.469 -3.398,-1.41 -0.94867,-0.94533 -1.42267,-2.082 -1.422,-3.41 v -0.68 c 0,-1.32733 0.474,-2.46133 1.422,-3.402 0.937,-0.946 2.074,-1.422 3.398,-1.422 1.32733,6.7e-4 2.46167,0.47467 3.403,1.422 0.945,0.941 1.422,2.074 1.422,3.402 v 5.992 c 0,1.32 -0.477,2.453 -1.422,3.399 -0.94133,0.942 -2.07567,1.41333 -3.403,1.414 -1.84,-6.7e-4 -3.26967,-0.87433 -4.289,-2.621 m 20.055,-12.696 -3.914,8.563 h 2.484 V 211.8 h 2.899 v 3.543 h 1.133 v 2.902 h -1.133 v 3.54 h -2.899 v -3.54 h -6.254 v -1.633 l 4.493,-9.832 z m 5.711,12.696 2.508,-1.454 c 0.46,0.782 1.05367,1.17267 1.781,1.172 0.50901,0.008 0.99848,-0.19571 1.352,-0.562 0.37933,-0.37933 0.56933,-0.82867 0.57,-1.348 v -0.691 c -6.7e-4,-0.52667 -0.19067,-0.97733 -0.57,-1.352 -0.35489,-0.36382 -0.84382,-0.56561 -1.352,-0.558 -0.77333,-6.7e-4 -1.367,0.399 -1.781,1.199 l -2.168,-0.59 0.937,-8.512 h 7.055 v 2.899 h -4.434 l -0.199,2.132 c 0.228,-0.0267 0.42467,-0.0397 0.59,-0.039 1.32733,0 2.46533,0.47267 3.414,1.418 0.94533,0.94133 1.418,2.07567 1.418,3.403 v 0.691 c 0,1.32 -0.47267,2.453 -1.418,3.399 -0.94933,0.942 -2.08733,1.41333 -3.414,1.414 -1.84,-6.7e-4 -3.27,-0.87433 -4.29,-2.621"
     style="fill:#1b4d3a;fill-opacity:1;fill-rule:nonzero;stroke:none"
     id="path14"
     sodipodi:nodetypes="cccccccccccsscccccccccsccccscccssccccccccccccccccccccccccccccccccccccssccc" />
</svg>
