<?xml version="1.0" encoding="UTF-8" standalone="no"?>
<svg
   xml:space="preserve"
   id="Layer_1"
   width="257.556"
   height="300"
   x="0"
   y="0"
   version="1.1"
   sodipodi:docname="al-ittihad.svg"
   inkscape:version="1.4.2 (f4327f4, 2025-05-13)"
   xmlns:inkscape="http://www.inkscape.org/namespaces/inkscape"
   xmlns:sodipodi="http://sodipodi.sourceforge.net/DTD/sodipodi-0.dtd"
   xmlns="http://www.w3.org/2000/svg"
   xmlns:svg="http://www.w3.org/2000/svg"><defs
     id="defs1" /><sodipodi:namedview
     id="namedview1"
     pagecolor="#ffffff"
     bordercolor="#000000"
     borderopacity="0.25"
     inkscape:showpageshadow="2"
     inkscape:pageopacity="0.0"
     inkscape:pagecheckerboard="0"
     inkscape:deskcolor="#d1d1d1"
     inkscape:zoom="2.8366667"
     inkscape:cx="128.67215"
     inkscape:cy="150"
     inkscape:window-width="1920"
     inkscape:window-height="1111"
     inkscape:window-x="-9"
     inkscape:window-y="-9"
     inkscape:window-maximized="1"
     inkscape:current-layer="ITTIHAD_CLUB" /><style
     id="style1"
     type="text/css">.st0{fill:#261e1d}.st1{fill:#fef201}</style><g
     id="الشعار"
     transform="translate(-129.398 -108.176)scale(.51635)"><path
       id="path1"
       d="M716.3 619.6h-26.1V241.5l-33.3-32h-267L250.6 344.3v88.2l31 31.9h26.7v154.8h-49.6s-8.1.8-8.1 10.5v128.8l32.4 32h460.1s6.3-.7 6.3-9.7V651.6Z"
       class="st0" /><path
       id="path2"
       d="M262.2 755H713V630.2h-59.9v-409H393.2L261 349.6v78.9h59.3v202.2h-57.8z"
       class="st1" /><path
       id="path3"
       d="M623.2 327.1V425s8.6 115.6-136.7 200.8c0 0-128.4-63.7-137.9-197V327.2c0-.1 127.1-79.7 274.6-.1"
       class="st0" /><path
       id="path4"
       d="M601.7 329.2 361.9 438.7s-1.8-11.2-1.8-24.3v-80.8c0 .1 113.7-65.9 241.6-4.4"
       class="st1" /><path
       id="path5"
       d="M423.3 502.3V564s-30.4-31.4-36-46.4l36-16.4z"
       class="st1" /><path
       id="path6"
       d="M486.5 473v140.3l-32.4-22.2V486.6l32.4-14.3z"
       class="st1" /><path
       id="path7"
       d="M549.7 444v121.3l-32 28.1v-135l32-14.9z"
       class="st1" /><path
       id="path8"
       d="m612.8 415.7-30.8 13v94.1s30.4-39 30.8-107.1"
       class="st1" /><g
       id="نادي_الاتحاد" /><g
       id="JEDDAH"><path
         id="ellipse21"
         class="st0"
         sodipodi:type="arc"
         sodipodi:cx="104.40252"
         sodipodi:cy="397.84912"
         sodipodi:rx="2.7"
         sodipodi:ry="3"
         sodipodi:start="0"
         sodipodi:end="0.31147005"
         sodipodi:arc-type="slice"
         d="m 107.10252,397.84912 a 2.7,3 0 0 1 -0.12991,0.91938 l -2.57009,-0.91938 z" /><ellipse
         id="ellipse23"
         cx="148.17349"
         cy="357.08185"
         class="st0"
         rx="2.7"
         ry="3" /><ellipse
         id="ellipse24"
         cx="150.17712"
         cy="343.94092"
         class="st0"
         rx="2.7"
         ry="3" /></g><g
       id="ITTIHAD_CLUB" /><g
       id="التاريخ"><path
         id="path46"
         d="M516.4 734.1v-20.5H512l-6.2 5.8v3h5.4v11.7z"
         class="st0" /><path
         id="path47"
         d="M528.1 713.6s-8.1-1-8.1 8.2c0 6.1 6.9 5.9 6.9 5.9s-2.7 6.4-4.1 6.4h6.2s6.3-5.7 6.3-13.1-7.2-7.4-7.2-7.4m-.4 10.6c-1.6 0-3-1.4-3-3s1.4-3 3-3 3 1.4 3 3c0 1.7-1.3 3-3 3"
         class="st0" /><path
         id="path48"
         d="m562.3 734.1 6.7-13.8v-6.7h-13v5h8.1l-7.8 15.5z"
         class="st0" /><path
         id="path49"
         d="M538.3 721.2s0-7.7 7-7.7c0 0 7-.9 7 7.7-.5 5-7 9-7 9h7v3.8h-13.2v-4.4l7.9-7.1s.6-4-2.1-4c-1.5 0-1.7 2.7-1.7 2.7z"
         class="st0" /></g></g></svg>
