<?xml version="1.0" encoding="UTF-8" standalone="no"?>
<svg
   width="220.689"
   height="300"
   version="1.1"
   id="svg1"
   sodipodi:docname="al-nassr.svg"
   inkscape:version="1.4.2 (f4327f4, 2025-05-13)"
   xmlns:inkscape="http://www.inkscape.org/namespaces/inkscape"
   xmlns:sodipodi="http://sodipodi.sourceforge.net/DTD/sodipodi-0.dtd"
   xmlns="http://www.w3.org/2000/svg"
   xmlns:svg="http://www.w3.org/2000/svg">
  <defs
     id="defs1" />
  <sodipodi:namedview
     id="namedview1"
     pagecolor="#ffffff"
     bordercolor="#000000"
     borderopacity="0.25"
     inkscape:showpageshadow="2"
     inkscape:pageopacity="0.0"
     inkscape:pagecheckerboard="0"
     inkscape:deskcolor="#d1d1d1"
     inkscape:zoom="2.8366667"
     inkscape:cx="110.34078"
     inkscape:cy="150"
     inkscape:window-width="1920"
     inkscape:window-height="1111"
     inkscape:window-x="-9"
     inkscape:window-y="-9"
     inkscape:window-maximized="1"
     inkscape:current-layer="g26" />
  <style
     id="style1"
     type="text/css">.st0{fill:#0058a3}.st1{fill:#fdce07}.st3{fill-rule:evenodd;clip-rule:evenodd;fill:#0058a3}</style>
  <g
     id="g29"
     transform="translate(-105.763 -66.129)scale(.43221)">
    <path
       id="path1"
       d="M680.5 411.3c-46.2-46.2-110-74.8-180.5-74.8s-134.3 28.6-180.5 74.8-74.8 110-74.8 180.5 28.6 134.3 74.8 180.5 110 74.8 180.5 74.8 134.3-28.6 180.5-74.8 74.8-110 74.8-180.5c-.1-70.5-28.6-134.3-74.8-180.5"
       class="st0"
       style="fill:#22558c" />
    <path
       id="path2"
       d="M500 345.9c33.1 0 64.8 6.6 93.9 18.7 30.2 12.5 57.3 30.8 79.9 53.3 22.6 22.6 40.8 49.7 53.3 79.9 12 29.1 18.7 60.8 18.7 93.9s-6.6 64.8-18.7 93.9c-12.5 30.2-30.8 57.3-53.3 79.9-22.6 22.6-49.7 40.8-79.9 53.3-29.1 12-60.8 18.7-93.9 18.7s-64.9-6.6-93.9-18.7c-30.2-12.5-57.3-30.8-79.9-53.3-22.6-22.6-40.8-49.7-53.3-79.9-12-29.1-18.7-60.8-18.7-93.9s6.6-64.9 18.7-93.9c12.5-30.2 30.8-57.3 53.3-79.9 22.6-22.6 49.7-40.8 79.9-53.3 29-12 60.8-18.7 93.9-18.7"
       class="st1"
       style="display:inline;fill:#fed32c" />
    <path
       id="path3"
       d="M706.1 506.5c-11.3-27.3-27.9-51.9-48.4-72.4s-45.1-37.1-72.4-48.4c-26.3-10.9-55.1-16.9-85.2-16.9-30.2 0-59 6-85.2 16.9-27.3 11.3-51.9 27.9-72.4 48.4-20.6 20.5-37.1 45.1-48.4 72.4-11.1 26.3-17.1 55.1-17.1 85.3s6 59 16.9 85.2c11.3 27.3 27.9 51.9 48.4 72.4 20.6 20.5 45.1 37.1 72.4 48.4 26.3 10.9 55.1 16.9 85.2 16.9 30.2 0 59-6 85.2-16.9 27.3-11.3 51.9-27.9 72.4-48.4 20.5-20.6 37.1-45.1 48.4-72.4 10.9-26.3 16.9-55.1 16.9-85.2.2-30.2-5.8-59-16.7-85.3"
       class="st0"
       style="fill:#22558c" />
    <circle
       id="ellipse3"
       cx="500"
       cy="591.8"
       r="151"
       style="fill-rule:evenodd;clip-rule:evenodd;display:inline;fill:#fed32c"
       transform="rotate(-45.001 499.998 591.778)" />
    <path
       id="path4"
       d="m374.9 525.6 9.1 7.5 4.8-8c1 8.4 3.6 14 6.6 18.5 3.9 5.9 8.8 7.9 10.7 14.9.7 2.6 5 8.1 9.9 12.6 6.2 5.6 10.5 8 13.8 10.4v8.4c-3.1 4.1-6.4 8.9-1.9 12.8 3.3 2.9 5 3.1 10.3 4.3v7.4c3 2.6 3.8 4.1 5.6 8.5 1.6 3.8 3.1 7.6 4.3 12.3 4.4 1.3 8.1 3.1 12 7v19.7l5.7 3.1c.4 10.4 4.7 11.8 7.1 17.7 5.2-1.2 10.5-1.9 15.7-1.8v-4.3c5.2-.2 6.9-1.1 9.8-2.1 7.8-2.6 8.4-4.8 13-7.3 4.4-2.5 10.2-3.7 15.6-6.6 4-2.1 10.8-6.3 15.6-9.3 3.5-2.2 6.4-3.7 7.7-6.8.5-1.3.5-2.8.5-5 4.5-.1 7.9-.6 10.8-2.6 2.6-1.8 4.1-2.1 7.4-3.1v-6h5.1c1.2-3.5 2.1-5.4 4.6-6.8 1.3-.8 2.6-1.4 4.1-2 3.3-1.4 2.4-6.9 7.8-7.1L593 592l13.5-2.6v-20c-3.4-1.9-4.2-4.3-7.9-5.6-4.3-1.4-9.8-2.3-15.1-3.2-7.5-1.3-8.6-4.8-8.8-8.1-.1-1.7-.4-3.8-2.1-4.9-1.7-1-1.7-.8-3.4-1.9-3.3-2-4.7 1-8.5 3.5-2.5 1.7.2 5.3-2.4 8.4-2.8 3.2-16.3 3.2-20.2 3.9-1.9-2.9-2.2-4.1-3.1-7.4-.8-3.1-.2-5.1-5.2-5.1-2.6 0-3.9.5-5.6 1.7 0-4.5-.1-8.2-4.6-13.5-1-1.2-5.2-4.5-6.1-5.8-1.8-2.5-1.8-3.1-2.7-4.9-.5-.8-1.6-2.1-3.3-2.1-1.1 0-1.4-1.4-1.6-3.2-.3-3.9-3.1-4.7-4.7-7.8l7.4-.5-.1-7.5 12.3 1.3c.5 5.5 2 8.9 4.2 12.6 3.1 5.1 4.6 2.9 6.8 4.5 1.5 1.1 2.1 3.2 3.7 4.2 1.2.7 3.9.6 5.2 1.2 1.7.8 2.5 2.9 4.2 3.5 6.1 2.3 12.2 2.2 18.6 2.2 3.8 0 7.4-5.1 11.1-4.1 4.3 1.2 3.9 3.8 5.8 6 1 1.2 2.1 2.6 3.4 3.4 2 1.2 4.9 1.8 8.4 1.8 4.9 0 6.8-2.6 14.2-2.8 1.3-2.7 2.1-9.3 2.4-12.9 11.3 23.3 14.2 41.5 13.9 61.7-.4 25.7-7 49-20 69.5-13.3 21.1-33.3 39.2-60.1 51.6v-18.6c-2.5-3.8-2.9-4.2-20-2.3-4.8.5-9.7 1.7-13.3 3.6-5.1 2.6-8.6 6-15.6 6-3.3 0-8.8 6.2-16.7 5v-9.7c-4.2-.8-9-.7-13.7-3.8l1.6-9.8c-5.4-2.9-8.4-4.7-11.2-14H449c-4-3.2-10.5-6.1-14.4-10-.5-.5-3.6-4.7-4.7-6.3l-.5-16.7c-3.7-2.8-10.5-4.8-15.3-12.3-2.6-4.1-2.7-11.5-3.4-16-.8-4.9-4.7-15.8-7.7-16.7-2.2-.6-3.8-2.2-5.3-4.1-2-2.5-3-3.6-3.9-5l-1.9-21.7-10.1-6.9 1.9-9.7z"
       class="st3"
       style="display:inline;fill:#22558c" />
    <g
       id="g28">
      <path
         id="path5"
         d="M462.8 524.4c-4.2.1-7.7-.6-10.8-1.9l-12 8.4c-5.5 3.9-11.1-.3-11.5-11.1-3.8 8.7-1.5 12.8 1.6 15.5 3 2.7 9.2 5.6 16.9.2l68.3 97.3 25.5-18c-4.3-.1-8.1-.5-11-1.8l-12.6 8.9-7.5-10.7c7-4.5 9.2-13.7 4.2-21l-18.4-26.1 6.7-4.7c-4.5.5-8.2-.1-11.2-1.7l-12.6 8.9-25-35.6zm20.1 48.6 6.3-4.4 18.6 26.4c3.2 4.6.7 7.7-2.5 9.7z"
         class="st3"
         style="display:inline;fill:#22558c" />
      <path
         id="path6"
         d="M548 599.5c2.7 0 4.8 2.1 4.8 4.8 0 2.6-2.1 4.8-4.8 4.8-2.6 0-4.8-2.1-4.8-4.8s2.2-4.8 4.8-4.8"
         class="st3"
         style="display:inline;fill:#22558c" />
    </g>
    <path
       id="path7"
       d="M624.3 267.6c13.8-18.3 8.1-37.2.6-47.4-8.1-11-29.9-21.8-47.7-16-2.4-3.4-6.7-2.8-8.6.7-6.5-11-18.4-16.2-32.3-16-8.1.1-17.2 2.1-27.5 6-1.5-3.2-3.5-7.1-6.3-12.1l5.7-11.5.6-1.2-.6-1.2-5.9-11.3-2.3-4.6-2.4 4.6-5.9 11.3-.6 1.2.6 1.2 5.7 11.5c-2.8 5.1-4.8 8.9-6.3 12.1-10.3-3.9-19.4-5.9-27.5-6-13.9-.1-25.8 5.1-32.3 16-1.9-3.5-6.1-4.1-8.6-.7-17.8-5.8-39.6 5-47.7 16-7.4 10.2-13.1 29.1.7 47.3h-.1c-3.2 2.2-4.2 4.7-6.3 7.7 4.2-.4 8.1-.9 11.9 1.5 2 1.3 3 3 4.6 5.6-3 2.3-2.7 12.6 6.3 10.2 2.9 3.7 5.9 6.3 9 8.3 2.9 1.9 6.1 2.8 8.8 3-.6.3-1.1.7-1.5 1.3-.4.7-.6 1.6-.4 2.5s.8 1.6 1.5 2.1c.7.4 1.6.6 2.5.4.6-.1 1.2-.3 1.7-.4l1.2 2.7-6.1 6.7 10.3 3 .7 1.6c-.2.1-.4.2-.5.4-.5.4-.9.8-1.3 1.2-.6.8-.9 1.8-.7 2.7 0 .2.1.5.2.7s.2.3.3.5c1.3 1.7 3.3 1.4 6.1.9.6-.1 1.2-.2 1.9-.3 2.7-.4 5.7-.8 8.1-1.2 2.8-.4 5.3-.8 6.1-.9 7.2-1.2 16.9-2.1 26.9-2.7 11.3-.7 23.3-1.1 33-1.1s21.6.4 33 1.1c10.1.6 19.7 1.6 26.9 2.7.8.1 3.3.5 6.1.9 2.4.4 5.4.8 8.1 1.2.7.1 1.3.2 1.9.3 2.8.5 4.8.8 6.1-.9.1-.2.2-.3.3-.5s.2-.5.2-.7c.2-.9-.1-1.9-.7-2.7-.3-.4-.8-.8-1.3-1.2-.2-.1-.3-.2-.5-.4l.7-1.6 10.3-3-6.1-6.7 1.2-2.7c.6.1 1.1.3 1.7.4.9.2 1.8.1 2.5-.4.7-.4 1.3-1.2 1.5-2.1s.1-1.8-.4-2.5c-.3-.6-.8-1-1.5-1.3 2.7-.2 5.9-1.1 8.8-3 3-1.9 6.1-4.5 9-8.3 9 2.4 9.3-7.9 6.3-10.2 1.6-2.7 2.6-4.4 4.6-5.6 3.8-2.4 7.7-1.9 11.9-1.5-1.9-2.9-3-5.4-6.2-7.6m-12.7-50.1c7.7 6.2 14.5 20.3 3.5 35.6l3.4 13.7c-1 .4-1.9 1-2.6 1.6-.3-1.6-.9-3.1-1.6-4.2-3.6 2.4-5.3 4.3-7.6 9.9-.6-.7-1.2-1.3-1.9-1.8-1.5-1-3.7-1.2-5.4-1.1-2.4.1-3.1-2.3-3.7-4.2-2.1.8-2.2 3.3-1.2 5.9-2.4 1-5.4 2.4-7.7 3.6l2.2 2.1c1.6 1.9 3.9 3.6 6 5.3-2.1.9-2.4.2-4.6-.1-.5 3.1 4 6.3 9.6 5.2-.9 1.2-1.6 2.4-2.8 3.3-2.9 2.4-5.9 4-8.4 3.9-2.2 0-3.7-2.2-4.8-4.1 1.2-.3 2.3-.9 3.1-1.8 1.1-1.2 1.7-2.8 1.7-4.6s-.7-3.4-1.7-4.5c-1.1-1.2-2.7-2-4.5-2s-3.3.8-4.5 2c-1.1 1.2-1.7 2.8-1.7 4.5 0 1.3.4 2.6 1 3.6-2.3 1.6-5.1 3.4-7.7 3.4-2.4 0-4.8-2.2-6.1-4.1-1.4-2-2.2-4.9-2.1-7.9 0-.4 0-.8.1-1.2.4 1.2 3.1 1.1 4.7 1.1 3.6 0 4.6.9 6.2 5.2 1.9-2.8 1.7-6.2.4-9 5.1.4 6.9-1.2 9.9-3.3-4.6-1.3-5.5-4.3-8.4-6.7 1.2-1.7 1.9-3.4 2.2-5-2.5.2-5 .5-7.5.7.6-4.4 2.9-6 6.5-8.3-3-1.7-5.5-2.3-9-.3-.3-3.1-1.4-5.9-2.8-8.5 6.4-9.2 9.9-18.3 8.7-29.7 18.3-7.3 32.1-3.9 39.1 1.8M500 306.1h8.5c1.1 0 2 .9 2 2s-.9 2-2 2h-17c-1.1 0-2-.9-2-2s.9-2 2-2zm-19.7 2.1c0 2.2-1.6 3.9-3.6 3.9s-3.6-1.8-3.6-3.9c0-2.2 1.6-3.9 3.6-3.9s3.6 1.7 3.6 3.9m-14.2 1.3c.2 1.1-.6 2.1-1.7 2.3l-13.4 2c-1.1.2-2.1-.6-2.3-1.7s.6-2.1 1.7-2.3l13.4-2c1.1-.1 2.1.6 2.3 1.7m-25.4 3.6c0 2.2-1.6 3.9-3.6 3.9s-3.6-1.8-3.6-3.9c0-2.2 1.6-3.9 3.6-3.9s3.6 1.7 3.6 3.9m79-4.9c0-2.2 1.6-3.9 3.6-3.9s3.6 1.8 3.6 3.9c0 2.2-1.6 3.9-3.6 3.9s-3.6-1.7-3.6-3.9m14.2 1.3c.2-1.1 1.2-1.9 2.3-1.7l13.4 2c1.1.2 1.9 1.2 1.7 2.3s-1.2 1.9-2.3 1.7l-13.4-2c-1.1-.2-1.8-1.2-1.7-2.3m25.4 3.6c0-2.2 1.6-3.9 3.6-3.9s3.6 1.8 3.6 3.9c0 2.2-1.6 3.9-3.6 3.9-1.9 0-3.6-1.7-3.6-3.9m-70.4-112c-1.1 4-1.3 7.8-1.2 13.2v1c.1 5.8.2 11.5-2.9 15.4l-1.1 1.3.9 1.4 5.7 9.4c-1.4-.2-3.1.2-5.2 1.3 3.7 1.4.8 4.2.8 6.2-4.5.1-6.9.3-10.2-1.2-.1 3.9.1 5.5 2.3 8.8.2.4.5.7.8 1.1-3.4 2.2-3.1 3.4-7.2 4.3 1 3.4 2.5 6 7.6 6.5-1 2.3-1.3 4.8-1.2 7.4 2.7-.7 3.4-3.5 5.2-4.2 4-1.6 8-.3 11.9-1.6 1.8 7.9-5.3 15.7-11 15.8-3.3.1-7.8-3.1-10.9-7.1.8-1.1 1.4-2.5 1.4-4.1 0-1.8-.7-3.4-1.7-4.5-1.1-1.2-2.7-2-4.5-2s-3.3.8-4.5 2c-1.1 1.2-1.7 2.8-1.7 4.5 0 1.8.7 3.4 1.7 4.6.7.7 1.5 1.3 2.4 1.6-2 2.6-3.1 3.7-5.1 4.9s-4.1 1.8-5.7 1.7c-2.4 0-5.1-1.5-7.2-4-1.3-1.6-2.6-3.9-3-6.8 1.7 0 3.6-.2 5.2-.4 4.2-.6 4.8-1.5 8.8 1.5-.3-3-.3-5.3-1.9-7.3 2-.3 4.2-1 5.9-3.5l2.3-3.6c-1.5-.4-2.8-.1-4.2-.1-.8-.2-1.6-.8-2.5-1.2-1-.5-1.9-1.2-3.1-1.6 1-2.2 1.2-6.6-1.5-8.8-1.2 4.1-2.6 4.9-6.2 4.9-.2-3.6.6-6.5 1.8-9.8-3.4-.4-5.7 1-7.3 3.9-.6-1.6-1.3-3-2-4.4l4.4-7.6c-13.8-17.5-7-32.5.7-39 7.4-6.1 21.7-8.8 43.2.1m65.3 0c7.7 6.4 14.5 21.5.7 39l4.4 7.6c-.7 1.4-1.4 2.8-2 4.4-1.5-2.9-3.9-4.3-7.3-3.9 1.2 3.3 2 6.2 1.8 9.8-3.6-.1-5-.8-6.2-4.9-2.7 2.2-2.5 6.6-1.5 8.8-1.2.4-2.1 1.1-3.1 1.6-.9.4-1.7 1.1-2.5 1.2-1.4-.1-2.7-.3-4.2.1l2.3 3.6c1.7 2.5 3.9 3.2 5.9 3.5-1.5 1.9-1.5 4.2-1.9 7.3 4-3 4.6-2.1 8.8-1.5 1.6.2 3.5.4 5.2.4-.4 3-1.7 5.2-3 6.8-2.1 2.6-4.8 4-7.2 4-1.6 0-3.7-.5-5.7-1.7s-3.1-2.3-5.1-4.9c.9-.3 1.8-.9 2.4-1.6 1.1-1.2 1.7-2.8 1.7-4.6s-.7-3.4-1.7-4.5c-1.1-1.2-2.7-2-4.5-2s-3.3.8-4.5 2c-1.1 1.2-1.7 2.8-1.7 4.5 0 1.5.5 2.9 1.4 4.1-3 4-7.6 7.2-10.9 7.1-5.7-.2-12.8-8-11-15.8 4 1.4 8 0 11.9 1.6 1.7.7 2.4 3.5 5.2 4.2.2-2.6-.1-5.1-1.1-7.4 5.1-.6 6.6-3.1 7.6-6.5-4.1-.9-3.7-2.1-7.2-4.3.3-.3.5-.7.8-1.1 2.2-3.3 2.4-4.9 2.3-8.8-3.4 1.5-5.7 1.3-10.2 1.2 0-2-2.9-4.8.8-6.2-2.2-1.1-3.9-1.4-5.2-1.3l5.7-9.4.9-1.4-1.1-1.3c-3.1-3.8-3-9.5-2.9-15.4v-1c.1-5.5-.1-9.2-1.2-13.2 21.5-9 35.8-6.3 43.1-.1m5.4 64c1.9 0 3.4 1.6 3.4 3.6s-1.5 3.6-3.4 3.6-3.4-1.6-3.4-3.6c-.1-2 1.5-3.6 3.4-3.6M500 209.4c-1.8 0-3.2-1.4-3.2-3.2 0-1.7 1.4-3.2 3.2-3.2 1.7 0 3.2 1.4 3.2 3.2s-1.5 3.2-3.2 3.2m0 15.1c1.7 0 3.2 1.4 3.2 3.2 0 1.7-1.4 3.2-3.2 3.2s-3.2-1.4-3.2-3.2 1.4-3.2 3.2-3.2m0 33.1c1.9 0 3.4 1.6 3.4 3.6s-1.5 3.6-3.4 3.6-3.4-1.6-3.4-3.6 1.5-3.6 3.4-3.6m-56.1 11.1c0 2-1.5 3.6-3.4 3.6s-3.4-1.6-3.4-3.6 1.5-3.6 3.4-3.6c1.8 0 3.4 1.6 3.4 3.6m20.4 25q3.15-1.65 6-4.5c1.7 1.5 3.6 2.7 5.3 3.6q1.95 1.05 3.9 1.5c-1.2 0-2.4.1-3.6.2-5.6.3-11.1.7-16.6 1.2 1.7-.4 3.3-1.1 5-2m29.3-2.4c2.3-1.5 4.5-3.6 6.4-6 1.9 2.4 4.2 4.5 6.4 6 1.8 1.3 3.6 2.2 5.5 2.8-4-.1-7.9-.1-11.9-.1-3.9 0-7.9 0-11.9.1 1.8-.7 3.6-1.6 5.5-2.8m30.8 1.5c1.7-.9 3.6-2.1 5.3-3.6q2.85 2.85 6 4.5c1.7.9 3.3 1.5 4.9 1.9-5.5-.5-11.1-.9-16.6-1.2-1.2-.1-2.4-.1-3.6-.2 1.4-.2 2.7-.7 4-1.4m-102.6 5.3c2.3 1 4.3 1.6 6.2 1.9-3.4.6-6.8 1.3-10.1 2.1 1.3-1.1 2.8-2.5 3.9-4m20.9-6.7c1.2 1.2 2.1 2.2 3.4 3 2.1 1.3 4.9 1.8 7.5 1.9-.3 0-.5.1-.8.1-5.9.6-11.6 1.4-17.3 2.3 2.8-1.4 5.1-3.9 7.2-7.3m111.2 3c1.3-.8 2.2-1.8 3.4-3 2.1 3.4 4.5 5.9 7.3 7.3-5.7-.9-11.5-1.7-17.3-2.3-.3 0-.5-.1-.8-.1 2.4-.2 5.3-.7 7.4-1.9m24.3 3.7c1.1 1.5 2.6 2.9 3.9 3.9-3.3-.7-6.7-1.4-10.1-2.1 1.9-.2 3.9-.8 6.2-1.8m-150.9-82.2c-1.2 11.4 2.3 20.4 8.7 29.7-1.4 2.7-2.5 5.4-2.8 8.5-3.5-2-6-1.4-9 .3 3.6 2.3 5.9 3.9 6.5 8.3-2.5-.2-5-.5-7.5-.7.3 1.7 1 3.4 2.2 5-2.9 2.4-3.7 5.4-8.4 6.7 3 2.1 4.8 3.7 9.9 3.3-1.3 2.9-1.5 6.2.4 9 1.6-4.4 2.6-5.2 6.2-5.2 1.6 0 4.3.1 4.7-1.1 0 .4.1.8.1 1.2 0 3-.7 5.9-2.1 7.9-1.3 1.9-3.7 4.1-6.1 4.1-2.6 0-5.4-1.8-7.7-3.4.7-1 1-2.3 1-3.6 0-1.8-.7-3.4-1.7-4.5-1.1-1.2-2.7-2-4.5-2s-3.3.8-4.5 2c-1.1 1.2-1.7 2.8-1.7 4.5 0 1.8.7 3.4 1.7 4.6.8.9 1.9 1.6 3.1 1.8-1.1 1.9-2.6 4.1-4.8 4.1-2.6 0-5.5-1.5-8.4-3.9-1.1-.9-1.9-2.1-2.8-3.3 5.6 1 10.1-2.2 9.6-5.2-2.2.2-2.5 1-4.6.1 2.1-1.7 4.4-3.5 6-5.3l2.2-2.1c-2.3-1.3-5.2-2.7-7.7-3.6 1-2.6 1-5.1-1.2-5.9-.6 1.9-1.3 4.3-3.7 4.2-1.7-.1-3.9 0-5.4 1.1-.7.5-1.3 1.1-1.9 1.8-2.3-5.6-3.9-7.5-7.6-9.9-.7 1.2-1.2 2.6-1.6 4.2-.7-.6-1.6-1.2-2.6-1.6l3.4-13.7c-11-15.3-4.2-29.3 3.5-35.6 7.2-5.9 21-9.3 39.1-1.8M391 290.1c-1.2.6-2.7-.1-3.5-1.6-.7-1.5-.4-3.2.8-3.8s2.7.1 3.5 1.6c.7 1.6.4 3.3-.8 3.8m24.1 27.3 3.4-3.7 5.7 1-3.6 4.3zm164.2 1.6-3.6-4.3 5.7-1 3.4 3.7zm33.2-30.5c-.7 1.5-2.3 2.2-3.5 1.6s-1.5-2.3-.8-3.8 2.3-2.2 3.5-1.6 1.5 2.3.8 3.8"
       class="st0"
       style="display:inline;fill:#22558c" />
    <g
       id="g27" />
    <g
       id="g26" />
  </g>
</svg>
