<?xml version="1.0" encoding="UTF-8" standalone="no"?>
<svg
   xml:space="preserve"
   width="273.861"
   height="365.148"
   viewBox="0 0 138.843 185.208"
   version="1.1"
   id="svg17"
   sodipodi:docname="al-raed.svg"
   inkscape:version="1.4.2 (f4327f4, 2025-05-13)"
   xmlns:inkscape="http://www.inkscape.org/namespaces/inkscape"
   xmlns:sodipodi="http://sodipodi.sourceforge.net/DTD/sodipodi-0.dtd"
   xmlns="http://www.w3.org/2000/svg"
   xmlns:svg="http://www.w3.org/2000/svg"><defs
     id="defs17" /><sodipodi:namedview
     id="namedview17"
     pagecolor="#ffffff"
     bordercolor="#000000"
     borderopacity="0.25"
     inkscape:showpageshadow="2"
     inkscape:pageopacity="0.0"
     inkscape:pagecheckerboard="0"
     inkscape:deskcolor="#d1d1d1"
     inkscape:zoom="2.3305618"
     inkscape:cx="136.87687"
     inkscape:cy="182.57401"
     inkscape:window-width="1920"
     inkscape:window-height="1111"
     inkscape:window-x="-9"
     inkscape:window-y="-9"
     inkscape:window-maximized="1"
     inkscape:current-layer="svg17" /><path
     d="M662.26 132.69c-51.19 0-84.5-11.79-113.79-26.57C505.05 84.22 464.87 50 399.94 50s-104.98 34.22-148.53 56.12c-29.29 14.78-62.6 26.57-113.79 26.57v218.13c0 11.15 1.3 21.38 3.76 30.72v85.41c0 82.82 26.96 150.73 70.89 199.33C259.31 718.25 328.13 750 399.81 750s140.36-31.75 187.54-83.73c43.94-48.6 70.89-116.52 70.89-199.33v-85.41c2.46-9.33 3.76-19.57 3.76-30.72V132.69Z"
     style="fill:#fff"
     transform="translate(-36.412 -13.23)scale(.26458)"
     id="path1" /><path
     d="M581.9 439.08c28.51 0 45.75-7.65 57.54-21 15.03-16.98 22.94-39.4 22.94-67.27V132.69c-51.19 0-84.5-11.79-113.79-26.57C505.17 84.22 465 50 400.06 50s-104.98 34.22-148.53 56.12c-29.29 14.78-62.6 26.57-113.79 26.57v218.13c0 27.99 7.91 50.29 22.94 67.27 11.79 13.35 29.03 21 57.54 21H581.9Z"
     style="fill:#be1a19"
     transform="translate(-36.412 -13.23)scale(.26458)"
     id="path2" /><path
     d="M639.32 460.72c-11.79 13.35-29.03 21-57.54 21H218.1c-28.51 0-45.75-7.65-57.55-21-8.94-10.24-15.42-22.29-19.18-36.42v42.64c0 82.82 26.96 150.73 70.89 199.33C259.31 718.25 328.13 750 399.81 750s140.36-31.75 187.54-83.73c43.94-48.6 70.89-116.52 70.89-199.33V424.3c-3.5 14-9.85 26.18-18.92 36.42"
     style="fill:#211d15"
     transform="translate(-36.412 -13.23)scale(.26458)"
     id="path3" /><path
     d="M309.73 204.62c-11.41 7.39-21.77 16.2-30.98 26.18l7.65-.26zm-18.28 77.11 66.23 12.57 64.54-54.05-11.66-51.06-57.29-4.67c-9.33 2.72-18.27 6.35-26.96 10.63l-35.51 39.27zM275.9 424.04l-27.48-68.17-13.74-15.42v2.59c0 35.38 11.15 68.04 30.07 95h3.89zm9.59-140.49-.65-47.05-11.41.39c-21.9 26.05-35.9 58.97-38.36 95.13l15.42 17.24zm274.38 17.5c-3.76-14.39-9.46-27.87-16.72-40.44v15.55zm-131.68-61.44 67.65 44.84 41.34-9.85v-18.92l1.81-1.94c-21.13-32.92-53.66-57.67-92.02-69.08l-30.46 4.28zm3.63-58.71c-10.24-1.94-20.87-3.11-31.75-3.11-9.59 0-19.05.78-28.25 2.46l41.08 3.37zm131.42 135.83-24.37-36.42-41.08 9.72-20.61 79.32 35.77 51.58 38.88-12.44c8.55-19.96 13.35-41.99 13.35-65.19.13-9.21-.65-18.02-1.94-26.57m-49.51 109.91-7.65 11.41h29.16c5.05-7.13 9.59-14.65 13.35-22.68zm-5.57-2.34-35.77-51.58-79.19 3.24-41.08 62.08h146.71zm-227.33 3.37-5.44 10.37h41.08zm81.39-129.35 31.36 71.8 78.02-3.11 20.22-78.15-66.1-43.81zm25.92 74.53-31.75-72.84-66.23-12.57-35.77 67.01 27.09 67.39 55.86 16.2h7.52z"
     style="fill:#fff"
     transform="translate(-36.412 -13.23)scale(.26458)"
     id="path4" /><path
     d="m477.18 369.22 20.61-79.32 41.08-9.72 24.37 36.42c-.91-5.31-1.94-10.5-3.37-15.68l-16.59-24.88v-15.55c-1.3-2.33-2.72-4.54-4.15-6.87l-1.81 1.94v18.92l-41.34 9.85-67.65-44.84-11.53-50.68 30.46-4.28c-4.92-1.43-10.11-2.72-15.29-3.76l-18.92 2.59-41.08-3.37c-6.35 1.04-12.57 2.59-18.53 4.28l57.29 4.67L422.36 240l-64.54 54.05-66.23-12.57-.65-47.31 35.51-39.27c-5.7 2.85-11.28 6.09-16.59 9.46l-23.33 25.92-7.65.26c-1.81 1.94-3.63 4.02-5.31 5.96l11.41-.39.65 47.05-34.99 65.71-15.42-17.24-.39 8.55 13.74 15.42 27.48 68.17-7.26 14h6.74l5.44-10.37 35.77 10.37h20.87l-55.86-16.2-27.09-67.39 35.77-67.01 66.23 12.57 31.75 72.84-43.29 65.19h7.13l41.21-62.08 79.19-3.24 35.77 51.45-9.33 13.87h7.13l7.65-11.41 34.86-11.28c1.17-2.33 2.2-4.8 3.24-7.13l-38.88 12.44zm-5.57-2.21-78.02 3.24-31.36-71.93 63.51-53.27 66.1 43.81z"
     style="fill:#211d15"
     transform="translate(-36.412 -13.23)scale(.26458)"
     id="path5" /><path
     d="M537.32 438.04H262.68l-7.91 8.94h290.45z"
     style="fill:#cc1619"
     transform="translate(-36.412 -13.23)scale(.26458)"
     id="path6" /><path
     d="m471.09 487.42 74.13-40.44H254.78l74.26 40.44v37.46h142.05z"
     style="fill:#c01a19"
     transform="translate(-36.412 -13.23)scale(.26458)"
     id="path7" /><path
     d="M363.13 686.36h-6.74v-30.85a22.5 22.5 0 0 1-8.68 6.22v-7.39c1.81-.65 3.63-2.07 5.7-4.02 2.07-1.94 3.5-4.28 4.28-6.87h5.44zm10.36-9.85 6.61-.91c.13 1.56.52 2.85 1.3 3.63.65.78 1.56 1.17 2.72 1.17 1.43 0 2.59-.78 3.63-2.33 1.04-1.56 1.56-4.8 1.81-9.72-1.68 2.33-3.89 3.63-6.35 3.63-2.72 0-5.18-1.3-7.13-3.89-2.07-2.59-2.98-5.96-2.98-10.11 0-4.28 1.04-7.78 3.24-10.5 2.07-2.59 4.8-4.02 8.17-4.02 3.63 0 6.48 1.68 8.81 5.05s3.5 8.81 3.5 16.59-1.17 13.48-3.63 16.85c-2.33 3.5-5.44 5.18-9.33 5.18-2.72 0-5.05-.91-6.74-2.72-2.07-1.68-3.24-4.4-3.63-7.9m15.3-17.88c0-2.59-.52-4.67-1.56-6.09-1.04-1.43-2.2-2.2-3.5-2.2s-2.33.65-3.11 1.81c-.78 1.17-1.3 3.11-1.3 5.83s.39 4.8 1.3 6.09 2.07 1.94 3.37 1.94 2.33-.65 3.24-1.81c1.04-1.43 1.56-3.24 1.56-5.57m12.05 16.72 6.74-.91c.13 1.81.78 3.37 1.68 4.41.91 1.04 2.07 1.56 3.24 1.56 1.43 0 2.59-.65 3.63-2.07 1.04-1.43 1.43-3.5 1.43-6.22 0-2.59-.52-4.54-1.43-5.96-.91-1.3-2.2-1.94-3.76-1.94-1.94 0-3.63 1.04-5.18 3.11l-5.44-.91 3.5-22.29h17.89v7.65H410.3l-1.04 7.26c1.56-.91 3.11-1.43 4.67-1.43 2.98 0 5.57 1.3 7.65 4.02 2.07 2.59 3.11 6.09 3.11 10.24 0 3.5-.78 6.61-2.59 9.46-2.33 3.76-5.44 5.7-9.59 5.7-3.24 0-5.96-1.04-8.04-3.24-1.95-1.96-3.24-4.81-3.63-8.44m40.57 11.01v-8.55h-14.52v-7.13l15.29-27.09h5.7v27.09h4.41v7.26h-4.41v8.55h-6.48v-.13zm0-15.81V655.9l-8.17 14.65zm96.43-145.68H262.29c-23.85 0-43.16 21.9-43.16 48.73 0 26.96 19.31 48.73 43.16 48.73h275.54c23.85 0 43.16-21.9 43.16-48.73s-19.44-48.73-43.15-48.73"
     style="fill:#fff"
     transform="translate(-36.412 -13.23)scale(.26458)"
     id="path8" /></svg>
