<?xml version="1.0" encoding="UTF-8" standalone="no"?>
<svg
   xml:space="preserve"
   width="275.681"
   height="362.738"
   viewBox="0 0 140.855 185.208"
   version="1.1"
   id="svg21"
   sodipodi:docname="al-riyadh.svg"
   inkscape:version="1.4.2 (f4327f4, 2025-05-13)"
   xmlns:inkscape="http://www.inkscape.org/namespaces/inkscape"
   xmlns:sodipodi="http://sodipodi.sourceforge.net/DTD/sodipodi-0.dtd"
   xmlns="http://www.w3.org/2000/svg"
   xmlns:svg="http://www.w3.org/2000/svg"><defs
     id="defs21" /><sodipodi:namedview
     id="namedview21"
     pagecolor="#ffffff"
     bordercolor="#000000"
     borderopacity="0.25"
     inkscape:showpageshadow="2"
     inkscape:pageopacity="0.0"
     inkscape:pagecheckerboard="0"
     inkscape:deskcolor="#d1d1d1"
     inkscape:zoom="2.3460459"
     inkscape:cx="137.67847"
     inkscape:cy="181.369"
     inkscape:window-width="1920"
     inkscape:window-height="1111"
     inkscape:window-x="-9"
     inkscape:window-y="-9"
     inkscape:window-maximized="1"
     inkscape:current-layer="svg21" /><path
     d="m273.34 113.45 8.98 27.79s119.64 27.79 235.16 0l8.86-27.18c-.01-.01-85.07-43.2-253-.61"
     style="fill:#ac996a"
     transform="translate(-35.404 -13.23)scale(.26458)"
     id="path1" /><path
     d="m270.12 96.7 3.22 11.47s133.96-44.96 252.39-.18l3.4-10.56c-.01 0-113.22-43.2-259.01-.73"
     style="fill:#ac996a"
     transform="translate(-35.404 -13.23)scale(.26458)"
     id="path2" /><path
     d="m369.77 50.2-13.65.73v7.82l-5.55.19.27 9.91-8.37.28 2.18 9.55 38.59-2.45 1-9.65-8.83.45-.09-9.37-5.55.55zm79.66 1.11L435.82 50l-1.16 7.74-5.52-.65-1.21 9.85-8.32-.98.74 9.78 38.52 3.32 2.43-9.39-8.8-.87 1.31-9.28-5.57-.29zm74.9 14.12-13.11-3.87-2.62 7.38-5.29-1.68-3.05 9.44-7.99-2.53-1.12 9.73 37.19 10.56 4.16-8.76-8.47-2.51 3.04-8.87-5.41-1.34zM275.4 64.19l13.22-3.49 2.4 7.45 5.34-1.53 2.78 9.53 8.05-2.31.85 9.77-37.48 9.48-3.91-8.87 8.54-2.28-2.79-8.95 5.46-1.18z"
     style="fill:#ac996a"
     transform="translate(-35.404 -13.23)scale(.26458)"
     id="path3" /><g
     transform="translate(-35.404 -13.23)scale(.26458)"
     id="g17"><circle
       cx="305.25"
       cy="120.05"
       r="4.61"
       style="fill:#fff"
       id="circle3" /><circle
       cx="318.93"
       cy="130.99"
       r="4.61"
       style="fill:#fff"
       id="circle4" /><circle
       cx="325.6"
       cy="115.44"
       r="4.61"
       style="fill:#fff"
       id="circle5" /><circle
       cx="496.46"
       cy="118.63"
       r="4.61"
       style="fill:#fff"
       id="circle6" /><circle
       cx="482.78"
       cy="129.56"
       r="4.61"
       style="fill:#fff"
       id="circle7" /><circle
       cx="476.11"
       cy="114.02"
       r="4.61"
       style="fill:#fff"
       id="circle8" /><circle
       cx="349.75"
       cy="124.13"
       r="4.61"
       style="fill:#fff"
       id="circle9" /><circle
       cx="369.89"
       cy="122.92"
       r="4.61"
       style="fill:#fff"
       id="circle10" /><circle
       cx="357.76"
       cy="109.69"
       r="4.61"
       style="fill:#fff"
       id="circle11" /><circle
       cx="391"
       cy="106.22"
       r="4.61"
       style="fill:#fff"
       id="circle12" /><circle
       cx="401.44"
       cy="120.98"
       r="4.61"
       style="fill:#fff"
       id="circle13" /><circle
       cx="411.75"
       cy="106.22"
       r="4.61"
       style="fill:#fff"
       id="circle14" /><circle
       cx="435.05"
       cy="122.92"
       r="4.61"
       style="fill:#fff"
       id="circle15" /><circle
       cx="446.21"
       cy="109.69"
       r="4.61"
       style="fill:#fff"
       id="circle16" /><circle
       cx="454.59"
       cy="124.67"
       r="4.61"
       style="fill:#fff"
       id="circle17" /></g><path
     d="M665.96 474.32c-.73-28.64-22.46-102.65-22.46-102.65-14.93-45.87-13.82-85.54-13.82-85.54s-12.03 5.62-20.63 9.58c7.93-40.52 34.36-66.25 34.36-66.25l-64.06-108.47c-70.5 42.83-179.34 40.52-179.34 40.52s-108.84 2.31-179.34-40.52l-64.06 108.47s26.45 25.75 34.36 66.27c-8.6-3.96-20.66-9.6-20.66-9.6s1.11 39.68-13.82 85.54c0 0-21.73 74.01-22.46 102.65 0 0-4.98 68.68 32.69 123.51 0 0 28.46 48.77 91.56 76.36 5.53 2.42 11.32 4.68 17.39 6.73h.01l21.36 10.02c6.1 2.88 12.3 5.56 18.56 8.08 3.17 1.28 7.13 2.92 11.59 4.85 11.04 4.79 25.19 11.39 38.32 18.88 14.7 8.38 28.13 17.89 34.47 27.25 6.34-9.35 19.76-18.85 34.45-27.23 13.13-7.49 27.29-14.09 38.32-18.86 4.45-1.94 8.4-3.56 11.56-4.85 6.3-2.54 12.53-5.25 18.68-8.13l21.43-10.07c6.02-2.02 11.76-4.26 17.25-6.67 63.1-27.59 91.56-76.36 91.56-76.36 37.7-54.83 32.73-123.51 32.73-123.51m-481.8 141.85s-32.52-38.41-39.99-82.09c0 0-12.92-50.06-1.64-95.37l18.58-69.16s15.1-55.82 11.65-77.96l18.88 7.74c2.78 16.92 2.25 36.27-4.69 57.29l-23.3 86.27s-27.79 84.48 26.23 168.61c10.24 15.95 23.03 29.98 37.75 41.66-7.36-2.43-21.05-10.72-43.47-36.99m357.54 44.92c-3.21 1.24-7.11 2.77-11.58 4.53-15.08 5.97-36.34 14.66-57.34 24.11V283.91a367 367 0 0 1-38.32 5.83v418.58c-18.55 9.94-32.41 19.36-34.45 26.13-2.04-6.77-15.91-16.21-34.47-26.15V289.76a354 354 0 0 1-38.32-5.86v405.82c-21-9.45-42.27-18.14-57.34-24.11-4.46-1.75-8.37-3.29-11.58-4.53V262.17c-14.47-6.13-29.18-13.4-44.06-21.91v-4.86s16.13 9.67 44.06 20.2c18.31 6.9 41.69 14.17 68.92 19.33 12.05 2.3 24.86 4.16 38.32 5.4 21.46 2.01 44.57 2.41 68.92.33 12.46-1.04 25.26-2.75 38.32-5.22 22.3-4.22 45.37-10.66 68.92-19.92 14.33-5.63 28.84-12.29 43.47-20.13v4.86s-15.8 10.71-43.47 22.33zm114.14-127.02c-7.47 43.68-39.99 82.09-39.99 82.09-22.38 26.23-36.06 34.53-43.43 36.97 14.71-11.68 27.5-25.71 37.74-41.65 54.02-84.13 26.23-168.61 26.23-168.61l-23.3-86.27c-6.94-21.02-7.47-40.36-4.69-57.29v-.01l18.85-7.73c-3.45 22.14 11.65 77.96 11.65 77.96l18.56 69.16c11.29 45.32-1.62 95.38-1.62 95.38"
     style="fill:#2e2f38"
     transform="translate(-35.404 -13.23)scale(.26458)"
     id="path17" /><path
     d="M227.63 653.15c-7.36-2.42-21.04-10.71-43.47-36.98 0 0-32.52-38.41-39.99-82.09 0 0-12.92-50.06-1.64-95.37l18.58-69.16s15.1-55.82 11.65-77.96l18.88 7.74c2.78 16.92 2.25 36.27-4.69 57.29l-23.3 86.27s-27.79 84.48 26.23 168.61c10.23 15.94 23.02 29.97 37.75 41.65m428.21-119.08c-7.47 43.68-39.99 82.09-39.99 82.09-22.38 26.23-36.06 34.53-43.43 36.97 14.71-11.68 27.5-25.71 37.74-41.65 54.02-84.13 26.23-168.61 26.23-168.61l-23.3-86.27c-6.94-21.02-7.47-40.36-4.69-57.29v-.01l18.85-7.73c-3.45 22.14 11.65 77.96 11.65 77.96l18.56 69.16c11.29 45.32-1.62 95.38-1.62 95.38"
     style="fill:#fff"
     transform="translate(-35.404 -13.23)scale(.26458)"
     id="path18" /><path
     d="M585.18 235.39v4.86s-15.8 10.71-43.47 22.33c-18.21 7.64-41.55 15.68-68.92 21.33a367 367 0 0 1-38.32 5.83c-21.39 2.08-44.48 2.41-68.92.01a354 354 0 0 1-38.32-5.86c-22.2-4.66-45.25-11.69-68.92-21.73-14.47-6.13-29.18-13.4-44.06-21.91v-4.86s16.13 9.67 44.06 20.2c18.31 6.9 41.69 14.17 68.92 19.33 12.05 2.3 24.86 4.16 38.32 5.4 21.46 2.01 44.57 2.41 68.92.33 12.46-1.04 25.26-2.75 38.32-5.22 22.3-4.22 45.37-10.66 68.92-19.92a406 406 0 0 0 43.47-20.12"
     style="fill:#ac996a"
     transform="translate(-35.404 -13.23)scale(.26458)"
     id="path19" /><path
     d="M327.22 283.9v405.82c-21-9.45-42.27-18.14-57.34-24.11-4.46-1.75-8.37-3.29-11.58-4.53V262.17c23.66 10.03 46.72 17.06 68.92 21.73m107.24 5.84v418.58c-18.55 9.94-32.41 19.36-34.45 26.13-2.04-6.77-15.91-16.21-34.47-26.15V289.76c24.44 2.39 47.53 2.06 68.92-.02m107.24-27.16v398.51c-3.21 1.24-7.11 2.77-11.58 4.53-15.08 5.97-36.34 14.66-57.34 24.11V283.91c27.38-5.65 50.72-13.69 68.92-21.33"
     style="fill:#ee2616"
     transform="translate(-35.404 -13.23)scale(.26458)"
     id="path20" /></svg>
