<?xml version="1.0" encoding="UTF-8" standalone="no"?>
<svg
   width="316.228"
   height="316.228"
   viewBox="0 0 199.914 199.914"
   version="1.1"
   id="svg14"
   sodipodi:docname="al-shabab.svg"
   inkscape:version="1.4.2 (f4327f4, 2025-05-13)"
   xmlns:inkscape="http://www.inkscape.org/namespaces/inkscape"
   xmlns:sodipodi="http://sodipodi.sourceforge.net/DTD/sodipodi-0.dtd"
   xmlns:xlink="http://www.w3.org/1999/xlink"
   xmlns="http://www.w3.org/2000/svg"
   xmlns:svg="http://www.w3.org/2000/svg">
  <defs
     id="defs14" />
  <sodipodi:namedview
     id="namedview14"
     pagecolor="#ffffff"
     bordercolor="#000000"
     borderopacity="0.25"
     inkscape:showpageshadow="2"
     inkscape:pageopacity="0.0"
     inkscape:pagecheckerboard="0"
     inkscape:deskcolor="#d1d1d1"
     inkscape:zoom="2.6910963"
     inkscape:cx="157.9282"
     inkscape:cy="158.114"
     inkscape:window-width="1920"
     inkscape:window-height="1111"
     inkscape:window-x="-9"
     inkscape:window-y="-9"
     inkscape:window-maximized="1"
     inkscape:current-layer="g11" />
  <clipPath
     id="b">
    <path
       d="M0 1000h1000V0H0z"
       id="path1" />
  </clipPath>
  <clipPath
     id="c">
    <path
       d="M342.64 872.496c-48.141-20.363-91.374-49.511-128.499-86.637S147.866 705.5 127.504 657.36C106.422 607.517 95.733 554.574 95.733 500s10.689-107.517 31.771-157.361c20.362-48.14 49.511-91.373 86.637-128.499s80.358-66.275 128.499-86.635C392.483 106.422 445.426 95.733 500 95.733s107.517 10.689 157.36 31.772c48.141 20.36 91.374 49.51 128.5 86.635 37.125 37.126 66.274 80.359 86.636 128.499 21.082 49.844 31.771 102.787 31.771 157.361s-10.689 107.517-31.771 157.36c-20.362 48.14-49.511 91.374-86.636 128.499-37.126 37.126-80.359 66.274-128.5 86.637-49.843 21.082-102.786 31.771-157.36 31.771s-107.517-10.689-157.36-31.771M105.113 500c0 217.742 177.146 394.887 394.887 394.887S894.887 717.742 894.887 500 717.742 105.113 500 105.113 105.113 282.259 105.113 500"
       id="path2" />
  </clipPath>
  <linearGradient
     id="a">
    <stop
       offset="0"
       stop-color="#934530"
       id="stop2" />
    <stop
       offset=".1"
       stop-color="#934530"
       id="stop3" />
    <stop
       offset=".5"
       stop-color="#ec7762"
       id="stop4" />
    <stop
       offset=".9"
       stop-color="#8f412b"
       id="stop5" />
    <stop
       offset="1"
       stop-color="#8f412b"
       id="stop6" />
  </linearGradient>
  <linearGradient
     xlink:href="#a"
     id="e"
     x1="0"
     x2="1"
     y1="0"
     y2="0"
     gradientTransform="matrix(808.53375 0 0 -808.53375 95.733 500)"
     gradientUnits="userSpaceOnUse"
     spreadMethod="pad" />
  <clipPath
     id="f">
    <path
       d="M391.739 756.259c-33.12-14.008-62.862-34.06-88.399-59.599-25.539-25.538-45.591-55.28-59.599-88.4-14.506-34.295-21.861-70.72-21.861-108.26s7.355-73.965 21.861-108.262c14.008-33.119 34.06-62.86 59.599-88.398 25.537-25.539 55.279-45.591 88.399-59.599C426.036 229.234 462.46 221.88 500 221.88s73.965 7.354 108.26 21.861c33.12 14.008 62.863 34.06 88.4 59.599 25.539 25.538 45.591 55.279 59.599 88.398C770.765 426.035 778.12 462.46 778.12 500s-7.355 73.965-21.861 108.26c-14.008 33.12-34.06 62.862-59.599 88.4-25.537 25.539-55.28 45.591-88.4 59.599-34.295 14.505-70.72 21.861-108.26 21.861s-73.964-7.356-108.261-21.861M246.602 500c0 139.724 113.673 253.398 253.398 253.398 139.724 0 253.399-113.674 253.399-253.398 0-139.725-113.675-253.398-253.399-253.398-139.725 0-253.398 113.673-253.398 253.398"
       id="path6" />
  </clipPath>
  <linearGradient
     xlink:href="#a"
     id="g"
     x1="0"
     x2="1"
     y1="0"
     y2="0"
     gradientTransform="matrix(556.24036 0 0 -556.24036 221.88 500)"
     gradientUnits="userSpaceOnUse"
     spreadMethod="pad" />
  <g
     clip-path="url(#b)"
     transform="matrix(.2261 0 0 -.2261 -13.094 213.008)"
     id="g12">
    <path
       fill="#fff"
       d="M500 67.912c-58.327 0-114.915 11.426-168.19 33.96-51.456 21.763-97.664 52.917-137.343 92.596-39.679 39.678-70.832 85.887-92.596 137.34C79.337 385.085 67.912 441.673 67.912 500s11.425 114.915 33.96 168.19c21.763 51.455 52.916 97.664 92.595 137.343s85.887 70.833 137.342 92.596c53.276 22.534 109.864 33.96 168.191 33.96s114.915-11.426 168.191-33.96c51.454-21.763 97.663-52.917 137.342-92.596 39.678-39.68 70.833-85.888 92.595-137.342 22.535-53.276 33.96-109.864 33.96-168.191s-11.425-114.915-33.96-168.192c-21.762-51.453-52.917-97.662-92.595-137.34-39.68-39.68-85.888-70.833-137.342-92.596-53.276-22.534-109.864-33.96-168.19-33.96"
       id="path7" />
    <g
       fill="#2b2b2b"
       id="g11">
      <path
         d="M500 942.088c-59.673 0-117.57-11.692-172.087-34.75-52.646-22.267-99.923-54.14-140.517-94.735s-72.467-87.87-94.735-140.517C69.603 617.571 57.912 559.672 57.912 500s11.691-117.572 34.75-172.087c22.267-52.646 54.14-99.923 94.734-140.517s87.871-72.468 140.517-94.735C382.43 69.603 440.327 57.911 500 57.911s117.571 11.692 172.087 34.75c52.646 22.267 99.923 54.141 140.517 94.735s72.467 87.871 94.735 140.517c23.058 54.515 34.75 112.414 34.75 172.087s-11.692 117.571-34.75 172.086c-22.268 52.646-54.14 99.923-94.735 140.517s-87.87 72.468-140.517 94.735c-54.516 23.058-112.414 34.75-172.087 34.75m0-20c233.113 0 422.088-188.976 422.088-422.088S733.113 77.911 500 77.911 77.912 266.887 77.912 500.001c0 233.111 188.975 422.087 422.088 422.087"
         id="path8" />
      <path
         d="M414.675 671.286c68.583-20.261 114.338-88.657 102.613-164.301 23.773-20.166 51.171-32.168 82.497-35.016 31.291-2.846 60.474 3.932 87.747 19.4-42.243-42.485-126.134-59.412-192.402-6.62-48.084-14.606-99.37-66.518-98.788-139.776-5.483 8.479-5.423 47.396.141 69.23 5.915 23.213 16.87 43.767 32.818 61.626 15.954 17.864 35.203 30.996 57.49 39.52 11.134 49.695-8.575 120.014-72.116 155.937"
         id="path9" />
      <path
         d="m 360.015,424.41 c -16.878,73.179 24.476,145.347 91.446,169.957 l 7.704,-29.69 c -62.935,-25.8 -95.764,-72.544 -99.15,-140.267 m 243.641,73.74 -29.75,8.268 c 9.063,67.862 -15.268,119.624 -72.736,156.446 34.3,-10.951 61.55,-30.935 80.946,-61.09 20.305,-31.566 26.975,-66.13 21.54,-103.624 m -158.737,-84.03 21.264,21.976 C 519.989,394.598 576.826,389.478 636.743,420.299 586.129,371.183 500.7,367.336 444.919,414.12 m -264.573,90.629 c 5.127,-0.036 8.625,3.27 8.641,8.17 0.017,4.893 -3.499,8.319 -8.534,8.319 -5.019,-0.001 -8.529,-3.465 -8.483,-8.37 0.046,-4.803 3.43,-8.084 8.375,-8.12 m -0.138,-24.256 h -9.06 l 11.07,17.348 h -3.147 c -8.444,-10e-4 -14.01,5.248 -14.869,14.024 -0.744,7.606 4.622,14.707 12.295,16 5.527,0.93 10.877,0.358 15.271,-3.524 5.567,-4.92 5.814,-11.203 3.881,-17.772 -0.634,-2.156 -1.779,-4.212 -2.964,-6.147 -4.072,-6.648 -8.264,-13.221 -12.477,-19.93 m 638.453,28.087 -0.526,0.118 -10.38,-17.04 h 10.906 z m 0.14,-34.556 v 10.118 h -18.88 c -0.438,4.083 -0.43,7.53 1.865,11.004 5.561,8.415 10.717,17.097 16.106,25.784 h 8.451 v -29.344 l 6.255,-0.315 v -6.987 h -6.153 v -10.26 z m 51.375,46.84 c 0.32,-3.042 0.462,-5.91 -0.883,-8.837 -5.337,-11.613 -10.51,-23.302 -15.75,-34.96 -0.462,-1.026 -0.986,-2.026 -1.511,-3.1 h -8.544 l 18.15,39.872 h -20.821 v 7.025 z m -720.318,6.78 v -47.105 h -7.54 v 36.346 l -7.201,-5.903 -4.652,5.743 c 4.322,3.5 8.246,7.088 12.62,10.005 1.646,1.098 4.332,0.637 6.773,0.913"
         id="path10"
         sodipodi:nodetypes="cccccccccccccccccccccccccccccccccccccccccccccccccccccccccccccc" />
    </g>
  </g>
  <g
     clip-path="url(#c)"
     transform="matrix(.2261 0 0 -.2261 -13.094 213.008)"
     id="g13">
    <path
       fill="url(#e)"
       d="M342.64 872.496c-48.141-20.363-91.374-49.511-128.499-86.637S147.866 705.5 127.504 657.36C106.422 607.517 95.733 554.574 95.733 500s10.689-107.517 31.771-157.361c20.362-48.14 49.511-91.373 86.637-128.499s80.358-66.275 128.499-86.635C392.483 106.422 445.426 95.733 500 95.733s107.517 10.689 157.36 31.772c48.141 20.36 91.374 49.51 128.5 86.635 37.125 37.126 66.274 80.359 86.636 128.499 21.082 49.844 31.771 102.787 31.771 157.361s-10.689 107.517-31.771 157.36c-20.362 48.14-49.511 91.374-86.636 128.499-37.126 37.126-80.359 66.274-128.5 86.637-49.843 21.082-102.786 31.771-157.36 31.771s-107.517-10.689-157.36-31.771M105.113 500c0 217.742 177.146 394.887 394.887 394.887S894.887 717.742 894.887 500 717.742 105.113 500 105.113 105.113 282.259 105.113 500"
       id="path12" />
  </g>
  <g
     clip-path="url(#f)"
     transform="matrix(.2261 0 0 -.2261 -13.094 213.008)"
     id="g14">
    <path
       fill="url(#g)"
       d="M391.739 756.259c-33.12-14.008-62.862-34.06-88.399-59.599-25.539-25.538-45.591-55.28-59.599-88.4-14.506-34.295-21.861-70.72-21.861-108.26s7.355-73.965 21.861-108.262c14.008-33.119 34.06-62.86 59.599-88.398 25.537-25.539 55.279-45.591 88.399-59.599C426.036 229.234 462.46 221.88 500 221.88s73.965 7.354 108.26 21.861c33.12 14.008 62.863 34.06 88.4 59.599 25.539 25.538 45.591 55.279 59.599 88.398C770.765 426.035 778.12 462.46 778.12 500s-7.355 73.965-21.861 108.26c-14.008 33.12-34.06 62.862-59.599 88.4-25.537 25.539-55.28 45.591-88.4 59.599-34.295 14.505-70.72 21.861-108.26 21.861s-73.964-7.356-108.261-21.861M246.602 500c0 139.724 113.673 253.398 253.398 253.398 139.724 0 253.399-113.674 253.399-253.398 0-139.725-113.675-253.398-253.399-253.398-139.725 0-253.398 113.673-253.398 253.398"
       id="path13" />
  </g>
</svg>
