<?xml version="1.0" encoding="UTF-8" standalone="no"?>
<svg
   xml:space="preserve"
   id="Layer_1"
   width="259.037"
   height="300"
   x="0"
   y="0"
   version="1.1"
   sodipodi:docname="al-taawoun.svg"
   inkscape:version="1.4.2 (f4327f4, 2025-05-13)"
   xmlns:inkscape="http://www.inkscape.org/namespaces/inkscape"
   xmlns:sodipodi="http://sodipodi.sourceforge.net/DTD/sodipodi-0.dtd"
   xmlns="http://www.w3.org/2000/svg"
   xmlns:svg="http://www.w3.org/2000/svg"><defs
     id="defs1" /><sodipodi:namedview
     id="namedview1"
     pagecolor="#ffffff"
     bordercolor="#000000"
     borderopacity="0.25"
     inkscape:showpageshadow="2"
     inkscape:pageopacity="0.0"
     inkscape:pagecheckerboard="0"
     inkscape:deskcolor="#d1d1d1"
     inkscape:zoom="2.8366667"
     inkscape:cx="129.3772"
     inkscape:cy="150"
     inkscape:window-width="1920"
     inkscape:window-height="1111"
     inkscape:window-x="-9"
     inkscape:window-y="-9"
     inkscape:window-maximized="1"
     inkscape:current-layer="g27" /><style
     id="style1"
     type="text/css">.st0{fill:#ffe000}.st1{fill:#003665}</style><g
     id="g38"
     transform="translate(-127.463 -107.007)scale(.51396)"><path
       id="path1"
       d="M533.1 208.6c-93.2-.9-285.1 0-285.1 0v274c.9.6.5 1.6.5 2.5.1 6.6.9 13.4 1.5 19.9 1.5 15.5 4.2 30.6 7.9 45.7 7.6 30 18.8 58.3 34.2 85.1 19.7 34.3 45.1 64 75.8 88.8 24.1 19.5 50.8 35.2 79.2 47.9 16.6 7.4 52.3 19.4 53.1 19.4.7 0 27.6-9.1 40.1-14.2 23.7-9.6 46.4-21.3 67.8-35.5 26.4-17.8 49.9-38.8 70-63.5 12-14.7 22.6-30.2 31.9-46.8 15.4-27.6 26.4-56.9 33.5-87.9 5.4-23.9 8.5-48.1 8.5-72.6V209"
       class="st0" /><path
       id="path2"
       d="M693.7 512.5c0-30.8 1.9-61.5 1.9-92.3v-2.6c0-1.6-.9-2.5-2.7-2.5H549c-1.1-.1-1.5.5-1.5 1.5v37.1c0 1.1-.3 2.3.6 3.3 1.5 1.8 3 3.9 4.5 5.7 3.3 3.7 7.6 6.3 12.2 8.1 10 4.1 19.9 8.5 29.8 12.5 3.7 1.5 7.5 2.9 10.7 5.2 10.1 7.4 14.6 17 13.2 29.2-.6 5.2-3.1 9.9-5.5 14.4-7.3 12.9-14.4 25.8-21.5 38.7-1.8 3.3-3.7 6.3-4.9 9.9-1.8 5.3-1.5 10.9-1.8 16.4-.6 7.9-.7 16-.9 24-.6 13.2-10.3 25.2-24.2 28.4-3.3.7-6.8.8-10.3.5-1.5-.1-1.9.5-1.8 1.7v60.1c.1.5.2.9.5.9.3.1.6.1.8-.1.5-.3.9-.5 1.5-.8 3.1-1.7 13-8.5 16-10.3 16-10.1 33.5-21.4 46.4-35.2 21.3-22.6 48.2-52.8 58.2-82 .6-1.9 2.2-3.9 2.8-5.7 3.9-12 10.7-24.3 12.4-36.7 1.5-9.6 7-16.4 7-26.1z"
       class="st1" /><path
       id="path3"
       d="M305.8 512.5c0-30.8-1.9-61.5-1.9-92.3v-2.6c0-1.6.9-2.5 2.7-2.5h143.9c1.1-.1 1.5.5 1.5 1.5v37.1c0 1.1.3 2.3-.6 3.3-1.5 1.8-3 3.9-4.5 5.7-3.3 3.7-7.6 6.3-12.2 8.1-10 4.1-19.9 8.5-29.8 12.5-3.7 1.5-7.5 2.9-10.7 5.2-10.1 7.4-14.6 17-13.2 29.2.6 5.2 3.1 9.9 5.5 14.4 7.3 12.9 14.4 25.8 21.5 38.7 1.8 3.3 3.7 6.3 4.9 9.9 1.8 5.3 1.5 10.9 1.8 16.4.6 7.9.7 16 .9 24 .6 13.2 10.3 25.2 24.2 28.4 3.3.7 6.8.8 10.3.5 1.5-.1 1.9.5 1.8 1.7v60.1c-.1.5-.2.9-.5.9s-.6.1-.8-.1c-.5-.3-.9-.5-1.5-.8-3.1-1.7-13-8.5-16-10.3-16-10.1-33.5-21.4-46.4-35.2-21.3-22.6-48.2-52.8-58.2-82-.6-1.9-2.2-3.9-2.8-5.7-3.9-12-10.7-24.3-12.4-36.7-1.5-9.6-7-16.4-7-26.1z"
       class="st1" /><path
       id="path4"
       d="M303.7 399.8V267.3H693v132.4z"
       class="st1" /><g
       id="g8"><path
         id="path5"
         d="M455.2 534.2h3c3.1 0 5.9-1.1 8.5-2.8 2.3-1.5 2.5-2.3 1.3-4.6-.5-.9-1.1-1.8-1.5-2.8-2.8-5.2-4.5-10.7-4.8-16.4 0-.4 0-.9.4-1.1.5-.2.8.2.9.5.9 1.8 1.8 3.7 3.1 5.5 7.1 9.7 15 19 22.4 28.5.6.9 2.1 1.7 1.3 2.8-.6.9-1.9-.1-2.9-.5-3.9-1.5-7.9-3-11.8-4.4-.3-.1-.6 0-.9 0 .1.3.2.5.3.8 1.3 1.5 2.4 3.1 3.7 4.8 3.9 5.3 9.1 9.3 13.4 14.4 5.5 6.6 10.3 13.6 13.4 21.6 2.4 5.9 5 11.6 8.1 17.2 7 12.2 17.6 19.2 31.5 21 1.8.3 3.9.2 5.5.9 1.3.5 2.6 2.1 3.5 1.1.6-.6-.6-2.4-1.1-3.7 0-.1 0-.2-.1-.3-5.3-12.3-9.7-25-13.4-37.6-.3-1.1-.6-2.3-.9-3.3-.1-.4-.2-.9.2-1.1.6-.3.9.3 1.1.8.5.5.9 1.3 1.3 1.7 2.9 3.7 5.7 7.3 9.1 10.5 3.5 3.1 7.3 5.9 12.2 6.9 1.1.2 2.3.4 3.3.5-.5-1.1-1.7-1.1-2.5-1.9-.4-.5-.9-.9-1.3-1.3-3.5-3.5-6.3-7.7-9-11.7-6.4-9.8-12.9-19.9-21.2-28.2-1.6-1.6-1.6-2.1-.3-4 3-4.2 5.5-8.8 7-13.6 1.5-4.9 2.5-9.7 2.3-14.9 0-2.5-.9-3.5-3.3-3.9-1.5-.3-3.1-.4-4.8-.5-3.1-.2-6.1.3-9.1.5-2.5.2-2.6.1-2.6-2.5 0-1.3 0-2.8-.1-4.1-.3-2.7-.9-3.3-3.7-3.1-3.5.2-6.7.9-9.7 2.3-2.7 1.3-5.1 1.3-7.9-.1-3.9-1.8-7.9-3.1-12.3-4-7.6-1.5-14.2-4.5-19.4-10.3-2.9-3.1-6.3-5.7-9.3-8.5-1.3-1.3-2.9-1.8-4.5-.9-3.9 1.9-6.9 4.4-7.1 9.2 0 1.5-.8 2.8-1.8 3.9-1.3 1.3-2.7 2.7-3.7 4.3-.5 1.1-1.3 1.8-1.5 3.1 1.1-.1 2.1-.3 3-.3 4.1-.3 5.7.9 7.1 4.5.2.5.3 1.1.5 1.5 1.1 3.7 1.5 7.5 3.3 10.9.6 1.3.2 1.9-1.1 2.4-2.9 1.1-5.7 1.1-8.7.1-3.9-1.3-4.6-3.1-3.1-6.9.2-.5.9-.9.4-1.3-.4-.4-1.1-.1-1.5 0-5.2 1.5-9.5 9.6-7.1 15.7 1.5 4.1 4.6 6.6 8.1 8.8 4.6 2.9 9.5 5.5 14 8.7 5.3 3.7 10.3 7.9 12.9 14 1.5 3.7 2.7 7.6 3.7 11.3 1.5 5.9 3.1 11.8 6.3 17.1 3 5.1 6.3 9.8 11.2 13.4.4.3.8.6 1.1.4.6-.5 0-.9-.3-1.3-3.9-7.9-6.3-16.2-7-25.1 0-.5-.4-1.1.2-1.5.5-.3 1.1 0 1.5.3 1.9 1.3 4 2.8 5.7 4.3 2.1 1.7 4.1 3.5 5.4 6.1.2.4.9.6 1.3.9 0-.4.1-.9 0-1.3-.4-1.5-.8-3.1-1.3-4.5-2.6-8.1-7.5-14.8-12.7-21.2-4.1-5-9.1-8.8-13.8-13.3-4.3-4.2-9.2-7.9-14.7-10.7-1.3-.8-3.1-1.3-3.9-2.9 1.6-.6 3.8-.6 5.2-.8m96.2 105.7c-3.9.2-7.2-1.3-10.7-2.2-10.7-2.8-21.2-5.7-31.8-8.5-6.9-1.7-14-1.5-21 .5-7.5 2.2-14.9 4.4-22.4 6.3-4.4 1.1-8.9 2.3-13.4 3.3-12.4 3.1-25.4-6.6-25.8-19.2-.5-10.3-.9-20.6-1.3-31-.2-7.3-2.2-14-5.5-20.5-8.1-15-16.2-30-24.5-44.9-6.1-10.9-2.2-25.4 10.7-30.8 9.7-4.1 19.6-8.5 29.3-12.5 6.4-2.7 12.7-5.5 17.7-10.7 3.7-3.7 6.6-7.9 9.7-12 6.5-8.3 13.1-16.9 19.6-25.2 4.6-6.1 10.7-9.2 18.6-8.8 5.9.3 10.9 2.6 14.6 7 6.6 8.1 12.9 16.4 19.3 24.6 3.5 4.4 6.9 9 10.7 13.4 3.9 4.5 8.8 7.5 14.2 9.7 11.6 5.1 23.2 9.9 34.8 15 11.1 5 16 18 10.5 29-4 7.9-8.5 15.8-12.7 23.6-4.4 8.3-8.9 16.4-13.4 24.6-3.3 6.1-4.3 12.6-4.6 19.4-.4 9.6-.6 19.1-.9 28.7-.4 10.2-7.5 18.6-17.3 20.6-1.3.3-2.7.3-4.1.4z"
         class="st1" /><path
         id="path6"
         d="M523 581c-.8-3.7-1.5-7.6-2.3-11.3-1.5-7.9-3.7-15.6-5.7-23.2-.2-.5-.3-1.3-.5-1.8-.1-.5 0-.9.3-1.1.5-.3 1.1 0 1.3.5 1.1 1.6 2.2 3.3 3.1 5.1 4.5 8.5 7.6 17.6 9.9 26.8 2.7 10.3 5.9 20.4 10.3 30.2.1.2.2.4.3.5.3.8 1.1 1.5.5 2.3-.8.9-1.7.1-2.6-.1-3.5-.9-6.6-2.8-9.3-5.2-7.9-6.9-12.6-15.8-15.6-25.8-.2-.5-.2-1.3-.2-1.8q0-.45.3-.9c.4-.3.9-.1 1.1.2 1.3 1.3 2.8 2.8 4.1 4.2.9.9 1.9 1.8 3.1 2.6.4.2.6.6 1.1.5.6-.3.1-.9.4-1.5h.4z"
         class="st1" /><path
         id="path7"
         d="M476.3 509.6s.5.3.9.5c5.4 3.7 11.5 6.3 17.1 9.6.3.2.5.9.9.3.1-.2 0-.6 0-.9-.2-.5-.5-.9-.6-1.3-.4-.9-1.5-1.9-.6-2.7.9-.9 2.1.4 2.8.8 4.1 2.3 7.3 5.5 9.7 9.7.2.4.5.9.3 1.1-.3.5-.9.3-1.3 0-2.8-1.1-5.5-2.2-8.3-2.7-.5-.1-1.1-.2-1.5-.2s-.9-.2-1.1.3c0 .2.2.5.4.9 1.7 3 3.5 5.9 5.2 8.9 3 5.1 4.9 10.7 6.4 16.4 0 .2.2.4.2.5 0 .5 0 .9-.5 1.1-.6.3-.5-.4-.8-.6-2.8-5.1-6.1-9.8-9-14.8-3.1-5.4-7.6-9.7-11.6-14.5-2.9-3.3-6.1-6.4-8.3-10.3-.3-.5-.5-.9-.6-1.3-.1-.3.2-.5.8-.6h-.5z"
         class="st1" /><path
         id="path8"
         d="M526.3 520.8c5.7 0 6.1.8 4.6 5.9-1.3 4.2-3.1 8.1-5.7 11.8-.3.5-.6.9-1.3.6-.2-.1-.4-.8-.3-1.1.6-3.3 1.3-6.8 2.2-10.2.6-3.1.6-3-2.3-3.9-1.3-.5-3.7-.5-3.7-1.7s2.4-.9 3.9-1.3c1.1-.1 2-.1 2.6-.1"
         class="st1" /></g><g
       id="g12"><path
         id="path9"
         d="m461.5 670.3-1.1-3.1c1.3-.4 2.1-1.1 2.9-1.8.8-.8 1.5-1.6 1.9-2.6h.4l2.9 1.6v32.3H464v-27.2z"
         class="st1" /><path
         id="path10"
         d="M482.7 688.7v1.3c0 1.6.7 2.4 2 2.4h.7c1.3 0 1.8-.7 1.8-2v-8.1l-2.9 1.9h-1.1c-3.7 0-5.4-2-5.4-6.1v-9.4c0-3.9 1.8-5.9 5.4-5.9h3c3.7 0 5.4 2 5.4 5.9v21.8c0 4-1.8 6.1-5.4 6.1h-2.7c-3.7 0-5.4-2-5.4-6.1v-1.9zm4.4-8.4v-11.1c0-1.3-.8-2-2.2-2h-.5c-1.3 0-2 .7-2 2v8.7c0 1.6.7 2.4 2 2.4z"
         class="st1" /><path
         id="path11"
         d="M500.1 688.7h4.5v1.8c0 1.3.6 2 1.8 2h.5c1.3 0 2-.7 2-2v-7.8c0-1.5-.6-2.2-1.9-2.2h-6.8v-17.8h12.7v4.2h-8.5v9.5h3.7c3.7 0 5.4 2 5.4 6.1v8.1c0 3.9-1.8 6.1-5.4 6.1h-2.6c-3.7 0-5.4-1.9-5.4-5.7z"
         class="st1" /><path
         id="path12"
         d="M531.1 672.4v-3c0-1.6-.7-2.4-2-2.4h-.8c-1.3 0-1.8.7-1.8 2v10.3l2.9-1.9h1.3c3.5 0 5.2 1.9 5.2 5.7v7.8c0 3.7-1.7 5.7-5.2 5.7h-3.5c-3.5 0-5.2-1.9-5.2-5.7v-22.4c0-3.9 1.7-5.7 5.2-5.7h3.3c3.5 0 5.2 1.9 5.2 5.7v3.7zm-4.6 9v9.1c0 1.3.7 2 2 2h.9c1.3 0 2-.7 2-2v-6.7c0-1.6-.7-2.4-2-2.4z"
         class="st1" /></g><path
       id="path13"
       d="M742.5 479.7c0 13.6-1.6 27.2-3.9 40.5-2.9 17.3-7 34.2-12.6 50.8-6.1 18.2-13.8 35.6-22.8 52.5-13 23.9-28.9 45.7-47.9 65.4-25.8 27-55.8 48.4-89.1 65.4-18.2 9.1-66 26-66 26s-30.2-10-41.2-14.6c-25.1-10.2-48.4-23.4-70.4-39.1-16.2-11.5-31.1-24.4-44.7-38.9-12.5-13.4-23.8-27.6-33.8-43.1-15.2-23.6-27.1-48.4-35.9-75-6.7-20.4-11.3-41.3-14-62.5-1.3-10.9-2-21.5-2-32.4V216.9h3.9c79.4 0 480.5.2 480.5.2s-.1 176.2-.1 262.6M248 208.6v274s1.5 15.8 1.9 22.4c1.5 15.5 4.2 30.6 7.9 45.7 7.6 30 18.8 58.3 34.2 85.1 19.7 34.3 45.1 64 75.8 88.8 24.1 19.5 50.8 35.2 79.2 47.9 16.6 7.4 52.3 19.4 53.1 19.4.7 0 27.6-9.1 40.1-14.2 23.7-9.6 46.4-21.3 67.8-35.5 26.4-17.8 49.9-38.8 70-63.5 12-14.7 22.6-30.2 31.9-46.8 15.4-27.6 26.4-56.9 33.5-87.9 5.4-23.9 8.5-48.1 8.5-72.6V209" /><path
       id="path14"
       d="M290.9 253.3v218.6c0 9.7.4 19.5 1.5 29.2 2 19.4 6.1 38.3 11.8 57.1 8.3 26.6 20.4 51.5 35.8 74.6 19 27.8 42.6 51.4 70.2 70.7 61.4 40.1 88.6 42.9 88.6 42.9 10.7-3.7 23.8-7.9 34.2-12.5 22.1-9.6 42.9-21.7 61.9-36.1 16.2-12.2 31.1-26 44.4-41.7 14.2-16.7 26.3-34.8 36.2-54.4 11-22.2 19.3-45.5 24.5-69.6 3.9-17.6 6.4-35.4 6.4-53.3V252.9zm434.9 224.9c0 16.7-2 33.2-5.2 49.7-4.2 21.8-10.5 42.9-19 63.1-7.4 17.3-16 33.7-26.3 49.4-14.5 22.1-31.8 41.7-51.8 59-18.4 16-38.7 29.6-60.2 41-14 7.4-28.4 13.8-43.3 19.3-6.5 2.5-21.7 6.8-21.7 6.8s-19.2-5.7-27.6-9.1c-14.9-6.1-29.6-12.8-43.6-20.8-15.1-8.5-29.5-18-43.1-28.8-14-10.9-26.6-23.4-38.3-36.6-12.9-14.5-23.9-30.2-33.6-47.1-14.9-26-25.8-53.8-32.6-82.9-3.7-15.5-6.1-30.9-7.3-46.8-.5-7.6-.6-15-.6-22.6V233.4s380.4-.2 454.5-.2z"
       class="st1" /><path
       id="path15"
       d="M299.6 262.3v228.8c.9 7.8 2 15.5 3.3 23 3 17.1 6.9 33.5 12.1 48.7 7.6 22 17.8 42.7 30.4 62.1 13.8 21 30.8 40.1 50.3 56.4 8.7 7.4 18.1 14.3 27.8 20.8 4.4 2.7 8.8 5.4 13.4 7.9 18.2 10 38.5 18.4 59.9 25.2l2.2.7 2.2-.7c21.2-6.6 40.9-14.9 58.9-24.6 4.7-2.6 9.5-5.3 14-8.1 19.7-12.8 37.4-27.6 52.5-44.1 25.4-27.5 44.4-59.7 56.7-95.9.7-2 1.5-4.3 2.3-7 4.4-14.3 7.8-29.4 10.3-45.1 1.1-6.1 1.8-12.5 2.6-18.8V262.1Zm391.8 7.5v220.6c-.7 6.3-1.5 12.5-2.5 18.4-2.5 15.5-5.9 30.2-10.1 44.1-.8 2.3-1.5 4.6-2.2 6.9-11.8 34.8-30 66-55.1 93.3-15.2 16.6-32.4 30.8-51.2 42.9-4.4 2.7-8.8 5.4-13.4 7.9-17.6 9.5-36.7 17.6-57.5 24.1-21.2-6.6-40.7-14.8-58.4-24.5-4.5-2.5-8.7-4.9-13.1-7.7-9.5-6.1-18.6-12.9-27.3-20.1-18.9-16-35.2-34.1-48.8-54.7-12.6-19-22.4-39.2-29.7-60.3-5.1-15-9-30.9-11.8-47.5-1.3-7.4-2.3-14.9-3.1-22.5V269.8z"
       style="fill:#fff" /><g
       id="g27" /><g
       id="g37" /></g></svg>
