<?xml version="1.0" encoding="UTF-8" standalone="no"?>
<svg
   width="316.228"
   height="316.228"
   viewBox="0 0 350 350"
   version="1.1"
   id="svg9"
   sodipodi:docname="damac.svg"
   inkscape:version="1.4.2 (f4327f4, 2025-05-13)"
   xmlns:inkscape="http://www.inkscape.org/namespaces/inkscape"
   xmlns:sodipodi="http://sodipodi.sourceforge.net/DTD/sodipodi-0.dtd"
   xmlns="http://www.w3.org/2000/svg"
   xmlns:svg="http://www.w3.org/2000/svg">
  <defs
     id="defs9" />
  <sodipodi:namedview
     id="namedview9"
     pagecolor="#ffffff"
     bordercolor="#000000"
     borderopacity="0.25"
     inkscape:showpageshadow="2"
     inkscape:pageopacity="0.0"
     inkscape:pagecheckerboard="0"
     inkscape:deskcolor="#d1d1d1"
     inkscape:zoom="2.6910963"
     inkscape:cx="157.9282"
     inkscape:cy="187.47006"
     inkscape:window-width="1920"
     inkscape:window-height="1111"
     inkscape:window-x="-9"
     inkscape:window-y="-9"
     inkscape:window-maximized="1"
     inkscape:current-layer="g8" />
  <g
     transform="translate(-125.378 -125.378)scale(.60076)"
     id="g9">
    <path
       fill="#d6ab4c"
       d="M500 229c-149.3 0-271 121.8-271 271 0 149.3 121.8 271 271 271 149.3 0 271-121.8 271-271 0-149.3-121.7-271-271-271m0 530.5c-142.9 0-259.5-116.6-259.5-259.5S357.1 240.5 500 240.5 759.5 357.1 759.5 500 642.9 759.5 500 759.5"
       id="path1" />
    <circle
       cx="500"
       cy="500"
       r="159"
       fill="#d6ab4c"
       transform="rotate(-45.001 499.997 500.008)"
       id="circle1" />
    <path
       fill="#001b58"
       d="M500 208.7c-160.9 0-291.3 130.4-291.3 291.3S339.1 791.3 500 791.3 791.3 660.9 791.3 500 660.9 208.7 500 208.7m0 562.3c-149.3 0-271-121.8-271-271 0-149.3 121.8-271 271-271 149.3 0 271 121.8 271 271 0 149.3-121.7 271-271 271"
       id="path2" />
    <path
       fill="#a20a02"
       d="M500 240.5c-142.9 0-259.5 116.6-259.5 259.5S357.1 759.5 500 759.5 759.5 642.9 759.5 500 642.9 240.5 500 240.5m0 418.5c-87.8 0-159-71.2-159-159s71.2-159 159-159 159 71.2 159 159-71.2 159-159 159"
       id="path3" />
    <path
       fill="#001b58"
       fill-rule="evenodd"
       d="M500 354c53 0 99.4 28.3 125 70.5l-26 15.6c-20.3-33.5-57.1-55.8-99-55.8-63.9 0-115.7 51.8-115.7 115.7S436.1 615.7 500 615.7c42.2 0 79.2-22.6 99.4-56.4l-.1.4 25.7 15.7c-25.6 42.3-72 70.6-125.1 70.6-80.6 0-146-65.4-146-146 .1-80.6 65.5-146 146.1-146"
       clip-rule="evenodd"
       id="path4" />
    <path
       fill="#a20a02"
       fill-rule="evenodd"
       d="M500 397.1c-56.8 0-102.9 46.1-102.9 102.9S443.2 602.9 500 602.9 602.9 556.8 602.9 500 556.8 397.1 500 397.1m0 183.1V419.8c44.3 0 80.2 35.9 80.2 80.2s-35.9 80.2-80.2 80.2"
       clip-rule="evenodd"
       id="path5" />
    <g
       fill="#fff"
       id="g8">
      <path
         d="M562.2 731.3c-5.4 1.9-2.8 9.7 2.6 8.2 5.5-1.6 2.9-10.3-2.6-8.2"
         id="path7" />
      <path
         fill-rule="evenodd"
         d="m 509.3,490.1 h 15.4 c -0.7,1.6 -2.6,3.7 -3.9,5.6 -3.3,5.4 -7,14.6 -6.8,21.4 h 7.4 c 0.4,-7 1.7,-12.2 4.3,-18.1 3.5,-7.8 5.9,-7.8 6.7,-8.9 v -6.6 h -22.9 v 6.6 z m 37.3,21.2 c 0.7,-2.3 7.4,-6.4 9.3,-7.6 3,-1.9 6.1,-4.9 6.1,-9.9 0,-15.5 -24.2,-14.6 -23.9,1.6 v 1.2 h 6.7 c 0.7,-14.8 17.4,-5.2 6.7,3.1 -4.1,3.3 -10.2,5.8 -12.8,11.3 -0.9,1.7 -1.5,4.1 -1.3,6.2 h 24.8 v -5.8 h -15.6 z m -89.7,-18.5 c -1.7,11.8 11.1,17.1 17.8,9.9 0,5.8 -3.9,11.5 -8.3,8.9 -1.5,-1 -1.5,-2.1 -2.4,-3.7 h -6.5 c -0.2,2.1 1.3,5 2.4,6.2 4.6,5 13.9,4.5 18.1,-1.4 5,-6.8 5.2,-20.2 -0.2,-26.8 -5,-5.7 -19.2,-5.1 -20.9,6.9 m 13.5,7.4 c -7.2,2.1 -9.1,-10.1 -2.4,-11.8 6.5,-1.6 8.7,10 2.4,11.8 m -40.1,-10.5 v 5.6 h 8.5 v 21.6 h 7 v -33.8 h -5.7 c -0.6,4.9 -4.8,6.6 -9.8,6.6"
         clip-rule="evenodd"
         id="path8"
         sodipodi:nodetypes="cccccccccccccscccccccccccccccccccccccccccccc" />
    </g>
  </g>
</svg>
