<?xml version="1.0" encoding="UTF-8" standalone="no"?>
<svg
   xml:space="preserve"
   width="275"
   height="275"
   viewBox="-12.25 -12.25 275 275"
   version="1.1"
   id="svg4"
   sodipodi:docname="apolonia.svg"
   inkscape:version="1.4.2 (f4327f4, 2025-05-13)"
   xmlns:inkscape="http://www.inkscape.org/namespaces/inkscape"
   xmlns:sodipodi="http://sodipodi.sourceforge.net/DTD/sodipodi-0.dtd"
   xmlns="http://www.w3.org/2000/svg"
   xmlns:svg="http://www.w3.org/2000/svg"><defs
     id="defs4" /><sodipodi:namedview
     id="namedview4"
     pagecolor="#ffffff"
     bordercolor="#000000"
     borderopacity="0.25"
     inkscape:showpageshadow="2"
     inkscape:pageopacity="0.0"
     inkscape:pagecheckerboard="0"
     inkscape:deskcolor="#d1d1d1"
     inkscape:zoom="2.9345455"
     inkscape:cx="137.5"
     inkscape:cy="137.5"
     inkscape:window-width="1920"
     inkscape:window-height="1009"
     inkscape:window-x="-8"
     inkscape:window-y="-8"
     inkscape:window-maximized="1"
     inkscape:current-layer="g4" /><g
     fill-rule="evenodd"
     clip-rule="evenodd"
     id="g4"><path
       fill="#FFF"
       d="M125.25-12.25c37.986 0 72.329 15.415 97.229 40.271 24.856 24.901 40.271 59.243 40.271 97.229s-15.415 72.329-40.271 97.229c-24.899 24.856-59.242 40.271-97.229 40.271s-72.329-15.415-97.229-40.271c-24.856-24.9-40.271-59.243-40.271-97.229 0-37.987 15.415-72.329 40.271-97.229C52.921 3.165 87.263-12.25 125.25-12.25"
       id="path1" /><path
       fill="#3DA643"
       d="M125.25-12.25c37.986 0 72.329 15.415 97.229 40.271 24.856 24.901 40.271 59.243 40.271 97.229s-15.415 72.329-40.271 97.229c-24.899 24.856-59.242 40.271-97.229 40.271s-72.329-15.415-97.229-40.271c-24.856-24.9-40.271-59.243-40.271-97.229 0-37.987 15.415-72.329 40.271-97.229C52.921 3.165 87.263-12.25 125.25-12.25m95.735 41.764C196.48 5.009 162.622-10.142 125.25-10.142S54.019 5.008 29.514 29.513s-39.655 58.364-39.655 95.736 15.15 71.23 39.655 95.735 58.364 39.657 95.736 39.657 71.23-15.152 95.735-39.657 39.657-58.363 39.657-95.735c.001-37.372-15.152-71.23-39.657-95.735"
       id="path2" /><path
       fill="#3DA643"
       d="M125.25 34.564c25.031 0 47.692 10.189 64.116 26.569 16.381 16.424 26.569 39.085 26.569 64.117s-10.188 47.692-26.569 64.116c-16.424 16.381-39.085 26.569-64.116 26.569-25.032 0-47.692-10.188-64.117-26.569-16.38-16.424-26.569-39.085-26.569-64.116s10.189-47.692 26.569-64.117c16.425-16.38 39.085-26.569 64.117-26.569m62.623 28.062c-16.029-16.029-38.162-25.91-62.623-25.91s-46.595 9.881-62.624 25.91-25.91 38.163-25.91 62.624 9.881 46.594 25.91 62.623c16.029 16.03 38.163 25.911 62.624 25.911s46.594-9.881 62.623-25.911c16.03-16.029 25.911-38.162 25.911-62.623s-9.881-46.595-25.911-62.624"
       id="path3" /><path
       fill="#3da643"
       d="m 125.25,38.736 c 47.78,0 86.514,38.734 86.514,86.514 0,47.78 -38.733,86.514 -86.514,86.514 -47.781,0 -86.514,-38.733 -86.514,-86.514 0,-47.781 38.734,-86.514 86.514,-86.514 m 1.449,42.818 c -0.36496,-0.140478 -0.75197,-0.21497 -1.143,-0.22 h -0.614 c -0.39069,0.0051 -0.77736,0.07964 -1.142,0.22 -20.816,6.763 -41.588,13.525 -62.404,20.289 l 2.24,6.939 1.405,-0.439 v 42.159 h -2.548 v 5.973 h -2.679 v 5.93 h 130.87 v -5.93 h -2.68 v -5.973 h -2.546 v -42.159 l 1.405,0.439 2.239,-6.939 C 168.287,95.08 147.516,88.317 126.699,81.554 m -1.449,79.4 h 64.072 v -3.118 H 61.177 v 3.118 z m 0,-4.48 h 42.686 v -4.611 H 82.564 v 4.611 z m 0,-5.973 h 6.895 v -1.757 c 0,-0.176 0.088,-0.482 0.263,-0.57 0.132,-0.044 0.266,-0.132 0.396,-0.132 h 0.834 v -1.361 c 0,-0.438 0.308,-0.702 0.703,-0.702 h 0.834 v -1.493 c 0,-0.263 0.044,-0.396 0.264,-0.528 v -21.913 h -0.658 c -0.396,0 -0.704,-0.263 -0.704,-0.703 v -1.186 h -0.658 c -0.3898,0.005 -0.70665,-0.31321 -0.701,-0.703 v -1.537 h -14.933 v 1.537 c 0.005,0.39011 -0.31289,0.70752 -0.703,0.703 h -0.659 v 1.186 c 0,0.439 -0.307,0.703 -0.703,0.703 h -0.614 v 21.913 c 0.1773,0.11495 0.27806,0.31723 0.263,0.528 v 1.493 h 0.791 c 0.395,0 0.747,0.264 0.747,0.702 v 1.361 h 0.791 c 0.131,0 0.263,0.088 0.395,0.132 0.176,0.088 0.264,0.395 0.264,0.57 v 1.757 z m 0,-39.567 h 42.686 v -3.031 H 82.564 v 3.031 z m 0,-4.392 h 54.631 L 125.25,88.888 70.619,106.542 Z m -61.394,49.932 h 17.347 v -4.611 H 63.856 Z m -0.703,-53.752 1.449,4.391 c 19.755113,-6.49248 39.53189,-12.918844 59.33,-19.279 V 82.959 C 103.644,89.59 83.398,96.09 63.153,102.722 m 30.302,0.219 h 63.589 L 125.25,92.621 Z m 31.795,-11.77 -40.622,13.13 h 81.244 z m -32.365,31.532 h 5.357 v -0.659 h -5.357 z m -1.362,-2.02 h 8.125 v -0.527 h -8.125 z m -1.318,-1.933 h 10.803 v -0.834 H 90.205 Z m 18.137,3.953 h 5.314 v -0.659 h -5.314 z m 6.676,-2.02 v -0.527 h -8.037 v 0.527 z m 1.405,-1.933 v -0.834 H 105.62 v 0.834 z m 7.817,-6.455 h -13.087 v 4.259 h 13.087 z m -27.579,4.259 h 13.087 v -4.259 H 96.661 Z m -14.097,0 h 12.735 v -4.259 H 82.564 Z m -16.117,-8.651 v 42.598 h 14.756 v -42.598 z m 41.895,16.161 v 19.762 h 1.977 v -19.762 z m 3.338,19.762 h 1.977 v -19.762 h -1.977 z m 2.283,2.153 v -0.791 h -5.928 v 0.791 z m -7.421,2.063 h 8.915 v -0.703 h -8.915 z m 10.452,1.362 h -11.902 v 1.097 h 11.902 z m -15.458,0 H 89.635 v 1.097 h 11.901 z m -10.453,-1.362 h 8.958 v -0.703 h -8.958 z m 7.466,-2.854 h -5.972 v 0.791 h 5.972 z m -5.664,-21.124 v 19.762 h 1.976 v -19.762 z m 3.425,19.762 h 1.932 V 124.064 H 96.31 Z m 7.334,6.675 v -1.757 c 0,-0.395 0.307,-0.702 0.703,-0.702 h 0.79 v -1.361 c 0,-0.395 0.352,-0.702 0.747,-0.702 h 0.791 v -1.493 c 0,-0.263 0.044,-0.396 0.264,-0.528 v -21.913 h -0.659 c -0.396,0 -0.659,-0.263 -0.659,-0.703 v -1.186 h -0.703 c -0.39011,0.005 -0.70752,-0.31289 -0.703,-0.703 v -1.537 h -1.844 v 1.537 c 0,0.395 -0.307,0.703 -0.659,0.703 h -0.703 v 1.186 c 0.006,0.39019 -0.31181,0.70811 -0.702,0.703 h -0.703 v 21.869 c 0.219,0.132 0.351,0.353 0.351,0.572 v 1.493 h 0.791 c 0.396,0 0.659,0.308 0.659,0.702 v 1.361 h 0.834 c 0.351,0 0.659,0.308 0.659,0.702 v 1.757 z m -15.415,0 v -1.757 c 0,-0.395 0.307,-0.702 0.703,-0.702 h 0.791 v -1.361 c 0,-0.395 0.307,-0.702 0.703,-0.702 h 0.79 v -1.493 c 0,-0.176 0.089,-0.484 0.308,-0.572 V 122.045 H 90.82 c -0.351,0 -0.659,-0.307 -0.659,-0.703 v -1.186 h -0.659 c -0.395,0 -0.746,-0.264 -0.746,-0.703 v -1.537 h -6.192 v 32.585 z m 98.415,5.973 v -4.611 h -17.346 v 4.611 z m 0.703,-53.752 C 167.103,96.09 146.857,89.591 126.568,82.959 v 4.875 c 19.807,6.412 39.568,12.78 59.33,19.279 z m -29.731,19.981 v -0.659 h -5.358 v 0.659 z m 1.362,-2.02 v -0.527 h -8.08 v 0.527 z m 1.316,-1.933 v -0.834 h -10.802 v 0.834 z m -18.137,3.953 v -0.659 h -5.313 v 0.659 z m -6.675,-2.02 h 8.036 v -0.527 h -8.036 z m -1.406,-1.933 h 10.804 v -0.834 h -10.804 z m -7.815,-6.455 v 4.259 h 13.087 v -4.259 z m 27.578,4.259 v -4.259 h -13.087 v 4.259 z m 14.097,0 v -4.259 H 155.2 v 4.259 z m 16.117,-8.651 h -14.755 v 42.598 h 14.755 z m -41.896,16.161 h -1.977 v 19.762 h 1.977 z m -3.338,19.762 v -19.762 h -1.976 v 19.762 z m -2.283,2.153 h 5.928 v -0.791 h -5.928 z m 7.421,2.063 v -0.703 h -8.914 v 0.703 z m -10.451,1.362 v 1.097 h 11.901 v -1.097 z m 15.458,0 v 1.097 h 11.902 v -1.097 z m 10.453,-1.362 v -0.703 h -8.96 v 0.703 z m -7.467,-2.854 v 0.791 h 5.973 v -0.791 z m 5.666,-21.124 h -1.976 v 19.762 h 1.976 z m -3.382,19.762 v -19.762 h -1.977 v 19.762 z m -7.378,6.675 h 0.747 v -1.757 c 0,-0.395 0.308,-0.702 0.658,-0.702 h 0.835 v -1.361 c 0,-0.395 0.264,-0.702 0.658,-0.702 h 0.79 v -1.493 c 0,-0.22 0.132,-0.44 0.353,-0.572 v -21.869 h -0.704 c -0.39052,0.006 -0.70841,-0.3125 -0.701,-0.703 v -1.186 h -0.66 c -0.38996,0.005 -0.70708,-0.31305 -0.702,-0.703 v -1.537 h -1.844 v 1.537 c 0.005,0.39051 -0.3135,0.70808 -0.704,0.703 h -0.702 v 1.186 c 0,0.439 -0.263,0.703 -0.657,0.703 h -0.66 v 21.913 c 0.22,0.132 0.264,0.266 0.264,0.528 v 1.493 h 0.791 c 0.395,0 0.746,0.308 0.746,0.702 v 1.361 h 0.791 c 0.395,0 0.702,0.308 0.702,0.702 v 1.757 z m 15.415,0 h 5.664 v -32.585 h -6.192 v 1.537 c 0,0.439 -0.351,0.703 -0.745,0.703 h -0.66 v 1.186 c 0,0.396 -0.307,0.703 -0.658,0.703 h -0.702 v 21.869 c 0.176,0.088 0.308,0.396 0.308,0.572 v 1.493 h 0.79 c 0.395,0 0.703,0.308 0.703,0.702 v 1.361 h 0.79 c 0.395,0 0.703,0.308 0.703,0.702 z m -24.945,78.652 -4.039,1.538 -1.625,-4.172 6.631,-2.854 3.557,-0.396 2.812,24.021 -5.182,0.571 z m 20.597,2.066 c 1.23,-0.309 2.152,-0.923 2.636,-1.756 0.526,-0.836 0.658,-1.75867 0.396,-2.768 l -0.044,-0.044 c -0.264,-1.055 -0.879,-1.757 -1.757,-2.24 -0.923,-0.439 -2.021,-0.527 -3.294,-0.132 -1.273,0.353 -2.152,0.923 -2.635,1.756 -0.527,0.836 -0.614,1.759 -0.352,2.812 l 0.044,0.044 c 0.264,1.055 0.878,1.801 1.757,2.24 0.877,0.395 1.975,0.439 3.249,0.088 m 2.503,12.822 c -1.669,0.44 -3.204,0.616 -4.522,0.44 -1.31571,-0.17632 -2.60122,-0.53126 -3.821,-1.055 l 1.625,-4.611 c 1.011,0.44 1.934,0.747 2.811,0.835 0.87867,0.088 1.80133,3.3e-4 2.768,-0.263 1.44867,-0.396 2.41467,-1.187 2.898,-2.373 0.482,-1.186 0.614,-2.59 0.352,-4.215 -0.45674,0.67485 -1.03815,1.25626 -1.713,1.713 -0.704,0.526 -1.537,0.921 -2.548,1.185 -1.274,0.353 -2.459,0.484 -3.557,0.44 -1.099,-0.088 -2.107,-0.309 -3.03,-0.748 -0.89235,-0.4511 -1.67241,-1.0962 -2.283,-1.888 -0.66,-0.835 -1.143,-1.801 -1.449,-2.986 l -0.044,-0.088 c -0.30402,-1.09998 -0.39365,-2.24817 -0.264,-3.382 0.176,-1.142 0.526,-2.151 1.097,-3.074 0.572,-0.921 1.362,-1.756 2.328,-2.458 1.01,-0.704 2.108,-1.23 3.426,-1.625 0.79,-0.176 1.493,-0.353 2.151,-0.396 0.659,-0.088 1.273,-0.088 1.845,-0.044 0.572,0.044 1.142,0.177 1.712,0.353 0.528,0.176 1.099,0.438 1.669,0.746 0.54424,0.31597 1.04596,0.70007 1.493,1.143 0.52394,0.47446 0.99502,1.00421 1.405,1.58 0.439,0.658 0.836,1.406 1.23,2.239 0.351,0.879 0.702,1.889 1.009,3.03 l 0.046,0.044 c 0.526,1.889 0.746,3.646 0.746,5.357 0,1.669 -0.264,3.162 -0.836,4.48 -0.526,1.361 -1.359,2.504 -2.414,3.469 -1.1,0.967 -2.461,1.67 -4.13,2.152 m 13.615,-9.881 1.844,3.733 15.941,-7.817 -1.977,-4.128 -9.397,4.611 2.151,-4.437 c 0.54705,-1.05928 1.04524,-2.14308 1.493,-3.248 0.439,-0.967 0.702,-1.89 0.878,-2.767 0.133,-0.836 0.177,-1.669 0.044,-2.504 -0.088,-0.834 -0.395,-1.669 -0.834,-2.591 l -0.044,-0.044 c -0.48267,-1.01 -1.09733,-1.84467 -1.844,-2.504 -0.791,-0.614 -1.625,-1.097 -2.548,-1.317 -0.97043,-0.27328 -1.986,-0.34811 -2.986,-0.22 -1.098,0.132 -2.195,0.484 -3.294,1.011 -0.8765,0.43287 -1.70138,0.96322 -2.459,1.581 -0.63438,0.54328 -1.18203,1.1803 -1.624,1.889 -0.44818,0.71222 -0.80277,1.47919 -1.055,2.282 -0.30099,0.88941 -0.53563,1.7999 -0.702,2.724 l 4.655,1.011 c 0.307,-1.361 0.702,-2.46 1.097,-3.25 0.44,-0.791 1.055,-1.361 1.89,-1.8 0.878,-0.396 1.669,-0.528 2.459,-0.31 0.745,0.22 1.361,0.748 1.8,1.713 0.22,0.44 0.352,0.879 0.439,1.318 0.043,0.438 0,0.923 -0.088,1.493 -0.15846,0.61936 -0.33386,1.23425 -0.526,1.844 -0.32107,0.78315 -0.65814,1.55965 -1.011,2.329 z m 29.818,-13.219 c -1.493,1.274 -2.987,2.109 -4.48,2.548 -1.537,0.482 -3.074,0.658 -4.699,0.57 l -0.044,-4.962 c 1.23,0.044 2.373,-0.088 3.338,-0.308 1.011,-0.263 1.889,-0.746 2.724,-1.449 0.923,-0.79 1.493,-1.625 1.669,-2.546 0.175,-0.88 -0.088,-1.757 -0.79,-2.592 l -0.044,-0.044 c -0.66,-0.79 -1.493,-1.143 -2.46,-1.055 -0.96667,0.0447 -1.93267,0.48367 -2.898,1.317 -0.55048,0.46123 -1.03799,0.99278 -1.45,1.581 -0.395,0.57 -0.745,1.143 -1.009,1.713 l -3.645,0.438 -7.159,-9.484 11.242,-9.573 3.03,3.557 -7.817,6.631 2.504,3.338 c 0.308,-0.396 0.614,-0.746 0.922,-1.143 0.307,-0.351 0.703,-0.746 1.229,-1.185 0.878,-0.747 1.801,-1.361 2.768,-1.801 0.92509,-0.42393 1.92419,-0.66275 2.941,-0.703 1.00719,-0.0408 2.00718,0.18628 2.898,0.658 0.967,0.44 1.889,1.187 2.768,2.196 l 0.044,0.044 c 0.833,0.966 1.405,1.977 1.712,3.074 0.352,1.054 0.439,2.108 0.308,3.162 -0.131,1.054 -0.526,2.107 -1.143,3.118 -0.615,1.057 -1.448,2.023 -2.459,2.9"
       id="path4"
       sodipodi:nodetypes="csssccccccccccccccccccccccccccccccccccccscscsscsccssccccccccssccccsscscsccccccccccccccccccccccccccccccccccccccccccccccccccccccccccccccccccccccccccccccccccccccccccccccccccccccccccccccccccccccccccccccccccccsscsscsccsscccccsscccccscsscsscccsscsscsccsscssccccccccccccccccccccccccccccccccccccccccccccccccccccccccccccccccccccccccccccccccccccccccccccccccccccccccccccccccccccsscsscsccccccccccccssccscsscssccccccsscssccscsscscccccccccccccccccccccccccccccccccccccccccscccccccscccccccccccccccccccccccccccccccccccccccccccccccccccccccccccscc" /></g></svg>
