<?xml version="1.0" encoding="UTF-8" standalone="no"?>
<svg
   xml:space="preserve"
   width="275"
   height="275"
   version="1.1"
   id="svg2"
   sodipodi:docname="besa-peja.svg"
   inkscape:version="1.4.2 (f4327f4, 2025-05-13)"
   xmlns:inkscape="http://www.inkscape.org/namespaces/inkscape"
   xmlns:sodipodi="http://sodipodi.sourceforge.net/DTD/sodipodi-0.dtd"
   xmlns="http://www.w3.org/2000/svg"
   xmlns:svg="http://www.w3.org/2000/svg"><defs
     id="defs2" /><sodipodi:namedview
     id="namedview2"
     pagecolor="#ffffff"
     bordercolor="#000000"
     borderopacity="0.25"
     inkscape:showpageshadow="2"
     inkscape:pageopacity="0.0"
     inkscape:pagecheckerboard="0"
     inkscape:deskcolor="#d1d1d1"
     inkscape:zoom="2.9345455"
     inkscape:cx="137.5"
     inkscape:cy="137.5"
     inkscape:window-width="1920"
     inkscape:window-height="1009"
     inkscape:window-x="-8"
     inkscape:window-y="-8"
     inkscape:window-maximized="1"
     inkscape:current-layer="svg2" /><path
     fill="#FFF"
     d="M137.5 0C213.432 0 275 61.568 275 137.5S213.432 275 137.5 275 0 213.432 0 137.5 61.568 0 137.5 0"
     id="path1" /><path
     fill="#ea252c"
     d="M 137.5,0 C 213.432,0 275,61.568 275,137.5 275,213.432 213.432,275 137.5,275 61.568,275 0,213.432 0,137.5 0,61.568 61.568,0 137.5,0 m 18.406,262.68 c 0.86202,0.008 1.71891,-0.13346 2.533,-0.417 0.70207,-0.24121 1.34563,-0.62721 1.889,-1.133 0.53,-0.492 0.908,-1.097 1.21,-1.739 0.27635,-0.69731 0.4172,-1.44093 0.415,-2.191 v -0.038 c 0,-0.794 -0.15,-1.437 -0.377,-2.004 -0.25285,-0.51285 -0.5991,-0.97406 -1.021,-1.36 -0.43229,-0.36016 -0.91639,-0.65312 -1.436,-0.869 -0.566,-0.188 -1.096,-0.34 -1.663,-0.416 1.398,-1.359 2.797,-2.683 4.233,-4.043 v -2.76 h -11.301 v 3.175 h 6.539 l -3.969,3.969 c 0.188,0.755 0.377,1.55 0.566,2.343 h 1.549 c 1.021,0 1.815,0.15 2.382,0.529 0.567,0.378 0.87,0.869 0.87,1.55 v 0.075 c 0,0.604 -0.227,1.097 -0.644,1.475 -0.453,0.34 -1.02,0.528 -1.7,0.528 -0.87,0 -1.625,-0.188 -2.229,-0.528 -0.64333,-0.34 -1.24833,-0.83167 -1.815,-1.475 l -2.532,2.42 c 0.74955,0.86217 1.66157,1.56828 2.684,2.078 1.058,0.565 2.344,0.831 3.817,0.831 m -19.804,-3.214 v 2.91 h 12.322 v -3.175 h -7.257 c 0.906,-0.68 1.813,-1.398 2.721,-2.078 0.65398,-0.5151 1.2968,-1.04422 1.928,-1.587 0.49367,-0.45252 0.94859,-0.94558 1.36,-1.474 0.34,-0.455 0.643,-0.983 0.793,-1.551 0.20866,-0.59486 0.31154,-1.22165 0.304,-1.852 v -0.038 c 0,-0.793 -0.151,-1.474 -0.417,-2.116 -0.27897,-0.6141 -0.67698,-1.16677 -1.171,-1.626 -0.529,-0.453 -1.134,-0.793 -1.814,-1.058 -0.7591,-0.23223 -1.5492,-0.34722 -2.343,-0.341 -0.757,0 -1.437,0.077 -2.004,0.228 -0.57363,0.14109 -1.12184,0.3705 -1.625,0.68 -0.491,0.265 -0.944,0.644 -1.36,1.059 -0.416,0.453 -0.832,0.945 -1.248,1.512 0.87338,0.67174 1.7303,1.36461 2.57,2.078 0.643,-0.793 1.172,-1.36 1.701,-1.7 0.48572,-0.37667 1.08543,-0.57634 1.7,-0.566 0.681,0 1.21,0.188 1.626,0.566 0.416,0.34 0.643,0.907 0.643,1.625 0,0.341 -0.076,0.644 -0.151,0.945 -0.113,0.302 -0.302,0.604 -0.53,0.907 -0.26613,0.34713 -0.55617,0.67526 -0.868,0.982 -0.378,0.34133 -0.83133,0.71933 -1.36,1.134 -1.853,1.512 -3.668,3.024 -5.52,4.536 m -8.24,3.214 c 1.21,0 2.23,-0.227 3.138,-0.682 0.88896,-0.43377 1.66527,-1.0677 2.268,-1.852 0.643,-0.794 1.096,-1.738 1.398,-2.872 0.34,-1.134 0.491,-2.344 0.491,-3.704 v -0.038 c 0,-0.831 -0.038,-1.587 -0.151,-2.229 -0.0669,-0.58218 -0.20668,-1.15365 -0.416,-1.701 -0.14127,-0.47818 -0.34467,-0.93575 -0.605,-1.361 -0.22175,-0.37107 -0.48806,-0.71361 -0.793,-1.02 -0.34,-0.303 -0.643,-0.567 -0.983,-0.794 -0.34,-0.265 -0.718,-0.415 -1.096,-0.566 -0.40253,-0.15797 -0.82096,-0.27197 -1.248,-0.34 -0.4999,-0.0805 -1.00569,-0.1186 -1.512,-0.114 -0.945,0 -1.777,0.152 -2.57,0.454 -0.793,0.302 -1.474,0.68 -2.002,1.21 -0.567,0.528 -1.021,1.133 -1.323,1.852 -0.303,0.717 -0.454,1.474 -0.454,2.344 v 0.037 c 0,0.831 0.151,1.588 0.416,2.268 0.264,0.681 0.68,1.209 1.209,1.7 0.529,0.454 1.134,0.794 1.89,1.059 0.79471,0.25003 1.62288,0.3775 2.456,0.378 0.71867,0 1.36133,-0.11333 1.928,-0.34 0.529,-0.189 1.021,-0.453 1.437,-0.831 -0.113,1.133 -0.453,2.078 -1.021,2.759 -0.529,0.718 -1.323,1.058 -2.344,1.058 -0.71733,0 -1.35967,-0.11333 -1.927,-0.34 -0.567,-0.227 -1.134,-0.604 -1.739,-1.097 -0.643,0.945 -1.285,1.854 -1.927,2.797 0.718,0.568 1.512,1.059 2.343,1.398 0.869,0.377 1.928,0.567 3.137,0.567 m 0.68,-9.034 c 0.907,0 1.625,-0.227 2.116,-0.718 0.48794,-0.44529 0.76292,-1.07746 0.756,-1.738 v -0.076 c 0.0116,-0.69113 -0.27779,-1.35318 -0.793,-1.814 -0.491,-0.49 -1.209,-0.717 -2.154,-0.717 -0.907,0 -1.625,0.227 -2.117,0.717 -0.491,0.455 -0.718,1.059 -0.718,1.814 v 0.039 c 0,0.755 0.265,1.321 0.756,1.813 0.52867,0.45333 1.24667,0.68 2.154,0.68 m -11.073,-8.05 h -4.423 v 2.873 h 3.327 v 13.907 h 3.59 v -16.78 z M 137.5,38.476 c -54.69,0 -99.024,44.334 -99.024,99.024 0,54.69 44.333,99.062 99.024,99.062 54.691,0 99.062,-44.371 99.062,-99.062 0,-54.691 -44.372,-99.024 -99.062,-99.024 m 32.24,73.927 c 0,14.589 -1.929,28.271 -5.707,40.933 21.052,13.343 40.402,17.046 55.937,18.671 4.461,-10.62 6.916,-22.261 6.916,-34.507 0,-49.361 -40.024,-89.387 -89.386,-89.387 -49.362,0 -89.387,40.026 -89.387,89.387 0,12.284 2.457,23.963 6.955,34.584 15.685,-1.589 35.339,-5.179 56.731,-18.748 -3.591,-12.056 -5.48,-25.02 -5.669,-38.816 0,-1.663 0.151,-3.212 0.416,-4.837 0.227,2.835 0.378,5.708 0.756,8.542 1.285,10.922 4.346,21.846 8.807,32.277 1.5356,-1.08025 3.06001,-2.1763 4.573,-3.288 -5.405,-10.243 -9.638,-21.808 -12.17,-34.811 -0.416,-2.154 -0.793,-4.309 -1.209,-6.5 0.454,-1.928 0.907,-3.893 1.436,-5.82 1.21,4.082 2.382,8.202 3.591,12.321 3.477,11.491 8.126,21.62 13.758,30.539 1.965,-1.625 3.93,-3.364 5.934,-5.178 -5.60459,-7.2297 -10.33663,-15.09541 -14.098,-23.434 -3.288,-6.727 -5.291,-13.342 -7.673,-19.956 2.457,-8.617 5.368,-16.328 9.751,-20.863 -1.474,-0.718 -2.607,-2.268 -3.515,-5.594 5.594,1.059 13.53,0.152 21.014,0.946 7.862,0.793 15.496,4.497 15.723,8.768 10.054,4.8 12.171,11.263 7.445,18.709 -3.023,-7.03 -15.534,-9.827 -20.749,-3.477 -4.762,5.783 -1.172,12.246 4.12,15.836 5.292,3.59 9.146,3.704 14.74,3.704 -3.969,9.261 -9.07,17.727 -14.931,25.361 1.93206,1.77871 3.91144,3.50533 5.936,5.178 5.594,-8.919 10.242,-19.048 13.757,-30.539 h 3.817 c -2.57,13.002 -6.766,24.567 -12.169,34.811 1.50627,1.12045 3.03046,2.21659 4.572,3.288 5.215,-12.283 8.542,-25.248 9.335,-38.099 z m 43.73,72.228 c -17.916,-2.041 -36.624,-8.957 -53.255,-20.334 -1.36,3.439 -2.91,6.766 -4.572,10.016 14.475,10.469 31.143,17.651 48.793,22.451 3.33928,-3.78949 6.36083,-7.84754 9.034,-12.133 M 192.757,207.8 c -14.589,-5.442 -29.329,-13.343 -42.444,-24.227 -1.89399,2.99791 -3.93723,5.89889 -6.122,8.692 10.469,10.507 22.488,18.897 35.376,24.114 4.63112,-2.48193 9.04357,-5.35187 13.19,-8.579 m -27.325,14.627 c -10.546,-6.577 -19.729,-14.211 -27.516,-22.715 -7.824,8.579 -17.122,16.252 -27.78,22.903 8.84522,2.8317 18.07656,4.27254 27.364,4.271 9.751,0 19.125,-1.549 27.932,-4.459 m -69.62,-5.859 c 13.039,-5.179 25.286,-13.683 35.831,-24.303 -2.16829,-2.81861 -4.21128,-5.73144 -6.123,-8.73 -13.267,11.073 -28.233,19.049 -42.974,24.454 4.153948,3.25428 8.594083,6.12567 13.266,8.579 M 70.753,196.952 c 17.877,-4.8 34.81,-12.056 49.475,-22.64 -1.664,-3.25 -3.213,-6.576 -4.574,-10.016 -16.895,11.527 -35.906,18.52 -54.086,20.409 2.712245,4.33307 5.78478,8.4299 9.185,12.247 M 146.836,78.048 c 0.906,-0.113 1.738,-0.567 2.268,-0.908 -4.045,0.567 -7.823,-0.944 -12.964,-0.566 1.323,0.227 2.684,0.416 3.325,0.605 0.53,2.041 1.777,3.628 3.554,3.628 1.738,0 2.985,-1.323 3.817,-2.759 m -8.92,107.452 c 2.12172,-2.45575 4.15146,-4.9895 6.085,-7.596 -2.1031,-1.99159 -4.13278,-4.0593 -6.085,-6.199 -1.965,2.154 -3.969,4.232 -6.047,6.199 1.927,2.607 3.968,5.139 6.047,7.596 m 11.717,-15.798 c 1.928,-2.985 3.666,-6.047 5.328,-9.185 -1.76052,-1.34204 -3.48674,-2.72848 -5.177,-4.158 -1.83615,2.83964 -3.79053,5.60107 -5.858,8.277 1.85661,1.73949 3.75963,3.42876 5.707,5.066 m -23.434,0 c 1.96711,-1.62829 3.88304,-3.31744 5.745,-5.065 -2.06852,-2.68402 -4.03524,-5.44498 -5.896,-8.277 -1.701,1.437 -3.402,2.835 -5.179,4.158 1.65819,3.12858 3.43617,6.19218 5.33,9.184 m 11.717,-24.832 c -1.965,2.192 -4.006,4.271 -6.123,6.313 1.92978,2.53477 3.97286,4.98125 6.123,7.332 2.17078,-2.33263 4.21472,-4.78015 6.123,-7.332 -2.09775,-2.04853 -4.13951,-4.15364 -6.123,-6.313"
     id="path2"
     sodipodi:nodetypes="csssccccccscccccccccccscsscscccccccccccccccsccccccccccccscccccccccssccccccccsccsscccccccsccccccccccscsscccccccccccsssccccssscccccccccccccccccccccsccccccccccccccccccccccccccccccccccccccsccccccccccccccccccccc" /></svg>
