<?xml version="1.0" encoding="UTF-8" standalone="no"?>
<svg
   width="266.915"
   height="374.651"
   viewBox="-48.325 -67.986 275 386.472"
   version="1.1"
   id="svg6"
   sodipodi:docname="bylis.svg"
   inkscape:version="1.4.2 (f4327f4, 2025-05-13)"
   xmlns:inkscape="http://www.inkscape.org/namespaces/inkscape"
   xmlns:sodipodi="http://sodipodi.sourceforge.net/DTD/sodipodi-0.dtd"
   xmlns="http://www.w3.org/2000/svg"
   xmlns:svg="http://www.w3.org/2000/svg">
  <defs
     id="defs6" />
  <sodipodi:namedview
     id="namedview6"
     pagecolor="#ffffff"
     bordercolor="#000000"
     borderopacity="0.25"
     inkscape:showpageshadow="2"
     inkscape:pageopacity="0.0"
     inkscape:pagecheckerboard="0"
     inkscape:deskcolor="#d1d1d1"
     inkscape:zoom="1.5231113"
     inkscape:cx="314.81613"
     inkscape:cy="195.32387"
     inkscape:window-width="1920"
     inkscape:window-height="1009"
     inkscape:window-x="-8"
     inkscape:window-y="-8"
     inkscape:window-maximized="1"
     inkscape:current-layer="g5" />
  <g
     fill-rule="evenodd"
     clip-rule="evenodd"
     id="g6">
    <path
       fill="#fff"
       d="m89.204 318.486-137.529-98.561v-287.91h275v287.91z"
       id="path1" />
    <path
       fill="#c92c2d"
       d="m89.204 318.486-137.529-98.562v-287.91h275v287.91zm0-6.601 20.157-14.489V254.22h38.794v15.424l39.377-28.219V-62.61h-39.377v28.919h-38.794V-62.61H68.989v28.919H30.197V-62.61H-9.181v304.035l39.377 28.219V254.22h38.792v43.176zM68.989 17.956H30.197v44.109a83.9 83.9 0 0 1 38.792-21.909zm0 184.267c-14.897-3.68-28.218-11.393-38.792-21.909v31.375h38.792zm79.166-184.267h-38.794v22.2a83.9 83.9 0 0 1 38.794 21.909zm0 162.357c-10.575 10.517-23.896 18.229-38.794 21.909v9.466h38.794z"
       id="path2" />
    <path
       fill="#f8cc2c"
       d="M165.271 121.189c0-41.89-34.177-76.066-76.067-76.066-41.947 0-76.126 34.177-76.126 76.066s34.179 76.067 76.126 76.067c41.89.001 76.067-34.177 76.067-76.067"
       id="path3" />
    <path
       fill="#5a4830"
       d="m 69.165,128.552 c 1.343,-0.994 2.453,-1.928 3.388,-2.687 l -1.812,7.186 6.018,-3.856 -3.798,8.003 c 7.187,-2.162 16.125,-6.719 20.098,-11.042 2.161,-2.395 4.731,-5.725 5.551,-9.873 1.167,-6.193 -0.7,-8.705 -3.272,-11.743 6.602,1.928 7.304,12.21 2.045,20.039 -3.796,5.608 -9.522,9.231 -16.241,13.146 -10.691,6.074 -24.889,19.103 -30.205,28.568 1.519,-1.053 6.777,-3.973 7.187,-4.323 3.622,-5.201 11.392,-14.84 18.402,-19.922 -3.213,5.315 -6.952,9.756 -10.048,18.869 1.578,-1.692 7.828,-14.254 12.562,-17.527 0.875,1.345 -0.117,4.09 -0.526,5.435 0.058,0 0.41,0 1.928,-0.702 -0.175,16.359 -3.039,14.548 -3.915,16.01 -0.117,0.233 -0.117,0.7 -0.175,1.167 6.602,-3.037 7.77,-0.7 10.048,-0.759 1.636,0 1.636,-0.525 2.162,-0.817 0.76,-0.41 0.994,0.175 1.52,0.175 -0.292,-0.644 -0.701,-1.11 -1.285,-1.286 -2.22,-0.525 -5.316,0.059 -6.602,-0.934 -1.345,-1.111 1.519,-12.62 1.752,-15.073 1.052,0.292 1.403,0.584 2.747,0.759 -1.403,-10.691 1.343,-8.005 11.918,-15.19 12.562,-8.646 19.338,-25.181 6.31,-35.755 -5.376,-4.381 -8.413,-4.031 -9.699,-11.393 -0.934,-5.726 -0.642,-7.829 5.026,-5.142 3.445,1.578 3.037,2.454 3.796,3.798 3.564,-1.753 1.869,-4.265 -0.701,-11.158 C 102,68.843 99.663,65.572 95.164,64.636 84.999,62.475 79.683,72.758 81.26,82.047 c 2.22,13.671 6.952,10.282 -1.812,26.29 -3.097,5.667 -7.888,15.424 -10.283,20.215 m 20.507,10.573 4.439,-2.745 c 1.227,2.512 2.921,4.731 3.799,5.843 -1.345,-0.059 -1.695,-0.059 -2.456,-0.059 1.52,4.557 8.764,16.825 10.167,17.819 1.344,0.992 4.206,0.642 6.426,1.051 0.643,0.175 0.993,0.644 1.345,1.228 -0.469,0 -0.761,-0.525 -1.52,-0.117 -0.525,0.292 -0.467,0.876 -2.045,0.992 -2.396,0.117 -3.623,-2.161 -10.107,1.229 0.058,-0.468 0.058,-1.053 0.116,-1.229 0.411,-0.759 1.753,-0.875 2.514,-2.628 0.817,-1.812 -7.713,-11.743 -10.691,-17.353 -0.994,0.525 -1.753,1.345 -1.812,1.345 0.059,-1.169 -0.116,-3.564 -0.175,-5.376 M 71.151,127.967 c -0.583,1.812 -1.168,3.564 -1.869,5.317 -2.805,3.212 -5.726,6.485 -8.588,9.697 2.862,-5.315 6.718,-10.283 10.457,-15.014 m 3.213,3.856 c -1.11,1.986 -2.102,4.031 -3.271,6.018 -4.382,2.921 -9.114,6.193 -13.496,9.989 5.025,-6.074 10.691,-11.334 16.767,-16.007 m 12.153,0.992 c -10.108,5.668 -19.046,12.036 -27.577,18.579 -2.045,1.051 -3.155,2.104 -5.316,3.623 7.186,-10.165 20.507,-17.235 32.893,-22.202 m -14.022,13.906 c -3.74,6.077 -7.42,12.269 -10.4,18.753 -1.993586,1.13675 -3.979959,2.28611 -5.959,3.448 4.732,-8.413 10.341,-15.657 16.359,-22.201 M 99.077,69.719 c 0.643,0.468 1.17,1.168 1.578,1.869 0.351,0.525 0.175,1.169 -0.584,0.818 -0.877,-0.468 -1.578,-0.876 -2.045,-1.753 -0.235,-0.525 -0.176,-1.811 1.051,-0.934 M 89.321,51.841 c 1.402,0 2.455,1.052 2.455,2.513 0,1.343 -1.053,2.453 -2.455,2.453 -1.402,0 -2.512,-1.11 -2.512,-2.453 0,-1.461 1.11,-2.513 2.512,-2.513 m -68.473,60.001 c 0.117,-1.344 1.403,-2.278 2.805,-2.161 1.343,0.233 2.278,1.519 2.162,2.862 -0.233,1.344 -1.519,2.336 -2.863,2.161 -1.402,-0.233 -2.337,-1.46 -2.104,-2.862 M 98.319,52.366 c 1.401,0.233 2.337,1.462 2.162,2.863 -0.175,1.401 -1.403,2.337 -2.806,2.104 -1.401,-0.117 -2.337,-1.403 -2.162,-2.805 0.175,-1.343 1.461,-2.278 2.806,-2.162 m 54.508,76.887 c 0.176,-1.345 1.46,-2.337 2.804,-2.162 1.345,0.233 2.337,1.461 2.162,2.862 -0.175,1.345 -1.403,2.278 -2.804,2.104 -1.344,-0.176 -2.278,-1.462 -2.162,-2.804 m -71.861,55.209 c 1.344,0.117 2.279,1.403 2.162,2.804 -0.175,1.345 -1.46,2.278 -2.804,2.162 -1.402,-0.233 -2.396,-1.518 -2.162,-2.862 0.117,-1.404 1.402,-2.337 2.804,-2.104 m -58.365,-81.5 c 0.292,-1.228 1.695,-2.045 3.038,-1.753 1.402,0.35 2.104,1.753 1.752,3.097 -0.292,1.343 -1.752,2.104 -3.096,1.752 -1.344,-0.292 -2.044,-1.752 -1.694,-3.096 m 84.597,-48.784 c 1.343,0.351 2.162,1.694 1.754,3.038 -0.353,1.344 -1.695,2.162 -3.04,1.811 -1.342,-0.408 -2.161,-1.752 -1.812,-3.097 0.412,-1.343 1.755,-2.161 3.098,-1.752 m 43.994,83.255 c 0.35,-1.286 1.753,-2.045 3.096,-1.695 1.286,0.292 2.103,1.695 1.753,3.037 -0.351,1.286 -1.753,2.104 -3.096,1.754 -1.345,-0.293 -2.045,-1.755 -1.753,-3.096 m -78.463,45.335 c 1.343,0.41 2.162,1.753 1.812,3.098 -0.41,1.342 -1.753,2.161 -3.097,1.753 -1.344,-0.353 -2.162,-1.694 -1.753,-3.039 0.35,-1.344 1.694,-2.163 3.038,-1.812 M 25.465,94.432 c 0.525,-1.285 2.044,-1.869 3.271,-1.344 1.285,0.525 1.927,2.044 1.344,3.33 -0.526,1.228 -1.987,1.869 -3.272,1.344 -1.285,-0.584 -1.87,-2.045 -1.343,-3.33 M 115.729,57.1 c 1.284,0.525 1.87,1.985 1.401,3.271 -0.525,1.285 -1.987,1.869 -3.271,1.344 -1.286,-0.526 -1.928,-1.986 -1.344,-3.271 0.525,-1.286 1.928,-1.871 3.214,-1.344 m 32.775,88.277 c 0.525,-1.284 1.986,-1.87 3.213,-1.343 1.344,0.525 1.986,2.045 1.461,3.329 -0.584,1.228 -2.045,1.87 -3.331,1.345 -1.284,-0.586 -1.87,-2.045 -1.343,-3.331 M 64.783,180.08 c 1.285,0.525 1.869,1.987 1.343,3.273 -0.526,1.283 -1.928,1.867 -3.213,1.342 -1.285,-0.525 -1.87,-1.928 -1.402,-3.212 0.526,-1.286 1.986,-1.928 3.272,-1.403 M 29.495,86.369 c 0.702,-1.169 2.22,-1.577 3.447,-0.935 1.11,0.701 1.578,2.221 0.876,3.447 -0.7,1.227 -2.22,1.577 -3.447,0.876 -1.168,-0.7 -1.635,-2.22 -0.876,-3.388 m 94.353,-25.298 c 1.229,0.702 1.637,2.221 0.937,3.389 -0.7,1.227 -2.278,1.637 -3.448,0.936 -1.167,-0.643 -1.576,-2.221 -0.934,-3.389 0.68377,-1.221453 2.23713,-1.643498 3.445,-0.936 m 20.975,91.843 c 0.7,-1.228 2.22,-1.636 3.447,-0.877 1.109,0.702 1.518,2.22 0.876,3.447 -0.701,1.109 -2.221,1.52 -3.448,0.876 -1.225,-0.7 -1.633,-2.22 -0.875,-3.446 m -87.576,23.485 c 1.227,0.702 1.635,2.22 0.935,3.389 -0.643,1.229 -2.22,1.637 -3.388,0.935 -1.228,-0.701 -1.636,-2.221 -0.993,-3.388 0.758,-1.228 2.219,-1.637 3.446,-0.936 M 34.461,78.832 c 0.877,-1.11 2.454,-1.344 3.564,-0.467 1.11,0.818 1.285,2.453 0.468,3.505 -0.876,1.11 -2.396,1.345 -3.564,0.468 -1.052,-0.876 -1.286,-2.396 -0.468,-3.506 m 96.925,-12.735 c 1.051,0.876 1.284,2.395 0.467,3.505 -0.875,1.11 -2.395,1.344 -3.564,0.467 -1.051,-0.817 -1.284,-2.453 -0.467,-3.505 0.877,-1.111 2.395,-1.344 3.564,-0.467 m 8.705,93.828 c 0.8662,-1.09314 2.44434,-1.29999 3.563,-0.467 1.111,0.875 1.286,2.395 0.411,3.445 -0.762,1.17 -2.337,1.403 -3.448,0.527 -1.11,-0.819 -1.285,-2.454 -0.526,-3.505 m -89.739,11.801 c 1.052,0.819 1.228,2.453 0.41,3.506 -0.818,1.168 -2.395,1.345 -3.505,0.467 -1.11,-0.816 -1.286,-2.395 -0.468,-3.504 0.876,-1.112 2.395,-1.345 3.563,-0.469 m -9.874,-99.67 c 0.994,-0.994 2.513,-0.994 3.565,0 0.934,0.935 0.934,2.571 0,3.505 -1.052,0.993 -2.571,0.993 -3.565,0 -0.993,-0.934 -0.993,-2.571 0,-3.505 m 97.685,0 c 0.934,0.935 0.934,2.571 0,3.505 -0.981,0.992724 -2.584,0.992724 -3.565,0 -0.934,-0.934 -0.934,-2.57 0,-3.505 0.98053,-0.993853 2.58447,-0.993853 3.565,0 m -3.565,94.178 c 0.98053,-0.99385 2.58447,-0.99385 3.565,0 0.934,0.935 0.934,2.57 0,3.505 -0.98053,0.99385 -2.58447,0.99385 -3.565,0 -0.934,-0.934 -0.934,-2.57 0,-3.505 m -90.555,0 c 0.934,0.935 0.934,2.57 0,3.505 -1.052,0.994 -2.571,0.994 -3.565,0 -0.993,-0.935 -0.993,-2.57 0,-3.505 0.994,-0.994 2.513,-0.994 3.565,0 M 47.257,66.097 c 1.088647,-0.869047 2.681872,-0.656769 3.505,0.467 0.876,1.052 0.642,2.688 -0.41,3.505 -1.168,0.877 -2.687,0.644 -3.563,-0.467 -0.819,-1.111 -0.643,-2.629 0.468,-3.505 m 96.808,12.735 c 0.875,1.11 0.7,2.63 -0.411,3.506 -1.109,0.877 -2.687,0.643 -3.563,-0.468 -0.759,-1.052 -0.584,-2.687 0.525,-3.505 1.112,-0.877 2.687,-0.643 3.449,0.467 m -15.777,92.894 c 1.17,-0.876 2.689,-0.643 3.564,0.469 0.817,1.109 0.584,2.688 -0.467,3.504 -1.169,0.878 -2.687,0.701 -3.564,-0.467 -0.817,-1.053 -0.583,-2.687 0.467,-3.506 M 38.493,159.925 c 0.817,1.051 0.642,2.687 -0.468,3.506 -1.128593,0.84303 -2.727684,0.60658 -3.564,-0.527 -0.818,-1.051 -0.584,-2.57 0.467,-3.445 1.169,-0.82 2.688,-0.646 3.565,0.466 m 16.3,-98.854 c 1.168,-0.7 2.745,-0.291 3.388,0.936 0.701,1.168 0.292,2.746 -0.935,3.389 -1.227,0.701 -2.688,0.291 -3.447,-0.936 -0.642,-1.168 -0.234,-2.687 0.994,-3.389 m 94.354,25.298 c 0.642,1.168 0.233,2.688 -0.876,3.389 -1.228,0.701 -2.747,0.351 -3.447,-0.876 -0.759,-1.227 -0.351,-2.746 0.875,-3.447 1.227,-0.643 2.747,-0.235 3.448,0.934 m -27.752,90.03 c 1.111,-0.701 2.689,-0.292 3.39,0.936 0.7,1.167 0.292,2.687 -0.937,3.388 -1.2076,0.70766 -2.76088,0.28609 -3.445,-0.935 -0.643,-1.169 -0.234,-2.686 0.992,-3.389 M 33.818,152.914 c 0.702,1.226 0.234,2.746 -0.876,3.446 -1.227,0.644 -2.745,0.233 -3.447,-0.876 -0.759,-1.228 -0.292,-2.745 0.876,-3.447 1.227,-0.759 2.747,-0.35 3.447,0.877 M 62.913,57.1 c 1.285,-0.526 2.687,0.059 3.213,1.344 0.525,1.285 -0.058,2.745 -1.343,3.271 -1.286,0.525 -2.747,-0.059 -3.272,-1.344 -0.467,-1.286 0.117,-2.746 1.402,-3.271 m 90.265,37.332 c 0.525,1.285 -0.175,2.746 -1.461,3.33 -1.227,0.525 -2.688,-0.059 -3.213,-1.344 -0.527,-1.286 0.059,-2.805 1.343,-3.33 1.29109,-0.525371 2.76603,0.06974 3.331,1.344 m -39.319,85.648 c 1.284,-0.525 2.746,0.117 3.271,1.403 0.469,1.284 -0.117,2.687 -1.401,3.212 -1.286,0.525 -2.688,-0.059 -3.214,-1.342 -0.584,-1.286 0.058,-2.748 1.344,-3.273 M 30.08,145.377 c 0.583,1.286 -0.059,2.745 -1.344,3.331 -1.228,0.525 -2.746,-0.117 -3.271,-1.345 -0.526,-1.284 0.058,-2.804 1.343,-3.329 1.285,-0.527 2.745,0.059 3.272,1.343 M 71.444,54.178 c 1.343,-0.409 2.687,0.409 3.097,1.752 0.35,1.345 -0.468,2.688 -1.812,3.097 -1.344,0.352 -2.688,-0.467 -3.038,-1.811 -0.409,-1.344 0.409,-2.688 1.753,-3.038 m 84.596,48.784 c 0.35,1.344 -0.467,2.804 -1.753,3.096 -1.343,0.352 -2.746,-0.409 -3.096,-1.752 -0.292,-1.344 0.408,-2.747 1.753,-3.097 1.343,-0.292 2.746,0.525 3.096,1.753 m -50.128,79.806 c 1.345,-0.351 2.688,0.469 3.04,1.812 0.408,1.345 -0.411,2.687 -1.754,3.039 -1.344,0.408 -2.687,-0.411 -3.098,-1.753 -0.349,-1.345 0.471,-2.688 1.812,-3.098 m -78.52,-45.335 c 0.351,1.342 -0.409,2.804 -1.752,3.096 -1.343,0.35 -2.746,-0.468 -3.038,-1.754 -0.35,-1.342 0.35,-2.745 1.695,-3.037 1.342,-0.35 2.803,0.408 3.095,1.695 M 80.324,52.366 c 1.343,-0.116 2.628,0.818 2.804,2.162 0.118,1.401 -0.817,2.688 -2.162,2.805 -1.402,0.233 -2.688,-0.701 -2.804,-2.104 -0.234,-1.401 0.76,-2.629 2.162,-2.863 m 77.469,59.476 c 0.175,1.402 -0.817,2.629 -2.162,2.862 -1.344,0.175 -2.628,-0.817 -2.804,-2.161 -0.116,-1.344 0.817,-2.629 2.162,-2.862 1.401,-0.118 2.629,0.817 2.804,2.161 m -60.177,72.62 c 1.461,-0.233 2.688,0.7 2.864,2.104 0.175,1.345 -0.761,2.629 -2.162,2.862 -1.345,0.116 -2.631,-0.817 -2.806,-2.162 -0.174,-1.401 0.762,-2.687 2.104,-2.804 m 60.761,-63.506 c -0.009,1.35128 -1.10271,2.44428 -2.454,2.453 -1.402,0 -2.57,-1.11 -2.57,-2.453 -0.008,-1.42283 1.14717,-2.57838 2.57,-2.57 1.345,0 2.454,1.109 2.454,2.57 m -69.056,64.031 c 1.361343,-0.0124 2.467926,1.09466 2.455,2.456 0,1.459 -1.053,2.512 -2.455,2.512 -1.402,0 -2.512,-1.053 -2.512,-2.512 0,-1.344 1.11,-2.456 2.512,-2.456 M 25.288,120.956 c 0,1.343 -1.168,2.453 -2.57,2.453 -1.343,0 -2.512,-1.11 -2.512,-2.453 0,-1.461 1.168,-2.57 2.512,-2.57 1.422828,-0.008 2.578378,1.14717 2.57,2.57 m 0.527,8.297 c 0.117,1.342 -0.818,2.628 -2.162,2.804 -1.402,0.175 -2.688,-0.759 -2.805,-2.104 -0.234,-1.401 0.701,-2.629 2.103,-2.862 1.345,-0.175 2.63,0.817 2.864,2.162"
       id="path4"
       sodipodi:nodetypes="cccccccccccccccccccccccccccccccccccccccccccccccccccccccccccccccccccccccccssscccccccsccccccccccccccccccccccccccccccccccccccccccccccccccsccccccccccccccccccccccccccccccccccccccccccccccccccccccccccccccccccccccccccccccccccccccccccccccccccccccccccccccccccccccccccccccccccccccccccccccccccccccccccccccccccccssccssccccccc" />
    <g
       fill="#c92c2d"
       id="g5">
      <path
         d="m 123.381,239.73 h 9.056 v 5.259 h -16.941 v -4.207 l 5.782,-5.901 c 1.111,-1.05 2.337,-2.278 3.215,-3.504 0.408,-0.469 0.817,-1.053 1.051,-1.694 0.175,-0.467 0.292,-0.994 0.292,-1.52 0,-0.526 -0.117,-1.109 -0.525,-1.52 -0.467,-0.409 -1.051,-0.525 -1.578,-0.525 -0.817,0 -1.576,0.233 -2.278,0.585 -0.876,0.409 -1.693,0.992 -2.454,1.576 l -0.467,0.409 -3.39,-3.972 0.47,-0.41 c 0.875,-0.759 1.867,-1.576 2.861,-2.104 0.817,-0.408 1.637,-0.759 2.513,-0.934 0.994,-0.292 2.045,-0.351 3.037,-0.351 1.402,0 2.747,0.233 4.031,0.817 1.111,0.525 2.104,1.344 2.747,2.395 0.701,1.053 0.992,2.221 0.992,3.507 0,1.051 -0.175,2.161 -0.583,3.153 -0.409,1.053 -1.053,2.045 -1.753,2.923 -1.17,1.459 -2.746,2.921 -4.091,4.148 z m -20.798,-13.378 h -10.75 v -5.258 h 17.41 v 3.74 l -8.763,19.98 h -6.369 z m -23.427,9.232 c -0.351,0.292 -0.76,0.583 -1.168,0.759 -0.993,0.525 -2.104,0.642 -3.213,0.642 -1.987,0 -3.74,-0.642 -5.083,-2.161 -1.402,-1.518 -1.812,-3.621 -1.812,-5.666 0,-2.278 0.643,-4.44 2.279,-6.135 1.635,-1.637 3.797,-2.221 6.075,-2.221 1.637,0 3.272,0.409 4.674,1.284 1.403,0.937 2.396,2.162 3.097,3.74 0.76,1.694 0.993,3.623 0.993,5.551 0,3.504 -0.642,7.536 -3.038,10.281 -2.278,2.631 -5.608,3.448 -8.997,3.448 -0.993,0 -2.162,-0.059 -3.155,-0.234 l -0.467,-0.116 v -5.143 l 0.818,0.177 c 0.817374,0.23117 1.662566,0.34927 2.512,0.351 1.227,0 2.57,-0.117 3.681,-0.645 0.886357,-0.37553 1.625104,-1.03138 2.103,-1.867 0.35,-0.645 0.525,-1.345 0.701,-2.045 m -26.524,-7.305 c -0.176,0.176 -0.41,0.292 -0.585,0.467 l -3.038,2.456 -3.097,-3.798 7.888,-6.311 h 4.79 v 23.721 h -6.018 v -13.671 l 0.06,-2.104 z m 23.66,-2.394 c -0.76,0 -1.402,0.175 -1.869,0.759 -0.526,0.702 -0.702,1.636 -0.702,2.514 0,0.759 0.117,1.576 0.583,2.22 0.468,0.525 1.11,0.7 1.812,0.7 0.818,0 1.46,-0.233 2.045,-0.759 0.525,-0.469 0.877,-0.994 0.877,-1.694 0,-0.994 -0.234,-1.929 -0.818,-2.745 -0.466,-0.646 -1.109,-0.995 -1.928,-0.995"
         id="path5"
         sodipodi:nodetypes="ccccccccscscccccccsccsccccccccccccccscscsccscscccccccccccccccccccccscscscc" />
    </g>
  </g>
</svg>
