<?xml version="1.0" encoding="UTF-8" standalone="no"?>
<svg
   xml:space="preserve"
   width="194.407"
   height="250.5"
   version="1.1"
   id="svg4"
   sodipodi:docname="egnatia.svg"
   inkscape:version="1.4.2 (f4327f4, 2025-05-13)"
   xmlns:inkscape="http://www.inkscape.org/namespaces/inkscape"
   xmlns:sodipodi="http://sodipodi.sourceforge.net/DTD/sodipodi-0.dtd"
   xmlns="http://www.w3.org/2000/svg"
   xmlns:svg="http://www.w3.org/2000/svg"><defs
     id="defs4" /><sodipodi:namedview
     id="namedview4"
     pagecolor="#ffffff"
     bordercolor="#000000"
     borderopacity="0.25"
     inkscape:showpageshadow="2"
     inkscape:pageopacity="0.0"
     inkscape:pagecheckerboard="0"
     inkscape:deskcolor="#d1d1d1"
     inkscape:zoom="3.2215569"
     inkscape:cx="97.313197"
     inkscape:cy="125.25"
     inkscape:window-width="1920"
     inkscape:window-height="1009"
     inkscape:window-x="-8"
     inkscape:window-y="-8"
     inkscape:window-maximized="1"
     inkscape:current-layer="g4" /><g
     fill-rule="evenodd"
     clip-rule="evenodd"
     id="g4"><path
       fill="#2E9A45"
       d="M.25 123.441h16.033V12.998C42.491 4.141 69.579.697 97.204.25c27.626.447 54.714 3.891 80.921 12.748v110.443h16.032v61.878h-22.544L97.204 250.25l-74.409-64.931H.25z"
       id="path1" /><path
       fill="#142A1D"
       d="M4.333 127.523v53.714h19.992l72.879 63.594 72.879-63.594h19.992v-53.714h-16.033V15.95C149.146 7.923 123.325 4.761 97.204 4.333c-26.121.428-51.943 3.59-76.838 11.617v111.574H4.333zm4.083 4.083h16.032V18.946C48.06 11.707 72.503 8.825 97.204 8.417c24.7.408 49.144 3.29 72.756 10.529v112.661h16.032v45.548h-17.44l-71.348 62.259-71.348-62.259H8.416z"
       id="path2" /><path
       fill="#142A1D"
       d="m54.031 196.321 43.173 37.673 43.174-37.673zm50.304 12.668a.36.36 0 0 1-.284-.12.4.4 0 0 1-.113-.291q0-.173.116-.28a.4.4 0 0 1 .281-.108q.171 0 .287.115c.116.115.116.176.116.296q0 .164-.12.277a.4.4 0 0 1-.283.111m-3.18-4.646v4.056q0 .067.067.104a1 1 0 0 0 .18.071.6.6 0 0 1 .157.064q.044.03.044.119a.15.15 0 0 1-.056.127q-.056.045-.213.045h-1.041a.5.5 0 0 1-.197-.03q-.072-.03-.072-.142 0-.091.067-.128a.6.6 0 0 1 .128-.052q.202-.06.232-.123.03-.064.029-.319v-3.965q0-.188-.045-.247-.066-.091-.284-.091-.136 0-.291.019a4 4 0 0 0-.355.061 1 1 0 0 0-.341.132 3 3 0 0 0-.423.343.2.2 0 0 1-.124.052q-.15 0-.149-.172l.022-.172.045-.359q.06-.284.173-.284h4.152q.112.014.142.044.03.031.072.192.041.16.07.377l.03.194q0 .157-.135.158-.076 0-.15-.064c-.074-.064-.082-.07-.097-.086a3 3 0 0 0-.269-.202q-.136-.09-.301-.139a1.7 1.7 0 0 0-.332-.071 3 3 0 0 0-.333-.022q-.292 0-.349.098-.053.096-.053.412m-5.2 1.261.681.157q.351.082.562.157.306.11.516.268.531.425.531 1.122 0 .373-.161.694-.16.322-.46.565-.299.24-.681.354a2.8 2.8 0 0 1-.808.112q-.406 0-.753-.09a1.8 1.8 0 0 1-.613-.279 2 2 0 0 1-.438-.42q-.224-.298-.225-.536 0-.104.053-.171a.18.18 0 0 1 .148-.067q.084 0 .143.052a.5.5 0 0 1 .112.148q.18.312.3.443a1.57 1.57 0 0 0 .789.456q.288.075.572.075.577 0 .98-.284.464-.329.464-.882 0-.642-.868-.92-.808-.215-1.615-.439-.869-.36-.869-1.203 0-.338.146-.628.145-.292.415-.519.27-.23.606-.33.337-.1.733-.102.351 0 .722.094c.371.094.465.154.654.274a.37.37 0 0 1 .165.187q.008.037.011.179.005.144.012.255a1 1 0 0 1-.015.194q-.016.068-.105.068a3.2 3.2 0 0 0-.665-.584 1.7 1.7 0 0 0-.966-.284q-.418 0-.744.254c-.326.254-.326.391-.326.665q0 .418.3.657.24.197.697.308m-5.171.572v1.467q0 .508.104.681.135.218.554.217h1.122q.27 0 .482-.104.215-.105.424-.308l.127-.112q.097-.075.149-.074.12 0 .12.127 0 .075-.037.269a3 3 0 0 0-.038.218q-.052.299-.09.337-.037.036-.284.037H89.93a.5.5 0 0 1-.19-.03q-.071-.03-.071-.142 0-.075.049-.112a.4.4 0 0 1 .13-.067q.204-.068.232-.128.03-.06.03-.314v-3.95a.6.6 0 0 0-.045-.262q-.044-.097-.194-.12a.5.5 0 0 1-.143-.053q-.06-.044-.06-.135 0-.082.052-.123t.218-.041h3.315q.126.03.187.124c.061.094.067.141.082.235l.061.456q-.015.12-.128.12a.15.15 0 0 1-.127-.061 1.4 1.4 0 0 0-.374-.337.93.93 0 0 0-.479-.148H91.27q-.278-.001-.382.127-.104.126-.104.456v1.361h1.437a1 1 0 0 0 .314-.037.7.7 0 0 0 .188-.111q.03-.031.066-.064a.14.14 0 0 1 .098-.033q.09 0 .123.101a.8.8 0 0 1 .034.243l-.008.194q0 .195-.007.218-.031.112-.172.111-.069 0-.169-.097c-.1-.097-.127-.104-.18-.115a1.2 1.2 0 0 0-.251-.02h-1.473zm.394 6.5v4.282q0 .404.094.523.094.12.468.12.18 0 .318.033.138.035.139.153 0 .128-.068.161a.5.5 0 0 1-.217.033H89.75a1 1 0 0 1-.143-.007q-.165-.03-.165-.165 0-.12.202-.164.024-.007.355-.042.334-.032.431-.176.075-.104.075-.501v-3.218q0-.104-.012-.18a.3.3 0 0 0-.049-.128.36.36 0 0 0-.228-.115 2 2 0 0 0-.325-.026h-.397a.36.36 0 0 1-.19-.039.13.13 0 0 1-.057-.111q0-.114.143-.15.187-.02.247-.028.308 0 .572-.101.266-.102.543-.305l.138-.101a.26.26 0 0 1 .146-.058q.096 0 .12.087.022.089.022.223m4.833 2.539q-.367.299-.724.452a2 2 0 0 1-.792.153q-.714 0-1.132-.442-.421-.44-.421-1.145 0-.807.535-1.336.534-.528 1.351-.527.913 0 1.467.688.232.307.344.785.09.39.09.852a3.8 3.8 0 0 1-.221 1.312q-.22.609-.699 1.11a3.3 3.3 0 0 1-.98.702 2.7 2.7 0 0 1-1.145.269.5.5 0 0 1-.19-.029q-.08-.031-.079-.127 0-.068.044-.093a.4.4 0 0 1 .128-.04q1.103-.135 1.719-.815.592-.651.705-1.769m0-.428a2.2 2.2 0 0 1-.584.501q-.314.18-.695.181a.94.94 0 0 1-.831-.435q-.247-.365-.247-.927 0-.28.056-.494a1.1 1.1 0 0 1 .199-.404q.336-.48.875-.479.337 0 .621.205.284.207.427.513.096.21.139.536.04.326.041.632zm3.006.48-.547-.022a.4.4 0 0 1-.197-.041q-.08-.042-.079-.154 0-.141.202-.164.203-.022.247-.022.314 0 .532-.067.216-.068.426-.269.149-.151.229-.379a1.4 1.4 0 0 0 .078-.468.85.85 0 0 0-.314-.688 1.15 1.15 0 0 0-.756-.262q-.33 0-.554.142a.54.54 0 0 0-.27.479q0 .075.019.188c.019.113.019.117.019.127a.18.18 0 0 1-.089.168.4.4 0 0 1-.21.057.43.43 0 0 1-.291-.104.36.36 0 0 1-.12-.284q0-.203.12-.397.096-.165.275-.314.247-.201.585-.311.336-.108.688-.108.653 0 1.107.353.502.389.502 1.025 0 .47-.359.807-.314.292-.809.435.577.112.974.478.441.412.441.964 0 .373-.164.693a1.6 1.6 0 0 1-.458.545q-.29.225-.643.321a2.3 2.3 0 0 1-.757.097q-.636 0-1.129-.253-.622-.32-.621-.887 0-.163.094-.27a.32.32 0 0 1 .258-.109q.166 0 .228.09.064.09.063.255a.74.74 0 0 0 .322.644q.291.202.74.202.278 0 .521-.072a1.07 1.07 0 0 0 .719-.68q.101-.266.102-.543 0-.517-.311-.856-.312-.348-.813-.346m5.139 1.256v.592q0 .096.008.193a.6.6 0 0 0 .037.169q.031.071.068.094a1 1 0 0 0 .172.057q.135.032.149.04.075.038.074.15.001.096-.071.131a.4.4 0 0 1-.176.033h-1.182a.5.5 0 0 1-.18-.029q-.067-.031-.067-.128.001-.068.053-.104a.3.3 0 0 1 .119-.054q.248-.044.285-.119t.037-.358v-.667h-2.118a.5.5 0 0 1-.224-.038q-.083-.036-.082-.172-.001-.223.225-.763.18-.442.359-.756.24-.426.549-.854.307-.426.637-.777l.654-.606q.126-.103.176-.136a.44.44 0 0 1 .217-.052q.184 0 .243.143.037.09.037.308v3.284h.696q.164 0 .235.036.072.037.072.185 0 .125-.064.162c-.064.037-.11.036-.206.036zm-.673-.419h-1.916a7.8 7.8 0 0 1 1.916-3.031zm36.645-126.26c4.628 0 8.818 1.876 11.852 4.909a16.72 16.72 0 0 1 4.908 11.851c0 4.627-1.877 8.818-4.908 11.851a16.71 16.71 0 0 1-11.852 4.908 16.71 16.71 0 0 1-11.851-4.908 16.7 16.7 0 0 1-4.908-11.851c0-4.628 1.875-8.818 4.908-11.851a16.7 16.7 0 0 1 11.851-4.909m5.331 22.922c-3.479 2.03-6.758 3.153-9.822 3.538-2.771.348-5.365.092-7.775-.642q.679.917 1.485 1.724a15.2 15.2 0 0 0 10.781 4.466c2.647 0 5.137-.675 7.306-1.861-.017-2.539-.634-4.926-1.877-7.06zm-18.885.824c2.686 1.137 5.648 1.62 8.881 1.214 2.84-.357 5.894-1.401 9.154-3.292-1.144-1.508-2.643-2.869-4.508-4.041-2.785 1.433-5.541 2.103-8.193 2.083-2.441-.019-4.787-.622-6.979-1.752a15.1 15.1 0 0 0 1.645 5.788m-1.683-7.527c2.042 1.193 4.232 1.869 6.516 1.972-.145-3.876.378-7.19 1.425-10.003.92-2.472 2.243-4.553 3.873-6.289a15.2 15.2 0 0 0-7.357 4.08 15.2 15.2 0 0 0-4.457 10.24m8.025 1.957c2.097-.136 4.269-.748 6.472-1.878.115-3.125.876-5.853 2.189-8.152 1.21-2.121 2.884-3.872 4.943-5.232a15.2 15.2 0 0 0-7.246-1.376c-2.179 1.837-3.922 4.198-5.03 7.177-.983 2.637-1.47 5.77-1.328 9.461m15.141-14.443c-2.035 1.195-3.694 2.771-4.9 4.706 3.477 1.828 6.116 3.96 8.047 6.299 1.679 2.034 2.817 4.222 3.504 6.5.435-1.417.669-2.92.669-4.479a15.2 15.2 0 0 0-4.467-10.781 15.3 15.3 0 0 0-2.853-2.245m5.677 19.917c-.499-2.809-1.67-5.502-3.694-7.955-1.807-2.19-4.301-4.196-7.611-5.932-.912 1.902-1.444 4.102-1.535 6.582 2.652 1.665 4.634 3.693 5.969 5.985 1.228 2.107 1.903 4.431 2.05 6.895a15.348 15.348 0 0 0 4.821-5.575m12.142 18.112V51.649L63.858 131.606zm0-85.126V34.126l-124.375 97.48h15.763zm0-17.522v-6.971q-2.532-.735-5.075-1.405L28.531 124.25v7.356h6.376zm-10.072-9.627a227 227 0 0 0-12.453-2.594l-114.82 89.991v12.354zm-17.884-3.506c-13.427-2.1-27.034-3.096-40.717-3.325-23.283.39-46.348 3.001-68.673 9.488v79.572l19.506-15.288v-7.709a10.48 10.48 0 0 0-3.078-7.343 10.5 10.5 0 0 0-6.082-2.993v-1.522c2.78.31 5.274 1.57 7.15 3.446a12 12 0 0 1 2.01 2.66V60.817a10.48 10.48 0 0 0-3.078-7.343 10.5 10.5 0 0 0-6.082-2.994v-1.522a12 12 0 0 1 7.15 3.446 12 12 0 0 1 2.01 2.66v-8.672h-.672a.76.76 0 0 1-.756-.756V34.779c0-.416.34-.756.756-.756h.672v-1.6h1.512v1.6h.672c.416 0 .756.34.756.756v10.857c0 .417-.34.756-.756.756h-.672v16.706a12 12 0 0 1 2.011-2.661c2.262-2.262 4.609-3.072 6.955-3.038 2.274.033 4.549.844 6.742 3.038a12.1 12.1 0 0 1 2.01 2.66v-9.084a10.49 10.49 0 0 0-3.079-7.388 10.5 10.5 0 0 0-6.082-2.993v-1.523a12 12 0 0 1 7.151 3.447 12.1 12.1 0 0 1 2.01 2.661V36.35h-.672a.76.76 0 0 1-.756-.756V24.737c0-.416.34-.756.756-.756h.672V22.38h1.512v1.601h.672c.416 0 .757.34.757.756v10.857a.76.76 0 0 1-.757.756h-.672v3.834a12 12 0 0 1 2.01-2.66 12 12 0 0 1 7.151-3.447V35.6a10.5 10.5 0 0 0-6.082 2.993 10.48 10.48 0 0 0-3.079 7.389v9.832a12.1 12.1 0 0 1 2.01-2.661 12 12 0 0 1 7.151-3.446v1.523a10.5 10.5 0 0 0-6.082 2.993 10.48 10.48 0 0 0-3.079 7.388v8.407zM49.548 85.086V83.82c0-2.903 1.178-5.531 3.079-7.434a10.5 10.5 0 0 1 6.082-2.993V71.87a12 12 0 0 0-7.15 3.447 12 12 0 0 0-2.011 2.661v-9.039c0-2.903 1.178-5.532 3.079-7.434 1.896-1.896 3.91-2.519 5.92-2.474 1.917.043 3.831.666 5.64 2.474a10.48 10.48 0 0 1 3.079 7.388V71.2z"
       id="path3" /></g></svg>
