<?xml version="1.0" encoding="UTF-8" standalone="no"?>
<svg
   xml:space="preserve"
   width="238.095"
   height="420"
   style="shape-rendering:geometricPrecision;text-rendering:geometricPrecision;image-rendering:optimizeQuality;fill-rule:evenodd;clip-rule:evenodd"
   viewBox="0 0 250 441.14"
   version="1.1"
   id="svg4"
   sodipodi:docname="flamurtari.svg"
   inkscape:version="1.4.2 (f4327f4, 2025-05-13)"
   xmlns:inkscape="http://www.inkscape.org/namespaces/inkscape"
   xmlns:sodipodi="http://sodipodi.sourceforge.net/DTD/sodipodi-0.dtd"
   xmlns="http://www.w3.org/2000/svg"
   xmlns:svg="http://www.w3.org/2000/svg"><sodipodi:namedview
     id="namedview4"
     pagecolor="#ffffff"
     bordercolor="#000000"
     borderopacity="0.25"
     inkscape:showpageshadow="2"
     inkscape:pageopacity="0.0"
     inkscape:pagecheckerboard="0"
     inkscape:deskcolor="#d1d1d1"
     inkscape:zoom="1.9214286"
     inkscape:cx="118.92193"
     inkscape:cy="210"
     inkscape:window-width="1920"
     inkscape:window-height="1009"
     inkscape:window-x="-8"
     inkscape:window-y="-8"
     inkscape:window-maximized="1"
     inkscape:current-layer="svg4" /><defs
     id="defs3"><linearGradient
       id="a"
       x1="16.09"
       x2="233.91"
       y1="294.14"
       y2="74.25"
       gradientUnits="userSpaceOnUse"><stop
         offset="0"
         style="stop-opacity:1;stop-color:#bc8e2e"
         id="stop1" /><stop
         offset=".561"
         style="stop-opacity:1;stop-color:#d5b253"
         id="stop2" /><stop
         offset="1"
         style="stop-opacity:1;stop-color:#eed779"
         id="stop3" /></linearGradient></defs><ellipse
     cx="125"
     cy="184.19"
     rx="125"
     ry="183.77"
     style="fill:#000"
     id="ellipse3" /><path
     d="m 125,8.76 c 64.43,0 116.66,78.55 116.66,175.43 0,96.89 -52.23,175.43 -116.66,175.43 C 60.57,359.62 8.34,281.08 8.34,184.19 8.34,87.31 60.57,8.76 125,8.76 m 41.73,178.44 c -0.98,-0.69 -2.16,0.1 -1.5,1.23 0.7,1.18 1.22,2.44 2.38,3.18 1.49,0.95 0.85,2.23 -1.13,1.2 -1.32,-0.69 -2.75,-2.43 -3.97,-3.29 -2.98,-2.13 -1.97,2.74 -1.41,3.77 0.81,1.47 0.47,1.55 -1.01,0.87 -1.05,-0.48 -1.84,-0.83 -2.94,-1.1 -1.67,-0.43 -2.64,0.52 -2.57,2.28 0.08,2.04 1.27,3.25 2.9,4.27 2.03,1.27 4.25,1.98 6.65,2.2 4.06,0.37 6.08,4.32 4.09,7.88 -1.59,2.84 -4.17,4.56 -6.97,5.99 -1.03,0.53 -2.12,0.95 -3.12,1.53 -1.02,0.6 -1.09,1.34 0.19,1.59 2.76,0.52 5.64,1.13 8.41,1.58 2.35,0.38 4.07,-0.46 5.7,-2.17 1.28,-1.34 2.8,-2.82 4.33,-3.86 2,-1.35 5.33,-0.35 6.16,1.83 -2.33,0 -5.24,0.34 -5.95,2.88 -0.32,1.14 0.2,1.93 1.37,1.82 2.06,-0.2 3.61,-0.56 4.61,-2.66 1.1,-2.29 1.28,0.14 1.11,1.11 -0.21,1.17 0.84,1.27 1.51,0.3 0.84,-1.23 1.86,-2.22 1.44,-0.23 -0.22,1.07 -0.87,2.63 -0.99,3.39 -0.35,2.24 1.82,0.43 2.2,-0.05 0.62,-0.76 0.92,-0.28 0.83,0.19 -0.29,1.44 -1.59,3.27 -2.97,3.98 -2.02,1.01 -4.88,1.36 -7.03,1.05 -3.32,-0.49 -6,-1.21 -9.26,-2.03 -1.96,-0.5 -3.12,-1.27 -5.91,-0.46 -3.25,0.95 -6.29,1.48 -9.69,1.15 -2.09,-0.2 -4.33,-0.66 -5.84,-2.25 -2.25,-2.38 -2.12,-5.23 0.5,-7.22 1.3,-0.99 2.63,-2.06 3.82,-3.19 0.39,-0.38 0.9,-1.06 1.1,-1.57 0.46,-1.18 -0.85,-1.51 -1.57,-0.98 -0.31,0.23 -0.39,0.75 -0.7,0.87 -0.32,0.14 -0.66,-0.3 -1.13,-0.36 -0.34,-0.05 -0.82,0.25 -1.15,0.7 -0.85,1.19 -1.02,1.62 -1.15,-0.26 -0.05,-0.72 -0.96,-1.4 -2.53,0.07 -1.57,1.48 -0.63,-0.07 -0.61,-1.43 0.01,-0.47 0,-0.93 -0.01,-1.39 -0.07,-2.29 -0.53,-4.47 -2.07,-6.28 -1.95,-2.3 -5.5,-2.87 -8.08,-1.31 -3.01,1.8 -2.83,7.03 1.01,8.38 1.94,0.69 4.19,0.79 5.81,0.09 1.75,-0.75 1.53,0.27 -0.06,2.43 -0.84,1.14 -2.23,1.75 -3.33,2.64 -0.95,0.77 -0.34,1.11 0.6,1 1.11,-0.13 2.12,-0.29 3.31,-0.71 0.82,-0.29 0.71,0.45 0.48,0.87 -0.6,1.08 -1.75,1.6 -2.8,1.94 -1.25,0.4 -2.61,0.72 -3.81,1.22 -1.38,0.58 -0.95,1.57 0.24,1.94 0.89,0.28 2.29,0.16 3.26,-0.44 2.06,-1.27 2.64,0.53 1.4,1.86 -1.1,1.17 -2.67,1.88 -4.26,2.2 -0.72,0.14 -1.49,0.37 -2.16,0.69 -0.93,0.44 -0.55,1.26 0.31,1.48 2.36,0.61 4.5,0.08 6.7,-0.72 1.23,-0.44 2.38,-1.12 3.57,-1.67 1.07,-0.5 1.58,-1.02 1.61,0.51 0.07,3.96 -3.21,5.89 -4.23,10.09 -0.79,1.96 -1.55,3.92 -3.2,5.33 -0.96,0.83 -1.88,0.65 -1.94,-0.71 -0.06,-1.65 -0.05,-3.3 0,-4.94 0.09,-3.11 -1.94,-5.29 -5.01,-5.2 -1.76,0.05 -1.33,1.4 -0.38,1.66 2.02,0.55 2.59,2.13 2.82,3.85 0.15,1.12 0.1,2.84 -0.07,4.52 -0.53,5.37 -0.95,6.33 -1.81,2.65 -0.38,-1.62 -2.24,-3.18 -2.32,-0.2 -0.25,4.79 -3.27,13.73 -7.02,16.98 v -0.78 c 0,-32.84 0.94,-66.41 0.17,-99.16 -0.12,-5.25 2.06,-9.21 5.72,-12.61 1.34,-1.25 2.75,-2.43 4.09,-3.68 1.05,-1 0.6,-1.66 -0.73,-1.53 -1.07,0.11 -4.08,0.48 -1.84,-2.26 0.9,-0.86 1.94,-1.94 3.13,-2.36 2.4,-0.86 1.36,-1.84 -0.82,-1.67 -1.33,0.1 -0.07,-0.58 0.92,-1.1 0.63,-0.33 1.31,-0.57 1.9,-0.95 1.09,-0.72 0.78,-1.57 -0.44,-1.43 -2.62,0.3 2.88,-2.8 3.76,-3.21 0.72,-0.33 1.48,-0.55 2.21,-0.83 0.99,-0.38 1.08,-0.77 0.59,-1.7 -0.56,-1.05 -1.05,-2.14 -1.53,-3.23 -0.11,-0.26 -0.2,-0.62 -0.11,-0.87 0.54,-1.52 0.72,-1.87 1.93,-0.68 0.4,0.39 0.71,0.87 1.07,1.3 1.35,1.69 3.57,2.27 5.56,1.44 2.38,-0.99 4.83,-1.53 7.34,-0.72 1.05,0.34 2.11,1 2.89,1.78 0.7,0.71 0.79,1.18 2.33,1.33 3.4,0.51 4.87,3.23 3.89,6.4 -1.03,-0.35 -2.03,-1.03 -3.03,-1.27 -0.97,-0.23 -1.47,-0.21 -2.11,0.53 -0.86,0.99 -1.01,2.12 0.65,2.56 2.38,0.63 4.81,-0.01 7.07,-0.7 1.9,-0.58 3.77,-1.25 5.67,-1.84 0.37,-0.11 0.83,-0.15 1.19,-0.04 0.97,0.28 1.18,1.01 0.57,1.82 -1.1,1.46 -2.65,2.13 -4.39,2.49 -3.27,0.68 -6.49,0.21 -9.71,-0.4 -0.82,-0.16 -1.97,-0.62 -2.25,0.44 -0.31,1.12 0.97,1.19 1.75,1.41 1.78,0.51 5.49,0.35 0.27,1.46 -1.39,0.3 -2.9,0.36 -4.31,0.33 -0.75,-0.01 -1.21,0.75 -0.43,1.03 1.41,0.51 1.93,1.81 -0.68,0.97 -0.64,-0.21 -1.35,-0.25 -2,-0.18 -1.47,0.18 -1.35,1.67 -0.19,2.06 0.77,0.25 0.59,0.61 -0.52,0.95 -2.63,0.8 -4.02,2.73 -4.51,5.26 -0.67,3.47 0.13,6.79 1.59,9.94 0.64,1.37 1.58,1.49 2.19,0.28 1.56,-3.08 4.21,-3.46 7.17,-3 2.37,0.37 4.71,0.92 7.07,1.34 0.66,0.11 1.36,0.17 2.01,0.08 1.39,-0.19 1.82,-1.22 1.01,-2.36 -0.32,-0.45 -0.79,-0.78 -1.16,-1.2 -0.78,-0.9 -1.71,-1.72 -2.29,-2.73 -1.32,-2.31 -0.11,-4.5 2.54,-4.56 1.78,-0.05 3.58,0.17 5.36,0.41 10.24,1.38 19.55,-0.91 27.7,-7.27 2.43,-1.89 4.42,-4.35 6.56,-6.6 1.99,-2.1 3.99,-4.17 6.57,-5.56 2.81,-1.51 6.81,-1.2 6.93,2.65 0.16,5.43 -6.1,10.73 -10.37,13.1 -5.76,3.2 -11.75,5.83 -18.29,6.99 -0.58,0.1 -2.36,0.51 -2.27,1.35 0.11,0.99 1.91,0.64 2.55,0.6 0.95,-0.06 1.91,-0.16 2.82,-0.4 5.68,-1.48 11.08,-3.69 16.21,-6.55 2.19,-1.22 4.52,-2.04 7.07,-1.92 0.59,0.02 1.2,0.15 1.75,0.36 1.1,0.42 1.36,1.24 0.52,2.07 -0.84,0.83 -1.85,1.53 -2.88,2.1 -3.91,2.18 -8.24,3.17 -12.54,4.22 -2.98,0.73 -5.96,1.48 -8.93,2.27 -0.67,0.18 -1.77,0.29 -1.6,1.23 0.18,0.97 1.79,0.7 2.5,0.54 3.24,-0.74 6,-1.35 9.19,-2.29 3.48,-1.03 6.91,-2.26 10.36,-3.39 0.28,-0.1 0.58,-0.16 0.87,-0.17 0.92,-0.04 1.4,0.46 0.96,1.23 -0.51,0.92 -1.23,1.8 -2.06,2.43 -2.26,1.72 -4.95,2.56 -7.69,2.98 -3.66,0.55 -7.36,0.79 -11.05,1.17 -0.73,0.07 -3.63,0.09 -3.58,1.24 0.05,1.16 3.4,1.23 4.19,1.2 4.97,-0.17 9.86,-0.83 14.57,-2.54 2.71,-0.98 2.07,2.62 -2.16,3.95 -4.39,1.38 -8.91,1.55 -13.46,1.01 -0.69,-0.08 -3.62,-0.45 -3.71,0.67 -0.1,1.22 2.58,1.62 3.4,1.62 3.07,0.01 6.14,-0.1 9.2,-0.19 0.75,-0.02 1.49,-0.2 2.24,-0.22 1.38,-0.02 0.95,1.26 0.54,1.51 -0.72,0.43 -1.53,0.81 -2.36,0.98 -4.88,0.99 -9.97,0.21 -14.76,-0.85 -1.76,-0.39 -1.47,1.01 -0.57,1.86 1.42,1.34 3.28,1.59 5.12,1.73 3.91,0.3 7.77,-0.02 11.61,-0.91 1.21,-0.28 2.54,-0.27 3.79,-0.14 1.8,0.19 2.57,1.81 1.14,3.32 -1.23,1.3 -2.89,1.55 -4.51,1.78 -5.41,0.77 -10.41,-0.61 -15.17,-3.07 -0.67,-0.34 -1.31,-0.74 -2.01,-1.01 -1.15,-0.45 -1.65,0.58 -1.23,1.14 2.82,3.82 5.39,4.71 10.07,5.56 2.06,0.37 4.16,0.48 6.24,0.77 1.42,0.2 1.61,1.06 0.54,1.95 -1.24,1.01 -2.75,1.11 -4.27,1.02 -4.12,-0.25 -7.59,-2.15 -10.9,-4.42 -0.74,-0.51 -1.59,-1.4 -2.36,-1.86 -1.09,-0.65 -1.98,0.22 -0.66,1.54 1.12,1.13 2.37,2.47 3.64,3.26 3.2,2 6.79,3.13 10.42,4.1 0.69,0.18 1.42,0.34 2,0.72 1.27,0.83 1.41,2.05 -0.06,2.77 -2.61,1.27 -5.18,0.75 -7.68,-0.43 -3.18,-1.49 -5.66,-3.9 -8.15,-6.29 -0.77,-0.75 -1.63,-1.45 -2.54,-2.02 -1.29,-0.81 -2.38,-0.54 -2.03,0.85 0.59,2.31 2.05,4.88 3.75,6.49 2.53,2.4 5.2,4.64 7.79,6.97 2.36,2.12 1.99,5.71 -2.15,5.01 -2.67,-0.44 -4.64,-1.98 -6.26,-4.06 -2.52,-3.22 -3.97,-6.93 -5,-10.84 -0.18,-0.69 -0.35,-1.39 -0.67,-2.02 -0.43,-0.85 -1.28,-0.92 -1.77,-0.11 -0.39,0.64 -0.68,1.44 -0.72,2.18 -0.15,2.57 0.63,4.94 1.59,7.29 0.7,1.73 1.23,3.53 1.73,5.33 0.43,1.56 -0.99,1.87 -1.9,0.96 -1.64042,-1.61617 -2.79419,-3.66039 -3.33,-5.9 -0.52,-2.17 -0.72,-4.42 -1.05,-6.64 -0.1,-0.66 -0.12,-1.35 -0.3,-1.99 -0.44,-1.52 -1.29,-1.05 -1.65,0.2 -0.66,2.34 -0.62,4.95 -0.08,7.28 0.68,2.87 1.85,5.53 3.42,8.04 0.79,1.26 1.42,2.62 2.03,3.98 0.94,2.14 -1.1,3.12 -2.75,2.46 -3.07,-1.23 -4.85,-3.69 -5.79,-6.76 -1.11,-3.64 -1.02,-7.32 -0.23,-11.01 0.25,-1.17 0.55,-2.35 0.6,-3.53 0.07,-1.78 -1.39,-2.42 -2.29,-0.69 -0.73,1.37 -1.37,2.49 -1.65,4.56 -0.2,1.53 -0.2,2.74 -0.94,0.99 -0.14,-0.35 -0.58,-0.67 -1.12,-1.05 m -77.14,45.81 5.27,2.31 c 0.04,0.27 0.07,0.52 0.07,0.74 0,0.91 -0.28,1.7 -0.84,2.38 -0.55,0.67 -1.29,1.24 -2.21,1.68 1.25,0.28 2.19,0.78 2.83,1.49 0.63,0.7 0.95,1.45 0.95,2.26 0,0.86 -0.35,1.64 -1.05,2.33 -0.91,0.9 -2.58,1.69 -5.02,2.37 l -4.5,-3.5 1.63,-1.64 4.99,3.87 c 0.42,-0.37 0.72,-0.78 0.92,-1.22 0.19,-0.43 0.29,-0.97 0.29,-1.6 0,-1.22 -0.34,-2.18 -1.05,-2.91 -0.7,-0.72 -1.64,-1.08 -2.82,-1.08 -0.37,0 -0.78,0.04 -1.21,0.12 v -0.83 h 0.22 c 1.31,0 2.32,-0.35 3.05,-1.06 0.72,-0.7 1.08,-1.66 1.08,-2.89 0,-0.5 -0.08,-0.84 -0.23,-1.04 -0.16,-0.2 -0.33,-0.3 -0.54,-0.3 -0.2,0 -0.46,0.12 -0.76,0.35 l -0.18,0.14 -3.06,2.2 -1.48,-1.54 z m -16.17,3.5 4.68,-3.5 5.4,3.25 c 0.03,0.44 0.05,0.8 0.05,1.1 0,1.22 -0.34,2.27 -1.01,3.14 -0.68,0.86 -2.19,1.96 -4.53,3.28 -1.05,0.6 -1.79,1.08 -2.21,1.45 -0.43,0.36 -0.82,0.8 -1.16,1.33 0.91,-0.41 1.71,-0.69 2.38,-0.85 0.68,-0.17 1.35,-0.25 2.01,-0.25 0.56,0 1.13,0.05 1.72,0.13 0.59,0.09 1.03,0.17 1.34,0.26 l 1.74,0.58 -1.96,2.14 c -1.17,-0.41 -1.97,-0.66 -2.39,-0.75 -0.67,-0.14 -1.31,-0.22 -1.91,-0.22 -1.14,0 -2.38,0.27 -3.72,0.8 -0.28,0.11 -0.44,0.17 -0.49,0.17 -0.05,0 -0.08,-0.01 -0.1,-0.05 -0.03,-0.03 -0.05,-0.09 -0.05,-0.16 0,-0.37 0.13,-0.81 0.37,-1.33 0.33,-0.71 0.81,-1.4 1.43,-2.09 0.44,-0.5 1.15,-1.15 2.15,-1.95 0.99,-0.81 1.68,-1.43 2.06,-1.84 0.53,-0.6 0.94,-1.21 1.23,-1.85 0.29,-0.65 0.43,-1.33 0.43,-2.06 0,-1.08 -0.4,-1.97 -1.21,-2.66 L 75,238.13 Z m -10.85,10.12 1.59,-2 4.16,1.91 c 0.58,-0.86 0.99,-1.66 1.22,-2.4 0.34,-1.09 0.51,-2.15 0.51,-3.17 0,-0.23 -0.02,-0.53 -0.08,-0.9 l -5.11,3.45 c -0.78,-0.38 -1.32,-0.69 -1.6,-0.92 -0.46,-0.37 -0.84,-0.83 -1.15,-1.39 -0.3,-0.56 -0.46,-1.18 -0.46,-1.86 0,-1.1 0.41,-2.15 1.21,-3.16 0.98,-1.22 2.29,-2.28 3.91,-3.18 1.74,0.5 3.08,1.34 4.01,2.54 0.93,1.19 1.39,2.63 1.39,4.31 0,1.27 -0.24,2.44 -0.71,3.51 -0.36,0.81 -0.96,1.68 -1.8,2.6 -0.83,0.92 -1.79,1.78 -2.88,2.6 z m 7.3,-7.1 c -0.58,-2.36 -2.31,-3.84 -5.19,-4.42 -0.37,0.43 -0.65,0.87 -0.83,1.3 -0.19,0.43 -0.29,0.88 -0.29,1.32 0,0.53 0.14,1.06 0.41,1.57 0.26,0.52 0.65,0.96 1.17,1.33 0.38,0.27 0.99,0.56 1.83,0.86 z m -16.31,-4.15 2.82,-2.37 c 0.68,0.28 1.18,0.65 1.5,1.13 0.33,0.47 0.49,1.08 0.49,1.83 v 9.4 c 0,0.26 0.05,0.46 0.13,0.59 0.16,0.23 0.46,0.5 0.88,0.82 l 1.22,-1.02 0.37,0.39 -2.98,2.42 -2.73,-1.79 0.76,-1 v -8.42 c 0,-0.57 -0.04,-0.97 -0.11,-1.19 -0.12,-0.35 -0.3,-0.64 -0.54,-0.85 -0.17,-0.14 -0.32,-0.21 -0.45,-0.21 -0.15,0 -0.36,0.11 -0.62,0.33 -0.16,0.14 -0.3,0.25 -0.41,0.33 z M 45.5,144.57 c 0,4.56 2.38,9.07 7.14,13.54 l 2.47,-2.33 c -3.78,-3.01 -5.68,-6.5 -5.68,-10.48 0,-1.94 0.61,-3.61 1.82,-5.02 1.22,-1.41 2.79,-2.11 4.73,-2.11 1.56,0 4.22,0.68 8.01,2.04 3.88,1.35 6.74,2.03 8.58,2.03 2.82,0 6.07,-1.36 9.76,-4.07 0.19,-0.2 0.97,-0.85 2.32,-1.97 1.36,-1.11 3.4,-2.74 6.12,-4.87 L 88.73,129 c -3.01,2.42 -5.72,3.64 -8.15,3.64 -0.39,0 -3.35,-0.92 -8.88,-2.77 -4.65,-1.55 -8.25,-2.33 -10.77,-2.33 -4.07,0 -7.66,1.85 -10.77,5.53 -3.1,3.69 -4.66,7.52 -4.66,11.5 m 21.21,59.6 -2.04,1.6 2.04,2.76 11.06,-9.02 v -49.19 l 2.18,-1.75 -2.18,-2.62 -11.06,8.88 v 15.57 c -8.83,0 -13.24,4.17 -13.24,12.52 0,2.72 0.48,5.58 1.45,8.59 l 3.64,-1.46 c -0.58,-1.45 -0.87,-2.62 -0.87,-3.49 0,-1.75 0.56,-3.28 1.67,-4.59 1.12,-1.31 2.5,-1.96 4.15,-1.96 1.07,0 2.13,0.43 3.2,1.31 z m 35.66,-32.89 h -7.42 v -29.55 l 3.34,-2.62 c 1.07,0.97 2.43,1.84 4.08,2.62 z M 54.78,258.6 c 1.65,0 3.54,-0.24 5.67,-0.73 v -3.05 c -1.84,0.39 -3.68,0.58 -5.53,0.58 -6.6,0 -12.13,-2.33 -16.59,-6.99 -4.56,-4.56 -6.84,-10.14 -6.84,-16.73 0,-4.56 1.07,-8.49 3.2,-11.79 2.62,-4.08 5.97,-6.12 10.04,-6.12 2.14,0 6.21,2.24 12.23,6.7 6.21,4.46 10.92,6.69 14.12,6.69 4.07,0 8.39,-1.6 12.95,-4.8 1.85,-1.55 3.66,-3.06 5.46,-4.51 1.79,-1.46 3.61,-2.96 5.46,-4.51 v -31.15 h 7.42 v 66.37 l -6.4,5.09 3.93,4.95 7.27,-6.11 -1.45,-2.04 v -69.42 l 12.22,-9.75 H 105.72 V 142.6 c 1.36,0.2 2.37,0.34 3.05,0.44 l 1.02,0.15 c 3.4,0 9.41,-3.69 18.05,-11.07 l -2.04,-2.76 c -4.95,3.78 -8.39,5.67 -10.33,5.67 -2.82,0 -5.58,-2.47 -8.3,-7.42 l -23.28,19.07 v 70.15 c -1.46,1.75 -3.11,2.62 -4.95,2.62 -1.46,0 -5.58,-2.86 -12.37,-8.59 -6.7,-5.82 -12.28,-8.73 -16.74,-8.73 -6.6,0 -11.98,3.2 -16.16,9.61 -3.97,5.92 -5.96,12.13 -5.96,18.63 0,8.05 2.52,14.74 7.56,20.08 4.95,5.44 11.45,8.15 19.51,8.15 M 155.11,130.96 c 0.48,-0.09 1.26,-0.49 1.24,-1.17 -0.02,-0.7 -0.94,-1.26 -1.53,-1.4 -0.49,-0.12 -0.83,0.1 -0.84,0.46 0,0.49 -0.08,1.61 0.18,1.94 0.15,0.2 0.47,0.26 0.95,0.17 m -4.45,-1.07 c 0,-0.53 1.07,-1.19 1.66,-1.34 0.69,-0.16 0.83,-0.06 0.87,0.55 0.03,0.43 0.09,1.07 0.03,1.49 -0.06,0.47 -0.3,0.49 -0.75,0.44 -0.59,-0.07 -1.81,-0.44 -1.81,-1.14 M 125,18.39 c 59.12,0 107.04,74.23 107.04,165.8 C 232.04,275.77 184.12,350 125,350 65.88,350 17.96,275.77 17.96,184.19 17.96,92.62 65.88,18.39 125,18.39"
     style="fill:url(#a)"
     id="path4"
     sodipodi:nodetypes="cssscccccccccccccccccccccccccccccccccccccccccccccccccccccccccccccccccccccccccccccsccccccccccccccccccccccccccccccccccccccccccccccccccccccccccccccssccccccccccccccccccccccccccccccccccccccccccccccccccccccccccccccccccccccccccccscccsccccccscsccscscsccccccccscccccscccccscscscccccscccccccsccccscccscccccccscccccccsscccccccsccsccccccscscsccccscscccccccccccsccscscccccccccccscscscsccccccccccccccscccscccscscscccccccccccccccsssc" /></svg>
