<?xml version="1.0" encoding="UTF-8" standalone="no"?>
<svg
   xml:space="preserve"
   width="250.5"
   height="250.5"
   version="1.1"
   id="svg5"
   sodipodi:docname="kastrioti.svg"
   inkscape:version="1.4.2 (f4327f4, 2025-05-13)"
   xmlns:inkscape="http://www.inkscape.org/namespaces/inkscape"
   xmlns:sodipodi="http://sodipodi.sourceforge.net/DTD/sodipodi-0.dtd"
   xmlns="http://www.w3.org/2000/svg"
   xmlns:svg="http://www.w3.org/2000/svg"><defs
     id="defs5" /><sodipodi:namedview
     id="namedview5"
     pagecolor="#ffffff"
     bordercolor="#000000"
     borderopacity="0.25"
     inkscape:showpageshadow="2"
     inkscape:pageopacity="0.0"
     inkscape:pagecheckerboard="0"
     inkscape:deskcolor="#d1d1d1"
     inkscape:zoom="3.2215569"
     inkscape:cx="125.25"
     inkscape:cy="125.25"
     inkscape:window-width="1920"
     inkscape:window-height="1009"
     inkscape:window-x="-8"
     inkscape:window-y="-8"
     inkscape:window-maximized="1"
     inkscape:current-layer="g5" /><g
     fill-rule="evenodd"
     clip-rule="evenodd"
     id="g5"><circle
       cx="125.25"
       cy="125.25"
       r="121.754"
       fill="#FFF"
       id="circle1" /><path
       fill="#FE0000"
       d="M125.25.25c-69.036 0-125 55.964-125 125 0 69.035 55.964 125 125 125 69.035 0 125-55.965 125-125 0-69.036-55.965-125-125-125m0 12.086c62.361 0 112.913 50.553 112.913 112.914S187.611 238.163 125.25 238.163 12.336 187.611 12.336 125.25 62.889 12.336 125.25 12.336"
       id="path2" /><path
       fill="#FE0000"
       d="M125.25 191.089c36.264 0 65.84-29.575 65.84-65.839s-29.576-65.84-65.84-65.84c-36.263 0-65.839 29.577-65.839 65.84s29.576 65.839 65.839 65.839"
       id="path3" /><path
       fill="#FFF"
       d="m156.418 159.447 11.623 4.427.236.332c-10.621 11.724-25.964 19.09-43.027 19.09-11.455 0-22.133-3.32-31.128-9.048l-2.497-9.063-2.067-7.872-5.884-6.838-6.123-4.136-1.034-7.553-3.618-5.846.636-1.67 4.552.944 5.915 1.889 2.207-.079 1.511-1.77 1.063-1.252.089-.507-.039-1.71-.13-3.499-.058-1.173.119-2.585.517-3.856 1.968-1.948 1.014-.676 4.592 2.545.019.775-.297.159.04 2.604.059 14.75h.119l1.372 1.61.04.101 2.763 2.146 5.745-.357 7.137-3.081 5.427-5.229.08-2.506.815-9.322 1.034-6.243-.318-4.056 2.306-2.783-3.479-2.228-1.073-1.133.139-.755 1.014-2.465.139-.625 1.949-2.604 1.163-1.432.237-1.51 1.432-1.769.417-1.432.814-1.352.617-1.312 1.809-.915 1.272-.735 2.922.08 6.083-2.366 6.123-.616 5.765-2.028 2.227-1.192.357 2.187 1.67 1.789.438 1.65-1.073 1.849-1.61 1.929.835 1.51 2.246 2.763 2.604 7.097.954 2.704.478 1.63-.557 3.22.079 2.783.238 5.129.08 1.192-.259.974-1.292 1.631-1.135 1.948-.455 1.669-2.327 1.869-.159 1.948.438 3.776-.08 3.379-2.346 5.805.438 4.413-.757 10.694z"
       id="path4" /><path
       d="m 97.482,117.656 c 0.61,0.312 0.38,0.778 -0.173,1.156 -0.64,0.437 -0.513,1.028 -0.505,1.756 0.039,4.476 -0.063,8.724 -0.018,13.198 0.01,1.02 0.188,2.07 1.032,2.717 1.638,1.253 3.377,2.033 5.521,1.97 1.227,-0.036 2.426,-0.006 3.63,-0.32 1.061,-0.277 1.803,-0.91 2.545,-1.67 0.842,-0.862 1.435,-2.076 2.856,-2.246 0.402,-0.049 0.785,-0.078 1.187,-0.027 1.268,0.161 2.187,-0.434 2.582,-1.652 0.119,-0.364 0.32,-0.681 0.552,-0.979 0.546,-0.704 0.617,-1.475 0.254,-2.261 -0.206,-0.445 -0.103,-0.746 0.211,-1.07 0.737,-0.76 1.037,-1.672 1.112,-2.742 0.11,-1.568 0.332,-3.114 0.162,-4.708 -0.093,-0.871 0.4,-1.737 0.842,-2.513 0.658,-1.157 1.066,-2.311 0.465,-3.619 -0.065,-0.142 -0.057,-0.325 -0.052,-0.488 0.058,-2.004 -0.055,-4.004 0.031,-6.017 l 0.027,-0.027 c 0.139,-0.134 1.491,-1.42 1.491,-1.42 -0.246,-0.145 -1.09,0.494 -1.478,0.712 0.078,-1.527 -0.198,-3.206 -1.301,-4.53 -0.556,-0.667 -0.388,-1.193 0.204,-1.794 0.612,-0.621 0.684,-1.485 1.145,-2.167 0.764,-1.132 1.631,-2.271 2.352,-3.431 0.346,-0.558 0.618,-1.166 0.689,-1.838 0.034,-0.318 0.161,-0.604 0.428,-0.785 0.655,-0.446 0.938,-1.084 1.141,-1.852 0.087,-0.332 0.316,-0.627 0.484,-0.936 0.446,-0.818 1.194,-1.458 1.377,-2.439 0.059,-0.318 0.395,-0.514 0.705,-0.652 0.301,-0.135 0.654,-0.208 0.892,-0.415 1.199,-1.043 2.59,-1.038 4.073,-1.15 0.553,-0.042 1.059,-0.178 1.529,-0.482 0.995,-0.643 2.04,-1.162 3.245,-1.289 0.579,-0.061 1.04,-0.432 1.541,-0.687 0.687,-0.349 1.388,-0.542 2.168,-0.524 1.225,0.029 2.394,-0.099 3.62,-0.105 0.33,-0.001 0.661,-0.007 0.973,-0.138 0.559,-0.233 0.945,-0.59 1.513,-0.795 0.544,-0.197 1,-0.009 1.561,-0.197 1.389,-0.468 3.077,-1.129 4.377,-1.744 0.45031,-0.203406 0.88311,-0.443551 1.294,-0.718 1.419,-0.966 3.176,-0.954 4.348,0.284 0.163,0.172 0.798,0.417 0.657,0.732 -0.109,0.247 -0.709,0.096 -0.935,0.109 -0.886,0.05 -1.705,0.333 -2.515,0.664 -0.35028,0.144477 -0.65944,0.373255 -0.9,0.666 -0.551,0.663 -0.619,1.276 0.06,1.793 0.968,0.738 0.972,1.842 1.104,2.787 0.109,0.778 -0.531,1.586 -1.194,2.138 -0.919,0.768 -1.023,1.176 -0.407,2.218 0.37577,0.653809 0.82429,1.263015 1.337,1.816 1.374,1.449 2.203,3.247 3.218,4.937 1.62,2.7 1.422,5.65 1.541,8.565 0.037,0.926 -0.238,1.863 -0.343,2.798 -0.036,0.324 -0.091,0.705 0.039,0.977 0.481,1.009 0.392,1.993 0.082,3.017 -0.128,0.426 0.008,0.887 0.044,1.333 0.122,1.52 0.282,3.043 -0.188,4.54 -0.0885,0.26978 -0.23966,0.51479 -0.441,0.715 -1.229,1.271 -2.125,2.732 -2.537,4.468 -0.058,0.24 -0.192,0.416 -0.357,0.593 -0.938,1.009 -1.558,2.103 -1.496,3.584 0.11,2.679 0.063,5.351 -0.497,8.006 -0.388,1.834 -0.445,3.714 -0.446,5.608 -0.001,2.343 -0.373,4.682 -0.493,7.026 -0.109,2.135 -0.265,4.284 0.264,6.395 0.137,0.546 0.48,0.963 0.923,1.303 2.099,1.606 4.371,2.944 6.636,4.296 0.06,0.035 0.126,0.085 0.19,0.088 2.032,0.136 3.367,1.677 5.056,2.502 0.568,0.276 1.168,0.494 1.752,0.739 0.229,0.095 0.365,0.203 0.391,0.352 -0.33333,0.37467 -0.67133,0.745 -1.014,1.111 -0.20567,0.0562 -0.42006,0.0731 -0.632,0.05 -2.695,-0.253 -5.394,-0.477 -8.104,-0.465 -0.403,0.003 -0.756,-0.139 -1.135,-0.301 -0.834,-0.354 -1.702,-0.211 -2.534,0.12 -2.491,0.991 -4.995,1.938 -7.676,2.298 -0.666,0.09 -1.316,0.01 -1.97,-0.091 -0.188,-0.028 -0.389,-0.055 -0.43,-0.29 -0.042,-0.254 0.115,-0.393 0.319,-0.491 0.127,-0.061 0.262,-0.157 0.39,-0.152 0.702,0.033 0.981,-0.303 0.95,-0.98 -0.01,-0.237 0.17,-0.388 0.386,-0.454 0.248,-0.075 0.415,-0.22 0.471,-0.475 0.145,-0.646 0.402,-0.505 0.71,-0.11 0.071,0.092 0.161,0.177 0.257,0.24 0.252,0.166 0.533,0.429 0.82,0.16 0.275,-0.259 -0.012,-0.523 -0.144,-0.753 -0.175,-0.305 -0.411,-0.575 -0.58,-0.882 -0.108,-0.195 -0.079,-0.437 0.122,-0.572 0.246,-0.164 0.388,0.035 0.511,0.213 0.202,0.288 0.39,0.588 0.598,0.872 0.229,0.315 0.538,0.415 0.851,0.156 0.292,-0.242 0.251,-0.623 -0.005,-0.808 -0.584,-0.421 -0.969,-1.015 -1.474,-1.502 -0.289,-0.279 -0.654,-0.369 -1.049,-0.285 -1.22,0.259 -2.463,0.439 -3.621,0.927 -0.779,0.326 -1.587,0.494 -2.41,0.447 -1.857,-0.105 -2.681,1.656 -2.335,2.984 0.15,0.575 0.417,1.101 0.585,1.663 0.226,0.76 -0.006,1.027 -0.737,0.804 -0.76386,-0.24102 -1.51809,-0.51156 -2.261,-0.811 -0.997,-0.393 -1.605,-1.192 -2.105,-2.095 -0.14148,-0.27096 -0.30751,-0.52837 -0.496,-0.769 -0.252,-0.308 -0.671,-0.568 -0.987,-0.355 -0.675,0.458 -1.469,0.604 -2.17,0.99 -1.002,0.554 -2.088,0.953 -3.144,1.41 -1.467,0.637 -2.94,1.258 -4.404,1.902 -0.385,0.171 -0.764,0.21 -1.17,0.133 -0.949,-0.179 -1.9,-0.349 -2.848,-0.529 -0.468,-0.088 -0.881,-0.216 -0.775,-0.855 0.06,-0.358 -0.222,-0.435 -0.504,-0.413 -0.352,0.03 -0.707,0.063 -1.048,0.148 -1.608,0.395 -3.242,0.591 -4.891,0.685 -0.322,0.018 -0.699,0.115 -0.903,-0.228 -0.196,-0.33 0.05,-0.592 0.197,-0.896 0.845,-1.734 1.665,-3.464 1.639,-5.485 -0.016,-1.227 -0.53,-2.124 -1.372,-2.893 -1.33,-1.217 -2.326,-2.628 -2.776,-4.399 -0.275,-1.087 -0.492,-1.2 -1.605,-0.99 -0.891,0.169 -1.115,0.053 -1.433,-0.811 -0.411,-1.117 -1.019,-1.962 -2.307,-2.22 -1.207,-0.244 -2.117,-0.959 -2.882,-1.974 -1.063,-1.406 -2.511,-2.461 -3.76,-3.699 -0.173,-0.172 -0.413,-0.217 -0.651,-0.249 -1.815,-0.241 -3.622,-0.632 -5.47,-0.256 -0.262,0.054 -0.561,-0.03 -0.835,-0.087 -1.214,-0.251 -2.019,0.078 -2.742,1.096 -0.258,0.363 -0.442,0.998 -1.001,0.813 -0.48,-0.16 -0.338,-0.775 -0.363,-1.202 -0.027,-0.449 -0.043,-0.894 -0.174,-1.326 -0.141,-0.47 -0.392,-0.482 -0.707,-0.152 -0.199,0.208 -0.303,0.467 -0.404,0.736 -0.189,0.507 -0.408,1.004 -0.621,1.501 -0.078,0.18 -0.193,0.361 -0.418,0.292 -0.234,-0.072 -0.215,-0.284 -0.16,-0.475 0.125,-0.429 0.263,-0.854 0.389,-1.283 0.146,-0.5 0.37,-1.054 -0.056,-1.472 -0.399,-0.391 -0.97,-0.267 -1.483,-0.179 -0.161,0.027 -0.313,0.101 -0.47,0.151 -0.438,0.144 -0.78,0.037 -0.831,-0.454 -0.061,-0.592 -0.353,-0.652 -0.821,-0.46 -0.216324,0.0969 -0.457126,0.12513 -0.69,0.081 -0.913,-0.186 -1.596,0.485 -1.405,1.43 0.135,0.667 0.295,1.315 0.316,2.012 0.026,0.859 1.146,1.327 1.863,0.841 0.097,-0.065 0.2,-0.173 0.301,-0.174 0.786,-0.01 1.136,-0.515 1.423,-1.154 0.163,-0.365 0.419,-0.466 0.613,0.023 0.077,0.195 0.158,0.404 0.293,0.555 0.289,0.32 0.222,0.572 -0.052,0.854 -0.351,0.36 -0.56,0.813 -0.751,1.271 -0.108,0.257 -0.276,0.558 -0.013,0.785 0.283,0.243 0.535,-0.016 0.746,-0.185 0.384,-0.307 0.75,-0.637 1.109,-0.974 0.199,-0.187 0.405,-0.383 0.674,-0.218 0.272,0.167 0.105,0.43 0.026,0.638 -0.167,0.438 -0.387,0.858 -0.541,1.303 -0.137,0.396 -0.309,0.841 0.067,1.189 0.345,0.32 0.769,0.182 1.132,0.011 0.633,-0.294 1.311,-0.542 1.648,-1.249 0.099,-0.21 0.291,-0.396 0.569,-0.321 0.284,0.078 0.298,0.336 0.315,0.572 0.036,0.479 -0.084,0.843 -0.55,1.118 -0.695,0.408 -0.879,0.97 -0.585,1.453 0.374,0.612 1.31,0.909 1.909,0.601 0.641,-0.331 1.174,-0.792 1.552,-1.404 0.309,-0.502 0.972,-0.767 0.966,-1.491 -0.001,-0.173 0.234,-0.238 0.385,-0.085 0.147,0.147 0.276,0.321 0.381,0.502 0.537,0.915 1.385,1.606 1.645,2.749 0.124,0.544 0.847,0.996 1.552,1.087 0.402,0.051 0.73,0.15 0.86,0.589 0.077,0.254 0.335,0.313 0.539,0.424 0.177,0.097 0.316,0.222 0.261,0.446 -0.05,0.2 -0.223,0.218 -0.391,0.233 -1.219,0.115 -2.447,0.056 -3.667,0.211 -0.619,0.079 -0.763,-0.397 -0.865,-0.897 -0.082,-0.409 0.086,-1.003 -0.516,-1.112 -0.583,-0.104 -0.76,0.458 -1.016,0.832 -0.865,1.268 -0.201,2.824 1.324,3.09 0.453,0.08 0.864,0.199 1.2,0.534 0.524,0.523 1.143,0.597 1.828,0.363 0.672556,-0.24196 1.408061,-0.24408 2.082,-0.006 0.696,0.246 0.795,0.611 0.293,1.135 -1.052,1.098 -2.044,2.276 -3.581,2.758 -0.387,0.12 -0.547,0.505 -0.723,0.836 -0.156,0.292 -0.311,0.621 -0.055,0.924 0.283,0.337 0.587,0.145 0.884,-0.021 0.346,-0.195 0.71,-0.195 1.097,-0.115 0.603,0.125 1.126,-0.007 1.451,-0.592 0.256,-0.464 0.646,-0.63 1.129,-0.429 0.479,0.2 0.629,0.625 0.546,1.11 -0.134,0.776 -0.561,1.443 -0.87,2.154 -0.15,0.343 -0.358,0.662 -0.559,0.981 -0.495,0.785 -0.445,1.054 0.337,1.609 0.288,0.205 0.583,0.384 0.734,0.736 0.38,0.88 0.814,0.998 1.618,0.46 0.116,-0.077 0.216,-0.179 0.317,-0.277 0.157,-0.152 0.322,-0.308 0.555,-0.196 0.223,0.108 0.229,0.338 0.236,0.553 0.008,0.235 -0.023,0.478 0.025,0.704 0.098,0.454 0.3,0.813 0.875,0.636 0.048,-0.015 0.357,0.006 0.512,-0.134 0.252,-0.23 0.378,-0.646 0.398,-0.518 0.15,0.962 -0.481,1.004 -0.617,1.002 -0.467,-0.007 -1.191,0.101 -1.656,-0.073 -0.229,-0.085 -0.522,-0.157 -0.659,0.057 -0.347,0.536 -0.879,0.713 -1.425,0.939 -0.563,0.233 -0.661,0.744 -0.262,1.209 0.403,0.469 0.645,0.976 0.671,1.592 0.012,0.303 0.172,0.534 0.408,0.712 0.927,0.695 1.301,1.564 0.902,2.708 -0.053,0.153 -0.032,0.333 -0.017,0.507 -3.64422,-1.75909 -7.094344,-3.89472 -10.294,-6.372 -0.623,-0.825 -1.333,-1.583 -1.955,-2.409 -0.188,-0.25 -0.359,-0.498 -0.349,-0.827 0.049,-1.639 -0.187,-3.281 0.355,-4.905 0.368,-1.107 0.152,-2.339 0.551,-3.471 0.141,-0.402 -0.045,-0.842 -0.229,-1.229 -0.657,-1.381 -1.258,-2.806 -2.779,-3.513 -0.249,-0.115 -0.455,-0.334 -0.663,-0.523 -0.335,-0.306 -0.699,-0.682 -1.117,-0.714 -1.197,-0.094 -1.671,-1.002 -2.256,-1.803 -0.455,-0.623 -1.045,-1.064 -1.702,-1.459 -1.308,-0.781 -2.65,-1.507 -3.717,-2.652 -0.493,-0.527 -0.723,-1.035 -0.5,-1.706 0.232,-0.7 0.153,-1.37 0.014,-2.082 -0.21,-1.082 -0.383,-2.188 -0.399,-3.286 -0.02,-1.445 -0.608,-2.609 -1.523,-3.625 -0.603,-0.667 -0.889,-1.424 -1.034,-2.271 -0.110667,-0.65 -0.218,-1.30067 -0.322,-1.952 -0.07113,-0.44371 -0.06504,-0.89637 0.018,-1.338 0.211,-1.094 0.721,-1.429 1.779,-1.167 1.562,0.387 2.919,1.352 4.485,1.687 1.798,0.385 3.513,1.047 5.298,1.446 1.494,0.335 3.399,-0.418 4.248,-1.994 0.383,-0.712 0.62,-0.862 0.536,-1.696 -0.3,-3.026 0.055,-7.146 -0.193,-10.177 -0.038,-0.464 -0.426,-0.784 -0.908,-0.964 -0.266,-0.265 -0.011,-0.352 0.286,-0.576 1.318,-0.99 2.801,-2.225 4.168,-3.15 0.39,-0.265 0.57,-0.156 0.968,0.111 1.515,1.037 2.988,1.938 4.659,2.718 m 34.847,1.108 -0.019,0.057 c 0.002,-0.005 -0.113,0.129 -0.167,0.134 -0.066,0.005 -0.063,0.217 -0.011,0.261 -0.015,0.091 0.218,0.297 0.296,0.313 0.16,0.298 0.752,0.22 0.759,0.168 0.249,-0.026 0.347,-0.167 0.479,-0.368 0.286,-0.432 -0.115,-0.322 -0.24,-0.436 -0.157,0.029 -0.532,-0.256 -1.097,-0.129 m -2.425,-32.429 c -0.069,-0.044 -0.368,0.169 -0.385,0.171 -0.567,0.073 0.28,0.553 0.445,0.61 0.422,0.147 0.329,-0.09 0.457,-0.066 0.001,-0.287 -0.26,-0.551 -0.517,-0.715 m -12.339,53.261 c 0.108,-0.178 2.296,-1.588 0.721,-1.206 -0.203,0.05 -0.192,0.143 -0.295,0.207 -0.243,0.152 -0.328,0.425 -0.406,0.479 -0.061,0.042 -0.212,0.334 -0.228,0.354 -0.097,0.132 0.03,0.433 0.208,0.166 M 92.802,119.76 c 0.018,-1.122 -0.65,-0.868 -0.65,0.509 0,0.231 0.198,1.787 0.28,1.869 0.261,0.266 0.28,0.047 0.372,-0.162 0.154,-0.347 -0.009,-1.743 -0.002,-2.216 m 2.942,-2.052 c 1.759,0 -2.205,-1.483 -2.84,-1.954 -0.083,-0.061 -0.699,-0.406 -0.745,-0.195 -0.037,0.004 -0.507,0.695 -0.981,1.147 -0.367,0.35 -0.76,0.479 -0.814,0.535 -0.209,0.216 -0.069,0.234 -0.042,0.275 0.055,0.081 0.813,0.244 0.963,0.325 0.101,0.053 0.481,-0.008 0.501,-0.023 0.099,-0.078 3.281,-0.11 3.958,-0.11 m 27.594,-5.968 c -0.027,-0.027 -0.401,-0.112 -0.465,-0.059 -0.002,0.002 -0.274,0.04 -0.299,0.224 -0.08,0.049 -0.101,0.506 0.051,0.562 0.135,0.049 0.274,0.183 0.462,0.046 0.164,-0.118 0.181,0.082 0.317,-0.264 0.121,-0.307 -0.039,-0.375 -0.027,-0.445 -0.016,-0.014 -0.028,-0.053 -0.039,-0.064 m -0.796,3.865 c -0.452,-0.063 -0.443,0.303 -0.292,0.413 0.157,0.113 0.221,0.299 0.364,0.067 0,-10e-4 0.079,0.004 0.119,-0.165 0.012,-0.047 0.119,-0.192 -0.085,-0.225 -10e-4,0.001 -0.058,-0.083 -0.106,-0.09 m 10.636,-0.999 c -0.23,-0.091 -0.294,-0.34 -0.399,0.077 -0.081,0.313 0.003,0.375 0.188,0.614 0.031,0.041 0.394,-0.032 0.334,-0.271 -10e-4,-0.006 0.115,-0.191 -0.087,-0.294 -0.011,-0.005 -0.025,-0.121 -0.036,-0.126 m 1.444,2.431 c -0.011,-0.106 -0.158,0.353 -0.008,0.488 0.06,0.055 0.223,0.296 0.241,0.378 0.004,0.002 0.378,0.354 0.41,0.373 0.137,0.077 0.497,0.526 0.568,0.554 0.278,0.108 0.526,0.378 0.526,-0.172 0,-0.06 -0.144,-0.316 -0.159,-0.319 -0.019,-0.159 -0.685,-0.551 -0.799,-0.641 -0.107,-0.083 -0.273,-0.067 -0.368,-0.179 -0.028,0.005 -0.192,-0.141 -0.204,-0.155 -0.114,-0.141 -0.191,-0.179 -0.207,-0.327 M 124.016,94.226 c -0.029,-0.067 -0.419,-0.273 -0.523,0.216 -0.016,0.077 -0.136,0.244 0.064,0.272 0.011,0.002 0.047,0.092 0.135,0.105 0.057,0.008 0.164,0.091 0.313,0.005 0.206,-0.12 0.26,-0.579 0.054,-0.579 -0.035,10e-4 -0.03,0.011 -0.043,-0.019 m 29.53,-1.85 c -0.006,-0.0036 -0.0137,-0.0053 -0.021,-0.005 -0.323,-0.016 -0.243,0.077 -0.34,0.127 l -0.052,0.212 c -0.047,0.116 0.081,0.328 0.095,0.331 0.077,0.216 0.041,0.139 0.151,0.255 0.032,-0.008 0.063,0.092 0.199,0.092 0.154,0 0.256,-0.239 0.264,-0.371 0.023,-0.356 -0.025,-0.367 -0.296,-0.641 m -14.192,-8.168 c -0.068,0 -0.017,0.03 -0.035,0.083 -0.159,0.057 0.402,0.359 0.446,0.359 0.1561,0.01825 0.30647,0.06974 0.441,0.151 0.097,0.08 0.354,-0.069 0.409,-0.151 0.189,-0.274 0.166,-0.104 0.166,-0.404 0.001,-0.123 -1.248,-0.038 -1.427,-0.038 m -12.699,5.352 c -0.063,-0.105 -0.575,-0.284 -0.735,-0.042 -0.067,0.103 -0.136,0.069 -0.172,0.169 -0.115,0.014 -0.001,0.542 0.17,0.576 0.031,0.139 0.401,0.185 0.41,0.205 0.223,0.055 0.431,-0.35 0.431,-0.536 0,-0.286 -0.096,-0.358 -0.104,-0.372 m 0.689,-1.577 c -0.08,-0.101 -0.574,-0.356 -0.629,0.123 -0.005,0.047 -0.296,0.192 0.114,0.413 0.396,0.211 0.802,-0.426 0.54,-0.484 z m 20.721,44.038 c -0.013,-0.201 -0.111,-0.343 -0.308,-0.304 -0.263,0.055 -0.489,0.214 -0.552,0.488 -0.047,0.208 0.101,0.309 0.303,0.267 0.259,-0.053 0.506,-0.14 0.557,-0.451 m -0.727,-28.09 c -0.07,-0.256 -0.205,-0.526 -0.56,-0.569 -0.229,-0.029 -0.358,0.133 -0.333,0.348 0.038,0.325 0.218,0.579 0.557,0.634 0.229,0.037 0.322,-0.139 0.336,-0.413 m 1.456,3.753 c -0.376,0.048 -0.701,0.099 -1.028,0.131 -0.318,0.03 -0.387,0.252 -0.211,0.425 0.699,0.693 0.668,1.729 1.214,2.488 0.097,0.135 0.159,0.303 0.357,0.284 0.191,-0.019 0.276,-0.17 0.324,-0.332 0.136,-0.448 0.305,-0.893 0.379,-1.352 0.126,-0.757 -0.489,-1.642 -1.035,-1.644 m 1.416,-8.526 c 0.394,0.04 0.736,-0.102 1.037,-0.334 0.224,-0.174 0.278,-0.424 0.175,-0.692 -0.087,-0.225 -0.273,-0.351 -0.495,-0.29 -0.465,0.126 -0.939,0.253 -1.368,0.464 -0.288,0.142 -0.22,0.431 -0.001,0.643 0.179,0.175 0.421,0.182 0.652,0.209 M 139.168,86.056 c -1.276,-0.07 -2.467,0.316 -3.66,0.687 -0.421,0.131 -0.744,0.415 -1.034,0.719 -0.626,0.663 -0.609,1.634 -0.004,1.945 0.25,0.129 0.673,0.162 0.528,0.601 -0.123,0.376 -0.494,0.351 -0.785,0.289 -1.747,-0.368 -3.354,0.189 -4.97,0.708 -0.248,0.081 -0.511,0.178 -0.645,0.41 -0.367,0.634 -1.004,0.824 -1.627,1.036 -0.467,0.158 -0.945,0.282 -1.419,0.426 -0.57,0.175 -0.835,0.509 -0.57,1.116 0.066,0.151 0.129,0.306 0.168,0.464 0.229,0.883 0.593,1.034 1.391,0.584 1.983,-1.121 4.162,-1.488 6.389,-1.513 2.159,-0.024 4.245,0.444 6.264,1.235 1.512,0.593 1.826,0.461 2.826,-0.758 0.369,-0.45 0.903,-0.648 1.462,-0.449 0.549,0.196 0.46,0.704 0.382,1.151 -0.097,0.556 -0.214,1.11 -0.324,1.664 -0.184,0.912 0.106,1.415 0.954,1.772 0.69142,0.295859 1.37064,0.619455 2.036,0.97 1.593,0.825 2.979,1.924 4.32,3.114 0.928,0.825 1.802,1.708 2.676,2.578 0.65,0.646 1.045,1.552 1.527,2.358 0.616,1.032 1.056,1.079 1.776,0.148 0.219,-0.283 0.436,-0.598 0.84,-0.56 0.748,0.068 1.04,-0.438 1.29,-0.985 0.272,-0.592 0.233,-1.19 -0.177,-1.636 -0.252,-0.275 -0.79,-0.722 -0.977,-1.072 -0.16,-0.301 -0.339,0.108 -0.495,0.372 -0.096,0.161 -0.163,0.339 -0.246,0.509 -0.548,1.119 -1.659,1.445 -2.719,0.797 -0.559,-0.341 -0.598,-0.97 -0.28,-1.36 0.21,-0.258 0.751,-0.337 0.969,-0.194 0.188,0.124 0.056,0.445 0.229,0.584 0.146,0.117 0.442,0.34 0.648,0.222 0.206,-0.118 0.337,-0.265 0.277,-0.447 -0.067,-0.208 -0.355,-0.391 -0.407,-0.573 -0.076,-0.271 0.129,-0.505 0.418,-0.541 0.193,-0.029 0.504,0.196 0.674,0.211 0.394,0.033 0.544,-0.114 0.332,-0.376 -0.514,-0.637 -1.839,-1.946 -2.281,-2.648 -0.673,-1.064 -1.734,-1.788 -2.558,-2.718 -0.986,-1.113 -2.369,-1.516 -3.615,-2.118 -0.687,-0.332 -1.433,-0.55 -2.054,-1.027 -0.356,-0.274 -0.733,-0.508 -1.173,-0.638 -2.792,-0.828 -5.44,-2.055 -8.206,-2.955 -0.0905,-0.02705 -0.17667,-0.06678 -0.256,-0.118 -0.199,-0.132 -0.425,-0.284 -0.304,-0.559 0.105,-0.241 0.356,-0.204 0.562,-0.145 0.429,0.125 0.851,0.28 1.277,0.411 2.429,0.74 4.864,1.459 7.287,2.222 1.05,0.331 1.523,0.115 1.804,-0.979 0.166,-0.643 0.5,-1.042 1.216,-1.052 0.253,-0.003 0.511,-0.085 0.756,-0.16 0.272,-0.082 0.436,-0.276 0.445,-0.572 0.011,-0.287 -0.182,-0.404 -0.411,-0.506 -0.475,-0.21 -0.977,-0.404 -1.255,-0.875 -0.333,-0.561 -0.847,-0.874 -1.447,-0.883 -1.234,-0.018 -2.268,-0.499 -3.261,-1.162 -0.406,-0.271 -0.858,-0.275 -1.233,0.091 -0.414,0.405 -0.899,0.479 -1.438,0.381 -0.624,-0.115 -1.253,-0.213 -1.892,-0.196 m 0.073,17.609 c 0.311,0.013 0.762,-0.062 0.823,0.356 0.061,0.404 -0.188,0.766 -0.571,0.97 -0.14505,0.0799 -0.30508,0.12895 -0.47,0.144 -0.723,0.047 -0.958,0.509 -0.988,1.14 -0.073,1.519 0.645,2.695 1.627,3.763 0.623,0.674 1.481,1.2 1.446,2.304 -0.009,0.274 0.278,0.398 0.491,0.556 0.539,0.405 1.057,0.84 1.567,1.282 0.152,0.131 0.195,0.418 0.459,0.377 0.278,-0.043 0.228,-0.315 0.273,-0.511 0.062,-0.263 0.241,-0.537 0.452,-0.245 0.379,0.522 0.622,0.388 1.047,0.058 0.305,-0.237 0.706,-0.347 0.953,-0.69 0.17,-0.236 0.399,-0.23 0.607,-0.034 0.311,0.292 0.615,0.588 0.635,1.059 0.021,0.502 0.187,0.966 0.373,1.427 0.177,0.44 0.237,0.907 0.307,1.374 0.123,0.813 -0.421,1.378 -0.745,2.007 -0.219,0.424 -0.729,0.148 -1.11,0.16 -0.323,0.009 -0.52,0.181 -0.63,0.477 -0.107,0.287 -0.018,0.533 0.213,0.685 0.487,0.317 0.717,0.787 0.905,1.306 0.111,0.309 0.285,0.593 0.599,0.759 0.321,0.17 0.599,0.036 0.859,-0.127 0.177,-0.11 0.155,-0.313 0.042,-0.436 -0.744,-0.811 -0.404,-1.326 0.336,-1.96 1.524,-1.305 2.921,-2.773 4.992,-3.22 0.204,-0.044 0.379,-0.196 0.374,-0.378 -0.022,-0.985 0.487,-1.849 0.624,-2.785 0.227,-1.555 1.604,-2.617 3.118,-2.271 0.542,0.124 0.634,-0.161 0.581,-0.574 -0.047,-0.372 -0.345,-0.553 -0.664,-0.664 -0.619,-0.215 -2.51,0.47 -2.883,1.032 -0.287,0.43 -0.574,0.86 -0.845,1.299 -0.167,0.27 -0.331,0.553 -0.698,0.483 -0.384,-0.074 -0.506,-0.397 -0.549,-0.739 -0.09,-0.7 -0.111,-1.414 -0.259,-2.101 -0.127,-0.596 -0.309,-1.153 -0.179,-1.79 0.092,-0.449 -0.208,-0.743 -0.696,-0.789 -0.422,-0.041 -0.849,-0.068 -1.257,-0.168 -0.296,-0.071 -0.602,-0.26 -0.609,-0.608 -0.01,-0.372 0.333,-0.42 0.611,-0.452 0.352,-0.042 0.414,-0.172 0.306,-0.514 -0.229,-0.725 -0.544,-1.403 -0.992,-2.012 -1.491,-2.021 -3.463,-3.483 -5.588,-4.762 -0.252,-0.152 -0.516,-0.275 -0.785,-0.067 -0.299,0.23 -0.252,0.545 -0.119,0.836 0.31,0.671 0.421,1.39 0.571,2.104 0.249,1.19 -0.101,1.569 -1.32,1.347 -2.368,-0.432 -5.424,-0.147 -7.794,-0.053 -0.197,0.008 -0.488,-0.007 -0.492,0.279 -0.002,0.288 0.285,0.278 0.484,0.282 1.383,0.023 3.225,0.026 4.568,0.084 M 96.336,131.36 c 0,-4.668 -0.003,-7.823 0.003,-10.978 0.001,-0.361 -0.002,-0.827 -0.013,-1.314 -0.321,-0.063 -0.969,-0.095 -1.208,0.01 -0.01,0.206 -0.006,0.504 -0.007,1.037 -0.001,0.707 -0.007,1.414 -0.004,2.12 0.001,0.41 -0.149,0.723 -0.589,0.725 -1.456,0.007 -3.079,0.292 -4.54,0.057 -0.828,-0.134 -1.199,0.228 -1.1,1.072 0.247,2.107 0.11,4.236 0.337,6.346 0.056,0.515 -0.123,0.938 -0.506,1.329 -0.624,0.634 -1.168,1.351 -1.773,1.999 -0.993,1.067 -1.623,2.512 -3.108,3.096 -0.213,0.084 -0.497,0.275 -0.392,0.594 0.105,0.317 0.421,0.456 0.711,0.522 2.421,0.565 4.862,1.081 7.2,1.925 1.037,0.374 2.148,0.441 3.146,0.927 0.533759,0.26547 1.141005,0.34467 1.725,0.225 0.481,-0.098 0.734,-0.344 0.475,-0.847 -0.17,-0.331 -0.182,-0.681 -0.183,-1.033 -0.009,-3.11 -0.211,-6.215 -0.174,-7.812 m 35.486,3.563 c -0.064,0.968 -0.018,1.678 -0.208,2.37 -0.067,0.242 -0.175,0.529 0.142,0.688 0.278,0.138 0.5,-0.025 0.696,-0.204 0.879,-0.805 1.407,-1.809 1.65,-2.966 0.334,-1.585 -0.274,-2.965 -1.012,-4.293 -0.606,-1.094 -0.914,-2.216 -0.55,-3.448 0.064,-0.219 0.188,-0.488 0.467,-0.454 0.311,0.036 0.306,0.347 0.279,0.564 -0.141,1.214 0.518,2.059 1.289,2.85 0.769,0.792 1.357,0.652 1.604,-0.421 0.322,-1.394 0.33,-2.825 -0.019,-4.199 -0.183,-0.717 -0.595,-1.524 -1.446,-1.667 -0.71619,-0.12414 -1.4202,-0.31051 -2.104,-0.557 -0.315,-0.111 -0.684,-0.223 -0.938,0.041 -0.453,0.463 -0.995,0.883 -1.107,1.586 -0.038,0.242 -0.083,0.483 -0.373,0.53 -0.27,0.044 -0.334,-0.196 -0.454,-0.367 -0.351,-0.498 -0.615,-1.068 -1.135,-1.429 -0.557,-0.387 -0.957,-0.295 -1.222,0.323 -0.143,0.334 -0.376,0.417 -0.687,0.512 -0.907,0.279 -1.214,1.187 -0.67,1.963 0.282,0.403 0.614,0.772 0.935,1.147 0.359,0.423 0.398,0.837 0.163,1.362 -0.445,0.987 -0.338,2.165 -1.018,3.082 -0.013,0.018 -0.012,0.046 -0.014,0.068 -0.058,0.488 0.207,0.738 0.603,0.493 0.484,-0.3 1.028,-0.531 1.374,-1.05 0.827,-1.243 0.956,-2.524 0.326,-3.881 -0.075,-0.163 -0.234,-0.347 0.007,-0.488 0.2,-0.117 0.367,0.005 0.492,0.156 0.298,0.36 0.621,0.708 0.868,1.103 1.322,2.092 2.001,4.376 2.062,6.586 m 13.333,3.83 c 0.18,0.052 0.22,0.165 0.214,0.283 -0.039,0.704 -0.049,1.411 -0.274,2.091 -0.172,0.516 -0.316,1.039 -0.276,1.591 0.021,0.279 0.008,0.615 0.338,0.709 0.352,0.101 0.497,-0.22 0.618,-0.462 0.389,-0.783 0.695,-1.594 0.774,-2.477 0.169,-1.864 0.13,-3.749 1.021,-5.501 0.596,-1.166 1.48,-2.042 2.386,-2.924 0.139,-0.134 0.366,-0.291 0.571,-0.116 0.235,0.199 0.085,0.421 -0.042,0.627 -0.196,0.322 -0.411,0.635 -0.565,0.977 -0.137,0.305 -0.21,0.679 0.127,0.896 0.332,0.215 0.599,-0.056 0.775,-0.294 0.671,-0.904 1.578,-1.453 2.602,-1.866 0.562,-0.227 0.617,-0.57 0.278,-1.058 -0.39879,-0.57729 -0.79016,-1.15967 -1.174,-1.747 -0.175,-0.266 -0.349,-0.538 -0.712,-0.475 -0.602,0.104 -0.819,-0.198 -0.854,-0.736 -0.034,-0.514 -0.257,-0.405 -0.518,-0.15 -0.101,0.098 -0.189,0.214 -0.303,0.294 -0.288,0.207 -0.307,0.884 -0.732,0.693 -0.39,-0.174 -0.128,-0.721 -0.104,-1.103 0.089,-1.477 0.416,-2.947 0.044,-4.428 -0.057,-0.224 -0.074,-0.499 -0.374,-0.531 -0.258,-0.029 -0.347,0.203 -0.454,0.382 -0.502,0.839 -0.751,1.718 -0.479,2.699 0.101,0.36 0.247,0.814 -0.041,1.085 -0.558,0.52 -0.84,1.278 -1.443,1.717 -1.391,1.012 -2.213,2.444 -3.066,3.865 -0.253,0.424 -0.456,0.894 -0.779,1.255 -0.781,0.875 -1.023,1.939 -1.196,3.038 -0.045,0.28 -0.05,0.626 0.255,0.744 0.366,0.142 0.484,-0.238 0.59,-0.467 0.789,-1.7 2.135,-2.888 3.604,-3.964 0.129,-0.095 0.271,-0.272 0.425,-0.139 0.179,0.156 -0.021,0.295 -0.117,0.412 -0.781,0.945 -1.484,1.943 -1.816,3.141 -0.269,0.972 -0.686,1.906 -0.789,2.921 -0.025,0.264 -0.02,0.563 0.286,0.648 0.312,0.088 0.467,-0.177 0.567,-0.417 0.181,-0.427 0.346,-0.859 0.633,-1.213 m -9.592,-43.54 c -0.434,0 -0.717,-0.02 -0.998,0.003 -0.708,0.059 -1.442,0.134 -1.963,0.659 -0.389,0.391 -0.824,0.607 -1.331,0.739 -0.977,0.253 -1.97,0.425 -2.952,0.672 -1.546,0.389 -3.11,0.689 -4.493,1.553 -0.29,0.18 -0.632,0.323 -0.519,0.726 0.11,0.388 0.487,0.289 0.783,0.296 1.32,0.027 1.915,0.813 1.594,2.099 -0.158,0.638 -0.423,1.244 -0.508,1.907 -0.158,1.236 -0.376,2.457 -0.711,3.667 -0.305,1.104 -0.408,2.265 -0.579,3.405 -0.063,0.42 0.131,0.753 0.586,0.653 0.774,-0.17 1.586,-0.33 2.029,-1.119 0.253,-0.451 0.458,-0.524 0.986,-0.215 1.229,0.722 2.547,1.295 3.833,1.917 0.173,0.083 0.546,0.286 0.701,0.144 0.194,-0.177 -0.047,-0.595 -0.132,-0.793 -0.055,-0.129 -0.13,-0.25 -0.194,-0.375 -0.489,-0.948 -1.438,-1.058 -2.324,-1.268 -1.226,-0.289 -1.635,-0.841 -1.646,-2.093 -0.007,-0.961 0.477,-1.757 0.758,-2.624 0.39,-1.195 1.002,-2.339 0.753,-3.681 -0.259,-1.403 0.509,-2.716 1.894,-3.189 1.096,-0.375 2.189,-0.723 3.105,-1.469 0.32,-0.262 0.617,-0.243 0.926,0.078 0.316,0.33 0.735,0.449 1.164,0.23 0.466,-0.238 0.959,-0.386 1.448,-0.553 0.224,-0.077 0.473,-0.149 0.478,-0.444 0.002,-0.243 -0.189,-0.364 -0.374,-0.475 -0.767,-0.458 -1.61,-0.483 -2.314,-0.45 m -7.1,59.872 c 0.026,0.165 0.035,0.528 0.146,0.858 0.324,0.973 0.526,2.011 1.296,2.778 0.177,0.176 0.346,0.46 0.641,0.294 0.273,-0.151 0.203,-0.462 0.148,-0.707 -0.081,-0.365 -0.144,-0.765 -0.338,-1.07 -0.735,-1.161 -0.604,-2.381 -0.34,-3.619 0.509,-2.385 2.057,-4.184 3.443,-6.072 0.136,-0.186 0.383,-0.385 0.602,-0.2 0.243,0.206 0.001,0.449 -0.136,0.61 -0.677,0.799 -0.994,1.804 -1.557,2.664 -0.516,0.787 -0.146,1.497 0.129,2.205 0.104,0.262 0.315,0.566 0.671,0.558 0.378,-0.01 0.476,-0.355 0.582,-0.634 0.934,-2.438 2.667,-4.223 4.787,-5.619 1.586,-1.045 3.012,-2.24 4.25,-3.664 0.37132,-0.42795 0.6672,-0.9159 0.875,-1.443 0.107,-0.278 0.099,-0.578 -0.196,-0.751 -0.27,-0.157 -0.502,0.007 -0.697,0.183 -0.12012,0.11323 -0.2241,0.24244 -0.309,0.384 -0.663,1.063 -1.688,1.427 -2.867,1.518 -1.35,0.104 -2.688,0.053 -4.008,0.617 -1.405,0.602 -2.556,1.329 -3.068,2.828 -0.0671,0.23064 -0.24927,0.4098 -0.481,0.473 -0.621,0.178 -0.92,0.671 -1.251,1.173 -0.602,0.912 -1.016,1.914 -1.4,2.916 -0.438,1.132 -0.855,2.292 -0.922,3.72 m 3.008,-49.441 c -0.15964,-0.0399 -0.32836,-0.0196 -0.474,0.057 -0.682,0.387 -0.965,1.842 -0.437,2.426 0.851,0.941 1.729,1.859 2.603,2.782 0.343,0.361 0.452,0.717 0.026,1.089 -0.169,0.148 -0.456,0.246 -0.301,0.548 0.13053,0.27282 0.45274,0.39447 0.731,0.276 0.79,-0.318 1.497,-0.031 2.26,0.135 0.856,0.187 1.654,0.489 2.478,0.756 0.743,0.242 1.394,0.679 2.148,0.874 0.689,0.179 0.844,0.047 0.778,-0.654 -0.053,-0.566 -0.453,-0.86 -0.814,-1.182 -0.347,-0.307 -0.328,-0.927 -0.751,-1.071 -0.743,-0.251 -1.233,-0.783 -1.825,-1.231 -1.06629,-0.79677 -2.00389,-1.75258 -2.78,-2.834 -0.924,-1.301 -2.138,-1.844 -3.642,-1.971 m 1.342,37.558 c -2.733,0.033 -6.064,1.655 -6.772,5.112 -0.118,0.575 -0.073,1.223 -0.329,1.721 -0.503,0.977 -0.282,2.021 -0.586,3.029 -0.12,0.393 -0.428,1.474 0.126,1.605 0.46,0.108 0.406,-0.927 0.511,-1.306 0.562,-2.039 1.885,-3.531 3.438,-4.858 1.006,-0.859 2.242,-1.485 2.773,-2.817 0.0786,-0.20292 0.24356,-0.36022 0.45,-0.429 0.672,-0.195 1.185,-0.64 1.735,-1.032 0.426,-0.301 0.433,-0.557 -0.036,-0.818 -0.408,-0.228 -0.864,-0.199 -1.31,-0.207 m 7.38,-15.22 c -0.053,-0.42 0.047,-0.916 -0.496,-1.063 -0.635,-0.171 -1.159,0.185 -1.442,0.814 -0.481,1.067 -0.903,2.175 -1.794,3.003 -0.445,0.417 -0.565,0.911 -0.258,1.469 0.258,0.464 0.341,0.975 0.396,1.492 0.036,0.341 0.17,0.644 0.568,0.544 0.554,-0.138 0.636,0.187 0.587,0.569 -0.134,1.075 0.119,2.222 -0.604,3.19 -0.12,0.16 -0.16,0.393 -0.199,0.599 -0.058,0.313 0.095,0.487 0.409,0.535 0.621,0.096 2.264,-0.789 2.527,-1.368 0.081,-0.179 0.116,-0.363 -0.009,-0.536 -0.126,-0.17 -0.287,-0.12 -0.443,-0.048 -0.223,0.102 -0.471,0.424 -0.675,0.173 -0.173,-0.214 0.088,-0.527 0.205,-0.763 0.134,-0.269 0.343,-0.506 0.55,-0.728 0.299,-0.317 0.545,-0.667 0.591,-1.102 0.0599,-0.60928 0.19841,-1.20825 0.412,-1.782 0.148,-0.395 0.162,-0.89 -0.258,-1.068 -0.856,-0.364 -0.707,-1.013 -0.476,-1.587 0.316,-0.771 0.235,-1.576 0.409,-2.343 m -57.288,7.158 c 0.07,-0.567 -0.278,-0.817 -0.74,-0.967 -2.237,-0.723 -4.474,-1.448 -6.715,-2.155 -0.525,-0.165 -0.954,0.021 -1.116,0.569 -0.323,1.1 0.384,2.459 1.52,2.73 1.719,0.411 3.37,1.026 5.055,1.536 1.288,0.389 1.622,0.173 1.909,-1.156 0.04,-0.182 0.058,-0.371 0.087,-0.557 m 66.183,17.837 c -0.016,-0.208 -0.003,-0.47 -0.06,-0.717 -0.06,-0.265 -0.338,-0.47 -0.518,-0.27 -0.517,0.572 -1.454,0.71 -1.544,1.754 -0.102,1.209 -0.737,2.281 -1.447,3.234 -0.68,0.91 -1.542,1.685 -2.315,2.527 -0.202,0.22 -0.286,0.5 -0.14,0.782 0.138,0.265 0.404,0.317 0.672,0.281 0.254,-0.034 0.519,-0.077 0.749,-0.181 0.665,-0.296 1.349,-0.571 1.965,-0.951 0.92,-0.568 1.76,-1.213 2.078,-2.363 0.368,-1.331 0.364,-2.696 0.56,-4.096 m 3.258,-33.313 c 0.007,0.763 0.551,1.309 0.998,0.977 0.549,-0.407 0.716,-0.149 0.887,0.348 0.221,0.639 0.363,1.32 0.836,1.844 0.21,0.234 0.446,0.427 0.799,0.287 0.316,-0.125 0.338,-0.396 0.398,-0.683 0.154,-0.728 0.31,-1.462 0.541,-2.168 0.292,-0.889 1.051,-1.415 1.721,-1.996 0.266,-0.23 0.492,-0.471 0.357,-0.841 -0.123,-0.342 -0.352,-0.646 -0.732,-0.687 -0.385,-0.041 -0.59,0.294 -0.732,0.573 -0.16573,0.33469 -0.41772,0.61913 -0.73,0.824 -0.951,0.638 -1.934,0.877 -3.068,0.517 -0.789,-0.251 -1.284,0.191 -1.275,1.005 m -9.535,32.565 c -0.055,-1.51 -0.74,-2.703 -1.061,-3.997 -0.108,-0.438 -0.6,-0.646 -0.936,-0.222 -0.826,1.041 -1.269,2.306 -1.163,3.596 0.088,1.072 0.503,2.134 0.937,3.15 0.188,0.438 0.435,0.532 0.88,0.274 1.161,-0.671 1.133,-1.852 1.343,-2.801 m -23.648,-5.974 c 0.001,0.134 -0.096,0.366 0.147,0.443 0.186,0.059 0.257,-0.163 0.382,-0.259 0.204,-0.153 0.436,-0.271 0.651,-0.409 0.817,-0.527 1.474,-1.218 2.01,-2.021 0.218,-0.327 0.314,-0.73 0.045,-1.062 -0.295,-0.363 -0.708,-0.193 -1.046,-0.055 -0.76,0.313 -1.488,0.71 -2.255,1.003 -2.237,0.856 -2.887,2.865 -3.564,4.854 -0.087,0.26 -0.072,0.627 0.245,0.737 0.369,0.132 0.468,-0.233 0.574,-0.48 0.486,-1.141 1.293,-2.063 2.033,-3.031 0.146,-0.191 0.347,-0.364 0.6,-0.3 0.28,0.073 0.198,0.329 0.178,0.58 M 146.51,85.439 c 1.105,0.348 1.955,-0.292 2.781,-0.982 0.343,-0.286 0.711,-0.558 0.993,-0.896 0.577,-0.693 1.546,-0.891 2.042,-1.682 0.207,-0.328 0.357,-0.609 0.034,-0.939 -0.324,-0.333 -0.676,-0.298 -1.021,-0.07 -0.349,0.229 -0.553,0.6 -0.656,0.977 -0.198,0.723 -0.685,0.979 -1.362,0.969 -0.89,-0.015 -1.709,0.248 -2.539,0.526 -0.838,0.281 -1.616,0.769 -2.551,0.753 -0.334,-0.005 -0.687,0.109 -0.663,0.56 0.022,0.421 0.347,0.5 0.693,0.556 0.719,0.116 1.436,0.248 2.249,0.228 m -28.358,69.452 c 0.023,0.449 0.003,0.794 0.311,1.017 0.177,0.127 0.367,0.081 0.518,-0.055 0.592,-0.533 1.188,-1.061 1.758,-1.614 0.33,-0.32 0.553,-0.739 0.501,-1.201 -0.098,-0.871 0.215,-1.608 0.614,-2.341 0.11,-0.202 0.195,-0.43 0.239,-0.655 0.051,-0.259 0.021,-0.531 -0.24,-0.686 -0.259,-0.152 -0.483,-0.033 -0.715,0.115 -2.021,1.295 -2.624,3.35 -2.986,5.42 m 9.589,-37.33 c -0.972,-0.021 -1.862,0.28 -2.723,0.676 -0.343,0.157 -0.59,0.467 -0.46,0.85 0.144,0.422 0.549,0.399 0.902,0.302 0.314,-0.087 0.616,-0.229 0.919,-0.359 0.643,-0.276 1.244,-0.315 1.875,0.098 0.695,0.455 1.49,0.354 2.266,0.22 0.185,-0.032 0.386,-0.092 0.435,-0.306 0.051,-0.218 -0.106,-0.361 -0.265,-0.459 -0.908,-0.562 -1.862,-0.989 -2.949,-1.022 m -2.869,20.594 c 0.24,0.156 1.146,-0.241 1.324,-0.296 0.201,-0.062 0.4,-0.139 0.606,-0.171 2.03,-0.317 3.02,-1.228 3.474,-3.222 0.122,-0.528 0.26,-1.058 0.078,-1.601 -0.117,-0.353 -0.304,-0.451 -0.627,-0.205 -0.359,0.273 -0.562,0.606 -0.593,1.069 -0.05,0.739 -0.198,1.441 -0.827,1.951 -0.678,0.549 -1.12,1.368 -2.016,1.681 -0.221,0.079 -1.281,0.464 -1.419,0.794 m 3.384,-24.391 c -0.483,-0.093 -0.835,0.406 -1.335,0.439 -0.349,0.024 -0.809,-0.005 -0.832,0.451 -0.022,0.476 0.465,0.519 0.818,0.618 0.273,0.077 0.579,0.139 0.817,-0.051 0.51,-0.407 0.958,-0.345 1.453,0.043 0.23,0.183 0.543,0.283 0.833,0.367 0.276,0.08 0.605,0.438 0.83,0.151 0.274,-0.352 -0.257,-0.449 -0.395,-0.684 -0.0565,-0.10337 -0.12683,-0.19857 -0.209,-0.283 -0.546,-0.523 -1.103,-1.029 -1.98,-1.051 m -6.445,25.635 c -0.44,-0.061 -0.464,0.039 -1.227,0.221 -1.29,0.306 -2.25,1.112 -3.084,2.087 -0.189,0.222 -0.286,0.526 0.017,0.748 0.261,0.193 0.484,0.043 0.684,-0.152 0.761,-0.74 1.59,-1.397 2.476,-1.983 0.18,-0.121 1.086,-0.68 1.134,-0.921 m 35.461,-24.624 c 0.031,0.404 0.06,0.936 0.71,1.022 0.438,0.059 0.945,-0.597 0.939,-1.142 -0.008,-0.6 -0.491,-1.375 -0.842,-1.352 -0.314,0.021 -0.812,0.863 -0.807,1.472 m -10.424,35.397 c 0.021,0.393 0.036,0.751 0.215,1.065 0.114,0.2 0.329,0.355 0.49,0.084 0.409,-0.685 0.784,-1.393 0.824,-2.217 0.011,-0.256 -0.081,-0.464 -0.337,-0.559 -0.251,-0.092 -0.467,-0.006 -0.636,0.18 -0.382,0.421 -0.5,0.943 -0.556,1.447 M 120.239,98.956 c 0.398,-0.055 0.585,-0.167 0.724,-0.319 0.76303,-0.819612 1.63442,-1.531186 2.59,-2.115 0.347,-0.213 0.339,-0.491 -0.017,-0.709 -0.221,-0.136 -0.5,-0.292 -0.716,-0.083 -0.962,0.937 -1.835,1.951 -2.581,3.226 m -14.367,43.115 c 0.025,0.281 0.023,0.588 0.351,0.703 0.276,0.098 0.501,-0.048 0.691,-0.238 0.352,-0.351 0.659,-0.735 0.795,-1.225 0.102,-0.364 -0.015,-0.604 -0.421,-0.63 -0.662,-0.04 -1.432,0.718 -1.416,1.39 m 30.876,10.181 c 0.035,0.265 -0.031,0.496 0.175,0.643 0.127,0.091 0.242,0.004 0.283,-0.104 0.371,-0.984 1.053,-1.838 1.242,-2.896 0.036,-0.193 0.14,-0.452 -0.129,-0.553 -0.206,-0.077 -0.347,0.114 -0.456,0.26 -0.607,0.804 -0.864,1.752 -1.115,2.65 M 113,140.383 c 0.012,0.138 0.013,0.281 0.039,0.419 0.073,0.382 0.263,0.688 0.694,0.634 0.449,-0.056 0.455,-0.424 0.372,-0.761 -0.101,-0.407 0.1,-0.652 0.359,-0.918 0.218,-0.225 0.224,-0.519 0.006,-0.764 -0.206,-0.232 -0.443,-0.103 -0.638,0.016 -0.508,0.31 -0.837,0.743 -0.832,1.374 m 37.75,-15.302 c 0.024,0 0.048,10e-4 0.072,0.003 0,0.563 -0.01,1.129 0.007,1.691 0.004,0.149 0.013,0.376 0.218,0.393 0.214,0.018 0.24,-0.211 0.272,-0.356 0.262,-1.188 0.21,-2.382 0.055,-3.578 -0.018,-0.139 -0.079,-0.306 -0.246,-0.298 -0.165,0.007 -0.212,0.177 -0.224,0.318 -0.057,0.607 -0.104,1.217 -0.154,1.827 m -26.635,-10.283 c -0.695,-0.007 -1.068,0.385 -1.044,0.958 0.016,0.37 0.032,0.787 0.563,0.801 0.54312,0.0119 0.98792,-0.42879 0.981,-0.972 -10e-4,-0.445 -0.163,-0.772 -0.5,-0.787 m 24.92,-22.153 c -0.059,0.311 -0.13,0.645 0.319,0.707 0.288,0.04 0.561,-0.103 0.578,-0.395 0.034,-0.585 0.016,-1.188 -0.241,-1.729 -0.158,-0.331 -0.501,-0.348 -0.798,-0.184 -0.289,0.161 -0.257,0.432 -0.087,0.669 0.205,0.286 0.292,0.587 0.229,0.932 m -8.561,7.744 c -0.122,0.045 -0.398,0.118 -0.187,0.336 0.533,0.551 1.062,1.122 1.751,1.49 0.155,0.083 0.326,0.044 0.447,-0.094 0.104,-0.119 0.081,-0.255 0.021,-0.393 -0.167,-0.392 -1.576,-1.352 -2.032,-1.339 m -4.34,15.093 c 0.011,-0.763 -0.856,-1.411 -1.423,-1.137 -0.37,0.18 -0.599,0.502 -0.233,0.827 0.323,0.288 0.752,0.481 1.163,0.638 0.297,0.115 0.482,-0.09 0.493,-0.328 m 15.894,-23.735 c 0.314,-0.024 0.725,0.047 0.74,-0.431 0.018,-0.452 -0.345,-0.511 -0.694,-0.501 -0.347,0.011 -0.569,-0.165 -0.769,-0.417 -0.128,-0.162 -0.309,-0.234 -0.495,-0.089 -0.146,0.114 -0.194,0.297 -0.097,0.445 0.319,0.48 0.562,1.075 1.315,0.993 m -11.782,28.607 c -0.184,0.022 -0.417,0.015 -0.462,0.232 -0.038,0.195 0.177,0.269 0.324,0.306 0.446,0.111 0.698,0.39 0.894,0.798 0.125,0.263 0.379,0.47 0.602,0.674 0.14,0.129 0.345,0.193 0.509,0.036 0.19,-0.184 0.025,-0.343 -0.091,-0.483 -0.397,-0.482 -0.96,-0.81 -1.265,-1.385 -0.087,-0.165 -0.317,-0.178 -0.511,-0.178 m 11.348,39.81 c 0.081,-0.459 -0.089,-0.688 -0.465,-0.68 -0.467,0.011 -0.927,0.151 -0.974,0.703 -0.048,0.534 0.458,0.524 0.794,0.598 0.551,0.12 0.55,-0.359 0.645,-0.621 m -7.576,-12.933 c 0.406,-0.182 0.704,-0.502 1.12,-0.621 0.328,-0.094 0.574,-0.323 0.703,-0.647 0.041,-0.102 0.082,-0.254 0.036,-0.333 -0.1,-0.173 -0.238,-0.02 -0.364,0.011 -0.722,0.177 -0.936,1.053 -1.673,1.214 -0.079,0.017 -0.116,0.162 -0.049,0.244 0.052,0.063 0.149,0.089 0.227,0.132 m 8.275,13.635 c -0.238,0.065 -0.666,-0.037 -0.604,0.374 0.067,0.439 0.454,0.705 0.883,0.794 0.292,0.061 0.53,-0.146 0.512,-0.438 -0.028,-0.45 -0.311,-0.709 -0.791,-0.73 m -29.47,-51.595 c -0.039,-0.26 -0.039,-0.539 -0.347,-0.564 -0.268,-0.022 -0.338,0.222 -0.384,0.428 -0.0663,0.29821 -0.11736,0.5996 -0.153,0.903 -0.021,0.177 0.055,0.331 0.25,0.37 0.181,0.036 0.348,-0.039 0.402,-0.209 0.1,-0.311 0.16,-0.634 0.232,-0.928 m 6.074,-19.716 c -0.055,-0.308 -0.239,-0.501 -0.567,-0.486 -0.392,0.019 -0.593,0.291 -0.617,0.644 -0.021,0.313 0.226,0.46 0.512,0.447 0.358,-0.018 0.615,-0.201 0.672,-0.605 m 11.153,28.064 c -0.243,0.01 -0.427,-0.015 -0.495,0.18 -0.0451,0.11908 0.0336,0.24886 0.16,0.264 0.511,0.042 0.904,0.3 1.299,0.595 0.147,0.109 0.373,0.059 0.483,-0.139 0.082,-0.147 0.017,-0.323 -0.117,-0.348 -0.508,-0.095 -0.939,-0.373 -1.33,-0.552 m 14.68,-32.412 c -0.018,-0.297 -0.033,-0.613 -0.407,-0.632 -0.347,-0.017 -0.503,0.233 -0.47,0.553 0.033,0.32 0.097,0.723 0.503,0.721 0.354,-0.002 0.328,-0.384 0.374,-0.642 m -16.042,31.714 c -0.09,-0.402 -0.351,-0.627 -0.78,-0.638 -0.179,-0.004 -0.4,-0.042 -0.442,0.221 -0.036,0.23 0.641,0.695 0.972,0.688 0.175,-0.004 0.256,-0.077 0.25,-0.271 m -3.366,-16.517 c 0.675,0 2.346,-0.206 3.02,-0.209 0.114,-10e-4 0.255,0 0.28,-0.15 0.027,-0.151 -0.103,-0.213 -0.215,-0.214 -0.32,-0.005 -3.136,-0.042 -3.085,0.573 m -4.214,-12.129 c -0.075,-0.321 -0.326,-0.368 -0.593,-0.36 -0.188,0.005 -0.43,0.048 -0.407,0.281 0.03,0.315 0.271,0.485 0.59,0.477 0.233,-0.007 0.385,-0.145 0.41,-0.398 m -10.479,14.209 c -0.112,-0.289 -0.837,-0.206 -1.063,-0.188 -0.245,0.019 -0.474,0.112 -0.448,0.411 0.023,0.275 0.24,0.326 0.461,0.25 0.224,-0.077 1,-0.148 1.05,-0.473 m 1.277,16.274 c 0.292,-0.055 0.308,-0.314 0.37,-0.53 0.049,-0.173 0.034,-0.356 -0.194,-0.361 -0.283,-0.005 -0.414,0.196 -0.442,0.453 -0.022,0.196 0.03,0.374 0.266,0.438 m -21.922,23.259 c 0.265,-0.079 1.009,-0.754 1.068,-1.064 0.025,-0.137 -0.088,-0.22 -0.228,-0.175 -0.278,0.087 -1.038,0.758 -1.103,1.064 -0.029,0.137 0.108,0.186 0.263,0.175 m 24.787,14.608 c 0.181,0.222 0.476,-0.49 0.176,-1.535 -0.043,-0.093 -0.167,-0.119 -0.233,-0.037 -0.25,0.306 -0.178,1.169 0.057,1.572 m 18.101,-36.957 c -0.185,-0.005 -0.335,0.069 -0.36,0.254 -0.033,0.226 0.114,0.342 0.329,0.357 0.181,0.013 0.334,-0.072 0.363,-0.253 0.038,-0.232 -0.128,-0.324 -0.332,-0.358 m 10.665,40.578 c 0.146,0.004 0.247,-0.064 0.238,-0.195 -0.019,-0.251 -0.204,-0.344 -0.428,-0.357 -0.133,-0.009 -0.323,-0.005 -0.263,0.194 0.061,0.204 0.248,0.318 0.453,0.358 M 44.62,81.44 c 3.345945,-0.04291 6.081258,2.657789 6.080979,6.004006 C 50.700701,90.790224 47.964938,93.490462 44.619,93.447 41.333577,93.404324 38.692711,90.728705 38.692985,87.443006 38.693258,84.157308 41.33457,81.482129 44.62,81.44 m 161.26,0 c 3.31564,0 6.0035,2.687859 6.0035,6.0035 0,3.315641 -2.68786,6.0035 -6.0035,6.0035 -3.28543,-0.0424 -5.92651,-2.717802 -5.92651,-6.0035 0,-3.285698 2.64108,-5.961097 5.92651,-6.0035"
       id="path5"
       sodipodi:nodetypes="ccccccccccccccccccccccccccccccccccccscccccccccccccccccccccccccccccccccccccccccccscccscccccccsccccccccccccccccccccccccccccccccccccccccccccccccccccccccccccccccccccccccccccccccccccccccccccccccccccccccccccccccccccccccsccccccccccccccscccccccccccccccccccccccccccccccccccccccccsccccccsccccccccccccccccccccccccccccccsccccccccccccccccccsccccccccccccccsccccccccccccccccccccccccccccccccccccccccccccccccscccccccccccccccccsccccccccccccccccccccccccccccccccccccccccccccccccccccccsccccccccccccccccccccccccccccccccccccccccccccccccccccccccccccccccccccccccccccsscccccccccccccccccccccccccccccccccccccccccccccccccccccccscccccccccccccccccccccccccccccccccccccccccccccccccccccccccccccccccccccccccccccccccccccccccccccccccccccccccccccsccccccccccccccccccccccccccccccccccccccscccccccccccccccccccssccccccccccccccccccccccccccccccccccccccccccccccccsccccccccccccccccccccccccccccccsccccccscccccccccccccccccccccccccccccccccccccccccccccccccccccccccccccccccccccccccccccccccsccccccccccccccccccccsccccccccccccccccccccccccccsssccscsc" /></g></svg>
