<?xml version="1.0" encoding="UTF-8" standalone="no"?>
<svg
   xml:space="preserve"
   width="275"
   height="282.245"
   version="1.1"
   id="svg7"
   sodipodi:docname="kukes.svg"
   inkscape:version="1.4.2 (f4327f4, 2025-05-13)"
   xmlns:inkscape="http://www.inkscape.org/namespaces/inkscape"
   xmlns:sodipodi="http://sodipodi.sourceforge.net/DTD/sodipodi-0.dtd"
   xmlns="http://www.w3.org/2000/svg"
   xmlns:svg="http://www.w3.org/2000/svg"><defs
     id="defs7" /><sodipodi:namedview
     id="namedview7"
     pagecolor="#ffffff"
     bordercolor="#000000"
     borderopacity="0.25"
     inkscape:showpageshadow="2"
     inkscape:pageopacity="0.0"
     inkscape:pagecheckerboard="0"
     inkscape:deskcolor="#d1d1d1"
     inkscape:zoom="2.8592181"
     inkscape:cx="137.62504"
     inkscape:cy="141.1225"
     inkscape:window-width="1920"
     inkscape:window-height="1009"
     inkscape:window-x="-8"
     inkscape:window-y="-8"
     inkscape:window-maximized="1"
     inkscape:current-layer="svg7" /><path
     fill="#EEEFF0"
     fill-rule="evenodd"
     d="M135.144 281.144c-22.213-10.302-43.494-22.834-62.32-38.555C13.948 193.451-4.229 126.672.795 52.272l.169-2.456 1.891-1.524C41.946 16.483 87.049 0 137.514 0c50.437 0 95.54 16.483 134.63 48.292l1.892 1.524.169 2.456c5.024 74.4-13.152 141.179-72.028 190.317-18.826 15.721-40.107 28.253-62.319 38.555l-2.343 1.101z"
     clip-rule="evenodd"
     id="path1" /><path
     fill="#0A2C5F"
     fill-rule="evenodd"
     d="M135.144 281.144c-22.213-10.302-43.494-22.834-62.32-38.555C13.948 193.451-4.229 126.672.795 52.272l.169-2.456 1.891-1.524C41.946 16.483 87.049 0 137.514 0c50.437 0 95.54 16.483 134.63 48.292l1.892 1.524.169 2.456c5.024 74.4-13.152 141.179-72.028 190.317-18.826 15.721-40.107 28.253-62.319 38.555l-2.343 1.101zm.592-1.269c-22.1-10.274-43.268-22.722-62.009-38.357C15.302 192.745-2.818 126.446 2.206 52.357l.142-1.835 1.411-1.157C42.595 17.753 87.331 1.412 137.514 1.412c50.155 0 94.891 16.342 133.727 47.953l1.44 1.157.112 1.835c5.024 74.089-13.068 140.388-71.521 189.16-18.713 15.636-39.91 28.083-61.981 38.357l-1.778.817z"
     clip-rule="evenodd"
     id="path2" /><path
     fill="#0A2C5F"
     fill-rule="evenodd"
     d="M137.514 276.064C60.405 240.247-2.141 178.831 6.412 52.639 44.317 21.79 88.065 6.238 137.514 5.617c49.449.621 93.169 16.172 131.075 47.021 8.552 126.193-53.965 187.609-131.075 223.426m.424-265.282c63.054 0 114.14 51.086 114.14 114.139 0 63.025-51.086 114.14-114.14 114.14-63.025 0-114.14-51.114-114.14-114.14 0-63.052 51.114-114.139 114.14-114.139"
     clip-rule="evenodd"
     id="path3" /><path
     fill="#EEEFF0"
     fill-rule="evenodd"
     d="M252.077 124.921c0-62.884-51.255-114.139-114.14-114.139-62.855 0-114.14 51.255-114.14 114.139 0 62.855 51.284 114.14 114.14 114.14 62.885 0 114.14-51.284 114.14-114.14"
     clip-rule="evenodd"
     id="path4" /><path
     fill="#24345F"
     fill-rule="evenodd"
     d="M137.938 15.552c60.4 0 109.37 48.969 109.37 109.369 0 60.372-48.97 109.342-109.37 109.342-60.372 0-109.342-48.97-109.342-109.342 0-60.4 48.969-109.369 109.342-109.369m0 3.387c58.537 0 105.982 47.445 105.982 105.982 0 58.51-47.445 105.955-105.982 105.955-58.509 0-105.955-47.445-105.955-105.955 0-58.537 47.445-105.982 105.955-105.982"
     clip-rule="evenodd"
     id="path5" /><path
     fill-rule="evenodd"
     d="M151.146 129.663c1.101 1.779 2.879 3.669 3.472 3.669-.367-1.552-.762-2.766-.452-4.206.227.508 1.355 3.557 1.524 5.222.17 1.835-1.383 1.129-2.004.649-2.682-2.173-5.701-4.854-7.226-7.62 4.29-.283 7.96-1.412 7.96-5.053 8.1-1.891 12.531 2.541 12.503 6.069-.028 2.201-2.343 3.923-5.193 3.895 2.766-2.088.621-4.572-2.202-5.278-2.342-.564-5.022-.31-7.026.226-1.271.31-2.429.734-1.356 2.427m-24.499-21.027c6.464 2.54-3.782.959-11.826 3.076l2.794 4.093c3.077-.395 14.648-1.411 18.036.169-6.463.226-12.842.734-18.713 2.399l4.206 5.024c6.717-3.048 13.322-3.584 19.644-1.326-7.508-.621-13.661 0-17.668 3.895l6.068 4.149c2.201-4.995 8.495-7.168 12.418-5.362-2.878 1.213-12.87 3.048-5.476 6.746 2.484-4.601 5.222-5.193 8.411-5.165 3.67.056 8.523-.283 8.835-4.262-1.609 1.326-2.992 1.947-4.687 1.947.028-2.343.367-4.713-.592-5.645-.678-.649-5.899-2.907-7.112-3.641 2.907.705 5.785 1.75 8.607 3.274 2.597 1.383 2.852 2.737 4.741 3.048.988.169 1.807.141 3.727-.198 1.976-.339 2.738-.762 1.27-1.778-1.807-1.213-5.249-3.189-8.918-4.939-6.153-2.992-12.927-5.561-12.871-5.222 0 .169.592.706.395 1.298-2.087-.62-8.635-1.552-11.289-1.58m1.864 52.582c-2.258 3.415-4.093 7-5.589 10.726-1.411-.848-2.597-1.892-3.387-3.359-.649-6.548.339-13.491 2.851-17.64.932-.762 2.173-1.271 3.697-1.58.508 4.092 1.299 8.043 2.428 11.853m15.805-9.934 12.531 6.633-2.427 13.942-7 1.016-7.028 1.017-6.265-12.729zm-1.185-4.319a46.5 46.5 0 0 0-11.318-2.032c.564-1.891 1.327-3.754 2.682-5.646 4.938-2.173 10.076-2.907 15.41-2.625 1.92 1.354 3.302 2.992 4.431 4.742-3.923 1.638-7.705 3.416-11.205 5.561m19.361 8.242c-.112-4.035-.535-7.987-1.354-11.854a7.2 7.2 0 0 1 3.669.452c4.996 4.91 7.451 10.528 8.581 16.482-.424 1.412-1.044 2.738-2.145 3.839-2.738-3.246-5.674-6.181-8.751-8.919m-4.853 17.893c3.753-.817 7.62-2.427 11.516-4.346a21.6 21.6 0 0 1 1.834 6.632c-2.681 4.968-6.266 8.892-10.697 11.771-2.681-.339-5.137-.987-7.338-1.976 1.861-3.895 3.47-7.875 4.685-12.081m-20.408 4.602c-3.951-.141-7.874-.593-11.826-1.157-.197 1.496-.169 3.077.339 4.854 3.782 3.951 8.411 6.943 14.253 8.692a18.4 18.4 0 0 0 5.898-3.584c-3.245-2.85-6.123-5.785-8.664-8.805m-26.643 2.257c-8.467-13.66-12.136-35.055-6.463-56.449l-5.956-6.266c-5.023 13.068-7.225 46.006 9.625 65.198 2.342 2.682 4.487 3.585 5.137 2.767.592-.762-.226-1.834-2.343-5.25m-10.076-1.918c-10.189-13.689-14.366-37.651-4.544-62.997l-4.262-4.657c-8.58 14.592-14.225 50.973 6.182 68.642 2.371 2.061 5.278 3.584 5.56 2.964.169-.397-1.017-1.385-2.936-3.952m-15.58-12.843c-7.423-14.479-6.294-38.329 4.008-56.477l-5.052-2.568c-9.004 13.067-13.547 38.328-1.666 59.13 2.766 4.855 6.548 9.286 7.198 8.693.452-.424-1.468-2.851-4.488-8.778m45.949-57.493c9.229-11.375 26.786-28.084 42.675-35.789-10.442 2.907-38.667 18.176-51.312 34.857 2.767.283 5.871.339 8.637.932m-48.094 62.178c-14.958-17.979-21.196-48.123 9.258-77.758-2.851 3.726-4.685 7.31-4.854 10.753-.113 2.343.931 3.161 1.693 3.104 1.27-.084 1.439-2.061 1.496-2.991.169-5.786 4.572-11.234 8.862-13.181-1.524 2.117-8.976 7.931-6.181 18.515 1.27-7.226 3.951-13.463 10.189-15.89-4.601 4.234-9.455 11.628-6.351 19.051 1.157-6.068 2.766-12.165 7.423-15.326-4.967 10.189-7.254 20.547 2.088 26.277.593-9.371-2.004-13.887 1.637-20.435 1.637 4.008 1.807 14.253.931 18.289-.705 3.303-1.834 3.274-2.907 5.278-1.693 7.846-1.439 15.834-.649 23.85 5.561-1.609 27.152-10.923 32.12-18.29 1.806-2.681 3.641-4.177 7.931-3.443 1.75 2.992 4.12 5.476 6.803 7.508 3.725 2.766 4.685.338 4.063-2.032-1.129-4.092-2.766-5.842 2.004-5.334 3.33.366 5.701 2.935.847 4.882 4.318 1.666 8.552-.79 8.692-4.177.113-2.427-1.27-5.786-7.423-7.479 3.896-1.271-2.85-4.037-7.055-6.689 4.205-4.29 8.41-8.552 12.616-12.842-2.4-2.541-4.149-5.419-5.42-8.58 1.271 1.439 2.23 2.483 3.811 3.048.903.311 1.101-.762 1.354-1.439.621 1.383 1.355 2.907 1.976 4.29 5.702-7.536 9.314-18.346 9.146-27.406 1.298-.932 1.523-2.343 1.129-2.823-1.411-1.665-5.843.339-10.641 2.738-17.303 8.58-36.833 22.41-48.349 33.756-1.806 1.129-7.367 1.778-9.173.677.79-14.902 23.906-31.272 35.957-35.704 3.473-1.27 1.807-1.524-.197-1.665-16.793-1.101-48.292 6.407-67.118 29.325-17.017 20.718-19.332 49.733 4.292 72.143"
     clip-rule="evenodd"
     id="path6" /><path
     fill="#162c49"
     d="m 112.027,193.281 -9.258,20.773 c -0.197,0.48 -0.253,0.847 -0.169,1.129 0.0212,0.12763 0.0801,0.24601 0.169,0.34 0.057,0.056 0.283,0.254 0.706,0.563 0.508,0.39533 0.649,0.84667 0.423,1.354 -0.141,0.312 -0.395,0.509 -0.79,0.537 -0.282,0.057 -0.706,-0.057 -1.214,-0.282 l -0.593,-0.255 -6.802,-3.019 -0.593,-0.283 c -0.508,-0.226 -0.847,-0.451 -1.016,-0.705 -0.226,-0.312 -0.254,-0.621 -0.113,-0.932 0.225333,-0.53667 0.649,-0.73433 1.271,-0.593 0.508,0.084 0.818,0.112 0.903,0.141 0.130377,-0.002 0.257487,-0.0412 0.367,-0.112 0.254,-0.142 0.48,-0.424 0.706,-0.876 l 7.367,-16.566 c 0.254,-0.594 0.395,-1.073 0.395,-1.412 0,-0.339 -0.113,-0.592 -0.367,-0.733 l -0.593,-0.367 c -0.508,-0.339 -0.649,-0.733 -0.452,-1.214 0.169,-0.395 0.48,-0.592 0.932,-0.649 0.226,-0.028 0.621,0.058 1.185,0.283 z m 7.875,27.209 -0.48,1.891 c -1.242,-0.31 -2.427,-0.932 -3.556,-1.835 -0.932,-0.789 -1.609,-1.664 -2.004,-2.652 -0.423,-0.96 -0.479,-1.919 -0.253,-2.879 0.253,-1.044 0.846,-1.807 1.721,-2.343 0.875,-0.508 1.834,-0.649 2.879,-0.396 0.932,0.227 1.637,0.734 2.145,1.524 0.508,0.763 0.649,1.58 0.423,2.428 -0.141,0.593 -0.395,1.072 -0.79,1.411 l -0.819,0.705 c -0.22533,0.19733 -0.36633,0.39533 -0.423,0.594 -0.0847,0.366 0.0283,0.733 0.339,1.101 0.169,0.169 0.423,0.309 0.818,0.451 m 0.931,2.258 0.479,-1.891 c 0.424,-0.028 0.76267,-0.0847 1.016,-0.17 0.226,-0.085 0.452,-0.254 0.678,-0.479 0.451,-0.451 0.734,-0.988 0.903,-1.609 l 4.347,-17.329 c 0.142,-0.564 0.226,-0.988 0.254,-1.242 0.028,-0.254 0,-0.48 -0.113,-0.678 -0.113,-0.338 -0.452,-0.62 -0.988,-0.932 l 0.452,-1.834 c 1.15398,0.42339 2.21023,1.07619 3.105,1.919 0.93459,0.87184 1.69152,1.9164 2.229,3.076 0.649,1.327 1.016,2.936 1.073,4.771 0.084,1.863 -0.141,3.81 -0.649,5.814 -1.072,4.29 -3.161,7.395 -6.266,9.285 -1.073,0.65 -2.173,1.102 -3.331,1.327 -1.128,0.226 -2.201,0.226 -3.189,-0.028 m 4.008,-14.113 -0.564,2.174 c -1.552,0.395 -2.964,0.452 -4.233,0.112 -0.79593,-0.20875 -1.55018,-0.55239 -2.23,-1.016 -0.6785,-0.49081 -1.27002,-1.09179 -1.75,-1.778 -0.49721,-0.77878 -0.82404,-1.65394 -0.959,-2.568 -0.14907,-0.95961 -0.1011,-1.93954 0.141,-2.88 0.35729,-1.41061 1.04409,-2.71636 2.004,-3.81 0.959,-1.129 2.06,-1.947 3.331,-2.428 1.806,-0.677 3.754,-0.733 5.871,-0.226 L 126,198.078 c -0.536,0 -0.932,0.112 -1.213,0.311 -0.311,0.227 -0.508,0.621 -0.649,1.129 l -1.778,7.169 c -0.141,0.564 -0.141,1.016 0.028,1.412 0.142,0.366 0.423,0.592 0.819,0.677 0.393,0.085 0.929,0.057 1.634,-0.141 m 53.006,7.677 -0.705,-1.89 c 0.31,-0.227 0.479,-0.425 0.593,-0.537 0.11624,-0.15161 0.20246,-0.32404 0.254,-0.508 0.169,-0.593 0.112,-1.299 -0.226,-2.146 l -6.294,-16.37 c -0.312,-0.847 -0.734,-1.439 -1.271,-1.75 -0.15382,-0.10094 -0.3273,-0.16809 -0.509,-0.197 -0.169,-0.028 -0.423,-0.028 -0.818,0 l -0.705,-1.892 c 1.23356,-0.3232 2.51873,-0.4 3.782,-0.226 1.185,0.197 2.398,0.649 3.669,1.383 1.354,0.79 2.597,1.892 3.669,3.247 1.12538,1.4533 2.02021,3.07127 2.653,4.797 0.705,1.835 1.129,3.612 1.242,5.335 0.112,1.75 -0.085,3.387 -0.565,4.883 -0.423,1.383 -1.044,2.568 -1.806,3.5 -0.762,0.932 -1.749,1.723 -2.963,2.371 m -1.383,0.537 c -1.327,0.31 -2.597,0.395 -3.782,0.197 -1.186,-0.169 -2.427,-0.649 -3.67,-1.383 -1.42022,-0.8358 -2.66568,-1.93797 -3.668,-3.246 -1.073,-1.355 -1.977,-2.963 -2.682,-4.798 -0.705,-1.807 -1.102,-3.585 -1.214,-5.335 -0.113,-1.75 0.057,-3.358 0.564,-4.883 0.424,-1.383 1.017,-2.54 1.806,-3.472 0.763,-0.932 1.751,-1.722 2.936,-2.37 l 0.734,1.862 c -0.31,0.254 -0.508,0.424 -0.593,0.564 -0.12424,0.14686 -0.21135,0.32143 -0.254,0.509 -0.169,0.563 -0.112,1.27 0.226,2.116 l 6.294,16.398 c 0.312,0.847 0.734,1.412 1.243,1.75 0.197,0.085 0.366,0.169 0.535,0.197 0.142,0.028 0.423,0.028 0.819,0 z m -27.914,5.109 0.339,2.004 c -1.439,0.057 -2.709,-0.028 -3.782,-0.311 -1.241,-0.311 -2.229,-0.819 -3.02,-1.552 -0.75275,-0.71871 -1.25712,-1.65843 -1.44,-2.683 -0.169,-1.072 0,-2.004 0.565,-2.85 0.564,-0.84667 1.354,-1.35467 2.37,-1.524 1.129,-0.197 2.117,0.084 3.021,0.847 0.621,0.536 1.016,1.186 1.129,1.892 0.088,0.53749 0.0493,1.08809 -0.113,1.608 -0.1841,0.52908 -0.48289,1.01091 -0.875,1.411 -0.338,0.367 -0.508,0.621 -0.479,0.762 0.028,0.197 0.282,0.339 0.734,0.424 0.45,0.085 0.958,0.056 1.551,-0.028 m -4.29,-24.556 0.339,1.919 c -0.35747,0.14158 -0.69848,0.32164 -1.017,0.537 -0.112,0.112 -0.226,0.226 -0.311,0.366 -0.051,0.11591 -0.0795,0.24045 -0.084,0.367 0.057,0.198 0.226,0.367 0.508,0.536 l 1.016,0.536 c 0.48,0.283 0.791,0.847 0.932,1.722 0.1739,0.88826 -0.0305,1.80881 -0.564,2.54 -0.564,0.791 -1.299,1.271 -2.258,1.412 -0.89258,0.17862 -1.81878,-0.0376 -2.54,-0.593 -0.734,-0.564 -1.214,-1.354 -1.383,-2.371 -0.169,-0.847 -0.085,-1.722 0.226,-2.568 0.338,-0.875 0.847,-1.637 1.553,-2.343 0.844,-0.79 2.03,-1.496 3.583,-2.06 m 7.987,11.939 c 1.158,0.141 2.061,0.282 2.653,0.451 0.592,0.169 1.129,0.396 1.609,0.706 0.648,0.423 1.213,1.016 1.692,1.749 0.452,0.734 0.763,1.553 0.932,2.428 0.339,1.948 -0.057,3.697 -1.186,5.222 -0.678,0.932 -1.581,1.693 -2.71,2.343 -1.19224,0.63403 -2.47865,1.07229 -3.81,1.298 l -0.818,0.113 -0.366,-2.004 c 0.677,-0.311 1.129,-0.705 1.382,-1.157 0.17,-0.254 0.254,-0.536 0.282,-0.79 0.028,-0.283 0,-0.649 -0.057,-1.072 l -0.959,-5.477 c -0.113,-0.535 -0.197,-0.903 -0.282,-1.157 -0.11434,-0.24635 -0.27766,-0.46683 -0.48,-0.648 -0.423,-0.396 -1.044,-0.564 -1.806,-0.452 -0.509,0.057 -0.847,0.057 -1.044,-0.028 -0.312,-0.112 -0.509,-0.366 -0.565,-0.706 -0.057,-0.366 0,-0.62 0.169,-0.817 0.171,-0.169 0.537,-0.339 1.073,-0.48 1.411,-0.366 1.976,-1.213 1.75,-2.512 l -0.141,-0.762 -0.763,-4.29 c -0.141,-0.819 -0.395,-1.383 -0.762,-1.723 -0.367,-0.31 -0.959,-0.507 -1.75,-0.563 l -0.367,-2.004 0.536,-0.113 c 1.19422,-0.19599 2.40996,-0.22426 3.612,-0.084 1.215,0.141 2.259,0.451 3.161,0.931 0.875,0.451 1.609,1.045 2.174,1.806 0.54274,0.74584 0.90926,1.60506 1.072,2.513 0.312,1.693 0,3.218 -0.874,4.544 -0.34265,0.5541 -0.78274,1.04162 -1.299,1.439 -0.477,0.393 -1.155,0.816 -2.058,1.296"
     id="path7"
     sodipodi:nodetypes="ccccccccccccccccccsccccccccccccccccccccccccccscccccccccccccccccccccccccccccccccccccccccccscccccccccccccccccccccccccccccccccccccccccccccccccsccccccccccccccccccccccccccccccccc" /></svg>
