<?xml version="1.0" encoding="UTF-8" standalone="no"?>
<svg
   xml:space="preserve"
   width="245.845"
   height="406.761"
   viewBox="0 0 275 454.922"
   version="1.1"
   id="svg4"
   sodipodi:docname="lac.svg"
   inkscape:version="1.4.2 (f4327f4, 2025-05-13)"
   xmlns:inkscape="http://www.inkscape.org/namespaces/inkscape"
   xmlns:sodipodi="http://sodipodi.sourceforge.net/DTD/sodipodi-0.dtd"
   xmlns="http://www.w3.org/2000/svg"
   xmlns:svg="http://www.w3.org/2000/svg"><defs
     id="defs4" /><sodipodi:namedview
     id="namedview4"
     pagecolor="#ffffff"
     bordercolor="#000000"
     borderopacity="0.25"
     inkscape:showpageshadow="2"
     inkscape:pageopacity="0.0"
     inkscape:pagecheckerboard="0"
     inkscape:deskcolor="#d1d1d1"
     inkscape:zoom="1.9839661"
     inkscape:cx="122.73395"
     inkscape:cy="203.38049"
     inkscape:window-width="1920"
     inkscape:window-height="1009"
     inkscape:window-x="-8"
     inkscape:window-y="-8"
     inkscape:window-maximized="1"
     inkscape:current-layer="svg4" /><path
     fill="#FFF"
     fill-rule="evenodd"
     d="M137.466 454.922C213.401 454.922 275 353.094 275 227.461S213.401 0 137.466 0C61.529 0 0 101.828 0 227.461s61.529 227.461 137.466 227.461"
     clip-rule="evenodd"
     id="path1" /><path
     fill-rule="evenodd"
     d="m111.156 185.769 13.642 3.411 6.125 3.549c-7.17-.905-13.852-3.34-19.767-6.96m-8.214-16.218c.975 3.689 3.202 9.258 4.872 13.99-2.087-1.531-4.037-3.201-5.846-5.081-7.378-7.377-12.529-17.122-14.061-27.979l2.576.904c1.113 3.133 2.575 6.056 4.384 8.909a45.4 45.4 0 0 0 8.075 9.257m14.479-5.498-12.808 3.271a42.6 42.6 0 0 1-7.447-8.562c-1.879-2.923-3.342-6.055-4.454-9.326l4.036-18.792 15.8-3.968 10.857 14.964c-.486 3.201-1.183 6.543-2.018 9.814-1.113 4.317-2.505 8.631-3.966 12.599m53.872 13.364c4.385-4.942 9.327-12.251 11.553-15.452l.628.07c-2.506 6.193-6.266 11.763-10.927 16.425-.768.767-1.532 1.531-2.298 2.228zm-12.738-3.759 9.537 4.594-1.881 5.567c-8.212 5.848-18.166 9.258-28.954 9.258h-.139l-6.822-3.897a571 571 0 0 0 5.081-8.84c4.386-.278 8.491-.975 12.32-2.019 3.897-1.114 7.518-2.645 10.858-4.663m2.853-22.482-3.966 19.907a40.7 40.7 0 0 1-10.51 4.523c-3.76 1.045-7.865 1.74-12.182 2.02-5.29-4.455-9.884-8.492-14.616-12.946 1.462-3.897 2.784-8.214 3.897-12.529.835-3.131 1.462-6.264 2.019-9.326 6.682-1.81 13.712-3.271 20.462-5.081zm16.498-28.118-13.575-12.808-15.521 5.359c-.349 6.612-.349 13.363-.626 19.976l15.521 13.921 14.548-5.22c.486-3.132.765-6.334.765-9.605.001-3.759-.347-7.587-1.112-11.623m4.592-.975-1.809.835c.766 4.106 1.113 8.004 1.113 11.763 0 4.106-.418 8.005-1.043 11.833 1.32 3.897 2.297 8.143 2.854 12.737l.903.069c1.672-5.081 2.646-10.511 2.646-16.148a49.8 49.8 0 0 0-4.664-21.089m-68.141-23.248 7.447-.208 3.201 9.884c-3.967 5.01-7.935 10.161-11.901 15.173l-16.426 4.105-2.437-9.813c2.088-3.689 4.732-7.031 7.727-10.023a48.3 48.3 0 0 1 12.389-9.118m10.093-1.183 7.099-4.037c1.88-.209 3.759-.278 5.708-.278 8.353 0 16.147 2.018 23.108 5.638l2.575 8.84-16.358 5.637c-6.332-1.879-12.667-3.897-18.931-5.776zm12.807-7.099c14.548 0 27.703 5.847 37.237 15.383 9.536 9.535 15.451 22.689 15.451 37.236s-5.915 27.772-15.451 37.308c-9.534 9.535-22.689 15.382-37.237 15.382-14.547 0-27.701-5.847-37.237-15.382-9.535-9.535-15.452-22.761-15.452-37.308s5.917-27.701 15.452-37.236c9.536-9.537 22.69-15.383 37.237-15.383"
     clip-rule="evenodd"
     id="path2" /><path
     fill-rule="evenodd"
     d="M137.466 454.922C213.401 454.922 275 353.094 275 227.461S213.401 0 137.466 0C61.529 0 0 101.828 0 227.461s61.529 227.461 137.466 227.461M84.011 63.408v42.597c-7.378 10.51-11.693 23.387-11.693 37.167 0 13.852 4.315 26.728 11.693 37.237v15.521H51.02v-87.699C34.802 140.527 24.988 182.08 24.988 227.46s9.814 86.934 26.032 119.228v-66.33h32.991v111.156c11.276 10.162 23.804 17.19 36.959 20.392v-45.241h32.991v45.241c13.224-3.201 25.684-10.229 37.03-20.392V280.358h32.989v66.33c16.22-32.294 26.032-73.847 26.032-119.228s-9.813-86.934-26.032-119.229v87.699h-32.989v-16.218c7.098-10.371 11.205-22.968 11.205-36.541 0-13.502-4.107-26.101-11.205-36.472V63.408c-11.347-10.162-23.807-17.192-37.03-20.395V80.46c-5.29-1.461-10.928-2.228-16.704-2.228q-8.457 0-16.287 2.089V43.014c-13.156 3.202-25.683 10.232-36.959 20.394"
     clip-rule="evenodd"
     id="path3" /><path
     d="m 111.573,325.112 v 31.391 h -7.865 V 339.66 c 0,-2.436 -0.0693,-3.898 -0.208,-4.386 -0.14,-0.486 -0.418,-0.903 -0.976,-1.182 -0.486,-0.211 -1.67,-0.351 -3.48,-0.351 H 98.21 v -3.618 c 3.828,-0.834 6.751,-2.506 8.699,-5.012 h 4.664 z m 3.063,23.039 h 7.936 c 0,1.46 0,2.437 0.069,2.784 0,0.348 0.209,0.695 0.486,0.974 0.278,0.277 0.626,0.35 1.114,0.35 0.417,0 0.765,-0.072 1.044,-0.35 0.278,-0.209 0.418,-0.557 0.418,-0.974 0.069,-0.348 0.069,-1.113 0.069,-2.298 v -5.011 c -0.417,0.837 -0.975,1.462 -1.74,1.88 -0.83533,0.41733 -1.81,0.626 -2.924,0.626 -1.462,0 -2.784,-0.418 -3.897,-1.183 -1.113,-0.768 -1.81,-1.671 -2.088,-2.784 -0.278,-1.045 -0.487,-2.575 -0.487,-4.386 v -2.506 c 0,-2.228 0.14,-3.826 0.279,-4.941 0.208,-1.043 0.626,-2.02 1.392,-2.923 0.695,-0.974 1.739,-1.672 2.992,-2.158 1.323,-0.487 2.854,-0.766 4.525,-0.766 2.156,0 3.896,0.278 5.22,0.904 1.39267,0.558 2.43667,1.39333 3.132,2.506 0.767,1.115 1.184,2.228 1.322,3.41 0.14,1.254 0.209,3.551 0.209,7.03 v 4.316 c 0,3.75733 -0.0697,6.263 -0.209,7.517 -0.069,1.252 -0.556,2.437 -1.322,3.619 -0.83108,1.12818 -1.96539,1.99721 -3.271,2.506 -1.39267,0.556 -2.99333,0.834 -4.802,0.834 -2.22733,0 -4.037,-0.34767 -5.429,-1.043 -1.463,-0.765 -2.437,-1.741 -3.063,-3.063 -0.627,-1.251 -0.975,-2.92 -0.975,-4.87 m 7.935,-9.745 c 0,1.324 0.139,2.089 0.556,2.437 0.34867,0.278 0.697,0.417 1.045,0.417 0.556,0 0.975,-0.139 1.253,-0.557 0.208,-0.417 0.348,-1.182 0.348,-2.297 v -5.707 c 0,-1.393 -0.14,-2.297 -0.348,-2.714 -0.27867,-0.41733 -0.69633,-0.626 -1.253,-0.626 -0.348,0 -0.696,0.139 -1.045,0.486 -0.348,0.348 -0.556,1.183 -0.556,2.646 z m 32.853,-4.941 h -7.935 c 0,-1.461 0,-2.367 -0.07,-2.784 0,-0.348 -0.139,-0.695 -0.417,-0.974 -0.278,-0.209 -0.697,-0.348 -1.185,-0.348 -0.417,0 -0.765,0.139 -1.043,0.348 -0.209,0.278 -0.417,0.557 -0.417,0.974 -0.069,0.348 -0.069,1.115 -0.069,2.297 v 5.012 c 0.417,-0.835 0.973,-1.463 1.808,-1.88 0.768,-0.417 1.741,-0.626 2.854,-0.626 1.463,0 2.784,0.417 3.898,1.185 1.113,0.765 1.811,1.669 2.089,2.784 0.278,1.043 0.487,2.575 0.487,4.383 v 2.506 c 0,2.228 -0.14,3.829 -0.278,4.873 -0.14,1.114 -0.626,2.088 -1.394,2.992 -0.695,0.906 -1.738,1.602 -2.992,2.158 -1.321,0.486 -2.784,0.695 -4.525,0.695 -2.086,0 -3.896,-0.278 -5.22,-0.835 -1.39133,-0.556 -2.43533,-1.391 -3.132,-2.505 -0.765,-1.113 -1.184,-2.229 -1.322,-3.479 -0.14,-1.185 -0.14,-3.482 -0.14,-6.961 v -4.316 c 0,-3.758 0,-6.264 0.14,-7.515 0.13126,-1.28882 0.61264,-2.51717 1.392,-3.552 0.766,-1.182 1.88,-2.019 3.201,-2.575 1.39333,-0.55667 2.99467,-0.835 4.804,-0.835 2.228,0 4.037,0.349 5.498,1.044 1.393,0.767 2.437,1.74 2.995,3.062 0.625,1.253 0.973,2.925 0.973,4.872 m -7.935,9.744 c 0,-1.112 -0.14,-1.81 -0.348,-2.228 -0.27867,-0.41733 -0.697,-0.626 -1.255,-0.626 -0.556,0 -0.974,0.209 -1.182,0.557 -0.278,0.418 -0.417,1.18367 -0.417,2.297 v 5.707 c 0,1.394 0.139,2.298 0.348,2.715 0.27733,0.418 0.69433,0.62733 1.251,0.628 0.348,0 0.695,-0.211 1.046,-0.489 0.348,-0.348 0.557,-1.251 0.557,-2.645 z m 29.302,-7.517 v 10.51 c 0,2.366 -0.14,4.107 -0.417,5.15 -0.278,1.115 -0.835,2.158 -1.603,3.063 -0.834,0.976 -1.808,1.671 -2.992,2.019 -1.183,0.417 -2.437,0.626 -3.896,0.626 -1.88,0 -3.481,-0.209 -4.733,-0.626 -1.16794,-0.37704 -2.20527,-1.07703 -2.992,-2.019 -0.768,-0.904 -1.255,-1.878 -1.603,-2.924 -0.27733,-0.97333 -0.41633,-2.57433 -0.417,-4.803 v -10.996 c 0,-2.854 0.209,-5.012 0.695,-6.473 0.557,-1.393 1.532,-2.575 2.993,-3.412 1.532,-0.903 3.342,-1.321 5.429,-1.321 1.74,0 3.342,0.278 4.663,0.904 1.394,0.626 2.437,1.324 3.063,2.228 0.70948,0.83748 1.18976,1.84456 1.394,2.923 0.276,1.046 0.416,2.784 0.416,5.151 m -7.935,-2.576 c 0,-1.668 -0.069,-2.714 -0.278,-3.131 -0.139,-0.418 -0.486,-0.626 -1.112,-0.626 -0.629,0 -0.977,0.208 -1.185,0.626 -0.209,0.486 -0.278,1.532 -0.278,3.131 v 15.313 c 0,1.811 0.069,2.854 0.278,3.271 0.139,0.348 0.556,0.559 1.114,0.559 0.626,0 0.974,-0.211 1.183,-0.697 0.209,-0.418 0.278,-1.392 0.278,-2.924 z"
     id="path4"
     sodipodi:nodetypes="cccsccscccccccccsccsccsccsscccscccsscccscccscscsscscssccccsccsccsccsscccscccsscccscccscscsscccsscscccsccccsccsccccscscsscscss" /></svg>
