<?xml version="1.0" encoding="UTF-8" standalone="no"?>
<svg
   width="267.261"
   height="374.166"
   viewBox="-10.855 -15.204 275 384.738"
   version="1.1"
   id="svg7"
   sodipodi:docname="lushnja.svg"
   inkscape:version="1.4.2 (f4327f4, 2025-05-13)"
   xmlns:inkscape="http://www.inkscape.org/namespaces/inkscape"
   xmlns:sodipodi="http://sodipodi.sourceforge.net/DTD/sodipodi-0.dtd"
   xmlns="http://www.w3.org/2000/svg"
   xmlns:svg="http://www.w3.org/2000/svg">
  <defs
     id="defs7" />
  <sodipodi:namedview
     id="namedview7"
     pagecolor="#ffffff"
     bordercolor="#000000"
     borderopacity="0.25"
     inkscape:showpageshadow="2"
     inkscape:pageopacity="0.0"
     inkscape:pagecheckerboard="0"
     inkscape:deskcolor="#d1d1d1"
     inkscape:zoom="2.1567968"
     inkscape:cx="133.76318"
     inkscape:cy="187.08299"
     inkscape:window-width="1920"
     inkscape:window-height="1009"
     inkscape:window-x="-8"
     inkscape:window-y="-8"
     inkscape:window-maximized="1"
     inkscape:current-layer="svg7" />
  <path
     fill="#ffffff"
     d="m 28.118,243.08 c 0,-53.535 43.499,-97.034 97.002,-97.034 53.504,0 97.003,43.499 97.003,97.034 0,53.504 -43.499,97.002 -97.003,97.002 -53.504,0 -97.002,-43.498 -97.002,-97.002"
     id="path1"
     sodipodi:nodetypes="csssc" />
  <path
     d="M264.145 133.61c-.153-24.104-16.101-44.115-19.548-46.916-21.427-24.628-17.271-51.688-13.915-73.422 1.631-10.559 3.048-19.702 1.416-27.214l-.246-1.262h-29.708c-10.559 0-31.893 8.835-56.612 19.148C113.7 17.181 77.744 32.112 55.917 31.865 40.832 33.19 29.35 28.573 18.236 24.2 9.155 20.537.628 17.181-9.223 17.027l-1.632-.092v128.772c8.373 192.59 76.623 220.757 135.114 223.713 32.602 1.631 57.783-14.685 73.113-28.784 23.365-21.272 39.713-51.749 40.667-75.761v-85.613c17.362-12.19 26.105-27.367 26.105-45.284zM33.413 243.08c0-50.61 41.128-91.739 91.708-91.739s91.708 41.128 91.708 91.739c0 50.579-41.128 91.708-91.708 91.708s-91.708-41.129-91.708-91.708"
     id="path2" />
  <path
     fill="#0a933e"
     d="M125.121 338.081c-52.303 0-94.91-42.637-94.91-95.001 0-44.576 30.877-82.103 72.467-92.201C64.444 131.024 26.055 98.269-7.654 44.303v101.343C.628 335.557 67.277 363.232 124.413 366.219c31.524 1.57 55.905-14.315 70.835-27.921 22.072-20.104 37.619-48.487 39.436-71.298v-86.967c-12.684-.062-26.352-.616-40.667-2.186 16.101 16.962 26.045 39.958 26.045 65.232 0 52.366-42.545 95.002-94.941 95.002"
     id="path3" />
  <path
     fill="#d3351f"
     d="M260.943 133.61c-.153-22.996-15.792-42.791-18.439-44.515l-.185-.062-.154-.154C228.404 72.994 224.74 56.34 224.74 40.701c0-9.852 1.416-19.241 2.739-27.922 1.078-7.173 2.094-13.668 2.094-19.209 0-2.032-.215-3.848-.461-5.572h-26.969c-9.851 0-31.985 9.235-55.351 18.933-32.078 13.299-68.434 28.383-90.723 28.137-15.7 1.416-27.583-3.355-39.004-7.881-8.281-3.294-16.1-6.342-24.72-6.804v17.825c35.033 57.629 75.393 91.646 115.412 111.563a92.3 92.3 0 0 1 17.363-1.631c25.244 0 48.178 9.944 65.203 25.952 16.192 2.124 31.522 2.74 45.592 2.74 16.593-11.575 25.027-25.952 25.027-42.914z"
     id="path4" />
  <g
     fill="#0a933e"
     id="g6" />
</svg>
