<?xml version="1.0" encoding="UTF-8" standalone="no"?>
<svg
   xml:space="preserve"
   width="155.043"
   height="250.5"
   version="1.1"
   id="svg4"
   sodipodi:docname="partizani.svg"
   inkscape:version="1.4.2 (f4327f4, 2025-05-13)"
   xmlns:inkscape="http://www.inkscape.org/namespaces/inkscape"
   xmlns:sodipodi="http://sodipodi.sourceforge.net/DTD/sodipodi-0.dtd"
   xmlns="http://www.w3.org/2000/svg"
   xmlns:svg="http://www.w3.org/2000/svg"><defs
     id="defs4" /><sodipodi:namedview
     id="namedview4"
     pagecolor="#ffffff"
     bordercolor="#000000"
     borderopacity="0.25"
     inkscape:showpageshadow="2"
     inkscape:pageopacity="0.0"
     inkscape:pagecheckerboard="0"
     inkscape:deskcolor="#d1d1d1"
     inkscape:zoom="3.2215569"
     inkscape:cx="77.447026"
     inkscape:cy="125.25"
     inkscape:window-width="1920"
     inkscape:window-height="1009"
     inkscape:window-x="-8"
     inkscape:window-y="-8"
     inkscape:window-maximized="1"
     inkscape:current-layer="g4" /><g
     fill-rule="evenodd"
     clip-rule="evenodd"
     id="g4"><path
       fill="#EB222A"
       d="M.25 42.556h154.542v132.347c0 31.042-43.002 70.006-77.271 75.347C43.252 244.909.25 205.945.25 174.903z"
       id="path1" /><path
       fill="#FFF"
       d="m77.521 76.354 23.215 45.539 50.483 8.006-36.136 36.15 7.985 50.488-45.547-23.197-45.548 23.197 7.985-50.488-36.135-36.15 50.483-8.006zm-.125 41.808c-17.826.061-32.567 13.21-35.116 30.342 4.409 3.454 9.035 6.16 13.899 7.492.165-11.26 3.332-20.061 8.547-26.872 3.437-4.486 7.75-8.095 12.67-10.962m-35.437 33.422a35.523 35.523 0 0 0 2.347 15.131c5.605 3.957 11.71 6.698 18.285 7.654 8.087 1.176 16.928-.34 26.479-5.599-1.865-5.181-5.463-9.786-11.553-13.446-7.841 4.503-15.148 5.1-21.988 3.238-4.767-1.295-9.279-3.789-13.57-6.978m4.5 19.674c6.11 10.842 17.729 18.165 31.063 18.165 4.42 0 8.651-.806 12.557-2.277.867-5.537.978-10.898-.229-15.795-9.914 5.346-19.143 6.869-27.629 5.636-5.598-.815-10.856-2.827-15.762-5.729m46.464 14.674a35.8 35.8 0 0 0 12.382-9.833c.628-6.831-.047-13.485-2.5-19.654-3.017-7.588-8.744-14.487-18.075-20.138-3.559 4.207-5.752 9.626-5.882 16.729 7.759 4.652 11.845 10.749 13.556 17.639 1.191 4.798 1.213 9.955.519 15.257m15.243-13.955a35.46 35.46 0 0 0 4.986-18.185c0-11.093-5.067-21.001-13.016-27.535-5.224 2.011-9.919 4.593-13.558 8.083 9.578 5.917 15.508 13.155 18.678 21.131 2.091 5.255 2.974 10.81 2.91 16.506m-10.497-47.575a35.4 35.4 0 0 0-15.254-5.906c-6.184 2.965-11.55 6.96-15.587 12.232-4.966 6.485-7.951 14.941-8.014 25.845 5.443.897 11.226-.002 17.395-3.542.152-9.053 3.392-15.64 8.506-20.563 3.558-3.426 8.014-6.02 12.954-8.066"
       id="path2" /><path
       fill="#EB222A"
       d="m77.521.25 3.937 12.194 12.813-.024-10.38 7.512 3.983 12.18-10.353-7.552-10.352 7.552 3.983-12.18-10.381-7.512 12.814.024z"
       id="path3" /><path
       fill="#ffffff"
       d="m 87.255,236.59 c -0.304549,-0.006 -0.596829,0.11994 -0.801,0.346 -0.216223,0.23479 -0.331822,0.54497 -0.322,0.864 -0.0013,0.34667 0.111667,0.63767 0.339,0.873 0.224667,0.23533 0.488,0.35333 0.79,0.354 0.316667,0 0.588667,-0.11633 0.816,-0.349 0.228,-0.23267 0.342,-0.52567 0.342,-0.879 0,-0.348 -0.111333,-0.636 -0.334,-0.864 -0.214914,-0.22795 -0.516828,-0.35344 -0.83,-0.345 m 2.048,-5.389 -1.952,3.775 c 0.762,0 1.409667,0.27233 1.943,0.817 0.533333,0.54467 0.8,1.222 0.8,2.032 6.67e-4,0.78133 -0.273,1.44333 -0.821,1.986 -0.52036,0.53334 -1.237996,0.82792 -1.983,0.814 -0.81,0 -1.484667,-0.282 -2.024,-0.846 -0.54,-0.56267 -0.809667,-1.20867 -0.809,-1.938 0,-0.278 0.04167,-0.55633 0.125,-0.835 0.08467,-0.28133 0.277,-0.71367 0.577,-1.297 l 2.309,-4.511 h 1.835 z m -8.504,5.788 v -3.013 l -2.055,3.013 z m -0.022,-5.788 h 1.696 v 5.788 h 0.8 v 1.575 h -0.8 v 1.838 h -1.675 v -1.838 h -3.925 v -1.57 z m -7.658,4.038 c 0.316,0 0.582667,-0.11633 0.8,-0.349 0.216979,-0.23198 0.333133,-0.54052 0.323,-0.858 0,-0.34933 -0.113,-0.64133 -0.339,-0.876 -0.200952,-0.22505 -0.488287,-0.35381 -0.79,-0.354 -0.317333,0 -0.589333,0.11667 -0.816,0.35 -0.228178,0.23307 -0.351653,0.54898 -0.342,0.875 0,0.346 0.111,0.634 0.333,0.864 0.22,0.232 0.497,0.348 0.831,0.348 m -1.959,5.163 1.854,-3.551 c -0.732081,0.013 -1.435716,-0.28325 -1.938,-0.816 -0.532,-0.544 -0.798,-1.22033 -0.798,-2.029 0,-0.784 0.273667,-1.44733 0.821,-1.99 0.821,-0.814 1.208,-0.814 1.984,-0.814 0.81,0 1.484667,0.28133 2.024,0.844 0.539333,0.56333 0.808667,1.21067 0.808,1.942 0,0.276 -0.04167,0.55367 -0.125,0.833 -0.084,0.278 -0.276333,0.70767 -0.577,1.289 l -2.193,4.293 h -1.86 z m -5.222,-8.975 h 2.56 v 8.976 h -1.7 v -7.376 h -1.85 z"
       id="path4"
       sodipodi:nodetypes="ccccccsccccsccccccccccccccccccccccccccccccccccccccssscccccccccccccc" /></g></svg>
