<?xml version="1.0" encoding="UTF-8" standalone="no"?>
<svg
   xml:space="preserve"
   width="275"
   height="275"
   version="1.1"
   id="svg10"
   sodipodi:docname="pogradec.svg"
   inkscape:version="1.4.2 (f4327f4, 2025-05-13)"
   xmlns:inkscape="http://www.inkscape.org/namespaces/inkscape"
   xmlns:sodipodi="http://sodipodi.sourceforge.net/DTD/sodipodi-0.dtd"
   xmlns="http://www.w3.org/2000/svg"
   xmlns:svg="http://www.w3.org/2000/svg"><defs
     id="defs10" /><sodipodi:namedview
     id="namedview10"
     pagecolor="#ffffff"
     bordercolor="#000000"
     borderopacity="0.25"
     inkscape:showpageshadow="2"
     inkscape:pageopacity="0.0"
     inkscape:pagecheckerboard="0"
     inkscape:deskcolor="#d1d1d1"
     inkscape:zoom="2.9345455"
     inkscape:cx="137.5"
     inkscape:cy="137.5"
     inkscape:window-width="1920"
     inkscape:window-height="1009"
     inkscape:window-x="-8"
     inkscape:window-y="-8"
     inkscape:window-maximized="1"
     inkscape:current-layer="svg10" /><path
     fill="#C39E67"
     fill-rule="evenodd"
     d="M137.5 275c75.753 0 137.5-61.747 137.5-137.5C275 61.783 213.253 0 137.5 0 61.783 0 0 61.783 0 137.5 0 213.253 61.783 275 137.5 275"
     clip-rule="evenodd"
     id="path1" /><path
     fill="#D7CDC1"
     fill-rule="evenodd"
     d="M137.5 272.066c74.14 0 134.566-60.427 134.566-134.566 0-74.103-60.427-134.566-134.566-134.566C63.397 2.934 2.934 63.397 2.934 137.5c0 74.14 60.463 134.566 134.566 134.566"
     clip-rule="evenodd"
     id="path2" /><path
     fill="#C39E67"
     fill-rule="evenodd"
     d="M137.5 266.823c71.243 0 129.323-58.08 129.323-129.323S208.743 8.177 137.5 8.177 8.177 66.257 8.177 137.5 66.257 266.823 137.5 266.823"
     clip-rule="evenodd"
     id="path3" /><path
     fill="#D7CDC1"
     fill-rule="evenodd"
     d="M137.5 262.79c69.006 0 125.29-56.284 125.29-125.29 0-69.007-56.284-125.29-125.29-125.29-69.007 0-125.29 56.283-125.29 125.29 0 69.006 56.283 125.29 125.29 125.29"
     clip-rule="evenodd"
     id="path4" /><path
     fill="#C39E67"
     fill-rule="evenodd"
     d="M137.5 233.566c52.91 0 96.066-43.156 96.066-96.066 0-52.909-43.156-96.066-96.066-96.066-52.909 0-96.066 43.157-96.066 96.066s43.157 96.066 96.066 96.066"
     clip-rule="evenodd"
     id="path5" /><path
     fill="#414043"
     fill-rule="evenodd"
     d="M137.5 228.91c50.344 0 91.41-41.066 91.41-91.41s-41.066-91.409-91.41-91.409S46.09 87.156 46.09 137.5s41.066 91.41 91.41 91.41"
     clip-rule="evenodd"
     id="path6" /><path
     fill="#c39e67"
     fill-rule="evenodd"
     d="M 82.721,98.268 76.12,70.363 h 14.594 v 27.904 h -7.993 z m 45.539,-0.992 h -8.543 v -7.112 c 0,-2.2 1.943,-3.997 4.29,-3.997 2.347,0 4.253,1.797 4.253,3.997 z m -27.793,0 H 94.271 V 91.41 c -0.0017,-1.721606 1.394394,-3.11766 3.116,-3.116 1.687,0 3.08,1.393 3.08,3.116 z m 81.253,0 h -6.196 V 91.41 c -0.002,-1.721606 1.39439,-3.11766 3.116,-3.116 1.687,0 3.08,1.393 3.08,3.116 z m -25.593,0 h -8.544 v -7.112 c 0,-2.2 1.907,-3.997 4.253,-3.997 2.348,0 4.291,1.797 4.291,3.997 z m 28.931,-27.095 h 14.813 l -6.527,28.087 h -8.286 z m -0.808,2.456 h -9.753 l -2.348,25.631 h 12.101 z m -26.18,-5.463 h 16.134 l -2.823,31.094 H 160.05 Z m -0.586,3.007 H 146.85 l -3.191,28.087 h 15.621 z m -24.31,28.087 -4.84,-34.87 h 18.479 l -3.96,34.87 h -9.679 M 117.334,70.29 h 11.183 l 3.85,27.978 h -15.473 z m -12.761,27.978 -3.85,-30.91 H 116.6 l -0.513,30.91 z m -13.052,0 V 72.82 h 9.093 l 3.19,25.447 H 91.521 Z"
     clip-rule="evenodd"
     id="path7"
     sodipodi:nodetypes="ccccccccssscccccscccccscccssscccccccccccccccccccccccccccccccccccccccccc" /><path
     fill="#E9DED4"
     fill-rule="evenodd"
     d="m125.804 167.164-11.146 5.39c6.489-.036 13.786 1.136 21.67 2.677l.22.037 9.057-4.841c-1.796.33-3.631.513-5.5.513-5.209-.001-10.084-1.357-14.301-3.776m47.153 2.016c3.556-3.593 8.8-11.402 5.536-25.594 10.78 8.03 4.217 22.624-5.536 25.594m-14.777 6.307c13.055-1.834 24.86-6.234 28.527-18.957 3.776 15.326-10.304 21.377-28.527 18.957m-40.039-48.034-2.641.514a28.1 28.1 0 0 1 4.693-6.233 28.3 28.3 0 0 1 11.624-7.076c-.66 1.1-1.467 2.09-2.237 3.007zm-6.161 15.584 1.576 1.356 5.684 14.226-.037 2.201c-4.253-4.729-6.93-10.964-7.223-17.783m4.473-18.04L94.82 137.061l.33.55 18.773-8.214a27.5 27.5 0 0 0-1.687 4.474l-22.22 12.87.402.77 21.12-10.486c-.256 1.54-.366 3.153-.366 4.767v.953l-48.217 25.851.293.732 48.437-22c.221 1.138.478 2.201.807 3.265l-31.899 16.646-.037.55 32.486-15.583c.294.769.624 1.539.991 2.272l-47.411 25.154.184.549 49.391-21.963a29 29 0 0 0 3.446 4.18 24 24 0 0 0 2.236 2.054l-16.354 9.166c-4.106 1.063-7.736 2.971-10.815 6.088l-26.18 14.665.109.513 33.001-15.987c8.323-1.356 16.683-.477 25.739 1.283l-14.923 7.994.293.586 15.877-8.323c2.273.44 4.62.953 7.003 1.503 19.617 4.475 36.666 3.924 45.174-7.149-10.89 5.316-24.347 4.29-42.899.733l11.916-6.271a28.8 28.8 0 0 0 10.743-6.856c5.244-5.28 8.47-12.54 8.47-20.606a29.16 29.16 0 0 0-8.47-20.606c-5.243-5.28-12.467-8.543-20.46-8.543s-15.216 3.263-20.46 8.543a29 29 0 0 0-3.19 3.812m32.928 42.314 2.126.439a28.1 28.1 0 0 1-11.403 2.42c-3.08 0-6.05-.514-8.837-1.43l2.823-1.283zm-14.814-15.951 11.513.073 5.94 7.847-4.07 7.296-13.529.11c-1.943-2.09-3.667-4.217-5.134-6.416zm-4.657-11.513 3.997 11.11-5.28 8.873c-2.934-.22-5.903-.88-8.837-1.87l-5.354-13.457 4.657-7.003zm8.873-6.967c-2.859 2.384-5.793 4.4-8.689 6.196l-10.78-2.346-.22-9.057 10.743-9.167c2.934.917 6.05 1.87 9.02 2.75zm28.637 7.443q.33-.44.77-.77c.037.733.073 1.467.073 2.236 0 6.637-2.235 12.723-6.013 17.526l-.293-3.006zm-7.407-4.986c2.237 2.163 4.291 4.327 6.051 6.6l-4.73 13.75-8.689 3.117-6.086-8.03 2.528-11.551zm-.367-9.68c.366 3.043.439 6.014.11 8.946l-11.293 4.033a63.3 63.3 0 0 1-8.91-5.83l.073-11.587 8.653-2.823zm4.107.734-2.823-.807-12.539-8.03c-.881-1.063-1.577-2.2-1.906-3.41a28.55 28.55 0 0 1 13.528 7.59c1.393 1.393 2.64 2.969 3.74 4.657"
     clip-rule="evenodd"
     id="path8" /><path
     fill="#C39E67"
     fill-rule="evenodd"
     d="M78.32 97.497h120.009v84.369c0 25.74-42.02 32.743-60.022 45.247-17.968-12.504-59.987-19.507-59.987-45.247zm59.988 127.014c3.738-2.42 7.919-4.438 11.915-6.233 5.098-2.311 10.268-4.437 15.401-6.711 9.863-4.399 23.942-11.073 28.747-21.377 1.245-2.639 1.833-5.426 1.833-8.323V99.661H80.448v82.206c0 2.897.587 5.685 1.833 8.323 7.919 16.94 40.113 24.053 56.027 34.321"
     clip-rule="evenodd"
     id="path9" /><path
     fill="#414043"
     d="m 103.914,255.237 v -0.771 h 3.227 v -14.63 c 0,-0.331 -0.11,-0.514 -0.294,-0.624 -0.146,-0.073 -0.66,-0.146 -1.467,-0.146 h -1.393 v -0.622 c 0.88,-0.037 1.833,-0.073 2.823,-0.146 0.99,-0.074 2.053,-0.148 3.189,-0.295 h 0.917 v 16.464 h 3.007 v 0.771 h -10.009 z m 25.85,-7.479 c -0.33,0.476 -0.807,0.806 -1.32,1.063 -0.55,0.256 -1.173,0.367 -1.906,0.367 -1.576,0 -2.896,-0.515 -3.96,-1.505 -1.063,-1.025 -1.577,-2.272 -1.577,-3.738 0,-0.771 0.146,-1.504 0.44,-2.164 0.293,-0.659 0.771,-1.283 1.394,-1.87 0.66,-0.624 1.394,-1.063 2.2,-1.393 0.83984,-0.33598 1.73546,-0.51069 2.64,-0.515 1.906,0 3.52,0.697 4.767,2.054 1.283,1.394 1.906,3.117 1.906,5.244 0,1.283 -0.22,2.493 -0.696,3.629 -0.477,1.137 -1.173,2.127 -2.09,3.044 -1.137,1.1 -2.42,1.979 -3.85,2.566 -1.467,0.624 -3.044,0.953 -4.768,0.99 v -0.696 c 2.054,-0.146 3.667,-0.844 4.841,-2.054 1.172,-1.247 1.831,-2.933 1.979,-5.022 m 0.073,-1.137 c 0.11,-0.478 0.146,-0.954 0.184,-1.504 0.036,-0.514 0.036,-1.1 0.036,-1.688 0,-1.869 -0.183,-3.116 -0.514,-3.739 -0.366,-0.624 -1.026,-0.917 -1.979,-0.917 -0.917,0 -1.54,0.33 -1.87,0.954 -0.33,0.622 -0.477,2.053 -0.477,4.217 0,1.869 0.146,3.079 0.44,3.592 0.293,0.515 0.88,0.771 1.687,0.771 0.477,0 0.916,-0.146 1.356,-0.439 0.441,-0.295 0.807,-0.698 1.137,-1.247 m 17.05,-0.551 c 1.906,0.256 3.336,0.733 4.254,1.43 0.917,0.733 1.356,1.688 1.356,2.896 0,1.541 -0.661,2.786 -2.018,3.74 -1.355,0.954 -3.153,1.394 -5.389,1.394 -1.541,0 -2.75,-0.293 -3.704,-0.916 -0.953,-0.661 -1.43,-1.432 -1.43,-2.384 0,-0.66 0.184,-1.137 0.513,-1.54 0.33,-0.367 0.808,-0.551 1.356,-0.551 0.588,0 1.064,0.184 1.431,0.515 0.402,0.329 0.587,0.769 0.587,1.283 0,0.586 -0.258,1.063 -0.697,1.43 -0.477,0.403 -0.696,0.623 -0.696,0.659 0,0.184 0.22,0.367 0.66,0.514 0.439,0.147 0.99,0.221 1.686,0.221 1.101,0 1.908,-0.331 2.457,-0.99 0.551,-0.697 0.808,-1.687 0.808,-3.043 0,-1.467 -0.331,-2.494 -0.954,-3.191 -0.659,-0.659 -1.687,-1.025 -3.079,-1.025 -0.146,0 -0.368,0.036 -0.624,0.036 -0.257,0.037 -0.403,0.037 -0.477,0.037 -0.184,0 -0.33,-0.037 -0.403,-0.11 -0.109,-0.11 -0.146,-0.221 -0.146,-0.367 0,-0.146 0.073,-0.257 0.146,-0.33 0.12904,-0.091 0.28214,-0.14183 0.44,-0.146 0.036,0 0.146,0.037 0.329,0.037 0.184,0.036 0.33,0.036 0.478,0.036 1.283,0 2.236,-0.293 2.787,-0.917 0.586,-0.586 0.879,-1.576 0.879,-2.97 0,-1.09933 -0.18333,-1.86967 -0.55,-2.311 -0.366,-0.476 -0.99,-0.695 -1.833,-0.695 -0.514,0 -0.917,0.073 -1.246,0.183 -0.331,0.146 -0.478,0.293 -0.478,0.439 0,0.073 0.073,0.148 0.22,0.258 0.624,0.477 0.917,0.953 0.917,1.54 0,0.55 -0.184,0.989 -0.513,1.32 -0.331,0.329 -0.771,0.476 -1.32,0.476 -0.478,0 -0.881,-0.146 -1.21,-0.476 -0.293,-0.331 -0.439,-0.734 -0.439,-1.283 0,-0.95333 0.43933,-1.72367 1.318,-2.311 0.917,-0.623 2.054,-0.917 3.484,-0.917 1.723,0 3.116,0.367 4.18,1.063 1.026,0.697 1.576,1.613 1.576,2.75 0,0.99 -0.402,1.797 -1.21,2.493 -0.806,0.697 -1.942,1.21 -3.446,1.503 z m 11.586,9.167 v -2.311 l 4.658,-3.63 c 1.246,-0.99 2.199,-1.98 2.75,-2.971 0.58469,-0.98732 0.88862,-2.11558 0.879,-3.263 0,-1.283 -0.293,-2.237 -0.916,-2.97 -0.587,-0.697 -1.43,-1.027 -2.53,-1.027 -0.733,0 -1.394,0.184 -2.018,0.624 -0.622,0.403 -0.915,0.807 -0.915,1.136 0,0.111 0.036,0.185 0.109,0.258 0.073,0.037 0.22,0.073 0.366,0.073 h 0.184 c 0.66,0 1.21,0.146 1.576,0.477 0.404,0.329 0.588,0.771 0.588,1.356 0,0.55 -0.184,0.99 -0.515,1.32 -0.329,0.329 -0.77,0.513 -1.32,0.513 -0.63391,0.0103 -1.24394,-0.24154 -1.686,-0.696 -0.403,-0.477 -0.623,-1.101 -0.623,-1.869 0,-1.21 0.586,-2.237 1.687,-3.045 1.137,-0.806 2.604,-1.21 4.363,-1.21 1.87067,0 3.337,0.40333 4.399,1.21 1.063,0.808 1.614,1.871 1.614,3.265 0,1.099 -0.404,2.126 -1.21,3.116 -0.808,1.027 -2.091,2.089 -3.887,3.227 l -4.694,2.896 v 0.184 h 7.444 c 0.439,0 0.769,-0.074 0.953,-0.184 0.184,-0.146 0.293,-0.367 0.33,-0.733 l 0.183,-1.466 h 0.808 l -0.258,5.72 z"
     id="path10"
     sodipodi:nodetypes="cccscsccccccccccccscscccccscccccccccscscscsccccscscscscscscscscscscscccscscscscscscscscscccccccccscscsscscccscscsccccscccccc" /></svg>
