<?xml version="1.0" encoding="UTF-8" standalone="no"?>
<svg
   xml:space="preserve"
   width="275"
   height="329.188"
   version="1.1"
   id="svg5"
   sodipodi:docname="shkumbini.svg"
   inkscape:version="1.4.2 (f4327f4, 2025-05-13)"
   xmlns:inkscape="http://www.inkscape.org/namespaces/inkscape"
   xmlns:sodipodi="http://sodipodi.sourceforge.net/DTD/sodipodi-0.dtd"
   xmlns="http://www.w3.org/2000/svg"
   xmlns:svg="http://www.w3.org/2000/svg"><defs
     id="defs5" /><sodipodi:namedview
     id="namedview5"
     pagecolor="#ffffff"
     bordercolor="#000000"
     borderopacity="0.25"
     inkscape:showpageshadow="2"
     inkscape:pageopacity="0.0"
     inkscape:pagecheckerboard="0"
     inkscape:deskcolor="#d1d1d1"
     inkscape:zoom="2.4514868"
     inkscape:cx="137.67156"
     inkscape:cy="164.59399"
     inkscape:window-width="1920"
     inkscape:window-height="1009"
     inkscape:window-x="-8"
     inkscape:window-y="-8"
     inkscape:window-maximized="1"
     inkscape:current-layer="svg5" /><path
     fill="#FFF"
     fill-rule="evenodd"
     d="M0 0h275v192.266c0 65.023-65.165 121.197-137.477 136.922C65.165 313.463 0 257.289 0 192.266z"
     clip-rule="evenodd"
     id="path1" /><path
     fill="#69CFF6"
     fill-rule="evenodd"
     d="M0 0h275v192.266c0 65.023-65.165 121.197-137.477 136.922C65.165 313.463 0 257.289 0 192.266zm11.438 11.437v180.829c0 5.902.599 11.805 1.798 17.57 10.561 51.697 63.273 89.377 110.914 104.041a163 163 0 0 0 13.374 3.598 174 174 0 0 0 13.373-3.598c47.641-14.664 100.308-52.344 110.915-104.041 1.151-5.766 1.798-11.668 1.798-17.57V11.437z"
     clip-rule="evenodd"
     id="path2" /><path
     fill="#69CFF6"
     fill-rule="evenodd"
     d="M225.839 260.887V236.86h18.262a103.7 103.7 0 0 0 7.519-16.232h-25.78v-5.119h27.44a113 113 0 0 0 1.752-7.057 86 86 0 0 0 1.337-9.176h-30.621a96 96 0 0 0-.415-5.119h31.313c0-.602.047-1.246.047-1.891v-14.344h-34.681c-11.069-36.157-44.826-62.674-84.488-62.674-39.708 0-73.466 26.517-84.534 62.674H18.355v16.235h31.314a95 95 0 0 0-.415 5.119H18.632a76 76 0 0 0 1.384 9.176 72 72 0 0 0 1.752 7.057h27.393v5.119H23.428a96 96 0 0 0 7.517 16.232h18.216v24.027c5.211 5.443 10.93 10.516 16.972 15.174V203.61c0-39.246 32.144-71.391 71.391-71.391 39.199 0 71.391 32.145 71.391 71.391v72.451c5.993-4.659 11.713-9.731 16.924-15.174m-113.588-32.19v73.65a192 192 0 0 0 13.927 4.934 184 184 0 0 0 11.345 3.09c3.782-.92 7.563-1.936 11.345-3.09a199 199 0 0 0 13.881-4.934v-73.65c-7.286 4.658-15.956 7.332-25.226 7.332-9.316 0-17.986-2.674-25.272-7.332m-16.695 66.041v-84.303c-3.274-6.457-5.165-13.744-5.165-21.49 0-7.611 1.798-14.805 4.981-21.123v-5.211c-10.331 10.608-16.741 25.088-16.741 40.999v81.352c5.488 3.55 11.207 6.823 16.925 9.776m83.888-84.302v84.303a195 195 0 0 0 16.926-9.777V203.61c0-15.91-6.411-30.391-16.741-40.999v5.211c3.183 6.318 4.98 13.512 4.98 21.123 0 7.746-1.844 15.034-5.165 21.491"
     clip-rule="evenodd"
     id="path3" /><path
     fill-rule="evenodd"
     d="m124.979 153.571-.691 1.984a73 73 0 0 0-6.272 3.827 97 97 0 0 0-6.318 4.658l-2.167-.092c.46-.507.968-1.014 1.475-1.522 3.873-3.92 8.669-6.964 13.973-8.855m41.275 11.253-2.489-.23c-1.799-1.522-3.781-3.043-5.904-4.565a73 73 0 0 0-7.563-4.612l-.785-2.029c5.536 1.845 10.471 4.981 14.528 9.039a37 37 0 0 1 2.213 2.397m3.321 43.535-1.014-3.643a87 87 0 0 0 2.581-7.332c.784-2.676 1.431-5.352 1.891-8.072l1.983-1.244v.877a37.14 37.14 0 0 1-5.441 19.414m-43.397 16.327a63 63 0 0 0 3.505-2.582 89 89 0 0 0 7.84.322c2.767 0 5.534-.139 8.301-.369l3.044 2.629c-3.598 1.105-7.425 1.752-11.345 1.752-3.966 0-7.748-.647-11.345-1.752m-19.876-20.663c-.461 1.199-.922 2.537-1.153 3.83a37.13 37.13 0 0 1-5.166-18.908c0-.371.046-.693.046-1.063.646.645 1.337 1.107 2.029 1.568a64 64 0 0 0 1.845 8.348c.692 2.306 1.476 4.382 2.399 6.225m39.8-5.027c-5.72 0-11.761.049-17.479.049l-8.578 11.574c2.49 3.412 6.087 6.826 9.592 10.055 2.628.275 5.257.367 7.886.367q4.22 0 8.438-.414c3.413-2.998 6.319-6.273 8.994-9.686zm6.685-17.199c-1.844 5.672-3.412 11.113-5.257 16.832l8.485 11.482a84.6 84.6 0 0 0 11.254-5.855 80 80 0 0 0 4.473-15.404l-6.179-11.16zm-43.257-3.967c-2.491 3.596-4.612 7.193-6.227 10.885q.76 4.77 1.938 8.715c.737 2.443 1.613 4.658 2.583 6.594 2.49 1.707 6.732 4.197 11.114 5.766l8.486-11.438c-1.845-5.672-3.643-11.066-5.488-16.74zm27.209-19.554c-3.459-.876-7.194-1.476-11.483-1.707-2.168 1.199-4.335 2.537-6.503 3.966-2.121 1.476-4.289 3.044-6.364 4.75a60.6 60.6 0 0 0-2.49 11.252l12.683 3.83 14.158-10.238zm1.384 11.853 14.25 10.33 12.729-4.061-2.307-10.836c-1.707-1.43-3.644-2.952-5.719-4.381-2.445-1.707-5.119-3.321-7.795-4.75-3.781.092-7.47.691-11.159 1.799zm-28.132-8.717c7.056-7.01 16.788-11.391 27.533-11.391 10.699 0 20.43 4.381 27.485 11.391 7.012 7.057 11.392 16.786 11.392 27.534 0 10.697-4.38 20.43-11.392 27.486-7.056 7.01-16.786 11.389-27.485 11.389-10.745 0-20.477-4.379-27.533-11.389-7.01-7.057-11.391-16.789-11.391-27.486 0-10.749 4.381-20.477 11.391-27.534"
     clip-rule="evenodd"
     id="path4" /><path
     d="m 118.2,269.65 h 2.029 v 12.773 h 2.629 v -16.74 h -1.799 c -0.369,1.154 -0.83,2.121 -2.859,2.121 z m 16.74,0.047 c 0,-2.676 -1.43,-4.197 -3.966,-4.197 -2.583,0 -4.012,1.521 -4.012,4.197 v 3.088 c 0,2.445 0.968,3.783 2.905,3.783 1.199,0 1.983,-0.508 2.444,-1.477 v 3.09 c 0,1.568 -0.508,2.029 -1.43,2.029 -0.876,0 -1.383,-0.461 -1.383,-1.66 v -0.6 h -2.491 v 0.461 c 0,2.676 1.337,4.197 3.92,4.197 2.721,0 4.012,-1.521 4.012,-4.334 v -8.577 z m -3.966,4.518 c -0.876,0 -1.383,-0.461 -1.383,-1.66 v -2.998 c 0,-1.197 0.507,-1.611 1.383,-1.611 0.83,0 1.338,0.414 1.338,1.611 v 2.998 c 0,1.199 -0.508,1.66 -1.338,1.66 m 12.13,-4.426 c 0,4.842 -5.212,5.672 -5.212,10.561 v 2.074 h 7.609 v -2.396 h -4.98 v -0.371 c 0,-2.719 5.211,-4.701 5.211,-9.959 0,-2.676 -1.336,-4.197 -3.919,-4.197 -2.583,0 -3.921,1.521 -3.921,4.197 v 1.658 h 2.49 v -1.799 c 0,-1.197 0.507,-1.66 1.338,-1.66 0.876,-10e-4 1.384,0.416 1.384,1.892 m 4.842,9.592 h 5.073 v 3.043 h 2.582 v -3.043 h 1.245 v -2.398 h -1.245 v -11.299 h -2.86 l -4.795,11.299 z m 2.398,-2.399 2.676,-6.271 v 6.271 z"
     id="path5"
     sodipodi:nodetypes="cccccccccsssscsssccssscccsssssccsccccssssccscccccccccccccccccc" /></svg>
