<?xml version="1.0" encoding="UTF-8" standalone="no"?>
<svg
   xml:space="preserve"
   width="303.78"
   height="377.953"
   style="shape-rendering:geometricPrecision;text-rendering:geometricPrecision;image-rendering:optimizeQuality;fill-rule:evenodd;clip-rule:evenodd"
   viewBox="0 0 3.164 3.937"
   version="1.1"
   id="svg1"
   sodipodi:docname="skenderbeu.svg"
   inkscape:version="1.4.2 (f4327f4, 2025-05-13)"
   xmlns:inkscape="http://www.inkscape.org/namespaces/inkscape"
   xmlns:sodipodi="http://sodipodi.sourceforge.net/DTD/sodipodi-0.dtd"
   xmlns="http://www.w3.org/2000/svg"
   xmlns:svg="http://www.w3.org/2000/svg"><sodipodi:namedview
     id="namedview1"
     pagecolor="#ffffff"
     bordercolor="#000000"
     borderopacity="0.25"
     inkscape:showpageshadow="2"
     inkscape:pageopacity="0.0"
     inkscape:pagecheckerboard="0"
     inkscape:deskcolor="#d1d1d1"
     inkscape:zoom="2.1351861"
     inkscape:cx="151.97738"
     inkscape:cy="188.9765"
     inkscape:window-width="1920"
     inkscape:window-height="1009"
     inkscape:window-x="-8"
     inkscape:window-y="-8"
     inkscape:window-maximized="1"
     inkscape:current-layer="_310023920" /><defs
     id="defs1"><style
       id="style1">.fil5{fill:#fff}.fil0,.fil2,.fil3{fill:#000;fill-rule:nonzero}.fil0,.fil3{fill:#7f5f1e}.fil3{fill:#fff}</style></defs><g
     id="Layer_x0020_1"><g
       id="_310023920"><path
         id="_310024088"
         d="M1.534 3.913a2.75 2.75 0 0 1-1.056-.93 2.75 2.75 0 0 1-.477-1.591q0-.223.036-.457A4 4 0 0 1 .141.443l.016-.06.06-.016 1.337-.36L1.582 0l.028.007 1.337.36.06.016.016.06q.069.254.104.492.035.234.037.457 0 .45-.117.836a2.823 2.823 0 0 1-.83 1.29q-.262.231-.587.395l-.048.024z"
         class="fil0" /><path
         id="_310023848"
         d="m2.412.335-.744-.2c.101.447.138.832.137 1.29-.001.626-.085 1.313-.223 2.175-.138-.862-.222-1.549-.223-2.175a5.5 5.5 0 0 1 .137-1.29l-.743.2a3.2 3.2 0 0 0-.24 1.23c.014.78.38 1.567 1.07 2.204.689-.637 1.055-1.424 1.068-2.204a3.2 3.2 0 0 0-.24-1.23"
         style="fill:#f30000;fill-rule:nonzero" /><path
         id="_310023752"
         d="M.44.419.245.47a3.6 3.6 0 0 0-.137.921 2.65 2.65 0 0 0 .46 1.53c.226.335.517.612.87.817C.439 2.849.046 1.673.44.419"
         class="fil2" /><path
         id="_310023704"
         d="M2.92.471 2.723.42c.394 1.254.001 2.43-.997 3.32.353-.205.643-.482.87-.817.287-.423.463-.932.46-1.53a3.6 3.6 0 0 0-.138-.92"
         class="fil2" /><path
         id="_310022696"
         d="M2.724.419 2.412.335q.249.63.24 1.23c-.014.78-.38 1.567-1.07 2.204C.892 3.132.527 2.345.513 1.565a3.2 3.2 0 0 1 .24-1.23L.44.419c-.394 1.254-.001 2.43.998 3.32q.07.04.144.078.075-.037.145-.078c.998-.89 1.391-2.066.997-3.32"
         class="fil3" /><path
         id="_310022720"
         d="M.974 2.665c.001.043.01.069.054.09.02.01.043.013.081.014l.096.005.04.002q.03 0 .058.002l.16.005q.049.381.12.817.068-.434.119-.813h.039c.062 0 .123 0 .173.002h.002c.052 0 .077.001.103-.052.013-.026.012-.05.011-.096v-.007a.14.14 0 0 0-.009-.051c.022-.015.043-.037.048-.084a.13.13 0 0 0-.012-.074c-.002-.006-.005-.013-.004-.035a.1.1 0 0 0-.015-.063l-.017-.025a.13.13 0 0 0 .011-.061.15.15 0 0 0-.036-.088.3.3 0 0 1-.035-.051.06.06 0 0 1-.004-.035l.001-.003.01-.012a.3.3 0 0 0 .068-.121 1 1 0 0 0 .087-.036c.068-.035.122-.085.11-.155a1 1 0 0 1 .183-.03c.094-.004.12-.038.119-.089-.001-.029-.01-.045-.024-.056q.022-.007.046-.012a.14.14 0 0 0 .064-.031.08.08 0 0 0 .023-.081.08.08 0 0 0-.047-.055.16.16 0 0 0-.073-.01 2 2 0 0 0-.314.052 1.376 1.376 0 0 0-.324.147q-.02-.003-.052.009a.1.1 0 0 0-.031.018l.002-.177a5.5 5.5 0 0 0-.137-1.29L1.582.11l-.086.024c-.1.447-.138.832-.137 1.29q0 .208.013.426l-.114.063-.006.004c-.04.02-.1.05-.1.14q0 .016.002.028l-.016.005a.2.2 0 0 0-.076.053.15.15 0 0 0-.032.057.12.12 0 0 0-.041.076.1.1 0 0 0 .01.065l-.005.024a.13.13 0 0 0 .008.059l-.005.069v.003a.1.1 0 0 0-.01.047c-.02.038-.016.085-.014.113z"
         class="fil3" /><path
         id="_310022528"
         d="M1.416 3.281h-.03a.04.04 0 0 1-.033-.017.05.05 0 0 1-.007-.026v-.132l-.006-.003q-.014-.01-.014-.03v-.02c0-.027 0-.03.026-.035v-.002c.006-.028.014-.028.036-.028h.026q.029 0 .034.01l.002-.001a.1.1 0 0 1 .029-.008.1.1 0 0 1 .046.003.1.1 0 0 1 .03.013l.003.003.004-.003a.1.1 0 0 1 .062-.017.1.1 0 0 1 .064.02l.02-.011a.1.1 0 0 1 .028-.008.1.1 0 0 1 .047.003.1.1 0 0 1 .03.013.06.06 0 0 1 .026.054v.149a.1.1 0 0 1-.006.031.1.1 0 0 1-.02.025.1.1 0 0 1-.032.015.13.13 0 0 1-.062-.001.1.1 0 0 1-.032-.017l-.005.005a.1.1 0 0 1-.028.012.1.1 0 0 1-.061 0 .1.1 0 0 1-.034-.016.1.1 0 0 1-.032.016.13.13 0 0 1-.084-.007.04.04 0 0 1-.027.01"
         class="fil0" /><path
         id="_310024784"
         d="m1.794 3.028-.019-.008a.1.1 0 0 0-.046 0l-.019.008a.04.04 0 0 0-.015.03v.055q0 .017.012.027.007.005.015.007l.018.003q.015 0 .02-.006v.069q0 .007-.008.007t-.008-.007v-.047c0-.01 0-.012-.012-.012h-.024c-.011 0-.013 0-.013.011v.043q0 .022.014.034.015.01.043.01.029 0 .043-.01.015-.013.015-.034v-.149a.04.04 0 0 0-.016-.031m-.033.084q0 .007-.009.007t-.008-.007v-.056q0-.008.008-.008t.009.008z"
         class="fil3" /><path
         id="_310024880"
         d="M1.414 3.017H1.39q-.008-.001-.009.005a.03.03 0 0 1-.016.021l-.005.002c-.005.002-.005.002-.005.008v.02q0 .009.008.007h.006q.008 0 .006.009v.149q-.001.014.01.014h.031q.01 0 .009-.013v-.207c0-.01 0-.015-.01-.015"
         class="fil3" /><path
         id="_310024976"
         d="M1.624 3.017q-.06 0-.06.045v.15q0 .019.017.03.016.01.043.01a.1.1 0 0 0 .041-.01.04.04 0 0 0 .017-.031v-.15q0-.044-.058-.044m.008.197q0 .006-.008.006-.01 0-.01-.006v-.158q0-.007.01-.007.008 0 .008.007z"
         class="fil3" /><path
         id="_310024112"
         d="m1.536 3.028-.018-.008a.1.1 0 0 0-.047 0l-.018.008a.04.04 0 0 0-.016.03v.055q0 .017.013.027.006.005.014.007l.019.003q.014 0 .02-.006v.069q0 .007-.008.007t-.009-.007v-.047c0-.01 0-.012-.011-.012H1.45c-.01 0-.013 0-.013.012v.042q0 .022.014.034.015.01.043.01.03 0 .044-.01.015-.013.014-.034v-.149a.04.04 0 0 0-.016-.031m-.033.084q0 .007-.008.007t-.009-.007v-.056q0-.008.009-.008t.008.008z"
         class="fil3" /><path
         id="_310025096"
         d="M1.052 2.663c0-.017-.008-.075.01-.09.006-.005.002-.013.004-.034.002-.013.006-.018.009-.031a1 1 0 0 0 .005-.085c0-.027-.009-.023-.007-.053 0-.01.014-.036.005-.048-.02-.023-.012-.049.004-.062.014-.011.022-.015.022-.024 0-.035.038-.061.064-.072.02-.008.022.008.059-.033.03-.033.003-.025.003-.072 0-.049.044-.064.065-.076.075-.04.146-.083.225-.123.04-.02.046-.066.094-.098.028-.019.036-.02.082-.024.054-.004.084-.022.134-.05.017-.008.016-.025.034-.032.02-.008.035.003.05-.006.109-.071.244-.128.315-.146.07-.018.227-.043.3-.05.045-.003.056.012.01.022-.089.021-.17.052-.253.09-.075.035-.07.039-.032.035.017-.001.041-.006.068-.006.033 0 .093-.001.12.017.013.01.035.017-.028.02-.067.001-.2.027-.252.048-.064.025-.03.02-.014.051.038.073-.122.12-.168.136-.012.004-.022.012-.02.04 0 .036-.043.082-.064.11a.1.1 0 0 0-.019.06c0 .04.015.072.058.125.024.029.027.054.002.088-.01.015-.01.032.014.053q.024.023.024.043c-.003.07.02.065.015.105-.003.037-.044.032-.047.056-.007.054-.033.03-.04.044-.01.021.048-.001.049.045.002.076.003.075-.037.074-.108-.002-.28-.001-.378-.004-.094-.002-.193-.005-.289-.009l-.136-.006c-.054-.002-.059-.005-.06-.028"
         class="fil0" /><path
         id="_310025264"
         d="m1.831 2.363-.048.182.02.005.048-.182z"
         class="fil3" /><path
         id="_310025360"
         d="M1.12 2.359c.018 0 .01-.012.02-.031q.011-.031.019-.06l.004-.014q-.001-.006-.01-.007c-.009 0-.017.007-.007.01.005.002.003.003-.004.025-.014.046-.025.059-.032.06q-.005.002-.005.01 0 .007.015.007"
         class="fil3" /><path
         id="_310025456"
         d="M2.255 1.533c-.048.014-.145.05-.161.058-.07.034-.119.053-.168.085-.014.01-.035.006-.05.014-.011.006-.015.025-.036.034-.008.004-.078.02-.132.065a.08.08 0 0 0-.025.043c-.003.013-.005.033-.032.018-.02-.012-.1.017-.037.02.056.003.053-.006.07-.006.025 0 .012.023.018.034q.01.013.02.02c.012.008.013.016-.02.012l-.059-.003c-.054 0-.063-.032-.096-.03-.032.001-.02.021-.087.046-.068.026-.108.053-.163.089-.022.013-.02.018-.02.038q.003.014.02.013c.025 0 .034-.014.008-.018-.02-.003-.032-.033.022-.033.028 0 .028.005.059-.004.049-.014.134-.04.19-.04.108 0 .057.016-.014.028a1 1 0 0 0-.129.03c-.045.014 0 .02.052.022a.6.6 0 0 1 .376.158c.021.02.059.021.033-.018-.032-.049-.083-.133-.035-.219a1 1 0 0 1 .04-.06c.013-.017.01-.03-.01-.03a.1.1 0 0 0-.051.008q-.022.01-.024.003-.006-.012.032-.025.057-.02.135-.056a.5.5 0 0 0 .118-.065c.02-.023-.006-.054-.095-.02-.058.022-.138.08-.186.107q-.018.012-.023.007c-.004-.005 0-.009.02-.024.056-.043.157-.125.214-.163.062-.041.169-.103.244-.136.024-.01.008-.01-.018-.002"
         class="fil3" /><path
         id="_310025552"
         d="m1.9 2.383-.02-.005-.048.183.02.005z"
         class="fil3" /><path
         id="_310025648"
         d="M1.937 2.415c-.005-.003-.012-.003-.013.001l-.005.014c-.005.02-.014.042-.017.064s-.017.028-.002.038q.012.009.017.002c.003-.003.006-.01.002-.012-.006-.004-.007-.021.007-.07.006-.023.005-.025.01-.023.01.002.008-.009 0-.014"
         class="fil3" /><path
         id="_310025744"
         d="M1.893 2.64c-.056.006-.247.009-.314.01a2 2 0 0 1-.255-.007 2 2 0 0 1-.205-.037c-.044-.011-.038.003-.036.017.004.036-.002.034.031.036.15.01.292.016.442.016l.351-.001c.006 0 .008 0 .009-.021 0-.018-.002-.015-.023-.013"
         class="fil3" /><path
         id="_310025840"
         d="M1.215 2.26c-.016.012-.026.038-.02.058-.039.025-.022.09.031.088.021.054.08.043.095 0 .045 0 .074-.053.029-.09.018-.05-.038-.086-.074-.056-.017-.013-.044-.01-.06 0m.028.038c-.008.006-.014.02-.01.03-.02.012-.012.045.015.044.01.028.041.022.048 0 .023 0 .038-.027.015-.045.01-.026-.02-.044-.037-.029-.009-.006-.023-.005-.031 0m.004.007q-.01.008-.007.02l.002.006-.005.003c-.014.009-.007.031.011.03h.005l.002.005c.008.02.028.018.034.001l.002-.005h.005c.019 0 .026-.02.01-.032l-.004-.004.002-.005c.006-.017-.013-.03-.025-.02l-.005.004-.005-.004c-.006-.004-.016-.004-.022 0m.023-.036c-.013-.01-.035-.008-.048 0-.013.01-.02.03-.016.046l.003.008-.007.005c-.031.02-.016.067.024.066h.008l.003.008c.006.016.018.03.037.03q.026-.004.036-.03l.003-.007h.008c.016 0 .032-.01.038-.025.007-.018-.003-.034-.016-.045l-.007-.005.003-.008c.014-.037-.028-.067-.055-.043l-.007.005z"
         class="fil5" /><path
         id="_310026032"
         d="m1.392 2.467.02.005.048-.183-.02-.005z"
         class="fil3" /><path
         id="_310026128"
         d="m1.558 2.32-.02-.005-.048.183.02.005z"
         class="fil3" /><path
         id="_310026224"
         d="m1.441 2.482.02.005.048-.182-.02-.005z"
         class="fil3" /><path
         id="_273828720"
         d="M1.11 2.49c0 .045.033.067.067.08.087.035.214.034.276.037.091.005.245-.002.308-.002.015 0 .082-.004.063-.01-.023-.007-.124-.013-.187-.024a3 3 0 0 1-.493-.114c-.036-.01-.034-.01-.034.033"
         class="fil3" /><path
         id="_273828768"
         d="M1.264 2.2c.183.036.377.09.563.122.097.018.107.013.035-.044a.87.87 0 0 0-.467-.174c-.056 0-.112.003-.152.046-.025.027-.04.038.021.05"
         class="fil3" /><path
         id="_273828288"
         d="M1.614 2.352c-.016.012-.027.037-.02.057-.04.025-.023.09.03.088.021.055.08.043.095 0 .045 0 .075-.053.029-.09.018-.05-.038-.086-.074-.056-.017-.013-.044-.01-.06 0m.027.038c-.008.006-.013.019-.01.029-.02.012-.011.045.016.044.01.028.04.022.048 0 .022 0 .037-.026.014-.045.01-.026-.019-.044-.037-.029-.009-.006-.023-.005-.031 0m.004.006c-.005.004-.01.014-.007.02l.002.006-.005.003c-.014.009-.007.031.011.03h.006l.002.006c.007.018.028.017.033 0l.002-.005h.005c.019 0 .026-.02.01-.032L1.7 2.42l.002-.005c.006-.017-.012-.03-.025-.02l-.005.004-.005-.004c-.005-.004-.016-.004-.022 0m.023-.036c-.013-.01-.035-.008-.048 0-.012.01-.02.03-.015.046l.002.008-.007.005c-.03.02-.016.068.024.066h.008l.003.008c.006.016.019.03.037.03q.027-.004.036-.03l.003-.007h.008c.016 0 .032-.01.038-.025.007-.018-.002-.034-.016-.045l-.006-.005.002-.007c.014-.038-.027-.067-.055-.044l-.007.005z"
         class="fil5" /></g></g></svg>
