<?xml version="1.0" encoding="UTF-8" standalone="no"?>
<svg
   xml:space="preserve"
   width="275"
   height="340.283"
   viewBox="4.516 5.242 275 340.283"
   version="1.1"
   id="svg2"
   sodipodi:docname="teuta.svg"
   inkscape:version="1.4.2 (f4327f4, 2025-05-13)"
   xmlns:inkscape="http://www.inkscape.org/namespaces/inkscape"
   xmlns:sodipodi="http://sodipodi.sourceforge.net/DTD/sodipodi-0.dtd"
   xmlns="http://www.w3.org/2000/svg"
   xmlns:svg="http://www.w3.org/2000/svg"><defs
     id="defs2" /><sodipodi:namedview
     id="namedview2"
     pagecolor="#ffffff"
     bordercolor="#000000"
     borderopacity="0.25"
     inkscape:showpageshadow="2"
     inkscape:pageopacity="0.0"
     inkscape:pagecheckerboard="0"
     inkscape:deskcolor="#d1d1d1"
     inkscape:zoom="2.3715555"
     inkscape:cx="137.67335"
     inkscape:cy="170.14149"
     inkscape:window-width="1920"
     inkscape:window-height="1009"
     inkscape:window-x="-8"
     inkscape:window-y="-8"
     inkscape:window-maximized="1"
     inkscape:current-layer="g2" /><g
     fill-rule="evenodd"
     clip-rule="evenodd"
     id="g2"><path
       fill="#FFF"
       d="M142.015 345.525c-6.627-4.647-14.877-8.525-24.117-12.018-9.763-3.657-20.68-6.957-31.982-10.313a269 269 0 0 0-5.28-1.458C55.639 314.944.364 299.957 4.764 222.325c.247-4.18.687-9.075 1.375-14.107.578-4.345 1.32-8.828 2.283-13.063 1.347-6.105 2.887-12.128 4.51-18.535 5.527-21.67 12.044-47.272 13.777-81.509L4.791 56.145 30.943 5.243h222.145l26.152 50.902-21.918 38.967c1.732 34.237 8.25 59.839 13.778 81.509 1.622 6.407 3.162 12.43 4.51 18.535.962 4.234 1.705 8.718 2.31 13.063.66 5.032 1.1 9.928 1.348 14.107 4.4 77.632-50.875 92.619-75.872 99.411a269 269 0 0 0-5.28 1.458c-11.302 3.355-22.22 6.655-31.982 10.313-9.241 3.492-17.491 7.37-24.119 12.017"
       id="path1" /><path
       fill="#1f3986"
       d="m 63.173,250.485 -21.367,21.478 c 4.873467,6.73473 10.390441,12.97946 16.473,18.646 0.577,0.55 0.742,1.567 0.11,2.227 -0.55,0.551 -1.458,0.716 -2.283,-0.027 -17.792,-15.866 -30.607,-35.859 -37.95,-58.547 6.573,1.815 13.145,3.63 19.717,5.418 2.035,-8.772 6.408,-23.43 9.488,-33.413 5.775,18.726 8.25,28.737 15.812,44.218 m 56.65,-92.288 c -1.32,1.072 -4.813,5.444 -5.968,8.69 -1.925,0.083 -7.26,-0.963 -6.077,5.747 0.083,0.44 0.138,0.99 0.22,1.54 3.052,-0.99 3.245,-2.915 3.822,-5.5 0.303,1.732 1.238,2.943 2.475,3.988 0.77,0.66 1.76,0.962 3.217,0.962 4.318,0.027 5.225,-1.155 6.188,-4.647 1.595,4.317 2.447,5.06 7.865,5.582 2.063,0.193 3.382,0.275 4.427,-0.083 1.43,-0.44 2.447,-0.962 3.465,-2.97 1.43,3.878 5.199,4.511 8.664,5.143 4.867,0.853 6.792,0.963 9.322,-2.31 1.127,3.851 2.227,4.758 7.177,5.335 2.668,0.329 6.215,0.715 7.563,-2.228 -0.165,-0.138 -0.357,-0.247 -0.522,-0.385 0.908,-17.215 -8.718,-23.402 -10.229,-24.75 0.494,-4.62 0.082,-8.938 -0.771,-12.292 3.74,-1.897 7.452,-3.465 11.165,-3.988 9.158,-1.347 17.38,0.605 20.652,1.706 -2.172,-4.978 -10.945,-11.633 -17.242,-13.64 -11.989,-3.822 -26.289,2.337 -35.448,9.542 -7.205,5.692 -9.542,3.493 -17.627,13.64 -1.237,1.595 -2.063,2.833 -2.942,4.84 -1.459,3.355 -0.717,5.225 0.604,6.078 m -11.633,16.94 c 0.11,0.604 0.303,1.154 0.577,1.566 0.385,0.578 1.073,0.743 1.815,0.825 -1.127,5.831 -2.393,12.733 -4.098,18.315 -0.853,2.86 -1.733,5.721 -2.42,8.689 -1.045,4.538 1.018,5.556 4.482,6.242 0.055,1.65 0.11,2.778 0.165,3.851 -1.76,1.952 -0.578,3.245 0.055,4.07 -0.99,2.97 0.853,4.455 1.898,4.538 0.082,0.109 0.137,0.439 0.44,1.237 0.385,0.962 0.605,1.704 0.99,2.584 0.633,1.349 1.815,3.383 2.667,4.428 1.953,2.447 4.813,4.62 8.608,5.445 5.17,1.127 9.542,-0.303 12.594,-1.678 3.19,5.995 7.729,16.308 11.716,20.9 -0.55,0.412 -1.266,0.935 -1.814,1.731 -0.605,0.936 -1.018,2.229 0.027,2.668 1.018,0.439 1.704,-0.742 1.925,-1.815 0.22,-0.88 0.138,-1.705 0.055,-2.364 0.357,0.385 0.688,0.715 1.018,0.99 2.118,1.814 6.242,2.64 10.064,2.832 -0.522,0.633 -1.21,1.43 -1.649,2.503 -0.468,1.209 -0.578,2.777 0.688,3.024 1.293,0.247 1.76,-1.265 1.76,-2.585 0,-1.155 -0.385,-2.173 -0.632,-2.914 2.31,0.109 4.51,0.027 6.05,-0.221 -0.303,0.742 -0.771,1.732 -0.853,2.888 -0.11,1.292 0.22,2.859 1.539,2.723 1.321,-0.138 1.321,-1.733 0.936,-2.998 -0.33,-1.127 -0.99,-1.979 -1.457,-2.641 1.925,-0.302 3.685,-0.824 5.472,-1.677 -0.109,0.825 -0.302,1.897 -0.082,3.08 0.274,1.32 1.018,2.749 2.255,2.255 1.265,-0.495 0.825,-2.063 0.109,-3.189 -0.632,-1.018 -1.512,-1.678 -2.172,-2.2 2.668,-1.266 5.362,-3.218 8.636,-5.968 0.164,0.771 0.412,1.705 0.961,2.585 0.688,1.154 1.898,2.228 2.888,1.32 0.99,-0.907 0.056,-2.2 -1.018,-3.025 -0.825,-0.605 -1.731,-0.935 -2.475,-1.182 1.706,-1.623 2.558,-2.86 2.916,-4.098 0.302,0.604 0.714,1.319 1.347,1.951 0.88,0.881 2.228,1.568 2.915,0.523 0.687,-1.045 -0.468,-2.008 -1.623,-2.502 -0.88,-0.386 -1.786,-0.469 -2.529,-0.523 0.247,-1.347 0,-2.777 -0.192,-4.758 3.657,-1.21 9.075,-4.399 11.33,-10.972 2.832,-8.332 -3.493,-15.813 -4.593,-16.913 0,-1.154 2.31,-13.2 -14.685,-23.677 -1.375,-0.854 -2.42,-1.485 -2.806,-1.926 -0.138,-0.521 -0.138,-1.072 -0.138,-1.566 0.963,-0.358 1.87,-0.881 2.531,-1.98 -1.788,-1.458 -2.035,-4.758 -2.229,-6.82 -0.824,0.716 -1.567,1.403 -2.502,1.732 -1.183,0.385 -2.668,0.44 -5.143,0.138 -5.197,-0.604 -6.105,-2.117 -7.26,-5.005 -2.146,1.98 -3.74,2.942 -9.268,1.952 -2.586,-0.439 -4.263,-0.962 -5.61,-1.759 -1.184,-0.688 -2.063,-1.898 -2.971,-3.108 -0.605,0.99 -1.843,2.254 -3.135,2.695 -1.21,0.385 -2.585,0.303 -4.813,0.11 -5.308,-0.522 -5.995,-1.595 -7.7,-4.895 -1.1,2.833 -2.255,3.987 -6.242,3.96 -1.677,-0.027 -2.86,-0.357 -3.822,-1.183 -0.688,-0.605 -1.21,-1.567 -1.733,-2.722 -0.575,2.093 -1.07,3.689 -3.765,4.514 m 66.633,9.487 c 0.12255,-0.3698 0.22339,-0.74644 0.302,-1.128 0.605,-2.832 -0.741,-4.454 -2.667,-5.857 0.165,2.338 0.468,5.637 2.365,6.985 m -58.245,4.895 c -0.935,-1.1 -1.595,-2.585 -1.787,-3.987 1.348,2.475 3.245,4.482 5.692,5.995 -2.063,0.742 -3.712,1.925 -4.923,3.603 -0.027,-0.633 0.275,-1.54 0.468,-2.091 -0.111,-1.43 -0.083,-2.695 0.55,-3.52 m -2.448,-4.648 c 4.62,-0.274 9.047,0.138 13.31,1.237 -3.52,-1.787 -7.975,-3.327 -13.283,-3.162 -0.688,0.027 -1.815,0.193 -1.76,1.072 0.056,0.88 1.101,0.908 1.733,0.853 m 61.326,71.005 c 0.082,0.825 0.109,2.007 0.604,3.189 0.522,1.211 1.567,2.448 2.668,1.705 1.127,-0.742 0.356,-2.172 -0.578,-3.135 -0.879,-0.906 -1.953,-1.374 -2.694,-1.759 m -22.99,3.933 c 0.055,0.77 0.192,1.87 -0.083,3.052 -0.302,1.21 -1.1,2.531 -2.228,2.008 -1.154,-0.55 -0.688,-1.979 0.056,-3.025 0.687,-0.963 1.623,-1.568 2.255,-2.035 m -15.043,-117.92 c 0.797,0 1.458,0.605 1.458,1.347 0,0.743 -0.66,1.32 -1.458,1.32 -0.798,0 -1.458,-0.578 -1.458,-1.32 0,-0.742 0.66,-1.347 1.458,-1.347 m -24.887,100.98 c -4.73,1.897 -5.583,5.802 -2.42,8.194 2.255,1.705 4.675,1.101 5.692,-0.633 0.88,-1.484 1.21,-3.437 1.925,-4.262 1.65,4.95 9.927,11.741 18.287,11.852 -5.857,-1.649 -10.78,-4.069 -13.502,-10.56 5.088,1.787 10.093,2.86 15.4,1.65 -15.455,-2.063 -20.79,-5.803 -26.647,-10.12 0.247,1.184 0.962,2.724 1.265,3.879 m 10.917,-86.625 c 0.55,-1.127 1.403,-2.613 3.355,-3.603 3.493,-1.815 10.478,-0.522 15.153,-3.328 2.613,-1.54 2.145,-3.438 3.493,-5.775 13.447,-3.465 18.479,-8.003 25.96,-8.993 4.867,-0.66 10.01,-0.44 16.885,0.605 -3.686,-4.125 -11.247,-6.958 -19.195,-6.243 -7.178,0.66 -11.026,2.667 -17.214,5.472 -1.072,0.495 -1.65,0.303 -1.815,-0.027 -0.138,-0.33 0,-0.742 0.99,-1.183 0.385,-0.165 0.935,-0.413 1.704,-0.77 1.211,-0.605 2.146,-1.045 3.438,-1.54 4.95,-1.952 8.826,-2.97 12.622,-3.217 3.987,-0.275 9.763,-0.027 15.07,2.777 -3.466,-2.915 -8.855,-5.445 -15.208,-5.83 -2.255,-0.11 -4.647,0.055 -7.205,0.55 -8.497,1.677 -15.537,5.83 -21.34,10.285 -5.72,4.428 -7.123,3.163 -12.54,8.387 -2.695,2.585 -6.408,6.573 -7.288,10.148 -0.55,2.2 0.137,2.915 1.595,3.355 1.182,0.388 0.962,0.058 1.54,-1.07 m -0.853,2.668 c -0.577,-0.11 -0.852,-0.11 -1.237,0.11 -1.127,0.632 -3.823,3.987 -5.803,8.085 9.268,0.522 18.755,2.393 27.967,3.63 8.416,1.182 18.838,2.448 26.346,5.362 0.082,-16.307 -8.415,-26.18 -24.695,-27.83 -1.594,3.3 -6.6,4.345 -10.917,4.729 -4.813,0.44 -8.333,0.522 -9.763,4.51 -0.413,1.128 -0.935,1.623 -1.898,1.404 m 28.436,76.834 c 2.007,1.457 4.95,2.2 6.847,0.165 1.815,-1.98 1.897,-4.95 2.229,-8.112 l -4.621,3.933 c -1.43,1.181 -3.52,2.666 -4.455,4.014 m -10.066,-55.494 -3.74,-0.551 c -1.403,6.38 -0.083,8.195 2.255,12.897 8.14,16.473 1.567,14.218 -2.365,21.45 -1.018,1.925 -1.183,4.399 -0.192,6.654 0.632,1.402 2.255,4.152 3.933,3.851 3.218,-0.605 6.985,-4.923 8.086,-7.535 4.124,-9.955 -2.531,-21.313 -6.546,-30.442 -1.403,-1.76 -1.789,-3.327 -1.431,-6.324 m 7.893,54.834 c 0.853,-0.522 9.157,-7.563 9.817,-8.662 4.95,-7.92 0.495,-24.311 -6.243,-31.543 -1.539,-1.622 -5.774,-5.665 -7.616,-6.765 2.529,7.232 10.147,17.737 6.022,28.682 -0.578,1.514 -1.266,2.504 -1.953,3.466 -1.979,2.859 -4.593,4.647 -8.306,5.939 -0.109,6.023 2.559,6.793 8.279,8.883 m -6.297,-54.56 c -0.057,1.705 0.027,2.97 0.797,4.015 1.458,2.008 4.482,3.438 8.442,7.425 3.383,3.41 5.912,6.215 8.002,12.266 5.115,14.795 0.908,16.335 2.75,26.345 0.412,2.228 3.851,5.308 5.5,2.722 1.788,-2.887 1.155,-14.188 1.1,-18.149 -0.164,-8.607 -3.932,-15.207 -8.909,-21.313 -3.96,-4.84 -7.067,-5.83 -9.681,-11.825 -1.676,-0.359 -5.664,-1.046 -8.001,-1.486 m 36.052,26.537 c 3.438,1.073 4.345,5.226 4.702,8.113 0.165,1.539 0.907,1.319 1.567,1.127 0.8097,-0.23896 1.56604,-0.63105 2.228,-1.155 0.936,-0.797 0.743,-1.513 0.771,-2.723 0,-4.481 -2.723,-10.34 -6.436,-13.914 -3.904,-3.74 -10.367,-7.673 -10.917,-8.938 -0.495,-1.183 -0.22,-1.926 -0.247,-2.559 -2.778,-0.797 -3.521,-1.265 -17.243,-4.454 1.045,4.51 13.034,12.925 17.436,24.475 2.364,6.16 0.137,15.345 5.362,15.4 6.736,0.056 3.685,-12.016 2.777,-15.372 m -64.9,2.366 c -1.018,1.237 -2.75,1.265 -3.657,1.513 l 0.083,3.739 c 1.87,0.688 5.032,2.366 6.215,3.19 -1.623,2.42 -2.667,3.217 -4.098,4.62 0.11,2.447 2.502,6.27 3.685,7.81 6.627,8.498 17.792,5.336 23.76,1.101 -0.578,-1.513 -0.99,-3.383 -0.771,-5.309 -1.045,-1.154 -3.767,-2.31 -4.29,-7.396 -0.661,-6.545 3.959,-8.141 6.215,-11.88 2.365,-3.987 -1.045,-9.57 -2.778,-13.228 -4.51,-9.57 -2.832,-11.495 -2.502,-14.08 -8.002,-1.43 -14.987,-1.375 -23.183,-1.897 -1.732,6.38 -2.942,13.447 -4.592,19.58 -0.495,1.925 -2.558,8.029 -2.255,9.763 0.275,1.512 2.282,2.117 3.905,2.282 1.787,0.165 2.558,-0.605 3.3,-0.936 1.018,-0.44 1.925,-0.082 0.963,1.128 m 54.45,28.077 c 3.438,2.558 6.408,3.575 11.22,3.685 4.867,0.11 14.74,-6.242 13.558,-15.481 -0.55,-4.181 -2.997,-7.535 -5.087,-9.846 -5.391,4.592 -17.463,16.637 -19.691,21.642 m -30.443,-3.08 c 2.723,5.885 9.46,19.718 12.513,21.643 1.76,1.101 3.987,1.732 5.968,2.118 6.27,1.154 12.018,0.22 16.747,-2.971 2.31,-1.567 4.015,-2.447 6.077,-4.538 2.42,-2.419 2.915,-3.849 2.09,-7.809 -9.651,0.356 -11.907,-2.833 -13.529,-3.74 -0.357,-0.221 -0.716,-0.33 -1.128,-0.303 -1.732,0.082 -3.905,0.604 -5.912,0.715 -6.49,0.412 -6.71,-0.853 -10.67,-2.338 -1.596,-0.604 -6.518,-1.677 -9.213,-4.482 -0.77,0.577 -1.43,0.935 -2.943,1.705 m 4.29,-127.159 c 24.118,0 45.953,9.79 61.765,25.603 15.785,15.785 25.575,37.62 25.575,61.737 0,24.117 -9.79,45.951 -25.575,61.765 -15.813,15.813 -37.647,25.575 -61.765,25.575 -24.117,0 -45.952,-9.763 -61.765,-25.575 -15.785,-15.813 -25.575,-37.647 -25.575,-61.765 0,-24.118 9.79,-45.953 25.575,-61.737 15.813,-15.814 37.648,-25.603 61.765,-25.603 m 59.318,28.022 c -15.18,-15.18 -36.135,-24.585 -59.318,-24.585 -23.182,0 -44.137,9.405 -59.317,24.585 -15.207,15.18 -24.584,36.162 -24.584,59.317 0,23.182 9.377,44.165 24.584,59.345 15.18,15.18 36.135,24.557 59.317,24.557 23.182,0 44.138,-9.377 59.318,-24.557 15.208,-15.18 24.585,-36.163 24.585,-59.345 0,-23.155 -9.377,-44.137 -24.585,-59.317 M 32.951,8.569 8.558,56.062 30.063,94.314 30.036,94.782 c -1.705,34.87 -8.277,60.774 -13.86,82.665 -1.677,6.545 -3.272,12.76 -4.538,18.425 -0.908,4.125 -1.65,8.497 -2.227,12.787 -0.661,4.95 -1.1,9.735 -1.32,13.86 -4.263,74.938 49.225,89.457 73.397,96.002 2.008,0.55 3.795,1.018 5.363,1.485 11.33,3.382 22.302,6.682 32.202,10.422 8.635,3.245 16.445,6.848 22.962,11.11 6.518,-4.263 14.328,-7.865 22.962,-11.11 9.9,-3.74 20.873,-7.04 32.203,-10.422 1.567,-0.468 3.354,-0.936 5.362,-1.485 24.172,-6.545 77.66,-21.064 73.396,-96.002 -0.22,-4.125 -0.659,-8.91 -1.319,-13.86 -0.577,-4.29 -1.32,-8.662 -2.228,-12.787 -1.265,-5.665 -2.86,-11.88 -4.538,-18.425 -5.582,-21.89 -12.154,-47.795 -13.859,-82.665 L 253.967,94.314 275.472,56.062 251.08,8.569 Z m 109.064,336.956 c -6.627,-4.647 -14.877,-8.525 -24.117,-12.018 -9.763,-3.657 -20.68,-6.957 -31.982,-10.313 -1.755006,-0.50391 -3.515097,-0.98993 -5.28,-1.458 -24.997,-6.792 -80.272,-21.779 -75.872,-99.411 0.247,-4.18 0.687,-9.075 1.375,-14.107 0.578,-4.345 1.32,-8.828 2.283,-13.063 1.347,-6.105 2.887,-12.128 4.51,-18.535 5.527,-21.67 12.044,-47.272 13.777,-81.509 L 4.791,56.145 30.943,5.243 h 222.145 l 26.152,50.902 -21.918,38.967 c 1.732,34.237 8.25,59.839 13.778,81.509 1.622,6.407 3.162,12.43 4.51,18.535 0.962,4.234 1.705,8.718 2.31,13.063 0.66,5.032 1.1,9.928 1.348,14.107 4.4,77.632 -50.875,92.619 -75.872,99.411 -1.7649,0.46807 -3.52499,0.95409 -5.28,1.458 -11.302,3.355 -22.22,6.655 -31.982,10.313 -9.241,3.492 -17.491,7.37 -24.119,12.017 M 36.608,14.564 l -21.23,41.387 20.763,36.932 -0.11,2.201 c -0.743,15.455 -2.558,30.717 -5.363,45.924 h 36.547 c 16.693,-23.265 43.973,-38.417 74.8,-38.417 30.828,0 58.108,15.153 74.8,38.417 h 36.547 C 250.557,125.801 248.743,110.538 248,95.084 l -0.11,-2.201 20.763,-36.932 -21.229,-41.387 h -38.857 v 19.8 h -39.601 v -19.8 h -53.899 v 19.8 h -39.6 v -19.8 z m 67.87,54.918 7.37,21.752 c 0.55,1.622 0.99,2.667 1.265,3.052 0.302,0.413 0.742,0.688 1.292,0.825 0.55,0.11 1.348,0.027 2.337,-0.33 l 0.633,-0.192 0.22,0.688 -13.998,4.729 -0.22,-0.687 0.688,-0.248 c 1.155,-0.384 1.897,-0.77 2.31,-1.209 0.385,-0.413 0.605,-0.88 0.605,-1.403 0.0267,-0.522667 -0.24833,-1.622667 -0.825,-3.3 L 101.48,79.354 c -0.413,-1.237 -0.743,-1.98 -0.963,-2.255 -0.23811,-0.286615 -0.568797,-0.481135 -0.935,-0.55 -0.384,-0.138 -0.797,-0.11 -1.209,0.028 -0.688,0.247 -1.403,0.715 -2.228,1.457 l -0.578,-0.55 8.25,-7.782 z m 17.682,25.52 -0.083,-0.605 c 2.2,-0.797 4.042,-1.814 5.473,-3.025 1.458,-1.21 2.558,-2.612 3.3,-4.235 0.715,-1.623 1.127,-3.41 1.265,-5.39 -0.79733,0.522 -1.485,0.907 -2.063,1.155 -0.58663,0.254773 -1.20766,0.42157 -1.843,0.495 -2.09,0.247 -3.96,-0.275 -5.527,-1.595 -1.623,-1.348 -2.585,-3.328 -2.915,-5.968 -0.22,-1.814 -0.055,-3.547 0.495,-5.17 0.578,-1.622 1.513,-2.915 2.805,-3.933 1.292,-1.018 2.695,-1.622 4.207,-1.814 1.623,-0.22 3.218,0.055 4.786,0.797 1.567,0.743 2.887,1.953 3.959,3.603 1.1,1.65 1.788,3.602 2.063,5.885 0.385,2.916 0.027,5.802 -1.018,8.663 -1.072,2.86 -2.86,5.28 -5.445,7.26 -2.556,1.952 -5.691,3.244 -9.459,3.877 m 10.038,-15.015 c -0.0673,-1.350481 -0.17733,-2.698491 -0.33,-4.042 -0.33,-2.502 -0.908,-4.785 -1.732,-6.875 -0.495,-1.127 -1.072,-1.953 -1.788,-2.448 -0.385,-0.247 -0.825,-0.33 -1.375,-0.274 -0.688,0.082 -1.183,0.44 -1.485,1.1 -0.413,0.853 -0.495,2.448 -0.193,4.703 0.468,3.795 1.238,6.352 2.338,7.672 0.687,0.853 1.54,1.237 2.558,1.1 0.522,-0.056 1.209,-0.386 2.007,-0.936 m 27.115,13.75 -16.445,-1.265 0.027,-0.44 c 5.527,-5.637 8.91,-9.433 10.147,-11.44 1.21,-1.98 1.89767,-3.96 2.063,-5.94 0.11,-1.458 -0.24733,-2.695333 -1.072,-3.712 -1.237,-1.525 -1.87,-1.567 -3.162,-1.678 -2.117,-0.165 -3.851,0.77 -5.17,2.805 l -0.743,-0.33 c 0.936,-2.585 2.2,-4.455 3.823,-5.61 1.594,-1.155 3.409,-1.65 5.362,-1.485 1.43,0.11 2.694,0.522 3.822,1.293 1.09255,0.723433 1.96696,1.731306 2.529,2.915 0.57733,1.182 0.825,2.282 0.743,3.3 -0.138,1.814 -0.798,3.63 -1.952,5.445 -1.568,2.42 -4.868,5.748 -9.9,9.955 l 6.05,0.44 c 1.485,0.11 2.447,0.137 2.915,0.055 0.439,-0.11 0.825,-0.275 1.155,-0.55 0.302,-0.275 0.715,-0.853 1.265,-1.76 l 0.742,0.056 z m 26.812,-6.6 c -0.907,2.64 -2.117,5.005 -3.63,7.04 -0.906,1.265 -1.896,2.228 -2.969,2.86 -1.00103,0.630724 -2.11106,1.068906 -3.273,1.292 -1.13106,0.192202 -2.29185,0.10745 -3.383,-0.247 -1.265,-0.44 -2.31,-1.155 -3.135,-2.173 -0.798,-0.99 -1.402,-2.228 -1.787,-3.712 -0.275,-1.1 -0.385,-2.448 -0.303,-4.07 0.11373,-2.200573 0.52997,-4.375 1.237,-6.462 0.99,-2.888 2.282,-5.418 3.905,-7.535 1.347,-1.788 2.888,-2.998 4.592,-3.603 1.705,-0.578 3.328,-0.632 4.841,-0.137 1.54,0.522667 2.805,1.54 3.795,3.052 0.99,1.485 1.484,3.245 1.512,5.225 0.056,2.75 -0.412,5.555 -1.402,8.47 m -5.995,-2.09 c 1.568,-4.62 2.447,-7.342 2.668,-8.14 0.468,-1.87 0.577,-3.19 0.303,-3.988 -0.192,-0.55 -0.633,-0.935 -1.375,-1.182 -0.578,-0.192 -1.072,-0.165 -1.485,0.027 -0.659,0.303 -1.237,0.99 -1.815,2.09 -0.549,1.1 -2.007,5.088 -4.345,11.99 -1.265,3.768 -1.979,6.325 -2.145,7.7 -0.138,0.99 -0.055,1.705 0.22,2.145 0.248,0.44 0.688,0.77 1.266,0.962 0.659,0.22 1.237,0.165 1.704,-0.138 0.798,-0.55 1.48567,-1.567667 2.063,-3.053 z m 40.728,165.438 21.367,21.478 c -4.87396,6.73433 -10.39089,12.97902 -16.473,18.646 -0.578,0.55 -0.742,1.567 -0.11,2.227 0.55,0.551 1.458,0.716 2.283,-0.027 17.792,-15.866 30.606,-35.859 37.949,-58.547 -6.56918,1.81868 -13.14186,3.62468 -19.718,5.418 -2.008,-8.772 -6.407,-23.43 -9.487,-33.413 -5.773,18.726 -8.249,28.737 -15.811,44.218 m -78.843,68.008 c 34.595,0 65.917,-14.024 88.578,-36.685 2.77485,-2.77083 5.41777,-5.67071 7.92,-8.69 -6.848,-6.875 -13.722,-13.75 -20.57,-20.652 l -2.695,-2.695 c -2.41084,3.12455 -5.01917,6.09162 -7.809,8.883 -16.748,16.747 -39.875,27.087 -65.423,27.087 -25.547,0 -48.675,-10.34 -65.422,-27.087 -2.789526,-2.79225 -5.398468,-5.75925 -7.811,-8.883 l -2.695,2.695 c -6.842882,6.89772 -13.699563,13.78173 -20.57,20.652 2.502231,3.01929 5.145154,5.91917 7.92,8.69 22.687,22.661 53.982,36.685 88.577,36.685"
       id="path2"
       sodipodi:nodetypes="cccccccccccccccccccccccccccccccccccccccccccccccccccccccccsccccccccccccccccccscccccccccccccccccccccccccccccccccccccccccccccccccssscccccccccccccccccccccccccccccccccccccccccccccccccccccccccccccccccccccccccccccccccccccccccccccccccccccccccccccccccccccccccscscscccscscscscccccccccccccccccccccccccccccccccccccccccccccccccccccsccccccccccccccccccccccccccccccccccccccccccccccsccccccccccccccccccccccscccccccccccccccccccccccccccccccccccccccccccccccccccccccccccscccccc" /></g></svg>
