<?xml version="1.0" encoding="UTF-8" standalone="no"?>
<svg
   xml:space="preserve"
   width="275"
   height="380.142"
   version="1.1"
   id="svg9"
   sodipodi:docname="vllaznia.svg"
   inkscape:version="1.4.2 (f4327f4, 2025-05-13)"
   xmlns:inkscape="http://www.inkscape.org/namespaces/inkscape"
   xmlns:sodipodi="http://sodipodi.sourceforge.net/DTD/sodipodi-0.dtd"
   xmlns="http://www.w3.org/2000/svg"
   xmlns:svg="http://www.w3.org/2000/svg"><defs
     id="defs9" /><sodipodi:namedview
     id="namedview9"
     pagecolor="#ffffff"
     bordercolor="#000000"
     borderopacity="0.25"
     inkscape:showpageshadow="2"
     inkscape:pageopacity="0.0"
     inkscape:pagecheckerboard="0"
     inkscape:deskcolor="#d1d1d1"
     inkscape:zoom="2.1228909"
     inkscape:cx="137.31275"
     inkscape:cy="190.071"
     inkscape:window-width="1920"
     inkscape:window-height="1009"
     inkscape:window-x="-8"
     inkscape:window-y="-8"
     inkscape:window-maximized="1"
     inkscape:current-layer="svg9" /><path
     fill="#CAA15B"
     fill-rule="evenodd"
     d="M0 11.74C45.472 4.639 91.686 0 137.5 0S229.53 4.639 275 11.74v241.841c0 48.277-53.487 70.097-92.143 85.443-20.789 8.247-38.827 13.917-45.357 41.118-6.528-27.201-24.567-32.871-45.355-41.118C53.488 323.677 0 301.858 0 253.581z"
     clip-rule="evenodd"
     id="path1" /><path
     fill="#DA1D36"
     fill-rule="evenodd"
     d="M137.5 6.873c-43.695 0-87.447 4.238-130.627 10.767v235.941c0 44.669 53.145 65.286 87.791 79.087 10.251 4.066 20.96 7.847 29.837 14.489 5.497 4.123 9.735 8.934 12.999 14.375z"
     clip-rule="evenodd"
     id="path2" /><path
     fill="#145196"
     fill-rule="evenodd"
     d="M137.5 6.873c43.696 0 87.447 4.238 130.629 10.767v235.941c0 44.669-53.145 65.286-87.791 79.087-10.252 4.066-20.961 7.847-29.837 14.489-5.498 4.123-9.736 8.934-13.001 14.375z"
     clip-rule="evenodd"
     id="path3" /><path
     fill="#ffffff"
     d="m 103.197,102.911 c -0.458,0.057 -0.631,0.286 -0.631,0.744 v 3.436 c 0,0.458 0.287,0.688 0.745,0.63 l 2.176,-0.286 v 22.449 c 0,0.344 0.172,0.572 0.573,0.572 h 3.722 c 0.344,0 0.573,-0.229 0.573,-0.572 v -27.317 c 0,-0.343 -0.229,-0.572 -0.573,-0.572 z m 20.845,16.549 -4.353,10.136 c -0.172,0.516 0,0.859 0.573,0.859 h 3.665 c 0.458,0 0.688,-0.171 0.859,-0.572 l 5.039,-11.969 c 0.229,-0.63 0.344,-1.088 0.344,-1.775 v -9.163 c 0,-3.207 -1.775,-4.982 -4.981,-4.982 h -4.238 c -3.265,0 -4.982,1.775 -4.982,4.982 v 7.502 c 0,3.264 1.718,4.982 4.982,4.982 z m 0,-12.77 c 0.916,0 1.433,0.516 1.433,1.431 v 5.211 c 0,0.917 -0.517,1.433 -1.433,1.433 h -2.004 c -0.916,0 -1.375,-0.516 -1.375,-1.433 v -5.211 c 0,-0.916 0.459,-1.431 1.375,-1.431 z m 22.106,-3.779 c -0.459,0.057 -0.688,0.286 -0.688,0.744 v 3.436 c 0,0.458 0.286,0.688 0.746,0.63 l 2.233,-0.286 v 22.449 c 0,0.344 0.172,0.572 0.572,0.572 h 3.665 c 0.344,0 0.572,-0.229 0.572,-0.572 v -27.317 c 0,-0.343 -0.229,-0.572 -0.572,-0.572 z m 20.788,16.549 -4.295,10.136 c -0.229,0.516 0,0.859 0.515,0.859 h 3.723 c 0.401,0 0.688,-0.171 0.804,-0.572 l 5.038,-11.969 c 0.286,-0.63 0.401,-1.088 0.401,-1.775 v -9.163 c 0,-3.207 -1.776,-4.982 -4.982,-4.982 h -4.295 c -3.208,0 -4.981,1.775 -4.981,4.982 v 7.502 c 0,3.264 1.773,4.982 4.981,4.982 z m 0.057,-12.77 c 0.917,0 1.432,0.516 1.432,1.431 v 5.211 c 0,0.917 -0.515,1.433 -1.432,1.433 h -2.005 c -0.915,0 -1.431,-0.516 -1.431,-1.433 v -5.211 c 0,-0.916 0.516,-1.431 1.431,-1.431 z"
     id="path4"
     sodipodi:nodetypes="cssccsssssccccssccssssssscssssssssscssccsssssccccssccssssssscsssssssss" /><path
     fill="#FFF"
     fill-rule="evenodd"
     d="m137.271 263.775 76.281-161.781h33.616L137.271 335.073 27.375 101.994h33.674z"
     clip-rule="evenodd"
     id="path5" /><path
     fill="#145196"
     fill-rule="evenodd"
     d="m58.585 105.888 78.686 167.049v53.03L33.56 105.888z"
     clip-rule="evenodd"
     id="path6" /><path
     fill="#DA1D36"
     fill-rule="evenodd"
     d="m216.014 105.888-78.743 167.049v53.03l103.77-220.079z"
     clip-rule="evenodd"
     id="path7" /><path
     fill="#FFF"
     fill-rule="evenodd"
     d="M103.426 155.597c8.705-8.819 20.789-14.317 34.132-14.317 13.287 0 25.369 5.499 34.073 14.317 8.764 8.819 14.146 21.017 14.146 34.475s-5.383 25.656-14.146 34.476c-8.704 8.819-20.786 14.259-34.073 14.259-13.343 0-25.427-5.439-34.132-14.259s-14.145-21.018-14.145-34.476c0-13.459 5.441-25.656 14.145-34.475"
     clip-rule="evenodd"
     id="path8" /><path
     fill-rule="evenodd"
     d="M176.443 193.45c-.172 5.385-.344 12.313-.86 16.322l-15.69 10.995c-4.925-.572-9.852-3.15-15.005-6.414l2.233-19.241c4.696-3.666 11.225-7.273 14.719-9.393zm-61.048-.629c-1.889 5.325-2.691 12.196-2.52 16.951 2.005 2.177 4.238 4.124 6.643 5.897 2.291 1.775 4.812 3.38 7.503 4.812 4.639-.745 9.906-2.636 15.863-6.07l2.176-19.242c-3.608-3.15-9.335-6.528-14.088-9.792zm10.48-38.714c-4.811.459-9.679 3.723-14.488 7.159a45.6 45.6 0 0 0-5.383 10.538c-.859 2.634-1.547 5.383-1.891 8.304l11.053 10.652 15.577-7.502c2.233-5.04 4.123-10.823 5.326-17.696zM137.9 142.31c-3.378 2.119-8.188 6.299-10.308 10.766l10.021 11.168 17.525-.63 7.673-11.167c-.687-1.489-2.177-3.207-3.778-4.925-6.356-3.265-13.515-5.155-21.133-5.212m-47.531 49.594 2.807-.115 8.876-11.052c.343-3.379 1.031-6.586 2.062-9.564 1.26-3.607 2.921-6.872 4.811-9.907-1.26-2.233-2.978-4.066-5.44-4.295-8.132 8.59-13.172 20.216-13.172 33.101-.001.573-.001 1.202.056 1.832m8.876 26.115c-.114-.86-.172-1.719-.286-2.579 0-.629-.057-1.258-.114-1.888-3.666-4.755-5.727-11.397-6.414-19.759l-1.947.114a47.7 47.7 0 0 0 8.761 24.112m23.193 17.295c1.891-.172 3.952-.688 6.128-1.375.688-5.613-.974-8.877-2.405-11.625-2.806-1.547-5.44-3.208-7.846-5.041a50.6 50.6 0 0 1-6.414-5.61c-3.607 1.029-7.388 1.83-10.995 2.862.058.286.058.515.058.801a63 63 0 0 0 .802 5.899c.744.858 1.546 1.775 2.405 2.576 5.097 5.156 11.338 9.165 18.267 11.513m27.949.686a16 16 0 0 1-2.922-1.146c-5.153-.286-10.881 0-16.207.288-1.546.515-3.035 1.029-4.467 1.431 3.437.803 7.045 1.203 10.767 1.203 4.41 0 8.762-.629 12.829-1.776m29.262-24.337c-.744-.346-1.604-.46-2.52-.518l-17.123 11.97c-4.238 4.353-7.501 8.533-8.419 11.167 1.032.229 2.005.344 3.036.286 6.126-2.405 11.683-6.128 16.264-10.767 3.551-3.549 6.471-7.615 8.762-12.138m-11.567-58.014c-1.146-.114-2.348-.114-3.608-.057l-7.73 11.224 5.726 18.956 15.807 8.36c2.806-1.03 4.353-5.325 5.783-10.135-1.659-9.965-6.356-18.899-13.171-25.714a31 31 0 0 0-2.807-2.634m-65.343 1.203c8.876-8.991 21.188-14.546 34.818-14.546 13.573 0 25.886 5.556 34.762 14.546 8.934 9.049 14.433 21.475 14.433 35.22 0 13.687-5.499 26.172-14.433 35.162-8.876 8.99-21.188 14.547-34.762 14.547-13.63 0-25.942-5.557-34.818-14.547-8.935-8.99-14.432-21.476-14.432-35.162.001-13.745 5.498-26.171 14.432-35.22"
     clip-rule="evenodd"
     id="path9" /></svg>
