<?xml version="1.0" encoding="UTF-8" standalone="no"?>
<svg
   xml:space="preserve"
   viewBox="1 1 242.03 250"
   version="1.1"
   id="svg6"
   sodipodi:docname="ararat-armenia.svg"
   inkscape:version="1.4.2 (f4327f4, 2025-05-13)"
   xmlns:inkscape="http://www.inkscape.org/namespaces/inkscape"
   xmlns:sodipodi="http://sodipodi.sourceforge.net/DTD/sodipodi-0.dtd"
   xmlns="http://www.w3.org/2000/svg"
   xmlns:svg="http://www.w3.org/2000/svg"><defs
     id="defs6" /><sodipodi:namedview
     id="namedview6"
     pagecolor="#ffffff"
     bordercolor="#000000"
     borderopacity="0.25"
     inkscape:showpageshadow="2"
     inkscape:pageopacity="0.0"
     inkscape:pagecheckerboard="0"
     inkscape:deskcolor="#d1d1d1"
     inkscape:zoom="3.228"
     inkscape:cx="120.97274"
     inkscape:cy="132.74473"
     inkscape:window-width="1920"
     inkscape:window-height="1009"
     inkscape:window-x="-8"
     inkscape:window-y="-8"
     inkscape:window-maximized="1"
     inkscape:current-layer="svg6" /><path
     d="M488.896 538.614c0-105.393-85.439-190.833-190.834-190.833-105.393 0-190.832 85.44-190.832 190.833 0 105.394 85.439 190.834 190.832 190.834 105.395 0 190.834-85.44 190.834-190.834"
     style="fill:#231f20;fill-opacity:1;fill-rule:nonzero;stroke:none"
     transform="matrix(.44696 0 0 -.44696 -11.106 327.032)"
     id="path1" /><path
     d="M142.38 538.614c0 85.844 69.839 155.683 155.683 155.683s155.682-69.839 155.682-155.683-69.839-155.682-155.682-155.682c-85.844 0-155.683 69.839-155.683 155.682m-17.575 0c0-95.534 77.723-173.258 173.258-173.258 95.534 0 173.257 77.724 173.257 173.258s-77.723 173.259-173.257 173.259-173.258-77.724-173.258-173.259"
     style="fill:#fff;fill-opacity:1;fill-rule:nonzero;stroke:none"
     transform="matrix(.44696 0 0 -.44696 -11.106 327.032)"
     id="path2" /><path
     d="M207.54 435.879c37.387 37.317 122.58 122.348 139.086 138.825l81.923-81.423-.32-.848c-19.04-53.512-70.203-91.926-130.166-91.926-34.982 0-66.967 13.073-91.328 34.59z"
     style="fill:#fff;fill-opacity:1;fill-rule:nonzero;stroke:none"
     transform="matrix(.44696 0 0 -.44696 -11.106 327.032)"
     id="path3" /><path
     d="m248.875 503.726-47.942 47.65-37.86-37.79-.714-.706a138.3 138.3 0 0 0-2.404 25.734c0 76.154 61.955 138.109 138.108 138.109 76.152 0 138.107-61.955 138.107-138.109 0-8.533-.778-16.888-2.266-24.998l-.075-.804-87.228 86.697-96.813-96.632z"
     style="fill:#fff;fill-opacity:1;fill-rule:nonzero;stroke:none"
     transform="matrix(.44696 0 0 -.44696 -11.106 327.032)"
     id="path4" /><path
     d="m236.832 489.946-41.898-41.82-.593-.607c-11.487 13.062-20.55 28.303-26.482 45.014l-.262.737c15.641 15.612 28.053 28.002 33.363 33.3l36.325-36.103z"
     style="fill:#fff;fill-opacity:1;fill-rule:nonzero;stroke:none"
     transform="matrix(.44696 0 0 -.44696 -11.106 327.032)"
     id="path5" /></svg>
