<?xml version="1.0" encoding="UTF-8" standalone="no"?>
<svg
   viewBox="119.82 101.25 547.23 912.39"
   version="1.1"
   id="svg4"
   sodipodi:docname="noah.svg"
   inkscape:version="1.4.2 (f4327f4, 2025-05-13)"
   xmlns:inkscape="http://www.inkscape.org/namespaces/inkscape"
   xmlns:sodipodi="http://sodipodi.sourceforge.net/DTD/sodipodi-0.dtd"
   xmlns="http://www.w3.org/2000/svg"
   xmlns:svg="http://www.w3.org/2000/svg">
  <defs
     id="defs4" />
  <sodipodi:namedview
     id="namedview4"
     pagecolor="#ffffff"
     bordercolor="#000000"
     borderopacity="0.25"
     inkscape:showpageshadow="2"
     inkscape:pageopacity="0.0"
     inkscape:pagecheckerboard="0"
     inkscape:deskcolor="#d1d1d1"
     inkscape:zoom="0.88449017"
     inkscape:cx="274.16924"
     inkscape:cy="456.19501"
     inkscape:window-width="1920"
     inkscape:window-height="1009"
     inkscape:window-x="-8"
     inkscape:window-y="-8"
     inkscape:window-maximized="1"
     inkscape:current-layer="svg4" />
  <path
     d="M90.367 765.452V286.96l205.21-205.798 205.21 205.798v478.492z"
     style="fill:#231f20;fill-opacity:1;fill-rule:nonzero;stroke:none"
     transform="matrix(1.33333 0 0 -1.33333 -.667 1121.853)"
     id="path1" />
  <path
     d="M94.957 288.857v472.006h401.24V288.857L295.576 87.662Z"
     style="fill:#fff;fill-opacity:1;fill-rule:nonzero;stroke:none"
     transform="matrix(1.33333 0 0 -1.33333 -.667 1121.853)"
     id="path2" />
  <path
     d="m 375.103,186.07 c -1.646,-1.65 -3.555,-1.874 -5.204,-1.135 -0.56733,0.25195 -1.08278,0.60734 -1.52,1.048 l -0.248,0.247 c -1.625,1.62 -2.056,3.502 -1.422,5.152 0.22,0.559 0.583,1.104 1.075,1.598 1.53,1.534 3.27,1.666 4.815,0.852 0.58578,-0.31545 1.12049,-0.71767 1.586,-1.193 l 0.78,-0.778 -4.368,-4.381 c 0.766,-0.61 1.635,-0.699 2.402,-0.348 0.272,0.118 0.505,0.3 0.751,0.547 0.766,0.767 0.998,1.598 0.88,2.417 l 1.909,-0.115 c 0.196,-1.259 -0.165,-2.636 -1.436,-3.91 m -5.85,5.418 c -0.856,-0.857 -0.555,-1.883 0.121,-2.738 l 2.541,2.548 -0.156,0.155 c -0.793,0.79 -1.715,0.829 -2.506,0.035 m 18.454,11.278 c -0.442,0.441 -0.91,0.233 -1.402,-0.002 -0.30376,-0.15455 -0.59468,-0.33312 -0.87,-0.534 -1.167,-0.754 -2.426,-1.288 -3.568,-0.952 -0.3652,0.11516 -0.69586,0.31968 -0.962,0.595 -0.663,0.662 -0.82,1.492 -0.77,2.22 0.078,0.857 0.517,1.792 1.373,2.65 1.297,1.3 2.698,1.77 3.984,1.343 0.403,-0.143 0.766,-0.35 1.092,-0.674 l -1.828,-1.833 c -0.598,0.597 -1.313,0.505 -1.96,-0.145 -0.545,-0.546 -0.7,-1.222 -0.206,-1.715 0.403,-0.401 0.909,-0.206 1.337,0.015 0.623,0.313 1.427,0.91 2.05,1.224 0.791,0.404 1.583,0.548 2.362,0.34 0.364,-0.103 0.74,-0.323 1.078,-0.66 0.69,-0.687 0.808,-1.53 0.705,-2.284 -0.129,-0.882 -0.607,-1.831 -1.49,-2.715 -1.348,-1.352 -2.905,-1.77 -4.242,-1.292 -0.38515,0.13297 -0.73594,0.34986 -1.027,0.635 l 1.737,1.742 c 0.728,-0.648 1.559,-0.465 2.272,0.25 0.583,0.585 0.855,1.273 0.335,1.792 m 10.372,10.403 -3.627,3.617 -0.998,-1.001 -1.34,1.335 0.999,1 -1.69,1.686 1.827,1.833 1.69,-1.685 1.167,1.17 1.34,-1.335 -1.168,-1.17 3.433,-3.423 c 0.507,-0.505 0.91,-0.518 1.414,-0.01 0.208,0.207 0.377,0.402 0.494,0.597 l 1.39,-1.387 c -0.245,-0.43 -0.504,-0.844 -0.945,-1.287 -1.322,-1.326 -2.647,-1.276 -3.986,0.06 m 9.428,7.452 c -0.598,0.596 -0.573,1.401 0.035,2.013 0.61,0.61 1.415,0.664 2.026,0.054 0.611,-0.61 0.534,-1.388 -0.075,-1.999 -0.61,-0.61 -1.388,-0.664 -1.986,-0.068 m 6.543,17.432 -1.84,-1.846 c -1.444,1.438 -1.55,3.177 -0.929,4.659 0.2588,0.59289 0.62803,1.13112 1.088,1.586 1.426,1.429 2.919,1.885 4.335,1.304 0.48662,-0.21719 0.92746,-0.525 1.299,-0.907 0.728,-0.726 1.015,-1.505 1.198,-2.31 0.248,-1.05 0.289,-2.154 0.303,-3.284 l 0.096,-3.336 3.966,3.978 1.483,-1.478 -6.327,-6.344 -1.26,1.258 -0.204,6.166 c -0.027,0.779 -0.093,1.493 -0.289,2.18 -0.117,0.429 -0.273,0.792 -0.624,1.142 -0.794,0.79 -1.742,0.906 -2.52,0.127 -0.894,-0.898 -0.685,-1.988 0.226,-2.895 m 22.627,9.768 c -1.634,-1.638 -3.373,-1.614 -5.062,-0.734 -0.65,0.337 -1.326,0.855 -2.015,1.543 l -1.6,1.594 c -1.858,1.853 -2.652,3.76 -1.89,5.566 0.22,0.533 0.583,1.027 1.05,1.495 1.62,1.625 3.386,1.653 5.062,0.76 0.65,-0.336 1.313,-0.867 2.015,-1.567 l 1.599,-1.595 c 2.314,-2.308 3.096,-4.8 0.84,-7.062 m -2.42,4.983 -2.12,2.112 c -1.158,1.154 -2.366,1.997 -3.48,0.878 -1.09,-1.091 -0.231,-2.31 0.913,-3.451 l 2.12,-2.114 c 1.156,-1.153 2.404,-2.035 3.506,-0.93 1.102,1.106 0.217,2.35 -0.94,3.505 m 16.174,9.07 -7.073,7.052 -1.19,-3.17 -1.275,2.101 0.722,3.689 1.387,1.391 9.257,-9.23 z m 14.54,14.581 -1.932,-1.937 -4.197,11.314 -4.576,-4.59 -1.482,1.479 6.508,6.527 1.027,-1.024 z M 362.345,403.288 V 209.234 l 0.01,-0.922 38.08,37.907 -0.009,0.755 v 194.182 l 0.028,1.33 -38.09,-38.089 z m -57.205,51.766 v 54.06 l 0.67,0.67 16.956,16.956 0.99,0.032 h 53.103 L 376.117,526.049 305.8,455.73 Z m -19.818,0.709 -70.158,70.158 -0.867,0.851 h 53.996 l 0.734,-0.671 16.987,-17.051 V 455.117 Z M 228.809,404.325 V 209.552 l 0.023,-1.274 -38.05,37.878 -0.055,1.774 v 194.565 l 0.642,-0.678 36.782,-36.782 z"
     style="fill:#231f20;fill-opacity:1;fill-rule:nonzero;stroke:none"
     transform="matrix(1.33333,0,0,-1.33333,-0.667,1121.853)"
     id="path3"
     sodipodi:nodetypes="ccccccccccccccccccccccccccscccccccccccccccccccccccccccccccccccsccccccccccccccccccccccccccccsccccccccccccccccccccccccccccccccccccccccccccccccccccccccccc" />
  <path
     d="M343.22 411.386V190.3l-.001-1.039-38.114-37.942.034 1.114V427.45l-.063.51 98.048 98.048.764.764h53.87l.027-1.028V303.31L419.602 265.3l-.051.8v221.53l-.047.954-76.306-76.305zM247.934 411.497V190.492l.038-1.267 38.013-37.843.03 1.051v275.08l-.032.542-97.985 97.985-.73.732h-53.87l-.03-1.008V303.311l38.247-38.074-.012 1.053v222.36l.81-.83 75.551-75.55z"
     style="fill:#231f20;fill-opacity:1;fill-rule:nonzero;stroke:none"
     transform="matrix(1.33333 0 0 -1.33333 -.667 1121.853)"
     id="path4" />
</svg>
