<?xml version="1.0" encoding="UTF-8" standalone="no"?>
<svg
   xml:space="preserve"
   version="1.0"
   viewBox="0 0 286.84 349"
   id="svg15"
   sodipodi:docname="ado-den-haag.svg"
   inkscape:version="1.4.2 (f4327f4, 2025-05-13)"
   xmlns:inkscape="http://www.inkscape.org/namespaces/inkscape"
   xmlns:sodipodi="http://sodipodi.sourceforge.net/DTD/sodipodi-0.dtd"
   xmlns="http://www.w3.org/2000/svg"
   xmlns:svg="http://www.w3.org/2000/svg"><defs
     id="defs15" /><sodipodi:namedview
     id="namedview15"
     pagecolor="#ffffff"
     bordercolor="#000000"
     borderopacity="0.25"
     inkscape:showpageshadow="2"
     inkscape:pageopacity="0.0"
     inkscape:pagecheckerboard="0"
     inkscape:deskcolor="#d1d1d1"
     inkscape:zoom="2.3123209"
     inkscape:cx="143.36245"
     inkscape:cy="174.5"
     inkscape:window-width="1920"
     inkscape:window-height="1009"
     inkscape:window-x="-8"
     inkscape:window-y="-8"
     inkscape:window-maximized="1"
     inkscape:current-layer="svg15" /><path
     d="m779.084 165.667-2.657-10.14-7.274-7.545C675.936 51.218 548.288.046 400.009 0 251.815-.055 124.161 51.116 30.846 147.983l-7.277 7.539-2.67 10.144C7.03 218.426 0 272.298 0 325.79c0 49.77 6.11 100.169 18.162 149.8 27.989 125.383 85.022 235.844 169.491 328.227 52.31 59.332 116.809 112.216 191.645 157.116L400 973.372l20.708-12.441c74.826-44.897 139.325-97.783 191.699-157.183 84.41-92.316 141.438-202.778 169.44-328.254C793.886 425.992 800 375.596 800 325.798c0-53.507-7.038-107.383-20.916-160.131"
     style="fill:#006d2c"
     transform="matrix(.35855 0 0 .35855 0 0)"
     id="path1" /><path
     d="m769.157 168.272-1.977-7.553-5.414-5.616C670.527 60.392 545.432 10.307 400.004 10.263c-145.337-.055-270.434 50.03-361.768 144.84l-.005.004-5.421 5.617-1.989 7.553c-13.643 51.906-20.56 104.902-20.56 157.514 0 48.955 6.012 98.54 17.893 147.471 27.615 123.703 83.826 232.588 167.134 323.7 51.673 58.608 115.358 110.816 189.292 155.173 0 0 11.57 6.953 15.42 9.265l15.424-9.265c73.925-44.357 137.611-96.565 189.349-155.242 83.246-91.043 139.454-199.931 167.08-323.729 11.87-48.804 17.885-98.384 17.885-147.366 0-52.626-6.924-105.624-20.581-157.526"
     style="fill:#ffed00"
     transform="matrix(.35855 0 0 .35855 0 0)"
     id="path2" /><path
     d="M762.813 169.945c0-.004-1.552-5.891-1.552-5.891l-4.236-4.401C667.068 66.264 543.609 16.874 399.994 16.819c-143.515-.045-266.978 49.346-357.042 142.833l-4.237 4.402-1.549 5.889c-26.229 99.771-27.102 201.385-2.591 302.024 27.294 122.472 83.03 230.381 165.64 320.666C251.24 850.6 314.417 902.389 387.944 946.511l12.049 7.234 12.047-7.234c73.513-44.114 136.776-95.999 188.027-154.21 82.405-90.06 138.08-198.005 165.43-320.789 24.446-100.286 23.548-201.771-2.684-301.567m-4.156 299.972c-27.096 121.637-82.206 228.502-163.813 317.692-50.819 57.719-113.525 109.138-186.417 152.88l-8.434 5.063-8.435-5.063c-72.908-43.748-135.526-95.072-186.119-152.546-81.815-89.416-136.987-196.246-164.026-317.57-11.712-48.091-17.566-96.391-17.566-144.594 0-51.587 6.704-103.062 20.109-154.049l1.085-4.122 2.968-3.085v.001c88.708-92.08 210.422-140.727 351.983-140.682 141.663.053 263.372 48.7 351.973 140.682 0 0 1.94 2.013 2.97 3.085l1.089 4.124c13.42 51.059 20.132 102.567 20.132 154.136 0 48.067-5.831 96.188-17.499 144.048"
     style="fill:#fff"
     transform="matrix(.35855 0 0 .35855 0 0)"
     id="path3" /><path
     d="M79.436 166.604c-26.601 101.186-27.244 202.368-2.6 303.549 5.74 25.772 12.684 50.791 20.789 75.091h95.966V86.247a423 423 0 0 0-47.945 23.609c-23.905 16.757-45.978 35.743-66.21 56.748M722.854 184.013c-33.383-34.654-72.29-63.49-116.42-85.438v446.67H709.74a723 723 0 0 0 15.568-58.346c23.304-95.632 22.692-207.221-2.454-302.886"
     style="fill:#006d2c"
     transform="matrix(.35855 0 0 .35855 0 0)"
     id="path4" /><path
     d="M567.114 793.525c65.788-71.916 113.317-154.449 142.625-248.28H97.625c-8.105-24.3-15.049-49.319-20.789-75.091-24.644-101.182-24.001-202.363 2.6-303.549 20.229-21.002 42.297-39.985 66.198-56.74a420 420 0 0 0-67.769 48.369 443 443 0 0 0-18.051 17.669c-25.453 96.841-26.07 193.675-2.476 290.508 6.049 27.135 13.479 53.402 22.262 78.834 30.003 86.861 75.956 163.876 137.894 231.588C267.777 833.934 328.611 883.597 400 926.438c62.573-37.551 117.033-80.347 163.399-128.796v-.001c1.237-1.382 2.497-2.733 3.715-4.116"
     style="fill:#003716"
     transform="matrix(.35855 0 0 .35855 0 0)"
     id="path5" /><path
     d="M740.178 175.902C658.249 90.843 543.522 40.285 400 40.239c-134.839-.045-242.275 43.679-322.61 118.404C155.7 89.912 258.74 49.966 386.833 50.011c141.775.058 255.093 49.993 336.021 134.002 25.146 95.665 25.758 207.253 2.453 302.885-26.361 118.358-79.095 220.157-158.193 306.626-1.218 1.383-2.479 2.734-3.715 4.115a689 689 0 0 0 19.115-20.807c80.067-87.536 133.447-190.609 160.139-310.422 23.602-96.833 22.985-193.666-2.475-290.508"
     style="fill:#b0da1f"
     transform="matrix(.35855 0 0 .35855 0 0)"
     id="path6" /><path
     d="M386.833 50.011c-19.111-.007-37.652.896-55.647 2.633v492.601h-8.384c-11.56 2.6-18.809 4.622-21.603 6.034-2.438 1.23-4.784 3.351-6.991 6.241-9.412 4.486-12.046 13.88-12.046 21.437 0 2.634.313 5.037.754 6.923l1.396 5.958s16.971-15.55 18.147-16.629l6.628-1.781c-6.566 6.671-8.433 9.522-9.193 11.133-1.994 4.174-2.563 9.851-2.563 14.972 0 6.145.819 11.491.982 12.499l1.659 10.197 16.222-29.249c2.789-2.762 20.955-18.949 37.394-33.474l6.855-2.579 4.552 2.516c.66.665 12.239 12.305 12.239 12.305l1.777-5.656c.061-.196 1.293-4.178 1.293-8.562 0-.751-.037-1.516-.121-2.275-.188-1.615-.77-3.341-1.655-5.144l12.913-4.866h36.909c-6.332 30.763-19.56 95.055-20.108 97.716l-1.618.723-37.952-.085c-16.213 0-28.006 21.344-28.5 22.252l-5.888 10.827 10.775-5.983c4.14-2.299 7.632-4.061 10.543-5.412-1.259.76-1.865 1.266-2.232 1.578-.922.784-1.763 1.748-2.534 2.838.969-.608 1.933-1.217 2.93-1.793 30.944-17.869 67.855-16.211 96.428 1.12l-2.676-5.711c-.799-1.709-7.349-15.124-16.84-18.89 1.002-4.52 14.212-64.112 21.981-99.178h16.156V55.996c-26.164-3.913-53.488-5.974-81.982-5.985"
     style="fill:#006d2c"
     transform="matrix(.35855 0 0 .35855 0 0)"
     id="path7" /><path
     d="M505.483 276.157c-51.62-43.233-94.941-36.258-108.785-34.609-20.49 2.434-35.682 11.649-48.703 20.072-2.766 1.789-5.155 3.334-6.835 4.158-7.429 3.641-14.666 3.677-18.435.093-3.152-2.996-4.552-6.033-4.406-9.557.586-14.135 25.027-33.783 46.592-51.118 7.398-5.948 15.05-12.098 21.7-17.971 15.766-13.924 24.755-31.092 25.318-48.341.458-14.027-4.774-27.272-14.731-37.294-17.353-17.464-47.45-18.024-66.956-9.684-9.435 4.033-16.405 9.972-20.491 17.15l-95.412 34.446c-4.612-6.478-14.666-5.765-21.514-4.882-5.397.687-15.545 4.027-20.001-.725-4.281-4.542.513-11.665 4.39-14.549 5.626-4.211 12.877-5.038 19.772-5.259.349 3.157 2.825 6.365 6.718 8.185 5.558 2.582 13.205 1.564 15.469-2.512 2.271-4.077-1.738-9.671-7.291-12.235-4.752-2.239-10.076-1.659-12.923 1.111a54.6 54.6 0 0 0-9.518-.409c-9.054.395-18.957 3.071-25.046 10.263-4.502 5.299-6.578 13.832-1.56 19.567 1.467 1.655 3.45 2.904 5.523 3.667 8.95 3.269 17.628.462 26.639-.594 3.336-.386 8.375-.98 10.164 1.683l-49.77 17.967 44.404-4.555c-2.831 2.527-5.944 4.562-9.087 7.593-6.303 6.075-8.65 10.156-8.837 15.209-.314 8.516 7.509 13.207 11.747 14.143 7.762 1.739 15.954-2.086 21.458-7.419 1.1-1.074 1.953-2.183 3.044-3.465-4.032 1.703-6.998 3.336-11.307 4.315-4.947 1.112-10.552-.157-12.441-4.909-1.657-4.171-.551-8.211 2.139-11.322 3.381-3.925 9.003-8.655 12.64-12.37a51 51 0 0 0 2.702-3.012l101.852-10.449a30 30 0 0 0 5.231 4.683c8.075 5.662 18.27 7.125 26.354 7.008-6.411 6.605-17.5 14.228-29.153 22.183-34.176 23.336-82.971 56.653-82.971 109.978 0 10.405 1.763 24.069 8.36 39.361.534-.915 8.814-6.863 10.283-7.955-1.117 4.199-1.612 8.091-1.612 11.697 0 17.228 12.993 31.206 24.537 40.201 0 0 3.118-7.237 3.24-7.532 4.565 21.44 15.173 30.725 32.715 39.571.257-5.333 1.811-15.246 2.233-18.413 32.47 46.46 78.618 65.964 123.392 84.81 3.128 1.317 6.259 2.634 9.396 3.961l-5.827 28.869-97.264 37.756c-14.715 2.96-34.969 7.315-39.805 9.757-2.371 1.196-4.469 3.368-6.253 5.836-14.54 6.046-10.157 24.75-10.157 24.75l14.281-13.085 20.857-5.607c-8.618 8.03-16.725 16.156-18.409 19.72-4.034 8.451-1.283 25.367-1.283 25.367l11.457-20.652c2.492-2.654 31.539-28.354 38.403-34.418l9.021-3.393 6.443 3.562 8.419 8.464s1.53-4.876 1.028-9.367c-.311-2.682-2.026-5.529-3.353-7.388l63.001-23.739s-20.239 98.433-24.889 120.958c-1.127.503-2.48 1.108-3.998 1.784-11.822-.018-31.952-.085-38.711-.085-14.271 0-25.354 20.381-25.354 20.381 17.966-9.976 24.303-10.263 24.303-10.263 1.365.083 5.823.289 11.44.533a94.4 94.4 0 0 0-25.297 10.072c-45.13 26.058-60.604 83.952-34.595 129.104 26.104 45.152 83.975 60.635 129.123 34.592 45.13-26.086 60.68-83.979 34.637-129.109-10.046-17.382-24.809-30.349-41.736-38.266l3.079.606s-7.984-17.04-17.845-17.794l28.734-129.633s9.373-3.853 16.424-6.46c8.529-3.155 12.522-8.976 13.245-14.826 33.979 17.771 65.18 42.081 85.918 86.815 1.302-5.427 7.824-24.101 10.724-31.346 7.649 13.286 22.225 37.956 29.556 55.014-.65-157.963-42.51-277.659-105.544-330.444m-46.351 223.337 3.125-14.225a536 536 0 0 1 7.303 3.326c-1.061 9.384-10.428 10.899-10.428 10.899"
     style="fill:#00210d"
     transform="matrix(.35855 0 0 .35855 0 0)"
     id="path8" /><path
     d="m306.156 131.936-44.455 7.983 43.974-12.193a49 49 0 0 1-.096-1.947 33 33 0 0 1 .27-5.132l-89.685 29.695a9 9 0 0 1-.088.572l91.687-12.606a38 38 0 0 1-1.607-6.372"
     style="fill:#fff"
     transform="matrix(.35855 0 0 .35855 0 0)"
     id="path9" /><path
     d="M448.328 437.664c-44.558-20.041-91.91-50.909-118.21-101.057 28.303 39.167 83.869 72.835 140.666 92.396l2.138-9.427c42.458 23.238 90.627 68.113 128.499 147.062-7.523-26.566-31.711-101.704-109-154.002 6.776-.093 13.124-1.114 18.88-3.069 58.282 42.755 82.651 109.846 86.631 121.789-.109-.91-.21-1.839-.32-2.747-10.675-51.082-37.742-96.016-72.892-126.218a40.4 40.4 0 0 0 5.234-4.913 40.8 40.8 0 0 0 5.484-7.911c24.032 24.949 43.758 56.083 53.458 83.534a644 644 0 0 0-4.247-20.151c-12.481-43.513-35.333-71.714-44.013-81.032 2.086-20.143-6.231-44.792-23.083-67.852-6.087-6.951-12.464-13.23-19.13-18.812-46.611-39.041-83.952-34.264-100.864-32.25-18.085 2.149-31.323 9.094-43.532 16.994-3.044 1.97-5.674 3.671-7.911 4.766-11.558 5.665-23.871 5.748-30.941-.972-5.34-5.077-7.171-11.349-6.898-17.914.781-18.863 24.55-38.266 50.104-58.809 7.643-6.144 14.862-11.947 21.331-17.66 13.591-12.003 21.334-26.518 21.804-40.868.361-11.129-3.797-21.644-11.712-29.609-13.6-13.689-38.88-14.536-55.463-7.447-7.005 2.994-18.701 10.097-18.34 24.02.229 8.856 3.148 15.13 8.922 19.181 9.988 7.004 27.03 6.108 38.425 2.06-1.049 13.644-21.471 30.711-41.331 44.272-33.932 23.168-78.367 53.508-78.367 101.531 0 6.989.943 14.355 2.995 22.125 5.016-3.494 17.294-7.502 21.045-7.5-4.056 7.895-7.017 22.534-7.017 28.223 0 9.896 4.907 16.925 10.417 22.769 1.757-3.599 9.343-16.957 14.742-20.706-2.699 29.986 8.73 46.565 16.429 53.094.28-2.41.636-4.9.994-7.361.493-3.408 3.568-18.594 4.468-21.892 32.986 62.221 83.536 82.553 132.639 103.221 47.369 19.939 96.238 40.528 127.612 93.314 2.356-6.786 5.231-13.679 6.812-17.348-39.125-62.31-80.99-82.371-126.458-102.824"
     style="fill:#fff"
     transform="matrix(.35855 0 0 .35855 0 0)"
     id="path10" /><path
     d="M369.033 130.248c-.361-9.612-4.992-17.615-12.495-19.995a14.9 14.9 0 0 0-4.297-.694c-6.274-.092-12.688 3.658-17.421 9.888 4.219-2.927 8.978-4.559 13.755-4.562a6.31 6.31 0 0 0-4.477 5.132c-.457 3.434 1.91 6.613 5.348 7.107a6.3 6.3 0 0 0 7.117-5.325 6.28 6.28 0 0 0-3.113-6.334q.671.162 1.341.374c6.743 2.108 11.712 7.505 14.242 14.409"
     style="fill:#00210d"
     transform="matrix(.35855 0 0 .35855 0 0)"
     id="path11" /><path
     d="m 366.625,882.742 v -30.127 h -7.231 l -2.496,4.278 h 5.206 v 25.849 z M 384.92,852.13 c -2.763,0 -5.135,0.989 -7.119,2.958 -1.973,1.955 -2.955,4.317 -2.955,7.077 0,2.591 0.884,4.81 2.663,6.65 1.784,1.85267 3.895,2.77867 6.333,2.778 0.173,0 0.392,-0.009 0.667,-0.034 0.27467,-0.0273 0.607,-0.0677 0.997,-0.121 l -7.219,9.844 3.347,2.483 10.546,-14.266 c 1.982,-2.716 2.973,-5.244 2.973,-7.584 0,-2.634 -1.018,-4.924 -3.052,-6.861 -2.037,-1.945 -4.427,-2.924 -7.181,-2.924 m 4.098,13.83 c -1.10667,1.104 -2.447,1.65633 -4.021,1.657 -1.573,0 -2.917,-0.556 -4.035,-1.677 -1.104,-1.10533 -1.65633,-2.471 -1.657,-4.097 -6.7e-4,-1.51933 0.55767,-2.83867 1.675,-3.958 1.108,-1.104 2.44167,-1.65633 4.001,-1.657 1.58333,6.7e-4 2.929,0.553 4.037,1.657 1.114,1.118 1.675,2.461 1.675,4.037 0,1.575 -0.561,2.918 -1.675,4.038 m 20.636,-13.83 c -2.853,0 -5.278,1.298 -7.28,3.881 -2.23667,2.86 -3.35533,6.68667 -3.356,11.48 6.7e-4,5.04267 1.11933,8.99367 3.356,11.853 2.031,2.586 4.46,3.88 7.298,3.88 2.836,0 5.25567,-1.29333 7.259,-3.88 2.23933,-2.858 3.359,-6.744 3.359,-11.658 0,-4.924 -1.11967,-8.81567 -3.359,-11.675 -2.002,-2.583 -4.427,-3.881 -7.277,-3.881 m 4.42,23.682 c -1.16867,2.16933 -2.64667,3.25433 -4.434,3.255 -1.792,0 -3.26767,-1.085 -4.427,-3.255 -1.158,-2.20733 -1.73733,-4.982 -1.738,-8.324 0,-3.20667 0.58533,-5.882 1.756,-8.026 1.17133,-2.15667 2.641,-3.23433 4.409,-3.233 1.786,-0.001 3.264,1.07633 4.434,3.233 1.172,2.17 1.753,4.9 1.753,8.186 0,3.288 -0.581,6.01 -1.753,8.164 M 440.59,864.74 c -1.88133,-1.97733 -4.28333,-2.96633 -7.206,-2.967 -0.175,0 -0.356,0.008 -0.56,0.018 -0.2,0.015 -0.412,0.031 -0.633,0.06 l 1.483,-4.959 h 9.313 v -4.278 h -12.476 l -4.736,15.809 h 1.499 c 1.483,-1.781 3.245,-2.676 5.288,-2.676 1.835,0 3.359,0.633 4.583,1.895 1.223,1.226 1.833,2.799 1.833,4.727 0,1.877 -0.618,3.468 -1.851,4.784 -1.238,1.27667 -2.76667,1.915 -4.586,1.915 -1.39133,6.7e-4 -2.56833,-0.32567 -3.531,-0.979 -0.959,-0.662 -1.916,-1.797 -2.868,-3.416 l -3.434,2.91 c 2.30067,3.76133 5.44833,5.642 9.443,5.642 3.238,0 5.92867,-1.02767 8.072,-3.083 2.145,-2.06 3.213,-4.671 3.213,-7.845 0.002,-3.074 -0.945,-5.59 -2.846,-7.557"
     style="fill:#ffffff"
     transform="scale(0.35855)"
     id="path12"
     sodipodi:nodetypes="cccccccccscscccccscccccscccscccccscscccccccccsccsccccccccscscccccsccc" /><path
     d="M486.917 747.449c-5.614 5.354-11.332 8.063-17.109 7.774-8.295-.473-14.624-6.093-18.672-11.131-6.152 10.773-13.606 17.157-22.132 18.831-12.866 2.476-24.14-5.077-28.796-8.83-3.85 1.47-14.297 6.342-17.554 15.832-2.12 6.207-.754 13.592 4.055 21.962 0 0 2.115 3.28 2.468 3.844 9.014 1.483 73.934 10.801 94.264-23.778 0 0 1.064-1.82 1.217-2.061 1.741-7.222 2.453-14.781 2.259-22.443"
     style="fill:#914a00"
     transform="matrix(.35855 0 0 .35855 0 0)"
     id="path13" /><path
     d="M379.99 795.829c-5.965-10.394-7.534-19.933-4.624-28.448 4.715-13.695 19.09-19.515 23.116-20.923.554-4.481.748-12.346-2.977-18.807-.617-1.065-1.325-2.088-2.141-2.983-4.968-5.71-13.609-8.169-25.607-7.28-5.875 7.183-46.318 58.633-26.547 93.535l.825 1.501c5.295 4.958 11.25 9.211 17.665 12.721-1.79-7.45-1.229-13.727 1.934-18.566 4.432-6.8 12.253-9.473 18.563-10.512-.116-.137-.176-.238-.207-.238"
     style="fill:#914a00"
     transform="matrix(.35855 0 0 .35855 0 0)"
     id="path14" /><path
     d="M386.52 803.094c-1.63.03-13.72.479-18.4 7.713-2.766 4.254-2.443 10.533.928 18.71 24.79 9.958 52.118 8.051 75.064-5.157 13.911-8.035 25.079-19.729 32.634-33.917-31.242 23.363-87.062 13.281-90.226 12.651M362.694 711.429c.423-.753 6.635-11.828 2.56-19.837l-.282-.482c-1.435-2.495-3.902-4.447-7.349-5.87l-10.925 10.452s.609-6.142 2.329-12.644a60 60 0 0 0-1.913-.241c-32.766 26.376-41.687 73.583-20.642 110.007a52 52 0 0 0 2.127 3.39c-4.772-38.592 31.89-82.2 34.095-84.775M371.665 687.261s.461.843.461.873c3.794 7.412 2.043 15.719-.328 21.82 12.521-.081 21.741 3.158 27.394 9.651a26.3 26.3 0 0 1 3.014 4.183c5.168 8.999 4.628 19.283 3.773 24.989 3.744 2.794 12.486 8.328 21.57 6.571 7.401-1.448 13.829-7.712 19.117-18.583-1.352-3.52-5.58-14.209-12.534-26.222-7.017-12.149-16.84-25.724-29.18-34.425l-14.179 12.152-15.39 19.026s-1.866-18.671 2.798-24.592c2.071-2.645 8.138-7.935 14.382-13.158a43 43 0 0 0-2.173-.72c-11.061 3.614-21.891 7.201-24.055 8.078l-2.925 2.799c3.671 1.934 6.454 4.44 8.255 7.558M440.902 706.69c8.352 14.487 12.871 27.056 13.459 28.701.462.753 7.005 11.646 15.857 12.132 5.135.244 10.48-3.265 15.914-10.439-1.557-10.814-5.082-21.067-10.472-30.401-12.776-22.099-33.926-36.805-58.077-41.391l-6.677 5.722c13.094 9.731 23.188 23.907 29.996 35.676"
     style="fill:#914a00"
     transform="matrix(.35855 0 0 .35855 0 0)"
     id="path15" /></svg>
