<?xml version="1.0" encoding="UTF-8" standalone="no"?>
<svg
   xml:space="preserve"
   viewBox="3.38 4.38 300 300"
   version="1.1"
   id="svg8"
   sodipodi:docname="ajax.svg"
   inkscape:version="1.4.2 (f4327f4, 2025-05-13)"
   xmlns:inkscape="http://www.inkscape.org/namespaces/inkscape"
   xmlns:sodipodi="http://sodipodi.sourceforge.net/DTD/sodipodi-0.dtd"
   xmlns="http://www.w3.org/2000/svg"
   xmlns:svg="http://www.w3.org/2000/svg"><defs
     id="defs8" /><sodipodi:namedview
     id="namedview8"
     pagecolor="#ffffff"
     bordercolor="#000000"
     borderopacity="0.25"
     inkscape:showpageshadow="2"
     inkscape:pageopacity="0.0"
     inkscape:pagecheckerboard="0"
     inkscape:deskcolor="#d1d1d1"
     inkscape:zoom="2.69"
     inkscape:cx="150"
     inkscape:cy="150"
     inkscape:window-width="1920"
     inkscape:window-height="1009"
     inkscape:window-x="-8"
     inkscape:window-y="-8"
     inkscape:window-maximized="1"
     inkscape:current-layer="svg8" /><path
     fill="#FFF"
     d="M153.379 304.378c82.843 0 149.999-67.159 149.999-150s-67.156-150-149.999-150-150.001 67.16-150.001 150c-.001 82.841 67.159 150 150.001 150"
     id="path1" /><path
     fill="#D2122E"
     d="M277.569 179.492c.83-4.134 1.457-8.297 1.87-12.466.407-4.11.616-8.328.616-12.648 0-34.98-14.179-66.648-37.103-89.574-22.925-22.921-54.594-37.102-89.574-37.102q-.755 0-1.54.008l-.058-4.935q.783-.01 1.598-.011c36.343 0 69.245 14.733 93.063 38.551s38.551 56.72 38.551 93.063c0 4.381-.222 8.762-.654 13.131a131 131 0 0 1-1.931 12.946z"
     id="path2" /><path
     fill="#D2122E"
     d="M273.046 178.598a121 121 0 0 0 1.803-12.022c.396-3.999.602-8.066.602-12.197 0-33.707-13.665-64.225-35.757-86.316-22.088-22.089-52.606-35.754-86.314-35.754l-.822.003c-.268.003-.539.003-.817.01l-.014-1.234a109 109 0 0 1 1.653-.011c34.048 0 64.876 13.802 87.188 36.116 22.314 22.312 36.117 53.139 36.117 87.187a124.4 124.4 0 0 1-2.428 24.461z"
     id="path3" /><path
     fill="#D2122E"
     d="M285.692 181.236a135 135 0 0 0 2.673-26.858c0-37.274-15.109-71.02-39.537-95.449-24.427-24.427-58.174-39.535-95.449-39.535l-.822.001q-.403.003-.817.007l-.015-1.233q.407-.005.828-.008c.274 0 .55-.004.826-.004 37.615 0 71.67 15.25 96.323 39.9 24.649 24.651 39.896 58.705 39.896 96.32 0 4.593-.229 9.147-.675 13.646a137 137 0 0 1-2.021 13.453zM26.904 147.235a127 127 0 0 0-.153 3.568 131 131 0 0 0-.049 3.575c0 34.981 14.179 66.651 37.101 89.574 22.926 22.921 54.595 37.104 89.576 37.104 3.072 0 6.179-.117 9.309-.346q4.778-.347 9.217-.998l.712 4.88c-3.238.472-6.435.83-9.581 1.055q-4.699.344-9.656.344c-36.342 0-69.248-14.732-93.065-38.55-23.817-23.819-38.549-56.721-38.549-93.063q.002-1.895.05-3.711.057-1.958.151-3.7z"
     id="path4" /><path
     fill="#D2122E"
     d="M31.484 147.756a126 126 0 0 0-.176 6.622c0 33.707 13.664 64.225 35.754 86.316 22.09 22.09 52.608 35.752 86.317 35.752a124 124 0 0 0 18.02-1.32l.179 1.222a124 124 0 0 1-18.199 1.335c-34.049 0-64.876-13.804-87.19-36.118-22.314-22.311-36.115-53.138-36.115-87.187a124 124 0 0 1 .176-6.685z"
     id="path5" /><path
     fill="#D2122E"
     d="M18.618 146.524a139 139 0 0 0-.225 7.854c0 37.274 15.109 71.021 39.536 95.449 24.428 24.425 58.175 39.536 95.45 39.536 3.288 0 6.564-.122 9.821-.354 3.304-.237 6.549-.591 9.735-1.052l.172 1.218a136 136 0 0 1-19.728 1.423c-37.616 0-71.671-15.248-96.322-39.9-24.65-24.651-39.899-58.703-39.899-96.319a140 140 0 0 1 .227-7.921z"
     id="path6" /><path
     d="m 62.567,209.761 c 0.044,-0.009 15.332,-3.662 49.327,11.219 0.569,0.203 6.68,2.352 11.134,2.987 -0.096,-0.294 -0.438,-0.839 -1.423,-1.822 -0.871,-0.874 -1.744,-1.745 0,-3.489 1.746,-1.744 2.619,-0.874 3.49,0 7.102,7.1 -0.124,10.158 -0.144,10.17 l -1.187,0.212 c -5.204,-0.432 -13.57,-3.439 -13.594,-3.444 l -0.145,-0.059 C 77.452,211.259 63.648,214.576 63.608,214.581 c -1.206,0.268 -2.412,0.53 -2.932,-1.879 -0.519,-2.413 0.686,-2.676 1.891,-2.941 m 72.79,-53.717 c -1.055,0.929 -3.83,3.612 -4.22,6.479 l -0.171,1.249 -1.102,0.588 c -0.015,0.01 -5.292,2.869 -11.868,3.966 -1.217,0.199 -2.434,0.404 -2.839,-2.027 -0.404,-2.426 0.812,-2.629 2.028,-2.834 4.168,-0.694 7.713,-2.18 9.359,-2.953 0.956,-3.384 3.56,-6.248 5.069,-7.689 l -2.26,-14.316 3.875,-2.373 13.436,9.772 c 0.978,0.541 1.342,1.074 1.395,1.6 0.073,0.454 -0.073,1.021 -0.591,1.781 -3.333,6.434 -1.48,7.492 -1.475,7.496 l 0.337,0.241 c 3.325,2.813 4.314,7.517 4.314,7.529 l 0.021,0.095 c 2.215,12.689 -1.738,17.442 -2.727,18.408 -2.012,2.48 -5.151,9.851 -5.757,11.292 -1.577,8.003 -9.256,8.215 -10.87,8.171 -6.756,1.342 -9.189,2.73 -9.196,2.735 l -0.242,0.124 c -6.834,3.014 -12.011,1.178 -13.49,0.515 -5.877,-1.253 -7.817,-4.021 -7.822,-4.028 l -0.299,-0.579 c -2.059,-5.659 -5.236,-6.718 -5.246,-6.722 l -0.8,-0.444 c -9.003,-7.458 -2.685,-15.883 -2.667,-15.909 l 0.231,-0.277 c 0.517,-0.518 1.797,-2.352 2.988,-4.115 -0.713,-0.192 -1.242,-0.752 -1.242,-2.368 0,-2.468 1.234,-2.468 2.467,-2.468 h 2.178 c 0.416,-0.28 0.953,-0.354 1.74,0 h 3.281 c 1.233,0 2.469,0 2.469,2.468 0,2.468 -1.236,2.467 -2.469,2.467 h -2.581 c -1.317,2.002 -4.045,6.088 -5.199,7.354 -0.507,0.771 -2.844,4.868 1.703,8.842 1.424,0.68 5.27,2.996 7.613,9.067 0.372,0.356 1.604,1.274 4.911,1.935 l 0.724,0.271 c 0.01,0.005 3.649,2.063 9.496,-0.507 0.831,-0.421 4.161,-1.962 10.843,-3.26 l 0.617,-0.05 c 0.014,0 5.213,0.432 6.055,-4.331 l 0.153,-0.51 c 0.013,-0.029 4.065,-9.838 6.781,-13.006 l 0.328,-0.327 c 0.007,-0.006 3.172,-2.396 1.174,-13.87 -0.111,-0.474 -0.816,-3.18 -2.662,-4.742 l 0.021,0.017 c -1.069,-0.849 -4.29,-4.207 -0.922,-12.01 l -7.11,-5.169 1.453,9.196 c 0.518,0.864 0.463,1.456 0.161,1.931 -0.098,0.547 -0.452,1.015 -1.394,1.295 m 63.066,91.015 v 0.011 c 0.005,0.165 0.069,1.851 0.201,1.729 l 0.059,-0.045 c 0.011,-0.01 3.975,-3.276 5.518,-18.115 l 0.048,-0.302 c 0.011,-0.04 3.373,-14.976 14.94,-0.669 0.759,0.774 7.439,7.45 7.806,1.755 -0.796,-2.382 -4.517,-13.517 -5.282,-15.671 -0.773,-1.347 -5.379,-10.308 8.962,-10.573 h 0.174 c 0.026,0 8.959,0.427 18.392,3.854 1.157,0.422 2.318,0.843 1.48,3.157 -0.838,2.314 -2,1.895 -3.157,1.472 -8.248,-2.996 -16.159,-3.501 -16.925,-3.545 -6.591,0.157 -4.605,3.232 -4.6,3.238 l 0.191,0.426 c 0.696,1.857 5.567,16.49 5.582,16.53 l 0.136,0.82 c -0.304,18.796 -16.331,1.92 -16.379,1.874 l -0.145,-0.162 c -4.786,-5.959 -6.146,-2.209 -6.348,-1.514 -1.771,16.674 -7.196,21.168 -7.215,21.181 l 0.061,-0.046 c -6.622,5.959 -8.054,-1.334 -8.357,-4.195 -0.073,-0.328 -0.078,-0.689 -0.078,-1.052 v -0.006 c -0.0153,-0.26678 -0.0153,-0.53422 0,-0.801 v -12.848 c 0,-10.299 -3.962,-7.103 -4.58,-6.543 -14.023,15.447 -21.851,40.13 -21.872,40.2 -0.379,1.176 -0.754,2.35 -3.098,1.598 -2.342,-0.751 -1.964,-1.926 -1.589,-3.1 0.024,-0.075 8.182,-25.811 22.938,-42.043 l 0.106,-0.107 c 0.038,-0.033 12.861,-12.824 13.024,9.567 0.005,0.14067 0.007,0.28333 0.006,0.428 v 13.497 z m -9.565,-19.995 -0.032,0.034 z m 20.191,4.363 v 0.011 z M 109.56,125.568 c -0.008,0.009 -3.011,3.387 -1.515,3.509 1.49,-0.147 10.368,-0.722 10.368,6.585 v -0.201 c 0.002,0.023 0.977,9.207 -9.03,6.705 l -0.819,-0.368 c -0.002,0 -0.708,-0.512 -0.475,4.881 0.034,0.249 0.039,0.511 0.04,0.775 l 10e-4,0.011 c 0.018,0.346 0.037,0.691 0,1.012 v 8.543 c 1.879,2.457 6.749,9.999 -4.371,9.931 -0.347,0.059 -0.725,0.022 -1.107,-0.029 -0.441,-0.02 -0.88,-0.04 -1.258,-0.173 l -4.903,-0.679 c -1.222,-0.164 -2.445,-0.335 -2.117,-2.773 0.328,-2.441 1.55,-2.271 2.772,-2.103 l 5.768,0.793 c 2.167,0.09 1.821,-1.071 1.365,-1.839 -0.731,-0.267 -0.971,-0.782 -1.048,-1.377 -0.34,-0.52 -0.488,-1.088 -0.037,-1.812 v -9.245 c -0.772,-14.164 5.896,-11.304 7.741,-10.252 2.781,0.534 2.543,-1.592 2.543,-1.598 v -0.202 c 0,-2.319 -5.034,-1.667 -5.049,-1.665 l -0.299,0.018 c -12.703,0 -2.282,-11.674 -2.252,-11.707 0.818,-0.923 1.638,-1.846 3.478,-0.217 1.842,1.63 1.022,2.555 0.204,3.477 m -14.329,-2.205 c -0.012,-0.011 -4.147,-4.352 -4.733,-5.523 -0.163359,-0.3224 -0.304683,-0.65549 -0.423,-0.997 -1.2,-1.766 -5.686,-9.499 8.825,-8.104 l 0.474,0.086 c 0.11,0.033 38.013,10.864 97.082,69.312 l -0.02,-0.019 c 0.023,0.023 8.586,8.268 -3.079,11.738 l -0.194,0.047 c -0.013,0.004 -4.938,0.933 -4.508,6.09 1.3,1.864 3.623,6.828 -6.08,9.314 l -0.202,0.037 c -0.017,0.004 -6.293,0.991 -9.03,2.269 l -0.618,0.203 c -0.021,0.004 -7.217,1.4 -6.388,-11.028 l 0.126,-0.607 c 0.003,-0.015 1.647,-4.945 -0.849,-8.223 -0.735,-0.962 -1.855,-1.199 -2.854,-1.409 -3.379,-0.712 -6.109,-1.287 -5.473,-8.531 0,-0.22 0.038,-3.012 1.006,-5.429 0.457,-1.143 0.916,-2.289 3.199,-1.375 2.285,0.918 1.828,2.064 1.369,3.207 -0.638,1.599 -0.638,3.605 -0.638,3.607 l -0.022,0.232 c -0.292,3.075 0.536,3.251 1.56,3.469 1.849,0.387 3.93,0.83 5.766,3.241 3.547,4.653 2.16,10.819 1.731,12.382 -0.293,4.657 0.273,5.45 0.514,5.579 3.254,-1.348 8.729,-2.271 9.655,-2.421 3.889,-1.013 3.069,-1.867 3.065,-1.871 l -0.645,-1.321 c -1.494,-9.711 7.09,-11.964 8.196,-12.214 3.442,-1.068 0.965,-3.45 0.96,-3.458 l -0.021,-0.018 c -55.76,-55.175 -91.831,-67.098 -94.812,-68.016 -4.752,-0.423 -3.915,0.614 -3.912,0.615 l 0.502,1.485 c 0,10e-4 0,-0.371 0.149,-0.071 0.237,0.474 3.896,4.337 3.905,4.348 0.846,0.898 1.692,1.797 -0.102,3.486 -1.791,1.684 -2.635,0.785 -3.481,-0.112 m 59.089,73.393 c -0.008,0.031 -2.967,11.235 -5.813,16.053 l -0.134,0.203 c -0.015,0.019 -4.917,6.677 0.745,3.583 l 0.299,-0.145 c 0.024,-0.009 8.074,-3.191 13.33,-3.848 1.224,-0.152 2.448,-0.306 2.748,2.145 0.298,2.446 -0.927,2.6 -2.149,2.753 -4.297,0.538 -11.122,3.146 -12.063,3.515 -23.928,13.008 -8.277,-8.99 -6.968,-10.797 2.487,-4.283 5.236,-14.687 5.244,-14.716 0.317,-1.192 0.636,-2.385 3.017,-1.759 2.38,0.627 2.061,1.82 1.744,3.013 M 218.857,66.864 c 5.695,1.569 29.285,10.144 29.285,44.528 v -0.028 c 0.003,0.148 1.3,52.013 -47.2,52.013 h 0.183 c -0.064,0.004 -22.26,2.002 -33.301,-23.708 l -0.079,-0.222 c -0.015,-0.049 -5.631,-17.849 -15.057,-17.72 l -0.55,-0.057 c -0.007,-0.003 -2.724,-0.662 -6.72,2.584 -0.957,0.776 -1.913,1.556 -3.466,-0.354 -1.552,-1.909 -0.595,-2.688 0.363,-3.465 5.002,-4.064 9.35,-3.81 10.542,-3.642 12.248,0.065 18.824,18.882 19.515,20.961 9.631,22.381 28.331,20.689 28.387,20.684 h 0.185 c 43.434,0 42.265,-46.883 42.265,-47.018 v -0.028 c 0,-27.766 -16.676,-36.647 -23.602,-39.141 v 14.891 c 12.776,9.328 13.111,19.938 13.111,19.969 0.061,1.232 0.12,2.465 -2.348,2.581 -2.471,0.115 -2.528,-1.117 -2.587,-2.349 -0.002,-0.025 -0.258,-8.55 -11.499,-16.526 -0.975,-0.16 -1.361,-0.612 -1.516,-1.184 -0.361,-0.442 -0.499,-1.007 -0.099,-1.871 V 70.04 c -0.078,-0.327 -0.086,-0.746 0,-1.285 0.006,-0.755 0.064,-1.481 0.752,-1.896 0.528,-0.559 1.229,-0.489 1.945,-0.35 0.688,0.024 1.162,0.154 1.491,0.355 m -46.433,71.054 c 0.002,0.009 0.005,0.0171 0.009,0.025 z m -73.083,-2.217 c -0.021,0.031 -7.11,11.785 -7.848,13.628 l -0.348,0.608 c -0.005,0.007 -2.015,2.563 0.572,3.049 l 0.646,0.213 c 0.003,0.002 1.124,0.562 3.015,0.562 1.234,0 2.468,0 2.468,2.468 0,2.47 -1.233,2.47 -2.468,2.47 -2.333,0 -4.146,-0.636 -4.869,-0.934 -9.09,-1.882 -4.494,-9.116 -3.438,-10.604 1.359,-2.924 8.026,-13.972 8.047,-14.005 0.636,-1.055 1.272,-2.114 3.383,-0.842 2.113,1.273 1.477,2.329 0.84,3.387 m -9.171,21.913 h -0.004 z m 55.651,7.947 0.005,0.03 z m -2.342,-4.542 0.007,0.004 c 6.7e-4,0 -0.002,-0.001 -0.007,-0.004 m -34.195,-58.883 c 0.024,0 8.714,0.006 29.23,-13.323 l -0.077,0.048 c 0.07,-0.048 24.234,-17.107 43.509,-17.268 h 0.088 c 0.037,0.002 13.667,0.326 22.771,6.615 1.014,0.701 2.03,1.403 0.633,3.427 -1.398,2.025 -2.413,1.323 -3.428,0.623 -7.681,-5.306 -19.499,-5.709 -20.088,-5.725 -17.736,0.185 -40.585,16.312 -40.652,16.357 l -0.077,0.049 c -21.747,14.129 -31.824,14.133 -31.854,14.133 -1.233,0.014 -2.467,0.032 -2.497,-2.438 -0.026,-2.466 1.208,-2.482 2.442,-2.498 m 96.547,100.781 c -0.017,0 -5.924,0.448 -5.968,5.701 0.022,0.375 0.388,4.373 5.758,4.373 l 0.684,0.108 c 0.009,0.002 3.582,1.174 6.061,-5.487 0.43,-1.155 0.861,-2.314 3.165,-1.457 2.306,0.859 1.874,2.017 1.442,3.174 -3.538,9.508 -9.913,8.938 -11.613,8.596 -10.158,-0.15 -10.435,-9.139 -10.435,-9.164 v -0.086 c 0,-9.913 10.453,-10.694 10.482,-10.697 1.23,-0.108 2.459,-0.22 2.671,2.249 0.212,2.467 -1.018,2.581 -2.247,2.69 m -92.36,36.442 c 0.043,0.008 14.826,2.358 16.647,22.159 0.112,1.229 0.225,2.456 -2.223,2.677 -2.449,0.224 -2.562,-1.007 -2.674,-2.235 -1.471,-15.987 -12.529,-17.737 -12.56,-17.742 -1.216,-0.207 -2.433,-0.413 -2.027,-2.844 0.405,-2.428 1.621,-2.221 2.837,-2.015"
     id="path8"
     sodipodi:nodetypes="ccccccccccccccccccccccccccccccccccccccccccccssccssscccccccccccccccccccccccccccccccscsccccccccccccsccscccsccccccccccccccccccccccccccccsccccccssccccccccccccccccccccccccccccsccccccccccccccccccccccccsccccccccccccccccccccssscccccccccccccccccccccsssccccccccccccccccccccccccccccccccccccsscccccccccc" /></svg>
