<?xml version="1.0" encoding="UTF-8" standalone="no"?>
<svg
   id="Layer_1"
   viewBox="0 -0.05 115.94 116.05"
   version="1.1"
   sodipodi:docname="almere-city-fc.svg"
   inkscape:version="1.4.2 (f4327f4, 2025-05-13)"
   xmlns:inkscape="http://www.inkscape.org/namespaces/inkscape"
   xmlns:sodipodi="http://sodipodi.sourceforge.net/DTD/sodipodi-0.dtd"
   xmlns="http://www.w3.org/2000/svg"
   xmlns:svg="http://www.w3.org/2000/svg">
  <defs
     id="defs6" />
  <sodipodi:namedview
     id="namedview6"
     pagecolor="#ffffff"
     bordercolor="#000000"
     borderopacity="0.25"
     inkscape:showpageshadow="2"
     inkscape:pageopacity="0.0"
     inkscape:pagecheckerboard="0"
     inkscape:deskcolor="#d1d1d1"
     inkscape:zoom="6.953899"
     inkscape:cx="58.025002"
     inkscape:cy="58.025002"
     inkscape:window-width="1920"
     inkscape:window-height="1009"
     inkscape:window-x="-8"
     inkscape:window-y="-8"
     inkscape:window-maximized="1"
     inkscape:current-layer="_x23_e3001bff" />
  <style
     id="style1">.st0{fill:#fff}.st1{fill:#e3001b}</style>
  <g
     id="_x23_ffffffff">
    <path
       d="M53.6 1.8c10-.8 20.3 1.1 29.3 5.6 9.4 4.6 17.5 12 23 20.9 5.4 8.7 8.4 18.9 8.5 29.1.1 8.6-1.8 17.2-5.5 25-6.2 13-17.4 23.4-30.9 28.5-10.2 3.9-21.6 4.7-32.3 2.4-9.4-2.1-18.3-6.6-25.5-13-7.6-6.9-13.3-15.9-16.3-25.7C.8 64.4.6 53.4 3.4 43.2c2.9-10.8 9.2-20.7 17.8-28 9-7.8 20.5-12.5 32.4-13.4m-.8 3.7c-8.6.8-17 3.8-24.1 8.6-8.4 5.6-15.1 13.6-19 22.9C5.8 46 4.6 56 6 65.7c1.4 9.4 5.5 18.4 11.6 25.7 5.7 6.8 13.1 12.2 21.5 15.4 9.4 3.6 19.8 4.5 29.7 2.4 8.3-1.7 16.2-5.5 22.8-11 6.7-5.6 12.1-12.9 15.3-21 3.5-8.8 4.6-18.5 3.1-27.8-1.5-9.6-5.7-18.7-12.1-26C91 15.7 82 9.9 72.1 7.2c-6.3-1.8-12.9-2.3-19.3-1.7"
       class="st0"
       id="path1" />
    <path
       d="M52.9 9.5c1.8-.2 3.7-.7 5.3.3 1.5 1.1 1.1 3.5-.5 4.3 1.4 1 1.4 2.9 2 4.3h-1.8c-.3-1-.5-2.1-1-3.1-.4-.8-1.4-.6-2.2-.6.1 1.3.1 2.5.2 3.8h-1.7c0-2.9-.2-5.9-.3-9m1.8 1.1c0 1 0 2 .2 2.9.7 0 1.6 0 2.2-.5.7-.6.6-1.9-.2-2.3-.8-.3-1.5-.1-2.2-.1m9.4-1c1.8.3 3.5.7 5.3 1-.1.5-.2.9-.2 1.4-1.2-.2-2.4-.4-3.6-.7-.1.8-.3 1.5-.4 2.3 1.1.2 2.2.4 3.4.6-.1.5-.2 1-.3 1.4-1.1-.3-2.2-.5-3.4-.6-.1.9-.3 1.7-.5 2.6 1.3.2 2.6.4 3.8.8-.1.3-.2 1-.2 1.3-1.9-.3-3.7-.7-5.5-1 .5-3 1.1-6 1.6-9.1m-21.5 2.1c1.7-.5 3.5-1 5.2-1.5.1.5.2.9.4 1.4-1.2.3-2.4.6-3.6 1 .2.8.4 1.5.7 2.3l3.3-.9c.1.4.3.9.3 1.3-1.1.4-2.2.6-3.2.9.2.9.4 1.7.7 2.6 1.3-.3 2.5-.7 3.8-1 .1.4.2.9.4 1.3-1.8.6-3.6 1-5.4 1.5-1-3-1.7-6-2.6-8.9M35 14.9c.6-.4 1.3-.8 2-1.1 1.7 2.6 3.4 5.1 5.1 7.7-.5.3-1 .6-1.4.8-1.3-2.1-2.8-4.1-4-6.3.5 2.5 1.1 5 1.6 7.5-.4.2-.8.5-1.2.7-1.9-1.7-3.7-3.4-5.5-5.1 1.2 2.2 2.3 4.3 3.4 6.5-.5.2-1 .5-1.4.8-1.3-2.8-2.8-5.5-4.1-8.3.6-.4 1.3-.7 1.9-1.1 1.8 1.6 3.5 3.1 5.2 4.8-.7-2.2-1.1-4.5-1.6-6.9m43.6.9c2.2-1 4.8.1 6.3 1.8-.3.3-.6.7-1 1-.8-.7-1.6-1.5-2.7-1.6-2.4-.4-4.3 2.5-3.6 4.6.5 1.3 1.9 1.9 3.2 2.3-.1.4-.2.9-.3 1.3-1.9-.3-3.8-1.4-4.6-3.3-.9-2.3.5-5 2.7-6.1m3.8 11.4c2-2.4 4-4.7 6-7.1.4.4.8.7 1.3 1.1-2 2.4-4 4.7-6 7.1-.4-.3-.8-.7-1.3-1.1M53 21.7c7.9-1 16 .5 22.9 4.4 7.6 4.3 13.6 11.4 16.5 19.6 3 8.5 2.8 18-.6 26.3-3 7.3-8.4 13.6-15.2 17.6-7.2 4.3-16 6-24.3 4.7-8.7-1.3-16.9-5.9-22.6-12.7-4.8-5.7-7.8-12.9-8.5-20.3-.9-8.9 1.8-18.1 7.2-25.3 5.8-7.7 14.9-13.1 24.6-14.3m-17.3 8.9c3.3 2.2 6.5 4.5 9.4 7.2 2.7 2.7 5.5 5.4 8.6 7.6 2.8 1.7 5.9 2.7 9.1 3.2 3.6.5 7.2-.5 10.6-1.4 3.3-.9 6.4-2.3 9.5-3.7 1.9-.9 3.6-2.2 5.3-3.5-1.7-2.8-3.7-5.3-6.1-7.6-6.4-6.1-15.2-9.7-24.1-9.7-8 0-16 2.8-22.3 7.9M23.5 49.7c-1.9 7.5-1.1 15.7 2 22.8 3.3 7.5 9.3 13.8 16.7 17.3 1.8-3.7 3.6-7.5 5.7-11.1 1.2-2.1 2.6-4.2 4.3-5.9 3-2.9 6.4-5.4 10.3-6.8 2.7-.9 5.4-1.6 8.3-1.7s5.8.1 8.7.3c.1-2-.8-4.1-2.5-5.2-2.4-1.6-5.3-2.4-8.1-3.1-3.8-.9-7.8-.6-11.6-1.5-4.6-1.3-9-3.5-12.5-6.8-2.6-2.2-4.7-4.9-7.5-6.8-2.4-1.7-5-3.3-7.6-4.6-2.9 3.9-5 8.4-6.2 13.1m59.7.7c-1.9 1-4.1 1.7-6.2 2.3 2.2 1.7 4.6 3.1 6.7 5.1 1.2 1.2 1.8 2.9 2.3 4.5.8 2.7.5 5.5.4 8.3-4.5-.8-9-1.2-13.6-.8-2.7.3-5.5.9-7.9 2.4-4.1 2.6-8 5.8-10.4 10.2-1.6 3.1-3 6.4-4.4 9.7-.1.2-.4.7.1.7 8.7 1.9 18.1.4 25.8-4.3 7.6-4.6 13.4-12.1 15.7-20.7 2-7.2 1.7-15.1-1-22.1-2.3 1.6-4.8 3.3-7.5 4.7m8.4-25.5c.4-.3.7-.7 1.2-.8 1.5 1.7 3 3.5 4.4 5.3-.4.3-.7.6-1.1.9-.6-.7-1.1-1.3-1.7-2-2.1 1.6-4 3.4-6.1 5-.3-.5-.7-.9-1-1.4 2-1.6 4-3.3 6-5-.6-.7-1.1-1.3-1.7-2m-70.2.7 1.2-1.2c1.9 1.8 3.7 3.7 5.6 5.4.9-.9 1.7-1.8 2.6-2.7.3.3.9.6.9 1.1-1.2 1.3-2.5 2.5-3.7 3.8-2.2-2.1-4.5-4.1-6.6-6.4m-5.7 8.2c.4-.6.7-1.4 1.2-1.8l9.3 2.1c-.3.6-.6 1.1-1 1.6-.9-.2-1.8-.6-2.7-.6-.5.7-1 1.5-1.4 2.3.4.8 1.2 1.4 1.8 2-.3.5-.6 1-.9 1.6-2.1-2.3-4.2-4.8-6.3-7.2m1.7-.2c.9 1 1.9 2 2.7 3 .4-.6.8-1.3 1.2-2-1.3-.3-2.6-.5-3.9-1m79.2 3.1c.9-1.3 1.9-2.7 2.8-4 .2.6.8 1.2.8 1.9-.9 1.2-1.8 2.3-2.8 3.4 1.5-.1 3.1-.1 4.6-.1.3.6.6 1.1.9 1.7-1.6-.1-3.2-.2-4.9-.3-1.8-.3-3.2 1.1-4.8 1.7-.3-.5-.5-1-.7-1.5 1.3-1 3.2-1.3 4.1-2.8M84.9 89.2c.8-.9 1.6-2.4 3.1-2.3.9.1 1.3 1.1 1.1 1.9 1-.4 2.2.1 2.4 1.2.1 1.5-1.2 2.4-2.1 3.4-1.5-1.5-3.1-2.8-4.5-4.2m1.3-.4c.3.5.8.8 1.3 1.2.3-.6 1.1-1.3.5-1.9s-1.4.1-1.8.7m1.8 1.8c.5.5 1 1.1 1.6 1.4.5-.5 1.3-1.4.5-2.1-.7-.8-1.5.2-2.1.7m-63.9.6 4.5-4.2c.8.9 1.7 1.7 2.4 2.6-.2.1-.5.4-.7.6-.6-.6-1.1-1.2-1.7-1.8-.4.4-.8.7-1.2 1.1.5.6 1 1.2 1.6 1.7-.2.1-.5.4-.7.6-.5-.5-1-1.1-1.5-1.6-.6.5-1.2 1.2-1.9 1.7-.4 0-.5-.5-.8-.7m58.8-.4.9-.6c.9 1.3 2.1 2.3 2.8 3.7.9 1.9-1.8 4.2-3.4 2.9-1.2-1-2.1-2.4-3.1-3.6.3-.2.6-.5.9-.7l2.4 3c.4.5 1.2.9 1.8.5.7-.4.7-1.4.3-2-.9-1.1-1.8-2.1-2.6-3.2m-51.6.7c1.8-.8 4.1.8 3.9 2.7-.1 1.9-2 3.7-3.9 3.2-1-.3-1.9-1.1-2.2-2.2-.4-1.5.7-3.1 2.2-3.7m.6.9c-1.3.6-2.5 2.6-1.3 3.8 1.5 1.1 3.4-.8 3.4-2.3.2-1.1-1.1-2-2.1-1.5m5.4 2.8c1.6-.5 3.6.7 3.7 2.4s-1.2 3.5-2.9 3.8c-1.3.1-2.7-.8-3.1-2.1-.4-1.6.7-3.5 2.3-4.1m.6.9c-1.5.5-2.6 3.1-1 4.2 1.5.7 2.8-1 3-2.3.2-1.1-.9-2.2-2-1.9m38.3-.6c.3-.2.6-.4 1-.5.9 1.5 1.8 3 2.6 4.5l2.1-1.2c.2.2.5.5.6.7-1.1.7-2.1 1.3-3.2 1.9-1-1.9-2.1-3.6-3.1-5.4m-4 2.2c.7-.9 1.8-1.3 2.9-1.5 0 .2.1.7.1.9-1 .1-2.2.6-2.5 1.7-.2 1.2.5 2.6 1.7 2.9.9.2 1.7-.4 2.4-.8.2.2.4.5.5.8-.8.6-1.8 1.2-2.9 1.1-2.2 0-3.6-3.3-2.2-5.1M42.3 97c1.5.5 2.9 1.1 4.4 1.6l-.3.9c-.5-.2-1.1-.4-1.6-.6-.7 1.6-1.1 3.3-1.8 4.9-.3-.1-.7-.2-1-.3.6-1.7 1.2-3.3 1.8-5-.5-.2-1.1-.4-1.6-.6-.1-.3 0-.6.1-.9m5.3 1.9c1.2.2 2.8.2 3.6 1.4.5.9-.2 1.7-1 2 .3.4.8.8.8 1.4 0 .8-.7 1.6-1.5 1.7-1 .1-2.1-.2-3.1-.5zm.6 2.6c.6.2 1.7.5 2-.4s-.9-1.1-1.6-1.3c-.1.6-.3 1.2-.4 1.7m-.2.8c-.1.7-.3 1.3-.4 2 .8.2 2 .4 2.2-.7.1-.9-1-1.1-1.8-1.3m15.9-2.7c.4-.1.7-.1 1.1-.2.3 1.7.7 3.4 1 5.1.8-.1 1.7-.4 2.5-.4.1.2.2.6.3.8-1.2.3-2.5.6-3.7.7-.4-2-.8-3.9-1.2-6M52.2 106l2.4-6c.5 0 .9.1 1.4.1.6 2.1 1.1 4.2 1.6 6.3-.4 0-.8-.1-1.2-.1-.1-.6-.3-1.2-.4-1.7-.7-.1-1.3-.1-2-.2-.2.6-.5 1.2-.7 1.8-.3-.1-.8-.2-1.1-.2m2.1-2.4c.5 0 1 0 1.5.1-.2-.9-.4-1.8-.6-2.6-.4.7-.7 1.6-.9 2.5m4.7-3.5c.4 0 .8-.1 1.1-.1.1 1.7.3 3.5.4 5.2.9 0 1.7-.1 2.6-.1 0 .2 0 .7.1.9-1.2.1-2.4.2-3.7.2-.1-2-.3-4-.5-6.1"
       class="st0"
       id="path2" />
  </g>
  <g
     id="_x23_e3001bff">
    <path
       d="M53 .3c2.4-.1 4.8-.6 7.3-.2C70.2.6 80 3.5 88.4 8.8c9.9 6.1 17.8 15.2 22.5 25.7 5.7 12.7 6.6 27.4 2.5 40.6-4.4 14.6-14.9 27.3-28.5 34.3-7.2 3.8-15.1 6-23.2 6.6-2.5-.1-4.9-.1-7.4 0-9.4-.6-18.7-3.5-26.7-8.4-9.1-5.6-16.7-13.8-21.5-23.3C2.5 77.1.4 69.2 0 61.2q.15-3.15 0-6.3c.6-10.2 3.9-20.2 9.5-28.8C15.9 16.4 25.3 8.7 36 4.4 41.4 2.2 47.2.8 53 .3m.6 1.5c-11.9.9-23.4 5.6-32.4 13.4-8.5 7.3-14.8 17.2-17.8 28C.6 53.4.8 64.4 3.9 74.6c3 9.9 8.8 18.9 16.5 25.7 7.2 6.4 16 11 25.5 13 10.7 2.3 22.1 1.5 32.3-2.4 13.4-5.1 24.7-15.5 30.9-28.5 3.7-7.8 5.6-16.4 5.5-25-.1-10.2-3.1-20.4-8.5-29.1-5.5-8.9-13.6-16.3-23-20.9C73.9 2.9 63.6 1 53.6 1.8"
       class="st1"
       id="path3" />
    <path
       d="m 52.8,5.5 c 6.5,-0.6 13,-0.1 19.3,1.7 9.9,2.7 18.9,8.5 25.6,16.3 6.3,7.3 10.6,16.4 12.1,26 1.5,9.3 0.4,19 -3.1,27.8 -3.2,8.1 -8.6,15.4 -15.3,21 -6.6,5.4 -14.4,9.3 -22.8,11 -9.9,2 -20.3,1.2 -29.7,-2.4 C 30.6,103.7 23.1,98.3 17.4,91.5 11.4,84.1 7.3,75.1 5.9,65.7 4.4,56 5.7,46 9.6,37 13.6,27.8 20.3,19.7 28.6,14.1 35.8,9.3 44.2,6.3 52.8,5.5 M 53,21.7 c -9.7,1.2 -18.8,6.6 -24.6,14.4 -5.4,7.2 -8,16.4 -7.2,25.3 0.6,7.4 3.6,14.6 8.5,20.3 5.7,6.8 13.8,11.4 22.6,12.7 8.3,1.3 17.1,-0.4 24.3,-4.7 6.8,-4 12.2,-10.3 15.2,-17.6 3.4,-8.3 3.7,-17.9 0.6,-26.3 C 89.5,37.6 83.5,30.5 75.9,26.2 69,22.2 60.8,20.7 53,21.7 m 31.9,67.5 4.5,4.2 c 0.9,-1 2.2,-1.9 2.1,-3.4 C 91.3,88.9 90.1,88.4 89.1,88.8 89.3,88 88.9,87 88,86.9 c -1.5,-0.1 -2.3,1.3 -3.1,2.3 m -60.8,2 c 0.3,0.2 0.5,0.7 0.9,0.7 0.6,-0.5 1.2,-1.2 1.9,-1.7 0.5,0.6 1,1.1 1.5,1.6 0.2,-0.1 0.5,-0.4 0.7,-0.6 -0.5,-0.6 -1,-1.2 -1.6,-1.7 0.4,-0.4 0.8,-0.7 1.2,-1.1 0.6,0.6 1.1,1.2 1.7,1.8 0.2,-0.1 0.5,-0.5 0.7,-0.6 -0.8,-0.9 -1.6,-1.7 -2.4,-2.6 -1.7,1.4 -3.1,2.8 -4.6,4.2 m 58.8,-0.4 c 0.8,1.1 1.7,2.1 2.5,3.2 0.5,0.6 0.5,1.6 -0.3,2 -0.6,0.4 -1.4,0 -1.8,-0.5 -0.9,-1 -1.6,-2 -2.4,-3 -0.3,0.2 -0.6,0.5 -0.9,0.7 1,1.2 1.9,2.6 3.1,3.6 1.7,1.3 4.4,-1 3.4,-2.9 -0.7,-1.4 -1.9,-2.5 -2.8,-3.7 -0.2,0.2 -0.5,0.4 -0.8,0.6 m -51.6,0.7 c -1.4,0.6 -2.6,2.2 -2.2,3.8 0.2,1.1 1.2,1.9 2.2,2.2 1.9,0.5 3.8,-1.4 3.9,-3.2 0.1,-2 -2.2,-3.6 -3.9,-2.8 m 6,3.7 c -1.6,0.6 -2.7,2.5 -2.3,4.1 0.3,1.3 1.7,2.2 3.1,2.1 1.8,-0.2 3,-2.1 2.9,-3.8 -0.1,-1.7 -2.1,-2.9 -3.7,-2.4 m 38.9,0.3 c 1,1.8 2.1,3.5 3.1,5.3 1.1,-0.6 2.2,-1.3 3.2,-1.9 -0.2,-0.2 -0.5,-0.5 -0.6,-0.7 l -2.1,1.2 c -0.9,-1.5 -1.8,-3 -2.6,-4.5 -0.4,0.2 -0.7,0.4 -1,0.6 m -4,2.2 c -1.5,1.8 -0.1,5.1 2.3,5.1 1.1,0.1 2,-0.5 2.9,-1.1 -0.2,-0.3 -0.4,-0.5 -0.5,-0.8 -0.7,0.5 -1.5,1 -2.4,0.8 -1.2,-0.3 -1.9,-1.7 -1.7,-2.9 0.3,-1.1 1.5,-1.6 2.5,-1.7 0,-0.2 -0.1,-0.7 -0.1,-0.9 -1.1,0.1 -2.3,0.6 -3,1.5 M 42.3,97 42,97.9 c 0.5,0.2 1.1,0.4 1.6,0.6 -0.6,1.7 -1.2,3.3 -1.8,5 0.3,0.1 0.7,0.2 1,0.3 0.7,-1.6 1.2,-3.3 1.8,-4.9 0.5,0.2 1.1,0.4 1.6,0.6 l 0.3,-0.9 C 45.2,98.1 43.8,97.5 42.3,97 m 5.3,1.9 c -0.4,2 -0.9,4 -1.3,6 1,0.2 2,0.6 3.1,0.5 0.8,-0.1 1.5,-0.9 1.5,-1.7 0,-0.6 -0.5,-1 -0.8,-1.4 0.8,-0.3 1.5,-1.2 1,-2 -0.6,-1.2 -2.2,-1.2 -3.5,-1.4 m 16.3,0.7 1.2,6 c 1.3,-0.1 2.5,-0.4 3.7,-0.7 -0.1,-0.2 -0.2,-0.6 -0.3,-0.8 -0.8,0 -1.7,0.3 -2.5,0.4 -0.3,-1.7 -0.7,-3.4 -1,-5.1 -0.4,0.1 -0.7,0.2 -1.1,0.2 M 52.2,106 c 0.3,0 0.8,0.1 1.1,0.1 0.2,-0.6 0.5,-1.2 0.7,-1.8 0.7,0.1 1.3,0.1 2,0.2 0.1,0.6 0.3,1.2 0.4,1.7 0.4,0 0.8,0.1 1.2,0.1 C 57,104.2 56.5,102.1 56,100 55.5,100 55.1,99.9 54.6,99.9 53.7,102 53,104 52.2,106 m 6.8,-5.9 c 0.2,2 0.3,4.1 0.5,6.1 1.2,-0.1 2.4,-0.1 3.7,-0.2 0,-0.2 -0.1,-0.7 -0.1,-0.9 -0.9,0 -1.7,0.1 -2.6,0.1 -0.1,-1.7 -0.2,-3.5 -0.4,-5.2 -0.3,0.1 -0.7,0.1 -1.1,0.1"
       class="st1"
       id="path4"
       sodipodi:nodetypes="ccccccccccccccccccccccccccccccccccccccccccccccccccccccccccscccccccccccccccccccccccccccccscccccccccccccccccccccccccc" />
    <path
       d="M54.7 10.6c.7 0 1.5-.2 2.1.1.9.4 1 1.8.2 2.3-.6.5-1.5.5-2.2.5-.2-.9-.1-1.9-.1-2.9m-19 20C42 25.5 50 22.7 58 22.8c8.9 0 17.7 3.5 24.1 9.7 2.4 2.2 4.4 4.8 6.1 7.6-1.7 1.3-3.4 2.6-5.3 3.5-3.1 1.4-6.2 2.8-9.5 3.7-3.4 1-7 2-10.6 1.4-3.2-.6-6.3-1.5-9.1-3.2-3.2-2.2-5.9-4.9-8.6-7.6-2.9-2.8-6.1-5.1-9.4-7.3m-18.3 3c1.3.4 2.6.7 3.9 1-.4.7-.7 1.4-1.2 2-.8-1-1.8-2-2.7-3m6.1 16.1c1.1-4.7 3.3-9.2 6.3-13.1 2.7 1.3 5.2 2.9 7.6 4.6 2.8 1.9 4.9 4.6 7.5 6.8 3.5 3.3 7.9 5.5 12.5 6.8 3.8.9 7.8.6 11.6 1.5 2.8.7 5.7 1.4 8.1 3.1 1.7 1.1 2.6 3.2 2.5 5.2-2.9-.2-5.8-.4-8.7-.3-2.8.1-5.6.7-8.3 1.7-3.9 1.4-7.3 3.9-10.3 6.8-1.8 1.7-3.1 3.8-4.3 5.9-2 3.6-3.8 7.3-5.7 11.1-7.4-3.6-13.4-9.9-16.7-17.3-3.2-7.1-3.9-15.2-2.1-22.8"
       class="st1"
       id="path5" />
    <path
       d="M83.2 50.4c2.7-1.4 5.2-3.1 7.6-4.8 2.7 7 3 14.9 1 22.1-2.4 8.6-8.1 16.1-15.7 20.7S59 94.6 50.3 92.6c-.4 0-.2-.5-.1-.7 1.4-3.2 2.7-6.5 4.4-9.7 2.3-4.4 6.2-7.6 10.4-10.2 2.3-1.5 5.1-2.1 7.9-2.4 4.5-.4 9.1.1 13.6.8 0-2.8.3-5.6-.4-8.3-.5-1.6-1.1-3.3-2.3-4.5-2-1.9-4.4-3.4-6.7-5.1 2-.4 4.2-1 6.1-2.1m3 38.4c.3-.6 1.2-1.4 1.8-.7.6.6-.2 1.3-.5 1.9-.4-.3-1-.6-1.3-1.2m1.8 1.8c.5-.5 1.4-1.4 2.1-.7.7.6 0 1.6-.5 2.1-.6-.4-1.1-1-1.6-1.4m-56.1 1.8c1-.5 2.3.4 2.1 1.5-.1 1.5-1.9 3.4-3.4 2.3-1.2-1.2 0-3.2 1.3-3.8m6 3.7c1.1-.4 2.2.7 1.9 1.8-.1 1.3-1.5 3.1-3 2.3-1.6-1-.5-3.5 1.1-4.1m10.3 5.4c.1-.6.3-1.1.4-1.7.6.1 1.8.3 1.6 1.3-.3.9-1.4.6-2 .4m6.1 2.1c.3-.9.6-1.7.9-2.6.2.9.4 1.7.6 2.6zm-6.3-1.3c.7.1 1.8.4 1.8 1.3-.2 1.1-1.4.9-2.2.7.2-.6.3-1.3.4-2"
       class="st1"
       id="path6" />
  </g>
</svg>
