<?xml version="1.0" encoding="UTF-8" standalone="no"?>
<svg
   viewBox="1.1 0.9 164.2 164.7"
   version="1.1"
   id="svg4"
   sodipodi:docname="fc-groningen.svg"
   inkscape:version="1.4.2 (f4327f4, 2025-05-13)"
   xmlns:inkscape="http://www.inkscape.org/namespaces/inkscape"
   xmlns:sodipodi="http://sodipodi.sourceforge.net/DTD/sodipodi-0.dtd"
   xmlns="http://www.w3.org/2000/svg"
   xmlns:svg="http://www.w3.org/2000/svg">
  <defs
     id="defs4" />
  <sodipodi:namedview
     id="namedview4"
     pagecolor="#ffffff"
     bordercolor="#000000"
     borderopacity="0.25"
     inkscape:showpageshadow="2"
     inkscape:pageopacity="0.0"
     inkscape:pagecheckerboard="0"
     inkscape:deskcolor="#d1d1d1"
     inkscape:zoom="4.8998179"
     inkscape:cx="82.145909"
     inkscape:cy="82.349998"
     inkscape:window-width="1920"
     inkscape:window-height="1009"
     inkscape:window-x="-8"
     inkscape:window-y="-8"
     inkscape:window-maximized="1"
     inkscape:current-layer="svg4" />
  <clipPath
     id="a">
    <path
       d="M-12.3 83.6c0 52.7 42.7 95.3 95.3 95.3 52.7 0 95.3-42.7 95.3-95.3 0-52.7-42.7-95.3-95.3-95.3-52.6-.1-95.3 42.6-95.3 95.3"
       id="path1" />
  </clipPath>
  <circle
     cx="83.1"
     cy="83.2"
     r="71"
     fill="#fff"
     id="circle1" />
  <circle
     cx="80.8"
     cy="83"
     r="67.8"
     fill="#fff"
     id="circle2" />
  <path
     fill="#008e5a"
     d="M83.2.9C37.9.9 1.1 37.9 1.1 83.3s36.8 82.3 82.1 82.3 82.1-36.9 82.1-82.3S128.5.9 83.2.9M19.9 83.3c0-35 28.4-63.4 63.3-63.4s63.3 28.4 63.3 63.4-28.4 63.4-63.3 63.4-63.3-28.5-63.3-63.4"
     clip-path="url(#a)"
     id="path2" />
  <path
     fill="#008e5a"
     d="m122.4 56.2-33.5-20c-4.7-2.9-9-1.7-11.8-.2L43.4 56.8l-.1.1-.6.7c-1.5 1.7-3.3 3.7-3.3 7.6v38.4c0 3.9 1.8 6 3.3 7.6l.6.7.1.1L77 132.8c2.8 1.5 7.2 2.7 11.8-.2l33.5-20c3-2.1 4.6-4.8 4.6-8.1V91.7c0-3.9-3.5-4.9-5.3-4.9H56.9c-.2 0-.4.2-.4.4v11.4c0 .2.2.4.4.4h57c1 0 1.1 1.1 1.1 1.3v2.5c0 1.6-1.6 2.2-1.7 2.3L85.6 122c-2.1 1.1-4.3.9-5.5 0l-27.6-17.1c-1.5-1.3-1-3.5-1-3.6V67.5c0-.1-.4-2.2 1.1-3.7l27.5-17c1.1-.9 3.4-1.1 5.5 0l27.6 16.8c.1.1 1.7.7 1.7 2.3v2.5c0 .1-.1 1.2-1.1 1.2h-57c-.2 0-.4.2-.4.4v11.4c0 .2.2.4.4.4h64.7c1.8 0 5.3-1 5.3-4.9V64.3c.1-3.3-1.4-6.1-4.4-8.1"
     clip-path="url(#a)"
     id="path3" />
</svg>
