<?xml version="1.0" encoding="UTF-8" standalone="no"?>
<svg
   viewBox="0 -0.01 366.92 396.4"
   version="1.1"
   id="svg9"
   sodipodi:docname="fc-utrecht.svg"
   inkscape:version="1.4.2 (f4327f4, 2025-05-13)"
   xmlns:inkscape="http://www.inkscape.org/namespaces/inkscape"
   xmlns:sodipodi="http://sodipodi.sourceforge.net/DTD/sodipodi-0.dtd"
   xmlns="http://www.w3.org/2000/svg"
   xmlns:svg="http://www.w3.org/2000/svg">
  <defs
     id="defs9" />
  <sodipodi:namedview
     id="namedview9"
     pagecolor="#ffffff"
     bordercolor="#000000"
     borderopacity="0.25"
     inkscape:showpageshadow="2"
     inkscape:pageopacity="0.0"
     inkscape:pagecheckerboard="0"
     inkscape:deskcolor="#d1d1d1"
     inkscape:zoom="2.0358224"
     inkscape:cx="183.46394"
     inkscape:cy="198.2"
     inkscape:window-width="1920"
     inkscape:window-height="1009"
     inkscape:window-x="-8"
     inkscape:window-y="-8"
     inkscape:window-maximized="1"
     inkscape:current-layer="svg9" />
  <path
     fill="#040606"
     fill-rule="evenodd"
     d="M361.053 83.719 297.632 4.805H69.289L5.867 83.72c11.52 3.724 39.437 37.13 25.669 64.364-19.589 38.744-25.27 56.684-22.654 75.501 3.782 27.11 42.709 60.772 52.86 69.701 2.351 2.066 8.336 6.842 19.349 15.532 35.022 27.651 102.369 82.771 102.369 82.771.373-.305 67.348-55.12 102.37-82.77 11.013-8.691 16.998-13.467 19.349-15.533 10.152-8.929 49.078-42.59 52.86-69.701 2.617-18.817-3.066-36.757-22.654-75.501-13.769-27.234 14.148-60.64 25.668-64.364"
     id="path1" />
  <path
     fill="#1a181a"
     d="M29.016 221.535c.227 2.34 2.14 7.522 5.64 13.152 3.453 5.673 8.276 11.917 13.454 17.696 10.434 11.756 21.979 21.821 27.042 26.265.623.554 2.65 2.23 5.715 4.681a2030 2030 0 0 0 12.81 10.159c25.82 20.388 68.536 55.15 89.78 72.488 20.975-17.115 63.77-51.95 89.792-72.496 5.479-4.317 9.712-7.672 12.803-10.15 3.063-2.451 5.09-4.128 5.715-4.682 5.062-4.444 16.605-14.51 27.081-26.313 5.139-5.731 9.961-11.975 13.412-17.648 3.5-5.63 5.415-10.812 5.639-13.152l.005-.042.015-.098c.261-1.879.39-3.622.405-5.422a14 14 0 0 1-.003-.457c-.013-5.13-1.042-11.204-4.269-20.383-3.223-9.17-8.653-21.196-16.801-37.27-4.188-8.279-5.944-17.035-5.935-25.278q.004 0 .005-.053h-.002l.002-.203q0-.084.002-.193c.228-17.188 7.118-31.908 15.113-43.143a84 84 0 0 1 6.165-7.597l-44.708-55.657H79.021L34.317 81.396a85 85 0 0 1 6.188 7.628c8.032 11.29 14.97 26.148 15.096 43.508l-.231 5.244c-.597 6.668-2.39 13.53-5.714 20.104-8.139 16.057-13.57 28.08-16.792 37.25-3.241 9.215-4.265 15.305-4.27 20.443v.144c.003 1.891.132 3.71.406 5.678l-.008-.056z"
     id="path2" />
  <path
     fill="#fff"
     d="M287.893 25.739H79.021L34.317 81.396a85 85 0 0 1 6.188 7.628c8.034 11.29 14.97 26.148 15.096 43.508l-.232 5.244c-.596 6.668-2.39 13.53-5.713 20.105-8.138 16.056-13.568 28.078-16.792 37.25-3.241 9.214-4.265 15.304-4.27 20.442v.144c.003 1.891.132 3.71.405 5.678l-.007-.056.024.196c.227 2.34 2.14 7.522 5.64 13.152 3.453 5.673 8.276 11.917 13.454 17.696 10.434 11.756 21.978 21.821 27.043 26.265a94 94 0 0 0 2.348 1.96L307.707 50.404z"
     id="path3" />
  <path
     fill="#ed1a2f"
     fill-rule="evenodd"
     d="M80.867 283.33c3.09 2.478 7.323 5.833 12.81 10.158 25.82 20.388 68.536 55.15 89.78 72.488 20.975-17.115 63.77-51.95 89.792-72.496 5.479-4.317 9.712-7.672 12.803-10.15 3.063-2.451 5.09-4.128 5.715-4.682 5.062-4.444 16.605-14.51 27.081-26.313 5.139-5.731 9.961-11.975 13.412-17.648 3.5-5.63 5.415-10.812 5.639-13.152l.005-.042.015-.098c.261-1.879.39-3.622.405-5.422a14 14 0 0 1-.003-.457c-.013-5.13-1.042-11.204-4.269-20.383-3.223-9.17-8.653-21.196-16.801-37.27-4.188-8.279-5.944-17.035-5.935-25.278q.004 0 .005-.053h-.002l.002-.203q0-.084.002-.193c.228-17.188 7.118-31.908 15.113-43.143a84 84 0 0 1 6.165-7.597l-24.896-30.992L77.501 280.608c.91.745 2.032 1.656 3.366 2.721"
     id="path4" />
  <path
     fill="#fff"
     d="M353.83 223.616c-1.553 11.865-11.725 26.824-23.01 39.433-11.259 12.676-23.373 23.203-28.445 27.665-2.156 1.894-8.19 6.718-19.179 15.382-30.987 24.465-86.33 69.661-99.195 80.178l-.541.445q-.49-.404-1.063-.868c-14.622-11.956-68.472-55.91-98.673-79.755-10.99-8.664-17.022-13.488-19.179-15.382-5.072-4.462-17.187-14.989-28.444-27.665-11.286-12.609-21.46-27.568-23.01-39.433a57 57 0 0 1-.559-7.897c-.039-14.907 6.174-32.272 22.796-65.095 2.954-5.855 4.212-12.024 4.21-18.055-.03-12.774-5.429-24.896-12.087-34.185-3.35-4.648-7.032-8.59-10.701-11.565-1.595-1.271-3.17-2.38-4.754-3.282L71.323 9.68h224.274l59.327 73.858c-1.585.902-3.159 2.011-4.755 3.282-3.669 2.974-7.35 6.917-10.7 11.565-6.658 9.29-12.057 21.41-12.086 34.185-.003 6.031 1.254 12.2 4.209 18.055 16.623 32.823 22.835 50.188 22.795 65.095 0 2.653-.188 5.249-.558 7.897zm-17.943-92.193c-.1-10.732 5.078-22.004 11.284-30.29l-.007-.005s8.255-11.685 19.756-17.3l-1.71-2.208L299.671-.005H67.247L1.711 81.62 0 83.828c11.501 5.615 19.756 17.3 19.756 17.3l-.008.005c6.206 8.286 11.385 19.558 11.284 30.29-.002 4.873-.988 9.645-3.295 14.216-16.674 33.029-23.67 51.468-23.71 68.933 0 3.057.223 6.063.642 9.076 2.233 15.244 13.413 30.67 25.073 43.901 11.689 13.165 24.112 23.935 29.189 28.403 2.55 2.234 8.484 6.964 19.523 15.675C113.503 339.298 183.46 396.4 183.46 396.4c.044-.033 69.957-57.102 105.005-84.773 11.039-8.71 16.975-13.44 19.524-15.675 5.076-4.468 17.5-15.238 29.188-28.403 11.66-13.232 22.84-28.657 25.074-43.901.418-3.013.641-6.019.641-9.076-.039-17.465-7.035-35.904-23.71-68.933-2.306-4.571-3.293-9.343-3.295-14.216"
     id="path5" />
  <path
     fill="#040606"
     d="M344.203 75.028 103.534 315.695l-55.789-55.79L288.412 19.24z"
     id="path6" />
  <path
     fill="#ed1a2f"
     d="M118.4 134.012c-3.08-.244-6.16-.615-9.24-.615-3.074 0-6.154.371-9.233.615V49.547h46.916c-.251 1.726-.615 3.569-.615 5.297 0 1.724.364 3.57.615 5.295-7.512-.863-15.516-1.724-28.444-1.724v26.469h13.052c4.8 0 9.725-.492 14.896-1.104-.247 1.721-.616 3.57-.616 5.292 0 1.723.369 3.57.616 5.293-5.171-.49-10.096-1.109-15.02-1.109h-12.928z"
     id="path8" />
  <path
     fill="#ffffff"
     d="m 276.307,270.75 -2.487,9.728 c -6.784,3.498 -14.813,4.86 -22.388,4.86 -24.188,0 -42.503,-14.924 -42.503,-38.102 0,-29.51 20.348,-42.96 44.995,-42.96 7.459,0 16.508,1.923 23.063,5.54 -1.019,3.844 -1.699,7.685 -2.602,11.641 h -1.584 c -4.182,-6.102 -11.418,-10.397 -18.768,-10.397 -18.765,0 -26.338,17.976 -26.338,34.593 0,19.333 9.497,32.902 26.904,32.902 7.012,0 15.15,-3.622 20.238,-8.48 z"
     id="path9"
     sodipodi:nodetypes="ccssscccssscc" />
</svg>
