<?xml version="1.0" encoding="UTF-8" standalone="no"?>
<svg
   xml:space="preserve"
   id="Laag_1"
   x="0"
   y="0"
   version="1.1"
   viewBox="1 1.4 268.2 297.2"
   sodipodi:docname="go-ahead-eagles.svg"
   inkscape:version="1.4.2 (f4327f4, 2025-05-13)"
   xmlns:inkscape="http://www.inkscape.org/namespaces/inkscape"
   xmlns:sodipodi="http://sodipodi.sourceforge.net/DTD/sodipodi-0.dtd"
   xmlns="http://www.w3.org/2000/svg"
   xmlns:svg="http://www.w3.org/2000/svg"><defs
     id="defs36" /><sodipodi:namedview
     id="namedview36"
     pagecolor="#ffffff"
     bordercolor="#000000"
     borderopacity="0.25"
     inkscape:showpageshadow="2"
     inkscape:pageopacity="0.0"
     inkscape:pagecheckerboard="0"
     inkscape:deskcolor="#d1d1d1"
     inkscape:zoom="2.7153431"
     inkscape:cx="134.23718"
     inkscape:cy="148.60001"
     inkscape:window-width="1920"
     inkscape:window-height="1009"
     inkscape:window-x="-8"
     inkscape:window-y="-8"
     inkscape:window-maximized="1"
     inkscape:current-layer="Laag_1" /><style
     id="style1">.st0{fill:#1d1d1b}.st3{fill:#fff}.st4,.st5{fill-rule:evenodd;clip-rule:evenodd;fill:#1d1d1b}.st5{fill:#fff}</style><path
     d="m115.1 8 2.7 15.9 16.3-.6h1.8l16.3.6L154.9 8c9.8.7 20 1.9 30.5 3.8l-2.9 16.5 17.3 3.6L216 35l5.6-14.2c8.5 2.7 17.2 5.9 26 9.6-1.4 2.9-4.1 8.3-7.3 15.4 0 0 0 .1-.1.1-.7 1.7-1.5 3.4-2.3 5.3v.1c-.2.5-.5 1.1-.7 1.7 0 0 0 .1-.1.1-.2.5-.4 1.1-.7 1.6 0 .1-.1.1-.1.2-.2.5-.4 1.1-.6 1.6 0 .1-.1.2-.1.3-.2.5-.4 1.1-.6 1.6 0 .1-.1.2-.1.4-.2.5-.4 1-.6 1.6-.1.1-.1.3-.2.4-.2.5-.4 1-.6 1.6-.1.2-.1.3-.2.5l-.6 1.5c-.1.2-.1.4-.2.5l-.6 1.5c-.1.2-.1.4-.2.6-.2.5-.4 1-.5 1.5-.1.2-.2.4-.2.6-.2.5-.4 1-.5 1.5-.1.2-.2.5-.2.7-.2.5-.3 1-.5 1.5-.1.2-.2.5-.2.7-.2.5-.3 1-.5 1.5-.1.3-.2.5-.3.8-.2.5-.3 1-.5 1.5-.1.3-.2.5-.3.8-.2.5-.3 1-.5 1.5-.1.3-.2.5-.3.8-.2.5-.3 1-.5 1.5-.1.4-.2.8-.4 1.2-5.7 15.9-9.1 35.9-9.1 57.6 0 38.9 26.3 86.4 26.3 86.4 5.1 30.1-11.5 50-31.8 54.8l-1.2.3h-.1c-.4.1-.7.1-1.1.2h-.2c-.3.1-.6.1-1 .2-.1 0-.2 0-.3.1-.3 0-.6.1-.9.1-.1 0-.3 0-.4.1-.3 0-.5 0-.8.1h-3.6c-3.8 0-7.5-.5-11.3-1.5-5-1.4-9.7-2.2-14.1-2.6-2-.2-3.9-.2-5.7-.2q-3 0-5.7.3c-17.5 1.7-27.6 10.6-30.4 13.6h.1c-2.9-3-12.9-11.9-30.4-13.6q-2.7-.3-5.7-.3c-1.8 0-3.7.1-5.7.2-4.4.4-9.1 1.2-14.1 2.6-3.7 1-7.5 1.5-11.3 1.5h-3.6c-.3 0-.5 0-.8-.1-.1 0-.3 0-.4-.1-.3 0-.6-.1-.9-.1-.1 0-.2 0-.3-.1-.3 0-.6-.1-1-.2h-.2c-.4-.1-.8-.1-1.1-.2h-.1l-1.2-.3c-20.3-4.8-36.9-24.7-31.8-54.8 0 0 26.3-47.5 26.3-86.4 0-21.7-3.4-41.7-9.1-57.6-.1-.4-.2-.8-.4-1.2-.2-.5-.3-1-.5-1.5-.1-.3-.2-.5-.3-.8-.2-.5-.3-1-.5-1.5-.1-.3-.2-.5-.3-.8-.2-.5-.3-1-.5-1.5-.1-.3-.2-.5-.3-.8-.2-.5-.3-1-.5-1.5-.1-.2-.2-.5-.2-.7-.2-.5-.3-1-.5-1.5-.1-.2-.2-.5-.2-.7-.2-.5-.4-1-.5-1.5-.1-.2-.2-.4-.2-.6-.2-.5-.4-1-.5-1.5-.1-.2-.1-.4-.2-.6l-.6-1.5c-.1-.2-.1-.4-.2-.5l-.6-1.5c-.1-.2-.1-.3-.2-.5-.2-.5-.4-1-.6-1.6-.1-.1-.1-.3-.2-.4-.2-.5-.4-1.1-.6-1.6 0-.1-.1-.2-.1-.4-.2-.5-.4-1.1-.6-1.6 0-.1-.1-.2-.1-.3-.2-.5-.4-1.1-.6-1.6 0-.1-.1-.1-.1-.2-.2-.5-.4-1.1-.7-1.6 0 0 0-.1-.1-.1-.2-.6-.5-1.1-.7-1.7v-.1c-.4-.9-.8-1.9-1.2-2.8s-.7-1.7-1.1-2.5c0 0 0-.1-.1-.1-3.2-7.2-7.3-15.4-7.3-15.4s24.8-9.4 25.9-9.8L53.9 35l16.2-3.1 17.3-3.6-2.9-16.6c9.4-1.7 19.6-3 30.6-3.7m5-6.5-5.5.4c-10.4.7-20.9 2-31.1 3.8l-6 1 1 6 1.9 10.8L69 25.9 57.8 28 54 18.3l-2.2-5.6-5.6 2.1c-1.1.4-24.9 9.4-25.9 9.8L13.9 27l3 6c0 .1 4.1 8.2 7.1 15.2v.2c.4.8.7 1.7 1.1 2.5l1.2 2.7c.2.5.5 1.1.7 1.6v.1c.2.5.4 1.1.7 1.6l.1.1v.1c.2.5.4 1 .6 1.6v.1l.1.2c.2.5.4 1 .6 1.6l.1.2.1.2.6 1.5.1.2.1.2.6 1.5.1.2.1.3.6 1.5.1.2.1.3c.2.5.4 1 .5 1.5l.1.3.1.3c.2.5.4 1 .5 1.5l.1.3.1.4c.2.5.3 1 .5 1.5l.1.3.1.4c.2.5.3 1 .5 1.5l.1.3.1.4c.2.5.3 1 .5 1.5l.1.3.2.5c.2.5.3 1 .5 1.5l.1.3.2.5c.2.5.3 1 .5 1.5l.1.2.2.6c.1.5.3 1 .4 1.5l.1.4c.1.3.2.6.2.8v.2l.1.2c5.7 15.9 8.7 35.2 8.7 55.6 0 30.1-16.8 66.3-23.1 78.9l-1.8-.7-1.2 7.2c-2.7 15.6-.1 29.8 7.2 41.2 6.7 10.4 17.1 17.7 29.1 20.5h.1c.4.1.8.2 1.3.3h.2c.5.1.9.2 1.3.2h.2c.4.1.7.1 1.1.2h.4c.3 0 .6.1.9.1h.5c.2 0 .5 0 .7.1h4.6q6.6 0 12.9-1.8c4.4-1.2 8.8-2 13-2.4 1.7-.2 3.5-.2 5.2-.2s3.4.1 5.1.2c15.6 1.5 24.3 9.4 26.6 11.8l1.8 1.8h5.3l1.8-1.8c2.3-2.4 11.1-10.3 26.6-11.8 1.7-.2 3.4-.2 5.1-.2s3.4.1 5.2.2c4.2.4 8.6 1.2 13 2.4q6.3 1.8 12.9 1.8h4.5c.2 0 .5 0 .7-.1h.6c.3 0 .6-.1.9-.1h.4c.4-.1.7-.1 1.1-.2h.2c.5-.1.9-.2 1.3-.2h.2c.5-.1.9-.2 1.3-.3 12.1-2.9 22.4-10.2 29.1-20.5 7.4-11.4 9.9-25.7 7.2-41.2l-1.1-6.5-1.7.4c-6.2-12.2-23.4-48.9-23.4-79.3 0-20.4 3-39.6 8.7-55.6l.1-.2v-.2c.1-.3.2-.5.2-.8l.1-.4c.1-.5.3-1 .4-1.5l.2-.6.1-.2c.2-.5.3-1 .5-1.5l.1-.4.1-.4.1-.2c.1-.4.3-.8.4-1.2l.2-.5.1-.3c.2-.5.3-1 .5-1.5l.1-.2.2-.5v-.1c.2-.5.3-.9.5-1.4l.1-.4.1-.3c.2-.5.3-1 .5-1.4l.1-.3.1-.3c.2-.5.3-1 .5-1.5l.1-.3.1-.3c.2-.5.4-1 .5-1.5l.1-.3.1-.2.6-1.5.1-.2.1-.3.6-1.5.2-.4c.2-.5.4-1.1.6-1.6l.1-.3c.2-.5.4-1.1.6-1.6v-.1l.1-.2c.2-.5.4-1.1.6-1.6v-.2c.2-.5.4-1.1.7-1.6v-.1c.2-.6.5-1.1.7-1.6.7-1.7 1.5-3.5 2.2-5.2v-.1c3-6.8 5.5-11.9 7-14.9l.2-.3 2.9-5.8-5.9-2.5c-8.7-3.7-17.6-7-26.5-9.8l-5.4-1.7-2.1 5.3-3.8 9.5-11.2-2.5-11.5-2.4 1.9-10.7 1-6-6-1.1c-10.3-1.8-20.7-3.1-31.1-3.9l-5.5-.4-.9 5.6-1.8 10.6-11-.4h-2.2l-11 .4L121.1 7z"
     class="st0"
     id="path1" /><path
     d="M226.9 82c.2-.5.3-1 .5-1.5.1-.3.2-.5.3-.8.2-.5.3-1 .5-1.5.1-.3.2-.5.3-.8.2-.5.3-1 .5-1.5.1-.3.2-.5.3-.8.2-.5.3-1 .5-1.5.1-.2.2-.5.2-.7.2-.5.3-1 .5-1.5.1-.2.2-.5.2-.7.2-.5.4-1 .5-1.5.1-.2.2-.4.2-.6.2-.5.4-1 .5-1.5.1-.2.1-.4.2-.6l.6-1.5c.1-.2.1-.4.2-.5l.6-1.5c.1-.2.1-.3.2-.5.2-.5.4-1 .6-1.6.1-.1.1-.3.2-.4.2-.5.4-1.1.6-1.6 0-.1.1-.2.1-.4.2-.5.4-1.1.6-1.6 0-.1.1-.2.1-.3.2-.5.4-1.1.6-1.6 0-.1.1-.1.1-.2.2-.5.4-1.1.7-1.6 0 0 0-.1.1-.1.2-.6.5-1.1.7-1.7v-.1c.8-1.9 1.5-3.6 2.3-5.3 0 0 0-.1.1-.1 3.2-7.2 5.8-12.5 7.3-15.4-8.8-3.7-17.4-6.9-26-9.6L216.1 35l-16.2-3.1-17.3-3.6 2.9-16.5C175 9.9 164.8 8.7 155 8l-2.7 15.9-16.3-.6h-1.8l-16.3.6L115.1 8c-10.9.7-21.2 2.1-30.5 3.7l2.9 16.6-17.3 3.6L53.9 35l-5.7-14.4c-1.1.4-25.9 9.8-25.9 9.8s4.1 8.3 7.3 15.4c0 0 0 .1.1.1.4.8.7 1.7 1.1 2.5.4.9.8 1.8 1.2 2.8v.1c.2.5.5 1.1.7 1.7 0 0 0 .1.1.1.2.5.4 1.1.7 1.6 0 .1.1.1.1.2.2.5.4 1.1.6 1.6 0 .1.1.2.1.3.2.5.4 1.1.6 1.6 0 .1.1.2.1.4.2.5.4 1 .6 1.6.1.1.1.3.2.4.2.5.4 1 .6 1.6.1.2.1.3.2.5l.6 1.5c.1.2.1.4.2.5l.6 1.5c.1.2.1.4.2.6.2.5.4 1 .5 1.5.1.2.2.4.2.6.2.5.4 1 .5 1.5.1.2.2.5.2.7.2.5.3 1 .5 1.5.1.2.2.5.2.7.2.5.3 1 .5 1.5.1.3.2.5.3.8.2.5.3 1 .5 1.5.1.3.2.5.3.8.2.5.3 1 .5 1.5.1.3.2.5.3.8.2.5.3 1 .5 1.5.1.4.2.8.4 1.2 5.7 15.9 9.1 35.9 9.1 57.6 0 38.9-26.3 86.4-26.3 86.4-5.1 30.1 11.5 50 31.8 54.8l1.2.3h.1c.4.1.7.1 1.1.2h.2c.3.1.6.1 1 .2.1 0 .2 0 .3.1.3 0 .6.1.9.1.1 0 .3 0 .4.1.3 0 .5 0 .8.1h3.2c3.9 0 7.9-.4 11.8-1.5 5-1.4 9.7-2.2 14.1-2.6 2-.2 3.9-.3 5.7-.2q3 0 5.7.3c17.5 1.7 27.6 10.6 30.4 13.6h.1c2.9-3 12.9-11.9 30.4-13.6q2.7-.3 5.7-.3c1.8 0 3.8.1 5.7.2 4.4.4 9.1 1.2 14.1 2.6 3.9 1.1 7.9 1.6 11.8 1.5h3.2c.3 0 .5 0 .8-.1.1 0 .3 0 .4-.1.3 0 .6-.1.9-.1.1 0 .2 0 .3-.1.3 0 .6-.1 1-.2h.2c.4-.1.8-.1 1.1-.2h.1l1.2-.3c20.3-4.8 36.9-24.7 31.8-54.8 0 0-26.3-47.5-26.3-86.4 0-21.7 3.4-41.7 9.1-57.6 0-.2.1-.7.2-1.1"
     style="fill:#ffd600"
     id="path2" /><path
     d="M224.3 184.3c0 28-40 50.8-89.3 50.8s-89.3-22.7-89.3-50.8c0-28 40-50.8 89.3-50.8s89.3 22.8 89.3 50.8"
     style="fill-rule:evenodd;clip-rule:evenodd;fill:#c10230"
     id="path3" /><path
     d="M135.1 40.5c39.6 0 79.2 7.6 117.1 22.8-4.3 10.4-6.4 15.8-10.8 26.4C206.9 75.9 171 69 135.1 69S63.3 75.9 28.8 89.7c-4.4-10.6-6.5-16-10.8-26.4 37.9-15.2 77.5-22.8 117.1-22.8"
     class="st0"
     id="path4" /><path
     d="M135.1 34.4c-40.8 0-80.9 7.8-119.3 23.2L10 60l2.4 5.7c2.1 5.1 3.7 9.1 5.3 13 1.6 4 3.3 8 5.5 13.4l2.3 5.6 5.6-2.2c33.6-13.4 68.6-20.2 104-20.2 35.5 0 70.5 6.8 104 20.2l5.6 2.2L247 92c2.2-5.3 3.9-9.4 5.5-13.4 1.6-3.9 3.2-7.9 5.3-13l2.4-5.7-5.7-2.3C216 42.2 175.9 34.4 135.1 34.4"
     class="st0"
     id="path5" /><path
     d="M20.6 218.2c74.1 29.7 154.9 29.7 229 0 4.7 11.4 7 14.7 11.6 25.9-81.5 32.8-170.7 32.8-252.2 0 4.6-11.2 6.9-14.5 11.6-25.9"
     class="st3"
     id="path6" /><path
     d="M249.6 218.2c4.7 11.4 7 14.7 11.6 25.9-40.8 16.4-83.4 24.6-126.1 24.6S49.7 260.4 9 244.1c4.6-11.2 6.9-14.5 11.6-25.9 37.1 14.9 75.8 22.3 114.5 22.3s77.4-7.5 114.5-22.3m-232.3-7.9-2.3 5.6c-2.3 5.6-4 9.1-5.7 12.8-1.7 3.6-3.5 7.4-5.9 13.1L1 247.4l5.7 2.3c41.3 16.6 84.5 25 128.4 25s87.1-8.4 128.4-25l5.7-2.3-2.4-5.7c-2.4-5.7-4.1-9.4-5.9-13.1s-3.4-7.2-5.7-12.8l-2.3-5.6-5.6 2.2c-36.2 14.5-73.9 21.9-112.2 21.9S59 226.9 22.9 212.4z"
     class="st0"
     id="path7" /><path
     d="M 241.4,89.7 C 206.81667,75.84659 170.7469,68.946693 134.68288,69.00031 98.896942,69.053513 63.116668,75.95341 28.8,89.7 24.4,79.1 22.3,73.7 18,63.3 c 75.7,-30.4 158.4,-30.4 234.1,0 -4.2,10.4 -6.4,15.8 -10.7,26.4"
     class="st3"
     id="path8"
     sodipodi:nodetypes="cscccc" /><path
     d="M133.5 168.6c-10.4 0-20.2 5.2-26 13.8 0 0 0 .1-.1.1 0 .1-.1.1-.1.2v.1c-.4.6-.8 1.3-1.2 2-2.6 4.6-3.9 9.9-3.9 15.2 0 17.3 14.1 31.4 31.4 31.4S165 217.3 165 200c-.1-17.3-14.1-31.4-31.5-31.4"
     class="st3"
     id="path23" /><path
     d="M168 146.9c-.3 0-1-.1-1.4-1-.3-.7-.1-1.5.6-1.9.2-.2.5-.2.8-.2.4 0 .8.2 1.1.5.4.5.5 1.1.3 1.7-.3.5-.8.9-1.4.9"
     class="st4"
     id="path24" /><path
     d="M167.9 145.3c0 .1.1.1.1.1zm0-3c-.6 0-1.1.2-1.6.5-1.3.8-1.7 2.4-1.1 3.8.8 1.7 2.3 1.9 2.8 1.9 1.2 0 2.2-.7 2.7-1.7.5-1.1.3-2.4-.5-3.3-.6-.9-1.4-1.2-2.3-1.2"
     class="st3"
     id="path25" /><path
     d="M158.5 155.5c-1 0-1.5-.9-1.7-1.4-.2-.7.1-1.4.7-1.7.2-.1.5-.2.7-.2.4 0 .9.2 1.2.5s.9 1 .5 1.9c-.3.6-.8.9-1.4.9"
     class="st4"
     id="path26" /><path
     d="M158.3 153.7c.2.3.3.3.2.3 0 0-.2-.2-.2-.3m0-3c-.5 0-1 .1-1.4.3-1.3.7-1.9 2.1-1.5 3.5.3 1.2 1.5 2.5 3.1 2.5 1.2 0 2.2-.7 2.7-1.7.5-1.2.3-2.4-.7-3.5-.5-.8-1.4-1.1-2.2-1.1"
     class="st3"
     id="path27" /><path
     d="M178 134.3h.4c5-.5 11.2-3.2 15.3-6.9 2.3-2 3.8-4.3 4.6-6.5-5.1 1.9-17 3.2-19.9 1.7 0 0-.4-.4-.5-.6 4.6-2.6 8.1-5.6 10.8-9 3.5-4.6 5.3-9.9 5.3-15.8-6.4 7.8-13.6 10.8-17.1 11.3 1.2-1.6 2.2-3 2.9-4.3 1-2.2 2-5.2 2.6-8.7.7-4.4.3-8.5-1-12.1-2 5.6-9.1 15.8-12.5 16.9 1-3.9 1.6-7.8 1.5-11.1-.1-2.9-.6-5.1-1.6-6.7-2.7 12.6-11.5 19-16.8 22.8-2 1.4-3.5 2.5-3.9 3.4q-.75 1.65 0 3.6c.6 1.6 1.8 2.9 2.5 3.2.8.3 1.6.6 2.5.9 2.9.9 6 1.9 6.3 5 .1.8-.6 2.9-1.5 3.6-.3.2-.6.3-.8.2-.3-.1-.6-.2-.8-.2-.3 0-.7-.1-1.1-.1-.5-.1-1.1-.2-1.9-.2s-1.4.1-2 .3c-.3.1-.6.1-.8.1-.7.2-1.5.3-2.3-.1l-.9-.6c-.5-.8-1.1-1.4-1.7-2-1.1-1.2-2.1-2.2-1.7-3.5h.1c1.3.4 2.4.7 3.2.3l.1-.1-.1-.1c-2-2.4-2.7-4.1-2.4-5.8.5 0 1 .1 1.4.2h.1v-.2c-.6-.8-.8-2.8-1-4.7-.2-1.7-.4-3.4-.9-4.1 1.3-.4 2.1-.6 3.4-.4l.1-.2c-1.4-.7-2.4-2.2-3.5-3.6-.4-.5-.7-1-1-1.4 1.4-.8 2.1-1.9 2.2-3.4l-.2-.1c-.9 1-2.7 1.8-4.4 1.3-.3-.2-.6-.4-.8-.6-7.7-3.3-9.6-1.9-11.1 1.5l-.2.4c-.7-.1-1.2-.3-1.7-.2-4.8.7-2.7 5.4-2.7 5.4 1.4-2.8 5.9-1.1 5.8 1.4l-.1.1c-.5.3-1.3.6-2.2.7s-1.7 0-2.1-.3c-.1 0-.1-.1-.1-.1l-.6.3c0 .1 0 .3.1.6 0 .3 0 .5.1.7v.1c.2.5.6 1 1 1.3s.9.4 1.5.4c1.1-.2 1.8-.4 2.3-.6s.8-.4.9-.5c.1 0 .1 0 .1-.1-.1 3.5-3.1 4.5-5.4 4.7-.8 0-1.4-.1-1.8-.1h-.1v.1c.4 1.3 1.2 1.8 1.8 2.2.2.1.4.3.5.4v.1c-.6.8-2.5 1.1-4 .5l-.1-.1v.1c-.1 1.4 1.7 2.2 2.5 2.6.1 0 .2.1.3.1h-.1c-1.3.8-1.8 1.9-2.5 3.1-.6 1.3-1.3 2.7-3 4.2-.7.2-1.3.1-1.9-.1-.3 0-.5-.1-.8-.1-.6-.1-1.2-.2-2-.3-.8 0-1.4.1-1.9.2-.4.1-.8.1-1.1.1-.3.1-.5.1-.8.2s-.6 0-.8-.2c-.9-.7-1.6-2.8-1.5-3.6.3-3.1 3.4-4.1 6.3-5 .9-.3 1.7-.6 2.5-.9.7-.3 1.9-1.7 2.5-3.2q.75-1.95 0-3.6c-.4-.9-1.9-1.9-3.9-3.4-5.3-3.8-14.1-10.2-16.8-22.8-.9 1.5-1.5 3.8-1.6 6.7-.1 3.3.4 7.3 1.5 11.1-.8 0-1-.2-1-.2-4.8-3.6-9.5-11.1-11.5-16.7-1.4 3.6-1.7 7.7-1 12.1.5 3.5 1.6 6.5 2.6 8.7.8 1.3 1.8 2.7 2.9 4.3-3.5-.6-10.8-3.6-17.1-11.3.1 5.9 1.8 11.2 5.3 15.8q3.9 5.1 10.8 9c-.2.2-.6.5-.5.6-2.9 1.4-14.8.2-19.9-1.7.7 2.3 2.3 4.5 4.6 6.5 4.1 3.7 10.3 6.4 15.3 6.9h.4c.6 0 1.3.1 1.9 0-.1.5-.7 1.1-1.5 1.7-2 1.9-4.6 3.8-7.4 5.4-3.3 1.8-6.6 2.9-9.5 3.3 1.3 1 2.8 1.9 4.6 2.5 2.3.8 5 1.3 7.9 1.3 5.4.1 10.8-1.2 14.1-3.4-.2.4.2.1-.1 1.2-1.6 4-16.4 16.7-23 18h-.2l.1.1c4.7 1.5 10 1.5 15.3 0 5.8-1.7 12.7-6 17.5-10.8-.4 4.4-5.2 10.6-7.3 13.4-.2.3-.4.5-.5.7 2.4-1 5.8-3 9-5.5 3.3-2.6 9.2-7.8 11.8-13.9 0-.2 1-.4 1-.4.2.6.4 1.3.7 1.9 1 2.7 2 5.6.8 7.9-.8 1.5-2.5 2.7-5.2 3.4h-.2l.1.1c.1.1.3.2.4.3.5.4 1.1.8 1.1 1.2q0 .3-.3.6c-4.4 4-7 6.2-14.2 11.1l-.1.1.1.1c.2.1.4.1.5.2.4.1.7.3 1 .4.9.3 1.9.5 2.9.7 1.5.3 3 .7 4.6 1.2h.1v-.1c5.2 1.1 11.8 2.1 17.2 1.7 3.3-.3 11.8-.7 19-1.8v.2h.1c.7-.2 1.5-.4 2.2-.6 2.8-.5 5.2-1.1 6.9-1.9l.1-.1-.1-.1c-7.2-4.9-9.9-7.1-14.2-11.1q-.3-.3-.3-.6c0-.4.6-.9 1.1-1.2.1-.1.3-.2.4-.3l.1-.1h-.2c-2.7-.8-4.4-1.9-5.2-3.4-1.2-2.3-.2-5.2.8-7.9.2-.7.5-1.3.7-1.9l1 .4c2.6 6.1 8.5 11.3 11.8 13.9 3.2 2.5 6.6 4.5 9 5.5-.1-.2-.3-.4-.5-.7-2.1-2.7-6.9-9-7.3-13.4 4.8 4.8 11.7 9.2 17.5 10.8 5.3 1.5 10.6 1.5 15.3 0l.1-.1h-.2c-6.7-1.3-21.6-15.2-23.3-19.3.1 0 .1.1.2.1v-.1c3.4 2.2 8.7 3.5 14.1 3.4 2.9-.1 5.6-.5 7.9-1.3 1.8-.6 3.3-1.5 4.6-2.5-2.9-.4-6.2-1.5-9.5-3.3-2.9-1.6-5.5-3.4-7.4-5.4-.8-.6-1.4-1.2-1.5-1.7.4.3 1 .3 1.7.3"
     class="st5"
     id="path28" /><path
     d="M168.7 82.6c.9 1.5 1.5 3.8 1.6 6.7.1 3.3-.4 7.3-1.5 11.1 3.4-1.2 10.5-11.4 12.5-16.9 1.4 3.6 1.7 7.7 1 12.1-.5 3.5-1.6 6.5-2.6 8.7-.8 1.3-1.8 2.7-2.9 4.3 3.5-.6 10.8-3.6 17.1-11.3-.1 5.9-1.8 11.2-5.3 15.8q-3.9 5.1-10.8 9c.2.2.6.5.5.6.9.4 2.6.6 4.6.6 4.8 0 11.7-1 15.3-2.3-.7 2.3-2.3 4.5-4.6 6.5-4.1 3.7-10.3 6.4-15.3 6.9H176c.1.5.7 1.1 1.5 1.7 2 1.9 4.6 3.8 7.4 5.4 3.3 1.8 6.6 2.9 9.5 3.3-1.3 1-2.8 1.9-4.6 2.5-2.3.8-5 1.3-7.9 1.3h-.6c-5.2 0-10.3-1.3-13.5-3.4v.1s-.1-.1-.2-.1c1.6 4 16.6 17.9 23.3 19.3h.2l-.1.1c-2.3.8-4.8 1.1-7.4 1.1s-5.2-.4-7.9-1.2c-5.8-1.7-12.7-6-17.5-10.8.4 4.4 5.2 10.6 7.3 13.4.2.3.4.5.5.7-2.4-1-5.8-3-9-5.5-3.3-2.6-9.2-7.8-11.8-13.9l-1-.4c-.2.6-.4 1.3-.7 1.9-1 2.7-2 5.6-.8 7.9.8 1.5 2.5 2.7 5.2 3.4h.2l-.1.1c-.1.1-.3.2-.4.3-.5.4-1.1.8-1.1 1.2q0 .3.3.6c4.4 4 7 6.2 14.2 11.1l.1.1-.1.1c-1.7.8-4.2 1.4-6.9 1.9-.7.2-1.4.4-2.2.6h-.1v-.2c-7.2 1.1-15.6 1.5-19 1.8-.9.1-1.9.1-2.9.1-4.8 0-10-.8-14.3-1.8v.1h-.1c-1.6-.5-3.2-.9-4.6-1.2-1-.2-2-.5-2.9-.7-.3-.1-.7-.3-1-.4-.2-.1-.4-.1-.5-.2l-.1-.1.1-.1c7.2-4.9 9.9-7.1 14.2-11.1q.3-.3.3-.6c0-.4-.6-.9-1.1-1.2-.1-.1-.3-.2-.4-.3l-.1-.1h.2c2.7-.8 4.4-1.9 5.2-3.4 1.2-2.3.2-5.2-.8-7.9-.2-.7-.5-1.3-.7-1.9 0 0-1 .2-1 .4-2.6 6.1-8.5 11.3-11.8 13.9-3.2 2.5-6.6 4.5-9 5.5.1-.2.3-.4.5-.7 2.1-2.7 6.9-9 7.3-13.4-4.8 4.8-11.7 9.2-17.5 10.8-2.7.8-5.3 1.2-7.9 1.2s-5-.4-7.4-1.1l-.1-.1h.2c6.7-1.3 21.4-14 23-18 .3-1-.1-.8.1-1.2-3.2 2.1-8.3 3.4-13.5 3.4h-.6c-2.9-.1-5.6-.5-7.9-1.3-1.8-.6-3.3-1.5-4.6-2.5 2.9-.4 6.2-1.5 9.5-3.3 2.9-1.6 5.5-3.4 7.4-5.4.8-.6 1.4-1.2 1.5-1.7h-2.3c-5-.5-11.2-3.2-15.3-6.9-2.3-2-3.8-4.3-4.6-6.5 3.6 1.3 10.5 2.3 15.3 2.3 2.1 0 3.8-.2 4.6-.6 0 0 .4-.4.5-.6-4.6-2.6-8.1-5.6-10.8-9-3.5-4.6-5.3-9.9-5.3-15.8 6.4 7.8 13.6 10.8 17.1 11.3-1.2-1.6-2.2-3-2.9-4.3-1-2.2-2-5.2-2.6-8.7-.7-4.4-.3-8.5 1-12.1 2 5.6 6.7 13.1 11.5 16.7 0 0 .3.2 1 .2-1-3.9-1.6-7.8-1.5-11.1.1-2.9.6-5.1 1.6-6.7 2.7 12.6 11.5 19 16.8 22.8 2 1.4 3.5 2.5 3.9 3.4q.75 1.65 0 3.6c-.6 1.6-1.8 2.9-2.5 3.2-.8.3-1.6.6-2.5.9-2.9.9-6 1.9-6.3 5-.1.8.6 2.9 1.5 3.6q.3.3.6.3h.2c.3-.1.6-.2.8-.2.3 0 .7-.1 1.1-.1.5-.1 1.1-.2 1.9-.2s1.4.1 2 .3c.3.1.6.1.8.1.4.1.7.2 1.1.2.3 0 .5 0 .8-.1 1.7-1.5 2.4-2.9 3-4.2.6-1.2 1.2-2.3 2.5-3.1h.1c-.1 0-.2-.1-.3-.1-.9-.4-2.6-1.2-2.5-2.6v-.1l.1.1c.5.2 1.1.3 1.7.3 1 0 1.9-.3 2.3-.8.1-.1.1-.1 0-.1 0-.1-.2-.2-.5-.4-.6-.4-1.4-.9-1.8-2.2v-.1h.1c.3.1 1 .1 1.8.1 2.2-.2 5.2-1.2 5.4-4.7 0 0-.1 0-.1.1-.1.1-.4.3-.9.5s-1.2.4-2.3.6h-.2c-.5 0-.9-.1-1.2-.4-.5-.3-.8-.8-1-1.3v-.1c0-.1 0-.4-.1-.7 0-.2 0-.5-.1-.6l.6-.3.1.1c.3.2.9.3 1.5.3h.6c.9-.1 1.7-.3 2.2-.7l.1-.1c.1-1.6-1.7-2.9-3.4-2.9-1 0-1.9.4-2.4 1.5 0 0-2-4.7 2.7-5.4h.4c.4 0 .8.1 1.3.2l.2-.4c.9-2 2-3.3 4.3-3.3 1.6 0 3.7.6 6.8 1.9.3.2.6.4.8.6.4.1.7.2 1.1.2 1.3 0 2.6-.7 3.4-1.5l.2.1c-.1 1.5-.8 2.6-2.2 3.4.3.4.7.9 1 1.4 1 1.4 2.1 2.9 3.5 3.6l-.1.2c-.3-.1-.6-.1-.9-.1-.8 0-1.5.2-2.5.5.5.7.7 2.4.9 4.1.2 1.9.5 3.8 1 4.7v.2h-.1c-.4-.1-.8-.3-1.2-.3h-.2c-.3 1.7.4 3.4 2.4 5.8l.1.1-.1.1c-.3.1-.6.2-.9.2-.7 0-1.4-.2-2.3-.5h-.1c-.4 1.4.6 2.4 1.7 3.5.6.6 1.2 1.3 1.7 2l.9.6q.6.3 1.2.3c.4 0 .7-.1 1.1-.2.3 0 .5-.1.8-.1.6-.1 1.2-.2 2-.3.8 0 1.4.1 1.9.2.4.1.8.1 1.1.1.3.1.5.1.8.2h.2q.3 0 .6-.3c.9-.7 1.6-2.8 1.5-3.6-.3-3.1-3.4-4.1-6.3-5-.9-.3-1.7-.6-2.5-.9s-1.9-1.7-2.5-3.2q-.75-1.95 0-3.6c.4-.9 1.9-1.9 3.9-3.4 5.3-4.2 14.1-10.5 16.8-23.1m0-1.5h-.2c-.6.1-1.1.5-1.2 1.1-2.6 12.1-11.1 18.2-16.2 21.9-2.3 1.6-3.8 2.7-4.3 3.9-.1-1-.2-1.9-.4-2.7h.6c.2 0 .5 0 .7.1h.2c.6 0 1.2-.4 1.4-1l.1-.2c.2-.7-.1-1.4-.7-1.8-1.1-.6-2-1.9-2.9-3.2l-.1-.2s0-.1-.1-.1c1-.9 1.5-2.1 1.6-3.6 0-.6-.3-1.2-.9-1.4l-.2-.1c-.2-.1-.4-.1-.6-.1-.4 0-.8.2-1.1.5-.5.5-1.4 1-2.3 1h-.4c-.2-.2-.4-.3-.7-.5-.1-.1-.2-.1-.2-.1-3.2-1.4-5.5-2-7.4-2-3 0-4.4 1.7-5.4 3.6h-1.1c-2.3.4-3.3 1.5-3.8 2.4-1.2 2.2-.2 4.8 0 5.1.1.3.4.6.7.7-.2.3-.3.7-.2 1.1v.5c0 .3 0 .6.1.8v.2c0 .1 0 .1.1.2.4.8.9 1.4 1.5 1.9q.9.6 2.1.6h.6c-.7.4-1.6.6-2.4.7-.7 0-1.3-.1-1.5-.1h-.3c-.4 0-.8.2-1.1.5-.3.4-.4.9-.3 1.4v.1c.2.6.4 1.1.7 1.5-.2 0-.4-.1-.5-.2l-.1-.1c-.2-.1-.4-.1-.6-.1-.3 0-.5.1-.7.2-.4.2-.7.7-.7 1.1v.1c-.1 1.4.8 2.4 1.7 3.1-.6.7-.9 1.4-1.3 2.2-.6 1.1-1.1 2.2-2.4 3.5h-.1c-.2 0-.4 0-.7-.1h-.2c-.2 0-.5-.1-.7-.1-.5-.1-1.3-.3-2.2-.3h-.1c-.8 0-1.4.1-2 .2-.4.1-.7.1-.9.1h-.3c-.2 0-.4.1-.5.1-.4-.5-.9-1.8-.8-2.2.2-2 2.2-2.8 5.3-3.8.9-.3 1.8-.6 2.6-.9h.1c1.2-.6 2.6-2.3 3.3-4 .6-1.7.6-3.3 0-4.7-.6-1.2-2-2.3-4.3-3.9-5.1-3.7-13.6-9.8-16.2-21.9-.1-.6-.6-1-1.2-1.1h-.2c-.5 0-1 .3-1.3.7-1.1 1.8-1.7 4.3-1.8 7.4-.1 2.4.2 5.1.7 7.9-3.9-3.9-7.4-9.9-8.9-14.2-.2-.6-.7-1-1.4-1-.6 0-1.2.4-1.4.9-1.5 3.8-1.8 8.2-1.1 12.9.5 3.1 1.4 6.1 2.7 9.1 0 .1.1.1.1.2l.6.9c-3.5-1.5-8.2-4.5-12.4-9.6-.3-.3-.7-.5-1.1-.5-.2 0-.3 0-.5.1-.6.2-1 .8-1 1.4.1 6.3 2 11.9 5.7 16.7 2.2 2.9 5 5.4 8.6 7.7-.5 0-1.1.1-1.8.1-4.8 0-11.4-1-14.8-2.3-.2-.1-.3-.1-.5-.1-.4 0-.7.1-1 .4-.4.4-.6 1-.4 1.5.8 2.6 2.5 5 5 7.2 4.1 3.6 10.2 6.4 15.4 7.1-1.8 1.6-4 3.2-6.4 4.5-3.2 1.7-6.3 2.8-9 3.1-.6.1-1.1.5-1.2 1-.2.6 0 1.2.5 1.5 1.4 1.2 3.1 2.1 5.1 2.8 2.4.9 5.3 1.4 8.4 1.4h.7c3.6 0 7.2-.6 10.3-1.7-4.4 5-15.2 13.6-20.2 14.6h-.2c-.5.1-1 .5-1.1 1s0 1.1.4 1.5l.1.1c.2.1.3.2.5.3q3.75 1.2 7.8 1.2c2.7 0 5.5-.4 8.3-1.2 4.4-1.3 9.5-4 13.9-7.4-1.7 3.1-4 6.2-5.2 7.7l-.2.2c-.1.2-.3.3-.4.5-.4.5-.4 1.3 0 1.8q.45.6 1.2.6c.2 0 .4 0 .6-.1 2.6-1.1 6.1-3.2 9.3-5.7 3.1-2.4 8.3-7 11.3-12.6.8 2.3 1.6 4.7.8 6.4-.6 1.2-2 2-4.3 2.7h-.1c-.5.1-.9.6-1.1 1.1-.1.5.1 1.1.5 1.4l.1.1c.1.1.2.2.3.2l.1.1h.1s.1 0 .1.1c-4 3.7-6.7 5.8-13.5 10.4l-.1.1c-.4.3-.7.8-.6 1.4.1.5.4 1 .9 1.2l.1.1c.2.1.4.1.6.2.4.1.7.3 1.1.4h.1c.9.3 1.8.5 2.8.7h.2q2.25.45 4.5 1.2h.1c.1 0 .3.1.4.1s.3 0 .4-.1c5.3 1.1 10 1.7 13.9 1.7 1.1 0 2.1 0 3-.1.8-.1 1.9-.1 3.1-.2 3.9-.3 9.7-.7 15-1.4.2.1.4.2.7.2.1 0 .3 0 .4-.1h.1q.9-.3 2.1-.6c3.1-.6 5.5-1.2 7.2-2h.1q.75-.3.9-1.2c.1-.5-.2-1-.6-1.4l-.1-.1c-6.8-4.6-9.5-6.7-13.5-10.4 0 0 .1 0 .1-.1l.1-.1.3-.3.1-.1c.4-.4.6-.9.5-1.4s-.5-1-1.1-1.1h-.1c-2.3-.7-3.7-1.5-4.3-2.7-.8-1.7-.1-4 .8-6.4 3 5.6 8.3 10.2 11.3 12.6 3.2 2.5 6.7 4.7 9.3 5.7.2.1.4.1.6.1.4 0 .9-.2 1.2-.6.4-.5.4-1.3 0-1.8-.1-.2-.3-.4-.5-.7-1.2-1.5-3.5-4.6-5.2-7.7 4.4 3.4 9.5 6.2 13.9 7.4 2.8.8 5.6 1.2 8.3 1.2s5.4-.4 7.8-1.2c.2-.1.4-.2.5-.3l.1-.1c.4-.4.6-.9.4-1.5-.1-.5-.6-.9-1.1-1h-.2c-2.6-.5-7.6-3.7-12.8-8.3-2.5-2.2-4.6-4.2-6.2-6 2.8.8 5.9 1.3 9.1 1.3h.7c3-.1 5.9-.5 8.4-1.4 1.9-.7 3.6-1.6 5.1-2.8.4-.4.6-1 .5-1.5-.2-.6-.6-1-1.2-1-2.7-.4-5.8-1.5-9-3.1-2.4-1.3-4.6-2.9-6.4-4.5 5.3-.7 11.4-3.5 15.4-7.1 2.5-2.2 4.2-4.6 5-7.2.2-.5 0-1.1-.4-1.5-.3-.3-.6-.4-1-.4-.2 0-.3 0-.5.1-3.4 1.2-10 2.3-14.8 2.3-.7 0-1.3 0-1.8-.1 3.5-2.3 6.3-4.9 8.6-7.7 3.7-4.8 5.6-10.4 5.7-16.7 0-.6-.4-1.2-1-1.4-.2-.1-.3-.1-.5-.1-.4 0-.8.2-1.1.5-4.2 5.1-8.9 8.1-12.4 9.6l.6-.9c0-.1.1-.1.1-.2 1.3-3 2.2-6 2.7-9.1.7-4.7.3-9-1.1-12.9-.2-.6-.8-.9-1.4-.9s-1.2.4-1.4 1c-1.4 4.1-5.6 10.4-8.8 13.8.5-2.7.7-5.3.6-7.6-.1-3.1-.7-5.6-1.8-7.4-1.1-.1-1.6-.4-2.1-.4m-22.4 33.8c.3 0 .5-.1.8-.2.1-.1.3-.2.4-.3.7 1.1 1.6 2.1 2.5 2.5h.1c.8.3 1.7.6 2.6.9 3.1 1 5.1 1.8 5.3 3.8 0 .4-.4 1.7-.8 2.2-.2 0-.4-.1-.5-.1h-.3c-.2 0-.5-.1-.9-.1-.6-.1-1.2-.2-2-.2h-.1c-.9 0-1.7.2-2.2.3-.2 0-.5.1-.7.1h-.2c-.3.1-.6.1-.7.1-.2 0-.3 0-.4-.1-.2-.1-.4-.3-.6-.4-.5-.8-1.2-1.4-1.7-2l-.5-.5h.2c.6 0 1.1-.1 1.6-.3l.1-.1c.4-.2.7-.6.8-1s0-.9-.3-1.2l-.1-.1c-1.6-1.5-2.2-2.5-2.4-3.3"
     class="st3"
     id="path29" /><path
     d="M108.9 155.5c-.6 0-1.1-.3-1.4-.9-.4-.9.2-1.6.5-1.9.3-.4.7-.5 1.2-.5.2 0 .5.1.7.2.6.3.9 1.1.7 1.7-.1.5-.7 1.4-1.7 1.4"
     class="st4"
     id="path30" /><path
     d="M109.2 153.7c0 .2-.2.3-.2.3-.1 0 0-.1.2-.3m0-3h-.2c-.5 0-1 .2-1.5.5-.2.1-.4.3-.6.5l-.1.1c-1 1.2-1.2 2.4-.6 3.5.5 1.1 1.6 1.7 2.7 1.7 1.5 0 2.6-1.1 3-2.2.2-.4.2-.8.2-1.2 0-1.6-1.3-2.9-2.9-3zM123.1 106.9c-1.4 0-2.7-.9-4.5-3.1-.4-.6-.4-1.4.1-1.9s1.3-.6 1.9-.3c1.6 1 2.2 1.1 2.4 1.1.1 0 .1 0 .4-.2.4-.2 1-.6 1.9-.6 1 0 2.2.4 3.7 1.4.5.2.8.7.8 1.3 0 .8-.6 1.4-1.4 1.5-.1 0-.3 0-.4-.1-.4-.1-.9-.2-1.2-.2-.7 0-1.1.2-1.7.4-.6.4-1.3.7-2 .7"
     class="st3"
     id="path31" /><path
     d="M119.7 102.9c5.7 3.6 3-1.6 8.6 1.8-4.7-1.4-4.4 3.5-8.6-1.8M133.5 170.1c-10.3 0-19.5 5.2-24.8 13.2-.1.1-.1.2-.2.3-.4.6-.8 1.3-1.1 1.9-2.4 4.3-3.8 9.3-3.8 14.5 0 16.5 13.4 29.9 29.9 29.9s29.9-13.4 29.9-29.9c.1-16.5-13.3-29.9-29.9-29.9"
     class="st4"
     id="path32" /><path
     d="M167.9 145.3q.15.15 0 0m-9.6 8.4c.1.2.5.6 0 0m19.7-19.4h.4c5-.5 11.2-3.2 15.3-6.9 2.3-2 3.8-4.3 4.6-6.5-5.1 1.9-17 3.2-19.9 1.7 0 0-.4-.4-.5-.6 4.6-2.6 8.1-5.6 10.8-9 3.5-4.6 5.3-9.9 5.3-15.8-6.4 7.8-13.6 10.8-17.1 11.3 1.2-1.6 2.2-3 2.9-4.3 1-2.2 2-5.2 2.6-8.7.7-4.4.3-8.5-1-12.1-2 5.6-9.1 15.8-12.5 16.9 1-3.9 1.6-7.8 1.5-11.1-.1-2.9-.6-5.1-1.6-6.7-2.7 12.6-11.5 19-16.8 22.8-2 1.4-3.5 2.5-3.9 3.4q-.75 1.65 0 3.6c.6 1.6 1.8 2.9 2.5 3.2.8.3 1.6.6 2.5.9 2.9.9 6 1.9 6.3 5 .1.8-.6 2.9-1.5 3.6-.3.2-.6.3-.8.2-.3-.1-.6-.2-.8-.2-.3 0-.7-.1-1.1-.1-.5-.1-1.1-.2-1.9-.2s-1.4.1-2 .3c-.3.1-.6.1-.8.1-.7.2-1.5.3-2.3-.1l-.9-.6c-.5-.8-1.1-1.4-1.7-2-1.1-1.2-2.1-2.2-1.7-3.5h.1c1.3.4 2.4.7 3.2.3l.1-.1-.1-.1c-2-2.4-2.7-4.1-2.4-5.8.5 0 1 .1 1.4.2h.1v-.2c-.6-.8-.8-2.8-1-4.7-.2-1.7-.4-3.4-.9-4.1 1.3-.4 2.1-.6 3.4-.4l.1-.2c-1.4-.7-2.4-2.2-3.5-3.6-.4-.5-.7-1-1-1.4 1.4-.8 2.1-1.9 2.2-3.4l-.2-.1c-.9 1-2.7 1.8-4.4 1.3-.3-.2-.6-.4-.8-.6-7.7-3.3-9.6-1.9-11.1 1.5l-.2.4c-1.1-.2-1.8-.2-2.4-.1-4.3 1.4-2.1 5.3-2.1 5.3 1.1-2.5 5.7-1.7 5.8 1.5 0 0-.9.7-2.5.8-.8 0-1.6 0-2-.3-.1 0-.1-.1-.1-.1l-.6.3c0 .1 0 .3.1.6 0 .3 0 .5.1.7v.1c.2.5.6 1 1 1.3s.9.4 1.5.4c1.1-.2 1.8-.4 2.3-.6s.8-.4.9-.5c.1 0 .1 0 .1-.1-.1 3.5-3.1 4.5-5.4 4.7-.8 0-1.4-.1-1.8-.1h-.1v.1c.4 1.3 1.2 1.8 1.8 2.2.2.1.4.3.5.4v.1c-.6.8-2.5 1.1-4 .5l-.1-.1v.1c-.1 1.4 1.7 2.2 2.5 2.6.1 0 .2.1.3.1h-.1c-1.3.8-1.8 1.9-2.5 3.1-.6 1.3-1.3 2.7-3 4.2-.7.2-1.3.1-1.9-.1-.3 0-.5-.1-.8-.1-.6-.1-1.2-.2-2-.3-.8 0-1.4.1-1.9.2-.4.1-.8.1-1.1.1-.3.1-.5.1-.8.2s-.6 0-.8-.2c-.9-.7-1.6-2.8-1.5-3.6.3-3.1 3.4-4.1 6.3-5 .9-.3 1.7-.6 2.5-.9.7-.3 1.9-1.7 2.5-3.2q.75-1.95 0-3.6c-.4-.9-1.9-1.9-3.9-3.4-5.3-3.8-14.1-10.2-16.8-22.8-.9 1.5-1.5 3.8-1.6 6.7-.1 3.3.4 7.3 1.5 11.1-.8 0-1-.2-1-.2-4.8-3.6-9.5-11.1-11.5-16.7-1.4 3.6-1.7 7.7-1 12.1.5 3.5 1.6 6.5 2.6 8.7.8 1.3 1.8 2.7 2.9 4.3-3.5-.6-10.8-3.6-17.2-11.3.1 5.9 1.8 11.2 5.3 15.8q3.9 5.1 10.8 9c-.2.2-.6.5-.5.6-2.9 1.4-14.8.2-19.9-1.7.7 2.3 2.3 4.5 4.6 6.5 4.1 3.7 10.3 6.4 15.3 6.9h.4c.6 0 1.3.1 1.9 0-.1.5-.7 1.1-1.5 1.7-2 1.9-4.6 3.8-7.4 5.4-3.3 1.8-6.6 2.9-9.5 3.3 1.3 1 2.8 1.9 4.6 2.5 2.3.8 5 1.3 7.9 1.3 5.4.1 10.8-1.2 14.1-3.4-.2.4.2.1-.1 1.2-1.6 4-16.4 16.7-23 18h-.2l.1.1c4.7 1.5 10 1.5 15.3 0 5.8-1.7 12.7-6 17.5-10.8-.4 4.4-5.2 10.6-7.3 13.4-.2.3-.4.5-.5.7 2.4-1 5.8-3 9-5.5 3.3-2.6 9.2-7.8 11.8-13.9 0-.2 1-.4 1-.4.2.6.4 1.3.7 1.9 1 2.7 2 5.6.8 7.9-.8 1.5-2.5 2.7-5.2 3.4h-.2l.1.1c.1.1.3.2.4.3.5.4 1.1.8 1.1 1.2q0 .3-.3.6c-4.4 4-7 6.2-14.2 11.1l-.1.1.1.1c.2.1.4.1.5.2.4.1.7.3 1 .4.9.3 1.9.5 2.9.7 1.5.3 3 .7 4.6 1.2h.1v-.1c5.2 1.1 11.8 2.1 17.2 1.7 3.3-.3 11.8-.7 19-1.8v.2h.1c.7-.2 1.5-.4 2.2-.6 2.8-.5 5.2-1.1 6.9-1.9l.1-.1-.1-.1c-7.2-4.9-9.9-7.1-14.2-11.1q-.3-.3-.3-.6c0-.4.6-.9 1.1-1.2.1-.1.3-.2.4-.3l.1-.1h-.2c-2.7-.8-4.4-1.9-5.2-3.4-1.2-2.3-.2-5.2.8-7.9.2-.7.5-1.3.7-1.9l1 .4c2.6 6.1 8.5 11.3 11.8 13.9 3.2 2.5 6.6 4.5 9 5.5-.1-.2-.3-.4-.5-.7-2.1-2.7-6.9-9-7.3-13.4 4.8 4.8 11.7 9.2 17.5 10.8 5.3 1.5 10.6 1.5 15.3 0l.1-.1h-.2c-6.7-1.3-21.6-15.2-23.3-19.3.1 0 .1.1.2.1v-.1c3.4 2.2 8.7 3.5 14.1 3.4 2.9-.1 5.6-.5 7.9-1.3 1.8-.6 3.3-1.5 4.6-2.5-2.9-.4-6.2-1.5-9.5-3.3-2.9-1.6-5.5-3.4-7.4-5.4-.8-.6-1.4-1.2-1.5-1.7.7.2 1.3.2 2 .2m-68.8 19.4c-.5.6-.1.2 0 0m6.8 21.8c5.1-4.3 13.1-5.5 16.2-5.3 0-.4.1-.9-.4-1.1-1.1 0-2.4-.9-2.8-.7-.4-2.7-.7-2 .6-3.8-2.4.2-3.3.6-4.5 2-.3.4-.2 1-.4 1.4-.1.2-5.4 1.9-8.6 5.1-.3 1.2 0 .7-.1 1.5m34.1.1c.2-1 .2-.4.2-1.6-3.4-2.9-8.1-5.1-8.3-5.1-.8-.2-.2-1.2-.4-1.4-1.2-1.3-2.3-2-4.6-2.1 1 1.5 1.3.9.8 3.8-.9 0-2.2 1-3.3.7-.4.3-.6.9-.6 1.2 3.1-.1 9.6.6 16.2 5.6m-43.9-74.3c-2.8-2.2-4.8-5.8-6.1-9.2-.2 3.9.9 7.2 3 10.6 1.1-.9 1.7-1.2 3.1-1.4m-7.5 4.5c-3.1-2.1-6.4-6.2-7.8-9.7-.1 4.1 1.8 8.9 4.6 12.1.3-.9 2.5-2.1 3.2-2.4m-5.7 8.7c-3-.7-7.2-2.8-9.3-5.1 1.2 3.2 5.1 7.2 8.3 8.8.1-1.8.5-2.6 1-3.7m-.3 12.1c-2.9.5-6.8.4-9.8.2 2.9 2.4 6.7 3.5 10.3 3.3-.4-1.2-.8-2.6-.5-3.5m3 10.4c-2.4 2.6-6.3 5.3-10.6 6.4 5.5.7 9.9-.8 13.6-2.7-1.2-.7-2.7-1.8-3-3.7m8.1 10.3c-1.8 3.2-5.5 7.3-8.5 8.9 4.4.1 8.9-3.2 11.8-6.2-1-.2-2.6-1.3-3.3-2.7m8.3 5.3c-.2 2.1-1.4 5.1-3.2 7.5 3-1.5 6.4-4.4 7.7-7.1-1.5.2-3.2 0-4.5-.4m-1.9-48.4c-1.2-3-6.1-1.8-5.1 1.6 1.8-1.6 2.6-1.6 5.1-1.6m-7.8 4.3c-2.6-2.3-6.8 1.4-4.2 4.1.9-2.4 1.8-2.8 4.2-4.1m-6.1 7.2c-3-.2-4.1 5.3-.6 5.8-.4-2.4 0-4 .6-5.8m.4 8.4c-3.2 1.1-1.8 7 1.7 6.2-1.5-2.1-1.8-3.6-1.7-6.2m2.3 9.9c-1.9 2.3.5 6.7 3.8 4.8-2.1-1.3-2.9-2.5-3.8-4.8m6.1 8.6c-1.5 2.9 1.9 6.2 4.9 3.8-2.3-.6-3-1.9-4.9-3.8m17.9 20c3 1.4 5.9-3.3 5.9-6.5-1.3 2.1-3.9 5.1-5.9 6.5m21.1.5c-1.9-1.6-4.2-4.9-5.4-7-.1 3.1 2.4 8 5.4 7m-31-16.2c0 3.2 5.5 5.2 6.6 1.2-1.9.2-3.2 0-4.9-.5-.4-.1-1.1-.5-1.7-.7m48.1-45.6c1.4.2 2 .5 3.1 1.3 2.1-3.4 3.2-6.6 3-10.6-1.3 3.5-3.3 7.1-6.1 9.3m7.7 3.9c.7.4 2.8 1.6 3.2 2.4 2.8-3.2 4.7-8 4.6-12.1-1.4 3.6-4.8 7.6-7.8 9.7m5.7 8.8c.5 1.2.9 1.9 1.1 3.8 3.2-1.6 7.1-5.6 8.3-8.8-2.3 2.2-6.4 4.3-9.4 5m.8 12.6c.3.9-.1 2.4-.5 3.5 3.6.2 7.3-.9 10.3-3.3-3.1.2-6.9.2-9.8-.2m-3.1 10.4c-.3 1.8-1.8 3-3 3.7 3.8 1.9 8.1 3.4 13.6 2.7-4.2-1.1-8.2-3.8-10.6-6.4m-8 10.3c-.7 1.4-2.3 2.5-3.2 2.7 2.9 3 7.4 6.3 11.8 6.2-3.1-1.5-6.8-5.6-8.6-8.9m-8.6 5.3c-1.3.5-3 .6-4.5.4 1.3 2.8 4.6 5.6 7.7 7.1-1.8-2.4-3-5.4-3.2-7.5m1.5-48.4c2.5 0 3.3 0 5.1 1.6 1-3.3-3.8-4.6-5.1-1.6m8 3.8c2.4 1.3 3.2 1.6 4.2 4.1 2.5-2.8-1.6-6.4-4.2-4.1m6.1 7.2c.6 1.8 1 3.4.6 5.8 3.5-.5 2.4-6-.6-5.8m0 8.9c.1 2.6-.2 4.1-1.7 6.2 3.6.8 5-5.1 1.7-6.2m-2.2 9.9c-.9 2.3-1.7 3.5-3.8 4.8 3.3 1.9 5.7-2.5 3.8-4.8m-6.2 8.6c-1.9 1.9-2.5 3.3-4.9 3.8 3 2.4 6.4-.9 4.9-3.8m-8 4.3c-.6.2-1.2.6-1.7.7-1.7.5-3.1.7-4.9.5 1.2 4.1 6.6 2 6.6-1.2m-22-48.3c.1.6.6 1 1.2 1 .7 0 1.3-.6 1.3-1.3 0-.3-.1-.5-.2-.7-.9.3-1.7.7-2.3 1m5.9 62.9s-.4-.6-.5-.8c-.5-.7-1.5-1.8-1.7-1.9l-.3-.3c-.6.7-.7 1-1.2 1.2-.1-.1-1.3-1.4-1.5-1.3h-.2c-.3 0-1.4 1.2-1.5 1.3-.5-.2-.6-.5-1.2-1.2l-.3.3c-.1.1-1.2 1.1-1.7 1.9-.2.2-.5.8-.5.8-.3.2 1.6-1.2 2-.9.8.1 1.5.8 2 1.1.3-.7.8-2.3 1.2-2.5.4.2.9 1.9 1.2 2.5.5-.2 1.2-1 2-1.1.6-.2 2.5 1.1 2.2.9"
     class="st4"
     id="path33" /><path
     d="M125.2 105.6v1.1c.2.5.6.9.9 1.2.4.3.8.4 1.3.3 1-.2 1.8-.3 2.3-.6.5-.2.7-.3.8-.5h.1q1.05-.45 1.5-1.5c.2-.5.3-1.2.3-1.9 0-1.2-.5-2.6-1.2-3.7-.7-1-1.6-1.7-2.4-1.8-1.1-.3-2.1-.3-3 .1-.4.2-.8.5-1.1.8s-.6.7-.7 1.2c-.2.8-.2 1.6.2 2.4l.1.2.1-.1c.1-.1.1-.2.1-.3.2-.3.3-.5 1-.7.5 0 .8-.1 1.2-.1.9 0 1.5.1 2 .4.8.4 1.2 1.3 1.5 2.6v.1l-.1.1-.1.1-.1.1c-.7.5-1.9.7-2.3.7h-.6c-.5 0-1.2-.1-1.6-.3h-.1z"
     class="st3"
     id="path34" /><path
     d="M127.4 108.4c-.4 0-.8-.1-1.2-.4s-.8-.7-1-1.3v-.1c0-.1 0-.4-.1-.6v-.8l.6-.3.2.1c.4.2 1.2.3 2.1.3.5 0 1.6-.2 2.2-.7 0 0 .1 0 .1-.1-.2-1.2-.7-2-1.4-2.4-.5-.3-1.1-.4-1.9-.4-.3 0-.7 0-1.2.1-.6.2-.7.3-.8.6 0 .1-.1.2-.2.3l-.3.5-.2-.6c-.4-.9-.4-1.8-.2-2.6.2-.5.4-.9.8-1.3q.45-.6 1.2-.9c.9-.4 2-.4 3.1-.1.9.1 1.8.8 2.6 1.9.7 1.1 1.2 2.6 1.2 3.8 0 .8-.1 1.5-.4 2-.3.7-.8 1.3-1.6 1.6-.1.1-.4.3-.9.5q-.9.3-2.4.6c-.2.3-.3.3-.3.3m-1.9-2.7s0 .1 0 0v.9c.2.4.5.8.9 1.1.4.2.7.3 1.1.3.9-.1 1.7-.3 2.2-.5.4-.2.7-.3.8-.4l.1-.1c.7-.3 1.1-.7 1.4-1.4.2-.5.3-1.1.3-1.9 0-1.1-.4-2.5-1.1-3.6-.6-1-1.5-1.6-2.3-1.7-1.1-.3-2-.3-2.8 0-.4.2-.8.4-1.1.7s-.5.7-.6 1.1c-.2.6-.2 1.3.1 2 .2-.3.4-.5 1.1-.8h.1c.5-.1.9-.1 1.3-.1.9 0 1.6.2 2.2.5.8.5 1.3 1.4 1.6 2.8v.3l-.2.2-.1.1-.1.1c-.7.5-1.9.7-2.5.8-1.1 0-1.9-.1-2.4-.4"
     class="st0"
     id="path35" /><path
     d="M159.9 194.3c-1.2-5.3-3.5-9.3-7-12.9-.2-.2-.5.2-.5.2 0 .5.2.6.5.9l1.9 3c0 .5-.5 1.2-.7.9-2.1-2.8-1.8-3.5-4.2-4.2-2.8-.4-5.3.2-8.1.2-1.3-3-3.8-5.7-6.8-7.4l2.5-2.1c-6-1.7-13.7.4-18.8 3.7h-.2c.8.2 1.4.2 2.1.5 3-1.2 6-2.5 10.2-2.8l.2 1.6c-.7.1-2.5.4-4.3 1-2.7.8-5.3 1.6-5.9 3.8-.7 2.1-.7 4.2-.2 6.1.7.9 1.4 1.4 2.3 2.3 1.1 1.2 2.5 1.9 3.7 3.3-.2.4-.2.9-.9.9-3.2-.7-5.2-6-9-5.3-.7.4-1.4.9-1.9 1.3-1.7 1.3-3.4 3.1-5.1 4-.9-1.4-.7-3.7-.7-5.5-1.2 1.1-1.6 3.2-2.3 4.8-.5 3-1.2 5.6-1 8.3 0 1.6.2 3 .5 4.4l.9 3.2c.5-.7.5-2.1.9-3-.7-3.5-.9-7.2.2-10.2h1.4c.2 0 .2 0 .2.2-.2.5-.3 1.3-.4 2-.1 3.1-.3 5.9 1.5 7.7 2.2 2.3 3.5 3.3 5.8 4.1 3-1.5 5.8-2.9 8.3-4.6.5-3.4.2-7.6 2.3-10.6 2.9-1.6 6.8-1.5 10.3-1.7 1.4-2.3 2.4-5.2 2.9-8h1.8c.3 3-3.2 6.7-2.3 9.5 1.3 1.6 3 3 3.8 4.6.5.9.6 1.8 1.2 2.5 2.1.9 4.8.9 7.2 1.4v1.7c-2.4.5-4.6-.2-6.9-.5-2.3 2.9-5.3 6.5-9 7.8-3.7-.7-6.2-2.5-8.8-4.1-.2-.2-.5-.5-.9-.8l-8.8 4.6c-.1 1.9 0 2.8.4 5.4.2 1.1.4 1.8.7 2.7 1.2 2.5 3.5 3 5.8 4.2.2.2-.2.9-.2 1.4-1.6 0-3.5-1.2-4.9-1.9-.4-.5-1.2-.9-1.6-1.4l-2.1-.2c3.5 3.5 8.3 5.5 13.6 6.5.7.2 1.2.2 1.9.2l-1.4-1.6 7.6-5.3c.6-2.3-.9-5.3-1.2-7.9.5-.4 1.4-.4 2.1-.2l1.9 7.8c2.3.9 4.2.9 6.7.2 2.1-1.8 4.4-4.3 6.4-6.1.2 0 .5 0 .7.2 0 .2.5.5.2 1.2-.5.7-1 1.4-1.4 1.9-1.6 1.8-3.6 2.8-4.2 5.1 3.7-2.8 6.5-6.2 8.6-10l-1.6.3c-.2-.3-.5-.5-.7-.7-.5-3.2-.2-6.7-1.2-9.9 1.4-3 3.2-6.2 3.9-9.7.9-.2 1.3 1 2.1 1"
     class="st5"
     id="path36" /></svg>
