<?xml version="1.0" encoding="UTF-8" standalone="no"?>
<svg
   viewBox="0 0 637.8 879.31"
   version="1.1"
   id="svg9"
   sodipodi:docname="heracles-almelo.svg"
   inkscape:version="1.4.2 (f4327f4, 2025-05-13)"
   xmlns:inkscape="http://www.inkscape.org/namespaces/inkscape"
   xmlns:sodipodi="http://sodipodi.sourceforge.net/DTD/sodipodi-0.dtd"
   xmlns="http://www.w3.org/2000/svg"
   xmlns:svg="http://www.w3.org/2000/svg">
  <sodipodi:namedview
     id="namedview9"
     pagecolor="#ffffff"
     bordercolor="#000000"
     borderopacity="0.25"
     inkscape:showpageshadow="2"
     inkscape:pageopacity="0.0"
     inkscape:pagecheckerboard="0"
     inkscape:deskcolor="#d1d1d1"
     inkscape:zoom="0.91776507"
     inkscape:cx="318.70901"
     inkscape:cy="439.655"
     inkscape:window-width="1920"
     inkscape:window-height="1009"
     inkscape:window-x="-8"
     inkscape:window-y="-8"
     inkscape:window-maximized="1"
     inkscape:current-layer="Typografie" />
  <defs
     id="defs1">
    <style
       id="style1">.cls-1{fill:#fff}.cls-2{fill:#01a0c6;fill-rule:evenodd}</style>
  </defs>
  <g
     id="Wapenvorm">
    <path
       d="M576 606.46c-28.57 54.41-66.64 101-104.71 139C395.17 821.3 318.9 863.05 318.9 863.05s-76.27-41.75-152.38-117.63c-38.06-38-76.14-84.54-104.71-139s-47.64-116.6-47.64-185.78c0-37.15 7.09-406.47 7.09-406.47h595.28s7.08 369.32 7.09 406.47c-.01 69.18-19.08 131.43-47.63 185.82"
       class="cls-1"
       id="path1" />
    <path
       d="M630.71 0H7.09S0 380.17 0 418.87c0 72.06 19.13 136.91 48.9 193.57s70.19 105.21 109.84 144.75C238 836.24 318.9 879.31 318.9 879.31s80.87-42.92 160.16-122c39.65-39.54 80.08-88.21 109.84-144.89s48.9-121.51 48.9-193.57C637.79 380.17 630.71 0 630.71 0M576 606.46c-28.57 54.41-66.64 101-104.71 139C395.17 821.3 318.9 863.05 318.9 863.05s-76.27-41.75-152.38-117.63c-38.06-38-76.14-84.54-104.71-139s-47.64-116.6-47.64-185.78c0-37.15 7.09-406.47 7.09-406.47h595.28s7.08 369.32 7.09 406.47c-.01 69.18-19.08 131.43-47.63 185.82"
       id="path2" />
    <path
       d="M588.31 42.52H49.48s-8.73 345.38-8.73 379.29c0 63.14 17.41 120 43.49 169.62 6.52 12.41 13.57 24.38 21 35.88L116.93 202h67.32l-3.54 172.11a159.13 159.13 0 0 0-3.15 153.22l-3.8 184.85q3 3.09 6 6.11A717 717 0 0 0 263 789.13l5-201.4a143.74 143.74 0 0 1-92.66-134.19c0-63.76 41.81-117.93 99.44-136.57l1.54-61.46h85L363 317c57.64 18.64 99.44 72.81 99.44 136.57a143.74 143.74 0 0 1-92.66 134.19l5 201.4A717 717 0 0 0 458 718.27q3-3 6-6.11l-3.8-184.85a159.13 159.13 0 0 0-3.15-153.22L453.54 202h67.32l11.65 425.35c7.46-11.51 14.52-23.47 21-35.88C579.64 541.78 597 485 597 421.81c0-33.91-8.69-379.29-8.69-379.29"
       id="path3" />
  </g>
  <g
     id="Wiebertjes">
    <path
       d="m318.89 744.68-17.71 44.41 17.71 44.42 17.72-44.42zM294.09 682.31l-17.71 44.42 17.71 44.42 17.72-44.42zM343.69 682.31l-17.71 44.42 17.71 44.42 17.73-44.42z"
       class="cls-2"
       id="path4" />
  </g>
  <g
     id="God">
    <path
       d="M318.89 321.73c-72.68 0-131.81 59.13-131.81 131.81s59.13 131.81 131.81 131.81S450.7 526.22 450.7 453.54s-59.12-131.81-131.81-131.81m0 255.83a124 124 0 1 1 124-124 124.16 124.16 0 0 1-124 124"
       id="path5" />
    <path
       d="m374.48 440.6 4.23 22.92 1.21-8.2-1.66-4.8 4.58-13.13zM356.51 452.64l8.65-3.99 1.9-8.32-14.44-5.92-11.62 3.82-5.13 6.23 3.63 5.07 4.8-3.01 9.08 1.08zM320.12 458.39l-4.23 12.33 21.84-2.41 8.11 2.41 1.35-5.36-9.32-2.51zM398.11 397.33l-2.92-5.84-1.68 3.67-1.95 5.46-6.49 4.5-1.12 9.96 3.43 3.44 2.05-.6-1.18 13.34 5.98-8.63 5.86-15.77zM222.05 469.29l26.55-27.64 21.56-11.77v-14.55l-11.03-15.25-23.28 10.26-.21.26-15.04 13.74-13.58 2.41-2.99 22.24 8.01 6.26-5.36 23.35zM268.52 358.4l10.35-4.87 15.91 2.13 5.66 8.29h19.87l-13.42-11.23-22.39-3.61-12.94-.35-12.79 6.89-21.6 17.13-11.35 13.33 36.2-17.13z"
       id="path6" />
    <path
       d="m261.02 377.03-40.4 16.78.05 9.83-10.51 12.59 48.9-26.02zM305.33 465.98l7.66-10.06-13.98-4.21-6.91-2.51-15.09 20.46-15.04 36.63 3.59 7.1-11.74 12.81-7.25 16.65 16.06 10.85 6.33-3.35 9.88 10.97 6.7-21.67 5.89-45.57 3.11-13.87zM285.36 445.38l-13.23-7.63-14.63 15.37-31.76 30.15-3.26 16.46-5.52 6.89 17.49 24.9 35.88-75.04zM326.64 534.83l-3.11-15.42-25.13-8.29-5.19 54.54 16.84.44 17.17 2.12 29.33-6.08-8.94-23.9z"
       id="path7" />
    <path
       d="m384.55 508.54-.09-.13L378 499l.84-2.26-.21-4.93-.79-5.53-3.4-10.28 3-8.21-15.07.49 6.77 8.1-6 1-6.44 6.43-6.38-2.08-5.74-1.73-.77 11.18-4.62-.45-3.33-10.63-2.38 8.83-6.7-8.67-18.43-3-7.06 12.92-1.55 9.6 21.83 9.95 18.43 11.5 27.41 16.94 20.95-5.69 2.57-6.76-4.77-8.91ZM369 489.37l-12.48 3.79-.17-1 6-6.37 8.38-.93ZM382.14 400.67l6.15-4-2-9.12-.81-4.27-11-2.41-4.69-2.5-19.15-2.18-14.53 1.55-4.61-5.56-15.39-1-17.7 1.44-8.29-9.19-8.22-1.95-8.52 4.91-5.78 13.75 1.5 16.36 7.68 11.15 4.36 24.29 15.69 7 20.63-2.09 8.86-15.14 19.17-.87 6.89-9.85 1.41 18.81 8.9-10.8 12.12-4.29 4.12-2.9 2-5.9-11.37-8 1.41-5.74 5.42 4 1.66-9.73 3.44.06-2.6 11.09Zm-95-13.92-7.36-13.17 9.06 2.19Zm38.3-1.48-6.95-2.55-8.09-2.89 2.5-.94 15.62-.91 1.83 6Z"
       id="path8" />
  </g>
  <g
     id="Typografie">
    <path
       d="m 282.12,207.94 -5.74,3.92 v -5.65 l 5.74,-3.92 h 5.74 v 37.27 h -5.74 z m 23.3,15.96 -0.11,-0.1 c -0.26369,0.17165 -0.5598,0.28737 -0.87,0.34 -0.51067,0.0977 -1.0302,0.14124 -1.55,0.13 -0.97838,0.008 -1.94363,-0.22537 -2.81,-0.68 -0.79744,-0.40543 -1.48395,-0.99926 -2,-1.73 -0.26101,-0.34419 -0.46992,-0.72494 -0.62,-1.13 -0.17594,-0.49925 -0.29993,-1.01531 -0.37,-1.54 -0.10971,-0.78913 -0.17648,-1.58363 -0.2,-2.38 -0.04,-0.96 -0.06,-2.17333 -0.06,-3.64 0,-1.22 0.02,-2.22 0.06,-3 0.0247,-0.6702 0.0915,-1.33818 0.2,-2 0.0768,-0.47777 0.2111,-0.94449 0.4,-1.39 0.18598,-0.41587 0.40327,-0.81703 0.65,-1.2 0.74061,-1.14452 1.77729,-2.06716 3,-2.67 1.32361,-0.64153 2.7793,-0.9635 4.25,-0.94 1.46715,-0.0156 2.91588,0.32767 4.22,1 1.20723,0.61205 2.23943,1.52039 3,2.64 0.24284,0.38879 0.46645,0.78927 0.67,1.2 0.20558,0.44093 0.34701,0.90901 0.42,1.39 0.10605,0.66214 0.17284,1.32997 0.2,2 0.04,0.78667 0.06,1.78667 0.06,3 0,1.21333 -0.02,2.16333 -0.06,2.85 -0.0295,0.64996 -0.0963,1.29769 -0.2,1.94 -0.0824,0.49665 -0.19594,0.98762 -0.34,1.47 -0.13333,0.43333 -0.29333,0.89667 -0.48,1.39 l -7.54,18.74 h -6.42 z m -2.87,-7 c -0.0292,0.74069 0.27985,1.4545 0.84,1.94 1.12929,0.98328 2.81071,0.98328 3.94,0 0.56015,-0.4855 0.86922,-1.19931 0.84,-1.94 V 210 c 0.0292,-0.74069 -0.27985,-1.4545 -0.84,-1.94 -1.12929,-0.98328 -2.81071,-0.98328 -3.94,0 -0.56015,0.4855 -0.86922,1.19931 -0.84,1.94 z m 18.01,-6.9 c -0.0209,-1.15504 0.21832,-2.29998 0.7,-3.35 0.45559,-0.95477 1.0983,-1.80832 1.89,-2.51 0.79749,-0.70552 1.72475,-1.24897 2.73,-1.6 2.09448,-0.73245 4.37552,-0.73245 6.47,0 1.00419,0.35333 1.93103,0.89653 2.73,1.6 0.7881,0.70263 1.42736,1.55611 1.88,2.51 0.48366,1.04937 0.72299,2.19477 0.7,3.35 v 21.88 c 0.0244,1.15536 -0.21501,2.30108 -0.7,3.35 -0.45264,0.95389 -1.0919,1.80737 -1.88,2.51 -0.79897,0.70347 -1.72581,1.24667 -2.73,1.6 -2.09448,0.73245 -4.37552,0.73245 -6.47,0 -1.00525,-0.35103 -1.93251,-0.89448 -2.73,-1.6 -0.7917,-0.70168 -1.43441,-1.55523 -1.89,-2.51 -0.48299,-1.04958 -0.7223,-2.19483 -0.7,-3.35 z m 5.74,21.88 c -0.0193,0.71987 0.26782,1.41411 0.79,1.91 1.16183,1.00802 2.88817,1.00802 4.05,0 0.52218,-0.49589 0.80933,-1.19013 0.79,-1.91 V 210 c 0.0181,-0.71963 -0.26888,-1.41338 -0.79,-1.91 -1.16183,-1.00802 -2.88817,-1.00802 -4.05,0 -0.52218,0.49589 -0.80933,1.19013 -0.79,1.91 z M 351.12,218 c 1.21911,0.0913 2.4425,-0.10744 3.57,-0.58 0.66667,-0.38667 1,-1.27667 1,-2.67 v -4.82 c 0.0236,-0.70589 -0.25248,-1.38882 -0.76,-1.88 -0.55931,-0.50586 -1.29685,-0.7685 -2.05,-0.73 -0.82625,-0.0821 -1.63934,0.25138 -2.17,0.89 -0.39331,0.4939 -0.62078,1.0993 -0.65,1.73 v 3 h -5.74 v -3.09 c -0.002,-1.06733 0.23017,-2.1221 0.68,-3.09 0.43694,-0.95795 1.07069,-1.81317 1.86,-2.51 0.81493,-0.71675 1.74902,-1.28533 2.76,-1.68 1.07975,-0.40478 2.22722,-0.59829 3.38,-0.57 1.35516,-0.0494 2.70062,0.24658 3.91,0.86 0.87109,0.45043 1.66174,1.04173 2.34,1.75 0.36749,0.39884 0.70193,0.82692 1,1.28 0.29985,0.47065 0.52896,0.98278 0.68,1.52 0.19022,0.68457 0.324,1.38357 0.4,2.09 0.10229,0.99663 0.14903,1.99818 0.14,3 0,1.29333 -0.03,2.34 -0.09,3.14 -0.0321,0.68782 -0.18444,1.3647 -0.45,2 -0.24338,0.54044 -0.60981,1.01646 -1.07,1.39 -0.60794,0.47681 -1.25718,0.89848 -1.94,1.26 0.73744,0.40977 1.4253,0.90301 2.05,1.47 0.44928,0.45146 0.79107,0.99833 1,1.6 0.24212,0.70898 0.37366,1.451 0.39,2.2 0.04,0.85333 0.06,1.94333 0.06,3.27 0,1.22 -0.03,2.22 -0.09,3 -0.0384,0.67152 -0.12192,1.33969 -0.25,2 -0.0928,0.47993 -0.24394,0.94673 -0.45,1.39 -0.20981,0.41945 -0.45398,0.82082 -0.73,1.2 -1.62419,2.27385 -4.30007,3.55706 -7.09,3.4 -0.9712,-0.0103 -1.93657,-0.15159 -2.87,-0.42 -0.99933,-0.27048 -1.93667,-0.73235 -2.76,-1.36 -0.85246,-0.66286 -1.55173,-1.50198 -2.05,-2.46 -0.57817,-1.15261 -0.85999,-2.43113 -0.82,-3.72 v -3 H 350 v 2.77 c -0.0291,0.76315 0.24398,1.50699 0.76,2.07 1.15485,1.08583 2.95515,1.08583 4.11,0 0.53147,-0.5937 0.80491,-1.37444 0.76,-2.17 v -5.33 c 0.0158,-0.59972 -0.0515,-1.19874 -0.2,-1.78 -0.10996,-0.42365 -0.35587,-0.79954 -0.7,-1.07 -0.40835,-0.28776 -0.88329,-0.46672 -1.38,-0.52 -0.75593,-0.0976 -1.51787,-0.14103 -2.28,-0.13 z"
       class="cls-1"
       id="path9"
       sodipodi:nodetypes="cccccccccccccccccscccccccccccsccccccccccccccccccccccccccccccccccccccccccccscccccccccccccccccccccccccsccccccccccccccccccccc" />
  </g>
</svg>
