<?xml version="1.0" encoding="UTF-8" standalone="no"?>
<svg
   xml:space="preserve"
   overflow="visible"
   viewBox="0 0 256.04 283.47"
   version="1.1"
   id="svg5"
   sodipodi:docname="nac-breda.svg"
   inkscape:version="1.4.2 (f4327f4, 2025-05-13)"
   xmlns:inkscape="http://www.inkscape.org/namespaces/inkscape"
   xmlns:sodipodi="http://sodipodi.sourceforge.net/DTD/sodipodi-0.dtd"
   xmlns="http://www.w3.org/2000/svg"
   xmlns:svg="http://www.w3.org/2000/svg"><defs
     id="defs5" /><sodipodi:namedview
     id="namedview5"
     pagecolor="#ffffff"
     bordercolor="#000000"
     borderopacity="0.25"
     inkscape:showpageshadow="2"
     inkscape:pageopacity="0.0"
     inkscape:pagecheckerboard="0"
     inkscape:deskcolor="#d1d1d1"
     inkscape:zoom="2.8468621"
     inkscape:cx="128.03571"
     inkscape:cy="141.735"
     inkscape:window-width="1920"
     inkscape:window-height="1009"
     inkscape:window-x="-8"
     inkscape:window-y="-8"
     inkscape:window-maximized="1"
     inkscape:current-layer="svg5" /><path
     fill="#F7DB00"
     d="M131.56 281.78c1.46-1.06 6.1-3.86 6.88-4.29 10.73-5.44 23.24-7.23 36.48-9.13 16.45-2.36 33.46-4.79 47.1-14.84 20.75-15.29 33.45-39.78 33.97-65.53.31-15.7-3.64-29.36-7.82-43.83l-.88-3.07c-8.12-28.28-10.52-67.14 7.09-91.4.09-.12.17-.25.25-.38.38-.65.62-1.02.65-1.06.45-.68.69-1.44.75-2.21V46c.08-1.27-.38-2.56-1.33-3.51-.35-.33-33.54-33.49-34.27-34.23a4.6 4.6 0 0 0-2.81-1.34c-.15-.01-.3-.02-.45-.02-1.12 0-2.19.41-3.03 1.15-10.95 8.08-23.94 12.35-37.6 12.35-16.66 0-33.57-7.11-45.26-19.03A4.57 4.57 0 0 0 128.01 0c-1.23 0-2.4.49-3.26 1.37C113.06 13.28 96.14 20.4 79.49 20.4c-13.66 0-26.65-4.27-37.6-12.35a4.6 4.6 0 0 0-3.03-1.15c-.15 0-.3.01-.45.02-1.07.11-2.06.59-2.8 1.34L1.34 42.49a4.584 4.584 0 0 0-.59 5.75c.03.05.27.42.65 1.07.08.13.16.26.25.38 17.61 24.26 15.21 63.12 7.09 91.4l-.89 3.07C3.67 158.62-.28 172.29.03 187.99c.52 25.74 13.21 50.24 33.96 65.53 13.65 10.05 30.65 12.49 47.1 14.84 13.21 1.89 25.7 3.68 36.43 9.1.94.53 5.48 3.27 6.93 4.32l.16.19c.86.95 2.08 1.49 3.37 1.5h.01c1.28 0 2.5-.54 3.36-1.47.09-.08.15-.15.21-.22m-3.55-2.87.01-.02h-.01c-.26-.33-.51-.57-.85-.82-1.67-1.21-6.33-4.02-7.38-4.61-.06-.03-.11-.06-.17-.09-11.4-5.76-24.24-7.6-37.83-9.54-15.9-2.28-32.33-4.63-45.05-14-19.62-14.45-31.62-37.6-32.11-61.94-.3-15.01 3.56-28.34 7.64-42.46l.89-3.08C21.56 113.03 23.94 72.59 5.36 47c-.46-.79-.75-1.24-.8-1.31.23-.19 33.56-33.48 34.29-34.21.1.09.23.16.34.24 11.74 8.66 25.68 13.24 40.31 13.24 17.86 0 36-7.63 48.53-20.4 12.53 12.77 30.66 20.4 48.52 20.4 14.64 0 28.58-4.58 40.31-13.24.11-.08.21-.16.31-.25.76.75 33.96 33.92 34.3 34.26-.09.12-.36.55-.79 1.28-18.57 25.58-16.2 66.02-7.78 95.34l.89 3.08c4.08 14.12 7.94 27.46 7.64 42.47-.49 24.34-12.49 47.49-32.11 61.94-12.72 9.37-29.15 11.72-45.04 14-13.63 1.95-26.5 3.8-37.9 9.58-.05.03-.1.05-.15.08-.88.49-5.65 3.36-7.34 4.59-.34.22-.63.5-.88.82"
     id="path1" /><g
     fill="#F7DB00"
     id="g3"><path
       d="m121.01 145.38 4.56-4.56-7.63-3.05z"
       id="path2" /><path
       d="M 216.68,17.19 16.27,217.6 c 5.21,11.09 13.13,20.91 23.17,28.3 1.23,0.91 2.51,1.73 3.81,2.5 L 245.59,46.07 C 239.23,39.72 223.13,23.63 216.68,17.19"
       id="path3"
       sodipodi:nodetypes="cccccc" /></g><path
     d="m 136.38,273.41 c 11.4,-5.78 24.27,-7.62 37.9,-9.58 15.89,-2.28 32.32,-4.63 45.04,-14 19.62,-14.45 31.62,-37.6 32.11,-61.94 0.3,-15.01 -3.56,-28.34 -7.64,-42.47 l -0.89,-3.08 c -8.41,-29.31 -10.79,-69.76 7.78,-95.34 0.43,-0.73 0.7,-1.16 0.79,-1.28 -0.34,-0.33 -33.54,-33.5 -34.3,-34.26 -0.1,0.09 -0.21,0.17 -0.31,0.25 -11.74,8.66 -25.68,13.24 -40.31,13.24 -17.86,0 -36,-7.63 -48.52,-20.4 C 115.5,17.32 97.36,24.95 79.5,24.95 64.86,24.95 50.92,20.37 39.19,11.71 39.08,11.63 38.96,11.56 38.85,11.47 38.12,12.22 4.79,45.52 4.56,45.7 c 0.04,0.06 0.34,0.51 0.8,1.31 18.57,25.59 16.2,66.03 7.79,95.35 l -0.89,3.08 c -4.08,14.12 -7.94,27.46 -7.64,42.46 0.49,24.34 12.49,47.49 32.11,61.94 12.72,9.37 29.15,11.72 45.05,14 13.59,1.95 26.43,3.79 37.83,9.54 0.06,0.03 0.11,0.06 0.17,0.09 1.05,0.59 5.71,3.4 7.38,4.61 0.34,0.25 0.59,0.49 0.85,0.82 h 0.01 l -0.01,0.02 c 0.25,-0.31 0.54,-0.59 0.87,-0.83 1.69,-1.23 6.47,-4.1 7.34,-4.59 0.05,-0.04 0.1,-0.06 0.16,-0.09 m -93.13,-25 c -1.3,-0.77 -2.58,-1.6 -3.81,-2.5 C 29.4,238.52 21.49,228.7 16.27,217.61 L 216.68,17.19 c 6.45,6.44 22.55,22.53 28.91,28.88 z"
     id="path4"
     sodipodi:nodetypes="ccccccccccscscccccscccccccccccccccccc" /></svg>
