<?xml version="1.0" encoding="UTF-8" standalone="no"?>
<svg
   id="Layer_1"
   viewBox="0 0 210.01 207.56"
   version="1.1"
   sodipodi:docname="nec-nijmegen.svg"
   inkscape:version="1.4.2 (f4327f4, 2025-05-13)"
   xmlns:inkscape="http://www.inkscape.org/namespaces/inkscape"
   xmlns:sodipodi="http://sodipodi.sourceforge.net/DTD/sodipodi-0.dtd"
   xmlns="http://www.w3.org/2000/svg"
   xmlns:svg="http://www.w3.org/2000/svg">
  <sodipodi:namedview
     id="namedview12"
     pagecolor="#ffffff"
     bordercolor="#000000"
     borderopacity="0.25"
     inkscape:showpageshadow="2"
     inkscape:pageopacity="0.0"
     inkscape:pagecheckerboard="0"
     inkscape:deskcolor="#d1d1d1"
     inkscape:zoom="3.8880324"
     inkscape:cx="105.066"
     inkscape:cy="103.78"
     inkscape:window-width="1920"
     inkscape:window-height="1009"
     inkscape:window-x="-8"
     inkscape:window-y="-8"
     inkscape:window-maximized="1"
     inkscape:current-layer="Layer_1" />
  <defs
     id="defs1">
    <style
       id="style1">.cls-2{fill:#008e5a}.cls-4{fill:#b3b3b3}.cls-2,.cls-4,.cls-5,.cls-6,.cls-7{fill-rule:evenodd}.cls-7{fill:#fff}.cls-6,.cls-7{stroke:#000;stroke-miterlimit:3.86;stroke-width:.31px}</style>
  </defs>
  <path
     d="M194.94 16.92c0 .75.01 1.14.01 1.14 0-.37-.01-.75-.01-1.14M11.07 2.58 10.51 0h27.44c5.63 18.1 62.15 19.54 66.96 19.6 4.76-.06 61.47-1.52 67.09-19.6h27.44c-1.21 5.57-2.32 11.21-2.38 16.94-.02 4.19.91 8.15 1.49 12.26l3.81-4.92c1.19 5.94 2.53 11.9 2.36 18.01l3.97-3.19c2.19 13.03 2.44 19.78-5.5 31.07-13.33 18.96-12.47 22.83-11.88 44 .49 17.67 1.94 26.42 5.14 43.73 1.29 10.29-2.19 19.79-11.73 24.96-2.3 1.26-5.89 2.09-9.31 2.79-27.42 5.65-44.99 8.98-70.41 21.91-25.36-12.91-43.1-16.27-70.46-21.91-3.42-.71-7.01-1.53-9.32-2.8-9.53-5.18-13.02-14.68-11.72-24.96 3.53-19.1 5.76-38.17 5.36-57.61-.57-27.21-22.93-29.5-18.2-57.62l.6-3.57 3.97 3.19c-.17-6.11 1.17-12.06 2.36-18.01l3.76 4.86.11-.81c.28-1.9.64-3.66.93-5.56l.04-.25c.35-2.57.51-5.9.31-8.83-.2-2.66-.66-6.45-1.68-11.11Z"
     style="fill:#fff"
     id="path1" />
  <path
     d="M74.57 43v105.28c-24.12 2.75-43.64 9.72-53.8 17.31-.36-2.04-.39-4.25-.1-6.59 3.58-19.37 6.44-39.22 5.74-58.98-.95-26.7-17.44-31.36-19.52-47.34l8.08 5.1c-1.44-5.47-2.33-9.78-2.82-16l7.83 7.75c-1.16-5.98-1.52-8.96-2.03-15.32 2.15 2.8 5.26 5.8 8.35 7.52-2.45 1.85-3.52 4.54-4.07 7.49l-1.84 10.23 9.35-2.02c.28-.08 1.44-.1 3.71.3 2.62.46 7.66.37 8.65 3.46 3.52 11.07-11.72 3.44-14.49 2.33l2.82 5.18c2.55 4.69 8.73 7.53 14.07 5.04 9.96-4.65 5.65-19.49-2.88-21.59-3.65-.89-8.44-2.24-12.21-1.95.86-3.93 4.62-5.51 8.39-5.32l6.21 1.26.46.14c3.3.75 16.93 5.04 16.93 5.04-1.11-2.31-2.46-4.7-3.82-5.63 1.72-.71 3.74-1.72 7.24-4.56 0 0-8.97.56-12-.43l1.11-1.23c4.22-5.77 11.69-2.57 16.31.99 1.29.99 2.75 1.83 4.32 2.54ZM20.72 8.76l12.34-.21c2.75 7.26 25.39 14.61 41.5 16.74v9.45c-7.26-4.12-14.04-8.9-22.56-3.51-2.83 1.79-5.31 6.69-7.13 7.7-2.73-.38-5.53-.78-7.36-1.07-7.14-1.13-14.33-5.63-16-13.1-1.19-5.32-1.65-10.77-.8-16Z"
     style="fill:#e63027"
     id="path2" />
  <path
     d="M135.42 43c1.56-.7 3.03-1.55 4.32-2.54 4.62-3.56 12.09-6.76 16.31-.99l1.11 1.23c-3.03.99-12 .43-12 .43 3.5 2.84 5.52 3.84 7.24 4.56-1.36.93-2.71 3.32-3.82 5.63 0 0 13.63-4.29 16.93-5.04l.46-.14 6.21-1.26c3.78-.2 7.54 1.39 8.39 5.32-3.76-.29-8.56 1.05-12.2 1.95-8.54 2.09-12.84 16.94-2.88 21.59 5.34 2.49 11.52-.34 14.07-5.04l2.82-5.18c-2.77 1.11-18.01 8.74-14.49-2.33.98-3.09 6.02-3 8.65-3.46 2.27-.4 3.43-.38 3.71-.3l9.35 2.02-1.84-10.23c-.55-2.95-1.62-5.64-4.07-7.49 3.09-1.72 6.2-4.73 8.35-7.52-.51 6.37-.87 9.35-2.03 15.32l7.83-7.75c-.48 6.22-1.38 10.53-2.82 16l8.08-5.1c-2.05 13.94-18.57 20.63-19.52 47.34-.7 19.76 1.72 39.61 5.3 58.98.29 2.41.83 4.63.3 6.77-10.06-7.65-29.59-14.67-53.77-17.46V43Zm53.85-34.24c.85 5.23.39 10.68-.8 16-1.67 7.47-8.87 11.96-16 13.1-1.83.29-4.63.69-7.36 1.07-1.82-1.01-4.29-5.91-7.13-7.7-8.52-5.39-15.3-.6-22.56 3.51v-9.45c16.11-2.13 38.75-9.48 41.5-16.74l12.34.21Z"
     id="path3" />
  <path
     d="M25.38 171.96c6.57 4.78 23.84 8.98 23.84 8.98s-8.5-1.52-13.91-2.77c-8.93-2.4-9.93-6.21-9.93-6.21"
     class="cls-4"
     id="path4" />
  <path
     d="M77.46 25.82C83.6 27.11 97.84 27.91 105 28c7.15-.08 21.4-.88 27.54-2.18V36.3c-4.22 2.13-8.68 3.59-13.8 2.38l-8.95-2.16s2.71 4.71 4.24 6.54c1.08 1.3 3.8 4.48 7.87 6.75-1.86 3.1-3.07 6.16-3.75 9.23 2.1-.31 2.23-.21 3.87-.27-1.53 2.87-2.36 5.09-2.36 5.09l2.75-.28c-2.26 3.75-1.91 8.77-1.91 8.77 2.16-2.62 7.52-6.92 12.02-9.61v85.23c-8.73-.9-18.01-1.38-27.64-1.38s-18.72.47-27.37 1.36v-85.2c4.48 2.68 9.84 6.98 12.01 9.61 0 0 .36-5.02-1.91-8.77l2.75.28s-.84-2.23-2.36-5.09c1.65.06 1.78-.04 3.87.27-.68-3.07-1.89-6.14-3.75-9.23 4.06-2.27 6.78-5.46 7.86-6.75 1.53-1.84 4.24-6.54 4.24-6.54l-8.95 2.16c-5.11 1.21-9.58-.24-13.79-2.38V25.83Z"
     style="fill:#008e5a"
     id="path5" />
  <path
     d="M77.48 59.61V44.12c1.88.62 3.82 1.07 5.71 1.36-1.64 1.02-3.2 1.8-4.88 2.74 1.24 1.23 2.77 3.1 3.94 4.4-2.82-.15-3.01.14-4.12.2 1.48 1.97 2.04 2.96 3.18 5.7-1.2.25-2.51.56-3.83 1.08ZM132.5 59.61V44.12c-1.88.62-3.82 1.07-5.71 1.36 1.63 1.02 3.2 1.8 4.88 2.74-1.24 1.23-2.77 3.1-3.94 4.4 2.82-.15 3.01.14 4.12.2-1.48 1.97-2.04 2.96-3.18 5.7 1.2.25 2.51.56 3.83 1.08Z"
     class="cls-2"
     id="path6" />
  <path
     d="M44.12 60.53c-1.39-4.38-6.19-4.19-10.3-4.91-2.22-.39-3.85-.48-4.66-.25l-6.59 1.89 1.75-7.62c.67-3.68 3.06-6.7 6.22-8.4-3.17-1.02-5.74-2.76-8.47-5.59-2.57-2.67-4.18-5.18-5.1-8.14-1.69 7.69-1.29 10.35.61 17.3l-7.06-8.45c-.75 6.56.27 11.61 2.02 17.88l-7.6-5.66C3.67 63.66 17.76 72.63 21.76 86.03c3 10.05 2.28 18.03 2 28.28-.5 17.97-1.94 26.77-5.2 44.37-1.04 8.38 1.64 15.63 9.13 19.7 3.49 1.92 15.07 3.62 19.45 4.67 9.92 2.37 15.7 3.01 25.45 5.98 13.06 3.97 20.42 8.74 32.4 14.81 11.98-6.07 19.34-10.84 32.4-14.81 9.76-2.96 15.54-3.61 25.45-5.98 4.38-1.05 15.96-2.75 19.45-4.67 7.49-4.07 10.17-11.32 9.13-19.7-3.25-17.6-4.7-26.4-5.2-44.37-.29-10.25-1-18.23 2-28.28 4-13.4 18.09-22.37 16.82-37.45l-7.6 5.66c1.75-6.27 2.77-11.32 2.02-17.88l-7.06 8.45c1.9-6.95 2.3-9.6.61-17.3-.92 2.96-2.53 5.47-5.1 8.14-2.73 2.84-5.3 4.58-8.47 5.59 3.16 1.7 5.55 4.72 6.22 8.4l1.75 7.62-6.6-1.89c-.82-.23-2.45-.14-4.66.25-4.11.72-8.91.54-10.3 4.91-4.34 13.63 11.83 7.14 11.83 7.14-2.11 3.88-7.15 6.06-11.3 4.13-7.55-3.52-4.74-15.82 2.49-17.6 3.11-.76 9.71-2.56 12.76-1.69l1.75.5-.64-2.77c-.25-1.38-.54-2.13-1.32-3.31-2.3-3.48-5.84-4.4-9.52-4.17l-6.47 1.31-.49.16c-3.37.77-13.44 4.56-13.44 4.56.9-1.26 2.46-2.54 4.25-3.68-3.21-.71-8.19-3.12-8.19-3.12 2.39.74 6.29.63 8.8.64 2.27 0 4.43-.65 4.43-.65-2.6-2.63-3.67-5.24-5.56-6.44-5.18-3.28-12.5-.07-16.81 3.24-4.68 3.6-11.24 5.35-17.2 5 1.69 1.55 3.58 3 7.24 5.06-1.67 1.65-2.93 3.37-3.95 5.53 1.42-.11 3.95.02 4.63.14-1.15 1.44-2.23 3.54-2.87 5.26 0 0 3.28.43 6.12 1.4-5.4 2.02-10.41 7.46-10.41 7.46 1.22-3.9 1.98-4.72 3.7-6.5-1.47-.11-3.12-.09-3.12-.09s1.55-3.71 2.27-5.01c-1.29-.12-2.11-.49-4.18-.12 1.4-3.69 2.27-5.26 3.79-7.63-1.48-1.12-3.14-2.18-4.69-3.2-1.98-1.46-6.68-7.25-6.68-7.25l5.17 1.53c6.25 1.85 13.34-.05 18.38-3.92 5.37-4.13 13.86-7.42 20.21-3.4 2.85 1.8 5.66 7.97 8.2 8.06 2.85-.39 5.84-.82 7.76-1.12 5.42-.86 9.45-2.69 12.98-6.37 5.69-5.92 5.15-10.4 5.56-17.96 3.15 6.75 5.69 11.69 5.43 19.34l4.43-5.72c1.2 5.99 1.99 11.75.93 17.84l5.08-4.08c1.77 10.54.6 16.91-5.74 25.92-13.32 18.94-12.9 22.6-12.27 45.28.49 17.8 1.94 26.55 5.16 44 1.21 9.62-2.04 18.1-10.65 22.77-1.97 1.08-5.22 1.86-8.72 2.58-12.24 2.52-24.79 4.67-36.74 8.3-13.12 3.99-21.01 7.09-33.24 13.31-12.22-6.22-20.17-9.32-33.3-13.31-11.95-3.63-24.5-5.78-36.74-8.3-3.5-.72-6.75-1.5-8.72-2.58-8.61-4.67-11.86-13.16-10.65-22.77 3.22-17.45 4.67-26.2 5.16-44 .63-22.69 1.05-26.35-12.27-45.28C2.14 59.94.97 53.57 2.74 43.03l5.08 4.08c-1.06-6.09-.27-11.86.93-17.84l4.43 5.72c-.25-7.65 2.28-12.59 5.43-19.34.42 7.56-.13 12.04 5.56 17.96 3.53 3.68 7.56 5.51 12.98 6.37 1.92.3 4.91.73 7.76 1.12 2.54-.08 5.35-6.26 8.2-8.06 6.35-4.02 14.85-.73 20.21 3.4 5.04 3.87 12.13 5.77 18.38 3.92l5.17-1.53s-4.69 5.79-6.68 7.25c-1.55 1.02-3.22 2.08-4.69 3.2 1.52 2.37 2.39 3.94 3.79 7.63-2.06-.36-2.89 0-4.18.12.72 1.3 2.27 5.01 2.27 5.01s-1.66-.02-3.12.09c1.72 1.78 2.48 2.61 3.7 6.5 0 0-5.01-5.44-10.41-7.46 2.85-.97 6.12-1.4 6.12-1.4-.64-1.72-1.72-3.81-2.87-5.26.68-.12 3.21-.25 4.63-.14-1.02-2.15-2.28-3.87-3.95-5.53 3.65-2.05 5.54-3.51 7.24-5.06-5.96.35-12.52-1.4-17.2-5-4.31-3.31-11.63-6.52-16.81-3.24-1.89 1.19-2.96 3.81-5.56 6.44 0 0 2.17.65 4.43.65 2.51 0 6.4.1 8.8-.64 0 0-4.98 2.41-8.19 3.12 1.79 1.14 3.35 2.42 4.25 3.68 0 0-10.07-3.79-13.44-4.56l-.49-.16-6.47-1.31c-3.68-.22-7.22.7-9.52 4.17-.78 1.17-1.07 1.92-1.32 3.31l-.64 2.77 1.75-.5c3.06-.87 9.65.93 12.76 1.69 7.24 1.78 10.04 14.07 2.49 17.6-4.15 1.94-9.19-.24-11.3-4.13 0 0 16.17 6.49 11.83-7.14Z"
     id="path9" />
  <path
     d="m 74.37,179.51 0.08,0.03 c 0,0 0.06,-0.07 0.14,-0.07 0.03,0 0.16,0.07 0.34,0.15 0.2,0.07 0.46,0.15 0.75,0.15 0.81,0 1.32,-0.39 1.32,-1.06 0,-1.3 -2.1,-0.87 -2.1,-1.58 0,-0.42 0.43,-0.57 0.81,-0.57 0.45,0 0.8,0.16 0.8,0.45 l 0.07,0.03 0.34,-0.63 -0.06,-0.04 c 0,0 -0.04,0.03 -0.08,0.03 -0.06,0 -0.16,-0.05 -0.33,-0.12 -0.17,-0.07 -0.41,-0.13 -0.76,-0.13 -0.69,0 -1.23,0.34 -1.23,1 0,1.2 2.1,0.72 2.1,1.61 0,0.43 -0.46,0.61 -0.84,0.61 -0.38,0 -0.86,-0.12 -0.86,-0.57 l -0.07,-0.03 -0.42,0.76 z m 7.79,0.22 v -0.08 C 82,179.64 81.95,179.6 81.95,179.41 v -2.9 c 0,-0.2 0.05,-0.23 0.21,-0.24 v -0.08 h -0.92 v 0.08 c 0.16,0.01 0.21,0.05 0.21,0.24 v 2.9 c 0,0.2 -0.05,0.23 -0.21,0.24 v 0.08 z m 5.05,0 v -0.08 c -0.11,-0.01 -0.16,-0.05 -0.16,-0.24 v -2.62 h 0.01 l 1.4,2.41 c 0.08,0.13 0.2,0.29 0.2,0.37 0,0.05 -0.07,0.07 -0.17,0.09 v 0.08 h 0.86 v -0.08 c -0.14,-0.01 -0.19,-0.05 -0.19,-0.24 v -3.01 c 0,-0.11 0.03,-0.13 0.15,-0.13 v -0.08 h -0.76 v 0.08 c 0.11,0.01 0.16,0.05 0.16,0.24 v 2.19 h -0.03 l -1.15,-1.97 c -0.09,-0.16 -0.2,-0.29 -0.2,-0.37 0,-0.06 0.09,-0.09 0.14,-0.09 v -0.08 h -1.02 v 0.08 c 0.09,0.01 0.13,0.05 0.13,0.24 v 2.9 c 0,0.2 -0.05,0.23 -0.12,0.24 v 0.08 h 0.72 z m 9,-3.17 -0.05,-0.03 c 0,0 -0.04,0.03 -0.08,0.03 -0.05,0 -0.46,-0.42 -1.15,-0.42 -0.96,0 -1.53,0.79 -1.53,1.81 0,1.02 0.56,1.81 1.59,1.81 0.67,0 1.07,-0.49 1.13,-0.49 0.05,0 0.09,0.02 0.12,0.05 l 0.07,-0.05 -0.46,-0.63 -0.1,0.04 c 0.03,0.05 0.05,0.12 0.05,0.17 0,0.16 -0.4,0.49 -0.83,0.49 -0.68,0 -1.07,-0.55 -1.07,-1.4 0,-0.85 0.39,-1.4 1.03,-1.4 0.48,0 0.82,0.29 0.82,0.45 0,0.03 0,0.07 -0.01,0.11 l 0.07,0.03 0.41,-0.59 z m 4.25,2.84 c 0,0.2 -0.05,0.23 -0.14,0.24 v 0.08 h 2.25 c 0.13,0 0.23,0.03 0.24,0.12 h 0.08 v -0.69 h -0.08 c -0.01,0.12 -0.11,0.16 -0.24,0.16 h -1.61 v -1.2 h 1.12 c 0.14,0 0.23,0.03 0.24,0.18 h 0.08 v -0.75 h -0.08 c -0.01,0.12 -0.11,0.15 -0.24,0.15 h -1.12 v -1.09 h 1.56 c 0.13,0 0.23,0.03 0.24,0.17 h 0.08 v -0.71 h -0.08 c -0.01,0.09 -0.08,0.12 -0.19,0.12 h -2.26 v 0.08 c 0.09,0.01 0.14,0.05 0.14,0.24 v 2.9 z m 12.64,-3.22 v 0.08 c 0.1,0.03 0.15,0.04 0.15,0.17 0,0.17 -0.18,0.27 -0.28,0.27 -0.06,0 -0.14,-0.02 -0.16,-0.09 h -0.07 v 0.65 h 0.08 c 0.03,-0.18 0.27,-0.17 0.4,-0.26 v 2.4 c 0,0.2 -0.05,0.23 -0.13,0.24 v 0.08 h 0.78 v -0.08 c -0.1,-0.01 -0.14,-0.05 -0.14,-0.24 v -2.9 c 0,-0.2 0.05,-0.23 0.14,-0.24 v -0.08 h -0.76 z m 5.84,3.28 0.04,0.05 c 0,0 0.05,-0.03 0.08,-0.03 0.05,0 0.15,0.07 0.3,0.16 0.15,0.08 0.37,0.16 0.66,0.16 0.74,0 1.4,-0.72 1.4,-1.93 0,-1.21 -0.53,-1.7 -1.31,-1.7 -0.74,0 -1.23,0.48 -1.23,1.19 0,0.67 0.47,1.09 1.13,1.09 0.43,0 0.63,-0.11 0.94,-0.42 0,0.57 -0.24,1.37 -0.93,1.37 -0.35,0 -0.57,-0.18 -0.57,-0.38 0,-0.03 0,-0.07 0.01,-0.1 l -0.09,-0.03 -0.43,0.6 z m 1.94,-2.14 c 0,0.45 -0.3,0.76 -0.75,0.76 -0.45,0 -0.77,-0.31 -0.77,-0.76 0,-0.45 0.32,-0.75 0.77,-0.75 0.45,0 0.75,0.31 0.75,0.75 m 7.43,0.63 c 0,-1.04 -0.53,-1.81 -1.44,-1.81 -0.91,0 -1.44,0.77 -1.44,1.81 0,1.04 0.53,1.81 1.44,1.81 0.91,0 1.44,-0.77 1.44,-1.81 m -2.37,0 c 0,-0.87 0.36,-1.4 0.94,-1.4 0.58,0 0.94,0.53 0.94,1.4 0,0.87 -0.36,1.4 -0.94,1.4 -0.58,0 -0.94,-0.53 -0.94,-1.4 m 9.12,0 c 0,-1.04 -0.53,-1.81 -1.44,-1.81 -0.91,0 -1.44,0.77 -1.44,1.81 0,1.04 0.53,1.81 1.44,1.81 0.91,0 1.44,-0.77 1.44,-1.81 m -2.38,0 c 0,-0.87 0.36,-1.4 0.94,-1.4 0.58,0 0.94,0.53 0.94,1.4 0,0.87 -0.36,1.4 -0.94,1.4 -0.58,0 -0.94,-0.53 -0.94,-1.4"
     class="cls-5"
     id="path10"
     sodipodi:nodetypes="ccscssssccccssssssccccccssccccsscccccscccsccccssccccscccsccccssccccccsssssccccssssscccccccsccccsccsccccsccsccccsccsccccsscccccsccccssccccccscssssscsscccccsssccsssccsssccsssccsssc" />
  <path
     d="M185.13 171.96c-6.57 4.78-23.84 8.98-23.84 8.98s8.5-1.52 13.91-2.77c8.93-2.4 9.93-6.21 9.93-6.21"
     class="cls-4"
     id="path11" />
  <path
     d="M36.4 2.12c3.71 11.95 36.58 19.21 68.5 19.6 31.92-.39 64.97-7.66 68.68-19.6h23.24c-2.15 9.89-1.87 15.92-1.87 15.92s-2.8-4.47-2.43-12.35h-17.09c-6.58 11.68-38.05 18.8-70.46 19.44h-.15c-32.41-.65-63.7-7.76-70.28-19.44H17.45c.37 7.88-2.43 12.35-2.43 12.35S15.3 12 13.15 2.12h23.24Z"
     id="path12" />
</svg>
