<?xml version="1.0" encoding="UTF-8" standalone="no"?>
<svg
   xml:space="preserve"
   viewBox="2 2 189.53 250"
   version="1.1"
   id="svg7"
   sodipodi:docname="rkc-waalwijk.svg"
   inkscape:version="1.4.2 (f4327f4, 2025-05-13)"
   xmlns:inkscape="http://www.inkscape.org/namespaces/inkscape"
   xmlns:sodipodi="http://sodipodi.sourceforge.net/DTD/sodipodi-0.dtd"
   xmlns="http://www.w3.org/2000/svg"
   xmlns:svg="http://www.w3.org/2000/svg"><defs
     id="defs7" /><sodipodi:namedview
     id="namedview7"
     pagecolor="#ffffff"
     bordercolor="#000000"
     borderopacity="0.25"
     inkscape:showpageshadow="2"
     inkscape:pageopacity="0.0"
     inkscape:pagecheckerboard="0"
     inkscape:deskcolor="#d1d1d1"
     inkscape:zoom="3.228"
     inkscape:cx="94.640644"
     inkscape:cy="125"
     inkscape:window-width="1920"
     inkscape:window-height="1009"
     inkscape:window-x="-8"
     inkscape:window-y="-8"
     inkscape:window-maximized="1"
     inkscape:current-layer="svg7" /><path
     d="m23.242 740.88-.779-.17-.005-401.026c-.036-23.087-.068-43.026 8.207-64.303 14.278-36.718 39.168-69.656 80.7-106.804 78.89-70.56 183.661-119.952 184.71-120.443l.42-.196.419.196c1.049.491 105.815 49.883 184.707 120.443 41.531 37.147 66.42 70.086 80.7 106.804 8.275 21.276 8.242 41.214 8.206 64.3l-.005 401.029-.779.17c-53.191 11.606-174.406 30.019-273.23 30.019-98.863 0-220.08-18.413-273.271-30.02z"
     style="fill:#2b63b7;fill-opacity:1;fill-rule:nonzero;stroke:none"
     transform="matrix(.3458 0 0 -.3458 -5.764 268.577)"
     id="path1" /><path
     d="M296.473 768.919c98.244 0 218.574-18.21 272.069-29.807l.01-403.94c0-21.002-.476-39.53-8.076-59.073-14.161-36.412-38.888-69.119-80.175-106.046-76.155-68.115-176.52-116.461-183.806-119.927-7.287 3.466-107.656 51.812-183.81 119.927C71.397 206.98 46.67 239.688 32.51 276.099c-7.6 19.546-8.076 38.075-8.076 59.08l.01 403.933c53.494 11.597 173.826 29.807 272.029 29.807"
     style="fill:#fff;fill-opacity:1;fill-rule:nonzero;stroke:none"
     transform="matrix(.3458 0 0 -.3458 -5.764 268.577)"
     id="path2" /><path
     d="M117.026 732.934v-537.88l.023-.794c-42.275 39.817-57.051 68.513-65.163 89.374-6.247 16.062-6.662 31.965-6.662 51.51l.01 386.996c19.453 3.764 44.202 7.918 71.804 11.78zM188.818 137.82v71.572l.675.018h70.352l.764-.02V93.27l.012-.854c-20.374 11.436-45.709 26.61-71.788 44.608zM332.379 93.332v116.06l.663.018h70.537l.585-.063V138.19l.017-1.149c-26.062-17.987-51.38-33.154-71.75-44.589zM475.958 194.89v537.859l.015 1.166c27.592-3.86 52.332-8.012 71.779-11.775l.01-387.002c0-19.543-.417-35.443-6.662-51.504-8.111-20.857-22.882-49.545-65.136-89.349z"
     style="fill:#2b63b7;fill-opacity:1;fill-rule:nonzero;stroke:none"
     transform="matrix(.3458 0 0 -.3458 -5.764 268.577)"
     id="path3" /><path
     d="M475.964 194.285a498 498 0 0 0-9.524-8.736c-19.768-17.682-41.255-34.01-62.26-48.507l-.016 1.15v71.155l-.585.063h-70.537l-.663-.018V93.332l.052-.879c-15.424-8.66-28.011-15.178-35.936-19.16-7.914 3.977-20.478 10.482-35.874 19.123l-.012.855v116.12l-.764.02h-70.352l-.675-.02V137.82l.014-.795c-21.013 14.501-42.51 30.836-62.287 48.526a501 501 0 0 0-9.496 8.71l-.023.795v537.88l.012.985c54.928 7.683 121.153 14.209 179.435 14.209 58.315 0 124.563-6.528 179.5-14.214l-.015-1.166v-537.86z"
     style="fill:#fee816;fill-opacity:1;fill-rule:nonzero;stroke:none"
     transform="matrix(.3458 0 0 -.3458 -5.764 268.577)"
     id="path4" /><path
     d="M256.44 607.266s1.183 12.074 5.57 19.429c4.207 7.054 10.518 13.365 17.82 15.221 8.028 2.041 14.23 2.97 18.562 6.56 3.587 2.97 3.96 7.176 2.351 7.795-1.608.62-6.31-.248-9.281-.99-2.97-.742-5.197-2.722-5.197-2.722s-.248 2.722.247 3.836.371 1.732-.124 3.465-.123 3.341-.123 3.341c5.444-.495 10.518.124 12.127 2.104s.248 6.682-1.856 8.291c-2.104 1.61-6.683.99-9.53.124-2.845-.866-6.434-2.97-6.434-2.97-3.342 5.321-2.97 8.291-2.97 8.291-3.712 2.846-1.732 5.074 3.217 8.167 4.95 3.094 10.024 5.322 10.024 5.322 3.465 7.549 10.89 7.053 18.068 6.806 7.177-.247 9.404-.124 10.395 1.238.99 1.361 1.114 4.455 1.114 4.455 4.702-3.96 1.855-7.673-1.98-9.777s-6.807-6.806-6.435-9.157c.371-2.351 1.732-2.599 1.732-2.599.495 6.064 8.291 11.633 15.345 11.756s11.756-3.464 11.756-3.464c-1.484-7.55-9.404-10.767-12.375-9.158-2.505 1.357-2.97 5.445-2.97 5.445s-.742-.495-.742-3.589 5.444-8.539 12.375-4.702c0 0 2.723-1.857 4.826-5.94 2.104-4.084 1.857-9.777.495-15.221-1.361-5.446-.99-10.272 1.485-12.5s7.053-.99 7.053-.99-.076-3.762-3.464-5.816c-4.084-2.475-9.653.371-9.653.371s-2.97-4.083-3.465-9.528 4.084-9.034 8.54-9.158c0 0-1.86-2.792-6.683-3.093-5.94-.371-10.396 5.692-10.396 5.692s-1.237-2.599-1.732-8.539 4.702-11.137 4.702-11.137-1.113-3.094-7.548-5.816-7.302-2.723-7.302-2.723-6.063 5.445-8.539 9.777c0 0-1.361-4.827-.618-10.767 0 0-10.488-.593-17.077 2.6-7.92 3.835-14.355 8.043-20.048 9.899-4.994 1.628-11.261.371-11.261.371m45.663 80.19s-4.826.248-7.177.124-4.579-1.856-5.322-3.713c0 0 2.104-2.97 5.075-3.094s7.3 2.228 7.424 6.683"
     style="fill:#2b63b7;fill-opacity:1;fill-rule:nonzero;stroke:none"
     transform="matrix(.3458 0 0 -.3458 -5.764 268.577)"
     id="path5" /><path
     d="M287.007 667.409s-.384-.92-3.713-1.238c-2.598-.247-7.3-1.485-12.003-3.713s-10.271-2.722-13.365-.123-2.723 6.559-2.475 9.529c0 0 2.97-4.208 7.053-5.446 3.938-1.192 6.064-.618 10.148.372s10.147 1.114 14.355.619M253.1 627.19s.866 3.465 3.96 8.415 9.28 8.043 9.28 8.043-9.404 2.228-14.85 4.456c-5.444 2.227-12.25 5.94-14.973 10.766 0 0 .371 3.96-1.732 5.94-2.104 1.98-5.693 1.485-5.693 1.485s.247 1.732 1.485 3.341 1.361 4.95-3.465 6.683c0 0 .618-1.98.371-3.465s-.99-3.094-3.217-3.218c0 0 .618 4.703-1.485 6.559s-5.198 1.609-7.55-.124c0 0 2.105-.618 3.59-1.98 1.485-1.361.866-4.702.866-4.702s-1.485 1.237-4.084 2.103-5.94-1.732-6.559-4.083c0 0 1.61.37 3.218.37 1.609 0 3.589-2.35 4.455-4.083 0 0-.99-6.064 3.836-7.425 0 0-1.361-1.856-1.732-4.331-.372-2.475 1.609-5.816 1.609-5.816s.866 4.084 2.35 5.197c1.486 1.114 3.96.248 5.446-1.237s1.98-3.342.866-5.816c-1.114-2.476 1.114-6.312 2.351-7.797 0 0 .495 3.094 1.856 4.084s2.97.742 7.054-2.351S253.1 627.19 253.1 627.19M376.974 457.652s-2.476-4.207-8.292-4.33c-3.466-.075-7.054 3.464-7.054 3.464-3.34-.99-4.331-3.589-3.094-6.31 1.237-2.724 5.074-5.57 5.074-5.57s-4.33 0-8.663 1.733c-4.33 1.732-3.588 5.197-3.588 5.197s-3.093-1.485-5.445-2.599c-2.351-1.113-6.187-.618-8.91.867s-6.064.99-8.662-1.114c-2.6-2.104-2.105-5.445-2.105-5.445-3.093 2.104-4.578 7.549-2.35 10.642 2.227 3.094 6.434 3.837 6.434 3.837-1.732 2.722-4.826 3.217-7.424 2.103-2.6-1.113-3.96-2.598-3.96-2.598s-.99 3.217 1.113 6.435c2.104 3.217 5.692 3.836 8.663 3.217 3.15-.656 4.702-2.35 4.702-2.35s.371 3.835-2.227 6.187c-2.021 1.828-4.95.866-4.95.866 1.238 3.217 7.301 5.074 10.024 3.341s3.712-4.95 6.558-5.569 8.786 0 8.786 0 .496 5.817-3.093 14.231-8.91 12.128-15.964 15.222-14.479 4.454-18.192 7.796c-3.711 3.341-4.826 7.549-4.826 7.549-1.361-2.599-5.692-5.074-10.766-2.475s-4.207 6.435-4.207 6.435 1.237-3.094 6.187-1.98 10.148 7.548 11.014 18.439-4.826 19.552-11.756 26.73c-6.93 7.177-15.345 11.508-24.874 14.602s-19.553.248-24.75-1.485-9.158-4.455-9.158-4.455c1.114-1.733 4.208-1.609 4.208-1.609-3.96-3.341-6.682-2.475-9.405-1.114-2.723 1.362-3.96.496-7.796-1.98s-3.96-4.578-3.836-6.187c.123-1.609 2.598-3.465 2.598-3.465s-2.227-.619-4.578.371-3.218 3.465-3.218 3.465c-3.094-1.732-5.817-.619-7.425-.247-1.609.371-4.455.495-6.187-.372-1.733-.866-1.98-3.836-1.98-3.836-1.857 2.104-1.98 5.321-.496 7.178 1.485 1.856 3.59 2.475 3.59 2.475s-1.114 1.608-3.466 1.732c-2.351.124-3.712-1.856-3.712-1.856-2.104 3.218 1.856 6.806 4.331 6.806s4.826-2.227 4.826-2.227 1.114 2.846-.495 4.207-4.084.867-4.084.867 1.733 2.598 4.084 2.846c2.351.247 4.826-2.723 5.94-4.826 1.114-2.104 3.589-.248 10.272 4.207s16.087 11.261 25.616 17.944 15.84 5.197 21.904 2.227c6.063-2.97 15.468-9.776 28.091-10.518 12.622-.743 20.295 3.712 20.295 3.712s6.683-4.331 12.622-15.716c5.94-11.385 8.663-28.215 8.663-28.215s7.3-3.094 13.983-2.723 11.88 1.857 13.737 9.034-3.218 16.582-9.405 22.894c-6.188 6.31-12.87 14.478-13.737 22.646-.866 8.167 3.218 16.459 9.777 20.666s12.127 3.836 24.378 3.836 16.83-2.227 22.028 8.54c0 0 .99-2.352 1.61-8.045.617-5.692-3.11-12.153-10.52-12.746-6.188-.495-11.632 1.733-11.632 1.733s1.113-1.114 2.846-4.455c1.732-3.342-.248-10.519-.248-10.519s-2.846 8.539-9.529 12.746-14.973 4.084-19.305-.37c-4.33-4.456-3.835-13.737.62-19.554s15.84-16.83 20.295-25.863c4.086-8.29 3.246-21.076-6.312-28.215-10.271-7.673-26.482-4.208-26.482-4.208s1.113-9.652 5.32-14.479c4.208-4.826 11.139-7.796 15.965-6.31 4.826 1.484 4.33 8.538 4.33 8.538s1.666-.858 2.352-5.321c.743-4.827-1.98-10.148-8.91-11.138 0 0 .58-.549 2.475-2.97 2.227-2.846 3.96-9.529 3.094-17.696s-2.104-16.335-1.238-19.676c.866-3.342 3.341-4.95 9.9-4.827"
     style="fill:#2b63b7;fill-opacity:1;fill-rule:nonzero;stroke:none"
     transform="matrix(.3458 0 0 -.3458 -5.764 268.577)"
     id="path6" /><path
     d="m 223.4,471.76 c -3.342,3.465 -3.218,8.662 -1.238,11.137 1.98,2.476 5.94,3.713 5.94,3.713 0,0 -3.35,2.066 -6.187,1.856 -3.342,-0.247 -5.322,-2.351 -5.322,-2.351 -0.866,8.167 5.94,9.9 9.034,9.157 3.094,-0.742 5.074,-2.35 5.074,-2.35 0,0 0.99,3.093 -1.485,5.444 -2.475,2.351 -5.321,1.733 -5.321,1.733 0.99,2.475 4.826,4.331 7.672,3.464 2.846,-0.866 5.692,-4.95 7.054,-7.053 1.36,-2.104 4.578,-1.238 9.528,1.733 4.95,2.971 8.044,5.692 8.168,6.93 0.124,1.238 -2.723,2.722 -6.188,9.033 -3.464,6.312 -2.722,11.756 -2.722,11.756 0,0 -5.94,-1.98 -8.291,0.743 -2.351,2.723 -2.228,6.93 -2.228,6.93 2.599,-3.094 4.826,-3.094 11.138,1.856 6.31,4.95 11.509,10.395 19.429,16.212 7.92,5.816 17.943,6.31 24.873,3.093 6.93,-3.217 10.024,-6.311 10.024,-6.311 0,0 -2.284,-0.25 -2.475,-4.95 -0.247,-6.064 5.816,-6.93 5.816,-6.93 0,0 -8.662,-3.836 -18.315,-7.672 -9.652,-3.837 -15.592,-6.312 -16.087,-13.86 -0.495,-7.55 1.732,-15.964 4.084,-19.43 2.35,-3.464 5.444,-4.33 8.538,-4.083 0,0 -3.836,-4.826 -8.29,-4.084 -4.456,0.743 -6.807,2.97 -8.911,3.094 -2.104,0.124 -6.93,-1.856 -10.395,-5.074 -3.465,-3.218 -3.465,-6.806 -2.228,-9.281 1.238,-2.475 3.837,-3.465 3.837,-3.465 0,0 -10.272,-1.609 -11.757,5.569 0,0 -1.36,0.37 -2.475,-0.99 -1.113,-1.362 -4.207,-1.114 -7.053,0.37 -2.847,1.486 -8.317,1.478 -10.024,0.248 -3.094,-2.227 -3.218,-6.187 -3.218,-6.187"
     style="fill:#2b63b7;fill-opacity:1;fill-rule:nonzero;stroke:none"
     transform="matrix(0.3458,0,0,-0.3458,-5.764,268.577)"
     id="path7"
     sodipodi:nodetypes="cccccccscccssccscccsccccccccssccccccc" /></svg>
