<?xml version="1.0" encoding="UTF-8" standalone="no"?>
<svg
   viewBox="0 0 585 585"
   version="1.1"
   id="svg21"
   sodipodi:docname="roda-jc-kerkrade.svg"
   inkscape:version="1.4.2 (f4327f4, 2025-05-13)"
   xmlns:inkscape="http://www.inkscape.org/namespaces/inkscape"
   xmlns:sodipodi="http://sodipodi.sourceforge.net/DTD/sodipodi-0.dtd"
   xmlns="http://www.w3.org/2000/svg"
   xmlns:svg="http://www.w3.org/2000/svg">
  <defs
     id="defs21" />
  <sodipodi:namedview
     id="namedview21"
     pagecolor="#ffffff"
     bordercolor="#000000"
     borderopacity="0.25"
     inkscape:showpageshadow="2"
     inkscape:pageopacity="0.0"
     inkscape:pagecheckerboard="0"
     inkscape:deskcolor="#d1d1d1"
     inkscape:zoom="1.3794872"
     inkscape:cx="292.5"
     inkscape:cy="292.5"
     inkscape:window-width="1920"
     inkscape:window-height="1009"
     inkscape:window-x="-8"
     inkscape:window-y="-8"
     inkscape:window-maximized="1"
     inkscape:current-layer="svg21" />
  <linearGradient
     id="a"
     x1="292.524"
     x2="292.524"
     y1="590.399"
     y2="5.352"
     gradientTransform="matrix(1 0 0 -1 0 588)"
     gradientUnits="userSpaceOnUse">
    <stop
       offset="0"
       stop-color="#ffde22"
       id="stop1" />
    <stop
       offset=".422"
       stop-color="#ffdc21"
       id="stop2" />
    <stop
       offset=".623"
       stop-color="#ffd620"
       id="stop3" />
    <stop
       offset=".776"
       stop-color="#fdcb1d"
       id="stop4" />
    <stop
       offset=".905"
       stop-color="#f9bc1a"
       id="stop5" />
    <stop
       offset=".994"
       stop-color="#f5ae18"
       id="stop6" />
  </linearGradient>
  <path
     d="M585 292.5C585 454.1 454 585 292.5 585S0 454.1 0 292.5 131 0 292.5 0 585 131 585 292.5"
     style="fill:url(#a)"
     id="path6" />
  <linearGradient
     id="b"
     x1="292.524"
     x2="292.524"
     y1="390.468"
     y2="555.152"
     gradientTransform="matrix(1 0 0 -1 0 588)"
     gradientUnits="userSpaceOnUse">
    <stop
       offset=".028"
       stop-color="#ffde22"
       id="stop7" />
    <stop
       offset=".101"
       stop-color="#ffe069"
       id="stop8" />
    <stop
       offset=".157"
       stop-color="#ffe187"
       id="stop9" />
    <stop
       offset=".507"
       stop-color="#ffe58c"
       id="stop10" />
    <stop
       offset=".68"
       stop-color="#ffe991"
       id="stop11" />
    <stop
       offset="1"
       stop-color="#fff09d"
       id="stop12" />
  </linearGradient>
  <path
     d="M292.5 206.7c47.7 0 99.5-9.2 143.9-21.6 13.4-3.8 57.4-17.2 60.4-39.1 3.1-23-25.5-65.1-70-89-39.6-21.2-85.5-33.2-134.3-33.2s-94.7 12-134.3 33.2c-44.6 23.9-73.1 66-70 89 3 21.9 47 35.3 60.4 39.1 44.4 12.4 96.3 21.6 143.9 21.6"
     style="fill:url(#b)"
     id="path12" />
  <path
     d="M472.9 79.1v426.8c-25.3 21.4-54.5 38.4-86.3 49.8V431.9c44.7-30.2 74-81.4 74-139.4s-29.4-109.1-74-139.4h-.1V29.3h.1c31.9 11.4 61 28.4 86.3 49.8M112.2 506c25.3 21.4 54.4 38.4 86.2 49.7V431.9c-44.7-30.2-74-81.4-74-139.4s29.4-109.1 74-139.4h.1V29.3h-.1c-31.8 11.4-61 28.4-86.3 49.8zm223.5-376V16.4c-14.1-2.2-28.5-3.3-43.1-3.3-14.7 0-29.1 1.1-43.1 3.3h-.1V130h.1c13.8-3.6 28.2-5.6 43.1-5.6 14.8 0 29.3 1.9 43.1 5.6"
     id="path13" />
  <path
     d="m 220.2,189.2 c -1.2,-0.5 0,0 0,0 z M 186.4,389.7 C 163,364.1 148.6,330 148.6,292.6 c 0,-37 14,-70.8 36.9,-96.2 l 6.2,8.3 c -20.6,23.5 -33,54.3 -33,87.9 0,34.7 13.3,66.4 35,90.2 z"
     id="path14"
     sodipodi:nodetypes="cccsccscc" />
  <path
     d="m 398.6,389.7 c 23.4,-25.6 37.8,-59.7 37.8,-97.1 0,-37 -14,-70.8 -36.9,-96.2 l -6.2,8.3 c 20.6,23.5 33,54.3 33,87.9 0,34.7 -13.3,66.4 -35,90.2 z"
     id="path15"
     sodipodi:nodetypes="csccscc" />
  <path
     d="m 249.4,568.6 c 14,2.2 28.4,3.3 43.1,3.3 14.7,0 29.1,-1.1 43.1,-3.3 h 0.1 V 455.1 h -0.1 c -13.8,3.6 -28.2,5.6 -43.1,5.6 -14.9,0 -29.4,-1.9 -43.1,-5.6 z M 523.8,449.3 V 135.7 l 0.1,0.1 c 30.3,44.7 48,98.6 48,156.7 0,58.1 -17.7,112.1 -48.1,156.8 m -462.6,0 V 135.7 l -0.1,0.1 c -30.3,44.7 -48,98.6 -48,156.7 0,58.1 17.7,112 48.1,156.8"
     id="path16"
     sodipodi:nodetypes="csccccscccccsccccsc" />
  <linearGradient
     id="c"
     x1="292.527"
     x2="292.527"
     y1="564.938"
     y2="400.359"
     gradientTransform="matrix(1 0 0 -1 0 588)"
     gradientUnits="userSpaceOnUse">
    <stop
       offset="0"
       stop-color="#9c9c9d"
       id="stop16" />
    <stop
       offset=".153"
       stop-color="#999a9b"
       id="stop17" />
    <stop
       offset=".28"
       stop-color="#959596"
       id="stop18" />
    <stop
       offset=".396"
       stop-color="#8d8e8f"
       id="stop19" />
    <stop
       offset=".5"
       stop-color="#838485"
       id="stop20" />
    <stop
       offset=".994"
       id="stop21" />
  </linearGradient>
  <path
     d="M112.1 171V93.5C124 80 139.7 66.9 158.2 57c12.8-6.9 26.2-12.8 40.2-17.6v113.8h-.1c-14.3 9.7-27.1 21.6-37.8 35.1v.1c-4-1-8-2.1-11.9-3.2-7.1-2-22.8-6.7-36.5-14zM249.4 27v103c13.8-3.6 28.2-5.6 43.1-5.6s29.4 1.9 43.1 5.6V26.9c-14.1-2.1-28.5-3.2-43.2-3.2s-29.1 1.1-43.2 3.2zm137.2 12.5v113.6h.1c14.3 9.7 27.1 21.6 37.8 35.1 4-1 8-2.1 11.9-3.2 7.1-2 22.9-6.7 36.5-14V93.5C461.1 80 445.3 66.9 426.8 57c-12.8-6.9-26.2-12.8-40.2-17.6z"
     style="fill:url(#c)"
     id="path21" />
</svg>
