<?xml version="1.0" encoding="UTF-8" standalone="no"?>
<svg
   fill="none"
   viewBox="3.97 4.51 200.55 213.61"
   version="1.1"
   id="svg7"
   sodipodi:docname="sc-heerenveen.svg"
   inkscape:version="1.4.2 (f4327f4, 2025-05-13)"
   xmlns:inkscape="http://www.inkscape.org/namespaces/inkscape"
   xmlns:sodipodi="http://sodipodi.sourceforge.net/DTD/sodipodi-0.dtd"
   xmlns="http://www.w3.org/2000/svg"
   xmlns:svg="http://www.w3.org/2000/svg">
  <defs
     id="defs7" />
  <sodipodi:namedview
     id="namedview7"
     pagecolor="#ffffff"
     bordercolor="#000000"
     borderopacity="0.25"
     inkscape:showpageshadow="2"
     inkscape:pageopacity="0.0"
     inkscape:pagecheckerboard="0"
     inkscape:deskcolor="#d1d1d1"
     inkscape:zoom="3.777913"
     inkscape:cx="100.18759"
     inkscape:cy="106.805"
     inkscape:window-width="1920"
     inkscape:window-height="1009"
     inkscape:window-x="-8"
     inkscape:window-y="-8"
     inkscape:window-maximized="1"
     inkscape:current-layer="svg7" />
  <mask
     id="a"
     width="210"
     height="222"
     x="0"
     y="0"
     maskUnits="userSpaceOnUse">
    <path
       fill="#fff"
       d="M0 1h209.032v221.576H0z"
       id="path1" />
  </mask>
  <g
     mask="url(#a)"
     id="g2">
    <path
       fill="#FEFEFE"
       fill-rule="evenodd"
       d="M209.032 41.023 169.053 1l-4.356 2.429c-17.27 9.625-38.642 14.925-60.179 14.925s-42.91-5.3-60.184-14.925L39.976 1 0 41.023l4.666 4.669c6.977 6.979 15.405 26.456 15.405 40.176 0 10.72-.883 22.223-2.698 35.127l-.195 1.348c-1.015 7.008-2.134 13.361-3.126 18.994-1.586 9.018-2.839 16.141-2.839 21.165 0 8.111 2.544 15.219 7.56 21.125l.91 1.059h.04c10.514 11.371 28.364 15.463 38.08 17.692l2.61.603 5.911 1.204c9.753 1.868 24.493 4.691 33.521 13.718l4.673 4.673 4.674-4.673c9.022-9.027 23.762-11.849 33.574-13.729l5.933-1.21 2.518-.585c9.931-2.275 28.391-6.507 38.844-18.523l3.624-5.119c2.745-4.816 4.132-10.254 4.132-16.235 0-4.998-1.24-12.067-2.81-21.018l-.189-1.065c-.877-4.991-1.863-10.599-2.763-16.653l-.205-1.419c-1.944-13.468-2.889-25.4-2.889-36.479 0-13.716 8.427-33.194 15.405-40.177z"
       clip-rule="evenodd"
       id="path2" />
  </g>
  <path
     fill="#004F9E"
     fill-rule="evenodd"
     d="M199.426 40.809 167.644 8.987c-18.661 10.402-41.476 15.759-63.393 15.759s-44.732-5.357-63.394-15.76L9.074 40.81C16.91 48.646 26.41 69.563 26.41 85.655c0 34.737-8.857 64.612-8.857 76.633 0 25.44 30.552 30.842 44.02 34.028 9.449 2.235 30.059 4.086 42.677 16.7 12.62-12.614 33.223-14.465 42.672-16.7 13.47-3.186 44.023-8.587 44.023-34.028 0-12.021-8.857-41.896-8.857-76.633 0-16.092 9.5-37.01 17.337-44.846"
     clip-rule="evenodd"
     id="path3" />
  <path
     fill="#004f9f"
     fill-rule="evenodd"
     d="M 204.525,40.808 168.266,4.51 165.89,5.836 C 148.182,15.704 126.291,21.14 104.252,21.14 82.206,21.14 60.319,15.704 42.608,5.836 L 40.23,4.51 38.303,6.438 3.974,40.808 l 2.547,2.55 c 7.53,7.53 16.283,27.648 16.283,42.296 0,13.21 -1.316,25.8 -2.92,36.905 H 19.88 c -1.014,7.004 -2.146,13.442 -3.135,19.057 -1.563,8.886 -2.799,15.904 -2.799,20.671 0,8.043 2.692,14.292 6.848,19.185 h 0.011 c 9.7,11.403 27.358,15.463 37.41,17.768 l 2.53,0.587 5.855,1.193 c 10.117,1.937 25.414,4.862 35.1,14.548 l 2.552,2.552 2.551,-2.552 c 9.682,-9.686 24.982,-12.61 35.097,-14.548 l 5.855,-1.193 2.525,-0.587 c 10.01,-2.293 27.544,-6.313 37.328,-17.657 h 0.001 c 0.003,-0.004 0.005,-0.007 0.008,-0.01 0.015,-0.018 0.035,-0.033 0.051,-0.05 h -0.015 c 4.183,-4.903 6.897,-11.163 6.897,-19.236 0,-4.767 -1.237,-11.785 -2.796,-20.67 -0.988,-5.62 -2.129,-12.043 -3.142,-19.055 h 0.004 c -1.605,-11.105 -2.922,-23.7 -2.922,-36.908 0,-14.647 8.754,-34.763 16.284,-42.297 z"
     clip-rule="evenodd"
     id="path4"
     sodipodi:nodetypes="cccscccccscccscccccscsccccccccscccscc" />
  <path
     fill="#fefefe"
     fill-rule="evenodd"
     d="m 185.325,57.923 c 0.76,-1.775 1.54,-3.519 2.368,-5.174 L 137.658,23.892 c -10.94472,2.697314 -22.1748,4.064854 -33.447,4.073 -13.939299,-0.0109 -27.797668,-2.118477 -41.11,-6.252 l 86.153,49.742 c -14.438,4.938 -30.274,9.158 -43.29,11.438 -1.578,0.278 -3.153,0.572 -4.725,0.882 L 18.415,35.955 c -2.37,2.367 -4.22,4.224 -5.025,5.03 7.61,9.27 15.336,27.445 16.123,42.249 l 23.835,13.758 c -9.07,3.342 -17.73,7.188 -24.935,11.488 -0.103993,1.05869 -0.214662,2.11671 -0.332,3.174 22.91,-14.372 63.711,-23.747 78.312,-26.257 27.87,-4.788 66.082,-18.255 78.932,-27.475 z m -32.87,55.421 c 11.282,-3.997 20.984,-8.185 26.982,-11.672 -0.069,-0.95 -0.102,-1.925 -0.163,-2.88 -11.364,7.004 -43.752,19.35 -73.31,24.432 -19.888,3.418 -62.613,14.037 -84.279,29.998 -0.34,2.21 -0.608,4.204 -0.767,5.918 l 84.446,48.792 c 12.282,-10.052 29.702,-12.428 41.903,-14.982 0.706,-0.15 1.42,-0.308 2.13,-0.463 L 56.5,138.856 c 17.498,-6.272 35.76,-10.537 47.396,-12.678 l 81.295,46.932 c 1.571,-3.07 2.498,-6.603 2.498,-10.744 0,-5.875 -2.416,-17.106 -4.73,-31.407 l -30.503,-17.614 z"
     clip-rule="evenodd"
     id="path5"
     sodipodi:nodetypes="cccccccccccccccccccccccccccccsccc" />
  <path
     fill="#E30613"
     fill-rule="evenodd"
     d="M161.715 132.775c.55.318 1.07-.027 1.338-.494.905-1.57 4.479-3.51 9.192-.79 4.665 2.693 4.4 8.252 2.733 11.136-2.888 5.007-11.881 10.68-21.808 4.947-9.928-5.732-9.51-16.352-6.616-21.358 1.665-2.887 6.34-5.898 11.014-3.201 4.705 2.718 4.774 6.763 3.869 8.334-.296.509-.24 1.129.278 1.426M49.685 68.11c.546.32 1.066-.025 1.338-.492.906-1.57 4.48-3.51 9.193-.79 4.665 2.694 4.394 8.25 2.732 11.136-2.89 5.006-11.884 10.681-21.808 4.947-9.929-5.73-9.51-16.35-6.622-21.36 1.67-2.884 6.342-5.896 11.015-3.202 4.706 2.72 4.777 6.764 3.872 8.335-.294.512-.237 1.127.28 1.426M176.52 54.176c-4.663-2.698-9.345.314-11.012 3.2-1.534 2.66-2.353 6.912-1.306 11.169 6.535-2.65 12.262-5.313 16.63-7.794.084-1.918-.874-4.594-4.311-6.575zM36.794 161.409c9.932 5.734 18.922.057 21.81-4.946 1.665-2.888 1.935-8.443-2.733-11.137-4.71-2.72-8.287-.78-9.19.79-.271.467-.792.808-1.341.492-.517-.299-.57-.915-.28-1.428.53-.908.694-2.652-.147-4.482-5.924 2.487-11.5 5.203-16.46 8.13.406 4.49 2.7 9.325 8.34 12.581zm64.564 17.65c.55.32 1.07-.027 1.338-.491.905-1.571 4.484-3.512 9.192-.794 4.665 2.693 4.4 8.254 2.734 11.136-2.892 5.009-11.882 10.68-21.809 4.95-9.922-5.733-9.509-16.355-6.62-21.36 1.663-2.888 6.345-5.898 11.018-3.2 4.706 2.719 4.774 6.765 3.87 8.334-.297.508-.24 1.129.277 1.426zm12.349-132.793c9.929 5.735 18.917.06 21.806-4.945 1.669-2.888 1.936-8.443-2.733-11.137-4.709-2.722-8.283-.782-9.19.79-.266.468-.787.81-1.338.493-.521-.299-.573-.917-.278-1.426.447-.77.747-1.759.288-3.274-5.294.736-10.893 1.006-16.363 1.17-1.546 5.49-.474 13.548 7.808 18.33"
     clip-rule="evenodd"
     id="path6" />
</svg>
