<?xml version="1.0" encoding="UTF-8" standalone="no"?>
<svg
   viewBox="0 0 62.95 79.81"
   version="1.1"
   id="svg15"
   sodipodi:docname="twente.svg"
   inkscape:version="1.4.2 (f4327f4, 2025-05-13)"
   xmlns:inkscape="http://www.inkscape.org/namespaces/inkscape"
   xmlns:sodipodi="http://sodipodi.sourceforge.net/DTD/sodipodi-0.dtd"
   xmlns="http://www.w3.org/2000/svg"
   xmlns:svg="http://www.w3.org/2000/svg">
  <defs
     id="defs15" />
  <sodipodi:namedview
     id="namedview15"
     pagecolor="#ffffff"
     bordercolor="#000000"
     borderopacity="0.25"
     inkscape:showpageshadow="2"
     inkscape:pageopacity="0.0"
     inkscape:pagecheckerboard="0"
     inkscape:deskcolor="#d1d1d1"
     inkscape:zoom="10.11095"
     inkscape:cx="31.500503"
     inkscape:cy="39.90723"
     inkscape:window-width="1920"
     inkscape:window-height="1009"
     inkscape:window-x="-8"
     inkscape:window-y="-8"
     inkscape:window-maximized="1"
     inkscape:current-layer="g15" />
  <g
     fill="none"
     fill-rule="nonzero"
     id="g15">
    <path
       fill="#E30621"
       d="M31.283 2.573A54.9 54.9 0 0 0 12.5 5.693a47.4 47.4 0 0 1-9.81 2.092l.755 12.932c1.66 1.519 1.66 2.2 1.892 4.98s1.66 27.199 1.66 27.199c.373 8.748.174 12.65 3.395 15.894 2.946 2.964 7.553 3.379 7.553 3.379a33.8 33.8 0 0 1 6.98.996c2.971.83 5.511 4.091 5.511 4.091h2.034s2.49-3.278 5.486-4.091a34 34 0 0 1 6.98-.996s4.607-.415 7.545-3.379c3.229-3.253 3.021-7.146 3.395-15.894 0 0 1.46-24.485 1.66-27.2.249-2.863.19-3.427 1.884-4.98l.755-12.93a47.4 47.4 0 0 1-9.736-2.092 54.9 54.9 0 0 0-18.774-3.121z"
       id="path1" />
    <path
       fill="#B20A31"
       d="M13.338 8.117a52.5 52.5 0 0 1 17.945-2.98h.381c6.11-.059 12.183.95 17.945 2.98a46.3 46.3 0 0 0 7.968 1.91c-.166 2.88-.481 8.2-.556 9.553-1.51 1.618-1.66 2.921-1.892 5.328l-.05.532c-.24 2.714-1.66 26.269-1.702 27.273l-.1 2.324c-.273 7.006-.406 9.711-2.556 11.878s-5.677 2.63-5.901 2.656a36 36 0 0 0-7.47 1.087 13.55 13.55 0 0 0-5.81 3.851 13.7 13.7 0 0 0-5.851-3.851 36 36 0 0 0-7.47-1.087c-.258 0-3.777-.457-5.935-2.631S9.96 62.05 9.669 55.037l-.09-2.257c-.067-1.063-1.462-24.626-1.71-27.349l-.05-.564c-.191-2.2-.349-3.577-1.893-5.287-.083-1.345-.39-6.64-.556-9.554a46.3 46.3 0 0 0 7.968-1.909M31.283 0A57.4 57.4 0 0 0 11.67 3.262a45 45 0 0 1-9.18 1.975L0 5.453l.141 2.49.83 13.994.83.705c.83.73.83.73.988 2.681l.05.581c.24 2.64 1.66 26.867 1.66 27.116l.09 2.2c.283 7.246.416 11.703 4.051 15.363s8.898 4.1 9.13 4.15h.158c2.153.085 4.292.391 6.383.913 1.734.473 3.643 2.49 4.15 3.196l.763.97h4.507l.772-.987c.523-.68 2.424-2.714 4.15-3.187a31.5 31.5 0 0 1 6.383-.913h.157c.225 0 5.57-.54 9.13-4.15s3.777-8.068 4.043-15.314l.09-2.29c0-.2 1.462-24.436 1.66-27.083l.05-.548c.167-1.967.167-1.967.997-2.706l.83-.705.954-16.476-2.49-.224a45 45 0 0 1-9.213-1.959A57.4 57.4 0 0 0 31.664 0z"
       id="path2" />
    <path
       fill="#E30621"
       d="M31.283 2.573A54.9 54.9 0 0 0 12.5 5.693a47.4 47.4 0 0 1-9.81 2.092l.755 12.932c1.66 1.519 1.66 2.2 1.892 4.98s1.66 27.199 1.66 27.199c.373 8.748.174 12.65 3.395 15.894 2.946 2.964 7.553 3.379 7.553 3.379a33.8 33.8 0 0 1 6.98.996c2.971.83 5.511 4.091 5.511 4.091h2.034s2.49-3.278 5.486-4.091a34 34 0 0 1 6.98-.996s4.607-.415 7.545-3.379c3.229-3.253 3.021-7.146 3.395-15.894 0 0 1.46-24.485 1.66-27.2.249-2.863.19-3.427 1.884-4.98l.755-12.93a47.4 47.4 0 0 1-9.736-2.092 54.9 54.9 0 0 0-18.774-3.121z"
       id="path3" />
    <path
       fill="#FEFEFE"
       d="M12.757 6.433a54.2 54.2 0 0 1 18.526-3.08h.381a54.1 54.1 0 0 1 18.526 3.08 46.7 46.7 0 0 0 9.255 2.05c-.075 1.286-.664 11.33-.698 11.877-1.568 1.477-1.66 2.349-1.859 4.698l-.05.54c-.232 2.688-1.66 26.219-1.66 27.223l-.09 2.316c-.275 6.872-.366 10.333-3.08 13.072-2.714 2.74-7.03 3.146-7.072 3.154-2.4.089-4.785.43-7.113 1.021-2.69.739-4.938 3.212-5.652 4.059h-1.337c-.722-.83-2.988-3.32-5.668-4.059a34 34 0 0 0-7.172-1.029s-4.316-.431-7.013-3.146-2.806-6.225-3.08-13.172l-.09-2.249c-.059-1.013-1.453-24.543-1.66-27.232l-.05-.565c-.191-2.2-.3-3.179-1.851-4.656 0-.548-.623-10.6-.698-11.886a46.6 46.6 0 0 0 9.205-2.016m18.526-4.648a55.6 55.6 0 0 0-19.032 3.17 47 47 0 0 1-9.636 2.05l-.756.067.83 14.018.24.216c1.337 1.204 1.379 1.61 1.578 3.851l.05.573c.249 2.664 1.66 26.925 1.66 27.174l.091 2.233c.332 7.171.423 11.006 3.569 14.176s7.835 3.586 8.026 3.603c2.31.086 4.605.411 6.848.97 2.68.74 5.08 3.785 5.104 3.819l.232.298h2.79l.232-.298s2.398-3.08 5.08-3.818a33.3 33.3 0 0 1 6.797-.971c.249 0 4.98-.474 8.084-3.611s3.254-6.989 3.536-14.11l.091-2.3c0-.231 1.461-24.492 1.66-27.165l.05-.54c.2-2.365.224-2.672 1.585-3.884l.241-.216.83-14.018-.755-.067a47 47 0 0 1-9.628-2.05 55.6 55.6 0 0 0-19.015-3.17z"
       id="path4" />
    <path
       fill="#fefefe"
       d="m 25.348,63.976 v 3.66 c -0.03238,0.20472 0.13313,0.38678 0.34,0.374 h 0.474 v 0.648 H 23.174 V 68.01 h 0.506 c 0.206394,0.01265 0.37166,-0.168657 0.34,-0.373 v -2.39 h -0.83 v -0.648 h 0.191 c 0.426087,0.03856 0.823512,-0.218549 0.963,-0.623 z m 2.98,1.378 c 0,0.598 0.24,0.83 0.63,0.83 0.39,0 0.632,-0.274 0.632,-0.83 0,-0.556 -0.241,-0.871 -0.631,-0.871 -0.39,0 -0.631,0.282 -0.631,0.871 m 1.353,1.137 c -0.334,0.256 -0.75,0.38 -1.17,0.349 -0.851982,0.112273 -1.603778,-0.560836 -1.586,-1.42 0,-1.095 0.971,-1.56 1.959,-1.56 1.273622,-0.0916 2.326981,0.97792 2.216,2.25 0,1.585 -0.83,2.656 -2.382,2.656 -0.614,0 -1.577,-0.208 -1.577,-0.98 -0.03773,-0.382435 0.28114,-0.705151 0.664,-0.672 0.423,0 0.689,0.224 0.689,0.506 0.01473,0.202313 -0.107723,0.389469 -0.299,0.457 0.115647,0.07643 0.251382,0.116802 0.39,0.116 0.83,0 1.112,-0.573 1.112,-1.444 z m 3.735,0.789 c 0,0.597 0.24,0.83 0.63,0.83 0.39,0 0.631,-0.274 0.631,-0.83 0,-0.556 -0.24,-0.872 -0.647,-0.872 -0.407,0 -0.63,0.274 -0.63,0.872 z m -0.083,-1.146 c 0.34,-0.24 0.756,-0.349 1.17,-0.307 0.837595,-0.08271 1.566421,0.569398 1.577,1.411 0,1.096 -0.963,1.56 -1.95,1.56 -1.295648,0.152863 -2.388413,-0.955675 -2.217,-2.249 0,-1.585 0.723,-2.656 2.4,-2.656 0.605,0 1.568,0.308 1.568,0.98 0,0.481 -0.274,0.672 -0.764,0.672 -0.306991,0.02352 -0.574642,-0.206923 -0.597,-0.514 -0.01486,-0.202046 0.10712,-0.389115 0.298,-0.457 -0.114832,-0.07816 -0.251118,-0.118697 -0.39,-0.116 -0.83,0 -1.112,0.573 -1.112,1.286 z M 37.35,63.86 c 0.531333,0.08133 1.065333,0.12 1.602,0.116 0.531,0 1.452,-0.116 1.593,-0.116 0.08023,-0.0056 0.147033,0.06073 0.142,0.141 0,0.556 -1.054,0.955 -2.034,0.955 -0.24,0.006 -0.478,-0.031 -0.705,-0.108 v 0.705 c 0.303,-0.18 0.651,-0.269 1.004,-0.257 1.037409,-0.135068 1.957505,0.671836 1.959,1.718 0,1.204 -1.005,1.76 -2.084,1.76 -0.83,0 -1.917,-0.282 -1.917,-1.32 -0.01551,-0.412115 0.317637,-0.75302 0.73,-0.747 0.370445,-0.04645 0.694374,0.249895 0.681,0.623 -0.0083,0.317463 -0.280302,0.563526 -0.597,0.54 0.18,0.18 0.424,0.285 0.68,0.29 0.78,0 1.096,-0.432 1.096,-1.179 0,-0.573 -0.258,-0.996 -0.88,-0.996 -0.265588,-0.01396 -0.521783,0.100189 -0.689,0.307 H 37.192 Z M 6.64,57.386 c 4.15,6.64 10.134,13.197 19.92,16.21 L 25.888,72.608 C 16.334,68.774 10.79,62.242 6.88,56.083 Z m 41.5,-36.221 4.54,-4.017 -1.22,-0.24 -4.034,3.593 c 0.233333,0.208667 0.454667,0.43 0.664,0.664 m -14.342,36.362 -0.125,0.905 c 4.29373,1.939058 8.759104,3.473047 13.338,4.582 0.122,-0.26 0.238333,-0.52 0.349,-0.78 -4.662532,-1.125763 -9.204565,-2.702179 -13.562,-4.707 M 28.876,54.97 c -1.479369,-0.86054 -2.916992,-1.790924 -4.308,-2.788 -0.1,0.259 -0.25,0.495 -0.44,0.697 l -0.058,0.083 c 1.342023,0.951075 2.7268,1.840336 4.15,2.665 0.18,-0.254 0.402,-0.476 0.656,-0.656"
       id="path5"
       sodipodi:nodetypes="ccccccccccccccccsssccccccsccccccccssscccccccsscccccccccccccccscccccsccccccccccccccccccccccccc" />
    <path
       fill="#FEFEFE"
       d="m50.43 48.48-.074-.083c-.266.141-.59.258-.59.15h-.074a29 29 0 0 1-2.382 13.67l.49.124-.29.83-.549-.14a34.1 34.1 0 0 1-6.183 9.13l.68.647c10.002-10.716 9.38-22.244 9.172-24.477l-.1.091z"
       id="path6" />
    <path
       fill="#FEFEFE"
       d="m47.8 62.35-.49-.133q-.165.39-.349.78l.548.141zM56.606 41.757a1568 1568 0 0 1-6.64 5.91l.324.05.382.058v.39s-.042.066-.108.116v.083c2.349-2.083 4.29-3.81 5.926-5.27z"
       id="path7" />
    <path
       fill="#FEFEFE"
       d="m50.348 48.397.1.108.082-.074.1-.034v-.108q-.141.104-.299.183M49.684 48.53c0-.2 0-.315-.042-.324l.432-.124-.274-.307.066-.058.092-.083a33 33 0 0 1-6.906-1.86 7 7 0 0 1-.423.83c2.27.897 4.63 1.546 7.038 1.934M22.958 23.298a42 42 0 0 1-1.743-6.3l-.141.166-.706-.614.125-.15a35.5 35.5 0 0 0-16.534 4.2v1.08c3.785-2.192 9.13-4.092 16.384-4.325a44 44 0 0 0 1.876 6.64q.349-.36.739-.672"
       id="path8" />
    <path
       fill="#FEFEFE"
       d="m21.082 17.164.141-.166v-.207l-.058-.407h-.664l-.125.15zM49.642 48.24s0 .157.042.423h.075c0 .133.34 0 .614-.2l-.282-.406z"
       id="path9" />
    <path
       fill="#FEFEFE"
       d="m49.8 47.808.266.365.464-.157s0 .14.042.373c.058-.058.108-.108.108-.141v-.473l-.382-.067-.324-.066-.091.1z"
       id="path10" />
    <path
       fill="#FEFEFE"
       d="m50.074 48.123.357.407q.156-.08.299-.182c0-.241-.05-.382-.05-.399zM15.397 43.675l-.291-.349q.124.193.29.349"
       id="path11" />
    <path
       fill="#E30621"
       d="m15.397 43.675-.291-.349q.124.193.29.349"
       id="path12" />
    <path
       fill="#FEFEFE"
       d="M14.35 42.363c-.265-.348-.522-.697-.78-1.037.171.405.44.761.78 1.037"
       id="path13" />
    <path
       fill="#FEFEFE"
       d="M15.33 43.592a1.4 1.4 0 0 1-.224-.274q-.39-.482-.755-.963c-.266-.349-.523-.697-.78-1.038a49 49 0 0 1-1.893-2.805c-5.486-8.806-5.81-15.305-5.81-15.38l-1.162-1.17c0 .324.515 7.976 6.109 16.982a47.8 47.8 0 0 0 8.98 10.624 3.4 3.4 0 0 1 .25-.756v-.058l.066-.124a47.4 47.4 0 0 1-4.822-5.038"
       id="path14" />
    <path
       fill="#FEFEFE"
       d="M25.73 50.107c1.74.204 3.461.549 5.146 1.03.664.223 1.12-.706 1.519-1.113s.05-1.062-.531-2.374a22 22 0 0 1-1.03-3.137 2.1 2.1 0 0 0-1.12-.382c-.523 0-.83-.174-.93-.116-.406.174-.083 1.187 0 1.826q.384 1.291.598 2.623c-.083.423-.407.556-.83.655a15.7 15.7 0 0 1-2.54-.249s-2.083-.448-3.32-.58a1.47 1.47 0 0 0-1.66 1.037q-.239.706-.332 1.444c-.05.274-.133.349-.58 1.179a1.9 1.9 0 0 0-.308 1.32c0 .224.058.257.266.373.207.116.365-.05 1.37-.54 1.003-.49 1.41-.713 1.394-.896a.76.76 0 0 0-.141-.365 3 3 0 0 1-.449-.606.2.2 0 0 1 0-.1l.523.133a.647.647 0 0 1 .498.83c.623-.68 0-1.162-.481-1.41.15 0 .315-.076.473-.117a.515.515 0 0 1 .656.382c.19-.88-.83-.83-1.137-.772l.282-.2a12.2 12.2 0 0 1 2.68.109m6.134-32.37c-.215.157-.166-.108-.166-.108s.191-.78.424-.88.572 1.286.572 1.286-.406-.606-.83-.298m-.888 2.73c0 .224-.083.69-.365.83a.764.764 0 0 1-.963-.207l-1.062.639a7.5 7.5 0 0 1 1.983-1.66c.34-.125.83.373.83.373l-.464.075m-5.437 3.727c-.15.066-.34-.191-.207-.266q.196-.097.406-.166a.357.357 0 0 1-.199.432M44.82 43.06c2.316-.771.282-2.357 1.27-4.042 1.311-2.24 2.797-.722 2.88-4.316a3.13 3.13 0 0 1 .83-2.656c1.42-1.602-.29-5.096-.29-5.096s.58 3.096-1.071 4.059a3.05 3.05 0 0 0-1.47 2.63c-.116 1.014-.14 1.072-.14 1.072a8 8 0 0 0-.067-1.818 6.64 6.64 0 0 1 0-2.988c.258-1.212 1.12-2.366 1.785-4.416s-1.86-4.15-1.86-4.15a4.017 4.017 0 0 1-.763 5.478 3.6 3.6 0 0 0-1.386 2.582s-.515-1.229 1.07-3.702c1.702-2.69-1.062-4.623-1.618-5.237-.556-.615.88-.83.83-2.158s-1.66-2.01-1.66-2.01c.404.583.687 1.24.83 1.935 0 1.162-.59 1.079-.59 1.079-.622 0-.713-.772-.713-.772s-.407.614.963 2.49-.258 4.582-.258 4.582c-.14-2.49-.93-3.32-.93-3.32s.507 1.095-.83 4.448c-.962 2.573-.066 3.096.823 4.233 3.012 3.785 2.448 5.536 2.116 5.81a.705.705 0 0 1-.996-.05c-.996-.713-.307-2.738-.598-3.726a2.17 2.17 0 0 0-1.477-1.478h-.058a2.7 2.7 0 0 0-.598-.116q.292.231.532.515c.143.177.245.384.298.606q.006.09 0 .182a8.7 8.7 0 0 1-.074 2.026c-.216 2.05-.332 2.365 1.186 3.76 2.075 1.917.548 3.95-.315 4.15v-.324c-.506-2.274-3.22-3.08-4.49-3.478-1.66-.531-4.84-5.536-4.84-5.536a2.06 2.06 0 0 1-.323-1.594c.175.47.527.85.98 1.063.589.29 1.27-.216 2.166-.2.896.017.83 1.295.83 1.295l.19-.83c.39-1.867-1.518-1.303-2.49-1.56-.97-.257.175-1.527.175-1.527a1.66 1.66 0 0 0 2.332.523 1.66 1.66 0 0 1-1.311-1.17c-.274-1.113.764-.598.764-.598.56.14.993.582 1.12 1.145a1.66 1.66 0 0 0 2.357 1.03c-1.494 0-1.444-1.66-1.444-1.66-.299-1.835-.59-1.835-1.17-2.275-.581-.44-.399-1.51.49-1.344a1.02 1.02 0 0 1 .995 1.037c.045.58.539 1.024 1.121 1.004-.606-.365-.324-1.842-.324-1.842.092-1.386-.697-1.527-1.07-1.61-2.009-.44-1.179-2.084-1.179-2.084 1.203 1.66 2.847.299 2.847.299-1.129.382-1.312 0-1.569-1.253a2.6 2.6 0 0 0-1.81-1.81q.119-.071.225-.157c1.967-1.61 2.714.34 2.714.34 0-2.673-2.332-2.183-3.478-1.776-1.145.406-1.419-1.826-3.577-1.204h-.066c-.241-.514-.498-.93-.706-.83-.316.413-.54.888-.656 1.395l-.24.124a4 4 0 0 0-.565.216c-.116-.332-.34-.921-.498-.83a5 5 0 0 0-.53 1.452 10 10 0 0 0-1.603 1.52 6.9 6.9 0 0 1-1.004 1.66c-.498.514-1.884 1.867-2.017 1.991s-.373.241-.83.615c-.456.373 0 .83.19 1.352.192.523.623.972 1.113.83.614-.132.457-.315.955-.614s1.012-.24 2.265-.24a6.07 6.07 0 0 0 3.213-1.403c.42-.677.682-1.44.763-2.233 0 0 0 .382-.108.93a3.17 3.17 0 0 1-.456 1.66 10.3 10.3 0 0 1-2.797 1.66c-.523.166-1.95-.083-2.374.041-.353.161-.667.396-.921.69l-2.582 1.66c-2.19 1.991-1.983 3.402-1.983 3.402l.423-.174c-.697 1.203-2.324.988-3.254.98-.93-.01-2.606-.125-2.606-.125-1.228.664-1.095 1.02-.921 1.436.083.55.083 1.11 0 1.66 0 0-.349 1.967-.507 3.967-.157 2 .947 2.141 1.229 2.407s.224.465.357.772.299.066.606.2q.516.3.97.688s.275-.124.416-.714a4.9 4.9 0 0 0-.24-1.768l-.217.133c-.216.133-.315.125-.672.058-.357-.066-.382-.373-.44-.98a2 2 0 0 0-.075-.34c.125-.074.25-.157.374-.24a.48.48 0 0 1 .689.124c-.075-.523-.465-.547-.83-.464l.224-.332a.44.44 0 0 1 .68-.083c-.48-.988-1.303.124-1.303.124a.4.4 0 0 1-.315.1l-.05-.067c-.232-.315-.199-.83-.199-1.552.05-.858.249-1.7.59-2.49.232-.431 1.128-.772 1.128-.772a10 10 0 0 1 3.702.299q1.119.454 2.282.772c5.188.971 5.337-2.49 5.337-2.49.739 4.88-6.972 3.154-6.972 3.154.286.857.75 1.643 1.361 2.307 4.05 5.495 6.408 5.23 6.408 5.23 1.262-.059 1.486.29 1.486.29a.8.8 0 0 0 .158-.34c.373-3.27 2.946-2.864 2.946-2.864-3.967 1.726-1.76 5.81-1.76 5.81.5 1.544 1.11 3.05 1.826 4.507a1.02 1.02 0 0 1-.415 1.278l-.207.266a34.5 34.5 0 0 1-3.619 3.32c-1.336.705-.88 1.585-.73 2.29.167.54.45 1.035.83 1.453v.498c0 .896 1.062 1.826 1.062 1.826.446-.654.835-1.346 1.162-2.067.374-.921.058-.83-.2-.83a3.4 3.4 0 0 1-.962-.182c-.423-.141-.431-.34-.1-.68.11-.068.24-.091.366-.067.24.05.83 0 .738-.432a.5.5 0 0 1-.664.116H31.3a.7.7 0 0 1 .482-.265c.307 0 1.054-.274.83-.83a.656.656 0 0 1-.789.365 1.8 1.8 0 0 0-.606-.075c.058-.199.133-.44.224-.705.216-.614 2.341-2.05 3.719-2.706s1.037-1.577 1.037-1.577c.208-2.88 1.66-3.61 1.66-3.61 2.557-1.104 3.378-1.038 4.192-3.022a6.2 6.2 0 0 0 .398-1.41s.415-.358 1.843.298c2.216 1.013 4.913.058 4.25-1.876-1.262-3.685 1.07-4.15 1.07-4.15-2.448-.73-2.905 1.81-2.39 3.594.406 1.403-1.32 1.66-1.91 1.71a5.4 5.4 0 0 1-1.834-.075c.46.032.92-.042 1.345-.216M14.716 29.54a6 6 0 0 1-.772-.83c-.05-.083-.05-.1 0-.1a.53.53 0 0 1 .423.075c.2.14.78.348.83-.1a.5.5 0 0 1-.655-.157c-.266-.324-.399-.407-.606-.415.116-.283.295-.536.523-.74.357-.298.83-.754.83-.754a4.55 4.55 0 0 1 2.59-1.461c.83-.067 1.012.548 1.51 2.34a8.6 8.6 0 0 0 1.27 2.79 9 9 0 0 1 .639-1.08c.324-.44 1.037-1.162 1.046-1.245.008-.083 0-.24-1.088-1.328a5.2 5.2 0 0 1-1.502-2.83c-.216-.83-.83-.498-1.295-.473a3.6 3.6 0 0 0-1.129.074c-.572.158-1.452 1.47-1.66 1.66a11 11 0 0 1-2.207 1.528c-.69.278-1.167.919-1.237 1.66.041.282.597 1.535.606 1.66.008.124 0 .257 0 .257.025.554.14 1.1.34 1.618.24.108.938-.722.938-.722.88-.987.78-1.32.623-1.452M32.752 6.134l4.233-3.113.066-.05-.531-.755-.066.05-5.28 3.868h1.57M20.501 16.4h.622l.059.408v.207c1.17-1.378 1.9-2.316 2.49-3.046l-1.262.124a72 72 0 0 1-1.884 2.308"
       id="path15" />
  </g>
</svg>
