<?xml version="1.0" encoding="UTF-8" standalone="no"?>
<svg
   xml:space="preserve"
   width="135.433"
   height="152.885"
   viewBox="0 0 534.74 605.426"
   version="1.1"
   id="svg10"
   sodipodi:docname="athletic-club.svg"
   inkscape:version="1.4.2 (f4327f4, 2025-05-13)"
   xmlns:inkscape="http://www.inkscape.org/namespaces/inkscape"
   xmlns:sodipodi="http://sodipodi.sourceforge.net/DTD/sodipodi-0.dtd"
   xmlns="http://www.w3.org/2000/svg"
   xmlns:svg="http://www.w3.org/2000/svg"><defs
     id="defs10" /><sodipodi:namedview
     id="namedview10"
     pagecolor="#ffffff"
     bordercolor="#000000"
     borderopacity="0.25"
     inkscape:showpageshadow="2"
     inkscape:pageopacity="0.0"
     inkscape:pagecheckerboard="0"
     inkscape:deskcolor="#d1d1d1"
     inkscape:zoom="5.5662755"
     inkscape:cx="67.72931"
     inkscape:cy="76.442497"
     inkscape:window-width="1920"
     inkscape:window-height="1111"
     inkscape:window-x="-9"
     inkscape:window-y="-9"
     inkscape:window-maximized="1"
     inkscape:current-layer="svg10" /><path
     d="M95.97 423.89C11.809 294.88 1.366 140.069-.785 0h536.313c-2.15 140.068-12.593 294.88-96.757 423.89-67.687 103.752-171.4 181.536-171.4 181.536S163.657 527.642 95.97 423.89"
     id="path1" /><path
     d="M554.971 69.877c-2.481 131.938-13.568 281.147-94.605 405.365C404.818 560.388 323.426 628.614 299 648.115c-24.426-19.501-105.818-87.728-161.366-172.873C56.597 351.024 45.511 201.814 43.029 69.877z"
     style="fill:#fff"
     transform="translate(-31.63 -57.897)"
     id="path2" /><path
     d="M453.706 79.249c-5.646 103.513-22.966 211.907-81.311 301.34-31.698 48.591-73.263 91.471-105.025 120.826-31.762-29.354-73.327-72.234-105.025-120.825C104 291.157 86.68 182.763 81.034 79.25z"
     id="path3" /><path
     d="M154.498 324.296a532 532 0 0 1-3.103-10.447l.014-.023c.288-.398.519-.57.86-.57.489 0 .752.353 1.278 1.22.585.963 1.386 2.282 3.195 2.282s2.609-1.319 3.194-2.282c.527-.867.79-1.22 1.279-1.22s.752.353 1.279 1.22c.585.963 1.386 2.282 3.194 2.282v-1.843c-.702 0-1.017-.404-1.619-1.396-.54-.889-1.28-2.106-2.854-2.106s-2.313 1.218-2.854 2.106c-.603.992-.917 1.396-1.619 1.396s-1.017-.404-1.619-1.395c-.54-.889-1.28-2.107-2.854-2.107-.571 0-1.033.16-1.414.407l-.032.014q-1.69-6-3.276-12.144l-.012-.051h77.755s.22-12.171 3.446-20.465c2.543-6.541 7.573-14.713 13.285-14.705 5.71-.009 10.741 8.164 13.285 14.705 2.306 5.93 3.077 13.842 3.328 17.87l.016.071-14.585 10.771-.012-.074v-1.583c-.702 0-1.017-.404-1.62-1.396-.54-.889-1.279-2.106-2.854-2.106s-2.314 1.218-2.854 2.107c-.603.991-.918 1.396-1.62 1.396-.701 0-1.017-.404-1.619-1.396-.54-.889-1.28-2.107-2.854-2.107s-2.314 1.218-2.854 2.107c-.602.992-.917 1.396-1.619 1.396s-1.017-.404-1.619-1.396c-.54-.889-1.28-2.107-2.854-2.107s-2.313 1.218-2.854 2.106c-.602.992-.917 1.396-1.619 1.396v1.843c1.808 0 2.609-1.319 3.194-2.282.527-.867.79-1.22 1.278-1.22.489 0 .752.353 1.279 1.22.585.963 1.386 2.282 3.194 2.282s2.609-1.319 3.194-2.282c.527-.867.79-1.22 1.279-1.22s.752.353 1.278 1.22c.585.963 1.387 2.282 3.194 2.282 1.809 0 2.61-1.319 3.195-2.282.527-.867.79-1.22 1.279-1.22s.752.353 1.279 1.22c.554.913 1.302 2.144 2.917 2.271l.048.002-19.23 14.202-.03-.026-.021-.034c-.54-.889-1.28-2.107-2.854-2.107s-2.313 1.218-2.854 2.106c-.602.992-.917 1.396-1.619 1.396v1.843c1.808 0 2.609-1.319 3.194-2.282.527-.867.79-1.22 1.278-1.22.489 0 .752.354 1.279 1.22l.105.171.024.038-7.448 5.5-.035-.011a2.7 2.7 0 0 0-.651-.076c-1.575 0-2.314 1.217-2.854 2.106-.602.991-.917 1.395-1.619 1.395s-1.017-.404-1.619-1.396c-.541-.889-1.28-2.106-2.854-2.106s-2.314 1.217-2.854 2.106c-.602.992-.917 1.396-1.619 1.396v1.843c1.808 0 2.609-1.319 3.194-2.282.526-.867.79-1.22 1.278-1.22.489 0 .752.354 1.279 1.22.387.637.869 1.43 1.674 1.894l.047.027-7.181 5.303-.021-.02c-.518-.778-1.246-1.583-2.525-1.583-1.574 0-2.313 1.218-2.853 2.106-.603.991-.918 1.396-1.62 1.396s-1.017-.404-1.62-1.396c-.54-.888-1.279-2.106-2.853-2.106s-2.314 1.218-2.854 2.106c-.603.992-.918 1.396-1.62 1.396v1.843c1.809 0 2.61-1.318 3.195-2.281.526-.867.79-1.22 1.279-1.22s.751.353 1.278 1.22c.584.963 1.386 2.281 3.194 2.281s2.609-1.318 3.194-2.281c.527-.867.79-1.22 1.278-1.22.404 0 .653.241 1.025.813l.023.053-8.101 5.983-.053.018c-1.082.146-1.723.907-2.19 1.626l-.015.023-2.363 1.745-.039-.016c-.388-.173-.672-.582-1.105-1.296-.54-.889-1.28-2.106-2.854-2.106s-2.314 1.217-2.854 2.106c-.602.991-.918 1.396-1.619 1.396-.702 0-1.017-.404-1.62-1.396-.54-.889-1.279-2.106-2.854-2.106s-2.313 1.217-2.854 2.106c-.603.992-.918 1.396-1.62 1.396v1.843c1.809 0 2.609-1.318 3.194-2.282.527-.867.79-1.22 1.279-1.22s.752.353 1.279 1.22c.585.963 1.386 2.282 3.195 2.282s2.609-1.318 3.194-2.282c.527-.867.79-1.22 1.279-1.22s.752.353 1.279 1.22c.288.475.629 1.036 1.117 1.483l.04.027-7.008 5.176-.024-.014c-.487-.574-1.145-1.05-2.129-1.05-1.575 0-2.313 1.218-2.854 2.106-.602.992-.917 1.396-1.619 1.396s-1.017-.404-1.619-1.396c-.54-.889-1.279-2.107-2.854-2.107-1.104 0-1.797.599-2.299 1.262-.024.032-.071.111-.095.144l-.02-.055a469 469 0 0 1-2.174-5.745l.065.066c.524.553 1.23.987 2.269.987v-1.843c-.702 0-1.017-.404-1.619-1.396-.46-.756-1.064-1.751-2.205-2.03l-.056-.016a464 464 0 0 1-2.38-6.771l.047.025c.243.18.469.521.799 1.063.585.963 1.386 2.281 3.195 2.281s2.609-1.318 3.194-2.281c.527-.867.79-1.22 1.279-1.22s.752.353 1.278 1.22c.585.963 1.386 2.281 3.195 2.281s2.61-1.318 3.195-2.281c.526-.867.79-1.22 1.278-1.22.489 0 .752.353 1.279 1.22.585.963 1.386 2.281 3.194 2.281v-1.843c-.701 0-1.017-.404-1.619-1.396-.54-.888-1.279-2.106-2.854-2.106s-2.313 1.218-2.854 2.106c-.602.992-.917 1.396-1.619 1.396s-1.017-.404-1.619-1.396c-.54-.889-1.279-2.106-2.854-2.106-1.574 0-2.314 1.218-2.854 2.106-.602.991-.917 1.396-1.619 1.396s-1.017-.404-1.62-1.396c-.541-.888-1.28-2.106-2.854-2.106q-.103 0-.201.007l-.037.003q-.583-1.726-1.158-3.463l.053-.014c1.189-.353 1.808-1.372 2.284-2.155.527-.867.79-1.22 1.279-1.22s.752.354 1.279 1.22c.585.963 1.386 2.282 3.194 2.282v-1.843c-.702 0-1.017-.404-1.619-1.396-.54-.889-1.28-2.106-2.854-2.106s-2.313 1.217-2.854 2.106c-.5.823-.802 1.242-1.292 1.359l-.046.007a494 494 0 0 1-2.158-6.778l-.029-.049c1.59-.142 2.332-1.362 2.882-2.268.527-.867.79-1.22 1.279-1.22s.752.354 1.279 1.22c.585.963 1.386 2.282 3.195 2.282s2.609-1.319 3.194-2.282c.527-.867.79-1.22 1.279-1.22s.752.354 1.278 1.22c.585.963 1.386 2.282 3.195 2.282s2.61-1.319 3.195-2.282c.526-.867.79-1.22 1.278-1.22.489 0 .752.354 1.279 1.22.585.963 1.386 2.282 3.194 2.282V323.6c-.701 0-1.017-.404-1.619-1.396-.54-.889-1.279-2.106-2.854-2.106s-2.313 1.218-2.854 2.107c-.602.991-.917 1.395-1.619 1.395s-1.017-.404-1.619-1.395c-.54-.889-1.279-2.107-2.854-2.107-1.574 0-2.314 1.218-2.854 2.107-.602.992-.917 1.395-1.619 1.395s-1.017-.404-1.62-1.395c-.541-.889-1.28-2.107-2.854-2.107s-2.314 1.218-2.854 2.106c-.603.992-.918 1.396-1.62 1.396v.741zM322.222 250.098l-14.44-3.469-.081-.026v-17.796l.054-.004a38 38 0 0 0 3.286-.341c.884-.135.383 1.576 1.095 2.313.711.735 1.234 1.411.842 1.989-.771 1.128-1.499 1.479-2.429 1.479-.931 0-1.533.683-1.533 1.052 0 .367.492.209 1.916.209s2.682-.104 3.448-1.366c.67-1.103 1.299-1.804 1.336-2.526.005-.104.117-.209.354-.069.376.223.999.543 1.704.703 1.149.264 1.654.85 1.654 1.9 0 1.051.042 1.41-.779 1.41-.82 0-1.095.263-1.095.63 0 .368.821.579 1.861.526s2.08-.42 2.135-1.734.273-3.049-.658-3.574c-.93-.525-1.751-.998-1.477-2.627s.274-2.68.274-2.68 1.058 1.226 2.426 2.75c1.368 1.523 2.528 3.136 4.992 3.609 2.462.473 3.853-.445 4.453-1.075.602-.631.224-1.604-1.199-1.5s-3.832.315-5.309-1.313c-1.479-1.628-2.836-3.838-6.009-4.942-3.175-1.104-5.591-1.213-8.332-1.154-1.09.023-2.059.063-2.972.112l-.039.003v-19.899l.039-.005a38 38 0 0 0 3.301-.341c.884-.135.383 1.576 1.095 2.312.711.736 1.234 1.412.842 1.989-.771 1.129-1.499 1.479-2.429 1.479-.931 0-1.533.683-1.533 1.051s.492.21 1.916.21 2.682-.105 3.448-1.366c.67-1.104 1.299-1.804 1.336-2.526.005-.103.117-.208.354-.068.376.223.999.542 1.704.703 1.149.264 1.654.85 1.654 1.901s.042 1.41-.779 1.41c-.82 0-1.095.263-1.095.631s.821.579 1.861.526 2.08-.42 2.135-1.734.273-3.048-.658-3.574c-.93-.524-1.751-.998-1.477-2.627s.274-2.68.274-2.68 1.058 1.226 2.426 2.75c1.368 1.523 2.528 3.136 4.992 3.609 2.462.473 3.853-.445 4.453-1.075.602-.631.224-1.605-1.199-1.5s-3.832.315-5.309-1.313c-1.479-1.628-2.836-3.838-6.009-4.942-3.175-1.104-5.591-1.212-8.332-1.154a89 89 0 0 0-2.957.111l-.054.005v-7.53l.038-.009a17.81 17.81 0 0 0 13.104-13.107l.015-.033h6.753a.71.71 0 0 0 .705-.706v-6.883a.707.707 0 0 0-.705-.705h-6.753l-.018-.047a17.81 17.81 0 0 0-13.103-13.094l-.036-.015v-2.976a.707.707 0 0 0-.705-.705h-6.884a.707.707 0 0 0-.705.705v2.976l-.021.013a17.81 17.81 0 0 0-13.114 13.084l-.014.06h-6.758a.707.707 0 0 0-.705.705v6.883c0 .388.317.706.705.706h6.758l.015.061a17.81 17.81 0 0 0 13.091 13.078l.043.011v8.106l-.033-.005c-2.758.14-5.67.158-6.688-.354-1.443-.726-2.023-1.706-2.285-2.88a71 71 0 0 1-.396-1.881c-.031-.152-.133-.18-.26-.088-.241.175-.631.472-.856.726 0 0-.002-.241-.03-.529a.166.166 0 0 0-.259-.112 5.2 5.2 0 0 0-1.025.823c-.509.525-.216.951-1.079 1.168s-1.459.929-2.342 1.003c-.882.074-1.544.311-1.437.732.108.421.485 1.735 1.693 1.857 1.208.123 2.029.202 2.611.461s1.142.883 1.843 1.996c.701 1.114 1.222 1.928.92 2.261-.3.333-1.047.678-1.777.78s-2.381.718-3.149 1.261-1.48.848-.767 1.269c.319.188 1.136.26 1.778-.12s2.456-1.236 4.241-1.202c1.84.036 2.529-.012 3.475.729.569.445 1.784 1.54 1.873 2.404.143 1.385-.097 2.872-.729 2.96-.633.088-1.419.149-1.382.773.037.625.358.435 1.533.32s1.91-.896 2.119-1.894.2-1.772.412-3.109c.099-.626.236-.973.33-1.179.419-.919.567-1.598 1.628-1.982l.04-.015v19.928l-.033.012c-2.758.14-5.671.158-6.688-.354-1.443-.726-2.023-1.705-2.285-2.88a70 70 0 0 1-.396-1.882c-.031-.151-.133-.179-.26-.087-.241.175-.631.473-.856.726 0 0-.002-.242-.03-.529a.166.166 0 0 0-.259-.111 5.2 5.2 0 0 0-1.025.822c-.509.526-.216.952-1.079 1.168-.863.217-1.459.929-2.342 1.004-.882.074-1.544.311-1.437.732.108.421.485 1.735 1.693 1.857 1.208.123 2.029.203 2.611.46.582.259 1.142.883 1.843 1.997s1.222 1.929.92 2.261c-.3.333-1.047.678-1.777.78s-2.381.718-3.149 1.261-1.48.849-.767 1.269c.319.188 1.136.261 1.778-.119s2.456-1.235 4.241-1.202c1.84.036 2.529-.012 3.475.729.569.445 1.784 1.54 1.873 2.404.143 1.385-.097 2.872-.729 2.96-.633.087-1.419.148-1.382.773.037.624.358.434 1.533.32 1.175-.115 1.91-.896 2.119-1.893.209-.998.2-1.772.412-3.11.099-.625.236-.973.33-1.179.419-.918.567-1.596 1.625-1.98l.042-.002v15.262l-.109-.026-45.073-10.829c-.377-.091-.95.011-1.273.225l-27.074 17.957c-.324.214-.588.072-.588-.315v-47.966a.71.71 0 0 0-.706-.705h-30.861a.71.71 0 0 0-.706.705v34.759a.71.71 0 0 1-.706.706h-57.274l-.015-.07c-4.377-27.391-7.534-56.945-9.645-89.931h333.649l-.08.064-136.66 100.926z"
     style="fill:#fff"
     transform="translate(-31.63 -57.897)"
     id="path4" /><path
     d="M43.649 210.353c-.24.306-.752.556-1.14.556h-9.993c-.388 0-.51-.25-.271-.556l19.462-24.92a.95.95 0 0 0 0-1.112L32.245 159.4c-.238-.306-.117-.556.27-.556h9.994c.388 0 .9.25 1.14.556l13.76 17.621c.24.306.63.306.87 0l13.76-17.621c.239-.306.752-.556 1.14-.556h9.993c.388 0 .51.25.27.556L63.98 184.321a.95.95 0 0 0 0 1.112l19.462 24.92c.239.306.117.556-.271.556h-9.993c-.388 0-.901-.25-1.14-.556l-13.761-17.621c-.24-.305-.63-.305-.87 0zM491.09 210.353c.239.306.753.556 1.14.556h9.994c.388 0 .51-.25.27-.556l-19.461-24.92a.95.95 0 0 1 0-1.112l19.462-24.921c.239-.306.117-.556-.271-.556h-9.994c-.387 0-.9.25-1.14.556l-13.76 17.621c-.24.306-.63.306-.87 0L462.7 159.4c-.237-.306-.75-.556-1.138-.556h-9.994c-.388 0-.51.25-.271.556l19.462 24.921a.95.95 0 0 1 0 1.112l-19.462 24.92c-.238.306-.117.556.27.556h9.995c.388 0 .9-.25 1.139-.556l13.76-17.621c.24-.305.63-.305.869 0zM134.289 169.096c-6.647 0-12.351 3.288-14.788 7.973h29.577c-2.436-4.685-8.14-7.973-14.79-7.973"
     id="path5" /><path
     d="m290.17 273.835-27.154 20.054.001-.044c.414-4.25 1.278-10.061 3.072-14.672 2.543-6.541 7.574-14.713 13.285-14.705 4.191-.007 8.016 4.393 10.76 9.321zM173.349 375.001l298.854-220.709.083-.069c-3.553 52.25-9.813 95.869-19.489 136.07-13.223 54.931-32.458 101.264-58.804 141.648-28.81 44.161-66.178 83.584-94.992 110.942-28.815-27.358-66.183-66.781-94.992-110.942-11.577-17.746-21.781-36.64-30.705-56.909z"
     style="fill:#fff"
     transform="translate(-31.63 -57.897)"
     id="path6" /><path
     d="M277.048 521.239A809 809 0 0 0 299 542.884a811 811 0 0 0 19.663-19.309l.021-.018V267.682l-.027.008-41.609 30.728-.022.02V521.21zM356.606 481.961V239.664l.027-.022 41.602-30.723.029-.01v216.336l-.021.029a384 384 0 0 1-4.251 6.667c-11.461 17.566-24.275 34.385-37.367 49.99zM197.482 421.577q3.187 5.248 6.526 10.364c10.786 16.535 22.772 32.404 35.06 47.225l.035.044V326.443l-.038.026-41.592 30.717-.028.027v64.285zM436.188 346.255V180.904l.022-.03 35.992-26.582.083-.069c-3.553 52.25-9.813 95.869-19.489 136.07-4.744 19.707-10.262 38.306-16.603 55.922z"
     style="fill:#ee2523"
     transform="translate(-31.63 -57.897)"
     id="path7" /><path
     d="m178.258 108.745 15.086 30.155c.174.347-.002.631-.39.631h-30.861c-.388 0-.563-.284-.39-.631l15.08-30.144.05-.105v-5.903l-.026-.03c-.938-.961-1.617-3.539-1.617-4.578a2.334 2.334 0 1 1 4.668 0c0 1.042-.683 3.63-1.625 4.585l-.02.022v5.933zM173.748 246.936c-.602.991-.917 1.396-1.62 1.396-.701 0-1.016-.404-1.62-1.396-.54-.889-1.278-2.107-2.853-2.107-1.574 0-2.313 1.218-2.853 2.107-.603.992-.918 1.396-1.62 1.396s-1.017-.404-1.62-1.396c-.54-.889-1.28-2.107-2.853-2.107-1.575 0-2.314 1.218-2.854 2.106-.603.992-.918 1.396-1.62 1.396v1.843c1.809 0 2.61-1.319 3.195-2.282.526-.867.79-1.22 1.279-1.22s.75.353 1.278 1.22c.584.963 1.386 2.282 3.194 2.282s2.609-1.319 3.194-2.282c.527-.867.79-1.22 1.278-1.22.489 0 .752.353 1.279 1.22.585.963 1.386 2.282 3.195 2.282s2.609-1.319 3.194-2.282c.527-.867.79-1.22 1.279-1.22s.752.353 1.278 1.22c.585.963 1.386 2.282 3.194 2.282v-1.843c-.702 0-1.017-.404-1.62-1.396-.54-.889-1.278-2.106-2.853-2.106-1.571 0-2.31 1.218-2.851 2.107M142.404 246.936c-.602.991-.917 1.396-1.62 1.396-.701 0-1.016-.404-1.618-1.396-.54-.889-1.28-2.107-2.854-2.107s-2.314 1.218-2.854 2.107c-.602.992-.917 1.396-1.62 1.396-.701 0-1.016-.404-1.62-1.396-.54-.889-1.28-2.107-2.853-2.107s-2.314 1.218-2.854 2.106c-.603.992-.918 1.396-1.62 1.396v1.843c1.809 0 2.609-1.319 3.194-2.282.527-.867.79-1.22 1.279-1.22s.752.353 1.279 1.22c.585.963 1.386 2.282 3.195 2.282s2.609-1.319 3.194-2.282c.527-.867.79-1.22 1.279-1.22s.752.353 1.278 1.22c.585.963 1.386 2.282 3.195 2.282s2.61-1.319 3.195-2.282c.526-.867.79-1.22 1.278-1.22.489 0 .752.353 1.279 1.22.585.963 1.386 2.282 3.194 2.282v-1.843c-.701 0-1.017-.404-1.62-1.396-.54-.889-1.278-2.106-2.853-2.106-1.574 0-2.313 1.218-2.853 2.107M215.543 238.249c-.603.992-.917 1.396-1.62 1.396-.702 0-1.017-.404-1.62-1.396-.54-.889-1.28-2.106-2.853-2.106-1.575 0-2.314 1.217-2.854 2.106-.602.991-.917 1.396-1.62 1.396-.701 0-1.016-.404-1.62-1.396-.54-.889-1.278-2.105-2.853-2.105-1.574 0-2.313 1.217-2.854 2.105-.603.992-.918 1.396-1.62 1.396v1.843c1.809 0 2.61-1.319 3.195-2.282.527-.868.79-1.22 1.279-1.22s.753.353 1.279 1.22c.585.963 1.386 2.282 3.195 2.282s2.609-1.319 3.194-2.282c.527-.868.79-1.22 1.279-1.22s.752.353 1.278 1.22c.585.963 1.386 2.282 3.194 2.282s2.61-1.319 3.195-2.282c.527-.868.79-1.22 1.279-1.22s.75.353 1.279 1.22c.585.963 1.386 2.282 3.194 2.282v-1.843c-.702 0-1.017-.404-1.62-1.396-.54-.889-1.28-2.105-2.854-2.105-1.572 0-2.312 1.216-2.852 2.105M173.748 264.308c-.602.991-.917 1.395-1.62 1.395-.701 0-1.016-.404-1.62-1.395-.54-.889-1.278-2.107-2.853-2.107-1.574 0-2.313 1.218-2.853 2.107-.603.992-.918 1.395-1.62 1.395s-1.017-.404-1.62-1.395c-.54-.889-1.28-2.107-2.853-2.107-1.575 0-2.314 1.218-2.854 2.106-.603.992-.918 1.396-1.62 1.396v1.843c1.809 0 2.61-1.319 3.195-2.282.526-.867.79-1.22 1.279-1.22s.75.354 1.278 1.22c.584.963 1.386 2.282 3.194 2.282s2.609-1.319 3.194-2.282c.527-.867.79-1.22 1.278-1.22.489 0 .752.354 1.279 1.22.585.963 1.386 2.282 3.195 2.282s2.609-1.319 3.194-2.282c.527-.867.79-1.22 1.279-1.22s.752.354 1.278 1.22c.585.963 1.386 2.282 3.194 2.282v-1.843c-.702 0-1.017-.404-1.62-1.396-.54-.889-1.278-2.106-2.853-2.106-1.571 0-2.31 1.218-2.851 2.107M158.076 255.622c-.602.991-.917 1.395-1.62 1.395-.701 0-1.016-.404-1.618-1.395-.54-.889-1.28-2.107-2.854-2.107s-2.314 1.218-2.854 2.107c-.602.992-.918 1.395-1.62 1.395-.701 0-1.016-.404-1.62-1.395-.54-.889-1.278-2.107-2.853-2.107s-2.313 1.218-2.854 2.106c-.603.992-.918 1.396-1.62 1.396v1.843c1.809 0 2.609-1.319 3.194-2.282.527-.867.79-1.221 1.279-1.221s.752.354 1.279 1.221c.585.963 1.386 2.282 3.195 2.282s2.609-1.319 3.194-2.282c.527-.867.79-1.221 1.279-1.221s.752.354 1.279 1.221c.585.963 1.386 2.282 3.194 2.282s2.609-1.319 3.195-2.282c.526-.867.79-1.221 1.279-1.221s.75.354 1.278 1.221c.585.963 1.386 2.282 3.194 2.282v-1.843c-.702 0-1.017-.404-1.62-1.396-.54-.889-1.28-2.106-2.853-2.106s-2.313 1.218-2.853 2.107M189.422 255.622c-.603.991-.918 1.395-1.62 1.395s-1.017-.404-1.62-1.395c-.54-.889-1.28-2.107-2.853-2.107-1.575 0-2.314 1.218-2.854 2.107-.602.992-.917 1.395-1.62 1.395-.701 0-1.016-.404-1.618-1.395-.541-.889-1.28-2.107-2.854-2.107s-2.314 1.218-2.854 2.106c-.602.992-.917 1.396-1.62 1.396v1.843c1.809 0 2.61-1.319 3.195-2.282.526-.867.79-1.221 1.278-1.221.489 0 .752.354 1.279 1.221.585.963 1.386 2.282 3.194 2.282s2.61-1.319 3.195-2.282c.526-.867.79-1.221 1.279-1.221s.75.354 1.278 1.221c.585.963 1.386 2.282 3.194 2.282s2.61-1.319 3.194-2.282c.527-.867.79-1.221 1.279-1.221s.752.354 1.279 1.221c.585.963 1.386 2.282 3.195 2.282v-1.843c-.702 0-1.017-.404-1.62-1.396-.54-.889-1.28-2.106-2.854-2.106-1.572 0-2.312 1.218-2.852 2.107M158.076 272.994c-.602.992-.917 1.396-1.62 1.396-.701 0-1.016-.404-1.618-1.395-.54-.889-1.28-2.106-2.854-2.106s-2.314 1.217-2.854 2.106c-.602.991-.918 1.395-1.62 1.395-.701 0-1.016-.404-1.62-1.396-.54-.889-1.278-2.106-2.853-2.106s-2.313 1.217-2.854 2.106c-.603.992-.918 1.396-1.62 1.396v1.843c1.809 0 2.609-1.319 3.194-2.282.527-.867.79-1.22 1.279-1.22s.752.354 1.279 1.22c.585.963 1.386 2.282 3.195 2.282s2.609-1.319 3.194-2.282c.527-.867.79-1.22 1.279-1.22s.752.354 1.279 1.22c.585.963 1.386 2.282 3.194 2.282s2.609-1.319 3.195-2.282c.526-.867.79-1.22 1.279-1.22s.75.354 1.278 1.22c.585.963 1.386 2.282 3.194 2.282v-1.843c-.702 0-1.017-.404-1.62-1.396-.54-.889-1.28-2.106-2.853-2.106s-2.313 1.217-2.853 2.106"
     id="path8" /><path
     d="M166.41 358.457a440 440 0 0 0 2.094 5.24l.047-.044 4.924-3.636-.09.026a3.2 3.2 0 0 1-.97.145c-1.809 0-2.61-1.319-3.195-2.282-.526-.867-.79-1.22-1.278-1.22-.489 0-.752.353-1.279 1.22q-.133.223-.286.46zM174.884 358.976l2.667-1.97-.047-.045c-.19-.19-.376-.276-.617-.276-.488 0-.752.353-1.278 1.22-.188.308-.397.653-.656.98z"
     style="fill:#fff"
     transform="translate(-31.63 -57.897)"
     id="path9" /></svg>
