<?xml version="1.0" encoding="UTF-8" standalone="no"?>
<svg
   width="300"
   height="299.258"
   version="1.1"
   id="svg12"
   sodipodi:docname="deportivo-alaves.svg"
   inkscape:version="1.4.2 (f4327f4, 2025-05-13)"
   xmlns:inkscape="http://www.inkscape.org/namespaces/inkscape"
   xmlns:sodipodi="http://sodipodi.sourceforge.net/DTD/sodipodi-0.dtd"
   xmlns="http://www.w3.org/2000/svg"
   xmlns:svg="http://www.w3.org/2000/svg">
  <defs
     id="defs12" />
  <sodipodi:namedview
     id="namedview12"
     pagecolor="#ffffff"
     bordercolor="#000000"
     borderopacity="0.25"
     inkscape:showpageshadow="2"
     inkscape:pageopacity="0.0"
     inkscape:pagecheckerboard="0"
     inkscape:deskcolor="#d1d1d1"
     inkscape:zoom="2.8437001"
     inkscape:cx="150.15648"
     inkscape:cy="160.88194"
     inkscape:window-width="1920"
     inkscape:window-height="1111"
     inkscape:window-x="-9"
     inkscape:window-y="-9"
     inkscape:window-maximized="1"
     inkscape:current-layer="svg12" />
  <path
     d="M297.638 137.48A284.173 283.465 0 0 1 581.81 420.945 284.173 283.465 0 1 1 297.638 137.48"
     style="fill:#0232a0;fill-rule:evenodd"
     transform="matrix(.52433 0 0 .52433 -6.06 -71.085)"
     id="path1" />
  <path
     d="M297.638 145.008a276.645 275.937 0 0 1 276.645 275.937 276.645 275.937 0 1 1-276.645-275.937"
     style="fill:#fff;fill-rule:evenodd"
     transform="matrix(.52433 0 0 .52433 -6.06 -71.085)"
     id="path2" />
  <path
     d="M297.773 152.535A268.646 268.186 0 0 1 566.42 420.721a268.646 268.186 0 1 1-268.647-268.186"
     style="fill:#0232a0;fill-rule:evenodd"
     transform="matrix(.52433 0 0 .52433 -6.06 -71.085)"
     id="path3" />
  <path
     d="M297.833 233.744a187.417 186.99 0 0 1 187.416 186.989 187.417 186.99 0 1 1-187.416-186.99"
     style="fill:#fff;fill-rule:evenodd"
     transform="matrix(.52433 0 0 .52433 -6.06 -71.085)"
     id="path4" />
  <path
     d="M297.446 241.594a179.502 179.061 0 0 1 179.502 179.062 179.502 179.061 0 1 1-179.502-179.062"
     style="fill:#0232a0;fill-rule:evenodd"
     transform="matrix(.52433 0 0 .52433 -6.06 -71.085)"
     id="path5" />
  <path
     d="M297.45 248.543a172.405 172.113 0 0 1 172.405 172.113A172.405 172.113 0 1 1 297.45 248.543"
     style="fill:#fff;fill-rule:evenodd"
     transform="matrix(.52433 0 0 .52433 -6.06 -71.085)"
     id="path6" />
  <path
     d="M337.57 497.816c-22.515 7.122-44.134 16.745-64.15 29.37-25.04 15.794-44.379 32.318-61.064 57.124l-8.905 13.24-111.51-281.915 8.773-2.62c38.23-11.418 79.022-13.884 118.575-9.485 28.668 3.189 56.62 10.055 83.568 20.327l3.36 1.281 4.39 10.464c18.159 5.709 36.64 10.717 55.293 14.462 16.931 3.4 34.511 5.894 51.801 6.1 27.441.328 45.718-3.674 58.685-18.094 6.11-6.795 10.55-14.473 14.428-28.192 7.44 15.475 11.605 31.542 11.954 49.416.422 21.603-5.13 43.89-15.247 61.979-11.316 20.23-27.113 36.37-45.937 49.726-26.795 19.012-58.899 31.689-90.305 40.748l-7.306 2.108z"
     style="fill:#fff;fill-rule:evenodd"
     transform="matrix(.52433 0 0 .52433 -6.06 -71.085)"
     id="path7" />
  <path
     d="M103.117 321.06 205.39 579.625c17.823-26.5 38.115-43.497 63.55-59.54 21.468-13.54 45.878-24.5 73.57-32.539l6.442 16.134c34.975-10.089 64.548-23.049 87.774-39.528 18.645-13.23 33.152-28.535 43.467-46.978 13.238-23.667 18.788-57.01 9.853-84.891-11.69 23.836-37.862 32.69-72.445 32.277-32.487-.388-72.044-8.939-113.234-22.13l-4.5-10.727c-27.015-10.298-54.156-16.786-81.506-19.828-37.94-4.22-77.722-2.022-115.245 9.185"
     style="fill:#0232a0;fill-rule:evenodd"
     transform="matrix(.52433 0 0 .52433 -6.06 -71.085)"
     id="path8" />
  <path
     d="M474.068 358.566c-5.573 4.988-12.802 8.027-21.736 10.16-10.497 2.508-22.785 3.504-34.82 3.36-18.292-.218-38.112-2.653-56.025-6.25-21.7-4.357-40.058-8.472-63.518-15.697l-5.066-12.851c-24.761-9.169-49.108-13.572-75.374-16.493-34.705-3.86-70.797-.427-100.507 7.656l20.33 50.927c17.564-6.53 38.428-10.542 62.607-12.454 30.245-2.39 65.532-1.39 106.174 3.834l4.373 11.168c44.09 4.786 82.227 5.432 111.604-.202 22.132-4.245 42.356-11.625 51.958-23.158M175.68 475.388l32.857 82.31c15.6-18.811 30.215-31.163 53.83-46.059 26.885-16.957 59.47-29.355 85.472-35.398l5.992 14.994c28.03-7.275 53.668-16.604 77.092-33.223 16.876-11.975 32.262-26.8 42.41-44.948 4.246-7.591 7.794-15.808 10.118-24.64-16.204 17.713-36.465 30.465-57.449 39.963-26.758 12.113-56.16 19.236-88.006 22.92l-4.672-11.776c-35.069-.51-60.759 1.841-89.08 8.207-24.193 5.438-50.735 14.93-68.564 27.65"
     style="fill:#fff;fill-rule:evenodd"
     transform="matrix(.52433 0 0 .52433 -6.06 -71.085)"
     id="path9" />
  <path
     d="M317.679 355.824a555 555 0 0 1-19.71-5.685l12.579 31.792q9.67 1.051 18.946 1.825zm20.318 95.484 15.834 39.928c6.409-1.663 12.692-3.434 18.853-5.375l-15.74-37.211a385 385 0 0 1-18.947 2.658"
     style="fill:#d9e0e7;fill-rule:evenodd"
     transform="matrix(.52433 0 0 .52433 -6.06 -71.085)"
     id="path10" />
  <path
     d="m310.538 381.93 27.458 69.378a385 385 0 0 0 18.948-2.658l-27.45-64.894a767 767 0 0 1-18.956-1.826"
     style="fill:#082e86;fill-rule:evenodd"
     transform="matrix(.52433 0 0 .52433 -6.06 -71.085)"
     id="path11" />
  <path
     d="m 543.273,407.561 h -4.272 l -6.67,2.189 1.025,4.254 4.612,-1.275 v 21.916 h 5.305 z M 61.228,407.417 h -4.272 l -6.672,2.188 1.026,4.254 4.612,-1.275 V 434.5 h 5.306 z m 28.259,12.966 c -0.002,-3.935 -0.597,-7.094 -2.45,-9.585 -1.741,-2.34 -4.6,-3.916 -8.576,-3.916 -5.426,0 -10.003,4.013 -10.003,9.711 0,5.44 4.61,8.46 9.702,8.467 2.646,0.004 4.683,-1.002 5.933,-2.323 -0.181,4.069 -2.382,7.276 -5.92,7.441 -2.358,0.11 -4.324,-0.871 -6.221,-2.719 l -2.72,4.01 c 2.93,2.138 5.4,3.296 8.984,3.292 2.924,-0.003 5.724,-1.419 7.674,-3.56 2.62,-2.875 3.599,-7.12 3.597,-10.818 m -10.603,0.428 c -2.495,-0.1 -5.034,-1.532 -5.167,-4.374 -0.144,-3.088 1.825,-4.898 4.842,-4.911 3.637,-0.016 5.468,2.222 5.361,4.673 -0.107,2.456 -2.013,4.734 -5.036,4.612 m 437.836,9.035 c 3.24,-2.923 7.806,-5.808 10.193,-9.536 0.845,-1.32 1.511,-3.033 1.502,-4.597 -0.018,-3.229 -1.745,-5.988 -4.308,-7.387 -1.537,-0.84 -3.472,-1.19 -5.257,-1.154 -1.732,0.034 -3.714,0.711 -5.263,1.644 -1.7,1.025 -2.942,2.535 -4.168,4.403 l 3.689,2.806 c 1.473,-2.171 3.239,-4.154 5.879,-4.148 2.253,0.006 4.025,1.654 4.046,4.109 0.018,2.094 -1.422,3.912 -2.91,5.162 l -11.13,9.349 v 4.003 h 19.63 v -4.654 z"
     style="fill:#ffffff;fill-rule:evenodd"
     transform="matrix(0.52433,0,0,0.52433,-6.06,-71.085)"
     id="path12"
     sodipodi:nodetypes="ccccccccccccccccccssccscccccccccccccccccccscccccc" />
</svg>
