<?xml version="1.0" encoding="UTF-8" standalone="no"?>
<svg
   viewBox="1.64 1.87 591.6 824.38"
   version="1.1"
   id="svg13"
   sodipodi:docname="ce-carroi.svg"
   inkscape:version="1.4.2 (f4327f4, 2025-05-13)"
   xmlns:inkscape="http://www.inkscape.org/namespaces/inkscape"
   xmlns:sodipodi="http://sodipodi.sourceforge.net/DTD/sodipodi-0.dtd"
   xmlns:xlink="http://www.w3.org/1999/xlink"
   xmlns="http://www.w3.org/2000/svg"
   xmlns:svg="http://www.w3.org/2000/svg">
  <sodipodi:namedview
     id="namedview13"
     pagecolor="#ffffff"
     bordercolor="#000000"
     borderopacity="0.25"
     inkscape:showpageshadow="2"
     inkscape:pageopacity="0.0"
     inkscape:pagecheckerboard="0"
     inkscape:deskcolor="#d1d1d1"
     inkscape:zoom="0.97891748"
     inkscape:cx="295.73483"
     inkscape:cy="412.19"
     inkscape:window-width="1920"
     inkscape:window-height="1009"
     inkscape:window-x="-8"
     inkscape:window-y="-8"
     inkscape:window-maximized="1"
     inkscape:current-layer="svg13" />
  <path
     d="M593.237 1.865v562.038h-.128l.006 3.435c.082 33.15.156 63.487-41.53 95.223L355.357 811.952l-18.772 14.29-19.425-13.399-230.77-159.17c-40.99-28.27-62.216-57.436-73.38-88.27-10.96-30.27-11.374-58.868-11.374-89.506V1.865Z"
     style="fill:#000;fill-rule:evenodd"
     id="path1" />
  <defs
     id="defs3">
    <linearGradient
       id="a">
      <stop
         offset="0%"
         stop-color="#9296bc"
         id="stop2" />
      <stop
         offset="100%"
         stop-color="#b0b2d8"
         id="stop3" />
    </linearGradient>
    <linearGradient
       xlink:href="#a"
       id="b"
       x1="0"
       x2="0"
       y1="0"
       y2="1"
       gradientUnits="objectBoundingBox" />
  </defs>
  <path
     d="m78.106 208.205 272.81.413L530.27 59.248H78.106Z"
     style="fill:url(#b)"
     id="path3" />
  <path
     d="M363.164 181.033c1.753 4.52 3.763 10.028 5.278 12.99l4.254-3.543c-2.83-5.014-7.63-13.23-10.75-19.066 1.729 6.858-.107 6.207 1.217 9.62"
     style="fill:#d2d0e8;fill-rule:evenodd"
     id="path4" />
  <path
     d="M111.661 146.466c-8.11 8.175-22.195 21.338-33.555 25.808v263.55l288.967-240.66c-12.613-9.178-33.246-17.18-46.895-13.86-14.038 3.415-17.405-.885-26.433-.885-7.094 0-15.94-1.162-22.25-4.184-22.29-10.677-15.279-6.41-38.755-6.41-23.97 0-26.771 6.975-61.05 5.681-16.35-.618-40.409-3.788-60.029-29.04"
     style="fill:#8e90c3;fill-rule:evenodd"
     id="path5" />
  <path
     d="M357.862 202.836c-9.188-7.416-18.663-12.075-24.176-12.253-10.84-.351-22.444-2.938-28.768-9.98-5.837-6.505-11.678-13.07-18.064-20.126-5.48-6.053-13.785-14.408-19.42-11.238-6.374 3.585-11.474 4.612-16.632 11.001-4.264 5.287-7.855 11.749-17.187 12.708-7.153.733-13.666 14.222-13.853 17.384l-4.648 131.388z"
     style="fill:#7169a2;fill-rule:evenodd"
     id="path6" />
  <path
     d="M312.918 235.517c-14.533-9.217-18.83-26.339-27.027-35.65-1.498 2.557-8.41 9.394-10.933 10.21-10.12 3.282-13.003 8.756-19.76 17.155-14.598-12.81-17.202-26.377-23.164-33.62-4.552-5.534-8.685-7.368-11.06-8.663-8.078-4.41-16.065-15.315-21.235-23.649-4.053-6.53-10.422-26.287-13.08-30.326-3.902 2.89-10.468 9.381-13.714 13.007-6.077 6.792-8.823 13.163-14.85 18.333-4.592 3.936-9.055 5.778-13.745 9.792-3.958 3.386-7.695 6.874-10.769 10.582-16.2 19.536-13.504 6.195-23.295 14.576-7.887 6.747-14.685 10.986-21.592 17.068-4.79-1.324-7.26-10.804-10.588-11.952v233.445l290.336-241.801c-1.515-2.963-3.525-8.472-5.279-12.99-1.324-3.413.512-2.762-1.217-9.62-7.819 9.301-13.89 27.868-17.497 29.808-4.497 2.421-10.209 7.402-12.34 11.48-8.285 15.86-7.2 11.358-19.191 22.815"
     style="fill:#fff;fill-rule:evenodd"
     id="path7" />
  <path
     d="m271.562 274.706 40.791-33.97.565-5.22c-10.156-6.44-15.313-16.739-20.294-25.537-.7 2.548-.487 2.353-2.18 6.464-2.085 5.06 4.2 2.312 3.82 8.132-.154 2.35-4.453 2.148-5.182 8.03-.29 2.335 2.842 5.963-3.06 6-3.892.025 1.058 7.194-7 10.568-7.082 2.963-.713 17.187-6.848 21.53-1.074.761-12.06 4.796-.612 4.003m-113.086 8.443c-5.9 9.771-4.878 14.374 2.293 1.897 4.688-8.155 3.187-10.972-2.293-1.897m96.722-55.917c-14.598-12.81-17.202-26.377-23.164-33.62-4.552-5.534-8.685-7.368-11.06-8.663-8.078-4.41-16.065-15.315-21.235-23.649-4.053-6.53-10.422-26.287-13.08-30.326 1.293 7.106-4.214 7.952.426 14.01 3.864 5.042-3.32 4.847 1.18 9.594 3.664 3.866.822 7.081-3.504 10.093-3.264 2.273-5.342 5.638-6.071 10.102-.456 2.786-2.197 2.318-2.197 7.31 3.086-5.025 5.607-6.452 13.31-5.162.344-10.558 14.718-5.936 20.642.612 3.558 3.93 4.087 6.666 4.254 11.01.217 5.742-1.136 9.503-5.883 17.736-4.203 7.285.144 20.087-4.966 25.902-3.53 4.016-.035 8.824-7.8 18.374-4.554 5.597-3.244 8.806-12.155 21.936-5.374 7.921.817 9.576 1.018 12.605.394 5.964 1.671 4.285 2.406 2.153.906-2.624 2.464-5.492 4.587-.32.42 1.02 2.955 7.843 5.213 12.266 2.678 5.244 4.13 6.669 2.462-2.216-2.312-12.302 1.36-11.362 2.39-6.428.333 1.593 3.9 1.258 4.187-.513.542-3.337 1.983-6.162 1.889.987-.023 1.846 5.404.57 5.182 4.141-.06.988.08 2.173-1.082 4.327-.663 1.234 2.975 7.642 3.427-2.842.141-3.29 5.057 1.628 3.092 8.003-.655 2.127-.887 10.531 5.248 9.737l35.048-29.189c2.492-10.752.981-24.478-2.138-34.736-.542-1.784-1.897-9.974-1.626-23.234M93.381 246.185c4.138-.525 6.675-4.535 7.595-9.769.971-5.529 1.329-11.426 3.99-15.912 1.915-3.232 4.5-6.69 5.894-10.48 1.386-3.771.528-5.024-2.418-.735-2.298 3.34-5.193 9.394-5.213 9.429-2.232 3.81-3.15 7.68-3.236 9.177-.249 4.22-2.25-.47-3.392 1.824-2.392 4.808-2.735.665-3.64-1.263-1.53-3.252-3.72-3.102-2.58 1.012 1.204 4.345 4.308 8.213 6.407 3.624 3.355-7.338 4.548 9.27-4.25 7.478-7.575-1.542-3.189-10.293-5.472-13.33-2.983-3.964-1.32-9.272-1.29-14.854-3.028-3.224-5.092-9.117-7.67-10.006v88.28c1.53 1.084 2.964 1.624 4.198 1.611 2.316-.022 4.366-.462 4.472-4.872.14-5.658 2.741-2.357 3.81-9.586 1.013-6.852 5.651-9.806 1.982-12.231-7.47-4.932 1.031-7.794.122-12.219-4.092-.842-2.645-6.753.691-7.178m70.544-36.559c-3.677 5.589-4.063 8.617-2.34 12.837.887 2.168-4.431 5.677-4.63 7.968-.333 3.794 4.085 3.207 6.135 2.727 6.325-1.489 15.48-3.092 11.218-.21-4.057 2.741-11.769 4.187-18.006 4.164-5.72-.02-6.318.44-10.474 8.236-1.574 2.952-9.128 10.875-15.799 18.698-1.19 1.396-6.915 13.863-7.605 2.489-.23-3.787-2.01-2.062-3.004.482-1.022 2.624-1.273 6.176-1.591 8.326-.325 2.2-1.094 4.535-1.63 6.63-2.035 7.933-2.02 7.57-1.971 13.719.037 4.497-.805 8.907-2.366 8.91-2.418.007-4.112.011-4.605 3.243-.117.764-4.64 6.728-4.64-4.889 0-3.574-.043-14.054 2.19-14.18 2.664-.147 3.532-6.438 5.713-10.538.683-1.283 1.445-11.114 3.303-12.633 2.86-2.343 2.809-4.419 2.4-5.045-1.492-2.28-5.293-.5-5.363 2.464-.193 8.173-6.034 8.153-3.42 3.535.753-1.332.174-3.238-.183-3.804-2.782-4.409-.292-7.743 2.047-7.712 2.419.03 3.716-2.437 3.885-3.447.166-.994.647-5.844.905-9.051.503-6.21-5.424-4.494.524-10.89 2.509-2.698 5.359-9.186 8.44-17.52 2.355-6.373 3.458 1.131 5.07-6.815.156-.774.259-4.903.335-7.45.123-4.214.735-1.9 1.704.708.636 1.718.375 2.349 1.301 2.43 1.573.142-.234 2.21-1.579 4.358-1.084 1.735-1.556 3.162-2.18 6.523-.18.97-1.458 18.692 2.5 14.733.116-.115 1.362-1.86 2.144-3.188 1.208-2.051 3.702-2.09 1.62 3.632-1.355 3.722-4.03 8.952-5.736 12.982-2.064 4.88 1.024 6.043 3.67 2.71.52-.652 3.684-4.326 5.031-7.063 1.692-3.43 3.486-2.958 1.466 2.583-1.445 3.963 3.043 4.42 5.677-.897 1.21-2.44 3.528-6.75 4.441-10.307.9-3.492 3.994-5.54 6.556-10.759.643-1.312 2.875-9.048 5.694-12.354 4.527-5.307 6.37-1.221 3.153 3.665"
     style="fill:#d2d0e8;fill-rule:evenodd"
     id="path8" />
  <path
     d="M48.856 460.186V59.248H34.23v413.118z"
     style="fill:#322bf7;fill-rule:evenodd"
     id="path9" />
  <path
     d="M48.856 59.248v400.938l14.625-12.18V59.249Z"
     style="fill:#ffff01;fill-rule:evenodd"
     id="path10" />
  <path
     d="M63.48 59.248v388.759l14.626-12.182V59.248Z"
     style="fill:#ff2e27;fill-rule:evenodd"
     id="path11" />
  <path
     d="M560.642 187.901 74.281 601.725c8.336 8.43 18.406 16.82 30.572 25.211l230.769 159.17 196.228-149.39c30.248-23.029 28.792-46.733 28.792-72.813z"
     style="fill:#653366;fill-rule:evenodd"
     id="path12" />
  <path
     d="M216.245 480.934 146.707 540.1v115.703l69.538 47.963zm80.15-68.197v346.315l39.227 27.055 30.311-23.076V353.57Zm149.393-127.112v416.61l73.338-55.832V223.226Z"
     style="fill:#fff;fill-rule:evenodd"
     id="path13" />
</svg>
