<?xml version="1.0" encoding="UTF-8" standalone="no"?>
<svg
   width="793.928"
   height="1122.52"
   version="1.1"
   id="svg12"
   sodipodi:docname="fc-santa-coloma.svg"
   inkscape:version="1.4.2 (f4327f4, 2025-05-13)"
   xmlns:inkscape="http://www.inkscape.org/namespaces/inkscape"
   xmlns:sodipodi="http://sodipodi.sourceforge.net/DTD/sodipodi-0.dtd"
   xmlns="http://www.w3.org/2000/svg"
   xmlns:svg="http://www.w3.org/2000/svg">
  <defs
     id="defs12" />
  <sodipodi:namedview
     id="namedview12"
     pagecolor="#ffffff"
     bordercolor="#000000"
     borderopacity="0.25"
     inkscape:showpageshadow="2"
     inkscape:pageopacity="0.0"
     inkscape:pagecheckerboard="0"
     inkscape:deskcolor="#d1d1d1"
     inkscape:zoom="0.71891814"
     inkscape:cx="397.12449"
     inkscape:cy="561.26001"
     inkscape:window-width="1920"
     inkscape:window-height="1009"
     inkscape:window-x="-8"
     inkscape:window-y="-8"
     inkscape:window-maximized="1"
     inkscape:current-layer="svg12" />
  <path
     d="M140.547 202.46c-74.263 101.474-98.895 218.024-99.18 302.955-.29 86.355 11.685 126.825 11.685 126.825s100.748 47.167 239.115 47.024c138.367.143 239.115-47.024 239.115-47.024s11.974-40.47 11.684-126.825c-.284-84.931-24.916-201.481-99.18-302.955-66.12-90.346-151.619-139.365-151.619-139.365s-85.5 49.02-151.62 139.365"
     style="fill:#231f20;fill-opacity:1;fill-rule:nonzero;stroke:none"
     transform="matrix(1.33333 0 0 -1.33333 -.667 1121.853)"
     id="path1" />
  <path
     d="M435.807 228.963c72.39 95.76 95.474 202.065 95.474 284.43 0 72.105-11.114 109.726-11.114 109.726s-96.17 45.51-228 45.378c-131.83.132-228-45.378-228-45.378s-11.115-37.621-11.115-109.726c0-82.365 23.086-188.67 95.475-284.43 63.078-83.44 143.64-129.96 143.64-129.96s80.562 46.52 143.64 129.96"
     style="fill:#fff;fill-opacity:1;fill-rule:nonzero;stroke:none"
     transform="matrix(1.33333 0 0 -1.33333 -.667 1121.853)"
     id="path2" />
  <path
     d="M328.532 327.468V274.03l-.002-.487c-1.228.189-2.504.387-3.837.594-13.04 2.031-23.833 4.703-23.833 4.703-2.245 11.65-9.192 25.116-9.192 25.116s2.672-.107 5.344 2.458 3.528 5.557 3.528 5.557 4.65-1.107 10.26 3.1c3.846 2.885 5.236 7.802 5.236 7.802s4.061-.535 9.512 2.671c1.192.701 2.164 1.504 2.955 2.332zM328.532 203.28v-23.353l-.022-.561c-21.119-17.63-36.344-27.28-36.344-27.28s-15.247 9.664-36.39 27.319l.026.628v96.884l-.014.415c4.229-1.554 7.885-3.102 10.337-4.905 7.268-5.344 16.887-15.817 18.49-22.657 1.502-6.41 2.788-19.8 9.084-29.284 8.444-12.718 20.306-8.87 20.306-8.87 4.284-4.596 9.874-7.546 14.535-7.938zM328.532 409.494v71.339l.011.506a498 498 0 0 1-36.376 1.275 498 498 0 0 1-36.357-1.274l-.008-.506V374.76l-.013-.44a14.3 14.3 0 0 0 .932-2.285c1.32-4.205-.107-10.26-.107-10.26s7.019 1.451 15.604 8.443c10.366 8.443 21.91 19.879 32.917 26.825 6.447 4.07 13.077 8 23.412 11.843z"
     style="fill:#fee811;fill-opacity:1;fill-rule:nonzero;stroke:none"
     transform="matrix(1.33333 0 0 -1.33333 -.667 1121.853)"
     id="path3" />
  <path
     d="M182.956 366.62V257.037l-.005-.928c-6.255 8.567-12.255 17.579-17.822 27.006-49.889 84.474-54.72 167.58-54.72 167.58 21.33 7.858 45.975 14.979 72.563 20.491l-.016-.505v-79.052l.003-.27c-3.804-3.666-7.217-7.985-9.352-11.486-3.563-5.843-7.98-12.541-6.697-14.821 1.282-2.28 3.847-1.425 8.407.143 2.417.83 5.154 1.581 7.66 1.701z"
     style="fill:#2e3192;fill-opacity:1;fill-rule:nonzero;stroke:none"
     transform="matrix(1.33333 0 0 -1.33333 -.667 1121.853)"
     id="path4" />
  <path
     d="M401.378 411.472v-154.54l-.013-.848c6.261 8.573 12.267 17.594 17.84 27.03 49.89 84.475 54.72 167.58 54.72 167.58-21.314 7.853-45.94 14.97-72.506 20.48l-.04-.708v-36.444l-.005-.256c1.08.755 2.11 1.484 3.155 2.18 6.412 4.275 10.473 6.627 12.29 4.275s1.39-10.367-5.878-19.023c-3.537-4.213-6.972-7.363-9.567-9.487z"
     style="fill:#ef2f21;fill-opacity:1;fill-rule:nonzero;stroke:none"
     transform="matrix(1.33333 0 0 -1.33333 -.667 1121.853)"
     id="path5" />
  <path
     d="m 314.005,211.615 c 5.878,-6.305 14.215,-9.511 19.238,-7.267 5.023,2.244 5.13,6.092 5.13,6.092 0,0 6.412,-3.1 11.542,0.214 5.13,3.314 4.596,8.977 4.596,8.977 0,0 5.67,-0.474 8.23,3.954 2.778,4.81 0.64,10.902 0.64,10.902 5.772,3.847 4.276,10.473 4.276,10.473 6.947,1.603 12.076,6.84 10.473,13.36 -1.918,7.803 -8.977,10.367 -20.947,11.542 -11.97,1.176 -19.451,2.245 -32.49,4.275 -13.039,2.03 -23.833,4.703 -23.833,4.703 -2.245,11.65 -9.192,25.116 -9.192,25.116 0,0 2.672,-0.107 5.344,2.458 2.672,2.565 3.528,5.557 3.528,5.557 0,0 4.65,-1.107 10.26,3.1 3.846,2.885 5.236,7.802 5.236,7.802 0,0 4.061,-0.535 9.512,2.671 5.45,3.206 6.306,8.55 6.306,8.55 0,0 6.092,0.427 10.58,4.916 4.488,4.489 6.52,9.512 6.52,9.512 0,0 8.32,1.514 13.893,7.374 6.199,6.52 6.199,11.757 6.199,11.757 0,0 5.558,1.069 9.832,6.947 4.276,5.878 3.741,10.367 3.741,10.367 0,0 8.764,3.634 12.077,11.756 2.661,6.523 2.138,11.65 2.138,11.65 0,0 6.84,4.168 14.107,12.825 7.268,8.656 7.695,16.672 5.878,19.023 -1.817,2.352 -5.878,0 -12.29,-4.275 -7.702,-5.134 -14.536,-11.97 -47.24,-19.024 -29.61,-6.386 -41.146,-12.932 -52.154,-19.879 -11.008,-6.946 -22.551,-18.382 -32.918,-26.825 -8.585,-6.992 -15.604,-8.443 -15.604,-8.443 0,0 1.427,6.055 0.108,10.26 -1.71,5.45 -5.13,6.413 -5.13,6.413 0.213,11.221 -6.947,16.351 -6.947,16.351 -0.535,10.154 -8.443,16.245 -8.443,16.245 0,0 0.32,6.092 -2.993,12.718 -3.313,6.626 -8.158,8.692 -8.158,8.692 -3.705,10.688 -7.41,14.535 -10.26,14.394 -2.85,-0.143 -3.705,-5.416 -5.558,-17.671 -1.853,-12.255 -1.086,-31.81 -1.086,-31.81 -4.028,1.857 -11.772,3.036 -17.296,0.033 -6.556,-3.563 -13.68,-11.684 -17.243,-17.527 -3.563,-5.843 -7.98,-12.541 -6.697,-14.821 1.282,-2.28 3.847,-1.425 8.407,0.143 4.56,1.567 10.26,2.85 13.395,0.143 3.135,-2.707 3.848,-6.556 4.275,-12.113 0.428,-5.558 1.24,-25.032 8.693,-39.615 6.554,-12.825 17.104,-18.519 27.36,-25.08 11.97,-7.66 29.818,-10.759 37.085,-16.103 7.268,-5.343 16.887,-15.817 18.49,-22.657 1.502,-6.41 2.788,-19.8 9.084,-29.284 8.444,-12.718 20.306,-8.87 20.306,-8.87"
     style="fill:#231f20;fill-opacity:1;fill-rule:nonzero;stroke:none"
     transform="matrix(1.33333,0,0,-1.33333,-0.667,1121.853)"
     id="path6"
     sodipodi:nodetypes="cscsccccccsccscccccsccccccccccccccccccsccsccsccsccccccc" />
  <path
     d="M292.167 643.283c67.83 0 139.863-12.183 208.477-38.26 0 0 10.036-41.678 9.833-96.402-.214-57.498-11.121-124.31-34.628-180.405-18.81-44.887-35.935-70.873-35.935-70.873 60.54 88.846 78.281 185.716 78.685 255.34.393 67.757-9.832 101.083-9.832 101.083s-90.345 40.989-216.6 40.984c-126.255.004-216.6-40.984-216.6-40.984s-10.225-33.326-9.832-101.084c.403-69.623 18.145-166.493 78.685-255.34 0 0-17.126 25.987-35.935 70.874-23.507 56.096-34.414 122.907-34.628 180.405-.203 54.724 9.833 96.401 9.833 96.401 68.614 26.078 140.647 38.262 208.476 38.261z"
     style="fill:#231f20;fill-opacity:1;fill-rule:nonzero;stroke:none"
     transform="matrix(1.33333 0 0 -1.33333 -.667 1121.853)"
     id="path8" />
  <path
     d="M254.262 361.348s-9.832-1.497-17.207 4.488c-7.374 5.985-12.146 12.632-16.351 19.13-4.703 7.268-9.405 10.581-9.405 10.581s0 12.612.534 19.772c.535 7.16 2.458 17.635 3.313 20.841s.534 4.061 1.603 4.168 3.42-4.275 4.596-7.802 2.03-7.375 2.03-12.29c0-4.917.214-5.879.214-5.879s1.07 1.07 1.496 13.788c0 0 2.565-2.031 4.81-6.734s3.634-11.863 4.382-28.429c0 0 .747 1.603.961 5.878.205 4.092.108 7.054.108 7.054s3.206-2.885 4.809-7.054c1.603-4.168 2.03-12.718 2.137-18.917 0 0 .535 1.39.855 3.741s.962 6.199.962 6.199 2.138-2.244 3.42-4.81c1.283-2.564 1.71-6.84 1.603-14.962 0 0 .855.855.962 5.344 0 0 2.03-1.283 3.42-3.634s1.496-5.664 1.39-7.374c-.108-1.71-.642-3.1-.642-3.1"
     style="fill:#fff;fill-opacity:1;fill-rule:nonzero;stroke:none"
     transform="matrix(1.33333 0 0 -1.33333 -.667 1121.853)"
     id="path10" />
  <path
     d="M320.097 239.189s10.153-9.832 22.658-13.573c7.974-2.386 14.748-2.03 16.458 1.176s.855 7.375.855 7.375c-2.992-2.032-11.649-3.314-24.26 3.312s-15.925 10.901-15.925 10.901 3.42-2.35 12.826-7.374c9.404-5.023 21.909-7.374 27.466-3.42 5.558 3.955 4.276 8.55 4.276 8.55s-7.91-2.992-25.223 2.779-23.513 11.543-23.513 11.543c19.345-10.154 38.582-12.398 45.315-11.97s11.97 3.633 12.184 7.694c.214 4.062-2.992 6.199-7.481 7.695s-15.604 2.672-35.376 5.985-29.283 6.199-29.283 6.199c.213-7.054-.428-13.252-.428-13.252-.641 10.794-3.527 18.81-7.375 27.146s-8.336 15.39-8.336 15.39c-10.474 2.351-12.718 4.702-12.718 4.702 5.344-1.068 15.07-2.778 18.703-1.817 3.634.962 5.665 4.81 5.665 4.81-13.894 1.71-17.314 5.558-17.314 5.558s7.802-2.459 14.107-2.994c6.306-.534 11.115.214 14.108 2.459s4.382 5.557 4.382 5.557c-13.039.642-20.627 3.314-20.627 3.314s8.657-.642 14.321-.855c5.665-.214 13.04.213 17.207 2.671s5.344 5.879 5.344 5.879c-20.413.213-23.62 2.672-23.62 2.672s2.78-.338 14.001-.535c12.184-.214 14.215 1.176 19.024 3.954 4.81 2.78 7.267 7.482 7.267 7.482-13.573-1.924-18.917 0-18.917 0 18.597.641 23.727 3.42 30.674 9.191s8.763 9.94 8.763 9.94c-21.268-3.313-24.153-1.07-24.153-1.07 17.527.856 25.543 3.314 31.207 8.444s6.52 9.405 6.52 9.405c-17.314-7.054-22.124-4.061-22.124-4.061 15.925 1.282 28.216 9.832 32.17 16.031s3.634 10.688 3.634 10.688c-20.413-12.185-31.743-8.124-31.743-8.124 17.1 1.07 30.78 8.871 41.04 19.238 9.305 9.4 10.154 15.818 9.299 16.887-.472.59-4.062-2.245-11.33-6.734-7.266-4.489-13.893-10.046-42.429-15.924-28.535-5.878-44.14-13.357-55.253-22.123-17.208-13.574-25.224-25.65-39.758-30.567-11.5-3.89-23.512-.64-31.742 8.337s-16.362 22.308-24.688 25.222c-8.55 2.993-17.742 0-23.726-8.443-5.986-8.443-9.513-13.893-9.513-15.283s1.497 0 4.383 1.069c2.885 1.069 9.618 2.565 14.748-1.283s5.344-10.9 6.092-19.237 3.1-26.398 10.046-37.3c6.947-10.901 24.689-21.802 40.613-27.466s24.61-8.468 37.086-25.757c6.091-8.444 4.809-23.512 9.725-32.063 5.744-9.99 11.65-11.435 16.673-11.435 0 0-2.138 3.099-4.917 7.695-2.778 4.595-3.847 8.336-3.847 8.336s3.74-7.16 11.222-14.856 19.13-12.718 21.268-3.954c0 0-14.107 8.336-28.215 26.612 0 0 13.894-13.466 23.406-19.986s14.32-6.84 17.527-4.595c3.206 2.244 3.1 5.878 3.1 5.878s-5.416-.363-14.001 4.274c-14.642 7.91-17.528 14.001-17.528 14.001"
     style="fill:#fff;fill-opacity:1;fill-rule:nonzero;stroke:none"
     transform="matrix(1.33333 0 0 -1.33333 -.667 1121.853)"
     id="path11" />
  <path
     d="M203.283 380.05c0-1.77-1.411-3.206-3.153-3.206s-3.153 1.436-3.153 3.207 1.412 3.206 3.153 3.206 3.153-1.436 3.153-3.206"
     style="fill:#231f20;fill-opacity:1;fill-rule:nonzero;stroke:none"
     transform="matrix(1.33333 0 0 -1.33333 -.667 1121.853)"
     id="path12" />
</svg>
