<?xml version="1.0" encoding="UTF-8" standalone="no"?>
<svg
   viewBox="48.78 80.65 497.72 499.17"
   version="1.1"
   id="svg4"
   sodipodi:docname="inter-escaldes.svg"
   inkscape:version="1.4.2 (f4327f4, 2025-05-13)"
   xmlns:inkscape="http://www.inkscape.org/namespaces/inkscape"
   xmlns:sodipodi="http://sodipodi.sourceforge.net/DTD/sodipodi-0.dtd"
   xmlns="http://www.w3.org/2000/svg"
   xmlns:svg="http://www.w3.org/2000/svg">
  <defs
     id="defs4" />
  <sodipodi:namedview
     id="namedview4"
     pagecolor="#ffffff"
     bordercolor="#000000"
     borderopacity="0.25"
     inkscape:showpageshadow="2"
     inkscape:pageopacity="0.0"
     inkscape:pagecheckerboard="0"
     inkscape:deskcolor="#d1d1d1"
     inkscape:zoom="1.6166837"
     inkscape:cx="248.96646"
     inkscape:cy="249.58501"
     inkscape:window-width="1920"
     inkscape:window-height="1009"
     inkscape:window-x="-8"
     inkscape:window-y="-8"
     inkscape:window-maximized="1"
     inkscape:current-layer="svg4" />
  <path
     d="m62.235 81.051 471.016-.375v-.025h.005c3.38 0 6.628 1.323 9.029 3.489 2.537 2.288 4.184 5.54 4.187 9.253h.025v.005c0 80.418-13.153 146.433-31.618 200.81-18.456 54.348-42.212 97.005-63.44 130.789-17.612 28.026-39.78 56.982-66.733 84.64-23.783 24.406-51.288 47.806-82.667 68.673a9.14 9.14 0 0 1-4.792 1.508 8.5 8.5 0 0 1-5.084-1.508c-34.789-23.901-61.49-46.117-84.717-70.158-23.237-24.05-42.984-49.9-63.862-81.068-31.008-46.294-55.114-99.577-71.257-156.374-16.073-56.557-24.257-116.666-23.5-176.887.045-3.625 1.69-6.84 4.178-9.13 2.435-2.24 5.779-3.64 9.23-3.642m471.016 12.331-471.016.375c-.183 0-.408.117-.61.304-.03.027-.054-.032-.07-.076l-.022-.024v.012c-.74 58.935 7.287 117.827 23.052 173.299 15.784 55.537 39.318 107.582 69.563 152.737 20.459 30.543 39.781 55.844 62.466 79.324 22.192 22.969 47.618 44.224 80.485 66.968 29.73-19.99 55.846-42.297 78.489-65.534 26.298-26.987 47.92-55.224 65.088-82.546 20.802-33.106 44.078-74.895 62.145-128.1 18.043-53.134 30.9-117.72 30.92-196.535a.77.77 0 0 0-.484-.179h-.005zm.516.011c0-.053 0-.039 0 0zm-472.212.592c-.013-.037-.02-.064-.022-.024z"
     style="fill:#0054a6;fill-rule:evenodd"
     id="path2" />
  <path
     d="M353.285 502.17V107.142h-43.703v429.111c12.074-8.683 27.363-19.816 43.703-34.083M393.66 107.142V461.27q.76-.902 1.517-1.815c15.505-18.677 29.214-38.92 40.88-58.311v-294ZM476.431 107.142v214.78c2.46-5.838 4.026-9.884 4.64-11.608 6.81-19.12 36.25-83.615 36.25-203.172z"
     style="fill:#0054a6;fill-rule:evenodd"
     id="path3" />
  <path
     d="M 393.66,461.27 V 107.141 h 42.397 v 294 c -11.666,19.393 -25.375,39.635 -40.88,58.312 z m 82.771,-139.348 v -214.78 h 40.89 c 0,119.557 -29.44,184.053 -36.25,203.172 -0.614,1.724 -2.18,5.77 -4.64,11.608 m 26.39,-31.8 c 18.043,-53.135 30.9,-117.72 30.92,-196.536 -0.13594,-0.113561 -0.30688,-0.17678 -0.484,-0.179 h -0.005 V 93.382 L 62.235,93.757 c -0.183,0 -0.408,0.117 -0.61,0.304 -0.03,0.027 -0.054,-0.032 -0.07,-0.076 l -0.022,-0.024 v 0.012 c -0.74,58.935 7.287,117.827 23.052,173.299 15.784,55.537 39.318,107.582 69.563,152.737 20.459,30.543 39.781,55.844 62.466,79.324 22.192,22.969 47.618,44.224 80.485,66.968 29.73,-19.99 55.846,-42.297 78.489,-65.534 26.298,-26.987 47.92,-55.224 65.088,-82.546 20.802,-33.106 44.078,-74.895 62.145,-128.1 M 353.285,107.141 V 502.17 c -16.34,14.267 -31.629,25.4 -43.703,34.083 v -429.11 z m -64.646,121.57 H 132.264 c 15.016,84.57 54.923,160.965 106.17,218.153 h 50.205 v 90.308 C 258.06,513.044 221.978,482.616 198.16,453.806 169.458,419.089 146.678,378.773 128.118,337.119 112.864,302.887 102.175,266.199 93.893,226.993 91.462,215.483 89.873,201.291 88.054,189.36 h 200.585 z"
     style="fill:#343434;fill-rule:evenodd"
     id="path4"
     sodipodi:nodetypes="cccccccccscccscccccccccccccccccccccccccccccc" />
</svg>
