<?xml version="1.0" encoding="UTF-8" standalone="no"?>
<svg
   width="793.701"
   height="767.244"
   viewBox="0 0 595.276 575.433"
   version="1.1"
   id="svg96"
   sodipodi:docname="ue-santa-coloma.svg"
   inkscape:version="1.4.2 (f4327f4, 2025-05-13)"
   xmlns:inkscape="http://www.inkscape.org/namespaces/inkscape"
   xmlns:sodipodi="http://sodipodi.sourceforge.net/DTD/sodipodi-0.dtd"
   xmlns:xlink="http://www.w3.org/1999/xlink"
   xmlns="http://www.w3.org/2000/svg"
   xmlns:svg="http://www.w3.org/2000/svg">
  <sodipodi:namedview
     id="namedview96"
     pagecolor="#ffffff"
     bordercolor="#000000"
     borderopacity="0.25"
     inkscape:showpageshadow="2"
     inkscape:pageopacity="0.0"
     inkscape:pagecheckerboard="0"
     inkscape:deskcolor="#d1d1d1"
     inkscape:zoom="1.0518166"
     inkscape:cx="396.93231"
     inkscape:cy="384.57275"
     inkscape:window-width="1920"
     inkscape:window-height="1009"
     inkscape:window-x="-8"
     inkscape:window-y="-8"
     inkscape:window-maximized="1"
     inkscape:current-layer="svg96" />
  <defs
     id="defs7">
    <linearGradient
       id="a">
      <stop
         offset="0%"
         stop-color="#9d7130"
         id="stop1" />
      <stop
         offset="3%"
         stop-color="#9d7130"
         id="stop2" />
      <stop
         offset="19%"
         stop-color="#cfa643"
         id="stop3" />
      <stop
         offset="50%"
         stop-color="#f3ef92"
         id="stop4" />
      <stop
         offset="81%"
         stop-color="#cfa643"
         id="stop5" />
      <stop
         offset="97%"
         stop-color="#9d7130"
         id="stop6" />
      <stop
         offset="100%"
         stop-color="#9d7130"
         id="stop7" />
    </linearGradient>
    <linearGradient
       xlink:href="#a"
       id="b"
       x1="0"
       x2="0"
       y1="0"
       y2="1"
       gradientTransform="rotate(-45 .5 .5)"
       gradientUnits="objectBoundingBox" />
  </defs>
  <path
     d="M297.143.512c158.677 0 287.31 128.632 287.31 287.309 0 158.676-128.633 287.31-287.31 287.31-158.676 0-287.309-128.634-287.309-287.31S138.467.51 297.144.51"
     style="fill:url(#b)"
     id="path7" />
  <defs
     id="defs14">
    <linearGradient
       id="c">
      <stop
         offset="0%"
         stop-color="#9d7130"
         id="stop8" />
      <stop
         offset="3%"
         stop-color="#9d7130"
         id="stop9" />
      <stop
         offset="19%"
         stop-color="#cfa643"
         id="stop10" />
      <stop
         offset="50%"
         stop-color="#f3ef92"
         id="stop11" />
      <stop
         offset="81%"
         stop-color="#cfa643"
         id="stop12" />
      <stop
         offset="97%"
         stop-color="#9d7130"
         id="stop13" />
      <stop
         offset="100%"
         stop-color="#9d7130"
         id="stop14" />
    </linearGradient>
  </defs>
  <path
     d="M297.144 8.54c154.242 0 279.28 125.039 279.28 279.28 0 154.243-125.038 279.28-279.28 279.28S17.864 442.064 17.864 287.82c0-154.241 125.038-279.28 279.28-279.28"
     style="fill:url(#c)"
     id="path14" />
  <path
     d="M297.143 211.134c20.115 0 38.325 8.154 51.507 21.335s21.335 31.393 21.335 51.507-8.153 38.325-21.335 51.507-31.392 21.335-51.507 21.335-38.325-8.153-51.506-21.335c-13.182-13.182-21.335-31.393-21.335-51.507s8.153-38.325 21.335-51.507c13.181-13.181 31.392-21.335 51.506-21.335"
     style="fill:#6f441e;fill-rule:evenodd"
     id="path15" />
  <defs
     id="defs17">
    <linearGradient
       id="d">
      <stop
         offset="0%"
         stop-color="#b28461"
         id="stop15" />
      <stop
         offset="50%"
         stop-color="#936842"
         id="stop16" />
      <stop
         offset="100%"
         stop-color="#6f441e"
         id="stop17" />
    </linearGradient>
    <linearGradient
       xlink:href="#d"
       id="e"
       x1="0"
       x2="0"
       y1="0"
       y2="1"
       gradientUnits="objectBoundingBox" />
  </defs>
  <path
     d="M347.778 334.61a71.8 71.8 0 0 0 14.619-21.101c-1.481-7.998-4.845-13.295-9.85-16.23-4.994-2.93-11.66-3.544-19.756-2.177-5.815 18.168-15.071 31.306-27.676 39.543-12.153 7.943-27.399 11.314-45.652 10.235 10.946 6.786 23.855 10.705 37.68 10.705 19.774 0 37.677-8.016 50.635-20.974m-101.27 0c3.301 3.301 6.922 6.28 10.813 8.888 18.97 1.477 34.708-1.773 47.12-9.884 12.392-8.098 21.495-21.062 27.219-39.02-2.65-5.84-6.515-9.792-11.816-11.513-5.338-1.732-12.165-1.225-20.705 1.863-1.075 8.372-3.972 14.386-8.444 18.362-4.457 3.964-10.454 5.88-17.748 6.066-2.895 7.231-7.16 12.36-12.848 15.307-5.434 2.817-12.143 3.627-20.17 2.364a72 72 0 0 0 6.58 7.568m116.739-23.055a71.2 71.2 0 0 0 5.056-19.53c-1.407-7.67-4.912-14.62-9.61-20.585-5.376-6.828-12.313-12.364-19.457-16.218-6.373-3.438-13.202-5.923-21.119-7.086-7.857-1.154-16.794-1.007-27.428.801-3.769 7.187-5.082 13.705-3.8 19.514 1.28 5.795 5.156 10.927 11.766 15.358 8.842-3.206 15.955-3.72 21.57-1.898 5.588 1.813 9.664 5.916 12.456 11.96 8.337-1.393 15.246-.726 20.487 2.348 4.946 2.9 8.374 7.918 10.079 15.336m-137.712-27.579c0 15.532 4.946 29.909 13.348 41.643 8.311 1.505 15.18.803 20.652-2.033 5.419-2.809 9.495-7.728 12.276-14.683-12.67-13.556-19.97-27.846-21.044-42.987-1.04-14.672 3.77-30.114 15.206-46.425a71.8 71.8 0 0 0-19.464 13.85c-12.958 12.959-20.974 30.861-20.974 50.635m65.034-71.31a71.2 71.2 0 0 0-22.344 5.782c-12.16 16.714-17.286 32.47-16.23 47.382 1.055 14.875 8.269 28.944 20.793 42.317 7.057-.16 12.834-1.977 17.088-5.76 4.247-3.777 7.005-9.537 8.04-17.592-6.852-4.607-10.88-9.98-12.226-16.078-1.342-6.079-.01-12.84 3.85-20.242-4.91-5.497-7.59-11.265-7.482-17.369.103-5.858 2.777-11.988 8.51-18.44m57.209 20.675c-12.958-12.958-30.86-20.973-50.635-20.973q-2.411.001-4.783.158c-6.13 6.576-8.97 12.754-9.074 18.6-.102 5.793 2.487 11.305 7.23 16.592 10.753-1.826 19.807-1.972 27.78-.8 8.07 1.184 15.03 3.717 21.522 7.22 7.286 3.93 14.36 9.575 19.844 16.54 4.028 5.115 7.2 10.946 8.976 17.337q.112-2.006.113-4.039c0-19.774-8.015-37.676-20.973-50.635"
     style="fill:url(#e)"
     id="path17" />
  <defs
     id="defs19">
    <linearGradient
       id="f">
      <stop
         offset="0%"
         id="stop18" />
      <stop
         offset="100%"
         stop-color="#464f4c"
         id="stop19" />
    </linearGradient>
    <linearGradient
       xlink:href="#f"
       id="g"
       x1="0"
       x2="0"
       y1="0"
       y2="1"
       gradientUnits="objectBoundingBox" />
  </defs>
  <path
     d="M309.077 53.98V203.13a81.5 81.5 0 0 1 19.287 5.335 81.9 81.9 0 0 1 26.564 17.727 81.9 81.9 0 0 1 17.727 26.564 81.4 81.4 0 0 1 5.91 24.206h152.47c-5.493-120.313-101.787-216.948-221.958-222.98m-23.866 0C165.039 60.014 68.745 156.649 63.25 276.962h152.471a81.4 81.4 0 0 1 5.91-24.206 81.9 81.9 0 0 1 17.726-26.564 81.9 81.9 0 0 1 26.565-17.727 81.5 81.5 0 0 1 19.288-5.335z"
     style="fill:url(#g)"
     id="path19" />
  <defs
     id="defs23">
    <linearGradient
       id="h">
      <stop
         offset="0%"
         stop-color="#f2ec92"
         id="stop20" />
      <stop
         offset="27%"
         stop-color="#ccad4e"
         id="stop21" />
      <stop
         offset="79%"
         stop-color="#ccad4e"
         id="stop22" />
      <stop
         offset="100%"
         stop-color="#613800"
         id="stop23" />
    </linearGradient>
    <linearGradient
       xlink:href="#h"
       id="i"
       x1="0"
       x2="0"
       y1="0"
       y2="1"
       gradientTransform="rotate(-151 .5 .5)"
       gradientUnits="objectBoundingBox" />
  </defs>
  <path
     d="M371.682 181.15c1.495-2.619 5.132-7.867 6.47-9.531-5.521-1.02-15.871-3.682-15.871-10.35 0-5.527 6.574-4.564 11.67-11.745 2.895-4.078 9.213-3.11 16.447-3.522 1.104-3.45 3.087-2.81 10.401-3.961 1.654 5.48-2.309 6.67-5.944 10.54.83 4.904 6.017 23.286 11.925 33.318 1.957 3.323 9.745 14.23 12.7 18.447 3.814 5.444 10.086 7.85 13.601 7.997 6.051.254 14.38-10.436 18.268-19.303 3.008-6.858 1.806-17.897-1.56-24.92-1.554-3.242-6.745-2.952-11.87-2.858-6.493.117-6.06 7.565-3.058 14.637-7.132-1.883-18.002-11.326-17.68-19.654.546-14.107 10.89-24.018 26.515-23.961 8.379.03 14.993.72 21.34 4.576 9.106 5.531 16.332 16.267 16.141 29.795-.283 20.094-7.68 38.855-32.076 51.086-6.293 3.155-22.635 3.594-29.395 11.074l-32.907 3.68c-5.111.572-4.141-1.716-.782-2.315 1.995-.356-1.122-2.228-.86-7.76.105-2.198-3.889-4.18-1.46-8.312 1.681-2.86 6.308-11.049-2.182-10.997-1.874.012-9.394-10.241-11.04-6.381-.507 1.19-.286 4.608-2.774 4.649-1.401.023-3.098-1.532-3-4.435.115-3.396 4.078-7.978 9.741-8.41-1.662-5.485-1.001-8.878.718-11.54-1.281.15-1.855-.406-3.478.155"
     style="fill:url(#i)"
     id="path23" />
  <defs
     id="defs30">
    <linearGradient
       id="j">
      <stop
         offset="0%"
         stop-color="#613800"
         id="stop24" />
      <stop
         offset="3%"
         stop-color="#613800"
         id="stop25" />
      <stop
         offset="27%"
         stop-color="#ccad4e"
         id="stop26" />
      <stop
         offset="50%"
         stop-color="#f2ec92"
         id="stop27" />
      <stop
         offset="74%"
         stop-color="#ccad4e"
         id="stop28" />
      <stop
         offset="95%"
         stop-color="#613800"
         id="stop29" />
      <stop
         offset="100%"
         stop-color="#613800"
         id="stop30" />
    </linearGradient>
  </defs>
  <path
     d="M374.313 180.546c1.494-2.618 6.253-7.521 6.253-9.703-5.52-1.02-15.008-2.474-15.008-9.143 0-5.527 4.935-4.218 10.033-11.4 2.894-4.079 7.573-3.885 14.807-4.298 1.104-3.45 4.863-5.918 12.177-7.069 1.654 5.48-.088 9.927-3.724 13.797.83 4.903 6.905 19.437 12.813 29.47 1.957 3.322 6.785 14.08 9.74 18.298 3.815 5.445 6.385 7.702 9.901 7.85 6.052.253 12.604-5.997 16.492-14.863 3.008-6.86 3.286-14.79-.08-21.813-1.555-3.243-4.673-6.504-9.797-6.41-6.494.118-9.986 5.538-11.037 12.308-6.658-3.22-11.404-10.473-11.081-18.801.546-14.108 10.629-21.596 26.255-21.536 7.053.026 17.36 1.674 23.976 7.565 7.407 6.595 10.737 17.92 10.616 26.46-.285 20.097-6.135 30.678-24.58 48.257-5.098 4.857-23.087 11.444-29.847 18.924l-39.715-.02c-5.144-.003-4.438-2.677-1.079-3.277 1.997-.356-.9-3.264-.637-8.796.105-2.198.477-4.107 2.906-8.238 1.682-2.86 8.033-12.818-.457-12.765-1.875.012-8.315-12.053-10.263-6.08-.401 1.232-.027 2.926-2.516 2.967-1.402.024-1.546-.797-1.447-3.7.115-3.398 3.387-4.442 8.878-6.47-3.282-5.192-1.13-9.87.588-12.532-1.28.15-2.545.456-4.167 1.018"
     style="fill:url(#j)"
     id="path30" />
  <path
     d="M378.783 156.047a.43.43 0 0 1-.391-.764c.624-.32 1.158-.569 1.758-.787.599-.219 1.263-.408 2.149-.609a.43.43 0 0 1 .188.839 16 16 0 0 0-2.044.578c-.566.206-1.07.442-1.66.743"
     style="fill:#613800;fill-rule:evenodd"
     id="path31" />
  <defs
     id="defs33">
    <linearGradient
       id="k">
      <stop
         offset="0%"
         stop-color="#c1a45f"
         id="stop31" />
      <stop
         offset="50%"
         stop-color="#f2ec92"
         id="stop32" />
      <stop
         offset="100%"
         stop-color="#c1a45f"
         id="stop33" />
    </linearGradient>
    <linearGradient
       xlink:href="#k"
       id="l"
       x1="0"
       x2="0"
       y1="0"
       y2="1"
       gradientTransform="rotate(180 .5 .5)"
       gradientUnits="objectBoundingBox" />
  </defs>
  <path
     d="M189.972 124.04c-7.575.06-16.868-.89-24.653-2.902-3.413-.881-3.323-4.416-.819-6.57l25.472-21.902 25.472 21.903c2.504 2.153 2.594 5.688-.82 6.57-7.785 2.01-17.077 2.96-24.652 2.9"
     style="fill:url(#l)"
     id="path33" />
  <defs
     id="defs36">
    <linearGradient
       id="m">
      <stop
         offset="0%"
         stop-color="#9d7f2d"
         id="stop34" />
      <stop
         offset="49%"
         stop-color="#e8cb75"
         id="stop35" />
      <stop
         offset="100%"
         stop-color="#f2ec92"
         id="stop36" />
    </linearGradient>
  </defs>
  <path
     d="M191.12 140.46c0-1.775 1.549-3.227 3.442-3.227 1.892 0 3.44 1.452 3.44 3.227v14.645h-6.882zm-10.494 0c0-1.775 1.549-3.227 3.441-3.227 1.893 0 3.441 1.452 3.441 3.227v14.645h-6.882zm10.494 29.641c0-1.675 1.549-3.045 3.442-3.045 1.892 0 3.44 1.37 3.44 3.045v13.82h-6.882zm-7.053-3.045c1.893 0 3.441 1.37 3.441 3.045v13.82h-6.882V170.1c0-1.675 1.549-3.045 3.442-3.045m7.053 32.322c0-1.62 1.549-2.944 3.442-2.944 1.892 0 3.44 1.325 3.44 2.944v13.358h-6.882zm-7.053-2.944c1.893 0 3.441 1.325 3.441 2.944v13.358h-6.882v-13.358c0-1.62 1.549-2.944 3.442-2.944m5.905-69.937c-4.043.03-8.52-.212-12.97-.735-2.699-.318-5.413-.74-8.045-1.27v130.33h40.714V124.745c-2.216.412-4.478.75-6.73 1.016-4.449.523-8.926.766-12.969.735"
     style="fill:url(#m)"
     id="path36" />
  <defs
     id="defs39">
    <linearGradient
       id="n">
      <stop
         offset="0%"
         stop-color="#a8772c"
         id="stop37" />
      <stop
         offset="77%"
         stop-color="#f2ee99"
         id="stop38" />
      <stop
         offset="100%"
         stop-color="#dac682"
         id="stop39" />
    </linearGradient>
  </defs>
  <path
     d="M166.984 230.882V207.83h-51.957l-15.096 23.051h10.286v23.94h56.767v-5.994h-6.594V230.88zm-14.142 0h5.328v17.945h-5.328zm-15.318 0h12.654v17.945h-12.654zm-8.362 0h6.142v17.945h-6.142zm-10.805 0h7.919v17.945h-7.919z"
     style="fill:url(#n)"
     id="path39" />
  <defs
     id="defs42">
    <linearGradient
       id="o">
      <stop
         offset="0%"
         stop-color="#5c311a"
         id="stop40" />
      <stop
         offset="33%"
         stop-color="#aa8541"
         id="stop41" />
      <stop
         offset="100%"
         stop-color="#f2ec92"
         id="stop42" />
    </linearGradient>
    <linearGradient
       xlink:href="#o"
       id="p"
       x1="0"
       x2="0"
       y1="0"
       y2="1"
       gradientTransform="rotate(90 .5 .5)"
       gradientUnits="objectBoundingBox" />
  </defs>
  <path
     d="M215.722 276.961H63.252a238 238 0 0 0-.188 5.55h152.37a82 82 0 0 1 .288-5.55m162.843 0q.236 2.753.287 5.55h152.372a238 238 0 0 0-.189-5.55z"
     style="fill:url(#p)"
     id="path42" />
  <defs
     id="defs44">
    <linearGradient
       id="q">
      <stop
         offset="0%"
         stop-color="#262626"
         id="stop43" />
      <stop
         offset="100%"
         stop-color="#464f4c"
         id="stop44" />
    </linearGradient>
    <linearGradient
       xlink:href="#q"
       id="r"
       x1="0"
       x2="0"
       y1="0"
       y2="1"
       gradientUnits="objectBoundingBox" />
  </defs>
  <path
     d="M354.928 341.762a81.9 81.9 0 0 1-26.564 17.726 81.4 81.4 0 0 1-31.22 6.21 81.4 81.4 0 0 1-31.221-6.21 81.9 81.9 0 0 1-26.565-17.726 81.9 81.9 0 0 1-17.726-26.565 81.5 81.5 0 0 1-4.958-16.96h-.192v209.458c25.147 9.228 52.316 14.265 80.662 14.265 28.345 0 55.514-5.037 80.66-14.265V298.236h-.192a81.5 81.5 0 0 1-4.957 16.96 81.9 81.9 0 0 1-17.727 26.566"
     style="fill:url(#r)"
     id="path44" />
  <path
     d="M377.805 298.236v209.459c86.474-31.733 149.028-113.024 153.25-209.459Zm-161.323 0H63.232c4.222 96.436 66.776 177.726 153.25 209.459z"
     style="fill:#f3ec46;fill-rule:evenodd"
     id="path45" />
  <path
     d="M109.7 502.944c-29.965 5.553-50.051 11.758-65.02 21.086"
     style="fill:none;stroke:#1b1918;stroke-width:.5669;stroke-linecap:butt;stroke-linejoin:miter;stroke-dasharray:none"
     id="path46" />
  <defs
     id="defs47">
    <linearGradient
       id="s">
      <stop
         offset="0%"
         stop-color="#a47f47"
         id="stop46" />
      <stop
         offset="100%"
         stop-color="#e7a923"
         id="stop47" />
    </linearGradient>
  </defs>
  <path
     d="M109.7 502.944c-29.965 5.553-50.051 11.758-65.02 21.086 1.006 5.3 2.338 8.223 5.165 10.28 4.038 2.938 11.148 4.122 20.119 4.084 5.43-.022 22.21-1.512 34.447-6.244 8.387-3.242 11.875-6.443 11.875-9.372 0-3.649-5.723-16.444-6.586-19.834"
     style="fill:url(#s)"
     id="path47" />
  <defs
     id="defs52">
    <linearGradient
       id="t">
      <stop
         offset="0%"
         stop-color="#e7a923"
         id="stop48" />
      <stop
         offset="38%"
         stop-color="#9a7032"
         id="stop49" />
      <stop
         offset="50%"
         stop-color="#a47f47"
         id="stop50" />
      <stop
         offset="87%"
         stop-color="#f3e9b1"
         id="stop51" />
      <stop
         offset="100%"
         stop-color="#ccad4e"
         id="stop52" />
    </linearGradient>
    <linearGradient
       xlink:href="#t"
       id="u"
       x1="0"
       x2="0"
       y1="0"
       y2="1"
       gradientTransform="rotate(-98 .5 .5)"
       gradientUnits="objectBoundingBox" />
  </defs>
  <path
     d="M102.304 519.326c-13.46-.83-31.731 3.169-41.428 9.475.944 3.865 4.868 5.005 18.227 3.187 3.331-.453 21.95-3.59 25.641-6.38l-1.254-6.313c-.392.01-.788.056-1.186.031"
     style="fill:url(#u)"
     id="path52" />
  <defs
     id="defs56">
    <linearGradient
       id="v">
      <stop
         offset="0%"
         stop-color="#9e6c2b"
         id="stop53" />
      <stop
         offset="34%"
         stop-color="#654921"
         id="stop54" />
      <stop
         offset="58%"
         stop-color="#f3e9b1"
         id="stop55" />
      <stop
         offset="100%"
         stop-color="#816d32"
         id="stop56" />
    </linearGradient>
    <linearGradient
       xlink:href="#v"
       id="w"
       x1="0"
       x2="0"
       y1="0"
       y2="1"
       gradientTransform="rotate(-98 .5 .5)"
       gradientUnits="objectBoundingBox" />
  </defs>
  <path
     d="M60.877 528.801c10.079-5.157 28.374-9.086 41.427-9.475q.598-.017 1.186-.03c7.226-.16 13.189.332 12.28 5.44.349-.664.516-1.317.516-1.958 0-3.649-5.723-16.444-6.587-19.834-20.224 3.748-35.948 7.793-48.636 12.895.05 5.75-.885 10.102-.187 12.962"
     style="fill:url(#w)"
     id="path56" />
  <path
     d="M483.553 502.754c14.855-27.731 27.025-55.298 31.312-83.003-17.93-3.747-36.64-6.801-55.876-9.752-49.047-7.522-102.52-10.755-161.845-10.509-59.326-.246-112.8 2.987-161.846 10.51-19.236 2.95-37.946 6.004-55.876 9.75 3.904 30.385 17.211 56.947 31.312 83.004 57.682-10.567 119.707-14.383 186.41-14.314 66.702-.069 128.727 3.747 186.41 14.314"
     style="fill:#c09b51;fill-rule:evenodd"
     id="path57" />
  <path
     d="M348.686 428.57v1.012q-3.424.333-5.595 1.359c-1.447.684-2.877 1.723-4.28 3.126a19.6 19.6 0 0 0-3.508 4.67q-1.385 2.585-2.317 6.128c2.486-1.696 4.981-2.549 7.494-2.549 2.407 0 4.485.968 6.252 2.913 1.767 1.936 2.646 4.43 2.646 7.477 0 2.94-.888 5.63-2.673 8.054-2.149 2.94-4.99 4.414-8.524 4.414-2.407 0-4.458-.8-6.137-2.39q-4.939-4.661-4.937-12.067c0-3.153.63-6.154 1.9-8.996 1.261-2.841 3.073-5.363 5.417-7.566 2.353-2.193 4.6-3.676 6.75-4.44 2.148-.763 4.146-1.145 6.002-1.145zm-16.144 18.195q-.48 3.517-.48 5.675c0 1.669.31 3.472.924 5.425.612 1.954 1.527 3.5 2.735 4.644q1.32 1.226 3.215 1.226c1.5 0 2.85-.71 4.03-2.131 1.182-1.43 1.777-3.455 1.777-6.092 0-2.966-.586-5.532-1.758-7.708-1.181-2.167-2.842-3.25-5-3.25-.657 0-1.367.142-2.113.417-.755.276-1.865.88-3.33 1.794m-25.033-1.666q-4.223-3.437-5.435-5.515-1.214-2.078-1.216-4.316 0-3.435 2.664-5.914c1.776-1.66 4.129-2.486 7.068-2.486 2.86 0 5.15.772 6.891 2.318q2.61 2.304 2.61 5.274c0 1.315-.47 2.664-1.402 4.032-.942 1.367-2.895 2.984-5.861 4.83q4.592 3.544 6.083 5.569c1.323 1.767 1.98 3.632 1.98 5.585 0 2.478-.95 4.6-2.842 6.358-1.9 1.758-4.386 2.638-7.468 2.638q-5.037 0-7.85-3.144-2.248-2.517-2.247-5.515c0-1.554.524-3.099 1.581-4.635 1.048-1.536 2.868-3.223 5.443-5.08m4.093-2.789c2.096-1.882 3.42-3.365 3.979-4.457.559-1.084.834-2.318.834-3.695 0-1.829-.515-3.259-1.545-4.298s-2.433-1.554-4.209-1.554q-2.677 0-4.342 1.546c-1.12 1.02-1.679 2.228-1.679 3.605q0 1.358.693 2.717c.462.906 1.119 1.767 1.98 2.584zm-2.868 3.783c-1.447 1.208-2.513 2.522-3.215 3.952-.692 1.42-1.038 2.966-1.038 4.626q0 3.344 1.838 5.355c1.225 1.341 2.788 2.007 4.688 2.007 1.874 0 3.384-.524 4.512-1.58s1.696-2.336 1.696-3.837c0-1.243-.33-2.362-.995-3.348-1.234-1.829-3.73-4.227-7.486-7.175m-35.35 18.922-.078-.956c2.236-.22 4.282-.913 6.128-2.09 1.854-1.177 3.567-3.109 5.164-5.788a23.6 23.6 0 0 0 3.076-8.637c-2.557 1.947-4.937 3.016-7.123 3.196-2.47.203-4.654-.58-6.572-2.337-1.919-1.767-3.003-4.226-3.263-7.386-.253-3.071.408-5.878 1.97-8.43 1.877-3.086 4.536-4.775 7.952-5.056q4.327-.356 7.702 2.975c2.766 2.748 4.322 6.292 4.68 10.637.322 3.912-.334 7.637-1.977 11.175-1.643 3.54-4.076 6.564-7.317 9.076-2.628 2.06-5.58 3.23-8.863 3.5zm14.548-19.426q.202-3.397.035-5.43c-.138-1.672-.57-3.454-1.296-5.355q-1.101-2.835-2.783-4.261c-1.13-.95-2.358-1.375-3.686-1.265-1.53.125-2.82.926-3.856 2.402q-1.567 2.21-1.228 6.31c.3 3.638 1.304 6.425 3.004 8.352 1.237 1.395 2.68 2.025 4.307 1.891.797-.065 1.72-.328 2.768-.798a9.1 9.1 0 0 0 2.735-1.846m-40.07-12.358 8.497-4.406.862-.025.87 29.771c.057 1.98.173 3.22.356 3.703.183.475.531.847 1.062 1.089.532.242 1.601.362 3.21.35l.027.959-13.314.389-.028-.959c1.667-.084 2.737-.257 3.209-.529.481-.263.808-.61.991-1.041.174-.432.235-1.713.172-3.835l-.556-19.066c-.075-2.565-.213-4.214-.403-4.936q-.21-.834-.701-1.206a1.82 1.82 0 0 0-1.174-.357c-.648.02-1.537.312-2.666.887z"
     style="fill:#000;fill-rule:evenodd"
     id="path58" />
  <defs
     id="defs63">
    <linearGradient
       id="x">
      <stop
         offset="0%"
         stop-color="#c09b51"
         id="stop58" />
      <stop
         offset="7%"
         stop-color="#9b722d"
         id="stop59" />
      <stop
         offset="12%"
         stop-color="#9b722d"
         id="stop60" />
      <stop
         offset="47%"
         stop-color="#fbecac"
         id="stop61" />
      <stop
         offset="60%"
         stop-color="#e3cf8f"
         id="stop62" />
      <stop
         offset="100%"
         stop-color="#e3cf8f"
         id="stop63" />
    </linearGradient>
    <linearGradient
       xlink:href="#x"
       id="y"
       x1="0"
       x2="0"
       y1="0"
       y2="1"
       gradientTransform="rotate(-112 .5 .5)"
       gradientUnits="objectBoundingBox" />
  </defs>
  <path
     d="M110.734 502.754c-8.312-28.248-18.566-55.966-31.312-83.004-28.38 5.93-54.807 13.595-78.282 25.325 8.851 4.327 19.41 16.802 24.864 25.234 7.196 11.125 15.806 31.93 17.44 45.215.415 3.382.794 6.174 1.237 8.507 4.865-3.033 10.271-5.735 16.382-8.192 12.688-5.102 28.412-9.147 48.637-12.895z"
     style="fill:url(#y)"
     id="path63" />
  <defs
     id="defs69">
    <linearGradient
       id="z">
      <stop
         offset="0%"
         stop-color="#c09b51"
         id="stop64" />
      <stop
         offset="7%"
         stop-color="#9b722d"
         id="stop65" />
      <stop
         offset="12%"
         stop-color="#9b722d"
         id="stop66" />
      <stop
         offset="47%"
         stop-color="#fbecac"
         id="stop67" />
      <stop
         offset="60%"
         stop-color="#e3cf8f"
         id="stop68" />
      <stop
         offset="100%"
         stop-color="#e3cf8f"
         id="stop69" />
    </linearGradient>
    <linearGradient
       xlink:href="#z"
       id="A"
       x1="0"
       x2="0"
       y1="0"
       y2="1"
       gradientTransform="rotate(-112 .5 .5)"
       gradientUnits="objectBoundingBox" />
  </defs>
  <path
     d="M483.553 502.754c8.312-28.248 18.566-55.966 31.312-83.004 28.38 5.93 54.807 13.595 78.282 25.325-8.851 4.327-19.41 16.802-24.864 25.234-7.196 11.125-15.805 31.93-17.44 45.215-.415 3.382-.794 6.174-1.237 8.507-4.865-3.033-10.271-5.735-16.382-8.192-12.688-5.102-28.412-9.147-48.636-12.895z"
     style="fill:url(#A)"
     id="path69" />
  <defs
     id="defs77">
    <linearGradient
       id="B">
      <stop
         offset="0%"
         stop-color="#553808"
         id="stop70" />
      <stop
         offset="9%"
         stop-color="#553808"
         id="stop71" />
      <stop
         offset="21%"
         stop-color="#f9e2a7"
         id="stop72" />
      <stop
         offset="43%"
         stop-color="#9a7032"
         id="stop73" />
      <stop
         offset="57%"
         stop-color="#9a7032"
         id="stop74" />
      <stop
         offset="79%"
         stop-color="#f9e2a7"
         id="stop75" />
      <stop
         offset="91%"
         stop-color="#553808"
         id="stop76" />
      <stop
         offset="100%"
         stop-color="#553808"
         id="stop77" />
    </linearGradient>
  </defs>
  <path
     d="M8.851 450.379C26.232 443 44.738 437.114 64.34 432.202c22.06-5.528 45.517-9.825 70.329-13.63 24.82-3.806 50.97-6.702 78.425-8.601 26.797-1.853 54.822-2.76 84.046-2.639h.01c29.225-.12 57.25.786 84.047 2.639 27.453 1.898 53.605 4.795 78.424 8.601 24.812 3.805 48.27 8.102 70.329 13.63 19.601 4.912 38.107 10.798 55.488 18.177a54 54 0 0 1 2.157-1.756c-17.854-7.673-36.879-13.756-57.048-18.81-22.157-5.553-45.687-9.864-70.56-13.679-24.858-3.812-51.076-6.715-78.626-8.62-26.803-1.854-54.883-2.76-84.216-2.638-29.333-.122-57.412.784-84.215 2.638-27.55 1.905-53.768 4.808-78.627 8.62-24.873 3.815-48.402 8.126-70.56 13.679-20.17 5.054-39.194 11.137-57.048 18.81a54 54 0 0 1 2.158 1.756z"
     style="fill:url(#B)"
     id="path77" />
  <defs
     id="defs84">
    <linearGradient
       id="C">
      <stop
         offset="0%"
         stop-color="#9a7032"
         id="stop78" />
      <stop
         offset="12%"
         stop-color="#9a7032"
         id="stop79" />
      <stop
         offset="25%"
         stop-color="#f9e2a7"
         id="stop80" />
      <stop
         offset="50%"
         stop-color="#553808"
         id="stop81" />
      <stop
         offset="75%"
         stop-color="#f9e2a7"
         id="stop82" />
      <stop
         offset="88%"
         stop-color="#9a7032"
         id="stop83" />
      <stop
         offset="100%"
         stop-color="#9a7032"
         id="stop84" />
    </linearGradient>
  </defs>
  <path
     d="M213.032 482.999c-27.587 1.907-53.84 4.813-78.73 8.62a1083 1083 0 0 0-25.946 4.266 737 737 0 0 0-25.036 4.879c-18.998 4.061-29.182 7.383-40.13 12.977q.146.912.253 1.783l.1.81c11.08-5.738 21.16-9.072 40.287-13.161a734 734 0 0 1 24.95-4.86 1081 1081 0 0 1 25.888-4.257c24.852-3.8 51.037-6.7 78.528-8.6 26.766-1.851 54.756-2.76 83.943-2.64h.01c29.186-.12 57.176.789 83.942 2.64 27.49 1.9 53.677 4.8 78.53 8.6a1081 1081 0 0 1 25.887 4.257 734 734 0 0 1 24.95 4.86c19.126 4.089 29.206 7.423 40.286 13.162l.1-.811q.107-.87.254-1.783c-10.949-5.594-21.132-8.916-40.13-12.977a737 737 0 0 0-25.036-4.88 1083 1083 0 0 0-25.946-4.265c-24.891-3.807-51.144-6.712-78.731-8.62-26.771-1.852-54.815-2.76-84.11-2.64-29.297-.12-57.341.789-84.113 2.64z"
     style="fill:url(#C)"
     id="path84" />
  <defs
     id="defs86">
    <linearGradient
       id="D">
      <stop
         offset="0%"
         stop-color="#a47f47"
         id="stop85" />
      <stop
         offset="100%"
         stop-color="#e7a923"
         id="stop86" />
    </linearGradient>
  </defs>
  <path
     d="M484.588 502.944c29.964 5.553 50.05 11.758 65.018 21.086-1.005 5.3-2.337 8.223-5.164 10.28-4.038 2.938-11.148 4.122-20.118 4.084-5.43-.022-22.21-1.512-34.448-6.244-8.387-3.242-11.874-6.443-11.874-9.372 0-3.649 5.722-16.444 6.586-19.834"
     style="fill:url(#D)"
     id="path86" />
  <defs
     id="defs91">
    <linearGradient
       id="E">
      <stop
         offset="0%"
         stop-color="#e7a923"
         id="stop87" />
      <stop
         offset="38%"
         stop-color="#9a7032"
         id="stop88" />
      <stop
         offset="50%"
         stop-color="#a47f47"
         id="stop89" />
      <stop
         offset="87%"
         stop-color="#f3e9b1"
         id="stop90" />
      <stop
         offset="100%"
         stop-color="#ccad4e"
         id="stop91" />
    </linearGradient>
    <linearGradient
       xlink:href="#E"
       id="F"
       x1="0"
       x2="0"
       y1="0"
       y2="1"
       gradientTransform="rotate(-98 .5 .5)"
       gradientUnits="objectBoundingBox" />
  </defs>
  <path
     d="M491.983 519.326c13.46-.83 31.731 3.169 41.428 9.475-.944 3.865-4.868 5.005-18.227 3.187-3.331-.453-21.95-3.59-25.641-6.38l1.254-6.313c.392.01.788.056 1.186.031"
     style="fill:url(#F)"
     id="path91" />
  <defs
     id="defs95">
    <linearGradient
       id="G">
      <stop
         offset="0%"
         stop-color="#9e6c2b"
         id="stop92" />
      <stop
         offset="34%"
         stop-color="#654921"
         id="stop93" />
      <stop
         offset="58%"
         stop-color="#f3e9b1"
         id="stop94" />
      <stop
         offset="100%"
         stop-color="#816d32"
         id="stop95" />
    </linearGradient>
    <linearGradient
       xlink:href="#G"
       id="H"
       x1="0"
       x2="0"
       y1="0"
       y2="1"
       gradientTransform="rotate(-98 .5 .5)"
       gradientUnits="objectBoundingBox" />
  </defs>
  <path
     d="M533.41 528.801c-10.079-5.157-28.374-9.086-41.427-9.475q-.598-.017-1.186-.03c-7.226-.16-13.188.332-12.28 5.44-.349-.664-.515-1.317-.515-1.958 0-3.649 5.722-16.444 6.586-19.834 20.224 3.748 35.948 7.793 48.636 12.895-.05 5.75.885 10.102.187 12.962"
     style="fill:url(#H)"
     id="path95" />
</svg>
