<?xml version="1.0" encoding="UTF-8" standalone="no"?>
<svg
   viewBox="0.02 0 115.8 175.75"
   version="1.1"
   id="svg4"
   sodipodi:docname="atletico-mineiro.svg"
   inkscape:version="1.4.2 (f4327f4, 2025-05-13)"
   xmlns:inkscape="http://www.inkscape.org/namespaces/inkscape"
   xmlns:sodipodi="http://sodipodi.sourceforge.net/DTD/sodipodi-0.dtd"
   xmlns="http://www.w3.org/2000/svg"
   xmlns:svg="http://www.w3.org/2000/svg">
  <defs
     id="defs4" />
  <sodipodi:namedview
     id="namedview4"
     pagecolor="#ffffff"
     bordercolor="#000000"
     borderopacity="0.25"
     inkscape:showpageshadow="2"
     inkscape:pageopacity="0.0"
     inkscape:pagecheckerboard="0"
     inkscape:deskcolor="#d1d1d1"
     inkscape:zoom="4.5917496"
     inkscape:cx="57.821097"
     inkscape:cy="87.875"
     inkscape:window-width="1920"
     inkscape:window-height="1009"
     inkscape:window-x="-8"
     inkscape:window-y="-8"
     inkscape:window-maximized="1"
     inkscape:current-layer="g4" />
  <g
     fill-rule="evenodd"
     id="g4">
    <path
       d="M27.32 62q17.46-2.7 30.57-16.64 21 22.31 53.06 15.8 2.51 26.85-6.14 50.19-9.44 25.32-32 46.49a170 170 0 0 1-14.91 12.48 172 172 0 0 1-14.88-12.47q-22.59-21.19-32-46.49a109.3 109.3 0 0 1-6.69-40.87c.07-3.08.24-6.19.55-9.32a64 64 0 0 0 22.44.83m0-4.21c-8.06 1.41-16.78.6-26.2-2.37a134 134 0 0 0-1.1 15.07v1.94a112.8 112.8 0 0 0 6.74 38.93q9.93 27.29 34.53 50.46a199 199 0 0 0 16.64 13.93 197 197 0 0 0 16.61-13.93q24.63-23.16 34.56-50.46a113.5 113.5 0 0 0 6.72-38.93 130 130 0 0 0-1.12-17Q80.18 66.34 57.91 38.1q-13.2 16.68-30.59 19.7z"
       id="path1" />
    <path
       d="m 107.75,90.85 c 1.35109,-8.777402 1.61642,-17.687757 0.79,-26.53 C 88.653333,68.353333 71.776667,63.28 57.91,49.1 48.956667,58.253333 38.76,63.606667 27.32,65.16 c -6.66913,0.823099 -13.428936,0.525668 -20,-0.88 -0.19,2.08 -0.31,4.16 -0.39,6.21 -0.2612581,6.795522 0.1339069,13.600397 1.18,20.32 z"
       id="path2"
       sodipodi:nodetypes="cccccccc" />
    <path
       d="m 54.23,79.88 h 3.85 L 56.17,73.19 Z M 65.7,94.58 H 50.09 v 65.9 l 0.15,0.12 c 2.44,2.12667 4.99,4.23 7.65,6.31 2.666667,-2.08 5.223333,-4.18333 7.67,-6.31 0.05072,-0.0276 0.09238,-0.0693 0.12,-0.12 v -65.9 z m 36.5,16.78 c 2.12311,-5.43685 3.75627,-11.05251 4.88,-16.78 H 89.27 V 135 c 3.479146,-4.83946 6.572028,-9.94522 9.25,-15.27 1.36,-2.73 2.58,-5.52 3.68,-8.32 z M 85.02,140.64 V 94.58 H 69.48 v 62.53 c 0.08959,-0.0843 0.183027,-0.16435 0.28,-0.24 5.47807,-5.02818 10.578522,-10.45284 15.26,-16.23 M 8.74,94.58 c 1.1258979,5.72476 2.752139,11.33964 4.86,16.78 1.1,2.8 2.34,5.59 3.7,8.32 2.668525,5.34171 5.754788,10.4643 9.23,15.32 V 94.58 Z m 22.09,0 v 46.06 c 4.668368,5.76658 9.744752,11.19052 15.19,16.23 0.09705,0.0717 0.187424,0.15202 0.27,0.24 V 94.58 Z"
       id="path3"
       sodipodi:nodetypes="cccccccccccccccccccccccccccccccccccccc" />
    <path
       fill="#fd0"
       d="m57.9 0 4.64 11.04 11.93 1-9.06 7.82 2.73 11.67-10.24-6.21-10.24 6.21 2.74-11.67-9.07-7.82 11.93-1z"
       id="path4" />
  </g>
</svg>
