<?xml version="1.0" encoding="UTF-8" standalone="no"?>
<svg
   width="149"
   height="250"
   version="1.2"
   id="svg6"
   sodipodi:docname="atletico-goianiense.svg"
   inkscape:version="1.4.2 (f4327f4, 2025-05-13)"
   xmlns:inkscape="http://www.inkscape.org/namespaces/inkscape"
   xmlns:sodipodi="http://sodipodi.sourceforge.net/DTD/sodipodi-0.dtd"
   xmlns="http://www.w3.org/2000/svg"
   xmlns:svg="http://www.w3.org/2000/svg">
  <defs
     id="defs6" />
  <sodipodi:namedview
     id="namedview6"
     pagecolor="#ffffff"
     bordercolor="#000000"
     borderopacity="0.25"
     inkscape:showpageshadow="2"
     inkscape:pageopacity="0.0"
     inkscape:pagecheckerboard="0"
     inkscape:deskcolor="#d1d1d1"
     inkscape:zoom="3.228"
     inkscape:cx="74.504337"
     inkscape:cy="130.886"
     inkscape:window-width="1920"
     inkscape:window-height="1009"
     inkscape:window-x="-8"
     inkscape:window-y="-8"
     inkscape:window-maximized="1"
     inkscape:current-layer="svg6" />
  <style
     id="style1">.s1{fill:#dc1212}</style>
  <path
     fill-rule="evenodd"
     d="M.11 92.92c.05.02 1.09.76 4.54 3.25v28.52c0 27.06.01 28.53.19 28.88.1.2 2 2.67 4.22 5.5 2.22 2.82 5.45 6.93 7.18 9.12 1.73 2.2 3.21 4 3.29 4.02.12.02.14-4.91.14-32.43 0-21.57.03-32.46.1-32.46.06 0 .46.27.91.6.44.33 2.62 1.93 4.84 3.55s4.8 3.51 5.73 4.19c1.27.93 1.73 1.33 1.84 1.58.11.28.14 6.68.14 36.34 0 34.34.01 36.02.18 36.37.1.2 3.14 4.12 6.74 8.71 3.61 4.59 6.83 8.69 7.16 9.1s.65.75.71.75c.07 0 .1-13.46.1-40.18 0-33.14.02-40.18.14-40.15.07.01 1.12.73 4.51 3.14l.01 41.58c.01 39.13.02 41.6.19 41.96.1.21 4.97 6.5 10.84 13.97 5.86 7.47 10.68 13.58 10.71 13.58s1.75-2.18 3.83-4.83c2.08-2.66 6.85-8.73 10.6-13.5s6.93-8.83 7.31-9.39v-35.02c0-30.95-.02-35.02-.16-35-.08.01-3.35 2.62-7.26 5.78-3.91 3.17-7.19 5.87-7.3 6.01-.19.25-.19 1.08-.19 32.53 0 24.37-.03 32.33-.12 32.51-.07.13-1.58 1.95-3.36 4.04-1.78 2.1-3.28 3.81-3.32 3.81s-1.54-1.71-3.33-3.81c-1.91-2.23-3.31-3.96-3.38-4.18-.1-.28-.13-8.9-.13-39.64 0-21.6.02-39.27.05-39.27s.18.08.34.18 1.61 1.15 3.23 2.34c2.04 1.49 3.03 2.15 3.21 2.15.17 0 2.2-1.43 6.05-4.26 3.19-2.34 9.02-6.61 12.96-9.49s7.2-5.2 7.24-5.17.09 18.13.11 40.21.05 40.17.07 40.2.16-.09.29-.26c.14-.17 1.81-2.29 3.71-4.72 1.9-2.42 11.44-14.58 21.19-27.01s17.83-22.81 18.16-23.54l.06-56.93 4.6-3.28.03 30.96c.03 30.45.02 30.96-.17 31.35-.11.21-16.81 21.55-37.1 47.41-20.3 25.86-36.98 47.1-37.08 47.2-.16.16-2.72-3.08-37.21-47.06C17.08 176.75.33 155.42.22 155.33c-.17-.16-.18-1.71-.17-31.31.01-17.13.05-31.13.1-31.11zm129.26 14.29c.04 0 .07 12.96.05 28.8-.03 28.58-.03 28.8-.23 29.18-.11.21-3.14 3.82-6.73 8.01-3.59 4.2-6.55 7.63-6.6 7.63-.04 0-.08-14.36-.11-63.84l5.32-3.84c2.92-2.11 5.97-4.31 6.77-4.89s1.48-1.05 1.53-1.05"
     style="fill:#010101"
     id="path1" />
  <path
     d="M.19 42.14c.09.03 1.29.34 2.65.69 1.37.35 4.81 1.26 7.66 2.02s7.9 2.11 11.23 3.01c3.33.89 8.73 2.34 12 3.21 3.27.88 9.02 2.42 12.78 3.42 3.76 1.01 9.16 2.45 12 3.21 2.85.76 7.54 2.02 10.42 2.79 2.89.77 5.4 1.41 5.59 1.41.18 0 11.91-3.1 26.05-6.89s30.7-8.22 36.78-9.85c6.09-1.63 11.2-2.96 11.64-2.96v50.65l-2.24 1.61c-1.23.88-2.28 1.62-2.33 1.63s-.09-2.51-.09-5.6c0-3.45-.04-5.69-.1-5.78-.09-.14-.15-.13-.49.06-.21.12-5 3.12-10.63 6.67s-10.33 6.53-10.43 6.63c-.17.16-.18.59-.18 14.07l-3.22 2.33c-1.77 1.28-3.28 2.34-3.36 2.36-.12.02-.14-4.26-.14-25.92 0-24.8 0-25.96.18-26.17.13-.16 2.09-.93 6.68-2.62 3.57-1.32 6.53-2.39 6.57-2.39s.11.15.16.34c.04.19.08 5.48.08 11.77s.03 11.43.08 11.43c.04 0 3.29-1.75 7.22-3.9s7.23-3.99 7.35-4.1c.2-.2.21-.35.24-13.34.02-7.23 0-13.25-.03-13.37-.03-.13-.13-.23-.24-.23-.1 0-2.63.66-5.61 1.46-2.99.8-12.32 3.3-20.75 5.55-8.42 2.25-15.56 4.16-15.86 4.25-.3.08-.64.24-.75.36-.21.21-.21.35-.21 33.83 0 18.49-.03 33.79-.06 33.98-.06.34-.37.59-4.98 3.94-2.7 1.97-8.55 6.25-13 9.51-5.41 3.97-8.17 5.94-8.34 5.94-.18 0-1.17-.66-3.21-2.15-1.62-1.19-3.1-2.25-3.62-2.56v-32.27c0-17.75.02-32.34.05-32.43s.13-.16.23-.16 1.07.32 2.15.72c1.08.39 2.34.87 2.79 1.06.69.28.96.34 1.6.34.68 0 .93-.06 2.02-.5.68-.27 2.01-.77 2.95-1.11s1.74-.61 1.78-.61.09 7.28.13 32.35l4.76-2.62c2.62-1.44 5.91-3.24 7.32-4.01 1.7-.93 2.59-1.48 2.66-1.63.07-.16.11-6.52.11-20.17 0-18.33-.01-19.95-.16-20.09s-.58-.04-4.12.92c-2.17.59-6.89 1.86-10.49 2.83-3.62.97-6.74 1.75-6.98 1.75s-3.14-.73-6.44-1.61c-3.3-.89-8.03-2.15-10.5-2.81-2.48-.66-4.56-1.17-4.63-1.14-.1.05-.13 7.16-.13 35.06 0 19.25-.02 35-.05 35s-1.03-.7-2.22-1.56c-1.2-.86-2.22-1.56-2.28-1.56-.07 0-.1-11.41-.1-34.01 0-33.87 0-34.01-.21-34.22-.11-.11-.45-.28-.75-.36s-9.02-2.42-19.38-5.19-19.72-5.28-20.8-5.57-2.05-.5-2.15-.46c-.17.06-.18 1.3-.18 23.92 0 14.16-.04 23.84-.09 23.82-.05-.01-1.1-.75-4.55-3.24V67.49c0-23.58.02-25.38.18-25.33z"
     class="s1"
     id="path2" />
  <path
     d="M4.96 48.32c.09 0 1.03.23 2.08.51l20.75 5.55c10.36 2.77 19.08 5.11 19.38 5.19s.64.24.75.36c.21.21.21.35.21 74.4 0 49.39-.03 74.19-.1 74.19-.06 0-.37-.34-.71-.75-.33-.41-3.55-4.51-7.16-9.1s-6.64-8.51-6.74-8.71c-.18-.35-.18-2.03-.18-36.37 0-29.66-.02-36.07-.14-36.34-.1-.25-.57-.65-1.84-1.58-.93-.68-3.52-2.57-5.73-4.19a884 884 0 0 1-4.84-3.55c-.44-.33-.85-.6-.91-.6-.07 0-.1 10.89-.1 32.46 0 27.52-.02 32.45-.14 32.43-.08-.01-1.56-1.82-3.29-4.02s-4.96-6.3-7.18-9.12-4.11-5.3-4.22-5.5c-.17-.35-.18-2.87-.2-52.74-.01-28.81.02-52.4.07-52.44s.16-.07.25-.07zm139.05.01c.16 0 .25.07.29.23.03.13.04 6.15.03 13.37-.03 12.99-.03 13.14-.24 13.34-.11.11-3.42 1.95-7.35 4.1s-7.17 3.9-7.22 3.9c-.04 0-.08-5.15-.08-11.43 0-6.29-.03-11.58-.08-11.77-.04-.19-.11-.34-.16-.34-.04 0-3 1.08-6.57 2.39-3.86 1.42-6.57 2.47-6.67 2.59-.17.19-.18 3.11-.18 58.16 0 31.88.03 57.96.08 57.97.04 0 3.01-3.43 6.6-7.63s6.61-7.8 6.73-8.01c.21-.38.21-.6.23-29.18.01-15.84-.01-28.8-.05-28.8s-1.56 1.07-3.36 2.38c-1.81 1.31-3.33 2.38-3.39 2.38-.07 0-.1-2.36-.11-6.87 0-6.46.01-6.88.18-7.04.1-.09 4.79-3.08 10.43-6.63 5.63-3.55 10.42-6.55 10.63-6.67.34-.19.4-.2.49-.06.06.1.09 12.29.05 68.38l-.21.47c-.12.26-8.19 10.64-17.95 23.07-9.75 12.43-19.29 24.59-21.19 27.01s-3.57 4.55-3.71 4.72-.27.29-.29.26-.05-33.43-.05-74.22c0-49.24.03-74.23.1-74.37.06-.11.3-.28.54-.36s7.52-2.04 16.17-4.35 18.06-4.83 20.9-5.6c2.85-.77 5.28-1.4 5.41-1.4zM53.05 61.18c.08 0 2.31.58 4.98 1.3 2.66.71 7.35 1.97 10.42 2.8 3.07.82 5.79 1.5 6.03 1.5s3.35-.78 6.98-1.75c3.6-.96 8.32-2.24 10.49-2.83 3.54-.96 3.97-1.06 4.12-.92.16.14.17 1.76.16 20.09 0 13.65-.04 20.01-.11 20.17s-.96.7-2.66 1.63c-1.41.77-4.7 2.58-12.08 6.63l-.03-16.17c-.01-8.89-.06-16.17-.1-16.17s-.85.27-1.78.61c-.94.34-2.27.83-2.95 1.11-1.09.44-1.34.5-2.02.5-.64 0-.92-.06-1.6-.34-.46-.19-1.71-.66-2.79-1.06-1.08-.39-2.05-.72-2.15-.72s-.2.07-.23.16-.05 32.36-.05 71.73c0 56.23.03 71.65.13 71.94.07.21 1.48 1.94 3.38 4.18 1.79 2.1 3.29 3.81 3.33 3.81s1.54-1.72 3.32-3.81c1.78-2.1 3.3-3.92 3.36-4.04.09-.18.12-8.14.12-32.51 0-31.46 0-32.28.19-32.53.11-.14 3.39-2.85 7.3-6.01 3.91-3.17 7.17-5.77 7.26-5.78.14-.02.15 4.05.16 70.02l-.24.36c-.13.2-3.31 4.26-7.07 9.03-3.75 4.77-8.52 10.84-10.6 13.5s-3.8 4.83-3.83 4.83-4.85-6.11-10.71-13.58-10.74-13.76-10.84-13.97c-.17-.36-.18-4.72-.2-76.97-.01-42.12.02-76.62.07-76.65a.4.4 0 0 1 .22-.07z"
     style="fill:#fefefe"
     id="path3" />
  <path
     d="M28.35 7.05c.06 0 .57 1.43 1.13 3.19.56 1.75 1.36 4.23 2.49 7.8l5.74.03c3.73.02 5.75.06 5.76.13.01.06-2.03 1.59-4.53 3.4s-4.58 3.33-4.62 3.37.74 2.55 1.73 5.57 1.77 5.53 1.73 5.56c-.04.04-2.17-1.47-4.73-3.34-2.56-1.88-4.71-3.39-4.79-3.36-.07.03-2.12 1.5-4.55 3.28s-4.48 3.27-4.55 3.32-.18.07-.23.04c-.06-.03.13-.76.46-1.79.31-.96 1.12-3.43 3-9.26l-4.62-3.34c-2.54-1.84-4.61-3.39-4.6-3.45.02-.07 2.05-.11 11.5-.15l1.69-5.26c.93-2.89 1.73-5.37 1.78-5.5s.14-.23.19-.23zm92.34.03c.06.02.91 2.5 3.63 10.96l5.73.03c3.71.02 5.74.06 5.76.13.02.06-2.06 1.62-4.62 3.47s-4.63 3.39-4.61 3.42.81 2.41 1.75 5.29 1.74 5.34 1.77 5.47.02.23-.04.23-2.14-1.49-4.63-3.31-4.6-3.34-4.68-3.37c-.1-.04-1.83 1.16-4.76 3.31-3.02 2.21-4.64 3.33-4.71 3.27-.07-.07.49-1.9 1.64-5.42.96-2.92 1.75-5.38 1.76-5.46s-2.06-1.64-4.58-3.47c-2.53-1.83-4.59-3.38-4.58-3.44.01-.07 2.03-.11 11.5-.16l.78-2.46c.43-1.35 1.23-3.83 1.77-5.5.61-1.86 1.03-3.02 1.1-3z"
     style="fill:#cead76"
     id="path4" />
  <path
     d="M19.69 59.73c.07 0 3.06 1.08 6.65 2.4 4.49 1.65 6.58 2.46 6.7 2.62.18.21.19 1.09.18 18.86 0 14.84-.03 18.64-.13 18.64-.07 0-3.04-1.83-6.6-4.06s-6.57-4.16-6.93-4.55V76.69c0-13.49.03-16.95.13-16.95z"
     class="s1"
     id="path5" />
  <path
     d="M74.52.22c.06.02 1.4 4.02 5.83 17.77l9.34.05c6.09.03 9.34.09 9.36.16.01.06-3.3 2.52-7.37 5.47s-7.47 5.41-7.55 5.46c-.13.08.31 1.52 2.76 8.99 1.61 4.9 2.89 8.94 2.85 8.99s-3.45-2.38-7.58-5.39-7.57-5.47-7.66-5.47-3.52 2.46-7.63 5.47-7.52 5.46-7.58 5.46-.1-.02-.1-.05 1.32-4.07 2.92-8.98c2.46-7.51 2.9-8.94 2.77-9.02-.09-.05-3.48-2.51-7.55-5.46s-7.4-5.41-7.4-5.47c0-.07 3.2-.11 18.72-.16l2.78-8.68C72.96 4.58 74.26.57 74.31.44s.15-.23.21-.21z"
     style="fill:#cbced0"
     id="path6" />
  <path
     style="fill:#000000;stroke-width:0.309789"
     d="m 40.892193,199.37447 c -3.748451,-4.79224 -6.983334,-9.09336 -7.188629,-9.55806 -0.283901,-0.64263 -0.376609,-9.46201 -0.387237,-36.83814 l -0.01397,-35.99322 -6.502926,-4.74319 c -3.57661,-2.60876 -6.643525,-4.79006 -6.815366,-4.84734 -0.208532,-0.0695 -0.312857,9.30551 -0.313695,28.18995 -6.91e-4,15.56175 -0.09161,30.06558 -0.202034,32.23073 l -0.200778,3.93663 -3.618568,-4.55621 c -1.990213,-2.50592 -5.245022,-6.64213 -7.2329102,-9.19159 l -3.614342,-4.63537 v -52.4769 -52.476895 l 0.8519207,0.208969 c 2.1323234,0.523041 41.2336185,11.01248 41.6578125,11.175259 0.425772,0.163384 0.490251,4.020416 0.591856,35.402791 0.06271,19.370686 0.04432,52.694346 -0.04087,74.052576 l -0.154895,38.83315 z M 33.302354,83.526375 v -18.859 l -1.471499,-0.625928 c -3.38601,-1.4403 -11.906737,-4.408154 -12.176743,-4.241281 -0.17737,0.109621 -0.292278,6.792271 -0.292278,16.99786 0,15.625202 0.03843,16.851584 0.542131,17.301993 0.711047,0.635814 12.864429,8.282931 13.166047,8.284301 0.127788,5.8e-4 0.232342,-8.485494 0.232342,-18.857945 z"
     id="path7" />
  <path
     style="fill:#000000;stroke-width:0.309789"
     d="M 67.379182,233.19947 C 63.545539,228.3148 58.736059,222.15466 56.69145,219.51029 l -3.717472,-4.80795 -0.08286,-76.60458 c -0.07523,-69.554043 -0.03794,-76.604575 0.40523,-76.604575 0.268448,0 4.696999,1.122402 9.841222,2.494228 5.144224,1.371826 9.910755,2.569814 10.592292,2.662197 1.349956,0.182989 2.191365,-0.0077 14.044123,-3.183066 4.146199,-1.110766 7.735883,-1.943849 7.977076,-1.851295 0.372143,0.142806 0.433853,3.088989 0.407648,19.462389 -0.01698,10.61176 -0.121707,19.616712 -0.232713,20.011002 -0.153411,0.54489 -1.873145,1.63596 -7.167751,4.54755 -3.831252,2.10686 -6.983282,3.80563 -7.004509,3.77505 -0.102002,-0.14696 -0.430581,-19.438474 -0.4322,-25.375317 l -0.0018,-6.732355 -2.979954,1.078699 c -1.638975,0.593285 -3.372029,1.0787 -3.851233,1.0787 -0.479204,0 -2.005542,-0.418216 -3.391862,-0.929368 -1.38632,-0.511153 -2.720179,-0.929369 -2.964132,-0.929369 -0.383602,0 -0.443551,9.726921 -0.443551,71.96759 v 71.9676 l 3.294684,3.93079 c 1.812076,2.16194 3.403159,3.9308 3.535739,3.9308 0.132581,0 1.716888,-1.75094 3.520682,-3.89096 l 3.279627,-3.89097 0.03872,-24.14497 c 0.0213,-13.27974 0.07358,-24.28438 0.116171,-24.45476 0.0426,-0.17039 0.102792,-3.96918 0.133768,-8.44176 l 0.05632,-8.13197 1.903515,-1.54895 c 9.387091,-7.63856 12.141292,-9.72493 12.367528,-9.36869 0.134408,0.21164 0.242165,15.85878 0.239467,34.77142 l -0.0049,34.38661 -9.516369,12.10239 c -5.234003,6.65631 -10.07399,12.81906 -10.755527,13.69498 -0.681536,0.87593 -1.30886,1.59411 -1.394052,1.59597 -0.08519,0.002 -3.291512,-3.9932 -7.125155,-8.87788 z"
     id="path8" />
  <path
     style="fill:#000000;stroke-width:0.309789"
     d="m 101.10884,166.61553 c -0.0646,-22.80335 -0.0478,-56.15905 0.0374,-74.123767 l 0.1549,-32.663134 2.01363,-0.519732 c 1.10749,-0.285853 10.66708,-2.838838 21.24353,-5.673299 10.57644,-2.834461 19.3256,-5.153566 19.44257,-5.153566 0.11697,0 0.17634,6.013321 0.13193,13.362935 l -0.0807,13.362934 -6.97026,3.827045 c -3.83364,2.104874 -7.07481,3.828542 -7.2026,3.830373 -0.12779,0.0018 -0.23447,-5.050108 -0.23708,-11.226533 -0.003,-6.176425 -0.1181,-11.408497 -0.25664,-11.626827 -0.24876,-0.39203 -3.1783,0.565673 -11.12338,3.636375 l -2.55576,0.987779 v 58.088797 c 0,35.67193 0.11116,58.04895 0.28806,57.98554 0.32819,-0.11765 12.22062,-13.95223 12.99238,-15.11416 0.45609,-0.68668 0.51444,-3.5281 0.6004,-29.23772 0.0524,-15.66241 0.0211,-28.67029 -0.0695,-28.90639 -0.1179,-0.30725 -1.08346,0.23247 -3.39693,1.89881 -1.77772,1.28044 -3.31475,2.32807 -3.41562,2.32807 -0.23958,0 -0.23096,-12.027771 0.009,-12.923834 0.17846,-0.665675 2.04959,-1.911787 16.84574,-11.218665 l 4.49194,-2.825464 0.0788,34.143793 0.0788,34.1438 -0.79405,1.14581 c -1.22411,1.76639 -40.8376,52.47992 -41.80422,53.51812 -0.30704,0.32978 -0.40884,-7.98498 -0.50256,-41.04709 z"
     id="path9" />
</svg>
