<?xml version="1.0" encoding="UTF-8" standalone="no"?>
<svg
   width="207"
   height="250"
   version="1.1"
   id="svg29"
   sodipodi:docname="bahia.svg"
   inkscape:version="1.4.2 (f4327f4, 2025-05-13)"
   xmlns:inkscape="http://www.inkscape.org/namespaces/inkscape"
   xmlns:sodipodi="http://sodipodi.sourceforge.net/DTD/sodipodi-0.dtd"
   xmlns="http://www.w3.org/2000/svg"
   xmlns:svg="http://www.w3.org/2000/svg">
  <defs
     id="defs29" />
  <sodipodi:namedview
     id="namedview29"
     pagecolor="#ffffff"
     bordercolor="#000000"
     borderopacity="0.25"
     inkscape:showpageshadow="2"
     inkscape:pageopacity="0.0"
     inkscape:pagecheckerboard="0"
     inkscape:deskcolor="#d1d1d1"
     inkscape:zoom="1.1412703"
     inkscape:cx="328.14311"
     inkscape:cy="136.25168"
     inkscape:window-width="1920"
     inkscape:window-height="1009"
     inkscape:window-x="-8"
     inkscape:window-y="-8"
     inkscape:window-maximized="1"
     inkscape:current-layer="svg29" />
  <style
     id="style1">.shp1{fill:#fefefe}.shp2{fill:#006cb5}.shp3{fill:#ed3237}</style>
  <path
     d="m53.76 8.08-2.46 7.73c-15.05 0-16.19.03-16.16.22.02.12 2.82 2.23 6.21 4.68 3.4 2.46 6.32 4.57 6.48 4.68.3.2.24.4-2.23 7.93-1.39 4.24-2.49 7.75-2.44 7.79.05.05.24-.02.42-.13.19-.12 3.08-2.21 6.44-4.65 3.35-2.45 6.17-4.5 6.25-4.57.09-.06 2.89 1.88 6.55 4.56 3.52 2.57 6.49 4.71 6.6 4.77.1.05.22.07.27.02.05-.04-1.04-3.56-2.42-7.83-1.38-4.26-2.49-7.76-2.46-7.76.03-.01 2.98-2.15 6.57-4.75s6.47-4.78 6.41-4.84c-.07-.06-3.75-.13-8.18-.15l-8.06-.04C57.33 2.44 56.61.35 56.44.35c-.16 0-.89 2.11-2.68 7.73m94.15-.04-2.46 7.7c-12.47.06-16.15.13-16.22.19-.08.06 2.8 2.24 6.39 4.84s6.54 4.74 6.57 4.75c.03 0-1.08 3.5-2.46 7.76-1.38 4.27-2.47 7.79-2.42 7.83.05.05.17.03.27-.02.11-.06 3.08-2.2 6.6-4.77 3.66-2.68 6.46-4.62 6.55-4.56.08.07 2.9 2.12 6.25 4.57 3.36 2.44 6.25 4.53 6.44 4.65.18.11.37.18.42.13.05-.04-1.05-3.55-2.44-7.79-2.47-7.53-2.53-7.73-2.23-7.93.16-.11 3.08-2.22 6.48-4.68 3.39-2.45 6.19-4.56 6.21-4.68.03-.19-1.11-.22-8.06-.22h-8.1C151.51 2.59 150.73.35 150.58.35s-.93 2.24-2.67 7.69"
     style="fill:#fedd22"
     id="path1" />
  <path
     d="M96.65 43.23c-1 .08-3.1.28-4.68.46-1.57.17-4.04.51-5.49.76-1.45.24-3.73.68-5.05.97-1.33.29-3.43.81-4.67 1.14s-3.52 1.02-5.05 1.52-3.63 1.23-4.67 1.62c-1.03.39-2.8 1.1-3.92 1.58-1.11.47-3.18 1.42-4.59 2.1s-3.75 1.9-5.2 2.71-3.75 2.18-5.12 3.05-3.47 2.29-4.67 3.14c-1.2.86-3.13 2.32-4.29 3.25s-2.89 2.37-3.85 3.2c-.95.84-2.87 2.64-4.27 4.01-1.39 1.37-3.3 3.33-4.24 4.37-.94 1.03-2.4 2.73-3.25 3.76-.85 1.04-2.26 2.83-3.13 3.99s-2.41 3.37-3.42 4.9-2.5 3.94-3.31 5.35c-.8 1.4-2.07 3.78-2.82 5.27s-1.66 3.39-2.03 4.21c-.37.83-1.08 2.53-1.58 3.77-.49 1.24-1.31 3.44-1.8 4.89s-1.22 3.79-1.63 5.2c-.4 1.41-1 3.78-1.33 5.27-.34 1.49-.79 3.69-.99 4.89-.21 1.21-.49 2.93-.61 3.84-.12.92-.33 2.68-.45 3.92-.13 1.24-.31 4.02-.41 6.18-.13 3-.13 4.82 0 7.83.1 2.15.28 4.93.41 6.17.12 1.24.33 3.01.45 3.92s.4 2.64.61 3.84c.2 1.2.65 3.4.99 4.89.33 1.49.87 3.66 1.2 4.82.32 1.16.93 3.16 1.36 4.44.42 1.29 1.05 3.12 1.4 4.07a113 113 0 0 0 3.24 7.68c.55 1.2 1.56 3.22 2.24 4.48.67 1.26 1.86 3.37 2.64 4.67s2.07 3.35 2.88 4.56c.81 1.2 2.23 3.2 3.16 4.44.94 1.24 2.58 3.31 3.66 4.59 1.08 1.29 2.89 3.32 4.03 4.52s3.03 3.09 4.2 4.2c1.17 1.1 3.18 2.89 4.46 3.97 1.29 1.08 3.35 2.72 4.6 3.65 1.24.94 3.37 2.44 4.74 3.35s3.4 2.19 4.52 2.86c1.12.66 2.98 1.71 4.14 2.33s3.27 1.67 4.67 2.33c1.41.67 3.79 1.71 5.28 2.31s4 1.52 5.57 2.06c1.58.53 3.95 1.26 5.27 1.63 1.33.37 3.43.91 4.68 1.19 1.24.28 3.2.69 4.36.9 1.16.2 2.79.48 3.62.6.83.13 2.46.33 3.62.46s3.02.3 4.14.38 3.35.19 4.97.24c1.64.06 4.54.02 6.55-.07 1.99-.1 4.64-.28 5.88-.4s3-.33 3.92-.45c.91-.12 2.64-.4 3.84-.61 1.2-.2 3.4-.65 4.89-.98 1.5-.34 3.87-.94 5.28-1.34s3.74-1.14 5.19-1.63 3.49-1.23 4.52-1.65c1.04-.41 2.7-1.11 3.7-1.54.99-.43 3.26-1.52 5.04-2.41 1.78-.9 4.56-2.43 6.18-3.4 1.62-.96 3.45-2.1 4.07-2.51.62-.42 2.04-1.41 3.16-2.2s3.03-2.24 4.26-3.21c1.22-.98 2.85-2.33 3.61-3 .77-.67 2.31-2.08 3.42-3.12 1.11-1.05 2.97-2.92 4.13-4.17 1.16-1.24 2.94-3.25 3.96-4.48 1.03-1.22 2.59-3.18 3.47-4.36s2.33-3.23 3.21-4.56c.88-1.32 2.15-3.32 2.82-4.44s1.68-2.88 2.24-3.92c.57-1.03 1.52-2.9 2.12-4.14.59-1.24 1.49-3.21 1.98-4.37.5-1.16 1.35-3.29 1.89-4.74s1.29-3.65 1.68-4.9c.39-1.24 1.07-3.68 1.51-5.42.45-1.74 1.05-4.41 1.34-5.95.29-1.53.66-3.76.83-4.97.17-1.2.41-3.2.53-4.44.13-1.24.31-4.02.41-6.17.13-3.01.13-4.83 0-7.83-.1-2.16-.28-4.94-.41-6.18-.12-1.24-.39-3.44-.6-4.89s-.62-3.83-.91-5.28c-.29-1.44-.73-3.44-.98-4.44-.25-.99-.72-2.75-1.06-3.91-.33-1.16-.94-3.13-1.36-4.37s-1.2-3.38-1.74-4.75c-.54-1.36-1.55-3.73-2.25-5.27-.7-1.53-1.88-3.93-2.64-5.34-.75-1.41-1.88-3.41-2.5-4.45-.62-1.03-1.82-2.93-2.67-4.21-.84-1.29-2.35-3.42-3.34-4.75-.99-1.32-2.56-3.32-3.5-4.44-.93-1.12-2.73-3.14-3.98-4.5a119 119 0 0 0-4.77-4.77c-1.37-1.26-3.4-3.06-4.52-4-1.12-.93-3.12-2.51-4.45-3.5-1.32-.99-3.56-2.56-4.97-3.49-1.41-.92-3.31-2.12-4.22-2.66s-2.74-1.56-4.06-2.27c-1.33-.71-3.43-1.76-4.67-2.34-1.25-.57-2.94-1.33-3.77-1.69-.83-.35-2.36-.96-3.39-1.35-1.04-.39-3.14-1.12-4.67-1.62s-3.81-1.19-5.05-1.52-3.34-.85-4.67-1.14c-1.32-.29-3.39-.7-4.59-.91s-3.27-.51-4.6-.68c-1.32-.16-3.19-.37-4.14-.46s-4.48-.19-7.84-.22c-3.35-.03-6.91.01-7.9.08"
     class="shp1"
     id="path2" />
  <path
     d="M99.28 43.76c-.54.03-2.03.13-3.31.22-1.29.09-3.42.3-4.75.46-1.32.16-3.6.5-5.05.75s-3.68.68-4.97.97c-1.28.29-3.35.8-4.59 1.14s-3.65 1.07-5.35 1.64c-1.7.56-4.07 1.41-5.27 1.89s-3.44 1.43-4.97 2.13c-1.54.69-3.98 1.9-5.43 2.67-1.45.78-3.58 1.98-4.74 2.68s-3.13 1.95-4.37 2.78c-1.25.84-3.23 2.24-4.41 3.12s-3.15 2.44-4.37 3.47c-1.22 1.02-3.3 2.87-4.62 4.1-1.33 1.23-3.44 3.36-4.7 4.73-1.27 1.36-2.92 3.23-3.68 4.14-.75.91-1.98 2.43-2.72 3.39-.73.95-1.95 2.61-2.71 3.69-.75 1.07-1.95 2.87-2.66 3.99s-1.84 3.01-2.53 4.21a120.255 120.255 0 0 0-4.93 9.87c-.54 1.24-1.38 3.34-1.88 4.67-.5 1.32-1.26 3.49-1.69 4.82-.43 1.32-1.15 3.83-1.59 5.57-.45 1.74-1.05 4.35-1.34 5.8-.28 1.45-.66 3.61-.83 4.82-.17 1.2-.41 3.09-.53 4.21s-.3 3.29-.4 4.82c-.11 1.74-.15 4.63-.09 7.68.04 2.69.15 5.71.25 6.7.09 1 .3 2.93.47 4.3.17 1.36.48 3.46.68 4.67.2 1.2.61 3.26.9 4.59.3 1.32.81 3.43 1.14 4.67.34 1.24 1.05 3.61 1.59 5.27s1.53 4.37 2.19 6.02c.67 1.66 1.72 4.1 2.34 5.42.63 1.33 1.68 3.43 2.34 4.67.66 1.25 1.75 3.18 2.41 4.3.67 1.11 1.94 3.11 2.82 4.44.88 1.32 2.42 3.49 3.42 4.82 1 1.32 2.44 3.15 3.2 4.06s2.15 2.51 3.09 3.54c.94 1.04 2.75 2.9 4.02 4.15 1.27 1.24 3.13 2.97 4.12 3.84s2.49 2.13 3.31 2.8c.83.66 2.43 1.89 3.55 2.72 1.11.83 3.22 2.29 4.67 3.25 1.45.95 3.58 2.28 4.74 2.96s3.5 1.93 5.2 2.79 3.8 1.88 4.67 2.26c.87.39 2.56 1.1 3.77 1.58 1.2.48 3.3 1.26 4.67 1.73 1.36.47 3.4 1.12 4.52 1.44 1.11.32 2.98.82 4.14 1.11s3.12.73 4.37.98c1.24.25 3.38.62 4.74.83 1.37.21 3.47.49 4.67.61 1.2.13 3.27.3 4.6.38 1.32.09 4.17.16 6.33.16 2.15-.01 4.9-.07 6.1-.15 1.2-.09 2.93-.23 3.84-.31.91-.09 2.88-.34 4.37-.54 1.49-.21 3.9-.61 5.35-.9s4.06-.89 5.8-1.33c1.74-.45 4.35-1.2 5.8-1.67 1.45-.48 3.79-1.3 5.19-1.84 1.41-.54 3.62-1.45 4.9-2.03 1.29-.57 3.69-1.73 5.35-2.59 1.66-.85 3.96-2.11 5.12-2.8s3.2-1.97 4.52-2.84c1.33-.88 3.5-2.41 4.82-3.41 1.33-.99 3.23-2.48 4.21-3.31.99-.83 2.52-2.15 3.39-2.94s2.53-2.38 3.69-3.54c1.15-1.16 2.95-3.06 3.98-4.22a133 133 0 0 0 3.56-4.21c.93-1.16 2.25-2.89 2.95-3.84.69-.96 1.95-2.79 2.79-4.07s2.11-3.32 2.81-4.52 1.79-3.16 2.42-4.36c.63-1.21 1.6-3.17 2.15-4.37s1.5-3.41 2.1-4.9 1.48-3.86 1.95-5.27 1.16-3.61 1.52-4.89c.36-1.29.86-3.18 1.11-4.22.24-1.03.62-2.78.83-3.88.22-1.09.52-2.82.68-3.84.17-1.01.44-3.06.6-4.55.17-1.49.38-3.8.46-5.12.09-1.33.16-4.18.16-6.33s-.07-5-.16-6.32a110.662 110.662 0 0 0-1.21-10.55c-.25-1.49-.72-3.93-1.05-5.42s-.91-3.79-1.27-5.12c-.37-1.32-1.14-3.8-1.72-5.5-.58-1.69-1.42-4-1.87-5.12-.45-1.11-1.21-2.91-1.69-3.99-.49-1.07-1.44-3.04-2.11-4.36-.67-1.33-1.79-3.4-2.48-4.6s-1.86-3.13-2.61-4.29c-.74-1.16-1.97-2.99-2.74-4.07-.76-1.07-2.05-2.8-2.86-3.84-.82-1.03-2.26-2.79-3.22-3.91s-3-3.31-4.54-4.87c-1.53-1.57-3.8-3.73-5.03-4.82s-3.19-2.75-4.36-3.68c-1.18-.94-3.12-2.4-4.32-3.26s-3.13-2.17-4.29-2.91-3.06-1.89-4.22-2.55-2.82-1.58-3.69-2.05c-.87-.46-2.67-1.34-4-1.96-1.32-.61-3.59-1.59-5.04-2.18-1.45-.58-3.66-1.41-4.9-1.84-1.24-.42-3.28-1.07-4.52-1.43a122 122 0 0 0-4.14-1.14c-1.04-.26-3.21-.73-4.82-1.05-1.62-.32-4.2-.76-5.73-.96-1.53-.21-3.97-.49-5.42-.62s-4.74-.26-7.31-.29-5.11-.03-5.65 0"
     class="shp2"
     id="path3" />
  <path
     d="M99.58 50.85c-.62.03-2.38.16-3.91.28-1.54.13-3.77.37-4.98.54-1.2.16-3.43.54-4.97.83-1.53.29-3.73.77-4.89 1.06s-3.16.83-4.45 1.21c-1.28.37-3.55 1.12-5.04 1.66-1.5.54-3.77 1.43-5.05 1.97-1.29.54-3.83 1.74-5.65 2.67-1.82.92-4.4 2.32-5.73 3.12-1.32.79-3.29 2.03-4.37 2.75-1.07.73-2.97 2.08-4.21 3.01-1.25.94-3.01 2.33-3.92 3.09s-2.71 2.35-3.99 3.54c-1.29 1.18-3.33 3.23-4.55 4.54-1.21 1.31-2.83 3.13-3.6 4.05-.76.91-2.21 2.74-3.2 4.06-1 1.33-2.51 3.46-3.35 4.75-.84 1.28-2.09 3.28-2.77 4.44s-2.03 3.7-3 5.65c-.97 1.94-2.13 4.42-2.57 5.49-.45 1.08-1.21 3.05-1.7 4.37-.49 1.33-1.22 3.53-1.63 4.9-.41 1.36-.98 3.43-1.28 4.59-.29 1.16-.76 3.29-1.05 4.74-.28 1.45-.69 3.89-.89 5.42-.21 1.54-.46 3.74-.57 4.9-.13 1.35-.2 4.33-.2 8.28.01 4.77.07 6.76.27 8.74.14 1.41.43 3.71.64 5.12s.58 3.57.83 4.82c.25 1.24.77 3.48 1.14 4.97.38 1.49 1.18 4.2 1.79 6.02.6 1.82 1.41 4.13 1.81 5.12.39 1 1.1 2.69 1.58 3.77.48 1.07 1.34 2.9 1.92 4.06s1.72 3.26 2.52 4.67c.81 1.41 2.23 3.71 3.16 5.12s2.5 3.65 3.5 4.97c1 1.33 2.67 3.41 3.72 4.63s2.83 3.18 3.97 4.35c1.14 1.18 2.89 2.89 3.89 3.81s2.59 2.32 3.54 3.12c.95.79 2.74 2.21 3.99 3.14 1.24.94 3.31 2.4 4.59 3.24 1.29.85 3.05 1.97 3.92 2.49s2.7 1.54 4.07 2.27c1.36.74 3.74 1.9 5.27 2.6 1.53.69 3.94 1.7 5.35 2.24s3.44 1.27 4.52 1.62c1.07.35 3.14.96 4.59 1.36 1.45.39 3.96.99 5.58 1.33 1.61.33 4.12.78 5.57.99s3.82.5 5.27.64c2.03.2 4.03.27 8.67.27 4.68 0 6.61-.06 8.66-.27 1.45-.14 3.79-.43 5.2-.63 1.4-.2 3.74-.61 5.19-.9 1.45-.3 3.66-.81 4.9-1.13s3.28-.9 4.52-1.28c1.24-.39 3.45-1.14 4.9-1.69 1.45-.54 3.85-1.52 5.34-2.18 1.5-.66 3.77-1.74 5.05-2.41 1.29-.67 3.05-1.62 3.92-2.13.87-.5 2.53-1.52 3.69-2.25 1.16-.74 3.09-2.04 4.29-2.9 1.2-.87 2.97-2.19 3.92-2.96.95-.76 2.44-2 3.31-2.75s2.52-2.28 3.68-3.4c1.15-1.12 2.88-2.88 3.83-3.91.96-1.04 2.42-2.7 3.25-3.69.83-1 2.21-2.76 3.08-3.92s2.34-3.26 3.27-4.67 2.24-3.51 2.92-4.67 2.01-3.66 2.95-5.57c.95-1.9 2.15-4.51 2.68-5.8.53-1.28 1.31-3.31 1.74-4.52.43-1.2 1.05-3.09 1.39-4.21.33-1.12.84-2.92 1.12-3.99.29-1.08.79-3.32 1.12-4.97.33-1.66.74-3.96.9-5.12.17-1.16.42-3.16.55-4.45.14-1.39.27-4.46.32-7.6.05-3.27.02-6.25-.09-7.83-.09-1.41-.27-3.48-.4-4.6-.12-1.11-.43-3.28-.68-4.82-.25-1.53-.69-3.83-.98-5.12-.28-1.28-.8-3.35-1.13-4.59-.34-1.24-1.01-3.44-1.49-4.89s-1.36-3.86-1.96-5.35c-.61-1.49-1.58-3.73-2.16-4.97a127 127 0 0 0-2.19-4.37c-.61-1.16-1.73-3.12-2.47-4.37-.75-1.24-1.98-3.17-2.74-4.29-.75-1.12-1.98-2.84-2.72-3.84-.74-.99-2.09-2.69-2.99-3.76-.89-1.08-2.59-3-3.76-4.28-1.18-1.27-3.22-3.31-4.55-4.54s-3.16-2.85-4.07-3.61c-.91-.77-2.67-2.15-3.91-3.09-1.25-.93-3.15-2.28-4.22-3.01-1.08-.72-3.05-1.96-4.37-2.75-1.33-.8-3.9-2.2-5.73-3.12-1.82-.93-4.36-2.13-5.65-2.67-1.28-.54-3.55-1.43-5.04-1.97s-3.77-1.29-5.05-1.66c-1.28-.38-3.28-.92-4.44-1.21s-3.37-.77-4.9-1.06-3.77-.67-4.97-.83c-1.2-.17-3.37-.41-4.82-.54s-4.57-.26-6.93-.29-4.81-.03-5.43.01"
     class="shp1"
     id="path4" />
  <path
     d="M97.25 56.94c-.91.07-2.61.24-3.77.37s-3.26.43-4.67.67-3.37.61-4.37.83c-.99.22-2.82.67-4.07 1-1.24.34-3.34.96-4.67 1.4-1.32.44-3.56 1.25-4.97 1.81s-3.58 1.49-4.82 2.07-3.21 1.56-4.37 2.19c-1.16.62-2.95 1.64-3.99 2.27a103 103 0 0 0-3.62 2.29c-.95.64-2.68 1.87-3.84 2.73-1.16.87-2.82 2.17-3.69 2.9s-2.6 2.26-3.84 3.4a91 91 0 0 0-4.39 4.39c-1.18 1.27-2.73 3.03-3.46 3.9s-2.03 2.53-2.9 3.69c-.86 1.16-2.09 2.88-2.73 3.84-.64.95-1.67 2.58-2.3 3.61-.62 1.04-1.64 2.83-2.27 3.99s-1.63 3.16-2.22 4.44c-.6 1.29-1.47 3.32-1.96 4.52-.48 1.2-1.19 3.1-1.57 4.22s-.99 3.05-1.35 4.29-.9 3.31-1.2 4.6c-.29 1.28-.74 3.52-.98 4.97-.25 1.44-.59 3.85-.76 5.34s-.38 4.34-.47 6.33c-.13 2.7-.13 4.54 0 7.3.1 2.03.31 4.88.48 6.33.16 1.45.5 3.78.74 5.19s.67 3.58.95 4.82c.29 1.24.84 3.38 1.23 4.75.39 1.36.98 3.26 1.31 4.21s1.08 2.95 1.67 4.45c.6 1.49 1.8 4.16 2.68 5.94s2.13 4.16 2.77 5.28c.65 1.11 1.88 3.11 2.75 4.44.87 1.32 2.35 3.42 3.29 4.67.93 1.24 2.15 2.8 2.7 3.46.56.66 1.67 1.95 2.49 2.86.81.91 2.55 2.71 3.86 3.99 1.32 1.29 3.11 2.95 3.98 3.7s2.09 1.77 2.71 2.27 1.91 1.49 2.86 2.2c.95.7 2.82 1.99 4.14 2.86 1.33.88 3.33 2.11 4.45 2.76 1.12.64 3.42 1.85 5.12 2.69s3.97 1.9 5.05 2.34c1.07.45 2.97 1.18 4.21 1.63 1.25.45 3.48 1.17 4.98 1.61 1.49.44 3.76 1.04 5.04 1.34 1.29.3 3.32.71 4.52.92s3.24.52 4.52.68c1.29.16 3.29.37 4.45.47 1.16.11 4.24.19 6.85.19 3.23-.01 5.64-.09 7.53-.26 1.54-.14 3.74-.39 4.9-.56 1.16-.16 3.19-.5 4.52-.75 1.33-.26 3.73-.8 5.35-1.21 1.61-.41 4.22-1.18 5.8-1.71 1.57-.52 3.91-1.38 5.2-1.9 1.28-.51 3.38-1.43 4.67-2.03 1.28-.6 3.15-1.53 4.14-2.07.99-.53 2.59-1.43 3.54-1.99.95-.57 2.75-1.7 3.99-2.53 1.25-.83 3.08-2.11 4.07-2.86s2.38-1.84 3.09-2.42c.7-.58 2.09-1.78 3.09-2.67.99-.88 2.96-2.78 4.37-4.22 1.4-1.45 3.38-3.61 4.38-4.81s2.43-2.99 3.18-3.98c.75-1 1.93-2.66 2.63-3.69.69-1.04 1.81-2.8 2.48-3.92s1.68-2.88 2.25-3.91a95 95 0 0 0 1.83-3.62c.45-.95 1.2-2.61 1.66-3.69s1.19-2.94 1.63-4.14 1.1-3.17 1.47-4.37a94 94 0 0 0 1.29-4.59 95.6 95.6 0 0 0 1.74-8.74c.13-.91.34-2.57.46-3.69.13-1.11.31-3.69.41-5.72.13-2.83.13-4.55 0-7.38-.1-2.03-.28-4.6-.41-5.72-.12-1.12-.33-2.78-.46-3.69s-.44-2.71-.69-3.99a96 96 0 0 0-1.13-5.05c-.37-1.49-1.21-4.3-1.86-6.25-.64-1.94-1.63-4.62-2.18-5.95-.55-1.32-1.63-3.69-2.41-5.27-.77-1.57-1.99-3.87-2.71-5.12-.72-1.24-2.02-3.34-2.9-4.67-.87-1.32-2.15-3.15-2.82-4.06-.68-.91-1.93-2.51-2.78-3.54-.85-1.04-2.51-2.93-3.68-4.21-1.18-1.28-3.15-3.27-4.4-4.42-1.24-1.15-3.26-2.91-4.49-3.92s-3.28-2.58-4.55-3.49c-1.28-.91-3.19-2.21-4.25-2.88-1.06-.68-2.77-1.71-3.81-2.3-1.03-.6-3.1-1.68-4.59-2.42s-3.8-1.79-5.12-2.34c-1.33-.55-3.45-1.37-4.71-1.82-1.27-.45-3.47-1.15-4.9-1.57-1.43-.41-3.68-.99-5.01-1.29-1.32-.3-3.56-.74-4.97-.97-1.41-.24-3.48-.53-4.59-.66-1.12-.13-2.99-.3-4.15-.39-1.16-.08-4.11-.14-6.55-.13-2.45.01-5.19.08-6.1.14"
     class="shp2"
     id="path5" />
  <path
     fill-rule="evenodd"
     d="m 46.04,82.08 c 0.03,0 -0.04,0 0,0 m 57.16,1.23 c 1.28,-0.02 3.28,0.04 4.44,0.12 1.16,0.08 2.72,0.22 3.47,0.31 0.74,0.09 2.17,0.3 3.16,0.46 1,0.17 2.89,0.56 4.22,0.88 1.33,0.32 3.29,0.87 4.37,1.22 1.08,0.34 2.87,0.99 3.99,1.43 1.12,0.44 2.82,1.17 3.77,1.62 0.95,0.44 2.61,1.3 3.69,1.9 1.08,0.61 2.84,1.68 3.92,2.39 1.07,0.7 2.63,1.8 3.46,2.43 0.83,0.62 2.12,1.65 2.86,2.27 0.75,0.62 2.3,2.04 5.53,5.2 l -0.5,0.09 c -0.28,0.05 -1.86,0.35 -6.53,1.25 l -1.28,-1.16 c -0.71,-0.63 -2,-1.7 -2.87,-2.38 -0.87,-0.68 -2.36,-1.75 -3.31,-2.39 -0.95,-0.64 -2.34,-1.52 -3.09,-1.96 -0.74,-0.43 -2.27,-1.25 -3.39,-1.81 -1.12,-0.56 -3.19,-1.47 -4.59,-2.03 -1.41,-0.56 -3.58,-1.31 -4.82,-1.66 -1.34637,-0.382822 -2.70361,-0.726302 -4.07,-1.03 -1,-0.21 -2.76,-0.52 -3.92,-0.69 -1.16,-0.17 -3.23,-0.38 -4.59,-0.48 -1.4,-0.09 -3.61,-0.13 -5.05,-0.08 -1.41,0.05 -3.27,0.16 -4.14,0.25 -0.87,0.08 -2.64,0.33 -3.92,0.54 -1.29,0.21 -3.35,0.65 -4.6,0.97 -1.24,0.31 -3,0.82 -3.91,1.13 -0.91,0.3 -2.51,0.89 -3.54,1.31 -1.04,0.42 -2.8,1.22 -3.92,1.77 -1.12,0.56 -2.64,1.38 -3.39,1.81 -0.75,0.44 -2.07,1.27 -2.94,1.85 -0.87,0.58 -2.12,1.47 -2.79,1.97 -0.66,0.5 -1.69,1.32 -2.29,1.82 -0.92,0.76 -1.1,0.98 -1.09,1.36 0,0.34 -0.09,0.5 -0.38,0.64 -0.24,0.12 -0.36,0.29 -0.32,0.45 0.03,0.15 0.34,1.15 0.69,2.22 0.35,1.08 1.04,3.32 1.53,4.97 0.5,1.66 1.23,4.27 1.63,5.8 0.4,1.53 0.97,3.81 1.26,5.05 0.3,1.24 0.82,3.61 1.16,5.27 0.33,1.66 0.81,4.16 1.06,5.57 0.24,1.41 0.61,3.71 0.81,5.12 0.2,1.41 0.51,3.75 0.68,5.2 0.16,1.45 0.4,3.85 0.53,5.34 0.12,1.49 0.29,4 0.37,5.58 0.09,1.57 0.19,4.35 0.24,6.17 0.05,1.82 0.02,5.38 -0.07,7.91 -0.09,2.52 -0.26,5.91 -0.38,7.53 -0.13,1.61 -0.3,3.61 -0.39,4.44 -0.09,0.83 -0.19,1.54 -0.23,1.58 -0.03,0.04 -0.09,0.04 -0.12,0 -0.03,-0.04 -2.13,-18.13 -4.68,-40.21 -2.54,-22.07 -4.63,-40.15 -4.65,-40.18 -0.01,-0.02 -1.63,0.15 -3.59,0.38 -1.96,0.23 -3.6,0.45 -3.66,0.49 -0.05,0.04 2.76,24.82 6.24,55.05 3.48,30.23 6.35,54.99 6.37,55.02 0.02,0.02 1.67,-0.14 3.65,-0.37 1.99,-0.22 3.64,-0.41 3.66,-0.42 0.02,-0.01 -0.57,-5.37 -1.32,-11.91 -0.75,-6.55 -1.39,-12.09 -1.43,-12.31 -0.07,-0.38 0,-0.46 0.79,-0.85 0.47,-0.24 1.61,-0.76 2.52,-1.15 0.91,-0.39 2.47,-1.01 3.47,-1.38 0.99,-0.37 2.82,-0.96 4.06,-1.32 1.25,-0.37 3.28,-0.87 4.52,-1.12 1.25,-0.25 3.08,-0.56 4.07,-0.69 1,-0.13 3,-0.3 4.45,-0.39 1.45,-0.09 3.55,-0.13 4.67,-0.07 1.12,0.05 2.84,0.16 3.84,0.24 0.99,0.08 2.96,0.31 4.37,0.52 1.41,0.2 3.91,0.64 5.57,0.98 1.66,0.33 5.25,1.18 7.99,1.88 2.73,0.7 6.66,1.71 8.73,2.25 2.08,0.55 3.79,1.02 3.81,1.06 0.02,0.04 -0.59,0.54 -1.36,1.1 -0.76,0.57 -1.9,1.37 -2.52,1.79 -0.62,0.41 -1.81,1.15 -2.64,1.63 -0.83,0.49 -2.59,1.41 -3.91,2.05 -1.33,0.63 -3.26,1.47 -4.3,1.86 -1.03,0.38 -2.66,0.92 -3.61,1.2 -0.96,0.28 -2.52,0.68 -3.47,0.89 -0.95,0.21 -2.68,0.52 -3.84,0.69 -1.16,0.17 -3.23,0.38 -4.6,0.47 -1.36,0.09 -3.46,0.12 -4.67,0.06 -1.2,-0.05 -3.1,-0.19 -4.21,-0.32 -1.12,-0.12 -2.78,-0.36 -3.7,-0.52 -0.91,-0.16 -2.67,-0.56 -3.91,-0.88 -1.25,-0.32 -3.11,-0.88 -4.15,-1.25 -1.03,-0.36 -2.83,-1.08 -3.99,-1.59 -1.16,-0.51 -3.09,-1.48 -4.29,-2.14 -1.2,-0.67 -2.2,-1.19 -2.21,-1.17 -0.02,0.02 0.1,1.09 0.26,2.38 0.15,1.28 0.28,2.49 0.29,2.67 0,0.28 0.32,0.5 1.92,1.3 1.06,0.52 2.77,1.3 3.81,1.72 1.03,0.41 2.61,1 3.5,1.3 0.89,0.3 2.52,0.77 3.61,1.06 1.1,0.29 2.92,0.69 4.03,0.89 1.12,0.21 3.02,0.5 4.22,0.64 1.58,0.19 3.31,0.27 6.26,0.27 2.92,0 4.7,-0.08 6.32,-0.27 1.25,-0.14 3.14,-0.43 4.22,-0.64 1.08,-0.21 2.77,-0.58 3.77,-0.83 0.99,-0.25 2.59,-0.71 3.54,-1.03 0.95,-0.31 2.37,-0.82 3.16,-1.13 0.79,-0.31 2.52,-1.08 3.84,-1.72 1.33,-0.64 3.09,-1.56 3.92,-2.04 0.83,-0.49 2.29,-1.41 3.24,-2.04 0.95,-0.64 2.41,-1.69 3.24,-2.34 0.83,-0.64 1.95,-1.56 3.46,-2.91 l 2.79,0.5 c 1.53,0.28 3.11,0.54 3.5,0.59 0.4,0.05 0.72,0.14 0.72,0.21 0.01,0.06 -0.77,0.87 -1.73,1.8 -0.95,0.93 -2.6,2.41 -3.66,3.29 -1.05,0.87 -2.75,2.18 -3.77,2.9 -1.01,0.72 -2.67,1.81 -3.69,2.42 -1.01,0.62 -2.79,1.61 -3.95,2.21 -1.16,0.6 -3.06,1.5 -4.22,1.99 -1.16,0.5 -3.23,1.28 -4.59,1.74 -1.37,0.46 -3.61,1.1 -4.97,1.44 -1.37,0.33 -3.3,0.74 -4.3,0.91 -0.99,0.17 -2.69,0.41 -3.76,0.54 -1.08,0.13 -3.59,0.28 -5.58,0.33 -2.2,0.05 -4.53,0.01 -5.95,-0.09 -1.28,-0.1 -3.28,-0.32 -4.44,-0.49 -1.16,-0.16 -3.1,-0.5 -4.3,-0.76 -1.2,-0.25 -3.22,-0.75 -4.48,-1.12 -1.26,-0.36 -3.26,-1.02 -4.44,-1.47 -1.18,-0.44 -2.62,-1.02 -3.2,-1.28 -0.58,-0.26 -1.08,-0.45 -1.1,-0.43 -0.03,0.02 0.16,1.86 0.41,4.1 0.25,2.24 0.46,4.2 0.46,4.37 0,0.28 -0.28,0.33 -4.63,0.84 -2.55,0.3 -4.65,0.54 -4.67,0.53 -0.01,-0.01 -0.44,-3.57 -1.85,-15.83 l -0.41,-0.3 c -0.23,-0.17 -1.06,-0.8 -1.85,-1.42 -0.79,-0.61 -2.07,-1.67 -2.86,-2.35 -0.79,-0.69 -2.42,-2.25 -3.62,-3.48 -1.2,-1.23 -2.77,-2.95 -3.48,-3.82 -0.72,-0.87 -1.89,-2.4 -2.61,-3.39 -0.885424,-1.22671 -1.7325,-2.48065 -2.54,-3.76 -0.67,-1.08 -1.74,-2.98 -2.38,-4.22 -0.64,-1.24 -1.58,-3.23 -2.08,-4.41 -0.51,-1.18 -1.25,-3.14 -1.67,-4.36 -0.41,-1.23 -1.02,-3.28 -1.35,-4.56 -0.368548,-1.44626 -0.692037,-2.90363 -0.97,-4.37 -0.21,-1.12 -0.5,-3.01 -0.65,-4.21 -0.21,-1.71 -0.27,-3.28 -0.27,-7.23 0,-3.95 0.06,-5.52 0.27,-7.23 0.15,-1.2 0.44,-3.1 0.65,-4.22 0.21,-1.12 0.58,-2.84 0.83,-3.84 0.24,-0.99 0.72,-2.69 1.06,-3.76 0.33,-1.08 1.02,-3.01 1.52,-4.3 0.5,-1.28 1.57,-3.62 2.37,-5.19 0.79,-1.58 2,-3.74 2.67,-4.82 0.67,-1.08 1.81,-2.77 2.53,-3.77 0.73,-0.99 1.93,-2.55 4.03,-5.12 l -0.13,-1.09 c -0.11,-0.92 -0.1,-1.1 0.09,-1.16 0.13,-0.03 0.74,-0.11 2.49,-0.27 l 1.2,-1.16 c 0.67,-0.63 1.72,-1.6 2.34,-2.14 0.62,-0.54 1.81,-1.51 2.64,-2.16 0.82,-0.64 2.55,-1.87 3.84,-2.72 1.28,-0.85 3.21,-2.04 4.29,-2.64 1.08,-0.6 2.94,-1.55 4.14,-2.1 1.21,-0.56 3.1,-1.35 4.22,-1.77 1.12,-0.42 2.85,-1.01 3.84,-1.31 1,-0.3 2.46,-0.7 3.24,-0.9 0.79,-0.2 2.32,-0.53 3.39,-0.73 1.08,-0.21 2.81,-0.49 3.85,-0.62 1.03,-0.14 2.66,-0.31 3.61,-0.37 0.95,-0.07 2.78,-0.13 4.07,-0.14 m 1.88,10.16 c 1.49,0.04 3.56,0.17 4.6,0.29 1.03,0.12 2.49,0.32 3.24,0.45 0.74,0.13 2.3,0.46 3.46,0.75 1.16,0.28 2.99,0.81 4.07,1.17 1.08,0.37 2.53,0.89 3.24,1.17 0.7,0.28 2.26,0.99 3.46,1.58 1.2,0.59 2.9,1.5 3.77,2.02 0.87,0.52 2.19,1.37 2.94,1.89 0.74,0.52 2,1.43 2.78,2.04 1.24,0.95 1.39,1.11 1.13,1.22 -0.16,0.06 -1.42,0.35 -2.78,0.64 -1.37,0.29 -3.34,0.67 -4.37,0.84 -1.04,0.18 -2.8,0.42 -3.92,0.53 -1.12,0.12 -3.2,0.22 -4.63,0.22 -1.48,0 -3.37,-0.1 -4.37,-0.23 -0.97,-0.12 -2.52,-0.41 -3.43,-0.62 -0.91,-0.22 -2.03,-0.53 -2.48,-0.68 -0.46,-0.16 -1.68,-0.43 -2.72,-0.59 -1.03,-0.16 -2.76,-0.5 -3.84,-0.76 -1.07,-0.26 -3.96,-1.06 -6.4,-1.8 -2.44,-0.73 -5.39,-1.56 -6.55,-1.85 -1.16,-0.3 -2.99,-0.68 -4.07,-0.87 -1.61,-0.27 -2.58,-0.33 -5.43,-0.34 -1.9,-0.01 -3.97,0.04 -4.59,0.11 -1.01,0.11 -1.11,0.1 -0.9,-0.1 0.12,-0.13 1.24,-0.75 2.48,-1.38 1.24,-0.62 3.28,-1.54 4.52,-2.02 1.24,-0.49 3.04,-1.12 3.99,-1.41 0.96,-0.29 2.65,-0.73 3.77,-0.99 1.12,-0.25 3.02,-0.6 4.22,-0.77 1.2,-0.18 3.06,-0.38 4.14,-0.45 1.08,-0.07 3.18,-0.1 4.67,-0.06"
     class="shp1"
     id="path8"
     sodipodi:nodetypes="cccsccscscccccccccsscscccscccccccccscccccccscccscccsccscsccscsccscccsccccsccccccsccccccssccccccsccccccscccscsccsccccccccccccscccccccccccscssccccccscccscccccscsccccsccccccsccscsccccccccccccssccccccsccccccccccccccccsc" />
  <path
     d="m 35.9,108.83 c 0.56,-1.01 1.12,-2.18 1.24,-2.62 0.12,-0.43 0.18,-0.94 0.14,-1.13 -0.05,-0.18 -0.17,-0.5 -0.27,-0.69 -0.09,-0.2 -0.45,-0.52 -0.78,-0.71"
     class="shp2"
     id="path9"
     sodipodi:nodetypes="ccccc" />
  <path
     d="m 149.77,105.69 c -0.25,1.05 -0.61,2.66 -0.8,3.57 l -0.34,1.66 c 1.65,2.22 2.57,3.54 3.11,4.37 0.55,0.82 1.38,2.18 1.85,3.01 0.48,0.83 1.12,2.01 1.44,2.63 0.31,0.62 0.98,2.12 1.5,3.32 0.51,1.2 1.26,3.16 1.66,4.36 0.4,1.21 0.93,3 1.18,4 0.26,0.99 0.63,2.72 0.84,3.84 0.2,1.11 0.49,3.08 0.63,4.36 0.16,1.52 0.25,3.6 0.26,5.95 0,1.99 -0.08,4.4 -0.18,5.35 -0.1,0.95 -0.28,2.44 -0.41,3.31 -0.13,0.87 -0.46,2.63 -0.75,3.92 -0.28,1.28 -0.79,3.25 -1.13,4.36 -0.34,1.12 -1.03,3.09 -1.54,4.37 -0.59482,1.47761 -1.23851,2.93508 -1.93,4.37 l -1,2.03 c 0.45,2.1 0.81,3.97 1.09,5.5 0.29,1.53 0.54,2.81 0.56,2.83 0.03,0.02 0.46,-0.59 0.96,-1.36 0.51,-0.77 1.28,-2 1.72,-2.75 0.43,-0.75 1.32,-2.41 1.96,-3.69 0.64,-1.28 1.61,-3.45 2.15,-4.82 0.55,-1.37 1.33,-3.6 1.74,-4.97 0.41,-1.37 0.96,-3.43 1.21,-4.59 0.25,-1.16 0.56,-2.75 0.69,-3.54 0.13,-0.79 0.33,-2.35 0.46,-3.47 0.13,-1.11 0.27,-3.42 0.32,-5.12 0.06,-1.84 0.02,-4.08 -0.08,-5.57 -0.1,-1.37 -0.28,-3.26 -0.4,-4.22 -0.12,-0.95 -0.39,-2.64 -0.6,-3.76 -0.21,-1.12 -0.62,-2.93 -0.9,-4.03 -0.29,-1.1 -0.73,-2.66 -0.99,-3.46 -0.26,-0.81 -0.91,-2.59 -1.45,-3.96 -0.54,-1.36 -1.49,-3.5 -2.11,-4.74 -0.63,-1.24 -1.44,-2.8 -1.82,-3.46 -0.37,-0.67 -1.38,-2.26 -2.23,-3.54 -0.85,-1.29 -2.11,-3.06 -2.8,-3.94 -0.69,-0.88 -1.74,-2.15 -2.33,-2.82 l -1.08,-1.21 m -3.79,1.89 c -0.62,0.12 -3.71,0.79 -6.86,1.49 -3.15,0.69 -6.64,1.43 -7.76,1.63 -1.12,0.21 -2.98,0.5 -4.14,0.64 -1.48,0.19 -3.14,0.27 -5.57,0.27 -2.57,0 -3.92,-0.06 -5.2,-0.26 -0.95,-0.15 -2.41,-0.43 -3.24,-0.64 -0.83,-0.2 -2.02,-0.53 -2.64,-0.74 -0.62,-0.21 -1.31,-0.38 -1.54,-0.38 h -0.42 c 0,13.25 0.05,17.32 0.12,17.59 l 0.11,0.49 36.01,-0.01 c 0.3,-3.79 0.52,-5.94 0.68,-7.23 0.16,-1.28 0.47,-3.38 0.68,-4.66 0.22,-1.29 0.66,-3.63 1,-5.2 0.33,-1.57 0.63,-2.95 0.67,-3.05 0.03,-0.12 -0.09,-0.18 -0.36,-0.17 -0.23,0 -0.92,0.11 -1.54,0.23 m -58.98,0.97 c -0.58,0.07 -1.53,0.27 -2.11,0.45 -0.58,0.18 -1.47,0.53 -1.96,0.78 -0.5,0.25 -1.21,0.66 -1.58,0.91 -0.38,0.26 -1.15,0.91 -1.71,1.45 -0.57,0.55 -1.36,1.43 -1.75,1.97 -0.4,0.54 -0.93,1.35 -1.19,1.81 -0.25,0.45 -0.67,1.33 -0.93,1.95 -0.26,0.63 -0.64,1.81 -0.85,2.64 -0.3,1.19 -0.4,2.02 -0.47,3.99 -0.06,1.99 -0.02,2.79 0.19,3.99 0.15,0.83 0.45,2.08 0.68,2.79 0.23,0.7 0.63,1.72 0.9,2.26 0.27,0.53 0.79,1.43 1.15,1.99 0.36,0.56 1.15,1.54 1.75,2.17 0.6,0.63 1.5,1.44 2,1.79 0.5,0.36 1.41,0.89 2.03,1.19 0.62,0.29 1.68,0.67 2.34,0.85 0.87,0.22 1.67,0.31 2.86,0.31 1.16,0 2,-0.09 2.79,-0.29 0.62,-0.17 1.57,-0.5 2.11,-0.74 0.54,-0.24 1.38,-0.71 1.88,-1.05 0.5,-0.33 1.3,-0.97 1.79,-1.42 0.49,-0.45 1.29,-1.35 1.79,-2.02 0.5,-0.66 1.27,-1.95 1.71,-2.86 0.51,-1.04 0.99,-2.33 1.29,-3.46 0.45,-1.7 0.47,-1.98 0.49,-4.6 0.01,-2.16 -0.05,-3.07 -0.26,-4.06 -0.15,-0.71 -0.45,-1.79 -0.66,-2.41 -0.21,-0.62 -0.73,-1.8 -1.16,-2.62 -0.42,-0.82 -1.18,-2 -1.69,-2.63 -0.51,-0.64 -1.32,-1.5 -1.81,-1.92 -0.592362,-0.50666 -1.217011,-0.97432 -1.87,-1.4 -0.53,-0.35 -1.48,-0.82 -2.11,-1.06 -0.62,-0.24 -1.5,-0.5 -1.95,-0.59 -0.46,-0.08 -1.24,-0.18 -1.74,-0.22 -0.49,-0.04 -1.37,-0.01 -1.95,0.06"
     class="shp1"
     id="path10"
     sodipodi:nodetypes="ccccccccccccsscccccccccscsssccccsccccccsccccccsccsscccccccccccscccccccccccsscccscscscccccscccccccc" />
  <path
     d="M55.57 115.01c-.7 1.06-1.6 2.47-1.98 3.14-.38.66-1.27 2.39-1.97 3.84s-1.62 3.55-2.03 4.67a64 64 0 0 0-1.31 3.91c-.29 1.04-.74 2.77-.98 3.84a61 61 0 0 0-.73 4.07c-.17 1.16-.39 3.12-.48 4.37-.11 1.38-.15 3.48-.09 5.42.05 1.74.19 4.04.32 5.12s.37 2.74.54 3.69.55 2.68.84 3.84.87 3.12 1.29 4.37c.42 1.24 1.07 2.97 1.44 3.84s1.17 2.56 1.78 3.76 1.56 2.93 2.11 3.84 1.48 2.34 2.07 3.16c.59.83 1.44 1.99 1.89 2.56.46.58 1.51 1.83 2.35 2.78.83.94 2.33 2.49 3.32 3.43 1.73 1.64 1.81 1.7 1.85 1.29.02-.23-.11-1.78-.3-3.44l-.34-3.02c-1.51-1.62-2.46-2.73-3.08-3.52-.63-.79-1.6-2.07-2.15-2.86s-1.48-2.25-2.07-3.24c-.6-.99-1.48-2.62-1.96-3.61-.49-1-1.19-2.56-1.56-3.47-.38-.91-.93-2.4-1.23-3.31s-.78-2.57-1.07-3.69c-.28-1.12-.68-3.05-.89-4.29-.2-1.25-.44-3.04-.52-3.99-.09-.96-.16-3.16-.16-4.9s.1-4.11.23-5.27c.12-1.16.36-2.89.53-3.84s.48-2.44.69-3.31c.22-.87.61-2.3.88-3.17s.75-2.25 1.06-3.08.96-2.36 1.43-3.39c.48-1.04 1.23-2.54 1.68-3.35l.81-1.46c-.55-4.97-.76-6.47-.82-6.54-.05-.06-.68.75-1.39 1.81m27.52-1.54c-.5.11-1.18.31-1.51.45-.33.13-.62.24-.64.24s-.03-.11-.03-.24c.01-.19-.11-.22-.72-.13-.39.06-.73.11-.74.12s.55 4.93 1.24 10.94c.69 6 1.26 10.94 1.26 10.96s.26.03.57.03.64-.05.73-.11c.13-.08.09-.77-.11-2.52-.22-1.92-.24-2.43-.09-2.53.1-.06.83-.32 1.62-.57.94-.3 1.89-.49 2.79-.55.75-.05 1.89-.01 2.56.09.66.09 2.56.5 4.21.91 1.66.4 3.49.78 4.07.84l1.06.1c-.19-1.71-.57-3.66-.98-5.45-.41-1.78-.82-4.01-.92-4.97-.13-1.32-.13-2.14 0-3.46.1-.95.27-2.14.38-2.64.12-.49.18-.93.14-.97-.04-.05-.63.04-1.31.19s-1.94.39-2.81.52c-1.5.23-1.66.23-2.94-.03-.75-.15-2.17-.5-3.16-.78-1-.27-2.25-.53-2.79-.57-.57-.05-1.36.01-1.88.13"
     class="shp2"
     id="path11" />
  <path
     d="M95.74 114.69c-.91.19-2.13.4-2.71.45-.74.07-1.36.03-2.07-.14-.56-.13-1.05-.24-1.09-.24-.05 0-.08.81-.08 1.81v1.8h7.38c.01-1.11.13-2.02.27-2.74.16-.8.2-1.32.11-1.31-.08.01-.9.17-1.81.37m-10.7 0c-.33.12-.79.41-1.03.63-.24.23-.56.69-.71 1.02-.18.38-.28.94-.28 1.51 0 .59.1 1.14.31 1.58.16.37.42.8.56.96.14.15.51.4.82.56s.76.28 1.01.28.68-.09.94-.2c.27-.11.75-.5 1.06-.86.36-.43.62-.94.73-1.42.1-.41.13-1.04.08-1.39-.05-.36-.22-.9-.38-1.21-.15-.31-.49-.75-.75-.98-.26-.22-.73-.48-1.04-.56s-.6-.15-.64-.14c-.04 0-.34.1-.68.22m-3.99.29c0 .09.34 3.21.77 6.93.42 3.73.8 6.88.85 7.01.05.12.15-.15.23-.61.07-.45.1-1.88.06-3.16-.05-1.28-.19-3.08-.32-3.99s-.48-2.64-.78-3.84c-.29-1.2-.59-2.25-.67-2.34-.1-.1-.14-.1-.14 0"
     class="shp1"
     id="path12" />
  <path
     d="M147.65 116.75c-.01.07-.14 1.25-.3 2.64s-.37 3.52-.45 4.74c-.09 1.23-.16 4.21-.16 6.63s.07 5.35.15 6.51c.09 1.16.26 3.06.39 4.22.12 1.16.4 3.23.61 4.59.21 1.37.64 3.81.96 5.43.32 1.61.95 4.53 1.41 6.47.46 1.95 1.18 4.93 1.6 6.63s.79 3.12.83 3.16.21-.26.38-.68c.18-.41.62-1.6 1-2.63.37-1.04.94-2.9 1.26-4.14.32-1.25.72-2.97.88-3.84.17-.87.42-2.57.57-3.77.19-1.57.27-3.25.26-6.02 0-2.75-.07-4.45-.26-5.95-.15-1.16-.5-3.26-.78-4.67-.29-1.41-.8-3.48-1.14-4.59-.33-1.12-.99-2.99-1.45-4.15a60 60 0 0 0-1.81-4.06c-.54-1.08-1.48-2.81-2.09-3.84-.62-1.04-1.29-2.09-1.49-2.34s-.37-.4-.37-.34"
     class="shp1"
     id="path14" />
  <path
     d="m89.81 120.16.06 1.79c2.33.28 4.02.41 5.25.46l2.23.11c-.15-.82-.2-1.75-.22-2.6l-.03-1.54-7.34-.01"
     class="shp3"
     id="path16" />
  <path
     d="m 86.33,121.85 c -0.63,0.07 -1.59,0.27 -2.15,0.44 l -1.02,0.3 c 0.06,2.31 0.11,3.03 0.15,3.07 0.04,0.05 0.45,0.01 0.91,-0.09 0.49,-0.12 1.85,-0.19 3.39,-0.18 1.6,0 3.24,0.1 4.36,0.27 1,0.14 2.78,0.31 3.96,0.37 1.4,0.06 2.15,0.05 2.14,-0.05 0,-0.08 -0.09,-0.52 -0.21,-0.98 -0.12,-0.46 -0.29,-1.2 -0.38,-1.66 l -0.16,-0.82 c -3.56,-0.17 -5.37,-0.31 -6.32,-0.44 -0.96,-0.12 -2.14,-0.25 -2.64,-0.29 -0.5,-0.04 -1.41,-0.01 -2.03,0.06"
     class="shp1"
     id="path17"
     sodipodi:nodetypes="cccccccccscccsc" />
  <path
     d="M27.04 123.64c-.33.07-.87.26-1.2.42-.33.17-.87.57-1.19.89s-.76.95-.98 1.41c-.29.61-.4 1.13-.45 2.03-.04.95.01 1.35.23 1.88.16.37.59 1.01.96 1.41s.95.88 1.28 1.08c.33.19 1.24.57 2.03.84 1.22.42 1.64.49 2.86.49 1.16 0 1.57-.06 2.15-.33.39-.18 1.04-.62 1.43-.98.42-.39.86-.99 1.08-1.47.2-.46.39-1.23.43-1.79.05-.67 0-1.22-.17-1.73-.13-.42-.44-1.04-.69-1.4-.26-.35-.88-.91-1.4-1.24-.52-.34-1.45-.77-2.07-.97-.63-.21-1.54-.44-2.04-.53-.49-.09-1.07-.15-1.28-.14s-.65.07-.98.13"
     class="shp2"
     id="path18" />
  <path
     d="M85.35 125.39c-.25.04-.79.14-1.21.22l-.75.15c-.26 3.44-.33 4.46-.32 4.48.01.03.52-.12 1.15-.33.62-.2 1.57-.45 2.11-.53.53-.09 1.42-.16 1.95-.16.54-.01 1.59.1 2.34.23.74.13 2.41.5 3.69.82 1.28.33 2.78.66 3.31.75.54.08 1.07.15 1.17.15.11 0 .19-.19.19-.45 0-.25-.14-1.14-.31-1.99s-.37-1.78-.45-2.07l-.13-.53c-3.46-.17-5.17-.33-6.04-.45-.87-.13-2.63-.26-3.92-.29-1.28-.04-2.54-.03-2.78 0m23.87 9.32v8.96c.88.12 1.95.25 2.94.37 1 .13 3.37.4 5.28.61 1.9.21 5.33.55 7.6.75 2.28.21 5.74.48 7.69.61 1.94.13 5.74.28 8.43.32 2.7.04 4.98.02 5.07-.05.12-.09.09-.66-.11-2.08-.15-1.07-.39-3.18-.54-4.67-.21-2.17-.25-3.8-.22-8.24l.05-5.54h-36.19"
     class="shp3"
     id="path19" />
  <path
     d="m 93.63,142.94 c -0.83,0.07 -2.28,0.23 -3.24,0.36 -0.95,0.13 -2.88,0.47 -4.29,0.75 -1.41,0.29 -3.71,0.86 -5.12,1.27 -1.41,0.41 -3.04,0.92 -3.62,1.14 -0.58,0.21 -1.25,0.47 -1.49,0.57 l -0.44,0.18 c 0.16,1.87 0.3,3.77 0.42,5.43 0.12,1.65 0.27,4.62 0.34,6.59 0.07,2.28 0.17,3.55 0.27,3.52 0.08,-0.04 0.96,-0.25 1.96,-0.47 0.99,-0.22 2.75,-0.57 3.91,-0.76 1.16,-0.2 3.03,-0.46 4.15,-0.59 1.11,-0.13 3.28,-0.31 4.82,-0.4 1.73,-0.11 4.52,-0.15 7.38,-0.09 2.53,0.05 5.85,0.19 7.38,0.32 1.53,0.13 3.77,0.34 4.97,0.47 1.2,0.12 5.51,0.63 9.57,1.12 4.06,0.49 8.36,1 9.57,1.13 1.2,0.13 3.37,0.34 4.82,0.46 1.62,0.15 5.04,0.26 8.92,0.3 4.14,0.04 6.29,0.02 6.29,-0.08 0,-0.09 -0.26,-1.22 -0.59,-2.53 -0.33,-1.3 -0.9,-3.76 -1.27,-5.46 -0.38,-1.69 -0.92,-4.37 -1.21,-5.94 -0.29,-1.58 -0.56,-3.1 -0.61,-3.39 l -0.08,-0.53 c -7.64,-0.02 -11.37,-0.14 -13.56,-0.29 -2.12,-0.14 -5.98,-0.45 -8.59,-0.69 -2.61,-0.24 -6.58,-0.65 -8.81,-0.9 -2.24,-0.26 -5.46,-0.66 -7.16,-0.9 -1.7,-0.24 -3.95,-0.51 -5.01,-0.6 -1.05,-0.09 -3.33,-0.15 -5.05,-0.14 -1.71,0.01 -3.8,0.08 -4.63,0.15"
     class="shp1"
     id="path22"
     sodipodi:nodetypes="cccscccccccccccscscccsccccccscsccc" />
  <path
     d="M22.3 147.58c-.29.16-.65.48-.79.71-.14.24-.3.73-.35 1.11-.06.37-.05 1.56.01 2.63l.1 1.96c1.96-.17 3.12-.28 3.84-.34l1.3-.11c-.14-2.8-.28-3.95-.4-4.37-.13-.41-.42-.93-.66-1.16-.23-.22-.6-.47-.83-.56s-.7-.16-1.06-.15c-.35 0-.87.13-1.16.28"
     class="shp2"
     id="path23" />
  <path
     d="M91.75 160.48c-.37.03-1.63.13-2.79.22s-3.29.33-4.74.54c-1.45.2-3.59.57-4.75.82-1.16.24-2.35.5-2.64.59l-.52.14c-.16 7.77-.32 11.42-.45 13.11-.12 1.7-.37 4.41-.54 6.03-.16 1.61-.33 3.15-.37 3.42s-.02.49.04.5c.06 0 .76-.28 1.54-.63.79-.34 2.42-.99 3.62-1.43 1.2-.45 3.1-1.08 4.22-1.4s2.81-.76 3.76-.97c.96-.21 2.58-.52 3.62-.69 1.03-.16 2.66-.38 3.61-.49.96-.1 3.57-.18 5.8-.18 2.24 0 4.92.08 5.96.19 1.03.1 2.86.32 4.06.49 1.2.16 3.71.6 5.58.98 1.86.37 5.62 1.25 8.36 1.95 2.73.69 6.67 1.71 8.74 2.25s5.12 1.28 6.78 1.65c1.65.37 4.2.87 5.65 1.12s3.48.55 4.52.68c1.03.12 2.44.28 3.13.35l1.24.11c-.12-1.05-.32-2.64-.53-4.21-.2-1.58-.61-4.19-.91-5.8-.29-1.62-.87-4.43-1.28-6.25s-1.07-4.64-1.47-6.25l-.72-2.94c-9.78-.15-13.53-.29-15.21-.43-1.57-.14-4.11-.39-5.65-.56-1.53-.17-5.8-.67-9.49-1.12s-7.69-.92-8.89-1.04c-1.2-.13-3.44-.34-4.97-.47-1.63-.14-5.04-.26-8.21-.29-2.98-.02-5.73-.02-6.1.01"
     class="shp3"
     id="path25" />
  <path
     d="m167.69 186.86-1.22 2.07c.88.19 2.44.49 4.03.8 1.6.3 2.9.52 2.9.48s-.78-1.06-1.75-2.26c-.96-1.2-1.93-2.4-2.14-2.67-.22-.27-.45-.49-.5-.49-.06 0-.65.93-1.32 2.07"
     class="shp2"
     id="path27" />
  <path
     d="M144.78 203.04c-.52.2-1.1.6-1.54 1.05-.4.4-.85 1.02-1.02 1.37-.16.35-.36 1-.45 1.43-.11.56-.11 1.04.01 1.66.09.47.3 1.12.45 1.43.16.31.54.84.85 1.18.32.34.98.81 1.47 1.05.75.37 1.09.45 2 .44.7 0 1.37-.1 1.88-.29.44-.16 1.12-.59 1.53-.94.46-.42.9-1.01 1.2-1.63.41-.84.47-1.13.46-2.11 0-.9-.09-1.31-.41-1.99-.22-.48-.69-1.16-1.04-1.52-.36-.35-.98-.81-1.4-1.01-.57-.28-1.04-.38-1.96-.41-.95-.03-1.38.03-2.03.29m-86.48 1.61c-.21.07-.67.27-1.02.45s-.87.56-1.16.85-.71.88-.93 1.32c-.31.6-.42 1.07-.47 1.99-.05 1 0 1.36.29 2.11.23.61.59 1.15 1.1 1.66.52.52 1.06.88 1.67 1.11.57.22 1.23.35 1.8.36.5 0 1.28-.12 1.74-.28.55-.19 1.09-.53 1.63-1.04.46-.43.97-1.11 1.2-1.58.31-.67.39-1.06.4-2.04 0-.98-.06-1.35-.38-2.03-.21-.46-.63-1.1-.92-1.43-.3-.33-.9-.8-1.35-1.05-.67-.37-1.01-.45-2.01-.48-.67-.02-1.38.01-1.59.08m63.29 7.12c-1.02.28-1.12.34-1.09.67.01.2-.09.68-.22 1.08-.13.39-.53 1.15-.89 1.69-.35.54-1.07 1.38-1.6 1.87l-.96.89c.56 2.12.75 2.79.78 2.85s.19.05.35-.04c.17-.08.75-.57 1.3-1.09s1.2-1.23 1.43-1.58c.24-.35.49-.64.55-.64s.86 2.82 1.77 6.26l1.66 6.26c.7-.11 1.46-.3 2.15-.49.69-.2 1.22-.43 1.19-.51-.04-.08-1.11-4.06-2.38-8.85-2.1-7.87-2.35-8.7-2.62-8.68-.17 0-.81.15-1.42.31M87 213.26c-.46.47-1.16.96-1.8 1.27-.58.28-1.43.61-1.89.73-.45.13-1.06.27-1.35.31l-.53.09c-.54 2.28-.68 2.96-.65 2.99.02.02.45 0 .95-.05s1.48-.29 2.18-.54c.71-.25 1.41-.5 1.55-.56.24-.09.22.08-.19 1.55-.25.91-1.02 3.76-1.72 6.33-.69 2.56-1.25 4.68-1.24 4.7s.77.24 1.68.48c.91.25 1.67.44 1.68.42.02-.02 1.08-3.94 2.38-8.73 1.29-4.78 2.34-8.79 2.33-8.89-.01-.12-.47-.31-1.17-.48-.63-.15-1.22-.3-1.31-.33-.08-.03-.49.29-.9.71m8.58 1.01c-.42.14-1.05.47-1.41.71-.36.25-.88.73-1.15 1.06s-.63.91-.8 1.28-.39 1.15-.49 1.73c-.14.78-.15 1.33-.03 2.11.08.58.32 1.43.52 1.88.21.46.62 1.1.91 1.43.3.33.87.79 1.27 1.01.41.22 1.18.47 1.72.56.64.1 1.21.1 1.66.01.37-.08 1-.35 1.39-.6s.75-.45.79-.45-.03.53-.16 1.17-.39 1.5-.57 1.9c-.18.41-.55.93-.81 1.17-.27.24-.71.47-.98.51-.27.05-.76 0-1.09-.11-.39-.13-.72-.38-.95-.72-.19-.29-.34-.68-.34-.87 0-.3-.07-.34-.71-.34-.4 0-1.18.05-1.74.11l-1.03.12c.15.93.35 1.54.53 1.95.19.42.54.99.8 1.28.25.29.89.73 1.42.98.87.41 1.1.45 2.54.45 1.45.01 1.66-.03 2.56-.45.54-.26 1.29-.74 1.66-1.07.37-.34.93-1.08 1.23-1.65.31-.57.69-1.58.86-2.25.17-.66.39-1.95.48-2.86.1-.93.13-2.25.08-3.01-.06-.75-.2-1.78-.32-2.3-.12-.51-.41-1.32-.64-1.79-.22-.48-.73-1.19-1.13-1.59-.39-.39-1.1-.9-1.58-1.13-.71-.33-1.12-.41-2.29-.45-1.08-.04-1.62.01-2.2.22m13.72-.12c-.33.06-1 .32-1.49.55-.48.24-1.12.71-1.42 1.04s-.69.94-.88 1.35c-.19.42-.38 1.03-.44 1.36-.09.59-.09.6.41.71.28.06.98.15 1.56.21l1.05.1c.32-1.14.59-1.65.81-1.87.22-.21.71-.47 1.08-.57.54-.14.8-.14 1.28.02.48.15.67.33.94.87.19.37.34.87.34 1.09 0 .23-.13.67-.28.98-.16.31-.46.69-.68.83-.22.15-.73.35-1.14.45l-.74.19c-.13 1.17-.17 1.79-.17 2.15v.64c.76-.24 1.26-.3 1.62-.3.35 0 .84.1 1.09.22.25.13.64.48.86.78.36.47.43.73.47 1.69.03.96-.01 1.26-.31 1.82-.22.45-.55.8-.95 1.02-.33.18-.85.34-1.16.34s-.76-.07-.98-.16c-.23-.09-.61-.34-.84-.57-.23-.22-.49-.64-.57-.93-.09-.29-.18-.59-.21-.68s-.46-.08-1.23.04c-.65.1-1.4.22-1.67.26-.46.08-.49.11-.4.57.05.27.27.85.49 1.3.22.44.72 1.1 1.11 1.47.4.36 1.11.84 1.58 1.07.8.38 1.02.42 2.68.42s1.88-.04 2.67-.42c.48-.23 1.19-.71 1.58-1.07.4-.36.95-1.09 1.24-1.62.47-.87.53-1.1.58-2.39.05-1.35.03-1.49-.41-2.37-.29-.6-.67-1.1-1.03-1.36-.31-.23-.77-.49-1.02-.59-.25-.09-.58-.21-.75-.27-.26-.08-.2-.18.51-.8.51-.45.94-1.01 1.19-1.54.33-.71.37-.97.31-1.81-.05-.53-.2-1.21-.35-1.5-.16-.29-.56-.83-.91-1.21-.39-.41-1.01-.84-1.6-1.11-.72-.33-1.24-.45-2.09-.48-.62-.03-1.4.01-1.73.08"
     class="shp1"
     id="path28" />
  <path
     d="M96.49 217.14c-.45.2-.69.46-.97 1.02-.32.63-.38.95-.38 2.17 0 1.14.06 1.55.3 2.01.17.32.5.71.75.87.3.18.75.28 1.32.28.74 0 .94-.06 1.34-.41.26-.23.56-.6.68-.83.11-.23.27-.7.35-1.05.09-.38.09-.98.02-1.47-.07-.46-.26-1.1-.41-1.42-.16-.33-.49-.75-.74-.94-.24-.2-.72-.39-1.05-.43-.41-.06-.8.01-1.21.2"
     class="shp2"
     id="path29" />
</svg>
