<?xml version="1.0" encoding="UTF-8" standalone="no"?>
<svg
   xml:space="preserve"
   width="800"
   height="580"
   version="1.1"
   id="svg4"
   sodipodi:docname="criciuma.svg"
   inkscape:version="1.4.2 (f4327f4, 2025-05-13)"
   xmlns:inkscape="http://www.inkscape.org/namespaces/inkscape"
   xmlns:sodipodi="http://sodipodi.sourceforge.net/DTD/sodipodi-0.dtd"
   xmlns="http://www.w3.org/2000/svg"
   xmlns:svg="http://www.w3.org/2000/svg"><defs
     id="defs4" /><sodipodi:namedview
     id="namedview4"
     pagecolor="#ffffff"
     bordercolor="#000000"
     borderopacity="0.25"
     inkscape:showpageshadow="2"
     inkscape:pageopacity="0.0"
     inkscape:pagecheckerboard="0"
     inkscape:deskcolor="#d1d1d1"
     inkscape:zoom="1.3913793"
     inkscape:cx="399.96283"
     inkscape:cy="365.46468"
     inkscape:window-width="1920"
     inkscape:window-height="1009"
     inkscape:window-x="-8"
     inkscape:window-y="-8"
     inkscape:window-maximized="1"
     inkscape:current-layer="g4" /><path
     fill="#FDD116"
     stroke="#3D332A"
     stroke-width="3.25"
     d="m542 58.924-21.284 15.419 8.087-25.007-21.241-15.479 26.283-.036L542 8.836l8.156 24.986 26.283.036-21.242 15.478 8.087 25.008zM400 58.924l-21.285 15.419 8.088-25.007-21.241-15.479 26.282-.036L400 8.836l8.155 24.986 26.284.036-21.242 15.478 8.088 25.008zM258 58.924l-21.285 15.419 8.088-25.007-21.241-15.479 26.282-.036L258 8.836l8.156 24.986 26.283.036-21.242 15.478 8.088 25.008z"
     id="path1" /><g
     fill="#FDD116"
     stroke="#3D332A"
     stroke-width="10"
     id="g2"><path
       d="m419 432.635 230.666-230.667-108.5-108.5L419 215.634zM677.833 230.135 447 460.968h218.666l121.5-121.5z"
       id="path2" /></g><g
     fill="#FDD116"
     stroke="#3D332A"
     stroke-width="10"
     id="g3"><path
       d="M381 432.635V215.634L258.834 93.468l-108.501 108.5zM122.167 230.135 12.834 339.468l121.5 121.5H353z"
       id="path3" /></g><g
     fill="#3D332A"
     id="g4" /></svg>
