<?xml version="1.0" encoding="UTF-8" standalone="no"?>
<svg
   width="316.228"
   height="316.228"
   fill-rule="evenodd"
   clip-rule="evenodd"
   image-rendering="optimizeQuality"
   shape-rendering="geometricPrecision"
   text-rendering="geometricPrecision"
   viewBox="0 0 2092 2092"
   version="1.1"
   id="svg11"
   sodipodi:docname="cruzeiro.svg"
   inkscape:version="1.4.2 (f4327f4, 2025-05-13)"
   xmlns:inkscape="http://www.inkscape.org/namespaces/inkscape"
   xmlns:sodipodi="http://sodipodi.sourceforge.net/DTD/sodipodi-0.dtd"
   xmlns="http://www.w3.org/2000/svg"
   xmlns:svg="http://www.w3.org/2000/svg">
  <defs
     id="defs11" />
  <sodipodi:namedview
     id="namedview11"
     pagecolor="#ffffff"
     bordercolor="#000000"
     borderopacity="0.25"
     inkscape:showpageshadow="2"
     inkscape:pageopacity="0.0"
     inkscape:pagecheckerboard="0"
     inkscape:deskcolor="#d1d1d1"
     inkscape:zoom="2.5519562"
     inkscape:cx="64.068497"
     inkscape:cy="154.97915"
     inkscape:window-width="1920"
     inkscape:window-height="1009"
     inkscape:window-x="-8"
     inkscape:window-y="-8"
     inkscape:window-maximized="1"
     inkscape:current-layer="svg11" />
  <g
     fill="#fefefe"
     id="g8">
    <path
       d="m1058 1409 28 86h90l-73 53 28 85-73-52-73 52 28-85-73-53h90zM1442 814l28 85h90l-73 53 28 86-73-53-73 53 28-86-73-53h90zM1157 984l21 64h67l-55 40 21 63-54-39-54 39 20-63-54-40h67zM1041 459l27 85h91l-73 53 27 86-72-53-73 53 28-86-73-53h90zM650 807l28 85h90l-73 53 28 86-73-53-73 53 28-86-73-53h90zM321 1391l-35 18 10 21c7 14 16 28 33 19 16-8 11-21 4-34zM407 1610c-31 30-22 54-11 65 10 11 34 21 66-9 31-30 22-54 11-66-10-11-34-21-66 10M1612 371c8-10 7-20-12-34l-22-18-24 31 25 20c9 7 22 15 33 1M523 337c-8-10-18-11-36 3l-22 18 25 31 24-20c9-7 20-18 9-32M1768 601c36-25 31-50 23-63-9-13-31-27-67-2-36 24-31 50-23 63 9 12 31 26 67 2M667 1751l-25-13-19 34 28 15c10 6 25 12 33-4 6-11 3-20-17-32"
       id="path1" />
    <path
       d="m1978 1222-23 109-192-42 22-105c11-51 42-55 62-51 19 4 28 16 32 32 10-16 27-29 55-23 39 8 52 46 44 80m-101 291q-43.5 79.5-114 39l-106-59 30-53 94 53c17 9 39 22 54-4 14-25-8-37-26-47l-93-53 29-52 106 59c47 26 56 65 26 117m-214 258-139-139 43-43 104 104 61-62 36 36zm-153 110c-56 31-109 9-137-42-31-54-16-109 37-138 47-26 87-16 115 25l-51 29c-5-6-20-23-42-10-25 13-19 42-6 65 12 23 34 43 59 29 17-10 17-26 12-44l52-29c19 35 11 87-39 115m-487 120-12-196 163-10 3 50-102 6 1 25 93-6 3 47-93 5 2 25 105-7 3 51zm-64-150-54-12-32 143-59-13 32-143-54-11 11-50 166 37zm-217-48c-10 18-28 32-49 29 11 14 11 35 1 57-4 9-15 30-14 40l-53-29c2-10 6-19 10-29 8-17 15-35-6-46l-28-16-33 60-53-29 95-172 101 55c30 17 47 48 29 80m-382-94c-41-43-38-102 5-143 44-42 102-43 144 0 41 44 38 102-5 144-44 41-102 42-144-1m-100-247-16-32-53 27-28-54 176-89 46 91c24 47-3 82-28 94-42 22-77 3-97-37m-150-234c-4-22-8-86 53-99l12 60c-5 1-9 2-12 4-11 7-11 20-9 32 2 9 8 24 22 21 11-2 12-11 15-46 2-33 4-69 43-77 44-8 71 26 79 66 8 42-1 82-47 93l-11-57c7 0 11-4 14-10 2-5 2-12 1-18-2-8-6-21-17-19-14 4-11 32-14 61-2 29-9 58-45 65-50 10-75-33-84-76m-3-340 197 15-14 163-50-4 8-102-24-2-8 92-46-3 7-93-24-2-9 105-50-4zm154-378c30-45 70-53 114-30l-33 49c-6-3-27-11-42 10-15 24 3 46 24 61 22 15 50 23 66-1 12-17 4-31-9-45l33-49c33 22 50 72 18 120-36 53-93 58-141 26-52-35-64-90-30-141m217-223c27-21 62-25 86 4 13 16 19 38 8 57 17-6 36 2 53 20 7 7 22 25 32 29l-48 38c-8-6-15-13-23-21-13-13-26-28-45-13l-25 21 43 53-47 38-124-153zm200-115 39 100c7 18 16 42 44 31 26-10 17-34 10-52l-39-100 56-22 44 112c20 51 2 86-54 108s-93 8-113-43l-44-112zm383-78 3 44-85 108 97-7 3 51-175 12-3-47 84-105-87 6-3-50zm105 7 160 35-11 49-100-21-5 24 90 19-10 46-90-20-6 24 103 23-10 49-162-35zm251 72 55 26-84 178-55-26zm233 143c27 22 39 55 16 84-13 16-33 27-54 21 9 15 6 36-7 56-6 8-20 27-21 38l-48-38c4-10 9-18 15-27 10-15 21-32 2-47l-25-20-43 54-47-37 121-155zm107 730c0 393-320 714-711 714s-711-321-711-714 320-714 711-714 711 321 711 714m74-536c34 50 21 107-29 141-50 33-108 25-141-25-34-49-21-107 29-140 50-34 108-25 141 24m80 397 7 93 25-2-8-105 50-4 13 166-197 15-12-163 51-3 7 101 25-1-7-93zm-165-558c-179-179-427-290-700-290S525 170 346 349C166 528 55 774 55 1046s111 518 291 697c179 179 427 290 700 290s521-111 700-290 291-425 291-697-112-518-291-697"
       id="path2" />
    <path
       d="M1916 1200c-11-3-19 3-22 17l-8 37 36 8 7-35c3-13 2-24-13-27M1845 1191c-9-2-15 6-17 18l-7 31 29 6 7-31c3-12 1-21-12-24"
       id="path3" />
    <path
       d="M1767 1764c-185 185-440 299-721 299s-536-114-721-299c-185-184-300-438-300-718s115-534 300-718C510 143 765 29 1046 29s536 114 721 299c185 184 300 438 300 718s-115 534-300 718M1046 0C468 0 0 468 0 1046s468 1046 1046 1046 1046-468 1046-1046S1624 0 1046 0"
       id="path4" />
    <path
       d="m517 1840 95-172 101 55c30 17 47 48 29 80-10 18-28 32-49 29 11 14 11 35 1 57-4 9-15 30-14 40l-53-29c2-10 6-19 10-29 8-17 15-35-6-46l-28-16-33 60zm297 129 32-143-54-11 11-50 166 37-10 49-54-12-32 143zm209 32-12-196 163-10 3 50-102 6 1 25 93-6 3 47-93 5 2 25 105-7 3 51zm-677-258c179 179 427 290 700 290s521-111 700-290 291-425 291-697-112-518-291-697-427-290-700-290-521 111-700 290C166 528 55 774 55 1046s111 518 291 697m700 17c-391 0-711-321-711-714s320-714 711-714 711 321 711 714-320 714-711 714m-542-50c-44 41-102 42-144-1-41-43-38-102 5-143 44-42 102-43 144 0 41 44 38 102-5 144m1212-321 29-52 106 59c47 26 56 65 26 117q-43.5 79.5-114 39l-106-59 30-53 94 53c17 9 39 22 54-4 14-25-8-37-26-47zm239-58-192-42 22-105c11-51 42-55 62-51 19 4 28 16 32 32 10-16 27-29 55-23 39 8 52 46 44 80zm-582 508c-31-54-16-109 37-138 47-26 87-16 115 25l-51 29c-5-6-20-23-42-10-25 13-19 42-6 65 12 23 34 43 59 29 17-10 17-26 12-44l52-29c19 35 11 87-39 115-56 31-109 9-137-42m290-68-139-139 43-43 104 104 61-62 36 36zM357 1499c-42 22-77 3-97-37l-16-32-53 27-28-54 176-89 46 91c24 47-3 82-28 94m-163-195c-50 10-75-33-84-76-4-22-8-86 53-99l12 60c-5 1-9 2-12 4-11 7-11 20-9 32 2 9 8 24 22 21 11-2 12-11 15-46 2-33 4-69 43-77 44-8 71 26 79 66 8 42-1 82-47 93l-11-57c7 0 11-4 14-10 2-5 2-12 1-18-2-8-6-21-17-19-14 4-11 32-14 61-2 29-9 58-45 65m30-346-8 92-46-3 7-93-24-2-9 105-50-4 13-165 197 15-14 163-50-4 8-102zm208-333c-36 53-93 58-141 26-52-35-64-90-30-141 30-45 70-53 114-30l-33 49c-6-3-27-11-42 10-15 24 3 46 24 61 22 15 50 23 66-1 12-17 4-31-9-45l33-49c33 22 50 72 18 120m80-112L388 360l90-73c27-21 62-25 86 4 13 16 19 38 8 57 17-6 36 2 53 20 7 7 22 25 32 29l-48 38c-8-6-15-13-23-21-13-13-26-28-45-13l-25 21 43 53zm266-164c-56 22-93 8-113-43l-44-112 57-22 39 100c7 18 16 42 44 31 26-10 17-34 10-52l-39-100 56-22 44 112c20 51 2 86-54 108m301-59-175 12-3-47 84-105-87 6-3-50 166-12 3 44-85 108 97-7zm208 39-162-35 41-193 160 35-11 49-100-21-5 24 90 19-10 46-90-20-6 24 103 23zm101 48-55-26 84-178 55 26zm196 138-48-38c4-10 9-18 15-27 10-15 21-32 2-47l-25-20-43 54-47-37 121-155 91 71c27 22 39 55 16 84-13 16-33 27-54 21 9 15 6 36-7 56-6 8-20 27-21 38m218 136c-50 33-108 25-141-25-34-49-21-107 29-140 50-34 108-25 141 24 34 50 21 107-29 141m-1 419-12-163 51-3 7 101 25-1-7-93 46-4 7 93 25-2-8-105 50-4 13 166z"
       id="path5" />
    <path
       d="M396 1675c10 11 34 21 66-9 31-30 22-54 11-66-10-11-34-21-66 10-31 30-22 54-11 65M329 1449c16-8 11-21 4-34l-12-24-35 18 10 21c7 14 16 28 33 19"
       id="path6" />
    <path
       d="M1046 2063c-281 0-536-114-721-299-185-184-300-438-300-718s115-534 300-718C510 143 765 29 1046 29s536 114 721 299c185 184 300 438 300 718s-115 534-300 718c-185 185-440 299-721 299M0 1046c0 578 468 1046 1046 1046s1046-468 1046-1046S1624 0 1046 0 0 468 0 1046"
       id="path7" />
    <path
       d="M651 1787c10 6 25 12 33-4 6-11 3-20-17-32l-25-13-19 34zM1013 1548l-28 85 73-52 73 52-28-85 73-53h-90l-28-86-28 86h-90zM1103 1151l54-39 54 39-21-63 55-40h-67l-21-64-21 64h-67l54 40zM1397 952l-28 86 73-53 73 53-28-86 73-53h-90l-28-85-28 85h-90zM1113 683l-27-86 73-53h-91l-27-85-28 85h-90l73 53-28 86 73-53zM678 892l-28-85-28 85h-90l73 53-28 86 73-53 73 53-28-86 73-53zM490 389l24-20c9-7 20-18 9-32-8-10-18-11-36 3l-22 18zM1578 319l-24 31 25 20c9 7 22 15 33 1 8-10 7-20-12-34zM1724 536c-36 24-31 50-23 63 9 12 31 26 67 2 36-25 31-50 23-63-9-13-31-27-67-2M1845 1191c-9-2-15 6-17 18l-7 31 29 6 7-31c3-12 1-21-12-24M1894 1217l-8 37 36 8 7-35c3-13 2-24-13-27-11-3-19 3-22 17"
       id="path8" />
  </g>
  <path
     fill="#2f529e"
     d="M346 1743c-180-179-291-425-291-697s111-518 291-697C525 170 773 59 1046 59s521 111 700 290 291 425 291 697-112 518-291 697-427 290-700 290-521-111-700-290M25 1046c0 280 115 534 300 718 185 185 440 299 721 299s536-114 721-299c185-184 300-438 300-718s-115-534-300-718c-185-185-440-299-721-299S510 143 325 328C140 512 25 766 25 1046"
     id="path9" />
  <path
     fill="#2f529e"
     d="m 335,1046 c 0,393 320,714 711,714 391,0 711,-321 711,-714 0,-393 -320,-714 -711,-714 -391,0 -711,321 -711,714 m 650,587 28,-85 -73,-53 h 90 l 28,-86 28,86 h 90 l -73,53 28,85 -73,-52 z m 118,-482 20,-63 -54,-40 h 67 l 21,-64 21,64 h 67 l -55,40 21,63 -54,-39 z m 10,-468 -72,-53 -73,53 28,-86 -73,-53 h 90 l 28,-85 27,85 h 91 l -73,53 z m 256,355 28,-86 -73,-53 h 90 l 28,-85 28,85 h 90 l -73,53 28,86 -73,-53 z m -646,-7 -73,-53 -73,53 28,-86 -73,-53 h 90 l 28,-85 28,85 h 90 l -73,53 z"
     id="path10"
     sodipodi:nodetypes="cssscccccccccccccccccccccccccccccccccccccccccccccccccccccccccc" />
</svg>
