<?xml version="1.0" encoding="UTF-8" standalone="no"?>
<svg
   width="100"
   height="127"
   viewBox="0 0 100 126"
   version="1.1"
   id="svg46"
   sodipodi:docname="cuiaba.svg"
   inkscape:version="1.4.2 (f4327f4, 2025-05-13)"
   xmlns:inkscape="http://www.inkscape.org/namespaces/inkscape"
   xmlns:sodipodi="http://sodipodi.sourceforge.net/DTD/sodipodi-0.dtd"
   xmlns:xlink="http://www.w3.org/1999/xlink"
   xmlns="http://www.w3.org/2000/svg"
   xmlns:svg="http://www.w3.org/2000/svg">
  <sodipodi:namedview
     id="namedview46"
     pagecolor="#ffffff"
     bordercolor="#000000"
     borderopacity="0.25"
     inkscape:showpageshadow="2"
     inkscape:pageopacity="0.0"
     inkscape:pagecheckerboard="0"
     inkscape:deskcolor="#d1d1d1"
     inkscape:zoom="6.3543307"
     inkscape:cx="49.965923"
     inkscape:cy="63.5"
     inkscape:window-width="1920"
     inkscape:window-height="1009"
     inkscape:window-x="-8"
     inkscape:window-y="-8"
     inkscape:window-maximized="1"
     inkscape:current-layer="svg46" />
  <defs
     id="defs3">
    <clipPath
       id="b">
      <path
         d="M0 0h100v126H0z"
         id="path1" />
    </clipPath>
    <filter
       id="a"
       width="1"
       height="1"
       x="0"
       y="0"
       filterUnits="objectBoundingBox">
      <feColorMatrix
         in="SourceGraphic"
         values="0 0 0 0 1 0 0 0 0 1 0 0 0 0 1 0 0 0 1 0"
         id="feColorMatrix1" />
    </filter>
    <mask
       id="d">
      <g
         filter="url(#a)"
         id="g2">
        <path
           d="M0 0h100v126H0z"
           style="fill:#000;fill-opacity:.996078;stroke:none"
           id="path2" />
      </g>
    </mask>
    <g
       id="c"
       clip-path="url(#b)">
      <path
         d="M49.945 0A130.6 130.6 0 0 0 69.7 11.71a293 293 0 0 0 30.156 12.376.6.6 0 0 1 .176.105 1044 1044 0 0 1-.633 24.473 111 111 0 0 1-2.25 18.664c-3.093 14.055-9.492 26.34-19.191 36.844a112.3 112.3 0 0 1-21.547 17.863 181 181 0 0 1-6.394 3.883 122.5 122.5 0 0 1-25.2-18.875Q3.903 86.096 1.196 56.488.821 52.615.628 48.73.172 36.461-.004 24.188a349 349 0 0 0 24.219-9.614A152.4 152.4 0 0 0 46.004 2.828 57 57 0 0 0 49.945 0m0 0"
         style="stroke:none;fill-rule:evenodd;fill:#006536;fill-opacity:1"
         id="path3" />
    </g>
  </defs>
  <use
     xlink:href="#c"
     mask="url(#d)"
     id="use3" />
  <path
     d="M58.871 53.691q-4.37-20.556-8.785-41.105.017-.095-.07-.14a6453 6453 0 0 0-8.856 41.25H9.031c-.02-8.692 0-17.383.07-26.079a239 239 0 0 0 25.59-10.941 122 122 0 0 0 12.16-7.2 70 70 0 0 0 3.024-2.238.3.3 0 0 1 .281 0 100 100 0 0 0 14.762 9.23A229 229 0 0 0 91 27.622V53.7c-10.71-.008-21.418-.008-32.129-.008m0 0"
     style="stroke:none;fill-rule:evenodd;fill:#fbd700;fill-opacity:1"
     id="path4" />
  <path
     d="M50.086 12.586q-.106 20.538-.07 41.105H41.16a6511 6511 0 0 1 8.856-41.25q.088.052.07.145m0 0"
     style="stroke:none;fill-rule:evenodd;fill:#028844;fill-opacity:1"
     id="path5" />
  <path
     d="M50.086 12.586q4.416 20.55 8.785 41.105h-8.855c-.024-13.71 0-27.418.07-41.105m0 0"
     style="stroke:none;fill-rule:evenodd;fill:#004f27;fill-opacity:1"
     id="path6" />
  <path
     d="M55.29 66.695h-5.485v-1.398a.89.89 0 0 1 .496-.664 70 70 0 0 1 4.426 0c.222.129.402.3.527.523q.053.773.035 1.54m0 0"
     style="stroke:none;fill-rule:evenodd;fill:#006536;fill-opacity:1"
     id="path15" />
  <path
     d="M81.93 65.3q.105.715.07 1.47-2.796.035-5.55-.07h5.48Zm0 0"
     style="stroke:none;fill-rule:evenodd;fill:#76ac93;fill-opacity:1"
     id="path20" />
  <path
     d="M28.012 76.977c.937-.016 1.875 0 2.812.035a.75.75 0 0 1 0 .633c-.937.035-1.875.043-2.812.035Zm0 0"
     style="stroke:none;fill-rule:evenodd;fill:#006535;fill-opacity:1"
     id="path32" />
  <path
     d="M39.684 76.977c.937-.016 1.875 0 2.808.035a.75.75 0 0 1 0 .633c-.933.035-1.87.043-2.808.035Zm0 0"
     style="stroke:none;fill-rule:evenodd;fill:#026535;fill-opacity:1"
     id="path34" />
  <path
     d="M43.902 103.684q-.058 0-.07.066 1.014.105 2.035.07v.91h-3.582v-.21c.067-.48.266-.903.594-1.254a20 20 0 0 0 1.898-2.028q.24-1.372-1.09-.945c-.171.187-.261.41-.28.664a6 6 0 0 1-1.052-.07q.066-1.241 1.262-1.575c.961-.222 1.7.067 2.215.88a1.92 1.92 0 0 1-.14 1.535 4.5 4.5 0 0 1-.563.77q-.669.536-1.227 1.187m0 0"
     style="stroke:none;fill-rule:evenodd;fill:#fbfcfb;fill-opacity:1"
     id="path40" />
  <path
     d="M47.91 99.277c1.348-.129 2.082.477 2.211 1.817q.07.984 0 1.957c-.293 1.61-1.191 2.11-2.707 1.504a2.03 2.03 0 0 1-.734-1.504 9.2 9.2 0 0 1 .14-2.656q.282-.825 1.09-1.118m4.215 0q1.506-.273 2.074 1.118.58 1.933-.21 3.773-1.237 1.3-2.602.14a3.24 3.24 0 0 1-.492-1.538 4.78 4.78 0 0 1 .417-2.864c.227-.281.497-.488.813-.629m0 0"
     style="stroke:none;fill-rule:evenodd;fill:#fafcfb;fill-opacity:1"
     id="path41" />
  <path
     d="M56.906 99.277h.914v5.453h-1.125c.012-1.285 0-2.562-.035-3.847a3.2 3.2 0 0 1-1.3.699v-.977c.73-.195 1.25-.636 1.546-1.328m0 0"
     style="stroke:none;fill-rule:evenodd;fill:#f5f9f7;fill-opacity:1"
     id="path42" />
  <path
     d="M48.117 100.188q.779-.158.883.628a18 18 0 0 1 0 2.239q-.06.317-.14.629-.464.55-.915 0a5 5 0 0 1-.14-.489 21 21 0 0 1 0-2.449 1.05 1.05 0 0 1 .312-.558m0 0"
     style="stroke:none;fill-rule:evenodd;fill:#056638;fill-opacity:1"
     id="path43" />
  <path
     d="M52.336 100.188c.64-.055.957.25.953.906.043.633.043 1.258 0 1.886q-.075.444-.281.84-.416.294-.774-.07-.152-.3-.21-.629-.07-1.05 0-2.094c.035-.308.144-.59.312-.84m0 0"
     style="stroke:none;fill-rule:evenodd;fill:#0b683a;fill-opacity:1"
     id="path44" />
  <path
     d="M43.902 103.684q.997.1 2.035.066v.98h-.07v-.91q-1.021.035-2.035-.07.006-.065.07-.066m0 0"
     style="stroke:none;fill-rule:evenodd;fill:#bed8cc;fill-opacity:1"
     id="path45" />
  <path
     d="M42.285 104.52v.21h3.653q-1.845.105-3.723.07a.32.32 0 0 1 .07-.28m0 0"
     style="stroke:none;fill-rule:evenodd;fill:#438d6a;fill-opacity:1"
     id="path46" />
</svg>
