<?xml version="1.0" encoding="UTF-8" standalone="no"?>
<svg
   width="400"
   height="495"
   version="1.1"
   id="svg3"
   sodipodi:docname="flamengo.svg"
   inkscape:version="1.4.2 (f4327f4, 2025-05-13)"
   xmlns:inkscape="http://www.inkscape.org/namespaces/inkscape"
   xmlns:sodipodi="http://sodipodi.sourceforge.net/DTD/sodipodi-0.dtd"
   xmlns="http://www.w3.org/2000/svg"
   xmlns:svg="http://www.w3.org/2000/svg">
  <defs
     id="defs3" />
  <sodipodi:namedview
     id="namedview3"
     pagecolor="#ffffff"
     bordercolor="#000000"
     borderopacity="0.25"
     inkscape:showpageshadow="2"
     inkscape:pageopacity="0.0"
     inkscape:pagecheckerboard="0"
     inkscape:deskcolor="#d1d1d1"
     inkscape:zoom="1.630303"
     inkscape:cx="200.26952"
     inkscape:cy="247.5"
     inkscape:window-width="1920"
     inkscape:window-height="1009"
     inkscape:window-x="-8"
     inkscape:window-y="-8"
     inkscape:window-maximized="1"
     inkscape:current-layer="svg3" />
  <path
     d="M.5 174.7V.4H400v174.3c.6 163.5-72.1 265-199.8 319.9C72.6 439.7-.1 338.2.5 174.7"
     style="fill:#000200"
     id="path1" />
  <path
     fill-rule="evenodd"
     d="M200.2 475.7c-31.2-14.2-58.7-31.4-82.2-51.9h164.5c-23.5 20.5-51.1 37.7-82.3 51.9M64.8 361.4h270.9c11-18 20.1-37.6 27.2-58.9H37.6c7.1 21.3 16.2 40.9 27.2 58.9M23.2 240.1h354.1q3.9-27.9 4.2-58.9H19q.3 31 4.2 58.9m182.2-121.3h176V59.9h-176zM19 165.9h170.7V19.4H19z"
     style="fill:#c52613"
     id="path2" />
</svg>
