<?xml version="1.0" encoding="UTF-8" standalone="no"?>
<svg
   xml:space="preserve"
   width="381.822"
   height="442.002"
   version="1.0"
   id="svg11"
   sodipodi:docname="fluminense.svg"
   inkscape:version="1.4.2 (f4327f4, 2025-05-13)"
   xmlns:inkscape="http://www.inkscape.org/namespaces/inkscape"
   xmlns:sodipodi="http://sodipodi.sourceforge.net/DTD/sodipodi-0.dtd"
   xmlns="http://www.w3.org/2000/svg"
   xmlns:svg="http://www.w3.org/2000/svg"><defs
     id="defs11" /><sodipodi:namedview
     id="namedview11"
     pagecolor="#ffffff"
     bordercolor="#000000"
     borderopacity="0.25"
     inkscape:showpageshadow="2"
     inkscape:pageopacity="0.0"
     inkscape:pagecheckerboard="0"
     inkscape:deskcolor="#d1d1d1"
     inkscape:zoom="1.8257835"
     inkscape:cx="190.87695"
     inkscape:cy="221.00101"
     inkscape:window-width="1920"
     inkscape:window-height="1009"
     inkscape:window-x="-8"
     inkscape:window-y="-8"
     inkscape:window-maximized="1"
     inkscape:current-layer="svg11" /><path
     fill="#92062A"
     d="M190.958 0C142.793 62.548 79.204 85.922.285 70.308c-5.111 155.285 58.479 279.15 190.672 371.694 132.101-92.544 195.687-216.409 190.58-371.694C302.617 85.922 239.029 62.548 190.958 0"
     id="path1" /><path
     fill="#FFF"
     d="M190.958 6.435Q119.276 95.856 4.165 75.134C.569 225.874 62.738 346.618 190.958 437.176c128.126-90.558 190.296-211.302 186.7-362.042-76.746 13.815-139.009-9.085-186.7-68.699"
     id="path2" /><path
     fill="#92062a"
     d="M 190.958,33.214 C 145.442,81.665 89.044,102.293 21.67,95.29 c 0.757,42.771 7.191,82.893 19.398,120.459 H 340.752 C 352.96,178.183 359.488,138.061 360.244,95.29 292.87,102.293 236.38,81.665 190.958,33.214"
     id="path3"
     sodipodi:nodetypes="cccccc" /><path
     fill="#006039"
     d="M221.05 225.874c-26.309-5.203-55.075-5.203-86.111 0H44.476c26.211 73.524 75.037 136.739 146.482 189.633 71.35-52.895 120.174-116.109 146.388-189.633z"
     id="path4" /></svg>
