<?xml version="1.0" encoding="UTF-8" standalone="no"?>
<svg
   width="151"
   height="200"
   version="1.2"
   id="svg7"
   sodipodi:docname="fortaleza.svg"
   inkscape:version="1.4.2 (f4327f4, 2025-05-13)"
   xmlns:inkscape="http://www.inkscape.org/namespaces/inkscape"
   xmlns:sodipodi="http://sodipodi.sourceforge.net/DTD/sodipodi-0.dtd"
   xmlns="http://www.w3.org/2000/svg"
   xmlns:svg="http://www.w3.org/2000/svg">
  <defs
     id="defs7" />
  <sodipodi:namedview
     id="namedview7"
     pagecolor="#ffffff"
     bordercolor="#000000"
     borderopacity="0.25"
     inkscape:showpageshadow="2"
     inkscape:pageopacity="0.0"
     inkscape:pagecheckerboard="0"
     inkscape:deskcolor="#d1d1d1"
     inkscape:zoom="4.035"
     inkscape:cx="75.464684"
     inkscape:cy="100"
     inkscape:window-width="1920"
     inkscape:window-height="1009"
     inkscape:window-x="-8"
     inkscape:window-y="-8"
     inkscape:window-maximized="1"
     inkscape:current-layer="svg7" />
  <style
     id="style1">.shp1{fill:#0362ab}.shp2{fill:#fbfcfd}</style>
  <path
     d="M74.6 2.32c-.41 1.28-.94 2.92-1.18 3.66-.23.73-.64 2-.9 2.82-.27.83-.54 1.61-.61 1.74l-.13.24c-8.46 0-10.98.02-11.07.05s-.16.15-.16.27c0 .13.19.35.47.56.26.19.74.54 1.07.77.32.24.85.62 1.17.86l.96.69.96.69c.32.24.84.61 1.14.83.31.22 1.11.8 1.77 1.28.67.49 1.27.96 1.33 1.07.09.13.07.34-.11.85-.12.37-.5 1.53-.84 2.59-.33 1.06-.71 2.23-.84 2.62-.13.38-.52 1.55-.86 2.61-.45 1.41-.58 1.96-.5 2.08.06.09.18.15.28.14.09-.02.66-.41 1.26-.86.6-.46 1.52-1.14 2.05-1.52.52-.38 1.05-.77 1.18-.85a238.85 238.85 0 0 0 4.11-2.99c.17-.12.37-.21.46-.21.08 0 .18.04.21.1s.26.24.52.4c.25.16.95.66 1.55 1.1s1.37 1.01 1.71 1.28c.34.26.88.66 1.19.88s1.01.72 1.56 1.12c.54.39 1.23.9 1.51 1.12.29.22.62.4.74.4s.23-.06.25-.13c.03-.08-.13-.69-.35-1.37-.22-.67-.6-1.87-.86-2.66-.25-.8-.63-2-.85-2.67-.22-.68-.58-1.78-.79-2.46-.22-.67-.38-1.32-.36-1.44.02-.11.37-.46.78-.78.41-.31 1.05-.78 1.43-1.04.38-.27.91-.64 1.17-.83.27-.19 1.13-.82 1.92-1.41s1.75-1.29 2.13-1.57c.38-.27.87-.63 1.09-.79.22-.17.4-.38.4-.49 0-.1-.07-.21-.16-.24s-2.65-.05-5.7-.05h-5.53c-.84-2.69-1.28-4.07-1.52-4.8-.23-.74-.61-1.89-.84-2.56-.22-.68-.47-1.45-.55-1.71-.09-.27-.23-.76-.32-1.1-.14-.47-.22-.61-.38-.61-.18 0-.32.35-.96 2.32"
     style="fill:#cc8a3d"
     id="path1" />
  <path
     d="M.27 43.12c-.2.11-.2.52-.18 22.36l.02 22.25c2.11 3.18 4.09 6.15 5.76 8.64a3385.99 3385.99 0 0 0 8.02 11.95c1.28 1.91 3.16 4.72 4.18 6.25 1.03 1.52 3.04 4.53 4.47 6.67 1.44 2.14 3.48 5.19 4.55 6.77 1.06 1.59 2.78 4.16 3.83 5.71 1.04 1.56 2.78 4.15 3.86 5.77 1.08 1.61 3.37 5.02 5.07 7.58l4.22 6.29c.62.91 2.33 3.48 3.82 5.7s3.6 5.37 4.69 6.99c1.08 1.62 2.95 4.4 4.15 6.17 1.19 1.78 2.39 3.57 2.65 3.97.26.41 1.1 1.66 1.86 2.78s1.65 2.44 1.97 2.94c.32.49 1.45 2.17 2.5 3.74l3.47 5.16c.85 1.27 2.54 3.8 3.76 5.61 1.21 1.82 2.25 3.33 2.3 3.34.06.01.08.07.05.13s0 .11.08.11c.07-.01.21-.11.3-.24.1-.13.75-1.1 1.46-2.16s1.86-2.76 2.55-3.79 1.85-2.75 2.58-3.82c.73-1.08 1.49-2.22 1.7-2.53.2-.32.95-1.43 1.65-2.47.7-1.03 2.04-3.02 2.98-4.41.94-1.4 2.54-3.78 3.55-5.3 1.02-1.52 2.17-3.22 2.55-3.78.38-.55 1.72-2.55 2.98-4.42 1.26-1.88 2.97-4.43 3.79-5.66.83-1.23 2.17-3.23 2.98-4.43s1.98-2.93 2.59-3.84c.62-.91 1.91-2.83 2.88-4.27.96-1.44 2.38-3.55 3.15-4.7.77-1.14 2.26-3.35 3.3-4.91 1.05-1.55 2.31-3.42 2.8-4.16.5-.73 1.94-2.87 3.2-4.75s2.8-4.18 3.44-5.12c.63-.94 1.9-2.84 2.83-4.22.93-1.37 2.25-3.34 2.95-4.37.69-1.03 2.1-3.12 3.12-4.64 1.03-1.53 2.39-3.55 3.02-4.49.64-.94 1.7-2.52 2.37-3.52s1.75-2.6 2.4-3.57c.66-.97 2.27-3.37 3.6-5.34 1.32-1.97 2.91-4.34 3.53-5.28.63-.94 1.19-1.82 1.26-1.95.09-.18.12-6.01.12-22.49V43.12c-.37-.08-34.24-.11-75.5-.11-50.75.01-75.09.04-75.23.11"
     class="shp1"
     id="path2" />
  <path
     d="M3.47 46.8c-.04.09-.06 8.33-.06 18.33 0 9.99.03 18.23.08 18.3.06.1 15.04.13 72.01.13 68.42 0 71.94 0 72.07-.18.11-.15.13-3.85.13-18.31 0-9.96-.02-18.18-.05-18.27-.05-.14-8.15-.16-72.09-.16-63.93 0-72.04.02-72.09.16"
     class="shp2"
     id="path3" />
  <path
     d="M27.56 57.53c-.2.05-.52.2-.71.34-.19.13-.42.4-.51.59-.14.3-.16 1.2-.16 7.01 0 6.02.02 6.71.17 7.02.1.19.23.4.3.46.06.06.26.2.43.32.26.17.51.21 1.33.21.76 0 1.1-.05 1.36-.19.19-.1.48-.36.64-.58l.29-.39c.06-12.22.04-13.31-.1-13.68-.08-.23-.3-.55-.48-.72-.18-.16-.5-.34-.72-.4-.22-.05-.64-.1-.93-.09-.3 0-.7.05-.91.1m15.22.41c-.09.15-.12 1.05-.12 3.15.01 1.62.04 3.02.06 3.1.05.14.3.16 1.41.16.92 0 1.5-.06 1.79-.16.23-.09.51-.24.62-.34.11-.11.29-.39.4-.64.17-.39.2-.72.2-2.24-.01-1.63-.03-1.83-.24-2.27-.13-.26-.37-.57-.54-.69-.26-.19-.48-.22-1.88-.25-1.48-.04-1.58-.03-1.7.18m31.28 1.29c-.07.27-.17.72-.22 1.02-.05.29-.16.91-.25 1.38s-.24 1.26-.33 1.76c-.1.5-.21 1.13-.27 1.39-.05.27-.16.87-.25 1.34-.09.46-.24 1.23-.32 1.7-.09.47-.19 1.04-.24 1.26l-.09.4h4.21c-.01-.46-.07-.95-.15-1.39-.09-.44-.23-1.21-.32-1.71-.1-.5-.22-1.15-.27-1.44-.06-.29-.18-.94-.28-1.44-.09-.5-.24-1.27-.32-1.71-.09-.44-.2-1.04-.25-1.33-.06-.29-.15-.75-.21-1.01-.06-.27-.16-.53-.22-.59-.06-.07-.14.06-.22.37m60.92-.08c-.03.13-.1.48-.15.78-.05.29-.17.94-.27 1.44-.09.49-.22 1.14-.27 1.44-.06.29-.18.89-.26 1.33-.09.44-.21 1.09-.27 1.44s-.16.86-.21 1.12c-.06.27-.18.83-.27 1.26-.09.42-.16.94-.16 1.14v.38c3.73 0 4.05-.03 4.1-.16.03-.09.01-.44-.05-.78-.06-.33-.15-.83-.21-1.09-.05-.26-.18-.91-.27-1.44-.1-.53-.22-1.18-.27-1.44-.06-.27-.25-1.25-.42-2.19-.18-.94-.38-2-.44-2.35s-.16-.75-.21-.88c-.06-.13-.15-.24-.2-.24-.06 0-.13.11-.17.24M38.81 85.99c-27.89.02-34.98.06-34.98.16-.01.08.39.74.88 1.47s2.22 3.33 3.86 5.76c1.63 2.44 3.7 5.54 4.61 6.89.9 1.35 2.99 4.47 4.64 6.93 1.65 2.47 3.76 5.61 4.69 6.99.92 1.38 2.84 4.24 4.25 6.35 1.42 2.12 3.62 5.41 4.9 7.31 1.27 1.91 3.24 4.84 4.36 6.51 1.12 1.68 3.02 4.51 4.22 6.3l4.83 7.21c1.45 2.17 3.48 5.19 4.5 6.72s3.18 4.74 4.79 7.15 3.7 5.53 4.65 6.94c.94 1.41 2.71 4.05 3.93 5.87s3.35 4.99 4.72 7.04c1.38 2.05 3.53 5.27 4.79 7.15s2.42 3.6 2.57 3.82.34.4.43.4c.08-.01.59-.64 1.11-1.42.53-.77 1.63-2.39 2.44-3.6.81-1.2 1.92-2.84 2.46-3.63s1.64-2.42 2.45-3.63c.81-1.2 1.93-2.86 2.48-3.68.56-.82 1.74-2.57 2.62-3.89.89-1.33 2.17-3.22 2.84-4.22.68-1 2.02-2.99 2.98-4.43.97-1.44 2.66-3.96 3.76-5.6 1.11-1.65 2.4-3.57 2.88-4.27.47-.71 2-2.99 3.4-5.07 1.39-2.08 3.12-4.65 3.83-5.71s2.34-3.48 3.62-5.39 3.14-4.69 4.15-6.19c1-1.5 2.76-4.11 3.9-5.82l4.29-6.4c1.22-1.82 3.39-5.06 4.83-7.2 1.43-2.15 4.07-6.08 5.85-8.75 1.79-2.68 5.09-7.62 7.34-11 2.24-3.37 4.2-6.33 4.34-6.56l.25-.43c-.37-.12-16.9-.14-36.97-.13-20.08.01-52.25.04-71.49.05"
     class="shp2"
     id="path5" />
  <path
     d="m104.02 90.5-25.75.05c-.04 71.18-.01 90.34.04 90.4.06.07.25-.11.51-.48.23-.32 1.31-1.91 2.39-3.52 1.08-1.62 2.81-4.19 3.83-5.71 1.03-1.53 2.58-3.83 3.44-5.12.87-1.3 2.37-3.53 3.34-4.97.96-1.44 2.34-3.48 3.05-4.53.71-1.06 2.05-3.05 2.98-4.43.92-1.38 2.57-3.83 3.65-5.45 1.08-1.61 2.61-3.89 3.4-5.06.79-1.18 2.07-3.08 2.84-4.22s2.15-3.19 3.05-4.54c.91-1.35 2.51-3.72 3.55-5.28 1.04-1.55 2.58-3.84 3.41-5.07s2.25-3.34 3.15-4.69c.91-1.35 2.35-3.49 3.19-4.75.85-1.27 2.4-3.57 3.45-5.13 1.04-1.55 2.59-3.86 3.44-5.12s2.17-3.23 2.94-4.37c.77-1.15 2.25-3.35 3.28-4.89 1.04-1.54 1.88-2.87 1.88-2.96s-.07-.18-.16-.21-2.18-.04-4.65-.03c-2.48.02-16.09.05-30.25.08"
     style="fill:#f32b09"
     id="path6" />
  <path
     d="M11.92 90.64c0 .07.28.54.62 1.04.34.49 1.66 2.46 2.94 4.37s2.81 4.19 3.41 5.07c.59.88 1.89 2.8 2.87 4.27.99 1.47 2.42 3.6 3.19 4.75.77 1.14 2.31 3.42 3.41 5.07 1.1 1.64 2.39 3.56 2.87 4.27.48.7 1.77 2.62 2.87 4.27 1.11 1.64 2.54 3.78 3.2 4.75.65.96 2.04 3.03 3.08 4.58 1.05 1.56 2.48 3.7 3.19 4.75.72 1.06 2.04 3.03 2.95 4.38s2.3 3.41 3.09 4.59c.79 1.17 2.33 3.48 3.44 5.12 1.1 1.64 2.39 3.57 2.87 4.27s1.82 2.7 2.98 4.43l3.08 4.59c.54.79 1.93 2.86 3.09 4.59s2.55 3.79 3.09 4.59c.53.79 1.76 2.6 2.72 4.03s1.79 2.57 1.85 2.55c.07-.02.12-15.15.14-45.01.01-24.74 0-45.09-.03-45.22l-.05-.24c-54.71 0-60.87.03-60.87.14"
     class="shp1"
     id="path7" />
</svg>
