<?xml version="1.0" encoding="UTF-8" standalone="no"?>
<svg
   xml:space="preserve"
   width="500"
   height="596.05"
   version="1.0"
   id="svg10"
   sodipodi:docname="gremio.svg"
   inkscape:version="1.4.2 (f4327f4, 2025-05-13)"
   xmlns:inkscape="http://www.inkscape.org/namespaces/inkscape"
   xmlns:sodipodi="http://sodipodi.sourceforge.net/DTD/sodipodi-0.dtd"
   xmlns="http://www.w3.org/2000/svg"
   xmlns:svg="http://www.w3.org/2000/svg"><defs
     id="defs10" /><sodipodi:namedview
     id="namedview10"
     pagecolor="#ffffff"
     bordercolor="#000000"
     borderopacity="0.25"
     inkscape:showpageshadow="2"
     inkscape:pageopacity="0.0"
     inkscape:pagecheckerboard="0"
     inkscape:deskcolor="#d1d1d1"
     inkscape:zoom="1.3539133"
     inkscape:cx="250.01601"
     inkscape:cy="298.02499"
     inkscape:window-width="1920"
     inkscape:window-height="1009"
     inkscape:window-x="-8"
     inkscape:window-y="-8"
     inkscape:window-maximized="1"
     inkscape:current-layer="svg10" /><path
     d="M19568 16610c0 4991-4046 9037-9037 9037s-9037-4046-9037-9037 4046-9037 9037-9037 9037 4046 9037 9037"
     style="fill:#1f1a17"
     transform="matrix(.02766 0 0 .02766 -41.33 -113.45)"
     id="path1" /><path
     d="M19152 16610c0 4761-3860 8621-8621 8621s-8621-3860-8621-8621c0-4762 3860-8621 8621-8621s8621 3859 8621 8621"
     style="fill:#fff"
     transform="matrix(.02766 0 0 .02766 -41.33 -113.45)"
     id="path2" /><path
     d="M8079 24367c774 244 1597 377 2452 377 854 0 1678-133 2451-377-692-534-1538-850-2451-850-914 0-1760 316-2452 850M12982 8852c-773-244-1597-376-2451-376-855 0-1678 132-2452 376 692 535 1538 851 2452 851 913 0 1759-316 2451-851M13651 13419c1193-438 2267-1117 3160-1979-894-1085-2064-1932-3402-2439-450 387-968 685-1532 871 912 661 1586 1972 1774 3547M9184 9872c-563-186-1082-484-1531-871-1338 507-2508 1354-3402 2439 892 862 1967 1541 3159 1979 189-1575 863-2886 1774-3547M7410 19800c-1192 438-2267 1118-3159 1980 894 1084 2064 1932 3402 2438 449-387 968-685 1531-871-911-661-1585-1972-1774-3547M13651 19800c-188 1575-862 2886-1774 3547 564 186 1082 484 1532 871 1338-506 2508-1354 3402-2438-893-862-1967-1542-3160-1980"
     style="fill:#0d80bf"
     transform="matrix(.02766 0 0 .02766 -41.33 -113.45)"
     id="path3" /><path
     d="M17050 21476c1014-1357 1615-3042 1615-4866 0-1825-601-3509-1615-4866-1687 1616-3987 2614-6519 2614-2533 0-4832-998-6519-2614-1014 1357-1615 3041-1615 4866 0 1824 601 3509 1615 4866 1687-1616 3986-2615 6519-2615 2532 0 4832 999 6519 2615"
     style="fill:#1f1a17"
     transform="matrix(.02766 0 0 .02766 -41.33 -113.45)"
     id="path4" /><path
     d="m 11999,12425 c 89,-29 170,-121 170,-268 0,-89 -24,-162 -81,-219 -57,-57 -130,-81 -235,-81 -210,0 -285,120 -349,203 l 146,97 c 64,-81 131,-105 171,-105 72,0 137,60 137,137 0,57 -20,95 -56,130 -30,28 -74,49 -138,49 h -57 v 170 h 81 c 65,0 115,15 146,57 25,34 49,74 49,154 0,152 -90,178 -155,178 -42,0 -72,-4 -97,-24 -31,-25 -57,-65 -73,-105 l -186,73 c 24,81 65,146 130,186 56,41 137,65 235,65 105,0 194,-32 259,-97 65,-73 98,-162 98,-284 0,-89 -30,-264 -195,-316 m -1582,-33 c 0,235 -40,422 -113,544 -57,97 -138,161 -244,186 -26,6 -61,8 -89,8 -66,0 -122,-17 -194,-65 l 73,-162 c 38,18 88,33 129,33 50,0 97,-24 138,-73 41,-49 65,-130 81,-236 -45,37 -73,73 -178,73 -89,0 -162,-32 -219,-105 -57,-73 -81,-170 -81,-292 0,-146 32,-251 89,-324 57,-73 146,-114 251,-122 h 9 c 121,0 210,49 267,138 57,89 81,219 81,397 m -357,122 c 52,0 81,-27 98,-65 18,-40 24,-97 24,-170 0,-73 -6,-134 -24,-171 -22,-42 -57,-56 -98,-56 -33,0 -71,19 -89,56 -22,48 -32,113 -32,171 0,117 34,235 121,235 m -1176,-535 v 162 l 219,-65 v 827 h -235 v 187 h 665 v -187 h -219 v -1022 z"
     style="fill:#1f1a17"
     transform="matrix(0.02766,0,0,0.02766,-41.33,-113.45)"
     id="path5"
     sodipodi:nodetypes="csssccsscsccscssccccscsccccsccsscsssscsscccscscscccccccccccc" /><path
     d="m10531 4101 360 1108h1164l-942 684 360 1107-942-684-942 684 360-1107-942-684h1164z"
     style="fill:#abaaaa"
     transform="matrix(.02766 0 0 .02766 -41.33 -113.45)"
     id="path7" /><path
     d="m5861 4906 360 1107h1164l-942 685 360 1107-942-684-942 684 360-1107-942-685h1165z"
     style="fill:#93754f"
     transform="matrix(.02766 0 0 .02766 -41.33 -113.45)"
     id="path8" /><path
     d="m15200 4906 360 1107h1164l-941 685 359 1107-942-684-941 684 359-1107-941-685h1164z"
     style="fill:#f8c300"
     transform="matrix(.02766 0 0 .02766 -41.33 -113.45)"
     id="path9" /><path
     d="m 10693,12027 c -65,106 -97,268 -97,471 0,202 32,356 97,462 65,105 154,162 276,162 122,0 211,-57 276,-162 64,-106 97,-260 97,-462 0,-203 -33,-365 -97,-471 -65,-113 -154,-170 -276,-170 -122,0 -211,57 -276,170 m 422,471 c 0,150 -8,271 -33,336 -24,62 -57,93 -113,93 -57,0 -90,-31 -114,-93 -24,-65 -32,-186 -32,-336 0,-157 8,-282 32,-349 24,-65 57,-97 114,-97 57,0 90,32 113,97 25,67 33,192 33,349"
     style="fill:#1f1a17"
     transform="matrix(0.02766,0,0,0.02766,-41.33,-113.45)"
     id="path10"
     sodipodi:nodetypes="cscscscscccscscscc" /></svg>
