<?xml version="1.0" encoding="UTF-8" standalone="no"?>
<svg
   xml:space="preserve"
   id="svg2"
   x="0"
   y="0"
   version="1.0"
   viewBox="113.16 80.86 998.08 998.08"
   sodipodi:docname="internacional.svg"
   inkscape:version="1.4.2 (f4327f4, 2025-05-13)"
   xmlns:inkscape="http://www.inkscape.org/namespaces/inkscape"
   xmlns:sodipodi="http://sodipodi.sourceforge.net/DTD/sodipodi-0.dtd"
   xmlns="http://www.w3.org/2000/svg"
   xmlns:svg="http://www.w3.org/2000/svg"><defs
     id="defs21" /><sodipodi:namedview
     id="namedview21"
     pagecolor="#ffffff"
     bordercolor="#000000"
     borderopacity="0.25"
     inkscape:showpageshadow="2"
     inkscape:pageopacity="0.0"
     inkscape:pagecheckerboard="0"
     inkscape:deskcolor="#d1d1d1"
     inkscape:zoom="0.80855241"
     inkscape:cx="499.04001"
     inkscape:cy="499.04001"
     inkscape:window-width="1920"
     inkscape:window-height="1009"
     inkscape:window-x="-8"
     inkscape:window-y="-8"
     inkscape:window-maximized="1"
     inkscape:current-layer="g3460" /><style
     id="style1">.st2{fill:#e5050f}.st3{fill-rule:evenodd;clip-rule:evenodd;fill:#fff}.st4{enable-background:new}</style><g
     id="layer1"><g
       id="g3460"><g
         id="g3313"><path
           id="path3294"
           d="M1104.2 579.9c0 271.7-220.3 492-492 492s-492-220.3-492-492 220.3-492 492-492 492 220.3 492 492z"
           style="fill:#fff;stroke:#e5050f;stroke-width:14.0764;stroke-miterlimit:4.6921" /><g
           id="g3296"
           transform="translate(1259.98)"><path
             id="path3278"
             d="M-252.9 579.3c0 216.7-175.7 392.4-392.4 392.4s-392.4-175.7-392.4-392.4S-862 186.9-645.3 186.9s392.4 175.7 392.4 392.4z"
             style="fill:#fff;stroke:#e5050f;stroke-width:11.2266;stroke-miterlimit:3.7422" /><path
             id="path2416"
             d="M-269 579.1c0 208-168.6 376.6-376.6 376.7-208 0-376.6-168.6-376.7-376.6v-.1c0-208 168.6-376.6 376.6-376.7S-269 371-269 579z"
             class="st2" /><g
             id="g3246"
             transform="translate(220.968 51.613)"><path
               id="path3188"
               d="M-714.4 431.8c2.2-17.3 9.5-33 18.1-48.2l24.9 11.2 22.5-30.5 22.5 6.8c.3 40.1-.8 81.5 14.1 109.2l-11.2 14.1c-25.6-24-52.8-47-90.9-62.6"
               class="st3" /><path
               id="path3190"
               d="M-756.3 473.4c-49.8-.2-13.7-58.5-6.4-80.7 6.5-20-3.4-60.3-41.5-74.6v-51.2c75.1 21.8 83.5 71.8 126.7 48.8V341c-67.4 69.2-37.9 132-78.8 132.4"
               class="st3" /><path
               id="path3192"
               d="M-956.8 361.9c73.8-18.7 129.2-12.8 181.1-2.3 7.5 21.8 1 36.6-6 51.2-50.8-8.3-105.1-10.4-170.5 6.9-11-16.8-11.9-35.5-4.6-55.8"
               class="st3" /><path
               id="path3194"
               d="M-913 318c-88.5 15-68.6 119.9 0 148.2v91.5c-194.5-56.1-159.3-267.6 0-289z"
               class="st3" /><path
               id="path3196"
               d="M-817.3 646.7c-26.3 3.6-53.7 2.9-81.7 0V418c27.2-2.8 54.5-3.7 81.7 0z"
               class="st3" /><path
               id="path3202"
               d="M-1185.6 532.6c47.4-22.9 57.8-73.2 126.8-123.8 2 23.5 4.7 46.4 14.6 63.4-29.2 42.2-27.3 82.4 16.5 131.1-10.2 23.3-22.6 40.1-36 53.7-61.5-36.6-75.7-84.2-121.9-124.4"
               class="st3" /><path
               id="path3204"
               d="M-965.4 701.5c17.5-19.4 22.4-33.7 29.9-49 46.6 9.8 100.8 13.8 182.2-2.8 8.5 17 5.3 33 2.4 49-48.2 17.3-138.1 21.4-214.5 2.8"
               class="st3" /><path
               id="path3206"
               d="m-1099.8 693.9 6 25.9 35.9 2.4c41.4 29.3 85.6 56.8 145.9 74.6v-50.6c-32.7-5.6-53.7-22-69.4-43.5 46.4-50 55.9-112.7 26.5-125.5-39.1-17-56.6 23-78.9 59.1-14.5 23.6-35.5 47-66 57.6"
               class="st3" /><path
               id="path3208"
               d="M-817.1 265.6c.2-38.7 29.9-34 43.9-20.1-2-48.6-41.4-54.3-60.3-36.8-5.6-9.2-12.8-16.2-24.4-21.9-10.3 4.9-18.6 12.1-24.9 21.4-17.8-16.3-58.5-12.3-60.3 36.6 15-13 43.3-17.5 43.3 21l.2 74.1c26.5-2 54-2.2 82.5-.2z"
               class="st3" /><path
               id="path3216"
               d="M-817 798.6c.2 38.7 29.9 34 43.9 20.1-2 48.6-41.4 54.3-60.3 36.8-5.6 9.2-12.8 16.2-24.4 21.9-10.3-4.9-18.6-12.1-24.9-21.4-17.8 16.3-58.5 12.3-60.3-36.6 15 13 43.3 17.5 43.3-21l.2-74.1c26.5 2 54 2.2 82.5.2z"
               class="st3" /><path
               id="path3218"
               d="M-805 503v87.6c100.2 33.3 84.3 158.1 1.3 155.1v50.4c107.4-10.6 149-77.3 149.6-142.2.8-74.3-58-127-150.9-150.9"
               class="st3" /><path
               id="path3222"
               d="M-643 650.8c.1-11.4 1.1-21.6-6.4-44l23.1-15.4 26.1 21.4c-10.3 15.4-25.8 27.2-42.8 38"
               class="st3" /></g></g></g><g
         class="st4"
         id="g18"><path
           d="m480.8 990.6-9.1-.3.1-11.6 16-.3 10.2 2.7-13.3 51.2-13.9-3.6z"
           class="st2"
           id="path18" /></g><g
         class="st4"
         id="g19"><path
           d="M565.8 1049.2c-3.9-.5-7.2-1.6-9.9-3.1-2.8-1.5-5.2-3.4-7.3-5.6l8.2-9c1.6 1.7 3.2 3 4.9 3.9q2.55 1.35 5.7 1.8c3 .4 5.4-.2 7.3-1.9s3.2-4.2 4-7.5c-1.5 1.1-3.3 1.9-5.2 2.4s-4.1.6-6.4.3c-2.5-.4-4.8-1.1-6.8-2.1-2-1.1-3.7-2.4-5.1-4s-2.3-3.5-2.9-5.7-.7-4.5-.3-7v-.1c.4-2.9 1.3-5.4 2.7-7.6s3.1-4 5.2-5.4 4.5-2.4 7.1-2.9c2.7-.5 5.5-.6 8.4-.2 3.8.5 6.8 1.5 9.1 2.9s4.3 3.2 6 5.5c1.6 2.1 2.8 4.8 3.5 8.1.7 3.2.7 7.2 0 12.1v.1c-.6 4.3-1.7 8.1-3.2 11.4-1.5 3.4-3.5 6.2-5.9 8.4s-5.1 3.8-8.3 4.8c-3.3.7-6.9.9-10.8.4m6.6-28.6q3.45.45 5.7-1.2c1.5-1.1 2.4-2.7 2.6-4.5v-.1c.3-2-.1-3.8-1.3-5.4-1.2-1.5-2.9-2.5-5.2-2.8q-3.45-.45-5.7 1.2c-1.5 1.1-2.4 2.7-2.6 4.8v.1c-.3 2 .2 3.7 1.3 5.2s2.9 2.4 5.2 2.7"
           class="st2"
           id="path19" /></g><g
         class="st4"
         id="g20"><path
           d="M661.4 1049.2c-3.7.5-7.2.3-10.3-.8-3.2-1-5.9-2.6-8.3-4.8s-4.4-4.8-5.9-7.9c-1.6-3.1-2.6-6.5-3.1-10.2v-.1c-.5-3.7-.4-7.2.3-10.7.7-3.4 1.9-6.5 3.7-9.3 1.7-2.7 4-5 6.8-6.9 2.8-1.8 6-3 9.7-3.5s7.1-.2 10.3.8c3.1 1 5.9 2.6 8.3 4.8s4.4 4.8 6 7.9 2.6 6.5 3.1 10.2v.1c.5 3.7.4 7.2-.3 10.7s-1.9 6.5-3.7 9.3c-1.8 2.7-4.1 5-6.8 6.9-2.8 1.8-6.1 3-9.8 3.5m-1.6-12.8c1.4-.2 2.7-.7 3.8-1.6s2-2 2.6-3.3 1.1-2.9 1.3-4.7.2-3.7-.1-5.8v-.1c-.3-2.1-.8-4-1.5-5.6-.7-1.7-1.6-3.1-2.6-4.2-1-1.2-2.2-2-3.5-2.6s-2.6-.7-4.1-.5c-1.4.2-2.7.7-3.8 1.6s-1.9 2-2.6 3.3c-.7 1.4-1.1 2.9-1.3 4.7s-.2 3.7.1 5.8v.1q.45 3.15 1.5 5.7c.7 1.7 1.6 3.1 2.6 4.3 1 1.1 2.2 2 3.4 2.5 1.4.4 2.8.6 4.2.4"
           class="st2"
           id="path20" /></g><g
         class="st4"
         id="g21"><path
           d="M741.1 1033.3c-3.8.7-7.3.8-10.4.2s-6-1.6-8.7-3.1l4.9-11.1c2 1.1 4 1.8 5.9 2.2 1.9.3 3.9.3 5.9-.1 3-.5 5.1-1.9 6.3-4.1 1.3-2.2 1.7-5 1.5-8.4q-1.65 2.25-4.2 3.9c-1.7 1.1-3.7 1.9-6 2.3-2.5.5-4.9.5-7.2.1s-4.3-1.1-6.1-2.2-3.3-2.6-4.6-4.5c-1.2-1.9-2.1-4-2.5-6.6v-.1c-.5-2.9-.5-5.5.1-8s1.7-4.7 3.2-6.7 3.5-3.6 5.8-5c2.3-1.3 5-2.3 8-2.8 3.7-.7 6.9-.7 9.5-.1s5.1 1.7 7.4 3.3c2.2 1.5 4.2 3.7 5.8 6.6 1.7 2.8 3 6.7 3.8 11.4v.1c.8 4.2 1 8.2.6 11.9s-1.4 6.9-2.9 9.8c-1.6 2.8-3.7 5.2-6.4 7.2-2.5 1.7-5.8 3-9.7 3.8m-2.8-29.2c2.3-.4 3.9-1.4 5-2.9 1-1.5 1.4-3.3 1.1-5.1v-.1c-.4-2-1.3-3.6-2.9-4.7s-3.5-1.4-5.8-1-3.9 1.4-5 2.9c-1 1.5-1.4 3.3-1 5.4v.1c.4 2 1.3 3.5 2.9 4.5 1.5 1 3.5 1.3 5.7.9"
           class="st2"
           id="path21" /></g></g></g></svg>
