<?xml version="1.0" encoding="UTF-8" standalone="no"?>
<svg
   xml:space="preserve"
   width="430"
   height="501"
   viewBox="-0.841 -0.378 430 501"
   version="1.1"
   id="svg6"
   sodipodi:docname="vitoria.svg"
   inkscape:version="1.4.2 (f4327f4, 2025-05-13)"
   xmlns:inkscape="http://www.inkscape.org/namespaces/inkscape"
   xmlns:sodipodi="http://sodipodi.sourceforge.net/DTD/sodipodi-0.dtd"
   xmlns="http://www.w3.org/2000/svg"
   xmlns:svg="http://www.w3.org/2000/svg"><defs
     id="defs6" /><sodipodi:namedview
     id="namedview6"
     pagecolor="#ffffff"
     bordercolor="#000000"
     borderopacity="0.25"
     inkscape:showpageshadow="2"
     inkscape:pageopacity="0.0"
     inkscape:pagecheckerboard="0"
     inkscape:deskcolor="#d1d1d1"
     inkscape:zoom="1.6107784"
     inkscape:cx="215.11338"
     inkscape:cy="250.5"
     inkscape:window-width="1920"
     inkscape:window-height="1009"
     inkscape:window-x="-8"
     inkscape:window-y="-8"
     inkscape:window-maximized="1"
     inkscape:current-layer="svg6" /><path
     fill-rule="evenodd"
     d="M192.094 24.092c-48.087 52.174-103.672 83.053-165.21 91.78l-24.397 3.459-1.732 24.578c-2.82 39.993 2.29 82.52 14.775 122.985l.203.689c30.082 97.443 97.508 179.452 184.98 224.984l14.31 7.433 14.286-7.417c87.508-45.554 154.935-127.562 185.014-225.021l.26-.846.025-.183c11.783-39.922 16.507-82.326 13.657-122.629l-1.738-24.573-24.39-3.458c-61.34-8.7-115.446-38.792-165.405-91.99L214.3 0z"
     clip-rule="evenodd"
     id="path1" /><path
     fill="#FFF"
     fill-rule="evenodd"
     d="M200.716 32.04C150.748 86.25 92.816 118.362 28.53 127.48l-15.012 2.128-1.068 15.126c-2.717 38.562 2.22 79.606 14.284 118.698l.201.683c29.167 94.48 94.482 173.956 179.191 218.048l8.899 4.625 8.883-4.614c84.735-44.103 150.051-123.585 179.212-218.069l.24-.783.003-.11c11.391-38.59 15.959-79.563 13.208-118.483l-1.07-15.12-15.01-2.129c-64.083-9.09-120.447-40.352-172.306-95.57l-13.802-14.699z"
     clip-rule="evenodd"
     id="path2" /><path
     fill-rule="evenodd"
     d="M384.7 257.905H44.65l.206.668c27.702 89.729 89.64 165.16 169.931 206.955l.238.12.239-.12c80.301-41.8 142.24-117.231 169.93-206.955l.207-.668z"
     clip-rule="evenodd"
     id="path3" /><path
     fill="#F10"
     fill-rule="evenodd"
     d="M385.205 258.49c11.141-37.48 15.194-76.48 12.652-112.437-67.86-9.625-128.643-43.053-183.347-101.3C160.822 103 99.029 136.427 31.164 146.052c-2.536 35.957 2.024 74.957 13.669 112.436z"
     clip-rule="evenodd"
     id="path4" /></svg>
