<?xml version="1.0" encoding="UTF-8" standalone="no"?>
<svg
   width="312.106"
   height="320.404"
   viewBox="0 0 782.54 803.39"
   version="1.1"
   id="svg8"
   sodipodi:docname="aldosivi.svg"
   inkscape:version="1.4.2 (f4327f4, 2025-05-13)"
   xmlns:inkscape="http://www.inkscape.org/namespaces/inkscape"
   xmlns:sodipodi="http://sodipodi.sourceforge.net/DTD/sodipodi-0.dtd"
   xmlns="http://www.w3.org/2000/svg"
   xmlns:svg="http://www.w3.org/2000/svg">
  <defs
     id="defs8" />
  <sodipodi:namedview
     id="namedview8"
     pagecolor="#ffffff"
     bordercolor="#000000"
     borderopacity="0.25"
     inkscape:showpageshadow="2"
     inkscape:pageopacity="0.0"
     inkscape:pagecheckerboard="0"
     inkscape:deskcolor="#d1d1d1"
     inkscape:zoom="1.2593476"
     inkscape:cx="-137.76975"
     inkscape:cy="261.64341"
     inkscape:window-width="1920"
     inkscape:window-height="1009"
     inkscape:window-x="-8"
     inkscape:window-y="-8"
     inkscape:window-maximized="1"
     inkscape:current-layer="g4" />
  <clipPath
     id="a">
    <path
       d="M0 0h782.54v803.39H0zm0 0"
       id="path1" />
  </clipPath>
  <g
     fill="#f3db26"
     id="g4">
    <path
       d="m 679.313,632.277 c 0.027,-0.027 0.058,-0.058 0.082,-0.086 2.05193,-2.26103 4.07411,-4.5489 6.066,-6.863 0.043,-0.047 0.086,-0.101 0.129,-0.152 1.97326,-2.2932 3.9161,-4.6124 5.828,-6.957 0.059,-0.078 0.125,-0.157 0.184,-0.235 1.89019,-2.32336 3.74836,-4.67258 5.574,-7.047 0.082,-0.101 0.16,-0.21 0.242,-0.312 1.91283,-2.49292 3.792,-5.01148 5.637,-7.555 1.70529,-2.359 3.38109,-4.73919 5.027,-7.14 0.133,-0.188 0.262,-0.383 0.39,-0.575 1.61747,-2.36426 3.20361,-4.7498 4.758,-7.156 0.16,-0.238 0.305,-0.484 0.461,-0.726 1.52083,-2.36566 3.01426,-4.74882 4.48,-7.149 0.18,-0.3 0.356,-0.61 0.532,-0.906 1.42687,-2.35537 2.82299,-4.72924 4.188,-7.121 0.203,-0.36 0.398,-0.715 0.597,-1.074 1.33595,-2.34465 2.63842,-4.70822 3.907,-7.09 0.226,-0.422 0.44,-0.852 0.664,-1.27 1.23395,-2.32903 2.44236,-4.6715 3.625,-7.027 0.242,-0.496 0.472,-0.992 0.714,-1.484 1.14063,-2.30543 2.25537,-4.62357 3.344,-6.954 0.258,-0.57 0.504,-1.136 0.766,-1.703 1.04556,-2.27488 2.06496,-4.5617 3.058,-6.86 0.278,-0.647 0.54,-1.3 0.813,-1.944 0.94948,-2.24067 1.87653,-4.49079 2.781,-6.75 0.285,-0.72 0.555,-1.45 0.832,-2.172 0.8694,-2.20206 1.70948,-4.41559 2.52,-6.64 0.297,-0.806 0.574,-1.626 0.86,-2.434 0.769,-2.16 1.53,-4.32 2.253,-6.5 0.3,-0.899 0.574,-1.81 0.871,-2.711 0.68,-2.11 1.356,-4.215 1.996,-6.336 0.301,-0.993 0.57,-1.993 0.86,-2.989 0.597,-2.05 1.195,-4.105 1.757,-6.168 0.29,-1.082 0.555,-2.187 0.836,-3.277 0.516,-1.992 1.04,-3.984 1.52,-5.996 0.281,-1.176 0.535,-2.371 0.805,-3.559 0.437,-1.933 0.886,-3.867 1.293,-5.816 0.265,-1.277 0.5,-2.57 0.75,-3.855 0.367,-1.872 0.746,-3.735 1.082,-5.614 0.25,-1.39 0.457,-2.793 0.687,-4.18 0.297,-1.792 0.61,-3.593 0.879,-5.394 0.223,-1.504 0.402,-3.02 0.605,-4.531 0.235,-1.707 0.48,-3.414 0.684,-5.133 0.191,-1.633 0.344,-3.273 0.512,-4.918 0.164,-1.61 0.355,-3.215 0.5,-4.84 0.156,-1.781 0.265,-3.582 0.398,-5.379 0.11,-1.484 0.238,-2.96 0.328,-4.453 0.121,-2.082 0.196,-4.176 0.282,-6.262 0.046,-1.218 0.12,-2.43 0.156,-3.656 0.097,-3.32 0.148,-6.644 0.148,-9.988 0,-3.34 -0.05,-6.676 -0.148,-9.992 -0.035,-1.22 -0.11,-2.43 -0.156,-3.649 -0.086,-2.094 -0.16,-4.187 -0.282,-6.265 -0.09,-1.493 -0.218,-2.973 -0.328,-4.454 -0.129,-1.793 -0.242,-3.597 -0.398,-5.386 -0.145,-1.621 -0.336,-3.223 -0.5,-4.836 -0.168,-1.645 -0.32,-3.29 -0.512,-4.922 -0.203,-1.719 -0.453,-3.426 -0.684,-5.14 -0.203,-1.505 -0.382,-3.016 -0.605,-4.52 -0.27,-1.805 -0.582,-3.598 -0.879,-5.395 -0.23,-1.394 -0.437,-2.793 -0.687,-4.18 -0.336,-1.878 -0.715,-3.746 -1.082,-5.617 -0.25,-1.28 -0.485,-2.574 -0.75,-3.851 -0.407,-1.953 -0.856,-3.89 -1.297,-5.828 -0.27,-1.184 -0.52,-2.371 -0.801,-3.551 -0.48,-2.016 -1.004,-4.012 -1.528,-6.016 -0.273,-1.078 -0.539,-2.172 -0.828,-3.254 -0.56823,-2.07068 -1.15659,-4.13577 -1.765,-6.195 -0.285,-0.984 -0.551,-1.977 -0.852,-2.965 -0.64,-2.129 -1.32,-4.25 -2.008,-6.36 -0.289,-0.894 -0.558,-1.796 -0.855,-2.69 -0.7316,-2.18331 -1.48832,-4.35812 -2.27,-6.524 -0.28,-0.797 -0.55,-1.605 -0.843,-2.406 -0.813,-2.23 -1.664,-4.45 -2.528,-6.66 -0.277,-0.715 -0.547,-1.438 -0.828,-2.149 -0.90443,-2.26986 -1.8355,-4.52901 -2.793,-6.777 -0.265,-0.64 -0.523,-1.281 -0.8,-1.918 -0.99704,-2.31203 -2.02211,-4.61187 -3.075,-6.899 -0.258,-0.554 -0.496,-1.109 -0.75,-1.664 -1.09074,-2.34381 -2.20915,-4.67464 -3.355,-6.992 -0.242,-0.48 -0.465,-0.965 -0.703,-1.441 -1.18703,-2.37231 -2.40212,-4.73047 -3.645,-7.074 -0.215,-0.403 -0.422,-0.813 -0.637,-1.223 -1.2817,-2.39974 -2.59414,-4.78294 -3.937,-7.149 -0.192,-0.332 -0.371,-0.675 -0.567,-1.011 -1.38015,-2.41186 -2.78757,-4.80802 -4.222,-7.188 -0.168,-0.273 -0.332,-0.558 -0.5,-0.832 -1.47406,-2.42591 -2.97817,-4.83343 -4.512,-7.222 -0.144,-0.22 -0.277,-0.438 -0.422,-0.657 -1.57111,-2.42641 -3.17122,-4.83392 -4.8,-7.222 -0.11733,-0.16933 -0.232,-0.33867 -0.344,-0.508 -1.6641,-2.42422 -3.35957,-4.82676 -5.086,-7.207 -0.094,-0.13 -0.176,-0.254 -0.27,-0.375 -1.7566,-2.41639 -3.54441,-4.80992 -5.363,-7.18 -0.063,-0.082 -0.125,-0.16 -0.188,-0.25 -1.84932,-2.39649 -3.72948,-4.76902 -5.64,-7.117 -0.04,-0.05 -0.074,-0.098 -0.114,-0.149 -1.93676,-2.37786 -3.90561,-4.72941 -5.906,-7.054 -0.011,-0.016 -0.031,-0.035 -0.043,-0.051 -14.16909,-16.46115 -29.87846,-31.53095 -46.914,-45.004 v 525.942 c 0.02,-0.012 0.035,-0.028 0.055,-0.043 2.418,-1.918 4.8,-3.856 7.164,-5.825 0.008,-0.011 0.02,-0.02 0.027,-0.03 2.37374,-1.98232 4.71898,-3.99853 7.035,-6.048 0.004,-0.008 0.008,-0.008 0.016,-0.012 2.31804,-2.05267 4.60857,-4.13619 6.871,-6.25 0.004,0 0.008,-0.007 0.012,-0.007 2.26388,-2.11367 4.49843,-4.25854 6.703,-6.434 0.004,0 0.004,-0.004 0.012,-0.004 2.198,-2.17067 4.36733,-4.371 6.508,-6.601 2.14368,-2.23053 4.25589,-4.49108 6.336,-6.781 M 412.3923,115.94666 c -6.848,8.508 -24.36887,82.0241 -24.36887,98.1771 0,14.277 108.1886,121.66628 114.8056,129.28728 4.254,4.875 -14.93403,-103.75904 -8.32103,-102.00904 l 2.81577,-137.69422 c -6.426,2.026 -32.8683,-12.674538 -37.0633,-7.471538"
       id="path2"
       sodipodi:nodetypes="ccccccccccccccccccccccccccccccccscccccccscccccscccscccccccsccccccsccccccccccccccccccccccccccccscccccccccccccccccccscccc" />
    <path
       d="m 438.906,678.004 57.29151,-37.83001 -0.40429,-130.6291 -1.28522,3.98211 v -62.84 h -42.336 l -13.266,29.692 53.90826,-28.15775 1.44171,-139.83097 0.25203,3.51972 v -38.476 c -30.113,-1.215 -53.75,-8.098 -70.88,-20.72 -18.995,-13.937 -28.476,-33.741 -28.476,-59.32 0,-26.054 9.797,-46.425 29.399,-61.011 17.265,-12.84 40.527,-20.04 69.957,-21.598 V 77.652 c -22.06174,-4.399885 -44.50379,-6.612268 -67,-6.605 -22.793,0 -45.051,2.254 -66.578,6.527 v 659.54 c 21.92581,4.34851 44.22513,6.53698 66.578,6.534 22.49648,0.005 44.93852,-2.21043 67,-6.613 V 648.316 H 452.172 Z M 165.813,475.703 c -8.66,-28.625 -17.961,-59.379 -24.547,-94.45 -1.356,-1.331 -6.965,-6.01 -20.52,-7.437 -1.055,-0.109 -2.39,-0.156 -4.047,-0.156 -6.277,0 -15.914,0.778 -26.789,1.934 -1.007141,10.5521 -1.514375,21.14595 -1.52,31.746 0,92.62 37.997,176.601 99.298,237.484 1.88075,-7.71011 3.0381,-15.57888 3.457,-23.504 2.777,-52.78 -10.868,-97.875 -25.333,-145.617"
       id="path3"
       sodipodi:nodetypes="ccccccccccccsccccccccccccccsccccc" />
    <path
       d="M272.273 499.102c12.965-53.825 29.09-120.797 29.09-212.536 0-71.96-15.804-131.46-33.64-175.75a468 468 0 0 0-3.38-8.164c-.96-2.254-1.917-4.449-2.882-6.613-.313-.703-.629-1.383-.941-2.078a517 517 0 0 0-1.954-4.281c-.37-.805-.746-1.578-1.12-2.375-.587-1.246-1.18-2.5-1.766-3.715-.395-.82-.785-1.61-1.176-2.418-.57-1.149-1.137-2.305-1.7-3.422-.398-.797-.796-1.574-1.19-2.348-.552-1.082-1.102-2.164-1.653-3.218-.399-.766-.797-1.516-1.195-2.266-.54-1.02-1.075-2.031-1.602-3.02-.398-.734-.793-1.457-1.187-2.18q-.787-1.427-1.555-2.816c-.395-.703-.785-1.406-1.18-2.093-.5-.895-.996-1.762-1.492-2.621-.387-.676-.773-1.352-1.156-2.004-.48-.82-.953-1.614-1.422-2.407-.379-.648-.77-1.308-1.149-1.937-.445-.738-.878-1.445-1.312-2.16-.39-.63-.781-1.278-1.156-1.887-.399-.633-.778-1.234-1.157-1.844-.402-.64-.812-1.297-1.207-1.914-.257-.406-.504-.773-.75-1.168a301 301 0 0 0-6.988-10.402q-.026-.037-.05-.074v732.992h-2.016c14.676 1.18 31.254 5.035 53.191 12.234 21.879 7.168 43.567 10.817 64.457 10.817 15.957 0 28.645-2.157 37.36-4.297-46.477-14.028-77.81-30.496-97.512-62.914a126 126 0 0 1-6.95-13.133c-9.828-21.445-15.835-48.938-18.71-85.176-3.086-39.168 6.257-77.926 17.05-122.812M522.797 612.418l-24.406-55.309-1.965-4.457-1.918 4.118-25.926 55.648zM468.582 414.785h54.215l-24.406-55.3-1.965-4.462-1.918 4.122z"
       id="path4" />
  </g>
  <path
     fill="#3ca26e"
     d="m 621.516,131.734 c -1.43,-0.992 -2.844,-1.992 -4.286,-2.96 -1.472,-0.989 -2.968,-1.942 -4.457,-2.915 -1.039,-0.671 -2.066,-1.367 -3.105,-2.023 -1.785,-1.133 -3.59,-2.227 -5.39,-3.324 -0.774,-0.469 -1.536,-0.953 -2.313,-1.418 -2.02785,-1.20506 -4.0683,-2.38879 -6.121,-3.551 -0.57,-0.324 -1.13,-0.66 -1.7,-0.984 -2.23399,-1.25078 -4.48281,-2.47486 -6.746,-3.672 -0.402,-0.215 -0.796,-0.438 -1.203,-0.653 -2.43026,-1.28186 -4.87713,-2.53196 -7.34,-3.75 -0.242,-0.12 -0.48,-0.246 -0.726,-0.367 -2.60412,-1.28302 -5.22433,-2.53312 -7.86,-3.75 -0.109,-0.05 -0.214,-0.105 -0.324,-0.152 -2.7518,-1.26776 -5.52003,-2.499534 -8.304,-3.695 -19.79277,-8.47527 -40.34797,-15.04562 -61.387,-19.622 v 35.684 h 0.016 c 2.207,-0.074 -1.90249,65.34576 0.37151,65.34576 32.222,0 63.42849,-59.84176 80.92149,-48.55676 17.425,11.29 -61.9439,-42.10042 -60.8569,-20.73742 L 542.14,180.324 c -1.168,-10.062 -21.63765,-84.678646 -27.48865,-90.144646 -5.934,-5.41 3.17965,58.730646 -6.50035,58.730646 -1.285,0 -2.523,0.067 -3.75,0.156 -0.17533,0.0113 -0.351,0.0247 -0.527,0.04 -1.238,0.109 -2.445,0.253 -3.621,0.445 v 92.902 c 0.965,0.121 1.95,0.223 2.95,0.297 1.128,0.07 2.26,0.133 3.448,0.133 10.778,0 -3.1082,78.11352 3.3218,72.44952 6.465,-5.734 82.1462,56.27642 82.1462,46.62742 L 609.401,211.316 582.65114,236.57903 c -15.86146,14.97983 17.99586,13.63197 0.46086,24.60497 -17.547,10.992 -50.07749,-25.77262 -85.05349,-25.77262 -1.403,0 3.56549,42.20962 2.19449,42.18662 L 499.37296,455.03803 549.991,480.38 537.573,450.688 h -37.32 v 62.84 h 29.75 l -31.33398,1.16108 0.63804,140.08478 38.26594,-6.45786 h -37.32 v 87.489 c 0.016,-0.008 0.031,-0.008 0.055,-0.012 21.01371,-4.57474 41.5438,-11.14107 61.312,-19.61 0.0693,-0.0313 0.13433,-0.0613 0.195,-0.09 2.71978,-1.16565 5.42466,-2.36575 8.114,-3.6 0.18,-0.0873 0.35967,-0.17233 0.539,-0.255 2.56332,-1.18364 5.11152,-2.39974 7.644,-3.648 0.324,-0.16 0.633,-0.328 0.957,-0.488 2.38593,-1.18117 4.75744,-2.39126 7.114,-3.63 0.476,-0.25 0.941,-0.515 1.414,-0.769 2.19119,-1.15916 4.36802,-2.34524 6.53,-3.558 0.657,-0.364 1.298,-0.75 1.946,-1.122 1.969,-1.125 3.938,-2.25 5.883,-3.41 0.855,-0.511 1.7,-1.05 2.555,-1.57 1.718,-1.05 3.441,-2.082 5.14,-3.164 1.137,-0.723 2.254,-1.473 3.383,-2.207 1.399,-0.906 2.809,-1.805 4.192,-2.735 1.464,-0.988 2.91,-2.003 4.359,-3.011 1.027,-0.715 2.066,-1.414 3.086,-2.14 2.46133,-1.75 4.89733,-3.53167 7.308,-5.345 V 139.27 c -2.40931,-1.81885 -4.84558,-3.60172 -7.308,-5.348 -1.04,-0.746 -2.106,-1.453 -3.156,-2.188 M 354.742,78.898 h -0.027 c -13.75419,2.997439 -27.30894,6.84618 -40.586,11.524 -0.156,0.055 -0.32,0.117 -0.477,0.176 -3.11361,1.098417 -6.2103,2.244216 -9.289,3.437 -0.574,0.219 -1.133,0.461 -1.703,0.692 -2.66461,1.038962 -5.31486,2.114396 -7.95,3.226 -1.257,0.531 -2.491,1.106 -3.741,1.649 -1.942,0.851 -3.89,1.687 -5.809,2.57 -3.17614,1.46363 -6.32983,2.97547 -9.46,4.535 17.198,42.656 34.445,104.242 34.445,179.86 0,92.78 -16.266,160.308 -29.325,214.613 -10.648,44.14 -19.836,82.277 -16.812,120.043 3.207,40.812 10.586,70.347 23.316,92.3 2.7,1.22 5.43,2.407 8.168,3.563 1.504,0.637 3.028,1.23 4.543,1.84 1.223,0.5 2.442,1.011 3.672,1.496 2.10968,0.81199 4.22711,1.60369 6.352,2.375 0.64,0.242 1.277,0.492 1.921,0.723 2.504,0.902 5.028,1.77 7.56,2.613 0.257,0.086 0.515,0.18 0.776,0.265 2.75867,0.91067 5.531,1.78967 8.317,2.637 0.035,0.008 0.074,0.024 0.11,0.031 8.57498,2.58827 17.24834,4.83868 26,6.746 z m -157.824,33.946 c -5.098,0 -9.23,-4.133 -9.23,-9.242 0,-5.082 4.132,-9.2 9.23,-9.2 5.078,0 9.215,4.118 9.215,9.2 0,5.109 -4.137,9.242 -9.215,9.242 m 22.55,18.082 V 29.617 c -14.011,21.922 -51.206,85.63 -68.796,169.004 -1.41034,6.691 -2.67099,13.41267 -3.781,20.16 -0.746,4.5 -1.442,9.035 -2.055,13.633 -5.215,48.668 -2.715,90.371 0.238,116.559 1.44428,11.42779 3.26427,22.80494 5.457,34.113 l 3.528,15.988 -0.223,-0.285 c 6.027,26.93 13.402,51.348 20.383,74.371 14.66,48.492 28.558,94.313 25.687,148.653 -0.53084,10.15164 -2.20407,20.21112 -4.988,29.988 -0.88704,3.10832 -1.87995,6.18545 -2.977,9.226 -11.421,31.711 -34.68,60.996 -68.761,86.157 -22.914,16.921 -45.301,28.109 -58.797,34.097 8.258,1.555 19.918,3.137 33.18,3.137 13.124,0 25.667,-1.54 37.277,-4.54 6.137,-1.605 11.82,-3.128 17.12,-4.55 25.56,-6.855 42.427,-11.36 61.614,-11.36 1.938,0 3.906,0.06 5.895,0.157 z"
     id="path5"
     sodipodi:nodetypes="ccccccccccccccccccsccccscccccscccscsccccccccccccccccccccccccccccccccccccscccccccscccccccccccccccsssccccccccccccccccsccscc" />
  <path
     fill="#3ca26e"
     d="M121.629 365.082c7.633.82 13.254 2.531 17.351 4.395a435 435 0 0 1-2.496-18.516c-2.558-19.93-4.074-41.219-4.074-64.242 0-17.145 1.098-33.895 3.063-50.09.214-1.77.43-3.527.664-5.277.25-2.309.496-4.606.777-6.95a89 89 0 0 0-5.125 1.395c-9.523 2.863-24.375 8.863-40.375 21.21-24.316 18.755-56.105 56.286-71.418 129.098 11.899-1.824 38.5-5.777 61.945-8.464 3.047-.352 6.032-.68 8.93-.977 10.395-1.078 19.61-1.785 25.828-1.785 1.992 0 3.621.07 4.93.203"
     id="path6" />
  <g
     clip-path="url(#a)"
     id="g7">
    <path
       fill="#0a050c"
       d="m 360.93,77.575 c 21.92563,-4.349044 44.2252,-6.535526 66.578,-6.528 22.49621,-0.0073 44.93826,2.205115 67,6.605 l 0,659.384 c -22.06151,4.40223 -44.50356,6.61696 -67,6.612 -22.793,0 -45.051,-2.265 -66.578,-6.535 z m -75.77,24.597 c 1.918,-0.887 3.867,-1.719 5.809,-2.57 1.25,-0.543 2.484,-1.118 3.742,-1.649 2.63514,-1.111604 5.28539,-2.187038 7.95,-3.226 0.57,-0.23 1.128,-0.473 1.702,-0.692 3.08035,-1.189307 6.17732,-2.335087 9.29,-3.437 0.156,-0.059 0.32,-0.121 0.476,-0.176 13.27706,-4.67782 26.83181,-8.526561 40.586,-11.524 h 0.027 v 656.914 c -6.56917,-1.42947 -13.09409,-3.0552 -19.566,-4.875 -2.15098,-0.60141 -4.29576,-1.22478 -6.434,-1.87 -0.035,-0.008 -0.074,-0.024 -0.11,-0.032 -2.78216,-0.84664 -5.55435,-1.7257 -8.316,-2.637 -0.261,-0.086 -0.52,-0.18 -0.777,-0.265 -2.52948,-0.84235 -5.04931,-1.7134 -7.559,-2.613 -0.644,-0.23 -1.28,-0.48 -1.921,-0.723 -2.12551,-0.76962 -4.24296,-1.56133 -6.352,-2.375 -1.23,-0.485 -2.45,-0.996 -3.672,-1.496 -1.515,-0.61 -3.039,-1.203 -4.543,-1.84 -2.73714,-1.1542 -5.46001,-2.34196 -8.168,-3.563 -12.73,-21.953 -20.11,-51.488 -23.316,-92.3 -3.024,-37.766 6.164,-75.903 16.812,-120.043 13.059,-54.305 29.325,-121.832 29.325,-214.614 0,-75.617 -17.247,-137.203 -34.446,-179.859 3.1305,-1.55953 6.28453,-3.07138 9.461,-4.535 M 191.145,621.32 c -0.434,8.172 -1.63,16 -3.457,23.504 C 126.387,583.941 88.39,499.961 88.39,407.34 c 0,-10.707 0.527,-21.29 1.52,-31.746 10.874,-1.156 20.51,-1.934 26.788,-1.934 1.656,0 2.992,0.047 4.047,0.156 13.555,1.426 19.164,6.106 20.52,7.438 6.586,35.07 15.886,65.824 24.547,94.45 14.464,47.741 28.109,92.835 25.332,145.616 M 131.788,225.797 c 1.69407,-0.51588 3.40317,-0.98109 5.125,-1.395 -0.281,2.344 -0.527,4.641 -0.777,6.95 -0.235,1.75 -0.45,3.507 -0.664,5.277 -1.965,16.195 -3.063,32.945 -3.063,50.09 0,23.023 1.516,44.312 4.074,64.242 0.856,7.52 1.75,13.785 2.496,18.516 -4.097,-1.864 -9.718,-3.575 -17.351,-4.395 -1.309,-0.133 -2.938,-0.203 -4.93,-0.203 -6.219,0 -15.433,0.707 -25.828,1.785 -2.898,0.297 -5.883,0.625 -8.93,0.977 -23.445,2.687 -50.046,6.64 -61.945,8.464 15.313,-72.812 47.102,-110.343 71.418,-129.097 16,-12.348 30.852,-18.348 40.375,-21.211 M 97.563,784.418 c -13.262,0 -24.922,-1.582 -33.18,-3.137 13.496,-5.988 35.883,-17.176 58.797,-34.097 34.082,-25.16 57.34,-54.446 68.761,-86.157 1.09705,-3.04055 2.08996,-6.11768 2.977,-9.226 2.781,-9.801 4.46,-19.817 4.988,-29.989 2.871,-54.34 -11.027,-100.16 -25.687,-148.652 -6.98,-23.023 -14.356,-47.441 -20.383,-74.37 l 0.223,0.284 -3.528,-15.988 c -2.19273,-11.30806 -4.01272,-22.68521 -5.457,-34.113 -2.953,-26.188 -5.453,-67.891 -0.238,-116.559 0.61277,-4.55493 1.29786,-9.09983 2.055,-13.633 1.10968,-6.74732 2.36999,-13.469 3.78,-20.16 17.59,-83.375 54.786,-147.082 68.798,-169.004 v 734.508 c -1.96343,-0.10028 -3.92902,-0.1523 -5.895,-0.156 -19.187,0 -36.054,4.504 -61.613,11.36 -5.3,1.421 -10.984,2.944 -17.121,4.55 -11.61,3 -24.152,4.539 -37.277,4.539 m 243.472,3.016 c -20.89,0 -42.578,-3.649 -64.457,-10.817 -21.937,-7.199 -38.515,-11.054 -53.191,-12.234 h 2.015 V 31.39 c 0.016,0.023 0.036,0.05 0.051,0.074 2.40127,3.418465 4.7311,6.886549 6.988,10.402 0.246,0.395 0.493,0.762 0.75,1.168 0.395,0.617 0.805,1.274 1.207,1.914 0.38,0.61 0.758,1.211 1.157,1.844 0.375,0.61 0.765,1.254 1.156,1.887 0.434,0.715 0.867,1.422 1.312,2.16 0.38,0.633 0.762,1.289 1.149,1.937 0.469,0.793 0.941,1.586 1.422,2.407 0.383,0.652 0.77,1.328 1.156,2.004 0.496,0.859 0.992,1.726 1.492,2.62 0.395,0.688 0.785,1.391 1.18,2.094 0.51267,0.925333 1.031,1.864333 1.555,2.817 0.394,0.722 0.789,1.445 1.187,2.18 0.527,0.988 1.063,2 1.602,3.019 0.398,0.75 0.797,1.5 1.195,2.266 0.55,1.054 1.101,2.136 1.652,3.218 0.403,0.778 0.793,1.551 1.192,2.348 0.562,1.117 1.129,2.273 1.699,3.422 0.39,0.808 0.781,1.598 1.176,2.418 0.586,1.215 1.18,2.469 1.765,3.715 0.375,0.797 0.75,1.57 1.121,2.375 0.65782,1.423696 1.30916,2.850377 1.954,4.28 0.312,0.696 0.628,1.376 0.94,2.08 0.966,2.163 1.923,4.358 2.884,6.612 1.152,2.71064 2.27838,5.43209 3.379,8.164 17.836,44.29 33.64,103.79 33.64,175.75 0,91.739 -16.125,158.711 -29.09,212.536 -10.793,44.886 -20.136,83.644 -17.05,122.812 2.875,36.238 8.882,63.73 18.71,85.176 2.05631,4.51057 4.37701,8.89586 6.95,13.133 19.703,32.418 51.035,48.886 97.512,62.914 -8.715,2.14 -21.403,4.297 -37.36,4.297 M 631.98,675.44 c -2.41217,1.81369 -4.84839,3.59518 -7.308,5.344 -1.02,0.727 -2.059,1.426 -3.086,2.14 -1.45,1.009 -2.895,2.024 -4.36,3.013 -1.382,0.93 -2.792,1.828 -4.19,2.734 -1.13,0.734 -2.247,1.484 -3.384,2.207 -1.699,1.082 -3.422,2.113 -5.14,3.164 -0.856,0.52 -1.7,1.059 -2.555,1.57 -1.9504,1.15486 -3.91148,2.29157 -5.883,3.41 -0.648,0.372 -1.289,0.758 -1.945,1.122 -2.16231,1.21276 -4.33948,2.39885 -6.531,3.558 -0.473,0.254 -0.938,0.52 -1.414,0.77 -2.35656,1.2384 -4.72807,2.44816 -7.114,3.629 -0.324,0.16 -0.632,0.328 -0.957,0.488 -2.53248,1.24826 -5.08068,2.46436 -7.644,3.648 -0.18,0.0827 -0.36,0.16733 -0.54,0.254 -2.689,1.23491 -5.39355,2.43568 -8.113,3.602 -0.0607,0.0273 -0.12567,0.0573 -0.195,0.09 -15.32473,6.55724 -31.11222,11.97527 -47.234,16.21 -4.66865,1.23025 -9.36233,2.3635 -14.078,3.399 -0.024,0.004 -0.04,0.012 -0.055,0.012 l 0,-656.906 c 15.81473,3.433122 31.36162,8.000941 46.52,13.668 0.0847,0.02933 0.17167,0.062 0.261,0.098 2.41,0.902 4.813,1.828 7.195,2.785 2.49126,1.001555 4.97206,2.028944 7.442,3.082 2.77353,1.192064 5.53143,2.42017 8.273,3.684 0.11,0.047 0.215,0.101 0.325,0.152 2.63534,1.21689 5.25521,2.46699 7.859,3.75 0.246,0.121 0.484,0.246 0.726,0.367 2.46287,1.21804 4.90974,2.46814 7.34,3.75 0.407,0.215 0.801,0.438 1.203,0.653 2.26272,1.19863 4.51186,2.42271 6.747,3.672 0.57,0.324 1.128,0.66 1.699,0.984 2.05,1.172 4.101,2.344 6.12,3.55 0.778,0.466 1.54,0.95 2.313,1.419 1.801,1.097 3.606,2.191 5.391,3.324 1.039,0.656 2.066,1.352 3.105,2.023 1.489,0.973 2.989,1.926 4.457,2.914 1.442,0.97 2.856,1.97 4.286,2.961 1.05,0.735 2.113,1.442 3.156,2.188 2.46242,1.74628 4.89869,3.52915 7.308,5.348 z m 40.997,-36.382 c -2.14,2.23 -4.30933,4.43033 -6.508,6.601 -0.008,0 -0.008,0.004 -0.012,0.004 -2.20457,2.17546 -4.43912,4.32033 -6.703,6.434 -0.004,0 -0.008,0.007 -0.012,0.007 -2.2611,2.11489 -4.55131,4.19842 -6.87,6.25 -0.009,0.004 -0.013,0.004 -0.017,0.012 -2.31602,2.04914 -4.66126,4.06501 -7.035,6.047 -0.007,0.012 -0.02,0.02 -0.027,0.031 -2.36463,1.97023 -4.7528,3.91204 -7.164,5.825 -0.02,0.015 -0.035,0.03 -0.055,0.043 V 144.37 c 6.38451,5.04714 12.58519,10.32256 18.59,15.816 0.024,0.024 0.047,0.04 0.066,0.063 1.95592,1.786 3.88842,3.59749 5.797,5.434 0.188,0.175 0.368,0.359 0.559,0.539 1.7517,1.6842 3.48514,3.3873 5.2,5.109 0.413,0.414 0.816,0.84 1.23,1.258 1.49149,1.50986 2.96922,3.03326 4.433,4.57 0.742,0.781 1.465,1.586 2.203,2.375 1.125,1.207 2.258,2.406 3.364,3.633 1.84875,2.04705 3.67288,4.1162 5.472,6.207 0.012,0.016 0.032,0.035 0.043,0.05 2,2.32533 3.969,4.677 5.907,7.055 l 0.113,0.149 c 1.91052,2.34798 3.79068,4.72051 5.64,7.117 0.063,0.09 0.125,0.168 0.188,0.25 1.81859,2.37008 3.6064,4.76361 5.363,7.18 0.094,0.12 0.176,0.246 0.27,0.375 1.72643,2.38024 3.4219,4.78278 5.086,7.207 0.11267,0.16933 0.227,0.33867 0.343,0.508 1.62911,2.38808 3.22956,4.79558 4.801,7.222 0.145,0.219 0.278,0.438 0.422,0.657 1.531,2.39 3.04,4.792 4.512,7.222 0.168,0.274 0.332,0.559 0.5,0.832 1.43443,2.37998 2.84185,4.77614 4.222,7.188 0.196,0.336 0.375,0.68 0.567,1.011 1.33984,2.36775 2.65226,4.75091 3.937,7.149 0.215,0.41 0.422,0.82 0.637,1.223 1.238,2.34 2.461,4.695 3.645,7.074 0.238,0.476 0.46,0.96 0.703,1.441 1.14585,2.31736 2.26426,4.64819 3.355,6.992 0.254,0.555 0.492,1.11 0.75,1.664 1.05255,2.28714 2.0773,4.58698 3.074,6.899 0.278,0.637 0.536,1.277 0.801,1.918 0.95676,2.2483 1.88782,4.50744 2.793,6.777 0.281,0.711 0.55,1.434 0.828,2.149 0.86,2.21 1.715,4.43 2.528,6.66 0.293,0.8 0.562,1.61 0.843,2.406 0.78167,2.16555 1.53839,4.34003 2.27,6.523 0.297,0.895 0.566,1.797 0.855,2.692 0.688,2.11 1.368,4.23 2.008,6.36 0.301,0.987 0.567,1.98 0.852,2.964 0.60841,2.05923 1.19677,4.12432 1.765,6.195 0.29,1.082 0.555,2.176 0.828,3.254 0.524,2.004 1.047,4 1.528,6.016 0.281,1.18 0.531,2.367 0.8,3.55 0.442,1.938 0.891,3.876 1.298,5.829 0.265,1.277 0.5,2.57 0.75,3.851 0.367,1.871 0.746,3.739 1.082,5.618 0.25,1.386 0.457,2.785 0.687,4.18 0.297,1.796 0.61,3.585 0.879,5.394 0.223,1.504 0.402,3.015 0.605,4.52 0.23,1.714 0.48,3.421 0.684,5.14 0.191,1.633 0.344,3.277 0.512,4.922 0.164,1.613 0.355,3.215 0.5,4.836 0.156,1.789 0.27,3.593 0.398,5.386 0.11,1.48 0.238,2.961 0.328,4.454 0.121,2.078 0.196,4.171 0.282,6.265 0.046,1.219 0.12,2.43 0.156,3.649 0.19605,6.65856 0.19605,13.32144 0,19.98 -0.035,1.227 -0.11,2.438 -0.156,3.656 -0.086,2.086 -0.16,4.18 -0.282,6.262 -0.09,1.492 -0.218,2.969 -0.328,4.453 -0.133,1.797 -0.242,3.598 -0.398,5.38 -0.145,1.624 -0.336,3.23 -0.5,4.839 -0.168,1.645 -0.32,3.285 -0.512,4.918 -0.203,1.719 -0.453,3.426 -0.684,5.133 -0.203,1.511 -0.382,3.027 -0.605,4.531 -0.27,1.8 -0.582,3.602 -0.879,5.395 -0.23,1.386 -0.437,2.789 -0.687,4.18 -0.336,1.878 -0.715,3.741 -1.082,5.613 -0.25,1.285 -0.485,2.578 -0.75,3.855 -0.407,1.95 -0.856,3.883 -1.293,5.816 -0.27,1.188 -0.524,2.383 -0.805,3.559 -0.48,2.012 -1.004,4.004 -1.52,5.996 -0.28,1.09 -0.547,2.195 -0.836,3.277 -0.56784,2.06104 -1.15353,4.11711 -1.757,6.168 -0.29,0.996 -0.559,1.996 -0.86,2.989 -0.64589,2.11808 -1.31125,4.23017 -1.996,6.336 -0.297,0.902 -0.57,1.812 -0.871,2.71 -0.723,2.18 -1.484,4.34 -2.254,6.5 -0.285,0.81 -0.562,1.63 -0.86,2.434 -0.81019,2.2244 -1.64993,4.43793 -2.519,6.64 -0.277,0.723 -0.547,1.454 -0.832,2.173 -0.90613,2.25854 -1.83317,4.50864 -2.781,6.75 -0.274,0.644 -0.535,1.297 -0.813,1.945 -0.99304,2.2983 -2.01244,4.58512 -3.058,6.86 -0.262,0.566 -0.508,1.132 -0.766,1.702 -1.0902,2.32969 -2.20493,4.64781 -3.344,6.954 -0.242,0.492 -0.472,0.988 -0.714,1.484 -1.18114,2.35626 -2.38955,4.69875 -3.625,7.027 -0.223,0.418 -0.438,0.848 -0.664,1.27 -1.26858,2.38178 -2.57105,4.74535 -3.907,7.09 -0.199,0.359 -0.394,0.715 -0.597,1.074 -1.36357,2.39259 -2.7597,4.76648 -4.188,7.121 -0.176,0.297 -0.351,0.605 -0.531,0.906 -1.46574,2.40018 -2.95917,4.78334 -4.48,7.149 -0.157,0.242 -0.301,0.488 -0.462,0.726 -1.554,2.41 -3.14,4.79 -4.757,7.156 -0.13,0.192 -0.258,0.387 -0.391,0.575 -3.41921,4.99521 -6.97523,9.8954 -10.664,14.695 -0.082,0.102 -0.16,0.21 -0.242,0.312 -1.82564,2.37442 -3.68381,4.72364 -5.574,7.047 -0.059,0.078 -0.125,0.157 -0.184,0.235 -1.91078,2.34552 -3.85363,4.66474 -5.828,6.957 -0.043,0.05 -0.086,0.105 -0.13,0.152 -1.99156,2.3141 -4.0134,4.60196 -6.065,6.863 -0.024,0.028 -0.055,0.059 -0.082,0.086 -2.0801,2.29026 -4.19231,4.55115 -6.336,6.782 M 744.523,248.854 C 720.48,201.71 685.348,159.761 642.922,127.53 l -2.695,-2.05 C 578.344,79.405 504.809,55.081 427.507,55.081 c -53.042,0 -104,11.352 -151.577,33.758 -0.61,-1.372 -1.21433,-2.709333 -1.813,-4.012 -20.828,-45.348 -41.52,-70.726 -43.808,-73.476 l -3.688,-4.336 -5.953,-7.012 -5.363,7.473 -3.278,4.566 c -0.593,0.816 -59.05,82.957 -79.648,197.02 -10.473,2.558 -29.441,9.03 -50.191,24.886 C 54.824,254.87 18.887,297.054 3.094,379.206 L 1.918,385.343 0,395.352 l 10.074,-1.555 6.16,-0.95 0.164,-0.027 c 1.067,-0.175 29.059,-4.578 56.786,-8.039 -0.491135,7.50969 -0.739931,15.03327 -0.746,22.559 0,48.3 9.73,95.133 28.914,139.2 17.906,41.136 43.23,78.07 75.308,109.855 C 148.078,734.094 47.18,771.137 46.145,771.504 l -12.293,4.387 -20.133,7.187 20.379,6.434 12.46,3.93 c 2.31,0.726 23.114,6.937 51.005,6.937 14.53,0 28.425,-1.707 41.292,-5.07 4.79868,-1.24534 9.59205,-2.51102 14.38,-3.797 l 2.847,-0.762 c 24.313,-6.516 40.36,-10.82 57.492,-10.82 15.399,0 32.75,3.539 58.016,11.84 23.476,7.714 46.84,11.62 69.445,11.62 35.64,0 56.414,-9.613 57.278,-10.019 l 10.808,-5 17.817,-8.226 -18.918,-5.223 -11.524,-3.18 c -26.363,-7.281 -48.71,-14.941 -66.672,-25.699 31.63,9.012 64.348,13.559 97.684,13.559 23.031,0 46.156,-2.235 68.73,-6.649 l 5.45,-1.11 c 50.48,-10.695 97.054,-31.75 138.48,-62.593 l 2.754,-2.102 c 42.426,-32.226 77.558,-74.175 101.601,-121.316 25.223,-49.46 38.012,-102.785 38.012,-158.492 0,-55.703 -12.789,-109.028 -38.012,-158.485"
       id="path7"
       sodipodi:nodetypes="ccccccccccccccccccccscccccccccsccccscsccccccccscccsccccccccccccccccccccccccccccccccccccccccccccccccccccccccsccccccccccccccccccccccccccccccccccccccccccccccccccccccccccccccccccccccccccccccccccccccccccccccccccccccccccccccccccccccccccccccccccccccccccccccccccccccccccccccccccccscccccccsccccccccccccccccccccccccscccscsccccccscccccsc" />
  </g>
  <path
     fill="#0a050c"
     d="M206.133 103.602c0-5.082-4.137-9.2-9.215-9.2-5.098 0-9.23 4.118-9.23 9.2 0 5.109 4.132 9.242 9.23 9.242 5.078 0 9.215-4.133 9.215-9.242"
     id="path8" />
  <path
     style="fill:#3ca26e;fill-opacity:1;stroke-width:0.397031"
     d="m 202.08876,116.52859 c -0.13496,-0.21837 -0.59216,-0.39703 -1.01601,-0.39703 -0.50594,0 -0.77063,-0.27274 -0.77063,-0.79406 0,-1.17524 0.91991,-0.96332 1.72349,0.39703 0.62317,1.05495 0.68207,1.79549 0.0632,0.79406 z"
     id="path15"
     transform="matrix(2.5074282,0,0,2.5074282,-0.02167525,0)" />
  <path
     style="fill:#3ca26e;fill-opacity:1;stroke-width:0.397031"
     d=""
     id="path16"
     transform="matrix(2.5074282,0,0,2.5074282,-0.02167525,0)" />
  <path
     style="fill:#3ca26e;fill-opacity:1;stroke-width:0.397031"
     d="m 200.5638,112.16125 -0.7036,-1.19109 h 1.41205 c 1.30427,0 1.41206,0.0909 1.41206,1.19109 0,0.87843 -0.18597,1.19109 -0.70846,1.19109 -0.38965,0 -1.02508,-0.53599 -1.41205,-1.19109 z"
     id="path17"
     transform="matrix(2.5074282,0,0,2.5074282,-0.02167525,0)" />
  <path
     style="fill:#3ca26e;fill-opacity:1;stroke-width:0.0350929"
     d="M 199.52075,127.59783 V 111.1217 h 0.10036 c 0.0965,0 0.14352,0.0789 1.2107,2.02916 0.61069,1.11603 1.11035,2.03985 1.11035,2.05293 0,0.0131 -0.0488,0.0238 -0.1085,0.0238 -0.0872,0 -0.15093,-0.0438 -0.32461,-0.22289 -0.27351,-0.28208 -0.5475,-0.44309 -0.75479,-0.44354 -0.12611,-2.7e-4 -0.17277,0.0198 -0.26835,0.11537 -0.14252,0.14252 -0.1929,0.3146 -0.19215,0.65634 6.4e-4,0.29396 0.0692,0.48782 0.22251,0.62902 0.1315,0.12113 0.12235,0.19117 -0.0217,0.16602 -0.0627,-0.0109 -0.22855,-0.0305 -0.36848,-0.0435 l -0.25442,-0.0236 v 14.0066 14.00661 h -0.17547 -0.17546 z"
     id="path18"
     transform="matrix(2.5074282,0,0,2.5074282,-0.02167525,0)" />
</svg>
