<?xml version="1.0" encoding="UTF-8" standalone="no"?>
<svg
   xml:space="preserve"
   id="Layer_1"
   x="0"
   y="0"
   version="1.1"
   viewBox="0 0 471 566"
   sodipodi:docname="argeninos-juniors.svg"
   inkscape:version="1.4.2 (f4327f4, 2025-05-13)"
   xmlns:inkscape="http://www.inkscape.org/namespaces/inkscape"
   xmlns:sodipodi="http://sodipodi.sourceforge.net/DTD/sodipodi-0.dtd"
   xmlns="http://www.w3.org/2000/svg"
   xmlns:svg="http://www.w3.org/2000/svg"><defs
     id="defs32" /><sodipodi:namedview
     id="namedview32"
     pagecolor="#ffffff"
     bordercolor="#000000"
     borderopacity="0.25"
     inkscape:showpageshadow="2"
     inkscape:pageopacity="0.0"
     inkscape:pagecheckerboard="0"
     inkscape:deskcolor="#d1d1d1"
     inkscape:zoom="1.4257951"
     inkscape:cx="235.30731"
     inkscape:cy="376.28129"
     inkscape:window-width="1920"
     inkscape:window-height="1009"
     inkscape:window-x="-8"
     inkscape:window-y="-8"
     inkscape:window-maximized="1"
     inkscape:current-layer="Layer_1" /><style
     id="style1">.st2,.st6{fill-rule:evenodd;clip-rule:evenodd;fill:#fff}.st6{fill:#00569d}.st8{fill:#fff}.st10{fill-rule:evenodd;clip-rule:evenodd;fill:#fbba23}</style><circle
     cx="236.8"
     cy="336.3"
     r="216"
     style="fill:#00569d;stroke:#00569d;stroke-width:.57;stroke-miterlimit:22.93"
     id="circle1" /><circle
     cx="237.2"
     cy="335.8"
     r="159.7"
     style="fill:#fff;stroke:#025ea4;stroke-width:.57;stroke-miterlimit:22.9298"
     id="circle2" /><path
     d="M49.7 346.5c3.8 0 6.9-3.1 6.9-6.9s-3.1-6.9-6.9-6.9-6.9 3.1-6.9 6.9 3.1 6.9 6.9 6.9"
     class="st2"
     id="path2" /><path
     d="M49.7 332.4c4 0 7.2 3.2 7.2 7.2s-3.2 7.2-7.2 7.2-7.2-3.2-7.2-7.2c0-1.9.8-3.7 2.1-5.1 1.4-1.4 3.2-2.1 5.1-2.1m4.7 2.5c-2.6-2.6-6.8-2.6-9.3 0s-2.6 6.8 0 9.3c2.6 2.6 6.8 2.6 9.3 0 1.2-1.2 1.9-2.9 1.9-4.7 0-1.7-.7-3.4-1.9-4.6M427 346.3c3.8 0 6.9-3.1 6.9-6.9s-3.1-6.9-6.9-6.9-6.9 3.1-6.9 6.9 3.1 6.8 6.9 6.9"
     class="st2"
     id="path3" /><path
     d="M427 332.2c4 0 7.2 3.2 7.2 7.2s-3.2 7.2-7.2 7.2-7.2-3.2-7.2-7.2c0-1.9.8-3.7 2.1-5.1 1.4-1.4 3.2-2.1 5.1-2.1m4.7 2.5c-2.6-2.6-6.7-2.6-9.3 0s-2.6 6.7 0 9.3 6.7 2.6 9.3 0c1.2-1.2 1.9-2.9 1.9-4.6 0-1.8-.7-3.5-1.9-4.7"
     class="st2"
     id="path4" /><path
     d="M131.1 258.9h213.2v144.3H131.1z"
     style="fill:#e32021"
     id="path5" /><path
     d="M131.1 254.3h217.8v153.5H126.5V254.3zm208.6 9.2h-204v135.2h204z"
     style="fill-rule:evenodd;clip-rule:evenodd;fill:#e32021"
     id="path6" /><path
     d="M131.1 258.9h23.5l189.7 121.6v22.7h-26.4L131.1 282.8z"
     class="st2"
     id="path7" /><path
     d="M131.1 258.6h23.6l.1.1 189.7 121.6.1.1v23.2h-26.8L130.9 283.1l-.1-.1v-24.4zm23.4.6h-23.1v23.4l186.7 120.3h26v-22.2z"
     style="fill-rule:evenodd;clip-rule:evenodd;fill:#ea2d31"
     id="path8" /><radialGradient
     id="SVGID_1_"
     cx="236.274"
     cy="88.07"
     r="48.399"
     gradientTransform="translate(0 -24)"
     gradientUnits="userSpaceOnUse"><stop
       offset="0"
       style="stop-color:#fed500"
       id="stop22" /><stop
       offset="1"
       style="stop-color:#fcb918"
       id="stop23" /></radialGradient><path
     d="m236.3 28.4 8 27.3h26.2l-21.2 16.8 8.1 27.2-21.1-16.9-21.2 16.9 8.2-27.2-21.2-16.8h26.1z"
     style="fill-rule:evenodd;clip-rule:evenodd;fill:url(#SVGID_1_)"
     id="path23" /><path
     d="m236.6 28.4 8 27.1h26.8l-.7.5-21 16.6 8.1 27 .3.9-.8-.6-21-16.7-20.9 16.7-.8.6.3-.9 8.1-27-21-16.7-.7-.5H228l8-27.1.3-1zm7.4 27.4-7.7-26.3-7.7 26.3-.1.2H203l20.5 16.3.2.1-.1.2-7.8 26.3 20.4-16.3.2-.2.2.2L257 98.9l-8-26.3v-.2l.2-.1L269.6 56h-25.5z"
     class="st10"
     id="path24" /><radialGradient
     id="SVGID_2_"
     cx="358.88"
     cy="124.486"
     r="21.393"
     gradientTransform="matrix(.9397 .342 -.3249 .8927 32.423 -142.946)"
     gradientUnits="userSpaceOnUse"><stop
       offset="0"
       style="stop-color:#fed500"
       id="stop24" /><stop
       offset="1"
       style="stop-color:#fcb918"
       id="stop25" /></radialGradient><path
     d="m336.8 71.9-1.4 16.3 14 5.5-14.9 4.5-1.4 16.3-7.7-13.5-14.9 4.6 10.1-12.9-7.8-13.5 14 5.6z"
     style="fill-rule:evenodd;clip-rule:evenodd;fill:url(#SVGID_2_)"
     id="path25" /><path
     d="m337.1 71.9-1.4 16 13.8 5.4.8.3-.8.2-14.7 4.5-1.4 16-.1 1-.5-.8-7.6-13.2-14.6 4.5-.9.3.6-.8 10-12.7-7.7-13.2-.5-.8.8.3 13.8 5.5 9.9-12.8.6-.8zm-2 16.2 1.4-15.3-9.4 12.2-.1.2-.2-.1-13.2-5.3 7.4 12.7.1.2-.1.2-9.5 12.1 13.9-4.3.2-.1.1.2 7.3 12.6 1.3-15.3v-.2l.2-.1 14.1-4.2-13.2-5.2-.2-.1z"
     class="st10"
     id="path26" /><radialGradient
     id="SVGID_3_"
     cx="443.375"
     cy="154.993"
     r="18.622"
     gradientTransform="matrix(.81 .59 -.62 .85 144.87 -257.06)"
     gradientUnits="userSpaceOnUse"><stop
       offset="0"
       style="stop-color:#fed500"
       id="stop26" /><stop
       offset="1"
       style="stop-color:#fcb918"
       id="stop27" /></radialGradient><path
     d="m419.8 118.7-5.4 15.4 12.2 8.8-15.5.7-5.4 15.4-4.2-15-15.5.8 13-10-4.3-14.9 12.2 8.8z"
     style="fill-rule:evenodd;clip-rule:evenodd;fill:url(#SVGID_3_)"
     id="path27" /><path
     d="m420.1 118.8-5.3 15.2 12 8.6.7.5h-.9l-15.3.7-5.3 15.3-.3.9-.3-.9-4.1-14.8-15.3.8h-1l.8-.6 12.8-9.9-4.2-14.8-.2-.9.7.5 12 8.7 12.7-9.9.8-.6zm-6 15.2 5.1-14.4-12.1 9.4-.2.1-.2-.1-11.5-8.3 4 14.1v.2l-.2.1-12.2 9.4 14.6-.7h.2l.1.2 3.9 14.1 5-14.5.1-.2h.2l14.7-.7-11.5-8.2-.2-.1z"
     class="st10"
     id="path28" /><radialGradient
     id="SVGID_4_"
     cx="134.675"
     cy="-3936.148"
     r="20.7"
     gradientTransform="matrix(-.9455 .3256 -.00326 -.00946 258.856 9.59)"
     gradientUnits="userSpaceOnUse"><stop
       offset="0"
       style="stop-color:#fed500"
       id="stop28" /><stop
       offset="1"
       style="stop-color:#fcb918"
       id="stop29" /></radialGradient><path
     d="m136.8 71.9 1.4 16.3-14 5.5 14.9 4.5 1.4 16.3 7.8-13.5 14.8 4.6L153 92.7l7.8-13.5-14 5.6z"
     style="fill-rule:evenodd;clip-rule:evenodd;fill:url(#SVGID_4_)"
     id="path29" /><path
     d="m137.2 72.9 1.4 15.3v.2l-.2.1-13.2 5.2 14 4.3.2.1v.2l1.3 15.3 7.2-12.6.1-.2.2.1 13.9 4.3-9.4-12.1-.1-.2.1-.2 7.4-12.7-13.2 5-.2.1-.1-.2zm.7 15.1-1.4-16.1-.1-1 .6.8 9.9 12.7 13.8-5.5.8-.3-.4.8-7.7 13.2 10 12.7.6.8-.9-.3-14.6-4.5-7.6 13.2-.5.8-.1-1-1.4-16-14.7-4.5-.8-.2.8-.3z"
     class="st10"
     id="path30" /><radialGradient
     id="SVGID_5_"
     cx="70.473"
     cy="-3941.349"
     r="19.916"
     gradientTransform="matrix(-.8192 .5736 -.00574 -.0082 100.436 61.992)"
     gradientUnits="userSpaceOnUse"><stop
       offset="0"
       style="stop-color:#fed500"
       id="stop30" /><stop
       offset="1"
       style="stop-color:#fcb918"
       id="stop31" /></radialGradient><path
     d="m53.8 118.7 5.4 15.4-12.2 8.8 15.5.7 5.4 15.4 4.2-15 15.5.8-12.9-10 4.2-14.9-12.2 8.8z"
     style="fill-rule:evenodd;clip-rule:evenodd;fill:url(#SVGID_5_)"
     id="path31" /><path
     d="m54.5 119.5 5.1 14.4.1.2-.2.1-11.5 8.4 14.7.7h.2l.1.2 5 14.5 3.9-14 .1-.2h.2l14.6.7-12.2-9.4-.2-.1.1-.2 4-14.1-11.4 8.3-.2.1-.2-.1zm4.4 14.5-5.3-15.2-.3-1 .8.6 12.7 9.9 12-8.7.7-.5-.2.9-4.3 14.7 12.8 9.9.8.6h-1l-15.3-.8-4.1 14.8-.3.9-.3-.9-5.3-15.3-15.3-.8h-.9l.7-.5z"
     class="st10"
     id="path32" /></svg>
