<?xml version="1.0" encoding="UTF-8" standalone="no"?>
<svg
   xml:space="preserve"
   width="612"
   height="718"
   viewBox="-90.5 -13.5 612 718"
   version="1.1"
   id="svg7"
   sodipodi:docname="atletico-tucuman.svg"
   inkscape:version="1.4.2 (f4327f4, 2025-05-13)"
   xmlns:inkscape="http://www.inkscape.org/namespaces/inkscape"
   xmlns:sodipodi="http://sodipodi.sourceforge.net/DTD/sodipodi-0.dtd"
   xmlns="http://www.w3.org/2000/svg"
   xmlns:svg="http://www.w3.org/2000/svg"><defs
     id="defs7" /><sodipodi:namedview
     id="namedview7"
     pagecolor="#ffffff"
     bordercolor="#000000"
     borderopacity="0.25"
     inkscape:showpageshadow="2"
     inkscape:pageopacity="0.0"
     inkscape:pagecheckerboard="0"
     inkscape:deskcolor="#d1d1d1"
     inkscape:zoom="1.1239554"
     inkscape:cx="305.6171"
     inkscape:cy="359"
     inkscape:window-width="1920"
     inkscape:window-height="1009"
     inkscape:window-x="-8"
     inkscape:window-y="-8"
     inkscape:window-maximized="1"
     inkscape:current-layer="svg7" /><path
     d="m0 164.1 1.2 277.1s1.2 67.7 62.9 151.7c41.2 56.1 153 89 153 89s95.6-25.7 154.2-86.5c61.7-63.9 64.2-156.7 64.2-156.7l1.2-274.6zM253.9 122.2l-36.3-26.5-36.7 28.2 11-47.7-35.1-29.8h46.1L217.2 0l14.3 46.4 46 .8-35.4 28.6z"
     style="fill:#c1a15e"
     id="path1" /><path
     d="m15.4 180.4 1.3 153 381.2-151.1zM38.9 519.6l49.3-20.1.5 95.1S67.3 573.4 57.4 559c-9.9-14.3-18.5-39.4-18.5-39.4M176 463.7l88-34.4-.6 217.6-44.4 17.5-43.8-16.9zM349.5 395.7l73-30.9-.6 62.1s4.3 45.8-17.9 89.7c-28.6 56.4-54.5 76.2-54.5 76.2z"
     style="fill:#66acd7"
     id="path2" /><path
     d="m16.6 347.5-.6 88.1s3.5 24.8 7 37.9c3.5 13 11.1 33.7 11.1 33.7l388.2-152-.6-171.5z"
     style="fill:#fff"
     id="path3" /><path
     d="M201 358.1v-23l15.8 17.7z"
     style="fill:#fff"
     id="path5" /><path
     d="m88 498.9 88-35.2-.8 185s3.7 2.5-50.2-24.9c-23.8-12.1-36.4-30-36.4-30zM263.6 429.5l85.9-33.8v196.9s-15.7 19.1-42.6 33.8c-27 14.7-43.9 21-43.9 21z"
     style="fill:#fff"
     id="path7" /></svg>
