<?xml version="1.0" encoding="UTF-8" standalone="no"?>
<svg
   width="183.73"
   height="300.67"
   viewBox="0 0 183.731 300.667"
   version="1.1"
   id="svg11"
   sodipodi:docname="banfield.svg"
   inkscape:version="1.4.2 (f4327f4, 2025-05-13)"
   xmlns:inkscape="http://www.inkscape.org/namespaces/inkscape"
   xmlns:sodipodi="http://sodipodi.sourceforge.net/DTD/sodipodi-0.dtd"
   xmlns="http://www.w3.org/2000/svg"
   xmlns:svg="http://www.w3.org/2000/svg">
  <defs
     id="defs11" />
  <sodipodi:namedview
     id="namedview11"
     pagecolor="#ffffff"
     bordercolor="#000000"
     borderopacity="0.25"
     inkscape:showpageshadow="2"
     inkscape:pageopacity="0.0"
     inkscape:pagecheckerboard="0"
     inkscape:deskcolor="#d1d1d1"
     inkscape:zoom="2.6840056"
     inkscape:cx="91.840345"
     inkscape:cy="150.33501"
     inkscape:window-width="1920"
     inkscape:window-height="1009"
     inkscape:window-x="-8"
     inkscape:window-y="-8"
     inkscape:window-maximized="1"
     inkscape:current-layer="svg11" />
  <g
     fill="#B4975A"
     id="g3">
    <path
       d="M71.447 10.928 83.3 12.219l-8.805 8.072 2.345 11.777-10.325-6.017-10.697 5.825 2.686-11.585-8.801-8.016 11.857-1.347L66.515 0zM124.03 10.928l11.85 1.291-8.82 8.072 2.36 11.777-10.32-6.017-10.7 5.825 2.67-11.585-8.79-8.016 11.85-1.347L119.1 0z"
       id="path1" />
    <path
       fill="none"
       d="m183.18 55.242-3.876 4.592c-5.592 6.612-10.749 9.807-15.813 9.807-5.595 0-11.748-3.855-18.826-11.79l-1.506-1.706-1.662 1.59c-8.214 7.885-15.91 11.724-23.523 11.724-7.595 0-15.393-3.839-23.871-11.75l-1.502-1.391-1.502 1.398c-8.465 7.904-16.375 11.743-24.135 11.743-7.786 0-15.575-3.839-23.814-11.724l-1.637-1.59-1.517 1.706c-7.075 7.934-13.386 11.79-19.291 11.79-5.349 0-10.666-3.195-16.27-9.807l-3.86-4.592v6.011l-.071 156.71v.997l.745.653L91.15 298.71l1.46 1.288 1.457-1.288 88.43-79.114.738-.647v-.985l-.057-156.71v-6.008zm-40.16 4.077c7.592 8.522 14.209 12.537 20.463 12.537 5.981 0 11.633-3.678 17.479-10.602l.071 156.71-88.44 79.098-89.888-79.1.064-156.71c5.854 6.924 11.733 10.602 17.936 10.602 6.513 0 13.358-4.015 20.931-12.537 8.813 8.445 17.176 12.35 25.328 12.35 8.67 0 17.119-4.398 25.636-12.35 8.535 7.951 16.838 12.35 25.373 12.35 8.02 0 16.23-3.904 25.05-12.349"
       id="path2" />
    <path
       d="m183.18 55.242-3.876 4.592c-5.592 6.612-10.749 9.807-15.813 9.807-5.595 0-11.748-3.855-18.826-11.79l-1.506-1.706-1.662 1.59c-8.214 7.885-15.91 11.724-23.523 11.724-7.595 0-15.393-3.839-23.871-11.75l-1.502-1.391-1.502 1.398c-8.465 7.904-16.375 11.743-24.135 11.743-7.786 0-15.575-3.839-23.814-11.724l-1.637-1.59-1.517 1.706c-7.075 7.934-13.386 11.79-19.291 11.79-5.349 0-10.666-3.195-16.27-9.807l-3.86-4.592v6.011l-.071 156.71v.997l.745.653L91.15 298.71l1.46 1.288 1.457-1.288 88.43-79.114.738-.647v-.985l-.057-156.71v-6.008zm-40.16 4.077c7.592 8.522 14.209 12.537 20.463 12.537 5.981 0 11.633-3.678 17.479-10.602l.071 156.71-88.44 79.098-89.888-79.1.064-156.71c5.854 6.924 11.733 10.602 17.936 10.602 6.513 0 13.358-4.015 20.931-12.537 8.813 8.445 17.176 12.35 25.328 12.35 8.67 0 17.119-4.398 25.636-12.35 8.535 7.951 16.838 12.35 25.373 12.35 8.02 0 16.23-3.904 25.05-12.349"
       id="path3" />
  </g>
  <path
     fill="#FFF"
     d="m92.596 297.06-89.894-79.1.06-156.71c11.984 14.181 24.055 14.71 38.87-1.933 18.183 17.452 34.44 15.413 50.964 0 16.542 15.413 32.249 17.452 50.428 0 14.831 16.643 25.957 16.113 37.945 1.933l.067 156.71-88.434 79.1z"
     id="path4" />
  <g
     fill="#B4975A"
     id="g11">
    <path
       d="M25.873 71.019v167.33l.958.861V70.69c-.329.127-.633.23-.958.341"
       id="path6" />
    <path
       fill="#03953f"
       d="M2.766 61.151 2.702 218.04l23.167 20.4V70.93c-8.161 2.586-15.658-.941-23.103-9.781M52.767 67.342v195.08l27.141 23.983V68.025c-8.832 4.401-17.779 4.465-27.141-.679"
       id="path7" />
    <path
       d="M52.767 67.742c-.33-.191-.667-.356-.974-.55v193.98l.974.856V67.738zM79.907 68.416v217.49l.996.865V67.911c-.337.165-.677.349-.996.495M104.86 68.27c-.326-.183-.648-.352-.963-.528v219.23l.963-.859V68.273zM132 67.701v194.09l.993-.845V67.166c-.31.184-.67.367-.99.544"
       id="path8" />
    <path
       fill="#03953f"
       d="M104.86 67.972v218.44l27.147-24.383V67.399c-9.4 5.265-18.26 5.115-27.15.57"
       id="path9" />
    <path
       d="M158.2 70.906a9 9 0 0 1-.993-.367v168.73l.993-.882V70.907z"
       id="path10" />
    <path
       fill="#03953f"
       d="m181.04 218.1-.08-157.15c-7.535 8.957-14.759 12.484-22.77 9.68v167.95l22.85-20.478z"
       id="path11" />
  </g>
</svg>
