<?xml version="1.0" encoding="UTF-8" standalone="no"?>
<svg
   xml:space="preserve"
   width="452.734"
   height="452.734"
   style="shape-rendering:geometricPrecision;text-rendering:geometricPrecision;image-rendering:optimizeQuality;fill-rule:evenodd;clip-rule:evenodd"
   viewBox="0 0 11979 11979"
   version="1.1"
   id="svg6"
   sodipodi:docname="belgrano.svg"
   inkscape:version="1.4.2 (f4327f4, 2025-05-13)"
   xmlns:inkscape="http://www.inkscape.org/namespaces/inkscape"
   xmlns:sodipodi="http://sodipodi.sourceforge.net/DTD/sodipodi-0.dtd"
   xmlns="http://www.w3.org/2000/svg"
   xmlns:svg="http://www.w3.org/2000/svg"><sodipodi:namedview
     id="namedview6"
     pagecolor="#ffffff"
     bordercolor="#000000"
     borderopacity="0.25"
     inkscape:showpageshadow="2"
     inkscape:pageopacity="0.0"
     inkscape:pagecheckerboard="0"
     inkscape:deskcolor="#d1d1d1"
     inkscape:zoom="1.7825036"
     inkscape:cx="226.367"
     inkscape:cy="226.367"
     inkscape:window-width="1920"
     inkscape:window-height="1009"
     inkscape:window-x="-8"
     inkscape:window-y="-8"
     inkscape:window-maximized="1"
     inkscape:current-layer="_565687440" /><defs
     id="defs1"><style
       id="style1">.fil0{fill:#373435}.fil1{fill:#fefefe}.fil3{fill:#373435;fill-rule:nonzero}</style></defs><g
     id="Layer_x0020_1"><path
       d="M5989 0c3308 0 5989 2682 5989 5989 0 3308-2682 5989-5989 5989C2681 11978 0 9296 0 5989 0 2681 2682 0 5989 0m0 374c3101 0 5615 2514 5615 5615s-2514 5615-5615 5615S374 9090 374 5989 2888 374 5989 374"
       class="fil0"
       id="path1" /><path
       d="M5989 374c3101 0 5615 2514 5615 5615s-2514 5615-5615 5615S374 9090 374 5989 2888 374 5989 374m0 1588c2235 0 4046 1811 4046 4046s-1811 4046-4046 4046-4046-1811-4046-4046 1811-4046 4046-4046"
       class="fil1"
       id="path2" /><path
       d="M5989 1962c2235 0 4046 1811 4046 4046s-1811 4046-4046 4046-4046-1811-4046-4046 1811-4046 4046-4046M4145 7583c-362-424-581-974-581-1575 0-1289 1006-2343 2275-2420v3950h-750V6308h-748c54 297 186 567 375 788l-570 487zm944-1875V4595c-386 246-664 646-748 1113zm3551 1278c16-50 25-104 25-159 0-287-232-519-518-519H6890v2378c810-272 1456-901 1751-1700zM6139 2436c1314 54 2445 818 3020 1917 88 168 209 435 239 625 84 540-294 1029-730 1029 448 0 812 489 730 1029-23 145-105 347-168 482-549 1176-1721 2004-3091 2061zm750 893v2378h1256c287 0 519-232 519-519 0-55-9-109-25-159-295-799-941-1428-1751-1700zM5839 9579c-1905-79-3425-1647-3425-3572 0-1924 1520-3493 3425-3572v751c-1490 78-2675 1311-2675 2821s1185 2743 2675 2821z"
       style="fill:#00bbf1"
       id="path3" /><g
       id="_565687440"><circle
         cx="2222"
         cy="8865"
         r="237"
         class="fil0"
         id="circle4" /><circle
         cx="9951"
         cy="8865"
         r="237"
         class="fil0"
         id="circle5" /></g><g
       id="_565682712"><path
         d="M4145 7582c-362-424-581-974-581-1575 0-1289 1006-2343 2275-2420v3950h-750V6307h-748c54 297 186 567 375 788l-570 487zm944-1875V4594c-386 246-664 646-748 1113z"
         class="fil1"
         id="path5" /><path
         d="M8640 6986c16-50 25-104 25-159 0-287-232-519-518-519H6890v2378c810-272 1456-901 1751-1700zM6139 2436c1314 54 2445 818 3020 1917 88 168 209 435 239 625 84 540-294 1029-730 1029 448 0 812 489 730 1029-23 145-105 347-168 482-549 1176-1721 2004-3091 2061zm750 893v2378h1256c287 0 519-232 519-519 0-55-9-109-25-159-295-799-941-1428-1751-1700zM5839 9579c-1905-79-3425-1647-3425-3572 0-1924 1520-3493 3425-3572v751c-1490 78-2675 1311-2675 2821s1185 2743 2675 2821z"
         class="fil1"
         id="path6" /></g></g></svg>
