<?xml version="1.0" encoding="UTF-8" standalone="no"?>
<svg
   width="185.821"
   height="219.594"
   viewBox="0 0 49.165 58.101"
   version="1.1"
   id="svg3"
   sodipodi:docname="boca-juniors.svg"
   inkscape:version="1.4.2 (f4327f4, 2025-05-13)"
   xmlns:inkscape="http://www.inkscape.org/namespaces/inkscape"
   xmlns:sodipodi="http://sodipodi.sourceforge.net/DTD/sodipodi-0.dtd"
   xmlns="http://www.w3.org/2000/svg"
   xmlns:svg="http://www.w3.org/2000/svg">
  <defs
     id="defs3" />
  <sodipodi:namedview
     id="namedview3"
     pagecolor="#ffffff"
     bordercolor="#000000"
     borderopacity="0.25"
     inkscape:showpageshadow="2"
     inkscape:pageopacity="0.0"
     inkscape:pagecheckerboard="0"
     inkscape:deskcolor="#d1d1d1"
     inkscape:zoom="3.6749639"
     inkscape:cx="92.926083"
     inkscape:cy="109.797"
     inkscape:window-width="1920"
     inkscape:window-height="1009"
     inkscape:window-x="-8"
     inkscape:window-y="-8"
     inkscape:window-maximized="1"
     inkscape:current-layer="svg3" />
  <path
     d="M73.7 15.9 56.9 3.5l-.7-.5-.7.7c-.3.3-6.1 5.8-16.8 5.8h-.2c-5.5 0-9.8-1.5-12.6-3-1.4-.7-2.5-1.5-3.2-2-.4-.3-.6-.5-.8-.7l-.2-.2-.6-.7-.7.5L3.3 15.7l-.4.3v.8c0 26.4 8.7 43.9 17.4 54.8 8.7 11 17.4 15.3 17.5 15.3l.5.2.5-.2c.1 0 8.9-4.3 17.7-15.2s17.6-28.5 17.6-55v-.5z"
     style="fill:#103f79"
     transform="matrix(.63375 0 0 .63375 .5 .5)"
     id="path1" />
  <path
     d="M37.8 86.1S3.4 69.3 3.5 17L20.4 4.7s6.1 6.2 17.6 6.2h.1c11.5 0 17.6-6.1 17.6-6.1l16.8 12.4c-.2 52.3-34.7 68.9-34.7 68.9m36.7-71.8L57.8 1.9 55.3.1l-2.2 2.1c-.1.2-5.3 5.1-15 5.1H38c-9.7 0-14.9-5-15.1-5.2L20.8 0l-2.5 1.8L1.5 14.1 0 15.2V17c-.1 54 34.8 71.6 36.2 72.3l.7.4.9.4.9-.4.7-.3c1.5-.7 36.4-18.2 36.6-72.1v-1.8z"
     style="fill:#f3b229"
     transform="matrix(.63375 0 0 .63375 .5 .5)"
     id="path2" />
  <path
     d="m 38,68.9 0.5,1.5 h 1.6 l -1.3,1 0.5,1.5 -1.3,-0.8 -1.3,0.9 0.5,-1.5 -1.3,-1 h 1.6 z m 8.1,0.9 0.5,1.5 h 1.6 l -1.3,1 0.5,1.5 -1.3,-0.8 -1.3,0.9 0.5,-1.5 -1.3,-1 h 1.6 z m -16.2,0 0.5,1.5 H 32 l -1.3,1 0.5,1.5 -1.3,-0.8 -1.3,0.9 0.5,-1.5 -1.3,-1 h 1.6 z m 4.4,3.7 0.5,1.5 h 1.6 l -1.3,1 0.5,1.5 -1.3,-0.9 -1.3,1 0.5,-1.5 -1.3,-1 h 1.6 z m 7.4,0 0.5,1.5 h 1.6 l -1.3,1 0.5,1.5 -1.3,-0.9 -1.3,0.9 0.5,-1.5 -1.3,-1 h 1.6 z m -3.7,3.9 0.5,1.5 h 1.6 l -1.3,1 0.5,1.5 -1.3,-0.8 -1.3,0.9 0.5,-1.5 -1.3,-1 h 1.6 z m 0,-16.7 0.5,1.5 h 1.6 l -1.3,1 0.5,1.5 -1.3,-0.9 -1.3,0.9 0.5,-1.5 -1.3,-1 h 1.6 z m -7.6,0.4 0.5,1.5 h 1.6 l -1.3,1 0.5,1.5 -1.3,-0.9 -1.4,1 0.5,-1.5 -1.3,-1 h 1.6 z m 15.3,0 0.5,1.5 h 1.6 l -1.3,1 0.5,1.5 -1.3,-0.9 -1.3,0.9 0.5,-1.5 -1.3,-1 h 1.6 z m -23,0.4 0.5,1.5 h 1.6 l -1.3,1 0.5,1.5 -1.3,-0.9 -1.3,0.9 0.5,-1.5 -1.3,-1 h 1.6 z m 30.6,0 0.5,1.5 h 1.6 l -1.3,1 0.5,1.5 -1.3,-0.9 -1.3,1 0.5,-1.5 -1.3,-1 h 1.6 z m -27.4,4.6 0.5,1.5 H 28 l -1.3,1 0.5,1.5 -1.3,-0.9 -1.3,0.9 0.5,-1.5 -1.3,-1 h 1.6 z m 24.2,0 0.5,1.5 h 1.6 l -1.3,1 0.5,1.5 -1.3,-0.9 -1.3,0.9 0.5,-1.5 -1.3,-1 h 1.6 z m -8.1,-1 0.5,1.5 h 1.6 l -1.3,1 0.5,1.5 -1.3,-0.9 -1.3,0.9 0.5,-1.5 -1.3,-1 h 1.6 z m -8,0 0.5,1.5 h 1.6 l -1.3,1 0.5,1.5 -1.3,-0.9 -1.3,0.9 0.5,-1.5 -1.3,-1 h 1.6 z m -7,-8.1 0.5,1.5 h 1.6 l -1.3,1 0.5,1.5 -1.3,-0.9 -1.4,0.9 0.5,-1.5 -1.3,-1 h 1.6 z m 22,0 0.5,1.5 h 1.6 l -1.3,1 0.5,1.5 -1.3,-0.9 -1.3,0.9 0.5,-1.5 -1.3,-1 h 1.6 z m -29.4,0.4 0.5,1.5 h 1.6 l -1.3,1 0.5,1.5 -1.3,-0.9 -1.3,0.9 0.5,-1.5 -1.3,-1 h 1.6 z m 36.8,0 0.5,1.5 h 1.6 l -1.3,1 0.5,1.5 -1.3,-0.9 -1.3,0.9 0.5,-1.5 -1.3,-1 h 1.6 z m -22.1,-1.3 0.5,1.5 h 1.6 l -1.3,1 0.5,1.5 -1.3,-0.9 -1.3,1 0.5,-1.5 -1.3,-1 h 1.6 z m 7.4,0 0.5,1.5 h 1.6 l -1.3,1 0.5,1.5 -1.3,-0.9 -1.3,0.9 0.5,-1.5 -1.3,-1 h 1.6 z m 17.8,-3.7 0.5,1.5 h 1.6 l -1.3,1 0.5,1.5 -1.3,-0.9 -1.3,0.9 0.5,-1.5 -1.3,-1 H 59 Z m -43,0 0.5,1.5 h 1.6 l -1.3,1 0.5,1.5 -1.3,-0.9 -1.3,0.9 0.5,-1.5 -1.3,-1 H 16 Z m 35.8,0 0.5,1.5 h 1.6 l -1.3,1 0.5,1.5 -1.3,-0.9 -1.3,1 0.5,-1.5 -1.3,-1 h 1.6 z m -28.6,0 0.5,1.5 h 1.6 l -1.3,1 0.4,1.5 -1.3,-0.9 -1.3,0.9 0.5,-1.5 -1.3,-1 h 1.6 z m 7.1,-0.4 0.5,1.5 h 1.6 l -1.3,1 0.4,1.5 -1.3,-0.9 -1.3,0.9 0.5,-1.5 -1.3,-1 h 1.6 z m 14.4,0 0.5,1.5 h 1.6 l -1.3,1 0.5,1.5 -1.3,-0.9 -1.3,0.9 0.5,-1.5 -1.3,-1 h 1.6 z m -7.2,-0.4 0.5,1.5 h 1.6 l -1.3,1 0.5,1.5 -1.3,-0.8 -1.3,0.9 0.5,-1.5 -1.3,-1 h 1.6 z m 17.4,-4.2 0.5,1.5 h 1.6 l -1.3,1 0.5,1.5 -1.3,-0.9 -1.3,0.9 0.5,-1.5 -1.3,-1 h 1.6 z m 6.1,0 0.5,1.5 h 1.6 l -1.3,1 0.5,1.5 -1.3,-0.9 -1.3,0.9 0.5,-1.5 -1.3,-1 H 61 Z m -47,0 0.5,1.5 h 1.6 l -1.3,1 0.5,1.5 -1.3,-0.9 -1.3,0.9 0.5,-1.5 -1.3,-1 H 14 Z m 33.9,0 0.5,1.5 h 1.6 l -1.3,1 0.5,1.5 -1.3,-0.9 -1.3,0.9 0.5,-1.5 -1.3,-1 h 1.6 z m -27.8,0 0.5,1.5 h 1.6 l -1.3,1 0.4,1.5 -1.3,-0.9 -1.3,0.9 0.5,-1.5 -1.3,-1 H 20 Z m 7,0 0.5,1.5 h 1.6 l -1.3,1 0.5,1.5 -1.3,-0.9 -1.3,0.9 0.5,-1.5 -1.3,-1 h 1.6 z m 13.9,0 0.5,1.5 h 1.6 l -1.3,1 0.5,1.5 -1.3,-0.9 -1.3,0.9 0.5,-1.5 -1.3,-1 H 41 Z m -7,0 0.5,1.5 h 1.6 l -1.3,1 0.5,1.5 -1.3,-0.9 -1.3,0.9 0.5,-1.5 -1.3,-1 H 34 Z m -6.2,-28.2 0.5,1.6 h 1.6 l -1.3,1 0.5,1.6 -1.3,-0.9 -1.3,0.9 0.5,-1.6 -1.3,-1 h 1.6 z m -6.5,-0.4 0.5,1.6 h 1.6 l -1.3,1 0.5,1.6 -1.4,-1 -1.3,0.9 0.5,-1.6 -1.3,-1 h 1.6 z m -13,0 0.5,1.6 h 1.6 l -1.3,1 0.4,1.6 -1.3,-1 -1.3,0.9 0.5,-1.6 -1.3,-1 h 1.6 z m 6.5,0 0.5,1.6 h 1.6 l -1.3,1 0.5,1.6 -1.3,-1 -1.3,0.9 0.5,-1.6 -1.3,-1 h 1.6 z m 19.5,0.4 0.5,1.6 h 1.6 l -1.3,1 0.5,1.6 -1.3,-0.9 -1.3,0.9 0.5,-1.6 -1.3,-1 h 1.6 z m 6.4,0 0.5,1.6 h 1.6 l -1.3,1 0.5,1.6 -1.3,-0.9 -1.3,0.9 0.5,-1.6 -1.3,-1 h 1.6 z m 6.5,0 0.5,1.6 h 1.6 l -1.3,1 0.5,1.6 -1.3,-0.9 -1.3,0.9 0.5,-1.6 -1.3,-1 h 1.6 z m 6.5,-0.4 0.5,1.6 h 1.6 l -1.3,1 0.5,1.6 -1.2,-1 -1.3,0.9 0.5,-1.6 -1.3,-1 h 1.6 z m 13,0 0.5,1.6 h 1.6 l -1.3,1 0.5,1.6 -1.3,-1 -1.3,1 0.4,-1.6 -1.3,-1 h 1.6 z m -6.5,0 0.5,1.6 h 1.6 l -1.3,1 0.5,1.6 -1.3,-1 -1.3,0.9 0.5,-1.6 -1.3,-1 h 1.6 z M 20.4,8.5 l 0.5,1.6 h 1.6 l -1.3,1 0.5,1.6 -1.3,-0.9 -1.3,0.9 0.5,-1.6 -1.3,-1 h 1.6 z m 35.2,0 0.5,1.6 h 1.6 l -1.3,1 0.5,1.6 -1.3,-0.9 -1.3,0.9 0.5,-1.6 -1.3,-1 h 1.6 z m -42,5 0.5,1.6 h 1.6 l -1.3,1 0.5,1.6 -1.3,-0.9 -1.3,0.9 0.5,-1.6 -1.3,-1 h 1.6 z m 20.9,0.8 0.5,1.5 h 1.6 l -1.3,1 0.5,1.6 -1.3,-0.9 -1.3,0.9 0.5,-1.6 -1.3,-1 H 34 Z m 7,0 0.5,1.5 h 1.6 l -1.3,1 0.5,1.6 -1.3,-0.9 -1.3,0.9 0.5,-1.6 -1.3,-1 H 41 Z m -20.9,-0.4 0.5,1.6 h 1.6 l -1.3,1 0.5,1.6 -1.3,-0.9 -1.3,0.8 0.5,-1.6 -1.3,-1 h 1.6 z m 6.9,0 0.5,1.6 h 1.6 l -1.3,1 0.5,1.6 -1.3,-0.9 -1.3,0.8 0.5,-1.6 -1.3,-1 H 27 Z m 34.9,-0.4 0.5,1.6 h 1.6 l -1.3,1 0.5,1.6 -1.3,-0.9 -1.3,0.9 0.5,-1.6 -1.3,-1 h 1.6 z m -13.9,0.4 0.5,1.5 h 1.6 l -1.3,1 0.5,1.6 -1.3,-0.9 -1.4,0.9 0.5,-1.6 -1.3,-1 h 1.6 z m 6.9,0 0.5,1.6 h 1.6 l -1.3,1 0.5,1.6 -1.3,-0.9 -1.3,0.8 0.5,-1.6 -1.3,-1 h 1.6 z m -26.8,10.4 0.5,1.5 h 1.6 l -1.3,1 0.5,1.6 -1.3,-0.9 -1.3,0.9 0.5,-1.6 -1.3,-1 h 1.6 z m -6.3,0 0.5,1.6 h 1.6 l -1.3,1 0.5,1.6 -1.3,-0.9 -1.3,0.8 0.5,-1.6 -1.3,-1 h 1.6 z m -6.3,0 0.5,1.6 h 1.6 l -1.3,1 0.5,1.6 -1.3,-1 -1.3,0.9 0.5,-1.6 -1.3,-1 h 1.6 z m -6.3,0 0.5,1.6 h 1.6 l -1.3,1 0.4,1.6 -1.3,-0.9 -1.3,0.9 0.5,-1.6 -1.3,-1 h 1.6 z m 25.2,0 0.5,1.6 H 37 l -1.3,1 0.5,1.6 -1.3,-0.9 -1.3,0.9 0.5,-1.6 -1.3,-1 h 1.6 z m 6.2,0 0.5,1.6 h 1.6 l -1.3,1 0.5,1.6 -1.3,-0.9 -1.3,0.9 0.5,-1.6 -1.3,-1 h 1.6 z m 12.6,0 0.5,1.5 h 1.6 l -1.3,1 0.5,1.6 -1.3,-0.9 -1.3,0.9 0.5,-1.6 -1.3,-1 h 1.6 z m 6.3,0 0.5,1.6 h 1.6 l -1.3,1 0.5,1.6 -1.3,-1 -1.3,0.9 0.5,-1.6 -1.3,-1 h 1.6 z m 6.3,0 0.5,1.6 h 1.6 l -1.3,1 0.5,1.6 -1.3,-0.9 -1.3,0.8 0.4,-1.6 -1.3,-1 h 1.6 z m -18.9,0 0.5,1.6 h 1.6 l -1.3,1 0.5,1.6 -1.3,-0.9 -1.3,0.9 0.5,-1.6 -1.3,-1 h 1.6 z"
     style="fill:#f3b229"
     transform="matrix(0.63375,0,0,0.63375,0.5,0.5)"
     id="path3"
     sodipodi:nodetypes="cccccccccccccccccccccccccccccccccccccccccccccccccccccccccccccccccccccccccccccccccccccccccccccccccccccccccccccccccccccccccccccccccccccccccccccccccccccccccccccccccccccccccccccccccccccccccccccccccccccccccccccccccccccccccccccccccccccccccccccccccccccccccccccccccccccccccccccccccccccccccccccccccccccccccccccccccccccccccccccccccccccccccccccccccccccccccccccccccccccccccccccccccccccccccccccccccccccccccccccccccccccccccccccccccccccccccccccccccccccccccccccccccccccccccccccccccccccccccccccccccccccccccccccccccccccccccccccccccccccccccccccccccccccccccccccccccccccccccccccccccccccccccccccccccccccccccccccccccccccccccccccccccccccccccccccccccccccccccccccccccccccccccccccccccccccccccccccccccccccccccccccccccccccccccccccccccccccccccccccccccccccc" />
</svg>
