<?xml version="1.0" encoding="UTF-8" standalone="no"?>
<svg
   width="350"
   height="442"
   version="1.1"
   id="svg4"
   sodipodi:docname="club-atletico-platanense.svg"
   inkscape:version="1.4.2 (f4327f4, 2025-05-13)"
   xmlns:inkscape="http://www.inkscape.org/namespaces/inkscape"
   xmlns:sodipodi="http://sodipodi.sourceforge.net/DTD/sodipodi-0.dtd"
   xmlns="http://www.w3.org/2000/svg"
   xmlns:svg="http://www.w3.org/2000/svg">
  <defs
     id="defs4" />
  <sodipodi:namedview
     id="namedview4"
     pagecolor="#ffffff"
     bordercolor="#000000"
     borderopacity="0.25"
     inkscape:showpageshadow="2"
     inkscape:pageopacity="0.0"
     inkscape:pagecheckerboard="0"
     inkscape:deskcolor="#d1d1d1"
     inkscape:zoom="1.8257919"
     inkscape:cx="174.99257"
     inkscape:cy="221"
     inkscape:window-width="1920"
     inkscape:window-height="1009"
     inkscape:window-x="-8"
     inkscape:window-y="-8"
     inkscape:window-maximized="1"
     inkscape:current-layer="g3" />
  <g
     style="display:inline"
     id="g4">
    <path
       d="M376.916 532.832s-.272.32-.837.49c-.564.171-.929.113-.929.113s-.202 1.198.35 2.373c.551 1.175 1.424 1.57 1.424 1.57s.874-.395 1.426-1.57.349-2.373.349-2.373-.365.058-.93-.112c-.564-.17-.853-.49-.853-.49"
       style="fill:#fff;fill-opacity:1;stroke:none"
       transform="matrix(88.51013 0 0 88.51013 -33187.266 -47138.76)"
       id="path1" />
    <path
       d="m376.914 532.698-.065.077s-.253.3-.796.463c-.548.166-.89.11-.89.11l-.085-.014-.015.087s-.208 1.22.356 2.424c.564 1.2 1.469 1.613 1.469 1.613l.036.017.037-.017s.906-.412 1.47-1.613c.564-1.203.354-2.425.354-2.425l-.014-.086-.086.014s-.34.056-.89-.11c-.543-.164-.813-.465-.813-.465zm.003.257c.11.098.355.29.73.42l-2.34 1.59a4.3 4.3 0 0 1-.078-1.436c.145.008.458.004.876-.122.43-.13.698-.345.812-.452m1.704 1.554a4 4 0 0 1-.351 1.262c-.505 1.074-1.248 1.459-1.345 1.506-.079-.038-.563-.29-1.012-.93z"
       style="fill:#5c3919;fill-opacity:1;stroke:none"
       transform="matrix(88.51013 0 0 88.51013 -33187.266 -47138.76)"
       id="path2" />
    <g
       style="font-size:57.90471268px;font-style:normal;font-variant:normal;font-weight:400;font-stretch:normal;text-align:center;line-height:125%;letter-spacing:0;word-spacing:0;text-anchor:middle;fill:#fff;fill-opacity:1;stroke:none;font-family:Vipnagorgialla;-inkscape-font-specification:Vipnagorgialla"
       id="g3" />
  </g>
</svg>
