<?xml version="1.0" encoding="UTF-8" standalone="no"?>
<svg
   width="250"
   height="250"
   version="1.1"
   id="svg2"
   sodipodi:docname="defensa-y-justicia.svg"
   inkscape:version="1.4.2 (f4327f4, 2025-05-13)"
   xmlns:inkscape="http://www.inkscape.org/namespaces/inkscape"
   xmlns:sodipodi="http://sodipodi.sourceforge.net/DTD/sodipodi-0.dtd"
   xmlns="http://www.w3.org/2000/svg"
   xmlns:svg="http://www.w3.org/2000/svg">
  <defs
     id="defs2" />
  <sodipodi:namedview
     id="namedview2"
     pagecolor="#ffffff"
     bordercolor="#000000"
     borderopacity="0.25"
     inkscape:showpageshadow="2"
     inkscape:pageopacity="0.0"
     inkscape:pagecheckerboard="0"
     inkscape:deskcolor="#d1d1d1"
     inkscape:zoom="3.228"
     inkscape:cx="125"
     inkscape:cy="125"
     inkscape:window-width="1920"
     inkscape:window-height="1009"
     inkscape:window-x="-8"
     inkscape:window-y="-8"
     inkscape:window-maximized="1"
     inkscape:current-layer="svg2" />
  <path
     d="m 242.68,287.596 c -1.089,-0.87 -4.36,-2.28 -18.434,-6.404 -21.486,-6.297 -48.011,-16.77 -59.754,-23.594 -20.522,-11.925 -32.237,-27.891 -36.366,-49.564 -1.552,-8.143 -1.801,-11.842 -1.78,-26.4 0.011,-7.568 0.186,-16.28 0.389,-19.36 0.203,-3.08 0.541,-10.658 0.752,-16.841 0.902,-26.427 -1.437,-44.312 -7.945,-60.759 -5.37,-13.572 -12.624,-24.459 -23.951,-35.953 l -4.843,-4.912 3.119,-3.026 c 6.41,-6.22 10.737,-14.15 12.692,-23.258 0.744,-3.465 0.758,-11.869 0.025,-15.09 -0.28,-1.233 -0.489,-2.26 -0.464,-2.284 0.025,-0.024 1.463,0.05 3.195,0.164 14.49,0.959 31.637,-5.236 41.522,-15 1.514,-1.497 3.082,-3.153 3.485,-3.68 0.496,-0.652 0.78,-0.823 0.884,-0.531 0.084,0.236 0.766,1.343 1.515,2.46 6.609,9.856 19.8,18.494 37.556,24.594 22.858,7.852 48.423,9.986 73.192,6.108 25.636,-4.014 48.448,-14.286 59.26,-26.683 1.901,-2.18 4.3,-5.545 4.653,-6.526 0.08,-0.224 0.441,0.016 0.869,0.577 1.627,2.136 6.408,6.516 9.116,8.35 3.831,2.597 6.403,3.996 10.475,5.702 8.393,3.517 17.409,5.159 25.415,4.63 1.732,-0.115 3.17,-0.19 3.195,-0.165 0.025,0.025 -0.183,1.051 -0.464,2.283 -0.739,3.25 -0.719,11.624 0.037,15.148 2.098,9.789 7.24,18.69 14.376,24.888 l 1.514,1.316 -3.87,3.804 c -18.581,18.27 -28.649,38.785 -31.94,65.084 -1.517,12.131 -1.591,22.904 -0.34,49.44 0.985,20.904 0.82,31.506 -0.652,41.76 -1.226,8.537 -3.32,15.583 -6.717,22.603 -7.41,15.308 -19.967,26.66 -39.83,36.01 -13.124,6.176 -33.818,13.866 -50.72,18.846 -13.917,4.1 -16.87,5.413 -17.954,6.263 -0.253,0.198 -0.606,0.438 -0.606,0.438 0,0 -0.358,-0.24 -0.605,-0.438"
     style="fill:#00722d;fill-opacity:1;stroke-width:0.32"
     transform="matrix(0.81922,0,0,0.81415,-74.343,15.496)"
     id="path1"
     sodipodi:nodetypes="cccccscccccccscccccccccccccscccccccccccccc" />
  <path
     d="m 242.646,280.384 c -0.873,-0.496 -5.187,-1.876 -12.48,-3.992 -12.87,-3.734 -24.785,-7.765 -35.922,-12.155 -23.598,-9.3 -33.032,-14.7 -42.806,-24.502 -5.23,-5.242 -7.974,-8.895 -10.836,-14.42 -5.985,-11.553 -8.145,-22.943 -8.102,-42.72 0.012,-5.633 0.257,-14.489 0.544,-19.68 0.732,-13.269 0.988,-34.307 0.504,-41.473 -2.074,-30.696 -11.267,-53.168 -30.19,-73.796 -3.134,-3.415 -3.446,-3.862 -3.06,-4.38 0.235,-0.319 1.269,-1.689 2.296,-3.046 6.672,-8.812 11.092,-20.588 11.092,-29.55 V 7.166 l 2.8,-0.214 c 7.365,-0.562 17.337,-3.701 25.68,-8.085 3.533,-1.856 8.571,-5.124 10.703,-6.942 l 1.262,-1.077 3.117,3.117 c 12.736,12.736 34.83,22.363 60.918,26.544 8.906,1.427 13.648,1.76 25.12,1.76 11.472,0 16.214,-0.333 25.12,-1.76 21.09,-3.38 39.92,-10.445 53.12,-19.93 3.186,-2.29 7.529,-6.085 9.27,-8.103 l 1.49,-1.725 1.764,1.437 c 9.198,7.493 24.864,13.912 36.036,14.764 l 2.8,0.214 v 3.504 c 0,8.904 4.444,20.8 10.996,29.434 0.8061,1.060322 1.6091,2.122994 2.409,3.188 0.403,0.544 0.255,0.797 -1.606,2.75 -12.943,13.588 -21.847,28.818 -26.67,45.622 -5.123,17.85 -6.259,34.346 -4.654,67.57 0.758,15.69 0.898,30.502 0.347,36.8 -0.965,11.054 -3.043,19.457 -6.726,27.2 -3.263,6.863 -6.757,11.681 -12.538,17.29 -7.93,7.695 -17.169,13.365 -31.798,19.513 -15.597,6.556 -30.692,11.878 -47.2,16.642 -5.23,1.51 -9.514,2.881 -11.84,3.79 -0.264,0.104 -0.696,0.065 -0.96,-0.085 m 5.853,-11.513 c 2.853,-0.86 7.203,-2.162 9.667,-2.894 16.992,-5.044 38.863,-13.293 50.214,-18.938 20.206,-10.05 30.61,-22.52 34.43,-41.266 1.922,-9.427 2.272,-23.939 1.101,-45.579 -0.43,-7.947 -0.623,-15.813 -0.624,-25.363 0,-9.108 -0.11,-13.796 -0.32,-13.705 -0.177,0.076 -21.705,10.168 -47.84,22.427 -56.28,26.396 -59.655,27.978 -89.3,41.859 l -49.638,23.261 -10.457,4.903 0.5,1.31 c 5.23,13.697 15.101,23.707 31.446,31.888 11.537,5.774 32.5,13.743 49.608,18.857 3.08,0.921 7.832,2.363 10.56,3.204 2.728,0.84 5.074,1.545 5.213,1.564 0.139,0.019 2.587,-0.668 5.44,-1.528 m 4.678,-201.454 c 60.264,-28.26 109.692,-51.383 109.84,-51.383 0.148,0 0.27,-0.124 0.27,-0.276 0,-0.152 -0.613,-0.36 -1.36,-0.464 -2.032,-0.28 -8.669,-2.25 -12.1,-3.592 -4.26,-1.666 -10.381,-4.615 -13.541,-6.524 -1.479,-0.893 -2.793,-1.624 -2.92,-1.624 -0.127,0 -1.475,0.992 -2.995,2.205 -16.99,13.548 -42.765,22.716 -71.775,25.531 -6.878,0.668 -22.42,0.751 -29.07,0.157 -29.615,-2.649 -56.041,-11.907 -73.324,-25.688 -1.52,-1.213 -2.869,-2.205 -2.996,-2.205 -0.127,0 -1.44,0.731 -2.92,1.624 -7.046,4.257 -17.775,8.524 -25.24,10.038 -1.877,0.381 -1.926,0.418 -2.193,1.644 -2.089,9.606 -4.796,16.701 -9.044,23.698 -0.771,1.271 -1.403,2.43 -1.402,2.574 0,0.144 1.078,1.558 2.396,3.142 11.782,14.163 19.73,29.832 24.115,47.54 1.861,7.514 3.886,20.149 3.888,24.255 0,0.737 0.126,1.02 0.4,0.903 0.22,-0.094 49.707,-23.294 109.97,-51.554"
     style="fill:#ffdd00;fill-opacity:1;stroke-width:0.32"
     transform="matrix(0.81922,0,0,0.81415,-74.343,15.496)"
     id="path2"
     sodipodi:nodetypes="cccccccccccscccccscsccccsccsccccscccccccccccsccccccccccsccsscccsccccscccccccccc" />
</svg>
