<?xml version="1.0" encoding="UTF-8" standalone="no"?>
<svg
   width="500"
   height="577.835"
   viewBox="0 0 38.551 44.552"
   version="1.1"
   id="svg6"
   sodipodi:docname="deportivo-riestra.svg"
   inkscape:version="1.4.2 (f4327f4, 2025-05-13)"
   xmlns:inkscape="http://www.inkscape.org/namespaces/inkscape"
   xmlns:sodipodi="http://sodipodi.sourceforge.net/DTD/sodipodi-0.dtd"
   xmlns="http://www.w3.org/2000/svg"
   xmlns:svg="http://www.w3.org/2000/svg">
  <defs
     id="defs6" />
  <sodipodi:namedview
     id="namedview6"
     pagecolor="#ffffff"
     bordercolor="#000000"
     borderopacity="0.25"
     inkscape:showpageshadow="2"
     inkscape:pageopacity="0.0"
     inkscape:pagecheckerboard="0"
     inkscape:deskcolor="#d1d1d1"
     inkscape:zoom="1.3965924"
     inkscape:cx="250.25197"
     inkscape:cy="288.91751"
     inkscape:window-width="1920"
     inkscape:window-height="1009"
     inkscape:window-x="-8"
     inkscape:window-y="-8"
     inkscape:window-maximized="1"
     inkscape:current-layer="g6" />
  <g
     fill-rule="evenodd"
     clip-rule="evenodd"
     id="g6">
    <path
       fill="#262526"
       d="M22.718 0h-6.884c-.453 1.993-3.855 2.957-10.191 2.891L0 7.571c2.905 5.27 3.446 10.6 1.642 16q-2.737 8.095 6.045 12.017c5.212 2.343 9.081 5.329 11.592 8.964 2.504-3.635 6.373-6.62 11.607-8.964 5.833-2.614 7.848-6.621 6.03-12.016-1.803-5.402-1.27-10.731 1.635-16.002L32.91 2.891C26.572 2.957 23.17 1.993 22.718 0"
       id="path1" />
    <path
       fill="#fff"
       d="M16.44.825h5.672c.912 1.971 4.409 2.935 10.504 2.89l4.891 4.06c-2.745 5.3-3.212 10.643-1.38 16.053 1.643 4.934-.233 8.591-5.59 11-4.929 2.22-8.688 4.987-11.258 8.322-2.577-3.335-6.336-6.102-11.264-8.321-5.358-2.41-7.227-6.067-5.592-11.001 1.833-5.41 1.365-10.753-1.38-16.053l4.906-4.06q9.133.067 10.49-2.89"
       id="path2" />
    <path
       fill="#262526"
       d="M21.382 2.066h-4.198C15.82 3.98 12.228 4.942 6.387 4.956L2.6 8.11c2.496 5.315 2.84 10.68 1.007 16.119v-.015c-1.358 4.242.278 7.41 4.92 9.49a.6.6 0 0 1 .11.059c4.496 2.022 8.037 4.496 10.643 7.446 2.599-2.95 6.154-5.424 10.65-7.446a.24.24 0 0 1 .103-.059c4.635-2.08 6.278-5.248 4.927-9.49v.015c-1.832-5.438-1.503-10.804 1.008-16.119l-3.803-3.153q-8.759-.022-10.782-2.89"
       id="path3" />
    <path
       fill="#fff"
       d="M17.6 2.891h3.373c1.555 1.883 5.19 2.854 10.891 2.89l3.081 2.563c-1.007 2.27-1.635 4.54-1.876 6.84-.314 3.08.044 6.183 1.102 9.307 0 .015 0 .044.015.06.154.48.248.933.321 1.386q.589 4.588-4.81 7.008h-.008q-.089.046-.167.08c-4.242 1.92-7.658 4.242-10.242 6.957-2.592-2.715-6.008-5.037-10.25-6.957a2 2 0 0 1-.16-.08c-3.614-1.614-5.205-3.95-4.803-7.008.05-.453.146-.905.299-1.387.014-.015.014-.044.03-.059 1.043-3.124 1.4-6.227 1.08-9.307-.227-2.3-.847-4.57-1.854-6.84l3.073-2.562c5.7-.037 9.336-1.008 10.905-2.891"
       id="path4" />
    <path
       fill="#262526"
       d="M33.07 15.184H5.474c-.169 4.174-1.496 7.414-1.41 10.753h30.442c-.196-3.11-.939-7.154-1.438-10.753m-8.608-4.89v-.672h1.409v-.825h-2.358v3.854h.95v-1.57h1.211v-.788Zm-11.25-1.497H12.17L11 12.65h.993l.146-.635h1.073l.168.635h.993zm-.189 2.365h-.686l.343-1.358zm2.548 1.489v-1.073h-.92v1.073zm11.03 0v-1.073h-.927v1.073zm1.292 18.63h-.92v1.073h.92zm-13.716-.03a1.3 1.3 0 0 0-.146-.606.78.78 0 0 0-.482-.328q.208-.133.328-.278a.93.93 0 0 0 .176-.576 4 4 0 0 0-.037-.321 1 1 0 0 0-.219-.358q-.206-.262-.599-.285c-.022-.014-.05-.014-.094 0H11.33v3.855h1.635c.073 0 .226-.015.43-.044.168-.037.293-.08.373-.14a.9.9 0 0 0 .3-.379c.072-.167.101-.35.109-.54m-1.154-1.883c.044.051.059.124.066.219v.051q0 .186-.066.263c-.066.073-.182.11-.328.124h-.416v-.745h.438q.207-.021.306.088m.19 1.745c0 .124-.022.218-.08.292-.066.065-.19.11-.358.124h-.496v-.789h.496c.168-.014.292.03.358.11.058.073.08.168.08.263m2.424.168h-.92v1.073h.92zm9.862-2.796a1.6 1.6 0 0 0-.467-.059c-.183 0-.336.015-.482.059-.277.08-.496.233-.679.452a.3.3 0 0 0-.065.095c-.234.35-.359.803-.344 1.394q-.02.721.234 1.168c.146.321.328.526.547.65s.497.175.84.175a1.7 1.7 0 0 0 .679-.16c.175-.095.328-.234.452-.446.124-.204.205-.438.249-.715l-.825-.314q-.066.352-.198.562c-.094.124-.233.182-.408.182-.212-.014-.358-.087-.46-.233q-.144-.252-.146-.898c0-.343.036-.591.139-.744 0-.015 0-.022.007-.037.11-.197.263-.292.474-.292a.7.7 0 0 1 .27.066c.073.058.124.124.197.226.037.036.066.124.095.248l.84-.226c-.074-.234-.14-.424-.234-.577a1.7 1.7 0 0 0-.277-.343 1 1 0 0 0-.438-.233"
       id="path5" />
  </g>
</svg>
