<?xml version="1.0" encoding="UTF-8" standalone="no"?>
<svg
   width="350"
   height="575"
   version="1.1"
   id="svg3"
   sodipodi:docname="estudiantes-de-la-plata.svg"
   inkscape:version="1.4.2 (f4327f4, 2025-05-13)"
   xmlns:inkscape="http://www.inkscape.org/namespaces/inkscape"
   xmlns:sodipodi="http://sodipodi.sourceforge.net/DTD/sodipodi-0.dtd"
   xmlns="http://www.w3.org/2000/svg"
   xmlns:svg="http://www.w3.org/2000/svg">
  <defs
     id="defs3" />
  <sodipodi:namedview
     id="namedview3"
     pagecolor="#ffffff"
     bordercolor="#000000"
     borderopacity="0.25"
     inkscape:showpageshadow="2"
     inkscape:pageopacity="0.0"
     inkscape:pagecheckerboard="0"
     inkscape:deskcolor="#d1d1d1"
     inkscape:zoom="1.4034783"
     inkscape:cx="174.92255"
     inkscape:cy="287.5"
     inkscape:window-width="1920"
     inkscape:window-height="1009"
     inkscape:window-x="-8"
     inkscape:window-y="-8"
     inkscape:window-maximized="1"
     inkscape:current-layer="svg3" />
  <path
     d="M245.5 826.823c-17.021-21.433-34.49-36.78-51.709-45.428-17.745-8.912-32.094-12.264-65.791-15.37-37.826-3.488-55.06-7.157-72.623-15.463-26.006-12.3-41.868-29.804-49.6-54.733L3.506 688.5 3.24 445.25 2.972 202H505.04l-.27 242.25-.272 242.25-2.257 7.942c-9.007 31.702-33.642 53.753-71.504 64.003-12.282 3.326-23.738 5.034-50.736 7.566-12.375 1.16-27.171 3.01-32.88 4.11-31.665 6.104-56.221 21.746-80.361 51.19-4.543 5.54-9.384 11.313-10.759 12.83l-2.5 2.755zM212 143.63l11.718-48.67L187.866 62.5l50.369-1 15.552-49.936L269.665 61.5l50.163 1L284 94.961l10.752 48.67-41.705-23.2z"
     style="fill:#a8976d"
     transform="matrix(.69712 0 0 .69669 -2.072 -8.056)"
     id="path1" />
  <path
     d="M243 799.77c-19.956-21.118-37.055-32.527-60.34-40.26-13.059-4.337-22.528-6.233-40.03-8.017-7.771-.792-20.88-2.135-29.13-2.984-25.503-2.624-39.779-6.438-56.68-15.142-7.368-3.795-11.117-6.587-17.899-13.333C29.64 710.8 26.302 705.614 22.17 694l-2.669-7.5-.262-234.25L18.975 218h470.058l-.27 233.25c-.254 218.964-.378 233.617-2.026 239.25-8.71 29.788-34.732 48.986-75.737 55.877-5.225.878-19.5 2.514-31.722 3.636-35.025 3.215-51.61 6.898-69.679 15.472-16.143 7.66-36.55 23.62-49.099 38.398-3.3 3.886-6.225 7.05-6.5 7.032s-5.225-5.033-11-11.145"
     style="fill:#ec1b23"
     transform="matrix(.69712 0 0 .69669 -2.072 -8.056)"
     id="path2" />
  <path
     d="m 245.262,780.029 c -4.53,-4.341 -12.068,-10.676 -16.75,-14.078 L 220,759.767 V 365 h 67 l -0.07,197.75 -0.07,197.75 -9.18,6.752 c -5.049,3.714 -12.543,9.902 -16.653,13.75 -4.11,3.85 -7.485,6.98 -7.5,6.959 -0.015,-0.021 -3.734,-3.592 -8.265,-7.932 M 142,735.9 c -4.125,-0.458 -14.531,-1.522 -23.125,-2.365 -8.594,-0.843 -19.506,-2.288 -24.25,-3.21 L 86,728.646 V 365 h 67 v 186 c 0,176.527 -0.09,185.993 -1.75,185.866 -0.962,-0.073 -5.125,-0.508 -9.25,-0.965 M 355,551.045 V 365 h 67.005 l -0.252,181.678 -0.253,181.678 -2.9,0.776 c -6.6,1.765 -22.182,3.89 -39.1,5.331 -9.9,0.844 -19.462,1.78 -21.25,2.08 l -3.25,0.548 z"
     style="fill:#fefdfd"
     transform="matrix(0.69712,0,0,0.69669,-2.072,-8.056)"
     id="path3"
     sodipodi:nodetypes="cccccccccsccsccccscccccccccccc" />
</svg>
