<?xml version="1.0" encoding="UTF-8" standalone="no"?>
<svg
   xml:space="preserve"
   width="612"
   height="612"
   version="1.1"
   id="svg15"
   sodipodi:docname="godoy-cruz.svg"
   inkscape:version="1.4.2 (f4327f4, 2025-05-13)"
   xmlns:inkscape="http://www.inkscape.org/namespaces/inkscape"
   xmlns:sodipodi="http://sodipodi.sourceforge.net/DTD/sodipodi-0.dtd"
   xmlns="http://www.w3.org/2000/svg"
   xmlns:svg="http://www.w3.org/2000/svg"><defs
     id="defs15" /><sodipodi:namedview
     id="namedview15"
     pagecolor="#ffffff"
     bordercolor="#000000"
     borderopacity="0.25"
     inkscape:showpageshadow="2"
     inkscape:pageopacity="0.0"
     inkscape:pagecheckerboard="0"
     inkscape:deskcolor="#d1d1d1"
     inkscape:zoom="1.3186275"
     inkscape:cx="306"
     inkscape:cy="306"
     inkscape:window-width="1920"
     inkscape:window-height="1009"
     inkscape:window-x="-8"
     inkscape:window-y="-8"
     inkscape:window-maximized="1"
     inkscape:current-layer="g15" /><g
     fill-rule="evenodd"
     clip-rule="evenodd"
     id="g15"><path
       fill="#352F29"
       d="M8.109 296.507v20.851c.227.357 1.132 15.076 1.196 16.678.194 4.893 1.15 11.277 1.966 15.907 1.92 10.887 3.24 20.145 5.839 30.205 4.542 17.583 11.37 38 18.9 52.889 7.824 15.471 16.296 32.313 26.396 45.395 2.645 3.426 4.947 6.831 7.583 10.291 2.615 3.433 5.727 6.752 8.124 10.046 4.121 5.662 12.074 13.712 17.203 18.842 5.188 5.188 12.877 12.774 18.662 17.084 3.421 2.547 6.393 5.394 9.887 7.986 3.525 2.615 7.022 5.043 10.468 7.702 13.134 10.141 29.913 18.633 45.359 26.432 7.366 3.719 17.118 7.583 25.277 10.468 9.093 3.216 17.847 5.53 27.575 8.47 8.984 2.713 20.114 4.324 30.189 5.854 4.376.664 11.059 1.878 15.856 2.018 1.635.047 16.61.958 16.979 1.191h20.852c.356-.227 15.076-1.132 16.678-1.195 4.894-.195 11.276-1.15 15.905-1.967 10.888-1.92 20.146-3.239 30.206-5.839 17.615-4.549 37.976-11.356 52.891-18.9 15.47-7.822 32.313-16.295 45.394-26.395 3.426-2.645 6.831-4.946 10.292-7.583 3.433-2.614 6.752-5.726 10.045-8.123 5.663-4.121 13.712-12.075 18.842-17.203 5.188-5.188 12.775-12.878 17.084-18.663 2.548-3.42 5.395-6.391 7.986-9.886 2.617-3.525 5.045-7.022 7.702-10.468 10.141-13.134 18.634-29.913 26.433-45.359 3.691-7.312 7.604-17.184 10.468-25.277 1.468-4.149 2.818-9.371 4.422-13.451 1.71-4.354 2.468-9.518 4.047-14.124 1.369-3.993 2.238-10.177 3.28-14.593 1.166-4.937 1.782-10.379 2.573-15.597.666-4.375 1.88-11.058 2.019-15.855.048-1.635.959-16.611 1.191-16.979v-20.851c-.232-.369-1.144-15.345-1.191-16.979-.139-4.798-1.353-11.48-2.019-15.855-.791-5.218-1.407-10.661-2.573-15.598-1.042-4.415-1.911-10.599-3.28-14.591-1.588-4.631-2.359-9.691-4.051-14.12-1.604-4.197-2.926-9.237-4.418-13.456-2.863-8.094-6.776-17.966-10.468-25.278-7.799-15.446-16.292-32.226-26.433-45.359-2.657-3.445-5.085-6.942-7.702-10.468-2.592-3.495-5.438-6.465-7.986-9.886-4.309-5.786-11.896-13.474-17.084-18.662-5.13-5.129-13.179-13.083-18.842-17.204-3.293-2.397-6.612-5.509-10.045-8.124-3.461-2.636-6.866-4.937-10.292-7.582-13.081-10.1-29.924-18.573-45.394-26.396-14.915-7.543-35.275-14.351-52.891-18.9-10.06-2.599-19.318-3.918-30.206-5.838-4.629-.816-11.012-1.772-15.905-1.966-1.602-.064-16.321-.97-16.678-1.196h-20.852c-.369.233-15.344 1.144-16.979 1.191-4.797.14-11.48 1.354-15.856 2.018-9.975 1.514-21.279 3.164-30.189 5.855-9.741 2.942-18.473 5.25-27.575 8.469-8.16 2.885-17.912 6.749-25.277 10.468-15.447 7.798-32.225 16.291-45.359 26.431-3.445 2.659-6.943 5.087-10.468 7.703-3.494 2.593-6.466 5.439-9.887 7.987-5.785 4.308-13.474 11.896-18.662 17.084-5.129 5.129-13.082 13.179-17.203 18.841-2.397 3.294-5.509 6.614-8.124 10.046-2.636 3.46-4.938 6.865-7.583 10.291-10.099 13.082-18.572 29.925-26.396 45.395-3.595 7.108-7.902 17.648-10.513 25.53-1.391 4.199-2.844 9.359-4.457 13.417-1.609 4.048-2.634 9.737-3.94 13.934-2.805 9.011-4.046 20.107-5.83 30.214-.816 4.63-1.771 11.014-1.966 15.907-.063 1.6-.969 16.319-1.195 16.676M304.205 56.412c0-3.635-8.046-17.013-8.341-20.554h7.447c1.157 0 2.402 5.294 2.798 6.437.478 1.376 1.94 6.036 1.968 7.266h.596l4.302-13.363 8.209-.042-9.595 19.182-.234 12.99h-7.149V56.412zm28.001.596c0-9.172 5.451-17.873 14.299-17.873h4.169c1.515 0 4.606 1.229 5.66 1.788l-1.821 5.648c-1.712-.134-3.181-1.478-5.922-1.478-5.58 0-8.639 5.588-8.639 11.319v1.192c0 4.78 3.815 8.34 8.639 8.34h2.083c.805 0 .821-.142 1.49-.297v5.361c0 .686-.208.894-.893.894h-4.47c-8.596 0-14.595-6.271-14.595-14.894m22.358 495.765 20.242-4.245c-.005 4.689 1.369 2.116-.064 7.372-.583 2.139-1.638 4.652-2.368 6.866-.858 2.601-4.241 11.567-4.422 13.749l12.185-2.518 1.31 6.073-21.53 4.522c-.006-1.854-.604-2.311-.604-3.907 0-1.148 3.312-10.376 3.911-12.175.701-2.102 3.691-10.244 3.835-11.953l-11.579 2.273zM419.188 68.03c.083-.98 2.052-5.66 2.681-5.66 1.583 0 15.17 7.939 18.171 8.639-.415 4.997-6.75 7.679-10.246 10.009-1.922 1.28-11.407 7.001-11.797 8.459 1.17.272 10.724 4.862 10.724 5.362 0 .195-2.108 4.79-2.382 5.362l-19.674-9.507c1.116-4.768 6.923-7.214 10.618-9.676 1.813-1.209 11.39-7.344 12.033-8.222zM250.792 584.543l5.566-31.838 17.438 3.091-1.064 5.847-10.227-1.537c-.004 2.854-2.461 6.164.756 6.714 2.919.501 5.037.764 7.581 1.357l-.771 5.677-1.016-.019c-2.143 0-6.25-1.488-8.936-1.488l-.993 7.433 10.52 1.829-.786 5.946zM385.229 74.881c0-7.834 6.424-17.476 8.043-24.426l6.824 2.455c-.938 4.066-7.719 18.537-7.719 21.079v2.979c0 1.137 1.948 2.681 3.276 2.681h.895c3.786 0 5.754-7.594 7.03-10.843 1.6-4.072 3.11-8.989 4.884-12.689l6.856 2.671c-3.494 6.607-7.591 27.117-16.09 27.117h-3.575c-3.961 0-10.425-4.758-10.425-8.639zm-209.114 2.681c0-3.875 2.842-8.819 5.063-10.427 1.924-1.394 7.084-5.063 10.129-5.063h2.085l1.171 5.962c-5.015-.004-11.001 3.792-11.001 8.635v.595c0 4.433 4.61 11.916 8.639 11.916h2.085c1.695 0 3.773-1.136 4.468-2.085l-2.971-5.962c-.526.278-2.767 1.493-3.285 1.493-.538 0-2.5-4.285-2.681-5.064l9.748-4.643c.758 3.076 7.232 13.633 7.232 15.665 0 .781-5.805 4.541-6.844 5.07-2.583 1.315-5.344 2.376-9.241 2.376h-.596c-3.359 0-7.848-3.637-9.418-5.773-1.413-1.923-4.582-7.711-4.582-10.61zm204.667 468.635 8.599-2.802 17.838 28.201-7.373 2.3-3.953-6.577-7.075 2.387.655 7.697-7.165 2.266-1.616-30.853zm-107.373 41.034 2.319-30.962 7.621.38 8.627 22.256.561-18.477.051-2.977h2.979l3.867.344.005 1.146-2.19 30.974-7.337-.372c-.619-2.558-3.141-7.917-4.298-10.818-.593-1.485-4.047-10.199-4.047-11.145v-1.191h-.596v6.553l-.91 13.702.017 2.086-3.268-.365-3.286.067zm89.778-537.968c0-1.363.871-6.255 2.085-6.255h.893c5.586 0 17.278 4.031 17.278 9.234v2.085c0 4.451-3.312 8.546-7.447 8.638 3.623 5.411 2.086 6.029 2.086 13.703v2.382c-1.756 0-3.704-.887-5.547-1.306-2.486-.564-1.604-2.178-1.604-5.247 0-6.299 1.21-7.981-4.17-9.235l-3.125 11.876-6.975-1.557 6.036-23.397zM214.532 575.322l10.542-30.644c1.263.283 6.678 2.05 7.64 2.05h.894v10.724l-.569 11.917 10.741-19.639 8.563 2.182-6.509 31.757-1.523-.553-3.528-.752-1.452-.619 5.112-22.847-11.715 20.604-5.354-1.286-.021-4.382.509-18.471-6.884 21.412-.775.038c-1.488.001-3.812-1.447-5.671-1.491M265.48 51.944c0-7.621 5.104-14.894 12.213-14.894h.895l3.571.327c3.745 2.476 4.209 1.3 7.1 5.684 1.199 1.819 3.032 6.888 3.032 9.777v3.873c0 7.235-5.068 13.405-12.213 13.405h-2.681c-6.659 0-11.915-9.02-11.915-16.085v-2.087zm63.45 515.934c0-6.404 5.905-13.405 12.214-13.405h1.19c9.303 0 13.405 9.118 13.405 18.767v1.192c0 3.888-1.859 7.501-3.789 9.616-1.361 1.49-6.331 4.161-9.319 3.789l-3.271-.341c-3.243-2.126-4.854-1.644-7.333-5.736-1.473-2.43-3.098-6.302-3.098-10.01v-3.872zM203.818 64.455c0-4.172 1.508-6.723 3.648-8.863 1.528-1.528 5.505-3.946 8.267-3.946h1.192c8.264 0 14.894 11.074 14.894 19.66 0 7.702-5.577 13.404-13.107 13.404-7.854 0-14.894-9.832-14.894-17.277zm98.894 493.24 10.124-.658 1.199.117c7.993 0 13.703 6.224 13.703 14.298v3.873c0 4.414-2.729 9.48-5.419 11.262-3.725 2.466-6.992 3.335-13.051 3.335h-1.191l-5.06-.352-.004-6.5zM233.01 46.583c3.148-1.666 9.42-3.277 14.299-3.277h.297c9.75 0 13.703 9.147 13.703 19.064v.298c0 9.415-11.766 14.596-21.447 14.596zM78.708 296.804c0-7.69 1.248-18.445 2.495-25.506.678-3.837 1.719-8.046 2.271-11.73.537-3.583 2.091-7.83 2.658-11.045 1.208-6.848 4.625-14.798 6.746-21.255 1.98-6.031 5.502-13.945 8.272-19.431 13.394-26.525 26.821-44.447 46.743-64.368 33.71-33.71 90.595-64.119 158.102-64.119h2.383c33.127 0 70.175 9.781 92.448 20.747 27.338 13.459 46.154 26.255 66.548 46.649 34.877 34.878 66.204 90.483 66.204 160.187 0 69.867-31.392 125.373-66.354 160.334-18.822 18.822-40.938 35.051-66.799 46.696-24.507 11.035-57.186 20.552-92.644 20.552h-.297c-68.507 0-125.126-29.652-159.294-63.821-20.086-20.086-33.533-37.915-47.041-64.666-2.949-5.84-6.118-13.248-8.352-19.649-2.124-6.087-5.522-14.555-6.666-21.037-.603-3.417-2.106-7.535-2.688-11.312-.564-3.658-1.491-7.751-2.174-11.826-1.24-7.39-2.56-16.998-2.56-25.143z"
       id="path1" /><path
       fill="#dad8d9"
       d="m 25.387,232.461 c -1.54,2.298 -6.365,28.398 -7.086,33.426 -1.677,11.692 -2.744,24.678 -2.744,37.768 v 7.745 c 0,6.64 0.921,13.07 0.898,19.061 -0.016,3.981 1.221,13.92 1.955,18.003 1.041,5.791 5.167,30.235 6.978,32.939 0,3.623 5.801,19.602 7.103,23.578 2.167,6.617 5.868,15.748 8.878,21.804 7.273,14.635 13.287,26.554 21.905,39.757 3.604,5.522 8.626,12.99 12.826,17.855 2.396,2.775 4.46,5.799 6.855,8.635 2.383,2.821 4.961,5.417 7.294,8.196 7.699,9.174 21.879,22.989 31.474,30.188 6.003,4.503 11.239,8.858 17.459,13.224 6.096,4.276 12.258,8.354 18.772,12.207 12.834,7.594 26.689,14.517 41.355,20.308 27.678,10.929 64.553,20.214 103.109,20.214 h 7.15 c 37.944,0 75.616,-9.195 102.893,-20.133 15.14,-6.07 28.009,-12.525 41.38,-20.281 6.15,-3.569 13.1,-7.895 18.617,-12.064 2.951,-2.23 6.043,-4.332 8.989,-6.502 2.946,-2.172 5.771,-4.746 8.639,-6.852 8.229,-6.046 25.275,-22.152 31.52,-30.143 1.71,-2.188 5.147,-5.997 7.136,-8.055 2.31,-2.391 4.733,-5.94 6.866,-8.624 4.559,-5.735 8.856,-11.783 12.983,-17.996 4.221,-6.354 7.51,-12.713 11.556,-19.125 3.876,-6.143 7.021,-13.957 10.367,-20.614 3.189,-6.343 6.414,-14.859 8.904,-21.78 1.309,-3.644 7.182,-20.536 7.182,-23.796 2.16,-3.226 6.104,-28.964 7.271,-35.624 2.048,-11.708 2.559,-27.182 2.559,-40.634 0,-87.981 -40.647,-159.057 -84.672,-203.082 C 499.49,89.797 487.167,79.304 472.804,69.226 460.269,60.431 442.085,48.93 427.054,42.89 418.604,39.495 410.663,35.474 401.62,32.579 392.767,29.745 383.405,26.469 373.802,24.352 354.471,20.09 332.913,16.498 309.57,16.498 h -2.384 c -10.265,0 -20.348,0.438 -29.511,1.469 -9.295,1.044 -18.709,1.795 -27.209,3.77 -3.942,0.916 -9.206,1.659 -12.735,2.755 -3.338,1.037 -8.974,2.62 -12.176,3.313 -5.574,1.207 -18.564,5.563 -23.418,7.86 -3.539,1.674 -7.4,2.773 -11.023,4.466 -3.708,1.734 -7.013,3.057 -10.627,4.864 -7.165,3.584 -13.816,6.874 -20.462,10.815 -12.501,7.414 -26.052,16.229 -36.851,25.407 -23.528,19.996 -41.837,39.112 -59.299,65.216 -8.587,12.837 -15.235,25.534 -22.197,40.061 -3.437,7.172 -6.043,14.303 -9.02,21.96 -1.314,3.37 -7.271,20.964 -7.271,24.007 m 53.321,64.343 c 0,-7.69 1.248,-18.445 2.495,-25.506 0.678,-3.837 1.719,-8.046 2.271,-11.73 0.537,-3.583 2.091,-7.83 2.658,-11.045 1.208,-6.848 4.625,-14.798 6.746,-21.255 1.98,-6.031 5.502,-13.945 8.272,-19.431 13.394,-26.525 26.821,-44.447 46.743,-64.368 33.71,-33.71 90.595,-64.119 158.102,-64.119 h 2.383 c 33.127,0 70.175,9.781 92.448,20.747 27.338,13.459 46.154,26.255 66.548,46.649 34.877,34.878 66.204,90.483 66.204,160.187 0,69.867 -31.392,125.373 -66.354,160.334 -18.822,18.822 -40.938,35.051 -66.799,46.696 -97.81428,44.04377 -198.05602,10.91156 -252.235,-43.269 -20.086,-20.086 -33.533,-37.915 -47.041,-64.666 -2.949,-5.84 -6.118,-13.248 -8.352,-19.649 -2.124,-6.087 -5.522,-14.555 -6.666,-21.037 -0.603,-3.417 -2.106,-7.535 -2.688,-11.312 -0.564,-3.658 -1.491,-7.751 -2.174,-11.826 -1.24,-7.39 -2.56,-16.998 -2.56,-25.143 z"
       id="path2"
       sodipodi:nodetypes="ccsscsccccccccccsssccsccsccccccccscccccssccccccccccccccccccccccssccscccscscc" /><path
       fill="#352f29"
       d="m 78.708,296.804 v 20.256 c 0,8.145 1.32,17.753 2.56,25.143 0.684,4.075 1.61,8.168 2.174,11.826 0.583,3.777 2.086,7.896 2.688,11.312 1.144,6.481 4.542,14.95 6.666,21.037 2.234,6.402 5.403,13.81 8.352,19.649 13.507,26.751 26.954,44.58 47.041,64.666 54.18675,54.18833 154.42985,87.30866 252.235,43.269 25.86,-11.646 47.977,-27.874 66.799,-46.696 34.962,-34.962 66.354,-90.468 66.354,-160.334 0,-69.704 -31.327,-125.309 -66.204,-160.187 C 447.60399,126.97599 391.36286,79.35 308.375,79.35 h -2.383 c -67.506,0 -124.391,30.408 -158.102,64.119 -19.921,19.921 -33.349,37.843 -46.743,64.368 -2.77,5.486 -6.292,13.4 -8.272,19.431 -2.121,6.457 -5.538,14.407 -6.746,21.255 -0.567,3.215 -2.121,7.461 -2.658,11.045 -0.552,3.684 -1.592,7.893 -2.271,11.73 -1.245,7.061 -2.492,17.816 -2.492,25.506 m 7.148,10.128 c 0,-121.246 98.888,-220.136 220.136,-220.136 121.248,0 220.136,98.89 220.136,220.136 0,121.247 -98.888,220.136 -220.136,220.136 -121.248,0 -220.136,-98.889 -220.136,-220.136"
       id="path3"
       sodipodi:nodetypes="cscccscccsscssscccscccsssc" /><path
       fill="#0081C3"
       d="M125.147 170.242c.045.073.608 31.703.605 34.517-.01 11.715.838 22.921 1.002 34.323.034 2.337.22 5.735.41 8.271.2 2.683.196 5.705.404 8.477.369 4.934.506 11.726 1.255 16.508.682 4.354 1.327 11.479 1.573 15.99.28 5.146 1.42 10.684 2.025 15.738.616 5.146 1.882 10.446 2.398 15.164.562 5.138 2.326 10.189 2.85 14.914.201 1.811 1.176 5.133 1.652 7.029.572 2.28 1.153 4.838 1.734 7.148 1.169 4.654 2.729 9.222 3.999 13.765 1.177 4.211 2.856 9.172 4.438 13.125 1.71 4.273 3.115 8.659 5.024 12.74 1.917 4.101 3.505 8.046 5.489 12.074 1.976 4.015 4.183 7.765 6.131 11.634 1.872 3.72 4.361 7.515 6.464 11.1 1.902 3.244 4.771 7.756 7.026 10.739 2.547 3.369 4.774 6.813 7.358 10.204 2.547 3.344 5.44 6.68 7.819 9.946 2.155 2.96 5.591 6.626 8.13 9.435 2.861 3.165 5.532 6.213 8.473 9.293 2.868 3.004 5.837 5.826 8.787 8.776 3.012 3.012 6.146 5.71 9.085 8.679 2.771 2.799 6.235 5.717 9.286 8.278 3.209 2.695 6.204 5.658 9.504 8.262 6.619 5.222 12.917 10.517 19.677 15.652 6.707 5.096 13.447 10.182 20.339 14.99 2.304 1.607 20.326 13.898 20.793 14.537h.404c1.985-1.726 6.134-4.299 8.479-5.854 2.634-1.748 5.9-3.962 8.426-5.909 5.401-4.168 11.17-8.077 16.693-12.175 5.327-3.951 11.375-8.294 16.32-12.549 2.606-2.243 5.241-4.22 7.877-6.457 2.461-2.088 5.387-4.769 7.901-6.633 2.04-1.512 5.82-4.881 7.646-6.688 2.428-2.404 5.042-4.441 7.466-6.866 4.852-4.851 9.661-9.456 14.538-14.332 2.438-2.438 4.592-4.871 6.97-7.363 2.347-2.457 4.428-5.37 6.756-7.779 4.667-4.832 8.624-10.729 12.839-16.03 3.806-4.787 8.63-11.62 11.74-16.926 1.789-3.049 3.61-5.725 5.387-8.945 1.64-2.967 3.438-6.467 5.198-9.338 1.432-2.332 3.749-6.938 4.83-9.502 1.359-3.222 3.397-6.792 4.505-10.031 1.146-3.349 3.106-6.835 4.115-10.217.539-1.813 1.386-3.427 1.932-5.334.446-1.555 1.232-3.944 1.839-5.43 1.359-3.331 2.295-7.312 3.378-10.954.944-3.177 2.675-8.193 3.146-11.389.538-3.648 2.005-7.731 2.752-11.581.443-2.294.766-3.892 1.203-6.064.359-1.788.644-4.604 1.118-6.148.88-2.858 1.479-8.844 2.077-12.255.723-4.105 1.233-8.676 1.727-12.808.476-3.972 1.372-8.803 1.413-12.921.015-1.545.478-4.708.614-6.653.147-2.135.604-4.362.606-6.66l.805-.405v-7.469c0-4.534.629-8.359.606-12.92-.021-3.983.432-8.669.6-12.926.327-8.41 1.019-17.644 1.017-26.234-.002-4.396.797-53.679.807-53.694v-48.244h-367.46z"
       id="path5" /><path
       fill="#FDFDFE"
       d="m423.355 221.109-240.263 68.026c-1.144.766-9.475 2.773-11.534 3.406-3.87 1.188-7.849 2.166-7.849 7.292v4.239c0 7.517.606 14.781.606 22.407 0 3.705.202 7.354.202 11.304 0 1.751-.197 4 .236 5.416.334 1.094 1.648 2.861 2.994 2.861 2.657.001 6.069-1.398 8.483-2.015 1.616-.414 6.957-2.225 8.235-2.367l47.045-13.312 100.543-28.474 36.989-10.554c.745 0 7.655-1.978 8.56-2.342.967-.39 3.138-.899 4.241-1.21 1.579-.446 2.669-.774 4.318-1.133 2.367-.514 5.789-1.712 8.441-2.461 2.974-.839 5.71-1.586 8.648-2.456 11.436-3.386 22.68-6.42 34.155-9.656 5.737-1.619 11.261-3.243 17-4.803 8.664-2.354 7.846-4.028 7.705-13.881-.105-7.261-.396-14.269-.396-21.404 0-3.781-.201-6.883-.201-10.699 0-3.746.006-7.469-3.636-7.469h-.404c-2.125 0-14.232 3.729-17.034 4.567-2.494.747-15.516 4.718-17.084 4.718M145.943 120.382v16.553c0 .824.877 2.22 1.615 2.22h325.868c1.372 0 2.02-1.028 2.02-2.422v-16.754c0-.679-.905-1.615-1.817-1.615H147.961c-1.015 0-2.018 1.003-2.018 2.018M304.439 318.017l-.004 211.936c0 .507 4.166 3.432 4.846 3.432.071 0 3.634-2.347 3.634-2.826l-.021-214.854zM336.539 309.523l.076 204.179 8.402-6.358V306.899c-1.241.028-3.14.747-4.36 1.09-.788.222-4.118.745-4.118 1.534M368.675 300.167l.041 187.479 8.605-7.553.006-182.257zM272.162 326.99l-.03 179.142c0 .59 7.625 6.464 8.479 6.662l-.013-188.176zM400.921 291.269l.022 164.804c.861-.576 8.682-9.538 8.682-10.093l-.022-157.129zM239.827 336.37l.087 143.021 8.595 7.566V333.545c-1.271.295-3.25.792-4.442 1.211-.778.272-4.24.832-4.24 1.614M143.318 263.903c0 4.947.681 10.94 1.195 15.56.131 1.182.284 7.017 1.146 6.985 1.021-.037 6.341-1.398 6.341-2.156V145.211h-8.682zM175.622 278.034l8.48-2.221V145.211h-8.48zM207.725 269.354l8.681-2.422V145.211h-8.681zM433.258 282.309l-.008 130.768c1.041-1.2 8.479-14.198 8.479-15.543l-.025-117.571zM239.827 260.27l8.682-2.22V145.211h-8.682zM207.724 344.843l.001 100.732c0 .54 7.839 9.529 8.682 10.094l.004-113.229zM272.131 251.388c1.211-.581 8.479-1.783 8.479-2.826V145.211h-8.479z"
       id="path6" /><path
       fill="#FDFDFE"
       d="M304.436 242.507c.949-.456 3.11-.992 4.32-1.333.941-.266 4.159-.486 4.159-1.493v-94.47h-8.479zM336.539 233.423l8.479-2.221v-85.991h-8.479zM368.64 224.541l8.681-2.22v-77.11h-8.681zM400.943 215.659c1.476-.343 2.885-.923 4.426-1.227.857-.169 4.256-.686 4.256-1.599V145.21h-8.682z"
       id="path8" /><path
       fill="#FDFDFE"
       d="M433.25 206.576c1.319 0 3.133-.719 4.365-1.084.828-.246 4.113-.702 4.113-1.54v-58.741h-8.479z"
       id="path10" /><path
       fill="#FDFDFE"
       d="m175.638 353.786-.016 43.545c0 1.115 7.706 14.774 8.48 15.342l.019-61.298zM465.351 197.694l8.681-2.22v-50.263h-8.681z"
       id="path12" /><path
       fill="#fdfdfe"
       d="m 465.354,273.405 -0.004,56.304 c 0.823,-1.299 4.621,-24.785 5.055,-28.456 0.552,-4.692 1.541,-10.012 1.81,-14.943 0.13,-2.373 0.705,-4.929 0.805,-7.472 0.061,-1.476 0.504,-6.356 0.782,-7.771 z"
       id="path14"
       sodipodi:nodetypes="ccccccc" /></g></svg>
