<?xml version="1.0" encoding="UTF-8" standalone="no"?>
<svg
   xml:space="preserve"
   width="612"
   height="616"
   version="1.1"
   id="svg11"
   sodipodi:docname="independiente-rivadavia.svg"
   inkscape:version="1.4.2 (f4327f4, 2025-05-13)"
   xmlns:inkscape="http://www.inkscape.org/namespaces/inkscape"
   xmlns:sodipodi="http://sodipodi.sourceforge.net/DTD/sodipodi-0.dtd"
   xmlns="http://www.w3.org/2000/svg"
   xmlns:svg="http://www.w3.org/2000/svg"><defs
     id="defs11" /><sodipodi:namedview
     id="namedview11"
     pagecolor="#ffffff"
     bordercolor="#000000"
     borderopacity="0.25"
     inkscape:showpageshadow="2"
     inkscape:pageopacity="0.0"
     inkscape:pagecheckerboard="0"
     inkscape:deskcolor="#d1d1d1"
     inkscape:zoom="1.3100649"
     inkscape:cx="305.71004"
     inkscape:cy="308"
     inkscape:window-width="1920"
     inkscape:window-height="1009"
     inkscape:window-x="-8"
     inkscape:window-y="-8"
     inkscape:window-maximized="1"
     inkscape:current-layer="svg11" /><path
     fill="#2A1972"
     fill-rule="evenodd"
     d="M3 288.085v37.232c2.28 3.594 2.969 25.087 4.171 30.932 2.088 10.146 3.555 19.104 6.041 29.063 4.466 17.897 11.708 37.065 19.214 52.057 16.208 32.371 35.427 58.641 59.664 82.878 24.917 24.917 49.572 43.005 82.878 59.665 15.515 7.759 33.289 14.79 51.844 19.426 10.198 2.549 18.422 4.078 29.244 5.86 2.793.46 31.755 3.967 32.028 4.14h38.294c.66-.419 53.768-8.055 61.03-10.241 20.104-6.052 35.072-11.219 52.432-19.902 32.768-16.39 58.547-36.019 83.067-60.539 42.906-42.905 86.429-115.535 86.429-200.786v-28.721c0-40.681-15.253-87.946-29.08-115.59-17.172-34.327-35.414-57.934-61.076-83.595C474.952 45.731 404.779 3 316.807 3H297.66C208.927 3 139.354 44.821 94.747 89.428c-25.213 25.213-44.708 49.371-61.604 83.067-7.946 15.848-14.867 34.207-19.506 52.829-2.469 9.913-4.686 18.581-6.498 29.668-.727 4.449-2.95 31.219-4.139 33.093"
     clip-rule="evenodd"
     id="path1" /><path
     fill="#FBFBFB"
     fill-rule="evenodd"
     d="M15.765 295.531v26.595c0 40.196 15.11 82.544 27.649 110.637 12.633 28.306 37.903 59.696 58.779 80.573 42.253 42.253 110.372 83.237 194.402 83.237h18.083c152.562 0 282.957-132.328 282.957-285.086 0-93.138-33.443-159.501-80.045-206.103-25.429-25.429-47.929-44.56-82.003-61.604-26.938-13.473-75.006-29.08-114.526-29.08h-19.147c-152.403.001-286.149 129.633-286.149 280.831"
     clip-rule="evenodd"
     id="path2" /><path
     fill="#2A1972"
     fill-rule="evenodd"
     d="M35.976 309.36v2.127c0 142.542 122.879 264.874 265.938 264.874 86.68 0 147.828-31.345 191.211-74.727 41.08-41.082 83.235-102.366 83.235-183.765v-19.146c0-81.299-37.646-143.486-78.452-184.293-23.527-23.528-45.886-38.877-77.21-54.695-24.62-12.431-70.661-24.822-107.083-24.822h-6.383c-86.516 0-148.809 36.581-192.274 80.045-44.835 44.836-78.982 105.003-78.982 194.402"
     clip-rule="evenodd"
     id="path3" /><path
     fill="#FBFBFB"
     fill-rule="evenodd"
     d="M113.63 309.36c0 104.229 87.497 189.348 192.539 189.348h10.638c54.557 0 100.22-30.547 127.914-58.242 28.183-28.183 55.05-75.271 55.05-131.105v-6.382c0-105.566-88.144-190.412-194.666-190.412h-3.191c-58.663 0-103.958 29.232-133.769 58.77-31.247 30.959-54.515 75.947-54.515 138.023"
     clip-rule="evenodd"
     id="path4" /><path
     fill="#2A1972"
     fill-rule="evenodd"
     d="M135.969 306.169c0 93.093 75.308 170.201 168.073 170.201h11.701c85.113 0 161.69-81.049 161.69-168.074 0-96.09-74.83-173.391-170.2-173.391-94.821 0-171.264 76.324-171.264 171.264"
     clip-rule="evenodd"
     id="path5" /><path
     fill="#FBFBFB"
     fill-rule="evenodd"
     d="M223.196 225.324v1.063c0 20.235 28.13 46.413 45.741 46.805V374.25h14.892l.072-94.997 11.629 2.45v92.547h15.956v-63.826h17.021c17.694 0 31.912 11.284 31.912 28.722v35.104h15.955v-35.104c0-14.208-7.076-22.355-12.764-30.849 3.709-.864 8.21-4.255 10.638-4.255 2.887 0 11.546 11.215 13.413 14.243 3.135 5.081 5.733 14.087 5.733 21.924v6.383c0 33.385-48.324 60.634-85.099 60.634h-8.511c-18.28 0-38.118-8.923-49.38-16.573-8.741-5.938-29.058-24.156-31.465-34.488l-.851-.792-16.169 16.75c13.614 25.728 56.267 57.443 95.738 57.443h15.956c44.764 0 103.184-39.552 103.184-81.909v-1.064c0-10.186-4.479-29.917-7.771-36.906-7.41-15.725-13.634-15.455-19.886-24.792 1.795-3.743 4.254-12.637 4.254-18.084 0-27.776-20.551-45.741-48.932-45.741h-48.933l-.032 37.377-11.669-2.273V221.07h-15.956v27.658c-7.737-1.803-20.211-11.062-20.211-20.211v-2.128c0-16.821 39.826-22.338 59.57-22.338 14.081 0 30.12 3.622 39.647 8.773l15.668-18.347c-5.094-1.186-17.128-6.485-25.133-8.906-6.214-1.879-22.639-3.858-30.183-3.858-31.004-.003-84.034 16.135-84.034 43.611"
     clip-rule="evenodd"
     id="path6" /><path
     fill="#FBFBFB"
     fill-rule="evenodd"
     d="M148.733 296.595v14.893c0 84.249 73.506 153.181 158.499 153.181 57.656 0 112.483-35.629 131.748-72.081l-17.928-10.892c-4.738 3.174-13.501 16.316-18.861 21.561-6.479 6.34-15.146 12.773-22.62 17.802-12.551 8.44-39.917 20.208-60.638 20.208h-25.53c-32.323 0-66.403-22.581-83.257-39.073-16.387-16.036-39.074-51.849-39.074-83.257V294.47c0-63.658 64.789-124.459 130.842-124.459h10.638c20.901 0 39.597 6.019 53.896 13.121 6.921 3.438 14.539 8.197 20.39 12.585 6.173 4.628 13.097 12.322 18.054 15.578l15.101-14.69c-2.256-8.442-34.325-28.843-43.975-33.682-16.278-8.163-38.679-15.251-62.401-15.251h-18.084c-73.574-.002-146.8 74.11-146.8 148.923"
     clip-rule="evenodd"
     id="path7" /><path
     fill="#2A1972"
     fill-rule="evenodd"
     d="M311.487 262.555c5.303.118 26.469 4.45 32.338 5.958 5.407 1.39 29.642 8.935 30.424 8.935 2.003 0 3.192-3.924 3.192-6.382v-6.383c0-15.228-12.549-27.657-27.658-27.657h-38.296zM311.487 295.531h40.422c-1.779-4.917-31.964-9.574-40.422-9.574z"
     clip-rule="evenodd"
     id="path8" /><path
     fill="#2A1972"
     d="m498.492 159.366 1.821 2.51c1.609 2.214 2.601 3.773 2.961 4.697.497 1.22.592 2.479.294 3.801-.292 1.314-1.033 2.662-2.207 4.036q-1.773 2.072-5.478 4.764c-2.386 1.732-4.423 2.964-6.119 3.686-1.704.727-3.072 1.081-4.12 1.059a5.7 5.7 0 0 1-2.938-.856c-.91-.551-2.009-1.722-3.297-3.493l-3.014-4.15zM469.65 149.745l7.783-13.975-14.193 7.337zM189.457 93.691l13.24 23.888 4.485-2.487c1.916-1.062 3.212-2.01 3.869-2.847a5.7 5.7 0 0 0 1.208-2.81c.15-1.039-.035-2.44-.548-4.221-.51-1.77-1.484-3.942-2.912-6.521q-2.22-4.005-4.061-6.017c-1.222-1.333-2.469-2.233-3.737-2.682-1.275-.458-2.537-.516-3.808-.174-.96.247-2.628 1.041-5.023 2.367z"
     id="path11" /></svg>
