<?xml version="1.0" encoding="UTF-8" standalone="no"?>
<svg
   xml:space="preserve"
   width="508.083"
   height="527.241"
   version="1.0"
   id="svg4"
   sodipodi:docname="independiente.svg"
   inkscape:version="1.4.2 (f4327f4, 2025-05-13)"
   xmlns:inkscape="http://www.inkscape.org/namespaces/inkscape"
   xmlns:sodipodi="http://sodipodi.sourceforge.net/DTD/sodipodi-0.dtd"
   xmlns="http://www.w3.org/2000/svg"
   xmlns:svg="http://www.w3.org/2000/svg"><defs
     id="defs4" /><sodipodi:namedview
     id="namedview4"
     pagecolor="#ffffff"
     bordercolor="#000000"
     borderopacity="0.25"
     inkscape:showpageshadow="2"
     inkscape:pageopacity="0.0"
     inkscape:pagecheckerboard="0"
     inkscape:deskcolor="#d1d1d1"
     inkscape:zoom="1.5306093"
     inkscape:cx="253.82049"
     inkscape:cy="263.62051"
     inkscape:window-width="1920"
     inkscape:window-height="1009"
     inkscape:window-x="-8"
     inkscape:window-y="-8"
     inkscape:window-maximized="1"
     inkscape:current-layer="g4" /><g
     clip-rule="evenodd"
     id="g4"><path
       d="m324.01 484.474 13.685-10.605 13.345-10.945 12.659-11.291 12.316-11.637 11.634-12.316 11.291-12.316 10.605-13.002 9.923-13.002 9.58-13.682 8.895-14.033 8.555-14.027 7.869-14.713 7.526-14.707 6.844-15.059 6.158-15.393 5.815-15.398 5.133-16.081 4.79-16.081 4.107-16.081 3.419-16.764 3.079-16.767 2.396-16.764 2.054-17.108 1.368-17.449 1.025-17.108V86.562l-1.711-36.951h-24.633c-15.056-2.054-28.058-10.95-39.349-20.871-4.447-3.763-8.552-7.869-12.316-12.659L417.415 0c-10.948 8.553-21.554 17.449-33.188 24.977-8.555 5.474-17.449 9.921-27.029 13l-4.79 1.37c-11.291 2.394-22.239 3.079-33.873 1.025-4.447-.684-8.209-1.711-12.316-3.079-14.027-5.474-26.004-14.713-37.978-23.266L253.871 3.42l-16.424 11.975c-11.632 8.896-23.607 17.449-37.635 22.582l-3.763 1.027c-11.975 3.079-23.609 3.422-35.927 1.368-3.079-.684-6.158-1.368-9.237-2.395-12.659-4.106-23.95-10.264-34.898-18.133C107.433 13.343 98.878 6.5 90.668 0c-5.133 6.842-10.264 13.685-16.081 20.187-11.291 11.975-25.32 23.265-41.399 28.055-3.079.684-5.817 1.37-8.896 1.37H1.711L0 86.562v35.583l1.025 17.108 1.368 17.449 2.054 17.108 2.395 16.764 3.079 16.767 3.422 16.764 4.104 16.081 4.792 16.081 5.131 16.081 5.817 15.398 6.158 15.393 6.842 15.059 7.528 14.707 7.869 14.713 8.553 14.027 8.897 14.033 9.579 13.682 9.923 13.002 10.605 13.002 11.291 12.316 11.634 12.316 12.316 11.637 12.659 11.291 13.343 10.945 13.688 10.605 14.369 9.926 15.056 9.58 15.053 9.234 25.32 14.027 25.661-14.027 15.053-9.234 15.056-9.58z"
       style="fill:#ec1c24;fill-opacity:1;fill-rule:evenodd"
       transform="matrix(.9372 0 0 .9372 23.454 15.788)"
       id="path1" /><path
       d="m253.871 514.61 20.528-11.291 15.053-8.895 14.37-9.24 14.03-9.92 13.685-10.266 12.659-10.605 12.659-11.291 11.977-11.291 11.291-11.977 10.948-12.316 10.263-12.316 9.923-13.002 9.237-13.342 8.897-13.342 8.212-14.033 7.869-14.027 7.184-14.713 6.844-14.707 6.158-15.059 5.473-15.053 5.133-15.397 4.447-15.738 4.107-16.081 3.422-16.08 3.079-16.424 2.394-16.765 1.711-16.765 1.368-16.765 1.028-17.106.34-17.449-.34-17.449-1.368-27.029c-6.158 0-12.319.341-18.478-.343-3.079-.684-5.815-1.368-8.895-2.395-5.818-2.052-11.291-4.79-16.767-8.212-10.605-6.842-20.528-15.396-29.08-24.976-2.739-3.079-5.133-6.501-7.529-9.58-5.133 4.106-10.605 8.21-15.738 12.316-10.263 7.528-20.871 13.686-32.502 18.476-2.396 1.027-5.133 1.711-7.529 2.738-11.631 3.42-23.265 4.447-35.581 3.763-5.818-.684-11.291-1.711-17.109-3.422-3.079-1.027-6.158-2.052-8.895-3.422-16.081-7.184-30.108-18.475-44.479-28.739-12.659 9.579-25.661 19.501-39.69 26.687-5.815 3.079-11.632 5.133-17.791 6.844l-5.133 1.025c-10.948 1.711-21.554 1.37-32.845-.343-6.844-1.368-13.345-3.42-20.187-6.158-8.553-3.42-16.422-7.868-23.95-13-7.526-5.476-14.711-10.948-21.896-16.765-2.738 3.42-5.133 7.185-8.212 10.264-12.658 14.028-27.714 26.003-45.163 32.504-3.079 1.027-5.815 1.711-8.895 2.395-6.158.684-12.318.343-18.476.343l-1.368 27.029-.343 17.449.343 17.449 1.025 17.106 1.368 16.765 1.711 16.765 2.395 16.765 3.079 16.424 3.422 16.08 4.106 16.081 4.447 15.738 5.133 15.397 5.474 15.053 6.16 15.059 6.842 14.707 7.185 14.713 7.869 14.027 8.212 14.033 8.553 13.342 9.58 13.342 9.923 13.002 10.264 12.316 10.948 12.316 11.291 11.977 11.975 11.291 12.659 11.291 12.659 10.605 13.686 10.266 14.027 9.92 14.37 9.24 15.054 8.895z"
       style="fill:#fff;fill-rule:evenodd"
       transform="matrix(.9372 0 0 .9372 23.454 15.788)"
       id="path2" /><path
       d="M253.871 502.979c38.66-20.186 72.533-44.824 101.616-72.533L20.528 119.434c4.79 163.204 83.825 304.848 233.343 383.545m184.072-183.046c37.978-73.904 54.401-159.784 48.926-250.793-37.978 1.711-72.876-41.399-72.876-41.399-20.528 16.422-46.529 33.188-81.088 33.188-34.556.341-54.741-15.738-79.034-33.188-23.95 17.449-44.137 33.529-78.694 33.188-6.158 0-11.975-.341-17.791-1.37z"
       style="fill:#ec1c24;fill-opacity:1;fill-rule:evenodd"
       transform="matrix(.9372 0 0 .9372 23.454 15.788)"
       id="path4" /></g></svg>
