<?xml version="1.0" encoding="UTF-8" standalone="no"?>
<svg
   xml:space="preserve"
   width="113.391"
   height="113.391"
   version="1.1"
   id="svg8"
   sodipodi:docname="instituto-cordoba.svg"
   inkscape:version="1.4.2 (f4327f4, 2025-05-13)"
   xmlns:inkscape="http://www.inkscape.org/namespaces/inkscape"
   xmlns:sodipodi="http://sodipodi.sourceforge.net/DTD/sodipodi-0.dtd"
   xmlns="http://www.w3.org/2000/svg"
   xmlns:svg="http://www.w3.org/2000/svg"><defs
     id="defs8" /><sodipodi:namedview
     id="namedview8"
     pagecolor="#ffffff"
     bordercolor="#000000"
     borderopacity="0.25"
     inkscape:showpageshadow="2"
     inkscape:pageopacity="0.0"
     inkscape:pagecheckerboard="0"
     inkscape:deskcolor="#d1d1d1"
     inkscape:zoom="7.116967"
     inkscape:cx="56.695499"
     inkscape:cy="56.695499"
     inkscape:window-width="1920"
     inkscape:window-height="1009"
     inkscape:window-x="-8"
     inkscape:window-y="-8"
     inkscape:window-maximized="1"
     inkscape:current-layer="g8" /><path
     fill="#FFF"
     d="M76.402 8.009v16.022H38.879V8.009H9.085v48.345l30.074 50.03H76.12l30.075-50.03V8.009z"
     id="path1" /><g
     fill="#DF040B"
     id="g8"><path
       d="M104.509 9.695v46.19l-29.343 48.812H40.114L10.772 55.885V9.695h26.42v16.022h40.9V9.695zm1.687-1.686H76.402V24.03H38.879V8.009H9.085v48.345l30.074 50.03H76.12l30.074-50.03z"
       id="path2" /><path
       d="M99.926 14.122v42.043L73.165 100.27H42.119L15.355 55.747V14.122H33.32v15.493h49.064V14.122zm1.686-1.686H80.696v15.491h-45.69V12.436H13.668v43.779l27.497 45.742h32.95l27.495-45.32z"
       id="path3" /><circle
       cx="40.316"
       cy="73.122"
       r="1.449"
       id="circle4" /><circle
       cx="57.864"
       cy="62.442"
       r="1.449"
       id="circle5" /><circle
       cx="76.175"
       cy="51.149"
       r="1.449"
       id="circle6" /><circle
       cx="94.638"
       cy="39.705"
       r="1.45"
       id="circle7" /><path
       d="M96.99 20.714v-8.278H84.905v15.756zM84.905 51.406v32.768l12.085-19.92V43.927zM74.926 34.366v-6.439H62.84v13.917zM62.84 65.058v36.899h11.275l.811-1.337V57.579zM52.44 48.279V27.927H40.355v27.83zM40.355 78.971v21.637l.81 1.349H52.44V71.492zM30.376 61.931V12.436H18.29v51.468l2.412 4.012z"
       id="path7" /><path
       d="M21.554 69.334 101.612 19.8v-1.946l-80.91 50.062zM101.612 39.122 30.021 83.419l.853 1.417 70.738-43.768z"
       id="path8" /></g></svg>
