<?xml version="1.0" encoding="UTF-8" standalone="no"?>
<svg
   width="500"
   height="614.672"
   version="1.1"
   id="svg4"
   sodipodi:docname="newells-old-boys.svg"
   inkscape:version="1.4.2 (f4327f4, 2025-05-13)"
   xmlns:inkscape="http://www.inkscape.org/namespaces/inkscape"
   xmlns:sodipodi="http://sodipodi.sourceforge.net/DTD/sodipodi-0.dtd"
   xmlns="http://www.w3.org/2000/svg"
   xmlns:svg="http://www.w3.org/2000/svg">
  <defs
     id="defs4" />
  <sodipodi:namedview
     id="namedview4"
     pagecolor="#ffffff"
     bordercolor="#000000"
     borderopacity="0.25"
     inkscape:showpageshadow="2"
     inkscape:pageopacity="0.0"
     inkscape:pagecheckerboard="0"
     inkscape:deskcolor="#d1d1d1"
     inkscape:zoom="1.3128953"
     inkscape:cx="250.21035"
     inkscape:cy="307.336"
     inkscape:window-width="1920"
     inkscape:window-height="1009"
     inkscape:window-x="-8"
     inkscape:window-y="-8"
     inkscape:window-maximized="1"
     inkscape:current-layer="svg4" />
  <path
     d="m 1464,2949.713 c -5.157,-1.468 -46.52,-22.53 -76.89,-39.153 C 1256.294,2838.958 1125.282,2744.098 1001,2630.995 958.404,2592.23 891.021,2525.549 851.44,2482.993 713.97,2335.189 609.78,2191.943 523.046,2031.5 509.13,2005.757 472.809,1932.506 460.804,1905.972 375.994,1718.52 324.174,1537.158 297.089,1333 c -20.202,-152.277 -25.903,-320.289 -16.05,-473 8.843,-137.076 27.648,-279.318 61.474,-465 14.381,-78.94 36.373,-193.968 38.046,-199 4.807,-14.453 20.695,-23.796 35.643,-20.962 3.413,0.648 21.383,9.423 55.412,27.06 52.351,27.134 75.87,38.32 103.548,49.243 112.086,44.24 232.542,60.836 352.74,48.598 156.828,-15.967 301.644,-79.085 421.34,-183.642 17.585,-15.36 46.771,-44.358 78.44,-77.933 31.567,-33.466 32.928,-34.51 45.806,-35.139 7.496,-0.366 8.43,-0.177 14.51,2.942 5.695,2.92 9.644,6.675 31.907,30.333 54.07,57.459 83.293,84.51 125.595,116.27 19.691,14.783 47.956,33.81 67.5,45.438 163.392,97.22 358.372,128.792 545.5,88.331 51.527,-11.14 104.63,-29.003 155,-52.137 7.7,-3.536 32.675,-16.123 55.5,-27.97 64.807,-33.636 61.059,-31.93 69.949,-31.842 8.88,0.088 16.582,3.28 22.398,9.28 7.085,7.31 7.626,9.347 21.024,79.13 34.699,180.721 52.693,287.993 66.593,397 22.918,179.712 29.035,324.502 20.514,485.5 -15.938,301.104 -81.626,559.837 -206.96,815.174 -88.855,181.023 -196.891,338.138 -342.908,498.685 -173.067,190.289 -362.646,343.951 -554.946,449.808 -22.75,12.524 -68.789,36.375 -75.644,39.188 -5.75,2.36 -18.975,3.078 -25.02,1.358 z"
     style="fill:#fefefe;fill-opacity:1;stroke:#d2d3d5;stroke-width:4.5;stroke-miterlimit:4;stroke-dasharray:none;stroke-opacity:1"
     transform="matrix(0.20822,0,0,0.20822,-57.067,-0.18)"
     id="path1"
     sodipodi:nodetypes="csscscscccccccccscccccscscccccsssc" />
  <path
     d="m 1457,2775.38 c -126.444,-65.396 -253.006,-152.94 -373.5,-258.354 -65.793,-57.558 -142.93,-133.56 -203.55,-200.552 -83.325,-92.085 -156.289,-187.977 -216.073,-283.974 -112.54,-180.709 -193.952,-378.025 -237.85,-576.467 -26.808,-121.19 -42.215,-247.557 -47.115,-386.432 -1.323,-37.503 -0.676,-152.446 1.02,-181.101 7.995,-135.068 21.926,-250.337 49.13,-406.5 10.37,-59.533 31.482,-171.877 32.488,-172.884 0.246,-0.245 7.535,2.975 16.198,7.157 78.846,38.051 164.875,64.342 250.752,76.63 45.83,6.558 74.23,8.492 124.5,8.48 43.197,-0.012 64.583,-1.162 100.5,-5.406 191.94,-22.676 365.843,-106.277 506.25,-243.37 L 1474,137.691 V 2784 Z"
     style="fill:#f42121;fill-opacity:1"
     transform="matrix(0.20822,0,0,0.20822,-57.067,-0.18)"
     id="path2"
     sodipodi:nodetypes="cccsccccccccccccc" />
  <path
     d="M1474.497 2125c0-362.725.114-511.112.253-329.75.14 181.363.14 478.138 0 659.5s-.253 32.975-.253-329.75m-.01-928.5c0-84.15.118-118.427.263-76.171.144 42.255.144 111.105 0 153-.145 41.894-.263 7.321-.263-76.829m.01-664c0-217.25.115-306.274.255-197.831.14 108.442.14 286.192 0 395s-.255 20.081-.255-197.169"
     style="fill:#bb1d1d"
     transform="matrix(.20822 0 0 .20822 -57.067 -.18)"
     id="path3" />
  <path
     d="m 1474,137.691 19.75,18.416 c 133.011,124.025 299.303,211.236 479.25,236.876 45.339,6.46 74.253,8.412 124.5,8.407 49.834,-0.005 78.684,-1.981 123.884,-8.488 80.645,-11.608 157.513,-34.16 232.983,-68.355 9.277,-4.204 20.471,-9.455 24.876,-11.67 4.405,-2.215 8.351,-3.655 8.77,-3.201 0.419,0.454 4.625,21.074 9.348,45.824 47.086,246.747 67.76,406.296 73.732,569 1.303,35.497 0.68,136.534 -1.047,170 -6.066,117.503 -16.885,211.441 -35.646,309.5 -52.105,272.334 -170.784,537.365 -342.744,765.402 -99.028,131.322 -230.373,268.81 -362.09,379.024 -92.153,77.109 -190.506,145.673 -286.566,199.77 -20.924,11.784 -62.503,33.743 -69,35.804 z"
     style="fill:#141313;fill-opacity:1"
     transform="matrix(0.20822,0,0,0.20822,-57.067,-0.18)"
     id="path4"
     sodipodi:nodetypes="csssccssssccssscc" />
</svg>
