<?xml version="1.0" encoding="UTF-8" standalone="no"?>
<svg
   width="246.98"
   height="300"
   viewBox="0 0 246.984 300"
   version="1.1"
   id="svg4"
   sodipodi:docname="racing-club.svg"
   inkscape:version="1.4.2 (f4327f4, 2025-05-13)"
   xmlns:inkscape="http://www.inkscape.org/namespaces/inkscape"
   xmlns:sodipodi="http://sodipodi.sourceforge.net/DTD/sodipodi-0.dtd"
   xmlns="http://www.w3.org/2000/svg"
   xmlns:svg="http://www.w3.org/2000/svg">
  <defs
     id="defs4" />
  <sodipodi:namedview
     id="namedview4"
     pagecolor="#ffffff"
     bordercolor="#000000"
     borderopacity="0.25"
     inkscape:showpageshadow="2"
     inkscape:pageopacity="0.0"
     inkscape:pagecheckerboard="0"
     inkscape:deskcolor="#d1d1d1"
     inkscape:zoom="2.69"
     inkscape:cx="123.60595"
     inkscape:cy="150"
     inkscape:window-width="1920"
     inkscape:window-height="1009"
     inkscape:window-x="-8"
     inkscape:window-y="-8"
     inkscape:window-maximized="1"
     inkscape:current-layer="g4" />
  <g
     fill="#FFF"
     id="g4">
    <path
       fill="#00273E"
       d="M246.98 0v239.17c0 33.578-59.569 33.967-60.173 33.967-22.971 0-43.563 7.476-57.397 21.047l-5.92 5.81-5.921-5.817c-13.835-13.571-34.427-21.047-57.398-21.047-.603.01-60.172-.38-60.172-33.96V0h246.98"
       id="path1" />
    <path
       fill="#029CDC"
       d="M238.58 8.407v230.76c0 5.196-1.994 9.328-6.276 13.002-3.99 3.422-9.788 6.254-17.234 8.418-13.862 4.027-28.133 4.141-28.255 4.141-25.394 0-47.868 8.328-63.289 23.456l-.03.029-.034-.034c-15.417-15.123-37.892-23.451-63.265-23.451-.143 0-14.412-.113-28.274-4.141-7.447-2.164-13.245-4.996-17.235-8.418-4.282-3.674-6.276-7.806-6.276-13.002V8.397h230.16"
       id="path2" />
    <path
       d="M40.982 74.47v180.2c9.998 2.017 18.812 2.152 19.246 2.157 4.682.001 9.274.27 13.758.794V74.471zM106.99 74.47V267.1c5.962 2.923 11.496 6.438 16.504 10.522 5.008-4.082 10.539-7.597 16.5-10.518V74.474h-33zM173 74.47v183.16c4.488-.525 9.087-.795 13.775-.796.43-.005 9.238-.143 19.229-2.157v-180.2h-33.012z"
       id="path3" />
    <path
       d="m 41.044,74.47 0.019,180.28 c 10.058,1.964 18.642,2 19.089,2 h 0.561 c 4.549,0 8.99,0.246 13.334,0.731 V 74.461 c -11.97,0.01 -23.153,0.01 -33.003,0.01 z m 65.976,0 v 192.565 c 6.033,3.054 11.599,6.76 16.614,11.113 4.928,-4.174 10.421,-7.771 16.355,-10.76 V 74.468 h -32.96 z m 65.95,0 v 183.17 c 4.444,-0.54 8.994,-0.808 13.604,-0.808 h 0.326 c 5.111,-0.049 12.076,-0.657 19.04,-2.019 V 74.473 h -32.97 z"
       id="path4"
       sodipodi:nodetypes="ccsscccccccccccccsccccc" />
  </g>
</svg>
