<?xml version="1.0" encoding="UTF-8" standalone="no"?>
<svg
   xml:space="preserve"
   width="564.807"
   height="700"
   version="1.1"
   id="svg5"
   sodipodi:docname="river-plate.svg"
   inkscape:version="1.4.2 (f4327f4, 2025-05-13)"
   xmlns:inkscape="http://www.inkscape.org/namespaces/inkscape"
   xmlns:sodipodi="http://sodipodi.sourceforge.net/DTD/sodipodi-0.dtd"
   xmlns="http://www.w3.org/2000/svg"
   xmlns:svg="http://www.w3.org/2000/svg"><defs
     id="defs5" /><sodipodi:namedview
     id="namedview5"
     pagecolor="#ffffff"
     bordercolor="#000000"
     borderopacity="0.25"
     inkscape:showpageshadow="2"
     inkscape:pageopacity="0.0"
     inkscape:pagecheckerboard="0"
     inkscape:deskcolor="#d1d1d1"
     inkscape:zoom="1.1528571"
     inkscape:cx="282.34201"
     inkscape:cy="350"
     inkscape:window-width="1920"
     inkscape:window-height="1009"
     inkscape:window-x="-8"
     inkscape:window-y="-8"
     inkscape:window-maximized="1"
     inkscape:current-layer="svg5" /><path
     d="M688.654 51.489c-11.983 4.855-43.242 19.707-74.681 52.746-51.447 54.064-81.105 133.153-85.761 228.72-3.736 76.604-23.33 123.932-31.577 140.725l-6.038 12.284 76.589 75.203 11.958-5.672c11.142-5.286 44.82-17.594 116.64-17.695 71.798.101 105.474 12.41 116.621 17.699l11.955 5.668 76.59-75.203-6.036-12.284c-8.248-16.797-27.843-64.132-31.582-140.725-4.65-95.567-34.307-174.656-85.755-228.717C746.14 71.2 714.874 56.344 702.89 51.49l-7.12-2.887z"
     style="fill:#fff;fill-opacity:1;fill-rule:nonzero;stroke:none;stroke-width:1.80469"
     transform="matrix(1.33333 0 0 -1.33333 -645.295 756.964)"
     id="path1" /><path
     d="M695.774 463.782c56.52 0 104.181-37.8 119.167-89.489l64.132 110.53-57.566 56.525-1.422-.673c-14.672-6.963-49.326-18.49-117.783-19.24L666.73 460.33a124.3 124.3 0 0 0 29.044 3.452M695.774 215.596c-56.627 0-104.361 37.944-119.25 89.785l-22.864-39.274c12.233-61.112 36.93-112.267 72.931-150.1a228 228 0 0 1 25.23-22.854l73.054 125.908a124.3 124.3 0 0 0-29.1-3.465"
     style="fill:#ed192d;fill-opacity:1;fill-rule:nonzero;stroke:none;stroke-width:1.80469"
     transform="matrix(1.33333 0 0 -1.33333 -645.295 756.964)"
     id="path2" /><path
     d="m696.298 54.409 5.189 2.102c11.678 4.732 42.157 19.23 72.89 51.526 50.587 53.16 79.754 131.114 84.35 225.429 3.781 77.563 23.709 125.66 32.1 142.74l4.4 8.953-71.384 70.092-8.713-4.134c-14.228-6.752-48.595-18.092-118.832-18.193-70.242.1-104.605 11.441-118.835 18.19l-8.713 4.135-71.379-70.09 4.4-8.953c8.39-17.078 28.317-65.175 32.097-142.74 4.598-94.317 33.765-172.269 84.35-225.43 30.738-32.298 61.216-46.793 72.894-51.525zm-9.689-7.972c-12.311 4.99-44.42 20.242-76.582 54.042-52.361 55.023-82.534 135.32-87.258 232.209-3.684 75.591-22.923 122.1-31.025 138.587l-7.773 15.817 82.112 80.63 15.394-7.304c10.815-5.129 43.603-17.069 114.313-17.17 70.693.101 103.468 12.043 114.278 17.172l15.394 7.303 82.115-80.631-7.771-15.817c-8.101-16.49-27.343-63.005-31.028-138.587-4.723-96.888-34.896-177.186-87.257-232.21-32.163-33.803-64.272-49.05-76.583-54.04l-9.165-3.715z"
     style="fill:#231f20;fill-opacity:1;fill-rule:nonzero;stroke:none;stroke-width:1.80469"
     transform="matrix(1.33333 0 0 -1.33333 -645.295 756.964)"
     id="path3" /><path
     d="m 662.108,423.145 c 5.818,2.355 11.941,4.08 18.285,5.18 v 20.697 c -6.20295,-0.86501 -12.32034,-2.26011 -18.285,-4.17 -44.475,-14.273 -76.765,-56.01 -76.765,-105.163 0,-49.154 32.29,-90.893 76.765,-105.165 5.96434,-1.91151 12.08181,-3.30731 18.285,-4.172 v 20.7 c -6.344,1.097 -12.467,2.822 -18.285,5.177 -33.012,13.368 -56.384,45.711 -56.384,83.46 0,37.745 23.372,70.09 56.384,83.456"
     style="fill:#231f20;fill-opacity:1;fill-rule:nonzero;stroke:none;stroke-width:1.80469"
     transform="matrix(1.33333,0,0,-1.33333,-645.295,756.964)"
     id="path4"
     sodipodi:nodetypes="ccccsccccsc" /><path
     d="m 662.108,348.83 h -23.312 c 2.49,15.481 11.088,28.933 23.312,37.736 z m 0,61.77 c -26.517,-12.642 -44.93,-39.633 -44.93,-70.912 0,-26.448 13.192,-49.792 33.29,-64.027 v 28.41 c -5.969,7.548 -10.112,16.586 -11.722,26.474 h 23.362 v -61.769 c 5.758,-2.745 11.862,-4.87 18.285,-6.15 V 416.75 c -6.423,-1.28 -12.527,-3.406 -18.285,-6.15"
     style="fill:#231f20;fill-opacity:1;fill-rule:nonzero;stroke:none;stroke-width:1.80469"
     transform="matrix(1.33333,0,0,-1.33333,-645.295,756.964)"
     id="path5"
     sodipodi:nodetypes="cccccscccccccc" /></svg>
