<?xml version="1.0" encoding="UTF-8" standalone="no"?>
<svg
   xml:space="preserve"
   width="694"
   height="721"
   version="1.1"
   id="svg3"
   sodipodi:docname="san-martin-san-juan.svg"
   inkscape:version="1.4.2 (f4327f4, 2025-05-13)"
   xmlns:inkscape="http://www.inkscape.org/namespaces/inkscape"
   xmlns:sodipodi="http://sodipodi.sourceforge.net/DTD/sodipodi-0.dtd"
   xmlns="http://www.w3.org/2000/svg"
   xmlns:svg="http://www.w3.org/2000/svg"><defs
     id="defs3" /><sodipodi:namedview
     id="namedview3"
     pagecolor="#ffffff"
     bordercolor="#000000"
     borderopacity="0.25"
     inkscape:showpageshadow="2"
     inkscape:pageopacity="0.0"
     inkscape:pagecheckerboard="0"
     inkscape:deskcolor="#d1d1d1"
     inkscape:zoom="1.1192788"
     inkscape:cx="347.09851"
     inkscape:cy="360.5"
     inkscape:window-width="1920"
     inkscape:window-height="1009"
     inkscape:window-x="-8"
     inkscape:window-y="-8"
     inkscape:window-maximized="1"
     inkscape:current-layer="g3" /><g
     fill-rule="evenodd"
     clip-rule="evenodd"
     id="g3"><path
       fill="#14110C"
       d="M6.632 93.852v34.538c.575 1.688.925 23.666 1.115 27.597 4.215 87.12 22.384 182.462 57.767 261.131 6.066 13.487 11.927 26.591 18.758 39.193 21.095 38.917 41.241 70.717 69.502 104.405l16.69 19.169c8.181 8.244 16.252 17.877 25.093 25.981l34.138 30.715c22.323 20.24 71.81 53.508 98.504 68.515 2.982 1.676 6.139 3.385 9.137 5.122 2.442 1.415 7.619 3.759 9.379 5.416h.806c1.899-1.712 6.493-3.703 9.106-5.232 17.748-10.388 27.528-15.877 45.316-27.393 17.518-11.342 34.174-23.639 50.494-36.471 7.16-5.631 34.687-28.927 38.739-33.467 2.705-3.03 4.807-4.701 7.538-7.205 4.957-4.545 9.705-9.694 14.354-14.627 28.638-30.392 54.105-61.867 75.92-97.967 48.782-80.732 76.691-162.839 90.016-257.739 3.733-26.589 6.222-52.665 7.522-79.547.189-3.937.538-25.902 1.114-27.597V94.053c-7.416 1.224-15.561 3.614-23.114 5.178-25.784 5.337-50.931 7.984-77.612 7.537-83.368-1.395-161.552-36.147-223.987-87.093l-15.36-12.702h-.517c-1.346 1.679-5.968 4.776-7.846 6.314-16.227 13.294-40.983 30.122-58.743 40.488-53.178 31.039-109.475 51.598-173.998 53.141-26.15.625-51.92-2.071-77.209-7.681-7.293-1.617-15.511-4.214-22.622-5.383"
       id="path1" /><path
       fill="#40AB35"
       d="m300.169 303.199.019 357.431c2.547 2.513 44.841 28.6 46.95 28.6 2.119-.001 44.342-26.062 46.888-28.6l.063-375.497zM488.34 266.598l-.103 317.136c1.043-2.004 4.611-4.341 6.597-6.291 2.264-2.223 4.139-4.606 6.271-7.01 1.122-1.264 2.125-1.86 3.237-3.126 1.136-1.29 1.946-2.575 3.136-3.762l12.686-14.325c4.955-6.631 12.646-14.803 17.962-22.312 7.524-10.629 14.677-19.726 22.246-31.287 7.069-10.798 13.548-21.712 20.516-33.503 2.535-4.289 1.272-19.279 1.272-25.431V248.43zM112.134 339.736l-.033 116.11c-.039 5.012.506 4.723 2.552 8.435 4.989 9.052 10.557 17.898 15.99 26.241 8.796 13.507 16.52 24.453 26.123 37.25l21.143 26.02c1.105 1.25 1.524 1.513 2.544 2.848l12.716 13.796c2.222 2.499 5.177 6.235 7.603 8.136 1.414 1.107 4.537 3.913 5.058 5.163l.208-262.18z"
       id="path2" /></g></svg>
