<?xml version="1.0" encoding="UTF-8" standalone="no"?>
<svg
   width="275"
   height="269.698"
   version="1.1"
   id="svg2"
   sodipodi:docname="sarmiento.svg"
   inkscape:version="1.4.2 (f4327f4, 2025-05-13)"
   xmlns:inkscape="http://www.inkscape.org/namespaces/inkscape"
   xmlns:sodipodi="http://sodipodi.sourceforge.net/DTD/sodipodi-0.dtd"
   xmlns="http://www.w3.org/2000/svg"
   xmlns:svg="http://www.w3.org/2000/svg">
  <defs
     id="defs2" />
  <sodipodi:namedview
     id="namedview2"
     pagecolor="#ffffff"
     bordercolor="#000000"
     borderopacity="0.25"
     inkscape:showpageshadow="2"
     inkscape:pageopacity="0.0"
     inkscape:pagecheckerboard="0"
     inkscape:deskcolor="#d1d1d1"
     inkscape:zoom="2.9922358"
     inkscape:cx="137.52259"
     inkscape:cy="134.849"
     inkscape:window-width="1920"
     inkscape:window-height="1009"
     inkscape:window-x="-8"
     inkscape:window-y="-8"
     inkscape:window-maximized="1"
     inkscape:current-layer="svg2" />
  <path
     d="m 629.76,1262.36 c -33.598,-11.634 -65.98,-24.856 -96.48,-39.396 -85.824,-40.911 -162.74,-93.053 -233.279,-158.139 -5.266,-4.86 -27.121,-25.942 -29.441,-28.4 -0.88,-0.933 -5.14,-5.37 -9.467,-9.86 -22.798,-23.66 -45.285,-49.693 -65.1,-75.365 -7.024,-9.101 -7.133,-9.245 -12.355,-16.32 C 142.301,878.874 108.083,819.93 80.12,756.559 71.937,738.013 63.303,716.369 56.21,696.622 -1.124,536.992 -13.556,363.381 20.361,196 c 1.142,-5.632 2.21,-10.752 2.373,-11.379 l 0.298,-1.138 7.444,-0.56 c 41.447,-3.12 81.896,-14.209 119.284,-32.702 43.782,-21.656 82.36,-53.145 112.69,-91.981 10.03,-12.843 18.885,-26.166 27.217,-40.951 1.039,-1.843 1.937,-3.4 1.997,-3.46 0.06,-0.06 1.168,0.574 2.462,1.407 13.134,8.455 34.861,20.738 52.274,29.55 85.21,43.129 175.081,66.206 271.84,69.804 12.815,0.477 45.205,0.2 57.12,-0.487 46.874,-2.706 89.167,-9.327 132.16,-20.69 12.583,-3.326 19.72,-5.444 38.372,-11.387 3.694,-1.177 16.798,-5.81 22.908,-8.098 40.638,-15.223 80.27,-34.807 117.524,-58.075 1.367,-0.853 2.529,-1.493 2.583,-1.422 0.054,0.07 1.582,2.721 3.396,5.889 37.385,65.29 97.181,116.163 167.881,142.825 29.546,11.142 61.789,18.076 93.346,20.074 3.76,0.238 3.815,0.27 4.168,2.381 0.103,0.616 0.92,4.648 1.814,8.96 7.275,35.063 12.82,73.958 15.831,111.04 2.433,29.965 3.227,52.783 2.954,84.96 -0.212,24.999 -0.612,35.682 -2.16,57.76 -8.572,122.162 -40.726,239.867 -95.416,349.28 -30.168,60.354 -66.161,116.301 -108.7,168.96 -5.255,6.505 -16.967,20.534 -20.17,24.16 -20.498,23.208 -27.855,31.082 -45.912,49.135 -29.32,29.313 -54.64,51.72 -86.739,76.758 -78.19,60.991 -166.1,109.255 -259.52,142.48 -7.355,2.616 -19.748,6.865 -19.81,6.792 -0.016,-0.019 -4.566,-1.605 -10.11,-3.525"
     style="fill:#008349;fill-opacity:1;stroke-width:0.32"
     transform="matrix(0.2154,0,0,0.2154,-0.36,-2.978)"
     id="path1"
     sodipodi:nodetypes="ccccccccccccccccscccccscccsssscsscsscccssc" />
  <path
     d="m 633.44,1204.436 c -76.11,-27.987 -144.786,-64.207 -209.76,-110.627 -11.343,-8.104 -25.528,-18.866 -37.76,-28.648 C 321.224,1013.42 262.7,951.05 215.482,883.52 122.104,749.978 68.552,596.006 59.053,433.76 c -0.966,-16.506 -1.17,-23.052 -1.35,-43.52 -0.364,-41.06 1.64,-77.045 6.47,-116.16 1.374,-11.12 5.256,-37.497 5.78,-39.269 0.1,-0.333 0.627,-0.628 1.345,-0.751 3.2,-0.55 13.188,-2.533 17.022,-3.38 56.082,-12.406 109.594,-37.976 154.56,-73.854 11.31,-9.024 19.293,-16.146 30.513,-27.223 13.027,-12.86 26.003,-27.508 35.19,-39.724 l 0.873,-1.16 14.152,7.091 c 46.368,23.236 91.927,40.295 141.512,52.99 82.607,21.147 169.628,27.152 254.97,17.593 73.237,-8.203 144.185,-27.622 210.871,-57.715 10.234,-4.618 24.73,-11.603 33.197,-15.996 3.607,-1.87 6.652,-3.402 6.767,-3.402 0.115,0 1.478,1.62 3.029,3.6 29.981,38.287 67.353,70.921 108.916,95.108 37.643,21.906 78.12,37.01 120.97,45.139 3.432,0.65 6.268,1.207 6.302,1.237 0.116,0.1 1.667,9.621 2.796,17.156 7.254,48.435 10.582,100.041 9.509,147.46 -0.635,28.028 -1.95,49.596 -4.543,74.46 -7.707,73.94 -24.463,145.443 -50.277,214.549 -38.355,102.682 -95.825,197.329 -169.536,279.211 -20.234,22.477 -47.387,49.447 -69.451,68.985 -72.458,64.16 -152.796,114.871 -241.12,152.202 -16.078,6.795 -46.275,18.4 -47.638,18.309 -0.2,-0.013 -3.098,-1.03 -6.442,-2.26 m 9.847,-58.386 c 25.063,-9.757 46.434,-19.235 70.633,-31.326 140.908,-70.406 259.491,-181.094 339.745,-317.124 24.1664,-40.9548 44.7033,-83.94538 61.376,-128.48 29.445,-78.624 46.53,-161.358 50.715,-245.6 1.372,-27.612 1.313,-57.883 -0.167,-85.6 -0.89,-16.652 -2.976,-40.986 -4.555,-53.13 l -0.554,-4.258 -1.28,-0.397 c -2.7164,-0.80823 -5.4364,-1.60424 -8.16,-2.388 -48.428,-14.015 -96.938,-38.335 -138.08,-69.226 -17.696,-13.287 -30.594,-24.505 -47.367,-41.198 l -8.968,-8.924 -4.312,1.943 c -81.584,36.756 -172.257,59.097 -262.873,64.767 -15.833,0.99 -21.64,1.18 -41.6,1.354 -20.784,0.182 -33.475,-0.079 -50.4,-1.036 -92.907,-5.25 -182.183,-26.84 -267.143,-64.6 -3.4,-1.51 -6.222,-2.747 -6.27,-2.747 -0.048,0 -3.856,3.78 -8.462,8.4 -45.361,45.494 -97.706,79.277 -157.645,101.743 -9.785,3.668 -29.67,10.086 -36.557,11.8 -1.954,0.485 -1.7,-0.288 -2.63,7.977 -10.523,93.344 -5.446,186.54 15.07,276.64 24.423,107.264 71.304,210.336 135.768,298.497 1.40525,1.91718 2.80159,3.84087 4.189,5.771 3.228,4.556 17.13,22.444 23.68,30.467 26.31,32.233 57.634,65.032 88.48,92.648 69.688,62.392 148.669,112.025 234.88,147.604 7.9,3.26 18.714,7.53 19.127,7.552 0.224,0.012 1.736,-0.496 3.36,-1.129"
     style="fill:#ffffff;fill-opacity:1;stroke-width:0.32"
     transform="matrix(0.2154,0,0,0.2154,-0.36,-2.978)"
     id="path2"
     sodipodi:nodetypes="csccccccccccccccsccscsccccccsccccccccccccccscccccccsccccccccccsc" />
</svg>
