<?xml version="1.0" encoding="UTF-8" standalone="no"?>
<svg
   xml:space="preserve"
   id="Capa_1"
   width="595.3"
   height="595.3"
   x="0"
   y="0"
   version="1.1"
   sodipodi:docname="talleres.svg"
   inkscape:version="1.4.2 (f4327f4, 2025-05-13)"
   xmlns:inkscape="http://www.inkscape.org/namespaces/inkscape"
   xmlns:sodipodi="http://sodipodi.sourceforge.net/DTD/sodipodi-0.dtd"
   xmlns="http://www.w3.org/2000/svg"
   xmlns:svg="http://www.w3.org/2000/svg"><defs
     id="defs10" /><sodipodi:namedview
     id="namedview10"
     pagecolor="#ffffff"
     bordercolor="#000000"
     borderopacity="0.25"
     inkscape:showpageshadow="2"
     inkscape:pageopacity="0.0"
     inkscape:pagecheckerboard="0"
     inkscape:deskcolor="#d1d1d1"
     inkscape:zoom="1.355619"
     inkscape:cx="297.64999"
     inkscape:cy="297.64999"
     inkscape:window-width="1920"
     inkscape:window-height="1009"
     inkscape:window-x="-8"
     inkscape:window-y="-8"
     inkscape:window-maximized="1"
     inkscape:current-layer="Capa_1" /><style
     id="style1">.st2{fill-rule:evenodd;clip-rule:evenodd}.st2,.st3{fill:#fff}</style><path
     d="M297.6 31h217.3l72.8 101.4c-26.6 19.1-82.9 48-65.1 110.5 7.5 42.1 61.5 64.4 61.1 141.1.4 186.8-219.3 108.2-282.1 177.6-62.9-69.5-290.5 9.1-290.2-177.6-.3-76.6 53.7-99 61.3-141.1 17.7-62.5-38.5-91.4-65.2-110.5L80.3 31z"
     style="fill-rule:evenodd;clip-rule:evenodd;fill:#040d2d"
     id="path1" /><path
     d="m301.6 569.6-4-4.3c-21.6-23.9-65.5-29.4-112-35.2-42.4-5.3-86.4-10.9-120.6-30.4C25.2 476.9 6 439 6.1 384c-.2-48.4 20.1-75.5 38-99.4C55 269.9 64.6 257.2 67.3 242l.1-.5c14.8-51.9-24.6-78.6-53.4-98-3.5-2.3-6.8-4.6-9.7-6.7L0 133.6 77.7 25.7h440l77.6 107.9-4.5 3.1c-2.9 2.1-6.2 4.4-9.6 6.7-28.8 19.4-68.2 46.1-53.4 98l.1.5c2.7 15.3 12.2 27.9 23.2 42.6 18 23.9 38.2 51 38 99.5.1 55.1-18.5 92.9-57 115.6-33.3 19.5-75.9 25.1-117.2 30.4-45.2 5.8-88 11.4-109.5 35.2zM77.9 244c-3.3 17.7-13.9 31.9-25.2 47-16.9 22.5-36.1 48.2-35.9 93-.2 113.9 86.3 124.8 170 135.4 46.1 5.7 89.6 11.3 114.7 34.6 24.9-23.3 67.4-28.8 112.1-34.6 81.2-10.5 165-21.4 164.8-135.4.2-44.8-19-70.4-35.9-93-11.3-15.1-21.9-29.3-25.2-47-16.7-59.3 30-90.8 57.8-109.6 1.7-1.1 3.4-2.2 5-3.4l-68-94.6h-429l-68 94.6c1.6 1.1 3.2 2.3 5 3.4C48 153.3 94.6 184.8 77.9 244"
     style="fill:#e2e1d8"
     id="path2" /><path
     d="M98.7 143.4h54.9v358c-30.3-6.4-47.1-10.2-54.9-15.9z"
     class="st2"
     id="path3" /><path
     d="M153.8 501.5h-.3c-29.8-6.2-47.1-10-55-15.9V143.3h55.2v358.2zm-54.9-16.1c7.8 5.7 25 9.5 54.6 15.7V143.6H98.9z"
     class="st3"
     id="path4" /><path
     d="M496.9 143.4H442v358c30.4-6.4 47.2-10.2 54.9-15.9z"
     class="st2"
     id="path5" /><path
     d="M441.9 501.5V143.3h55.2v342.3h-.1c-7.8 5.8-25.1 9.6-55 15.9zm.3-357.9v357.5c29.6-6.2 46.8-10.1 54.6-15.7V143.6z"
     class="st3"
     id="path6" /><path
     d="M211.2 143.4h54.9v375.5c-18.2-4.7-39.5-9.7-54.9-12.1z"
     class="st2"
     id="path7" /><path
     d="m266.2 519.1-.2-.1c-15.9-4.1-38.4-9.6-54.9-12.1h-.2V143.3h55.2v375.8zm-54.9-12.5c16.5 2.5 38.7 8 54.6 12.1V143.6h-54.6z"
     class="st3"
     id="path8" /><path
     d="M386.4 143.4h-54.9v375.5c18.1-4.7 39.5-9.7 54.9-12.1z"
     class="st2"
     id="path9" /><path
     d="M 331.3,519.1 V 143.3 h 55.2 V 507 h -0.1 c -16.6,2.6 -39,8 -54.9,12.1 z m 0.3,-375.5 v 375.1 c 15.9,-4.1 38.1,-9.5 54.6,-12.1 v -363 z"
     class="st3"
     id="path10"
     sodipodi:nodetypes="cccccccccccc" /></svg>
