<?xml version="1.0" encoding="UTF-8" standalone="no"?>
<svg
   width="254.17"
   height="400"
   version="1.1"
   id="svg9"
   sodipodi:docname="tigre.svg"
   inkscape:version="1.4.2 (f4327f4, 2025-05-13)"
   xmlns:inkscape="http://www.inkscape.org/namespaces/inkscape"
   xmlns:sodipodi="http://sodipodi.sourceforge.net/DTD/sodipodi-0.dtd"
   xmlns="http://www.w3.org/2000/svg"
   xmlns:svg="http://www.w3.org/2000/svg">
  <sodipodi:namedview
     id="namedview9"
     pagecolor="#ffffff"
     bordercolor="#000000"
     borderopacity="0.25"
     inkscape:showpageshadow="2"
     inkscape:pageopacity="0.0"
     inkscape:pagecheckerboard="0"
     inkscape:deskcolor="#d1d1d1"
     inkscape:zoom="2.0175"
     inkscape:cx="127.13755"
     inkscape:cy="200"
     inkscape:window-width="1920"
     inkscape:window-height="1009"
     inkscape:window-x="-8"
     inkscape:window-y="-8"
     inkscape:window-maximized="1"
     inkscape:current-layer="Capa_1" />
  <defs
     id="defs2">
    <clipPath
       id="clip-path">
      <path
         d="M163.41 181.45h86.65v193.49h-86.65z"
         class="cls-1"
         id="path1" />
    </clipPath>
    <clipPath
       id="clip-path-2">
      <path
         d="M4.1 181.45h87.58v193.49H4.1z"
         class="cls-1"
         id="path2" />
    </clipPath>
    <style
       id="style2">.cls-1{fill:none}.cls-3{fill:#1e448d}.cls-6{opacity:.25;mix-blend-mode:multiply}.cls-8{fill:#010101}.cls-11{fill:#fff}</style>
  </defs>
  <g
     style="isolation:isolate"
     id="g9">
    <g
       id="Capa_1"
       data-name="Capa 1">
      <path
         d="M163.41 181.45v193.49h56.1c30.2 0 30.55-28.5 30.55-28.5v-165h-86.65ZM4.11 183.37v163.07s.35 28.5 30.55 28.5h57V181.45H4.11z"
         class="cls-3"
         id="path3" />
      <path
         d="M4.1 181.45h87.58v193.49h11.45a22 22 0 0 1 3.11.31c5.8.94 17.94 4.76 20.83 20.26.17-.94.39-1.81.63-2.66 5-17.89 23.32-17.9 23.32-17.9h12.38v-193.5h86.65v-72.8H4.1z"
         style="fill:#ed2a3c"
         id="path4" />
      <path
         d="M0 104.38v242.11C.14 357.75 7.56 379 34.66 379h68.48c.68 0 16.63.21 19.87 17.08a4 4 0 0 0 8.07.09C134.39 379.65 150.37 379 151 379h68.47c27.1 0 34.52-21.29 34.66-32.59V104.38zm250.06 4.27v237.79s-.35 28.5-30.55 28.5H151s-18.31 0-23.31 17.9c-.24.85-.46 1.73-.63 2.66-2.89-15.5-15-19.32-20.83-20.26a22 22 0 0 0-3.11-.31H34.65c-30.2 0-30.55-28.5-30.55-28.5v-238h246v.18Z"
         style="fill:#e4e5e6"
         id="path5" />
      <g
         class="cls-6"
         id="g6">
        <path
           d="M163.41 374.94h1.97V183.37h84.68v-1.92h-86.65z"
           class="cls-8"
           style="clip-path:url(#clip-path)"
           clip-path="url(#clip-path)"
           id="path6" />
      </g>
      <g
         class="cls-6"
         id="g7">
        <path
           d="M4.11 181.45v1.92h85.5v191.57h2.07V181.45z"
           class="cls-8"
           style="clip-path:url(#clip-path-2)"
           clip-path="url(#clip-path-2)"
           id="path7" />
      </g>
      <path
         d="m127.31 0 10.12 31.43h33.31l-27.12 19.54 10.54 31.31-27.13-19.04-26.58 19.04 10.26-31.13-27.28-19.72 33.66-.08z"
         style="fill:#dba628;fill-rule:evenodd"
         id="path8" />
    </g>
  </g>
</svg>
