<?xml version="1.0" encoding="UTF-8" standalone="no"?>
<svg
   xml:space="preserve"
   id="Capa_1"
   x="0"
   y="0"
   version="1.1"
   viewBox="0 0 1984.3 1984.3"
   sodipodi:docname="union.svg"
   inkscape:version="1.4.2 (f4327f4, 2025-05-13)"
   xmlns:inkscape="http://www.inkscape.org/namespaces/inkscape"
   xmlns:sodipodi="http://sodipodi.sourceforge.net/DTD/sodipodi-0.dtd"
   xmlns="http://www.w3.org/2000/svg"
   xmlns:svg="http://www.w3.org/2000/svg"><defs
     id="defs5" /><sodipodi:namedview
     id="namedview5"
     pagecolor="#ffffff"
     bordercolor="#000000"
     borderopacity="0.25"
     inkscape:showpageshadow="2"
     inkscape:pageopacity="0.0"
     inkscape:pagecheckerboard="0"
     inkscape:deskcolor="#d1d1d1"
     inkscape:zoom="0.40669253"
     inkscape:cx="992.15002"
     inkscape:cy="992.15002"
     inkscape:window-width="1920"
     inkscape:window-height="1009"
     inkscape:window-x="-8"
     inkscape:window-y="-8"
     inkscape:window-maximized="1"
     inkscape:current-layer="Capa_1" /><style
     id="style1">.st1,.st3{fill-rule:evenodd;clip-rule:evenodd;fill:#ed1c24}.st3{fill:#fff;stroke:#ed1c24;stroke-width:11.5571;stroke-miterlimit:22.9256}</style><path
     d="M124.8 315.2C436.7 365 726.2 250.5 997.1 0c227.4 248.5 521.5 338.8 861.1 320.9 98.2 837.7-258 1387.7-866.7 1663.4C295.4 1644 43 1068.3 124.8 315.2z"
     style="fill-rule:evenodd;clip-rule:evenodd;fill:#fff;stroke:#ed1c24;stroke-width:11.4647;stroke-miterlimit:22.9256"
     id="path1" /><path
     d="m303.5 1283.7.1-924.5L169 348.4c-42.1 440 17.6 729.8 134.5 935.3M490.9 337.7l206.9-75.6.6 1486.7c-72.1-59-142.6-122.1-210.3-192.7zM876 150.8 996.3 50.5l111.5 104 2.8 1711.6-119.7 59.6-117-61.8zM1283.5 263.3l215.3 70.1 3.4 1221.3c-66.8 75.9-139.3 143.5-218.7 201.2z"
     class="st1"
     id="path2" /><path
     d="M169 348.4c295.9 47 570.4-61.2 827.2-297.9 215.7 234.9 494.5 320.2 816.6 303.2 93.1 791.7-244.7 1311.5-821.9 1572C330.8 1604.2 91.4 1060.1 169 348.4z"
     style="fill-rule:evenodd;clip-rule:evenodd;fill:none;stroke:#ed1c24;stroke-width:11.4653;stroke-miterlimit:22.9256"
     id="path3" /><path
     d="m1693.2 355.1 119.7-1.4c32.8 378.7-2.8 676.4-138.3 945.2V354.5z"
     class="st1"
     id="path5" /></svg>
