<?xml version="1.0" encoding="UTF-8" standalone="no"?>
<svg
   xml:space="preserve"
   width="219.828"
   height="252"
   version="1.1"
   id="svg58"
   sodipodi:docname="altach.svg"
   inkscape:version="1.4.2 (f4327f4, 2025-05-13)"
   xmlns:inkscape="http://www.inkscape.org/namespaces/inkscape"
   xmlns:sodipodi="http://sodipodi.sourceforge.net/DTD/sodipodi-0.dtd"
   xmlns="http://www.w3.org/2000/svg"
   xmlns:svg="http://www.w3.org/2000/svg"><sodipodi:namedview
     id="namedview58"
     pagecolor="#ffffff"
     bordercolor="#000000"
     borderopacity="0.25"
     inkscape:showpageshadow="2"
     inkscape:pageopacity="0.0"
     inkscape:pagecheckerboard="0"
     inkscape:deskcolor="#d1d1d1"
     inkscape:zoom="3.202381"
     inkscape:cx="109.76208"
     inkscape:cy="126"
     inkscape:window-width="1920"
     inkscape:window-height="1009"
     inkscape:window-x="-8"
     inkscape:window-y="-8"
     inkscape:window-maximized="1"
     inkscape:current-layer="g58" /><defs
     id="defs1"><clipPath
       id="a"
       clipPathUnits="userSpaceOnUse"><path
         d="M0 600h800V0H0Z"
         id="path1" /></clipPath></defs><g
     clip-path="url(#a)"
     transform="matrix(.88559 0 0 -.88559 -244.32 391.676)"
     id="g58"><path
       d="M0 0v32.266l-8.021-1.309v8.714l-.853-.191c-.557-.124-56.115-12.387-102.522-12.458-46.407.071-101.963 12.334-102.521 12.458l-.854.191v-8.714l-8.019 1.309V0h-11.591v-102.811l.949.362c.077.028 7.345 2.784 13.527 4.717 3.851-24.419 11.793-46.289 24.296-66.813 17.201-28.168 43.294-52.82 79.768-75.363l4.445-2.72 4.446 2.72c36.474 22.543 62.566 47.195 79.768 75.363 12.504 20.524 20.445 42.394 24.297 66.813 6.181-1.933 13.449-4.689 13.526-4.717l.949-.362V0Z"
       style="fill:#fff;fill-opacity:1;fill-rule:nonzero;stroke:none"
       transform="translate(511.396 401.478)"
       id="path2" /><path
       d="M0 0v31.938l-7.652-1.131v8.183l-1.748-.395c-.521-.117-52.443-11.746-98.98-11.813-46.537.067-98.459 11.696-98.979 11.813l-1.748.395v-8.183l-7.652 1.131V0h-11.375v-95.454l2.215.753c.153.053 4.41 1.48 11.72 3.538 3.783-25.537 11.785-48.15 24.171-68.475 16.923-27.731 42.688-52.057 78.768-74.37l2.852-1.737.028.017.028-.017 2.853 1.737c36.08 22.313 61.845 46.639 78.768 74.37 12.385 20.325 20.387 42.938 24.17 68.475 7.31-2.057 11.568-3.485 11.72-3.538l2.215-.753V0Z"
       style="fill:#000;fill-opacity:1;fill-rule:nonzero;stroke:none"
       transform="translate(508.38 398.201)"
       id="path3" /><path
       d="M0 0c-9.428-2.016-55.794-11.444-97.864-11.504-42.071.06-88.436 9.488-97.864 11.504v-35.422H0Z"
       style="fill:#ffd400;fill-opacity:1;fill-rule:nonzero;stroke:none"
       transform="translate(497.864 433.623)"
       id="path4" /><path
       d="M0 0c-3.107-25.926-10.612-48.609-22.708-68.775-15.352-25.596-38.845-48.211-71.76-69.108-32.915 20.897-56.408 43.512-71.76 69.108-12.095 20.166-19.6 42.849-22.709 68.775q-1.458-.367-2.839-.725c3.183-26.177 10.804-49.117 23.056-69.545 15.788-26.323 39.978-49.505 73.951-70.874l.301-.189.301.189c33.974 21.369 58.163 44.551 73.951 70.874C-7.964-49.842-.343-26.902 2.841-.725Q1.461-.367 0 0"
       style="fill:#ffd400;fill-opacity:1;fill-rule:nonzero;stroke:none"
       transform="translate(494.468 310.059)"
       id="path5" /><path
       d="M0 0v-87.461C11.046-83.97 62.356-68.734 116.403-68.72c54.048-.014 105.359-15.25 116.404-18.741V0H116.403Z"
       style="fill:#fff;fill-opacity:1;fill-rule:nonzero;stroke:none"
       transform="translate(283.597 394.85)"
       id="path6" /><path
       d="M0 0c5.469 12.21 17.847 20.744 32.23 20.744 14.417 0 26.786-8.534 32.248-20.744h-11.86C48.137 6.339 40.677 10.475 32.23 10.475c-8.413 0-15.881-4.136-20.364-10.475Z"
       style="fill:#ffd400;fill-opacity:1;fill-rule:nonzero;stroke:none"
       transform="translate(396.074 292.27)"
       id="path16" /><path
       d="M0 0c-5.511-12.093-17.854-20.506-32.18-20.506-14.292 0-26.635 8.413-32.179 20.506h11.932c4.558-6.214 11.91-10.262 20.247-10.262A24.99 24.99 0 0 1-11.933 0z"
       style="fill:#ffd400;fill-opacity:1;fill-rule:nonzero;stroke:none"
       transform="translate(460.701 266.602)"
       id="path17" /><path
       d="M0 0c-.158-2.38-.485-4.817-.485-7.205 0-7.384 6.047-10.219 12.603-10.441 14.25-.468 30.399 7.096 30.399 22.935-.026 17.809-25.783 12.394-25.791 22.446 0 3.864 2.884 6.004 6.624 5.883 4.365-.15 4.23-4.645 4.398-7.811A996 996 0 0 0 42.6 27.978l.049 1.48c0 9.429-6.146 14.839-15.428 15.153-13.03.431-25.557-6.707-25.532-20.723C1.689 4.57 27.196 10.667 27.196.79c.025-4.654-3.604-7.689-8.179-7.539-2.843.101-3.939 1.86-3.939 4.504 0 1.635.2 3.299.301 4.925z"
       style="fill:#000;fill-opacity:1;fill-rule:nonzero;stroke:none"
       transform="translate(293.454 340.098)"
       id="path46" /><path
       d="M0 0c12.436-.435 11.182-2.584 11.215-14.124 0-2.614-.109-4.633 1.019-7.084l17.955-1.438v.364c0 .606-1.27 1.572-1.605 2.404-3.37 8.484 3.597 21.769-9.667 24.574v.146c6.405 2.183 8.571 6.072 8.563 12.679-.024 16.336-14.075 15.249-26.133 15.232-6.021-.029-12.034.097-18.047.28.158-17.499.402-34.972.125-52.464 5.486-.271 10.972-.573 16.483-.92C-.042-13.564.009-6.773 0 0m-.184 22.993H.21l1.63.018c5.386.004 9.475-.209 9.483-6.775 0-3.595-1.32-6.669-5.411-6.681-1.989 0-3.988.104-5.979.146z"
       style="fill:#000;fill-opacity:1;fill-rule:nonzero;stroke:none"
       transform="translate(419.13 353.996)"
       id="path47" /><path
       d="m0 0-10.236 2.027L-6.23 28.02l.209-.05C-4.081 18.628-2.125 9.324 0 0m-13.899-18.406 1.588 10.386 14.577-2.968 2.467-11.491c.318-.226 16.098-3.605 16.081-3.584.017.026-15.613 64.156-15.53 64.126 0-.125-22.345 2.099-22.345 2.099.059 0-10.829-55.854-11.44-55.843z"
       style="fill:#000;fill-opacity:1;fill-rule:nonzero;stroke:none"
       transform="translate(486.217 344.864)"
       id="path48" /><path
       d="M0 0v4.47c-.017 10.888-8.003 15.154-21.316 14.635-14.276-.518-20.916-6.18-20.882-17.754l.024-21.907c.009-10.892 5.611-16.804 19.979-16.265C-6.214-36.228.326-29.596.318-20.401v6.54l-15.631-.585.017-4.842c0-3.271-.434-7.691-5.769-7.895-4.065-.138-5.562 1.564-5.587 4.571l.042 26.376c0 3.487 1.145 5.661 6.012 5.774 2.927.112 4.994-2.149 4.994-6.716V-.581z"
       style="fill:#000;fill-opacity:1;fill-rule:nonzero;stroke:none"
       transform="translate(389.76 368.94)"
       id="path49" /><path
       d="M0 0c5.524 3.006 9.579 8.377 10.807 14.743-.447.164-.899.33-1.383.506C8 9.163 4.557 5.151 0 0"
       style="fill:#ffd400;fill-opacity:1;fill-rule:nonzero;stroke:none"
       transform="translate(410.19 196.776)"
       id="path50" /><path
       d="M0 0c-1.908.669-3.431 1.12-5.472 1.464-2.032-8.935-6.648-13.916-13.675-19.786a21 21 0 0 1 2.362-.134c1.592 0 3.14.18 4.633.512C-6.529-12.755-1.135-7.255 0 0"
       style="fill:#fff;fill-opacity:1;fill-rule:nonzero;stroke:none"
       transform="translate(416.785 212.644)"
       id="path51" /><path
       d="M0 0c-2.125.05-4.819-.084-6.317-.887-4.326-6.276-8.305-10.75-14.616-14.976a21.4 21.4 0 0 1 6.943-3.475C-7.364-14.017-.883-8.271 0 0"
       style="fill:#ffd400;fill-opacity:1;fill-rule:nonzero;stroke:none"
       transform="translate(408.066 214.367)"
       id="path52" /><path
       d="M0 0c.736-4.732 3.034-8.953 6.345-12.126.422.259.901.575 1.179.775C3.343-7.833 1.653-4.726 0 0"
       style="fill:#ffd400;fill-opacity:1;fill-rule:nonzero;stroke:none"
       transform="translate(378.87 212.27)"
       id="path53" /><path
       d="M0 0c1.731 1.362 3.071 2.483 4.493 4.072-6.897 6.037-9.426 11.317-11.107 19.745a21.2 21.2 0 0 1-2.801-6.95C-7.845 9.975-5.649 4.081 0 0"
       style="fill:#fff;fill-opacity:1;fill-rule:nonzero;stroke:none"
       transform="translate(388.478 203.07)"
       id="path54" /><path
       d="M0 0c.469.669.938 1.456 1.397 2.259.511.861.979 1.756 1.465 2.608-5.389 6.627-7.27 12.244-7.815 20.033a21.5 21.5 0 0 1-5.93-4.519C-9.641 12.235-7.384 4.859 0 0"
       style="fill:#ffd400;fill-opacity:1;fill-rule:nonzero;stroke:none"
       transform="translate(395.172 209.684)"
       id="path55" /><path
       d="M0 0c-.018-.566-.019-1.146-.045-1.731 6.249 2.229 12.016.858 18.859-.576a21.25 21.25 0 0 1-11.73 3.518C4.602 1.211 2.219.781 0 0"
       style="fill:#ffd400;fill-opacity:1;fill-rule:nonzero;stroke:none"
       transform="translate(392.916 235.751)"
       id="path56" /><path
       d="M0 0c.526-2.45 1.188-4.542 2.032-6.331 9.044 2.943 15.427 2.412 24.194-.668a21.5 21.5 0 0 1-3.748 5.796C14.826 1.164 7.094 3.151 0 0"
       style="fill:#fff;fill-opacity:1;fill-rule:nonzero;stroke:none"
       transform="translate(393.374 231.118)"
       id="path57" /><path
       d="M0 0c.971-1.488 2.192-3.01 3.707-4.732 7.333 1.646 13.582.33 20.533-2.154.007.216.017.431.017.648 0 1.765-.219 3.48-.624 5.122C15.896 2.196 7.858 3.956 0 0"
       style="fill:#ffd400;fill-opacity:1;fill-rule:nonzero;stroke:none"
       transform="translate(397.13 221.81)"
       id="path58" /></g></svg>
