<?xml version="1.0" encoding="UTF-8" standalone="no"?>
<svg
   xml:space="preserve"
   id="Ebene_1"
   x="0"
   y="0"
   version="1.1"
   viewBox="0 0 112 153.1"
   sodipodi:docname="amstetten.svg"
   inkscape:version="1.4.2 (f4327f4, 2025-05-13)"
   xmlns:inkscape="http://www.inkscape.org/namespaces/inkscape"
   xmlns:sodipodi="http://sodipodi.sourceforge.net/DTD/sodipodi-0.dtd"
   xmlns="http://www.w3.org/2000/svg"
   xmlns:svg="http://www.w3.org/2000/svg"><defs
     id="defs11" /><sodipodi:namedview
     id="namedview11"
     pagecolor="#ffffff"
     bordercolor="#000000"
     borderopacity="0.25"
     inkscape:showpageshadow="2"
     inkscape:pageopacity="0.0"
     inkscape:pagecheckerboard="0"
     inkscape:deskcolor="#d1d1d1"
     inkscape:zoom="5.2710645"
     inkscape:cx="56.060783"
     inkscape:cy="76.550003"
     inkscape:window-width="1920"
     inkscape:window-height="1009"
     inkscape:window-x="-8"
     inkscape:window-y="-8"
     inkscape:window-maximized="1"
     inkscape:current-layer="Ebene_1" /><style
     id="style1">.st1{fill:#1c2a39}.st2{fill:#c63235}</style><path
     d="M0 18.9v40.4C0 93.2.2 138 56.2 153c56-14.9 55.8-59.8 55.8-93.7V18.9C90.3 4 71.1 0 56.2 0 41.1 0 21.6 4 0 18.9"
     style="fill:#fff"
     id="path1" /><path
     d="m 16.3,18.1 c -2.1,1.1 -4.3,2.2 -6.4,3.5 v 27.7 h 6.4 z M 27,45.1 V 13.4 C 24.9,14.2 22.7,15 20.6,16 v 33.2 h 4.7 c 0.5,-1.4 1.1,-2.7 1.7,-4.1 M 37.8,32.9 V 10.3 c -2.1,0.5 -4.3,1.1 -6.4,1.7 v 26.6 c 1.9,-2.1 4,-4.1 6.4,-5.7 M 48.6,8.5 C 46.5,8.7 44.3,9 42.2,9.4 v 21.1 c 2,-0.9 4.2,-1.7 6.4,-2.2 z m 10.8,19 V 8.2 c -1.1,0 -2.1,-0.1 -3.2,-0.1 -1.1,0 -2.1,0 -3.2,0.1 v 19.3 c 1.1,-0.1 2.1,-0.2 3.2,-0.2 1.1,0.1 2.1,0.1 3.2,0.2 M 70.2,9.4 C 68,9 65.9,8.7 63.8,8.5 v 19.7 c 2.2,0.5 4.4,1.3 6.4,2.2 z M 81,38.6 V 12 C 78.9,11.3 76.7,10.8 74.6,10.3 V 33 c 2.3,1.5 4.5,3.4 6.4,5.6 M 91.7,49.3 V 16 c -2.1,-1 -4.3,-1.8 -6.4,-2.6 v 31.7 c 0.7,1.3 1.2,2.7 1.7,4.2 z m 10.8,-27.7 c -2.1,-1.3 -4.3,-2.4 -6.4,-3.5 v 31.1 h 6.4 z M 86.9,71.8 h -1.1 c -5.1,10.9 -16.4,18.6 -29.5,18.6 -13,0 -24.2,-7.5 -29.4,-18.3 -5.7,1.7 -13,3.8 -17.4,6.3 1.8,26 10.1,53.6 46.8,64.2 36.6,-10.5 44.6,-38.2 46.4,-64.2 -4.8,-2.6 -10.1,-4.8 -15.8,-6.6"
     class="st1"
     id="path2"
     sodipodi:nodetypes="cccccccccccccccccccccccscccccccccccccccccccccccccccsccccc" /><path
     d="M46.2 114.3s0 .1 0 0v.7h1.6v-.7zm19.7.1s0-.1 0 0h-1.7v.8h1.7zM31 119.9s-.1 0 0 0v1.4h3v-1.4z"
     class="st1"
     id="path3" /><path
     d="M0 18.9v40.4C0 93.2.2 138 56.2 153c56-14.9 55.8-59.8 55.8-93.7V18.9C90.3 4 71.1 0 56.2 0 41.1 0 21.6 4 0 18.9m107.4 40.5c0 33.2.2 74.6-51.2 88.9C4.8 133.9 4.6 92.6 4.6 59.4v-38C21.4 10.2 38.9 4.6 56.2 4.6s34.4 5.6 51.2 16.8z"
     class="st1"
     id="path4" /><path
     d="M37.2 51.4v13.1h39.9V51.4zm39.7 13H37.3V51.6h39.6z"
     class="st1"
     id="path6" /><path
     d="M36 52.7v13.5h40.5V52.7zm40 13.1H36.4V53.1H76z"
     class="st2"
     id="path10" /><path
     d="M84.3 53.7c-1.1-4.7-2.9-7.9-4.2-9.9-3-4.2-5.8-6.9-10.5-9.3-1.5-.8-2.9-1.3-4.5-1.9l-.3-.1c-3-.9-5.6-1.3-8.7-1.3s-5.8.5-8.9 1.4c-5.1 1.6-9.1 4.2-12.6 8.1-.6.7-1.1 1.3-1.7 2.1-3.6 4.8-5.5 10.6-5.4 16.5 0 5.9 1.7 10.8 5.2 15.6l.1.1c2.6 3.5 5.5 6.1 9.4 8.2 3.6 1.8 7.5 3 11.7 3.4.8.1 1.4.1 2.2.1 10.6 0 19.9-5.5 25-14.2 3.4-6.5 4.3-12.8 3.2-18.8M65 33.2c1.5.5 3 1.1 4.4 1.8 3.8 1.9 6.6 4.3 9.1 7.6l-3.5 3-7.4-2.5-4.4-5.9zm-2.3 4.3 4.3 5.8-4.5 6.1H49.4l-4-5.6 3.8-6.2zM35.3 41c3.1-3.4 7.2-6.2 12-7.8l1.5 3.9-3.9 6.3-7.6 2.3-3.6-2.9c.5-.6 1-1.2 1.6-1.8m20.9 44.9c-1.8 0-3.2-.1-5-.4-1.2-.2-2.2-.5-3.4-.8l1.3-4.4 7-2.3 7.1 2.1 1.4 4.6c-2.6.8-5.5 1.2-8.4 1.2m22.9-11.5L74.9 72l-.1-4.8h-.6l.1 4.8-10.8 7.5-7.1-2 .1-7.4 4-2.9h-8.7l4.1 2.9-.1 7.4-6.9 2.3-10.8-7.5v-5h-.6v5.1l-4 2.3-.1-.1c-3.4-4.7-5-9.6-5.1-15.3v-.2h6v-8.5h1.8l1.4-4 7.4-2.2 4 5.6-.1.6h14.4L63 50l4.5-6 7.3 2.5 1.4 4.2h1.5v8.5h6.4c-.4 5.5-1.1 9.3-5 15.2"
     class="st1"
     id="path11" /></svg>
