<?xml version="1.0" encoding="UTF-8" standalone="no"?>
<svg
   xml:space="preserve"
   width="262"
   height="328"
   version="1.1"
   id="svg8"
   sodipodi:docname="austria-wien.svg"
   inkscape:version="1.4.2 (f4327f4, 2025-05-13)"
   xmlns:inkscape="http://www.inkscape.org/namespaces/inkscape"
   xmlns:sodipodi="http://sodipodi.sourceforge.net/DTD/sodipodi-0.dtd"
   xmlns="http://www.w3.org/2000/svg"
   xmlns:svg="http://www.w3.org/2000/svg"><defs
     id="defs8" /><sodipodi:namedview
     id="namedview8"
     pagecolor="#ffffff"
     bordercolor="#000000"
     borderopacity="0.25"
     inkscape:showpageshadow="2"
     inkscape:pageopacity="0.0"
     inkscape:pagecheckerboard="0"
     inkscape:deskcolor="#d1d1d1"
     inkscape:zoom="2.4603659"
     inkscape:cx="131.07807"
     inkscape:cy="164"
     inkscape:window-width="1920"
     inkscape:window-height="1009"
     inkscape:window-x="-8"
     inkscape:window-y="-8"
     inkscape:window-maximized="1"
     inkscape:current-layer="svg8" /><path
     fill="#FFF"
     d="M194.148 192.77c0 35.886-30.457 65.109-62.706 65.109C99.195 257.879 70 228.655 70 192.77c0-35.886 29.195-64.846 61.443-64.846s62.705 28.959 62.705 64.846"
     id="path1" /><path
     fill="#441678"
     d="m85.255 166.444.016 40.973 7.224.127-.008-17.071 10.637-.005-.002-6.83-10.506.007-.004-10.638 8.667-.004 2.629 4.595 4.333-3.548-4.601-7.613zm85.763 16.774 10.894-16.814-7.749.003-9.976 15.631-.007-16.019-7.219-.131.014 40.974 7.355-.004-.005-13.658 2.624-3.021 9.067 16.019 8.014-.004z"
     id="path2" /><g
     fill="#441678"
     id="g4"><path
       d="M131.542 124.112c-38.429 0-69.583 31.138-69.583 69.548s31.154 69.548 69.583 69.548 69.583-31.138 69.583-69.548-31.153-69.548-69.583-69.548m-.823 43.357 10.698 43.698H121zm-30.125 61.812s-.5 2.719-.938 3.219-.906 2.281-4.469 2.5-6.906-3.719-7.719-4.75-5.625-6.563-9.688-16.719-3.5-20.313-3.531-20.531.438-10.438 4-18.5 7.563-14.563 13.25-20.313 15.375-12.813 24.063-15.375c0 0 4.953-1.775 4.953 1.375 0 .141-.245 2.745-.349 2.771 0 0-3.292 15.917-4 18.458s-13.354 58.021-13.354 58.021zm42.448 20.51c-.792.292-7.021 1.084-10.479 1.084s-9.875-.624-13.708-1.396-5.062-3.48-4.458-7.188 3.698-18.041 3.698-18.041h27.219s2.94 9.719 3.375 11.469c.438 1.761 1.312 5.614 1.333 6.531s1.171 4.536-6.98 7.541M176.605 229c-5.021 6.813-8.292 4.688-8.771 4.479-3.664-1.597-5.229-6.458-5.334-6.854-.15-.57-23.667-83.625-23.667-83.625-2.604-6.563 5.479-5.313 6.667-5 14.44 3.8 21.75 10.438 28.5 17s13.688 21.625 14.625 33.188-1.812 22.271-4.146 27.417-2.853 6.583-7.874 13.395"
       id="path3" /><path
       d="M131.562 69.925C63.251 69.925 7.875 125.3 7.875 193.608S63.251 317.29 131.562 317.29 255.25 261.916 255.25 193.608c-.001-68.308-55.378-123.683-123.688-123.683M66.529 195.5c0-36.778 27.541-66.686 64.427-66.686s65.487 30.408 65.487 67.186-28.014 63.212-64.901 63.212-65.013-26.934-65.013-63.712"
       id="path4" /></g><g
     fill="#FFF"
     id="g6"><path
       d="M131.556 120.734c-40.243 0-72.868 32.62-72.868 72.86 0 40.238 32.625 72.858 72.868 72.858 40.244 0 72.866-32.62 72.866-72.858 0-40.24-32.622-72.86-72.866-72.86M131.75 263c-38.43 0-69.584-31.062-69.584-69.378s31.154-69.378 69.584-69.378 69.583 31.062 69.583 69.378S170.18 263 131.75 263"
       id="path5" /><path
       d="M131.555 78.75c-63.431 0-114.852 51.428-114.852 114.867s51.421 114.867 114.852 114.867c63.43 0 114.851-51.428 114.851-114.867S194.985 78.75 131.555 78.75m.021 224.375c-60.525 0-109.592-49.05-109.592-109.555S71.051 84.016 131.576 84.016s109.591 49.05 109.591 109.555-49.065 109.554-109.591 109.554"
       id="path6" /></g><path
     fill="#ffffff"
     d="m 30.77,185.439 v 1.767 h 2.592 v 15.08 h 2.964 v -19.3 h -1.667 c -1.086,0.925 -2.434,1.716 -3.889,2.453 m 15.501,-2.453 c -3.279,0 -4.656,1.796 -4.656,5.802 v 2.269 c 0,2.794 1.586,3.901 3.492,3.901 1.323,0 1.851,-0.422 2.698,-1.267 v 4.456 c 0,1.238 -0.555,1.818 -1.534,1.818 -0.979,0 -1.401,-0.58 -1.401,-1.818 v -0.977 h -2.86 v 1.16 c 0,2.426 1.669,4.273 4.261,4.221 3.281,0 4.658,-1.637 4.658,-5.221 v -9.123 c 10e-4,-3.587 -1.377,-5.221 -4.658,-5.221 m 1.535,8.517 c -0.396,0.315 -1.111,0.869 -1.692,0.869 -0.821,0 -1.377,-0.58 -1.377,-1.818 v -3.164 c 0,-1.237 0.556,-1.819 1.535,-1.819 0.979,0 1.534,0.582 1.534,1.819 z m 165.663,-5.799 v 1.768 h 2.59 v 15.08 h 2.966 v -19.301 h -1.67 c -1.084,0.922 -2.431,1.713 -3.886,2.453 m 15.611,-2.453 c -1.088,0.922 -2.439,1.713 -3.895,2.453 v 1.768 h 2.596 v 15.08 h 2.966 v -19.301 z"
     id="path7"
     sodipodi:nodetypes="cccccccccssscsssccscscccsssssccccccccccccccccc" /><path
     fill="#AE9A64"
     d="m87.436 5.177 6.6 20.314h21.359L98.116 38.046l6.599 20.316-17.279-12.554-17.283 12.554 6.603-20.316-17.279-12.555h21.357zm86.502 0 6.602 20.314h21.359L184.62 38.046l6.602 20.316-17.284-12.554-17.281 12.554 6.602-20.316-17.28-12.555h21.358z"
     id="path8" /></svg>
