<?xml version="1.0" encoding="UTF-8" standalone="no"?>
<svg
   xml:space="preserve"
   width="187.086"
   height="187.087"
   version="1.1"
   id="svg5"
   sodipodi:docname="bw-linz.svg"
   inkscape:version="1.4.2 (f4327f4, 2025-05-13)"
   xmlns:inkscape="http://www.inkscape.org/namespaces/inkscape"
   xmlns:sodipodi="http://sodipodi.sourceforge.net/DTD/sodipodi-0.dtd"
   xmlns="http://www.w3.org/2000/svg"
   xmlns:svg="http://www.w3.org/2000/svg"><defs
     id="defs5" /><sodipodi:namedview
     id="namedview5"
     pagecolor="#ffffff"
     bordercolor="#000000"
     borderopacity="0.25"
     inkscape:showpageshadow="2"
     inkscape:pageopacity="0.0"
     inkscape:pagecheckerboard="0"
     inkscape:deskcolor="#d1d1d1"
     inkscape:zoom="4.3135011"
     inkscape:cx="93.543503"
     inkscape:cy="93.543503"
     inkscape:window-width="1920"
     inkscape:window-height="1009"
     inkscape:window-x="-8"
     inkscape:window-y="-8"
     inkscape:window-maximized="1"
     inkscape:current-layer="g5" /><g
     fill-rule="evenodd"
     clip-rule="evenodd"
     id="g5"><path
       fill="#FFF"
       d="M-2.834-2.834h192.755v192.755H-2.834z"
       id="path1" /><path
       fill="#363B92"
       d="M0 0h187.086v187.087H0z"
       id="path2" /><path
       fill="#FFF"
       d="M12.941 12.94h161.206v161.206H12.941z"
       id="path3" /><path
       fill="#363B92"
       d="M15.279 15.279h156.529v156.529H15.279z"
       id="path4" /><path
       fill="#ffffff"
       d="M 93.543,90.413 H 45.387 c -5.435,0 -9.468,-0.433 -12.472,-1.167 3.004,-0.734 7.037,-1.167 12.472,-1.167 h 96.314 c 5.436,0 9.468,0.433 12.473,1.167 -3.005,0.734 -7.037,1.167 -12.473,1.167 z M 74.133,49.785 V 33.789 c -6.67e-4,-3.106 0.75,-5.359 2.252,-6.759 1.498667,-1.404 3.633333,-2.105667 6.404,-2.105 h 5.886 v 6.91 h -3.998 c -1.165333,6.67e-4 -1.919,0.234 -2.261,0.7 -0.341,0.465 -0.509,1.25 -0.509,2.345 h 6.768 v 6.387 h -6.838 l 0.071,8.519 h -7.775 z m 38.822,0 h -3.728 c -1.97733,0 -3.73667,-0.339667 -5.278,-1.019 -1.54333,-0.680667 -2.83467,-1.604333 -3.874,-2.771 -1.035714,-1.162697 -1.835244,-2.515852 -2.354,-3.984 -0.532,-1.489 -0.834,-3.009 -0.834,-4.569 0,-1.583 0.308,-3.129 0.852,-4.649 0.527113,-1.489306 1.338469,-2.862057 2.389,-4.042 1.05,-1.175 2.354,-2.11 3.9,-2.797 1.547,-0.687 3.329,-1.028 5.337,-1.028 h 3.59 v 7.131 h -2.478 c -1.15333,-6.67e-4 -2.158,0.247667 -3.014,0.745 -0.85267,0.494667 -1.50433,1.152 -1.955,1.972 -0.449,0.819 -0.709,1.688 -0.709,2.597 0,0.905 0.259,1.761 0.709,2.576 0.45,0.813333 1.11933,1.467667 2.008,1.963 0.891,0.498 1.946,0.707 3.169,0.745 l 2.27,0.071 z"
       id="path5"
       sodipodi:nodetypes="cscsscscccccccccccccccccscccscccscccccsccccc" /></g></svg>
