<?xml version="1.0" encoding="UTF-8" standalone="no"?>
<svg
   xml:space="preserve"
   width="316"
   height="316"
   viewBox="0 0 566.928 566.928"
   version="1.1"
   id="svg6"
   sodipodi:docname="first-vienna.svg"
   inkscape:version="1.4.2 (f4327f4, 2025-05-13)"
   xmlns:inkscape="http://www.inkscape.org/namespaces/inkscape"
   xmlns:sodipodi="http://sodipodi.sourceforge.net/DTD/sodipodi-0.dtd"
   xmlns="http://www.w3.org/2000/svg"
   xmlns:svg="http://www.w3.org/2000/svg"><defs
     id="defs6" /><sodipodi:namedview
     id="namedview6"
     pagecolor="#ffffff"
     bordercolor="#000000"
     borderopacity="0.25"
     inkscape:showpageshadow="2"
     inkscape:pageopacity="0.0"
     inkscape:pagecheckerboard="0"
     inkscape:deskcolor="#d1d1d1"
     inkscape:zoom="2.5537975"
     inkscape:cx="158"
     inkscape:cy="158"
     inkscape:window-width="1920"
     inkscape:window-height="1009"
     inkscape:window-x="-8"
     inkscape:window-y="-8"
     inkscape:window-maximized="1"
     inkscape:current-layer="svg6" /><path
     fill="#315CA3"
     d="M283.464 566.928c156.096 0 283.464-127.368 283.464-283.464S439.56 0 283.464 0 0 127.368 0 283.464s127.368 283.464 283.464 283.464"
     id="path1" /><path
     fill="#FCE900"
     d="M283.464 537.84c140.112 0 254.376-114.264 254.376-254.376S423.576 29.088 283.464 29.088 29.088 143.352 29.088 283.464 143.352 537.84 283.464 537.84"
     id="path2" /><path
     fill="#315CA3"
     d="M283.464 115.056h2.664c-.432 2.52.36 5.256 1.944 7.704 3.024 4.608 5.112 10.008 7.056 15.552-8.208 3.024-21.6 7.776-32.328 13.896 7.344 5.256 13.608 12.672 17.64 20.808 6.12-3.816 10.656-8.712 15.984-13.464 6.912-6.264 14.256-10.512 23.544-14.76-8.064-12.168-16.632-21.816-25.776-29.376 87.84 5.544 157.68 78.912 157.68 168.048 0 26.928-6.408 52.488-17.784 75.168-2.016-2.088-5.112-2.808-8.424-2.448-5.544.576-11.232-.072-17.064-.936 1.08-8.712 3.096-22.968 2.664-35.424-8.136 4.176-17.496 6.336-26.64 6.192.576 7.344 2.808 13.68 4.536 20.592 2.304 9.144 2.736 17.712 2.232 27.936 15.264-1.656 28.368-5.184 39.744-10.224-28.728 52.128-84.168 87.552-147.672 87.552-66.744 0-124.632-39.168-151.848-95.76 2.376-.648 4.464-2.592 5.976-5.112 2.736-4.824 6.624-9 10.8-13.248 6.336 5.976 16.56 15.912 26.856 22.752 1.44-8.928 5.256-17.784 10.728-25.056-6.192-3.816-12.6-5.688-19.224-8.352-8.64-3.456-15.768-8.064-23.688-14.472-7.272 12.6-12.096 24.624-14.832 36.072-8.496-20.088-13.176-42.12-13.176-65.232 0-92.736 75.672-168.408 168.408-168.408"
     id="path3" /><path
     fill="#FCE900"
     d="M409.968 308.736c-.504-2.376-1.224-4.536-2.088-6.408-3.168-6.48-8.784-10.656-15.48-13.608-10.656-4.68-25.128-6.552-36.432-8.64l-.288.936v2.448c0 11.808-2.88 23.04-7.92 32.904 13.104.936 25.632.432 37.296-1.8-.072.504-.072.936-.144 1.368 8.856.144 17.424-2.952 25.056-7.2m1.008 6.48c-.072-.72-.144-1.44-.216-2.088-8.064 4.248-16.992 7.2-26.136 7.056 0 .648-.072 1.296-.072 1.944 9.144.216 18.72-2.376 26.424-6.912m-226.08 50.76c2.232.936 4.392 1.656 6.408 2.016 7.056 1.224 13.68-.864 20.016-4.536 9.72-5.688 19.296-15.552 27.504-23.328a68 68 0 0 1-6.408-5.616c-6.84-6.84-12.312-15.12-15.984-24.192-8.928 10.368-16.272 21.096-21.528 32.112-.36-.288-.648-.576-1.008-.936-5.256 7.128-7.92 15.84-9 24.48m-5.832-3.024c.648.36 1.296.72 1.872 1.08 1.296-9 4.248-17.856 9.792-25.2-.576-.432-1.08-.792-1.584-1.152-5.544 7.272-9.072 16.416-10.08 25.272m74.52-204.552c-1.8 1.584-3.384 3.168-4.68 4.896-4.176 5.688-5.256 12.6-4.824 19.944.72 11.16 5.328 24.12 8.568 34.92 9.36-4.464 19.8-6.912 30.816-6.912q2.916 0 5.832.216c-5.328-12.6-11.592-23.904-19.08-33.624l1.296-.432c-4.032-7.92-10.656-14.112-17.928-19.008m5.328-3.816c-.648.36-1.224.792-1.8 1.152 7.488 5.184 14.112 11.808 18.216 20.016l1.728-.864c-4.032-8.28-10.656-15.552-18.144-20.304m34.992 155.88c-7.2 6.408-15.336 11.232-24.48 14.328-.072 5.616.072 11.448.504 17.424 8.424 2.88 17.064 4.752 25.848 5.832 8.352-2.16 15.912-6.048 22.392-12.384 1.224-6.264 1.368-12.888.504-19.296-9-.072-17.424-1.584-24.768-5.904m-51.984-30.312c-.864 9.504-.864 19.296 1.584 28.728 7.128 6.048 15.192 11.16 24.192 14.112 9.432-3.024 17.784-7.92 25.128-14.544 1.728-8.136.864-17.784-.864-28.008-8.28-5.544-16.704-10.872-25.848-14.76-8.496 4.248-16.344 9.216-24.192 14.472m50.112-53.064c-8.856 3.24-17.352 7.776-25.56 12.456-.216 8.352.216 16.488 1.368 24.408 8.784 3.888 16.92 9 24.912 14.256a793 793 0 0 0 24.84-10.368c.288-8.856.144-17.856-1.44-26.64-7.92-6.192-15.984-10.872-24.12-14.112m3.168-12.6c-.792-.144-1.584-.288-2.448-.36.216.144.432.36.648.576a7.7 7.7 0 0 1 1.8-.216m43.056 25.56c-1.656-2.088-3.456-4.104-5.328-6.048-1.296-1.296-2.664-2.52-4.104-3.744 1.296 2.016 2.52 4.032 3.6 6.12a80 80 0 0 1 5.832 3.672m11.88 22.104c-1.872-5.688-4.392-11.16-7.632-16.128-3.456-2.88-7.2-5.4-11.16-7.704-4.752.432-9.072 1.728-12.816 3.672 1.512 8.64 1.656 17.424 1.296 26.136 6.336 6.048 11.088 13.32 14.04 22.032l14.832-4.464c1.728-7.488 1.944-15.264 1.44-23.544"
     id="path4" /><path
     fill="#FCE900"
     d="M333.216 332.568c8.784-8.928 15.264-20.16 18.288-32.76-.504-4.536-1.224-8.856-2.808-11.808l-14.904 4.536c-2.088 8.64-7.272 15.768-13.032 22.536 1.008 6.48.936 13.176-.144 19.656 4.104 1.224 8.208.144 12.6-2.16m-85.824 10.8c10.584 6.408 22.896 10.08 36.072 10.08a67 67 0 0 0 10.8-.864c.072-.72.072-1.512 0-2.448-8.712-1.152-17.352-3.096-25.632-6.048-7.128 1.656-14.4.576-21.816-2.952zm-27.792-31.32a70.3 70.3 0 0 0 14.4 20.88c3.24 3.24 6.84 6.12 10.656 8.712l-.504-2.016c-6.624-4.752-11.736-10.728-13.896-17.64-3.96-2.88-7.488-6.192-10.656-9.936m-6.12-28.728c0 7.2 1.08 14.328 3.24 21.24 3.744 5.544 8.208 10.584 13.608 14.688 3.6-3.384 7.2-7.128 10.8-10.512-2.376-9.576-2.304-19.512-1.44-29.16-5.472-4.608-9.864-10.728-12.6-16.848-3.888 2.88-7.632 5.976-11.088 9.288-.936 3.672-1.728 7.488-2.52 11.304m27.648-55.512A85 85 0 0 0 234 234a70.24 70.24 0 0 0-19.008 34.992l.648.288c3.528-3.24 7.272-6.336 11.16-9.144 3.24-9 8.208-16.992 14.976-23.472-.288-2.736-.216-5.544-.072-8.28zm42.336-14.328c-11.808 0-23.04 2.952-32.832 8.208a147 147 0 0 0-6.624 6.84c-.216 2.304-.216 4.68-.072 7.056 7.272-.792 14.616.432 21.96 1.728 8.136-4.68 16.56-9.144 25.344-12.384.36-2.808.576-5.76.504-8.712-.72-.72-1.512-1.44-2.304-2.088-.144-.144-.36-.288-.504-.432a70 70 0 0 0-5.472-.216"
     id="path5" /><path
     fill="#315ca3"
     d="m 158.904,459.432 c 2.088,0 3.744,-1.656 3.744,-3.744 0,-2.088 -1.656,-3.816 -3.744,-3.816 -2.088,0 -3.816,1.728 -3.816,3.816 0,2.088 1.728,3.744 3.816,3.744 m -42.12,-13.968 -0.792,0.72 z m 240.768,42.624 8.64,-3.384 -6.408,-16.2 z m 14.472,10.584 -3.456,-8.496 -15.408,6.12 -2.16,-5.184 4.464,-31.608 7.776,-3.168 10.152,25.488 3.816,-1.584 2.376,5.472 -3.888,1.512 3.456,8.568 z m -178.632,0.216 13.752,-31.248 c -0.36,-0.072 -8.064,-0.144 -8.64,-0.144 l -0.36,-6.264 c 3.6,-0.504 10.584,-0.36 15.912,-1.44 l 4.752,2.448 -17.352,39.888 z m 121.176,-2.664 c -1.224,1.152 -2.448,2.016 -3.672,2.592 -8.496,3.96 -15.768,-3.528 -16.272,-12.312 -0.288,-4.752 1.296,-8.424 4.032,-11.232 5.76,-5.832 16.272,-3.744 20.16,3.24 5.688,10.152 7.344,36.648 -9.576,36.936 -6.696,0.072 -9.648,-3.096 -11.592,-9.216 l 7.488,-1.584 c 0.216,1.296 0.792,2.448 1.512,3.384 2.664,3.528 6.408,1.944 7.56,-1.728 0.936,-2.736 0.936,-7.344 0.36,-10.08 m -1.296,-6.264 c 1.512,-5.256 -0.792,-13.248 -5.904,-12.816 -5.904,0.36 -6.408,10.152 -3.024,14.832 3.024,4.248 7.632,2.376 8.928,-2.016 m -53.064,-19.224 c 8.208,1.224 11.736,6.84 11.448,12.168 -0.288,4.752 -3.096,9.072 -8.136,9.792 4.536,2.592 6.408,7.2 6.048,12.024 -0.576,6.552 -6.336,12.528 -16.056,11.088 -8.856,-1.296 -12.672,-7.704 -12.312,-13.752 0.36,-5.472 3.672,-10.224 9.432,-11.232 -4.68,-2.232 -6.048,-7.272 -4.896,-11.736 1.296,-5.184 6.264,-9.576 14.472,-8.352 m -0.792,5.472 c -7.2,-1.08 -9.216,12.312 -2.016,13.392 7.2,1.08 9.216,-12.312 2.016,-13.392 m -5.04,34.128 c 7.92,1.224 10.152,-13.968 2.232,-15.12 -7.92,-1.224 -10.224,13.968 -2.232,15.12 m 153.648,-50.904 c 2.088,0 3.816,-1.656 3.816,-3.744 0,-2.088 -1.728,-3.816 -3.816,-3.816 -2.088,0 -3.744,1.728 -3.744,3.816 0,2.088 1.656,3.744 3.744,3.744"
     id="path6"
     sodipodi:nodetypes="cssscccccccccccccccccccccccccccccccccccccccccccccccccccccscccccsssc" /></svg>
