<?xml version="1.0" encoding="UTF-8" standalone="no"?>
<svg
   xml:space="preserve"
   width="765.903"
   height="744.217"
   version="1.1"
   id="svg15"
   sodipodi:docname="horn.svg"
   inkscape:version="1.4.2 (f4327f4, 2025-05-13)"
   xmlns:inkscape="http://www.inkscape.org/namespaces/inkscape"
   xmlns:sodipodi="http://sodipodi.sourceforge.net/DTD/sodipodi-0.dtd"
   xmlns="http://www.w3.org/2000/svg"
   xmlns:svg="http://www.w3.org/2000/svg"><sodipodi:namedview
     id="namedview15"
     pagecolor="#ffffff"
     bordercolor="#000000"
     borderopacity="0.25"
     inkscape:showpageshadow="2"
     inkscape:pageopacity="0.0"
     inkscape:pagecheckerboard="0"
     inkscape:deskcolor="#d1d1d1"
     inkscape:zoom="1.0843612"
     inkscape:cx="383.17491"
     inkscape:cy="372.10849"
     inkscape:window-width="1920"
     inkscape:window-height="1009"
     inkscape:window-x="-8"
     inkscape:window-y="-8"
     inkscape:window-maximized="1"
     inkscape:current-layer="g15" /><defs
     id="defs1"><clipPath
       id="a"
       clipPathUnits="userSpaceOnUse"><path
         d="M0 600h800V0H0Z"
         id="path1" /></clipPath></defs><g
     clip-path="url(#a)"
     transform="matrix(1.33333 0 0 -1.33333 -147.358 775.047)"
     id="g15"><path
       d="M0 0h-35.927c-19.093 81.291-76.604 147.764-152.335 179.224v61.575h-197.904v-61.575C-461.895 147.764-519.409 81.291-538.498 0h-35.929v-105.933h33.311c21.975-120.266 127.288-211.431 253.902-211.431 126.616 0 231.927 91.165 253.901 211.431H0Z"
       style="fill:#1860aa;fill-opacity:1;fill-rule:nonzero;stroke:none"
       transform="translate(684.945 340.486)"
       id="path2" /><path
       d="M0 0c23.629-23.627 40.656-52.095 50.17-83.165h-93.622V33.1C-27.73 24.205-13.119 13.121 0 0"
       style="fill:#fff;fill-opacity:1;fill-rule:nonzero;stroke:none"
       transform="translate(540.136 423.65)"
       id="path3" /><path
       d="M0 0c13.12 13.121 27.732 24.205 43.452 33.1V-83.165H-50.17C-40.655-52.095-23.627-23.627 0 0"
       style="fill:#fff;fill-opacity:1;fill-rule:nonzero;stroke:none"
       transform="translate(255.328 423.65)"
       id="path4" /><path
       d="M0 0c-38.038-38.038-88.611-58.986-142.404-58.986S-246.771-38.038-284.808 0c-26.774 26.774-45.066 59.764-53.561 95.71h391.93C45.066 59.764 26.774 26.774 0 0"
       style="fill:#fff;fill-opacity:1;fill-rule:nonzero;stroke:none"
       transform="translate(540.136 138.844)"
       id="path5" /><path
       d="M0 0h-560.115v91.62h182.71c7.636-4.11 42.351-20.996 97.347-20.996 54.997 0 89.713 16.886 97.347 20.996H0Z"
       style="fill:#fff;fill-opacity:1;fill-rule:nonzero;stroke:none"
       transform="translate(677.79 241.71)"
       id="path6" /><path
       d="M0 0h-39.411l-144.182-191.525v-44.077c4.594-2.28 13.664-6.33 26.656-10.111L0-37.246Z"
       style="fill:#fff;fill-opacity:1;fill-rule:nonzero;stroke:none"
       transform="translate(489.528 574.13)"
       id="path13" /><path
       d="M0 0v-91.12L68.596 0Z"
       style="fill:#fff;fill-opacity:1;fill-rule:nonzero;stroke:none"
       transform="translate(305.935 574.13)"
       id="path14" /><path
       d="m0 0-88.049-116.959c46.87.687 78.046 14.04 88.049 19.007z"
       style="fill:#fff;fill-opacity:1;fill-rule:nonzero;stroke:none"
       transform="translate(489.528 436.48)"
       id="path15" /></g></svg>
