<?xml version="1.0" encoding="UTF-8" standalone="no"?>
<svg
   xml:space="preserve"
   viewBox="0 0 259.1 327.2"
   version="1.1"
   id="svg4"
   sodipodi:docname="lask.svg"
   inkscape:version="1.4.2 (f4327f4, 2025-05-13)"
   xmlns:inkscape="http://www.inkscape.org/namespaces/inkscape"
   xmlns:sodipodi="http://sodipodi.sourceforge.net/DTD/sodipodi-0.dtd"
   xmlns="http://www.w3.org/2000/svg"
   xmlns:svg="http://www.w3.org/2000/svg"><defs
     id="defs4" /><sodipodi:namedview
     id="namedview4"
     pagecolor="#ffffff"
     bordercolor="#000000"
     borderopacity="0.25"
     inkscape:showpageshadow="2"
     inkscape:pageopacity="0.0"
     inkscape:pagecheckerboard="0"
     inkscape:deskcolor="#d1d1d1"
     inkscape:zoom="2.4663813"
     inkscape:cx="129.54201"
     inkscape:cy="163.60001"
     inkscape:window-width="1920"
     inkscape:window-height="1009"
     inkscape:window-x="-8"
     inkscape:window-y="-8"
     inkscape:window-maximized="1"
     inkscape:current-layer="svg4" /><path
     d="M0 0v223.2C0 243 6.9 259 21.2 272c12.1 11 27.4 18.1 40.9 24.4h.1c2.1 1 23.7 10.9 64.3 29.4l3.1 1.4 1.7-.8c.5-.2 62.1-28.4 65.7-30h.1c13.5-6.2 28.8-13.3 40.9-24.4 14.3-13 21.2-29 21.2-48.8V0z"
     style="fill:#fff"
     id="path1" /><path
     d="M59.8 258.9v-141H31.9v101.6c0 20.3 11.9 30.8 27.9 39.4m139.5 0c16-8.7 27.9-19.2 27.9-39.5V117.9h-27.9zm-55.8 25.8c7.8-3.1 17.8-7.4 27.9-12.3V117.9h-27.9zm-55.8-12.3c10.1 4.9 20.2 9.2 27.9 12.3V117.9H87.7z"
     style="fill-rule:evenodd;clip-rule:evenodd;fill:#151616"
     id="path2" /><path
     d="M0 0v223.2C0 243 6.9 259 21.2 272c12.1 11 27.4 18.1 40.9 24.4h.1c2.1 1 23.7 10.9 64.3 29.4l3.1 1.4 1.7-.8c.5-.2 62.1-28.4 65.7-30h.1c13.5-6.2 28.8-13.3 40.9-24.4 14.3-13 21.2-29 21.2-48.8V0zm255.1 4v219.2c0 41.9-33.2 57.2-59.8 69.5h-.1c-3.6 1.6-65.6 30-65.6 30l-65.6-30h-.1C37.2 280.4 4 265.1 4 223.2V4z"
     id="path4" /></svg>
