<?xml version="1.0" encoding="UTF-8" standalone="no"?>
<svg
   xml:space="preserve"
   width="535.732"
   height="792"
   style="max-height:500px"
   viewBox="265.467 4.8 535.732 792"
   version="1.1"
   id="svg47"
   sodipodi:docname="lustenau.svg"
   inkscape:version="1.4.2 (f4327f4, 2025-05-13)"
   xmlns:inkscape="http://www.inkscape.org/namespaces/inkscape"
   xmlns:sodipodi="http://sodipodi.sourceforge.net/DTD/sodipodi-0.dtd"
   xmlns="http://www.w3.org/2000/svg"
   xmlns:svg="http://www.w3.org/2000/svg"><sodipodi:namedview
     id="namedview47"
     pagecolor="#ffffff"
     bordercolor="#000000"
     borderopacity="0.25"
     inkscape:showpageshadow="2"
     inkscape:pageopacity="0.0"
     inkscape:pagecheckerboard="0"
     inkscape:deskcolor="#d1d1d1"
     inkscape:zoom="1.0189394"
     inkscape:cx="267.43494"
     inkscape:cy="396"
     inkscape:window-width="1920"
     inkscape:window-height="1009"
     inkscape:window-x="-8"
     inkscape:window-y="-8"
     inkscape:window-maximized="1"
     inkscape:current-layer="g47" /><defs
     id="defs1"><clipPath
       id="a"
       clipPathUnits="userSpaceOnUse"><path
         d="M0 600h800V0H0Z"
         id="path1" /></clipPath></defs><g
     clip-path="url(#a)"
     transform="matrix(1.33333 0 0 -1.33333 0 800)"
     id="g47"><path
       d="M0 0v-342.693c17.222-102.681 94.823-202.775 193.412-238.939C292-545.468 369.601-445.374 386.823-342.693V0Z"
       style="fill:#dfb800;fill-opacity:1;fill-rule:nonzero;stroke:none"
       transform="translate(206.82 590.47)"
       id="path2" /><path
       d="M0 0c7.181-28.172 19.091-55.964 34.784-81.741l313.702 200.89v104.015z"
       style="fill:#000;fill-opacity:1;fill-rule:nonzero;stroke:none"
       transform="translate(228.148 229.15)"
       id="path3" /><path
       d="M0 0v-21.3c1.184-1.54 2.353-3.094 3.566-4.611a311 311 0 0 1 29.83-32.359v79.656z"
       style="fill:#fff;fill-opacity:1;fill-rule:nonzero;stroke:none"
       transform="translate(282.729 139.894)"
       id="path4" /><path
       d="M0 0v166.827h-33.396V-21.385Z"
       style="fill:#fff;fill-opacity:1;fill-rule:nonzero;stroke:none"
       transform="translate(316.125 305.681)"
       id="path5" /><path
       d="M0 0v102.274h-33.394v-123.66Z"
       style="fill:#fff;fill-opacity:1;fill-rule:nonzero;stroke:none"
       transform="translate(416.926 370.234)"
       id="path6" /><path
       d="M0 0v-169.971c5.494-2.694 11.057-5.197 16.699-7.44 5.639 2.243 11.2 4.746 16.695 7.44V21.384Z"
       style="fill:#fff;fill-opacity:1;fill-rule:nonzero;stroke:none"
       transform="translate(383.532 204.448)"
       id="path7" /><path
       d="M0 0v37.723h-33.396v-59.109Z"
       style="fill:#fff;fill-opacity:1;fill-rule:nonzero;stroke:none"
       transform="translate(517.73 434.786)"
       id="path8" /><path
       d="M0 0v-187.376a311.5 311.5 0 0 1 29.83 32.36c1.213 1.515 2.38 3.07 3.566 4.61V21.388Z"
       style="fill:#fff;fill-opacity:1;fill-rule:nonzero;stroke:none"
       transform="translate(484.335 268.998)"
       id="path9" /><path
       d="M0 0h-41.896v-26.832Z"
       style="fill:#009540;fill-opacity:1;fill-rule:nonzero;stroke:none"
       transform="translate(576.634 472.508)"
       id="path10" /><path
       d="M0 0c20.899 33.077 35.571 69.703 41.896 106.309v78.896L0 158.374Z"
       style="fill:#009540;fill-opacity:1;fill-rule:nonzero;stroke:none"
       transform="translate(534.737 142.902)"
       id="path11" /><path
       d="M0 0v-193.087c11.585 6.81 22.752 14.573 33.393 23.161V21.386Z"
       style="fill:#009540;fill-opacity:1;fill-rule:nonzero;stroke:none"
       transform="translate(433.934 236.723)"
       id="path12" /><path
       d="M0 0v70h-33.393v-91.385Z"
       style="fill:#009540;fill-opacity:1;fill-rule:nonzero;stroke:none"
       transform="translate(467.326 402.509)"
       id="path13" /><path
       d="M0 0v134.55h-33.397V-21.386Z"
       style="fill:#009540;fill-opacity:1;fill-rule:nonzero;stroke:none"
       transform="translate(366.527 337.958)"
       id="path14" /><path
       d="M0 0v-105.372c10.645-8.588 21.809-16.354 33.397-23.165V21.386Z"
       style="fill:#009540;fill-opacity:1;fill-rule:nonzero;stroke:none"
       transform="translate(333.13 172.17)"
       id="path15" /><path
       d="m0 0 .449.289C.306 1.072.135 1.855 0 2.638Z"
       style="fill:#009540;fill-opacity:1;fill-rule:nonzero;stroke:none"
       transform="translate(223.826 246.573)"
       id="path16" /><path
       d="M0 0v-223.297c.135-.783.306-1.566.449-2.349l41.447 26.541V0Z"
       style="fill:#009540;fill-opacity:1;fill-rule:nonzero;stroke:none"
       transform="translate(223.826 472.508)"
       id="path17" /><path
       d="M223.826 489.513h352.808v83.952H223.826Z"
       style="fill:#000;fill-opacity:1;fill-rule:nonzero;stroke:none"
       id="path18" /></g></svg>
