<?xml version="1.0" encoding="UTF-8" standalone="no"?>
<svg
   xml:space="preserve"
   width="780.41"
   height="777.6"
   style="max-height:500px"
   viewBox="135.932 8 780.41 777.6"
   version="1.1"
   id="svg23"
   sodipodi:docname="neusiedl.svg"
   inkscape:version="1.4.2 (f4327f4, 2025-05-13)"
   xmlns:inkscape="http://www.inkscape.org/namespaces/inkscape"
   xmlns:sodipodi="http://sodipodi.sourceforge.net/DTD/sodipodi-0.dtd"
   xmlns="http://www.w3.org/2000/svg"
   xmlns:svg="http://www.w3.org/2000/svg"><sodipodi:namedview
     id="namedview23"
     pagecolor="#ffffff"
     bordercolor="#000000"
     borderopacity="0.25"
     inkscape:showpageshadow="2"
     inkscape:pageopacity="0.0"
     inkscape:pagecheckerboard="0"
     inkscape:deskcolor="#d1d1d1"
     inkscape:zoom="1.0378087"
     inkscape:cx="389.76356"
     inkscape:cy="388.79999"
     inkscape:window-width="1920"
     inkscape:window-height="1009"
     inkscape:window-x="-8"
     inkscape:window-y="-8"
     inkscape:window-maximized="1"
     inkscape:current-layer="g23" /><defs
     id="defs1"><clipPath
       id="a"
       clipPathUnits="userSpaceOnUse"><path
         d="M0 600h800V0H0Z"
         id="path1" /></clipPath></defs><g
     clip-path="url(#a)"
     transform="matrix(1.33333 0 0 -1.33333 0 800)"
     id="g23"><path
       d="m0 0-124.133-124.132c-6.932-6.932-7.205-17.901-.61-24.496l249.486-249.486c6.597-6.595 17.564-6.323 24.496.612l111.579 111.577 12.553 12.552z"
       style="fill:#13a438;fill-opacity:1;fill-rule:nonzero;stroke:none"
       transform="translate(276.97 460.952)"
       id="path2" /><path
       d="m0 0 124.133 124.136c6.932 6.931 7.207 17.9.61 24.495l-249.485 249.485c-6.596 6.597-17.564 6.323-24.496-.609l-111.581-111.579-12.552-12.554z"
       style="fill:#fff;fill-opacity:1;fill-rule:nonzero;stroke:none"
       transform="translate(550.34 187.58)"
       id="path16" /><path
       d="M0 0v8.923l23.409 9.387h7.764v-64.202c0-3.36.232-6.489 1.39-9.966H7.996c1.158 3.477 1.391 6.606 1.391 9.966V0Z"
       style="fill:#000;fill-opacity:1;fill-rule:nonzero;stroke:none"
       transform="translate(289.421 224.653)"
       id="path17" /><path
       d="M0 0c-2.897 0-4.056-.928-4.056-3.824v-19.47c0-2.898 1.159-3.823 4.056-3.823h20.859c2.898 0 4.058.925 4.058 3.823v19.47C24.917-.928 23.757 0 20.859 0Zm33.143 9.501c8.112 0 13.56-4.518 13.56-13.442v-47.283c0-8.922-5.448-13.443-13.56-13.443h-57.596l-1.158 10.779c2.781-.697 4.983-1.276 10.661-1.276h35.809c2.898 0 4.058.929 4.058 2.899v20.281h-.233c-.58-3.131-1.97-4.636-4.751-4.636h-31.522c-8.112 0-13.558 4.518-13.558 13.441v19.238c0 8.924 5.446 13.442 13.558 13.442z"
       style="fill:#000;fill-opacity:1;fill-rule:nonzero;stroke:none"
       transform="translate(362.431 233.462)"
       id="path18" /><path
       d="M0 0v8.923l23.409 9.387h7.764v-64.202c0-3.36.232-6.489 1.391-9.966H7.995c1.159 3.477 1.392 6.606 1.392 9.966V0Z"
       style="fill:#000;fill-opacity:1;fill-rule:nonzero;stroke:none"
       transform="translate(418.176 224.653)"
       id="path19" /><path
       d="M0 0c-2.896 0-4.057-.928-4.057-3.824v-19.47c0-2.898 1.161-3.823 4.057-3.823h20.861c2.897 0 4.054.925 4.054 3.823v19.47C24.915-.928 23.758 0 20.861 0Zm33.145 9.501c8.111 0 13.558-4.518 13.558-13.442v-47.283c0-8.922-5.447-13.443-13.558-13.443h-57.598l-1.159 10.779c2.782-.697 4.983-1.276 10.663-1.276h35.81c2.897 0 4.054.929 4.054 2.899v20.281h-.23c-.58-3.131-1.973-4.636-4.752-4.636H-11.59c-8.111 0-13.558 4.518-13.558 13.441v19.238c0 8.924 5.447 13.442 13.558 13.442z"
       style="fill:#000;fill-opacity:1;fill-rule:nonzero;stroke:none"
       transform="translate(491.185 233.462)"
       id="path20" /><path
       d="M0 0c-.61-27.072-8.41-39.618-22.275-39.704h-72.924a12483 12483 0 0 1-3.107 30.538c5.127-3.949 12.051-4.476 16.782-4.414 14.811.193 29.637.173 44.444-.061 4.557-.071 6.112 2.744 6.221 11.921l.313 26.587c.109 9.171-1.405 12.124-6.051 12.345a545 545 0 0 1-41.194.32c-14.279-.409-22.179 11.823-22.605 39.781q-.314 21.704-.625 43.407c-.423 27.847 7.412 42.572 22.427 43.835a226.5 226.5 0 0 0 78.485-7.803q1.095-15.281 2.166-30.458c-5.132 5.316-12.327 7.544-17.275 8.431a254.4 254.4 0 0 1-47.091 4.227c-4.842-.03-6.445-2.994-6.416-12.264q.025-9.92.054-19.839c.025-9.285 1.618-12.102 6.377-12.08a327 327 0 0 0 42.003-2.595c14.513-1.975 21.96-16.296 21.357-43.312z"
       style="fill:#000;fill-opacity:1;fill-rule:nonzero;stroke:none"
       transform="translate(475.07 340.773)"
       id="path22" /><path
       d="M0 0c-13.878-.133-21.088 12.077-20.431 38.698l2.858 113.095c.63 26.539 8.809 36.195 22.652 29.27 20.622-10.25 40.066-23.772 57.57-40.486a3113 3113 0 0 1 2.246-23.148c-4.304 6.328-10.316 11.501-14.541 14.478a249 249 0 0 1-30.167 18.476c-4.372 2.263-5.93.471-6.151-7.499L10.957 32.98c-.224-7.983 1.212-10.556 5.705-10.876a1471 1471 0 0 0 31.971-2.717c4.613-.452 11.37-.601 16.262 1.591Q63.592 10.655 62.221 0Z"
       style="fill:#000;fill-opacity:1;fill-rule:nonzero;stroke:none"
       transform="translate(509.832 301.07)"
       id="path23" /></g></svg>
