<?xml version="1.0" encoding="UTF-8" standalone="no"?>
<svg
   xml:space="preserve"
   width="179.023"
   height="252"
   version="1.1"
   id="svg16"
   sodipodi:docname="ried.svg"
   inkscape:version="1.4.2 (f4327f4, 2025-05-13)"
   xmlns:inkscape="http://www.inkscape.org/namespaces/inkscape"
   xmlns:sodipodi="http://sodipodi.sourceforge.net/DTD/sodipodi-0.dtd"
   xmlns="http://www.w3.org/2000/svg"
   xmlns:svg="http://www.w3.org/2000/svg"><defs
     id="defs16" /><sodipodi:namedview
     id="namedview16"
     pagecolor="#ffffff"
     bordercolor="#000000"
     borderopacity="0.25"
     inkscape:showpageshadow="2"
     inkscape:pageopacity="0.0"
     inkscape:pagecheckerboard="0"
     inkscape:deskcolor="#d1d1d1"
     inkscape:zoom="3.202381"
     inkscape:cx="89.464684"
     inkscape:cy="126"
     inkscape:window-width="1920"
     inkscape:window-height="1009"
     inkscape:window-x="-8"
     inkscape:window-y="-8"
     inkscape:window-maximized="1"
     inkscape:current-layer="svg16" /><path
     d="M92.679 511.268c-23.534-4.976-41.25-25.909-41.25-50.902V134.413c0-28.686 23.338-52.024 52.024-52.024h390.319c28.686 0 52.023 23.338 52.023 52.024v325.953c0 24.951-17.655 45.856-41.13 50.877l-.12.021c-.14 71.805-21.516 139.295-60.227 190.109-38.9 51.062-90.646 79.183-145.705 79.183s-106.804-28.121-145.705-79.183c-38.672-50.762-60.044-118.166-60.227-189.89z"
     style="fill:#231f20;fill-opacity:1;fill-rule:nonzero;stroke:none"
     transform="matrix(.35808 0 0 -.35808 -17.416 280.502)"
     id="path1" /><path
     d="m68.428 262.266 70.19 77.965.097.114a264 264 0 0 1 14.193-20.608c38.9-51.061 90.646-79.181 145.705-79.181s106.805 28.12 145.705 79.18c35.794 46.984 56.768 108.226 59.836 173.954l.002.128c14.258-4.435 24.64-17.754 24.64-33.452V134.413c0-19.312-15.712-35.024-35.024-35.024h-390.32c-19.311 0-35.023 15.712-35.023 35.024v127.853"
     style="fill:#fff;fill-opacity:1;fill-rule:nonzero;stroke:none"
     transform="matrix(.35808 0 0 -.35808 -17.416 280.502)"
     id="path2" /><path
     d="M94.68 510.554c0 147.777 91.484 268.002 203.933 268.002S502.546 658.33 502.546 510.554c0-147.775-91.484-267.998-203.933-267.998-112.45 0-203.933 120.223-203.933 267.998"
     style="fill:#fff;fill-opacity:1;fill-rule:nonzero;stroke:none"
     transform="matrix(.35808 0 0 -.35808 -17.416 280.502)"
     id="path3" /><path
     d="M92.975 495.88c-15.329-4.53-26.546-18.736-26.546-35.514V134.413c0-20.415 16.609-37.024 37.024-37.024h390.319c20.415 0 37.023 16.61 37.023 37.024v325.953c0 16.779-11.22 30.988-26.55 35.516l.01.117q.264 6.583.289 13.218l.151-.029c22.348-4.996 39.1-24.99 39.1-48.822V134.413c0-27.583-22.44-50.024-50.023-50.024h-390.32c-27.582 0-50.023 22.44-50.023 50.024v325.953c0 23.808 16.718 43.784 39.03 48.807l.223.076q.024-6.628.288-13.203z"
     style="fill:#fff;fill-opacity:1;fill-rule:nonzero;stroke:none"
     transform="matrix(.35808 0 0 -.35808 -17.416 280.502)"
     id="path4" /><path
     d="M117.898 99.39h-1.438l-.01.187v215.875l.012.17 1.451 1.61-.008-.17V99.53zm31.539.172v224.687l.003.148q.72-.988 1.447-1.97l.006-.162V99.531l.005-.142h-1.469zm32.988.031v187.719l-.007.222q.734-.66 1.47-1.31l-.009-.147V99.515l.019-.126h-1.469zm133.41-.203h-1.437l-.02.155v141.657l.004.128q.728.07 1.454.15l-.002-.106V99.389zm98.954 0h-1.454l.01.172v186.53l-.005.134q.723.636 1.44 1.283l.02-.135V99.499zm97.521 5.484v385.032l.004.162q.741-.465 1.456-.964l-.006-.105v-383.33q-.712-.497-1.45-.959zm-15.021-5.31a35 35 0 0 0-1.47-.116l-.004.097v332.657l.003.128q.765 3.329 1.464 6.686l-.012-.485V99.687zm-17.969-.065v281.125l.002.178q.738 1.763 1.456 3.539l-.003-.248V99.483l-.002-.094h-1.453zm-16.493.031v247.86l.011.16q.73 1.26 1.448 2.528l-.004-.204V99.499l-.01-.11h-1.437zm-15.039-.14h-1.453l-.003.125v222.797l.02.13q.721.975 1.437 1.958l-.001-.151zm-17.951.125v202.843l.006.07q.728.793 1.454 1.596l-.005-.135V99.484l.012-.095h-1.469zm-32.987 0v173.484l.012.11q.72.516 1.438 1.037l.004-.131V99.389h-1.453zm-15.03-.125h-1.469l.004.125v162.89l-.012.157q.74.42 1.475.845l-.009-.11V99.498zm-16.485 0h-1.467l-.006.14v154.688l-.004.095q.733.32 1.465.647l-.005-.149V99.53zm-17.968.203v148.406l-.008.117q.742.235 1.482.477l-.02-.172V99.546l.014-.157h-1.468zm-16.494-.079v144.188l-.01.122q.743.152 1.483.31l-.02-.135V99.545l.01-.156h-1.454zm-31.522-.124h-1.47l.004.155v140.798l-.003.214a182 182 0 0 1 1.453 0l.006-.105V99.468zm-16.5 0h-1.453l-.007.155V241.36l-.008.121q.735-.079 1.47-.151l-.006-.095V99.53zm-17.953.108v144.5l.004.133q.732-.158 1.466-.308l-.016-.12V99.388h-1.454zm-15.047-.108h-1.453l.005.125V248.42l.002.166q.727-.237 1.455-.467l-.003-.168V99.546zm-17.943.14v155.282l-.011.152q.735-.327 1.47-.65l-.003-.143V99.499l.004-.11h-1.455zm-15.041-.14h-1.454l.002.156V263.28l-.002.123q.728-.422 1.46-.836l-.003-.178V99.593zm-17.947.14v174.485l.008.129q.73-.532 1.463-1.054l-.017-.123V99.5l.008-.11h-1.453zm-32.987-.031v204.407l.001.113q.723-.802 1.452-1.594l.001-.13V99.483l.011-.094h-1.469zm-32.99.016V333.78l.005.153 1.451 1.611-.001-.154V99.514l-.016-.125h-1.437zm-32.988.172v197.452l-.007.138 1.488 1.653-.026-.26V99.563l.003-.114a35 35 0 0 0-1.453.114zm-16.495 6.077v173.11l.002.091 1.46 1.621-.007-.18V104.811l-.005-.101q-.745.466-1.464.97z"
     style="fill:#afaead;fill-opacity:1;fill-rule:nonzero;stroke:none"
     transform="matrix(.35808 0 0 -.35808 -17.416 280.502)"
     id="path5" /><path
     d="M336.097 450.693a286 286 0 0 1 9.955-5.497l.142.138c10.411 10.467 22.374 24.294 37.816 49.949 20.267 33.669 25.44 67.995 15.856 106.844l-.13.499-37.53-41.688-.054-.588-26.009-109.436z"
     style="fill:#30755d;fill-opacity:1;fill-rule:nonzero;stroke:none"
     transform="matrix(.35808 0 0 -.35808 -17.416 280.502)"
     id="path7" /><path
     d="M472.835 409.387c-38.472 3.696-72.47 11.93-102.89 24.585l.085.087c9.943 10.731 21.518 25.27 35.4 48.33 26.902 44.694 30.718 91.306 13.984 142.078l.279.325 32.076 35.63.36-.463c22.894-41.955 36.417-93.608 36.417-149.405 0-35.86-5.586-70.009-15.655-100.97z"
     style="fill:#30755d;fill-opacity:1;fill-rule:nonzero;stroke:none"
     transform="matrix(.35808 0 0 -.35808 -17.416 280.502)"
     id="path8" /><path
     d="M239.355 538.985a459 459 0 0 0-13.426 18.905c-10.93 16.224-19.679 31.99-26.678 46.943l.076.24c3.26 10.87 8.02 21.356 14.528 31.054a98 98 0 0 0 7.124 9.343l.042-.268 18.276-105.74z"
     style="fill:#1e282f;fill-opacity:1;fill-rule:nonzero;stroke:none"
     transform="matrix(.35808 0 0 -.35808 -17.416 280.502)"
     id="path9" /><path
     d="M313.798 465.005a298 298 0 0 0-22.273 17.45l.272.275 34.953 38.824.642.66-13.514-56.862z"
     style="fill:#30755d;fill-opacity:1;fill-rule:nonzero;stroke:none"
     transform="matrix(.35808 0 0 -.35808 -17.416 280.502)"
     id="path10" /><path
     d="m278.106 495.171 57.38 63.736.835.879 25.618 107.787.122.441a98 98 0 0 1-10.313 7.603l6.847 24.94a119 119 0 0 0 9.444-5.815l.305-.217 2.958 12.449 23.278-10.175-4.921-20.706.252-.263c7.74-8.403 15.336-18.889 21.67-31.866l.185-.327 29.715 33.008.442.429c-34.848 53.567-86.173 87.482-143.31 87.482-48.284 0-92.418-24.22-125.965-64.052l-.177-.211c1.373-15.339 4.897-36.877 13.445-62.263l.253.49a134 134 0 0 0 6.927 11.537c6.806 10.144 14.661 18.552 22.64 25.464v.263l-3.341 19.33 23.794 9.12 2.132-12.336.042-.313a153 153 0 0 0 10.89 5.723l4.34-25.874a128 128 0 0 1-10.618-6.491l.06-.313 28.108-162.622.057-.41q3.305-3.39 6.68-6.661z"
     style="fill:#1e282f;fill-opacity:1;fill-rule:nonzero;stroke:none"
     transform="matrix(.35808 0 0 -.35808 -17.416 280.502)"
     id="path11" /><path
     d="M472.673 408.915c-29.371-89.607-96.339-152.36-174.06-152.36-54.381 0-103.498 30.722-138.154 79.869l-.169.23 67.777 75.285.212-.5c2.6-5.864 4.332-11.417 4.817-16.715 1.68-18.347-7.232-40.22-45.354-40.843l2-24.956c21.861.637 39.071 6.991 51.322 18.985 12.678 12.413 18.69 29.848 16.928 49.093-1.08 11.802-5.55 22.992-11.768 34.536l-.181.367 9.887 10.983.118-.339 20.254-117.184c2.872-19.524 6.627-27.976 13.627-27.976s11 7.5 16.5 28.5l8.651 36.399.739-1.169c3.381-5.815 7.9-10.912 13.326-14.89 14.079-10.325 33.746-14.452 58.617-12.33l-2.75 24.842c-14.316-1.178-30.375-.205-41.083 7.648-11.46 8.404-13.287 25.728-4.5 36.5 8.474 10.387 18.143 17.785 30.233 30.773l.283.309c30.42-12.655 64.418-20.89 102.89-24.585z"
     style="fill:#1f5c49;fill-opacity:1;fill-rule:nonzero;stroke:none"
     transform="matrix(.35808 0 0 -.35808 -17.416 280.502)"
     id="path12" /><path
     d="M345.903 445.042c-2.848-2.854-5.58-5.461-8.237-7.997a679 679 0 0 1-5.105-4.906l-1.203-1.357 4.645 19.545.094.366a286 286 0 0 1 9.955-5.497zM313.7 464.604l-20.896-87.925-15.403 89.12-.146.777 14.026 15.58.244.299a298 298 0 0 1 22.273-17.45z"
     style="fill:#1f5c49;fill-opacity:1;fill-rule:nonzero;stroke:none"
     transform="matrix(.35808 0 0 -.35808 -17.416 280.502)"
     id="path13" /><path
     d="m277.74 494.766-4.47-4.966-.133.667-1.848 10.696-.089.434q3.305-3.39 6.68-6.66zm-38.279 43.747 12.383-71.64.065-.801-15.68-17.416-.209.214a1676 1676 0 0 1-4.388 7.006c-8.045 12.799-16.363 26.033-23.204 40.73-13.825 29.702-20.15 70.927-9.288 107.839l.111.388c6.999-14.954 15.748-30.719 26.678-46.943a459 459 0 0 1 13.426-18.905z"
     style="fill:#231f20;fill-opacity:1;fill-rule:nonzero;stroke:none"
     transform="matrix(.35808 0 0 -.35808 -17.416 280.502)"
     id="path14" /><path
     d="M185.79 637.802c-25.756-48.9-19.682-109.519-.027-151.745 10.091-21.68 22.95-40.199 32.738-56.44l.228-.401-68.843-76.468-.159.263c-25.69 43.326-41.047 98.081-41.047 157.543 0 75.266 24.607 142.992 63.627 189.544l.164.195c1.373-15.339 4.897-36.877 13.445-62.263z"
     style="fill:#231f20;fill-opacity:1;fill-rule:nonzero;stroke:none"
     transform="matrix(.35808 0 0 -.35808 -17.416 280.502)"
     id="path15" /><path
     d="M393.012 622.807 371.3 598.689l.153.799 10.821 45.534.247-.321c4.003-6.2 7.715-13.324 10.833-21.488z"
     style="fill:#1e282f;fill-opacity:1;fill-rule:nonzero;stroke:none"
     transform="matrix(.35808 0 0 -.35808 -17.416 280.502)"
     id="path16" /></svg>
