<?xml version="1.0" encoding="UTF-8" standalone="no"?>
<svg
   xml:space="preserve"
   width="794.667"
   height="794.667"
   version="1.1"
   id="svg5"
   sodipodi:docname="schwaz.svg"
   inkscape:version="1.4.2 (f4327f4, 2025-05-13)"
   xmlns:inkscape="http://www.inkscape.org/namespaces/inkscape"
   xmlns:sodipodi="http://sodipodi.sourceforge.net/DTD/sodipodi-0.dtd"
   xmlns="http://www.w3.org/2000/svg"
   xmlns:svg="http://www.w3.org/2000/svg"><defs
     id="defs5" /><sodipodi:namedview
     id="namedview5"
     pagecolor="#ffffff"
     bordercolor="#000000"
     borderopacity="0.25"
     inkscape:showpageshadow="2"
     inkscape:pageopacity="0.0"
     inkscape:pagecheckerboard="0"
     inkscape:deskcolor="#d1d1d1"
     inkscape:zoom="1.0155197"
     inkscape:cx="397.3335"
     inkscape:cy="397.3335"
     inkscape:window-width="1920"
     inkscape:window-height="1009"
     inkscape:window-x="-8"
     inkscape:window-y="-8"
     inkscape:window-maximized="1"
     inkscape:current-layer="svg5" /><path
     d="M0 5955.83h5952.76V3.07H0z"
     style="fill:#fff;fill-opacity:1;fill-rule:evenodd;stroke:none"
     transform="matrix(.13333 0 0 -.13333 0 794.667)"
     id="path1" /><path
     d="m1106.04 5495.67 215.37 318.42 3310.1-1.82 217.24-316.52 304.41-266.18V2251.4c0-1187.06-1009.25-2106.595-2176.78-2106.595S799.59 1064.34 799.59 2251.4v2978.46zm30.65-27.19 206.27 304.97 3267.16-1.79 208.04-303.13 294.38-257.4V2251.4c0-1163.22-989.58-2065.966-2136.16-2065.966S840.219 1088.18 840.219 2251.4v2959.91z"
     style="fill:#3046a3;fill-opacity:1;fill-rule:evenodd;stroke:none"
     transform="matrix(.13333 0 0 -.13333 0 794.667)"
     id="path2" /><path
     d="M923.004 5175.55 1198 5414.11h3558.95l272.82-238.56zm4108.276-318.83V2309.79l-2054.82 1.4-233.17 278.35c25.82-13.41 52.8-24.99 80.98-34.48 49.03-16.51 100.47-25.66 152.19-27.12v-216.75l206.11 246.11c217.34 70.59 358.79 261 419.27 498.2l.77 3.34 386.6 461.62c109.25-76.24 253.91-116.75 400.72-153.13 194.35-48.14 389.77-124.04 367.37-360.28-16.23-171.41-170.95-267.01-332.51-267.39-194.12-.47-376.73 88.63-413.9 294.01-12.54 69.39-71.82 112.34-141.01 93.65-60.92-16.46-89.86-72.55-78.88-133.41 56.88-314.28 330.01-478.44 634.32-477.71 277.88.67 527.26 182.93 554.46 469.77 33.93 357.82-226.69 521.61-536.12 598.28-103.05 25.54-224.96 48.61-310.74 107.8l386.26 461.2c92.18-34.23 156.41-102.46 190.14-220.04 18.07-62.91 77.88-100.09 141.3-81.83 64.84 18.71 91.56 80.51 73.5 143.5-45.71 159.25-134.6 269.8-256.51 335.62l363.53 434.07H2976.46v-338.13c-479.46-22.89-677.32-502.43-680.23-928.08-1.05-153.76 30.15-329.91 96.03-489.76l-963.45 1150.18c48.19 16.94 101.88 24.34 156.4 21.92 174.81-7.74 291.21-73.79 341.04-247.49 18.07-62.91 77.88-100.09 141.3-81.83 64.84 18.71 91.56 80.51 73.5 143.5-76.6 266.91-274.57 397.03-545.92 409.07-113.85 5.04-223.02-18.89-315.26-67.34l-358.393 427.84v40.26h.609v52.01zm-2054.82-654.15V2751.56c-292.47 12.68-437.04 423.54-454.21 666.19-1.87 26.33-2.74 52.71-2.56 79.11 1.99 293.66 114.96 680.55 456.77 705.71m2054.39-1983.53c-18.08-1076.82-935.46-1952.349-2054.47-1952.349-1119.02 0-2036.396 875.529-2054.474 1952.349z"
     style="fill:#3046a3;fill-opacity:1;fill-rule:evenodd;stroke:none"
     transform="matrix(.13333 0 0 -.13333 0 794.667)"
     id="path3" /><path
     d="m3891.56 1497.95-553.61 562.6-268.98-264.67 211.96-215.24-302.2-290.43-294.21 277.09 223.24 227.58-269.41 264.27-410.47-418.48 70.26-467.29 288.27 293.89 281.63-285.32-434.77-413.903c-13.3-12.676-21.57-44.203 2.73-69.274l62.24-64.293c22.41-23.136 55.7-27.628 78.53-4.41l417.06 424.17 412.99-418.681c82.05-83.188 220.23 37.175 125.07 127.511l-426.43 404.72 290.65 295.62 226.45-230.16z"
     style="fill:#fff;fill-opacity:1;fill-rule:evenodd;stroke:none"
     transform="matrix(.13333 0 0 -.13333 0 794.667)"
     id="path4" /></svg>
