<?xml version="1.0" encoding="UTF-8" standalone="no"?>
<svg
   width="756"
   height="756"
   viewBox="0 0 567 567"
   version="1.1"
   id="svg4"
   sodipodi:docname="team-fur-wien.svg"
   inkscape:version="1.4.2 (f4327f4, 2025-05-13)"
   xmlns:inkscape="http://www.inkscape.org/namespaces/inkscape"
   xmlns:sodipodi="http://sodipodi.sourceforge.net/DTD/sodipodi-0.dtd"
   xmlns="http://www.w3.org/2000/svg"
   xmlns:svg="http://www.w3.org/2000/svg">
  <defs
     id="defs4" />
  <sodipodi:namedview
     id="namedview4"
     pagecolor="#ffffff"
     bordercolor="#000000"
     borderopacity="0.25"
     inkscape:showpageshadow="2"
     inkscape:pageopacity="0.0"
     inkscape:pagecheckerboard="0"
     inkscape:deskcolor="#d1d1d1"
     inkscape:zoom="1.0674603"
     inkscape:cx="378"
     inkscape:cy="378"
     inkscape:window-width="1920"
     inkscape:window-height="1009"
     inkscape:window-x="-8"
     inkscape:window-y="-8"
     inkscape:window-maximized="1"
     inkscape:current-layer="svg4" />
  <path
     d="M283.535-.02c156.555 0 283.469 126.91 283.469 283.465S440.09 566.91 283.535 566.91C126.985 566.91.07 440 .07 283.445S126.984-.02 283.535-.02m0 0"
     style="stroke:none;fill-rule:evenodd;fill:#0062aa;fill-opacity:1"
     id="path1" />
  <path
     d="M283.535 10.453c150.77 0 272.992 122.223 272.992 272.992 0 150.77-122.222 272.993-272.992 272.993S10.547 434.215 10.547 283.445 132.766 10.453 283.535 10.453m0 0"
     style="stroke:none;fill-rule:evenodd;fill:#fff;fill-opacity:1"
     id="path2" />
  <path
     d="M283.535 68.734c67.45 0 127.637 31.13 167 79.786h-13.7c-37.433-42.489-92.237-69.313-153.3-69.313-61.062 0-115.863 26.824-153.293 69.313H116.54c39.367-48.657 99.55-79.786 166.996-79.786m193.68 307.489c-34.625 72.12-108.344 121.933-193.68 121.933-85.332 0-159.055-49.812-193.676-121.933h11.692c33.8 66.152 102.61 111.46 181.984 111.46s148.188-45.308 181.988-111.46Zm0 0"
     style="stroke:none;fill-rule:evenodd;fill:#0062aa;fill-opacity:1"
     id="path3" />
  <path
     d="m 232.57,127.078 v 42.684 h -11.797 v -27.969 c -1.90667,1.44867 -3.753,2.622 -5.539,3.52 -1.78133,0.89733 -4.01933,1.758 -6.714,2.582 v -9.57 c 3.976,-1.278 7.054,-2.813 9.253,-4.602 2.192,-1.797 3.91,-4.016 5.153,-6.645 z m 13.203,33.266 11.59,-1.457 c 0.313,1.62 0.82,2.765 1.551,3.43 0.727,0.675 1.613,1.007 2.66,1.007 1.867,0 3.332,-0.949 4.38,-2.836 0.76133,-1.39733 1.334,-4.34767 1.718,-8.851 -1.399,1.437 -2.824,2.48 -4.29,3.156 -1.476,0.664 -3.171,0.996 -5.1,0.996 -3.762,0 -6.93,-1.328 -9.52,-4.008 -2.59,-2.668 -3.88,-6.047 -3.88,-10.133 0,-2.785 0.657,-5.328 1.973,-7.613 1.32,-2.297 3.13,-4.027 5.446,-5.2 2.304,-1.17 5.207,-1.757 8.695,-1.757 4.203,0 7.574,0.723 10.117,2.16 2.532,1.434 4.563,3.73 6.078,6.867 1.52,3.137 2.278,7.293 2.278,12.442 0,7.574 -1.59,13.125 -4.781,16.652 -3.184,3.52 -7.598,5.278 -13.262,5.278 -3.33267,6.7e-4 -5.96433,-0.38367 -7.895,-1.153 -1.926,-0.781 -3.539,-1.906 -4.808,-3.402 -1.282,-1.484 -2.262,-3.34 -2.95,-5.578 m 21.47,-18.727 c 0,-2.265 -0.567,-4.043 -1.72,-5.336 -1.144,-1.289 -2.53,-1.933 -4.175,-1.933 -1.551,0 -2.832,0.586 -3.844,1.75 -1.031,1.164 -1.54,2.91 -1.54,5.238 0,2.344 0.528,4.144 1.583,5.383 1.06467,1.24133 2.38767,1.86133 3.969,1.86 1.64,0 3.011,-0.599 4.093,-1.81 1.086,-1.203 1.633,-2.914 1.633,-5.152 m 17.121,6.988 c 0,-7.972 1.438,-13.562 4.309,-16.75 2.875,-3.183 7.254,-4.777 13.125,-4.777 2.824,0 5.152,0.34 6.96,1.043 1.817,0.695 3.294,1.606 4.434,2.719 1.149,1.113 2.055,2.285 2.707,3.52 0.664,1.23 1.192,2.667 1.594,4.308 0.781,3.137 1.172,6.398 1.172,9.793 0,7.621 -1.285,13.191 -3.867,16.719 -2.57,3.539 -7.008,5.297 -13.313,5.297 -3.523,0 -6.382,-0.559 -8.558,-1.692 -2.18,-1.12 -3.961,-2.773 -5.356,-4.945 -1.007,-1.55 -1.8,-3.664 -2.355,-6.34 -0.567,-2.687 -0.852,-5.648 -0.852,-8.895 m 11.57,0.032 c 0,5.343 0.47,8.988 1.419,10.945 0.937,1.961 2.32,2.941 4.109,2.941 1.176,0 2.203,-0.421 3.074,-1.253 0.86667,-0.82867 1.50467,-2.13733 1.914,-3.926 0.41,-1.801 0.617,-4.594 0.617,-8.395 0,-5.57 -0.468,-9.324 -1.418,-11.238 -0.93333,-1.91733 -2.35,-2.87567 -4.25,-2.875 -1.925,0 -3.324,0.976 -4.175,2.934 -0.86,1.953 -1.29,5.578 -1.29,10.867 m 47.583,13.281 H 322.27 v -9.59 l 21.246,-25.25 h 10.164 v 25.79 h 5.27 v 9.05 h -5.27 v 7.844 h -10.164 z m 0,-9.05 v -13.192 l -11.227,13.191 z"
     style="fill:#0062aa;fill-opacity:1;fill-rule:evenodd;stroke:none"
     id="path4"
     sodipodi:nodetypes="cccccccccccccscccscsccsccscccccccscsccccccsccccscsccccccsccscccccccccccccccccccc" />
</svg>
