<?xml version="1.0" encoding="UTF-8" standalone="no"?>
<svg
   width="301.681"
   height="331.476"
   viewBox="0 0 60.571 66.398"
   version="1.1"
   id="svg22"
   sodipodi:docname="wolfsberg.svg"
   inkscape:version="1.4.2 (f4327f4, 2025-05-13)"
   xmlns:inkscape="http://www.inkscape.org/namespaces/inkscape"
   xmlns:sodipodi="http://sodipodi.sourceforge.net/DTD/sodipodi-0.dtd"
   xmlns="http://www.w3.org/2000/svg"
   xmlns:svg="http://www.w3.org/2000/svg">
  <defs
     id="defs22" />
  <sodipodi:namedview
     id="namedview22"
     pagecolor="#ffffff"
     bordercolor="#000000"
     borderopacity="0.25"
     inkscape:showpageshadow="2"
     inkscape:pageopacity="0.0"
     inkscape:pagecheckerboard="0"
     inkscape:deskcolor="#d1d1d1"
     inkscape:zoom="2.4345653"
     inkscape:cx="150.95097"
     inkscape:cy="165.73801"
     inkscape:window-width="1920"
     inkscape:window-height="1009"
     inkscape:window-x="-8"
     inkscape:window-y="-8"
     inkscape:window-maximized="1"
     inkscape:current-layer="g21" />
  <g
     stroke-width="7.407"
     id="g22">
    <path
       fill="#fff"
       d="M51.923 9.646c-.653-.27-22.35-9.097-47.209.083 0 0-3.864 39.327 23.529 52.688 0 0 24.621-8.236 23.696-52.772"
       id="path1" />
    <path
       fill="#009747"
       d="M9.896 10.728c-.234-1.008-.823-1.675-1.573-1.96-.684-.273-1.375-.313-2.465-.061l-3.452.944-.115 6.09 4.756-1.106c2.385-.552 3.229-2.27 2.85-3.907m5.263 9.826-2.112-9.103c-.024 1.968-1.072 3.756-2.967 4.894l4.725 5.157"
       id="path2" />
    <path
       fill="#eb1923"
       d="m19.385 20.333 7.524-1.747-2.95-12.719-5.107 13.703c.183.248.353.51.532.764"
       id="path3" />
    <path
       fill="#009747"
       d="m13.117 24.645-6.2-7.223-4.02.933 1.906 8.218zm2.922-.295L4.886 26.939l2.52 10.856 11.152-2.587z"
       id="path4" />
    <path
       fill="#eb1923"
       d="m27.623 21.664-1.613.375.13.105a.28.28 0 0 1 .271-.092c.177.037.237.208.214.367a1 1 0 0 1-.026.103v.081a.2.2 0 0 1-.003.101c-.01.367-.038.731-.124 1.09-.065.275-.407.216-.496 0a2.1 2.1 0 0 0-.726-.903.3.3 0 0 1-.158 0q-.04.134-.093.266c-.072.18-.173.373-.181.57-.007.159-.16.303-.326.248-.425-.143-.844-.302-1.264-.46-.098-.036-.196-.08-.223-.195a3 3 0 0 1-.084-.544v-.02l-6.488 1.504 2.52 10.856 11.19-2.596M15.414 19.873l5.498-14.681-.34.08-8.108 1.881z"
       id="path5" />
    <path
       fill="#211e1e"
       fill-rule="evenodd"
       d="M40.36 26.602c-.335-3.99-4.728-5.292-7.2-5.904 3.092.128 7.06 1.513 8.599 4.88-.328.583-1.146.426-1.4 1.024m-9.533-11.875c-.278-.025-.637.157-.854-.024.814-.635 2.04-1.662 3.19-1.751-.951.79-1.874 1.585-2.191 2.51-.26-.29.036-.462-.145-.735m24.216 3.57c-.97-.513-1.791-2.575-2.399-3.815l-.001.163c-.868-1.098-1.823-1.97-2.887-2.567.625-.01 1.03.061 1.135-.192-.341-.478-4.626-2.405-6.803-2.336-.076-.128-.426-.137-.482-.25-.347.051-.408-.045-.728-.051-.367-.007-.719-.089-1.083-.092a6 6 0 0 1-.27 0c-.134.01-.267.017-.399.03q-.402.037-.805.087a3.1 3.1 0 0 1-1.03-.047 3 3 0 0 1-.384.08l.001.008c-3.31.607-9.322.813-11.16 4.447-3.419 1.002-7.107 1.524-10.436 3.036.666 1.206 1.655 3.405 2.97 3.68.223.926 1.075 1.697 1.886 1.807-.176-.716-.514-1.465.256-1.98.444.042.792.332 1.22.415.167-.304.327-.61.608-.89.406.14.8.309 1.22.415 1.21-2.04 4.034-.632 4.517 1.269-1.42.759-2.333.222-3.424.135-.246.288-.157.646-.607.89-.403-.072-.673-.487-1.112-.47-.482.263-.299.667-.875.91-.551-.194-.935-.767-1.093-1.404-.58.633-.528 1.4-.58 2.146-2.518 1.968 2.532 2.214 3.356 3.135-.12-.365-.283-.738-.192-1.058.628.088 1.118.53 1.808.461-.067-.3-.125-.6.072-.846 2.044-.018 7.014-.257 8.656 1.555 1.486 2.23 3.78 2.47 5.378 4.274 1.715-.781 3.445-2.14 5.291-2.53a32 32 0 0 1 2.718-.44c1.09-.585 2.18-1.168 3.273-1.73a345 345 0 0 1 6.609-3.291c-1.324-1.838-2.215-3.892-4.224-4.954"
       id="path6" />
    <path
       fill="#fff"
       d="M30.77 14.448q.042 0 .082.004l.132.011.073.111.033.053c.228-.337.522-.66.859-.981-.42.228-.83.52-1.199.802zM31.08 16l-.315-.353c-.227-.253-.19-.486-.165-.627l-.054.009c-.1.015-.204.032-.311.032a.66.66 0 0 1-.44-.145l-.265-.22.271-.212.185-.145c.846-.664 2.005-1.574 3.155-1.663l.87-.068-.672.558c-.985.818-1.823 1.561-2.106 2.386zm6.106 5.846q.265.144.522.302c1.596.992 2.552 2.285 2.85 3.85.13-.077.268-.13.393-.18.195-.076.37-.144.488-.269-.877-1.8-2.494-2.988-4.253-3.703m2.991 5.895-.093-1.116c-.302-3.593-4.134-4.95-6.991-5.658l-2.664-.66 2.743.114c1.743.072 3.517.518 4.994 1.254 1.792.894 3.12 2.204 3.846 3.789l.058.128-.069.122c-.208.372-.564.51-.849.622-.28.109-.457.186-.537.374zm-17.155-6.735.124.503c.136.55.443.986.814 1.166.137-.08.185-.173.254-.304.088-.17.198-.382.497-.545l.057-.031.066-.003c.331-.012.576.146.79.285.1.064.195.127.288.162.115-.088.154-.191.207-.334.05-.135.108-.288.235-.436l.09-.107.142.011c.296.024.578.08.85.132.352.068.685.133 1.041.133.403 0 .781-.086 1.176-.267-.368-1.007-1.484-1.85-2.502-1.85-.607 0-1.106.3-1.442.866l-.105.179-.201-.051c-.301-.077-.588-.183-.865-.285l-.208-.077c-.171.203-.291.422-.417.65l-.125.227-.197-.038a2.8 2.8 0 0 1-.615-.219c-.165-.073-.32-.145-.482-.177-.375.3-.313.674-.153 1.268a2.2 2.2 0 0 1 .331-.477zm6.112 4.11c2.386 0 5.715.173 7.067 1.665l.015.016.01.017c.79 1.185 1.803 1.774 2.876 2.397.802.467 1.63.948 2.338 1.694.536-.256 1.07-.562 1.633-.884 1.13-.649 2.302-1.32 3.535-1.58a32 32 0 0 1 2.69-.438l.113-.06a199 199 0 0 1 3.12-1.647 329 329 0 0 1 6.316-3.149c-.795-1.084-1.659-2.147-2.496-3.179-.505-.622-1.027-1.264-1.528-1.905-.13-.166-.263-.333-.404-.51-.583-.73-1.23-1.54-1.732-2.401l-.264-.334c-.868-1.1-1.812-1.94-2.804-2.497l-.896-.503 1.027-.017a17 17 0 0 1 .564.002c-.418-.244-1.18-.622-2.193-1.013-1.583-.613-3.012-.964-3.92-.964l-.106.001-.162.006-.065-.11a1 1 0 0 0-.118-.04 1 1 0 0 1-.234-.094l-.097.004c-.123 0-.216-.019-.297-.035a1.3 1.3 0 0 0-.251-.031 5 5 0 0 1-.556-.048 5 5 0 0 0-.522-.044l-.201.002h-.067c-.12.006-.25.015-.376.026-.253.024-.514.052-.796.086-.356.043-.713.03-1.055-.037l-.062.015.002.01-.28.051c-.55.101-1.172.19-1.83.286-1.688.243-3.602.52-5.301 1.111-1.932.673-3.186 1.623-3.833 2.903l-.055.107-.115.034c-1.156.339-2.363.628-3.53.907-2.207.53-4.487 1.075-6.597 1.995l.138.259c.628 1.184 1.488 2.805 2.501 3.017l.172.036.041.17c.152.626.656 1.21 1.223 1.47-.156-.606-.257-1.305.497-1.808l.082-.055.098.01c.287.027.525.134.755.238.103.047.203.092.302.126.142-.254.301-.513.548-.759l.123-.122.163.056q.199.069.39.14c.211.079.413.153.619.216.436-.62 1.068-.958 1.802-.958 1.341 0 2.764 1.135 3.106 2.479l.054.21-.192.103c-.554.296-1.075.433-1.642.433-.409 0-.784-.073-1.147-.143a9 9 0 0 0-.627-.106q-.033.069-.064.156c-.076.204-.181.485-.55.684l-.085.046-.096-.017c-.234-.041-.42-.162-.586-.27-.144-.094-.272-.176-.404-.193-.106.074-.15.159-.212.278-.102.196-.23.44-.628.608l-.1.041-.1-.035c-.452-.159-.833-.537-1.077-1.051-.167.376-.189.794-.21 1.232q-.007.156-.017.319l-.009.123-.098.076c-.413.323-.622.61-.587.806.079.435 1.245.804 2.096 1.073.448.142.863.273 1.202.42a1.1 1.1 0 0 1 .017-.516l.066-.232.238.034c.292.04.546.144.792.243.217.09.426.174.644.207-.024-.238 0-.5.19-.735l.082-.102.13-.001.542-.008c.373-.006.796-.012 1.256-.012m12.167 6.463-.136-.154c-.68-.768-1.487-1.238-2.343-1.735-1.075-.625-2.186-1.271-3.045-2.551-1.358-1.469-5.334-1.469-6.643-1.469a78 78 0 0 0-1.633.018c-.041.129-.011.294.037.51l.068.306-.31.03a2 2 0 0 1-.173.01c-.399 0-.726-.134-1.043-.263-.12-.048-.238-.097-.356-.135.025.14.08.299.136.463l.055.16.417 1.263-.887-.992c-.22-.245-.973-.483-1.637-.694-1.148-.362-2.336-.738-2.474-1.503-.073-.403.154-.816.693-1.262l.01-.188a6.5 6.5 0 0 1 .078-.836c-.89-.127-1.764-.923-2.06-1.853-1.184-.376-2.062-2.031-2.71-3.255-.099-.185-.192-.36-.278-.517l-.145-.263.273-.123c2.234-1.015 4.64-1.592 6.97-2.15 1.121-.269 2.28-.546 3.39-.868.728-1.359 2.067-2.363 4.089-3.067 1.75-.61 3.691-.89 5.404-1.138a57 57 0 0 0 1.537-.234l-.003-.015.283-.042q.175-.025.352-.073l.065-.018.066.014c.302.066.62.08.937.043.287-.035.553-.064.812-.088.14-.013.28-.022.409-.03h.018l.018.001h.049l.199-.002h.005c.202.002.397.026.586.048.173.022.335.041.5.044.155.003.263.025.349.042a.9.9 0 0 0 .333.012l.2-.03.063.129c.026.01.061.02.088.028.089.028.191.06.278.118h.009c1.341 0 3.174.634 4.147 1.012 1.157.45 2.517 1.092 2.766 1.442l.09.126-.06.142c-.09.218-.279.307-.476.341q.883.637 1.698 1.552l.001-.59.523 1.064c.496 1.011.588 2.29 1.308 3.193.142.177.276.345.408.513.498.637 1.671.933 2.175 1.553.91 1.121 1.852 2.281 2.709 3.47l.192.267-.296.144a341 341 0 0 0-6.603 3.289c-1.039.533-2.092 1.097-3.112 1.642l-.203.11-.052.006c-.987.12-1.868.263-2.694.437-1.149.242-2.28.89-3.375 1.518-.609.35-1.239.71-1.86.993"
       id="path7" />
    <path
       fill="#211e1e"
       fill-rule="evenodd"
       d="M36.355 9.737s6.778-3.265 9.192-4.953c2.412-1.687-1.835 6.97-4.153 7.6"
       id="path8" />
    <path
       fill="#fff"
       d="M41.394 12.662a.277.277 0 0 1-.073-.545c1.137-.31 3.031-3.03 4.088-5.379.523-1.162.598-1.707.577-1.883a1.2 1.2 0 0 0-.28.157c-2.405 1.68-8.953 4.841-9.23 4.975a.278.278 0 0 1-.241-.5c.068-.032 6.785-3.275 9.153-4.93.246-.172.608-.38.905-.198.318.195.251.658.23.81-.128.887-.91 2.614-1.903 4.199-.683 1.092-2.001 2.97-3.153 3.284a.3.3 0 0 1-.073.01"
       id="path9" />
    <path
       fill="#211e1e"
       d="m53.938 17.553 5.767 2.343-.415 2.17-5.571.289z"
       id="path10" />
    <path
       fill="#fff"
       d="m54.048 17.726-.204 4.503 5.347-.278.379-1.982zm-.454 4.754.232-5.1 6.014 2.442-.45 2.357"
       id="path11" />
    <g
       fill="#211e1e"
       id="g13">
      <path
         d="m20.322 58.517-4.951-3.48-2.267-8.28 3.79-1.038zm7.73 3.585-3.79 1.038-5.057-18.479 3.788-1.038zm6.666-1.339-3.79 1.037-5.11-18.665 3.79-1.037zm5.605-4.317-3.789 1.037-5.054-18.461 3.79-1.037zm4.781-6.844-3.789 1.037-4.29-15.67 3.79-1.036zm3.418-6.887-2.667.73-3.27-11.95 2.666-.73z"
         id="path12" />
      <path
         d="m2.038 53.444 14.998 1.698-5.046-5.239"
         id="path13" />
    </g>
    <path
       fill="#fff"
       d="m2.562 53.383 14.16 1.603-4.763-4.946zm14.462 1.876-15-1.697-.026-.23 9.953-3.541.125.03 5.046 5.237"
       id="path14" />
    <path
       fill="#fff"
       d="m51.756 9.663-.364.092.146.057c.444 22.797-5.962 35.808-11.423 42.714-5.549 7.016-11.265 9.317-12.015 9.596C14.273 55.335 8.669 41.733 6.402 31.506 3.883 20.14 4.765 10.203 4.804 9.786l.006-.072-.036-.06-.012-.02c-.056.047-.124.083-.183.127-.106 1.145-3.44 39.454 23.508 52.597 0 0 24.533-8.207 23.668-52.551z"
       id="path15" />
    <path
       fill="#211e1e"
       d="M28.087 62.359C1.131 49.21 4.475 10.889 4.58 9.764l-.001-.003C29.263.645 50.84 9.285 51.75 9.666l.003-.004c.92 44.473-23.666 52.697-23.666 52.697M54.33 5.637h-.01c-.887-.377-23.97-10.309-52.154.097l-.005.002.003.006c-.087.69-5.478 44.407 25.879 59.677 0 0 28.984-9.244 26.288-59.781"
       id="path16" />
    <path
       fill="#fff"
       d="M4.803 9.932c7.412-2.718 15.27-4.096 23.357-4.096 5.605 0 11.178.65 16.566 1.934 3.79.902 6.2 1.822 6.793 2.058.44 22.802-5.973 35.811-11.44 42.712-3.095 3.908-6.218 6.31-8.292 7.638-1.932 1.236-3.328 1.79-3.685 1.923-13.816-6.785-19.417-20.378-21.684-30.6-1.048-4.726-1.64-9.739-1.763-14.9-.083-3.565.094-6.021.148-6.67M28.577.759A76.3 76.3 0 0 0 2.075 5.513a.24.24 0 0 0-.152.239C1.817 6.62.57 17.502 3.079 30.158c1.489 7.516 4.004 14.149 7.477 19.717 2.06 3.302 4.485 6.262 7.206 8.796a41.6 41.6 0 0 0 10.177 6.96.23.23 0 0 0 .176.013c.075-.024 1.87-.605 4.54-2.258a36 36 0 0 0 4.572-3.378 41 41 0 0 0 5.156-5.38c4.03-5.035 7.128-11.18 9.205-18.263 1.233-4.202 2.115-8.786 2.624-13.624.558-5.32.678-11.078.356-17.117a.24.24 0 0 0-.186-.22c-.75-.317-3.45-1.403-7.604-2.439a74 74 0 0 0-8-1.523A77 77 0 0 0 28.577.76m-.49 61.598s24.586-8.224 23.665-52.697l-.002.005c-.599-.25-10.124-4.068-23.59-4.068-7.024 0-15.122 1.038-23.583 4.163l.002.003C4.474 10.888 1.13 49.211 28.087 62.36m.49-61.361c14.951 0 25.16 4.39 25.744 4.639h.01c2.697 50.537-26.288 59.78-26.288 59.78C-3.314 50.149 2.077 6.432 2.165 5.742l-.004-.007.005-.001A76 76 0 0 1 28.578.997"
       id="path17" />
    <path
       fill="#fff"
       d="M51.756 9.663c-.599-.25-10.127-4.065-23.593-4.065-7.022 0-15.127 1.04-23.586 4.164l.218.13c7.458-2.755 15.225-4.097 23.368-4.097a71.5 71.5 0 0 1 16.572 1.936c4.302 1.025 6.693 2.04 6.798 2.084"
       id="path18" />
    <path
       fill="#211e1e"
       d="m2.426 52.91 49.192-14.498s6.8-1.73 7.172-8.4l.529-9.488L8.159 36.35s-4.564.823-5.213 7.252c-.65 6.43-.519 9.31-.519 9.31"
       id="path19" />
    <g
       fill="#fff"
       id="g21">
      <path
         d="m59.789 19.92-.6.186L8.052 35.923c-.202.042-1.334.312-2.535 1.303-1.178.973-2.656 2.861-3.006 6.33-.646 6.387-.526 9.254-.52 9.373l.025.557.534-.158 49.184-14.497c.152-.04 1.839-.5 3.586-1.767 2.395-1.736 3.745-4.167 3.905-7.03l.529-9.489zm-.47.602-.53 9.49c-.371 6.669-7.17 8.399-7.17 8.399L2.425 52.91s-.131-2.88.518-9.31c.65-6.43 5.215-7.252 5.215-7.252l51.159-15.826"
         id="path20" />
    </g>
  </g>
</svg>
