<?xml version="1.0" encoding="UTF-8" standalone="no"?>
<svg
   xml:space="preserve"
   width="140"
   height="165.91"
   overflow="visible"
   viewBox="0 0 140 165.908"
   version="1.1"
   id="svg11"
   sodipodi:docname="alemannia-aachen.svg"
   inkscape:version="1.4.2 (f4327f4, 2025-05-13)"
   xmlns:inkscape="http://www.inkscape.org/namespaces/inkscape"
   xmlns:sodipodi="http://sodipodi.sourceforge.net/DTD/sodipodi-0.dtd"
   xmlns="http://www.w3.org/2000/svg"
   xmlns:svg="http://www.w3.org/2000/svg"><defs
     id="defs11" /><sodipodi:namedview
     id="namedview11"
     pagecolor="#ffffff"
     bordercolor="#000000"
     borderopacity="0.25"
     inkscape:showpageshadow="2"
     inkscape:pageopacity="0.0"
     inkscape:pagecheckerboard="0"
     inkscape:deskcolor="#d1d1d1"
     inkscape:zoom="4.8640828"
     inkscape:cx="70.00292"
     inkscape:cy="82.955002"
     inkscape:window-width="1920"
     inkscape:window-height="1009"
     inkscape:window-x="-8"
     inkscape:window-y="-8"
     inkscape:window-maximized="1"
     inkscape:current-layer="svg11" /><path
     fill="#f7e316"
     d="M138.62 1.629c-.76-.788-1.59-.958-3.38-.958H4.726c-1.511 0-2.554.17-3.246.883C.607 2.459.469 3.747.895 4.811c.564 1.437 65.897 157.19 66.216 157.96.319.745 1.16 2.49 2.884 2.49 1.703 0 2.512-1.724 2.853-2.49.479-1.064 65.663-156.55 66.227-157.97.5-1.235.298-2.384-.458-3.172"
     id="path1" /><path
     fill="none"
     d="M0 165.91h140M140 0H0"
     id="path2" /><path
     d="M69.995 165.91c-1.107.021-1.937-.575-2.47-1.181-.542-.629-.85-1.31-1.021-1.704C66.184 162.255.862 6.505.277 5.046A3.8 3.8 0 0 1 0 3.62c0-.894.32-1.82 1.011-2.533C1.927.149 3.193 0 4.715 0h130.517c.915 0 1.607.043 2.246.203a3.3 3.3 0 0 1 1.607.968l-.479.447.479-.447c.596.617.915 1.426.905 2.3 0 .52-.107 1.042-.309 1.575-.564 1.436-65.748 156.89-66.227 157.99-.18.393-.49 1.096-1.032 1.703-.522.606-1.341 1.17-2.427 1.17M1.96 2a2.3 2.3 0 0 0-.639 1.618c0 .32.064.639.181.937.564 1.416 65.907 157.21 66.216 157.95.15.351.415.915.81 1.362.393.437.84.735 1.468.735.607 0 1.043-.288 1.437-.724.383-.447.65-1.022.82-1.394.446-1.022 65.662-156.55 66.204-157.92a2.9 2.9 0 0 0 .224-1.086c0-.554-.181-1.011-.543-1.395-.298-.319-.575-.479-1.011-.596-.405-.117-1.022-.16-1.895-.16H4.677c-1.458 0-2.267.192-2.725.682z"
     id="path3" /><path
     d="M134.56 4.715c-.255-.383-.66-.425-1.81-.425H7.23c-1.138.01-1.468.18-1.724.457-.298.32-.351.745-.032 1.512.181.457 62.757 149.78 62.96 150.26.265.606.574 1.224 1.532 1.224v.01h.01v-.01c.937 0 1.289-.628 1.576-1.224.276-.6 62.77-149.8 62.96-150.26.256-.628.373-1.075.054-1.544"
     id="path4" /><path
     fill="#FFF"
     d="m69.995 150.133 59.67-142.31H10.314l59.67 142.31"
     id="path5" /><path
     d="m69.995 142.757 49.792-118.861H20.192l49.781 118.86"
     id="path6" /><path
     fill="#f7e316"
     d="M82.044 71.102c-7.014-1.096-12.049-1.022-12.049-1.022s-5.024-.074-12.028 1.022c-7.014 1.096-15.104 3.608-15.104 3.608l27.132 64.63L97.03 74.86c0 .01-7.994-2.662-14.987-3.758"
     id="path7" /><path
     d="m 90.325,83.64 c -0.543,-0.181 -2.044,-1.054 -3.087,-1.746 -1.181,-0.809 -2.235,-1.703 -3.619,-3.033 -1.01,-0.969 -1.692,-1.32 -2.469,-1.33 -1.075,-0.011 -2.15,0.255 -2.8,0.979 -0.595,0.628 -0.872,1.351 -1.096,2.405 -0.255,1.256 -2.086,8.004 -2.299,8.962 -0.191,0.852 -0.308,1.075 -0.84,1.075 -0.48,0 -0.544,-0.255 -0.81,-1.224 -0.202,-0.755 -0.34,-1.298 -0.415,-1.703 -0.117,-0.596 -0.138,-0.82 -0.138,-0.82 l 1.671,0.022 c 0,0 -1.032,-1.81 -1.341,-2.81 -0.277,-0.873 -0.245,-1.927 -0.245,-1.927 0,0 0.862,0.245 1.245,0.288 0.384,0.053 0.469,-0.17 0.245,-0.607 -0.245,-0.458 -0.766,-2.044 -0.82,-2.64 -0.031,-0.394 -0.02,-1.075 0.15,-1.447 0.095,-0.224 0.234,-0.437 0.67,-0.735 0.34,-0.223 1.054,-0.415 1.299,-0.51 0.234,-0.107 -0.681,-0.299 -1.544,-0.458 -0.862,-0.15 -1.436,-0.533 -1.681,-0.586 -0.234,-0.053 -0.596,-0.298 -1.363,-0.447 0,0 -0.574,-0.042 -1.01,0.075 -0.416,0.106 -0.576,0.425 -0.863,0.553 -0.15,0.064 -0.192,0.032 -0.788,0.085 -0.606,0.054 -1.192,0.075 -1.873,0.49 -0.766,0.458 -1.075,1.98 -0.83,1.905 0.255,-0.074 1.043,-0.447 1.48,-0.521 0.436,-0.075 0.925,0.042 1.021,0.085 0.405,0.18 0.479,0.309 0.585,0.521 0.181,0.394 0.213,1.15 0.118,1.225 -0.096,0.106 -0.469,-0.437 -1.022,-0.724 -0.383,-0.202 -1.831,-0.064 -2.033,-0.096 -0.469,-0.075 -0.788,-0.415 -1.011,-0.564 -0.213,-0.15 -0.373,-0.458 -0.586,-0.639 -0.149,-0.128 -0.702,-0.404 -0.67,-0.074 0.032,0.34 0.255,1.01 0.862,1.469 0.724,0.532 1.948,0.628 1.948,0.628 0,0 0,0.383 0.319,0.713 0.362,0.383 0.883,0.67 1.511,0.82 0.394,0.095 0.458,0.17 0.458,0.287 -0.01,0.213 -0.043,0.35 -0.202,0.958 -0.245,0.851 -0.34,1.202 -0.586,1.788 -0.245,0.607 -1.383,2.927 -1.383,2.927 l 1.67,-0.021 c 0,0 -0.01,0.223 -0.138,0.82 -0.106,0.531 -0.16,0.787 -0.415,1.702 -0.202,0.724 -0.277,0.916 -0.5,1.097 -0.107,0.095 -0.224,0.117 -0.511,0.117 -0.404,-0.022 -0.745,-0.288 -0.98,-1.097 -0.265,-0.947 -2.277,-7.706 -2.554,-8.962 -0.223,-1.054 -0.575,-2.001 -1.128,-2.533 -0.713,-0.67 -1.98,-0.862 -3.034,-0.852 -0.798,0.01 -1.469,0.362 -2.48,1.33 -1.394,1.331 -2.437,2.225 -3.63,3.034 -1.021,0.692 -2.533,1.565 -3.075,1.746 -0.362,0.117 -0.192,0.447 0.383,1.298 0.49,0.746 1.384,1.033 2.64,0.671 0.606,-0.18 1.83,-0.851 2.724,-1.448 0.863,-0.564 1.512,-1.192 1.746,-1.107 0.298,0.118 0.351,0.586 -0.074,1.107 -0.288,0.373 -0.618,0.543 -1.14,0.99 -0.553,0.426 -2.607,1.757 -3.16,2.012 -0.469,0.224 -0.852,0.373 -1.235,0.458 -0.33,0.074 0.106,1.085 0.49,1.447 0.372,0.362 0.787,0.735 1.809,0.405 0.638,-0.213 1.98,-0.905 2.64,-1.31 0.713,-0.436 1.51,-1.085 1.851,-1.085 0.341,0 0.852,0.436 0.32,1.064 -0.128,0.17 -1.565,1.288 -2.555,1.938 -1.054,0.68 -2.182,1.277 -3.087,1.426 -0.436,0.085 0.469,1.405 1.246,1.724 0.756,0.309 2.192,-0.543 2.671,-0.766 0.469,-0.224 1.129,-0.703 1.608,-1.043 0.436,-0.309 0.862,-0.607 1.032,-0.352 0.16,0.256 0.16,0.639 -0.096,0.958 -0.415,0.5 -0.51,0.586 -1.17,1.107 -0.767,0.596 -2.342,1.693 -3.64,1.735 -0.469,0.011 0.563,1.714 1.362,2.001 0.415,0.139 1.383,-0.276 1.383,-0.276 0.565,-0.234 1.47,-0.777 1.927,-1.129 0.309,-0.223 0.788,-0.542 1.128,-0.35 0.33,0.18 0.266,0.766 -0.213,1.202 -0.472267,0.43361 -0.981539,0.8251 -1.522,1.17 -0.468,0.32 -1.405,0.937 -2.363,0.97 -0.521,0 1.288,2.416 1.852,2.447 1,0.075 2.491,-0.521 3.64,-1.351 0.98,-0.713 1.512,-0.98 2.002,-1.129 0.457,-0.16 0.883,-0.17 1.447,0 0.415,0.139 0.703,0.288 1.022,0.533 0.277,0.223 0.447,0.393 0.617,0.649 0.213,0.309 0.277,0.543 0.309,0.788 0.043,0.298 -0.074,0.638 -0.479,1.117 -0.766,0.937 -1.213,1.17 -2.608,2.172 -1.383,1.01 -2.682,1.447 -2.682,1.447 0,0 2.331,1.224 2.374,1.224 0.053,0 -0.16,0.564 -0.469,0.81 -0.308,0.265 -0.372,0.244 -0.564,0.265 -0.18,0.021 -1.48,-0.223 -2.299,-0.064 -0.809,0.16 -1.543,1.33 -1.107,1.31 0.66,-0.043 1.543,-0.213 2.033,0 0.532,0.223 0.01,1.043 -0.255,1.394 -0.267,0.351 -0.81,0.67 -0.81,0.67 l -0.053,1.437 1.288,-0.33 c 0,0 0.298,-0.574 0.532,-0.958 0.245,-0.393 0.66,-0.628 0.948,-0.723 0.287,-0.107 0.585,0.308 0.681,0.809 0.096,0.5 -0.085,1.522 0.149,1.564 0.33,0.085 0.862,-1.309 0.862,-1.905 0,-0.607 -0.436,-1.458 -0.724,-1.852 -0.287,-0.394 -0.127,-0.67 0,-0.894 0.203,-0.351 0.83,-0.607 0.83,-0.607 0,0 1.512,2.576 1.523,2.49 0.053,-0.34 0.287,-2.65 0.67,-4.001 0.383,-1.341 0.33,-1.597 0.67,-2.204 0.427,-0.755 0.66,-1.309 0.81,-1.107 0.138,0.213 0.096,1.107 0.096,1.107 0,0 0.298,8.867 0.298,11.421 0,2.534 -2.14,5.035 -2.14,5.035 h 2.47 c 0,0.532 0.17,3.906 0.67,3.917 0.5,-0.01 0.66,-3.385 0.66,-3.917 h 2.48 c 0,0 -2.14,-2.49 -2.14,-5.035 0,-2.554 0.299,-11.42 0.299,-11.42 0,0 -0.043,-0.895 0.096,-1.108 0.149,-0.191 0.383,0.362 0.808,1.118 0.341,0.607 0.352,0.862 0.735,2.203 0.383,1.352 0.617,3.662 0.67,4.002 0.011,0.086 1.523,-2.49 1.523,-2.49 0,0 0.638,0.245 0.83,0.606 0.138,0.224 0.287,0.5 0,0.895 -0.288,0.393 -0.713,1.245 -0.713,1.852 0,0.596 0.521,1.99 0.862,1.905 0.234,-0.053 0.042,-1.075 0.138,-1.565 0.096,-0.5 0.394,-0.915 0.692,-0.809 0.277,0.107 0.692,0.33 0.937,0.724 0.234,0.383 0.532,0.958 0.532,0.958 l 1.299,0.33 -0.054,-1.437 c 0,0 -0.543,-0.309 -0.809,-0.67 -0.266,-0.361 -0.787,-1.16 -0.244,-1.395 0.49,-0.213 1.362,-0.043 2.011,0 0.458,0.021 -0.287,-1.15 -1.107,-1.31 -0.82,-0.159 -2.107,0.086 -2.31,0.065 -0.18,-0.022 -0.244,0 -0.564,-0.266 -0.298,-0.245 -0.51,-0.81 -0.457,-0.81 0.053,0 2.373,-1.223 2.373,-1.223 0,0 -1.288,-0.458 -2.682,-1.459 -1.384,-1 -1.905,-1.234 -2.672,-2.171 -0.404,-0.479 -0.521,-0.82 -0.49,-1.128 0.033,-0.245 0.107,-0.48 0.32,-0.788 0.17,-0.245 0.34,-0.426 0.617,-0.65 0.32,-0.233 0.597,-0.393 1.012,-0.531 0.564,-0.17 0.99,-0.16 1.458,0 0.479,0.16 1.032,0.425 2.001,1.138 1.15,0.83 2.64,1.427 3.64,1.352 0.564,-0.042 2.374,-2.448 1.852,-2.448 -0.968,-0.032 -1.894,-0.65 -2.373,-0.968 -0.628,-0.394 -1.118,-0.82 -1.523,-1.171 -0.468,-0.447 -0.532,-1.033 -0.202,-1.214 0.33,-0.191 0.81,0.128 1.118,0.352 0.458,0.35 1.352,0.894 1.916,1.128 0,0 0.99,0.415 1.405,0.277 0.798,-0.277 1.83,-1.98 1.362,-1.99 -1.298,-0.043 -2.863,-1.14 -3.661,-1.736 -0.639,-0.521 -0.735,-0.606 -1.15,-1.107 -0.255,-0.319 -0.255,-0.692 -0.096,-0.958 0.159,-0.266 0.586,0.043 1.033,0.352 0.479,0.33 1.128,0.809 1.607,1.043 0.468,0.223 1.905,1.085 2.672,0.766 0.777,-0.32 1.67,-1.64 1.234,-1.724 -0.894,-0.15 -2.033,-0.745 -3.097,-1.437 -0.969,-0.639 -2.406,-1.767 -2.533,-1.927 -0.543,-0.628 -0.022,-1.064 0.308,-1.064 0.352,0 1.14,0.65 1.863,1.086 0.66,0.404 2.001,1.107 2.63,1.309 1.032,0.33 1.436,-0.043 1.82,-0.405 0.382,-0.362 0.798,-1.373 0.478,-1.447 -0.372,-0.085 -0.756,-0.235 -1.234,-0.458 -0.543,-0.255 -2.598,-1.586 -3.151,-2.012 -0.522,-0.436 -0.852,-0.617 -1.15,-0.99 -0.415,-0.532 -0.35,-1 -0.063,-1.107 0.223,-0.085 0.883,0.554 1.745,1.107 0.894,0.586 2.118,1.267 2.725,1.437 1.245,0.373 2.15,0.085 2.64,-0.66 0.575,-0.851 0.745,-1.181 0.383,-1.298 M 70.258,77.356 c -0.34,0 -0.607,-0.213 -0.607,-0.469 0,-0.255 0.266,-0.468 0.607,-0.468 0.33,0 0.607,0.213 0.607,0.468 0,0.256 -0.277,0.469 -0.607,0.469"
     id="path8"
     sodipodi:nodetypes="cccccccsccccccccccccccccccccccccccccccccccccccccccccccccccccccccccccscccccccccccccccccccccccccccscccccccccccccsccccccccscccccsccccccccscccccccscccccsccccccccccccccccccccsccccccscccccccccccccsssc" /></svg>
