<?xml version="1.0" encoding="UTF-8" standalone="no"?>
<svg
   viewBox="0 0 119 190"
   version="1.1"
   id="svg11"
   sodipodi:docname="borussia-monchengladbach.svg"
   inkscape:version="1.4.2 (f4327f4, 2025-05-13)"
   xmlns:inkscape="http://www.inkscape.org/namespaces/inkscape"
   xmlns:sodipodi="http://sodipodi.sourceforge.net/DTD/sodipodi-0.dtd"
   xmlns="http://www.w3.org/2000/svg"
   xmlns:svg="http://www.w3.org/2000/svg">
  <defs
     id="defs11" />
  <sodipodi:namedview
     id="namedview11"
     pagecolor="#ffffff"
     bordercolor="#000000"
     borderopacity="0.25"
     inkscape:showpageshadow="2"
     inkscape:pageopacity="0.0"
     inkscape:pagecheckerboard="0"
     inkscape:deskcolor="#d1d1d1"
     inkscape:zoom="4.2473684"
     inkscape:cx="59.448575"
     inkscape:cy="95"
     inkscape:window-width="1920"
     inkscape:window-height="1009"
     inkscape:window-x="-8"
     inkscape:window-y="-8"
     inkscape:window-maximized="1"
     inkscape:current-layer="svg11" />
  <path
     fill="#FFF"
     d="M59.4 0 0 95.1 59.5 190 119 95.1z"
     id="path1" />
  <path
     d="M59.4 6 3.8 95.1 59.5 184l55.7-88.9z"
     id="path2" />
  <path
     fill="#FFF"
     d="M59.4 20.4 12.8 95.1l46.7 74.5 46.7-74.5z"
     id="path3" />
  <path
     d="M59.5 27 16.9 95.1 59.5 163l42.6-67.9z"
     id="path4" />
  <path
     fill="#FFF"
     d="M59.5 32.3 20.2 95.1l39.3 62.6 39.3-62.6z"
     id="path5" />
  <path
     d="M59.4 30.9 47.6 48.6h24zm21.3 95.8h-42L23 101.8h72.7zm-41.6-64h41l15 24.9H23.4zm20.3 97.5-12.2-19.6h25.2z"
     id="path6" />
</svg>
