<?xml version="1.0" encoding="UTF-8" standalone="no"?>
<svg
   xml:space="preserve"
   id="Layer_1"
   x="0"
   y="0"
   version="1.1"
   viewBox="0 0 198.42 198.43"
   sodipodi:docname="borussia-dortmund.svg"
   inkscape:version="1.4.2 (f4327f4, 2025-05-13)"
   xmlns:inkscape="http://www.inkscape.org/namespaces/inkscape"
   xmlns:sodipodi="http://sodipodi.sourceforge.net/DTD/sodipodi-0.dtd"
   xmlns="http://www.w3.org/2000/svg"
   xmlns:svg="http://www.w3.org/2000/svg"><defs
     id="defs9" /><sodipodi:namedview
     id="namedview9"
     pagecolor="#ffffff"
     bordercolor="#000000"
     borderopacity="0.25"
     inkscape:showpageshadow="2"
     inkscape:pageopacity="0.0"
     inkscape:pagecheckerboard="0"
     inkscape:deskcolor="#d1d1d1"
     inkscape:zoom="4.0669255"
     inkscape:cx="99.214996"
     inkscape:cy="99.214996"
     inkscape:window-width="1920"
     inkscape:window-height="1009"
     inkscape:window-x="-8"
     inkscape:window-y="-8"
     inkscape:window-maximized="1"
     inkscape:current-layer="Layer_1" /><style
     id="style1">.st0{fill:#ffd900}.st1,.st2{fill-rule:evenodd;clip-rule:evenodd}.st2{fill:#ffd900}</style><linearGradient
     id="SVGID_1_"
     x1="-168.245"
     x2="-167.538"
     y1="552.377"
     y2="551.67"
     gradientUnits="userSpaceOnUse"><stop
       offset="0"
       style="stop-color:#339a2a"
       id="stop1" /><stop
       offset=".983"
       style="stop-color:#121e0d"
       id="stop2" /></linearGradient><path
     d="M0 99.21C0 44.42 44.42 0 99.21 0s99.21 44.42 99.21 99.21-44.42 99.22-99.21 99.22S0 154.01 0 99.21"
     class="st0"
     id="path2" /><path
     d="M4.77 99.21c0-52.16 42.28-94.44 94.44-94.44s94.44 42.28 94.44 94.44-42.28 94.45-94.44 94.45S4.77 151.37 4.77 99.21"
     id="path3" /><path
     d="M10.01 99.21c0-49.26 39.94-89.2 89.2-89.2s89.2 39.94 89.2 89.2c0 49.27-39.94 89.21-89.2 89.21s-89.2-39.94-89.2-89.21"
     class="st0"
     id="path4" /><path
     d="M113.8 175.22c-6.59 0-11.38-4.99-11.38-10.68 0-.83-.06-1.2-.02-1.8h6.21c1.8 0 1.51 2.44 1.51 2.44 0 1.88 2.03 2.73 3.56 2.77 1.86.05 3.38-1.66 3.38-3.54l-.03-3.64c-1.19.65-3.55.63-3.55.63-5.63-.15-11.13-5.01-11.13-11.02v-2.68c0-6.01 5.12-10.73 11.13-10.73h.25c6.01 0 10.67 4.86 10.67 10.87v16.41c.01 6.19-4.37 10.91-10.6 10.97"
     class="st1"
     id="path5" /><path
     d="M113.56 144.74h.11c1.88 0 3.4 1.52 3.4 3.4v2.15c0 1.88-1.52 3.4-3.4 3.4h-.11c-1.88 0-3.4-1.52-3.4-3.4v-2.15c0-1.88 1.52-3.4 3.4-3.4"
     class="st2"
     id="path6" /><path
     d="m 84.59,137.03 h 0.25 c 6.01,0 10.87,4.87 10.87,10.88 v 16.42 c 0,6.01 -4.87,10.88 -10.87,10.88 h -0.25 c -6.01,0 -10.88,-4.87 -10.88,-10.88 v -16.42 c 0.01,-6.01 4.88,-10.88 10.88,-10.88"
     class="st1"
     id="path7"
     sodipodi:nodetypes="csssssscc" /><path
     d="M84.66 144.83h.11c1.88 0 3.4 1.52 3.4 3.4v16.3c0 1.88-1.52 3.4-3.4 3.4h-.11c-1.88 0-3.4-1.52-3.4-3.4v-16.3c0-1.88 1.53-3.4 3.4-3.4"
     class="st2"
     id="path8" /><path
     d="m69.64 24.39 24.27 75.08h10.5l23.98-75.08H113.7L99.14 74.5 84.67 24.39z"
     class="st1"
     id="path9" /></svg>
