<?xml version="1.0" encoding="UTF-8" standalone="no"?>
<svg
   xml:space="preserve"
   viewBox="0 0 453.5 383.1"
   version="1.1"
   id="svg5"
   sodipodi:docname="dynamo-dresden.svg"
   inkscape:version="1.4.2 (f4327f4, 2025-05-13)"
   xmlns:inkscape="http://www.inkscape.org/namespaces/inkscape"
   xmlns:sodipodi="http://sodipodi.sourceforge.net/DTD/sodipodi-0.dtd"
   xmlns="http://www.w3.org/2000/svg"
   xmlns:svg="http://www.w3.org/2000/svg"><defs
     id="defs5" /><sodipodi:namedview
     id="namedview5"
     pagecolor="#ffffff"
     bordercolor="#000000"
     borderopacity="0.25"
     inkscape:showpageshadow="2"
     inkscape:pageopacity="0.0"
     inkscape:pagecheckerboard="0"
     inkscape:deskcolor="#d1d1d1"
     inkscape:zoom="2.1064996"
     inkscape:cx="226.67937"
     inkscape:cy="191.55"
     inkscape:window-width="1920"
     inkscape:window-height="1009"
     inkscape:window-x="-8"
     inkscape:window-y="-8"
     inkscape:window-maximized="1"
     inkscape:current-layer="Ebene_1" /><style
     id="style1">.st2{fill:#fff}</style><g
     id="Ebene_1"><path
       d="M.1 90c14.4 48.2 33.4 112.7 55.5 153.1C106.3 335.9 163.9 383 226.8 383c62.8 0 120.4-47.1 171.2-139.9 22.1-40.5 41.2-104.9 55.5-153.1.1-.2.1-.3.1-.5 0-.7-.5-1.4-1.2-1.5 0 0-64.1-17.6-77-21.2-7 72.3-84.7 234.8-148.6 234.8S85.1 139 78.2 66.7l-77 21.2c-.7.2-1.2.9-1.2 1.6 0 .2 0 .4.1.5"
       id="path1" /><path
       d="M226.8 301.6c67 0 149.1-178.5 149.1-244.6 0-43.8-117.2-57-149.1-57S77.7 13.2 77.7 57c0 66.1 82.1 244.6 149.1 244.6"
       style="fill:#9b0011"
       id="path2" /><path
       d="m 54.3,208.8 c -0.6,0.2 -1.2,-0.1 -1.4,-0.7 L 17.4,102.9 c -0.2,-0.6 0.1,-1.2 0.7,-1.4 l 5.4,-1.8 c 0.6,-0.2 1.2,0.1 1.4,0.7 l 35.5,105.1 c 0.2,0.6 -0.1,1.2 -0.7,1.4 z M 65.4,205 c -0.6,0.2 -1.2,-0.1 -1.4,-0.7 L 28.6,99.2 C 28.4,98.6 28.7,98 29.3,97.8 L 34.7,96 c 0.6,-0.2 1.2,0.1 1.4,0.7 l 35.4,105.1 c 0.2,0.6 -0.1,1.2 -0.7,1.4 z m 11.2,-3.8 c -0.6,0.2 -1.2,-0.1 -1.4,-0.7 L 39.7,95.4 c -0.2,-0.6 0.1,-1.2 0.7,-1.4 l 5.4,-1.8 c 0.6,-0.2 1.2,0.1 1.4,0.7 L 82.7,198 c 0.2,0.6 -0.1,1.2 -0.7,1.4 z m 11.2,-3.7 c -0.6,0.2 -1.2,-0.1 -1.4,-0.7 L 50.9,91.6 C 50.7,91 51,90.4 51.6,90.2 L 57,88.4 c 0.6,-0.2 1.2,0.1 1.4,0.7 l 35.5,105.1 c 0.2,0.6 -0.1,1.2 -0.7,1.4 z m 11.1,-3.8 c -0.6,0.2 -1.2,-0.1 -1.4,-0.7 L 62,87.9 c -0.2,-0.6 0.1,-1.2 0.7,-1.4 l 5.4,-1.8 c 0.6,-0.2 1.2,0.1 1.4,0.7 L 105,190.5 c 0.2,0.6 -0.1,1.2 -0.7,1.4 z m 300.4,15.1 c 0.6,0.2 1.2,-0.1 1.4,-0.7 L 436.1,103 c 0.2,-0.6 -0.1,-1.2 -0.7,-1.4 L 430,99.8 c -0.6,-0.2 -1.2,0.1 -1.4,0.7 l -35.4,105.1 c -0.2,0.6 0.1,1.2 0.7,1.4 z M 388.1,205 c 0.6,0.2 1.2,-0.1 1.4,-0.7 L 425,99.2 c 0.2,-0.6 -0.1,-1.2 -0.7,-1.4 L 418.9,96 c -0.6,-0.2 -1.2,0.1 -1.4,0.7 l -35.5,105 c -0.2,0.6 0.1,1.2 0.7,1.4 z m -11.2,-3.8 c 0.6,0.2 1.2,-0.1 1.4,-0.7 L 413.8,95.4 c 0.2,-0.6 -0.1,-1.2 -0.7,-1.4 l -5.4,-1.8 c -0.6,-0.2 -1.2,0.1 -1.4,0.7 L 370.9,198 c -0.2,0.6 0.1,1.2 0.7,1.4 z m -11.1,-3.7 c 0.6,0.2 1.2,-0.1 1.4,-0.7 L 402.6,91.7 c 0.2,-0.6 -0.1,-1.2 -0.7,-1.4 l -5.4,-1.8 c -0.6,-0.2 -1.2,0.1 -1.4,0.7 l -35.5,105.1 c -0.2,0.6 0.1,1.2 0.7,1.4 z m -11.2,-3.8 c 0.6,0.2 1.2,-0.1 1.4,-0.7 L 391.4,87.9 c 0.2,-0.6 -0.1,-1.2 -0.7,-1.4 l -5.4,-1.8 c -0.6,-0.2 -1.2,0.1 -1.4,0.7 l -35.4,105.1 c -0.2,0.6 0.1,1.2 0.7,1.4 z"
       style="fill:#fdc300"
       id="path3"
       sodipodi:nodetypes="cccssccccsccssccsssccssccsscccssccccsccssccsssccssccsscccsscccccccsscccccccssccccsccssccss" /><path
       d="M226.8 284.6c-11.5 0-25.6-8.3-40.8-24.1-14.7-15.3-30.1-37.2-44.4-63.4-26.8-49-46.2-106.1-46.2-135.9 0-11.2 19.1-22.9 51.1-31.3 31-8.2 65.7-11.2 80.2-11.2s49.2 3 80.2 11.2c32 8.4 51.1 20.1 51.1 31.3 0 29.8-19.4 86.9-46.1 135.8-14.3 26.2-29.7 48.2-44.4 63.4-15.1 15.8-29.2 24.2-40.7 24.2m0-261.8c-14.3 0-48.5 3-79.2 11.1-16.4 4.3-29.5 9.5-37.9 15.1-6.4 4.2-10.2 8.7-10.2 12.3 0 29.2 19.2 85.5 45.6 133.8 14.2 25.9 29.3 47.5 43.8 62.6 14.4 14.9 27.5 22.8 37.8 22.8s23.4-7.9 37.8-22.8c14.5-15 29.6-36.7 43.8-62.6C334.8 146.7 354 90.4 354 61.2c0-3.6-3.7-8-10.1-12.3-8.4-5.5-21.5-10.8-37.9-15.1-30.7-8-64.9-11-79.2-11"
       class="st2"
       id="path4" /></g></svg>
