<?xml version="1.0" encoding="UTF-8" standalone="no"?>
<svg
   width="522.07"
   height="580.91"
   version="1.2"
   viewBox="0 0 391.55 435.69"
   id="svg7"
   sodipodi:docname="energie-cottbus.svg"
   inkscape:version="1.4.2 (f4327f4, 2025-05-13)"
   xmlns:inkscape="http://www.inkscape.org/namespaces/inkscape"
   xmlns:sodipodi="http://sodipodi.sourceforge.net/DTD/sodipodi-0.dtd"
   xmlns="http://www.w3.org/2000/svg"
   xmlns:svg="http://www.w3.org/2000/svg">
  <sodipodi:namedview
     id="namedview7"
     pagecolor="#ffffff"
     bordercolor="#000000"
     borderopacity="0.25"
     inkscape:showpageshadow="2"
     inkscape:pageopacity="0.0"
     inkscape:pagecheckerboard="0"
     inkscape:deskcolor="#d1d1d1"
     inkscape:zoom="1.3891998"
     inkscape:cx="260.94159"
     inkscape:cy="290.45499"
     inkscape:window-width="1920"
     inkscape:window-height="1009"
     inkscape:window-x="-8"
     inkscape:window-y="-8"
     inkscape:window-maximized="1"
     inkscape:current-layer="g6" />
  <defs
     id="defs1">
    <clipPath
       id="a">
      <path
         d="M223 123.31h149.55v168.38H223z"
         id="path1" />
    </clipPath>
  </defs>
  <g
     stroke-width=".393"
     id="g7">
    <g
       clip-path="url(#a)"
       transform="translate(-561.12 -309.44)scale(2.5447)"
       id="g2">
      <path
         fill="#fff"
         d="M247.09 123.93h103.65v47.156h21.336v2.535c0 38.684-8.3 64.188-21.656 81.97-13.398 17.84-31.75 27.77-51.867 35.382l-.89.34-.891-.34c-20.117-7.613-38.477-17.543-51.883-35.383-13.36-17.78-21.672-43.285-21.672-81.969v-2.535h21.336V123.93z"
         id="path2" />
    </g>
    <g
       fill-rule="evenodd"
       id="g6">
      <path
         fill="#e61c02"
         d="M 73.732,18.445 H 318.977 V 70.552 H 73.732 Z m 0.003,69.492 V 76.535 H 97.999 L 262.49,309.434 c -6.143,6.431 -12.644,12.276 -19.443,17.683 z M 131.24,76.615 279.807,288.242 c 5.04,-7.237 9.652,-15.129 13.817,-23.757 L 164.203,76.615 Z M 67.663,12.38 h 257.32 v 119.99 h 54.294 c 0,193.794 -82.505,254.597 -182.91,292.59 C 95.96,386.957 13.377,326.154 13.377,132.37 H 67.67 Z M 196.359,418.77 C 89.959,382.378 18.996,308.572 18.996,137.58 h 48.896 c 3.499,145.784 63.35,188.1 128.467,226.102 65.108,-38.002 124.878,-80.316 128.387,-226.101 h 48.897 c 0,171 -70.883,244.807 -177.284,281.189"
         id="path3"
         sodipodi:nodetypes="ccccccccccccccccccccccccccccccc" />
      <path
         fill="#fff000"
         d="M76.658 297.242c-1.76 1.024-4.602-9.642-11.7-12.863-11.62-5.328-13.29-10.01-20.606-25.278-.437 13.081 7.237 39.026 21.56 41.212 4.315.586 10.667-3.51 13.37-.507 4.533 6.789 13.966 21.48 17.465 26.38.448.657.15 1.164-.139 1.164-1.024.874-7.237-7.893-13.45-8.986-12.424-2.336-15.049-6.431-25.426-19.145 2.405 12.495 15.566 35.516 29.81 33.977 4.683-.587 8.4-4.453 11.621-4.165 17.465 19.006 21.262 20.467 20.536 21.123-1.829 1.312-7.673-6.064-14.84-5.845-12.197.219-13.22-1.024-25.577-10.676 4.751 11.044 17.833 26.162 32.595 23.39 3.946-.806 6.292-5.19 10.666-4.901 11.63 9.94 18.27 13.886 25.874 18.926-.149.587-.805.666-1.46.368-2.993-1.163-8.917-5.11-14.98-4.086-12.575 2.038-16.442-.666-30.547-8.777 6.5 10.666 26.668 27.335 39.682 20.904 3.727-1.898 5.328-6.43 9.791-6.868 4.602 2.704 9.205 5.189 13.886 7.594 4.752 2.416 9.493 4.682 14.543 6.8 1.024.655.507.735-.08.735-2.485.14-9.204-3.658-14.76-1.829-10.667 3.509-21.482 1.093-31.71-2.415 9.642 9.214 28.717 19.363 43.697 13.011 3.22-1.391 3.877-6.361 7.237-7.753 8.837 3.37 17.028 8.628 24.403 15.209l2.853-1.541c-8.549-7.595-16.809-12.783-27.773-16.66.219-3.141 2.634-5.557 3.22-8.767 2.555-13.887-18.568-28.361-30.327-31.641 11.401 11.103 15.05 13.956 16.51 26.302.657 5.05 4.026 9.791 6.949 11.62.288.15 2.624 2.117 1.312 1.68-10.01-3.797-19.87-9.205-29.154-14.91.725-3.211 3.508-5.11 4.671-8.33 4.831-13.3-13.886-31.203-24.92-36.392 9.433 12.863 12.724 16.302 12.137 28.796-.219 5.328 3.21 10.745 5.775 13.002.805.805.438 1.322.07 1.61-8.767-5.557-17.246-11.908-25.506-19.075 1.173-2.774 4.026-4.165 5.487-7.008 6.432-12.276-8.847-32.305-18.717-38.876 7.236 13.738 8.926 18.26 7.534 29.743-.586 4.97 1.531 10.885 3.867 13.519.517.576.219 1.381-.288 1.093-7.157-6.362-14.245-13.737-21.123-21.56 1.68-2.486 4.602-3.579 6.43-6.134 8.192-11.332-4.303-33.03-13.3-40.924 5.339 14.692 7.088 18.638 3.37 30.25-1.978 6.212.577 10.158 2.625 14.035.437.805-.07 1.75-.368 1.53-4.603-6.282-11.471-16.291-17.823-26.958 1.461-3.44 5.328-4.533 7.525-7.455 8.479-11.262-2.485-33.468-11.402-41.66 5.12 14.98 5.408 17.903 1.531 29.603-2.704 8.111 4.9 16.004 1.103 16.948-3.727-7.157-9.572-20.318-15.208-35.516 1.69-3.648 5.924-3.946 8.19-7.008 7.893-10.596.22-33.112-6.58-41.728 3.002 15.348 2.704 18.777-2.187 29.89-2.266 5.11.219 11.322.438 14.463.07.736-.656 1.243-.885 1.61-5.328-12.932-8.906-26.53-11.252-37.048 1.978-4.463 6.292-4.314 9.433-7.018 10.517-9.284 3.797-32.444-3.22-42.315 1.103 14.035.367 18.419-5.19 31.35-2.554 5.925 1.173 13.956-1.163 14.324l-.586.07-3.877-23.45c7.754-19.88 3.37-26.599-3.578-37.93-8.111 15.715-8.18 22.067 1.461 38.368l3.658 22.793c-.218.08-.447.15-.666.15-2.554.516-1.75-10.299-7.375-15.269-7.307-6.51-8.33-11.62-12.645-29.602-3.797 12.425-3.508 39.463 9.424 45.09 3.37 1.39 7.972-.22 10.894 2.047l.944 1.392c3.072 14.76 6.73 25.645 10.895 37.702-.219.08-.438.218-.656.298-2.635.726-3.141-10.02-9.722-14.185-10.815-6.938-11.838-11.69-17.027-27.543-2.336 12.564 1.391 40.12 15.715 43.04 8.18 1.61 12.783.945 13.22 2.048 7.018 18.41 12.356 29.661 14.543 34.125.587 1.53-.437 1.024-.725 1.312"
         id="path5" />
      <path
         fill="#fff000"
         d="M316.064 297.242c1.749 1.024 4.602-9.642 11.69-12.863 11.62-5.328 13.3-10.01 20.606-25.278.437 13.081-7.237 39.026-21.56 41.212-4.305.586-10.667-3.51-13.37-.507-4.533 6.789-13.957 21.48-17.466 26.38-.437.657-.149 1.164.15 1.164 1.023.874 7.226-7.893 13.439-8.986 12.355-2.336 15.06-6.431 25.437-19.145-2.416 12.495-15.567 35.516-29.822 33.977-4.671-.587-8.4-4.453-11.62-4.165-17.465 19.006-21.262 20.467-20.526 21.123 1.819 1.312 7.674-6.064 14.83-5.845 12.207.219 13.23-1.024 25.577-10.676-4.751 11.044-17.902 26.162-32.595 23.39-3.946-.806-6.282-5.19-10.666-4.901-11.62 9.94-18.27 13.886-25.874 18.926.149.587.805.666 1.461.368 3.002-1.163 8.916-5.11 14.98-4.086 12.505 2.038 16.441-.666 30.546-8.777-6.5 10.666-26.74 27.335-39.682 20.904-3.797-1.898-5.328-6.43-9.79-6.868-4.603 2.704-9.205 5.189-13.877 7.594-4.752 2.416-9.503 4.682-14.543 6.8-1.024.655-.517.735.07.735 2.485.14 9.205-3.658 14.761-1.829 10.666 3.509 21.481 1.093 31.72-2.415-9.652 9.214-28.727 19.363-43.708 13.011-3.21-1.391-3.866-6.361-7.236-7.753-8.837 3.37-17.098 8.628-24.473 15.209l-2.853-1.541c8.628-7.595 16.878-12.783 27.841-16.66-.218-3.141-2.634-5.557-3.21-8.767-2.565-13.887 18.558-28.361 30.317-31.641-11.401 11.103-15.05 13.956-16.51 26.302-.657 5.05-4.016 9.791-6.939 11.62-.298.15-2.634 2.117-1.322 1.68 10.01-3.797 19.88-9.205 29.155-14.91-.726-3.211-3.5-5.11-4.672-8.33-4.821-13.3 13.886-31.203 24.92-36.392-9.423 12.863-12.713 16.302-12.127 28.796.219 5.328-3.22 10.745-5.775 13.002-.805.805-.437 1.322-.07 1.61 8.768-5.557 17.237-11.908 25.498-19.075-1.173-2.774-4.015-4.165-5.477-7.008-6.431-12.276 8.837-32.305 18.708-38.876-7.237 13.738-8.916 18.26-7.525 29.743.577 4.97-1.54 10.885-3.876 13.519-.507.576-.219 1.381.288 1.093 7.167-6.362 14.254-13.737 21.123-21.56-1.68-2.486-4.602-3.579-6.431-6.134-8.18-11.332 4.314-33.03 13.3-40.924-5.338 14.692-7.088 18.638-3.36 30.25 1.968 6.212-.586 10.158-2.634 14.035-.437.805.07 1.75.368 1.53 4.602-6.282 11.47-16.291 17.832-26.958-1.46-3.44-5.338-4.533-7.534-7.455-8.47-11.262 2.495-33.468 11.401-41.66-5.109 14.98-5.407 17.903-1.53 29.603 2.703 8.111-4.901 16.004-1.094 16.948 3.728-7.157 9.573-20.318 15.199-35.516-1.68-3.648-5.925-3.946-8.191-7.008-7.883-10.596-.219-33.112 6.58-41.728-2.992 15.348-2.704 18.777 2.197 29.89 2.187 5.11-.219 11.322-.437 14.463-.08.736.656 1.243.874 1.61 5.328-12.932 8.917-26.53 11.253-37.048-1.969-4.463-6.283-4.314-9.424-7.018-10.526-9.284-3.807-32.444 3.211-42.315-1.093 14.035-.437 18.419 5.189 31.35 2.485 5.925-1.173 13.956 1.163 14.324l.586.07 3.877-23.45c-7.744-19.88-3.36-26.599 3.578-37.93 8.112 15.715 8.191 22.067-1.46 38.368l-3.649 22.793c.219.08.437.15.656.15 2.555.516 1.75-10.299 7.376-15.269 7.236-6.51 8.33-11.62 12.644-29.602 3.807 12.425 3.44 39.463-9.423 45.09-3.44 1.39-7.963-.22-10.885 2.047l-.954 1.392c-3.072 14.76-6.72 25.645-10.885 37.702.219.08.437.218.656.298 2.624.726 3.062-10.02 9.712-14.185 10.825-6.938 11.838-11.69 17.027-27.543 2.346 12.564-1.381 40.12-15.705 43.04-8.191 1.61-12.793.945-13.23 2.048-7.018 18.41-12.347 29.661-14.543 34.125-.587 1.53.437 1.024.735 1.312"
         id="path6" />
    </g>
  </g>
</svg>
