<?xml version="1.0" encoding="UTF-8" standalone="no"?>
<svg
   xml:space="preserve"
   width="458.766"
   height="566"
   version="1.1"
   id="svg4"
   sodipodi:docname="fc-heidenheim.svg"
   inkscape:version="1.4.2 (f4327f4, 2025-05-13)"
   xmlns:inkscape="http://www.inkscape.org/namespaces/inkscape"
   xmlns:sodipodi="http://sodipodi.sourceforge.net/DTD/sodipodi-0.dtd"
   xmlns="http://www.w3.org/2000/svg"
   xmlns:svg="http://www.w3.org/2000/svg"><defs
     id="defs4" /><sodipodi:namedview
     id="namedview4"
     pagecolor="#ffffff"
     bordercolor="#000000"
     borderopacity="0.25"
     inkscape:showpageshadow="2"
     inkscape:pageopacity="0.0"
     inkscape:pagecheckerboard="0"
     inkscape:deskcolor="#d1d1d1"
     inkscape:zoom="1.4257951"
     inkscape:cx="229.69641"
     inkscape:cy="264.0632"
     inkscape:window-width="1920"
     inkscape:window-height="1009"
     inkscape:window-x="-8"
     inkscape:window-y="-8"
     inkscape:window-maximized="1"
     inkscape:current-layer="svg4" /><path
     fill="#B1B3B4"
     d="M229.379 566c126.487 0 229.387-102.904 229.387-229.391V19.384c-.018-7.76-6.101-14.077-13.747-14.515C374.732 1.645 302.232 0 229.379 0S84.023 1.645 13.744 4.869C6.09 5.307.014 11.624 0 19.384V336.61C0 463.096 102.896 566 229.379 566"
     id="path1" /><path
     fill="#003B79"
     d="M229.379 554.114c119.93 0 217.501-97.568 217.501-217.505V19.377l-.024.055a2.68 2.68 0 0 0-2.691-2.693c-69.987-3.209-142.21-4.855-214.785-4.855S84.579 13.53 14.585 16.739a2.68 2.68 0 0 0-2.677 2.693l-.032-.055v317.232c-.001 119.937 97.574 217.505 217.503 217.505"
     id="path2" /><circle
     cx="229.378"
     cy="337.687"
     r="190.021"
     fill="#FFF"
     id="circle2" /><path
     fill="#E2001A"
     d="M284.555 514.599c-5.734 1.092-11.825-1.519-14.915-6.863a14 14 0 0 1-1.876-7.166l.021-1.615-.021-.011a.5.5 0 0 0-.067-.322.623.623 0 0 0-.829-.219.5.5 0 0 0-.186.176l-.014-.007-.588.809c-3.136 3.866-11.003 7.99-23.996 10.45q-.453.083-.918.164c-.043.011-.089.018-.128.028-1.36.227-2.766.452-4.219.663-.292.046-.576.086-.879.129-5.411.751-11.292 1.306-17.254 1.389-56.862.766-96.286-22.36-120.389-43.489a187.3 187.3 0 0 1-29.492-38.369 186.8 186.8 0 0 1-24.804-92.664 186.4 186.4 0 0 1 4.563-40.676c1.94-5.513 7.237-9.479 13.402-9.479 2.624 0 5.069.724 7.162 1.963l1.392.823.007-.015a.6.6 0 0 0 .313.107.61.61 0 0 0 .605-.615c0-.09-.032-.179-.05-.248l.01-.011-.413-.905c-1.784-4.65-1.417-13.525 2.937-26.007.118-.293.214-.583.324-.88.018-.042.025-.088.053-.13.477-1.294.982-2.623 1.513-3.97.121-.283.228-.552.338-.836 2.054-5.064 4.514-10.434 7.418-15.639 27.776-49.614 67.517-72.211 97.856-82.503a186.8 186.8 0 0 1 47.995-6.358 186.8 186.8 0 0 1 92.612 24.827 186.6 186.6 0 0 1 32.96 24.318 14.19 14.19 0 0 1 1.509 16.342 13.94 13.94 0 0 1-5.275 5.212l-1.402.8.014.011a.5.5 0 0 0-.241.22.607.607 0 0 0 .213.836.8.8 0 0 0 .238.073l.008.014.979.091c4.923.788 12.441 5.537 21.06 15.555.206.235.395.48.608.726.032.028.057.066.086.1a188 188 0 0 1 2.677 3.306c.182.242.362.469.555.707 3.364 4.307 6.781 9.122 9.825 14.241 29.086 48.863 28.776 94.575 22.547 125.997a187.3 187.3 0 0 1-18.492 44.73c-16.293 28.082-39.737 51.538-67.823 67.819a186.7 186.7 0 0 1-37.529 16.371"
     id="path3" /></svg>
