<?xml version="1.0" encoding="UTF-8" standalone="no"?>
<svg
   xml:space="preserve"
   width="256"
   height="256"
   viewBox="269.5 139.5 256 256"
   version="1.1"
   id="svg3"
   sodipodi:docname="fc-nurnberg.svg"
   inkscape:version="1.4.2 (f4327f4, 2025-05-13)"
   xmlns:inkscape="http://www.inkscape.org/namespaces/inkscape"
   xmlns:sodipodi="http://sodipodi.sourceforge.net/DTD/sodipodi-0.dtd"
   xmlns="http://www.w3.org/2000/svg"
   xmlns:svg="http://www.w3.org/2000/svg"><defs
     id="defs3" /><sodipodi:namedview
     id="namedview3"
     pagecolor="#ffffff"
     bordercolor="#000000"
     borderopacity="0.25"
     inkscape:showpageshadow="2"
     inkscape:pageopacity="0.0"
     inkscape:pagecheckerboard="0"
     inkscape:deskcolor="#d1d1d1"
     inkscape:zoom="3.1523438"
     inkscape:cx="128"
     inkscape:cy="128"
     inkscape:window-width="1920"
     inkscape:window-height="1009"
     inkscape:window-x="-8"
     inkscape:window-y="-8"
     inkscape:window-maximized="1"
     inkscape:current-layer="svg3" /><path
     fill="#aa1124"
     d="M 272.5,266.996 C 272.495,198.234 328.229,142.498 396.99,142.5 465.751,142.502 521.493,198.246 521.5,267.006 521.508,335.764 465.771,391.502 397.012,391.5 328.248,391.499 272.506,335.755 272.5,266.996"
     id="path1"
     sodipodi:nodetypes="csccc" /><path
     fill="none"
     stroke="#FFF"
     stroke-miterlimit="3.864"
     stroke-width="4.476"
     d="M285.5 266.426c-.004-61.188 49.593-110.788 110.779-110.785 61.186.002 110.793 49.606 110.797 110.793.005 61.189-49.594 110.788-110.78 110.786-61.187-.003-110.791-49.606-110.796-110.794z"
     id="path2" /><path
     fill="#ffffff"
     d="m 311.226,323.491 12.219,0.001 -0.002,-32.195 h 31.572 v -10.359 l -31.572,-10e-4 -0.004,-18.992 35.971,0.003 -0.001,-10.969 -48.189,-0.002 z m 109.448,-49.458 c -1.47,-15.639 -13.883,-24.679 -29.621,-24.78 -20.916,-0.003 -33.429,17.263 -33.427,37.981 0.001,20.719 12.513,37.984 33.433,37.986 16.912,0 28.738,-11.987 29.715,-29.351 h -11.927 c -0.977,10.561 -6.939,18.991 -17.79,18.99 -14.952,0 -21.212,-13.712 -21.212,-27.626 -0.002,-13.914 6.256,-27.624 21.208,-27.624 10.167,0 15.346,6.095 17.402,14.423 z m -49.503,-83.039 16.813,0.002 0.005,50.174 h 12.218 l -0.006,-71.094 h -9.09 c -1.661,8.529 -10.555,11.882 -19.938,11.78 v 9.138 z m 33.399,50.176 h 13.586 v -13.711 l -13.588,-0.001 z"
     id="path3"
     sodipodi:nodetypes="cccccccccccccccccccscccccccccccccccc" /></svg>
