<?xml version="1.0" encoding="UTF-8" standalone="no"?>
<svg
   width="809.653"
   height="809.653"
   version="1.2"
   viewBox="0 0 607.24 607.24"
   id="svg9"
   sodipodi:docname="fortuna-dusseldorf.svg"
   inkscape:version="1.4.2 (f4327f4, 2025-05-13)"
   xmlns:inkscape="http://www.inkscape.org/namespaces/inkscape"
   xmlns:sodipodi="http://sodipodi.sourceforge.net/DTD/sodipodi-0.dtd"
   xmlns:xlink="http://www.w3.org/1999/xlink"
   xmlns="http://www.w3.org/2000/svg"
   xmlns:svg="http://www.w3.org/2000/svg">
  <sodipodi:namedview
     id="namedview9"
     pagecolor="#ffffff"
     bordercolor="#000000"
     borderopacity="0.25"
     inkscape:showpageshadow="2"
     inkscape:pageopacity="0.0"
     inkscape:pagecheckerboard="0"
     inkscape:deskcolor="#d1d1d1"
     inkscape:zoom="0.99672327"
     inkscape:cx="404.82651"
     inkscape:cy="404.82651"
     inkscape:window-width="1920"
     inkscape:window-height="1009"
     inkscape:window-x="-8"
     inkscape:window-y="-8"
     inkscape:window-maximized="1"
     inkscape:current-layer="g8" />
  <defs
     id="defs1">
    <clipPath
       id="b">
      <path
         d="M411.02 111.89h76.082v76.082H411.02z"
         id="path1" />
    </clipPath>
  </defs>
  <use
     xlink:href="#a"
     width="100%"
     height="100%"
     x="374.486"
     y="99.092"
     fill="#e30511"
     transform="translate(-411.02 -111.89)"
     id="use1" />
  <g
     stroke-width=".125"
     id="g9">
    <g
       clip-path="url(#b)"
       transform="translate(-3280.5 -893.01)scale(7.9813)"
       id="g2">
      <path
         fill="#e30511"
         d="M449.06 111.89c20.953 0 38.043 17.086 38.043 38.043 0 20.949-17.09 38.039-38.043 38.039-20.949 0-38.039-17.09-38.039-38.039 0-20.957 17.09-38.043 38.039-38.043"
         id="path2" />
    </g>
    <path
       fill="#fff"
       d="M303.662 15.102c158.844 0 288.508 129.633 288.508 288.54S462.506 592.15 303.662 592.15c-158.94 0-288.54-129.6-288.54-288.508s129.6-288.54 288.54-288.54"
       id="path3" />
    <path
       fill="#e30511"
       d="M303.662 33.54c148.748 0 270.056 121.339 270.056 270.086S452.41 573.682 303.662 573.682c-148.779 0-270.087-121.308-270.087-270.056S154.883 33.54 303.662 33.54"
       id="path4" />
    <path
       fill="#fff"
       d="M303.662 75.52c125.578 0 228.09 102.48 228.09 228.122 0 125.674-102.512 228.122-228.09 228.122-125.641 0-228.121-102.448-228.121-228.122 0-125.641 102.48-228.121 228.121-228.121"
       id="path5" />
    <path
       fill="#e30511"
       d="M303.662 100.662c111.739 0 202.965 91.194 202.965 202.996 0 111.77-91.226 202.965-202.965 202.965-111.802 0-202.996-91.195-202.996-202.965 0-111.802 91.194-202.996 202.996-202.996"
       id="path6" />
    <g
       fill="#fff"
       id="g8">
      <path
         d="M348.677 359.735c-3.211-.78-6.454-1.154-9.821-1.154-6.672.064-12.377 1.34-16.96 3.835-4.583 2.557-8.075 5.955-10.414 10.258-2.338 4.364-3.522 9.322-3.522 14.84.063 6.766 1.34 12.284 3.834 16.586 2.557 4.303 5.768 7.514 9.728 9.54 3.928 2.058 8.106 3.087 12.44 3.087 4.676-.125 8.417-.811 11.192-2.12 2.712-1.31 4.832-2.557 6.298-3.804-.375 3.398-1.248 6.89-2.713 10.507-1.403 3.585-4.115 6.547-8.262 8.885-2.993 1.434-6.142 2.12-9.54 1.995-3.554-.063-6.485-.53-8.824-1.403-2.275-.873-4.053-1.652-5.362-2.369l-1.403.654-.873 14.965.655.905c2.743.592 5.424 1.153 8.074 1.558 2.62.468 5.487.655 8.636.686 12.938 0 22.977-3.928 29.992-11.723 7.015-7.794 10.538-19.454 10.662-35.074.032-10.88-1.87-19.797-5.674-26.874-3.835-7.015-9.883-11.63-18.145-13.781m1.03 35.48c-.811 1.309-2.058 2.556-3.68 3.647-1.62 1.122-3.74 1.652-6.39 1.746-3.212-.032-5.987-1.278-8.263-3.741-2.307-2.526-3.492-6.017-3.554-10.6 0-2.557.343-4.864 1.09-6.797 1.248-2.868 2.838-4.77 4.77-5.674 1.934-.904 3.618-1.31 4.958-1.216 2.712.032 5.207.998 7.451 2.993 2.214 1.964 3.742 4.832 4.521 8.542.093.998.25 2.432.374 4.21.156 1.839.156 3.117.094 3.834-.094.717-.53 1.777-1.372 3.055M431.044 395.252c-5.269-5.145-12.72-7.826-22.167-7.982-1.247.032-2.431.064-3.585.187-1.153.093-2.463.281-3.96.437l1.03-11.941 30.397.748.904-.748 1.122-15.09-.592-.623h-47.98l-.874.998c-.156 4.209-.374 7.887-.53 11.067s-.343 6.298-.56 9.416c-.125 3.086-.406 6.547-.687 10.413-.28 3.897-.654 8.667-1.09 14.28l1.153.623c1.933-.967 4.178-1.902 6.734-2.744 2.557-.78 5.705-1.216 9.447-1.278 5.768.125 10.039 1.497 12.938 4.24 2.869 2.744 4.334 6.08 4.334 10.101-.064 4.21-1.59 7.67-4.583 10.289-2.9 2.619-6.921 3.99-12.034 4.053-6.423-.032-12.221-1.808-17.49-5.3l-1.154.53c-.094 2.182-.218 4.053-.312 5.487-.125 1.465-.187 2.9-.343 4.365a163 163 0 0 1-.468 5.487l.623.997c3.586 1.248 6.921 2.12 9.946 2.806 3.149.624 6.796.967 11.098.967 9.76-.125 17.366-1.933 22.76-5.362 5.331-3.43 9.072-7.514 11.13-12.284 2.058-4.802 3.055-9.323 2.93-13.531-.124-8.574-2.774-15.402-8.137-20.608"
         id="path8" />
    </g>
  </g>
</svg>
