<?xml version="1.0" encoding="UTF-8" standalone="no"?>
<svg
   width="123.227"
   height="123.227"
   version="1.1"
   id="svg5"
   sodipodi:docname="hansa-rostock.svg"
   inkscape:version="1.4.2 (f4327f4, 2025-05-13)"
   xmlns:inkscape="http://www.inkscape.org/namespaces/inkscape"
   xmlns:sodipodi="http://sodipodi.sourceforge.net/DTD/sodipodi-0.dtd"
   xmlns="http://www.w3.org/2000/svg"
   xmlns:svg="http://www.w3.org/2000/svg">
  <defs
     id="defs5" />
  <sodipodi:namedview
     id="namedview5"
     pagecolor="#ffffff"
     bordercolor="#000000"
     borderopacity="0.25"
     inkscape:showpageshadow="2"
     inkscape:pageopacity="0.0"
     inkscape:pagecheckerboard="0"
     inkscape:deskcolor="#d1d1d1"
     inkscape:zoom="6.5488896"
     inkscape:cx="61.613499"
     inkscape:cy="61.613499"
     inkscape:window-width="1920"
     inkscape:window-height="1009"
     inkscape:window-x="-8"
     inkscape:window-y="-8"
     inkscape:window-maximized="1"
     inkscape:current-layer="svg5" />
  <path
     fill="#fff"
     d="M0 61.614a61.613 61.613 0 1 1 61.614 61.613A61.61 61.61 0 0 1 0 61.614"
     id="path1" />
  <path
     fill="#0080c9"
     d="M61.614 2.053a59.56 59.56 0 1 0 59.56 59.56 59.56 59.56 0 0 0-59.56-59.56m0 115.619a56.082 56.082 0 1 1 56.082-56.082 56.08 56.08 0 0 1-56.082 56.085Z"
     id="path2" />
  <path
     fill="#e52721"
     d="m10.411 60.479 34.128 7.1s-1.642 9.564 6.062 13.5c7.511 3.84 14.781-2.633 15.337-8.309s.725-8.478.725-8.478l44.417-6.884-3.188 12.7-18.695 2.399s.314 30.287-32.606 32.365c-10.917.7-22.776-6.3-27.969-15.192a35.5 35.5 0 0 1-4.879-19.9l-13.26-4.881zm80.477 13.356a52.7 52.7 0 0 1-3.116 13.187c-2.8 7.028-8.961 11.98-14.395 15.264-.411.242 23.887-5.265 23.887-5.265V72.966zm-37.92-18.96-.677 25.024h3.623l-.411-25.481-2.536.459M88.81 24.25v-1.159l-34.224 5.966v-1.5l2.584-.338 1.811-6.884h-4.468l-.434-5.936h-.821l-.29 5.917h-4.517l1.691 6.956 2.729.29v1.737l-27.462 4.975v1.039l63.4-11.062"
     id="path3" />
  <path
     fill="#0080c9"
     d="m30.771 36.302 55.118-9.83s-7.294 6.69-6.763 16.665 5.289 15.361 5.289 15.361-11.836-5.387-23.96-5.387-20.866 5.291-24.177 9.445c-.314.386-6.376-4.058-7.9-13.356-1.087-6.57 2.391-12.9 2.391-12.9"
     id="path4" />
  <path
     fill="#ffffff"
     d="m 59.537,33.09 0.821,-0.024 c 1.492259,-0.216003 2.957656,-0.588385 4.372,-1.111 0.696085,-0.31528 1.37353,-0.670196 2.029,-1.063 0.145,0.024 0.725,0.386 -2.029,2.174 -1.992489,1.138646 -4.228263,1.784589 -6.521,1.884 0,0 0.1,-0.072 0.435,-0.386 0.352876,-0.455522 0.652803,-0.949697 0.894,-1.473 m 20.24,-2.922 c -0.7,0.386 -1.039,0.531 -1.039,0.531 0.305227,0.09074 0.624526,0.124632 0.942,0.1 l 0.193,-0.1 c -0.37197,0.41877 -0.873793,0.700496 -1.425,0.8 -0.894,0.145 -1.039,0.145 -1.039,0.145 -0.160858,0.07046 -0.308094,0.168615 -0.435,0.29 0.354338,0.06528 0.702076,0.162333 1.039,0.29 0.159709,0.05786 0.259504,0.217037 0.242,0.386 -0.555497,-0.05349 -1.115501,-0.03736 -1.667,0.048 -0.242,0.145 -0.894,0.1 -0.628,1.183 0.29,1.087 0.652,2.8 -0.628,3.647 -1.28,0.847 -2.512,-0.58 -2.705,-1.087 -0.193,-0.531 -0.531,-2.367 -0.7,-2.8 -0.193,-0.435 -0.8,-0.749 -1.087,-0.29 -0.29,0.483 0,1.135 0.435,2.125 0.435,0.99 1.377,2.995 1.087,4.033 -0.29,1.038 -0.845,1.328 -0.193,2.56 0.536358,0.88509 1.22298,1.669849 2.029,2.319 0,0 0.145,0.386 -0.145,0.483 -0.29,0.097 -0.652,0.048 -0.531,0.145 0.390627,0.295536 0.845727,0.4943 1.328,0.58 0.330309,0.04093 0.6652,0.02469 0.99,-0.048 l 0.29,-0.048 c 0,0 -0.048,0.845 -0.483,1.135 -0.240202,0.167179 -0.512695,0.282308 -0.8,0.338 0.220465,0.638233 0.575863,1.221469 1.042,1.71 0.628,0.483 0.845,0.652 0.845,0.652 -0.284268,0.400143 -0.741264,0.641995 -1.232,0.652 -0.504421,-0.05995 -0.981699,-0.260983 -1.377,-0.58 -0.32214,0.256962 -0.606586,0.557902 -0.845,0.894 -0.05136,0.214308 -0.01538,0.440243 0.1,0.628 0.048,0.145 0.338,0.145 0.386,0.338 l 0.048,0.193 c 0,0 2.56,-0.1 2.8,0.7 0.24,0.8 -0.193,0.942 -0.193,0.942 0,0 -0.242,-0.386 -0.483,-0.386 h -0.531 c -0.04865,0.07831 -0.114694,0.144348 -0.193,0.193 l -0.145,0.1 c 0,0 -0.8,-0.8 -1.232,-0.8 -0.432,0 -0.99,0 -1.087,0.193 -0.097,0.193 -0.048,0.435 -0.338,0.483 -0.28107,0.02593 -0.56393,0.02593 -0.845,0 -0.0265,0.143789 -0.0265,0.291211 0,0.435 l 0.048,0.193 c 0,0 -0.942,-0.242 -0.99,-0.749 -0.048,-0.531 0.145,-0.652 0.29,-0.652 h 0.145 l -0.1,-0.531 c -0.477336,-0.03113 -0.956689,0.0025 -1.425,0.1 -0.29,0.145 -0.8,0.6 -1.232,0.483 -0.435,-0.145 -0.628,-0.628 -0.531,-0.8 l 0.1,-0.193 -0.749,0.048 c 0,0 0.386,-0.99 1.183,-0.99 0.448333,0.003 0.888637,0.119262 1.28,0.338 0.297622,0.124121 0.624952,0.158869 0.942,0.1 0.439441,-0.384491 0.694071,-0.938128 0.7,-1.522 v -0.652 l -0.845,-0.048 0.046,-1.379 c -0.142419,-0.427904 -0.49951,-0.749286 -0.94,-0.846 -0.7,-0.1 -1.811,-0.338 -1.981,-0.8 -0.0954,-0.198493 -0.160462,-0.410187 -0.193,-0.628 H 66.69 c -0.340879,-0.636401 -0.491861,-1.357297 -0.435,-2.077 0.193,-0.894 0.652,-1.377 1.039,-1.425 l 0.386,-0.048 c 0,0 0.048,-0.845 -1.377,-1.328 -1.813889,-0.657391 -3.838198,-0.338379 -5.362,0.845 -1.618,1.425 -5.12,6.207 -7.391,7.681 -2.271,1.474 -3.7,2.222 -5.6,2.415 -0.814895,0.132839 -1.64455,0.149001 -2.464,0.048 0.241201,-0.912452 0.32307,-1.859695 0.242,-2.8 -0.09932,-0.415636 -0.317538,-0.793349 -0.628,-1.087 -0.02413,0.764177 -0.12124,1.5243 -0.29,2.27 l -0.193,0.386 c 0.158615,0.560664 0.158615,1.154336 0,1.715 -0.413511,0.667463 -1.176334,1.034834 -1.956,0.942 -0.325164,-0.0993 -0.655694,-0.180097 -0.99,-0.242 0.145,0.048 0,0.99 -0.242,1.377 -0.258971,0.334628 -0.559372,0.635029 -0.894,0.894 0.442327,0.02451 0.885673,0.02451 1.328,0 0.193,-0.048 0.749,-0.942 1.763,-0.749 0.99,0.193 1.377,0.58 1.473,0.942 0.1,0.386 -0.145,0.338 -0.338,0.242 -0.210301,-0.06919 -0.43063,-0.102983 -0.652,-0.1 0,0 -0.29,1.039 -0.845,1.183 -0.46331,0.13149 -0.961681,0.02266 -1.328,-0.29 -0.8776,0.06474 -1.749271,0.193756 -2.608,0.386 -0.435,0.193 -0.652,0.29 -0.652,0.749 0,0.483 0.386,0.942 0.193,1.232 -0.156327,0.225509 -0.429995,0.338886 -0.7,0.29 H 37.63 c 0,0 -0.1,0.628 0.1,0.749 0.193,0.145 -0.193,0.386 -0.58,0.145 -0.387,-0.241 -0.942,-1.618 -0.435,-2.029 0.531,-0.435 0.8,-0.58 0.8,-0.894 -0.0044,-0.220796 -0.03802,-0.440037 -0.1,-0.652 -0.253081,-0.105491 -0.525995,-0.154956 -0.8,-0.145 -0.531,0 -0.749,-0.048 -0.749,0.145 0.01021,0.33245 -0.247788,0.611799 -0.58,0.628 -0.483,0.048 -0.845,-0.145 -0.845,-0.531 0,-0.386 0.145,-0.628 -0.048,-0.628 -0.240979,0.0033 -0.469245,0.108676 -0.628,0.29 -0.145,0.193 -0.386,-0.942 0.1,-1.183 0.570751,-0.204355 1.203944,-0.133098 1.715,0.193 0.265105,0.225333 0.595004,0.360515 0.942,0.386 0.28095,0.02841 0.56405,0.02841 0.845,0 0,0 0.193,-0.531 -0.145,-0.8 -0.305033,-0.345989 -0.725511,-0.569201 -1.183,-0.628 -0.483,0 -1.28,0.1 -1.57,-0.435 -0.29,-0.535 0,-0.58 0.048,-0.845 0.048,-0.29 -0.1,-0.531 -0.483,-0.531 -0.383,0 -0.29,-0.338 0,-0.483 0.148928,-0.07339 0.294108,-0.154161 0.435,-0.242 0,0 0.628,-0.386 0.99,-0.193 0.597386,0.340466 1.077505,0.854058 1.377,1.473 0.281414,0.697879 0.855615,1.236604 1.57,1.473 0.793355,0.298251 1.681871,-0.07178 2.029,-0.845 0.193,-0.7 0.338,-1.425 0.338,-1.425 0,0 0.29,-0.242 0.628,-0.531 0.544362,-0.728355 0.916058,-1.57091 1.087,-2.464 l 0.1,-0.749 c -0.602124,1.122735 -1.483912,2.071002 -2.56,2.753 -1.57,0.845 -1.763,0.531 -1.763,-0.942 0.08906,-2.029149 0.467897,-4.035128 1.125,-5.957 0.531,-1.039 0.99,-1.377 1.28,-1.932 0.29,-0.58 0.193,-0.99 -0.193,-0.894 -0.386,0.096 -0.628,0.338 -1.087,0.193 -0.242583,-0.05527 -0.467016,-0.17162 -0.652,-0.338 0.605217,-0.186448 1.194725,-0.420512 1.763,-0.7 0.234645,-0.125098 0.446869,-0.288322 0.628,-0.483 0,0 -0.7,-0.8 -1.135,-0.8 -0.333246,0.04646 -0.672776,0.01216 -0.99,-0.1 -0.489736,-0.161321 -1.015897,-0.176265 -1.514,-0.043 -0.483,0.145 -0.749,0.338 -0.8,0.1 0.358157,-0.802962 1.108919,-1.361201 1.981,-1.473 l 1.377,-0.048 0.193,-0.145 c 0,0 -0.1,-0.58 0.942,-0.628 1.042,-0.048 3.937,-0.1 4.42,-0.193 0.445169,-0.128612 0.874517,-0.306724 1.28,-0.531 0,0 0.242,0.435 0,0.7 -0.289472,0.291524 -0.646327,0.507217 -1.039,0.628 -0.145,0 0.531,1.763 -0.145,2.753 -0.652,0.99 -1.183,2.608 -0.894,3.309 0.141988,0.5768 0.639511,0.996384 1.232,1.039 0.294183,0.06746 0.599817,0.06746 0.894,0 l 0.1,1.473 c 0.70427,-0.518031 1.110308,-1.348038 1.087,-2.222 -0.048,-1.473 -0.338,-1.811 -0.628,-2.125 -1.19368,-1.227285 -1.105297,-3.206969 0.193,-4.323 2.077,-1.908 4.227,-1.667 4.927,-1.86 1.502753,-0.274813 2.980882,-0.67043 4.42,-1.183 0.99,-0.531 1.328,-1.039 1.425,-0.894 -0.253064,0.820975 -0.750106,1.545436 -1.425,2.077 -1.400341,0.968076 -3.00294,1.604191 -4.686,1.86 l -1.667,0.145 c 0,0 0.29,1.28 -0.145,1.86 -0.435,0.58 -0.58,0.845 -0.99,0.99 l -0.435,0.145 c 0.240975,1.118916 0.290006,2.270652 0.145,3.406 -0.29,1.425 -0.628,1.715 -0.628,1.715 0.606395,-0.159241 1.100017,-0.598966 1.328,-1.183 0.302605,-0.951142 0.417402,-1.952045 0.338,-2.947 -0.0455,-0.233515 -0.02895,-0.474881 0.048,-0.7 0.464258,-0.369407 0.907609,-0.76435 1.328,-1.183 0.214308,-0.390228 0.299054,-0.838468 0.242,-1.28 L 53.43,37.25 c 0.04968,0.43883 -0.07135,0.879956 -0.338,1.232 -0.255999,0.314994 -0.577422,0.570563 -0.942,0.749 -0.145,0.048 -0.1,0.894 -0.435,1.377 l -0.338,0.483 c 0.127156,0.447331 0.16119,0.915991 0.1,1.377 -0.10734,0.330057 -0.253355,0.646255 -0.435,0.942 0,0 1.039,-0.628 1.183,-1.232 0.145,-0.628 0.193,-0.942 0.193,-0.942 0,0 0.531,-0.242 0.652,-0.58 0.04794,-0.416355 -0.0017,-0.838153 -0.145,-1.232 0.545221,-0.358418 0.947,-0.897192 1.135,-1.522 0.145,-0.845 0,-0.894 0,-0.894 l 1.183,-0.1 c 0.0035,0.593593 -0.128493,1.180159 -0.386,1.715 -0.386,0.58 -0.58,0.628 -0.58,0.628 0.07862,0.441044 0.06225,0.893783 -0.048,1.328 -0.107565,0.252463 -0.319047,0.446079 -0.58,0.531 -0.02841,0.361856 -0.126903,0.714737 -0.29,1.039 -0.242,0.386 -0.386,0.628 -0.386,0.628 2.114964,-0.891878 4.144057,-1.975043 6.062,-3.236 1.86,-1.425 4.686,-4.082 6.594,-3.937 1.908,0.145 2.608,0.386 3.357,1.183 0.749,0.797 1.039,1.377 1.328,1.039 0.289,-0.338 0.048,-0.845 -0.145,-1.667 -0.193,-0.8 -1.425,-2.995 0.1,-3.744 1.525,-0.749 2.415,0.242 2.705,1.763 0.29,1.521 0.435,2.415 1.087,2.56 0.652,0.145 1.184,-0.483 1.28,-1.039 0.135847,-0.519036 -0.03244,-1.070321 -0.435,-1.425 -1.010884,-0.976899 -1.095131,-2.568864 -0.193,-3.647 1.328,-1.618 4.541,-1.039 5.12,-1.232 0.225524,-0.08989 0.460278,-0.154612 0.7,-0.193 -0.06767,0.43121 -0.353691,0.796682 -0.756,0.966 z m -35.7,6.714 c -0.332543,0.08524 -0.671788,0.141779 -1.014,0.169 -0.314,0 -0.628,-0.217 -0.869,-0.193 -0.305114,0.01796 -0.574917,0.204125 -0.7,0.483 0,0 0.749,1.183 1.5,1.087 0.568889,-0.07943 1.008761,-0.53916 1.063,-1.111 -0.0036,-0.14565 0.0034,-0.291369 0.021,-0.436 z m 22.294,3.844 c -1.307905,-0.388778 -2.7145,-0.268018 -3.937,0.338 -1.715,1.039 -2.464,1.908 -2.415,2.9 0.04615,0.692375 0.03009,1.387496 -0.048,2.077 -0.048,0.242 -0.58,0.8 -0.386,1.039 0.194,0.239 1.28,0.193 1.811,0.048 0.531,-0.145 0.7,-0.048 0.7,-0.048 -0.183408,0.640112 -0.563726,1.206216 -1.087,1.618 -0.606981,0.482791 -1.350328,0.762639 -2.125,0.8 -0.338,-0.048 -1.667,-0.29 -2.029,-0.048 -0.386,0.242 -0.894,0.7 -0.845,1.183 0.049,0.483 0.242,0.58 0.242,0.58 0,0 0.29,-0.531 0.531,-0.531 0.146319,4e-5 0.292192,0.01614 0.435,0.048 0,0 0,0.58 0.338,0.749 0.338,0.193 0.7,0.048 1.135,-0.29 0.429947,-0.376783 0.930711,-0.664051 1.473,-0.845 h 0.531 c -0.03838,0.151874 -0.145723,0.276982 -0.29,0.338 -0.242,0.1 -0.845,0.483 -0.8,0.8 0.03249,0.205162 0.134953,0.392769 0.29,0.531 0,0 0.193,-0.386 0.435,-0.386 0.194101,0.0047 0.387763,0.02075 0.58,0.048 0,0 0,0.483 0.386,0.483 0.386,0 0.8,-0.483 1.135,-0.749 0.346123,-0.287095 0.828679,-0.34389 1.232,-0.145 0.369596,0.250694 0.790501,0.415708 1.232,0.483 0.483,0 0.628,-0.242 0.845,-0.242 0.242,0 0.242,0.193 0.435,0.29 0.193,0.097 0.483,-0.676 0.29,-0.99 -0.319195,-0.429584 -0.846641,-0.651747 -1.377,-0.58 -0.388068,0.169664 -0.808589,0.252266 -1.232,0.242 -0.167066,0.01075 -0.333935,-0.0238 -0.483,-0.1 -0.09901,-0.353881 -0.115427,-0.72577 -0.048,-1.087 0.145,-0.338 0.29,-0.29 0.338,-0.531 l 0.048,-0.242 c 0.324701,-0.0094 0.647153,0.05668 0.942,0.193 0.408186,0.303886 0.930512,0.410184 1.425,0.29 0.652,-0.145 0.749,-0.483 0.749,-0.483 0,0 -0.628,-0.628 -0.58,-0.845 0.048,-0.242 0.531,-0.048 0.99,-0.29 0.268267,-0.103503 0.442435,-0.364555 0.435,-0.652 0,0 -1.183,-0.29 -1.328,-0.8 -0.06144,-0.435554 -0.209341,-0.854429 -0.435,-1.232 -0.48322,-0.538501 -0.696486,-1.266916 -0.58,-1.981 0.03482,-0.69899 0.453045,-1.32152 1.087,-1.618 0.145,-0.072 0.338,-0.217 -0.048,-0.362 M 34.49,38.114 c -0.145,0.193 0.193,0.459 0.314,0.676 0.145,0.217 -0.1,0.459 -0.6,0.652 -0.5,0.193 -0.266,0.773 -0.217,1.183 0.049,0.41 -0.1,1.183 -0.314,1.014 -0.274926,-0.280069 -0.392618,-0.678497 -0.314,-1.063 0.048,-0.556 -0.6,-1.111 -1.111,-1.28 -0.507,-0.193 -0.773,0.193 -0.6,0.266 0.201729,0.0666 0.378512,0.192823 0.507,0.362 0.145,0.217 -0.193,0.266 -0.507,0.652 -0.314,0.362 0.266,1.111 0.676,1.135 0.411,0.048 0.676,0.676 0.676,0.966 0,0.266 -0.217,0.048 -0.6,-0.048 -0.39014,-0.103762 -0.802549,-0.08703 -1.183,0.048 -0.507,0.145 -0.821,1.183 -0.556,1.232 0.286045,-0.01273 0.566022,-0.08673 0.821,-0.217 l 0.145,0.314 c 0.145,0.314 1.063,0.1 1.28,0.217 0.217,0.145 0.048,0.459 -0.145,0.556 -0.193,0.097 -0.1,1.063 -0.145,1.425 -0.045,0.362 0.193,-0.193 -0.6,0.652 -0.773,0.821 0.556,1.425 0.676,1.473 0.145,0.048 0.193,0.217 0.193,0.507 0,0.266 -0.314,0.652 0.048,0.6 0.362,-0.052 0.652,-0.314 0.652,-0.556 0.02729,-0.410586 0.188536,-0.800879 0.459,-1.111 0.362,-0.411 -0.048,-1.739 -0.145,-2 -0.097,-0.261 0.145,-0.362 0.411,-0.556 0.416606,-0.1515 0.875911,-0.134276 1.28,0.048 0.362,0.145 2.1,1.28 2.1,1.28 l 0.048,-0.314 c 0.048,-0.314 0.411,-1.377 0.411,-1.377 -0.123632,-0.164464 -0.261135,-0.318026 -0.411,-0.459 -0.585795,-0.414657 -1.248372,-0.70838 -1.949,-0.864 -0.4702,-0.0866 -0.882199,-0.367194 -1.135,-0.773 -0.145,-0.314 0.266,-1.183 0.725,-1.932 0.369886,-0.574842 0.450148,-1.289426 0.217,-1.932 -0.048,-0.773 -1.111,-0.773 -1.111,-0.773 m 6.014,0.942 c -0.501808,-0.01341 -1.002531,-0.0538 -1.5,-0.121 -0.517138,-0.06054 -1.040971,-0.02666 -1.546,0.1 -0.338,0.169 -0.894,0.338 -0.725,0.411 0.225168,0.13937 0.484202,0.214418 0.749,0.217 0.615407,0.01676 1.230854,-0.03184 1.836,-0.145 0.402837,-0.130109 0.797827,-0.283364 1.183,-0.459 m 22.921,-4.444 c -1.391999,0.553454 -2.810766,1.037056 -4.251,1.449 -0.892462,0.214873 -1.795301,0.384093 -2.705,0.507 h -0.386 c 2.4e-5,0.44803 -0.05676,0.894256 -0.169,1.328 l -0.145,0.266 c 1.713824,0.01471 3.399708,-0.434492 4.879,-1.3 2.15,-1.4 3.019,-2 2.778,-2.246 m -7.97,4.323 c -0.01199,0.439073 -0.10206,0.872504 -0.266,1.28 h 0.169 c 0.570385,-0.0183 1.130252,-0.158437 1.642,-0.411 0.821,-0.386 1.932,-1.3 1.956,-1.618 0.024,-0.318 0,0 -0.652,0.242 -0.940251,0.219841 -1.891617,0.389084 -2.85,0.507 M 42.147,37.51 c 0.05423,0.10302 0.118906,0.200197 0.193,0.29 0.157753,0.176026 0.409044,0.234047 0.628,0.145 0.242,-0.072 0.507,-0.58 0.507,-0.58 0,0 0.072,-0.024 -0.145,0.024 -0.217,0.048 -0.314,-0.024 -0.652,-0.072 -0.19573,-0.0095 -0.387079,0.06 -0.531,0.193"
     id="path5"
     sodipodi:nodetypes="cccccccccccccccccccscccssccsccccccccccccscscscccsscccccscccccccccccccccccccccccscccccccccccccccccccsccccsccccccsccccccccscsccccccccccccccscccccccccccsccccccccccccccccccsccccccccccccccccccccccccccccccssscssscccccccccccccccccccssccccsccccccccccccscccssccccccccccccccccccccsscccccccsccccscssccssccscccsccccccccccccccccccccccccccsccccccscc" />
</svg>
