<?xml version="1.0" encoding="UTF-8" standalone="no"?>
<svg
   viewBox="0 0 79.97 74.49"
   version="1.1"
   id="svg7"
   sodipodi:docname="hertha-bsc.svg"
   inkscape:version="1.4.2 (f4327f4, 2025-05-13)"
   xmlns:inkscape="http://www.inkscape.org/namespaces/inkscape"
   xmlns:sodipodi="http://sodipodi.sourceforge.net/DTD/sodipodi-0.dtd"
   xmlns="http://www.w3.org/2000/svg"
   xmlns:svg="http://www.w3.org/2000/svg">
  <sodipodi:namedview
     id="namedview7"
     pagecolor="#ffffff"
     bordercolor="#000000"
     borderopacity="0.25"
     inkscape:showpageshadow="2"
     inkscape:pageopacity="0.0"
     inkscape:pagecheckerboard="0"
     inkscape:deskcolor="#d1d1d1"
     inkscape:zoom="10.833669"
     inkscape:cx="40.014144"
     inkscape:cy="37.244999"
     inkscape:window-width="1920"
     inkscape:window-height="1009"
     inkscape:window-x="-8"
     inkscape:window-y="-8"
     inkscape:window-maximized="1"
     inkscape:current-layer="svg7" />
  <defs
     id="defs1">
    <style
       id="style1">.a{fill:#fff}</style>
  </defs>
  <path
     d="M75.85 25.6c.12-1 .35-3.3.35-4.9a32 32 0 0 0-1.28-7.8 41.4 41.4 0 0 0-2.73-7.74 5.47 5.47 0 0 0-3.14-2.82c-1-.45-4.19-.59-10.61-.78h-1.07a68 68 0 0 0-9.06 1 52 52 0 0 1-6 .7h-.2a65.4 65.4 0 0 1-9.93-1.45C29 1.19 25.71.55 22.39.22c-1-.09-2-.14-3-.14A52.8 52.8 0 0 0 7.85 1.45 3.26 3.26 0 0 0 5.23.34a6.7 6.7 0 0 0-2.19.42 4.16 4.16 0 0 0-3 3.45A3.8 3.8 0 0 0 1.7 7.79a4.8 4.8 0 0 0 1.8.59c1.68 6.33 6.65 25.12 10.77 40.63-.18.25-.39.52-.61.81-1.22 1.57-2.74 3.53-2.31 6.63.5 4.15 3.67 5.77 6.7 6.82 1.94 7.29 2.27 8.46 2.33 8.66.57 1.7 1.47 2.56 2.68 2.56a2.3 2.3 0 0 0 .45 0h.15a1.91 1.91 0 0 0 1.48-.82c.47-.71.45-1.71-.09-3.66-.29-1.08-.51-1.83-.75-2.61s-.45-1.51-.75-2.61c1.9.46 2.21.84 2.17 2.19a6.35 6.35 0 0 0 1.25 4.49 2 2 0 0 0 1.47.67c1.14 0 2.5-.89 2.5-5.09 0-5.77-3.78-6.73-7.86-7.77l-1-.26-2-7.93c2.3-1.34 5.69-1.72 8.71-1.91h.63a26.5 26.5 0 0 1 5.93 1 32.8 32.8 0 0 0 8 1.25 16.3 16.3 0 0 0 6.5-1.41 30.5 30.5 0 0 1 10.86-2h.93a25.4 25.4 0 0 1 14.44 4.58 1.35 1.35 0 0 0 .8.27 1.2 1.2 0 0 0 .42-.07 1.28 1.28 0 0 0 .83-.92 83 83 0 0 0 1.83-14.51c.24-6.67-2.7-10.41-4.11-11.77"
     class="a"
     id="path1" />
  <path
     fill="#0068b4"
     d="M76.85 51.6a26.56 26.56 0 0 0-16.21-4.85c-11.21.45-11.08 3.32-17.32 3.32-5.47-.03-10.22-2.47-14.65-2.24-3.72.23-7.63.75-10.1 2.63 1.07 4.18 1.94 7.59 2.43 9.53 4.94 1.38 8.65 1.52 8.65 7 0 5.83-2.78 4.26-2.65 0 .1-3.14-2.18-3.23-5.24-3.93 1 3.93 1.32 4.57 2.06 7.26.83 3 .14 2.77-.55 2.91s-1.25-.42-1.67-1.67c-.09-.29-1.06-3.88-2.49-9.25-3.24-1-6-2.42-6.51-6-.48-3.41 2-5.23 3-7.05-4.35-16.36-9.71-36.62-11.14-42a5.3 5.3 0 0 1-2.16-.54C.97 5.92.46 3.04 3.41 2.01c3.36-1.16 3.74 1 3.74 1s8-2.22 15.11-1.52 14.19 2.88 19.8 3c3 .09 11.22-1.8 15.8-1.66s9.69.27 10.67.69a4.22 4.22 0 0 1 2.49 2.21 40 40 0 0 1 2.63 7.48 31 31 0 0 1 1.25 7.49c0 2.07-.42 5.4-.42 5.4s4.43 3.46 4.16 11.22a83.5 83.5 0 0 1-1.79 14.28"
     id="path2" />
  <path
     d="M14.85 28.02c-2.35-8.07-4.25-14-6.5-17.53l8.38 32.65a47 47 0 0 0-1.88-15.12m3.41 31.07-1.68-6.33c-1.45 2.34-1.73 4.84 1.68 6.33"
     class="a"
     id="path3" />
  <path
     fill="none"
     d="M59.7 36.26c-.56.07-1 0-1 1.46 0 1.73.21 2.28.83 2.28s.9-.83 1-1.94-.28-1.87-.83-1.8m-7.48 3.6c-.28 1-.14 1.46.27 1.46s.77-.49.63-1.38c.07-1.46-.63-1.12-.9-.08m-21.2-4.78c0-.41-.07-.89-.41-.76s-.28.21-.28.69.14 1 .41.9.28-.41.28-.83m27.5-4.22a.84.84 0 0 0-.69.07 8 8 0 0 0-.14 1.52c.07 1.53.56 1.8.56 1.8s.6-.27.6-1.65 0-1.6-.33-1.74"
     id="path4" />
  <path
     d="M52.22 39.86c-.28 1-.14 1.46.27 1.46s.77-.49.63-1.38c.07-1.46-.63-1.12-.9-.08m7.48-3.6c-.56.07-1 0-1 1.46 0 1.73.21 2.28.83 2.28s.9-.83 1-1.94-.28-1.87-.83-1.8m-1.18-5.4a.84.84 0 0 0-.69.07 8 8 0 0 0-.14 1.52c.07 1.53.56 1.8.56 1.8s.6-.27.6-1.65 0-1.6-.33-1.74m-27.5 4.22c0-.41-.07-.89-.41-.76s-.28.21-.28.69.14 1 .41.9.28-.41.28-.83"
     class="a"
     id="path5" />
  <path
     d="m 72.17,27.88 c -2.863439,-1.304561 -6.014886,-1.848745 -9.15,-1.58 -11.337331,4.492133 -22.101183,0.98096 -33.5,0.65 -3.932705,4.61e-4 -7.844166,0.576568 -11.61,1.71 0,0 1.19,5.75 1.45,8.48 0.26,2.73 0,9.9 0,9.9 0,0 5.34,-2.09 9.12,-2 3.78,0.09 10.69,2.61 15.12,2.22 4.43,-0.39 7.83,-3.26 16.18,-3.13 5.172105,0.120048 10.284335,1.135051 15.11,3 0.640142,-3.515256 0.901636,-7.089004 0.78,-10.66 M 70.61,28.2 C 0,0 0,0 70.61,28.2 Z"
     class="a"
     id="path6"
     sodipodi:nodetypes="ccccscsscccss" />
  <path
     fill="#181716"
     d="M7.19 2.94s8-2.22 15.11-1.52 14.19 2.88 19.8 3c3 .09 11.22-1.8 15.8-1.66s9.69.27 10.67.69a4.22 4.22 0 0 1 2.49 2.21 40 40 0 0 1 2.63 7.48 31 31 0 0 1 1.25 7.49c0 2.07-.42 5.4-.42 5.4s4.43 3.46 4.16 11.22a83.5 83.5 0 0 1-1.83 14.35 26.56 26.56 0 0 0-16.21-4.85c-11.21.45-11.08 3.32-17.32 3.32-5.47-.03-10.22-2.47-14.65-2.24-3.72.23-7.63.75-10.1 2.63 1.07 4.18 1.94 7.59 2.43 9.53 4.94 1.38 8.65 1.52 8.65 7 0 5.83-2.78 4.26-2.65 0 .1-3.14-2.18-3.23-5.24-3.93 1 3.93 1.32 4.57 2.06 7.26.83 3 .14 2.77-.55 2.91s-1.25-.42-1.67-1.67c-.09-.29-1.06-3.88-2.49-9.25-3.24-1-6-2.42-6.51-6-.48-3.41 2-5.23 3-7.05-4.35-16.36-9.71-36.62-11.14-42a5.3 5.3 0 0 1-2.16-.54C.97 5.92.46 3.04 3.41 2.01c3.36-1.16 3.74 1 3.74 1m9.39 49.82c-1.41 2.27-1.69 4.77 1.72 6.26zm.11-9.62a47 47 0 0 0-1.8-15.19c-2.35-8.07-4.25-14-6.5-17.53l8.38 32.65m1.22-14.48s1.19 5.75 1.45 8.48 0 9.9 0 9.9 5.34-2.09 9.12-2 10.69 2.61 15.12 2.22 7.83-3.26 16.18-3.13a44.8 44.8 0 0 1 15.11 3 50 50 0 0 0 .78-10.7c-.39-4.3-1.54-7.53-3.5-8.59a18.3 18.3 0 0 0-9.15-1.58c-3.63.26-12.78 2.88-17.6 2.75s-9.36-2.1-15.9-2.1a40.3 40.3 0 0 0-11.61 1.71m.26-2.88s8.03-2.14 13.64-1.51 10.08 2.37 14.24 2.07 11.2-2.46 17.47-2.7 8.61.91 8.61.91a41.6 41.6 0 0 0-1.06-11.1 23.5 23.5 0 0 0-3.26-7.43 37.6 37.6 0 0 0-12.12-.38c-7.31.8-8.08 1.32-13.69 1.45s-16.19-3.3-22.55-2.91A55 55 0 0 0 8.91 5.71a31.7 31.7 0 0 1 5.48 8.59c2 4.84 3.78 11.48 3.78 11.48"
     id="path7" />
</svg>
