<?xml version="1.0" encoding="UTF-8" standalone="no"?>
<svg
   width="572.773"
   height="684.187"
   version="1.2"
   viewBox="0 0 429.58 513.14"
   id="svg7"
   sodipodi:docname="hoffenheim.svg"
   inkscape:version="1.4.2 (f4327f4, 2025-05-13)"
   xmlns:inkscape="http://www.inkscape.org/namespaces/inkscape"
   xmlns:sodipodi="http://sodipodi.sourceforge.net/DTD/sodipodi-0.dtd"
   xmlns="http://www.w3.org/2000/svg"
   xmlns:svg="http://www.w3.org/2000/svg">
  <sodipodi:namedview
     id="namedview7"
     pagecolor="#ffffff"
     bordercolor="#000000"
     borderopacity="0.25"
     inkscape:showpageshadow="2"
     inkscape:pageopacity="0.0"
     inkscape:pagecheckerboard="0"
     inkscape:deskcolor="#d1d1d1"
     inkscape:zoom="1.1795021"
     inkscape:cx="286.13769"
     inkscape:cy="342.09351"
     inkscape:window-width="1920"
     inkscape:window-height="1009"
     inkscape:window-x="-8"
     inkscape:window-y="-8"
     inkscape:window-maximized="1"
     inkscape:current-layer="g7" />
  <defs
     id="defs1">
    <clipPath
       id="a">
      <path
         d="M352 120.47h135V281H352z"
         id="path1" />
    </clipPath>
  </defs>
  <g
     stroke-width=".311"
     id="g7">
    <path
       fill="#fff"
       d="m426.302 309.488-.1-.729-4.17-4.42c-37.164-40.343-54.67-80.096-52.021-118.154 3.365-48.506 39.325-78.252 39.679-78.541l4.909-3.93-27.16-67.226-8.462 5.198c-.239.138-24.573 14.703-58.599 14.703-35.786 0-69.273-15.381-99.546-45.718l-5.952-5.964-5.94 5.964c-30.273 30.336-63.76 45.718-99.546 45.718-34.166 0-58.348-14.552-58.589-14.69L42.33 36.45l-24.8 61.437-2.335 5.814 4.871 3.93c.352.3 36.326 29.984 39.692 78.54 2.687 38.698-15.42 79.103-53.829 120.113l-2.423 2.624.201 2.084c-.113.942 13.02 100.614 103.729 124.471 78.553 20.656 99.871 56.918 100.06 57.255l7.296 13.486 7.458-13.436c.201-.364 21.572-36.49 100.1-57.306 46.155-12.242 71.91-44.5 85.38-69.412 14.177-26.18 19.024-52.999 18.572-56.567"
       id="path2" />
    <g
       clip-path="url(#a)"
       transform="translate(-1133.1 -387.33)scale(3.2144)"
       id="g4">
      <path
         fill="#1961b5"
         d="M478.44 233.89c-4.094 7.57-11.918 17.371-25.918 21.086-24.844 6.586-31.707 18.199-31.781 18.324l-1.402 2.531-1.383-2.554c-.067-.118-6.926-11.77-31.762-18.301-26.883-7.07-31.29-36.125-31.492-37.703v-.004l-.031-.305.433-.469c12.156-12.977 17.883-25.812 17.023-38.145-1.086-15.645-12.617-25.074-12.73-25.168l-.922-.742 7.7-19.074 1.597.992c.078.047 7.86 4.719 18.766 4.719 11.414 0 22.082-4.887 31.7-14.523l1.12-1.121 1.118 1.12c9.617 9.638 20.285 14.524 31.695 14.524 10.867 0 18.695-4.676 18.777-4.727l1.59-.976 7.699 19.07-.93.746c-.117.093-11.648 9.68-12.727 25.16-.84 12.137 4.695 24.766 16.465 37.543l1.058 1.117c.008 1.437-1.597 9.371-5.664 16.879m7.711-17.234-.07-.563-1.52-1.613c-11.363-12.332-16.715-24.438-15.914-35.984 1.008-14.539 11.86-23.613 11.961-23.695l2.125-1.703-9.195-22.766-3.668 2.254c-.07.043-7.48 4.426-17.699 4.426-10.844 0-21.016-4.684-30.23-13.918l-2.582-2.59-2.586 2.59c-9.215 9.234-19.39 13.918-30.234 13.918-10.254 0-17.617-4.375-17.68-4.418l-3.683-2.277-8.176 20.254-1.012 2.52 2.11 1.702c.109.09 10.957 9.11 11.969 23.703.812 11.734-4.727 24.043-16.48 36.594l-1.063 1.156.11 1.106h.011c.129 1.437 1.375 8.89 5.637 17.066 4.234 8.121 12.418 18.62 27.387 22.559 23.766 6.25 30.43 17.219 30.48 17.305l3.168 5.86 3.226-5.817c.067-.11 6.735-11.047 30.512-17.348 14.715-3.903 22.918-14.172 27.211-22.102 4.364-8.07 6.086-16.7 5.887-18.22"
         id="path4" />
    </g>
    <g
       fill="#1961b5"
       id="g6">
      <path
         d="M254.942 154.296c-2.511-2.109-5.487-2.348-7.596.164-2.461 2.925-1.017 5.964 1.18 7.797.992.841 4.784 3.516 7.797-.062 2.574-3.052.653-6.203-1.38-7.898m-27.58 56.637c-2.6-2.185-5.801-1.557-7.635.628-2.009 2.386-1.657 5.638.779 7.684 2.938 2.449 6.14 1.407 7.797-.565 1.47-1.732 2.286-5.047-.941-7.747m7.617-32.915c-2.523-2.11-5.486-2.336-7.608.175-2.461 2.926-1.005 5.965 1.18 7.798.992.829 4.796 3.516 7.81-.063 2.561-3.05.64-6.203-1.381-7.91m-27.451 23.175c-1.733 2.06-1.746 4.935.44 6.756 2.02 1.695 4.934 1.682 6.842-.59 1.758-2.11 1.846-5.048-.464-6.994-2.348-1.971-5.186-1.105-6.818.829"
         id="path5" />
      <path
         d="m 271.657,176.283 c -1.356,1.607 -7.496,8.902 -15.055,2.574 l 5.236,-6.228 c 1.87,1.293 3.892,1.08 5.337,-0.653 3.616,-4.281 -0.578,-8.35 -4.646,-11.552 0.126,3.629 -1.306,5.575 -2.386,6.856 -5.927,7.056 -13.07,4.156 -16.499,1.293 -5.374,-4.495 -6.24,-11.752 -0.891,-18.106 8.312,-9.894 17.943,-2.247 22.563,1.62 12.192,10.208 12.192,17.227 6.341,24.196 m -19.977,23.743 c -1.343,1.608 -7.483,8.903 -15.042,2.574 l 5.236,-6.227 c 1.87,1.293 3.88,1.08 5.336,-0.653 3.604,-4.294 -0.577,-8.35 -4.646,-11.552 0.126,3.616 -1.318,5.587 -2.385,6.855 -5.927,7.057 -13.071,4.157 -16.5,1.294 -5.373,-4.495 -6.24,-11.766 -0.903,-18.106 8.324,-9.895 17.943,-2.26 22.576,1.62 12.192,10.208 12.192,17.227 6.328,24.195 m -19.286,22.765 c -4.922,5.85 -12.08,6.755 -16.712,2.875 -2.223,-1.871 -3.114,-4.08 -3.265,-6.316 -0.188,-2.549 0.515,-4.219 1.042,-5.6 -1.67,1.067 -6.278,4.03 -10.735,0.289 -3.516,-2.938 -5.6,-9.668 0.301,-16.675 4.847,-5.776 11.514,-7.006 16.022,-3.24 3.465,2.914 3.578,7.635 1.57,10.95 1.305,-0.88 3.427,-2.411 6.855,-2.135 2.248,0.188 4.006,1.105 5.412,2.285 5.286,4.42 4.256,11.929 -0.49,17.566 m -17.414,19.79 -22.439,-18.785 c -0.087,1.96 -0.615,5.6 -1.97,9.807 l -5.74,-4.81 c 1.10035,-3.667 1.7955,-7.44354 2.073,-11.262 l 4.47,-5.324 28.841,24.146 z m 167.927,-192.187 -3.05,1.544 c -8.275,4.17 -30.625,13.875 -59.467,13.875 -37.204,0 -71.96,-15.344 -103.314,-45.606 l -2.172,-2.11 -2.198,2.11 c -31.34,30.26 -66.094,45.606 -103.3,45.606 -28.93,0 -51.232,-9.706 -59.467,-13.875 l -3.051,-1.544 -20.329,50.337 1.607,1.482 c 8.827,8.099 37.87,38.071 41.01,83.31 2.837,40.846 -15.57,83.048 -54.732,125.462 l -1.055,1.155 0.276,1.532 c 2.411,13.423 16.223,74.51 70.605,102.848 L 386.738,59.881 Z"
         id="path6"
         sodipodi:nodetypes="cccccccccccccccccccccccccccccccccccccccccscccsccccccccccc" />
    </g>
  </g>
</svg>
