<?xml version="1.0" encoding="UTF-8" standalone="no"?>
<svg
   width="300"
   height="300"
   version="1.2"
   viewBox="0 0 225 225"
   id="svg73"
   sodipodi:docname="holstein-kiel.svg"
   inkscape:version="1.4.2 (f4327f4, 2025-05-13)"
   xmlns:inkscape="http://www.inkscape.org/namespaces/inkscape"
   xmlns:sodipodi="http://sodipodi.sourceforge.net/DTD/sodipodi-0.dtd"
   xmlns:xlink="http://www.w3.org/1999/xlink"
   xmlns="http://www.w3.org/2000/svg"
   xmlns:svg="http://www.w3.org/2000/svg">
  <defs
     id="defs73" />
  <sodipodi:namedview
     id="namedview73"
     pagecolor="#ffffff"
     bordercolor="#000000"
     borderopacity="0.25"
     inkscape:showpageshadow="2"
     inkscape:pageopacity="0.0"
     inkscape:pagecheckerboard="0"
     inkscape:deskcolor="#d1d1d1"
     inkscape:zoom="2.69"
     inkscape:cx="150"
     inkscape:cy="150"
     inkscape:window-width="1920"
     inkscape:window-height="1009"
     inkscape:window-x="-8"
     inkscape:window-y="-8"
     inkscape:window-maximized="1"
     inkscape:current-layer="g73" />
  <g
     fill="#211e1e"
     transform="translate(-142.16 -95.527)"
     id="g3">
    <use
       xlink:href="#a"
       width="100%"
       height="100%"
       x="246.546"
       y="509.437"
       id="use1" />
    <use
       xlink:href="#a"
       width="100%"
       height="100%"
       x="244.763"
       y="547.137"
       id="use2" />
    <use
       xlink:href="#a"
       width="100%"
       height="100%"
       x="245.929"
       y="603.688"
       id="use3" />
  </g>
  <use
     xlink:href="#b"
     width="100%"
     height="100%"
     x="117.131"
     y="33.012"
     fill="#eb1923"
     transform="translate(-142.16 -95.527)"
     id="use4" />
  <use
     xlink:href="#b"
     width="100%"
     height="100%"
     x="119.581"
     y="33.012"
     fill="#eb1923"
     transform="translate(-142.16 -95.527)"
     id="use5" />
  <g
     stroke-width=".097"
     id="g73">
    <path
       fill="#00579c"
       d="m 112.855,223.14 c 60.637,0 109.776,-49.179 109.776,-109.818 C 222.631,52.683 173.493,3.546 112.855,3.546 52.217,3.546 3.037,52.685 3.037,113.322 c 0,60.637 49.18,109.818 109.818,109.818"
       id="path5"
       sodipodi:nodetypes="csssc" />
    <path
       fill="#fff"
       d="M12.983 113.353c0-55.028 44.782-99.81 99.851-99.81 55.03 0 99.811 44.78 99.811 99.81 0 55.07-44.78 99.852-99.81 99.852-55.07 0-99.852-44.782-99.852-99.852m-3.025 0c0 56.724 46.153 102.877 102.876 102.877S215.67 170.076 215.67 113.353c0-56.683-46.113-102.835-102.836-102.835S9.958 56.67 9.958 113.353"
       id="path6" />
    <path
       fill="none"
       stroke="#00579c"
       stroke-width=".021"
       d="m18.56 110.049 1.493-15.008 5.85.847-.847 8.754 6.213.606.807-8.19 5.93.565-.847 8.23 7.1.686.807-8.593 5.93.605-1.411 14.564z"
       id="path12" />
    <path
       fill="none"
       stroke="#00579c"
       stroke-width=".021"
       d="m59.356 52.212 1.412-1.17c1.896-1.533.968-3.672-.201-5.084-1.493-1.815-3.066-2.582-4.882-1.048l-1.412 1.17z"
       id="path18" />
    <path
       fill="none"
       stroke="#00579c"
       stroke-width=".021"
       d="m46.343 46.067 7.826-6.536c3.914-3.268 7.746-1.412 10.45 1.856 2.904 3.51 3.146 6.213 1.532 8.633l.042.042c3.389-1.897 5.406.2 8.109 3.388 4.034 4.68 4.559 5.043 5.486 4.842l.242.282-5.002 4.155c-1.01-.525-2.26-1.735-4.519-4.478-3.43-4.196-4.64-4.68-6.092-3.47l-1.775 1.453 8.392 10.005-4.358 3.833z"
       id="path19" />
    <path
       fill="none"
       stroke="#00579c"
       stroke-width=".021"
       d="M146.524 55c2.098 1.21 3.793-.967 8.07-8.391 4.276-7.423 5.365-9.965 3.267-11.175-2.058-1.21-3.752 1.009-8.028 8.432-4.317 7.383-5.366 9.965-3.309 11.134z"
       id="path27" />
    <path
       fill="none"
       stroke="#00579c"
       stroke-width=".021"
       d="M47.479 151.36c1.372 2.26.605 5.286-1.695 6.617-2.3 1.372-5.285.605-6.656-1.695-1.332-2.3-.605-5.285 1.735-6.616 2.259-1.372 5.285-.645 6.616 1.695z"
       id="path40" />
    <path
       fill="none"
       stroke="#00579c"
       stroke-width=".021"
       d="M184.945 149.811c2.3 1.372 3.025 4.398 1.654 6.657-1.372 2.3-4.357 3.066-6.657 1.654-2.3-1.372-3.026-4.357-1.654-6.657 1.372-2.259 4.357-3.025 6.657-1.654z"
       id="path42" />
    <path
       fill="none"
       stroke="#00579c"
       stroke-width=".021"
       d="m60.492 150.534 4.6 4.479-14.726 19.365.041.04 19.082-15.047 4.6 4.518-25.982 18.195-5.487-5.365z"
       id="path48" />
    <path
       fill="none"
       stroke="#00579c"
       stroke-width=".021"
       d="M64.21 195.255c-6.778-4.075-4.438-10.046.686-18.519 5.124-8.512 9.279-13.354 16.057-9.238 7.302 4.397 3.792 11.094-.646 18.518-4.478 7.423-8.754 13.636-16.097 9.239z"
       id="path51" />
    <path
       fill="#fff"
       d="m116.16 186.166-4.841.242-.242-4.64.766-.041c4.519-.202 5.447-3.147 5.649-5.124l4.236-.201 1.492 30.903-6.01.282z"
       id="path56" />
    <path
       fill="none"
       stroke="#00579c"
       stroke-width=".021"
       d="m116.16 186.166-4.841.242-.242-4.64.766-.041c4.519-.202 5.447-3.147 5.649-5.124l4.236-.201 1.492 30.903-6.01.282z"
       id="path57" />
    <path
       fill="#fff"
       d="M136.093 183.79c-1.049-3.47-2.138-5.527-3.832-5.043-1.655.525-1.534 2.582-.606 5.81 1.09 3.59 1.937 5.124 3.752 4.559 1.695-.485 1.493-2.663.686-5.326m-1.614 14.04c.161.807.444 1.574.847 2.139.404.524.968.726 1.654.565 1.977-.445 2.058-2.461.485-9.078h-.042c-.363 2.017-1.694 3.187-3.792 3.672-3.792.887-6.536-1.17-8.15-7.948-1.411-6.011-1.008-11.336 5.528-12.87 7.302-1.694 9.48 3.752 11.619 12.749 2.34 10.045 3.147 16.178-4.842 18.074-4.397 1.009-7.624-.605-8.956-5.971z"
       id="path58" />
    <path
       fill="none"
       stroke="#00579c"
       stroke-width=".021"
       d="M136.093 183.79c-1.049-3.47-2.138-5.527-3.832-5.043-1.655.525-1.534 2.582-.606 5.81 1.09 3.59 1.937 5.124 3.752 4.559 1.695-.485 1.493-2.663.686-5.326z"
       id="path59" />
    <path
       fill="none"
       stroke="#00579c"
       stroke-width=".021"
       d="M134.44 197.837c.162.806.445 1.573.848 2.138.403.524.967.726 1.654.565 1.977-.444 2.057-2.461.484-9.078h-.041c-.364 2.018-1.695 3.188-3.793 3.672-3.792.887-6.535-1.17-8.149-7.948-1.412-6.011-1.01-11.336 5.527-12.87 7.302-1.694 9.48 3.752 11.619 12.75 2.34 10.045 3.147 16.177-4.841 18.073-4.398 1.01-7.625-.605-8.956-6.011z"
       id="path60" />
    <path
       fill="#fff"
       d="M158.298 191.536c1.816-.927 1.01-3.187-2.945-10.973-4.034-7.867-5.366-9.804-7.181-8.876s-1.009 3.147 3.026 11.014c3.953 7.786 5.285 9.763 7.1 8.835m2.3 4.035c-6.697 3.55-10.126-1.21-14.766-10.005-4.155-7.868-6.737-14.322-.083-17.873 6.738-3.55 10.127 1.25 14.807 10.005 4.115 7.867 6.697 14.322.04 17.873"
       id="path61" />
    <path
       fill="none"
       stroke="#00579c"
       stroke-width=".021"
       d="M158.298 191.536c1.816-.927 1.01-3.187-2.945-10.973-4.034-7.867-5.366-9.804-7.181-8.876s-1.009 3.147 3.026 11.014c3.953 7.786 5.285 9.763 7.1 8.835z"
       id="path62" />
    <path
       fill="none"
       stroke="#00579c"
       stroke-width=".021"
       d="M160.57 195.564c-6.697 3.55-10.126-1.21-14.765-10.005-4.156-7.867-6.738-14.322-.083-17.872 6.737-3.55 10.126 1.25 14.806 10.005 4.115 7.867 6.697 14.322.041 17.872z"
       id="path63" />
    <path
       fill="#fff"
       d="M176.992 177.18c1.493-1.411.083-3.348-5.89-9.722-6.011-6.455-7.827-7.988-9.32-6.576-1.492 1.371-.12 3.308 5.93 9.763 5.972 6.374 7.787 7.907 9.28 6.536m3.308 3.228c-5.446 5.285-10.045 1.654-16.944-5.527-6.173-6.415-10.409-11.902-4.962-17.147 5.446-5.285 10.045-1.613 16.944 5.528 6.132 6.414 10.408 11.9 4.962 17.146"
       id="path64" />
    <path
       fill="none"
       stroke="#00579c"
       stroke-width=".021"
       d="M176.992 177.18c1.493-1.411.083-3.348-5.89-9.722-6.011-6.455-7.827-7.988-9.32-6.576-1.492 1.371-.12 3.308 5.93 9.763 5.972 6.374 7.787 7.907 9.28 6.536z"
       id="path65" />
    <path
       fill="none"
       stroke="#00579c"
       stroke-width=".021"
       d="M180.297 180.382c-5.446 5.285-10.046 1.654-16.944-5.527-6.173-6.415-10.409-11.902-4.962-17.146 5.446-5.285 10.045-1.614 16.944 5.527 6.132 6.414 10.368 11.9 4.962 17.146z"
       id="path66" />
    <path
       fill="#fff"
       d="m113.268 166.336 1.01-.565c4.155-2.46 9.843-6.172 16.621-13.515 8.311-8.997 13.193-16.864 16.743-27.07 5.608-16.219 5.688-28.04 5.769-42.967v-2.986c7.786 9.239 12.426 21.1 12.426 34.05 0 29.129-23.52 52.81-52.568 53.053zm-53.496-53.052c0-12.95 4.64-24.81 12.426-34.05v2.985c.12 14.927.201 26.748 5.81 42.967 3.51 10.207 8.23 17.792 16.702 27.07 6.616 7.222 12.103 10.853 16.662 13.516l.968.565c-29.048-.242-52.568-23.924-52.568-53.052zm53.052-53.052c16.017 0 30.46 7.182 40.182 18.478l-2.3-.16c-.16-.042-19.324-1.534-37.882-1.534-18.6 0-37.721 1.493-37.924 1.533l-2.3.161c9.764-11.296 24.166-18.478 40.223-18.478zm0-3.106c-30.984 0-56.199 25.215-56.199 56.158 0 30.984 25.215 56.159 56.2 56.159 30.943 0 56.158-25.175 56.158-56.159 0-30.943-25.215-56.158-56.159-56.158"
       id="path67" />
    <path
       fill="#eb1938"
       d="M112.855 79.994c-18.72 0-37.68 1.533-37.68 1.533.082 15.17.082 26.667 5.607 42.643 3.631 10.49 8.513 17.71 16.097 26.022 6.375 6.98 11.74 10.53 15.977 12.95 4.196-2.42 9.521-6.011 15.936-12.95 7.464-8.069 12.466-15.532 16.097-26.022 5.527-15.976 5.527-27.474 5.608-42.643 0 0-19.001-1.533-37.64-1.533"
       id="path68" />
    <path
       fill="#ffffff"
       d="m 112.855,159.107 -9.32,-7.101 6.577,-11.902 -16.703,4.398 8.836,-11.983 -15.21,2.017 10.731,-11.255 -15.976,-0.485 11.983,-9.319 -15.492,-2.743 14.16,-8.029 -13.919,-6.011 -0.12,-12.023 11.457,-0.726 5.81,15.694 5.85,-16.219 5.607,15.492 5.77,-15.976 5.728,15.976 5.608,-15.492 5.85,16.219 5.81,-15.694 11.457,0.726 -0.16,12.023 -13.88,6.011 14.161,8.029 -15.451,2.743 11.94,9.32 -15.976,0.484 10.732,11.255 -15.21,-2.017 8.835,11.983 -16.702,-4.398 6.616,11.902 z"
       id="path69"
       sodipodi:nodetypes="ccccccccccccccccccccccccccccccccccc" />
    <g
       fill="#575759"
       id="g72">
      <path
         d="M131.239 103.748h-2.461c0 1.01-.364 1.856-.847 2.663-1.17 1.574-2.864 2.905-4.438 3.43v-2.865h-1.936v3.833c-1.01.322-1.977.685-3.066.967v2.26c4.357-1.05 8.23-3.228 11.296-6.294-1.049 9.561-7.947 16.823-16.944 16.864-8.996-.042-15.774-7.383-16.944-16.864a23.7 23.7 0 0 0 11.215 6.294v-2.26l-3.187-.967s-.041-3.712 0-3.833h-1.936v2.905c-2.38-1.05-5.124-3.308-5.285-6.213h-2.42c-.525 8.795 3.509 17.509 11.658 21.22 4.882 2.381 11.78 1.614 16.219-1.33 6.737-4.64 9.601-11.821 9.077-19.81"
         id="path70" />
      <path
         d="M112.855 118.93c4.841 0 9.521-1.411 13.515-4.074a19 19 0 0 0 1.574-3.833c-4.357 3.268-9.602 5.043-15.088 5.043s-10.692-1.775-15.008-5.002a18.5 18.5 0 0 0 1.573 3.873c3.994 2.622 8.634 3.994 13.435 3.994"
         id="path71" />
      <path
         d="M112.855 120.377c-4.196 0-8.23-1.05-11.82-3.026 2.864 3.671 7.06 5.93 11.82 5.97 4.841-.04 9.078-2.299 11.983-6.05-3.672 2.016-7.746 3.106-11.983 3.106m0-5.681c1.372 0 2.703-.161 3.994-.363v-2.421a30.3 30.3 0 0 1-8.109 0v2.42q1.997.364 4.115.364"
         id="path72" />
    </g>
  </g>
</svg>
