<?xml version="1.0" encoding="UTF-8" standalone="no"?>
<svg
   viewBox="50 40 80 80"
   version="1.1"
   id="svg5"
   sodipodi:docname="schalke-04.svg"
   inkscape:version="1.4.2 (f4327f4, 2025-05-13)"
   xmlns:inkscape="http://www.inkscape.org/namespaces/inkscape"
   xmlns:sodipodi="http://sodipodi.sourceforge.net/DTD/sodipodi-0.dtd"
   xmlns="http://www.w3.org/2000/svg"
   xmlns:svg="http://www.w3.org/2000/svg">
  <defs
     id="defs5" />
  <sodipodi:namedview
     id="namedview5"
     pagecolor="#ffffff"
     bordercolor="#000000"
     borderopacity="0.25"
     inkscape:showpageshadow="2"
     inkscape:pageopacity="0.0"
     inkscape:pagecheckerboard="0"
     inkscape:deskcolor="#d1d1d1"
     inkscape:zoom="10.0875"
     inkscape:cx="40"
     inkscape:cy="40"
     inkscape:window-width="1920"
     inkscape:window-height="1009"
     inkscape:window-x="-8"
     inkscape:window-y="-8"
     inkscape:window-maximized="1"
     inkscape:current-layer="g5" />
  <g
     fill="none"
     fill-rule="evenodd"
     id="g5">
    <path
       fill="#fff"
       d="M90 120c22.091 0 40-17.909 40-40s-17.909-40-40-40-40 17.908-40 40 17.909 40 40 40"
       id="path1" />
    <path
       fill="#004b9c"
       d="M90 118.519c-21.273 0-38.519-17.246-38.519-38.519S68.727 41.481 90 41.481 128.519 58.727 128.519 80 111.273 118.519 90 118.519"
       id="path2" />
    <path
       fill="#fff"
       d="M90 45.926c14.693 0 27.214 9.3 31.998 22.335l-2.675-.001h-14.345v-8.469c0-2.567 0-11.366-14.978-11.366a31.44 31.44 0 0 0-15.107 3.842v55.47A31.44 31.44 0 0 0 90 111.58c14.978 0 14.978-8.799 14.978-11.366v-7.489h-3.774V80.023h22.87c-.013 18.808-15.263 34.051-34.074 34.051-18.819 0-34.074-15.255-34.074-34.074S71.18 45.926 90 45.926"
       id="path3" />
    <path
       fill="#ffffff"
       d="m 78.148,91.888 v 13.26 c 0,2.475 1.99,4.482 4.444,4.482 2.455,0 4.445,-2.007 4.445,-4.481 v -13.26 c 0,-2.475 -1.99,-4.482 -4.445,-4.482 -2.455,0 -4.444,2.007 -4.444,4.481 m 18.941,8.054 -0.002,-3.285 h -2.812 v 3.287 h -1.898 c 0,0 2.931,-12.48 2.956,-12.537 h -3.129 c 0,0 -3.684,15.693 -3.684,15.603 l 5.614,-0.001 v 5.14 h 2.956 l -0.002,-5.14 1.802,0.001 v -3.067 z"
       id="path4"
       sodipodi:nodetypes="cssssscccccccccccccccc" />
    <path
       fill="#004b9c"
       d="M84.074 91.85v13.337a1.48 1.48 0 0 1-1.481 1.48 1.48 1.48 0 0 1-1.482-1.48V91.85c0-.818.663-1.48 1.482-1.48a1.48 1.48 0 0 1 1.481 1.48"
       id="path5" />
  </g>
</svg>
