<?xml version="1.0" encoding="UTF-8" standalone="no"?>
<svg
   width="427.627"
   height="514.56"
   version="1.2"
   viewBox="0 0 320.72 385.92"
   id="svg71"
   sodipodi:docname="sv-sandhausen.svg"
   inkscape:version="1.4.2 (f4327f4, 2025-05-13)"
   xmlns:inkscape="http://www.inkscape.org/namespaces/inkscape"
   xmlns:sodipodi="http://sodipodi.sourceforge.net/DTD/sodipodi-0.dtd"
   xmlns:xlink="http://www.w3.org/1999/xlink"
   xmlns="http://www.w3.org/2000/svg"
   xmlns:svg="http://www.w3.org/2000/svg">
  <defs
     id="defs71" />
  <sodipodi:namedview
     id="namedview71"
     pagecolor="#ffffff"
     bordercolor="#000000"
     borderopacity="0.25"
     inkscape:showpageshadow="2"
     inkscape:pageopacity="0.0"
     inkscape:pagecheckerboard="0"
     inkscape:deskcolor="#d1d1d1"
     inkscape:zoom="1.5683302"
     inkscape:cx="213.92178"
     inkscape:cy="257.28"
     inkscape:window-width="1920"
     inkscape:window-height="1009"
     inkscape:window-x="-8"
     inkscape:window-y="-8"
     inkscape:window-maximized="1"
     inkscape:current-layer="g71" />
  <g
     fill="#211e1e"
     id="g39">
    <use
       xlink:href="#c"
       width="100%"
       height="100%"
       x="257.5"
       y="74.669"
       transform="translate(-519.9 133.23)"
       id="use1" />
    <use
       xlink:href="#d"
       width="100%"
       height="100%"
       x="168.123"
       y="108.554"
       transform="translate(-519.9 133.23)"
       id="use2" />
    <use
       xlink:href="#d"
       width="100%"
       height="100%"
       x="208.018"
       y="108.554"
       transform="translate(-519.9 133.23)"
       id="use3" />
    <use
       xlink:href="#d"
       width="100%"
       height="100%"
       x="248.291"
       y="108.554"
       transform="translate(-519.9 133.23)"
       id="use4" />
    <use
       xlink:href="#d"
       width="100%"
       height="100%"
       x="168.322"
       y="136.018"
       transform="translate(-519.9 133.23)"
       id="use5" />
    <use
       xlink:href="#d"
       width="100%"
       height="100%"
       x="209.755"
       y="136.018"
       transform="translate(-519.9 133.23)"
       id="use6" />
    <use
       xlink:href="#d"
       width="100%"
       height="100%"
       x="248.867"
       y="136.018"
       transform="translate(-519.9 133.23)"
       id="use7" />
    <use
       xlink:href="#d"
       width="100%"
       height="100%"
       x="168.331"
       y="163.194"
       transform="translate(-519.9 133.23)"
       id="use8" />
    <use
       xlink:href="#d"
       width="100%"
       height="100%"
       x="209.762"
       y="163.194"
       transform="translate(-519.9 133.23)"
       id="use9" />
    <use
       xlink:href="#d"
       width="100%"
       height="100%"
       x="248.875"
       y="163.194"
       transform="translate(-519.9 133.23)"
       id="use10" />
    <use
       xlink:href="#d"
       width="100%"
       height="100%"
       x="168.946"
       y="190.658"
       transform="translate(-519.9 133.23)"
       id="use11" />
    <use
       xlink:href="#d"
       width="100%"
       height="100%"
       x="209.298"
       y="190.658"
       transform="translate(-519.9 133.23)"
       id="use12" />
    <use
       xlink:href="#d"
       width="100%"
       height="100%"
       x="248.411"
       y="190.658"
       transform="translate(-519.9 133.23)"
       id="use13" />
    <use
       xlink:href="#d"
       width="100%"
       height="100%"
       x="168.306"
       y="217.874"
       transform="translate(-519.9 133.23)"
       id="use14" />
    <use
       xlink:href="#d"
       width="100%"
       height="100%"
       x="209.906"
       y="217.874"
       transform="translate(-519.9 133.23)"
       id="use15" />
    <use
       xlink:href="#d"
       width="100%"
       height="100%"
       x="250.042"
       y="217.874"
       transform="translate(-519.9 133.23)"
       id="use16" />
    <use
       xlink:href="#d"
       width="100%"
       height="100%"
       x="126.691"
       y="240.442"
       transform="translate(-519.9 133.23)"
       id="use17" />
    <use
       xlink:href="#d"
       width="100%"
       height="100%"
       x="167.85"
       y="245.442"
       transform="translate(-519.9 133.23)"
       id="use18" />
    <use
       xlink:href="#d"
       width="100%"
       height="100%"
       x="209.786"
       y="245.442"
       transform="translate(-519.9 133.23)"
       id="use19" />
    <use
       xlink:href="#d"
       width="100%"
       height="100%"
       x="250.13"
       y="245.442"
       transform="translate(-519.9 133.23)"
       id="use20" />
    <use
       xlink:href="#d"
       width="100%"
       height="100%"
       x="79.842"
       y="267.538"
       transform="translate(-519.9 133.23)"
       id="use21" />
    <use
       xlink:href="#d"
       width="100%"
       height="100%"
       x="80.963"
       y="267.538"
       transform="translate(-519.9 133.23)"
       id="use22" />
    <use
       xlink:href="#c"
       width="100%"
       height="100%"
       x="1078.415"
       y="74.669"
       transform="translate(-519.9 133.23)"
       id="use23" />
    <use
       xlink:href="#d"
       width="100%"
       height="100%"
       x="1069.62"
       y="107.739"
       transform="translate(-519.9 133.23)"
       id="use24" />
    <use
       xlink:href="#d"
       width="100%"
       height="100%"
       x="1070.108"
       y="133.395"
       transform="translate(-519.9 133.23)"
       id="use25" />
    <use
       xlink:href="#d"
       width="100%"
       height="100%"
       x="1070.1"
       y="158.339"
       transform="translate(-519.9 133.23)"
       id="use26" />
    <use
       xlink:href="#d"
       width="100%"
       height="100%"
       x="1071.044"
       y="208.371"
       transform="translate(-519.9 133.23)"
       id="use27" />
    <use
       xlink:href="#d"
       width="100%"
       height="100%"
       x="1071.204"
       y="285.323"
       transform="translate(-519.9 133.23)"
       id="use28" />
    <use
       xlink:href="#d"
       width="100%"
       height="100%"
       x="904.692"
       y="356.955"
       transform="translate(-519.9 133.23)"
       id="use29" />
    <use
       xlink:href="#d"
       width="100%"
       height="100%"
       x="905.812"
       y="356.955"
       transform="translate(-519.9 133.23)"
       id="use30" />
    <use
       xlink:href="#e"
       width="100%"
       height="100%"
       x="256.525"
       y="405.897"
       transform="translate(-519.9 133.23)"
       id="use31" />
    <use
       xlink:href="#e"
       width="100%"
       height="100%"
       x="184.544"
       y="414.899"
       transform="translate(-519.9 133.23)"
       id="use32" />
    <use
       xlink:href="#f"
       width="100%"
       height="100%"
       x="256.524"
       y="462.227"
       transform="translate(-519.9 133.23)"
       id="use33" />
    <use
       xlink:href="#e"
       width="100%"
       height="100%"
       x="256.525"
       y="512.898"
       transform="translate(-519.9 133.23)"
       id="use34" />
    <use
       xlink:href="#e"
       width="100%"
       height="100%"
       x="256.539"
       y="512.898"
       transform="translate(-519.9 133.23)"
       id="use35" />
    <use
       xlink:href="#e"
       width="100%"
       height="100%"
       x="54.721"
       y="521.9"
       transform="translate(-519.9 133.23)"
       id="use36" />
    <use
       xlink:href="#g"
       width="100%"
       height="100%"
       x="32.467"
       y="305.319"
       transform="translate(-519.9 133.23)"
       id="use37" />
    <use
       xlink:href="#g"
       width="100%"
       height="100%"
       x="37.346"
       y="305.319"
       transform="translate(-519.9 133.23)"
       id="use38" />
    <use
       xlink:href="#g"
       width="100%"
       height="100%"
       x="262.184"
       y="305.319"
       transform="translate(-519.9 133.23)"
       id="use39" />
  </g>
  <g
     fill="#fff"
     id="g43">
    <use
       xlink:href="#h"
       width="100%"
       height="100%"
       x="779.18"
       y="500.959"
       transform="translate(-519.9 133.23)"
       id="use40" />
    <use
       xlink:href="#h"
       width="100%"
       height="100%"
       x="780.588"
       y="500.961"
       transform="translate(-519.9 133.23)"
       id="use41" />
    <use
       xlink:href="#h"
       width="100%"
       height="100%"
       x="795.313"
       y="542.462"
       transform="translate(-519.9 133.23)"
       id="use42" />
    <use
       xlink:href="#h"
       width="100%"
       height="100%"
       x="796.719"
       y="542.465"
       transform="translate(-519.9 133.23)"
       id="use43" />
  </g>
  <use
     xlink:href="#i"
     width="100%"
     height="100%"
     x="1076.049"
     y="540.959"
     fill="#211e1e"
     transform="translate(-519.9 133.23)"
     id="use44" />
  <use
     xlink:href="#i"
     width="100%"
     height="100%"
     x="1076.017"
     y="549.961"
     fill="#211e1e"
     transform="translate(-519.9 133.23)"
     id="use45" />
  <g
     stroke-width=".227"
     id="g71">
    <path
       fill="#fff"
       d="M160.313 384.065c87.686 0 158.77-85.673 158.77-191.357S247.999 1.35 160.313 1.35C72.645 1.35 1.562 87.023 1.562 192.708s71.083 191.357 158.751 191.357"
       id="path45" />
    <path
       fill="#211e1e"
       d="M160.401 385.915c-88.408 0-160.35-86.549-160.35-192.96C.05 86.564 71.993-.008 160.4-.008c88.426 0 160.369 86.567 160.369 192.961 0 106.408-71.943 192.961-160.369 192.961m0-382.72C73.746 3.196 3.25 88.319 3.25 192.956S73.746 382.73 160.4 382.73c86.673 0 157.17-85.14 157.17-189.777S247.075 3.196 160.402 3.196"
       id="path46" />
    <path
       fill="#ffffff"
       d="m 160.401,373.493 c 81.114,0 146.863,-80.805 146.863,-180.486 0,-99.681 -65.749,-180.486 -146.863,-180.486 -81.114,0 -146.861,80.805 -146.861,180.486 0,99.681 65.748,180.486 146.86,180.486"
       id="path47"
       sodipodi:nodetypes="csssc" />
    <path
       fill="#211e1e"
       d="M160.401 375.123c-81.853 0-148.461-81.682-148.461-182.085S78.548 10.953 160.4 10.953c81.872 0 148.462 81.682 148.462 182.085s-66.59 182.085-148.462 182.085m0-360.968c-80.1 0-145.263 80.255-145.263 178.883 0 98.632 65.163 178.883 145.263 178.883s145.264-80.255 145.264-178.883c0-98.632-65.163-178.883-145.264-178.883"
       id="path48" />
    <path
       fill="#211e1e"
       d="m 24.507,260.857 c 21.99,65.904 74.56,112.293 135.903,112.293 81.132,0 146.898,-81.15 146.898,-181.275 0,-23.608 -3.648,-46.151 -10.29,-66.833 0,0 -272.541,136.401 -272.506,135.815"
       id="path49"
       sodipodi:nodetypes="csscc" />
    <g
       fill="#fff"
       id="g50">
      <path
         d="m 180.709,328.959 -5.094,2.53 -11.7,-23.437 c -0.843,3.08 -2.254,5.765 -4.233,8.002 l -2.822,-5.644 c 1.136,-1.29 2.082,-3.046 2.874,-5.283 0.774,-2.237 0.98,-4.456 0.619,-6.693 l 4.113,-2.048 z m 2.643,-10.704 4.611,-3.115 c 1.428,2.289 2.994,3.011 4.68,2.168 1.136,-0.568 1.756,-1.634 1.893,-3.183 0.12,-1.566 -0.636,-4.233 -2.254,-8.001 -0.19,1.221 -0.568,2.254 -1.136,3.114 -0.57657,0.859 -1.3724,1.54815 -2.305,1.996 -2.03,1.01533 -4.30133,0.94667 -6.814,-0.206 -2.53,-1.17 -4.578,-3.339 -6.178,-6.54 -1.703,-3.423 -2.22,-6.52 -1.565,-9.308 0.654,-2.77 2.185,-4.766 4.594,-5.954 2.684,-1.342 5.54,-1.187 8.535,0.482 3.01067,1.652 5.97,5.403 8.878,11.253 2.977,5.954 4.199,10.703 3.683,14.213 -0.516,3.51067 -2.21933,5.98867 -5.11,7.434 -1.997,0.998 -3.993,1.17 -5.955,0.499 -1.961,-0.671 -3.82,-2.289 -5.557,-4.853 m 4.8,-19.323 c -1.015,-2.03 -2.185,-3.407 -3.493,-4.113 -1.308,-0.705 -2.46,-0.808 -3.424,-0.327 -0.947,0.465 -1.514,1.308 -1.686,2.513 -0.19,1.221 0.258,2.873 1.29,4.973 1.05,2.082 2.15,3.44 3.321,4.078 1.187,0.636 2.254,0.688 3.27,0.189 0.963,-0.482 1.548,-1.36 1.772,-2.615 0.223,-1.274 -0.138,-2.84 -1.05,-4.698 m 31.805,10.469 -5.093,2.547 -11.684,-23.453 c -0.843,3.097 -2.254,5.747 -4.25,8.001 l -2.822,-5.643 c 1.136,-1.274 2.1,-3.046 2.874,-5.283 0.774,-2.237 0.98,-4.456 0.62,-6.676 l 4.112,-2.065 z m 11.277,-36.253 -4.612,3.132 c -1.428,-2.288 -2.994,-3.011 -4.697,-2.15 -1.119,0.533 -1.738,1.617 -1.859,3.182 -0.137,1.584 0.62,4.25 2.255,8.019 0.189,-1.239 0.55,-2.254 1.118,-3.115 0.55096,-0.85132 1.32463,-1.53541 2.237,-1.978 2.082,-1.05 4.388,-0.981 6.917,0.189 2.512,1.153 4.577,3.355 6.177,6.573 1.704,3.424 2.237,6.505 1.549,9.258 -0.671,2.77 -2.203,4.766 -4.629,5.97 -2.667,1.326 -5.506,1.154 -8.517,-0.481 -3.012,-1.67 -5.971,-5.42 -8.896,-11.27 -2.96,-5.954 -4.182,-10.686 -3.665,-14.214 0.516,-3.51 2.185,-5.988 5.041,-7.399 1.962,-0.98 3.958,-1.153 5.971,-0.482 2.03,0.654 3.889,2.237 5.61,4.766 m -4.784,19.358 c 1.015,2.048 2.185,3.424 3.493,4.113 1.308,0.705 2.444,0.808 3.407,0.327 0.94667,-0.46467 1.51467,-1.308 1.704,-2.53 0.172,-1.204 -0.241,-2.839 -1.256,-4.887 -1.067,-2.116 -2.169,-3.493 -3.339,-4.13 -1.17,-0.636 -2.254,-0.70467 -3.252,-0.206 -0.998,0.499 -1.583,1.377 -1.807,2.65 -0.223,1.256 0.138,2.822 1.05,4.663"
         id="path50"
         sodipodi:nodetypes="cccccccccccsccccccccccccccccccccccccccccsccccccccccccccccccccccccccccc" />
    </g>
  </g>
  <use
     xlink:href="#j"
     width="100%"
     height="100%"
     x="338.452"
     y="200.66"
     fill="#3d787f"
     transform="translate(-519.9 133.23)"
     id="use71" />
</svg>
