<?xml version="1.0" encoding="UTF-8" standalone="no"?>
<svg
   xml:space="preserve"
   id="Ebene_2_1_"
   width="170"
   height="179"
   version="1.1"
   sodipodi:docname="vfl-bochum.svg"
   inkscape:version="1.4.2 (f4327f4, 2025-05-13)"
   xmlns:inkscape="http://www.inkscape.org/namespaces/inkscape"
   xmlns:sodipodi="http://sodipodi.sourceforge.net/DTD/sodipodi-0.dtd"
   xmlns:xlink="http://www.w3.org/1999/xlink"
   xmlns="http://www.w3.org/2000/svg"
   xmlns:svg="http://www.w3.org/2000/svg"><defs
     id="defs10" /><sodipodi:namedview
     id="namedview10"
     pagecolor="#ffffff"
     bordercolor="#000000"
     borderopacity="0.25"
     inkscape:showpageshadow="2"
     inkscape:pageopacity="0.0"
     inkscape:pagecheckerboard="0"
     inkscape:deskcolor="#d1d1d1"
     inkscape:zoom="4.5083799"
     inkscape:cx="85.063817"
     inkscape:cy="89.5"
     inkscape:window-width="1920"
     inkscape:window-height="1009"
     inkscape:window-x="-8"
     inkscape:window-y="-8"
     inkscape:window-maximized="1"
     inkscape:current-layer="g8" /><style
     id="style1">.st1{fill:#005ba4}.st1,.st2,.st3{clip-path:url(#SVGID_4_)}.st2{fill:#fff}.st3{fill-rule:evenodd;clip-rule:evenodd;fill:#005ba4}</style><g
     transform="translate(1.732 1.732)scale(1.6009)"
     id="g10"><defs
       id="defs1"><path
         id="SVGID_1_"
         d="M0 0h104.1v109.9H0z" /></defs><clipPath
       id="SVGID_2_"><use
         xlink:href="#SVGID_1_"
         width="100%"
         height="100%"
         id="use1" /></clipPath><g
       style="clip-path:url(#SVGID_2_)"
       clip-path="url(#SVGID_2_)"
       id="g9"><defs
         id="defs2"><path
           id="SVGID_3_"
           d="M0 0h104.1v109.9H0z" /></defs><clipPath
         id="SVGID_4_"><use
           xlink:href="#SVGID_3_"
           width="100%"
           height="100%"
           id="use2" /></clipPath><g
         shape-rendering="optimizeQuality"
         id="g8"><path
           d="M52.1 0C34.3 0 14.8 5.2 0 13.6c1.5 53.3 30.4 81.5 52.1 96.3 21.6-14.8 50.5-43 52.1-96.3C89.3 5.2 69.8 0 52.1 0"
           class="st1"
           clip-path="url(#SVGID_4_)"
           id="path2" /><path
           d="M52.1 6.2c-5.2 0-10.5.5-15.9 1.4 2.5 30.2 15.3 54.9 38.2 73.5 14.2-17.7 22-39.1 23.4-63.9-13.7-6.9-30.6-11-45.7-11"
           class="st2"
           clip-path="url(#SVGID_4_)"
           id="path3" /><path
           d="M52.1 4.1c16 0 33.8 4.4 47.9 11.9-1.7 37.6-17.8 67.5-47.9 89C22 83.4 5.9 53.5 4.2 16 18.3 8.5 36.1 4.1 52.1 4.1m0-1.9c-16.8 0-35.3 4.7-49.9 12.7 1.5 39.2 18.3 70.3 49.9 92.5 31.6-22.2 48.4-53.3 49.9-92.5-14.7-8-33.2-12.7-49.9-12.7"
           class="st2"
           clip-path="url(#SVGID_4_)"
           id="path4" /><path
           d="M57 45.3c.6 0 1.1-.1 1.2-.3.2-.2.3-.5.3-1v-4.9c0-.3 0-.5-.1-.7-.1-.1-.2-.2-.4-.2-.1 0-.3 0-.5.1-.1 0-.3.1-.6.2v-.3l3.2-1.4h.2V44c0 .5.1.8.2.9s.5.2 1.1.2v.3H57zm8.9-5.7c.1-.2.1-.5.1-.8 0-.5-.1-.8-.3-1.1s-.5-.4-.9-.4c-.3 0-.5.1-.7.3s-.3.4-.3.7c0 .5.2.9.7 1.3.3.2.6.5.9.6.3-.2.4-.4.5-.6m-2.1 5c.2.5.6.8 1.1.8.3 0 .5-.1.8-.3.2-.2.3-.6.3-1.1s-.2-.9-.5-1.3q-.3-.3-1.2-.9c-.2.4-.4.6-.5.8-.1.3-.2.6-.2 1s.1.7.2 1m-1-2.5c.3-.2.6-.4 1.1-.6v-.1c-.1 0-.3-.2-.6-.4s-.5-.5-.7-.7-.3-.5-.3-.7c-.1-.2-.1-.4-.1-.6 0-.6.3-1.1.8-1.6q.75-.6 2.1-.6c.8 0 1.4.2 1.8.5.4.4.6.8.6 1.3s-.2.9-.7 1.3c-.2.2-.6.4-1 .5v.1c.6.4 1 .8 1.2 1.1.4.5.6 1 .6 1.6 0 .8-.3 1.4-.8 1.9-.6.5-1.3.7-2.2.7-.6 0-1.3-.2-1.8-.5-.6-.4-.8-.9-.8-1.6.1-.7.3-1.2.8-1.6m8.7.3v-3.6h-.1L69 42.2v.1h2.5zm-3-.3c0-.1.2-.2.3-.5l1.3-1.9 1.7-2.3.5-.7h1v5.5h.8v1.4h-.8v1.8h-1.8v-1.8h-3.2v-1.4c.1.1.1 0 .2-.1m10.1-2.5c.1-.2.1-.5.1-.8 0-.5-.1-.8-.3-1.1s-.5-.4-.9-.4c-.3 0-.5.1-.7.3s-.3.4-.3.7c0 .5.2.9.7 1.3.3.2.6.5.9.6.3-.2.4-.4.5-.6m-2.1 5c.2.5.6.8 1.1.8.3 0 .5-.1.8-.3.2-.2.3-.6.3-1.1s-.2-.9-.5-1.3q-.3-.3-1.2-.9c-.2.4-.4.6-.5.8-.1.3-.2.6-.2 1s.1.7.2 1m-1-2.5c.3-.2.6-.4 1.1-.6v-.1c-.1 0-.3-.2-.6-.4s-.5-.5-.7-.7-.3-.5-.3-.7c-.1-.2-.1-.4-.1-.6 0-.6.3-1.1.8-1.6q.75-.6 2.1-.6c.8 0 1.4.2 1.8.5.4.4.6.8.6 1.3s-.2.9-.7 1.3c-.2.2-.6.4-1 .5v.1c.6.4 1 .8 1.2 1.1.4.5.6 1 .6 1.6 0 .8-.3 1.4-.8 1.9-.6.5-1.3.7-2.2.7-.6 0-1.3-.2-1.8-.5-.6-.4-.8-.9-.8-1.6.1-.7.3-1.2.8-1.6"
           class="st3"
           clip-path="url(#SVGID_4_)"
           id="path7" /></g></g></g></svg>
