<?xml version="1.0" encoding="UTF-8" standalone="no"?>
<svg
   viewBox="0 0 595.28 595.28"
   version="1.1"
   id="svg3"
   sodipodi:docname="wolfsburg.svg"
   inkscape:version="1.4.2 (f4327f4, 2025-05-13)"
   xmlns:inkscape="http://www.inkscape.org/namespaces/inkscape"
   xmlns:sodipodi="http://sodipodi.sourceforge.net/DTD/sodipodi-0.dtd"
   xmlns="http://www.w3.org/2000/svg"
   xmlns:svg="http://www.w3.org/2000/svg">
  <defs
     id="defs3" />
  <sodipodi:namedview
     id="namedview3"
     pagecolor="#ffffff"
     bordercolor="#000000"
     borderopacity="0.25"
     inkscape:showpageshadow="2"
     inkscape:pageopacity="0.0"
     inkscape:pagecheckerboard="0"
     inkscape:deskcolor="#d1d1d1"
     inkscape:zoom="1.3556645"
     inkscape:cx="297.64001"
     inkscape:cy="297.64001"
     inkscape:window-width="1920"
     inkscape:window-height="1009"
     inkscape:window-x="-8"
     inkscape:window-y="-8"
     inkscape:window-maximized="1"
     inkscape:current-layer="g3" />
  <path
     fill="#fff"
     d="M571.89 175.95c-14.85-35.85-36.31-67.51-63.79-94.11C453.56 29.07 378.82 0 297.65 0 133.52 0 0 133.77 0 298.19c0 79.36 30.96 153.96 87.18 210.07s130.96 87.01 210.47 87.01 154.24-30.9 210.45-87.01c56.22-56.11 87.18-130.72 87.18-210.07 0-43.64-7.87-84.77-23.39-122.24"
     class="st0"
     id="path1" />
  <g
     fill="#41a639"
     id="g3">
    <path
       d="M6.51 297.47C12.33 116.64 136.6 42.93 218.19 17.25c37.3-11.74 69.96-12.13 69.82-7.91-.12 3.71-28.1.62-67.71 14.92C151.27 49.21 53.52 111.2 47.58 269.89 47.58 415.81 165.96 534.1 312 534.1s264.42-118.28 264.42-264.21c.38-31.19-5.25-55.87-12.32-77.2-12.38-37.5-28.37-54.88-21.44-55.04 4.76-.09 19.17 29.37 29.2 56.84 11.68 31.98 17.05 61.04 16.91 102.98 0 160.69-130.35 290.92-291.13 290.92S6.51 458.16 6.51 297.47"
       class="st1"
       id="path2" />
  </g>
</svg>
