<?xml version="1.0" encoding="UTF-8" standalone="no"?>
<svg
   data-name="Layer 1"
   viewBox="0 0 800 800"
   version="1.1"
   id="svg3"
   sodipodi:docname="austins-fc.svg"
   inkscape:version="1.4.2 (f4327f4, 2025-05-13)"
   xmlns:inkscape="http://www.inkscape.org/namespaces/inkscape"
   xmlns:sodipodi="http://sodipodi.sourceforge.net/DTD/sodipodi-0.dtd"
   xmlns="http://www.w3.org/2000/svg"
   xmlns:svg="http://www.w3.org/2000/svg">
  <defs
     id="defs3" />
  <sodipodi:namedview
     id="namedview3"
     pagecolor="#ffffff"
     bordercolor="#000000"
     borderopacity="0.25"
     inkscape:showpageshadow="2"
     inkscape:pageopacity="0.0"
     inkscape:pagecheckerboard="0"
     inkscape:deskcolor="#d1d1d1"
     inkscape:zoom="1.06375"
     inkscape:cx="400.47004"
     inkscape:cy="400"
     inkscape:window-width="1920"
     inkscape:window-height="1111"
     inkscape:window-x="-9"
     inkscape:window-y="-9"
     inkscape:window-maximized="1"
     inkscape:current-layer="svg3" />
  <path
     d="M653.09 36.73H122.86v452.15a278.5 278.5 0 1 0 557 0V36.73Z"
     id="path1" />
  <path
     d="M290.16 577.72h-13.73v-49.06a11.49 11.49 0 0 1 11.47-11.47h32.62V530h-29.21a1.08 1.08 0 0 0-1.15 1v14.73h30.36v13.73h-30.36Zm192.14-49.06v37.59a11.49 11.49 0 0 0 11.47 11.47h32.62v-12.81h-29.22a1.08 1.08 0 0 1-1.15-1v-32.86a1.08 1.08 0 0 1 1.15-1h29.22v-12.86h-32.62a11.49 11.49 0 0 0-11.47 11.47m104.17-62.13-.13 1.12 1.12-.14a36.68 36.68 0 0 0 31.73-32.32l.12-1.12-1.11.14a36.71 36.71 0 0 0-31.73 32.32m-48.72-56.39a37.5 37.5 0 0 0-5.34 3.2 36.5 36.5 0 0 0-7.18 6.75 36.83 36.83 0 0 0-8.1 22.54v1.13l1.09-.26a36.69 36.69 0 0 0 28.4-35.28v-1.13l-1.1.26a36.8 36.8 0 0 0-7.77 2.79m-75.65-21.63-.27-1.09-1 .53a36.63 36.63 0 0 0-18.52 40.48c.07.31.12.63.2.94l.28 1.09 1-.53a36 36 0 0 0 4.41-2.77 36.55 36.55 0 0 0 14.17-37.42c-.1-.41-.16-.82-.27-1.23m86.9-30.1 1.11-.19a36.66 36.66 0 0 0 30.48-33.5l.08-1.12-1.11.18a36.69 36.69 0 0 0-30.48 33.5ZM473.66 338l.23 1.1 1-.49a36.67 36.67 0 0 0 20-40.62l-.24-1.11-1 .49a36.69 36.69 0 0 0-20 40.63Zm-72.36 2.32v-.06l.05.06.69-.89a36.66 36.66 0 0 0 0-45.29l-.7-.89-.7.89a36.7 36.7 0 0 0 0 45.29ZM193.78 456.83a36.88 36.88 0 0 0 21.44 10.68l1.12.14-.12-1.12a36.74 36.74 0 0 0-31.73-32.32l-1.12-.14.13 1.12a36.83 36.83 0 0 0 10.28 21.64m83.67-36.74a36.7 36.7 0 0 0-7.17-6.75 37 37 0 0 0-5.35-3.2 36.6 36.6 0 0 0-7.77-2.79l-1.1-.26v1.13a36.69 36.69 0 0 0 28.4 35.28l1.1.26v-1.13a36.83 36.83 0 0 0-8.11-22.54m64.4-32.09-1-.53-.28 1.09c-.1.41-.17.82-.26 1.23a36.74 36.74 0 0 0 18.58 40.19l1 .53.28-1.09c.07-.31.12-.63.19-.94A36.6 36.6 0 0 0 341.85 388m-110.28-41.26a36.88 36.88 0 0 0 21 11.48l1.12.19-.09-1.13a36.69 36.69 0 0 0-30.48-33.5l-1.12-.18.08 1.12a36.86 36.86 0 0 0 9.49 22.02m96.2-8.13 1 .49.23-1.1a36.7 36.7 0 0 0-20-40.63l-1-.49-.23 1.11a36.68 36.68 0 0 0 20 40.62m-86.11 57.14c52.25 0 68.37-23.06 106.15-23.06 11.52 0 22.08 4.19 31 11.51A142.4 142.4 0 0 1 393 366.51c-10.66-13.68-19.62-27.09-19.62-49 0-25.13 11.92-39 18.23-45.83l-10.8-17.1A96.15 96.15 0 0 0 359 288.4c-9.67-14.14-26.66-19.9-31-19.9v20.21c9.8 0 23.93 15 26 36.23a97.2 97.2 0 0 0 8.15 30.64 51.5 51.5 0 0 0-16.75-3.11c-19.83 0-40 8.78-40 8.78-10.78-42.48-28.36-59.2-58.83-66.53v20.18c17.4 5 30.22 16.71 39.61 52.94 0 0-19.07 7.78-37 7.78-12.62 0-24-2.69-33.7-15.93L196.79 367s8.84 28.75 44.87 28.75M143.27 57.14h516.18v431.74C659.45 631.19 543.67 747 401.36 747S143.27 631.19 143.27 488.88Zm230.44 529.29c-21.88 40.25-65.82 89.89-130.06 90.25a245.7 245.7 0 0 0 63.24 38.63c16.65-10.98 62.73-52.83 66.82-128.88m185.36 90.25c-64.24-.36-108.18-50-130.06-90.25 4.09 76.05 50.18 117.9 66.82 128.88a245.6 245.6 0 0 0 63.24-38.63M156 214.15h490.73V69.87H156Zm0 274.73a244.07 244.07 0 0 0 46 142.84c105.53 0 171.6-34.11 171.6-123.51 0-32.42-16.73-38.1-36.55-38.1-41.63 0-78.13 36.78-111.42 36.78-22.25 0-37.6-9.29-46.34-13.32l8.39-18.25s19.12 11.33 34.33 11.33c16.15 0 32.44-10.52 32.44-10.52a62.5 62.5 0 0 1-22.66-19.05c-6.2-8.35-10.51-21.2-12.11-31.94h20.22c2.72 12.64 11.35 36.52 37.67 36.55 8.89 0 27.71-9.66 38.2-9.66-14.86-18.26-21.79-48.5-21.79-48.5s8.73-3.21 18.91-7.16c17.81 64.74 31.9 35.82 61.63 62.78 0-83.13 54.77-87.41 54.77-141.66 0-25.13-11.91-39-18.22-45.83l10.8-17.1a96.15 96.15 0 0 1 21.82 33.85c9.66-14.14 26.65-19.9 31-19.9v20.21c-9.81 0-23.94 15-26 36.23a97.2 97.2 0 0 1-8.15 30.64 51.4 51.4 0 0 1 16.75-3.11c19.83 0 40 8.78 40 8.78 10.78-42.48 28.36-59.2 58.84-66.53v20.17c-17.4 5-30.22 16.71-39.61 52.94 0 0 19.06 7.78 37 7.78 12.63 0 24-2.69 33.7-15.93l18.67 7.31s-8.83 28.73-44.86 28.73c-52.26 0-68.38-23.06-106.15-23.06-24.63 0-60.1 20.92-60.1 93.36v26.73s-.42 73.69-.42 76.07C394.36 650.68 378 708 369 732.11a246.3 246.3 0 0 0 64.64 0c-9-24.08-25.32-81.43-25.32-163.26 0-2.38-.42-76.07-.42-76.07v-26.73c0-38 12.6-53.45 12.6-53.45 7.84 18.84 7.57 42.68 7.57 46.61 29.78-27.07 43.83 2 61.67-62.84 4.94 1.93 18.9 7.16 18.9 7.16S501.83 433.77 487 452c10.5 0 29.31 9.64 38.21 9.66 26.31 0 34.94-23.91 37.66-36.55h20.23c-1.6 10.74-5.91 23.59-12.11 31.94a62.6 62.6 0 0 1-22.67 19.05s16.29 10.52 32.45 10.52c15.21 0 34.32-11.33 34.32-11.33l8.39 18.25c-8.74 4-24.09 13.32-46.34 13.32-33.29 0-69.78-36.78-111.42-36.78-19.82 0-36.55 5.68-36.55 38.1 0 89.4 66.07 123.47 171.6 123.51a244 244 0 0 0 46-142.84v-262H156ZM692.59 24v464.88a291.23 291.23 0 1 1-582.46 0V24zm-12.73 12.73h-557v452.15a278.5 278.5 0 1 0 557 0z"
     style="fill:#00b140"
     id="path3" />
</svg>
