<?xml version="1.0" encoding="UTF-8" standalone="no"?>
<svg
   id="Layer_1"
   data-name="Layer 1"
   viewBox="0 0 800 800"
   version="1.1"
   sodipodi:docname="charlotte-fc.svg"
   inkscape:version="1.4.2 (f4327f4, 2025-05-13)"
   xmlns:inkscape="http://www.inkscape.org/namespaces/inkscape"
   xmlns:sodipodi="http://sodipodi.sourceforge.net/DTD/sodipodi-0.dtd"
   xmlns="http://www.w3.org/2000/svg"
   xmlns:svg="http://www.w3.org/2000/svg">
  <sodipodi:namedview
     id="namedview5"
     pagecolor="#ffffff"
     bordercolor="#000000"
     borderopacity="0.25"
     inkscape:showpageshadow="2"
     inkscape:pageopacity="0.0"
     inkscape:pagecheckerboard="0"
     inkscape:deskcolor="#d1d1d1"
     inkscape:zoom="1.06375"
     inkscape:cx="400.47004"
     inkscape:cy="400"
     inkscape:window-width="1920"
     inkscape:window-height="1111"
     inkscape:window-x="-9"
     inkscape:window-y="-9"
     inkscape:window-maximized="1"
     inkscape:current-layer="Layer_1" />
  <defs
     id="defs1">
    <style
       id="style1">.cls-1{fill:#0085ca}.cls-2{fill:#fff}</style>
  </defs>
  <circle
     cx="400"
     cy="400"
     r="347"
     id="circle1" />
  <circle
     cx="400"
     cy="400"
     r="194.32"
     class="cls-1"
     id="circle2" />
  <path
     d="M400 726.18C220.14 726.18 73.82 579.86 73.82 400S220.14 73.82 400 73.82 726.18 220.14 726.18 400 579.86 726.18 400 726.18M719.24 400C719.24 224 576 80.76 400 80.76S80.76 224 80.76 400 224 719.24 400 719.24 719.24 576 719.24 400"
     class="cls-2"
     id="path2" />
  <path
     d="M400 622.08c-122.46 0-222.08-99.62-222.08-222.08S277.54 177.92 400 177.92 622.08 277.54 622.08 400 522.46 622.08 400 622.08M615.14 400c0-118.63-96.51-215.14-215.14-215.14S184.86 281.37 184.86 400 281.37 615.14 400 615.14 615.14 518.63 615.14 400"
     class="cls-2"
     id="path3" />
  <path
     d="M 489.15,498.35 485,510.28 c -0.50979,1.48049 -1.62643,2.67351 -3.07,3.28 -7.27,3 -32.2,11.56 -79.4,11.56 -47.81,0 -76.57,-9.4 -84.72,-12.49 -1.52208,-0.5708 -2.70524,-1.79806 -3.22,-3.34 l -4,-11.67 c -0.48274,-1.36668 0.77415,-2.71045 2.17,-2.32 28.43801,7.69309 57.78001,11.53405 87.24,11.42 29.33579,0.10583 58.56737,-3.49604 87,-10.72 1.40623,-0.38445 2.65769,0.98342 2.15,2.35 M 400,492.84 c 47.16,0 83.39,-10.1 93.22,-13.13 1.66802,-0.52016 2.98718,-1.80588 3.55,-3.46 L 546,333.59 c -0.43328,-1.37228 -1.41384,-2.50482 -2.71,-3.13 -2.37897,-1.15533 -5.24636,-0.28378 -6.58,2 -10.92,18.48 -21.9,24.17 -25.52,26 l -0.12,0.06 c -2.27629,1.19257 -3.4755,3.75879 -2.93,6.27 v 0.16 0.14 c 0.2,0.88 0.47,2.17 0.71,3.82 0.16,1.43 0.32,3.2 0.47,5.17 0.34593,4.18216 0.20498,8.39035 -0.42,12.54 -10.28,6.35 -24.17,12.49 -35.18,8.54 C 465,392 458.3,378.24 455.9,349.67 c 2.78714,-5.42685 6.51102,-10.31867 11,-14.45 l 0.1,-0.09 c 1.88545,-1.75046 2.37585,-4.54168 1.2,-6.83 -0.024,-0.0483 -0.0441,-0.0985 -0.06,-0.15 l -0.07,-0.13 c -0.41,-0.79 -1,-2 -1.67,-3.5 -0.52,-1.33 -1.13,-3 -1.78,-4.87 -1.86,-6 -3.46,-14.91 -2.57,-27.45 0.2711,-2.63265 -1.39874,-5.07612 -3.95,-5.78 -2.66413,-0.634 -5.35445,0.94491 -6.1,3.58 -5.75,20.75 -14.88,29.17 -17.88,32 l -0.1,0.09 c -1.88861,1.74875 -2.37941,4.54222 -1.2,6.83 l 0.06,0.15 0.07,0.13 c 0.41,0.79 1,2 1.67,3.5 0.52,1.33 1.13,3 1.78,4.87 1.03739,3.39248 1.77686,6.86899 2.21,10.39 -14.61,27.19 -25.3,36.68 -38.61,36.76 -13.31,-0.08 -24,-9.57 -38.63,-36.79 0.43314,-3.52101 1.17261,-6.99752 2.21,-10.39 0.65,-1.87 1.26,-3.54 1.78,-4.87 0.66,-1.53 1.26,-2.71 1.67,-3.5 l 0.07,-0.13 0.06,-0.15 c 1.17941,-2.28778 0.68861,-5.08125 -1.2,-6.83 l -0.1,-0.09 c -3,-2.78 -12.13,-11.2 -17.88,-32 -0.73697,-2.64316 -3.4299,-4.23243 -6.1,-3.6 -2.55126,0.70388 -4.2211,3.14735 -3.95,5.78 0.9,12.54 -0.71,21.47 -2.57,27.45 -0.65,1.86 -1.26,3.54 -1.78,4.87 -0.66,1.53 -1.26,2.71 -1.67,3.5 l -0.07,0.13 c -0.0159,0.0515 -0.036,0.1017 -0.06,0.15 -1.17585,2.28832 -0.68545,5.07954 1.2,6.83 l 0.1,0.09 c 4.48588,4.13415 8.20932,9.02539 11,14.45 -2.38,28.62 -9.08,42.38 -17.82,45.54 -11,3.95 -24.9,-2.19 -35.18,-8.54 -0.62803,-4.14945 -0.76565,-8.35839 -0.41,-12.54 0.14,-2 0.3,-3.74 0.46,-5.17 0.24,-1.65 0.51,-2.94 0.71,-3.82 v -0.3 c 0.5455,-2.51121 -0.65371,-5.07743 -2.93,-6.27 l -0.12,-0.06 c -3.61,-1.87 -14.6,-7.56 -25.52,-26 -1.33364,-2.28378 -4.20103,-3.15533 -6.58,-2 -1.29616,0.62518 -2.27672,1.75772 -2.71,3.13 l 48.86,141.68 c 0.55501,1.61837 1.83528,2.88384 3.46,3.42 9.84,3.22 46.57,14.15 93.7,14.15 m -69.91,-49 c 10.57578,0 15.87023,12.78563 8.39293,20.26293 -7.4773,7.4773 -20.26293,2.18285 -20.26293,-8.39293 -0.0221,-6.57285 5.29711,-11.9145 11.87,-11.92 z m 139.82,0 c 10.57809,0.0357 15.82822,12.84408 8.32093,20.29463 -7.50728,7.45056 -20.27543,2.10342 -20.23093,-8.47463 0.006,-6.56897 5.34105,-11.88659 11.91,-11.87 z m -93.22,5.51 c 10.57818,-0.009 15.88231,12.77724 8.40647,20.25939 -7.47585,7.48215 -20.26647,2.1888 -20.26647,-8.38939 -0.0166,-6.56667 5.29333,-11.90345 11.86,-11.92 z m 46.61,0 c 10.57578,0 15.87023,12.78563 8.39293,20.26293 -7.4773,7.4773 -20.26293,2.18285 -20.26293,-8.39293 -0.0221,-6.57285 5.29711,-11.9145 11.87,-11.92 z m -245.09,101.24 11.16,-7.69 c 2.46,3.56 4.42,7.77 4.68,10.6 l 8.23,-1 -13.95,-20.24 c -2.44472,3.30901 -5.47468,6.1424 -8.94,8.36 l -14.81,10.2 c -3.30423,2.45747 -7.03322,4.28468 -11,5.39 l 6.34,9.21 c 2.44768,-3.30992 5.4811,-6.14337 8.95,-8.36 l 4.88,-3.36 c 2.63,3.82 4,6.77 4.22,9.48 l 8.1,-1.14 z m 43.52,22.88 c -8.81,-9.05 -22.66,-9.23 -31.26,-0.85 -7.9,7.7 -9.43,21.06 0.14,30.88 8.92,9.16 22.47,9.84 31.7,0.86 9.23,-8.98 8.02,-22.06 -0.58,-30.89 m -6.65,26.34 c -5.65,5.51 -13.86,6.24 -19.22,0.73 -6.47,-6.64 -4.77,-16.86 1.8,-23.26 6.24,-6.09 14.18,-5.69 18.93,-0.81 6.11,6.27 5.21,16.8 -1.51,23.34 m 46.67,7.06 c -10.49,-7 -24.07,-4.35 -30.76,5.63 -6.13,9.16 -4.87,22.53 6.52,30.17 10.61,7.11 24,5 31.18,-5.72 7.18,-10.72 3.31,-23.23 -6.94,-30.08 M 260.68,634 c -4.39,6.55 -12.27,9 -18.65,4.69 -7.7,-5.16 -8.15,-15.51 -3,-23.13 4.85,-7.23 12.7,-8.49 18.35,-4.7 7.23,4.88 8.52,15.36 3.3,23.14 m 26.61,-11 -5.85,7 0.05,0.13 c 4.69072,-0.34683 9.39427,0.47431 13.69,2.39 L 285.45,655 c -1.47503,3.84461 -3.66725,7.37389 -6.46,10.4 l 10.26,4.45 c 0.31968,-4.11003 1.39074,-8.12653 3.16,-11.85 l 9.73,-22.47 c 3.53795,1.3959 6.62141,3.74223 8.91,6.78 l 6.57,-6.21 z m 135.04,62.07 -2,-24.34 c -0.48289,-4.08746 -0.21516,-8.22874 0.79,-12.22 l -11.14,0.93 c 1.65124,3.76973 2.60015,7.80934 2.8,11.92 l 1.5,17.93 c 0.48289,4.08746 0.21516,8.22874 -0.79,12.22 l 21.62,-1.81 3.11,-9.83 -0.11,-0.09 c -3.42,2.09 -10.57,4.45 -15.78,5.29 m 39.3,-5.81 -5.4,-23.83 c -1.04747,-3.98005 -1.35925,-8.11793 -0.92,-12.21 l -10.9,2.47 c 2.15473,3.50403 3.65572,7.37 4.43,11.41 l 4,17.55 c 1.04412,3.98066 1.35251,8.11854 0.91,12.21 l 21.16,-4.8 1.72,-10.16 -0.13,-0.08 c -3.09,2.55 -9.84,5.87 -14.87,7.44 m 77.63,-34.5 c -1.78956,4.39134 -5.18222,7.93773 -9.49,9.92 -7.17,3.52 -15.31,0.15 -19.18,-7.76 -4,-8.15 -1.37,-16.73 6,-20.33 3.59225,-1.73105 7.59156,-2.44027 11.56,-2.05 l 0.12,-0.12 -3.38,-6.9 c -3.31563,0.50826 -6.52919,1.54119 -9.52,3.06 -12,5.87 -18,18.3 -11.94,30.7 5.21,10.65 16.84,15.06 28.37,9.41 4.25802,-1.956 7.93731,-4.98074 10.68,-8.78 l -3.06,-7.17 z m 35.15,-22.89 c -1.86,3.53 -6.82,9.19 -10.87,12.56 L 549.42,614.5 c -2.49201,-3.27568 -4.36289,-6.98015 -5.52,-10.93 l -9.13,6.43 c 3.34238,2.40137 6.21365,5.39807 8.47,8.84 l 10.4,14.67 c 2.48819,3.27807 4.3587,6.98181 5.52,10.93 l 17.71,-12.54 -2.32,-10 z m 19.1,-45.42 c -2.96845,-2.84829 -5.38859,-6.2175 -7.14,-9.94 l -8,7.79 c 3.67097,1.85991 6.96904,4.37838 9.73,7.43 l 10.37,10.68 c 3.60525,3.57411 3.5144,9.42946 -0.2,12.89 -3.43,3.34 -8,3.3 -12.83,-1.68 l -9.65,-10 c -2.96845,-2.84829 -5.38859,-6.2175 -7.14,-9.94 l -8,7.79 c 3.67097,1.85991 6.96904,4.37838 9.73,7.43 l 9.58,9.86 c 7.64,7.88 14.91,8.79 20.82,3.05 2.74,-2.66 4.58,-6.53 5.57,-11.79 1.03668,0.96418 1.93819,2.06415 2.68,3.27 l 6.77,-6.56 c -3.67097,-1.85991 -6.96904,-4.37838 -9.73,-7.43 z M 341,642.52 326.81,638.66 c 0.27116,4.10738 -0.217,8.22956 -1.44,12.16 l -4.72,17.37 c -0.94591,4.00917 -2.6167,7.81166 -4.93,11.22 L 330,683.3 c 8.21,2.23 16.35,-0.58 18.24,-7.49 1.2,-4.43 -0.38,-8.07 -4.43,-12.22 3.8,-1.21 6.59,-3.6 7.5,-6.93 C 353,650.59 349,644.69 341,642.52 m -0.33,31.27 c -1.09,4 -5.65,6.43 -11.62,4.81 l -3.15,-0.86 4.31,-15.74 c 8.91,2.45 11.69,7.39 10.49,11.79 z M 343.84,655 c -0.92,3.38 -6,5 -12.58,3.21 l 3.53,-13 3.14,0.86 c 4.23,1.14 6.94,5.13 5.91,8.93 M 637.18,550 c -3.67,-2.76 -7.63,-2.64 -13,-0.4 0.28,-4 -0.92,-7.46 -3.68,-9.54 -5,-3.77 -12,-2.23 -16.95,4.37 l -8.83,11.76 c 3.92594,1.25773 7.58691,3.22719 10.8,5.81 l 14.38,10.8 c 3.38027,2.3543 6.2988,5.31012 8.61,8.72 l 8.9,-11.84 c 5.1,-6.81 5.5,-15.41 -0.23,-19.68 m -33.42,1.22 2,-2.61 c 2.63,-3.5 7.34,-4.54 10.47,-2.19 2.79,2.1 2.43,7.42 -1.68,12.88 z m 28.92,17.65 -2,2.6 -13,-9.78 c 5.55,-7.39 11.16,-8.14 14.81,-5.4 3.34,2.46 3.91,7.6 0.19,12.55 z m -245.36,90.69 c -1.26761,-3.47934 -2.27047,-7.04951 -3,-10.68 l -6.63,-0.51 c -1.34235,3.48544 -2.97126,6.85363 -4.87,10.07 L 361,679.51 c -1.74411,3.39299 -3.97057,6.51542 -6.61,9.27 v 0.15 l 11.51,0.89 c -0.0297,-0.46619 -0.0297,-0.93381 0,-1.4 0.14,-1.8 0.92,-3.86 2.61,-7 l 0.23,-0.43 18.14,1.39 0.1,0.31 c 1.21,3.72 1.63,5.72 1.49,7.51 -0.0274,0.46922 -0.11472,0.933 -0.26,1.38 l 11.67,0.9 v -0.15 c -2.16657,-3.04738 -3.82787,-6.424 -4.92,-10 z M 371.9,675 l 7.81,-14.66 h 0.31 l 4.9,15.62 z"
     class="cls-2"
     id="path4"
     sodipodi:nodetypes="cccsccccccccccccccccccccccccccccccccccccccccccccccccccccccccccccccccccccccccccccsccccsccccsccccsccccccccccccccccccccscccccccccscccccccccccccccccccccccccccccccccccccccccccccccccccccccccccccccccccccccccccccccccccccccccccccccccccccccccccccccccccccccccccccccccccccccccccccccccccc" />
  <path
     d="M656 313.88a5.23 5.23 0 0 1 6.55 3.41 5.15 5.15 0 0 1-3.41 6.55 5 5 0 0 1-3.95-.33 5.1 5.1 0 0 1-2.6-3.08 5.29 5.29 0 0 1 3.41-6.55m-1 24.65 11.85 9.15c2.47 1.93 3.78 2.37 5.45 2 1.86-.37 2.87-2 2.42-4.3-.4-2-1.92-3.31-3.77-2.94a4.4 4.4 0 0 0-1.6.71l-2.43-6.33a8.2 8.2 0 0 1 2.88-1.18 7.47 7.47 0 0 1 6.27 1.67 11.4 11.4 0 0 1 3.88 7c1.26 6.39-1.09 10.8-5.68 11.71-3.34.67-6-.36-9.87-3.29l-6.28-4.73 2.15 10.89-5.38 1.07-4.07-20.58Zm17 58.13a13.87 13.87 0 0 1-10.38-3.3 14.79 14.79 0 0 1-1.06-19.87c2.42-2.68 5.75-4.14 10-4.36s7.74.88 10.42 3.3a14.8 14.8 0 0 1 1 19.88 13.9 13.9 0 0 1-9.98 4.35m-9-13.34a6.21 6.21 0 0 0 2.49 4.9 9.08 9.08 0 0 0 6.12 1.56 9.25 9.25 0 0 0 6-2.19 6.29 6.29 0 0 0 1.94-5.12 6.15 6.15 0 0 0-2.45-4.86A9.1 9.1 0 0 0 671 376a8.94 8.94 0 0 0-5.92 2.23 6.07 6.07 0 0 0-2.02 5.09Zm-1 25.25 9 11.94c1.88 2.53 3 3.29 4.72 3.41 1.89.13 3.3-1.17 3.46-3.5.15-2-1-3.7-2.86-3.83a4.15 4.15 0 0 0-1.73.26l-.59-6.75a8.1 8.1 0 0 1 3.08-.37 7.49 7.49 0 0 1 5.62 3.25 11.4 11.4 0 0 1 1.89 7.81c-.46 6.5-3.89 10.13-8.55 9.8-3.39-.24-5.71-1.95-8.66-5.78l-4.78-6.31-.78 11.07-5.47-.39 1.47-20.92Zm-3.26 33.82 7.44 13c1.53 2.74 2.57 3.64 4.24 4 1.85.37 3.42-.74 3.88-3 .4-2-.5-3.79-2.35-4.17a4.2 4.2 0 0 0-1.75 0l.19-6.78a8.4 8.4 0 0 1 3.11 0 7.51 7.51 0 0 1 5.15 4 11.45 11.45 0 0 1 .87 8c-1.28 6.39-5.15 9.55-9.73 8.62-3.33-.67-5.41-2.66-7.84-6.84l-3.95-6.91-2.19 10.88-5.38-1.08 4.14-20.56Zm.06 35.07a5.23 5.23 0 0 1 3.38 6.56 5.15 5.15 0 0 1-6.57 3.38 5.22 5.22 0 0 1-3.37-6.56 4.88 4.88 0 0 1 2.59-3 4.93 4.93 0 0 1 3.97-.38m-503.71 4.33L129 488.88l-1.77-6.53 17-12.9-21.23-2.54-1.78-6.53 26.12-7.09 1.6 5.89-14.29 3.88 4.26.21 11.56 1.55 1.48 5.45-9.19 7.18-3.57 2.33 14.29-3.88ZM146 443.82l-26.73 4.27-1-6.19 26.73-4.27Zm-2.52-15.88-27 1.69-.39-6.25 14.71-10.84a19 19 0 0 1 2-1.28l-17.44 1.08-.38-6.09 27-1.69.39 6.25-14.77 10.84a19 19 0 0 1-2.06 1.29l17.56-1.09ZM120.5 396l-5.48-.3 1.19-22.22 5.48.29-.43 8 21.53 1.15-.33 6.25-21.53-1.17Zm23.6-28.46-26.7-4.41 3.22-19.49 5.41.89-2.19 13.31 4.84.8 2-12.24 5.26.87-2 12.24 5.76.95 2.22-13.46 5.42.9Zm4.97-27.67-26-7.47 2.41-8.4c1.24-4.34 3.36-7.52 6.32-9.56s6.61-2.41 10.84-1.2 7.09 3.48 8.52 6.75 1.58 7.13.33 11.48Zm-2.86-10.52c1.42-4.94-.51-8.71-5.31-10.09s-8.43.8-9.85 5.74l-.84 2.94 15.16 4.35Z"
     class="cls-1"
     id="path5" />
</svg>
