<?xml version="1.0" encoding="UTF-8" standalone="no"?>
<svg
   id="Layer_1"
   data-name="Layer 1"
   viewBox="0 0 800 800"
   version="1.1"
   sodipodi:docname="colorado-rapids.svg"
   inkscape:version="1.4.2 (f4327f4, 2025-05-13)"
   xmlns:inkscape="http://www.inkscape.org/namespaces/inkscape"
   xmlns:sodipodi="http://sodipodi.sourceforge.net/DTD/sodipodi-0.dtd"
   xmlns="http://www.w3.org/2000/svg"
   xmlns:svg="http://www.w3.org/2000/svg">
  <sodipodi:namedview
     id="namedview16"
     pagecolor="#ffffff"
     bordercolor="#000000"
     borderopacity="0.25"
     inkscape:showpageshadow="2"
     inkscape:pageopacity="0.0"
     inkscape:pagecheckerboard="0"
     inkscape:deskcolor="#d1d1d1"
     inkscape:zoom="1.06375"
     inkscape:cx="400.47004"
     inkscape:cy="400"
     inkscape:window-width="1920"
     inkscape:window-height="1111"
     inkscape:window-x="-9"
     inkscape:window-y="-9"
     inkscape:window-maximized="1"
     inkscape:current-layer="Layer_1" />
  <defs
     id="defs1">
    <style
       id="style1">.cls-1{fill:#fff}.cls-2{fill:#c1c5c8}.cls-3{fill:#8ab7e9}.cls-4{fill:#323e48}.cls-5{fill:#8a2432}</style>
  </defs>
  <g
     id="COL-Logo">
    <path
       d="M526.33 167.15 400 67.84l-126.33 99.31L400 81.38zM332.07 638.97 400 720.51l67.92-81.54-67.92 63.3zM463.46 426.7 400 361.35l-63.46 65.35L325 416.47l-56.34 58.14q4 6.76 8.2 13.26l53.38-63.12L341 435.69l59-69.88 59 69.88 10.79-10.94 53.37 63.12c2.78-4.34 5.5-8.75 8.2-13.26L475 416.47Z"
       class="cls-1"
       id="path1" />
    <path
       d="m 400,510 c 21.75889,-0.008 39.84861,-16.75617 41.53,-38.45 l -2.51,-1.4 1.89,-9.51 C 438.38681,447.00672 429.24799,435.52135 416.53,430 L 400,442 383.48,430 c -12.72281,5.52037 -21.86318,17.01145 -24.38,30.65 l 1.89,9.49 -2.51,1.4 c 1.67614,21.69395 19.7614,38.44633 41.52,38.46 m 0,-44.5 16.54,12 -6.32,19.45 h -20.44 l -6.31,-19.45 z m -23.68,-257.93 -12.55,1 m 195.83,32.31 -12.55,-5.36 c -18.77662,-8.10301 -19.31201,74.27216 0,82.52 l 12.55,5.36 c 6.71,2.87 12.21,-0.29 12.21,-7 v -58.11 c 0,-6.72 -5.5,-14.57 -12.21,-17.41 m 1.2,69.12 c 0,2.14 -1.76,3.16 -3.91,2.23 l -7.12,-3 c -2.2152,-1.01237 -3.71057,-3.1426 -3.91,-5.57 v -54.72 c 0,-2.16 1.76,-3.15 3.91,-2.25 l 7.12,3.06 c 2.22229,1.00384 3.72101,3.13884 3.91,5.57 z M 228.19,258.36 v 58.11 c 0,6.71 5.49,9.84 12.21,6.93 l 9.08,-3.94 c 6.71,-2.89 -0.51964,-9.892 -2.73,-8.86 l -3.67,1.59 c -2.14,0.93 -14.89,-60.55 -14.89,-53.83 z m 191.39,-50.55 -22.95,-0.93 V 208 l 1.66,1.12 c 0,0 28.07435,-0.97211 21.29,-1.31 z m 46.57,5.06 -9.09,-1.45 c -6.71,-1.07 15.97485,2.70537 9.09,1.45 z M 423.54,317.8 v -0.57 h -9.78 v 0.57 c 0.73,0 1.33,0.38 1.33,0.85 v 22.11 c 0,0.45 -0.6,0.85 -1.33,0.85 v 0.57 h 9.78 v -0.57 c -0.74,0 -1.33,-0.4 -1.33,-0.85 v -22.11 c 0,-0.47 0.59,-0.85 1.33,-0.85 m 12.92,23.81 v 0.57 h 16 c 6.89,0 12.48,-4.2 12.48,-12.47 0,-8.27 -5.59,-12.48 -12.48,-12.48 h -16 v 0.57 c 0.74,0 1.33,0.38 1.33,0.85 v 22.11 c 0,0.45 -0.59,0.85 -1.33,0.85 m 8.45,-18.78 H 451 c 3.81,0 6.88,1.85 6.88,6.88 0,5.03 -3.07,6.87 -6.88,6.87 h -6.07 z m -50.15,10.79 c 4.41461,-0.15424 7.91368,-3.7777 7.91368,-8.195 0,-4.4173 -3.49907,-8.04076 -7.91368,-8.195 h -17.85 v 0.57 c 0.73,0 1.33,0.38 1.33,0.85 v 22.11 c 0,0.45 -0.6,0.85 -1.33,0.85 v 0.57 h 9.78 v -0.57 c -0.73,0 -1.33,-0.4 -1.33,-0.85 v -7.14 z m -9.4,-10.79 h 7.87 c 3.68155,-0.22865 3.68155,5.41865 0,5.19 h -7.87 z m -59.08,2.58 c 1e-5,-4.52551 -3.6745,-8.19106 -8.2,-8.18 H 299 v 0.57 c 0.74,0 1.33,0.38 1.33,0.85 v 22.11 c 0,0.45 -0.59,0.85 -1.33,0.85 v 0.57 h 9.78 v -0.57 c -0.74,0 -1.33,-0.4 -1.33,-0.85 v -7.14 h 4.78 l 5,7.14 c 0.32,0.45 0,0.85 -0.73,0.85 v 0.57 h 9.77 v -0.57 c -0.72948,-0.008 -1.42364,-0.31537 -1.92,-0.85 l -5.1,-7.21 c 4.03742,-0.59505 7.02899,-4.05896 7.03,-8.14 m -9.72,2.59 h -9.14 v -5.19 h 9.14 c 3.68155,-0.22865 3.68155,5.41865 0,5.19 m 41.16,13.61 v 0.57 h 8.64 v -0.64 c -0.47367,-0.0796 -0.88759,-0.36534 -1.13,-0.78 l -8.42,-22.11 c -0.19,-0.47 0.26,-0.85 1,-0.85 v -0.57 h -13.25 v 0.57 c 0.74,0 1.19,0.38 1,0.85 l -8.43,22.11 c -0.23599,0.41615 -0.64783,0.70297 -1.12,0.78 v 0.64 h 8.64 v -0.57 c -0.74,0 -1.19,-0.4 -1,-0.85 l 1.59,-4.18 h 11.89 l 1.59,4.18 c 0.19,0.45 -0.27,0.85 -1,0.85 m -11.11,-8.61 4.57,-12 4.58,12 z m 130.49,-0.59 -3.5,8.44 0.57,0.15 c 0,0 0.45,-0.62 0.94,-0.62 1.46,0 3.66,2 12.8,2 6.26,0 13.12,-1.64 13.12,-8.44 0,-10.58 -19.11,-5.91 -19.11,-9.66 0,-1.73 3,-2.47 4.94,-2.47 6.7,0 10.5,1.69 9.9,3 l 0.57,0.28 3.27,-6.64 -0.51,-0.19 c -0.26407,0.45738 -0.75186,0.73939 -1.28,0.74 -0.91,0 -6.2,-2 -11.95,-2 -6.2,0 -12.07,2.8 -12.07,7.33 0,10.58 19.12,5.39 19.12,9.66 0,2 -2,2.84 -6,2.84 -9.13,0 -10.86,-2.92 -10.32,-4.17 z"
       class="cls-1"
       id="path2"
       sodipodi:nodetypes="cccccccccccccccccccccscsscscccscccsssccccsccccccccccccccssccccsscccsssccssccssscccscccssccccscccccccccccssccccscccccccccccccccccccccccccccccccccccccccccccssssscccccsssscc" />
    <path
       d="M400 0 132.22 225.74C132.22 412.77 249.08 654 400 800c150.91-146 267.78-387.23 267.78-574.26Zm0 775.71c-144.69-146-249-369.34-251.78-542.88C159 223.75 381.65 36.05 400 20.56c18.36 15.49 241 203.19 251.78 212.27C649 406.37 544.7 629.71 400 775.71"
       class="cls-2"
       id="path3" />
    <path
       d="M400 101.59 181 244.91c9 205.7 147 369.55 219 441.59 72-72 210-235.89 219-441.59Zm0 565.79c-61.82-62.1-175.66-197.89-201.57-368.75a470 470 0 0 1-4.93-50.14L400 113.14l206.51 135.35a476 476 0 0 1-4.93 50.14C575.66 469.49 461.81 605.28 400 667.38"
       class="cls-2"
       id="path4" />
    <path
       d="M385.84 567.69c-2.5 0-4.53 1.37-4.53 3s2 3.06 4.53 3.06 4.52-1.35 4.52-3.06-2.02-3-4.52-3"
       class="cls-2"
       id="path5" />
    <path
       d="m330.2 424.75-53.38 63.12c37.57 58.66 81.37 102 123.17 132.33V548a63.11 63.11 0 0 1 0-126.21v-55.98l-59 69.88Zm54.47 156.79c6.78 0 7.08-5.72 7.08-5.72A16.7 16.7 0 0 1 384 578c-4.53 0-8-3-8-7.24 0-4.88 5-7.21 9.83-7.21 7.69 0 11.42 4 11.42 11 0 7.14-6.2 11-12.59 11a22.1 22.1 0 0 1-7.52-1.28 1.38 1.38 0 0 0-.93.45l-.51-.22 3.25-5.5.42.19c-.2 1 .92 2.35 5.3 2.35"
       class="cls-2"
       id="path6" />
    <path
       d="M400 56.29 163.52 238.12C173.18 443 318.48 653 400 734.41 481.52 653 626.81 443 636.48 238.12Zm0 11.55 126.34 99.31L400 81.38l-126.33 85.77Zm0 33.75 219 143.32c-9 205.7-147 369.55-219 441.59-72-72-210-235.89-218.95-441.59Zm0 618.92L332.07 639 400 702.27 467.92 639Z"
       class="cls-3"
       id="path7" />
    <path
       d="M414.16 581.3c2.49 0 4.52-1.37 4.52-3.06s-2-3-4.52-3-4.53 1.35-4.53 3 2.03 3.06 4.53 3.06"
       class="cls-3"
       id="path8" />
    <path
       d="M463.1 484.86A63.11 63.11 0 0 1 400 548v72.2c41.82-30.33 85.62-73.67 123.18-132.33l-53.38-63.12-10.8 10.94-59-69.88v55.93a63.11 63.11 0 0 1 63.1 63.12m-47.78 82.57c-6.77 0-7.07 5.71-7.07 5.71A16.8 16.8 0 0 1 416 571c4.54 0 8 3 8 7.21 0 4.89-5 7.24-9.82 7.24-7.68 0-11.43-4.06-11.43-11 0-7.17 6.21-11 12.59-11a22.1 22.1 0 0 1 7.52 1.28 1.42 1.42 0 0 0 .94-.45l.5.22-3.25 5.5-.41-.21c.18-.99-.93-2.36-5.32-2.36"
       class="cls-3"
       id="path9" />
    <path
       d="M454.72 478.38A54.72 54.72 0 1 0 400 533.13a54.72 54.72 0 0 0 54.72-54.75m-96.25-6.85-8 4.46v-1.36a49.27 49.27 0 0 1 6.5-24.55l2.09 10.56A41.65 41.65 0 0 1 383.47 430l.75-2.3a49.9 49.9 0 0 1 31.56 0l.75 2.3a41.67 41.67 0 0 1 24.37 30.63l2.1-10.55a49.3 49.3 0 0 1 6.51 24.55v1.36l-8-4.46a41.65 41.65 0 0 1-83 0Z"
       class="cls-3"
       id="path10" />
    <path
       d="M400 548a63.11 63.11 0 1 0-63.09-63.09A63.11 63.11 0 0 0 400 548m0-124.29a54.74 54.74 0 1 1-54.71 54.72A54.72 54.72 0 0 1 400 423.66Z"
       class="cls-4"
       id="path11" />
    <path
       d="M531.37 474.61c-2.7 4.51-5.42 8.92-8.2 13.26-37.56 58.66-81.36 102-123.18 132.33-41.8-30.33-85.6-73.67-123.17-132.33q-4.15-6.51-8.2-13.26c-29.11-48.46-53.91-106.72-70.2-176C224.33 469.49 338.17 605.28 400 667.38c61.82-62.1 175.67-197.89 201.59-368.75-16.3 69.26-41.1 127.52-70.22 175.98"
       class="cls-4"
       id="path12" />
    <path
       d="M400 20.56c-18.35 15.49-241 203.19-251.79 212.27C151 406.37 255.3 629.71 400 775.71c144.71-146 249-369.34 251.78-542.88C641 223.75 418.35 36.05 400 20.56M163.52 238.12 400 56.29l236.48 181.83C626.81 443 481.52 653 400 734.41 318.48 653 173.18 443 163.52 238.12"
       class="cls-5"
       id="path13" />
    <path
       d="M316.56 322.83h-9.14V328h9.14a2.6 2.6 0 1 0 0-5.19Zm240.33-73.08-7.12-3.06c-2.15-.9-3.91.09-3.91 2.25v54.65a6.73 6.73 0 0 0 3.91 5.57l7.12 3c2.15.93 3.91-.09 3.91-2.23v-54.61a6.68 6.68 0 0 0-3.91-5.57m-263.4-18.1-7.12 2.09a5.65 5.65 0 0 0-3.9 5v54.65a2.82 2.82 0 0 0 3.9 2.75l7.12-2.06a5.7 5.7 0 0 0 3.91-5.08v-54.58a2.83 2.83 0 0 0-3.91-2.77m218.33 1.59-11-2.94v62.45l11 3a2.91 2.91 0 0 0 3.9-2.87V238.2a5.48 5.48 0 0 0-3.9-4.96m-118.59 89.59h-7.87V328h7.87a2.6 2.6 0 1 0 0-5.19Z"
       class="cls-5"
       id="path14" />
    <path
       d="M 400,113.14 193.49,248.49 c 0.74571,16.78946 2.39141,33.52683 4.93,50.14 16.29,69.26 41.09,127.52 70.2,176 L 325,416.47 336.58,426.7 400,361.35 463.47,426.7 475,416.47 l 56.34,58.14 c 29.12,-48.46 53.92,-106.72 70.21,-176 2.52731,-16.61458 4.17294,-33.35136 4.93,-50.14 z M 228.17,316.49 V 258.36 Z M 419.58,207.79 C 0,0 0,0 419.58,207.79 Z m 37.48,3.65 c 0,0 -6.71,-1.07 0,0 z"
       class="cls-5"
       id="path15"
       sodipodi:nodetypes="cccccccccccccssscccc" />
    <path
       d="m 416.53,477.48 -16.53,-12 -16.53,12 6.31,19.45 h 20.43 z m 0,-47.48 -0.75,-2.3 c -10.24296,-3.41438 -21.31704,-3.41438 -31.56,0 L 383.47,430 400,442 Z M 357,450.08 c -4.2747,7.47475 -6.51582,15.93927 -6.5,24.55 v 1.36 l 8,-4.46 2.51,-1.4 -1.89,-9.49 z m 83.9,10.54 -1.9,9.51 2.51,1.4 8,4.46 v -1.36 c 0.0114,-8.61145 -2.23311,-17.07568 -6.51,-24.55 z m -55.06,102.89 c -4.83,0 -9.83,2.33 -9.83,7.21 0,4.23 3.48,7.24 8,7.24 2.71225,-0.0748 5.36544,-0.8093 7.73,-2.14 0,0 -0.3,5.72 -7.08,5.72 -4.38,0 -5.5,-1.35 -5.29,-2.42 l -0.42,-0.19 -3.25,5.5 0.51,0.22 c 0.24004,-0.26476 0.57343,-0.42608 0.93,-0.45 2.41353,0.85932 4.95809,1.29244 7.52,1.28 6.39,0 12.59,-3.84 12.59,-11 0.01,-6.93 -3.72,-10.97 -11.41,-10.97 m 0,10.27 c -2.5,0 -4.53,-1.35 -4.53,-3.06 0,-1.71 2,-3 4.53,-3 2.53,0 4.52,1.37 4.52,3 0,1.63 -2.02,3.06 -4.52,3.06 m 35.16,-3.72 3.25,-5.5 -0.5,-0.22 c -0.24498,0.26371 -0.58096,0.42456 -0.94,0.45 -2.41353,-0.85932 -4.95809,-1.29244 -7.52,-1.28 -6.38,0 -12.59,3.82 -12.59,11 0,6.92 3.75,11 11.43,11 4.82,0 9.82,-2.35 9.82,-7.24 0,-4.19 -3.47,-7.21 -8,-7.21 -2.70573,0.0712 -5.35421,0.79505 -7.72,2.11 0,0 0.3,-5.71 7.07,-5.71 4.39,0 5.5,1.37 5.3,2.42 z m -6.87,5.15 c 2.49,0 4.52,1.35 4.52,3 0,1.65 -2,3.06 -4.52,3.06 -2.52,0 -4.53,-1.37 -4.53,-3.06 0,-1.69 2.06,-3 4.56,-3 z"
       class="cls-5"
       id="path16"
       sodipodi:nodetypes="cccccccccccccccccccccccccccsccscccccccccsssccccccsssccscccssscc" />
  </g>
</svg>
