<?xml version="1.0" encoding="UTF-8" standalone="no"?>
<svg
   id="Layer_1"
   data-name="Layer 1"
   viewBox="0 0 800 800"
   version="1.1"
   sodipodi:docname="fc-dallas.svg"
   inkscape:version="1.4.2 (f4327f4, 2025-05-13)"
   xmlns:inkscape="http://www.inkscape.org/namespaces/inkscape"
   xmlns:sodipodi="http://sodipodi.sourceforge.net/DTD/sodipodi-0.dtd"
   xmlns="http://www.w3.org/2000/svg"
   xmlns:svg="http://www.w3.org/2000/svg">
  <sodipodi:namedview
     id="namedview9"
     pagecolor="#ffffff"
     bordercolor="#000000"
     borderopacity="0.25"
     inkscape:showpageshadow="2"
     inkscape:pageopacity="0.0"
     inkscape:pagecheckerboard="0"
     inkscape:deskcolor="#d1d1d1"
     inkscape:zoom="1.06375"
     inkscape:cx="400.47004"
     inkscape:cy="400"
     inkscape:window-width="1920"
     inkscape:window-height="1111"
     inkscape:window-x="-9"
     inkscape:window-y="-9"
     inkscape:window-maximized="1"
     inkscape:current-layer="DAL-Logo" />
  <defs
     id="defs1">
    <clipPath
       id="clip-path">
      <path
         d="M52.77 54.18h694.46v691.64H52.77z"
         style="fill:none"
         id="path1" />
    </clipPath>
    <style
       id="style1">.cls-2{clip-path:url(#clip-path)}.cls-3{fill:#fff}.cls-5{fill:#c6093b}.cls-6{fill:#001f5b}</style>
  </defs>
  <g
     class="cls-2"
     clip-path="url(#clip-path)"
     id="g9">
    <g
       id="DAL-Logo"
       class="cls-2"
       clip-path="url(#clip-path)">
      <path
         d="M736.38 109.18C712.82 100.64 595.83 62.25 400 62.25S87.17 100.64 63.61 109.18c-1.81 24.14-2.77 47.56-2.77 70 0 347.15 207.33 497.35 339.16 557.73 131.84-60.38 339.17-210.58 339.17-557.73 0-22.47-1-45.89-2.78-70M712.12 315C683.62 473.87 609.21 576.41 496 654.29c-29.42 20.25-61.45 38.84-96 56.28-41.23-20.84-78.88-43.27-112.78-68.22 26.78-93.05 88.41-133.91 88.41-133.91-36.85-42.47 7.89-73.55 7.89-73.55-7.95 16.55-9.74 41 9.15 56.87s39-2 53.4-1.35 33.18 11.39 33.18 11.39c15.53-4.95 18.42-17.56 18.42-17.56s-2.36-5.77-7.56-7.65a13.38 13.38 0 0 0-11.33 5.73c-1.16-10.32 12.08-17.54 12.08-17.54a28 28 0 0 1 21.53 10.32l20.63.37c3.83-10.31 10.92-11.38 10.92-11.38l-35.71-37.51C488.89 405.34 510 388.9 510 388.9a34.8 34.8 0 0 0-6.36-11.73S530 375.9 549.43 374c47.19-4.64 51.3-64.14 162.71-59-107.14-16.59-127.09 36.49-177.62 40.52-26 2.08-48.12 1.78-48.12 1.78s-14.71-11.1-29.25-18.3l-69.81-.47s-19.54 7.09-33.16 20.78l-81.6-.73c-73.25-2.69-94.75-74.6-184.95-44.57 93.94-14.23 91.06 57.84 183.43 66.3l101.07 5.33s8.43-4.44 3.76-18c5 1.51 21.5 24.31 1.64 43.56-6.74 7.15-28.42 24.43-87.4 35.73a78.6 78.6 0 0 1 25.62-34.18c-7.49-.7-15.21-1.47-22.81-2.23a560 560 0 0 0-124.37 111.07C129.76 464.78 102.44 397.07 87.66 314 77.55 257.07 73.3 193 75.24 120.2c0 0 121.67-46.45 324.76-46.45s324.76 46.45 324.76 46.45c1.94 73.22-2.36 137.67-12.64 194.81M453.74 363c-5.26-4.71-6.43-12.15 2-16.33-3.06 8.83 15.3 10.42 22.84 21.86 9.55 14.58-4.05 22.67-3.28 33.1-5.28-15.11-19.1-15.22-25.41-20.64s-6.32-10.86-3.47-14.17c2.35 6.82 13.8 2 7.3-3.81m15.36 64.24c-27.58-14.86-64.35-11.71-64.35-11.71A55.63 55.63 0 0 1 424.82 394c19.87 5.26 31.83 10 44.27 33.24"
         class="cls-3"
         id="path2" />
      <path
         d="m 404.7,598.65 -1.86,-30.44 -21.28,30.44 h -35.41 l 23.29,20.27 -18.18,31.52 33.96,-19.56 23.06,19.23 -2.26,-31.42 34.22,-20.04 z"
         class="cls-3"
         id="path3"
         sodipodi:nodetypes="ccccccccccc" />
      <path
         d="M379.43 286h-19c-10.32 0-15.56.87-15.56 7.9v2.47c0 5.12 2.31 7.9 15.15 7.9h12.43c5.21 0 7.74-.73 9.9-2.16v3.4c0 2.21-1.91 3.39-6.49 3.39h-31.3v6.1H376c14.24 0 19-2.52 19-11.15v-7.95c0-7.38-5.15-9.95-15.55-9.95m-3.89 12.39h-11.63c-5.39 0-6.78-.73-6.78-3.09s1.45-3.19 6.54-3.19h12.15c5.11 0 6.54.74 6.54 3.19s-1.39 3.09-6.84 3.09m64.74-1.66h-12.42c-5.21 0-7.76.74-9.93 2.14v-3.31c0-2.27 1.92-3.48 6.51-3.48h29.8V286h-29.88c-14.23 0-19 2.51-19 11.14V305c0 7.39 5.21 10 15.56 10h19c10.34 0 15.56-.91 15.56-7.9v-2.47c0-5.14-2.28-7.93-15.13-7.93m-3.67 12.16h-12.23c-5.08 0-6.53-.74-6.53-3.17s1.4-3.11 6.78-3.11h11.67c5.41 0 6.78.71 6.78 3.11s-1.43 3.17-6.53 3.17"
         style="fill:#c3c6c8"
         id="path4" />
      <path
         d="M744.16 103.49S623.61 54.18 400 54.18 55.84 103.49 55.84 103.49C27.32 458.43 201.76 656.41 400 745.81c198.23-89.41 372.67-287.38 344.16-642.32M400 736.91C268.16 676.53 60.84 526.33 60.84 179.18c0-22.47 1-45.89 2.78-70 23.56-8.51 140.57-46.9 336.38-46.9s312.83 38.39 336.38 46.93c1.83 24.14 2.78 47.56 2.78 70 0 347.11-207.33 497.31-339.16 557.68"
         class="cls-5"
         id="path5" />
      <path
         d="m556 397-36.66 8.19c-6.38 4.34-17.36 13.7-11.16 21.41l35.75 37.4c-6.77 14.47 6.8 23.31 6.8 23.31-1.8 10.26-15.25 24.23-15.25 24.23l-14.34.87-6.14 9.89-39.23 3.05-8.31-3.89C436.28 582 458.74 628.24 496 654.28 609.21 576.41 683.61 473.87 712.13 315c-104.49 5.84-105.37 69.92-156.13 82M87.67 314c14.76 83 42.09 150.74 80.91 207.6A560 560 0 0 1 293 410.48c-12.48-1.27-24.57-2.6-34.52-3.86-85-10.7-88.76-91.36-170.76-92.67m387.58 87.64c-.79-10.41 12.79-18.51 3.26-33.08-7.52-11.48-25.89-13-22.84-21.87-8.4 4.21-7.25 11.63-2 16.34 6.53 5.85-4.94 10.64-7.3 3.8-2.88 3.33-2.86 8.78 3.48 14.17s20.11 5.53 25.4 20.64"
         class="cls-5"
         id="path6" />
      <path
         d="M543.94 464.05s-7.09 1.06-10.92 11.38l-20.63-.38a28 28 0 0 0-21.53-10.32s-13.24 7.26-12.09 17.58a13.44 13.44 0 0 1 11.33-5.75c5.21 1.89 7.56 7.67 7.56 7.67s-2.88 12.6-18.42 17.55c0 0-18.79-10.73-33.18-11.38s-34.5 17.18-53.4 1.35-17.1-40.31-9.15-56.87c0 0-44.74 31.07-7.89 73.54 0 0-61.63 40.85-88.41 133.92 33.9 24.94 71.56 47.37 112.78 68.23 34.53-17.45 66.56-36.05 96-56.28-37.24-26-59.69-72.26-28.56-132.82l8.31 3.88L515 522.3l6.16-9.84 14.36-.87s13.46-14 15.24-24.22c0 0-13.58-8.86-6.78-23.33M408.27 650.12l-23-19.23-34 19.54 18.22-31.52-23.32-20.25h35.43l21.29-30.47 1.84 30.47h35.59l-34.23 20Zm-16.33-448.43 10.07-.13-4.91-54.03z"
         class="cls-6"
         id="path7" />
      <path
         d="m 724.77,120.16 c 0,0 -121.64,-46.41 -324.77,-46.41 -203.13,0 -324.77,46.41 -324.77,46.41 -1.93,72.77 2.32,136.84 12.43,193.76 90.18,-30 111.68,41.89 184.9,44.56 l 81.6,0.73 c 13.6,-13.66 33.16,-20.77 33.16,-20.77 l 69.8,0.47 c 14.55,7.23 29.24,18.33 29.24,18.33 0,0 22.11,0.3 48.11,-1.78 C 585,351.4 605,298.36 712.11,315 722.39,257.88 726.71,193.43 724.77,120.17 M 395,303.82 c 0,8.62 -4.79,11.15 -19,11.15 h -31.42 v -6.15 h 31.3 c 4.59,0 6.5,-1.16 6.5,-3.37 V 302 c -2.16,1.43 -4.66,2.16 -9.9,2.16 h -12.41 c -12.85,0 -15.15,-2.77 -15.15,-7.9 v -2.47 c 0,-7 5.21,-7.91 15.56,-7.91 h 18.95 c 10.41,0 15.55,2.61 15.55,9.95 z m 60.43,3.25 c 0,7 -5.21,7.9 -15.56,7.9 h -19 c -10.41,0 -15.55,-2.61 -15.55,-10 v -7.92 c 0,-8.64 4.81,-11.15 19,-11.15 h 29.88 v 6.1 h -29.76 c -4.58,0 -6.51,1.17 -6.51,3.42 v 3.36 c 2.17,-1.41 4.69,-2.16 9.93,-2.16 h 12.42 c 12.86,0 15.13,2.79 15.13,7.93 z"
         class="cls-6"
         id="path8"
         sodipodi:nodetypes="cscccccccccccsccsscsssssscccsssssccsscsscc" />
      <path
         d="M436.38 302.55h-11.67c-5.39 0-6.79.73-6.79 3.1s1.46 3.17 6.55 3.17h12.15c5.09 0 6.54-.74 6.54-3.17s-1.37-3.1-6.78-3.1m137.47-92.9 9.89.85-4.91-53.04zM326.82 135.6l-6.18.55v92.36l6.18-.54c3-.21 3.4-1.31 3.47-4.34v-82.15c-.11-4.91-1.32-5.92-3.47-5.88M375.84 292h-12.15c-5.11 0-6.56.74-6.56 3.19s1.39 3.09 6.78 3.09h11.62c5.45 0 6.84-.71 6.84-3.09s-1.43-3.19-6.54-3.19m173.58 82c-19.43 1.89-45.81 3.17-45.81 3.17a34.8 34.8 0 0 1 6.4 11.71s-21.06 16.45-1.74 37.69c-6.18-7.71 4.76-17.1 11.15-21.41L556 397c50.72-12 51.6-76.13 156.09-81.94-111.41-5.21-115.53 54.32-162.71 59m-256.44 36.4c7.6.77 15.32 1.54 22.81 2.24a78.74 78.74 0 0 0-25.61 34.16c59-11.28 80.68-28.56 87.42-35.71 19.84-19.23 3.34-42-1.64-43.59 4.65 13.55-3.77 18-3.77 18l-101.07-5.31c-92.35-8.47-89.49-80.54-183.42-66.32 82 1.34 85.77 82 170.77 92.7 9.94 1.26 22 2.6 34.51 3.86m176.18 16.69c-12.43-23.2-24.39-28-44.28-33.23a55.5 55.5 0 0 0-20.09 21.52s36.77-3.15 64.35 11.71"
         class="cls-6"
         id="path9" />
    </g>
  </g>
</svg>
