<?xml version="1.0" encoding="UTF-8" standalone="no"?>
<svg
   id="Layer_1"
   data-name="Layer 1"
   viewBox="0 0 800 800"
   version="1.1"
   sodipodi:docname="inter-miami-cf.svg"
   inkscape:version="1.4.2 (f4327f4, 2025-05-13)"
   xmlns:inkscape="http://www.inkscape.org/namespaces/inkscape"
   xmlns:sodipodi="http://sodipodi.sourceforge.net/DTD/sodipodi-0.dtd"
   xmlns="http://www.w3.org/2000/svg"
   xmlns:svg="http://www.w3.org/2000/svg">
  <sodipodi:namedview
     id="namedview10"
     pagecolor="#ffffff"
     bordercolor="#000000"
     borderopacity="0.25"
     inkscape:showpageshadow="2"
     inkscape:pageopacity="0.0"
     inkscape:pagecheckerboard="0"
     inkscape:deskcolor="#d1d1d1"
     inkscape:zoom="1.06375"
     inkscape:cx="400.47004"
     inkscape:cy="400"
     inkscape:window-width="1920"
     inkscape:window-height="1111"
     inkscape:window-x="-9"
     inkscape:window-y="-9"
     inkscape:window-maximized="1"
     inkscape:current-layer="Layer_1" />
  <defs
     id="defs1">
    <style
       id="style1">.cls-1{fill:#231f20}.cls-2{fill:#f7b5cd}.cls-3{fill:#fff}</style>
  </defs>
  <circle
     cx="400"
     cy="400"
     r="348.66"
     class="cls-1"
     id="circle1" />
  <path
     d="M400 755C204.25 755 45 595.75 45 400S204.25 45 400 45s355 159.25 355 355-159.25 355-355 355m0-697.32C211.25 57.68 57.68 211.25 57.68 400S211.25 742.32 400 742.32 742.32 588.75 742.32 400 588.75 57.68 400 57.68"
     class="cls-2"
     id="path1" />
  <path
     d="m585.12 631.94-4.02-18.14-4 18.15-18.2 4 18.21 3.98 4.02 18.14 3.99-18.14 18.21-4.01zm-362.23 0-4.02-18.14-3.99 18.15-18.2 4 18.2 3.98 4.02 18.14 4-18.14 18.2-4.01z"
     class="cls-2"
     id="path2" />
  <circle
     cx="400"
     cy="400"
     r="250.74"
     class="cls-1"
     id="circle2" />
  <path
     d="M400 653.91C260 653.91 146.09 540 146.09 400S260 146.09 400 146.09 653.91 260 653.91 400 540 653.91 400 653.91m0-501.48c-136.51 0-247.57 111.06-247.57 247.57S263.49 647.57 400 647.57 647.57 536.51 647.57 400 536.51 152.43 400 152.43"
     class="cls-2"
     id="path3" />
  <path
     d="M220.62 191.57v204.52A296.35 296.35 0 0 0 390 663.86l10.39 4.92 11-5.28a296.32 296.32 0 0 0 168-267.11V191.57Z"
     class="cls-1"
     id="path4" />
  <path
     d="M524.68 548.45a285.15 285.15 0 0 0 43.83-152v-194h-337v193.7a285.5 285.5 0 0 0 163.19 258l5.67 2.69 6.3-3a285.1 285.1 0 0 0 118.01-105.39M403.9 648.08l-3.56 1.71-2.94-1.39a279.13 279.13 0 0 1-159.56-252.25V208.83h324.32v187.62A279.15 279.15 0 0 1 403.9 648.08"
     class="cls-2"
     id="path5" />
  <path
     d="M400 367.51c-9.64 0-18-4.27-22-10.47a22 22 0 0 0 44-.04c-4 6.24-12.36 10.51-22 10.51"
     class="cls-2"
     id="path6" />
  <path
     d="m444.18 357-22-9.08 15.65-13.86-21.29 5.56 5.58-21-16.26 15.13-5.86-20.91-5.86 20.92-16.26-15.13 5.58 21-21.29-5.56L377.82 348l-22 9.08H378a22 22 0 1 1 44 0Z"
     class="cls-2"
     id="path7" />
  <path
     d="M495.32 350.73a22 22 0 0 0-15.64-6.48H470a6.59 6.59 0 0 1-6.65-6 6.45 6.45 0 0 1 6.42-6.88h58.54l-45.9-8.3a6.66 6.66 0 0 0-6.26-4.38h-38.47l18.85 5.3a19.1 19.1 0 0 0-5.92 14 19.39 19.39 0 0 0 19.53 18.95h9.54a9.1 9.1 0 0 1 4.35 1 9.46 9.46 0 0 1-3.9 17.84h-29.88a47.29 47.29 0 0 0-40.57 22.94 44.3 44.3 0 0 0-6.19 22.89l33.05-33h10l-43 43v15.26l58.28-58.27h10l-68.24 68.24v17.22l86.16-86.15 5.86-6.05a22.1 22.1 0 0 0-.18-31.11Zm-27.07-27.79h7.64v4.23h-7.64Zm-170.06 43.45a22 22 0 0 0 6.31 15.45l5.86 6.05 86.16 86.15v-17.2l-68.25-68.24h10l58.28 58.27v-15.26l-43-43h10l33.05 33a44.3 44.3 0 0 0-6.19-22.89 47.29 47.29 0 0 0-40.57-22.94h-29.97A9.46 9.46 0 0 1 316 358a9.1 9.1 0 0 1 4.35-1h9.54a19.39 19.39 0 0 0 19.5-19 19.1 19.1 0 0 0-5.92-14l18.85-5.3h-38.43a6.66 6.66 0 0 0-6.26 4.38l-45.9 8.3h58.54a6.45 6.45 0 0 1 6.42 6.88 6.59 6.59 0 0 1-6.65 6h-9.72a22.14 22.14 0 0 0-22.13 22.14Zm33.56-39.22h-7.64v-4.23h7.64Z"
     class="cls-3"
     id="path8" />
  <path
     d="M 463.78,452.08 V 423.5 l -6.34,6.35 v 19.6 l -13,13 v -19.6 l -6.34,6.34 V 468.8 L 400.04,506.85 362,468.78 V 449.32 L 355.66,443 v 19.45 l -13,-13 V 430 l -6.35,-6.35 v 28.43 l 19.33,19.32 v 100.85 h -19.42 v 6.34 H 362 V 477.75 l 33.57,33.57 -16.76,16.77 21.26,21.23 21.24,-21.23 -16.77,-16.77 33.58,-33.57 v 100.84 h 25.66 v -6.34 H 444.46 V 471.4 Z m -51.44,76 -12.27,12.27 -12.29,-12.28 12.28,-12.28 z"
     class="cls-2"
     id="path9"
     sodipodi:nodetypes="cccccccccccccccccccccccccccccccccccccccc" />
  <path
     d="m 308.09,679.25 -6.46,23.1 -8.11,-2.77 10.36,-36.9 7.53,2.52 6.94,18.8 15.71,-12.45 7.74,1.77 -10.37,37 -8.36,-2 6.48,-23.13 -14.87,11.91 z m 58.1,12.34 -1.68,24 -8.51,-1.15 2.7,-38.28 7.85,1 10.62,17.06 13,-15.5 7.85,0.14 -2.69,38.37 -8.6,-0.1 1.68,-24 -12.16,14.59 z m 66.92,10.41 -8.38,14.36 -9.63,0.63 12.13,-21 -15.7,-17.42 10.19,-0.72 9.83,11 7,-12.89 10.14,-1.67 -11.29,20.53 16.6,17.73 -9.46,1.57 z m 50.98,-10.35 -5.83,15.6 -9.38,2.29 8.39,-22.83 -18.5,-14.53 9.94,-2.43 11.59,9.18 4.77,-14 9.66,-3.37 -7.62,22.23 19.37,14.68 -9.13,3.12 z"
     class="cls-3"
     id="path10"
     sodipodi:nodetypes="cccccccccccccccccccccccccccccccccccccccccccccccccccc" />
</svg>
