<?xml version="1.0" encoding="UTF-8" standalone="no"?>
<svg
   id="Layer_1"
   data-name="Layer 1"
   viewBox="0 0 800 800"
   version="1.1"
   sodipodi:docname="la-galaxy.svg"
   inkscape:version="1.4.2 (f4327f4, 2025-05-13)"
   xmlns:inkscape="http://www.inkscape.org/namespaces/inkscape"
   xmlns:sodipodi="http://sodipodi.sourceforge.net/DTD/sodipodi-0.dtd"
   xmlns="http://www.w3.org/2000/svg"
   xmlns:svg="http://www.w3.org/2000/svg">
  <sodipodi:namedview
     id="namedview17"
     pagecolor="#ffffff"
     bordercolor="#000000"
     borderopacity="0.25"
     inkscape:showpageshadow="2"
     inkscape:pageopacity="0.0"
     inkscape:pagecheckerboard="0"
     inkscape:deskcolor="#d1d1d1"
     inkscape:zoom="1.06375"
     inkscape:cx="400.47004"
     inkscape:cy="400"
     inkscape:window-width="1920"
     inkscape:window-height="1111"
     inkscape:window-x="-9"
     inkscape:window-y="-9"
     inkscape:window-maximized="1"
     inkscape:current-layer="LA-Logo" />
  <defs
     id="defs2">
    <clipPath
       id="clip-path">
      <path
         d="M85.29 0h629.42v800H85.29z"
         class="cls-1"
         id="path1" />
    </clipPath>
    <clipPath
       id="clip-path-2">
      <path
         d="M85.29.01h629.42V800H85.29z"
         class="cls-1"
         id="path2" />
    </clipPath>
    <style
       id="style2">.cls-1{fill:none}.cls-4{fill:#ffce00}.cls-5{fill:#004987}.cls-6{fill:#15284b}.cls-7{fill:#edaa00}.cls-8{fill:#dadbe1}.cls-9{fill:#fff}</style>
  </defs>
  <g
     style="clip-path:url(#clip-path)"
     clip-path="url(#clip-path)"
     id="g17">
    <g
       id="LA-Logo"
       style="clip-path:url(#clip-path-2)"
       clip-path="url(#clip-path-2)">
      <path
         d="M400 800C207 699.16 87.26 424.75 85.29 197.11 151 182 281.61 155 400 0c118.39 155 249 182 314.71 197.12C712.71 424.75 593 699.12 400 800"
         class="cls-4"
         id="path3" />
      <path
         d="M126.18 227.2c4.84 99.57 33 207.83 79.13 301 50.14 101.25 118.88 180 194.69 224.6 75.79-44.56 144.54-123.35 194.67-224.6 46.14-93.2 74.33-201.44 79.13-301-64.92-15.9-172.67-50.43-273.8-166.83C298.88 176.77 191.11 211.3 126.18 227.2"
         class="cls-5"
         id="path4" />
      <path
         d="M146.15 241.21c6.15 93.9 32.59 192.32 75.3 278.57C267.38 612.53 330.59 686.55 400 729.65c69.4-43.11 132.6-117.12 178.55-209.87 42.68-86.25 69.14-184.69 75.3-278.57-67.77-17.71-162.77-54-253.85-153.62-91.12 99.63-186.12 135.91-253.85 153.62"
         class="cls-6"
         id="path5" />
      <path
         d="M391.11 43.16 400 32.92V0C281.6 155 151 182 85.27 197.11l21.9 16.1 7.44-1.81c68.7-16.82 184.94-55.18 276.48-168.23M714.35 197l-22.47 16.09-.36 7.89c-.39 102.57-35.6 224.08-82.45 318.66C558.44 641.87 483.88 723.89 406 769.68l-6 3.51V800c193-100.84 312.72-375.25 314.7-602.89a2.4 2.4 0 0 0-.36-.1"
         class="cls-7"
         id="path6" />
      <path
         d="M589.17 548c-57.12-11-121.36-17.15-189.29-17.15-71.06 0-138 6.72-197.07 18.64-25.15 5.06-47.71 10.08-63 15C154.33 587.18 171 613.55 185 635c14-3.47 28.85-6.74 44.15-9.83 51.09-10.25 109.16-16.09 170.76-16.09 58.89 0 114.58 5.33 164.06 14.81 18.14 3.49 35.31 7 51.18 10.58 14.56-22.21 30.65-47.56 45.16-69.69-16.75-5.09-41.74-11.2-71.08-16.82"
         class="cls-4"
         id="path11" />
      <path
         d="m 304.33,548.75 12.01,-1.01 z m 62.96,-3.88 -12.38,0.55 m 70.75,-0.54 12.02,0.43 z m 62,3.63 -14.66,-1.22 m 82.88,47.07 12.41,1.76 z"
         class="cls-6"
         id="path12"
         sodipodi:nodetypes="ccccccccccccc" />
      <path
         d="M634.44 572.66c-12.28 19.38-29.37 43-29.37 43-15.14-3-31.54-5.89-48.8-8.79-47.24-8-100.39-12.37-156.51-12.37-58.71 0-114.1 4.84-162.89 13.42-14.58 2.58-28.72 5.32-42.1 8.2L184.88 635c10.62-2.63 27.27-6.25 33-7.54.1 0 12.31 18.36 12.57 18 .39-.59 8.71-8.89 13.78-13.39A199 199 0 0 1 260 619.61c43.29-5.9 90.34-10.57 139.79-10.57 58.89 0 114.59 5.32 164.06 14.83 24.37 4.66 42 8.61 51.73 10.85 14.66-22.51 29.32-46.3 44.61-69.82Z"
         class="cls-7"
         id="path13" />
      <path
         d="M399.05 120.75a121.43 121.43 0 0 1-120.27 121.52 1.23 1.23 0 0 0 0 2.45A121.16 121.16 0 0 1 398.93 366a1.27 1.27 0 0 0 .55 1 1.21 1.21 0 0 0 1.19.07l.28-.13a1.27 1.27 0 0 0 .7-1.11A121.31 121.31 0 0 1 522 244.46a1.2 1.2 0 0 0 1.22-1.18A1.21 1.21 0 0 0 522 242a121.37 121.37 0 0 1-120.5-121.2 1.23 1.23 0 1 0-2.45 0"
         class="cls-5"
         id="path14" />
      <path
         d="M400 162.12a.4.4 0 0 1 .38.42 87.9 87.9 0 0 0 79.75 80.85.4.4 0 0 1 .42.39c0 .24-.28.36-.46.36a87.86 87.86 0 0 0-79.77 80.5c0 .11-.08.39-.33.39s-.33-.28-.34-.39a87.85 87.85 0 0 0-79.75-80.5c-.18 0-.47-.11-.47-.36s.21-.34.42-.39a87.9 87.9 0 0 0 79.75-80.85.39.39 0 0 1 .39-.42"
         class="cls-4"
         id="path15" />
      <path
         d="M400 162.12c-.18 0-.36.13-.39.42a87.89 87.89 0 0 1-79.77 80.85.4.4 0 0 0-.42.39H400ZM400 325c.24 0 .31-.28.33-.39a87.86 87.86 0 0 1 79.77-80.5c.18 0 .46-.11.46-.36H400Z"
         class="cls-7"
         id="path16" />
      <path
         d="M453.59 243.49c-29.37-.26-53.27-23.91-53.27-52.73a.29.29 0 0 0-.23-.34.29.29 0 0 0-.34.23.2.2 0 0 0 0 .11 53 53 0 0 1-52.63 52.94.3.3 0 0 0-.29.29.28.28 0 0 0 .29.26 53.46 53.46 0 0 1 52.68 53.32.25.25 0 0 0 .24.26.27.27 0 0 0 .29-.25 53.77 53.77 0 0 1 53.23-53.51.3.3 0 0 0 .28-.28.29.29 0 0 0-.28-.29"
         class="cls-9"
         id="path17" />
    </g>
  </g>
</svg>
