<?xml version="1.0" encoding="UTF-8" standalone="no"?>
<svg
   id="Calque_2"
   data-name="Calque 2"
   viewBox="0 0 5935.06 5935.06"
   version="1.1"
   sodipodi:docname="new-york-city-fc.svg"
   inkscape:version="1.4.2 (f4327f4, 2025-05-13)"
   xmlns:inkscape="http://www.inkscape.org/namespaces/inkscape"
   xmlns:sodipodi="http://sodipodi.sourceforge.net/DTD/sodipodi-0.dtd"
   xmlns="http://www.w3.org/2000/svg"
   xmlns:svg="http://www.w3.org/2000/svg">
  <sodipodi:namedview
     id="namedview8"
     pagecolor="#ffffff"
     bordercolor="#000000"
     borderopacity="0.25"
     inkscape:showpageshadow="2"
     inkscape:pageopacity="0.0"
     inkscape:pagecheckerboard="0"
     inkscape:deskcolor="#d1d1d1"
     inkscape:zoom="0.14338524"
     inkscape:cx="2964.0429"
     inkscape:cy="3072.1433"
     inkscape:window-width="1920"
     inkscape:window-height="1111"
     inkscape:window-x="-9"
     inkscape:window-y="-9"
     inkscape:window-maximized="1"
     inkscape:current-layer="svg96" />
  <defs
     id="defs1">
    <style
       id="style1">.cls-2{fill:#000229}.cls-3{fill:#fffffe}</style>
  </defs>
  <g
     id="svg96">
    <path
       d="M2967.53 5935.06c-792.65 0-1537.87-308.68-2098.36-869.17S0 3760.19 0 2967.53 308.68 1429.66 869.17 869.17C1429.66 308.67 2174.88 0 2967.53 0S4505.4 308.67 5065.89 869.17c560.49 560.49 869.17 1305.7 869.17 2098.36s-308.67 1537.87-869.17 2098.36c-560.49 560.49-1305.7 869.17-2098.36 869.17"
       class="cls-2"
       id="path1" />
    <path
       d="M2967.53 5827.07c-763.81 0-1481.9-297.45-2021.99-837.54-540.1-540.1-837.54-1258.19-837.54-2022s297.44-1481.9 837.54-2022C1485.63 405.44 2203.73 108 2967.53 108s1481.9 297.44 2022 837.54 837.54 1258.19 837.54 2022-297.44 1481.9-837.54 2021.99c-540.1 540.1-1258.19 837.54-2022 837.54"
       style="fill:#eb5a3b"
       id="path2" />
    <path
       d="M2967.53 5719.07c-734.96 0-1425.94-286.21-1945.63-805.91-519.7-519.69-805.91-1210.67-805.91-1945.63S502.2 1541.6 1021.9 1021.9s1210.67-805.91 1945.63-805.91S4393.47 502.2 4913.16 1021.9c519.7 519.7 805.91 1210.67 805.91 1945.63s-286.21 1425.94-805.91 1945.63c-519.7 519.7-1210.67 805.91-1945.63 805.91"
       class="cls-2"
       id="path3" />
    <circle
       cx="2967.53"
       cy="2967.53"
       r="2643.54"
       style="fill:#9fd2ff"
       id="circle3" />
    <path
       id="path28"
       d="M2799.73 1147.21c89.32-6.81 177.4-14.98 266.94-5.33 488.26 22.13 957.8 253.78 1278.2 621.62 222.11 251.85 372.72 565.1 428.79 896.4 70.03 399.74-.57 821.04-195.67 1176.62-156.97 288.28-391.79 532.87-673.83 700.73-287.6 171.72-621.17 263.65-956.44 255.59-533.21-1.14-1049.05-255.48-1385.91-666.57-228.47-276.14-373.4-619.58-408.47-976.53-20.77-230.97-3.52-464.2 62.08-687.11 100.9-353.09 312.23-670.99 595.06-904.57 278.98-231.99 627.86-377.72 989.24-410.86Z"
       class="cls-2" />
    <path
       id="path36"
       d="M2981.78 1653.06c233.01-5.22 466.81 63.1 665.2 184.43 196.35 119.74 357.97 296.23 462.84 500.52 57.2 106.91 94.2 221.55 148.91 329.37-112.82 3.97-225.86.68-338.79 1.82 8.63-52.44 11.01-104.42-2.38-156.29-27.92-114.4-101.58-216.32-180.01-302.01-172.52-197.94-422.66-326.08-685.18-344.8-169.79-8.06-337.77 17.14-484.18 108.05-53.91-54.59-116.22-108.05-156.97-173.42 54.37-28.83 106.35-57.32 164.34-78.99 128.82-48.01 268.99-68.44 406.2-68.67Z"
       class="cls-3" />
    <path
       id="path38"
       d="M1848.17 1720.82c149.13-3.29 298.5-.45 447.74-1.48 5.45 31.55 8.51 64.47 24.4 92.95 30.64 55.5 83.31 100.56 127.57 145.73 178.98 179.67 359.33 358.2 537.63 538.66 147.43-145.39 291.46-294.52 438.44-440.37 67.42 33.71 125.53 74.45 179.32 127.34-170.81 161.39-340.72 323.81-510.96 485.65.68 78.65.91 157.42-.11 236.07-216.55-207.81-431.17-418.01-646.14-627.64-165.36-155.26-322.78-321.65-495.75-468.4-34.39-30.19-72.07-53.46-102.15-88.53Z"
       class="cls-3" />
    <path
       id="path40"
       d="M3704.41 1719.34c139.49 1.82 279.54-3.52 418.92 2.95-77.4 67.64-158.78 130.18-232.78 201.91-62.42-51.07-127.8-97.95-198.73-136.54 4.65-22.7 8.85-45.51 12.6-68.33Z"
       class="cls-3" />
    <path
       id="path42"
       d="m 570.77,2367.3 c 15.55,-35.86 22.02,-4.08 0,0 z"
       class="cls-2"
       sodipodi:nodetypes="cc" />
    <path
       id="path46"
       d="M2085.27 2036.91c55.84 54.48 110.77 109.98 165.14 165.82-128.93 116.45-229.6 261.16-283.74 426.97-59.13 182.16-68.44 382.26-37.11 570.55 36.21 209.63 132.34 407.79 283.51 558.4 154.58 158.44 359.22 255.94 576 293.84-1.7 73.89-1.7 146.52-21 218.59-310.3-49.6-600.74-203.16-803.78-444.68-172.17-202.36-273.07-458.3-294.64-722.52-7.04-145.39-6.13-289.3 29.4-431.51 57.54-246.4 196.24-469.31 386.23-635.47Z"
       class="cls-3" />
    <path
       id="path48"
       d="M2512.81 2481.7c312.57 290.78 625.48 584.96 937.71 875.97-.11-235.85.68-472.03-.34-707.77.11-59.59-20.77-111.23-38.7-166.73 99.88-1.82 200.09-1.36 300.09-.23-14.3 45.4-31.78 85.24-36.55 132.9-4.54 49.03-4.31 98.52-4.65 147.66.45 223.13-.57 446.38.57 669.63-1.7 75.82 11.24 143.35 34.16 215.3-93.41.57-186.82.34-280.22.11-304.17-289.98-611.75-576.56-917.05-865.41-.23 231.87-.34 463.86.11 695.62-.68 60.49 19.18 114.29 41.65 169.34-99.31 1.14-198.96 1.02-298.27-.11 17.82-55.5 33.6-110.21 33.71-169.11.68-249.69-.11-499.61.34-749.42 0-44.04 2.04-91.14-5.56-134.49-6.92-37.79-22.36-75.7-35.75-111.45 89.55-3.06 179.21-.23 268.76-1.82Z"
       class="cls-3" />
    <path
       id="path50"
       d="M722.59 2748.42c46.08 43.92 93.41 85.69 146.18 121.55-22.25 54.25-44.04 108.28-56.86 165.71-60.27-7.6-118.49-7.15-178.87-.57-13.28-57.43-35.41-111.23-55.95-166.27 53.23-34.73 99.54-76.84 145.5-120.42"
       class="cls-2" />
    <path
       id="path52"
       d="M5217.13 2748.65c46.08 43.36 92.84 85.12 145.73 120.19-21.79 54.48-42.79 108.84-56.18 166.05-60.04-6.24-118.6-6.92-178.53.79-14.3-57.32-35.52-112.02-57.54-166.73 53.57-34.62 99.99-77.18 146.52-120.31Z"
       class="cls-2" />
    <path
       id="path54"
       d="M2866.35 3228.96c43.02 37.11 81.94 78.2 123.71 116.67 33.14 33.25 73.32 62.88 101.35 100.33 3.63 248.22-.34 499.84 1.93 748.4 2.04 57.66 22.47 108.16 40.63 161.85-103.4.57-206.79.45-310.19 0 16.23-46.76 34.5-90 38.59-140.06 5.22-63.9 2.61-128.71 3.18-192.83.57-264.79-1.14-529.58.79-794.36Z"
       class="cls-3" />
    <path
       id="path56"
       d="M3936.29 3261.31c111.57.34 223.13-.23 334.7.45-46.19 100.9-73.09 208.49-119.63 309.17-68.67 151.4-169.22 287.83-292.14 399.51-184.43 163.32-425.95 264.67-668.38 300.43-21.79-72.98-20.88-149.13-21.34-224.95 132.22-15.32 261.61-62.65 377.83-126.78 156.17-86.37 301.11-226.65 366.25-395.2 34.62-84.55 37.34-173.31 22.7-262.63Z"
       class="cls-3" />
    <path
       d="m 2861.48,5435.87 c 51.08,0.76 4.1,-8.86 0,0 z"
       class="cls-2"
       id="path8"
       sodipodi:nodetypes="cc" />
  </g>
</svg>
