<?xml version="1.0" encoding="UTF-8" standalone="no"?>
<svg
   data-name="Layer 1"
   viewBox="0 0 800 800"
   version="1.1"
   id="svg3"
   sodipodi:docname="philadelphia-union.svg"
   inkscape:version="1.4.2 (f4327f4, 2025-05-13)"
   xmlns:inkscape="http://www.inkscape.org/namespaces/inkscape"
   xmlns:sodipodi="http://sodipodi.sourceforge.net/DTD/sodipodi-0.dtd"
   xmlns="http://www.w3.org/2000/svg"
   xmlns:svg="http://www.w3.org/2000/svg">
  <defs
     id="defs3" />
  <sodipodi:namedview
     id="namedview3"
     pagecolor="#ffffff"
     bordercolor="#000000"
     borderopacity="0.25"
     inkscape:showpageshadow="2"
     inkscape:pageopacity="0.0"
     inkscape:pagecheckerboard="0"
     inkscape:deskcolor="#d1d1d1"
     inkscape:zoom="1.06375"
     inkscape:cx="400.47004"
     inkscape:cy="400"
     inkscape:window-width="1920"
     inkscape:window-height="1111"
     inkscape:window-x="-9"
     inkscape:window-y="-9"
     inkscape:window-maximized="1"
     inkscape:current-layer="svg3" />
  <path
     d="M755 400c0 195.75-159.24 355-355 355S45 595.76 45 400 204.26 45 400 45s355 159.26 355 355"
     style="fill:#e0d0a6"
     id="path1" />
  <path
     d="m 369.34,388.12 c 1.57,-1 2.71,-3.93 3.26,-5.66 -5.73917,1.68818 -11.35293,3.77664 -16.8,6.25 3.88,0.21 11.85,0.48 13.54,-0.59 m 230,-4.56 -11.14,10.07 c -9,-2.7 -18.11,-5.19 -27.38,-7.5 -11.42,66.67 -40.93,126.24 -82.68,172.34 -22.39879,24.85171 -48.73384,45.8488 -77.95,62.15 C 370.85267,604.25784 344.43109,583.14491 322,558.14 280.31,512 250.9,452.49 239.55,385.91 c -9.63333,2.38 -19.09,4.96333 -28.37,7.75 L 200,383.56 c 5.07,-1.74 9.4,-3.11 9.4,-3.11 32.49231,-9.5955 65.69731,-16.58761 99.3,-20.91 62.00046,-8.12058 124.80663,-7.94235 186.76,0.53 31.90593,4.34678 63.43165,11.13334 94.3,20.3 0,0 4.73,1.5 9.57,3.19 m -264.67,10.32 c 0,0.14 0.12,0.31 0.19,0.49 0.07,0.18 0,0.12 0.08,0.17 l 0.21,0.44 c 0.05,0.08 0.08,0.15 0.13,0.24 0.0723,0.15398 0.1524,0.30418 0.24,0.45 0.049,0.10737 0.10579,0.21099 0.17,0.31 0.1,0.15 0.18,0.3 0.3,0.47 0.0746,0.10148 0.14149,0.20845 0.2,0.32 0.12,0.15 0.24,0.32 0.36,0.49 0.0817,0.11971 0.17191,0.23334 0.27,0.34 0.13053,0.17758 0.27074,0.34784 0.42,0.51 l 0.3,0.35 c 0.16,0.17 0.34,0.34 0.53,0.52 0.10767,0.0992 0.20794,0.20616 0.3,0.32 l 0.68,0.56 c 0.12,0.09 0.2,0.17 0.3,0.26 0.36,0.25 0.73,0.52 1.12,0.76 h 0.05 c 0.39,0.22 0.77,0.45 1.21,0.66 0.12,0.07 0.29,0.13 0.44,0.2 l 1,0.41 c 0.19673,0.0704 0.397,0.13049 0.6,0.18 0.3,0.12 0.62,0.2 0.94,0.31 l 0.71,0.15 1,0.2 0.8,0.1 c 0.35,0.05 0.74,0.07 1.11,0.1 h 2.92 c 0.71,0 1.46,-0.1 2.25,-0.22 4.21285,-0.58291 8.45749,-0.90685 12.71,-0.97 8.07,-0.22 12.53,-0.34 18.61,-7.36 2.83336,-3.38333 6.98809,-5.38052 11.4,-5.48 h 0.49 c 17.77,0 33.48,9.86 33.68,22 0.09,5.22 -2.58,10.67 -7.5,14.69 -4,3.11 -9.78,5.32 -15,7.3 0,0 -12.3,4.41 -22.45,8 -0.54,0.15 -48.24,15.27 -48.24,44.19 0,5.67 2.5,11.23 7.31,16.08 0.65,0.64 1.32,1.28 2,1.89 0.24,0.2 0.51,0.4 0.76,0.59 0.49,0.4 1,0.81 1.5,1.2 l 1,0.67 1.47,1 1.13,0.67 c 0.5,0.31 1,0.61 1.52,0.9 0.52,0.29 0.82,0.44 1.25,0.67 l 1.55,0.81 c 0.46,0.22 0.9,0.41 1.35,0.61 0.45,0.2 1.08,0.51 1.64,0.75 0.56,0.24 1,0.38 1.44,0.59 l 1.7,0.66 1.52,0.52 1.76,0.59 c 0.52,0.17 1.06,0.32 1.59,0.47 0.53,0.15 1.2,0.36 1.82,0.53 0.62,0.17 1.1,0.28 1.64,0.42 l 1.89,0.46 1.71,0.35 c 0.64,0.14 1.28,0.27 1.94,0.37 0.66,0.1 1.15,0.22 1.74,0.31 0.59,0.09 1.33,0.22 2,0.3 l 1.78,0.24 2,0.22 1.82,0.18 2.08,0.14 c 0.61,0 1.23,0.08 1.84,0.12 l 2.11,0.06 h 5.31 C 430.69,517 457.91,501 458,482.19 c 0.07,-12 -11.76,-21.27 -29.93,-26.15 -4.34,1.67 -9.26,3.23 -14.46,4.85 -5,1.6 -10.76,3.41 -16.77,5.59 -13.65,4.93 -16.32,9.19 -16.69,11.3 -0.18287,1.02502 0.087,2.07901 0.74,2.89 5.22,-3 12.84,-5.26 21,-6.12 2.30523,-0.24513 4.62177,-0.36863 6.94,-0.37 12.59,0 21.07,3.51 21.08,9.26 -0.0441,1.746 -0.80769,3.39618 -2.11,4.56 -4.36,4.41 -15.28,7.24 -27.8,7.24 -10.57,0 -20.42,-3.34 -25.81,-8.69 -2.56385,-2.39847 -4.06481,-5.72074 -4.17,-9.23 0,-11.7 17,-17.5 28.22,-21.31 l 3.82,-1.32 c 9.86,-3.58 21.79,-8 21.79,-8 19,-6.12 29.09,-22.57 26.59,-38.43 -3,-18.73 -21.39,-31.82 -44.85,-31.82 -2.31875,0.002 -4.63561,0.13238 -6.94,0.39 -1.55375,0.25522 -3.12544,0.38564 -4.7,0.39 -2.16916,0.0993 -4.33029,-0.32601 -6.3,-1.24 -2.12498,-1.14924 -4.45648,-1.86637 -6.86,-2.11 -27.39,6.05 -43.2,17.65 -46.16,20 m 2.23,12.62 c -0.96817,-0.54153 -1.88233,-1.17442 -2.73,-1.89 -1.14,0.44 -2.28,0.84 -3.47,1.23 l -0.86,0.29 c -1.11,0.35 -2.23,0.69 -3.36,1 h -0.13 c -1.17,0.32 -2.32,0.59 -3.5,0.86 l -0.88,0.19 c -1.1,0.23 -2.16,0.44 -3.24,0.62 l -0.25,0.05 c -1.15333,0.18667 -2.29333,0.35667 -3.42,0.51 l -0.88,0.1 c -1,0.12 -2.06,0.24 -3.07,0.32 -0.10659,-0.006 -0.21341,-0.006 -0.32,0 -1.11,0.09 -2.2,0.14 -3.28,0.19 h -0.82 c -0.95,0 -1.91,0.05 -2.84,0.07 h -2.71 l -1.32,-0.07 h -0.93 l -1.45,-0.11 -0.71,-0.05 c -0.71,0 -1.42,-0.13 -2.07,-0.2 1.20973,0.50667 2.4486,0.94078 3.71,1.3 0.64,0.21 1.34,0.37 2,0.54 l 0.59,0.14 c 0.61,0.12 1.25,0.25 1.91,0.35 l 0.39,0.07 c 0.77,0.12 1.57,0.2 2.41,0.27 h 0.63 c 0.69,0.05 1.4,0.09 2.12,0.09 h 0.7 c 0.5,0 1,0 1.59,-0.06 h 0.79 c 0.81,-0.05 1.64,-0.12 2.5,-0.24 l 2.46,-0.27 -1.95,1.73 c -3.64274,2.80533 -7.65785,5.09054 -11.93,6.79 8.87,-1.15 24.85,-8.28 34.32,-13.87 m 127.19,107.84 c -0.0305,-4.2653 -1.19722,-8.44541 -3.38,-12.11 -9.24,15.83 -35.46,26.69 -64.67,26.69 -29.21,0 -55.35,-10.9 -64.41,-26.67 -2.25648,3.64371 -3.49608,7.8252 -3.59,12.11 -0.05,6.7 3,13.31 8.8,19.12 12,12.12 34.64,19.66 59,19.66 37.52,0 68.12,-17.42 68.26,-38.8 m 40.47,-17.58 h -5.18 c -0.22,0 -0.7,0 -1.07,-0.06 h -0.81 c -0.35,0 -0.72,-0.05 -1.09,-0.09 l -0.88,-0.08 -1.15,-0.12 -0.95,-0.1 -1.2,-0.15 -1,-0.14 c -0.41,-0.07 -0.83,-0.12 -1.25,-0.18 l -1.05,-0.19 -1.3,-0.22 -1.08,-0.2 -1.35,-0.29 c -0.37,-0.07 -0.75,-0.15 -1.12,-0.24 l -1.4,-0.33 -1.13,-0.28 -1.45,-0.38 c -0.38,-0.12 -0.76,-0.22 -1.15,-0.32 l -1.52,-0.46 -1.13,-0.35 c -0.55,-0.17 -1.1,-0.38 -1.64,-0.56 l -1.07,-0.36 c -0.61,-0.22 -1.21,-0.45 -1.82,-0.69 l -0.91,-0.34 c -0.92,-0.37 -1.83,-0.76 -2.76,-1.16 2.59397,4.34771 4.44912,9.09542 5.49,14.05 1.73804,0.2185 3.48829,0.32538 5.24,0.32 9.01713,0.0209 17.87605,-2.36817 25.66,-6.92 M 236.17,361.4 c -3.99242,-39.07248 -1.65233,-78.53323 6.93,-116.86 25.31336,8.87197 52.48063,11.09631 78.9,6.46 29.21,-5.13 55.93,-18.42 78.26,-37.66 22.22,19.19 48.86,32.44 77.95,37.61 26.4918,4.71069 53.75029,2.52036 79.15,-6.36 5.86706,26.20143 8.82827,52.96972 8.83,79.82 0.002,12.35751 -0.62888,24.70701 -1.89,37 -22.66307,-5.64889 -45.61709,-10.05876 -68.76,-13.21 -61.96135,-8.39089 -124.76154,-8.53212 -186.76,-0.42 -24.42605,3.18142 -48.65419,7.73191 -72.57,13.63 m 277.99,-26.82 6.22,0.86 z M 457.81,263.96 C 0,0 0,0 457.81,263.96 Z M 394.24,262.1 C 0,0 0,0 394.24,262.1 Z m -26.2,0.64 -10,0.64 -14.7,0.99 z m -82.28,72.72 c 0.39132,-10e-4 0.78215,-0.0279 1.17,-0.08 0,0 -4.15724,0.26581 -1.17,0.08 z M 741.19,400 c 0,188.15 -153.05,341.2 -341.18,341.2 -188.13,0 -341.2,-153.04 -341.2,-341.2 0,-445.943937 682.38,-445.903747 682.38,0 m -522,-201.61 C 0,0 0,0 219.19,198.39 Z m -119.03,236.34 -8.58,15.37 16,-7.4 12,12.94 -2.11,-17.53 16,-7.39 -17.3,-3.41 -2.09,-17.5 -8.58,15.41 -17.2,-3.43 z m 26.06,77 14.77,9.66 -6.27,-16.49 13.75,-11 -17.6,0.84 -6.25,-16.48 -4.63,17 -17.6,0.84 14.75,9.66 -4.65,17 z m 41.33,53.88 10.68,-14 -16.86,5.05 -10,-14.51 -0.4,17.64 -16.88,5 16.62,5.82 -0.4,17.62 10.67,-14 16.66,5.83 z m 59.7,62.71 -13.23,-11.67 7,-16.15 -15.19,9 -13.08,-11.7 3.85,17.2 -15.19,9 17.59,1.64 3.86,17.19 7,-16.16 z m 59.81,34.83 -15.55,-8.15 2.9,-17.36 -12.55,12.36 -15.64,-8.16 7.87,15.78 -12.56,12.38 17.47,-2.62 7.87,15.77 2.91,-17.36 z m 50.11,26.15 16.3,-6.74 -17.14,-4.12 -1.35,-17.55 -9.23,15 -17.12,-4.14 11.4,13.41 -9.21,15 16.28,-6.73 11.44,13.41 z m 71.25,6.62 14.2,-10.44 -17.63,0.1 -5.54,-16.72 -5.34,16.79 -17.65,0.1 14.45,10.25 -5.36,16.81 14.19,-10.46 14.34,10.27 z m 70.72,-10.71 11.28,-13.56 -16.98,4.35 -9.38,-14.89 -1.16,17.58 -17.1,4.31 16.37,6.54 -1.17,17.63 11.26,-13.58 16.36,6.54 z M 558.06,670 545.34,657.82 553,642 l -15.54,8.32 -12.71,-12.19 3.11,17.33 -15.54,8.32 17.47,2.4 3.12,17.35 7.65,-15.88 z m 75.5,-270 c 0,-305.307411 -467.13,-305.243081 -467.13,0 0,128.78 104.79,233.58 233.57,233.58 128.78,0 233.56,-104.77 233.56,-233.58 m -15.37,224.12 -15.27,-8.78 3.62,-17.27 -13.08,11.84 -15.25,-8.8 7.18,16.08 -13.11,11.81 17.55,-1.88 7.17,16.1 3.66,-17.22 z m 30.74,-53 16.57,-6 -16.94,-4.83 -0.56,-17.69 -9.86,14.65 -16.93,-4.86 10.79,13.88 -9.88,14.61 16.58,-6 10.85,13.88 z m 33.66,-64.86 14.63,-9.83 -17.6,-0.63 -4.85,-17 -6,16.57 -17.6,-0.65 13.83,10.89 -6.06,16.57 14.64,-9.84 13.87,10.86 z m 17.08,-71.06 11.84,-13 -17.23,3.61 -8.78,-15.3 -1.88,17.49 -17.24,3.6 16.06,7.19 -1.89,17.53 11.82,-13 16.12,7.19 z M 670.1,369.88 c 0.20825,-0.84574 0.58961,-1.63911 1.12,-2.33"
     style="fill:#051c2c"
     id="path2"
     sodipodi:nodetypes="cccccccccccccccccccsccccccccccccccccccccccccccsccccsccccscccccccsccssccccsscccssccccccccccccccccccscccccccccccccccccccccccccccsccccccccccccccsscccccccccscccsccscsccccccccccccccccccccccccccccccccccccccccccccccccccccsscccccccccccccccccccccccccccccccccccccccccccccccccccccccccccccccccccccccccccccccccccccccccccccccccccccccssccccccccccccccccccccccccccccccccccccccccccccccc" />
  <path
     d="M400.21 620.62A304.6 304.6 0 0 1 322 558.14v62a233 233 0 0 0 156.21 0v-61.68a304.4 304.4 0 0 1-78 62.16m77.95-369.72v-71a233 233 0 0 0-156.2 0V251c29.2-5.13 55.92-18.41 78.25-37.66 22.23 19.18 48.87 32.44 78 37.61"
     style="fill:#3a8dde"
     id="path3" />
</svg>
