<?xml version="1.0" encoding="UTF-8" standalone="no"?>
<svg
   width="276.026"
   height="362.284"
   viewBox="0 0 467.72 613.62"
   version="1.1"
   id="svg20"
   sodipodi:docname="san-diego-fc.svg"
   inkscape:version="1.4.2 (f4327f4, 2025-05-13)"
   xmlns:inkscape="http://www.inkscape.org/namespaces/inkscape"
   xmlns:sodipodi="http://sodipodi.sourceforge.net/DTD/sodipodi-0.dtd"
   xmlns="http://www.w3.org/2000/svg"
   xmlns:svg="http://www.w3.org/2000/svg">
  <defs
     id="defs20" />
  <sodipodi:namedview
     id="namedview20"
     pagecolor="#ffffff"
     bordercolor="#000000"
     borderopacity="0.25"
     inkscape:showpageshadow="2"
     inkscape:pageopacity="0.0"
     inkscape:pagecheckerboard="0"
     inkscape:deskcolor="#d1d1d1"
     inkscape:zoom="2.3489859"
     inkscape:cx="137.93186"
     inkscape:cy="181.142"
     inkscape:window-width="1920"
     inkscape:window-height="1111"
     inkscape:window-x="-9"
     inkscape:window-y="-9"
     inkscape:window-maximized="1"
     inkscape:current-layer="g20" />
  <linearGradient
     id="a"
     x1="233.858"
     x2="233.858"
     y1="4.241"
     y2="598.777"
     gradientUnits="userSpaceOnUse">
    <stop
       offset="0"
       stop-color="#f9a51a"
       id="stop1" />
    <stop
       offset=".006"
       stop-color="#f9a31a"
       id="stop2" />
    <stop
       offset=".113"
       stop-color="#f47b1e"
       id="stop3" />
    <stop
       offset=".198"
       stop-color="#f16321"
       id="stop4" />
    <stop
       offset=".25"
       stop-color="#f05a22"
       id="stop5" />
    <stop
       offset=".55"
       stop-color="#ec1c24"
       id="stop6" />
    <stop
       offset=".583"
       stop-color="#da2e33"
       id="stop7" />
    <stop
       offset=".649"
       stop-color="#ab5e58"
       id="stop8" />
    <stop
       offset=".65"
       stop-color="#aa5f59"
       id="stop9" />
    <stop
       offset=".833"
       stop-color="#0f8ac8"
       id="stop10" />
    <stop
       offset=".85"
       stop-color="#008ed3"
       id="stop11" />
    <stop
       offset=".863"
       stop-color="#007bc4"
       id="stop12" />
    <stop
       offset=".881"
       stop-color="#006ab6"
       id="stop13" />
    <stop
       offset=".902"
       stop-color="#005dac"
       id="stop14" />
    <stop
       offset=".932"
       stop-color="#0056a7"
       id="stop15" />
    <stop
       offset="1"
       stop-color="#0054a5"
       id="stop16" />
  </linearGradient>
  <path
     fill="#02152b"
     d="M447.38 366.12V87.51c0-17.52-11.24-32.77-27.96-37.96-59.87-18.56-122.3-27.97-185.56-27.97S108.17 30.99 48.3 49.55c-16.73 5.18-27.96 20.44-27.96 37.96v278.61c0 57.03 22.21 110.66 62.54 150.99a216.4 216.4 0 0 0 28.02 23.64c40.56 29.1 122.97 50.39 122.97 50.39s82.41-21.29 122.97-50.39c9.93-7.02 19.36-14.98 28.02-23.64 40.31-40.33 62.52-93.95 62.52-150.99"
     id="path16" />
  <path
     fill="url(#a)"
     d="M423.34 36.9C362.21 17.95 298.45 8.34 233.86 8.34c-64.6 0-128.35 9.61-189.49 28.57-22.3 6.9-37.28 27.24-37.28 50.6v278.61c0 60.57 23.59 117.52 66.42 160.35 7.23 7.23 15.01 14.03 23.17 20.26 0 0 5.63 4.16 6.29 4.63l.2.14c41.51 29.78 126.05 52.54 129.63 53.49l1.06.28 1.06-.28c3.58-.95 88.12-23.71 129.64-53.5l.18-.13c.64-.46 6.29-4.63 6.34-4.67 8.11-6.19 15.89-13 23.13-20.23 42.83-42.83 66.42-99.78 66.42-160.35V87.51c0-23.36-14.98-43.7-37.29-50.61m24.04 329.22c0 57.04-22.21 110.66-62.54 150.99a217.4 217.4 0 0 1-28.02 23.64c-40.56 29.1-122.97 50.39-122.97 50.39s-82.41-21.29-122.97-50.39a216.4 216.4 0 0 1-28.02-23.64c-40.33-40.33-62.54-93.95-62.54-150.99V87.51c0-17.52 11.24-32.77 27.96-37.96 59.87-18.56 122.3-27.97 185.56-27.97s125.69 9.41 185.56 27.97c16.73 5.18 27.96 20.44 27.96 37.96v278.61z"
     id="path17" />
  <path
     fill="#697a7c"
     d="M415.01 62.43c-58.44-18.12-119.39-27.3-181.16-27.3S111.14 44.31 52.7 62.43C41.27 65.97 33.59 76.4 33.59 88.37v277.51c0 53.49 20.83 103.78 58.66 141.61 8.23 8.23 17.05 15.66 26.37 22.24h-.01c39.71 28.49 115.24 46.82 115.24 46.82s75.53-18.33 115.24-46.82h-.01c9.32-6.58 18.14-14.01 26.37-22.24 37.82-37.83 58.66-88.12 58.66-141.61V88.37c.01-11.97-7.67-22.4-19.1-25.94M56.63 75.08c57.17-17.72 116.8-26.71 177.23-26.71 60.44 0 120.06 8.99 177.23 26.71 5.85 1.81 9.79 7.16 9.79 13.29V193.5c-60.24-19.35-123.11-29.16-187.02-29.16-63.92 0-126.78 9.81-187.02 29.16V88.37c0-6.13 3.93-11.47 9.79-13.29m-9.79 133.18a593.3 593.3 0 0 1 102.1-23.85c-20.8 9.75-39.97 23.14-56.69 39.87-20.16 20.16-35.49 43.86-45.41 69.69zm319.49 290.1c-35.39 35.39-82.43 54.87-132.48 54.87s-97.09-19.49-132.47-54.87-54.87-82.43-54.87-132.47S66 268.8 101.38 233.41c35.38-35.38 82.43-54.87 132.47-54.87s97.09 19.49 132.48 54.87c35.38 35.39 54.87 82.43 54.87 132.48s-19.48 97.09-54.87 132.47m9.14-274.08c-16.73-16.73-35.89-30.12-56.7-39.87 34.68 4.93 68.81 12.9 102.11 23.86v85.7c-9.93-25.84-25.26-49.54-45.41-69.69"
     id="path18" />
  <g
     fill="#fff"
     id="g20">
    <path
       d="m 394.22,361.27 c -0.32,-12.37 -2.11,-24.73 -5.3,-36.76 -0.29,-0.83 -0.62,-1.73 -0.97,-2.63 -1.07,-2.77 -2.28,-5.32 -3.58,-7.57 -5.87,-10.17 -14.42,-15.67 -26.91,-17.3 -3.89,-0.51 -8.68,-0.8 -13.15,-0.8 l -110.33,0.15 c -9.4,0.01 -18.53,1.87 -27.15,5.52 l -1.44,0.61 9.07,-15.71 c 2.13,-3.41 5.79,-5.45 9.83,-5.45 h 131.05 c 6.43,0.13 12.02,1.45 16.61,3.94 l 1.04,0.56 -0.6,-1.02 c -2.24842,-3.85573 -4.65719,-7.61568 -7.22,-11.27 -2.51365,-3.58215 -6.6139,-5.71622 -10.99,-5.72 H 225.41 l 5.78,-10.01 c 2.15,-3.3 5.77,-5.28 9.69,-5.28 h 0.13 c 0.05,0 0.09,-0.01 0.14,0 h 106.47 l -0.57,-0.57 c -4.57,-4.55 -9.49,-8.89 -14.65,-12.9 l -0.25,-0.16 c -5.76,-4.46 -11.85,-8.54 -18.1,-12.15 -1.09,-0.63 -2.17,-1.24 -3.25,-1.86 -11.17627,-6.09344 -23.03576,-10.83992 -35.33,-14.14 -0.77,-0.14 -1.6,-0.29 -2.45,-0.42 -16.12,-2.51 -27.46,1.8 -36.79,13.97 -2.38,3.1 -5.03,7.11 -7.27,10.99 l -55.04,95.62 c -4.69,8.14 -7.65,16.98 -8.79,26.27 l -0.19,1.55 -9.06,-15.71 c -1.90111,-3.51991 -1.8291,-7.77642 0.19,-11.23 l 65.54,-113.52 c 3.33,-5.52 7.28,-9.7 11.73,-12.42 l 1.01,-0.62 h -1.18 c -4.46,0.02 -8.97,0.22 -13.39,0.61 -4.36,0.38 -8.26,2.87 -10.45,6.65 l -64.4,111.55 -5.77,-10.01 c -1.76,-3.45 -1.7,-7.47 0.16,-10.84 l 0.34,-0.59 53.14,-92.05 -0.77,0.21 c -6.25,1.69 -12.47,3.8 -18.49,6.25 l -0.26,0.11 c -4.98,2.04 -9.93,4.36 -14.71,6.91 l -0.08,0.04 c -1.65,0.88 -3.21,1.75 -4.79,2.65 l -0.67,0.39 c -11.75664,6.85662 -22.59642,15.17631 -32.26,24.76 -0.58,0.67 -1.2,1.41 -1.81,2.17 -10.23,12.7 -12.17,24.69 -6.3,38.84 1.5,3.61 3.64,7.91 5.88,11.79 l 55.25,95.5 c 3.03732,5.25416 6.74879,10.08849 11.04,14.38 2.28611,2.2802 4.72511,4.40179 7.3,6.35 l 1.24,0.94 -17.9,-0.01 c -4.06391,-0.0776 -7.79017,-2.27847 -9.82,-5.8 L 100.14,302.56 c -3.12,-5.65 -4.77,-11.17 -4.91,-16.39 l -0.03,-1.19 -0.59,1.03 c -2.21,3.89 -4.29,7.9 -6.16,11.94 -1.84,3.96 -1.63,8.58 0.55,12.36 l 64.39,111.52 h -11.28 c -4.03,-0.11 -7.77,-2.35 -9.75,-5.85 l -53.29,-92.29 -0.21,0.78 c -1.71,6.43 -3.03,13.02 -3.92,19.58 -0.96,7.16 -1.45,14.41 -1.45,21.55 0,1.46 0.01,2.91 0.02,4.35 0.32,12.37 2.1,24.73 5.3,36.76 0.29,0.83 0.62,1.73 0.97,2.64 5.89,15.21 15.29,22.88 30.49,24.88 3.88,0.51 8.67,0.8 13.15,0.8 l 110.33,-0.1 c 6.07,0 12.12,-0.8 17.98,-2.37 3.06,-0.82 6.14,-1.88 9.15,-3.15 l 1.43,-0.61 -9.04,15.66 c -2.10012,3.39862 -5.81488,5.46237 -9.81,5.45 H 112.37 c -6.43,-0.13 -12.02,-1.45 -16.6,-3.94 l -1.04,-0.56 0.6,1.02 c 2.24,3.83 4.67,7.63 7.22,11.27 2.51365,3.58215 6.6139,5.71622 10.99,5.72 h 128.77 l -5.78,10.01 c -2.11946,3.29598 -5.77138,5.28588 -9.69,5.28 H 120.1 l 0.57,0.57 c 4.57,4.55 9.49,8.89 14.65,12.9 l 0.25,0.16 c 5.76,4.45 11.85,8.54 18.11,12.15 1.08,0.62 2.15,1.23 3.22,1.84 11.1872,6.10499 23.06052,10.85834 35.37,14.16 0.76,0.14 1.6,0.29 2.45,0.42 16.12,2.51 27.46,-1.8 36.79,-13.97 2.38,-3.11 5.03,-7.11 7.27,-10.99 l 55.04,-95.62 c 4.69,-8.14 7.65,-16.98 8.79,-26.27 l 0.19,-1.55 9.07,15.72 c 1.89,3.55 1.82,7.74 -0.19,11.21 l -65.54,113.51 c -3.34,5.52 -7.29,9.71 -11.74,12.43 l -1.01,0.62 h 1.19 c 4.45,-0.02 8.95,-0.22 13.39,-0.61 4.36,-0.38 8.26,-2.87 10.45,-6.66 l 64.4,-111.55 5.78,10.01 c 1.81,3.54 1.69,7.7 -0.33,11.13 -0.03,0.06 -0.05,0.1 -0.08,0.14 l -53.23,92.2 0.78,-0.21 c 6.25,-1.7 12.48,-3.8 18.52,-6.27 l 0.23,-0.1 c 4.98,-2.04 9.91,-4.36 14.67,-6.89 l 0.22,-0.11 c 1.6,-0.85 3.18,-1.73 4.69,-2.6 l 0.63,-0.36 c 11.77589,-6.86241 22.63272,-15.19237 32.31,-24.79 0.58,-0.67 1.19,-1.41 1.81,-2.17 10.23,-12.71 12.18,-24.69 6.3,-38.84 -1.5,-3.61 -3.64,-7.91 -5.88,-11.79 -17.73,-30.72 -51.46,-88.89 -55.28,-95.48 -4.66892,-8.0795 -10.92038,-15.13365 -18.38,-20.74 l -1.25,-0.94 h 17.96 c 4.04,0.07 7.81,2.29 9.82,5.79 l 65.52,113.48 c 3.12,5.65 4.77,11.17 4.91,16.39 l 0.03,1.19 0.59,-1.03 c 2.22277,-3.89028 4.27798,-7.87393 6.16,-11.94 1.84,-3.96 1.63,-8.58 -0.55,-12.36 L 314.35,309.4 h 11.28 c 4.03,0.11 7.77,2.34 9.75,5.85 l 53.29,92.29 0.2,-0.78 c 1.71,-6.44 3.03,-13.05 3.93,-19.62 0.96,-7.15 1.44,-14.39 1.44,-21.52 0,-1.46 -0.01,-2.9 -0.02,-4.35 m -11.9,8.24 -34.67,-60.04 0.95,0.04 c 2.59,0.11 5.06,0.32 7.13,0.59 10.36,1.36 15.75,5.84 19.89,16.55 4.43,11.45 6.68,25.22 6.69,40.91 z M 261.71,317.4 c 12.88,7.44 22.1,19.48 25.97,33.9 1.25,4.67 1.89,9.5 1.91,14.34 0,14.85 -5.83,28.86 -16.41,39.44 -3.42583,3.42226 -7.2774,6.38992 -11.46,8.83 -8.38,4.84 -17.97,7.39 -27.75,7.39 -9.81,0 -19.48,-2.57 -27.96,-7.43 -12.88,-7.44 -22.1,-19.47 -25.97,-33.89 -1.25,-4.67 -1.89,-9.5 -1.91,-14.34 0,-14.85 5.83,-28.86 16.41,-39.44 3.42,-3.42 7.28,-6.39 11.46,-8.82 8.54,-4.93 18.13,-7.39 27.75,-7.39 9.64,-0.02 19.32,2.46 27.96,7.41 m 9.27,-94.04 c 11.68,1.82 23.73,6.48 37.92,14.66 l 1.69,0.97 h -68.47 l 0.51,-0.8 c 1.39,-2.18 2.8,-4.22 4.08,-5.88 6.35,-8.29 12.93,-10.72 24.27,-8.95 m -146.15,64.48 c -4,-9.65 -2.82,-16.56 4.39,-25.5 7.41,-9.2 17.47,-17.31 31.66,-25.51 l 1.69,-0.98 -34.24,59.3 -0.44,-0.85 c -1.11695,-2.10606 -2.13799,-4.2616 -3.06,-6.46 m -4.77,133.95 -0.95,-0.04 c -2.59,-0.11 -5.06,-0.32 -7.13,-0.59 C 101.62,419.8 96.23,415.32 92.09,404.61 87.66,393.15 85.41,379.39 85.4,363.7 v -1.95 z m 105.54,70.47 -0.51,0.8 c -1.4,2.19 -2.81,4.23 -4.08,5.88 -5.17,6.75 -10.36,9.5 -17.91,9.5 -1.93,0 -4.01,-0.18 -6.37,-0.55 -11.68,-1.82 -23.73,-6.48 -37.92,-14.66 l -1.69,-0.97 z m 79.56,3.14 34.24,-59.3 0.44,0.85 c 1.2,2.31 2.26,4.55 3.06,6.47 4.01,9.65 2.82,16.56 -4.39,25.5 -7.41,9.21 -17.47,17.31 -31.66,25.51 z"
       id="path19"
       sodipodi:nodetypes="ccccccccccsccccccccssccccccccccccccccccccccccccccccccccccccccccccccccccccccccsccccccccccccccccccccccccccccccccccccccccccccccccccccccccccccccccccccccccccscccccccccccccscccsccccccccccccccccccccsccccccsccccccccccc" />
    <path
       d="M201.56 348.28v40.05c0 3.81 3.09 6.9 6.9 6.9h4.42c.37 0 .67-.3.67-.67v-18.47h13.43c.37 0 .67-.3.67-.67v-11.29c0-.37-.3-.67-.67-.67h-13.43v-15.18c0-1.06.86-1.93 1.93-1.93h27.95c.2 0 .29.26.13.38l-5.7 4.29a7.43 7.43 0 0 0-2.95 5.63v22.03c0 9.09 7.06 16.85 16.14 17.19 9.55.36 17.44-7.3 17.44-16.78v-6.82c0-.37-.3-.67-.67-.67h-10.66c-.37 0-.67.3-.67.67v6.82c0 2.86-2.51 5.14-5.43 4.76-2.42-.31-4.17-2.49-4.17-4.93v-27.57c0-2.51 1.83-4.75 4.33-4.99a4.803 4.803 0 0 1 5.27 4.78v7.4c0 .37.3.67.67.67h10.66c.37 0 .67-.3.67-.67v-7.4c0-9.27-7.52-16.79-16.79-16.79h-36.21c-7.7.02-13.93 6.25-13.93 13.93"
       id="path20" />
  </g>
</svg>
