<?xml version="1.0" encoding="UTF-8" standalone="no"?>
<svg
   xml:space="preserve"
   id="Layer_1"
   x="0"
   y="0"
   version="1.1"
   viewBox="0 0 800 800"
   sodipodi:docname="sporting-kansas-city.svg"
   inkscape:version="1.4.2 (f4327f4, 2025-05-13)"
   xmlns:inkscape="http://www.inkscape.org/namespaces/inkscape"
   xmlns:sodipodi="http://sodipodi.sourceforge.net/DTD/sodipodi-0.dtd"
   xmlns="http://www.w3.org/2000/svg"
   xmlns:svg="http://www.w3.org/2000/svg"><defs
     id="defs9" /><sodipodi:namedview
     id="namedview9"
     pagecolor="#ffffff"
     bordercolor="#000000"
     borderopacity="0.25"
     inkscape:showpageshadow="2"
     inkscape:pageopacity="0.0"
     inkscape:pagecheckerboard="0"
     inkscape:deskcolor="#d1d1d1"
     inkscape:zoom="1.06375"
     inkscape:cx="400.47004"
     inkscape:cy="400"
     inkscape:window-width="1920"
     inkscape:window-height="1111"
     inkscape:window-x="-9"
     inkscape:window-y="-9"
     inkscape:window-maximized="1"
     inkscape:current-layer="SKC-Logo" /><style
     id="style1">.st1{fill:#fff}</style><g
     id="SKC-Logo"><path
       d="M687.5 107.6c-.1-.1-.1-.2-.2-.2C599.9 57.1 500.8 30.7 400 30.9h-.2c-104.2 0-202.4 27-286.7 75.7-.2.1-.3.3-.4.5-34.6 85.1-63.3 225-19.3 348.5C132 564.1 196.9 635.8 269.8 689.3s127.2 78.8 127.8 79c.7.3 1.5.6 2.3.8.8-.2 1.5-.5 2.2-.8.6-.3 54.9-25.6 127.8-79s137.9-125.2 176.5-233.7c44.1-123.7 15.7-263-18.9-348"
       style="fill:#898d8d"
       id="path1" /><path
       d="M393.6 750.5c-4.4-1.9-107.6-48-193.6-142.3-80.3-88.2-159.2-236-78.6-439.5l1.8-4.4 4-2.6c4.6-3.1 114.6-74.9 272.5-74.9s267.9 71.8 272.5 74.9l3.9 2.6 1.8 4.4c80.6 203.5 1.8 351.3-78.5 439.4-86 94.3-189.2 140.4-193.6 142.3l-6.1 2.7z"
       class="st1"
       id="path2" /><path
       d="M664 174.8c-.2-.3-.4-.6-.7-.8-7.9-5.1-114.5-72-263.7-72-149.7 0-256.5 67.4-263.8 72.1-.2.2-.4.4-.6.7-150 379.6 264.4 561.9 264.4 561.9S813.9 554.4 664 174.8"
       style="fill:#0c2340"
       id="path3" /><path
       d="m494.9 401.1-.2.8c-.1.4-.1.8-.2 1.1 0-.1.1-.2.1-.3.2-.5.3-1 .3-1.6"
       style="fill:none"
       id="path4" /><path
       d="M524.2 344.1c-1.3.4-.4 1.7.3 2.5 1.2 1.3 8 9.8 9.2 10.9 1 1 1.1 1.8 3 1.5 1.9-.6 3.7-1 5.6-1.4 2.9-.5 5.9-.9 8.9-1h1.6c5.6-.2 11.2.2 16.7 1.2 20.2 3.4 22 20.1 22.1 20.8v.5c.2 3.8.4 11.8-8 18.3-.4.3-.5.7-.4 1.1s.5.7.9.8c3.3.3 6.7.5 10 .5h2.8c8-.2 14-2 18-5.5s6.1-8.7 5.9-15.4c0-.2-.1-24.2-34.7-35.3-10.5-3.4-21.7-4.1-29.3-4.1-3.3 0-6.6.1-9.9.5-4.3.3-8.6.9-12.9 1.7-3.5.8-6.3 1.5-9.8 2.4m99.3 158.5c-.4-.3-.9-.3-1.3-.1-10.9 7.4-23.9 11.1-38.6 11.1-9 0-18-1.4-26.6-3.9q-2.7-.75-5.4-1.8c-2.6-1-5.2-2.1-7.7-3.4-4.8-2.4-9.3-5.3-13.5-8.5-1.7-1.3-3.2-2.6-4.7-3.9-11-9.8-19.7-21.9-25.4-35.4-4.9-12.3-8-22.8-7.8-37.3.1-5.5.7-11 2-16.3.1-.4.3-1.8.3-1.8q.15-1.05-.6-1.8c-1-1.2-17-20.7-18-21.7-.9-.8-1.4-2.4-2.6-2.1-3.2 4.4-6 9.1-8.3 14.1-.3.7-.7 1.5-1 2.2-.2.4-.4.8-.5 1.1v.2c-4.6 11.3-6.8 24.2-6.4 38.3 0 .4 1.6 40 30.6 67.1 7.7 7.2 16.3 13.3 25.6 18.2 1.8.9 3.5 1.7 5.3 2.5q10.8 4.95 22.5 7.5 3.45.75 6.3 1.2c4.8.7 9.6 1.1 14.5 1.1 2.1 0 4.3-.1 6.4-.3 35.8-1.3 51.7-16.4 55.4-25.2-.1-.3-.2-.8-.5-1.1"
       class="st1"
       id="path5" /><path
       d="m484.4 362.3 23.1 28.6c0 .1.1.2.2.2l.3.3c1.1 1.3 2.1 2.6 3.2 3.9l.5.8c17.6 25.3 26.5 49.2 26.5 71 0 1.8-.1 3.7-.2 5.5l-.1 1.4c-.1 1.3-.2 2.6-.4 3.9v.3c-.1.6-.2 1.1-.2 1.7-.1.9-.3 1.7-.4 2.5-.7 3.3-1.5 6.6-2.5 9.8-.3.9.8 1.4 1.6 1.9 6.9 4.2 14.2 7.6 21.8 10.3.9.3 1.2.3 1.4-.3q3.15-7.35 5.1-15c0-.1.1-.3.1-.4 2.9-10.7 4.4-21.8 4.4-32.9 0-18.8-4.1-37.3-12.1-54.3-4.9-10.1-10.7-19.7-17.3-28.7-1.1-1.6-2.2-3.1-3.4-4.7-.3-.4-.6-.8-1-1.2l-.9-1.2c-1.2-1.5-2.4-3.1-3.7-4.6-.6-.8-1.3-1.7-2-2.5-.9-1.1-1.8-2.1-2.7-3.2l-1.9-2.3c-1.1-1.4-2.3-2.7-3.4-4.1l-4.9-5.8c-6.9-8.2-13.8-16.5-20.6-24.8-19.3-24.5-29.4-42.9-30-54.6-.4-6.8 1.9-12 7-16 5.5-4.3 11-6.1 19-6.1 5 0 10.6 2.8 14.3 7 3.6 4.4 5.3 8.5 5.3 12.3v.5c0 3.8.1 11.8-8.5 18.1-.4.2-.5.7-.4 1.1s.5.7.9.8c4.2.5 8.5.8 12.8.8 16 0 24.3-6.8 24.5-20.3.2-6.6-2.1-16.2-13.8-24.9-8.9-6.6-20.5-10.8-30.9-11.4-15.3-.8-30.4 3.3-43.2 11.8-12.3 8-18.8 20.2-18.8 35 0 16.2 9.2 36.3 27.4 59.8 7.9 10.3 15.9 20.1 23.9 30m30.4 172.2c-1.7-.8-2.2-.8-3.2.7-1.7 2.3-3.6 4.7-5.5 7-18.4 21.7-42.1 40.2-70.4 55-.5.3-.7.9-.4 1.5.2.3.5.5.9.5h.2c31.8-5.1 59.5-18.3 82.6-39.4.1-.1.2-.2.4-.3l.3-.3c3.2-2.9 6-5.7 8.6-8.5 2.6-2.7 5-5.5 7.3-8.5.4-.4 0-.9-.4-1-7.1-1.5-14-3.7-20.4-6.7"
       class="st1"
       id="path6" /><path
       d="M494.4 403.1c0-.1 0 0 0 0"
       style="fill:#0a2240"
       id="path7" /><path
       d="M399.7 433.6v-52.1c-96.4 4.5-184.2 35.8-253.2 85.3 6.1 14.5 13.3 28.6 21.3 42.2 63.8-42.8 143.9-70.3 231.9-75.4m-280.1-98.1c53.3-35.8 115.2-61.9 182.6-75.2-14.5-17.2-28.2-33-41.3-47.7-46.4 12.4-90.8 31.3-132 56.1-5.9 24.5-9 45.6-9.3 66.8M330.2 294c-77.7 12.3-148.6 41.7-207.7 83.8 1.7 12.1 4.2 24.8 7.5 38.8 1 4.4 2.1 8.7 3.4 13 65.5-46.9 147.1-77.9 236.9-86-14-17.5-27.4-34.1-40.1-49.6m69.5 370.4c-22.1 2.7-43.9 7-65.4 12.8 21 13.9 42.8 26.5 65.4 37.7zm0-138.7v-50.2c-79.1 5.7-151.4 29.8-210 67 9 12.3 18.7 24.4 29.3 36.3 51.7-28.6 113.5-47.5 180.7-53.1m0 92.4v-48.3c-54.8 5.4-105.6 19.7-149.7 41 12.8 12.2 25.9 23.3 38.7 33.5 35.6-13.5 73-22.3 111-26.2"
       style="fill:#a7c6ed"
       id="path9" /></g></svg>
