<?xml version="1.0" encoding="UTF-8" standalone="no"?>
<svg
   id="Layer_1"
   data-name="Layer 1"
   viewBox="0 0 800 800"
   version="1.1"
   sodipodi:docname="st-louis-city-sc.svg"
   inkscape:version="1.4.2 (f4327f4, 2025-05-13)"
   xmlns:inkscape="http://www.inkscape.org/namespaces/inkscape"
   xmlns:sodipodi="http://sodipodi.sourceforge.net/DTD/sodipodi-0.dtd"
   xmlns="http://www.w3.org/2000/svg"
   xmlns:svg="http://www.w3.org/2000/svg">
  <sodipodi:namedview
     id="namedview7"
     pagecolor="#ffffff"
     bordercolor="#000000"
     borderopacity="0.25"
     inkscape:showpageshadow="2"
     inkscape:pageopacity="0.0"
     inkscape:pagecheckerboard="0"
     inkscape:deskcolor="#d1d1d1"
     inkscape:zoom="1.06375"
     inkscape:cx="400.47004"
     inkscape:cy="400"
     inkscape:window-width="1920"
     inkscape:window-height="1111"
     inkscape:window-x="-9"
     inkscape:window-y="-9"
     inkscape:window-maximized="1"
     inkscape:current-layer="Layer_1" />
  <defs
     id="defs1">
    <style
       id="style1">.cls-1{fill:#fff}.cls-2{fill:#ec1458}.cls-3{fill:#001544}</style>
  </defs>
  <path
     d="M662.49 107.85c-3-.32-6.24-.67-9.74-1.15-53-7.32-81.7-29-112.11-52C507.53 29.69 470 1.34 400 1.34S292.47 29.69 259.36 54.71c-30.41 23-59.13 44.68-112.12 52-3.49.48-6.7.83-9.74 1.15-12 1.28-43.73 4.66-43.73 38.14v327.8c0 83.36 26.21 153.5 77.91 208.47 50.86 54.06 125.81 92.8 222.77 115.11l5.55 1.28 5.55-1.28c97-22.32 171.92-61 222.77-115.11 51.7-55 77.91-125.11 77.91-208.47V146c0-33.49-31.77-36.87-43.74-38.15"
     class="cls-1"
     id="path1" />
  <path
     d="M400 33.55c-59.25 0-89.39 22.77-121.3 46.89-32.36 24.45-65.83 49.73-127.11 58.19-3.86.53-7.4.92-10.75 1.27-15 1.6-15 2.66-15 6.19V474c0 74.93 23.28 137.67 69.2 186.49C241.13 709.52 310.08 745 400 765.92c89.86-20.93 158.81-56.4 205-105.46 45.82-48.82 69.1-111.56 69.1-186.46V146.09c0-3.53 0-4.59-15-6.19-3.35-.35-6.88-.74-10.74-1.27-61.29-8.46-94.75-33.74-127.11-58.19C489.33 56.32 459.19 33.55 400 33.55"
     class="cls-2"
     id="path2" />
  <path
     d="M493.68 60.66V735.6q-42.17 18.3-93.74 30.33C310.07 745 241.14 709.51 195 660.45c-45.92-48.82-69.2-111.55-69.2-186.48V146.1c0-3.54 0-4.61 15-6.21 3.35-.34 6.88-.73 10.74-1.26 61.28-8.46 94.76-33.76 127.1-58.19 31.93-24.13 62.05-46.89 121.3-46.89 42.38 0 69.85 11.63 93.74 27.11"
     class="cls-3"
     id="path3" />
  <path
     d="M472.56 153c-21-15.33-43.43-23.37-66.35-23.37h-1.41c-46 0-89.92 32.14-123.83 90.55-22.24 38.24-85.21 159.48-146.08 276.77-2.35 4.56-4.74 9.14-7.12 13.72a273.5 273.5 0 0 0 16.87 70.2C216.32 445 304.8 278.06 327.82 236.94c25.46-45.47 50.81-67.31 77.74-66.87 26.74-.5 52.07 21.4 77.53 66.87 3.25 5.79 7.78 14.06 13.38 24.38v-86.95A172.4 172.4 0 0 0 472.56 153M177.25 344.8l21.21-38.37a648 648 0 0 0-72.68 19.77v35q25.07-9 51.05-15.71ZM159 381.15q-16.84 5.39-33.26 11.76v35.67c3-1.25 6-2.46 9.06-3.66Z"
     class="cls-2"
     id="path4" />
  <path
     d="M318.24 332.8q8.08-.24 16.26-.24a620.5 620.5 0 0 1 162 21.06v-34.23a653.2 653.2 0 0 0-160.71-20ZM408.7 378a601 601 0 0 0-71.06-4.71c-2.12-.05-4.21-.05-6.36-.05q-17.52 0-34.86 1.05l-18 34.26-.65 1.25L165.9 623a243.6 243.6 0 0 0 23.87 31.72l130-247.41c3.85-.08 7.75-.13 11.63-.13 10.21 0 20.32.23 30.41.73l1.08.07-1 1.87L216.61 681a307 307 0 0 0 29 21.9l155.16-289.4 1.13-2.12a563 563 0 0 1 94.57 19.82v-35.41a600 600 0 0 0-78-16.5c-3.25-.47-6.47-.89-9.77-1.29"
     class="cls-2"
     id="path5" />
  <path
     d="M660.67 125.18c-2.88-.31-6.48-.69-10.27-1.22C593 116 561.11 92 530.27 68.65 497.8 44.12 464.23 18.76 400 18.76s-97.81 25.37-130.3 49.92C238.88 92 207 116 149.6 124c-3.83.54-7.41.91-10.28 1.22-12.63 1.34-28.36 3-28.36 21V474c0 78.83 24.65 145 73.25 196.68s120.52 88.6 214.11 110.14l1.65.39 1.69-.39c93.59-21.55 165.63-58.6 214.1-110.14S689 552.87 689 474V146.21c0-18.01-15.69-19.69-28.33-21.03m13.3 21V474c0 74.88-23.26 137.58-69.15 186.36-46.1 49-115 84.48-204.82 105.39-89.8-20.91-158.71-56.37-204.82-105.39C149.3 611.6 126 548.9 126 474V146.21c0-3.43 0-4.47 14.88-6.05 3.67-.39 7-.76 10.75-1.27 61.3-8.47 94.77-33.75 127.15-58.21 31.89-24.1 62-46.86 121.19-46.86s89.3 22.76 121.19 46.86c32.37 24.45 65.84 49.74 127.15 58.21 3.71.51 7.06.87 10.74 1.27 14.95 1.58 14.95 2.62 14.95 6.05Z"
     class="cls-3"
     id="path6" />
  <path
     d="m 359.84,681.35 c 0,3.79 3.09,5.54 14.79,5.54 9.71,0 12.63,-1.08 12.63,-3.9 0,-3 -2.05,-3.5 -13.71,-4.06 -15.66,-0.72 -21.87,-3.18 -21.87,-11.24 0,-8.06 8.06,-10.43 21.52,-10.43 13.46,0 21.8,3.39 21.8,12.28 h -9.25 c 0,-4 -4,-4.93 -13.55,-4.93 -9.09,0 -11.25,0.87 -11.25,3.54 0,2.67 2.16,3.28 12.63,3.9 14.18,0.77 23,1.54 23,10.63 0,9.6 -9.09,11.55 -22.39,11.55 -14.74,0 -23.52,-2.51 -23.52,-12.88 z m 65.47,-24.09 c 14.32,0 21.51,5.44 22.43,15.82 h -9.39 c -0.87,-5.81 -5.34,-8.07 -13,-8.07 -9.4,0 -13.36,3.34 -13.36,10.68 0,7.34 4,10.79 13.36,10.79 7.65,0 12.17,-2.31 13,-8.17 h 9.39 c -0.92,10.43 -8.11,15.92 -22.43,15.92 -15.82,0 -22.6,-6.57 -22.6,-18.54 0,-11.97 6.78,-18.43 22.6,-18.43"
     class="cls-1"
     id="path7"
     sodipodi:nodetypes="csscssccsscsscccccsssccssc" />
</svg>
