<?xml version="1.0" encoding="UTF-8" standalone="no"?>
<svg
   xml:space="preserve"
   id="logo_aplati"
   x="0"
   y="0"
   version="1.1"
   viewBox="0 0 452.8 565.7"
   sodipodi:docname="as-saint-etienne.svg"
   inkscape:version="1.4.2 (f4327f4, 2025-05-13)"
   xmlns:inkscape="http://www.inkscape.org/namespaces/inkscape"
   xmlns:sodipodi="http://sodipodi.sourceforge.net/DTD/sodipodi-0.dtd"
   xmlns="http://www.w3.org/2000/svg"
   xmlns:svg="http://www.w3.org/2000/svg"><defs
     id="defs21" /><sodipodi:namedview
     id="namedview21"
     pagecolor="#ffffff"
     bordercolor="#000000"
     borderopacity="0.25"
     inkscape:showpageshadow="2"
     inkscape:pageopacity="0.0"
     inkscape:pagecheckerboard="0"
     inkscape:deskcolor="#d1d1d1"
     inkscape:zoom="1.4265511"
     inkscape:cx="226.06971"
     inkscape:cy="282.85001"
     inkscape:window-width="1920"
     inkscape:window-height="1009"
     inkscape:window-x="-8"
     inkscape:window-y="-8"
     inkscape:window-maximized="1"
     inkscape:current-layer="logo_aplati" /><style
     id="style1">.st0{fill:#fff}.st2{fill:#1d995b}</style><path
     d="M226.4 564.1c-60.2-30.9-112.8-81.4-152.3-145.9C33.4 351.6 8.7 273 2.5 190.7 1 171.2.6 151.5 1.3 132c68.2-41.7 146.1-63.8 225.1-63.8S383.2 90.3 451.5 132c.7 19.4.3 39.2-1.2 58.7-6.1 82.3-30.9 160.9-71.6 227.4-39.5 64.6-92.2 115-152.3 146"
     class="st0"
     id="path1" /><path
     d="M226.4 76.2c39.5 0 78.6 5.5 116.4 16.4 35.1 10.1 69 24.9 100.8 43.9.5 17.7 0 35.7-1.3 53.5-6.1 81-30.4 158.4-70.4 223.8-37.9 62-88.1 110.7-145.5 141.1-57.4-30.3-107.6-79-145.5-140.9-40-65.4-64.4-142.8-70.4-223.8-1.3-17.8-1.8-35.8-1.3-53.5 31.8-19 65.7-33.8 100.8-43.9 37.7-11 76.9-16.6 116.4-16.6m0-9C144.1 67.2 67 90.6.4 131.4q-1.05 29.25 1.2 59.4C14.3 361.4 105.1 503 226.4 565.2 347.7 503 438.5 361.4 451.3 190.8q2.25-30.15 1.2-59.4c-66.7-40.8-143.9-64.2-226.1-64.2"
     style="fill:#cdb789"
     id="path2" /><path
     d="M226.4 541.3c-53.1-29.6-99.7-75.7-135.2-133.6-39-63.8-62.8-139.3-68.7-218.4-1.1-15.2-1.6-30.5-1.4-45.6 62.8-36.2 133.6-55.3 205.3-55.3 71.6 0 142.5 19.1 205.3 55.3.2 15.2-.3 30.5-1.4 45.6-5.9 79.1-29.7 154.6-68.7 218.4-35.5 58-82.2 104-135.2 133.6"
     class="st2"
     id="path3" /><path
     d="M90.4 332.1v56.4c2.8 4.9 5.6 9.8 8.5 14.6 13.6 22.3 29 42.8 45.7 61.2v-69.8c-20.3-18.3-38.6-39.3-54.2-62.4M308.2 394.4v69.8c16.8-18.4 32.1-38.9 45.7-61.2 2.9-4.8 5.8-9.6 8.5-14.6V332c-15.7 23.2-33.9 44.2-54.2 62.4M226.4 447.9c-12.1-5.4-23.7-11.6-35-18.6v78c11.3 8.7 23 16.6 35 23.5 12-7 23.7-14.8 35-23.5v-78c-11.3 7-23 13.2-35 18.6"
     class="st0"
     id="path4" /><path
     d="M207.5 470.2v24.9h-3.8v-18.5c-.8 1.2-2.2 1.8-3.3 1.8V475c1.8-.2 3.3-1.8 3.3-4.8zM222.6 474.4v16.9c0 2.6-1.1 3.7-3.5 3.7h-8v-3.6h7.8v-6.3h-5c-2.6 0-3.6-1.3-3.6-4.1v-6.7c0-2.6 1.1-4.2 3.4-4.2h5.3c2.4.1 3.6 1.5 3.6 4.3m-8.6 7.3h4.9v-8H214zM225.1 490.9v-3.3h3.8v4h4.9v-7.8h-4.7v-3.4h4.6v-6.9h-4.8v3.3h-3.7V474c0-2.7.7-3.9 3.6-3.9h5.2c2.7 0 3.4 1.3 3.4 3.8v5.5c0 1.3-.4 2.1-1.2 2.6.9.5 1.3 1.4 1.3 3v5.9c0 2.5-1.1 4-3.5 4h-5.3c-2.6.2-3.6-1.5-3.6-4M239.9 490.9v-3.3h3.8v4h4.9v-7.8h-4.7v-3.4h4.6v-6.9h-4.8v3.3H240V474c0-2.7.7-3.9 3.6-3.9h5.2c2.7 0 3.4 1.3 3.4 3.8v5.5c0 1.3-.4 2.1-1.2 2.6.9.5 1.3 1.4 1.3 3v5.9c0 2.5-1.1 4-3.5 4h-5.3c-2.6.2-3.6-1.5-3.6-4"
     class="st2"
     id="path5" /><path
     d="M237.2 338c.5-.2 1-.3 1.5-.5 7.6-2.1 21.5-9.2 5-8.7l-2.9.3s29.9-11 30.7-18.9c0 0 .6-1.9-8.9-.5 0 0 20.8-17.1 20.5-23.1 0 0 .8-4.5-5.8.3 0 0 3.2-20-1.1-22.3 0 0-5 35.5-41.8 60.7 0 0-3.2 1.9-8 5.1-4.9-3.3-8.3-5.3-8.3-5.3-36.8-25.2-41.8-60.7-41.8-60.7-4.2 2.4-1.1 22.3-1.1 22.3-6.6-4.7-5.8-.3-5.8-.3-.3 6 20.5 23.1 20.5 23.1-9.8-2.2-8.9.5-8.9.5.8 7.9 30.7 18.9 30.7 18.9l-2.9-.3c-17.2-1-2.6 6.6 5 8.7.6.2 1.2.4 1.9.6-14.4 11.1-32 27.7-31.8 43.2 0 0 12.6-18.4 19.2-23.4s16-6 16-7.6-6-2.1-6-2.1 6.5-3.1 13.4-6c6.7 2.8 12.9 5.8 12.9 5.8s-6 .5-6 2.1 9.5 2.6 16 7.6c6.6 5 19.2 23.4 19.2 23.4.2-15.3-17-31.8-31.4-42.9"
     class="st0"
     id="path6" /><path
     d="M203.8 289c-.3.4-.4.9-.4 1.5 0 1.6 1.3 2.9 2.9 2.9.3 0 .7-.1 1-.2l.3.8 1.6 5.7c4.8-1.1 11.2-1.4 17.7-1.4 6.2 0 12.4.3 17 1.4l1.6-5.7.3-.8c.3.1.6.2 1 .2 1.6 0 2.9-1.3 2.9-2.9 0-.5-.2-1.1-.4-1.5 1.3-.9 2.5-3 2.8-4.1 1.8-6.5-2.9-8.9-7.2-8.1.1.8.2 1.6.2 2.3 0 1-.1 1.9-.2 2.8.3 0 .6-.1 1 0 2.8.3 3.6 3.9 2.9 6.4-.5-.4-1.1-.7-1.8-.7-1.6 0-2.9 1.3-2.9 2.9 0 .8.3 1.4.8 2l-4.6 3-1.4-4.6c1.4-.2 2.4-1.4 2.4-2.8 0-.5-.1-.9-.3-1.3 1.1-1.3 2.1-3.1 2.4-4.1 3.5-12.8-13.1-13-16.6-4.5-3.5-8.5-20.1-8.4-16.6 4.5.3 1.1 1.3 2.8 2.4 4.1-.2.4-.3.8-.3 1.3 0 1.4 1.1 2.6 2.4 2.8l-1.4 4.6-4.6-3c.5-.5.8-1.2.8-2 0-1.6-1.3-2.9-2.9-2.9-.7 0-1.3.2-1.8.7-.7-2.5.1-6.1 2.9-6.4h1c-.2-.9-.2-1.9-.2-2.8 0-.8.1-1.6.2-2.3-4.4-.8-9 1.6-7.2 8.1-.2 1.1 1 3.2 2.3 4.1m25.5-6.5c1.1-2.6 3.5-3.8 5.7-3.6 3 .3 4.2 3.6 3.9 6.4-.3-.1-.6-.2-1-.2-1.6 0-2.9 1.3-2.9 2.9 0 1 .5 1.8 1.2 2.3l-4.8 2.7-2.4-3.8c1-.8 1.7-2.1 1.7-3.5.1-1.2-.5-2.4-1.4-3.2m-15.5 2.8c-.2-2.9 1-6.2 3.9-6.4 2.2-.2 4.6 1 5.7 3.6-.9.8-1.5 2-1.5 3.3 0 1.4.7 2.7 1.7 3.5l-2.4 3.8-4.8-2.7c.7-.5 1.2-1.4 1.2-2.3 0-1.6-1.3-2.9-2.9-2.9-.3 0-.6 0-.9.1M242.7 301.6c-4.3-1.1-10.1-1.4-16-1.4-6.1 0-12.2.3-16.6 1.4l.6 3.2c10-1.2 21.4-1.2 31.4 0zM210.9 306.7c0 1.9 31.1 1.9 31.1 0-.1-1.9-31.1-1.9-31.1 0"
     class="st0"
     id="path7" /><path
     d="M223.2 270.9c-.9-1.5 1.3-2.1 2.2-.5.1.1.1.2.2.4-.2.1-.4.3-.4.6s.2.5.5.6c-.2.6-1 .9-1.5.5.1.7.8.9 1.4.7 0 .5.2 1.1.9 1.5.7-.5.9-1 .9-1.5.6.2 1.2 0 1.4-.7-.5.3-1.3.1-1.5-.5.3-.1.5-.3.5-.6s-.2-.5-.4-.6c0-.1.1-.2.2-.4.9-1.6 3.1-1 2.2.5 4.5-.6.7-6.8-2.7-1 .2-1.1.8-2 .8-3.9 0-1.7-.7-2.4-1.3-3.2-.7.8-1.3 1.5-1.3 3.2 0 1.9.6 2.8.8 3.9-3.6-5.8-7.4.4-2.9 1M228.4 374.8v-6.2h-4.1v6.2h-6.1v4.1h6.1v6.2h4.1v-6.2h6.2v-4.1z"
     class="st0"
     id="path8" /><circle
     cx="226.4"
     cy="366.6"
     r="2.1"
     class="st0"
     id="circle8" /><circle
     cx="236.7"
     cy="376.8"
     r="2.1"
     class="st0"
     id="circle9" /><circle
     cx="216.1"
     cy="376.8"
     r="2.1"
     class="st0"
     id="circle10" /><circle
     cx="226.4"
     cy="387.1"
     r="2.1"
     class="st0"
     id="circle11" /><path
     d="M278.9 336.6v-6.2h-4.1v6.2h-6.1v4.1h6.1v6.1h4.1v-6.1h6.2v-4.1z"
     class="st0"
     id="path11" /><circle
     cx="276.9"
     cy="328.3"
     r="2.1"
     class="st0"
     id="circle12" /><circle
     cx="287.2"
     cy="338.6"
     r="2.1"
     class="st0"
     id="circle13" /><circle
     cx="266.6"
     cy="338.6"
     r="2.1"
     class="st0"
     id="circle14" /><circle
     cx="276.9"
     cy="348.9"
     r="2.1"
     class="st0"
     id="circle15" /><path
     d="M177.9 336.5v-6.2h-4.1v6.2h-6.1v4.1h6.1v6.1h4.1v-6.1h6.2v-4.1z"
     class="st0"
     id="path15" /><circle
     cx="175.9"
     cy="328.2"
     r="2.1"
     class="st0"
     id="circle16" /><circle
     cx="186.2"
     cy="338.5"
     r="2.1"
     class="st0"
     id="circle17" /><circle
     cx="165.6"
     cy="338.5"
     r="2.1"
     class="st0"
     id="circle18" /><circle
     cx="175.9"
     cy="348.8"
     r="2.1"
     class="st0"
     id="circle19" /><path
     d="M 202.7,76.8 164.3,48.9 h 47.4 L 226.4,3.8 241,48.9 h 47.5 L 250.1,76.8 264.8,121.9 226.4,94 188,121.9 Z"
     class="st0"
     id="path19"
     sodipodi:nodetypes="ccccccccccc" /><path
     d="m226.4 15.2 11.1 34.1 1 3.1h39.1l-29 21.1-2.7 1.9 1 3.1 11.1 34.1-29-21.1-2.7-1.9-2.7 1.9-29 21.1 11.1-34.1 1-3.1-2.7-1.9-29-21.1h39.3l1-3.1zm0-14.6L211 47.9h-49.8l40.3 29.3-15.4 47.4 40.3-29.3 40.3 29.3-15.4-47.3L291.6 48h-49.8z"
     style="fill:#254d98"
     id="path20" /><path
     d="m226.4 46.4 4.3 13.4.8 2.3H248l-11.4 8.3-2 1.4.8 2.3 4.3 13.4-11.4-8.3-2-1.4-2 1.4-11.3 8.3 4.3-13.4.8-2.3-2-1.4-11.4-8.3h16.6l.8-2.3zm0-10.9-7.5 23.2h-24.5l19.8 14.4-7.6 23.2 19.8-14.4 19.8 14.4-7.6-23.2 19.8-14.4H234z"
     style="fill:#d2353b"
     id="path21" /></svg>
