<?xml version="1.0" encoding="UTF-8" standalone="no"?>
<svg
   width="154.797"
   height="196"
   version="1.1"
   id="svg50"
   sodipodi:docname="auxerre.svg"
   inkscape:version="1.4.2 (f4327f4, 2025-05-13)"
   xmlns:inkscape="http://www.inkscape.org/namespaces/inkscape"
   xmlns:sodipodi="http://sodipodi.sourceforge.net/DTD/sodipodi-0.dtd"
   xmlns="http://www.w3.org/2000/svg"
   xmlns:svg="http://www.w3.org/2000/svg">
  <defs
     id="defs50" />
  <sodipodi:namedview
     id="namedview50"
     pagecolor="#ffffff"
     bordercolor="#000000"
     borderopacity="0.25"
     inkscape:showpageshadow="2"
     inkscape:pageopacity="0.0"
     inkscape:pagecheckerboard="0"
     inkscape:deskcolor="#d1d1d1"
     inkscape:zoom="4.1173469"
     inkscape:cx="77.355638"
     inkscape:cy="89.742255"
     inkscape:window-width="1920"
     inkscape:window-height="1009"
     inkscape:window-x="-8"
     inkscape:window-y="-8"
     inkscape:window-maximized="1"
     inkscape:current-layer="g50" />
  <g
     data-name="Groupe 320"
     id="g50">
    <path
       fill="#1c4f9c"
       d="M77.398 196c13.283-18.532 51.2-25.329 64.792-28.726s12.591-13.13 12.591-13.13V0H.017v154.144s-1 9.732 12.589 13.13S64.115 177.468 77.398 196"
       data-name="Tracé 11353"
       id="path1" />
    <path
       fill="#fff"
       d="m77.405 192.193-.376-.4c-13.566-15.141-42.732-21.887-58.4-25.51a361 361 0 0 1-5.451-1.292c-11.107-2.776-10.875-9.831-10.812-10.626l.008-.215V2.382l.346-.023h149.705l.01 152.031c.067.933.175 7.849-10.812 10.6a374 374 0 0 1-5.453 1.292c-15.724 3.636-44.991 10.4-58.509 25.63Zm-74.354-37.74c-.059.9-.1 7.265 10.293 9.863 1.509.376 3.319.8 5.415 1.283 15.713 3.634 44.865 10.375 58.639 25.565 13.773-15.189 42.914-21.929 58.614-25.559a367 367 0 0 0 5.442-1.289c10.567-2.642 10.348-9.165 10.288-9.9l-.011-.27V3.05H3.066v151.249Z"
       data-name="Tracé 11354"
       id="path2" />
    <path
       fill="#fff"
       d="M5.809 6.026h142.716v26.566H5.809z"
       data-name="Rectangle 2276"
       id="path3" />
    <g
       data-name="Groupe 316"
       id="g16">
      <path
         fill="#fff"
         d="m77.398 97.23-50.12-23.4 14.827 23.4-14.827 23.4z"
         data-name="Tracé 11366"
         id="path15" />
      <path
         fill="#1c4f9c"
         d="m44.577 97.23-6.178-10.892 11.12 10.892-11.12 10.888Z"
         data-name="Tracé 11367"
         id="path16" />
    </g>
    <g
       data-name="Groupe 317"
       id="g18">
      <path
         fill="#fff"
         d="m77.398 97.23 23.4-50.119-23.4 14.824-23.4-14.824z"
         data-name="Tracé 11368"
         id="path17" />
      <path
         fill="#1c4f9c"
         d="m77.398 64.409 10.89-6.178-10.89 11.118L66.51 58.231Z"
         data-name="Tracé 11369"
         id="path18" />
    </g>
    <g
       data-name="Groupe 318"
       id="g20">
      <path
         fill="#fff"
         d="m77.398 97.23 50.121-23.4-14.828 23.4 14.828 23.4z"
         data-name="Tracé 11370"
         id="path19" />
      <path
         fill="#1c4f9c"
         d="m110.219 97.23 6.177-10.892-11.118 10.892 11.12 10.888Z"
         data-name="Tracé 11371"
         id="path20" />
    </g>
    <g
       data-name="Groupe 319"
       id="g22">
      <path
         fill="#fff"
         d="m77.398 97.235 23.4 50.118-23.4-14.827-23.4 14.827z"
         data-name="Tracé 11372"
         id="path21" />
      <path
         fill="#1c4f9c"
         d="m77.398 130.052 10.89 6.176-10.89-11.117-10.888 11.116Z"
         data-name="Tracé 11373"
         id="path22" />
    </g>
    <path
       fill="#1c4f9c"
       d="M77.398 120.6a23.373 23.373 0 1 0-23.372-23.366A23.37 23.37 0 0 0 77.398 120.6"
       data-name="Tracé 11374"
       id="path23" />
    <path
       fill="#fff"
       d="M77.397 116.341A19.112 19.112 0 1 0 58.288 97.23a19.11 19.11 0 0 0 19.109 19.111"
       data-name="Tracé 11375"
       id="path24" />
    <path
       fill="#1c4f9c"
       d="M77.398 114.374A17.145 17.145 0 1 0 60.252 97.23a17.146 17.146 0 0 0 17.146 17.144"
       data-name="Tracé 11376"
       id="path25" />
    <path
       fill="#fff"
       d="m67.745 82.865-.926 3.321-2.782.387.775-1.315Z"
       data-name="Tracé 11377"
       id="path26" />
    <path
       fill="#fff"
       d="m66.974 91.283-4.864 6.64 3.549 7.414 7.184-2.007-.077-9.111Z"
       data-name="Tracé 11378"
       id="path27" />
    <path
       fill="#fff"
       d="m70.987 105.881 1.622 5.33 4.789-1.624 4.481 1.39 2.393-4.862-3.166-1.162v-4.788h-6.643v4.632Z"
       data-name="Tracé 11379"
       id="path28" />
    <path
       fill="#fff"
       d="M77.398 97.231h-2.935l-.077-4.1-3.087-1.618 3.319-4.791 3.783 1.39 3.71-1.158 3.01 5.174-3.476 1.545v3.553Z"
       data-name="Tracé 11380"
       id="path29" />
    <path
       fill="#fff"
       d="M83.035 94.912v8.724l6.49 2.009 3.629-6.022-3.554-7.414Z"
       data-name="Tracé 11381"
       id="path30" />
    <path
       fill="#fff"
       d="m94.542 93.906.464 4.327-1.467-2.163Z"
       data-name="Tracé 11382"
       id="path31" />
    <path
       fill="#fff"
       d="m90.142 85.335.075 2.318 2.086.386Z"
       data-name="Tracé 11383"
       id="path32" />
    <path
       fill="#fff"
       d="m87.902 84.408-.851-.23v.926l-2.239 1 3.012 4.712 2.393-.771 1.622 2.778 1-2.469-4.015-1.779Z"
       data-name="Tracé 11384"
       id="path33" />
    <path
       fill="#fff"
       d="m61.567 91.67.774 3.242-2.32 2.936.155-4.17Z"
       data-name="Tracé 11385"
       id="path34" />
    <path
       fill="#fff"
       d="m60.715 98.232 1.39 3.012-1.16 1.7-.849-3.472Z"
       data-name="Tracé 11386"
       id="path35" />
    <path
       fill="#fff"
       d="m63.265 104.178 1.622 2.858 3.629-.539 1.777 5.482-.617.537-3.089-1.927-3.012-2.935-1.232-2.013Z"
       data-name="Tracé 11387"
       id="path36" />
    <path
       fill="#fff"
       d="m71.684 113.291 5.946-2.163 5.175 2.163-2.316.928-5.794.08Z"
       data-name="Tracé 11388"
       id="path37" />
    <path
       fill="#fff"
       d="m73.46 80.625-1.544 3.089 6.64 2.705 6.179-2.241-1-2.857-3.783-1.392-3.244-.075Z"
       data-name="Tracé 11389"
       id="path38" />
    <path
       fill="#fff"
       d="m84.27 112.052 2.626-5.019 3.089.771 1.931-2.857.539.694-1.775 2.7-1.852 2.009-2.627 1.932-1.081.387Z"
       data-name="Tracé 11390"
       id="path39" />
    <path
       fill="#fff"
       d="m63.187 88.346 1.083 3.71 2.393-2.78 2.471 1 3.014-4.325-2.239-1.39.385-1.237-1.16-.307-1.313 4.477Z"
       data-name="Tracé 11391"
       id="path40" />
    <path
       fill="#fff"
       d="m61.936 103.367-.115-.077 1.062-1.588-1.7-3.708 1.859-2.709-1.077-4.76.135-.03 1.09 4.819-.017.025-1.832 2.669 1.7 3.707Z"
       data-name="Tracé 11392"
       id="path41" />
    <path
       fill="#fff"
       d="m70.976 113.085-.129-.049.223-.594-2.294-6.717-3.309.772-1.984-3.282-1.326 1.549-.1-.09 1.45-1.695 2.031 3.36 3.333-.778 2.346 6.882Z"
       data-name="Tracé 11393"
       id="path42" />
    <path
       fill="#fff"
       d="m72.178 111.988-.02-.067-2.026-6.626 3.492-1.318.079-4.5h8.165v5.044l3.349 1.326-3.072 6.07-.058-.021-4.459-1.616Zm-1.877-6.61 1.968 6.436 5.363-1.685 4.445 1.611 2.949-5.826-3.3-1.3v-5h-7.891l-.079 4.462Z"
       data-name="Tracé 11394"
       id="path43" />
    <path
       fill="#fff"
       d="m84.069 113.11-.888-.886.025-.045 3.269-5.991 3.092.691 4.587-7.259-1.617-3.159 1.556-3.738.128.053-1.531 3.678 1.623 3.172-4.681 7.408-3.086-.689-3.194 5.854.815.813Z"
       data-name="Tracé 11395"
       id="path44" />
    <path
       fill="#fff"
       d="m91.997 94.838-1.889-3.7-2.547.924-3.93-6.368 2.334-1.09-.318-1.034 2.485-.078v.138l-2.3.072.3.975-2.3 1.076 3.789 6.14 2.556-.928.028.054 1.788 3.5 1.639-3.5.125.059Z"
       data-name="Tracé 11396"
       id="path45" />
    <path
       fill="#fff"
       d="m92.588 89.572-3.358-1.328-.547-3.594.137-.021.535 3.515 3.284 1.3Z"
       data-name="Tracé 11397"
       id="path46" />
    <path
       fill="#fff"
       d="m63.275 87.49-.018-.137 3.971-.535 1.223-3.974.132.041-1.25 4.059Z"
       data-name="Tracé 11398"
       id="path47" />
    <path
       fill="#fff"
       d="m64.011 93.738-1.736-4.985.131-.045 1.654 4.751 2.736-3.342 2.62 1 3.71-5.451-2.451-1.38.383-1.454-2.095-.522.033-.134 2.231.556-.391 1.486 2.488 1.4-3.856 5.666-2.629-1.006Z"
       data-name="Tracé 11399"
       id="path48" />
    <path
       fill="#fff"
       d="M82.098 98.379h-8.319l-.156-4.74-3.43-2.028 4.245-5.9 3.966 1.635 4.277-1.244 3.775 6.29-4.125 1.944Zm-8.185-.138h8.055l.231-3.992 4.062-1.914-3.642-6.068-4.22 1.228-3.91-1.612-4.093 5.686 3.365 1.99v.038Z"
       data-name="Tracé 11400"
       id="path49" />
    <path
       fill="#1c4f9c"
       d="M77.398 79.536A17.694 17.694 0 1 0 95.092 97.23a17.69 17.69 0 0 0-17.694-17.694m0 34.567A16.875 16.875 0 1 1 94.273 97.23a16.874 16.874 0 0 1-16.875 16.869Z"
       data-name="Tracé 11401"
       id="path50" />
  </g>
</svg>
