<?xml version="1.0" encoding="UTF-8" standalone="no"?>
<svg
   width="287.304"
   height="348.063"
   viewBox="0 0 809.516 980.712"
   version="1.1"
   id="svg17"
   sodipodi:docname="brest.svg"
   inkscape:version="1.4.2 (f4327f4, 2025-05-13)"
   xmlns:inkscape="http://www.inkscape.org/namespaces/inkscape"
   xmlns:sodipodi="http://sodipodi.sourceforge.net/DTD/sodipodi-0.dtd"
   xmlns="http://www.w3.org/2000/svg"
   xmlns:svg="http://www.w3.org/2000/svg">
  <sodipodi:namedview
     id="namedview17"
     pagecolor="#ffffff"
     bordercolor="#000000"
     borderopacity="0.25"
     inkscape:showpageshadow="2"
     inkscape:pageopacity="0.0"
     inkscape:pagecheckerboard="0"
     inkscape:deskcolor="#d1d1d1"
     inkscape:zoom="2.3185459"
     inkscape:cx="143.84016"
     inkscape:cy="174.03149"
     inkscape:window-width="1920"
     inkscape:window-height="1009"
     inkscape:window-x="-8"
     inkscape:window-y="-8"
     inkscape:window-maximized="1"
     inkscape:current-layer="g17" />
  <defs
     id="defs2">
    <clipPath
       id="b"
       clipPathUnits="userSpaceOnUse">
      <path
         d="M34.02 354.33h34.011v45.351H34.02z"
         id="path1" />
    </clipPath>
    <clipPath
       id="a"
       clipPathUnits="userSpaceOnUse">
      <path
         d="M34.02 358.477h34.011v41.204H34.02z"
         id="path2" />
    </clipPath>
  </defs>
  <g
     clip-path="url(#a)"
     transform="matrix(23.8016 0 0 -23.8016 -809.73 9513.05)"
     id="g3">
    <path
       d="M0 0c-.695-.022-3.482.224-5.689 1.399-4.199-2.914-6.122-4.01-11.315-5.363.224-4.473-.01-24.666 17.044-35.813l.046-.032.017.012C17.159-28.65 16.788-8.437 17.012-3.964c-5.194 1.353-6.957 2.449-11.159 5.363C3.651.224.693-.022 0 0"
       style="fill:#231f20;fill-opacity:1;fill-rule:nonzero;stroke:none"
       transform="translate(51.02 398.286)"
       id="path3" />
  </g>
  <g
     clip-path="url(#b)"
     transform="matrix(23.8016 0 0 -23.8016 -809.73 9513.05)"
     id="g17">
    <path
       d="M0 0c-4.995 1.308-6.374 2.317-10.416 5.138-2.118-1.138-4.801-1.135-5.468-1.114v.004l-.08-.003-.08.003v-.004c-.669-.021-3.35-.024-5.473 1.114-4.039-2.821-5.419-3.83-10.414-5.138.216-4.329-.479-23.922 15.924-34.708l.044-.032.017.012C.459-23.94-.215-4.329 0 0"
       style="fill:#ed1c24;fill-opacity:1;fill-rule:nonzero;stroke:none"
       transform="translate(67.08 393.637)"
       id="path4" />
    <path
       d="M0 0c-4.711 1.235-6.012 2.185-9.823 4.844-1.998-1.072-4.529-1.069-5.158-1.05v.004l-.075-.002-.075.002v-.004c-.631-.019-3.159-.022-5.162 1.05-3.809-2.659-5.111-3.609-9.821-4.844.203-4.081-.452-22.551 15.018-32.72l.041-.03.016.011C.432-22.569-.203-4.081 0 0"
       style="fill:#fff;fill-opacity:1;fill-rule:nonzero;stroke:none"
       transform="translate(66.305 392.909)"
       id="path5" />
    <path
       d="M0 0c-4.649 1.167-5.933 2.065-9.693 4.577-1.972-1.012-4.47-1.01-5.09-.992v.004l-.074-.002-.075.002v-.004c-.622-.018-3.117-.02-5.093.992-3.759-2.512-5.044-3.41-9.692-4.577.201-3.856-.446-21.313 14.82-30.923v-.055l.041.027.016-.013v.023C.426-21.33-.201-3.856 0 0"
       style="fill:#ed1c24;fill-opacity:1;fill-rule:nonzero;stroke:none"
       transform="translate(66.09 392.849)"
       id="path6" />
    <path
       d="m0 0-.002-.002L0 .001zm-.329-.13c-.145 0-.27.073-.365.214a.73.73 0 0 0-.13.382c0 .147.133.264.305.264A.45.45 0 0 0-.166.55.75.75 0 0 0-.007.121c0-.147-.133-.251-.322-.251m-.094.97c-.356 0-.625-.249-.625-.578q0-.046.01-.09V.168l.002-.002c.048-.218.258-.385.531-.417.058-.009.096-.007.096-.007.337 0 .628.258.628.559 0 .298-.285.539-.642.539M-1.431-.494l-.004-.002.011.009zm-.129.791c-.047 0-.09-.003-.166-.012-.011-.002-.026-.002-.034-.002q-.046-.001-.045.071c0 .064.022.141.05.184.023.033.051.037.198.037.139 0 .227-.003.337-.004.025-.003.05-.003.065-.003.045 0 .06.011.07.061.006.019.026.065.077.19a.1.1 0 0 1 .011.035c0 .011-.014.022-.028.022-.017 0-.028-.007-.048-.022-.063-.06-.079-.067-.178-.067h-.49c-.081 0-.087-.004-.09-.059a2 2 0 0 0-.071-.434C-1.946.15-1.946.15-1.946.134c0-.031.033-.056.078-.056q.018 0 .049.002c.082.009.152.013.189.013.199 0 .347-.121.35-.285v-.01a.4.4 0 0 0-.035-.133c-.07-.126-.234-.208-.44-.208a.65.65 0 0 0-.285.064.1.1 0 0 1-.048.013c-.022 0-.043-.016-.043-.032 0-.057.235-.125.43-.125.396 0 .693.226.693.524 0 .245-.209.396-.552.396M-2.569.045c-.209 0-.373.185-.373.425 0 .192.113.324.28.324.215 0 .401-.215.401-.459 0-.176-.121-.29-.308-.29m.052.753L-2.531.8l-.007.003zm.386-.118a.59.59 0 0 1-.452.178c-.212 0-.37-.057-.483-.173A.5.5 0 0 1-3.205.34c0-.247.187-.422.45-.422.121 0 .212.027.353.105q.036.019.051.018.019-.001.02-.023c0-.048-.057-.164-.119-.244-.133-.169-.325-.274-.594-.324-.042-.009-.059-.018-.059-.039 0-.02.02-.034.054-.034.161 0 .427.08.61.184.289.165.464.432.464.708a.6.6 0 0 1-.156.411m-.895-.897q.001.034-.065.034c-.185.005-.241.057-.241.236v.453a3 3 0 0 0 .017.29q0 .032-.034.032c-.014 0-.025-.004-.045-.02A.57.57 0 0 0-3.68.677c-.178-.032-.206-.042-.206-.081 0-.017.014-.03.034-.03.006 0 .014.002.034.009a.2.2 0 0 0 .09.018.14.14 0 0 0 .08-.023l.024-.022.006-.01.02-.206v-.346l-.003-.041-.029-.071q-.042-.052-.146-.057c-.062-.002-.084-.011-.084-.034q-.001-.031.053-.032c.012 0 .034 0 .057.002.11.007.226.012.319.012.096 0 .215-.005.325-.012.011-.002.026-.002.031-.002.029 0 .049.014.049.032"
       style="fill:#231f20;fill-opacity:1;fill-rule:nonzero;stroke:none"
       transform="translate(52.99 364.567)"
       id="path7" />
    <path
       d="M0 0s-1.193.701-1.496-.233a.6.6 0 0 1-.029-.108l-.011-.048.005-.001-.001-.013-.007.001.007-.032a.3.3 0 0 1 .039-.136C-1.19-1.4-.017-.89-.017-.89a8 8 0 0 0 1.087.367l.028-.001S.609-.348 0 0m-2.557.729a.3.3 0 0 1 .128-.041l.036-.01v.008l.015-.001V.681l.043.007a.6.6 0 0 1 .13.026c.963.247.313 1.432.313 1.432a7 7 0 0 0-.48 1.091v-.024a7 7 0 0 0-.439-1.035s-.591-1.112.254-1.449m-.638-1.223q.04.063.042.139l.008.029-.008.001v.013h.003l-.006.025a.7.7 0 0 1-.04.162C-3.5.8-4.679.224-4.679.224a7 7 0 0 0-1.104-.418l.024-.001a9 9 0 0 0 1.085-.471s1.162-.621 1.479.172m.818.426v.032l-.001-.018c-.005.09-.006.142-.006.142l-.002-.253c-.052-.672-.419-3.855-2.694-5.464l.51-.024c.597-.131 1.69-.671 2.097-2.85l.04.136.005-.013v.026c.183.576.943 2.626 2.457 2.526-2.067 1.799-2.365 5.022-2.406 5.76"
       style="fill:#231f20;fill-opacity:1;fill-rule:nonzero;stroke:none"
       transform="translate(53.985 392.568)"
       id="path8" />
    <path
       d="M0 0v.032c.001.078-.116.077-.121 0L-.122.014h.121l-.006.141c-.002.078-.12.078-.121 0-.013-2.086-.963-4.419-2.666-5.664-.047-.035-.032-.109.031-.113 1.576-.075 2.261-1.392 2.549-2.829.012-.061.101-.055.116 0q.019.067.041.135h-.117l.004-.012c.023-.063.118-.055.119.016.004.431.403 1.012.622 1.363.396.636.991 1.15 1.775 1.129.051-.002.082.068.043.103C.807-4.298.123-2.071 0 0c-.005.077-.126.078-.121 0 .105-1.765.613-3.587 1.685-5.012.155-.207.331-.397.513-.581.13-.131.201-.1.017-.11-.083-.004-.173-.026-.254-.043-.397-.086-.733-.364-1.003-.651C.541-6.712.325-7.1.139-7.486c-.111-.231-.309-.566-.311-.826l.119.016-.004.012c-.02.056-.099.06-.117 0q-.022-.067-.04-.135h.116C-.397-6.922-1.13-5.578-2.763-5.501l.03-.112C-.993-4.341-.02-1.977-.007.155h-.121l.006-.141c.004-.078.117-.078.121 0L0 .032h-.121V0c0-.078.12-.078.121 0"
       style="fill:#231f20;fill-opacity:1;fill-rule:nonzero;stroke:none"
       transform="translate(51.668 392.5)"
       id="path9" />
    <path
       d="M0 0q.03.083.05.168C.06.207.031.242-.008.244L-.014.138C.028.136.052.177.045.214c-.3 1.434-1.909.378-2.707.16-.067-.019-.051-.116.016-.119.723-.033 2.08-1.415 2.64-.269.034.069-.07.131-.104.061-.51-1.044-1.855.298-2.536.329l.016-.119c.42.115.807.301 1.208.463q.288.115.599.13A.8.8 0 0 0-.409.755.66.66 0 0 0-.118.368q-.013-.254.102-.11C-.049.26-.077.23-.077.198l.001-.014a.06.06 0 0 1 .06-.06q-.104.127-.1-.092C-.139-.043-.023-.074 0 0"
       style="fill:#231f20;fill-opacity:1;fill-rule:nonzero;stroke:none"
       transform="translate(50.848 392.059)"
       id="path10" />
    <path
       d="M0 0q.081-.03.164-.052c.038-.01.076.02.076.059L.134.01c0-.043.038-.064.076-.058 1.475.231.29 1.895.049 2.63-.021.063-.118.053-.119-.016-.001-.328-.291-.749-.431-1.028a2.4 2.4 0 0 1-.151-.394C-.581.673-.473.226-.014.006.055-.027.117.077.047.11c-1.122.537.211 1.732.214 2.456l-.119-.017c.133-.404.327-.78.514-1.16.09-.182.148-.379.174-.58A.68.68 0 0 0 .693.288C.566.127.255.15.255.014c0 .034-.028.059-.061.061H.18a.06.06 0 0 1-.06-.06Q.232.12.032.116C-.042.141-.074.024 0 0"
       style="fill:#231f20;fill-opacity:1;fill-rule:nonzero;stroke:none"
       transform="translate(51.412 393.24)"
       id="path11" />
    <path
       d="M0 0c-.62.356-1.436.411-1.625-.425a.062.062 0 0 1 .058-.077l-.003.108c-.041.002-.067-.04-.058-.077.339-1.465 1.912-.126 2.695-.166.072-.003.077.097.016.119A8 8 0 0 0 0 0c-.068.038-.129-.066-.061-.104a8 8 0 0 1 1.112-.53l.016.118C.689-.497.212-.779-.13-.909a2 2 0 0 0-.59-.126 1.1 1.1 0 0 0-.363.045.6.6 0 0 0-.34.289q.003.342-.139.186c.033-.002.06.028.06.06v.013c.001.035-.028.059-.06.061.139-.008.202.339.386.454.168.106.405.069.586.032.184-.038.366-.116.529-.209C.007-.143.067-.039 0 0"
       style="fill:#231f20;fill-opacity:1;fill-rule:nonzero;stroke:none"
       transform="translate(54.016 392.62)"
       id="path12" />
    <path
       d="M0 0s-1.189.699-1.495-.229a.6.6 0 0 1-.031-.116l-.01-.044h.004v-.014l-.007.001.007-.031a.3.3 0 0 1 .038-.136C-1.191-1.4-.017-.89-.017-.89.544-.654 1-.54 1.071-.523l.027-.001S.609-.348 0 0m-2.557.73a.3.3 0 0 1 .129-.042l.036-.01v.008l.014-.001V.681l.044.007a.7.7 0 0 1 .127.025c.966.246.315 1.433.315 1.433-.325.608-.48 1.091-.48 1.091v-.024a7 7 0 0 0-.439-1.034s-.591-1.112.254-1.449m-2.834-.942-.008.001zm2.195-.283q.041.064.043.14l.008.029-.008.001v.014h.002l-.004.023a.8.8 0 0 1-.041.163C-3.5.8-4.679.224-4.679.224a7 7 0 0 0-1.104-.418l.024-.001c.062-.021.522-.18 1.085-.471 0 0 1.161-.62 1.478.171m.819.428v.031l-.001-.018c-.005.09-.006.142-.006.142l-.001-.252c-.053-.672-.42-3.855-2.695-5.465l.511-.024c.597-.131 1.69-.672 2.096-2.85 0 0 .013.051.04.135l.005-.012v.026c.183.575.943 2.627 2.457 2.527-2.067 1.798-2.365 5.021-2.406 5.76"
       style="fill:#fff;fill-opacity:1;fill-rule:nonzero;stroke:none"
       transform="translate(54.11 392.68)"
       id="path13" />
    <path
       d="m -4.983,-5.026 c -1.255,0 -2.239,0.943 -2.239,2.165 0,0.968 0.667,1.64 1.653,1.652 l 0.184,-0.006 c 1.222,-0.084 2.251,-1.139 2.251,-2.333 0,-0.896 -0.729,-1.478 -1.849,-1.478 m -4.691,3.903 c 0,-0.122 0.133,-0.191 0.353,-0.191 0.3113882,0 0.5124044,0.079244 2.275,0.104 -0.3365995,-0.1322337 -0.6483488,-0.3205681 -0.922,-0.557 -0.526,-0.478 -0.832,-1.106 -0.832,-1.757 0,-0.393 0.11,-0.751 0.308,-1.057 -0.045185,-0.020268 -0.086214,-0.048751 -0.121,-0.084 -0.373,-0.349 -0.56,-0.477 -0.865,-0.594 -0.39,-0.14 -1.085,-0.232 -1.747,-0.232 -0.73,0 -1.425,0.105 -1.425,0.209 0,0.046 0.034,0.069 0.661,0.408 2.528,1.373 2.867,1.629 2.867,2.257 0,0.838 -1.068,1.478 -2.46,1.478 -0.131333,0 -0.262333,-0.006 -0.393,-0.018 4.6846729,1.39575515 -1.835173,-0.4979917 -2.151,-0.692 -0.458,-0.279 -0.797,-0.617 -0.797,-0.768 0,-0.069 0.084,-0.139 0.203,-0.139 0.068,0 0.136,0.023 0.238,0.104 0.627,0.466 1.238,0.675 2.019,0.675 0.949,0 1.645,-0.453 1.645,-1.07 0,-0.268 -0.102,-0.477 -0.373,-0.768 -0.272,-0.292 -0.458,-0.431 -1.68,-1.13 -2.222,-1.291 -2.239,-1.303 -2.239,-1.419 0,-0.093 0.085,-0.14 0.22,-0.14 0.068,0 0.187,0 0.306,0.012 0.356,0.023333 0.729,0.035 1.119,0.035 0.323,0 0.832,-0.011 1.493,-0.035 0.718049,-0.025248 1.43651,-0.036916 2.155,-0.035 0.305,0 0.373,0.011 0.424,0.046 0.085,0.047 0.186,0.187 0.56,0.745 l 0.407,0.617 0.16,0.253 c 0.477,-0.505 1.242,-0.812 2.164,-0.812 0.73,0 1.272,0.14 2.12,0.536 0.153,0.07 0.238,0.093 0.306,0.093 0.065553,0.00293 0.1198075,-0.050407 0.118,-0.116 0,-0.245 -0.339,-0.839 -0.712,-1.245 -0.798,-0.862 -1.951,-1.398 -3.562,-1.653 -0.255,-0.047 -0.357,-0.093 -0.357,-0.198 0,-0.105 0.119,-0.175 0.323,-0.175 0.967,0 2.561,0.408 3.664,0.943 1.73,0.838 2.782,2.2 2.782,3.608 0,0.791 -0.323,1.524 -0.933,2.094 -0.2195304,0.2003257 -0.4667269,0.3680421 -0.734,0.498 0.1993333,-0.004 0.3936667,-0.00633 0.583,-0.007"
       style="fill:#231f20;fill-opacity:1;fill-rule:nonzero;stroke:none"
       transform="translate(59.206,375.077)"
       id="path14"
       sodipodi:nodetypes="csccsccsccscccsscssccsscssccsscsccccccscccccsscsccc" />
    <path
       d="m -4.983,-5.026 c -1.255,0 -2.239,0.943 -2.239,2.165 0,0.968 0.667,1.64 1.653,1.652 l 0.184,-0.006 c 1.222,-0.084 2.251,-1.139 2.251,-2.333 0,-0.896 -0.729,-1.478 -1.849,-1.478 z m -4.338,3.712 c 0.11,0 0.11,0 0.552,0.041 0.421,0.031 1.011,0.053 1.723,0.063 -0.3365995,-0.1322337 -0.6483488,-0.3205681 -0.922,-0.557 -0.526,-0.478 -0.832,-1.106 -0.832,-1.757 0,-0.393 0.11,-0.751 0.308,-1.057 -0.045185,-0.020268 -0.086214,-0.048751 -0.121,-0.084 -0.373,-0.349 -0.56,-0.477 -0.865,-0.594 -0.39,-0.14 -1.085,-0.232 -1.747,-0.232 -0.73,0 -1.425,0.105 -1.425,0.209 0,0.046 0.034,0.069 0.661,0.408 2.528,1.373 2.867,1.629 2.867,2.257 0,0.764299 -3.030676,3.04138731 -5.004,0.768 -0.458,-0.279 -0.797,-0.617 -0.797,-0.768 0,-0.069 0.084,-0.139 0.203,-0.139 0.068,0 0.136,0.023 0.238,0.104 0.627,0.466 1.238,0.675 2.019,0.675 0.949,0 1.645,-0.453 1.645,-1.07 0,-0.268 -0.102,-0.477 -0.373,-0.768 -0.272,-0.292 -0.458,-0.431 -1.68,-1.13 -2.222,-1.291 -2.239,-1.303 -2.239,-1.419 0,-0.093 0.085,-0.14 0.22,-0.14 0.068,0 0.187,0 0.306,0.012 0.356,0.023333 0.729,0.035 1.119,0.035 0.323,0 0.832,-0.011 1.493,-0.035 0.718049,-0.025248 1.43651,-0.036916 2.155,-0.035 0.305,0 0.373,0.011 0.424,0.046 0.085,0.047 0.186,0.187 0.56,0.745 l 0.407,0.617 0.16,0.253 c 0.477,-0.505 1.242,-0.812 2.164,-0.812 0.73,0 1.272,0.14 2.12,0.536 0.153,0.07 0.238,0.093 0.306,0.093 0.065553,0.00293 0.1198075,-0.050407 0.118,-0.116 0,-0.245 -0.339,-0.839 -0.712,-1.245 -0.798,-0.862 -1.951,-1.398 -3.562,-1.653 -0.255,-0.047 -0.357,-0.093 -0.357,-0.198 0,-0.105 0.119,-0.175 0.323,-0.175 0.967,0 2.561,0.408 3.664,0.943 1.73,0.838 2.782,2.2 2.782,3.608 0,0.791 -0.323,1.524 -0.933,2.094 -0.2195304,0.2003257 -7.188,0.477 -6.968,0.477 z"
       style="fill:none;stroke:#231f20;stroke-width:0.138;stroke-linecap:butt;stroke-linejoin:miter;stroke-miterlimit:1;stroke-dasharray:none;stroke-opacity:1"
       transform="translate(59.206,375.077)"
       id="path15"
       sodipodi:nodetypes="ssccssscccscccsscscsscssccsscsccccccscccccsscscs" />
    <path
       d="m -3.016,-3.583 c 0,-0.895 -0.73,-1.477 -1.849,-1.477 -1.256,0 -2.24,0.943 -2.24,2.164 0,0.978 0.679,1.653 1.679,1.653 1.29,0 2.41,-1.094 2.41,-2.34 m -3.817,2.375 c -0.3731846,-0.1332613 -0.7183719,-0.3346771 -1.018,-0.594 -0.526,-0.477 -0.832,-1.105 -0.832,-1.757 0,-0.393 0.11,-0.75 0.308,-1.056 -0.045186,-0.020268 -0.086214,-0.048751 -0.121,-0.084 -0.373,-0.349 -0.56,-0.478 -0.865,-0.594 -0.39,-0.14 -1.085,-0.233 -1.747,-0.233 -0.73,0 -1.425,0.105 -1.425,0.21 0,0.046 0.034,0.069 0.661,0.407 2.528,1.373 2.867,1.629 2.867,2.258 0,0.838 -1.068,1.477 -2.46,1.477 -0.304667,-0.00133 -0.607667,-0.030333 -0.909,-0.087 6.1440113,1.40077909 -1.21,-0.358 -1.635,-0.622 -0.458,-0.279 -0.797,-0.617 -0.797,-0.768 0,-0.07 0.084,-0.14 0.203,-0.14 0.068,0 0.136,0.024 0.238,0.105 0.627,0.465 1.238,0.675 2.019,0.675 0.949,0 1.645,-0.454 1.645,-1.071 0,-0.267 -0.102,-0.477 -0.373,-0.768 -0.272,-0.291 -0.458,-0.431 -1.68,-1.129 -2.222,-1.292 -2.239,-1.304 -2.239,-1.419 0,-0.094 0.085,-0.14 0.221,-0.14 0.068,0 0.186,0 0.305,0.011 0.356,0.023333 0.729333,0.035 1.12,0.035 0.322,0 0.831,-0.011 1.493,-0.035 0.78,-0.023 1.17,-0.035 2.154,-0.035 0.305,0 0.373,0.012 0.424,0.047 0.085,0.046 0.187,0.186 0.56,0.745 l 0.407,0.616 0.16,0.253 c 0.477,-0.505 1.242,-0.811 2.164,-0.811 0.73,0 1.272,0.14 2.12,0.535 0.153,0.07 0.238,0.094 0.306,0.094 0.068,0 0.118,-0.047 0.118,-0.116 0,-0.245 -0.339,-0.839 -0.712,-1.246 -0.798,-0.861 -1.951,-1.397 -3.562,-1.653 -0.255,-0.046 -0.356,-0.093 -0.356,-0.198 0,-0.105 0.118,-0.174 0.322,-0.174 0.967,0 2.561,0.407 3.664,0.942 1.731,0.838 2.782,2.2 2.782,3.608 0,0.792 -0.322,1.525 -0.933,2.095 -0.2383827,0.2177349 -0.5093155,0.3968947 -0.803,0.531 0.182,-0.00333 0.3603333,-0.00533 0.535,-0.006"
       style="fill:#ffffff;fill-opacity:1;fill-rule:nonzero;stroke:none"
       transform="translate(59.234,375.3)"
       id="path16"
       sodipodi:nodetypes="cssscccscccsscscccsscssccsscscsccccscssccsscsccc" />
  </g>
</svg>
