<?xml version="1.0" encoding="UTF-8" standalone="no"?>
<svg
   xml:space="preserve"
   id="Calque_1"
   width="200"
   height="286.2"
   x="0"
   y="0"
   version="1.1"
   sodipodi:docname="fc-metz.svg"
   inkscape:version="1.4.2 (f4327f4, 2025-05-13)"
   xmlns:inkscape="http://www.inkscape.org/namespaces/inkscape"
   xmlns:sodipodi="http://sodipodi.sourceforge.net/DTD/sodipodi-0.dtd"
   xmlns="http://www.w3.org/2000/svg"
   xmlns:svg="http://www.w3.org/2000/svg"><defs
     id="defs1" /><sodipodi:namedview
     id="namedview1"
     pagecolor="#ffffff"
     bordercolor="#000000"
     borderopacity="0.25"
     inkscape:showpageshadow="2"
     inkscape:pageopacity="0.0"
     inkscape:pagecheckerboard="0"
     inkscape:deskcolor="#d1d1d1"
     inkscape:zoom="2.8197064"
     inkscape:cx="99.83309"
     inkscape:cy="143.10001"
     inkscape:window-width="1920"
     inkscape:window-height="1009"
     inkscape:window-x="-8"
     inkscape:window-y="-8"
     inkscape:window-maximized="1"
     inkscape:current-layer="Calque_1" /><style
     id="style1">.st0{fill:#731013}</style><path
     d="m 78.2,54.2 v 58 h -29 v 43.5 h 29 v 14.5 h -58 v 43.5 h 58 v 29 l 43.5,43.5 v -72.5 h 58 v -43.5 h -58 v -14.5 h 29 v -43.5 h -29 V 97.7 C 107.2,83.2 92.8,68.7 78.2,54.2 M 8.1,7.8 h 16 V 0 H 0 V 41.1 H 8.1 V 26 H 23.7 V 18.2 H 8.1 Z m 27.2,18.6 c 0,-4.7 3.5,-8.1 7.9,-8.1 3.1,0 5.7,1.6 6.7,4.1 h 8 C 56.5,15.7 50.5,10.9 43.2,10.9 c -8.9,0 -15.5,6.8 -15.5,15.5 0,8.7 6.6,15.6 15.5,15.6 7.3,0 13.3,-4.8 14.7,-11.6 h -8 c -1,2.5 -3.6,4.1 -6.7,4.1 -4.4,-0.1 -7.9,-3.4 -7.9,-8.1"
     class="st0"
     id="path1"
     sodipodi:nodetypes="cccccccccccccccccccccccccccccccccsccssscccc" /></svg>
