<?xml version="1.0" encoding="UTF-8" standalone="no"?>
<svg
   width="1317"
   height="1531.495"
   version="1.1"
   id="svg7"
   sodipodi:docname="lyon.svg"
   inkscape:version="1.4.2 (f4327f4, 2025-05-13)"
   xmlns:inkscape="http://www.inkscape.org/namespaces/inkscape"
   xmlns:sodipodi="http://sodipodi.sourceforge.net/DTD/sodipodi-0.dtd"
   xmlns="http://www.w3.org/2000/svg"
   xmlns:svg="http://www.w3.org/2000/svg">
  <defs
     id="defs7" />
  <sodipodi:namedview
     id="namedview7"
     pagecolor="#ffffff"
     bordercolor="#000000"
     borderopacity="0.25"
     inkscape:showpageshadow="2"
     inkscape:pageopacity="0.0"
     inkscape:pagecheckerboard="0"
     inkscape:deskcolor="#d1d1d1"
     inkscape:zoom="0.5269361"
     inkscape:cx="657.57499"
     inkscape:cy="765.7475"
     inkscape:window-width="1920"
     inkscape:window-height="1009"
     inkscape:window-x="-8"
     inkscape:window-y="-8"
     inkscape:window-maximized="1"
     inkscape:current-layer="svg7" />
  <path
     fill="#ffffff"
     d="m 1284.247,1096.613 c 0,65.402 -17.616,115.995 -52.35,150.384 -34.463,34.12 -84.966,50.244 -150.019,52.066 -187.489,5.229 -305.64,46.659 -398.276,150.423 l -25.107,30.505 -25.086,-30.505 c -92.646,-103.764 -210.788,-145.194 -398.287,-150.423 -65.053,-1.822 -115.545,-17.946 -150.01,-52.066 -34.733,-34.39 -52.35,-84.982 -52.35,-150.384 L 32.892,32.666 h 1251.226 l 0.13,1063.947 z"
     id="path1"
     sodipodi:nodetypes="ccccccccccccc" />
  <path
     fill="#c88c28"
     d="M1316.872 0H.134L0 1096.617c0 74.42 20.871 132.814 62.033 173.559 39.66 39.275 95.977 59.404 172.174 61.544 181.941 5.07 290.447 45.356 374.3 139.008l49.993 60.767 49.993-60.767c83.86-93.652 192.366-133.937 374.314-139.008 76.19-2.14 132.507-22.269 172.16-61.537 41.162-40.752 62.033-99.146 62.033-173.573zm-84.978 1246.996c-34.462 34.12-84.958 50.244-150.015 52.066-187.493 5.226-305.645 46.656-398.28 150.428l-25.099 30.497-25.092-30.497c-92.642-103.772-210.787-145.202-398.287-150.428-65.05-1.822-115.546-17.946-150.008-52.066-34.738-34.388-52.351-84.985-52.351-150.379l.127-1063.952h1251.228l.128 1063.952c0 65.393-17.613 115.99-52.351 150.379"
     id="path2" />
  <path
     fill="#e5202e"
     d="M439.385 313.103c-27.494 0-47.748 20.828-47.748 48.238 0 27.22 20.254 47.843 47.748 47.843 26.883 0 46.926-20.425 46.926-47.843 0-27.629-20.043-48.238-46.926-48.238M691.156 138.44H673.06v44.826h18.095c17.21 0 26.685-9.98 26.685-22.07 0-12.438-9.837-22.757-26.685-22.757Zm221.58 242.91h44.022l-21.912-52.377zM193.79 219.515c22.832 0 39.85-17.346 39.85-40.631 0-23.47-17.018-40.97-39.85-40.97-23.35 0-40.553 17.691-40.553 40.97 0 23.116 17.202 40.631 40.552 40.631Zm683.995 0c22.833 0 39.851-17.515 39.851-40.631 0-23.279-17.018-40.97-39.85-40.97-23.351 0-40.553 17.86-40.553 40.97 0 23.116 17.202 40.631 40.552 40.631"
     id="path3" />
  <path
     fill="#e5202e"
     d="M 1251.646,65.037 H 65.34 l -0.05,420.774 h 1186.413 z"
     id="path4"
     sodipodi:nodetypes="ccccc" />
  <path
     fill="#0f23aa"
     d="M1251.71 518.193H65.297l-.07 578.427c0 113.844 57.443 165.882 169.894 169.42 195.815 6.279 329.993 50.527 423.386 157.668 93.386-107.141 227.564-151.389 423.38-157.668 112.45-3.538 169.893-55.576 169.893-169.42zM441.885 1169.07c-158.804 0-287.997-128.852-287.997-287.219s129.193-287.197 287.997-287.197 288.003 128.83 288.003 287.197-129.193 287.219-288.003 287.219m699.711-13.031H809.91V607.677h160.064v409.474h171.622z"
     id="path5" />
  <g
     fill="#c88c28"
     id="g7">
    <path
       d="M384.342 767.39c11.841-3.581 21.884-8.709 33.605-4.768-4.306-8.708-14.356-12.642-23.563-10.022-4.78 1.314-9.086 3.461-13.031 4.775-11.841 5.247-23.08 5.247-35.276 1.666 9.086 10.976 25.708 12.643 38.265 8.349"
       id="path6" />
    <path
       d="M627.696 803.046c-16.622 33.032-82.033 26.951-78.088 64.757l-4.78-8.708c-5.624-10.495-1.318-23.49 9.206-29.098l60.149-31.718c19.136-10.023 26.19-35.3 13.513-54.023-10.043-14.79-29.3-19.917-45.8-13.836 0 0-17.458 7.755-24.873-12.642-8.732 9.181-4.306 21.704 1.317 25.284-5.623.834-16.622 8.588-16.983 23.851 12.677 3.46 26.544-1.314 29.179-5.248-.836 4.768 7.415 14.79 19.256 12.642-10.05-10.495-7.422-22.183 0-25.164 6.934-2.627 15.659-.48 20.446 5.608 6.58 8.701 3.47 20.87-5.743 25.638l-60.15 31.718c-20.445 10.495-28.342 36.14-17.336 56.53l27.025 50.922c2.989 5.607 2.153 13.002-2.634 17.41-6.098 6.44-16.622 5.127-21.884-2.26-16.502-23.852-30.496-49.496-41.374-76.92 9.207 3.453 16.14-2.628 16.14-2.628s-10.517-7.394-4.78-22.537c2.988-9.181 3.944-17.056 2.634-24.45 2.628 2.266 6.572 3.933 11.36 3.58-3.952-17.89.836-18.723 2.153-34.346.354-7.034-1.317-12.282-3.47-16.103 3.824.36 8.25 0 12.195-3.934-17.103-7.034-13.987-30.885-34.44-33.512 7.776-3.454 8.25-10.375 8.25-11.689-17.457 1.314-30.134-11.329-48.91-11.329-20.445 0-26.069 5.248-33.484 5.248-10.524 0-15.665 5.128-14.348 10.375l-17.458 4.775c-2.634 4.767 0 8.7 2.153 10.014 0 0-2.988 2.628-1.799 6.922 1.318 4.887 4.427 13.475 4.427 13.475l3.47-3.46c1.792-1.674 4.306-2.98 7.415-3.46l5.616-.474c7.061-.84 13.513 2.62 17.104 9.182l7.415 14.789h-37.55s2.628 8.227 3.47 10.848c1.792 3.934 5.262 5.728 11.835 5.728 6.94 0 10.885-.954 10.885-.954v10.015c0 5.608-4.426 12.996-19.61 8.708L367 793.384c-18.775-4.767-27.981-13.476-40.658-29.098l-3.825-6.081c-3.109-3.934-4.426-8.702-3.945-13.476.354-3.934.354-9.061-.481-13.949-1.672-11.688-10.404-15.623-12.677-16.102.481 1.313 4.426 11.808 0 21.35-3.47-10.375-10.404-18.25-26.544-19.564 0 0 11.834 10.022 12.195 23.018-14.348-9.542-31.813-2.98-31.813-2.98s27.868 5.607 27.868 27.784c0 8.235-4.306 19.203-17.344 26.598 0 0 13.874 2.98 23.08-2.267 2.636-1.667 6.099-1.667 8.733.48 9.087 9.182 29.179 28.738 32.168 34.819 6.579 13.002-2.153 23.498-2.153 23.498s13.994-.96 18.774-9.19c.836-1.306 2.628-1.786 3.945-1.306l26.07 15.623-17.819 11.802c-15.666 10.375-33.96 15.623-52.38 15.623h-17.811c-5.624 0-11.367-1.307-16.148-3.934-4.78-2.147-12.195-5.248-19.61-5.248-15.666 0-20.447 7.875-20.447 7.875s15.666-.84 21.764 5.24c-9.568-1.306-27.026 2.988-28.825 18.723 0 0 11.36-6.554 22.246-4.887-7.777 3.581-16.502 13.956-6.098 30.532 0 0 .956-17.41 22.72-17.41s18.774 19.077 18.774 19.077 9.568-2.147 11.721-14.309c.475-2.627 2.153-4.768 4.78-4.768h45.801c1.799 0 2.989 1.307 2.989 2.62C354.324 923.02 367 925.64 367 925.64s-6.218-11.329 3.47-15.623l33.485-14.429 15.305 20.037c-25.234 14.309-60.992 30.412-70.673 34.346-19.972 7.868-25.716 7.868-34.441 7.394 0 0 10.524 9.542 30.135 7.395 1.791 0 3.47-.48 5.616-1.314 1.799-.833 3.952 0 4.787 1.787 3.11 6.081 7.89 15.623 9.207 19.557 3.11 8.228-2.634 10.375-8.732 13.002-8.25 3.934-16.976 7.868-30.97 12.642-21.282-12.168-37.43-.833-37.43-.833s12.557 2.147 18.655 9.535c-12.196-.954-25.234 6.088-29.653 19.916 3.109-1.313 16.622-6.914 28.335-5.127-3.463 2.98-8.25 9.542-8.25 18.25.481 4.294 1.317 6.434 1.317 6.434s10.524-16.456 29.66-16.456c8.25 0 12.196 4.294 12.196 8.708 0 3.46-2.635 7.748-2.635 7.748s25.354-2.14 17.103-24.684l46.162-16.576c2.153-.834 4.78-.473 6.098 1.313 3.109 2.62 8.732 6.081 16.622 5.248l-13.513-30.412c-3.59-7.868.836-16.576 9.922-19.196l24.037-7.755s6.459 5.127 27.507 22.537c13.874 11.329 13.874 31.366 13.874 31.366s12.195-4.768 12.195-15.743c2.274.953 4.901 1.794 7.415 2.267 12.196 2.98 20.567 13.476 12.196 30.412l-7.77 14.309c-3.108 5.247-6.097 6.561-10.523 6.561-4.788-.48-10.886-.834-16.983 0-22.6 2.147-23.081 17.41-23.081 17.41s7.415-4.415 16.501-4.415c3.591 0 7.061.954 10.05 1.794 0 0-18.775 2.98-18.775 19.076 0 6.562 5.262 10.022 5.262 10.022s4.78-16.936 24.037-16.936c0 0-10.524 4.768-10.524 14.79 0 10.375 9.207 12.995 9.207 12.995s-6.098-15.143 23.08-15.143h7.89c5.142 0 9.568-3.1 11.36-7.874l5.623-15.623c3.47-9.182 9.207-9.182 12.677-8.348 5.616 1.313 5.616 9.181 5.616 9.181s9.568-14.309-1.791-27.424c-2.153-2.628-2.99-6.915-1.672-10.375l7.89-21.704c17.337 4.294 25.715-10.022 25.715-10.022-18.42-3.934-27.507-9.655-54.058-31.358-11.834-9.542-19.25-21.71-19.25-23.858a34.77 34.77 0 0 0 25.234 10.856c7.408 0 14.823-2.62 21.403-7.395 5.743-4.768 9.568-10.849 11.36-17.41 9.206-15.622 30.97-3.1 34.44-35.179-9.207 12.995-29.178 4.294-33.123 20.39-8.251-35.66 43.173-12.162 43.647-66.065-12.677 21.704-57.642 14.31-54.533 41.26l-.474-.36c-17.465-55.689 68.045-19.676 63.258-93.495ZM416.152 727.32c-6.46 0-8.251-9.542 1.791-9.542 7.061 0 13.513 2.147 13.513 2.147s-9.086 7.395-15.304 7.395"
       id="path7" />
  </g>
</svg>
