<?xml version="1.0" encoding="UTF-8" standalone="no"?>
<svg
   width="152.839"
   height="197.732"
   version="1.1"
   id="svg2"
   sodipodi:docname="marseille.svg"
   inkscape:version="1.4.2 (f4327f4, 2025-05-13)"
   xmlns:inkscape="http://www.inkscape.org/namespaces/inkscape"
   xmlns:sodipodi="http://sodipodi.sourceforge.net/DTD/sodipodi-0.dtd"
   xmlns="http://www.w3.org/2000/svg"
   xmlns:svg="http://www.w3.org/2000/svg">
  <defs
     id="defs2" />
  <sodipodi:namedview
     id="namedview2"
     pagecolor="#ffffff"
     bordercolor="#000000"
     borderopacity="0.25"
     inkscape:showpageshadow="2"
     inkscape:pageopacity="0.0"
     inkscape:pagecheckerboard="0"
     inkscape:deskcolor="#d1d1d1"
     inkscape:zoom="4.0812818"
     inkscape:cx="76.32406"
     inkscape:cy="64.318028"
     inkscape:window-width="1920"
     inkscape:window-height="1009"
     inkscape:window-x="-8"
     inkscape:window-y="-8"
     inkscape:window-maximized="1"
     inkscape:current-layer="svg2" />
  <path
     fill="#0097d7"
     d="M75.78 166.74a53.65 53.65 0 0 1-38.375-16.272l17.49-50.227a4463 4463 0 0 0 5.13 19.276l.761 3.396a39.4 39.4 0 0 1 1.373 8.434c0 3.661-1.346 6.925-5.53 11.325l.676 2.012a21.8 21.8 0 0 0 8.977 2.653c.903 4.342 5.981 10.953 9.541 14.01 3.567-3.057 8.647-9.668 9.55-14.01a21.8 21.8 0 0 0 8.979-2.653l.678-2.012c-4.186-4.4-5.533-7.664-5.533-11.325a39.2 39.2 0 0 1 1.373-8.434l.762-3.396c-.007.025 3.487-12.998 5.13-19.276l17.635 49.99a53.68 53.68 0 0 1-38.616 16.51m-54.873-56.994a57.57 57.57 0 0 1 23.659-46.863c-1.353 16.647-11.62 46.39-19.644 68.265a58.7 58.7 0 0 1-4.015-21.402M90.02 54.704a68 68 0 0 1-1.84 10.677s-.778 3.518-.797 3.594c-.008.023-9.93 39.914-11.559 46.136-1.624-6.222-11.549-46.113-11.555-46.136-.013-.076-.792-3.594-.792-3.594a67.3 67.3 0 0 1-1.846-10.704 53.03 53.03 0 0 1 28.389.027m40.632 55.043a58.8 58.8 0 0 1-3.808 20.855c-8.087-21.789-18.357-51.12-19.747-67.642a57.57 57.57 0 0 1 23.555 46.787m4.375 42.735a413 413 0 0 0-1.54-4.173c9.431-10.68 15.042-24.048 15.042-38.562 0-24.956-16.583-46.538-40.679-56.856a54.6 54.6 0 0 1 5.086-13.977 33 33 0 0 1 2.732-3.872l.28-.29-.02-.024a28.3 28.3 0 0 1 4.17-4.055l-.997-2.323c-4.842 2.133-15.05 6.995-21.325 12.667-3.016-2.806-8.653-5.677-12.824-6.997l-.79 1.913a4.2 4.2 0 0 1 .88 1.149l.032.045.032.042a24.3 24.3 0 0 1 4.582 10.41 83.8 83.8 0 0 0-27.72-.012 24.24 24.24 0 0 1 4.584-10.398l.03-.042.028-.045a4.4 4.4 0 0 1 .88-1.15l-.787-1.912c-4.172 1.32-9.81 4.19-12.827 6.997-6.271-5.672-16.485-10.534-21.323-12.667l-.996 2.323a28.5 28.5 0 0 1 4.17 4.055l-.02.025.28.29a33 33 0 0 1 2.73 3.87 54.7 54.7 0 0 1 5.08 13.95C19.668 63.172 3.055 84.769 3.055 109.748c0 14.677 5.736 28.186 15.361 38.923-.52 1.404-.99 2.682-1.402 3.813A50.7 50.7 0 0 1 .362 172.977l.957 1.995c17.624-2.469 23.635-.624 27.557-.004l4.742-13.62a79.94 79.94 0 0 0 42.175 11.727 79.9 79.9 0 0 0 42.463-11.908l4.87 13.805c3.92-.62 9.958-2.469 27.583 0l.972-1.995a50.7 50.7 0 0 1-16.653-20.495"
     id="path1" />
  <path
     fill="#c5a459"
     d="M 75.823,0 72.558,10.147 H 61.883 l 8.653,6.32 -3.233,10.171 8.615,-6.3 8.67,6.215 -3.325,-10.134 8.595,-6.271 H 79.185 Z"
     id="path2"
     sodipodi:nodetypes="ccccccccccc" />
</svg>
