<?xml version="1.0" encoding="UTF-8" standalone="no"?>
<svg
   xml:space="preserve"
   id="Calque_1"
   width="114"
   height="114"
   x="0"
   y="0"
   class="logo svg replaced-svg"
   version="1.1"
   viewBox="0 0 114 113.7"
   sodipodi:docname="montpellier.svg"
   inkscape:version="1.4.2 (f4327f4, 2025-05-13)"
   xmlns:inkscape="http://www.inkscape.org/namespaces/inkscape"
   xmlns:sodipodi="http://sodipodi.sourceforge.net/DTD/sodipodi-0.dtd"
   xmlns:xlink="http://www.w3.org/1999/xlink"
   xmlns="http://www.w3.org/2000/svg"
   xmlns:svg="http://www.w3.org/2000/svg"><defs
     id="defs2" /><sodipodi:namedview
     id="namedview1"
     pagecolor="#ffffff"
     bordercolor="#000000"
     borderopacity="0.25"
     inkscape:showpageshadow="2"
     inkscape:pageopacity="0.0"
     inkscape:pagecheckerboard="0"
     inkscape:deskcolor="#d1d1d1"
     inkscape:zoom="7.0789474"
     inkscape:cx="57"
     inkscape:cy="57"
     inkscape:window-width="1920"
     inkscape:window-height="1009"
     inkscape:window-x="-8"
     inkscape:window-y="-8"
     inkscape:window-maximized="1"
     inkscape:current-layer="Groupe_74-2" /><style
     id="style1">.st1{fill:#fff}.st2{fill:#939598}.st3{fill:#003e7e}</style><g
     id="Groupe_78"
     transform="translate(-895 -25.774)"><g
       id="Groupe_74"
       transform="translate(895 25.774)"><defs
         id="defs1"><path
           id="SVGID_1_"
           d="M0 0h114v113.7H0z" /></defs><clipPath
         id="SVGID_00000098201908538904922050000011089748682700196747_"><use
           xlink:href="#SVGID_1_"
           style="overflow:visible"
           id="use1" /></clipPath><g
         id="Groupe_74-2"
         style="clip-path:url(#SVGID_00000098201908538904922050000011089748682700196747_)"
         clip-path="url(#SVGID_00000098201908538904922050000011089748682700196747_)"><path
           id="Tracé_137"
           d="M57.2 1.6c30.6 0 55.4 24.8 55.4 55.4s-24.8 55.4-55.4 55.4S1.8 87.6 1.8 57 26.6 1.6 57.2 1.6"
           class="st1" /><path
           id="Tracé_138"
           d="M86.8 56.8c0 16.5-13.3 29.8-29.7 29.9S27.2 73.5 27.2 57s13.3-29.8 29.7-29.9h.1c16.4 0 29.8 13.3 29.8 29.7"
           class="st1" /><path
           id="Tracé_139"
           d="M26.5 56.8c0 16.8 13.6 30.5 30.4 30.6S87.4 73.9 87.5 57c0-16.8-13.6-30.5-30.4-30.6H57c-16.9 0-30.5 13.6-30.5 30.4m1.3 0c0-16.1 13-29.2 29.1-29.2s29.2 13 29.2 29.1-13 29.2-29.1 29.2h-.1c-16 0-29-13-29.1-29.1"
           class="st2" /><path
           id="Tracé_140"
           d="M0 56.8c0 31.3 25.6 56.8 57 56.8s57-25.5 57-56.8S88.4 0 57 0 0 25.5 0 56.8"
           class="st2" /><path
           id="Tracé_141"
           d="M1.7 57.2c0-30.3 24.8-55 55.2-55s55.2 24.7 55.2 55-24.8 55-55.2 55-55.2-24.6-55.2-55"
           class="st1" /><path
           id="Tracé_142"
           d="M43.9 86.5 57 89.1 87.3 65l1.2-14.1z"
           class="st3" /><path
           id="Tracé_143"
           d="M88.2 50.3 42.4 86.9l14.8 2.9 30.7-24.5 1.4-15.8zm-.4 2c-.2 2.4-1 11.8-1.1 12.3-.5.3-29.4 23.4-29.8 23.7-.5-.1-9.3-1.8-11.5-2.2 2-1.6 40.2-32 42.4-33.8"
           class="st1" /><path
           id="Tracé_144"
           d="M80.4 31.6 27.2 74.1l6.4 8 53.2-42.5z"
           class="st3" /><path
           id="Tracé_145"
           d="M80 31.1 26.3 74l7.2 9 54.2-43.3-7.2-9zm.3 1.4c.7.8 4.9 6.1 5.6 7L33.7 81.2c-.7-.8-4.9-6.1-5.6-7z"
           class="st1" /><path
           id="Tracé_146"
           d="M71.1 26.5c-3.9-1.5-7.8-2.7-11.9-3.6l-36 28.8.8.8v11.6z"
           class="st3" /><path
           id="Tracé_147"
           d="M58.9 22.4 22.2 51.7l1.2 1.2v12.6l49.1-39.1-1.1-.4c-3.9-1.5-7.9-2.7-11.9-3.7l-.3-.1zm.5 1.2c3.5.8 7 1.9 10.4 3.1-1.7 1.3-43.2 34.5-45.2 36V52.3l-.5-.5c1.1-.9 34.8-27.8 35.3-28.2"
           class="st1" /><path
           id="Tracé_148"
           d="M19.6 56.8c0 20.7 16.7 37.5 37.4 37.5s37.5-16.7 37.5-37.4-16.7-37.4-37.4-37.4H57c-20.6 0-37.4 16.7-37.4 37.3m8.1 0c0-16.2 13.1-29.4 29.3-29.4s29.4 13.1 29.4 29.3S73.3 86 57.1 86.1H57c-16.2 0-29.3-13.1-29.3-29.3"
           style="fill:#f37021" /><path
           id="Tracé_149"
           d="M26.5 56.8c0 16.8 13.6 30.5 30.4 30.6S87.5 73.9 87.5 57 73.9 26.5 57.1 26.4H57c-16.8 0-30.5 13.6-30.5 30.4m1.3 0c0-16.1 13-29.2 29.1-29.2s29.2 13 29.2 29.1-13 29.2-29.1 29.2h-.1c-16 0-29-13-29.1-29.1"
           class="st2" /><path
           id="Tracé_150"
           d="M18.4 56.8c-.1 21.3 17.2 38.7 38.5 38.8s38.7-17.2 38.8-38.5-17.2-38.7-38.6-38.8H57c-21.3 0-38.6 17.2-38.6 38.5m1.3 0c-.1-20.6 16.6-37.3 37.2-37.4S94.2 36 94.3 56.6 77.7 94 57.1 94H57c-20.6 0-37.3-16.6-37.3-37.2"
           class="st2" /><path
           id="Tracé_178"
           d="M47.1 106.1c-.3 1-.2 1.2.6 1.4.5.1.7.3.6.5s-.3.3-.6.2c0 0-.2-.1-.4-.1-.7-.2-1.3-.4-2-.6-.6-.1-1.2-.3-1.6-.4h-.3c-.3-.1-.4-.2-.4-.4.1-.2.3-.3.6-.2 1 .3 1.2.1 1.4-.5l1.3-5c.1-.6.1-.7-.1-.8h-1.6c-.1 0-.2-.2-.2-.3.1-.2.3-.3 1-.3 1 0 2 0 3-.2h.3c.1 0 .2.2.1.5z"
           class="st3" /><path
           id="Tracé_179"
           d="M51.8 102.1c-.1 1.4.5 2.9 1.4 3h.5c.1 0 .1.1.1.2 0 .3-.8.6-1.6.5-1.4-.2-2.4-1.5-2.3-2.9.2-1.7 1.8-2.9 3.5-2.8 1.9.2 3.3 2 3.1 3.9v.1c-.2 2.1-1.8 4-4.2 5.1-.7.3-1.5.5-2.2.7h-.4c-.1 0-.3-.1-.3-.3 0-.1.1-.2.5-.3 2.4-.6 4.2-2.7 4.5-5.1.2-1.8-.5-3.5-1.5-3.6-.5 0-1 .6-1.1 1.5"
           class="st3" /><path
           id="Tracé_180"
           d="M61.9 103.6c0-.1.2-.6.3-.9.1-.1.1-.2.1-.4 0-.1-.1-.1-.2-.1l-3.6.3c-.3 0-.6.1-.7.1s-.2.1-.4.1-.3-.1-.3-.4c0 0 0-.3-.1-.6 0-.1 0-.4-.1-.6 0-.5 0-.5.2-.5h2.1l4.3-.3c.3 0 .4 0 .4.1s0 .1-.2.7c0 .1-.1.1-.1.2l-.3.8-.3.8-.3.8c-.4.8-.9 2.2-1.5 4-.2.6-.4 1.1-.5 1.4-.2.5-.2.5-.4.6h-.2c-.3 0-.3 0-.3-.1v-.3z"
           class="st3" /><path
           id="Tracé_181"
           d="M70.2 105.8c.1.7.3.7 1.1.6.1 0 .3 0 .3.2s-.1.3-.4.4l-2 .4c-.3.1-.6.2-1 .3-.1 0-.3.1-.4.1-.3.1-.4 0-.5-.2s0-.3.6-.5c.4-.1.5-.4.4-.8l-.3-1c-.1-.4-.1-.4-.5-.3l-2.7.7c-.5.1-.5.1-.6-.4 0-.1 0-.2.1-.4l2.9-7c.1-.3.2-.4.7-.5h.2s0 .2-.4.8c-.5 1.1-1 2-1.3 2.9l-1.1 2.6c-.4.9-.3.7-.4.9 0 .1-.1.1 0 .2q0 .15.3 0l2-.5c.4-.1.4-.1.3-.5l-.4-1.8c-.1-.4-.1-.4.1-.6h.1c.7-.5.7-.4 1.1-.7l.3-.1h.1c.1 0 .1 0 .1.1l.7 2.7c.1.3.1.4.4.3l.8-.2c.3-.1.3-.1.3.3.1.3 0 .4-.2.4l-.8.2c-.3.1-.3.1-.2.4z"
           class="st3" /><path
           id="Tracé_182"
           d="M36.9 99.4h-5.1L29.4 95h5.1z"
           class="st3" /><path
           id="Tracé_183"
           d="M76.6 99.4h5.1l2.5-4.3h-5z"
           class="st3" /></g></g></g></svg>
