<?xml version="1.0" encoding="UTF-8" standalone="no"?>
<svg
   width="388.49"
   height="500"
   viewBox="0 0 102.788 132.292"
   version="1.1"
   id="svg22"
   sodipodi:docname="nantes.svg"
   inkscape:version="1.4.2 (f4327f4, 2025-05-13)"
   xmlns:inkscape="http://www.inkscape.org/namespaces/inkscape"
   xmlns:sodipodi="http://sodipodi.sourceforge.net/DTD/sodipodi-0.dtd"
   xmlns="http://www.w3.org/2000/svg"
   xmlns:svg="http://www.w3.org/2000/svg">
  <sodipodi:namedview
     id="namedview22"
     pagecolor="#ffffff"
     bordercolor="#000000"
     borderopacity="0.25"
     inkscape:showpageshadow="2"
     inkscape:pageopacity="0.0"
     inkscape:pagecheckerboard="0"
     inkscape:deskcolor="#d1d1d1"
     inkscape:zoom="1.614"
     inkscape:cx="194.23792"
     inkscape:cy="250"
     inkscape:window-width="1920"
     inkscape:window-height="1009"
     inkscape:window-x="-8"
     inkscape:window-y="-8"
     inkscape:window-maximized="1"
     inkscape:current-layer="g8" />
  <defs
     id="defs2">
    <clipPath
       id="a"
       clipPathUnits="userSpaceOnUse">
      <path
         d="M0 0h595.276v765.354H0Z"
         id="path1" />
    </clipPath>
    <clipPath
       id="b"
       clipPathUnits="userSpaceOnUse">
      <path
         d="M0 0h595.276v765.354H0Z"
         id="path2" />
    </clipPath>
  </defs>
  <path
     d="M.003 0v85.858c-.15 11.798 6.075 18.678 13.719 23.655l37.672 22.779 37.672-22.78c7.644-4.976 13.87-11.856 13.72-23.654V0Z"
     style="fill:#ffdc00;fill-opacity:1;stroke:none;stroke-width:.355596px;stroke-linecap:butt;stroke-linejoin:miter;stroke-opacity:1"
     id="path3" />
  <g
     style="fill:#00a558;fill-opacity:1"
     id="g22">
    <g
       style="fill:#00a558;fill-opacity:1"
       id="g4" />
    <g
       clip-path="url(#a)"
       style="fill:#00a558;fill-opacity:1"
       transform="matrix(1.28162 0 0 -1.28162 -212.06 751.363)"
       id="g6">
      <g
         style="fill:#00a558;fill-opacity:1"
         id="g5" />
    </g>
    <g
       style="fill:#00a558;fill-opacity:1"
       id="g7" />
    <g
       style="fill:#00a558;fill-opacity:1"
       id="g8" />
    <g
       style="fill:#00a558;fill-opacity:1"
       id="g9" />
    <g
       style="fill:#00a558;fill-opacity:1"
       id="g10" />
    <g
       style="fill:#00a558;fill-opacity:1"
       id="g11" />
    <g
       clip-path="url(#b)"
       style="fill:#00a558;fill-opacity:1"
       transform="matrix(1.28162 0 0 -1.28162 -212.06 751.363)"
       id="g21">
      <g
         style="fill:#00a558;fill-opacity:1"
         id="g12" />
      <g
         style="fill:#00a558;fill-opacity:1"
         id="g13">
        <path
           d="M0 0c0 1.074.556 2.071 1.471 2.635 2.16 1.333 4.47 2.783 5.995 3.821 3.252 2.214 5.244 3.841 5.244 9.169v42.484h4.935V15.625c0-7.581-3.5-10.593-7.402-13.248C7.183.294.841-3.538 0-4.046Z"
           style="fill:#00a558;fill-opacity:1;fill-rule:nonzero;stroke:none"
           transform="translate(215.427 503.853)"
           id="path12" />
      </g>
      <g
         style="fill:#00a558;fill-opacity:1"
         id="g14">
        <path
           d="m0 0-27.627 31.778a.226.226 0 0 1-.396-.148V2.892c0-1.182.603-2.283 1.6-2.919l3.335-2.128v20.466c0 .25.309.365.473.177L-5.081-1.676a1.58 1.58 0 0 1 2.055-.288z"
           style="fill:#00a558;fill-opacity:1;fill-rule:nonzero;stroke:none"
           transform="translate(218.78 516.898)"
           id="path13" />
      </g>
      <g
         style="fill:#00a558;fill-opacity:1"
         id="g15">
        <path
           d="M0 0h-3.42a1.51 1.51 0 0 1-1.512-1.512l-.003-19.593a.27.27 0 0 0-.473-.177L-22.825-1.25A3.65 3.65 0 0 1-25.572 0h-4.88L-.396-34.568A.226.226 0 0 1 0-34.42Z"
           style="fill:#00a558;fill-opacity:1;fill-rule:nonzero;stroke:none"
           transform="translate(220.361 561.961)"
           id="path14" />
      </g>
      <g
         style="fill:#00a558;fill-opacity:1"
         id="g16">
        <path
           d="M0 0c-.07.209-.199.286-.306.313a.5.5 0 0 1-.102.013A.5.5 0 0 1-.51.313C-.617.286-.746.209-.816 0L-3.99-9.305l3.582-2.246 3.582 2.246z"
           style="fill:#00a558;fill-opacity:1;fill-rule:nonzero;stroke:none"
           transform="translate(205.96 505.324)"
           id="path15" />
      </g>
      <g
         style="fill:#00a558;fill-opacity:1"
         id="g17">
        <path
           d="M0 0c1.318.336 2.708 1.156 2.779 1.2.041.023.066.07.066.121a.14.14 0 0 1-.066.121A13.4 13.4 0 0 1 .616 2.454c-.54.188-1.106.329-1.599.329-1.532 0-2.305-1.332-2.337-1.389a.15.15 0 0 1 0-.147c.019-.034.318-.549.901-.942.175-.119.376-.225.604-.305.247-.086.523-.142.831-.142S-.342-.086 0 0"
           style="fill:#00a558;fill-opacity:1;fill-rule:nonzero;stroke:none"
           transform="translate(209.668 505.487)"
           id="path16" />
      </g>
      <g
         style="fill:#00a558;fill-opacity:1"
         id="g18">
        <path
           d="M0 0c-1.148-.383-2.218-1.015-2.283-1.053a.14.14 0 0 1-.066-.121.14.14 0 0 1 .066-.121c.073-.044 1.461-.865 2.781-1.2.34-.086.675-.142.981-.142.31 0 .586.056.833.142.277.098.516.235.716.384.508.38.77.831.789.863a.15.15 0 0 1 0 .147C3.785-1.044 3.013.288 1.479.288 1.024.288.504.167 0 0"
           style="fill:#00a558;fill-opacity:1;fill-rule:nonzero;stroke:none"
           transform="translate(200.94 507.982)"
           id="path17" />
      </g>
      <g
         style="fill:#00a558;fill-opacity:1"
         id="g19">
        <path
           d="M0 0a.14.14 0 0 1 .145 0c.058.036 1.389.894 1.389 2.604 0 1.669-1.285 4.089-1.341 4.191-.048.089-.193.089-.24 0-.056-.102-1.343-2.524-1.343-4.19C-1.39.894-.058.036 0 0"
           style="fill:#00a558;fill-opacity:1;fill-rule:nonzero;stroke:none"
           transform="translate(205.48 507.819)"
           id="path18" />
      </g>
      <g
         style="fill:#00a558;fill-opacity:1"
         id="g20">
        <path
           d="M0 0a3.1 3.1 0 0 1-1.471 2.635c-2.16 1.333-4.471 2.795-5.996 3.833-3.252 2.214-5.244 3.841-5.244 9.169v42.484h-4.935V15.637c0-7.581 3.5-10.593 7.402-13.248C-7.184.306-.841-3.538 0-4.046Z"
           style="fill:#00a558;fill-opacity:1;fill-rule:nonzero;stroke:none"
           transform="translate(195.692 503.842)"
           id="path19" />
      </g>
    </g>
  </g>
</svg>
