<?xml version="1.0" encoding="UTF-8" standalone="no"?>
<svg
   width="299.873"
   height="299.879"
   viewBox="0 0 79.341 79.343"
   version="1.1"
   id="svg7"
   sodipodi:docname="paris-saint-germain.svg"
   inkscape:version="1.4.2 (f4327f4, 2025-05-13)"
   xmlns:inkscape="http://www.inkscape.org/namespaces/inkscape"
   xmlns:sodipodi="http://sodipodi.sourceforge.net/DTD/sodipodi-0.dtd"
   xmlns="http://www.w3.org/2000/svg"
   xmlns:svg="http://www.w3.org/2000/svg">
  <defs
     id="defs7" />
  <sodipodi:namedview
     id="namedview7"
     pagecolor="#ffffff"
     bordercolor="#000000"
     borderopacity="0.25"
     inkscape:showpageshadow="2"
     inkscape:pageopacity="0.0"
     inkscape:pagecheckerboard="0"
     inkscape:deskcolor="#d1d1d1"
     inkscape:zoom="2.6910854"
     inkscape:cx="149.9395"
     inkscape:cy="149.9395"
     inkscape:window-width="1920"
     inkscape:window-height="1009"
     inkscape:window-x="-8"
     inkscape:window-y="-8"
     inkscape:window-maximized="1"
     inkscape:current-layer="svg7" />
  <path
     d="M-65.768 55.49c-21.876 0-39.67 17.796-39.67 39.67s17.794 39.672 39.67 39.672c21.874 0 39.67-17.798 39.67-39.672s-17.796-39.67-39.67-39.67"
     style="fill:#004170;fill-opacity:1;fill-rule:nonzero;stroke:none;stroke-width:1.74937963"
     transform="translate(105.439 -55.49)"
     id="path1" />
  <path
     d="M-65.823 58.337c-9.838 0-19.089 3.83-26.046 10.788-6.958 6.957-10.789 16.208-10.789 26.047 0 9.838 3.831 19.087 10.789 26.046 6.957 6.957 16.208 10.788 26.046 10.788s19.09-3.83 26.047-10.788 10.788-16.208 10.788-26.046-3.831-19.09-10.788-26.047-16.208-10.788-26.047-10.788m0 1.459c19.539 0 35.376 15.838 35.376 35.376s-15.837 35.376-35.376 35.376c-19.537 0-35.376-15.84-35.376-35.376 0-19.538 15.84-35.376 35.376-35.376"
     style="fill:#fff;fill-opacity:1;fill-rule:nonzero;stroke:none;stroke-width:1.74937963"
     transform="translate(105.439 -55.49)"
     id="path2" />
  <path
     d="M-58.772 94.91c-3.168-5.558-5.042-12.12-5.182-19.794a21 21 0 0 0-1.842-.088c-.626 0-1.244.033-1.856.09-.14 7.672-2.014 14.234-5.182 19.792zm.464.79h-14.99c-2.485 4.122-5.693 7.678-9.444 10.704a20.4 20.4 0 0 0 6.275 6.118 9.6 9.6 0 0 1-.143-1.643c0-5.584 4.84-10.111 10.813-10.111 5.972 0 10.813 4.527 10.813 10.111q-.002.84-.144 1.643a20.4 20.4 0 0 0 6.27-6.11c-3.754-3.029-6.964-6.587-9.45-10.712"
     style="fill:#e30613;fill-opacity:1;fill-rule:nonzero;stroke:none;stroke-width:1.74937963"
     transform="translate(105.439 -55.49)"
     id="path4" />
  <path
     d="M-62.935 75.234c9.836 1.39 17.403 9.84 17.403 20.06 0 3.273-.78 6.363-2.16 9.1-8.928-6.698-14.353-16.138-15.243-29.16m7.807 37.288a9.6 9.6 0 0 0 .144-1.643c0-5.584-4.84-10.111-10.813-10.111s-10.813 4.527-10.813 10.111q.001.84.145 1.643a20.35 20.35 0 0 1-6.275-6.118c3.749-3.026 6.957-6.582 9.441-10.704h14.99c2.487 4.125 5.697 7.683 9.451 10.711a20.35 20.35 0 0 1-6.27 6.111m-3.397 1.686a20.2 20.2 0 0 1-7.272 1.351c-2.563 0-5.012-.481-7.27-1.35a7.8 7.8 0 0 1-1.302-4.313c0-4.496 3.838-8.141 8.572-8.141 4.735 0 8.573 3.645 8.573 8.141a7.8 7.8 0 0 1-1.301 4.312m-27.537-18.914c0-10.221 7.57-18.67 17.408-20.06-.89 13.022-6.317 22.464-15.248 29.162a20.2 20.2 0 0 1-2.16-9.102m20.265-20.265c.623 0 1.235.032 1.844.088.138 7.673 2.013 14.235 5.181 19.792h-14.063c3.17-5.557 5.043-12.12 5.183-19.792.61-.054 1.23-.088 1.855-.088m0-1.459c-11.978 0-21.722 9.746-21.722 21.724s9.744 21.722 21.722 21.722 21.724-9.744 21.724-21.722S-53.82 73.57-65.797 73.57"
     style="fill:#fff;fill-opacity:1;fill-rule:nonzero;stroke:none;stroke-width:1.74937963"
     transform="translate(105.439 -55.49)"
     id="path5" />
  <path
     d="M-62.496 108.43c-1.05 0-2.06.845-2.643 2.388a.178.178 0 0 0 .318.157l.002-.009.001-.004c.448-.967 1.28-1.422 1.753-1.422a.48.48 0 1 1-.086.955c-.02-.003-.071-.015-.098.042-.019.047-.059.278.147.515.121.136.37.25.606.25a1.436 1.436 0 1 0 0-2.873m-4.005 2.388c-.586-1.543-1.595-2.388-2.643-2.388a1.436 1.436 0 1 0 0 2.873c.236 0 .485-.114.605-.25.207-.237.166-.468.145-.513-.024-.06-.075-.047-.096-.044a.48.48 0 1 1-.086-.953c.471 0 1.306.453 1.752 1.422l.001.004q.003.003.004.007a.178.178 0 0 0 .318-.157m2.115-3.054c0-.828-1.083-3.412-1.41-3.412q-.037 0-.08.037c-.396.319-1.332 2.605-1.332 3.375 0 .617 1.247 2.244 1.247 3.13a.164.164 0 1 0 .33 0q-.001-.004-.003-.006c.005-.885 1.248-2.508 1.248-3.124m-.69 4.548a1.06 1.06 0 0 1-.482-.652.25.25 0 0 0-.24-.184.25.25 0 0 0-.239.184 1.06 1.06 0 0 1-.481.652c-.044.026-.047.046-.03.079.144.285.387.638.684.878.042.033.058.035.067.035s.024-.002.066-.035c.3-.24.54-.593.684-.878.018-.033.014-.053-.03-.079"
     style="fill:#ceab5d;fill-opacity:1;fill-rule:nonzero;stroke:none;stroke-width:1.74937963"
     transform="translate(105.439 -55.49)"
     id="path6" />
</svg>
