<?xml version="1.0" encoding="UTF-8" standalone="no"?>
<svg
   xml:space="preserve"
   width="700"
   height="700"
   version="1.1"
   id="svg11"
   sodipodi:docname="rc-strasbourg-alsace.svg"
   inkscape:version="1.4.2 (f4327f4, 2025-05-13)"
   xmlns:inkscape="http://www.inkscape.org/namespaces/inkscape"
   xmlns:sodipodi="http://sodipodi.sourceforge.net/DTD/sodipodi-0.dtd"
   xmlns="http://www.w3.org/2000/svg"
   xmlns:svg="http://www.w3.org/2000/svg"><defs
     id="defs11" /><sodipodi:namedview
     id="namedview11"
     pagecolor="#ffffff"
     bordercolor="#000000"
     borderopacity="0.25"
     inkscape:showpageshadow="2"
     inkscape:pageopacity="0.0"
     inkscape:pagecheckerboard="0"
     inkscape:deskcolor="#d1d1d1"
     inkscape:zoom="1.1528571"
     inkscape:cx="350"
     inkscape:cy="350"
     inkscape:window-width="1920"
     inkscape:window-height="1009"
     inkscape:window-x="-8"
     inkscape:window-y="-8"
     inkscape:window-maximized="1"
     inkscape:current-layer="svg11" /><g
     transform="matrix(1.24798 0 0 -1.24804 -48.17 1352.503)"
     id="g2"><path
       d="M319.043 1083.702c-154.63 0-280.445-125.81-280.445-280.432 0-154.639 125.815-280.448 280.445-280.448 154.646 0 280.461 125.81 280.461 280.448 0 154.623-125.815 280.431-280.461 280.431"
       style="fill:#000;fill-opacity:1;fill-rule:nonzero;stroke:none"
       id="path1" /><path
       d="M319.043 1081.607c-153.475 0-278.35-124.87-278.35-278.337 0-153.484 124.875-278.353 278.35-278.353 153.491 0 278.367 124.869 278.367 278.353 0 153.468-124.876 278.337-278.367 278.337"
       style="fill:#fff;fill-opacity:1;fill-rule:nonzero;stroke:none"
       id="path2" /><circle
       cx="319.048"
       cy="-803.269"
       r="263.913"
       style="opacity:1;fill:#009fe3;fill-opacity:1;fill-rule:nonzero;stroke:none;stroke-width:.08744975;stroke-linecap:round;stroke-linejoin:round;stroke-miterlimit:4;stroke-dasharray:none;stroke-dashoffset:0;stroke-opacity:1"
       transform="scale(1 -1)"
       id="circle2" /></g><path
     d="M113.557 968.45a263.783 263.795 0 0 1-55.19-124.49l355.075-287.243a263.783 263.795 0 0 1 109.956 80.185z"
     style="opacity:1;fill:#dc2f34;fill-opacity:1;fill-rule:nonzero;stroke:none;stroke-width:.1;stroke-linecap:round;stroke-linejoin:round;stroke-miterlimit:4;stroke-dasharray:none;stroke-dashoffset:0;stroke-opacity:1"
     transform="matrix(1.25 0 0 -1.25 -48.247 1353.528)"
     id="path3" /><path
     d="m114.39 967.405 111.242-97.587c.034-.357.085-.714.17-1.053 1.664-7.063 12.411-12.02 17.573-14.38.764-.374 1.392-.662 1.816-.866 5.841-3.022 12.853-7.538 14.415-10.39.815-1.477 1.036-2.853.645-4.075-.441-1.358-1.613-2.513-3.412-3.378-.646-.306-1.325-.442-2.174-.442-3.327 0-9.745 2.105-25.23 7.199-6.027 1.97-13.446 4.414-22.598 7.351-8.998 2.886-17.352 4.346-24.84 4.346-21.273 0-29.083-11.51-29.83-12.682-7.895-9.847-12.276-36.213-6.079-68.607.306-1.545.611-3.09.951-4.651 8.727-39.847 30.799-75.772 62.175-101.17 31.054-25.16 70.138-39.015 110.037-39.015 1.868 0 3.719.051 5.586.102 25.468.815 50.715 7.216 73.381 18.642l10.527 5.297-11.393-2.988c-4.142-1.087-19.151-4.635-38.88-4.635-22.87 0-56.216 4.923-85.13 28.335-31.665 25.637-42.14 60.458-45.57 78.93-4.805 25.941-1.63 48.895 4.21 56.127 5.586 6.893 14.84 8.795 24.653 10.798 10.306 2.105 20.985 4.295 27.777 12.682l.017.017c6.791 8.404 6.723 19.287 6.638 29.83-.085 10-.153 19.456 5.45 26.35 6.163 7.605 30.001 15.822 57.795 15.822 21.936 0 54.11-4.89 82.906-28.2 49.984-40.491 49.56-104.038 48.965-116.364l-.577-11.8 3.005 11.426c17.505 66.485-5.704 137.4-59.119 180.66-42.734 34.6-89.136 39.778-112.991 39.778-34.789 0-61.258-10.187-69.493-20.254-1.392-1.342-17.844-18.472 3.21-55.195 4.787-8.37 8.709-15.11 11.901-20.593 10.51-18.082 13.005-22.377 12.292-25.382-.407-1.715-1.579-4.601-4.754-4.601-.61 0-1.273.119-1.952.323-3.124.95-9.016 6.859-13.158 11.935-.29.373-.697.917-1.206 1.596-3.43 4.618-10.577 14.21-17.912 14.21-.306 0-.611-.017-.9-.05l-118.577 88.52c-.255.187-1.412.959-1.701.942-.373-.459-.747-.934-1.12-1.393.035-.341 1.122-1.258 1.259-1.467"
     style="fill:#000;fill-opacity:1;fill-rule:nonzero;stroke:none"
     transform="matrix(1.24798 0 0 -1.24804 -48.17 1352.503)"
     id="path5" /><path
     d="m228.04 876.783.17.221c1.035 1.274 2.173 2.241 3.378 2.886l-91.921 68.64 86.25-75.668c.374 1.324 1.087 2.631 2.123 3.921"
     style="fill:#fff;fill-opacity:1;fill-rule:nonzero;stroke:none"
     transform="matrix(1.24798 0 0 -1.24804 -48.17 1352.503)"
     id="path6" /><path
     d="M235.427 878.38c-1.952 0-3.684-.968-5.28-2.938l-.17-.203c-1.647-2.038-2.207-3.956-1.766-5.909 1.376-5.89 11.766-10.662 16.198-12.699.815-.373 1.477-.696 1.935-.917 1.308-.679 12.853-6.723 15.434-11.375 1.154-2.071 1.443-4.16.832-6.044-.646-2.02-2.275-3.7-4.703-4.855-.985-.459-2.02-.68-3.226-.68-3.736 0-9.814 1.987-26.011 7.318-6.028 1.97-13.43 4.397-22.599 7.351-8.743 2.801-16.842 4.228-24.075 4.228-20.56 0-27.675-11.46-27.743-11.58l-.102-.135c-7.946-9.796-12.105-37.402-4.686-71.221 8.608-39.303 30.375-74.736 61.31-99.778 30.612-24.804 69.136-38.454 108.475-38.454 23.311 0 46.623 4.788 67.998 13.888a173 173 0 0 0-28.761-2.428c-23.295-.017-57.217 5.008-86.709 28.879-23.923 19.371-40.409 47.928-46.436 80.406-5.128 27.64-1.41 50.576 4.72 58.131 6.13 7.59 16.265 9.66 26.062 11.664 9.898 2.037 20.136 4.126 26.367 11.833 6.248 7.708 6.18 18.15 6.096 28.251-.068 10-.153 20.356 5.993 27.928 6.673 8.234 30.833 16.757 59.73 16.757 22.327 0 55.112-4.991 84.468-28.76 41.937-33.955 49.034-83.784 49.9-107.315 12.224 62.341-10.952 127.06-60.75 167.382-42.14 34.125-87.897 39.218-111.429 39.218-34.076 0-59.815-9.745-67.608-19.388l-.119-.119c-.17-.17-16.842-16.553 3.6-52.223 4.788-8.353 8.71-15.093 11.902-20.577 11.443-19.694 13.497-23.225 12.547-27.215-.985-4.126-3.6-6.486-7.165-6.486-.866 0-1.766.153-2.683.425-5.11 1.562-13.413 11.596-14.347 12.75-.305.374-.747.95-1.273 1.664-2.937 3.956-9.848 13.225-15.926 13.225"
     style="fill:#fff;fill-opacity:1;fill-rule:nonzero;stroke:none"
     transform="matrix(1.24798 0 0 -1.24804 -48.17 1352.503)"
     id="path7" /><path
     d="M476.947 758.974c0 57.88-47.103 104.98-105.003 104.98s-105.003-47.1-105.003-104.98c0-57.897 47.103-104.997 105.003-104.997s105.003 47.1 105.003 104.997"
     style="fill:#000;fill-opacity:1;fill-rule:nonzero;stroke:none"
     transform="matrix(1.24798 0 0 -1.24804 -48.17 1352.503)"
     id="path8" /><path
     d="M371.944 860.993c-56.267 0-102.04-45.772-102.04-102.019 0-56.264 45.773-102.035 102.04-102.035s102.04 45.771 102.04 102.035c0 56.247-45.773 102.019-102.04 102.019"
     style="fill:#fff;fill-opacity:1;fill-rule:nonzero;stroke:none"
     transform="matrix(1.24798 0 0 -1.24804 -48.17 1352.503)"
     id="path9" /><path
     d="M338.483 729.389h-29.339v31.765l-2.054 2.054v16.86l-4.5 6.298-3.158 32.495-3.14-32.495-5.094-6.299v-16.74l-3.396-3.395v-47.52s13.26-21.817 30.273-30.068h31.563l4.618 3.633s-15.773 5.823-15.773 43.412"
     style="fill:#004996;fill-opacity:1;fill-rule:nonzero;stroke:none"
     transform="matrix(1.24798 0 0 -1.24804 -48.17 1352.503)"
     id="path11" /></svg>
