<?xml version="1.0" encoding="UTF-8" standalone="no"?>
<svg
   xml:space="preserve"
   width="300.861"
   height="332.38"
   version="1.2"
   viewBox="0 0 525 580"
   id="svg11"
   sodipodi:docname="rennes.svg"
   inkscape:version="1.4.2 (f4327f4, 2025-05-13)"
   xmlns:inkscape="http://www.inkscape.org/namespaces/inkscape"
   xmlns:sodipodi="http://sodipodi.sourceforge.net/DTD/sodipodi-0.dtd"
   xmlns="http://www.w3.org/2000/svg"
   xmlns:svg="http://www.w3.org/2000/svg"><defs
     id="defs11" /><sodipodi:namedview
     id="namedview11"
     pagecolor="#ffffff"
     bordercolor="#000000"
     borderopacity="0.25"
     inkscape:showpageshadow="2"
     inkscape:pageopacity="0.0"
     inkscape:pagecheckerboard="0"
     inkscape:deskcolor="#d1d1d1"
     inkscape:zoom="2.4279439"
     inkscape:cx="150.5389"
     inkscape:cy="166.19"
     inkscape:window-width="1920"
     inkscape:window-height="1009"
     inkscape:window-x="-8"
     inkscape:window-y="-8"
     inkscape:window-maximized="1"
     inkscape:current-layer="svg11" /><path
     fill="#FCBC17"
     d="M462.822 187.627c-6.26-25.937-11.662-48.337-13.09-61.012-3.685-32.753 10.778-55.086 10.93-55.298l4.13-6.262-45.945-57.464-6.354 1.556c-42.106 10.358-96.817 16.049-154.054 16.049l-1.295-.005-1.295.005c-57.237 0-111.948-5.691-154.054-16.049l-6.354-1.556-45.947 57.464 4.13 6.262c.151.212 14.614 22.545 10.929 55.298-1.427 12.674-6.83 35.075-13.089 61.012-11.707 48.511-26.272 108.89-26.272 151.575 0 77.699 31.734 116.361 125.756 153.209l9.678 3.76c36.267 14.052 75.443 26.268 88.336 56.065 4.211 8.086 5.294 10.246 8.181 20.744 2.887-10.498 3.97-12.658 8.181-20.744 12.893-29.798 52.068-42.014 88.336-56.065l9.678-3.76c94.021-36.849 125.756-75.511 125.756-153.209 0-42.684-14.567-103.065-26.272-151.575"
     id="path1" /><path
     fill="#E13327"
     d="M470.297 267.535c-5.042-26.177-11.572-53.258-17.425-77.507-6.263-26.031-11.701-48.281-13.311-62.268a106 106 0 0 1-.667-11.828c.017-21.979 6.838-38.259 10.643-45.705 1.295-2.518 2.181-3.938 2.563-4.523l.017-.022.023-.036.008-.013-37.216-46.547c-43.236 10.622-98.565 16.333-156.496 16.345h-.043l-1.253-.006v510.117c3.833-7.822 9.191-14.508 15.402-20.201 6.908-6.333 14.867-11.518 23.35-16.063 16.969-9.065 36.15-15.689 54.059-22.646l9.649-3.749c34.699-13.584 60.227-27.286 78.251-42.482 18.026-15.251 28.804-31.684 34.992-52.546 4.092-13.92 6.014-29.916 6.012-48.652.017-20.203-3.507-45.514-8.558-71.668"
     id="path2" /><path
     d="m257.138 35.424-1.291.006c-57.931-.012-113.263-5.723-156.488-16.343l-.008-.002-37.216 46.547.053.081.088.135q.082.128.185.292.207.332.518.857c.412.7.955 1.665 1.586 2.882 1.263 2.432 2.876 5.874 4.476 10.213 3.196 8.672 6.345 20.965 6.347 35.839 0 3.786-.206 7.734-.665 11.827-1.609 13.987-7.049 36.238-13.311 62.269-5.853 24.25-12.382 51.33-17.425 77.507-5.05 26.153-8.575 51.465-8.561 71.666-.002 18.735 1.919 34.733 6.012 48.651 4.105 13.93 10.312 25.83 19.283 36.778 17.861 21.841 47.639 40.129 93.932 58.239l9.669 3.757c13.434 5.209 27.591 10.263 40.98 16.264 13.378 6.018 26.064 12.956 36.438 22.45 6.212 5.693 11.57 12.379 15.402 20.201V35.424z"
     id="path3" /><path
     fill="#FCBC17"
     d="M218.379 442.44c2.423-.846 4.577-2.585 5.828-4.769h.078v15.361c0 1.556-.104 2.809 1.371 3.766v.073h-5.725v-.073c1.69-.828 1.609-2.104 1.609-3.766v-10.515h-3.162zM239.867 455.736c4.354-.901 8.333-4.879 8.333-9.457 0-2.781-1.553-5.825-4.689-5.825-2.342 0-3.976 1.818-3.976 4.113 0 2.474 1.634 4.432 4.149 4.432 1.002 0 2.012-.347 2.882-.868l-1.852 2.262a6.1 6.1 0 0 1-2.205.408c-3.193 0-5.719-2.373-5.719-5.662 0-3.974 3.237-6.62 7.076-6.62 4.281 0 7.084 3.352 7.084 7.465 0 3.133-1.656 6.155-4.087 8.091-2.485 1.953-5.255 2.938-8.366 3.346zM265.652 447.7c0 2.742.898 7.481 4.412 7.481 2.697 0 4.229-3.318 4.229-7.163 0-3.89-1.637-7.319-4.391-7.382-3.435.003-4.25 4.417-4.25 7.064m-2.912.269c0-5.035 2.477-9.451 7.267-9.451 5.044 0 7.199 4.874 7.199 9.29 0 4.438-2.185 9.501-7.302 9.501-4.274-.051-7.164-4.304-7.164-9.34M288.641 442.44c2.42-.846 4.574-2.585 5.822-4.769h.087v15.361c0 1.556-.108 2.809 1.356 3.766v.073h-5.713v-.073c1.693-.828 1.606-2.104 1.606-3.766v-10.515h-3.159v-.077"
     id="path6" /><path
     fill="#FFF"
     d="M309.684 71.938H204.606l-62.324 63.172v103.914l63.976 65.248h101.777l.737-.751 63.232-64.497V135.109z"
     id="path7" /><path
     fill="#E13327"
     d="M233.572 151.461c0-12.552 9.816-22.806 22.187-23.521V74.445h-50.103l-60.866 61.694v101.862l62.523 63.765h48.446V174.987c-12.371-.715-22.187-10.974-22.187-23.526"
     id="path8" /><path
     d="M308.636 74.444h-50.103v53.496c12.372.722 22.181 10.973 22.181 23.52s-9.81 22.803-22.181 23.525v126.78h48.449L369.496 238V136.139z"
     id="path9" /><path
     fill="#FFF"
     d="m263.704 124.046.618-8.192s12.219-.621 22.99 8.282c0 0 8.688-25.473 20.909-30.85 0 0 .825 3.307 1.646 3.52.836.201 3.729-3.111 4.565-2.899.82.207-1.038 11.388 24.84 21.119l-1.448 6.833s-31.676-2.49-31.676 16.351c0 8.489 12.217 23.189 14.278 25.881 2.082 2.691 15.324 13.458 17.186 42.237 0 0 4.768-3.525 4.768-12.63 0-9.11-5.38-27.33-5.38-33.956s-1.044-24.426 16.972-24.426v9.104s-6.103-.174-6.835 7.868c-.613 6.833 8.285 36.854 4.145 48.242-3.4 9.356-5.177 13.039-11.8 18.215-6.625 5.176-27.747 21.947-7.457 36.849l-18.838 34.163s-10.974 3.934-11.799 3.934c-.831 0-3.11.42-1.455-1.449 1.659-1.858 16.153-15.316 16.153-30.016 0-14.701-21.323-19.261-21.323-41.41 0-14.7 12.837-23.604 12.837-23.604s-2.279-5.383-4.555-7.241c-2.283-1.869-14.91-9.323-16.768-13.878 0 0-12.429 10.146-22.364 10.772 0 0-2.482-4.348-2.689-7.454 0 0 24.829-3.173 24.349-29.154-.408-21.79-21.869-26.211-21.869-26.211M250.576 124.046l-.618-8.192s-12.21-.621-22.985 8.282c0 0-8.69-25.473-20.903-30.85 0 0-.831 3.307-1.662 3.52-.826.201-3.724-3.111-4.55-2.899-.831.207 1.033 11.388-24.846 21.119l1.45 6.833s31.678-2.49 31.678 16.351c0 8.489-12.219 23.189-14.287 25.881-2.073 2.691-15.321 13.458-17.185 42.237 0 0-4.762-3.525-4.762-12.63 0-9.11 5.38-27.33 5.38-33.956s1.038-24.426-16.972-24.426v9.104s6.097-.174 6.83 7.868c.619 6.833-8.279 36.854-4.141 48.242 3.402 9.356 5.174 13.039 11.802 18.215 6.625 5.176 27.742 21.947 7.457 36.849l18.836 34.163s10.973 3.934 11.802 3.934c.825 0 3.108.42 1.452-1.449-1.657-1.858-16.155-15.316-16.155-30.016 0-14.701 21.329-19.261 21.329-41.41 0-14.7-12.837-23.604-12.837-23.604s2.277-5.383 4.558-7.241c2.275-1.869 14.902-9.323 16.765-13.878 0 0 12.423 10.146 22.358 10.772 0 0 2.487-4.348 2.694-7.454 0 0-24.829-3.173-24.348-29.154.406-21.79 21.86-26.211 21.86-26.211"
     id="path10" /><path
     fill="#FFF"
     d="m213.896 256.221 19.045 27.604 11.455 1.931s1.931 0 .826-1.651c-1.105-1.662-13.937-16.569-15.179-20.296s-4.144-6.9.962-13.945c5.106-7.034 14.904-13.66 14.904-27.739s-12.006-25.422-27.738-25.12c-7.037.146-1.36 4.393-.694 5.249 1.525 1.931 5.797 7.868 6.766 16.844 1.061 9.876-3.867 15.864-3.867 16.692 0 2.35 3.592 2.765 3.592 8.696 0 6.906-10.072 11.735-10.072 11.735M300.066 256.221l-19.043 27.604-11.461 1.931s-1.931 0-.824-1.651c1.1-1.662 13.941-16.569 15.185-20.296 1.239-3.727 4.138-6.9-.968-13.945-5.104-7.034-14.91-13.66-14.91-27.739s12.011-25.422 27.747-25.12c7.036.146 1.356 4.393.694 5.249-1.525 1.931-5.801 7.868-6.769 16.844-1.065 9.876 3.867 15.864 3.867 16.692 0 2.35-3.593 2.765-3.593 8.696-.001 6.906 10.075 11.735 10.075 11.735"
     id="path11" /></svg>
