<?xml version="1.0" encoding="UTF-8" standalone="no"?>
<svg
   width="101"
   height="200"
   version="1.1"
   id="svg1"
   sodipodi:docname="stade-de-reims.svg"
   inkscape:version="1.4.2 (f4327f4, 2025-05-13)"
   xmlns:inkscape="http://www.inkscape.org/namespaces/inkscape"
   xmlns:sodipodi="http://sodipodi.sourceforge.net/DTD/sodipodi-0.dtd"
   xmlns="http://www.w3.org/2000/svg"
   xmlns:svg="http://www.w3.org/2000/svg">
  <defs
     id="defs1" />
  <sodipodi:namedview
     id="namedview1"
     pagecolor="#ffffff"
     bordercolor="#000000"
     borderopacity="0.25"
     inkscape:showpageshadow="2"
     inkscape:pageopacity="0.0"
     inkscape:pagecheckerboard="0"
     inkscape:deskcolor="#d1d1d1"
     inkscape:zoom="4.035"
     inkscape:cx="50.433705"
     inkscape:cy="80.173482"
     inkscape:window-width="1920"
     inkscape:window-height="1009"
     inkscape:window-x="-8"
     inkscape:window-y="-8"
     inkscape:window-maximized="1"
     inkscape:current-layer="svg1" />
  <path
     fill-rule="evenodd"
     d="m 46.81,0 h 7.38 v 0.88 c 0,0.48 0.16,1.44 0.35,2.13 0.19,0.68 0.62,1.77 0.96,2.42 0.38,0.71 1.07,1.62 1.79,2.35 0.85,0.86 1.53,1.35 2.44,1.79 0.69,0.34 1.71,0.7 2.26,0.8 0.56,0.1 1.61,0.14 2.35,0.09 0.74,-0.05 1.8,-0.25 2.35,-0.43 0.62,-0.21 1.32,-0.61 1.82,-1.05 0.45,-0.4 0.99,-1.09 1.21,-1.55 0.21,-0.46 0.43,-1.12 0.58,-2.09 h 3.6 c 2.78,0 3.61,0.05 3.61,0.21 0,0.12 -0.95,2.61 -2.11,5.55 -1.16,2.94 -2.23,5.76 -2.37,6.26 -0.16,0.58 -0.28,1.89 -0.38,6.18 H 28.35 L 28.29,20.91 C 28.25,19.25 28.13,17.94 27.97,17.36 27.83,16.86 26.76,14.04 25.6,11.1 24.44,8.16 23.49,5.67 23.49,5.55 c 0,-0.16 0.83,-0.21 7.21,-0.21 l 0.1,0.63 c 0.05,0.34 0.27,1 0.48,1.46 0.22,0.46 0.76,1.15 1.21,1.55 0.5,0.44 1.2,0.84 1.82,1.05 0.55,0.18 1.61,0.38 2.35,0.43 0.74,0.05 1.79,0.01 2.35,-0.09 0.55,-0.1 1.57,-0.46 2.26,-0.8 0.91,-0.44 1.59,-0.93 2.44,-1.79 0.72,-0.73 1.41,-1.64 1.79,-2.35 0.34,-0.65 0.77,-1.74 0.96,-2.42 0.19,-0.69 0.35,-1.65 0.35,-2.13 z m -0.74,12.89 -0.98,0.88 c 1.05,2.2 1.74,3.42 2.21,4.13 l 0.85,1.3 c 1.76,0.15 2.81,0.15 3.48,0.1 l 1.22,-0.1 c 1.48,-2.27 2.17,-3.49 2.49,-4.17 l 0.57,-1.26 c -1.66,-1.51 -2.82,-2.4 -3.65,-2.94 -0.83,-0.54 -1.62,-0.98 -1.76,-0.98 -0.14,0 -0.97,0.49 -1.85,1.08 -0.87,0.59 -2.03,1.47 -2.58,1.96 m 5.1,24.56 c 8.84,0.03 8.99,0.03 9.9,0.4 0.51,0.2 1.34,0.66 1.85,1.02 0.5,0.36 1.2,1.05 1.55,1.55 0.34,0.49 0.79,1.31 0.99,1.82 0.3,0.76 0.37,1.37 0.51,6.42 l -4.41,2.43 c -2.42,1.33 -4.51,2.43 -4.63,2.46 -0.18,0.03 -0.22,-0.58 -0.22,-3.09 0,-2.65 -0.05,-3.22 -0.3,-3.71 -0.16,-0.32 -0.55,-0.73 -0.88,-0.92 -0.54,-0.31 -0.92,-0.34 -4.78,-0.39 -2.66,-0.04 -4.45,0.01 -4.91,0.12 -0.39,0.1 -0.95,0.4 -1.25,0.66 -0.32,0.28 -0.64,0.78 -0.77,1.21 -0.16,0.51 -0.21,1.46 -0.17,3.07 0.05,2.17 0.09,2.39 0.5,3.09 0.34,0.58 0.72,0.91 1.68,1.44 0.67,0.38 3,1.61 5.17,2.73 2.17,1.12 5.53,2.88 7.46,3.9 3.01,1.59 3.68,2.02 4.62,2.95 0.69,0.67 1.34,1.52 1.72,2.25 0.34,0.64 0.73,1.7 0.87,2.34 0.21,0.92 0.26,2.44 0.26,7.22 0,3.82 -0.06,6.37 -0.18,6.93 -0.1,0.48 -0.36,1.25 -0.58,1.71 -0.22,0.46 -0.65,1.13 -0.96,1.5 -0.31,0.37 -0.94,0.92 -1.39,1.22 -0.46,0.3 -1.36,0.71 -2,0.9 -0.65,0.19 -1.2,0.38 -1.22,0.41 -0.02,0.03 1.7,2.95 3.82,6.49 2.12,3.53 3.86,6.46 3.86,6.51 0,0.04 -0.47,0.7 -1.04,1.46 -0.57,0.76 -1.62,2.05 -2.33,2.88 -0.72,0.82 -1.79,1.99 -3.47,3.67 l -1.48,-2.75 C 58.14,105.83 54.75,99.56 45.33,82.22 l 4.92,-0.08 c 4.64,-0.08 4.95,-0.11 5.4,-0.43 0.26,-0.19 0.6,-0.61 0.76,-0.92 0.26,-0.49 0.3,-1.07 0.3,-4.16 0,-1.98 -0.08,-3.85 -0.17,-4.18 -0.09,-0.32 -0.38,-0.84 -0.64,-1.16 -0.3,-0.38 -1.2,-0.98 -2.48,-1.66 -1.368102,-0.734553 -2.731464,-1.477902 -4.09,-2.23 -1.16,-0.64 -4.25,-2.37 -6.88,-3.85 -4.24,-2.38 -4.92,-2.82 -5.96,-3.86 -0.66,-0.65 -1.42,-1.62 -1.71,-2.18 -0.3,-0.55 -0.65,-1.49 -0.79,-2.08 -0.2,-0.84 -0.26,-2.11 -0.27,-5.51 0,-3.42 0.06,-4.65 0.26,-5.43 0.14,-0.55 0.5,-1.49 0.79,-2.09 0.34,-0.66 0.97,-1.51 1.64,-2.18 0.79,-0.8 1.47,-1.28 2.51,-1.79 0.79,-0.39 1.84,-0.77 2.35,-0.85 0.51,-0.08 4.96,-0.14 9.9,-0.13 m -40.26,0.28 h 7.37 l 0.06,23.41 c 0.05,21.02 0.09,23.58 0.34,25 0.16,0.88 0.48,2.42 0.72,3.43 0.25,1.01 0.77,2.77 1.16,3.92 0.39,1.15 1.03,2.8 1.41,3.67 0.38,0.87 1.22,2.6 1.87,3.84 0.65,1.24 1.89,3.31 2.74,4.59 0.86,1.29 2.01,2.91 2.55,3.61 0.54,0.71 1.75,2.13 2.68,3.18 0.94,1.04 2.45,2.58 3.36,3.41 0.91,0.83 2.34,2.07 3.17,2.74 0.83,0.67 2.45,1.84 3.6,2.6 1.16,0.75 2.74,1.72 3.53,2.14 0.78,0.41 2.23,1.1 5.03,2.27 l 1.8,-0.76 c 1,-0.41 2.45,-1.1 3.23,-1.51 0.79,-0.42 2.37,-1.39 3.53,-2.15 1.15,-0.77 2.92,-2.05 3.93,-2.87 1.02,-0.81 2.79,-2.41 3.95,-3.56 1.16,-1.15 2.77,-2.87 3.58,-3.84 0.81,-0.96 2.05,-2.58 2.76,-3.59 0.71,-1 1.82,-2.69 2.46,-3.75 0.64,-1.06 1.71,-3.05 2.37,-4.43 0.67,-1.38 1.5,-3.25 1.84,-4.17 0.34,-0.92 0.88,-2.57 1.2,-3.67 0.32,-1.11 0.77,-3.06 1.46,-6.68 l 0.06,-46.83 h 7.38 L 90.02,61.56 C 90,83.34 89.97,85.54 89.7,87.06 c -0.16,0.92 -0.48,2.54 -0.72,3.59 -0.24,1.06 -0.7,2.78 -1.02,3.84 -0.32,1.06 -0.92,2.78 -1.34,3.84 -0.41,1.06 -1.22,2.9 -1.79,4.09 -0.58,1.19 -1.53,3 -2.11,4.01 -0.58,1.01 -1.59,2.62 -2.24,3.59 -0.65,0.96 -1.63,2.35 -2.19,3.09 -0.56,0.73 -1.58,2.01 -2.28,2.83 -0.7,0.82 -1.98,2.24 -2.86,3.16 -0.88,0.91 -2.46,2.41 -3.52,3.34 -1.06,0.93 -2.54,2.15 -3.28,2.7 -0.73,0.56 -2.13,1.55 -3.1,2.19 -0.97,0.64 -2.59,1.63 -3.61,2.19 -1.206569,0.65924 -2.437434,1.273 -3.69,1.84 -1.01,0.44 -2.67,1.09 -5.53,2.07 l -1.77,-0.63 c -0.96,-0.35 -2.59,-1 -3.6,-1.44 -1.252566,-0.567 -2.483431,-1.18076 -3.69,-1.84 -1.02,-0.56 -2.64,-1.55 -3.61,-2.19 -0.97,-0.64 -2.48,-1.71 -3.36,-2.38 -0.87,-0.67 -2.42,-1.96 -3.44,-2.87 -1.01,-0.91 -2.48,-2.33 -3.27,-3.15 -0.78,-0.82 -1.99,-2.17 -2.69,-2.99 -0.7,-0.83 -1.73,-2.1 -2.28,-2.83 -0.56,-0.74 -1.67,-2.32 -2.46,-3.51 -0.924008,-1.41546 -1.797883,-2.86303 -2.62,-4.34 -0.65,-1.19 -1.6,-3.07 -2.09,-4.17 -0.607915,-1.3762 -1.174832,-2.770147 -1.7,-4.18 -0.43,-1.19 -1.07,-3.3 -1.43,-4.67 -0.35,-1.38 -0.75,-3.22 -0.9,-4.09 -0.14,-0.88 -0.34,-2.27 -0.43,-3.09 -0.11,-0.94 -0.17,-10.11 -0.17,-24.42 z m 32.33,29.4 c 0.03,-0.01 0.05,10.12 0.05,22.52 0,12.4 -0.06,22.54 -0.13,22.54 -0.07,0 -1.03,-0.85 -2.14,-1.89 -1.11,-1.05 -2.66,-2.64 -3.45,-3.55 -0.79,-0.91 -1.87,-2.22 -3.34,-4.16 l 0.08,-30.51 4.45,-2.47 c 2.44,-1.36 4.46,-2.47 4.48,-2.48"
     style="fill:#eb0000"
     id="path1"
     sodipodi:nodetypes="ccscccccsccccssscccccsscccccscccccscccccccccssccccccccccscccccccccsccccscssccscsscccccccscccccccccccccsccccccssscccsscccccccsccscscccccccsccsccscscsccccccsccccccccccccsccsscscccc" />
</svg>
