<?xml version="1.0" encoding="UTF-8" standalone="no"?>
<svg
   viewBox="0 0 116.02 150.86"
   version="1.1"
   id="svg5"
   sodipodi:docname="aberdeen.svg"
   inkscape:version="1.4.2 (f4327f4, 2025-05-13)"
   xmlns:inkscape="http://www.inkscape.org/namespaces/inkscape"
   xmlns:sodipodi="http://sodipodi.sourceforge.net/DTD/sodipodi-0.dtd"
   xmlns="http://www.w3.org/2000/svg"
   xmlns:svg="http://www.w3.org/2000/svg">
  <sodipodi:namedview
     id="namedview5"
     pagecolor="#ffffff"
     bordercolor="#000000"
     borderopacity="0.25"
     inkscape:showpageshadow="2"
     inkscape:pageopacity="0.0"
     inkscape:pagecheckerboard="0"
     inkscape:deskcolor="#d1d1d1"
     inkscape:zoom="5.6409916"
     inkscape:cx="57.968531"
     inkscape:cy="75.43"
     inkscape:window-width="1920"
     inkscape:window-height="1111"
     inkscape:window-x="-9"
     inkscape:window-y="-9"
     inkscape:window-maximized="1"
     inkscape:current-layer="svg5" />
  <defs
     id="defs1">
    <style
       id="style1">.cls-1{fill:#e00916}.cls-2{fill:#fff}</style>
  </defs>
  <path
     d="M58.01 150.86C26.02 150.86 0 124.63 0 92.4s26.02-58.45 58.01-58.45 58.01 26.22 58.01 58.45S90 150.85 58.01 150.85Z"
     class="cls-1"
     id="path1" />
  <path
     d="m 113.86,92.4 c 0,31.09 -25.01,56.29 -55.85,56.29 -30.84,0 -55.85,-25.2 -55.85,-56.29 0,-31.09 25.01,-56.29 55.85,-56.29 30.85,0 55.85,25.2 55.85,56.29 m -2.16,0 C 111.7,62.52 87.67,38.3 58.02,38.3 28.37,38.3 4.34,62.52 4.34,92.4 c 0,29.88 24.03,54.1 53.68,54.1 29.65,0 53.68,-24.22 53.68,-54.1 m -17.39,0.03 c 0,20.19 -16.24,36.55 -36.27,36.55 -20.03,0 -36.27,-16.36 -36.27,-36.55 0,-20.19 16.24,-36.55 36.27,-36.55 20.03,0 36.27,16.36 36.27,36.55 m -2.19,-0.02 c 0,-18.98 -15.26,-34.36 -34.09,-34.36 -18.83,0 -34.09,15.38 -34.09,34.36 0,18.98 15.26,34.36 34.09,34.36 18.83,0 34.09,-15.38 34.09,-34.36 M 64.88,84.99 c 0,4.74 -3.82,8.59 -8.52,8.59 -4.7,0 -8.52,-3.84 -8.52,-8.59 0,-4.75 3.82,-8.59 8.52,-8.59 4.71,0 8.52,3.85 8.52,8.59 m -12.93,-5.67 2.97,1.04 2.17,-2.16 -1.17,-0.98 c 0,0 -0.9,0.07 -1.69,0.29 -0.7,0.2 -1.46,0.6 -1.46,0.6 z m -0.32,5.24 -1.2,-2.74 -1.3,0.45 c 0,0 -0.31,1.08 -0.39,1.92 -0.08,0.85 0,1.61 0,1.61 l 1.01,1.28 1.87,-2.52 z m 4.67,7.1 -2.31,-2.42 -2.55,0.74 0.03,1 c 0,0 0.73,0.6 1.64,1 1.16,0.51 1.91,0.63 1.91,0.63 z m 2.75,-8.86 -3.88,-1.12 -2.26,3.37 2.48,3.21 3.49,-1.25 z m 4.57,4.72 -0.61,-1.56 -2.55,1.18 -0.12,3.35 h 1.47 c 0,0 0.69,-0.7 1.06,-1.29 0.38,-0.61 0.75,-1.68 0.75,-1.68 m -0.34,-6.01 c 0,0 -0.41,-0.87 -1.11,-1.67 -0.55,-0.64 -1.33,-1.2 -1.33,-1.2 l -1.35,-0.03 0.18,2.87 2.99,1.15 z m -8.8,28.03 c -0.68,0 -1.17,0.5 -1.17,1.23 0,0.73 0.46,1.21 1.14,1.21 0.72,0 1.22,-0.55 1.22,-1.28 0,-0.68 -0.49,-1.16 -1.19,-1.16 m 6.81,0.14 c -0.85,0 -1.34,0.92 -1.34,2.65 0,1.83 0.54,2.82 1.36,2.82 0.82,0 1.32,-0.98 1.32,-2.9 0,-1.7 -0.49,-2.57 -1.34,-2.57 m 7.72,-6.83 h 19.22 c 0,0 -6.93,21.67 -30.22,21.67 -23.04,0 -30.15,-21.67 -30.15,-21.67 L 54.74,64.57 c 0,0 1.45,-2.39 4.22,-2.39 h 10.05 z m -19.94,13.63 c -0.26,-0.66 -0.34,-1.34 -0.34,-2.12 v -6.07 l -2.78,2.35 h 1.26 v 3.72 c 0,0.77 -0.09,1.46 -0.35,2.12 z m 8.06,-5.79 c 0,-1.43 -1.01,-2.4 -2.63,-2.4 -1.51,0 -2.59,1.06 -2.59,2.55 0,1.35 0.9,2.26 2.19,2.26 0.16,0 0.31,-0.02 0.51,-0.07 l -1.02,1.74 c -0.28,0.48 -0.7,1.05 -1.25,1.71 h 2.36 c -0.02,-0.09 -0.03,-0.16 -0.03,-0.25 0,-0.53 0.4,-1.06 0.88,-1.88 0.81,-1.35 1.58,-2.42 1.58,-3.66 m 8.99,-7.84 V 65.3 H 59.1 c -1.15,0 -1.58,0.75 -1.58,0.75 l -25.98,36.8 z m -1.76,9.55 c 0,-1.59 -0.5,-2.79 -1.4,-3.51 -0.49,-0.38 -1.04,-0.6 -1.62,-0.6 -0.76,0 -1.49,0.34 -2.03,0.95 -0.7,0.79 -1.07,1.88 -1.07,3.2 0,1.21 0.32,2.22 0.93,3.03 0.54,0.7 1.28,1.07 2.1,1.07 0.82,0 1.53,-0.36 2.09,-1.02 0.67,-0.82 1,-1.85 1,-3.12 m 0.91,-4.03 v 1.83 c 0.31,-0.41 1.19,-0.55 2.67,-0.55 h 0.49 l -1.34,2.78 c 1.2,0.13 1.84,0.64 1.84,1.48 0,0.92 -0.53,1.5 -1.36,1.5 -0.78,0 -1.33,-0.45 -1.58,-1.33 l -0.87,1.67 c 0.69,0.54 1.52,0.8 2.48,0.8 1.81,0 2.91,-1.04 2.91,-2.6 0,-1.04 -0.51,-1.79 -1.56,-2.26 l 1.6,-3.32 z m 6.31,-19.05 h 2.91 c -0.32,-0.8 -0.42,-1.65 -0.42,-2.6 v -1.8 c 0.12,-0.02 0.23,-0.02 0.35,-0.02 0.68,0 1.27,0.15 1.79,0.46 l 0.92,-1.85 h -3.06 v -2.67 c 0.99,0.01 1.78,0.14 2.41,0.45 l 0.92,-1.95 h -5.82 c 0.31,0.8 0.42,1.64 0.42,2.6 v 4.78 c 0,0.95 -0.11,1.8 -0.42,2.6 m 6.52,-4.63 c 0,1.58 0.61,2.85 1.82,3.79 0.83,0.65 1.84,0.96 3.02,0.96 1.06,0 2.04,-0.21 2.97,-0.62 l 0.29,-2.28 c -0.73,0.92 -1.54,1.34 -2.63,1.34 -1.94,0 -3.23,-1.38 -3.23,-3.55 0,-2.17 1.24,-3.49 2.99,-3.49 0.97,0 1.86,0.44 2.71,1.29 v -2.49 c -0.81,-0.26 -1.59,-0.39 -2.29,-0.39 -1.43,0 -2.71,0.46 -3.77,1.33 -1.21,1 -1.88,2.46 -1.88,4.11"
     class="cls-2"
     id="path2"
     sodipodi:nodetypes="csssccsssccsssccsssccsssccccccccccccccccccccccccccccccccccccccccccccsssccssscccsccscccscccscccsssccccsccccscccccscscsccccsccssccsscccccscscccccccsscccsccsssccscc" />
  <path
     d="m39.94 19.43 3.25 10.02-8.51-6.19-8.52 6.19 3.25-10.02-8.51-6.18h10.52l3.26-10.02 3.25 10.02h10.53z"
     class="cls-1"
     id="path3" />
  <path
     d="M51.54 12.25H38.66L34.68 0 30.7 12.25H17.82l10.42 7.57-3.98 12.24 10.42-7.57 10.42 7.57-3.98-12.24zM34.68 23.26l-8.52 6.19 3.25-10.02-8.51-6.18h10.52l3.26-10.02 3.25 10.02h10.53l-8.52 6.18 3.25 10.02zM97.82 12.25H84.95L80.96 0l-3.97 12.25H64.11l10.42 7.57-3.98 12.25 10.41-7.57 10.42 7.57-3.98-12.25zm-25.37 17.2 3.25-10.01-8.52-6.19h10.53l3.25-10.01 3.26 10.01h10.53l-8.52 6.19 3.25 10.01-8.52-6.19z"
     class="cls-2"
     id="path4" />
  <path
     d="m86.23 19.44 3.25 10.01-8.52-6.19-8.51 6.19 3.25-10.01-8.52-6.19h10.53l3.25-10.01 3.26 10.01h10.53z"
     class="cls-1"
     id="path5" />
</svg>
