<?xml version="1.0" encoding="UTF-8" standalone="no"?>
<svg
   fill="none"
   class="logo"
   viewBox="0 0 80 80"
   version="1.1"
   id="svg30"
   sodipodi:docname="hibernian.svg"
   inkscape:version="1.4.2 (f4327f4, 2025-05-13)"
   xmlns:inkscape="http://www.inkscape.org/namespaces/inkscape"
   xmlns:sodipodi="http://sodipodi.sourceforge.net/DTD/sodipodi-0.dtd"
   xmlns="http://www.w3.org/2000/svg"
   xmlns:svg="http://www.w3.org/2000/svg">
  <sodipodi:namedview
     id="namedview30"
     pagecolor="#ffffff"
     bordercolor="#000000"
     borderopacity="0.25"
     inkscape:showpageshadow="2"
     inkscape:pageopacity="0.0"
     inkscape:pagecheckerboard="0"
     inkscape:deskcolor="#d1d1d1"
     inkscape:zoom="10.6375"
     inkscape:cx="39.952996"
     inkscape:cy="62.467685"
     inkscape:window-width="1920"
     inkscape:window-height="1111"
     inkscape:window-x="-9"
     inkscape:window-y="-9"
     inkscape:window-maximized="1"
     inkscape:current-layer="g29" />
  <g
     clip-path="url(#a)"
     id="g29">
    <path
       fill="#007B3F"
       d="M35.327 14.078a26.36 26.36 0 0 0-14.267 7.666h14.143a6.15 6.15 0 0 1-1.274-3.754 6.15 6.15 0 0 1 1.4-3.912m23.804 7.666a26.35 26.35 0 0 0-14.273-7.666 6.15 6.15 0 0 1 1.4 3.912 6 6 0 0 1-1.274 3.754zm18.177 4.881-12.39 4.378a26.35 26.35 0 0 0-5.773-9.248v22.228c0 15.984-15.38 21.544-18.444 22.359 10.733-.24 19.883-6.873 23.785-16.232 4.055 2.189 8.083 4.36 11.606 6.258-6.231 13.647-20.016 23.119-35.991 23.119S10.33 70.013 4.101 56.361c3.137-1.697 7.264-3.927 11.6-6.273 3.893 9.37 13.048 16.012 23.785 16.254-3.067-.817-18.445-6.375-18.445-22.36v-22.22a26.35 26.35 0 0 0-5.77 9.253L2.879 26.638C8.365 11.396 22.97.511 40.096.511s31.722 10.876 37.212 26.114"
       id="path1" />
    <path
       fill="#fff"
       d="M40.095.51c17.121 0 31.723 10.877 37.213 26.115l-12.391 4.378a26.4 26.4 0 0 0-5.773-9.248v22.228c0 15.984-15.38 21.544-18.444 22.359 10.732-.24 19.883-6.873 23.782-16.232 4.056 2.189 8.083 4.36 11.607 6.258-6.232 13.647-20.016 23.12-35.994 23.12-15.977 0-29.766-9.475-35.995-23.127 3.136-1.697 7.264-3.93 11.6-6.273 3.893 9.37 13.048 16.012 23.785 16.254-3.067-.817-18.445-6.375-18.445-22.36v-22.22a26.35 26.35 0 0 0-5.77 9.252L2.876 26.638C8.364 11.396 22.97.511 40.096.511Zm4.89 21.234h14.148a26.35 26.35 0 0 0-14.273-7.666 6.15 6.15 0 0 1 1.4 3.912 5.98 5.98 0 0 1-1.274 3.754Zm-9.658-7.666a26.36 26.36 0 0 0-14.267 7.666h14.143a6.14 6.14 0 0 1-1.274-3.754 6.15 6.15 0 0 1 1.4-3.912M40.095 0c-8.407 0-16.453 2.573-23.271 7.442a40.2 40.2 0 0 0-8.633 8.372 39.8 39.8 0 0 0-5.795 10.65l-.174.485.485.172L15.1 31.498l.478.17.174-.476a25.7 25.7 0 0 1 4.778-8.112v20.905c0 3.765.845 7.25 2.51 10.363 1.371 2.563 3.306 4.884 5.747 6.899 2.386 1.97 4.853 3.321 6.81 4.201a25.9 25.9 0 0 1-19.425-15.555l-.218-.524-.497.27L3.854 55.91l-.419.228.198.435a40.07 40.07 0 0 0 14.527 16.9A39.9 39.9 0 0 0 40.093 80a39.93 39.93 0 0 0 21.93-6.525 40.1 40.1 0 0 0 14.529-16.892l.197-.435-.421-.228-11.607-6.258-.498-.27-.217.522c-3.425 8.225-10.813 14.024-19.425 15.537 1.957-.88 4.426-2.233 6.812-4.204 2.441-2.015 4.376-4.336 5.747-6.899 1.667-3.112 2.51-6.598 2.51-10.363V23.074a25.6 25.6 0 0 1 4.78 8.107l.174.476.478-.17 12.391-4.377.485-.172-.174-.484a39.8 39.8 0 0 0-5.797-10.646 40.2 40.2 0 0 0-8.63-8.37C56.543 2.57 48.497 0 40.094 0Zm5.838 21.233c.55-.987.837-2.091.837-3.243a6.6 6.6 0 0 0-.795-3.16 25.66 25.66 0 0 1 11.915 6.403zm-23.632 0a25.7 25.7 0 0 1 11.909-6.401 6.7 6.7 0 0 0-.796 3.158c0 1.106.287 2.256.837 3.243H22.299z"
       id="path2" />
    <path
       fill="#fff"
       d="M54.15 37.417c.48-.633.751-1.302.773-1.837h-1.98c0 .324-.374.59-.835.59h-4.216c-.461 0-.835-.264-.833-.607H45.04c.017.537.296 1.215.787 1.854m0 0c.843 1.097 2.313 2.088 4.173 2.088s3.317-.993 4.15-2.09m-1.72-2.417c0 .139.113.25.25.25h3.006c.137 0 .25-.113.25-.25a.25.25 0 0 0-.25-.25H52.68a.25.25 0 0 0-.25.25"
       id="path3" />
    <path
       fill="#fff"
       d="M49.935 31.663v4.193h.413v-4.169a5 5 0 0 0-.368-.024h-.047zm2.743 2.181v.595h3.012l.322-1.326-.483.105-.165.847h-.428v-.717l-.374.083v.634h-.517v-.521l-.415.09v.431h-.52v-.315zm2.258-1.646v-2.486l-1.708.76 1.467.642v1.136z"
       id="path4" />
    <path
       fill="#fff"
       d="M46.914 27.895s.08.004.063.063c-1.463 2.543.378 4.799.378 4.799.406-.822 1.213-1.443 2.636-1.406.522.013.97.093 1.39.284 0 0 .81.261 1.749.959 0 0-.972-2.01-.518-4.002.572-2.501 1.913-3.275 2.537-3.751a.11.11 0 0 0 .054-.098.116.116 0 0 0-.17-.102 620 620 0 0 1-8.245 3.062s-.161.103.128.19m3.256-3.678c.206 0 .376-.109.376-.244 0-.134-.168-.243-.376-.243-.209 0-.376.109-.376.243 0 .135.167.244.376.244m5.631 11.237-.063.004c-.463 0-.839.53-.839 1.185 0 .243.046.517.135.706a1.6 1.6 0 0 0-.37.07c-.85.28-.669 1.243-.669 1.243-.824-.11-1.808.598-1.808.598s.847-.157 1.74.304c0 0 .218-.489.564-.635 0 0-.355-.8.26-.878.153-.02.007 0 .007 0 .233-.015.222.074.222.074-.441.065-.376.437-.376.437a.49.49 0 0 0 .482.387c.098 0 .19-.028.267-.076.396-.333.34-.87.266-1.265l-.037-.187c-.079-.378-.19-.848-.146-1.08.05-.268.037-.537.037-.537s.009-.187.128-.157c0 0-.1.29.205.326a.256.256 0 0 0 .254-.258.256.256 0 0 0-.254-.259m-8.242-.456a.25.25 0 0 0-.253-.25h-3.005a.25.25 0 0 0 0 .5h3.005c.14 0 .253-.113.253-.25m-.248-.561v-.593l-.433-.094v.315h-.52v-.43l-.412-.091v.521h-.52v-.634l-.371-.083v.717h-.428l-.168-.847-.48-.105.322 1.324zM45.4 26.538c1.77.598 2.207.618 2.553.148l-.07-.708a.67.67 0 0 0-.478.082c-.12.065-.091.111-.091-.054s.276-.24 1.084-.267a4 4 0 0 1 1.537.284v.194l.415-.152v-1.461s-.276-.078-.856-.18c-1.091-.192-1.509.137-2.015.432-.507.293-.387.846-.387 1.204 0 .359.304.29.578.487.22.157-.033.18-.515-.02-.424-.173-.333-.588-.333-.588s-.376.028-.678-.057c-.302-.083-1.84-.526-2.382.056-.478.516-.33.824-.33 1.08.017-.004.27-1.056 1.967-.482m11.219 5.614a.2.2 0 0 0-.078.013l-3.695.82a.25.25 0 0 0-.215.25c0 .139.113.252.25.252a.3.3 0 0 0 .093-.015l3.66-.813a.252.252 0 0 0-.015-.504m-9.502 1.33a.25.25 0 0 0 .252-.252c0-.107-.065-.2-.178-.242l-.037-.008-3.695-.82a.252.252 0 1 0-.093.491l3.66.813a.2.2 0 0 0 .093.016m-1.684-1.201v-2.234l-1.709.763 1.467.64v.777zM23.05 46.022c2.385-1.298 17.041-9.212 17.041-9.212s14.206 7.673 17.04 9.196c0 .69-.54 7.897-7.114 13.23-5.18 4.206-9.928 5.284-9.928 5.284s-4.721-1.047-9.898-5.266c-6.57-5.353-7.14-12.559-7.14-13.234"
       id="path5" />
    <mask
       id="b"
       width="35"
       height="29"
       x="23"
       y="36"
       maskUnits="userSpaceOnUse"
       style="mask-type:luminance">
      <path
         fill="#fff"
         d="M23.05 46.022c0 .676.403 8.183 6.976 13.536 5.177 4.217 10.128 5.534 10.065 4.964.49.172 5-.802 10.178-5.005 6.571-5.336 6.864-12.82 6.864-13.508-2.836-1.524-17.04-9.196-17.04-9.196s-14.656 7.911-17.04 9.21"
         id="path6" />
    </mask>
    <g
       mask="url(#b)"
       id="g7">
      <path
         fill="#007B3F"
         d="m29.82 59.563 2.864-2.028v1.912l1.852-1.069v2.332l4.43-3.175h2.249l4.43 3.175v-2.332l1.849 1.07v-1.913s2.539 1.621 2.795 1.902c-.043.293-8.99 5.572-10.196 5.522-4.062-.945-10.276-5.396-10.276-5.396"
         id="path7" />
    </g>
    <path
       fill="#007B3F"
       d="M36.503 50.723h7.174v6.497h-1.932v-3.304c-.01-.859-.793-1.56-1.656-1.56s-1.645.71-1.656 1.566v3.298h-1.93zm-.303-1.915h-3.514v1.604h3.515zm0-2.656v2.343h-3.514v-2.343h.798v.893h.54v-.893h.29v-.735h-2.287l.815-.693-.815-.691h2.543v2.12h.292v.892h.54v-.893zm0 9.457h-3.514v1.61h3.515zm0-4.886h-3.514v4.573h3.515zm11.296-1.915h-3.514v1.604h3.514zm0-2.656v2.343h-3.514v-2.343h.797v.893h.54v-.893h.29v-.735h-2.286l.815-.693-.815-.691h2.543v2.12h.291v.892h.54v-.893zm0 9.457h-3.514v1.61h3.514zm0-4.886h-3.514v4.573h3.514zm-3.819-1.111v.8h-7.174v-1.604h1.19v.804h.835v-.804h1.113v.804h.898v-.804h1.115v.804h.832v-.804h1.191zm-10.667 7.92h5.468l-3.619 2.53v-2.251l-1.85 1.07v-1.349Zm8.694 0h5.468v1.348l-1.851-1.07v2.252zM38.335 41.96h.797v.893h.54v-.894h.29v-.732h-2.286l.815-.693-.815-.694h2.543v2.12h.291v.893h.542v-.894h.797v3.304h-3.514zm3.515 3.607h-3.515v2.928h3.514z"
       id="path8" />
    <path
       fill="#007B3F"
       d="M41.44 53.92v3.3h-2.703v-3.297c.01-.674.633-1.263 1.352-1.263s1.341.584 1.352 1.26Z"
       id="path9" />
    <path
       fill="#fff"
       d="M38.887 62.542h2.404v-.584h-2.404zm0-1.252h2.404v-.584h-2.404zm0-1.252h2.404v-.582h-2.404zm0-1.252h2.404v-.582h-2.404z"
       id="path10" />
    <path
       fill="#007B3F"
       d="M41.128 56.907h-2.076v-2.984c.01-.487.478-.95 1.037-.95s1.03.463 1.039.952z"
       id="path11" />
    <mask
       id="c"
       width="3"
       height="5"
       x="39"
       y="52"
       maskUnits="userSpaceOnUse"
       style="mask-type:luminance">
      <path
         fill="#fff"
         d="M39.052 53.922v2.985h2.076v-2.982c-.007-.49-.48-.952-1.04-.952-.558 0-1.027.46-1.036.95Z"
         id="path12" />
    </mask>
    <g
       fill="#fff"
       mask="url(#c)"
       id="g13">
      <path
         d="M39.628 53.318h.341v-.339h-.341v.34Zm.58 0h.342v-.339h-.342v.34Zm-.821.259h-.452v.339h.452v-.34Zm.24.339h.342v-.34h-.341zm.581 0h.342v-.34h-.342zm.583 0h.498v-.34h-.498zm-1.404 2.652h-.476v.413h.476zm.24.413h.342v-.413h-.341zm.581 0h.342v-.413h-.342zm.583 0h.498v-.413h-.498zm-1.404-1.013h-.452v.339h.452v-.34Zm.24.339h.342v-.34h-.341zm.581 0h.342v-.34h-.342zm.583 0h.498v-.34h-.498zm-1.404-.937h-.452v.34h.452zm.24.34h.342v-.34h-.341zm.581 0h.342v-.34h-.342zm.583 0h.498v-.34h-.498zm-1.404-.938h-.452v.34h.452zm.24.34h.342v-.34h-.341zm.581 0h.342v-.34h-.342zm.583 0h.498v-.34h-.498zm-1.404-.937h-.452v.339h.452zm.24.339h.342v-.34h-.341zm.581 0h.342v-.34h-.342zm.583 0h.498v-.34h-.498zm-1.404-1.407h-.233v.211h.233zm1.639 0h-.235v.211h.235z"
         id="path13" />
    </g>
    <path
       fill="#fff"
       d="M34.081 52.244v1.896h.722v-1.9a.36.36 0 0 0-.722.004m11.296 0v1.896h.724v-1.9a.36.36 0 0 0-.722.004M26.19 36.823v-.037s-.005.127 0 .037m3.488 1.413s-.128.274-.224.444c-.094.167-.256.417-.256.417s.363.065.675-.078c.279-.126.518-.437.518-.437s-.235-.048-.372-.113c-.145-.07-.341-.233-.341-.233m-.518-1.504s-.432-.204-.982-.674a6.4 6.4 0 0 1-2.071-3.39c-.626-2.589.634-4.645.634-4.645s-.334-.06-.543-.12c-.165-.045-.417-.136-.417-.136s-.055.089-.209.308c.34.278.409.687.243 1.091a6.26 6.26 0 0 0-.354 3.65c.22 1.073.502 1.688 1.172 2.556.187.282.38.495.545.686q.086.099.161.19c.244.293.402.669-.056 1.128 0 0 .132.184.226.293 0 0 .33.022.528.226.26.267.184.524.184.524a.84.84 0 0 0-.736-.457.808.808 0 0 0-.47 1.467c1.324.92 2.145-.75 2.513-1.595s-.367-1.104-.367-1.104"
       id="path14" />
    <path
       fill="#fff"
       d="M30.173 39.22c-.445.31-1.154.181-1.154.181s.746.487 1.637.128c.648-.26.96-.915.96-.915h-.906s-.278.429-.539.607m.429-11.707 1.695 4.48.226-.357-1.59-4.238-.332.115Zm-.794.246 1.935 5.108.226-.357-1.822-4.845zm3.852 2.09-1.133-3.033-.33.115 1.236 3.273zm-4.669-1.905 2.197 5.794.226-.356-2.073-5.506z"
       id="path15" />
    <path
       fill="#fff"
       d="M26.163 27.538s.92.459 3.128 0c2.132-.443 4.162-1.802 5.836-1.417a.668.668 0 0 1 1.226.159c.028.102-.042.128-.042.128a.52.52 0 0 0-.497-.391.502.502 0 0 0-.494.582c.994.111 1.348.535 1.348.535.697-.717.293-1.841-1.215-2.263-1.509-.423-2.693.183-4.93.24-2.188.054-3.734-.68-3.734-.68s.313 1.803-.626 3.107m9.427.409s-.318-.128-.52-.091c-.213.036-.474.289-.474.289l-.804 1.171.213.572-3.923 6.172-.085.135-.05-.135-.276-.732-.51.732-.22.313s.641.16.809.498c.186.376.312.815.102 1.085.134.098.382.267.382.267l1.128-2.163 4.23-8.113z"
       id="path16" />
    <path
       fill="#fff"
       d="m31.412 27.22 1.463 3.861.226-.356-1.36-3.624-.329.12Zm4.393.873-4.14 7.965-1.14 2.193h2.133s.332-.928.789-2.193c.915-2.534 2.325-6.418 2.558-6.894a.86.86 0 0 0-.198-1.072m-9.427 7.464c-.693-.902-.993-1.558-1.223-2.675a6.5 6.5 0 0 1 0-2.617c-.044-.267-.122-.58-.304-.763-.059.167-.652 1.947-.42 3.39.248 1.533 1.887 3.363 1.872 3.341.047-.108.16-.447.073-.673m1.742-7.497 2.495 6.575.226-.354-2.359-6.256-.363.035Z"
       id="path17" />
    <path
       fill="#fff"
       d="M35.933 27.004c-.724-.33-1.213-.02-1.337.271a.76.76 0 0 0 0 .548s.098-.124.285-.202.565-.057.867.098c.279.14.487.38.557.571.07.192.093.33.093.33s.278-.097.4-.373c.126-.29.022-.84-.867-1.243m-8.685 9.669a2 2 0 0 0-.226-.32l-.04-.045-.113-.128-.213-.263s-.106.287-.206.428c-.163.229-.252.318-.257.455v.026a.54.54 0 0 0 .537.495c.118 0 .23-.06.324-.143l.061-.066.043-.045.055-.076a.41.41 0 0 0 .035-.317Zm.021-8.589 2.802 7.414.226-.357-2.654-7.057zm-1.375-.633c.345-.539.445-.75.593-1.532.224-1.189-.074-1.741-.074-1.741-.415.16-1.72 2.367-1.72 2.367.01.065.533.606 1.2.906Zm-.576 2.193q.095-.313.213-.595c.108-.263.076-.498-.087-.67-.109-.113-.309-.132-.394-.132-.247 0-.45.215-.45.48q-.001.038.005.072c.095.387.458.26.713.848"
       id="path18" />
    <path
       fill="#fff"
       d="M43.095 23.02a5.83 5.83 0 0 1-3.004.828 5.83 5.83 0 0 1-3.004-.828H22.314v20.963c0 16.608 17.584 21.196 17.775 21.196s17.775-4.588 17.775-21.196V23.02H43.093zM40.09 12.132a5.859 5.859 0 0 1 3.876 10.25h14.536v21.603c0 17.02-17.958 21.846-18.414 21.846s-18.412-4.823-18.412-21.846V22.383h14.539a5.857 5.857 0 0 1 3.875-10.25Z"
       id="path19" />
    <path
       fill="#007B3F"
       d="M40.091 65.998c-.252 0-4.91-1.223-9.476-4.573-4.154-3.045-9.105-8.544-9.105-17.442V22.211h14.282a6.04 6.04 0 0 1-1.724-4.22 6.034 6.034 0 0 1 6.027-6.028 6.034 6.034 0 0 1 6.028 6.027 6.03 6.03 0 0 1-1.726 4.221h14.28v21.772c0 8.898-4.952 14.397-9.105 17.442-4.567 3.35-9.227 4.573-9.479 4.573M21.85 22.552v21.431c0 8.72 4.838 14.121 8.898 17.118 4.443 3.278 8.964 4.52 9.344 4.556.38-.037 4.901-1.276 9.346-4.556 4.06-2.995 8.898-8.398 8.898-17.118v-21.43H43.52l.337-.299a5.7 5.7 0 0 0 1.923-4.264 5.695 5.695 0 0 0-5.688-5.688 5.693 5.693 0 0 0-5.686 5.688c0 1.63.702 3.184 1.924 4.265l.337.297h-14.82z"
       id="path20" />
    <path
       fill="#007B3F"
       d="M45.342 17.99a5.244 5.244 0 0 1-5.244 5.245 5.244 5.244 0 0 1-5.245-5.245 5.244 5.244 0 0 1 5.245-5.245 5.244 5.244 0 0 1 5.244 5.245m-.32 0a4.9 4.9 0 0 0-.977-2.945.4.4 0 0 0-.076.083c.456.628 1.193 2.377.826 4.349.147-.47.228-.968.228-1.485m-1.174-3.19a4.95 4.95 0 0 0-1.93-1.385c-.035.28-.035.591-.065.88-.048.44-.124.954-.274 1.32.73.089 1.348.254 1.713.47.082-.396.248-1.029.554-1.285m-2.226-1.498a5.1 5.1 0 0 0-1.523-.235 4.9 4.9 0 0 0-2 .424c.022.22.376 1.135 1.072 2.121a10.4 10.4 0 0 1 2.078-.03c.28-.55.3-1.641.373-2.276zm-3.81.328a4.9 4.9 0 0 0-1.578 1.31c.252.203.709.657 1.02 1.144a6.8 6.8 0 0 1 1.56-.422c-.506-.75-.906-1.562-1.002-2.032M36.044 15.2a4.9 4.9 0 0 0-.87 2.795c0 .972.281 1.876.768 2.64-1.022-2.207-.248-4.698.109-5.433l-.005-.004zm2.695 7.53q.65.186 1.359.188a4.9 4.9 0 0 0 1.325-.18 1.7 1.7 0 0 0-.189-.813c-.778.074-1.601.052-2.327-.046-.213.357-.255.602-.17.85m3.004-.091a4.95 4.95 0 0 0 1.917-1.243 1.4 1.4 0 0 0-.148-.133c-.502.326-1.189.524-1.94.626.123.28.166.548.173.752m1.471-6.218c-.81-.591-4.02-.872-5.96.017-.114.052-.26.591-.358 1.287 1.526-.51 5.393-.596 6.705-.137-.08-.58-.21-1.039-.386-1.167Zm.46 3.25c-1.837.753-5.226.64-6.876.086.035.51.13.946.316 1.185.558.717 4.577 1.123 6.207.063.193-.126.309-.668.352-1.337m-6.89-.256c1.578.586 5.162.704 6.907-.1.014-.448-.004-.928-.045-1.368-.946-.497-5.377-.447-6.792.133-.048.43-.076.898-.068 1.332m7.073 1.704c1.334-2.343.502-4.766-.05-5.653-.13.346-.22.78-.24.891.507.857.622 3.689.146 4.65a1 1 0 0 1 .146.112m-7.316-.05q.086-.047.154-.082l.057-.026c-.526-1.07-.24-4.015.237-4.688a5 5 0 0 0-.694-.84c-.382.86-1.117 3.515.246 5.636m.402.16c-.13.053-.258.134-.391.188a4.9 4.9 0 0 0 1.832 1.2c-.032-.254.035-.506.185-.785-.74-.128-1.341-.339-1.626-.604ZM4.322 44.552a78 78 0 0 1 4.297 0v-.278c-.618-.02-1.048-.18-1.217-.37-.34-.378-.34-1.286-.34-2.812v-1.495c0-.737.011-1.407.07-2.015-.678.02-1.306.03-1.895.03-.32 0-.628 0-.917-.01v.278c.767.039 1.217.239 1.345.589.16.42.17 1.286.17 2.593v.967c0 .967-.03 1.576-.279 1.873-.189.22-.617.37-1.236.37v.278z"
       id="path21" />
    <path
       fill="#fff"
       d="M7.134 37.582c-.06.609-.07 1.276-.07 2.015v1.495c0 1.526 0 2.432.34 2.813.17.189.597.35 1.217.37v.277a79 79 0 0 0-4.297 0v-.278c.62 0 1.048-.15 1.237-.37.25-.3.278-.906.278-1.873v-.967c0-1.306-.009-2.174-.17-2.593-.13-.348-.578-.548-1.345-.59v-.277c.289.01.598.01.917.01.59 0 1.217-.01 1.895-.03m.379-.352-.387.01c-.685.02-1.3.031-1.885.031-.32 0-.621 0-.906-.01l-.352-.014v.957l.324.017c.589.03.97.165 1.043.367.137.361.148 1.215.148 2.474v.967c0 .746-.015 1.435-.2 1.656-.096.111-.413.246-.974.246h-.341v.97l.35-.01a79 79 0 0 1 4.28 0l.35.01v-.96l-.331-.01c-.563-.017-.891-.163-.974-.254-.252-.283-.252-1.248-.252-2.585V39.6c0-.774.011-1.406.067-1.98l.04-.385v-.002Z"
       id="path22" />
    <path
       fill="#007B3F"
       d="M12.116 40.673c.967-.398 1.445-.968 1.445-1.654 0-.928-.808-1.596-2.184-1.596s-2.243.718-2.243 1.776c0 .728.459 1.298 1.415 1.885-1.078.489-1.595 1.058-1.595 1.875 0 1.048.867 1.735 2.362 1.735s2.463-.79 2.463-1.915c0-.74-.559-1.396-1.665-2.104m-1.276.589.628.408c.609.39.957.959.957 1.526 0 .698-.4 1.157-.909 1.157-.678 0-1.248-.64-1.248-1.546 0-.597.2-1.126.57-1.545m1.047-.737-.628-.439c-.567-.4-.856-.848-.856-1.297 0-.56.409-1.007.909-1.007.547 0 .967.548.967 1.367q0 .672-.39 1.376"
       id="path23" />
    <path
       fill="#fff"
       d="M11.379 37.421c1.376 0 2.184.667 2.184 1.596 0 .688-.478 1.256-1.445 1.653 1.106.71 1.665 1.368 1.665 2.105 0 1.125-.917 1.914-2.463 1.914-1.545 0-2.362-.689-2.362-1.736 0-.818.517-1.387 1.595-1.876-.956-.587-1.415-1.156-1.415-1.884 0-1.057.878-1.776 2.243-1.776m.509 3.101q.388-.705.389-1.375c0-.818-.42-1.368-.967-1.368-.498 0-.909.45-.909 1.007 0 .45.29.897.859 1.295l.628.44zm-.37 3.83c.509 0 .909-.459.909-1.156 0-.568-.35-1.137-.957-1.526l-.628-.409c-.37.42-.57.948-.57 1.546 0 .908.57 1.545 1.249 1.545m-.14-7.27c-1.545 0-2.584.85-2.584 2.115 0 .697.34 1.28 1.089 1.843-.641.373-1.267.956-1.267 1.914 0 1.261 1.06 2.076 2.704 2.076 1.643 0 2.804-.906 2.804-2.256 0-.728-.416-1.378-1.335-2.056.906-.535 1.115-1.202 1.115-1.702 0-1.158-1.015-1.936-2.526-1.936m.376 2.934-.3-.209c-.323-.228-.713-.589-.713-1.017 0-.367.255-.667.568-.667.363 0 .626.43.626 1.026q0 .422-.18.867Zm-.234 3.997c-.518 0-.907-.517-.907-1.204 0-.4.107-.772.309-1.087l.363.237c.504.322.802.784.802 1.239 0 .48-.233.815-.567.815"
       id="path24" />
    <path
       fill="#007B3F"
       d="M66.999 44.691a182 182 0 0 1 1.495-2.773l2.324-4.158-.12-.158q-1.21.03-2.362.03c-.768 0-1.507-.009-2.233-.03-.13.589-.32 1.317-.547 2.204l.239.089c.189-.4.358-.698.578-.887.25-.22.67-.24 1.297-.24h2.154l-3.59 5.923H67z"
       id="path25" />
    <path
       fill="#fff"
       d="m70.698 37.602.12.158-2.324 4.158c-.27.478-.767 1.406-1.495 2.773h-.767l3.59-5.922h-2.154c-.628 0-1.047.02-1.297.239-.22.189-.39.489-.578.887l-.24-.09c.231-.886.42-1.614.55-2.203.729.02 1.466.03 2.233.03q1.152 0 2.362-.03m-4.868-.348-.061.276a68 68 0 0 1-.518 2.084l-.028.107-.076.298.287.108.24.09.293.11.134-.282c.146-.307.307-.616.494-.776.165-.144.567-.157 1.073-.157h1.548l-3.275 5.406-.313.517h1.578l.095-.18a151 151 0 0 1 1.493-2.765l2.324-4.158.109-.194-.133-.178-.12-.158-.106-.142-.176.005c-.796.02-1.587.03-2.354.03s-1.498-.009-2.224-.03l-.28-.009z"
       id="path26" />
    <path
       fill="#007B3F"
       d="M71.016 41.6c.408-.23.847-.338 1.336-.338 1.098 0 1.704.597 1.704 1.595 0 .878-.458 1.476-1.087 1.476-.558 0-.947-.409-.947-1.009q0-.194.059-.42a.95.95 0 0 0-.648-.238c-.478 0-.759.28-.759.728 0 .756.737 1.295 1.993 1.295 1.607 0 2.683-.986 2.683-2.343 0-1.236-.987-2.143-2.683-2.143-.378 0-.778.061-1.175.17l.22-1.626c.249-.01.497-.01.758-.01q1.081 0 2.204.06l.45-1.695-.22-.07c-.278.528-.548.57-1.076.57h-2.413l-.489 3.958zv.002Z"
       id="path27" />
    <path
       fill="#ffffff"
       d="m 74.904,37.034 0.22,0.07 -0.45,1.695 c -0.734015,-0.03928 -1.468935,-0.05929 -2.204,-0.06 -0.259,0 -0.509,0 -0.759,0.01 l -0.22,1.626 c 0.4,-0.109 0.798,-0.17 1.176,-0.17 1.696,0 2.683,0.909 2.683,2.143 0,1.357 -1.076,2.343 -2.683,2.343 -1.256,0 -1.993,-0.538 -1.993,-1.295 0,-0.45 0.28,-0.728 0.759,-0.728 0.239,0 0.45,0.07 0.647,0.239 -0.03867,0.150667 -0.058,0.289667 -0.058,0.417 0,0.598 0.389,1.009 0.947,1.009 0.629,0 1.087,-0.598 1.087,-1.476 0,-0.998 -0.608,-1.595 -1.704,-1.595 -0.489,0 -0.928,0.108 -1.337,0.339 l -0.089,-0.04 0.49,-3.957 h 2.412 c 0.528,0 0.798,-0.04 1.076,-0.568 m -0.167,-0.41 -0.133,0.252 c -0.196,0.371 -0.313,0.387 -0.776,0.387 h -2.715 l -0.037,0.3 -0.489,3.958 -0.03,0.25 0.23,0.102 0.09,0.039 0.156,0.07 0.15,-0.086 c 0.357505,-0.198923 0.760917,-0.300638 1.17,-0.295 0.62,0 1.362,0.217 1.362,1.254 0,0.667 -0.306,1.135 -0.746,1.135 -0.373,0 -0.606,-0.255 -0.606,-0.668 0,-0.1 0.016,-0.21 0.048,-0.33 l 0.056,-0.209 -0.163,-0.139 c -0.240274,-0.210443 -0.549612,-0.325065 -0.869,-0.322 -0.656,0 -1.098,0.43 -1.098,1.07 0,0.995 0.918,1.637 2.335,1.637 1.78,0 3.023,-1.105 3.023,-2.685 0,-1.486 -1.215,-2.484 -3.023,-2.484 -0.248667,0 -0.506667,0.02333 -0.774,0.07 l 0.115,-0.852 c 0.149333,-0.0027 0.302333,-0.0037 0.459,-0.003 0.708,0 1.445,0.02 2.186,0.059 l 0.276,0.015 0.072,-0.267 0.45,-1.695 0.083,-0.313 -0.31,-0.098 -0.219,-0.07 -0.271,-0.087 z"
       id="path28"
       sodipodi:nodetypes="ccccccssssscsssscccscccscccccccccsssccccsssscccccccccccc" />
    <path
       fill="#007B3F"
       d="M52.06 37.413a.432.432 0 1 1-.002 0m-1.658-.005a.432.432 0 1 1-.512.696.432.432 0 0 1 .512-.696m-1.663.002a.432.432 0 1 1-.002 0"
       id="path29" />
  </g>
  <defs
     id="defs30">
    <clipPath
       id="a">
      <path
         fill="#fff"
         d="M2.222 0h75.74v80H2.222z"
         id="path30" />
    </clipPath>
  </defs>
</svg>
