<?xml version="1.0" encoding="UTF-8" standalone="no"?>
<svg
   viewBox="13.92 63.88 567.44 714.14"
   version="1.1"
   id="svg18"
   sodipodi:docname="livingston.svg"
   inkscape:version="1.4.2 (f4327f4, 2025-05-13)"
   xmlns:inkscape="http://www.inkscape.org/namespaces/inkscape"
   xmlns:sodipodi="http://sodipodi.sourceforge.net/DTD/sodipodi-0.dtd"
   xmlns="http://www.w3.org/2000/svg"
   xmlns:svg="http://www.w3.org/2000/svg">
  <defs
     id="defs18" />
  <sodipodi:namedview
     id="namedview18"
     pagecolor="#ffffff"
     bordercolor="#000000"
     borderopacity="0.25"
     inkscape:showpageshadow="2"
     inkscape:pageopacity="0.0"
     inkscape:pagecheckerboard="0"
     inkscape:deskcolor="#d1d1d1"
     inkscape:zoom="1.1916431"
     inkscape:cx="283.64198"
     inkscape:cy="357.07001"
     inkscape:window-width="1920"
     inkscape:window-height="1111"
     inkscape:window-x="-9"
     inkscape:window-y="-9"
     inkscape:window-maximized="1"
     inkscape:current-layer="svg18" />
  <path
     d="M296.573 318.529s1.226-3.247 7.112-1.96c0 0-2.452 3.797-7.112 1.96"
     style="fill:#000;fill-rule:evenodd"
     id="path1" />
  <path
     d="M190.657 111.538c4.653-1.128 9.287-2.842 13.777-4.49 34.985-12.838 64.951-25.133 97.065-43.03 33.872 16.906 67.154 34.267 104.315 43.093 16.258 4.054 35.762 5.066 44.363 5.239 54.478.717 77.369.424 131.041-5.126-10.33 53.077-16.572 81.565-23.835 136.027-3.442 28.375-2.282 72.908-.901 101.33 2.952 60.775 3.74 121.379 1.514 182.18-2.06 23.197-3.196 43.503-10.089 62.003-8.454 22.69-23.193 42.48-43.66 61.94-58.105 55.243-128.77 90.205-199.389 127.169-69.322-29.747-164.879-81.747-212.86-135.103-24.398-27.224-31.946-40.027-35.578-59.52-2.016-10.822-3.648-23.463-5.2-41.78-3.733-44.04-2.352-123.648-4.123-184.875.018-11.978-.537-33.266-.502-45.16-1.832-76.52-11.852-127.643-32.538-200.326 59.171 5.408 85.933 7.43 145.264 4.376 5.666-.326 25.87-2.836 31.336-3.947z"
     style="fill:#fc0;fill-rule:evenodd;stroke:#3a3a3a;stroke-width:.2835;stroke-linecap:butt;stroke-linejoin:miter;stroke-dasharray:none"
     id="path2" />
  <path
     d="M42.543 137.41c42.37 5.282 85.81 6.613 130.688 4.03 8.335-.479 19.215-1.178 23.948-2.316 5.822-1.4 11.638-3.489 17.02-5.464 31.182-11.443 60.757-24.062 86.907-39.094 31.559 16.52 63.352 32.3 97.876 40.5 10.56 2.508 21 3.538 31.5 3.75 40.781.819 81.563-.564 122.344-4.781-10.185 45.5-16.787 87.309-21.146 123.24-4.034 33.255-2.63 62.677-1.355 88.916 2.95 60.715 3.002 121.15.843 180.095-1.596 43.611-14.564 73.555-46.453 103.874-55.512 52.779-119.003 83.573-180.33 117.142-80.58-36.91-149.695-77.512-191.534-123.282-31.85-34.841-31.165-40.825-37.032-84.376-2.898-60.348-4.04-121.28-3.939-182.627.476-11.811-.49-23.584-.454-35.7.173-57.82-10.484-119.258-28.883-183.907Z"
     style="fill:#000;fill-rule:evenodd;stroke:#1b1918;stroke-width:.216;stroke-linecap:butt;stroke-linejoin:miter;stroke-dasharray:none"
     id="path3" />
  <path
     d="M308.498 480.248c-.331-1.329-.664-3.266-2.444-6.148-1.297-2.1-3.702-4.39-3.725-7.445-.002-.212-.17-2.278-.17-2.278-.065-3.081-.59-4.982.036-10.062.6-4.864-.314-14.85-2.23-21.034l-7.196 2.24c3.756 8.979 3.297 14.6 2.922 18.887 0 4.184-1.53 6.11-1.523 9.78.002 1.18.578 3.916.8 4.6 1.268 3.904 2.038 4.773 4.662 8.928.765 1.211 1.282 2.089 1.55 2.694.093.544 1.495 2.621 1.495 4.198 0 .984.03 2.67.002 3.846 1.84-.945 4.775-2.628 6.12-3.322.73-1.199-.068-3.959-.3-4.885zM291.83 410.833c2.541.617 4.874-1.75 4.874-2.921-1.815-.347-3.785-1.42-4.022-2.718 3.089.133 5.191-2.416 5.331-4.256 0 0-4.433-.173-4.315-2.437 0-2.258 2.937-6.236 6.862-5.644.433-.342.551-.505.767-.765 1.486-1.787 1.37-4.015 1.37-5.298 0-1.129-.958-2.749-2.206-2.951-1.277-.208-2.192-.326-3.322-.486-3.835-.543-3.938-2.8-9.944-1.874-6.005.926-4.943 5.145-9.161 8.895-1.887-.927-7.408-.712-4.75 4.872.974-.068 1.368.033 2.7-.092 2.478-.232 4.248.63 5.018 3.084.609 1.938.187 7.85-5.847 8.436-.799.077-1.6-.14-2.399-.21-1.104-.098-3.697-.897-3.197-3.593.108-.583-1.906-3.328-5.3-2.617 0 0 2.485 2.01 2.728 4.616.116 1.238-.868 1.807-2.714 2.866 0 0-5.352 2.726-4.392 5.694 0 0 2.225-1.206 3.772-2.144 1.9-1.153 2.674.889 1.154 2.597-.688.773-1.556 8.131 2.188 7.286.282-2.742 1.531-2.715 2.103-3.874 1.203-2.439 3.876-3.832 4.752-.464.223.85.393 2.035 1.78 2.776.611.327 1.144 1.484 3.639 1.14.18-5.165-.61-.704-.602-4.944.01-4.683 2.85-4.524 2.653-3.178-.181 1.244 3.123 4.057 3.592 4.397 1.3.137 2.114.318 2.053-.355-1.477-1.814-1.544-3.636-.958-3.87 3.738 4.646 6.628 2.122 7.802 1.617-1.21-1.055-2.866-1.996-3.343-2.94-.428-.847.717-1.244 1.334-.645"
     style="fill:#fc0;fill-rule:evenodd"
     id="path4" />
  <path
     d="m262.954 466.147 16.176-5.506 10.388 1.882c.257-1.105.072-3 .073-5.999-2.789-.176-5.578-.463-8.367-1.14l-3.721-14.644-5.98 1.61 3.236 11.37c-9.545-3.576-17.683-9.98-17.683-9.98l-.024-14.785-6.135-.249.289 9.731c-7.178-7.226-11.65-13.206-15.728-19.674l3.493-14.714-5.558-1.718-2.001 9.411c-8.451-12.301-9.562-31.52-9.562-31.52l8.607-9.7-4.44-3.992-4.909 5.764c-.578-12.425 2.744-29.98 2.744-29.98l9.575-3.751-2.366-5.499-5.286 2.328c2.353-9.153 7.975-19.236 7.975-19.236l14.883-5.014-1.828-5.53-8.897 3.007c4.737-8.3 10.007-14.3 10.007-14.3l-4.29-3.585c-3.45 3.296-9.592 12.838-9.592 12.838l-.237-2.927-5.932-.047.516 12.52c-4.73 8.568-7.498 18.5-7.498 18.5l-.774-3.146-5.651 2.133 3.681 11.247c-4.347 14.23-2.62 29.326-2.62 29.326l-4.66-6.162-5 3.405 10.286 12.504c2.29 19.346 7.147 27.794 10.758 34.652l-9.623-2.476-1.242 5.701 14.523 3.289c4.05 7.224 10.492 14.715 14.758 18.418l-7.849-1.432-.672 6.022 16.01 2.352c9.044 7.653 16.709 10.198 16.709 10.198l-8.57 2.835zm28.092-.914c.211-.152.308-1.171.31-1.177.771-2.278.796-2.792.796-7.43 0-1.465-.018-5.106-.148-8.255-8.47-4.022-18.144-20.759-18.144-20.759l-8.16 8.986c-6.575-5.045-11.141-22.497-11.141-22.497-2.056 2.17-6.7 8.326-6.7 8.326-4.902-6.264-8.294-30.326-8.294-30.326-2.784.382-7.381 2.71-9.96 2.757-2.76-14.494 6.493-35.886 6.95-39.379l-10.256 1.727c.766-11.504 21.967-30.873 21.967-30.873l-8.889-2.11c5.308-6.138 21.729-16.775 21.729-16.775l.903-7.404-10.266-.045 3.95-14.458-16.175-1.023-2.876 9.965-6.496-4.686c-7.497 6.426-8.53 27.896-8.342 33.873l-8.084-5.163c-7.745 12.082-5.964 34.895-5.964 34.895l-10.52-1.326c.048 26.321 6.187 38.498 14.624 49.373l-12.32-.04c7.17 18.096 21.766 27.414 25.47 28.914l-9.444 1.827c10.899 18.58 34.06 24.64 34.06 24.64l-9.544 4.554c17.984 13.258 38.461 10.141 48.976 5.044.609-.294 1.449-.766 1.988-1.155M327.913 399.202c-2.157.636-3.18-1.422-3.37-2.359-.84.46-1.898.791-2.595 1.406-.781.69-3.001-.703-3.001-.703-2.108-1.543.524-3.335 2.687-2.769 1.176.308 3.583 1.49 10.329.169 5.475-1.073 7.665-7.153 7.406-12.214-.106-2.081.483-3.793-.533-3.728-.788 3.454-1.463 4.018-2.682 3.737-4.345-.843-4.613-6.347-3.629-8.757 3.059-7.49-.149-13.608-1.929-13.491-.188 1.102-.026 1.822 0 2.227 1.111.334.699 7.273-1.364 6.921-2.507-1.336-3.613-2.918-3.399-6.412.248-4.035 1.764-5.179 2.966-6.692 2.8-3.523 7.429-1.32 7.463-5.882.036-4.857-.883-8.086-2.781-8.625.088 3.62.26 4.791-.93 6.703-.156.25-.984.219-1.304-.298-2.947-4.763-1.919-8.364-.05-11.587 1.313-2.269 3.167-4.906 5.487-5.726-2.605-2.413-9.492.53-11.187 4.241-1.423 3.119-1.072 6.49-.981 7.643-1.323 1.724-3.528-1.398-4.231-1.48-.94.949 1.068 3.17 1.422 11.203.21 4.746-.415 9.622-.415 11.5 0 3.757 1.757 8.54 3.53 10.332 2.143 2.167 2.487 2.911 2.206 3.31-6.496-.46-6.401-5.403-7.269-5.309-.687 6.522 3.16 9.123 6.92 10.278 3.793 1.168 5.112 3.9 5.112 4.46-.14 2.007-2.46 3.388-4.417 3.318-7.558-.89-10.04-4.42-12.204-10.097-1.28-3.357-5.44-10.365-6.572-10.874-1.413 3.602-3.917 10.367-7.53 10.46.797 1.29 3.229 2.905 3.229 6.661 0 3.757-4.034 8.2-4.034 13.402 0 5.201-.08 9.86-.283 10.625-.48 1.801-5.471 4.243-1.609 9.72 0 0 2.031-5.236 3.893-4.353 1.219 1.922-.46 2.573-.414 4.19 1.172.328 6.55-3.187 7.114-8.786 1.962-.128 3.486.194 5.51-1.54 1.486-1.593 3.233-2.428 4.743-.015 1.408 2.251.379 3.508-1.693 5.037-1.96 1.445-1.61.775-2.967.462-3.917-.905-8.071 1.676-7.72 4.738 1.524.539 3.589-2.161 3.988-.006.519 2.802-4.975 7.182-.966 10.43 2.367-3.187 3.322-5.812 5.336-4.987 1.193.489 2.055.69 4.215 2.76.135-3.595.714-6.61 2.194-5.734.422.25.346 1.005 1.477.03 1.144-.986 3.023-1.365 5.415-.68-.246-1.359-2.87-2.866-2.03-5.154 1.595.937 6.855-1.899 6.31-3.226-.54-1.079-2.275-.125-1.667-1.953.938.446 5.128-3.495 3.003-3.524 0 0-1.227 1.673-2.298.705 1.069-1.098 3.354-2.765 2.618-8.044-1.687.515-1.828 2.366-4.165 2.6.223-1.652 2.844-4.31 1.015-7.138-2.344 1.946-2.294 2.557-3.369 2.874z"
     style="fill:#fc0;fill-rule:evenodd"
     id="path5" />
  <path
     d="M280.312 372.255c-1.55 1.347-2.22.459-2.22.459-.76-.665-1.477-1.92-1.065-3.226.215-.68.707-.65.717-1.403-.256-2.339.767-2.462.764-3.028-1.128-.121-2.49.534-2.988.782-1.736.868-6.139 3.194-11.383 3.296-1.454-2.016-3.737-6.839-7.884-6.08-.457 1.85 1.013-.223.392 4.577 0 0-.307.17-.47.566 0 0-4.23-1.294-7.985 4.756 1.406.703 2.19-2.226 6.082 2.03-3.07 3.633-1.972 8.303 2.321 8.278 0 0-.083-1.549.113-3.251 1.406-1.196 1.898-2.243 3.538-2.316 0 1.816 2.54 5.35 6.981 4.53-1.734-1.313-.884-4.75 1.563-4.71 2.297 3.82 8.699 4.334 9.436 2.312-1.453-.047-4.385-3-2.618-3.975.632.867 5.265 5.277 7.801 2.28-1.64-1.102-1.582-2.03-1.165-3.754.215-.893 2.05-2.228 3.77-.036l.476-5.212c-2.325.485-4.745 1.882-6.176 3.125M268.83 351.242c-.504 2.11-1.327 1.704-1.372 3.249-.012.376-.024.718.3.83 1.35.05 2.209-.393 3.314-.59 2.413-.234 5.41-1.467 6.933-2.071 1.453-.577 4.23-1.848 4.864-3.653-2.417-1.879-5.095-4.075-7.531-6.018-2.02-1.61-3.858-2.945-5.378-4.708-.826-.958-1.603-3.935-.2-5.049 1.16-.92 7.258-2.363 4.796-8.26-.736.715-1.057 1.89-1.546 2.6-.82 1.19-1.986 1.33-3.476.057-.839-.717-1.486-1.769-3.494-3.233-.653-.475-2.007-.542-2.467.12-.266.381-.04 1.701-.059 2.763-.515.004-.474.716-1.062.473-1.378-.568-3.5-2.292-7.404 1.938 1.044.347 1.87.817 2.416 1.446 0 0-.174 1.045.436 1.833 1.21-.246 1.937.93 1.93 1.47-3.023 2.977-.968 2.678-4.88 6.13.399.493 1.564 1.833 3.746.413 1.153-.751 3.227-1.456 2.569.31-.323.866-2.346.013-2.403 3.433-.011.697 1.566.148 4 1.017 1.272.455 2.184 1.208 2.802.962.834-.331.774 1.697-.676 1.705-1.208.065-1.37-.193-2.577-.011-.948 1.178 4.25 4.22 6.419 2.844"
     style="fill:#fc0;fill-rule:evenodd"
     id="path6" />
  <path
     d="M295.185 336.71c-.569-.181-.978.261-1.654.542-2.555 1.063-5.916.393-6.903-1.066-.647-.954-2.191-4.31-4.624-4.139-2.588.182-3.35 1.67-4.077 3.335 1.15.958 1.173-1.523 3.507-1.169.493.075.805.306 1.12.95.565 1.151 1.828 2.95 3.831 4.265.656.43 3.093 1.048 4.597 1.269 1.904.28 3.728-.243 4.54-1.038.826-.808.48-1.498.034-1.855-.267-.213-.012-.792-.371-1.094m-4.253 4.95c-.117-.189-1.136-.31-1.18.137-.053.534.048 1.375-.24 1.715-.71.838-.672 1.954-1.151 2.594-.489.653.415 1.351 1.411 1.015 1.257-.424 2.553-1.018 3.146-1.359.372-.214 1.395.14 1.34 1.194-.024.426-.439 1.084-1.111.976-1.78-.286-4.171.295-5.068.29-5.495-.037-2.92 2.616-8.55 5.06-2.512 1.09-5.326 2.168-6.931 2.572.788 1.188 1.88.45 2.338 1.96-1.025.914-3.144 2.916-2.45 5.978 1.489-1.208 6.752-1.979 9.522-.604 0 0-3.085 3.47-2.991 7.508 1.488-.214 3.153-2.919 10.19-3.554-2.144 3.422-2.315 9.567-1.502 11.604 3.516.094 4.31.447 9.324-5.332.469.204.978 2.582-2.388 5.139 0 0-.264.333.073.987 4.243.328 9.891-.79 13.06-13.176 3.186-.844 3.89 2.085 3.782 5.77 1.7 1.762 6.908-1.797 6.424-6.655-.483-4.856-3.241-6.683-4.09-12.014 0 0 4.661 2.175 6.159-1.98.057-.914-1.748-.547-2.864-2.014-1.898-2.498-.081-6.548.692-8.559 1.582.047 6.215.12 5.434-5.69 0 0-4.467.297-3.593-2.496 1.748-5.587 5.397-6.468 4.7-7.85-1.384 1.712-4.512 2.204-6.654 1.493 0 0 3.442-2.608 3.499-4.096-2.742.398-4.853.617-7.524-.34.044-1.539 1.76-2.181.843-3.522-1.178-1.726-6.313 2.235-8.034 5.13-3.352-.581-5.16.126-6.06.352-8.378 2.113-6.76 6.25-13.29 2.218 0 0-.685 1.472-.594 3.562.108 2.485 1.706 4.432 3.451 5.71 2.35 1.722 3.692.77 4.117.222.347-.448 1.32-.305 1.814.12.173.15.768.617 1.062 1.512.358 1.092.769 2.742-.385 4.249-.656.856-1.965.336-3.83.467-.68-.066-1.626.147-1.9-.294m7.891-12.861c.018 1.138 8.231 1.585 8.296.02.01-.742-1.457-1.358-3.936-1.403-2.02-.037-4.391.628-4.36 1.383"
     style="fill:#fc0;fill-rule:evenodd"
     id="path7" />
  <path
     d="m282.97 315.735-11.59-42.724 1.621-.38 11.344 42.812c-.556.095-1.028.173-1.375.292M253.977 209.03l8.253 30.097c.681-.122.841-.15 1.528-.27l-8.308-30.533zm9.018-4.002 7.109 32.765c.68-.116.783-.134 1.47-.248l-7.123-32.654zm8.866-2.767 5.43 34.246c.683-.11 1.063-.01 1.752-.118l-5.703-34.494zm8.682-2.51 4.065 35.765c.686-.104.923-.142 1.614-.245l-4.12-35.564zm10.136-.91 1.927 35.66c.687-.096.84-.118 1.53-.213l-1.969-35.707zm13.487-.096-1.486-.056-.601 34.401c.612-.02.868.066 1.562-.015zm13.416 1.959-1.536-.308-3.64 31.626c.716-.078 1.019.037 1.724-.037zm8.756 2.418-1.64-.272-4.474 28.5c.722-.07.82-.135 1.531-.201zm8.77 2.615-1.4-.07-5.274 24.735c.758-.217 1.027-1.25 1.746-1.299zm8.854 3.905-1.321-.03-5.786 20.218c.738-.05 1.143-.05 1.868-.095zm6.366 2.694-4.827 17.065c20.748-.87 38.217-.461 45.84.71 14.86 2.585 15.125 10.133 15.35 16.04.604 10.94.512 20.071-.438 33.496-2.175-9.15-12.16-16.346-21.738-16.571-22.386 0-36.569 1.9-49.116 2.187l-14.473 52.096-40.74-.15-14.694-42.938c-23.24 5.844-50.935 10.97-63.43 10.97-19.765 0-20.21-6.881-20.21-6.881l.504-36.975c1.594 2.449 1.757 5.587 13.711 7.179 13.13 1.749 32.256-3.834 57.956-8.52l-9.657-27.66c27.312-16.938 71.81-22.666 105.962-.048m-35.212 103.854-1.509-.034 13.718-50.363 1.602.066zm5.451-49.604 1.592-.077-10.875 49.72-1.361.017zm-6.25.509 1.523.092-7.904 49.014H306.8zm-6.062.436 1.615.05-5.474 48.514-1.444-.089zm-6.892.872 1.484-.1-.894 47.631-1.399-.112zm-6.711.687 1.648.148 2.239 46.32-1.115-.093zm-4.466.884 5.129 45.341h-1.465l-5.198-45.264m2.854 45.177-7.015-44.447c-.652-.001-.9.004-1.59.13l7.255 44.404zm-3.27.106-9.271-43.879-1.543.167 9.415 43.741c.438-.018.927-.022 1.4-.03m26.88.856 13.81-50.331"
     style="fill:#fecc00;fill-rule:evenodd"
     id="path8" />
  <path
     d="m210.19 243.204-.234-21.142c-11.407.181-22.102 2.813-22.102 12.927s9.047 10.887 22.336 8.215M384.99 302.931c6.75-2.156 21.153-7.692 26.299-21.622 3.457-9.36 1.105-16.356.789-18.43 0 0 6.89-.896 12.344-1.573 5.37-.668 19.71-2.948 26.697-3.764-4.97 4.512-18.467 13.627-26.332 21.841l23.22 4.59s-11.757 7.24-17.542 10.13-28.041 14.876-45.476 8.828M458.39 473.019l.15 42.437s-3.63-10.638-31.11-10.638c-38.913.071-75.144 20.46-120.065 42.358-57.968 29.522-94.17 35.875-114.115 32.425-26.513 0-32.78-18.928-32.78-18.928l.6-51.195s7.862 18.776 32.93 18.776c33.745 0 65-13.726 115.88-40.037 58.02-30.583 84.663-34.826 110.212-34.826 34.646-.15 38.298 19.628 38.298 19.628"
     style="fill:#fc0;fill-rule:evenodd"
     id="path9" />
  <path
     d="m128.472 509.056 15.493-8.663-16.967-23.37c7.5 6.45 17.8 10.183 27.367 11.6 10.716 1.586 39.482-.952 41.244 11.544-3.376-5.45-29.15-4.306-34.323-1.817-4.386 2.11-6.87 10.307-7.02 20.695-2.55-4.65-11.792-9.034-25.794-9.99"
     style="fill:#fc0;fill-rule:evenodd"
     id="path10" />
  <path
     d="m196.279 523.571.112-17.789c-2.628-2.264-27.183-9.598-28.11 1.327-.832 9.793 17.456 16.026 27.997 16.462M428.027 539.01c.885 1.226 14.258 7.193 30.502 5.09 10.6-1.373 23.024-6.655 31.922-17.298-5.04.773-12.068.495-17.296-1.695 8.22-7.184 16.177-14.967 22.071-23.2-3.338 2.043-17.366 5.537-29.177 6.587-.06 8.102 2.17 29.85-38.022 30.517M331.955 561.217c-.485-8.72-2.467-15.02-4.759-19.497l-7.127 3.722c1.756 3.489 3.254 8.847 3.2 16.41-.095 13.165-10.47 25.67-17.63 32.138l2.325 8.695c2.619-1.967 25.208-19.582 23.99-41.468"
     style="fill:#fc0;fill-rule:evenodd"
     id="path11" />
  <path
     d="m424.073 511.033-.225 21.64c.367.881 29.831 4.476 29.193-11.505 0-11.078-28.968-10.135-28.968-10.135"
     style="fill:#fc0;fill-rule:evenodd"
     id="path12" />
  <path
     d="m290.288 315.279 1.218-.05M288.652 270.052l1.534-.077M290.156 315.316l1.35-.087"
     style="fill:none"
     id="path17" />
  <path
     d="m382.887 270.38-.05 25.236c3.282.14 18.567-3.203 18.333-14.88 0-9.152-11.72-9.933-18.283-10.355M207.503 217.305c-6.281.796-18.707 1.684-26.246 12.483-4.82 7.706-5.068 13.193-5.35 22.24 0 0-22.677 2.148-37.1-6.521 0 0 24.179.26 24.66-10.182-2.063-2.671-9.154-4.498-13.285-5.307-6.19-1.213-15.26-9.497-12.4-13.077 5.67 1.09 5.438 1.967 19.385 1.012 23.261-1.594 40.468-11.819 50.336-.649M304.19 462.871c-.615-3.416-.38-3.003-.38-6.89 0-1.465.528-4.332.171-7.646 4.72-1.772 8.909-7.868 18.05-20.383 3.244 2.292 6.676 8.522 8.75 8.424 4.98-4.342 10.973-22.17 10.973-22.17 1.446 2.311 6.653 8.373 6.653 8.373 4.48-7.717 8.388-30.702 8.388-30.702 4.213 1.414 9.443 2.992 9.443 2.992 2.666-13.604-6.973-39.66-6.973-39.66l10.678 2.219c-1.61-12.348-18.662-27.498-22.201-31.178l9.287-2.038c-6.297-6.58-21.693-16.472-21.693-16.472l-1.547-7.779 10.224-.023-3.556-14.433 15.906-.822 2.676 9.835 7.269-5.295c8.715 13.082 8.051 32.063 7.934 34.055l8.31-4.8c7.417 13.254 5.653 34.748 5.653 34.748l10.634-1.437c1.077 26.977-10.859 44.074-14.046 49.582l11.558.097c-5.547 16.624-23.405 28.282-24.86 28.795l8.974 1.922c-9.064 16.316-32.752 24.322-34.716 24.663l9.756 4.718c-18.673 13.26-40.084 9.54-50.23 4.101-.427-.579-.711-.716-1.085-2.796m86.49-96.657-4.767-3.452-4.688 6.402s.115-13.507-3.67-27.081l3.214-11.833-5.535-1.383-.656 2.455c-.686-1.066-3.378-9.452-7.874-16.568l.235-13.129-5.604-.304-.149 3.85s-6.207-9.082-10.594-13.386l-4.173 4.17s5.632 5.757 10.64 13.48l-8.897-3.99-2.648 5.46 16.758 7.122s4.19 7.707 6.943 16.12l-3.363-1.86-2.765 5.405 8.567 3.868s4.378 16.313 3.8 28.738l-4.536-5.951c-1.12 2.126-2.357 3.865-3.853 4.74l7.74 10.31s-2.142 22.923-10.593 34.193l-1.268-10.94-5.846.763 2.133 18.252s-6.129 10.302-14.227 17.238l-.134-12.498-5.807.11.024 17.315s-6.967 6.451-18.246 10.215l3.282-11.98-6.026-1.891-3.487 15.394-7.81.59c0 2.999.244 5.397.5 6.502l10.249-1.742 15.05 4.803 2.149-5.71c-2.498-.804-4.995-1.374-7.492-2.413 1.635-.773 9.414-3.67 17.178-10.385l16.056-1.602-.176-5.838-8.736.808s8.992-9.066 13.04-16.29l14.523-6.57-2.367-5.093-6.927 3.132c4.5-8.343 9.03-16.197 10.477-34.98z"
     style="fill:#fc0;fill-rule:evenodd"
     id="path18" />
</svg>
