<?xml version="1.0" encoding="UTF-8" standalone="no"?>
<svg
   viewBox="0 0 1190.6 1190.6"
   version="1.1"
   id="svg8"
   sodipodi:docname="rangers.svg"
   inkscape:version="1.4.2 (f4327f4, 2025-05-13)"
   xmlns:inkscape="http://www.inkscape.org/namespaces/inkscape"
   xmlns:sodipodi="http://sodipodi.sourceforge.net/DTD/sodipodi-0.dtd"
   xmlns="http://www.w3.org/2000/svg"
   xmlns:svg="http://www.w3.org/2000/svg">
  <defs
     id="defs8" />
  <sodipodi:namedview
     id="namedview8"
     pagecolor="#ffffff"
     bordercolor="#000000"
     borderopacity="0.25"
     inkscape:showpageshadow="2"
     inkscape:pageopacity="0.0"
     inkscape:pagecheckerboard="0"
     inkscape:deskcolor="#d1d1d1"
     inkscape:zoom="0.71476568"
     inkscape:cx="594.60046"
     inkscape:cy="595.29999"
     inkscape:window-width="1920"
     inkscape:window-height="1111"
     inkscape:window-x="-9"
     inkscape:window-y="-9"
     inkscape:window-maximized="1"
     inkscape:current-layer="svg8" />
  <path
     fill="#fff"
     d="M1190.6 595.3c0 328.8-266.5 595.3-595.3 595.3S0 924 0 595.3 266.5 0 595.3 0s595.3 266.5 595.3 595.3"
     id="path1" />
  <g
     fill="#0032a0"
     id="g5">
    <path
       d="M595.1 50.5C294 50.5 50 294.5 50 595.5s244 545.1 545 545.1 545-244 545-545-244-545-545-545m570.3 545c0 315-255.3 570.3-570.3 570.3S24.8 910.5 24.8 595.5 280.1 25.3 595.1 25.3s570.3 255.3 570.3 570.3"
       id="path2" />
    <path
       d="M293.9 379.4c-27.5 32-51.2 86.8-55.6 115.9-.2 1.8 1 3.4 2.7 3.8 20 5.5 76.8 19.8 100.3 22.8 1.8.2 3.5-.9 3.9-2.7 9.2-42.3 26.3-77.7 37.2-95.4 1-1.7.5-3.8-1.2-4.9-.2-.1-.5-.3-.7-.3-48.6-16-74.5-34.2-82.2-39.5-1.3-1.1-3.2-1-4.4.3m301.5-60c106.8 0 183.2 69.9 195.5 82.1 1.2 1.2 2.8 1.6 4.4 1.1 10.6-3.3 21.1-7.1 31.3-11.5 2.3-.9 3.4-3.4 2.5-5.7-.2-.5-.5-.9-.8-1.3C810.1 363.3 731.1 281 595.6 281h-.7c-135.5 0-214.5 82.2-232.8 103.2-1.6 1.8-1.4 4.6.4 6.2.4.3.8.6 1.3.8 10.2 4.4 20.7 8.2 31.4 11.5 1.6.5 3.2.1 4.4-1.1 12.3-12.3 88.7-82.1 195.5-82.1z"
       id="path3" />
    <path
       d="M595.6 853.6c103.5 0 179.6-71.4 190.3-87 0 0 48.4-65.6 48.4-170.6s-48.4-170-48.4-170c-8.6-13.9-86.8-87-190.3-87h-.8c-103.5 0-181.7 73-190.3 87 0 0-48.4 65-48.4 170s48.4 170.6 48.4 170.6c10.7 15.6 86.8 87 190.3 87z"
       id="path4" />
    <path
       d="M595.6 261.3c152.7 0 238.4 98.1 253.1 116.3 1.3 1.6 3.6 2.1 5.5 1.1 8.5-4.4 16.7-9.3 24.5-14.6 2-1.3 2.6-4 1.3-6-.1-.1-.1-.2-.2-.3-21.7-25.6-114.8-134.2-284.5-134.2h-.1c-170.9 0-264.7 109.2-284.5 134.2-1.5 1.9-1.1 4.6.8 6.1.1.1.2.1.2.2 7.9 5.3 16.1 10.2 24.5 14.6 1.9 1 4.1.5 5.5-1.1 14.7-18.2 100.5-116.3 253.1-116.3z"
       id="path5" />
  </g>
  <path
     fill="red"
     d="M565.4 413.2s-6.1.6-7.1-7.8c0 0 11.7-4.7 23.8-2.5 0 0-12.6 3.4-16.7 10.3M532 445.9c-26.7 8.5-30.8-10.5-24.8-16.6-3.8.5-13 6.4-8.4 16.9 10.2 19 44.9-9 55 7l9.7 5.8-8.2-2.5c-5.8-1.2-14.1-3-21.4-.6l-4.7-3.5c-.5 2-.7 4.1-.7 6.1h.1c-10.4 9.1 1.7 18.7 1.7 18.7-1-3.3-.2-7 2.1-9.6 0 0-2.6 12.2 10.4 19.7 0 0-7.5-16.5 3-18.3 4-.6 5.7 2.3 11.1 4.3 9 3.3 13.7-4.1 13.8 3.7.1 5.9-1.5 8.4-6.6 14.1-3.6 4-9.2 7.4-15.3 10.3-10.9 4.5-25.4 8.8-29.7-4 0 0-10.9 8.7-3.3 15 0 0-26-14.5-30.3-18.8s-2.7-13.3-10.4-15.4c0 0-.4-12.4-6-17.7 0 0 5.3-26.1-14.5-27.3 0 0 4.9 7 1.3 11.1s-1.3 7.3 1.8 14.1c0 0-6.3-4.4-7.8-10.4s-2.5-9.9-8.9-9.8c0 0-9.2-10.1-18.7 2.1 0 0 9-2.2 9.2 5.5s9 16.9 12.8 19.7c0 0-16.2-7.1-25.2-1.3 0 0-11.3-1.6-12.5 11.6.6-.5 9-6.7 11.5-2.7s4.3 5.1 10.6 5.6 15.2 6 16.4 13.4c0 0-18-3.3-19.5 6-3.1 2.3-7.2 2.5-10.5.5 0 0 3.7 17.8 41.3 7.8 0 0 26.4 7.6-1.1 17.1 0 0 24.3.8 40.4 26.2 9-1 56.2-34.6 56.2-34.6s-24.8 35-60.3 45.7c-43.5 13.2-64.9-14-75.2-3.7 0 0-15.6.8-16.2 13.5 0 0 8.9-7.2 11.5-2.4 2.9 5.5 16.7 4.8 23.9 4.1 0 0-22.8 4.2-23.7 14 0 0-12.7 8.1-7.6 19.2 0 0 4.1-7.7 10.4-7.6s11-.7 19.7-9.1c0 0-16.4 23.3-6 35 .7-5.4 5.1-9.5 10.4-10 7.8-1.1-.2-16.2 19.8-14.5 0 0 .3 7.9-3.2 13.9 0 0 4.9 4.2-6.3 9.7 0 0 14.9 4 23-12.2 2.5-5.1 8.3-30.7 27.4-6.9 0 0 6.5-17.9 32.7-21.9 23.1-3.5 7.7 17.9-2.3 23.3 0 0 51.3-4.4 57.3 77.9 0 0-3.3-34.5-25.6-53.6-16.4-14.1-46.1-19.7-77.2 3 0 0 18.8-.5 12.7 17.4-6.5 19.2 26.5 40.7 7 46.1-23.1 6.5-43.2-48.4-61.3-25.8 0 0 10.7-2.2 16 6.6 0 0-18.7-11.2-27.3 9.2.5-.2 13.6-7.3 23.7 5.1 0 0-25-12.9-31.5 14 0 0 8.1-7.8 15.8-2 4.1 3.1 11.8-3.7 19.6 3.8 0 0-25-5.9-26.6 19.1 0 0 9.2-9.8 23.8-.6 16.8 10.7 27.7-1.8 27.7-1.8l-4.9 14.1s22-11.5 36.4-7.3c18.5 5.4 27.3 4.4 29-11.3 9-5.2 15.5 7.3 15.5 7.3 2.1-17.8-11.4-19.1-15.1-21.4-6-3.7 13.9-10.1 13.9-10.1-4.7-1.5-9.3-3.5-13.6-5.9-18.9-10.8-6.7-28.3 11.9-16.6s28.6 19.9 28.6 19.9c-6 5-11.5 20.6-5.2 33.7 0 0 5.2-19.4 12.9-3.8v-.1c8 13.7 19.3 23.8 46.3 37.9 15.1 7.8-9.7 30.2-37.3 15.2-22.3-12.1-28.3 8.6-28.3 8.6s9.6-7 16.4-2.2c0 0-20.1-1.1-22 22.7.8-.5 4.4-8.2 10.6-6.4 0 0 7.8-12.5 17.3-5.9 0 0-19-2.3-21.1 30.3 0 0 6.7-11.5 14.8-10.7 0 0 5-17 18.8-8.1 0 0-16.9-7.7-17.7 26.9 0 0 6.4-11.8 13.5-9.5 6.3 2.1 27.9 9.6 51.1-14.3h12s3.2-21.2 13.8-28.4q2.25-1.35 4.8-2.1c1.4-.3 2.8-.4 4.1-.2 4.9.9 7 5.7 7 5.7s2.8-11.1-7.4-24.4c14.2-8.4 13.5-21.7 13.5-21.7-11.9 11.5-31.3 7.8-40.6 3.8-9.7-4.4-20.7-13.4-8.8-29.7 17.4-24 14.4-45.3 14.6-50.7 0 0 7.3 11.7 5 26.2 0 0 19.7 17.7 54.8 9.6 18.5-4.5 26.9 20.3 12.7 30.2-14 9.7-25.3-5.3-25.3-5.3 7.4 19.4 37 21.1 47.1.5 9.7-19.8-6.5-36.8-12.7-40.3 17.2-21.6 20.4-51.2-7.5-97l-3.8-6.3c-8.4-16.3 12.8-29.3 24.5-17.7 11.2 11.2-.5 24-.5 24 18.2-10.4 13-40-7.5-45.7-17.2-4.8-28.8 5.2-32.9 12-6.4-11.2-11.1-20.2-13.9-28-3.6-11.8 12-17.2 17.7-8.1 5.4 8.6-3.8 14.9-3.8 14.9 12.9-3.9 13.9-23.1 2-29.7-5.7-3.4-12.8-3.4-18.5-.2.9-5.4 3.2-10.5 6.7-14.6 3-3.6 5.5-4.8 8-3.5 8.4 4.4 15.8 5.4 21.9 3.2 4.7-1.7 8.5-5.3 10.7-9.8l.7-1.6-1.4 1c-3.9 2.8-7.8 3.6-11.8 2.5-1.5-.4-2.8-1.1-4.1-2 8.7-1.5 15.1-5.6 19.2-12 4.9-7.7 5.4-17.5 5-24.3-.3-4.4-1-8.8-2.1-13.1l-.4-1.4-.5 1.4c-4.7 12.9-12.4 15.7-21.4 18.9-1.9.7-3.9 1.4-5.9 2.2 3.3-4.5 4.3-10.3 2.7-15.6-.8-3.3-2.7-6.3-5.3-8.5 0 0 2.2 9-7.9 18.4-3 2.6-5.7 5.6-8.1 8.8-3.1 4.5-4.1 10.2-2.8 15.5-2.2 1.5-4.3 3.1-6.4 4.8 0 0-24 17.8-13.2 56.6 6 21.5 19.3 40.1 30.8 59.3-10.3-.1-24.8 4.2-33.2 20.8-11.2 22.1 6.3 50.8 30.6 47 0 0-25-4.4-19.6-26.8 4.6-18.9 33.1-22.2 41.3 1.3 14.5 41.4-34.9 68.3-74 16.7-22.1-29.1-63.2-53.8-42-82.4 14.4 22.2 42 9.8 42 9.8-31.2-17.5-14.5-50.7-14.5-50.7l14.2 11.1c13.4-41.5-9.4-64.7-9-64.8 13-.4 21.3 15 21.3 15 10.7-35-17.9-46.4-17.9-46.4 17-15.3 30.1 2.1 30.1 2.1 1.9-29.7-28.2-39-28.2-39l15.9-4.9c-28.7-33.1-63.8-10.3-63.8-10.3 7-10.1 2.4-18.4 2.4-18.4s-4.1 11.1-26.4 12.8c-19.9 1.5-22.1 14.6-22.1 14.6 11.3-4.1 20.1-1.4 20.1-1.4s-22.2 3.7-29.3 7.9c-8.3 4.8-5.8 7.1-15.7 9.4-10.9 2.5-18.4 4.6-19.5 5.6-1.4 1.3-1.8 2.8-.3 8.5l11.5-5s-4.1 10.9-12.8 8.5c0 0-4.8 11.6 3.4 13.4.6 1.9 2 5.3 4.2 5.7-.5-2.2.3-4.5 2.1-5.9-.1 0 4.8.6 12.2-2.3 8.8-3.4 30.3-11.6 22.8 14 .1.2-7-13-34.4-4.2"
     id="path6" />
  <path
     fill="#0032a0"
     d="M651.6 894.4c-1.4.3-2.9.6-4.3 1.1.1.9.3 1.8.5 2.7l6.8 33.3.6 2.7c1.9-.1 3.8-.3 5.7-.7 5.6-1.1 18.8-5.3 15.2-23-3.2-15.5-13.6-18-24.5-16.1m-52.1 9.7c-.4 1.3-.8 2.5-1.1 3.3l-6.3 18.3 15.4-.2-6.8-18.2c-.4-.7-.8-1.9-1.2-3.2"
     id="path7" />
  <path
     fill="#0032a0"
     d="m 732.1,860.1 c -1.2,4.1 0,0 0,0 z m 142.4,-33.6 c -30,-18.8 -54.8,-27.3 -78.4,-35.1 -2.7,-0.9 -5.6,-0.2 -7.6,1.8 -15.9,15.9 -89.6,80.1 -192.9,80.1 h -0.9 c -103.4,0 -177,-64.2 -192.9,-80.1 -2,-2 -5,-2.6 -7.6,-1.8 -23.5,7.8 -48.3,16.3 -78.4,35.1 -3.5,2.2 -4.6,6.8 -2.4,10.4 0.1,0.2 0.3,0.4 0.4,0.6 21.7,27.9 117,130 281.2,130 h 0.3 c 164.2,0 259.5,-102 281.2,-130 2.5,-3.3 1.9,-8 -1.3,-10.5 -0.3,-0.2 -0.6,-0.3 -0.7,-0.5 M 293.9,812.9 c -27.5,-32 -51.2,-86.8 -55.6,-115.9 -0.2,-1.8 1,-3.4 2.7,-3.8 20,-5.5 76.8,-19.8 100.3,-22.8 1.8,-0.2 3.5,0.9 3.9,2.7 9.2,42.3 26.3,77.7 37.2,95.4 1,1.7 0.5,3.8 -1.2,4.9 -0.2,0.1 -0.5,0.3 -0.7,0.3 -48.6,16 -74.5,34.2 -82.2,39.5 -1.4,1 -3.3,0.9 -4.4,-0.3 M 340,545.7 c 0.3,-2.2 -1.2,-4.3 -3.4,-4.6 -36.3,-6.1 -73.5,-16 -100,-22.8 -1.9,-0.5 -3.9,0.5 -4.6,2.4 -2.8,9.6 -4.8,19.4 -5.9,29.3 -5.4,41.5 -2.7,94.5 5.8,121.5 0.7,1.9 2.7,2.9 4.6,2.4 26.5,-6.8 63.7,-16.7 100,-22.8 2.2,-0.3 3.8,-2.4 3.4,-4.6 -2.5,-17.5 -3.3,-39.1 -3.3,-50.4 h 0.1 c 0,-11.2 0.8,-32.8 3.3,-50.4 M 896.4,379.4 c 27.5,32 51.2,86.8 55.6,115.9 0.2,1.8 -1,3.4 -2.7,3.8 -20,5.5 -76.8,19.8 -100.3,22.8 -1.8,0.2 -3.5,-0.9 -3.9,-2.7 -9.2,-42.3 -26.3,-77.7 -37.2,-95.4 -1,-1.7 -0.5,-3.8 1.2,-4.9 0.2,-0.1 0.5,-0.3 0.7,-0.3 48.6,-16 74.5,-34.2 82.2,-39.5 1.3,-1.1 3.2,-0.9 4.4,0.3 m 0,433.5 c 27.5,-32 51.2,-86.8 55.7,-115.9 0.2,-1.8 -1,-3.4 -2.7,-3.8 -20,-5.5 -76.8,-19.8 -100.3,-22.8 -1.8,-0.2 -3.5,0.9 -3.9,2.7 -9.2,42.3 -26.3,77.7 -37.2,95.4 -1,1.7 -0.5,3.8 1.2,4.9 0.2,0.1 0.5,0.3 0.7,0.3 48.6,16 74.5,34.2 82.2,39.5 1.2,1 3.1,0.9 4.3,-0.3 M 850.3,545.7 c -0.3,-2.2 1.2,-4.3 3.4,-4.6 36.3,-6.1 73.5,-16 100,-22.8 1.9,-0.5 3.9,0.5 4.6,2.4 2.8,9.6 4.8,19.4 5.9,29.3 5.4,41.5 2.7,94.5 -5.8,121.5 -0.7,1.9 -2.7,2.9 -4.6,2.4 -26.5,-6.8 -63.7,-16.7 -100,-22.8 -2.2,-0.3 -3.8,-2.4 -3.4,-4.6 2.5,-17.5 3.3,-39.1 3.3,-50.4 h -0.1 c 0,-11.2 -0.7,-32.8 -3.3,-50.4"
     id="path8"
     sodipodi:nodetypes="ccccssssccccssccccccccccccccccccccccccccccccccccccccccccccccccccccccccc" />
</svg>
