<?xml version="1.0" encoding="UTF-8" standalone="no"?>
<svg
   viewBox="0 0 700 700"
   version="1.1"
   id="svg45"
   sodipodi:docname="st-mirren.svg"
   inkscape:version="1.4.2 (f4327f4, 2025-05-13)"
   xmlns:inkscape="http://www.inkscape.org/namespaces/inkscape"
   xmlns:sodipodi="http://sodipodi.sourceforge.net/DTD/sodipodi-0.dtd"
   xmlns="http://www.w3.org/2000/svg"
   xmlns:svg="http://www.w3.org/2000/svg">
  <sodipodi:namedview
     id="namedview45"
     pagecolor="#ffffff"
     bordercolor="#000000"
     borderopacity="0.25"
     inkscape:showpageshadow="2"
     inkscape:pageopacity="0.0"
     inkscape:pagecheckerboard="0"
     inkscape:deskcolor="#d1d1d1"
     inkscape:zoom="1.2157143"
     inkscape:cx="349.58872"
     inkscape:cy="350"
     inkscape:window-width="1920"
     inkscape:window-height="1111"
     inkscape:window-x="-9"
     inkscape:window-y="-9"
     inkscape:window-maximized="1"
     inkscape:current-layer="svg45" />
  <defs
     id="defs1">
    <style
       id="style1">.cls-1{fill:#fff}.cls-2{fill:#fdca00}.cls-3{fill:#212392}.cls-4{fill:#d5001c}</style>
  </defs>
  <path
     d="M0 350C0 156.68 156.7 0 350 0s350 156.68 350 350c0 193.3-156.7 350-350 350S0 543.3 0 350"
     class="cls-1"
     id="path1" />
  <path
     d="M350 6.48C160.28 6.48 6.48 160.26 6.48 350S160.28 693.52 350 693.52 693.52 539.72 693.52 350 539.72 6.48 350 6.48"
     id="path2" />
  <path
     d="M586.28 586.28A334.16 334.16 0 1 1 684.15 350a333.15 333.15 0 0 1-97.87 236.28"
     class="cls-1"
     id="path3" />
  <circle
     cx="350"
     cy="350"
     r="327.48"
     id="circle3" />
  <path
     d="M476.82 51.92A323 323 0 0 1 521 75l-58.94 79.66q-8.34-4.8-17.11-8.87ZM306.94 571.09c5.73 3.5 11.11 6.65 16 9.39a232 232 0 0 1-131-400.26l4.08 5.52A224.56 224.56 0 0 0 124.78 350c0 109.66 78.37 201 182.16 221.09m86.13 0C496.85 551 575.22 459.65 575.22 350a224.58 224.58 0 0 0-71.16-164.26l4.1-5.54A232.06 232.06 0 0 1 377.1 580.48c4.9-2.75 10.24-5.89 15.97-9.39m-16.94-543.9a323 323 0 0 1 51 8.22l-31.89 93.92q-9.43-1.92-19.13-3Z"
     class="cls-1"
     id="path4" />
  <path
     d="M502.62 197.37A215.93 215.93 0 0 1 417.82 555q4.08-2.84 8.21-5.85c18.33-13.41 36.76-29.17 50.84-46.6s24-36.69 24-57.23V200.36H199.13v244.92c0 20.54 10 39.82 24 57.23 16.2 20 38.15 37.91 59.09 52.47a215.87 215.87 0 1 1 220.4-357.61"
     class="cls-1"
     id="path5" />
  <path
     d="M323.87 27.19v99.1c-6.46.75-12.85 1.76-19.13 3l-31.89-93.88a323 323 0 0 1 51.02-8.22M223.18 51.92 255 145.74q-8.76 4.08-17.12 8.86L179 75a322 322 0 0 1 44.18-23.08"
     class="cls-1"
     id="path6" />
  <path
     d="M579 579a323.86 323.86 0 0 1-458-458q7.74-7.72 16-14.92l52.7 71.21A235 235 0 0 0 114.31 350c0 123.73 95.35 225.18 216.59 234.91 9.91 5.39 16.19 8.39 16.28 8.43l2.82 1.35 2.83-1.35c.09 0 6.36-3 16.28-8.43C490.34 575.18 585.69 473.73 585.69 350a235 235 0 0 0-75.36-172.73l52.67-71.2q8.24 7.2 16 14.92a323.84 323.84 0 0 1 0 458Z"
     class="cls-1"
     id="path7" />
  <path
     d="M350 213.48H212.24v99.96h275.52v-99.96z"
     class="cls-2"
     id="path9" />
  <path
     d="M212.24 356.6h32.29v32.29h-32.29z"
     class="cls-3"
     id="path10" />
  <path
     d="M246.99 356.6h32.29v32.29h-32.29z"
     class="cls-1"
     id="path11" />
  <path
     d="M281.73 388.89V356.6h32.3v32.29z"
     class="cls-3"
     id="path12" />
  <path
     d="M316.48 388.89V356.6h32.29v32.29z"
     class="cls-1"
     id="path13" />
  <path
     d="M351.23 356.6h32.29v32.29h-32.29z"
     class="cls-3"
     id="path14" />
  <path
     d="M385.97 356.59h32.29v32.29h-32.29z"
     class="cls-1"
     id="path15" />
  <path
     d="M420.72 356.59h32.29v32.29h-32.29z"
     class="cls-3"
     id="path16" />
  <path
     d="M420.72 321.85h32.29v32.29h-32.29z"
     class="cls-1"
     id="path17" />
  <path
     d="M385.97 321.85h32.29v32.3h-32.29z"
     class="cls-3"
     id="path18" />
  <path
     d="M351.23 321.85h32.29v32.29h-32.29z"
     class="cls-1"
     id="path19" />
  <path
     d="M348.77 354.14h-32.29v-32.29h32.29z"
     class="cls-3"
     id="path20" />
  <path
     d="M314.03 354.14h-32.3v-32.29h32.29z"
     class="cls-1"
     id="path21" />
  <path
     d="M279.28 354.14h-32.29v-32.29h32.29z"
     class="cls-3"
     id="path22" />
  <path
     d="M244.53 354.14h-32.29v-32.29h32.29zm-32.29 37.2h32.29v32.29h-32.29z"
     class="cls-1"
     id="path23" />
  <path
     d="M246.99 391.34h32.29v32.29h-32.29z"
     class="cls-3"
     id="path24" />
  <path
     d="M281.73 391.34h32.29v32.29h-32.29z"
     class="cls-1"
     id="path25" />
  <path
     d="M316.48 391.34h32.29v32.29h-32.29z"
     class="cls-3"
     id="path26" />
  <path
     d="M351.23 391.34h32.29v32.3h-32.29z"
     class="cls-1"
     id="path27" />
  <path
     d="M385.97 391.34h32.29v32.29h-32.29z"
     class="cls-3"
     id="path28" />
  <path
     d="M420.72 391.34h32.29v32.3h-32.29zm34.75-34.75h32.29v32.29h-32.29z"
     class="cls-1"
     id="path29" />
  <path
     d="M455.47 391.34h32.29v32.29h-32.29zm0-69.49h32.29v32.29h-32.29z"
     class="cls-3"
     id="path30" />
  <path
     d="M233.33 494.27c19.47 24.16 49.46 46.2 74.5 62a536 536 0 0 0 31.95 18.59c4.07 2.18 7.35 3.86 9.6 5l.62.31c9.79-4.9 43.4-22.42 74.93-46.56 16.55-12.65 32.51-27.14 44.12-42.31s18.74-30.88 18.71-46v-13.25H212.24v13.23c-.05 16.08 8.06 32.88 21.09 48.99"
     class="cls-2"
     id="path31" />
  <path
     d="M273.65 235.81c1.5 2.23 3.17 4.65 3 7.82.74 2.43-1.67 4.66.19 6.15a17.6 17.6 0 0 1 16.38-2.43c6.15 3.17 10.61 8.38 15.08 13.41a4.14 4.14 0 0 1 0 3c-2.78.56-2.78 4.29-5.58 4.84-2 2.24-4.84 3-7.27 4.84-2.23 3-7.06 1.49-8.94 5 2.06 3.9 3 8.56 3.92 12.84-2 3.16 1.86 5.4.74 8.57-.59 1.61-.74.3-1.67 1.61l-1.86.06c-5.6.56-10.8-.57-15.46-1.49-3.35-1.5-6.33-3.53-9.5-5.22-3.53 2.43-7.45 4.85-11.73 5.42-3.91 2.05-8.75 2.4-13.23 2.59-2.6-7.06-5.2-17.68-1.85-25.32-3.91-3.17-10.43-6.52-12.66-11.91-.56-2.8-5-4.85-2.8-8a45.7 45.7 0 0 1 10.06-8.94c3.54.55 4.65-2.42 8-1.68 1.11 1.31 2.24-.57 3.54-.19 1.67 0 3.72 2.8 4.84.19-2.79-9.5 5.58-17.13 12.29-22.9 6.51 1.86 9.5 7.27 14.52 11.73"
     id="path32" />
  <path
     d="M261.73 232.27c4.28 3.17 8.95 7.08 8.2 13-.75 1.48-.93 4.09-3 4.28-3.17.37-2.05-3.53-3.54-5 .37-.56.18-1.49.18-2.24a1.64 1.64 0 0 0-2.41-.55c-1.12.92 0 2 0 3.16-.57 1.69-1.31 3.91-3 4.47-2.25 1.12-3-.93-4.28-2.24-1.13-2.23-2.62-5.77-.57-8.19a66 66 0 0 1 6.71-7.26l1.67.56m-15.79 24.4c.57 2.79-2.79 2-3.9 3.36-1.49-.19-3-.19-3.92.74.2 3.72 5.4 1.11 6.71 4.09.93 2-1.12 4.67-3.54 5.4-4.28 2.61-7.64-1.48-10.8-3.16-1.12-2.42-3.54-4.09-3-7.07a15.93 15.93 0 0 1 10.61-8c3.17 0 6.71 1.49 7.82 4.65m54.4 4.09c.38 5.39-5.77 6.14-8.94 8.38-2.6 1.11-6.52 1.86-9.13.38-1.67-1.68-5-2.43-4.28-5.22.94-1.3 3.92-1.12 3-3.17-.94-2.23-6-1.11-2.8-4.27 1.67-2.43 4.84-3 7.27-4.85 7.26-1.68 10.6 4.84 14.89 8.75m-30.36-1.48a12.71 12.71 0 0 1 0 12.09c-2.05 2.8-5.4 3.72-8.75 3.54-3.36.18-5.22-1.86-7.83-3.54-1.68-3.34-2.6-8.19-.93-11.92 2.8-4.1 7.08-5.58 12.11-4.46 2.22.36 4.1 2.41 5.4 4.29"
     class="cls-4"
     id="path33" />
  <path
     d="M284.64 260.76c-.19.57-.74.57-1.3.57-.37-.95 1.3-1.88 1.3-.57"
     id="path34" />
  <path
     d="M250.19 276.4c1.11 3-.38 4.29-.56 7.08 3.91 1.86 4.84-6.15 8.93-2.61 1.5 2.42 0 5.21-.55 7.64-3.54 5.22-9.31 7.64-15.64 7.64-2.61-1.69-.19-5.78-1.86-8 .19-3.35 0-7.44 2.6-10.05 1.87-1.5 5.4-4.66 7.08-1.68m32.21 7.24c.94 3.72 1.12 6.9 2.24 10.24-1.49 4.3-5.4 1.88-8.75 2.25-4.84-1.13-9.13-4.85-9.87-9.69 0-2.61-1.48-4.85 1.11-6.52 1.68.37 4.29 2.42 5.6 0 .37-1.3-.38-2.43.73-3.17 3.74.94 7.46 3 8.94 6.89"
     class="cls-4"
     id="path35" />
  <path
     d="M275 283.11c-.38.37-1.13 1.3-1.86.55v-1.3c.73 0 1.67-.18 1.86.75m151.35-47.3c-1.5 2.23-3.17 4.65-3 7.82-.74 2.43 1.68 4.66-.19 6.15a17.6 17.6 0 0 0-16.38-2.43c-6.15 3.17-10.61 8.38-15.08 13.41a4.14 4.14 0 0 0 0 3c2.78.56 2.78 4.29 5.58 4.84 2 2.24 4.84 3 7.27 4.84 2.23 3 7.06 1.49 8.94 5-2.06 3.9-3 8.56-3.92 12.84 2 3.16-1.86 5.4-.74 8.57.59 1.61.74.3 1.67 1.61l1.87.06c5.59.56 10.79-.57 15.46-1.49 3.34-1.5 6.32-3.53 9.5-5.22 3.52 2.43 7.44 4.85 11.72 5.42 3.91 2.05 8.76 2.4 13.23 2.59 2.6-7.06 5.2-17.68 1.85-25.32 3.91-3.17 10.43-6.52 12.66-11.91.56-2.8 5-4.85 2.8-8a45.7 45.7 0 0 0-10.06-8.94c-3.53.55-4.65-2.42-8-1.68-1.12 1.31-2.24-.57-3.54-.19-1.68 0-3.72 2.8-4.85.19 2.8-9.5-5.57-17.13-12.29-22.9-6.51 1.86-9.5 7.27-14.52 11.73"
     id="path36" />
  <path
     d="M438.26 232.27c-4.27 3.17-8.94 7.08-8.19 13 .75 1.48.93 4.09 3 4.28 3.17.37 2.05-3.53 3.54-5-.37-.56-.18-1.49-.18-2.24a1.64 1.64 0 0 1 2.41-.55c1.12.92 0 2 0 3.16.57 1.69 1.31 3.91 3 4.47 2.24 1.12 3-.93 4.28-2.24 1.13-2.23 2.62-5.77.57-8.19a66 66 0 0 0-6.71-7.26l-1.68.56m15.8 24.4c-.57 2.79 2.79 2 3.9 3.36 1.5-.19 3-.19 3.92.74-.19 3.72-5.4 1.11-6.71 4.09-.93 2 1.12 4.67 3.54 5.4 4.28 2.61 7.64-1.48 10.8-3.16 1.12-2.42 3.54-4.09 3-7.07a15.91 15.91 0 0 0-10.61-8c-3.17 0-6.71 1.49-7.82 4.65m-54.4 4.09c-.38 5.39 5.77 6.14 8.94 8.38 2.61 1.11 6.52 1.86 9.13.38 1.67-1.68 5-2.43 4.28-5.22-.94-1.3-3.92-1.12-3-3.17.94-2.23 6-1.11 2.8-4.27-1.67-2.43-4.84-3-7.27-4.85-7.26-1.68-10.6 4.84-14.89 8.75m30.36-1.48a12.71 12.71 0 0 0 0 12.09c2.05 2.8 5.4 3.72 8.75 3.54 3.36.18 5.22-1.86 7.83-3.54 1.68-3.34 2.6-8.19.93-11.92-2.8-4.1-7.08-5.58-12.11-4.46-2.22.36-4.1 2.41-5.4 4.29"
     class="cls-4"
     id="path37" />
  <path
     d="M415.36 260.76c.19.57.74.57 1.3.57.38-.95-1.3-1.88-1.3-.57"
     id="path38" />
  <path
     d="M449.81 276.4c-1.11 3 .38 4.29.56 7.08-3.91 1.86-4.84-6.15-8.93-2.61-1.5 2.42 0 5.21.54 7.64 3.55 5.22 9.32 7.64 15.65 7.64 2.61-1.69.19-5.78 1.86-8-.19-3.35 0-7.44-2.6-10.05-1.87-1.5-5.41-4.66-7.08-1.68m-32.21 7.24c-.94 3.72-1.12 6.9-2.24 10.24 1.49 4.3 5.4 1.88 8.75 2.25 4.84-1.13 9.13-4.85 9.87-9.69 0-2.61 1.48-4.85-1.11-6.52-1.68.37-4.29 2.42-5.6 0-.37-1.3.38-2.43-.73-3.17-3.74.94-7.46 3-8.94 6.89"
     class="cls-4"
     id="path39" />
  <path
     d="M425 283.11c.38.37 1.13 1.3 1.86.55v-1.3c-.73 0-1.67-.18-1.86.75M287.35 154.63l9.71-3.36H303v36.82c0 3.34 4.42.72 4.42 3.88v1.44h-18.7V192c0-3.16 4.8-.54 4.8-3.88v-31h-6.17v-2.45m38.7 20.95c-2.22 1.2-3.29 5.33-3.29 7.72 0 4.56 2.63 8.28 7.5 8.28 3.95 0 6.28-2.7 6.28-6.48 0-4.13-3.59-6.11-6.82-7.78zm11.22-15c0-4.07-2.47-7.55-6.72-7.55a6 6 0 0 0-5.94 5.76c0 4.79 4.39 7.55 8.4 9.17a8.12 8.12 0 0 0 4.26-7.38m-1.15 9.24c5 2.46 9.24 5.09 9.24 11.38 0 4.68-3.3 13.26-15.95 13.26-8.33 0-14.15-5-14.15-11.22 0-4.79 3.9-7.66 7.74-9.58-4.08-2.65-6.72-6-6.72-11 0-7.92 7.49-12.47 14.75-12.47 6 0 13.14 3.17 13.14 10.12 0 4.39-2.35 6.23-5.82 8.27Zm42.98-14.51-3.84 4.8c-4.07 5-8.09 14.21-8.09 20.8 0 3.12 1.19 5.81 1.19 8.21 0 3.3-2 5.34-5.27 5.34-4 0-5.93-2.45-5.93-6.3 0-6.24 5.34-14.75 7.43-17.92l6.77-10.28h-12.58c-6.3 0-2.95 4.33-7.08 4.33h-1.14V150a9.24 9.24 0 0 0 4.85 1.32h23.69v4.08m33.55-.05-3.83 4.8c-4.08 5-8.1 14.21-8.1 20.8 0 3.12 1.2 5.81 1.2 8.21 0 3.3-2 5.34-5.27 5.34-4 0-5.95-2.45-5.95-6.3 0-6.24 5.34-14.75 7.44-17.92l6.77-10.28h-12.58c-6.3 0-2.94 4.33-7.08 4.33h-1.14V150a9.24 9.24 0 0 0 4.85 1.32h23.69v4.08M324.2 510.56l-8.1-4.15a6.8 6.8 0 0 0 .38-2.26v-.55a6.8 6.8 0 0 0-1-3.62 23.2 23.2 0 0 0 7.43-4.4 21.07 21.07 0 0 0 6.75-16.08c0-5.23-1.17-8.65-2.55-10.8a8 8 0 0 0-3.26-3.09.4.4 0 0 0-.16-.06 17 17 0 0 0-1-2.45 14.7 14.7 0 0 0-5.72-6.14 37.5 37.5 0 0 0-3.17-6.28 21.7 21.7 0 0 0-4.51-5.2 10.59 10.59 0 0 0-14 0 24.6 24.6 0 0 0-6 7.86c-.77 1.49-1.32 2.79-1.65 3.62a14.73 14.73 0 0 0-5.71 6.14 17 17 0 0 0-1 2.45 1 1 0 0 0-.16.06 8 8 0 0 0-3.26 3.09c-1.38 2.15-2.55 5.57-2.55 10.8a21.06 21.06 0 0 0 6.76 16.08 23 23 0 0 0 7.42 4.4 6.9 6.9 0 0 0-1 3.62v.55a7.2 7.2 0 0 0 .38 2.27l-8.09 4.14a2.5 2.5 0 0 0-1.36 2.22v4.42a2.49 2.49 0 0 0 2.49 2.48h41.57a2.47 2.47 0 0 0 1.76-.73 2.5 2.5 0 0 0 .73-1.75v-4.42a2.49 2.49 0 0 0-1.42-2.22"
     id="path40" />
  <path
     d="M318.84 466.78a17 17 0 0 0-1.68.91 14.36 14.36 0 0 0-5 5.35l-.06-.12a27.2 27.2 0 0 0-3.2-4.94 13.5 13.5 0 0 1 3.51-5.56 13 13 0 0 1 1.68-1.36 9.56 9.56 0 0 1 4.16 4.3 12 12 0 0 1 .59 1.42m-23.49-13.98a15.4 15.4 0 0 1 3.29-3.62 6 6 0 0 1 3.63-1.36 6.2 6.2 0 0 1 3.88 1.55 19.9 19.9 0 0 1 4.73 6.25c.21.42.41.82.58 1.19a18 18 0 0 0-2.51 2 18.5 18.5 0 0 0-4 5.61 15 15 0 0 0-1.6-.9 2.51 2.51 0 0 0-2.11 0 15 15 0 0 0-1.6.9 18.5 18.5 0 0 0-4-5.61 19 19 0 0 0-2.52-2 28.5 28.5 0 0 1 2.23-4.01m-4.86 8.26a13.4 13.4 0 0 1 5.19 6.92 27.2 27.2 0 0 0-3.2 4.94l-.06.12a17 17 0 0 0-1.13-1.77 13.9 13.9 0 0 0-3.9-3.58 17 17 0 0 0-1.68-.91 12.5 12.5 0 0 1 .71-1.59 9.48 9.48 0 0 1 4.07-4.13"
     class="cls-3"
     id="path41" />
  <path
     d="M279.89 479.5c0-4.51 1-6.89 1.76-8.12a6 6 0 0 1 .53-.7 15 15 0 0 1 2.59 1.24 9.4 9.4 0 0 1 3.57 4 36.6 36.6 0 0 1 2.76 9.12 2.49 2.49 0 1 0 4.88-1c-.31-1.54-.64-2.94-1-4.23a31 31 0 0 1 2.19-5.21 16.5 16.5 0 0 1 5.09-6 17.2 17.2 0 0 1 5.36 6.56 29.5 29.5 0 0 1 1.6 3.75c.13.36.23.68.31.92a106 106 0 0 0-1 4.24 2.49 2.49 0 1 0 4.88 1c1.12-5.61 2.36-8.9 3.82-10.85a8.9 8.9 0 0 1 2.51-2.31 15 15 0 0 1 2.59-1.23c.82.92 2.27 3.23 2.29 8.81 0 5-1.64 9.26-5.1 12.38s-9 5.25-17.29 5.26-13.77-2.13-17.23-5.26-5.1-7.36-5.11-12.37m22.41 22.61h8.21a.76.76 0 0 1 .59.31 1.8 1.8 0 0 1 .41 1.18v.55a1.8 1.8 0 0 1-.41 1.18.76.76 0 0 1-.59.31H294a.76.76 0 0 1-.59-.31 1.8 1.8 0 0 1-.41-1.18v-.55a1.8 1.8 0 0 1 .41-1.18.76.76 0 0 1 .59-.31h8.26Zm18.27 12.6h-36.59v-.41l7.18-3.68h22.23l7.18 3.68z"
     class="cls-3"
     id="path42" />
  <path
     d="m375.8 510.56 8.1-4.15a6.8 6.8 0 0 1-.38-2.26v-.55a6.8 6.8 0 0 1 1-3.62 23.2 23.2 0 0 1-7.43-4.4 21.07 21.07 0 0 1-6.75-16.08c0-5.23 1.17-8.65 2.55-10.8a8 8 0 0 1 3.26-3.09.4.4 0 0 1 .16-.06 17 17 0 0 1 1-2.45 14.7 14.7 0 0 1 5.72-6.14 37.5 37.5 0 0 1 3.17-6.28 21.7 21.7 0 0 1 4.51-5.2 10.59 10.59 0 0 1 14 0 24.6 24.6 0 0 1 6 7.86 38 38 0 0 1 1.65 3.62 14.76 14.76 0 0 1 5.72 6.14 17 17 0 0 1 1 2.45 1 1 0 0 1 .16.06 8 8 0 0 1 3.26 3.09c1.38 2.15 2.55 5.57 2.55 10.8a21.05 21.05 0 0 1-6.75 16.08 23.2 23.2 0 0 1-7.43 4.4 6.9 6.9 0 0 1 1 3.62v.55a6.9 6.9 0 0 1-.38 2.27l8.09 4.14a2.48 2.48 0 0 1 1.36 2.22v4.42a2.49 2.49 0 0 1-2.49 2.48h-41.51a2.47 2.47 0 0 1-1.76-.73 2.5 2.5 0 0 1-.73-1.75v-4.42a2.49 2.49 0 0 1 1.35-2.22"
     id="path43" />
  <path
     d="M381.16 466.78a17 17 0 0 1 1.68.91 14.36 14.36 0 0 1 5 5.35l.06-.12a27.2 27.2 0 0 1 3.2-4.94 13.5 13.5 0 0 0-3.51-5.56 13 13 0 0 0-1.68-1.36 9.56 9.56 0 0 0-4.16 4.3 12 12 0 0 0-.59 1.42m23.49-13.98a15.2 15.2 0 0 0-3.29-3.62 6 6 0 0 0-3.63-1.36 6.2 6.2 0 0 0-3.88 1.55 19.9 19.9 0 0 0-4.73 6.25c-.21.42-.41.82-.58 1.19a18 18 0 0 1 2.51 2 18.5 18.5 0 0 1 4 5.61 15 15 0 0 1 1.6-.9 2.51 2.51 0 0 1 2.11 0 15 15 0 0 1 1.6.9 18.56 18.56 0 0 1 6.53-7.62 28.5 28.5 0 0 0-2.24-4m4.86 8.26a13.4 13.4 0 0 0-5.19 6.92 27.7 27.7 0 0 1 3.2 4.94l.06.12a17 17 0 0 1 1.13-1.77 13.7 13.7 0 0 1 3.9-3.58 18 18 0 0 1 1.67-.91 11 11 0 0 0-.7-1.59 9.48 9.48 0 0 0-4.07-4.13"
     class="cls-3"
     id="path44" />
  <path
     d="M420.11 479.5c0-4.51-1-6.89-1.76-8.12a8 8 0 0 0-.52-.7 14.7 14.7 0 0 0-2.6 1.24 9.4 9.4 0 0 0-3.57 4 36.6 36.6 0 0 0-2.76 9.12 2.49 2.49 0 0 1-4.88-1c.31-1.54.64-2.94 1-4.23a31 31 0 0 0-2.19-5.21 16.5 16.5 0 0 0-5.09-6 17.2 17.2 0 0 0-5.36 6.56 29.5 29.5 0 0 0-1.6 3.75c-.13.36-.23.68-.31.92.34 1.29.66 2.69 1 4.24a2.49 2.49 0 1 1-4.88 1c-1.12-5.61-2.36-8.9-3.82-10.85a8.9 8.9 0 0 0-2.51-2.31 15 15 0 0 0-2.59-1.23c-.82.92-2.27 3.23-2.29 8.81 0 5 1.64 9.26 5.1 12.38s9 5.25 17.29 5.26 13.77-2.13 17.23-5.26 5.09-7.36 5.11-12.37m-22.41 22.61h-8.21a.76.76 0 0 0-.59.31 1.8 1.8 0 0 0-.41 1.18v.55a1.8 1.8 0 0 0 .41 1.18.76.76 0 0 0 .59.31H406a.78.78 0 0 0 .59-.31 1.76 1.76 0 0 0 .4-1.18v-.55a1.76 1.76 0 0 0-.4-1.18.78.78 0 0 0-.59-.31zm-18.27 12.6h36.59v-.41l-7.18-3.68h-22.23l-7.18 3.68z"
     class="cls-3"
     id="path45" />
</svg>
